<svg width="24" height="24" viewBox="0 0 24 24" fill="none" xmlns="http://www.w3.org/2000/svg">
<g id="airplay_24px">
<path id="icon/av/airplay_24px" fill-rule="evenodd" clip-rule="evenodd" d="M3 2.5H21C22.1 2.5 23 3.4 23 4.5V16.5C23 17.6 22.1 18.5 21 18.5H18C17.45 18.5 17 18.05 17 17.5C17 16.95 17.45 16.5 18 16.5H20C20.55 16.5 21 16.05 21 15.5V5.5C21 4.95 20.55 4.5 20 4.5H4C3.45 4.5 3 4.95 3 5.5V15.5C3 16.05 3.45 16.5 4 16.5H6C6.55 16.5 7 16.95 7 17.5C7 18.05 6.55 18.5 6 18.5H3C1.9 18.5 1 17.6 1 16.5V4.5C1 3.4 1.9 2.5 3 2.5ZM16.29 19.79C16.92 20.42 16.47 21.5 15.58 21.5H8.41C7.52 21.5 7.08 20.42 7.7 19.79L11.29 16.2C11.4768 16.0127 11.7305 15.9075 11.995 15.9075C12.2595 15.9075 12.5132 16.0127 12.7 16.2L16.29 19.79Z" fill="black" fill-opacity="0.54"/>
</g>
</svg>
