<svg width="24" height="24" viewBox="0 0 24 24" fill="none" xmlns="http://www.w3.org/2000/svg">
<g id="control_camera_24px">
<path id="icon/av/control_camera_24px" fill-rule="evenodd" clip-rule="evenodd" d="M9.34997 6.42002C9.83997 6.90002 10.62 6.90002 11.11 6.42002L12 5.54002L12.89 6.42002C13.38 6.90002 14.16 6.90002 14.65 6.42002C15.14 5.93002 15.14 5.14002 14.65 4.65002L12.7 2.70002C12.5131 2.51276 12.2595 2.40753 11.995 2.40753C11.7305 2.40753 11.4768 2.51276 11.29 2.70002L9.34997 4.65002C8.85997 5.14002 8.85997 5.94002 9.34997 6.42002ZM17.58 9.35002C17.1 9.84002 17.1 10.62 17.58 11.11L18.46 12L17.58 12.89C17.1 13.38 17.1 14.16 17.58 14.65C18.07 15.14 18.86 15.14 19.35 14.65L21.3 12.7C21.69 12.31 21.69 11.68 21.3 11.29L19.35 9.34002C18.86 8.86002 18.06 8.86002 17.58 9.35002ZM4.64997 9.35002L2.69997 11.3C2.30997 11.69 2.30997 12.32 2.69997 12.71L4.64997 14.66C5.13997 15.15 5.92997 15.15 6.41997 14.66C6.89997 14.17 6.89997 13.39 6.41997 12.9L5.53997 12L6.41997 11.11C6.89997 10.62 6.89997 9.84002 6.41997 9.35002C5.93997 8.86002 5.13997 8.86002 4.64997 9.35002ZM11.11 17.58L12 18.46L12.9 17.58C13.39 17.1 14.17 17.1 14.66 17.58C15.15 18.07 15.15 18.86 14.66 19.35L12.71 21.3C12.32 21.69 11.69 21.69 11.3 21.3L9.34997 19.35C8.85997 18.86 8.85997 18.07 9.34997 17.58C9.83997 17.1 10.62 17.1 11.11 17.58ZM8.99997 12C8.99997 10.3432 10.3431 9.00002 12 9.00002C13.6568 9.00002 15 10.3432 15 12C15 13.6569 13.6568 15 12 15C10.3431 15 8.99997 13.6569 8.99997 12Z" fill="black" fill-opacity="0.54"/>
</g>
</svg>
