<svg width="24" height="24" viewBox="0 0 24 24" fill="none" xmlns="http://www.w3.org/2000/svg">
<g id="fiber_smart_record_24px">
<path id="icon/av/fiber_smart_record_24px" fill-rule="evenodd" clip-rule="evenodd" d="M1 12C1 7.58172 4.58172 4 9 4C13.4183 4 17 7.58172 17 12C17 16.4183 13.4183 20 9 20C4.58172 20 1 16.4183 1 12ZM17 5.73V5.55C17 4.87 17.71 4.45 18.32 4.73C21.08 5.99 23 8.77 23 12C23 15.23 21.08 18.01 18.32 19.26C17.71 19.55 17 19.12 17 18.44V18.26C17 17.89 17.23 17.58 17.57 17.42C19.6 16.46 21 14.39 21 12C21 9.61 19.6 7.54 17.57 6.58C17.23 6.42 17 6.1 17 5.73Z" fill="black" fill-opacity="0.54"/>
</g>
</svg>
