<svg width="24" height="24" viewBox="0 0 24 24" fill="none" xmlns="http://www.w3.org/2000/svg">
<g id="forward_10_24px">
<path id="icon/av/forward_10_24px" fill-rule="evenodd" clip-rule="evenodd" d="M17.9733 14.5087C18.0433 14.0187 18.4533 13.6487 18.9533 13.6487C19.5533 13.6487 20.0433 14.1787 19.9533 14.7687C19.3333 19.2387 15.0133 22.5187 10.1833 21.4387C7.09332 20.7487 4.79332 18.3587 4.19332 15.2487C3.19332 10.1287 7.09332 5.64874 12.0333 5.64874V2.85874C12.0333 2.40874 12.5733 2.18874 12.8833 2.49874L16.6733 6.28874C16.8733 6.48874 16.8733 6.79874 16.6733 6.99874L12.8833 10.7887C12.5733 11.1087 12.0333 10.8887 12.0333 10.4387V7.64874C8.30332 7.64874 5.35332 11.0687 6.16332 14.9387C6.64332 17.1987 8.30332 18.9287 10.5533 19.4687C14.2033 20.3487 17.4933 17.8787 17.9733 14.5087ZM10.9333 12.3787V16.6487H10.0833V13.3887L9.07332 13.6987V13.0087L10.8433 12.3787H10.9333ZM14.3533 12.4287C14.1733 12.3587 13.9833 12.3287 13.7633 12.3287C13.5433 12.3287 13.3533 12.3587 13.1733 12.4287C12.9933 12.4987 12.8433 12.6087 12.7233 12.7587C12.6033 12.9087 12.4933 13.0987 12.4333 13.3287C12.3733 13.5587 12.3333 13.8287 12.3333 14.1487V14.8887C12.3333 15.2087 12.3733 15.4887 12.4433 15.7087C12.5133 15.9287 12.6133 16.1287 12.7433 16.2787C12.8733 16.4287 13.0233 16.5387 13.2033 16.6087C13.3833 16.6787 13.5733 16.7087 13.7933 16.7087C14.0133 16.7087 14.2033 16.6787 14.3833 16.6087C14.5633 16.5387 14.7133 16.4287 14.8333 16.2787C14.9533 16.1287 15.0533 15.9387 15.1233 15.7087C15.1933 15.4787 15.2233 15.2087 15.2233 14.8887V14.1487C15.2233 13.8287 15.1833 13.5487 15.1133 13.3287C15.0433 13.1087 14.9433 12.9087 14.8133 12.7587C14.6833 12.6087 14.5233 12.4987 14.3533 12.4287ZM14.3233 15.4787C14.3533 15.3487 14.3633 15.1887 14.3633 14.9987H14.3733V14.0287C14.3733 13.8387 14.3633 13.6787 14.3333 13.5487C14.3033 13.4187 14.2633 13.3187 14.2133 13.2387C14.1633 13.1587 14.0933 13.0987 14.0233 13.0687C13.9533 13.0387 13.8633 13.0187 13.7733 13.0187C13.6833 13.0187 13.6033 13.0387 13.5233 13.0687C13.4433 13.0987 13.3933 13.1587 13.3333 13.2387C13.2733 13.3187 13.2433 13.4187 13.2133 13.5487C13.1833 13.6787 13.1733 13.8387 13.1733 14.0287V14.9987C13.1733 15.1887 13.1833 15.3487 13.2133 15.4787C13.2433 15.6087 13.2833 15.7187 13.3333 15.7987C13.3833 15.8787 13.4533 15.9387 13.5233 15.9687C13.5933 15.9987 13.6833 16.0187 13.7733 16.0187C13.8633 16.0187 13.9433 15.9987 14.0233 15.9687C14.1033 15.9387 14.1633 15.8787 14.2133 15.7987C14.2633 15.7187 14.2933 15.6087 14.3233 15.4787Z" fill="black" fill-opacity="0.54"/>
</g>
</svg>
