<svg width="24" height="24" viewBox="0 0 24 24" fill="none" xmlns="http://www.w3.org/2000/svg">
<g id="forward_5_24px">
<path id="icon/av/forward_5_24px" fill-rule="evenodd" clip-rule="evenodd" d="M17.9733 14.5089C18.0433 14.0189 18.4533 13.6489 18.9533 13.6489C19.5533 13.6489 20.0433 14.1789 19.9533 14.7689C19.3333 19.2389 15.0133 22.5189 10.1833 21.4389C7.09332 20.7489 4.79332 18.3589 4.19332 15.2489C3.19332 10.1289 7.09332 5.6489 12.0333 5.6489V2.8489C12.0333 2.4089 12.5733 2.1889 12.8833 2.4989L16.6733 6.2889C16.8733 6.4889 16.8733 6.7989 16.6733 6.9989L12.8833 10.7889C12.5733 11.1089 12.0333 10.8889 12.0333 10.4389V7.6489C8.30332 7.6489 5.35332 11.0689 6.16332 14.9389C6.64332 17.1989 8.30332 18.9289 10.5533 19.4689C14.2033 20.3489 17.4933 17.8789 17.9733 14.5089ZM12.3333 15.9689C12.4033 15.9289 12.4633 15.8689 12.5133 15.7989C12.5633 15.7289 12.6033 15.6489 12.6233 15.5589C12.6433 15.4689 12.6533 15.3689 12.6533 15.2489C12.6533 15.1289 12.6433 15.0389 12.6133 14.9389C12.5833 14.8389 12.5333 14.7589 12.4833 14.6989C12.4333 14.6389 12.3533 14.5789 12.2733 14.5489C12.1933 14.5189 12.0933 14.4989 11.9733 14.4989C11.9033 14.4989 11.8233 14.5089 11.7733 14.5189C11.7233 14.5289 11.6733 14.5489 11.6233 14.5689C11.5733 14.5889 11.5433 14.6089 11.5033 14.6389C11.4633 14.6689 11.4333 14.6989 11.4033 14.7289L10.7333 14.5589L10.9833 12.3889H13.3733V13.0989H11.6733L11.5633 14.0189C11.5783 14.0139 11.5933 14.0064 11.6108 13.9976C11.6283 13.9889 11.6483 13.9789 11.6733 13.9689C11.6983 13.9589 11.7233 13.9514 11.7483 13.9439C11.7733 13.9364 11.7983 13.9289 11.8233 13.9189C11.8678 13.9011 11.9282 13.8912 11.9832 13.8822C11.99 13.8811 11.9967 13.88 12.0033 13.8789C12.0633 13.8689 12.1333 13.8589 12.2033 13.8589C12.4133 13.8589 12.5933 13.8989 12.7533 13.9589C12.9133 14.0189 13.0533 14.1189 13.1633 14.2389C13.2733 14.3589 13.3533 14.5189 13.4133 14.6889C13.4733 14.8589 13.5033 15.0689 13.5033 15.2889C13.5033 15.4789 13.4733 15.6589 13.4133 15.8289C13.3533 15.9989 13.2633 16.1489 13.1433 16.2789C13.0233 16.4089 12.8733 16.5089 12.6933 16.5889C12.5133 16.6689 12.2933 16.7089 12.0533 16.7089C11.8733 16.7089 11.6933 16.6789 11.5233 16.6289C11.3533 16.5789 11.1933 16.4989 11.0633 16.3889C10.9333 16.2789 10.8233 16.1589 10.7433 15.9989C10.6633 15.8389 10.6233 15.6689 10.6133 15.4689H11.4533C11.4733 15.6389 11.5333 15.7789 11.6433 15.8789C11.7533 15.9789 11.8933 16.0289 12.0633 16.0289C12.1633 16.0289 12.2633 16.0089 12.3333 15.9689Z" fill="black" fill-opacity="0.54"/>
</g>
</svg>
