<svg width="24" height="24" viewBox="0 0 24 24" fill="none" xmlns="http://www.w3.org/2000/svg">
<g id="forward_30_24px">
<path id="icon/av/forward_30_24px" fill-rule="evenodd" clip-rule="evenodd" d="M17.9733 14.5087C18.0433 14.0187 18.4533 13.6487 18.9533 13.6487C19.5533 13.6487 20.0433 14.1787 19.9533 14.7687C19.3333 19.2387 15.0133 22.5187 10.1833 21.4387C7.09332 20.7487 4.79332 18.3587 4.19332 15.2487C3.19332 10.1287 7.09332 5.64874 12.0333 5.64874V2.85874C12.0333 2.40874 12.5733 2.18874 12.8833 2.49874L16.6733 6.28874C16.8733 6.48874 16.8733 6.79874 16.6733 6.99874L12.8833 10.7887C12.5733 11.1087 12.0333 10.8887 12.0333 10.4387V7.64874C8.30332 7.64874 5.35332 11.0687 6.16332 14.9387C6.64332 17.1987 8.30332 18.9287 10.5533 19.4687C14.2033 20.3487 17.4933 17.8787 17.9733 14.5087ZM10.3733 15.9887C10.4533 15.9587 10.5133 15.9187 10.5733 15.8687C10.5873 15.852 10.6012 15.8369 10.6147 15.8222C10.6496 15.7841 10.6817 15.7492 10.7033 15.6987C10.7333 15.6287 10.7433 15.5487 10.7433 15.4587C10.7433 15.3487 10.7233 15.2487 10.6933 15.1687C10.6633 15.0887 10.6133 15.0187 10.5533 14.9687C10.4933 14.9187 10.4233 14.8887 10.3333 14.8587C10.2433 14.8287 10.1533 14.8187 10.0433 14.8187H9.59332V14.1587H10.0233C10.2433 14.1587 10.3933 14.1087 10.5033 13.9987C10.6133 13.8887 10.6633 13.7487 10.6633 13.5687C10.6633 13.4887 10.6533 13.4087 10.6233 13.3487C10.5933 13.2887 10.5633 13.2287 10.5133 13.1787C10.4633 13.1287 10.4033 13.0987 10.3333 13.0687C10.2633 13.0387 10.1833 13.0287 10.0833 13.0287C10.0033 13.0287 9.93332 13.0287 9.86332 13.0587C9.79332 13.0887 9.73332 13.1187 9.68332 13.1587C9.63332 13.1987 9.59332 13.2487 9.56332 13.3087C9.53332 13.3687 9.51332 13.4387 9.51332 13.5087H8.66332C8.66332 13.3287 8.70332 13.1787 8.77332 13.0287C8.84332 12.8787 8.95332 12.7587 9.07332 12.6587C9.19332 12.5587 9.35332 12.4787 9.51332 12.4287C9.67332 12.3787 9.86332 12.3487 10.0533 12.3487C10.2733 12.3487 10.4633 12.3787 10.6433 12.4287C10.8233 12.4787 10.9733 12.5587 11.1033 12.6587C11.2333 12.7587 11.3333 12.8787 11.4033 13.0387C11.4733 13.1987 11.5133 13.3687 11.5133 13.5687C11.5133 13.6587 11.5033 13.7487 11.4733 13.8387C11.4433 13.9287 11.3933 14.0087 11.3433 14.0887C11.2933 14.1687 11.2233 14.2387 11.1433 14.3087C11.0633 14.3787 10.9633 14.4287 10.8633 14.4787C11.1033 14.5687 11.2833 14.6987 11.4033 14.8687C11.5233 15.0387 11.5833 15.2487 11.5833 15.4787C11.5833 15.6787 11.5433 15.8587 11.4633 16.0087C11.3833 16.1587 11.2833 16.2987 11.1433 16.3987C11.0033 16.4987 10.8533 16.5887 10.6633 16.6387C10.4733 16.6887 10.2733 16.7187 10.0633 16.7187C9.88332 16.7187 9.70332 16.6987 9.53332 16.6487C9.36332 16.5987 9.21332 16.5187 9.07332 16.4187C8.93332 16.3187 8.82332 16.1987 8.74332 16.0387C8.66332 15.8787 8.62332 15.6987 8.62332 15.4887H9.47332C9.47332 15.5687 9.49332 15.6387 9.52332 15.7087C9.55332 15.7787 9.59332 15.8287 9.65332 15.8787C9.71332 15.9287 9.77332 15.9587 9.85332 15.9887C9.93332 16.0187 10.0133 16.0287 10.1033 16.0287C10.2033 16.0287 10.2933 16.0187 10.3733 15.9887ZM14.4733 12.4287C14.2933 12.3587 14.1033 12.3287 13.8833 12.3287C13.6633 12.3287 13.4733 12.3587 13.2933 12.4287C13.1133 12.4987 12.9633 12.6087 12.8433 12.7587C12.7233 12.9087 12.6133 13.0987 12.5533 13.3287C12.4933 13.5587 12.4533 13.8287 12.4533 14.1487V14.8887C12.4533 15.2087 12.4933 15.4887 12.5633 15.7087C12.6333 15.9287 12.7333 16.1287 12.8633 16.2787C12.9933 16.4287 13.1433 16.5387 13.3233 16.6087C13.5033 16.6787 13.6933 16.7087 13.9133 16.7087C14.1333 16.7087 14.3233 16.6787 14.5033 16.6087C14.6833 16.5387 14.8333 16.4287 14.9533 16.2787C15.0733 16.1287 15.1733 15.9387 15.2433 15.7087C15.3133 15.4787 15.3433 15.2087 15.3433 14.8887V14.1487C15.3433 13.8287 15.3033 13.5487 15.2333 13.3287C15.1633 13.1087 15.0633 12.9087 14.9333 12.7587C14.8033 12.6087 14.6533 12.4987 14.4733 12.4287ZM14.4433 15.4787C14.4733 15.3487 14.4833 15.1887 14.4833 14.9987H14.4933V14.0287C14.4933 13.8387 14.4833 13.6787 14.4533 13.5487C14.4233 13.4187 14.3833 13.3187 14.3333 13.2387C14.2833 13.1587 14.2133 13.0987 14.1433 13.0687C14.0733 13.0387 13.9833 13.0187 13.8933 13.0187C13.8033 13.0187 13.7233 13.0387 13.6433 13.0687C13.5633 13.0987 13.5133 13.1587 13.4533 13.2387C13.3933 13.3187 13.3633 13.4187 13.3333 13.5487C13.3033 13.6787 13.2933 13.8387 13.2933 14.0287V14.9987C13.2933 15.1887 13.3033 15.3487 13.3333 15.4787C13.3633 15.6087 13.4033 15.7187 13.4533 15.7987C13.5033 15.8787 13.5733 15.9387 13.6433 15.9687C13.7133 15.9987 13.8033 16.0187 13.8933 16.0187C13.9833 16.0187 14.0633 15.9987 14.1433 15.9687C14.2233 15.9387 14.2833 15.8787 14.3333 15.7987C14.3833 15.7187 14.4133 15.6087 14.4433 15.4787Z" fill="black" fill-opacity="0.54"/>
</g>
</svg>
