<svg width="24" height="24" viewBox="0 0 24 24" fill="none" xmlns="http://www.w3.org/2000/svg">
<g id="hearing_24px">
<path id="icon/av/hearing_24px" fill-rule="evenodd" clip-rule="evenodd" d="M6.99698 2.13498C6.56698 1.70498 5.87698 1.74498 5.49698 2.20498C3.95698 4.10498 3.02698 6.52498 3.02698 9.16498C3.02698 11.805 3.95698 14.225 5.49698 16.115C5.87698 16.575 6.56698 16.615 6.98698 16.195C7.34698 15.835 7.37698 15.265 7.05698 14.875C5.79698 13.325 5.02698 11.335 5.02698 9.16498C5.02698 6.99498 5.79698 5.00498 7.06698 3.46498C7.39698 3.06498 7.35698 2.49498 6.99698 2.13498ZM17.027 20.165C16.737 20.165 16.467 20.105 16.267 20.015C15.557 19.645 15.057 19.135 14.557 17.635C14.0516 16.0893 13.1045 15.3584 12.1922 14.6545L12.167 14.635L12.157 14.6272C11.37 14.0196 10.554 13.3895 9.84698 12.105C9.31698 11.145 9.02698 10.095 9.02698 9.16498C9.02698 6.36498 11.227 4.16498 14.027 4.16498C16.587 4.16498 18.657 6.01498 18.977 8.47498C19.037 8.87498 19.387 9.16498 19.797 9.16498H20.137C20.637 9.16498 21.027 8.72498 20.967 8.22498C20.517 4.75498 17.637 2.16498 14.027 2.16498C10.097 2.16498 7.02698 5.23498 7.02698 9.16498C7.02698 10.425 7.40698 11.815 8.09698 13.065C9.00698 14.715 10.077 15.545 10.947 16.215C11.757 16.835 12.337 17.285 12.657 18.265C13.257 20.085 14.027 21.105 15.387 21.815C15.897 22.045 16.457 22.165 17.027 22.165C18.867 22.165 20.417 20.925 20.887 19.235C21.027 18.695 20.637 18.165 20.077 18.165H19.727C19.347 18.165 19.047 18.435 18.917 18.795C18.657 19.585 17.907 20.165 17.027 20.165ZM14.027 11.665C12.647 11.665 11.527 10.545 11.527 9.16498C11.527 7.78498 12.647 6.66498 14.027 6.66498C15.407 6.66498 16.527 7.78498 16.527 9.16498C16.527 10.545 15.407 11.665 14.027 11.665Z" fill="black" fill-opacity="0.54"/>
</g>
</svg>
