<svg width="24" height="24" viewBox="0 0 24 24" fill="none" xmlns="http://www.w3.org/2000/svg">
<g id="loop_24px">
<path id="icon/av/loop_24px" fill-rule="evenodd" clip-rule="evenodd" d="M12 2.21003V4.00003C16.42 4.00003 20 7.58003 20 12C20 13.04 19.8 14.04 19.43 14.95C19.16 15.62 18.3 15.8 17.79 15.29C17.52 15.02 17.41 14.61 17.56 14.25C17.85 13.56 18 12.79 18 12C18 8.69003 15.31 6.00003 12 6.00003V7.79003C12 8.24003 11.46 8.46003 11.14 8.15003L8.35 5.36003C8.15 5.16003 8.15 4.85003 8.35 4.65003L11.15 1.86003C11.46 1.54003 12 1.76003 12 2.21003ZM6 12C6 15.31 8.69 18 12 18V16.21C12 15.76 12.54 15.54 12.85 15.85L15.64 18.64C15.84 18.84 15.84 19.15 15.64 19.35L12.85 22.14C12.54 22.46 12 22.24 12 21.79V20C7.58 20 4 16.42 4 12C4 10.96 4.2 9.96003 4.57 9.05003C4.84 8.38003 5.7 8.20003 6.21 8.71003C6.48 8.98003 6.59 9.39003 6.44 9.75003C6.15 10.44 6 11.21 6 12Z" fill="black" fill-opacity="0.54"/>
</g>
</svg>
