<svg width="24" height="24" viewBox="0 0 24 24" fill="none" xmlns="http://www.w3.org/2000/svg">
<g id="timer_24px">
<path id="icon/av/timer_24px" fill-rule="evenodd" clip-rule="evenodd" d="M11.0024 3.99872C11.0024 3.44872 11.4524 2.99872 12.0024 2.99872C17.0724 2.99872 21.1624 7.18872 20.9924 12.2887C20.8424 16.9887 16.9124 20.8887 12.2124 20.9987C7.14244 21.1187 3.00244 17.0387 3.00244 11.9987C3.00244 9.39872 4.10244 7.06872 5.86244 5.43872C6.26244 5.06872 6.88244 5.07872 7.26244 5.45872L12.7024 10.8887C13.0924 11.2787 13.0924 11.9087 12.7024 12.2987C12.3124 12.6887 11.6824 12.6887 11.2924 12.2987L6.58244 7.57872C5.59244 8.77872 5.00244 10.3187 5.00244 11.9987C5.00244 15.9087 8.19244 19.0587 12.1224 18.9987C15.9724 18.9387 19.1424 15.5887 19.0024 11.7387C18.8724 8.32872 16.3124 5.55872 13.0024 5.07872V5.99872C13.0024 6.54872 12.5524 6.99872 12.0024 6.99872C11.4524 6.99872 11.0024 6.54872 11.0024 5.99872V3.99872ZM6.00244 11.9987C6.00244 11.4464 6.45016 10.9987 7.00244 10.9987C7.55473 10.9987 8.00244 11.4464 8.00244 11.9987C8.00244 12.551 7.55473 12.9987 7.00244 12.9987C6.45016 12.9987 6.00244 12.551 6.00244 11.9987ZM11.0024 16.9987C11.0024 16.4464 11.4502 15.9987 12.0024 15.9987C12.5547 15.9987 13.0024 16.4464 13.0024 16.9987C13.0024 17.551 12.5547 17.9987 12.0024 17.9987C11.4502 17.9987 11.0024 17.551 11.0024 16.9987ZM17.0024 10.9987C16.4502 10.9987 16.0024 11.4464 16.0024 11.9987C16.0024 12.551 16.4502 12.9987 17.0024 12.9987C17.5547 12.9987 18.0024 12.551 18.0024 11.9987C18.0024 11.4464 17.5547 10.9987 17.0024 10.9987Z" fill="black" fill-opacity="0.54"/>
</g>
</svg>
