<svg width="24" height="24" viewBox="0 0 24 24" fill="none" xmlns="http://www.w3.org/2000/svg">
<g id="mic_off_24px">
<path id="icon/av/mic_off_24px" fill-rule="evenodd" clip-rule="evenodd" d="M14.92 11.1V5.5C14.92 3.84 13.58 2.5 11.92 2.5C10.38 2.5 9.13002 3.66 8.96002 5.15L14.92 11.1ZM18 11.5C17.59 11.5 17.23 11.8 17.17 12.21C17.12 12.53 17.05 12.85 16.95 13.14L18.22 14.41C18.52 13.81 18.74 13.16 18.85 12.47C18.92 11.96 18.52 11.5 18 11.5ZM3.63002 5.47C3.24002 5.08 3.24002 4.45 3.63002 4.06C3.81686 3.87275 4.07051 3.76751 4.33502 3.76751C4.59954 3.76751 4.85319 3.87275 5.04002 4.06L20.37 19.4C20.76 19.79 20.76 20.42 20.37 20.81C19.98 21.2 19.35 21.2 18.96 20.81L15.47 17.32C14.69 17.77 13.83 18.09 12.92 18.22V20.5C12.92 21.05 12.47 21.5 11.92 21.5C11.37 21.5 10.92 21.05 10.92 20.5V18.22C7.95002 17.77 5.45002 15.43 4.99002 12.47C4.92002 11.96 5.32002 11.5 5.84002 11.5C6.25002 11.5 6.61002 11.8 6.67002 12.21C7.04002 14.83 9.38002 16.6 11.92 16.6C12.73 16.6 13.52 16.41 14.23 16.08L12.57 14.42C11.96 14.55 11.3 14.54 10.55 14.11C9.52002 13.52 8.92002 12.39 8.92002 11.2V10.77L3.63002 5.47Z" fill="black" fill-opacity="0.54"/>
</g>
</svg>
