<svg width="24" height="24" viewBox="0 0 24 24" fill="none" xmlns="http://www.w3.org/2000/svg">
<g id="mic_24px">
<path id="icon/av/mic_24px" fill-rule="evenodd" clip-rule="evenodd" d="M14.9989 11.5C14.9989 13.16 13.6589 14.5 11.9989 14.5C10.3389 14.5 8.99889 13.16 8.99889 11.5V5.5C8.99889 3.84 10.3389 2.5 11.9989 2.5C13.6589 2.5 14.9989 3.84 14.9989 5.5V11.5ZM16.9289 12.35C17.0089 11.86 17.4189 11.5 17.9089 11.5C18.5189 11.5 19.0089 12.04 18.9089 12.64C18.4189 15.64 16.0189 17.99 12.9989 18.42V20.5C12.9989 21.05 12.5489 21.5 11.9989 21.5C11.4489 21.5 10.9989 21.05 10.9989 20.5V18.42C7.97889 17.99 5.57889 15.64 5.08889 12.64C4.99889 12.04 5.47889 11.5 6.08889 11.5C6.57889 11.5 6.98889 11.86 7.06889 12.35C7.47889 14.7 9.52889 16.5 11.9989 16.5C14.4689 16.5 16.5189 14.7 16.9289 12.35Z" fill="black" fill-opacity="0.54"/>
</g>
</svg>
