<svg width="24" height="24" viewBox="0 0 24 24" fill="none" xmlns="http://www.w3.org/2000/svg">
<g id="new_releases_24px">
<path id="icon/av/new_releases_24px" fill-rule="evenodd" clip-rule="evenodd" d="M22.4206 11.34L20.5606 9.22001L20.8206 6.41001C20.8706 5.91001 20.5306 5.45001 20.0506 5.34001L17.2906 4.71001L15.8506 2.28001C15.5906 1.85001 15.0606 1.67001 14.6006 1.87001L12.0006 3.00001L9.41063 1.89001C8.95063 1.69001 8.41063 1.87001 8.16063 2.30001L6.71063 4.72001L3.96063 5.34001C3.47063 5.45001 3.13063 5.90001 3.18063 6.41001L3.44063 9.21001L1.58063 11.34C1.25063 11.72 1.25063 12.28 1.58063 12.66L3.44063 14.78L3.18063 17.6C3.13063 18.1 3.47063 18.56 3.95063 18.67L6.71063 19.3L8.15063 21.72C8.41063 22.15 8.94063 22.33 9.41063 22.13L12.0006 21L14.5906 22.11C15.0506 22.31 15.5906 22.13 15.8406 21.7L17.2806 19.27L20.0406 18.64C20.5306 18.53 20.8606 18.07 20.8106 17.57L20.5506 14.76L22.4106 12.64C22.7506 12.28 22.7506 11.72 22.4206 11.34ZM11.0006 17V15H13.0006V17H11.0006ZM11.0006 12C11.0006 12.55 11.4506 13 12.0006 13C12.5506 13 13.0006 12.55 13.0006 12V8.00001C13.0006 7.45001 12.5506 7.00001 12.0006 7.00001C11.4506 7.00001 11.0006 7.45001 11.0006 8.00001V12Z" fill="black" fill-opacity="0.54"/>
</g>
</svg>
