<svg width="24" height="24" viewBox="0 0 24 24" fill="none" xmlns="http://www.w3.org/2000/svg">
<g id="playlist_play_24px">
<path id="icon/av/playlist_play_24px" fill-rule="evenodd" clip-rule="evenodd" d="M15.735 5.19397H5.73499C5.18499 5.19397 4.73499 5.64397 4.73499 6.19397C4.73499 6.74397 5.18499 7.19397 5.73499 7.19397H15.735C16.285 7.19397 16.735 6.74397 16.735 6.19397C16.735 5.64397 16.285 5.19397 15.735 5.19397ZM15.735 9.19397H5.73499C5.18499 9.19397 4.73499 9.64397 4.73499 10.194C4.73499 10.744 5.18499 11.194 5.73499 11.194H15.735C16.285 11.194 16.735 10.744 16.735 10.194C16.735 9.64397 16.285 9.19397 15.735 9.19397ZM5.73499 13.194H11.735C12.285 13.194 12.735 13.644 12.735 14.194C12.735 14.744 12.285 15.194 11.735 15.194H5.73499C5.18499 15.194 4.73499 14.744 4.73499 14.194C4.73499 13.644 5.18499 13.194 5.73499 13.194ZM14.735 18.304V14.074C14.735 13.684 15.155 13.444 15.495 13.634L19.025 15.754C19.345 15.954 19.345 16.424 19.025 16.614L15.495 18.734C15.155 18.934 14.735 18.694 14.735 18.304Z" fill="black" fill-opacity="0.54"/>
</g>
</svg>
