<svg width="24" height="24" viewBox="0 0 24 24" fill="none" xmlns="http://www.w3.org/2000/svg">
<g id="queue_music_24px">
<path id="icon/av/queue_music_24px" fill-rule="evenodd" clip-rule="evenodd" d="M3.5 5.00134H13.5C14.05 5.00134 14.5 5.45134 14.5 6.00134C14.5 6.55134 14.05 7.00134 13.5 7.00134H3.5C2.95 7.00134 2.5 6.55134 2.5 6.00134C2.5 5.45134 2.95 5.00134 3.5 5.00134ZM3.5 9.00134H13.5C14.05 9.00134 14.5 9.45134 14.5 10.0013C14.5 10.5513 14.05 11.0013 13.5 11.0013H3.5C2.95 11.0013 2.5 10.5513 2.5 10.0013C2.5 9.45134 2.95 9.00134 3.5 9.00134ZM3.5 15.0013H9.5C10.05 15.0013 10.5 14.5513 10.5 14.0013C10.5 13.4513 10.05 13.0013 9.5 13.0013H3.5C2.95 13.0013 2.5 13.4513 2.5 14.0013C2.5 14.5513 2.95 15.0013 3.5 15.0013ZM16.5 7.00134C16.5 5.90134 17.4 5.00134 18.5 5.00134H20.5C21.05 5.00134 21.5 5.45134 21.5 6.00134C21.5 6.55134 21.05 7.00134 20.5 7.00134H18.5V16.0013C18.5 17.8413 16.86 19.2813 14.96 18.9513C13.75 18.7413 12.76 17.7513 12.55 16.5413C12.22 14.6413 13.66 13.0013 15.5 13.0013C15.85 13.0013 16.19 13.0713 16.5 13.1813V7.00134Z" fill="black" fill-opacity="0.54"/>
</g>
</svg>
