<svg width="24" height="24" viewBox="0 0 24 24" fill="none" xmlns="http://www.w3.org/2000/svg">
<g id="queue_play_next_24px">
<path id="icon/av/queue_play_next_24px" fill-rule="evenodd" clip-rule="evenodd" d="M20.7087 2.47125H2.70874C1.60874 2.47125 0.70874 3.37125 0.70874 4.47125V16.4713C0.70874 17.5713 1.60874 18.4713 2.70874 18.4713H7.70874V19.4713C7.70874 20.0213 8.15874 20.4713 8.70874 20.4713H14.7087C15.2587 20.4713 15.7087 20.0213 15.7087 19.4713V18.4713H16.7087C17.2587 18.4713 17.7087 18.0213 17.7087 17.4713C17.7087 16.9213 17.2587 16.4713 16.7087 16.4713H3.70874C3.15874 16.4713 2.70874 16.0213 2.70874 15.4713V5.47125C2.70874 4.92125 3.15874 4.47125 3.70874 4.47125H19.7087C20.2587 4.47125 20.7087 4.92125 20.7087 5.47125V11.4713C20.7087 12.0213 21.1587 12.4713 21.7087 12.4713C22.2587 12.4713 22.7087 12.0213 22.7087 11.4713V4.47125C22.7087 3.37125 21.8087 2.47125 20.7087 2.47125ZM12.7087 9.47125V7.47125C12.7087 6.92125 12.2587 6.47125 11.7087 6.47125C11.1587 6.47125 10.7087 6.92125 10.7087 7.47125V9.47125H8.70874C8.15874 9.47125 7.70874 9.92125 7.70874 10.4713C7.70874 11.0213 8.15874 11.4713 8.70874 11.4713H10.7087V13.4713C10.7087 14.0213 11.1587 14.4713 11.7087 14.4713C12.2587 14.4713 12.7087 14.0213 12.7087 13.4713V11.4713H14.7087C15.2587 11.4713 15.7087 11.0213 15.7087 10.4713C15.7087 9.92125 15.2587 9.47125 14.7087 9.47125H12.7087ZM19.9587 21.2213L22.9987 18.1813C23.3887 17.7913 23.3887 17.1513 22.9987 16.7613L19.9587 13.7213C19.5487 13.3113 18.8687 13.3113 18.4587 13.7213C18.0487 14.1313 18.0487 14.8113 18.4587 15.2213L20.7087 17.4713L18.4587 19.7213C18.0487 20.1313 18.0487 20.8113 18.4587 21.2213C18.8687 21.6313 19.5487 21.6313 19.9587 21.2213Z" fill="black" fill-opacity="0.54"/>
</g>
</svg>
