<svg width="24" height="24" viewBox="0 0 24 24" fill="none" xmlns="http://www.w3.org/2000/svg">
<g id="radio_24px">
<path id="icon/av/radio_24px" fill-rule="evenodd" clip-rule="evenodd" d="M3.24 6.51418C2.51 6.79418 2 7.53418 2 8.36418V20.3642C2 21.4642 2.9 22.3642 4 22.3642H20C21.11 22.3642 22 21.4642 22 20.3642V8.36418C22 7.26418 21.1 6.36418 20 6.36418H8.3L15.73 3.36418C16.19 3.17418 16.41 2.65418 16.22 2.19418C16.03 1.73418 15.51 1.51418 15.05 1.70418L3.24 6.51418ZM7 20.3642C5.34 20.3642 4 19.0242 4 17.3642C4 15.7042 5.34 14.3642 7 14.3642C8.66 14.3642 10 15.7042 10 17.3642C10 19.0242 8.66 20.3642 7 20.3642ZM18 11.3642V12.3642H20V9.36418C20 8.81418 19.55 8.36418 19 8.36418H5C4.45 8.36418 4 8.81418 4 9.36418V12.3642H16V11.3642C16 10.8142 16.45 10.3642 17 10.3642C17.55 10.3642 18 10.8142 18 11.3642Z" fill="black" fill-opacity="0.54"/>
</g>
</svg>
