<svg width="24" height="24" viewBox="0 0 24 24" fill="none" xmlns="http://www.w3.org/2000/svg">
<g id="repeat_24px">
<path id="icon/av/repeat_24px" fill-rule="evenodd" clip-rule="evenodd" d="M17 7H6.99996V10C6.99996 10.55 6.54996 11 5.99996 11C5.44996 11 4.99996 10.55 4.99996 10V6C4.99996 5.45 5.44996 5 5.99996 5H17V3.21C17 2.76 17.54 2.54 17.85 2.85L20.64 5.64C20.84 5.84 20.84 6.15 20.64 6.35L17.85 9.14C17.54 9.46 17 9.24 17 8.79V7ZM6.99996 17H17V14C17 13.45 17.45 13 18 13C18.55 13 19 13.45 19 14V18C19 18.55 18.55 19 18 19H6.99996V20.79C6.99996 21.24 6.45996 21.46 6.14996 21.15L3.35996 18.36C3.15996 18.16 3.15996 17.85 3.35996 17.65L6.14996 14.86C6.45996 14.54 6.99996 14.76 6.99996 15.21V17Z" fill="black" fill-opacity="0.54"/>
</g>
</svg>
