<svg width="24" height="24" viewBox="0 0 24 24" fill="none" xmlns="http://www.w3.org/2000/svg">
<g id="replay_10_24px">
<path id="icon/av/replay_10_24px" fill-rule="evenodd" clip-rule="evenodd" d="M11.9619 2.85249V5.64249C16.9119 5.64249 20.8019 10.1225 19.8119 15.2525C19.2019 18.3725 16.6919 20.8825 13.5719 21.4925C8.84194 22.4125 4.66194 19.1625 4.04194 14.7725C3.96194 14.1725 4.44194 13.6425 5.04194 13.6425C5.54194 13.6425 5.96194 14.0125 6.02194 14.4925C6.50194 17.8025 9.68194 20.2525 13.2519 19.5025C15.5119 19.0325 17.3519 17.2025 17.8219 14.9325C18.6419 11.0625 15.6919 7.64249 11.9619 7.64249V10.4425C11.9619 10.8825 11.4219 11.1025 11.1119 10.7925L7.32194 7.00249C7.12194 6.80249 7.12194 6.49249 7.32194 6.29249L11.1119 2.50249C11.4219 2.18249 11.9619 2.40249 11.9619 2.85249ZM10.0119 16.6425H10.8619V12.3725H10.7719L9.00194 13.0025V13.6925L10.0119 13.3825V16.6425ZM15.1419 14.8825C15.1419 15.2025 15.1119 15.4825 15.0419 15.7025C14.9719 15.9225 14.8719 16.1225 14.7519 16.2725C14.6319 16.4225 14.4719 16.5325 14.3019 16.6025C14.1319 16.6725 13.9319 16.7025 13.7119 16.7025C13.4919 16.7025 13.3019 16.6725 13.1219 16.6025C12.9419 16.5325 12.7919 16.4225 12.6619 16.2725C12.5319 16.1225 12.4319 15.9325 12.3619 15.7025C12.2919 15.4725 12.2519 15.2025 12.2519 14.8825V14.1425C12.2519 13.8225 12.2819 13.5425 12.3519 13.3225C12.4219 13.1025 12.5219 12.9025 12.6419 12.7525C12.7619 12.6025 12.9219 12.4925 13.0919 12.4225C13.2619 12.3525 13.4619 12.3225 13.6819 12.3225C13.9019 12.3225 14.0919 12.3525 14.2719 12.4225C14.4519 12.4925 14.6019 12.6025 14.7319 12.7525C14.8619 12.9025 14.9619 13.0925 15.0319 13.3225C15.1019 13.5525 15.1419 13.8225 15.1419 14.1425V14.8825ZM14.2519 13.5425C14.2819 13.6725 14.2919 13.8325 14.2919 14.0225H14.2819V14.9925C14.2819 15.1825 14.2619 15.3425 14.2419 15.4725C14.2219 15.6025 14.1819 15.7125 14.1319 15.7925C14.0819 15.8725 14.0119 15.9325 13.9419 15.9625C13.8719 15.9925 13.7819 16.0125 13.6919 16.0125C13.6019 16.0125 13.5219 15.9925 13.4419 15.9625C13.3619 15.9325 13.3019 15.8725 13.2519 15.7925C13.2019 15.7125 13.1619 15.6025 13.1319 15.4725C13.1019 15.3425 13.0919 15.1825 13.0919 14.9925V14.0225C13.0919 13.8325 13.1019 13.6725 13.1319 13.5425C13.1619 13.4125 13.2019 13.3125 13.2519 13.2325C13.3019 13.1525 13.3719 13.0925 13.4419 13.0625C13.5119 13.0325 13.6019 13.0125 13.6919 13.0125C13.7819 13.0125 13.8619 13.0325 13.9419 13.0625C14.0219 13.0925 14.0819 13.1525 14.1319 13.2325C14.1819 13.3125 14.2219 13.4125 14.2519 13.5425Z" fill="black" fill-opacity="0.54"/>
</g>
</svg>
