<svg width="24" height="24" viewBox="0 0 24 24" fill="none" xmlns="http://www.w3.org/2000/svg">
<g id="replay_30_24px">
<path id="icon/av/replay_30_24px" fill-rule="evenodd" clip-rule="evenodd" d="M11.9621 2.85249V5.64249C16.9021 5.64249 20.8021 10.1225 19.8121 15.2525C19.2021 18.3725 16.6921 20.8825 13.5721 21.4925C8.84206 22.4125 4.66206 19.1625 4.04206 14.7725C3.96206 14.1725 4.44206 13.6425 5.04206 13.6425C5.53206 13.6425 5.95206 14.0125 6.02206 14.4925C6.50206 17.8025 9.68206 20.2525 13.2521 19.5025C15.5121 19.0325 17.3521 17.2025 17.8221 14.9325C18.6421 11.0625 15.6921 7.64249 11.9621 7.64249V10.4325C11.9621 10.8825 11.4221 11.1025 11.1021 10.7925L7.31206 7.00249C7.11206 6.80249 7.11206 6.49249 7.31206 6.29249L11.1121 2.50249C11.4221 2.18249 11.9621 2.40249 11.9621 2.85249ZM9.97206 14.1325H9.52206V14.7825H9.99206C10.1021 14.7825 10.1921 14.8025 10.2821 14.8225C10.3721 14.8425 10.4421 14.8825 10.5021 14.9325C10.5621 14.9825 10.6121 15.0525 10.6421 15.1325C10.6721 15.2125 10.6921 15.3125 10.6921 15.4225C10.6921 15.5125 10.6821 15.5925 10.6521 15.6625C10.6221 15.7325 10.5721 15.7925 10.5221 15.8425C10.4721 15.8925 10.4021 15.9325 10.3221 15.9625C10.2421 15.9925 10.1521 16.0025 10.0521 16.0025C9.96207 16.0025 9.88207 15.9825 9.80207 15.9625L9.80206 15.9625C9.72206 15.9425 9.66206 15.9025 9.60206 15.8525C9.54206 15.8025 9.50206 15.7525 9.47206 15.6825C9.44206 15.6125 9.42206 15.5425 9.42206 15.4625H8.57206C8.57206 15.6725 8.61206 15.8625 8.69206 16.0125C8.77206 16.1625 8.89206 16.2825 9.02206 16.3925C9.15206 16.5025 9.31206 16.5725 9.48206 16.6225C9.65206 16.6725 9.83206 16.6925 10.0121 16.6925C10.2321 16.6925 10.4221 16.6625 10.6121 16.6125C10.8021 16.5625 10.9521 16.4725 11.0921 16.3725C11.2321 16.2725 11.3321 16.1325 11.4121 15.9825C11.4921 15.8325 11.5321 15.6525 11.5321 15.4525C11.5321 15.2225 11.4721 15.0225 11.3521 14.8425C11.2321 14.6625 11.0521 14.5425 10.8121 14.4525C10.9221 14.4025 11.0121 14.3525 11.0921 14.2825C11.1721 14.2125 11.2321 14.1425 11.2921 14.0625C11.3521 13.9825 11.3921 13.9025 11.4221 13.8125C11.4521 13.7225 11.4621 13.6325 11.4621 13.5425C11.4621 13.3425 11.4221 13.1625 11.3521 13.0125C11.2821 12.8625 11.1821 12.7325 11.0521 12.6325C10.9221 12.5325 10.7721 12.4525 10.5921 12.4025C10.4121 12.3525 10.2121 12.3225 10.0021 12.3225C9.81206 12.3225 9.63206 12.3525 9.46206 12.4025C9.29206 12.4525 9.15206 12.5325 9.02206 12.6325C8.89206 12.7325 8.79206 12.8625 8.72206 13.0025C8.65206 13.1425 8.61206 13.3025 8.61206 13.4825H9.46206C9.46206 13.4125 9.48206 13.3425 9.51206 13.2825C9.54206 13.2225 9.58206 13.1825 9.63206 13.1325C9.68206 13.0825 9.74206 13.0525 9.81206 13.0325C9.88206 13.0125 9.95206 13.0025 10.0321 13.0025C10.1221 13.0025 10.2121 13.0225 10.2821 13.0425C10.3521 13.0625 10.4121 13.1025 10.4621 13.1525C10.5121 13.2025 10.5421 13.2525 10.5721 13.3225C10.6021 13.3925 10.6121 13.4625 10.6121 13.5425C10.6121 13.7225 10.5621 13.8625 10.4521 13.9725C10.3421 14.0825 10.1821 14.1325 9.97206 14.1325ZM15.2621 14.8825C15.2621 15.2025 15.2321 15.4825 15.1621 15.7025C15.0921 15.9225 14.9921 16.1225 14.8721 16.2725C14.7521 16.4225 14.5921 16.5325 14.4221 16.6025C14.2521 16.6725 14.0521 16.7025 13.8321 16.7025C13.6121 16.7025 13.4221 16.6725 13.2421 16.6025C13.0621 16.5325 12.9121 16.4225 12.7821 16.2725C12.6521 16.1225 12.5521 15.9325 12.4821 15.7025C12.4121 15.4725 12.3721 15.2025 12.3721 14.8825V14.1425C12.3721 13.8225 12.4021 13.5425 12.4721 13.3225C12.5421 13.1025 12.6421 12.9025 12.7621 12.7525C12.8821 12.6025 13.0421 12.4925 13.2121 12.4225C13.3821 12.3525 13.5821 12.3225 13.8021 12.3225C14.0221 12.3225 14.2121 12.3525 14.3921 12.4225C14.5721 12.4925 14.7221 12.6025 14.8521 12.7525C14.9821 12.9025 15.0821 13.0925 15.1521 13.3225C15.2221 13.5525 15.2621 13.8225 15.2621 14.1425V14.8825ZM14.3721 13.5425C14.4021 13.6725 14.4121 13.8325 14.4121 14.0225H14.4021V14.9925C14.4021 15.1825 14.3921 15.3425 14.3621 15.4725C14.3421 15.6025 14.3021 15.7125 14.2521 15.7925C14.2021 15.8725 14.1321 15.9325 14.0621 15.9625C13.9921 15.9925 13.9021 16.0125 13.8121 16.0125C13.7221 16.0125 13.6421 15.9925 13.5621 15.9625C13.4821 15.9325 13.4221 15.8725 13.3721 15.7925C13.3221 15.7125 13.2821 15.6025 13.2521 15.4725C13.2221 15.3425 13.2121 15.1825 13.2121 14.9925V14.0225C13.2121 13.8325 13.2221 13.6725 13.2521 13.5425C13.2821 13.4125 13.3221 13.3125 13.3721 13.2325C13.4221 13.1525 13.4921 13.0925 13.5621 13.0625C13.6321 13.0325 13.7221 13.0125 13.8121 13.0125C13.9021 13.0125 13.9821 13.0325 14.0621 13.0625C14.1421 13.0925 14.2021 13.1525 14.2521 13.2325C14.3021 13.3125 14.3421 13.4125 14.3721 13.5425Z" fill="black" fill-opacity="0.54"/>
</g>
</svg>
