<svg width="24" height="24" viewBox="0 0 24 24" fill="none" xmlns="http://www.w3.org/2000/svg">
<g id="replay_5_24px">
<path id="icon/av/replay_5_24px" fill-rule="evenodd" clip-rule="evenodd" d="M11.9656 2.85218V5.64218C16.9056 5.64218 20.8056 10.1222 19.8056 15.2522C19.2056 18.3622 16.9056 20.7522 13.8156 21.4422C8.9856 22.5222 4.6756 19.2422 4.0456 14.7722C3.9656 14.1722 4.4456 13.6422 5.0456 13.6422C5.5356 13.6422 5.9556 14.0122 6.0156 14.5022C6.5056 17.8622 9.7956 20.3422 13.4356 19.4622C15.6856 18.9222 17.3556 17.1922 17.8256 14.9322C18.6456 11.0622 15.6956 7.64218 11.9656 7.64218V10.4322C11.9656 10.8822 11.4256 11.1022 11.1056 10.7922L7.3156 7.00218C7.1156 6.80218 7.1156 6.49218 7.3156 6.29218L11.1156 2.50218C11.4256 2.18218 11.9656 2.40218 11.9656 2.85218ZM10.9056 12.3722L10.6556 14.5422L11.3256 14.7022C11.333 14.6948 11.3403 14.6869 11.3478 14.6788C11.3709 14.6538 11.3954 14.6273 11.4256 14.6122C11.4456 14.6022 11.4656 14.5897 11.4856 14.5772C11.5056 14.5647 11.5256 14.5522 11.5456 14.5422C11.5856 14.5222 11.6456 14.5022 11.6956 14.4922C11.7456 14.4822 11.8156 14.4722 11.8956 14.4722C12.0056 14.4722 12.1156 14.4922 12.1956 14.5222C12.2756 14.5522 12.3456 14.6022 12.4056 14.6722C12.4656 14.7422 12.5056 14.8122 12.5356 14.9122C12.5656 15.0122 12.5756 15.1122 12.5756 15.2222V15.2222C12.5756 15.3322 12.5756 15.4322 12.5456 15.5322C12.5156 15.6322 12.4756 15.7122 12.4356 15.7822C12.3956 15.8522 12.3256 15.9122 12.2556 15.9522C12.1856 15.9922 12.0956 16.0122 11.9856 16.0122C11.8156 16.0122 11.6756 15.9522 11.5656 15.8622C11.4556 15.7722 11.3956 15.6322 11.3756 15.4522H10.5356C10.5356 15.6522 10.5856 15.8322 10.6656 15.9822C10.7456 16.1322 10.8456 16.2722 10.9856 16.3722C11.1256 16.4722 11.2756 16.5622 11.4456 16.6122C11.6156 16.6622 11.7956 16.6922 11.9756 16.6922C12.2256 16.6922 12.4356 16.6422 12.6156 16.5722C12.7956 16.5022 12.9456 16.3922 13.0656 16.2622C13.1856 16.1322 13.2756 15.9822 13.3356 15.8122C13.3956 15.6422 13.4256 15.4622 13.4256 15.2722C13.4256 15.0522 13.3856 14.8522 13.3356 14.6722C13.2856 14.4922 13.1956 14.3422 13.0856 14.2222C12.9756 14.1022 12.8356 14.0122 12.6756 13.9422C12.5156 13.8722 12.3356 13.8422 12.1256 13.8422C12.0556 13.8422 11.9856 13.8522 11.9256 13.8622C11.8956 13.8672 11.8656 13.8747 11.8356 13.8822C11.8056 13.8897 11.7756 13.8972 11.7456 13.9022C11.6856 13.9122 11.6356 13.9322 11.5956 13.9522C11.5789 13.9605 11.5622 13.9671 11.5462 13.9735C11.524 13.9823 11.5031 13.9905 11.4856 14.0022L11.5956 13.0822H13.2956V12.3722H10.9056Z" fill="black" fill-opacity="0.54"/>
</g>
</svg>
