<svg width="24" height="24" viewBox="0 0 24 24" fill="none" xmlns="http://www.w3.org/2000/svg">
<g id="slow_motion_video_24px">
<path id="icon/av/slow_motion_video_24px" fill-rule="evenodd" clip-rule="evenodd" d="M9.68207 2.24498C10.3021 2.10498 10.8921 2.59498 10.8921 3.23498C10.8921 3.69498 10.5921 4.10498 10.1521 4.20498C9.23207 4.40498 8.38207 4.76498 7.61207 5.25498C7.23207 5.49498 6.72207 5.41498 6.40207 5.09498C5.95207 4.64498 6.03207 3.88498 6.56207 3.54498C7.50207 2.94498 8.56207 2.50498 9.68207 2.24498ZM9.89207 15.505V8.50498C9.89207 8.09498 10.3621 7.85498 10.6921 8.10498L15.3621 11.605C15.6321 11.805 15.6321 12.205 15.3621 12.405L10.6921 15.905C10.3621 16.155 9.89207 15.915 9.89207 15.505ZM4.99207 6.51498C4.53207 6.06498 3.78207 6.13498 3.44207 6.67498C2.84207 7.61498 2.40207 8.67498 2.14207 9.79498C2.00207 10.415 2.48207 11.005 3.12207 11.005C3.57207 11.005 3.99207 10.705 4.08207 10.265C4.28207 9.35498 4.65207 8.49498 5.13207 7.73498C5.39207 7.34498 5.31207 6.83498 4.99207 6.51498ZM2.13207 14.215C1.99207 13.595 2.48207 13.005 3.12207 13.005C3.58207 13.005 3.99207 13.305 4.08207 13.755C4.28207 14.675 4.64207 15.525 5.13207 16.285C5.38207 16.665 5.30207 17.175 4.98207 17.495C4.53207 17.945 3.77207 17.875 3.43207 17.335C2.83207 16.385 2.39207 15.335 2.13207 14.215ZM6.56207 20.455C7.51207 21.055 8.56207 21.495 9.68207 21.755C10.3021 21.895 10.8921 21.405 10.8921 20.775C10.8921 20.325 10.5921 19.905 10.1521 19.815C9.24207 19.615 8.38207 19.245 7.62207 18.765C7.23207 18.525 6.73207 18.595 6.41207 18.925C5.95207 19.365 6.02207 20.115 6.56207 20.455ZM14.1621 21.745C18.5921 20.715 21.8921 16.735 21.8921 12.005C21.8921 7.27498 18.5921 3.29498 14.1621 2.26498C13.5421 2.11498 12.9421 2.60498 12.9421 3.24498C12.9421 3.70498 13.2521 4.11498 13.6921 4.21498C17.2421 5.03498 19.8921 8.21498 19.8921 12.005C19.8921 15.795 17.2421 18.975 13.6921 19.795C13.2521 19.905 12.9421 20.305 12.9421 20.765C12.9421 21.405 13.5421 21.895 14.1621 21.745Z" fill="black" fill-opacity="0.54"/>
</g>
</svg>
