<svg width="24" height="24" viewBox="0 0 24 24" fill="none" xmlns="http://www.w3.org/2000/svg">
<g id="snooze_24px">
<path id="icon/av/snooze_24px" fill-rule="evenodd" clip-rule="evenodd" d="M4.10001 6.4407C3.68001 6.7907 3.05001 6.7407 2.70001 6.3107C2.34001 5.8907 2.40001 5.2607 2.82001 4.9007L5.90001 2.3407C6.32001 1.9907 6.95001 2.0407 7.30001 2.4707C7.66001 2.8907 7.60001 3.5207 7.17001 3.8807L4.10001 6.4407ZM21.3 6.3107C20.95 6.7307 20.32 6.7907 19.89 6.4407L16.82 3.8807C16.4 3.5207 16.34 2.8907 16.7 2.4707C17.05 2.0507 17.68 1.9907 18.11 2.3407L21.18 4.9007C21.6 5.2607 21.66 5.8907 21.3 6.3107ZM10 10.8907H12.63L8.91001 15.2407C8.36001 15.8907 8.82001 16.8907 9.67001 16.8907H14C14.55 16.8907 15 16.4407 15 15.8907C15 15.3407 14.55 14.8907 14 14.8907H11.37L15.09 10.5407C15.64 9.8907 15.18 8.8907 14.33 8.8907H10C9.45001 8.8907 9.00001 9.3407 9.00001 9.8907C9.00001 10.4407 9.45001 10.8907 10 10.8907ZM12 5.8907C15.86 5.8907 19 9.0307 19 12.8907C19 16.7507 15.86 19.8907 12 19.8907C8.14001 19.8907 5.00001 16.7507 5.00001 12.8907C5.00001 9.0307 8.14001 5.8907 12 5.8907ZM3.00001 12.8907C3.00001 7.9207 7.03001 3.8907 12 3.8907C16.97 3.8907 21 7.9207 21 12.8907C21 17.8607 16.97 21.8907 12 21.8907C7.03001 21.8907 3.00001 17.8607 3.00001 12.8907Z" fill="black" fill-opacity="0.54"/>
</g>
</svg>
