<svg width="24" height="24" viewBox="0 0 24 24" fill="none" xmlns="http://www.w3.org/2000/svg">
<g id="sort_by_alpha_24px">
<path id="icon/av/sort_by_alpha_24px" fill-rule="evenodd" clip-rule="evenodd" d="M13.0147 2.65C12.8147 2.45 12.5047 2.45 12.3047 2.65L10.2947 4.66H15.0147L13.0147 2.65ZM12.3147 21.35C12.5147 21.55 12.8247 21.55 13.0247 21.35L15.0047 19.37H10.3447L12.3147 21.35ZM11.8547 16.57C12.0747 17.13 11.6647 17.73 11.0647 17.73C10.7147 17.73 10.3947 17.51 10.2647 17.17L9.55468 15.27H4.44468L3.73468 17.17C3.60468 17.5 3.28468 17.72 2.93468 17.72C2.33468 17.72 1.92468 17.12 2.14468 16.56L5.88468 7.03C6.06468 6.57 6.51468 6.27 7.00468 6.27C7.49468 6.27 7.94468 6.57 8.12468 7.03L11.8547 16.57ZM5.05468 13.64L6.99468 8.46L8.93468 13.64H5.05468ZM15.8047 16.14H21.1347C21.5747 16.14 21.9347 16.5 21.9147 16.95C21.9147 17.38 21.5647 17.74 21.1247 17.74H14.4047C13.6047 17.74 13.1247 16.83 13.5847 16.17L19.3147 7.89H14.2247C13.7947 7.89 13.4347 7.53 13.4347 7.09V7.08C13.4347 6.64 13.7847 6.28 14.2247 6.28H20.7047C21.5047 6.28 21.9847 7.19 21.5247 7.85L15.8047 16.14Z" fill="black" fill-opacity="0.54"/>
</g>
</svg>
