<svg width="24" height="24" viewBox="0 0 24 24" fill="none" xmlns="http://www.w3.org/2000/svg">
<g id="videocam_off_24px">
<path id="icon/av/videocam_off_24px" fill-rule="evenodd" clip-rule="evenodd" d="M3.00124 4.53998C2.61124 4.14998 2.61124 3.51998 3.00124 3.12998C3.18807 2.94273 3.44172 2.83749 3.70624 2.83749C3.97076 2.83749 4.22441 2.94273 4.41124 3.12998L20.7312 19.46C21.1212 19.85 21.1212 20.48 20.7312 20.87C20.3412 21.26 19.7112 21.26 19.3212 20.87L16.8412 18.39C16.6812 18.49 16.5012 18.57 16.2912 18.57H4.29124C3.74124 18.57 3.29124 18.12 3.29124 17.57V7.56998C3.29124 7.01998 3.74124 6.56998 4.29124 6.56998H5.02124L3.00124 4.53998ZM21.2912 9.47998V14.77C21.2912 15.66 20.2112 16.11 19.5912 15.48L10.6812 6.56998H16.2912C16.8412 6.56998 17.2912 7.01998 17.2912 7.56998V11.07L19.5812 8.76998C20.2112 8.13998 21.2912 8.58998 21.2912 9.47998Z" fill="black" fill-opacity="0.54"/>
</g>
</svg>
