<svg width="24" height="24" viewBox="0 0 24 24" fill="none" xmlns="http://www.w3.org/2000/svg">
<g id="volume_off_24px">
<path id="icon/av/volume_off_24px" fill-rule="evenodd" clip-rule="evenodd" d="M3.63 5.045C3.24 4.655 3.24 4.025 3.63 3.635C4.03 3.245 4.66 3.245 5.05 3.635L20.36 18.955C20.75 19.345 20.75 19.975 20.36 20.365C19.97 20.755 19.34 20.755 18.95 20.365L17.61 19.025C16.94 19.565 16.19 20.005 15.39 20.335C14.73 20.605 14 20.145 14 19.425C14 19.035 14.22 18.655 14.58 18.505C15.16 18.275 15.69 17.965 16.18 17.595L12 13.415V17.585C12 18.475 10.92 18.925 10.29 18.295L7 15.005H4C3.45 15.005 3 14.555 3 14.005V10.005C3 9.455 3.45 9.005 4 9.005H7L7.29 8.705L3.63 5.045ZM18.59 14.345C18.85 13.615 19 12.825 19 12.005C19 9.065 17.18 6.545 14.61 5.505C14.25 5.365 14 5.035 14 4.655V4.465C14 3.835 14.63 3.375 15.22 3.605C18.6 4.895 21 8.175 21 12.005C21 13.395 20.68 14.705 20.12 15.875L18.59 14.345ZM10.29 5.715L10.12 5.885L12 7.765V6.415C12 5.525 10.92 5.085 10.29 5.715ZM14 7.975C15.48 8.715 16.5 10.235 16.5 12.005C16.5 12.085 16.49 12.165 16.48 12.245L14 9.765V7.975Z" fill="black" fill-opacity="0.54"/>
</g>
</svg>
