<svg width="24" height="24" viewBox="0 0 24 24" fill="none" xmlns="http://www.w3.org/2000/svg">
<g id="star_outline_24px">
<path id="icon/toggle/star_outline_24px" fill-rule="evenodd" clip-rule="evenodd" d="M14.8086 8.87461L19.6486 9.29461C20.5286 9.36461 20.8786 10.4646 20.2086 11.0446L16.5386 14.2246L17.6386 18.9546C17.8386 19.8146 16.9086 20.4946 16.1486 20.0346L11.9986 17.5246L7.84861 20.0246C7.08861 20.4846 6.15861 19.8046 6.35861 18.9446L7.45861 14.2246L3.78861 11.0446C3.11861 10.4646 3.47861 9.36461 4.35861 9.29461L9.18861 8.88461L11.0786 4.42461C11.4186 3.61461 12.5786 3.61461 12.9186 4.42461L14.8086 8.87461ZM8.23861 17.9246L11.9986 15.6546L15.7686 17.9346L14.7686 13.6546L18.0886 10.7746L13.7086 10.3946L11.9986 6.35461L10.2986 10.3846L5.91861 10.7646L9.23861 13.6446L8.23861 17.9246Z" fill="black" fill-opacity="0.54"/>
</g>
</svg>
