<svg width="24" height="24" viewBox="0 0 24 24" fill="none" xmlns="http://www.w3.org/2000/svg">
<path d="M16.2702 4H7.32536C6.59464 4 6 4.59212 6 5.32283V18.6746C6 19.4053 6.59464 20 7.32536 20H16.2702C17.0009 20 17.5956 19.4053 17.5956 18.6746V5.32283C17.5956 4.59212 17.0009 4 16.2702 4ZM7.32422 7.55075V5.89199C7.32422 5.57954 7.57985 5.32391 7.89229 5.32391H15.7033C16.0158 5.32391 16.2714 5.57954 16.2714 5.89199V7.55075C16.2714 7.8632 16.0158 8.11883 15.7033 8.11883H7.89229C7.57985 8.11883 7.32422 7.8632 7.32422 7.55075ZM8.76713 18.3715C8.18486 18.3715 7.71334 17.8972 7.71334 17.3177C7.71334 16.7355 8.18486 16.264 8.76713 16.264C9.34939 16.264 9.82091 16.7355 9.82091 17.3177C9.82091 17.8972 9.34939 18.3715 8.76713 18.3715ZM8.76713 15.0857C8.18486 15.0857 7.71334 14.6114 7.71334 14.032C7.71334 13.4497 8.18486 12.9782 8.76713 12.9782C9.34939 12.9782 9.82091 13.4497 9.82091 14.032C9.82091 14.6114 9.34939 15.0857 8.76713 15.0857ZM8.76713 11.8C8.18486 11.8 7.71334 11.3256 7.71334 10.7462C7.71334 10.1639 8.18486 9.69241 8.76713 9.69241C9.34939 9.69241 9.82091 10.1639 9.82091 10.7462C9.82091 11.3256 9.34939 11.8 8.76713 11.8ZM12.0354 18.3715C11.4532 18.3715 10.9816 17.8972 10.9816 17.3177C10.9816 16.7355 11.4532 16.264 12.0354 16.264C12.6177 16.264 13.0892 16.7355 13.0892 17.3177C13.0892 17.8972 12.6177 18.3715 12.0354 18.3715ZM12.0354 15.0857C11.4532 15.0857 10.9816 14.6114 10.9816 14.032C10.9816 13.4497 11.4532 12.9782 12.0354 12.9782C12.6177 12.9782 13.0892 13.4497 13.0892 14.032C13.0892 14.6114 12.6177 15.0857 12.0354 15.0857ZM12.0354 11.8C11.4532 11.8 10.9816 11.3256 10.9816 10.7462C10.9816 10.1639 11.4532 9.69241 12.0354 9.69241C12.6177 9.69241 13.0892 10.1639 13.0892 10.7462C13.0892 11.3256 12.6177 11.8 12.0354 11.8ZM16.3575 17.3177C16.3575 17.8972 15.886 18.3715 15.3037 18.3715C14.7215 18.3715 14.2499 17.8972 14.2499 17.3177V14.032C14.2499 13.4497 14.7215 12.9782 15.3037 12.9782C15.886 12.9782 16.3575 13.4497 16.3575 14.032V17.3177ZM15.3037 11.8C14.7215 11.8 14.2499 11.3256 14.2499 10.7462C14.2499 10.1639 14.7215 9.69241 15.3037 9.69241C15.886 9.69241 16.3575 10.1639 16.3575 10.7462C16.3575 11.3256 15.886 11.8 15.3037 11.8Z" fill="#012040"/>
</svg>
