<svg width="24" height="24" viewBox="0 0 24 24" fill="none" xmlns="http://www.w3.org/2000/svg">
<path d="M19.6453 4.35469C19.5391 4.24844 19.4062 4.14219 19.3 4.0625C18.4766 3.37188 17.4406 3 16.3516 3C15.8734 3 15.4219 3.07969 14.9969 3.18594C14.5719 3.31875 14.1469 3.50469 13.775 3.77031C13.5359 3.92969 13.2969 4.14219 13.0578 4.35469L9.33906 8.07344L5.35469 12.0578C4.47812 12.9609 4 14.1031 4 15.3516C4 16.6 4.47812 17.7688 5.35469 18.6453C6.23125 19.5219 7.4 20 8.64844 20C9.89687 20 11.0656 19.5219 11.9422 18.6453L15.9266 14.6609L19.6453 10.9422C20.5219 10.0656 21 8.89687 21 7.64844C21 6.4 20.5219 5.23125 19.6453 4.35469ZM11.3578 18.0875C10.6141 18.8313 9.63125 19.2031 8.64844 19.2031C7.66563 19.2031 6.68281 18.8313 5.93906 18.0875C4.425 16.5734 4.425 14.1562 5.93906 12.6422L9.36563 9.21562L14.8109 14.6609L11.3578 18.0875ZM18.1313 6.24062C18.0781 6.29375 17.9984 6.32031 17.9453 6.32031C17.8656 6.32031 17.8125 6.29375 17.7594 6.24062C17.3875 5.86875 16.8828 5.65625 16.3516 5.65625C15.8203 5.65625 15.3156 5.86875 14.9438 6.24062C14.8375 6.34687 14.6781 6.34687 14.5719 6.24062C14.4656 6.13437 14.4656 5.975 14.5719 5.86875C15.05 5.39062 15.6875 5.125 16.3516 5.125C17.0156 5.125 17.6531 5.39062 18.1313 5.86875C18.2375 5.975 18.2375 6.13437 18.1313 6.24062Z" fill="black"/>
</svg>
