<svg width="24" height="24" viewBox="0 0 24 24" fill="none" xmlns="http://www.w3.org/2000/svg">
<path d="M21.8206 10.3652L12.2752 3.09256C12.1961 3.0325 12.0994 3 12 3C11.9006 3 11.804 3.0325 11.7248 3.09256L2.1795 10.3652C2.10373 10.4228 2.04795 10.5027 2.02002 10.5937C1.99209 10.6846 1.99341 10.7821 2.02381 10.8722C2.05421 10.9624 2.11214 11.0408 2.18945 11.0963C2.26675 11.1518 2.35953 11.1816 2.45469 11.1816H4.72751V20.7268C4.72748 20.7865 4.73921 20.8456 4.76204 20.9008C4.78487 20.9559 4.81835 21.006 4.86057 21.0482C4.90278 21.0905 4.9529 21.1239 5.00806 21.1468C5.06322 21.1696 5.12234 21.1813 5.18204 21.1813H18.8182C18.8779 21.1813 18.9371 21.1696 18.9922 21.1468C19.0474 21.1239 19.0975 21.0905 19.1397 21.0482C19.1819 21.006 19.2154 20.9559 19.2382 20.9008C19.2611 20.8456 19.2728 20.7865 19.2728 20.7268V11.1816H21.5454C21.6406 11.1816 21.7333 11.1518 21.8106 11.0963C21.8879 11.0408 21.9458 10.9624 21.9762 10.8723C22.0066 10.7821 22.0079 10.6847 21.98 10.5937C21.9521 10.5028 21.8964 10.4229 21.8206 10.3653L21.8206 10.3652ZM14.7272 14.8179H12.9091V16.636H11.091V14.8179H9.27283V12.9997H11.091V11.1816H12.9091V12.9997H14.7272V14.8179Z" fill="#13181D"/>
</svg>
