<svg width="24" height="24" viewBox="0 0 24 24" fill="none" xmlns="http://www.w3.org/2000/svg">
<path d="M4.13262 20.8889H9.00717V19.0609H4.13262C4.05182 19.0609 3.97432 19.0288 3.91719 18.9717C3.86005 18.9146 3.82796 18.8371 3.82796 18.7563V8.70251H19.0609V12.3584H20.8889V7.57222L18.6923 3.17903C18.5152 2.82481 18.243 2.52689 17.9062 2.31865C17.5693 2.11041 17.1811 2.00007 16.7851 2H6.10376C5.70775 2.00007 5.31957 2.11041 4.98273 2.31865C4.64588 2.52689 4.37367 2.82481 4.19659 3.17903L2 7.57222V18.7563C2 19.3219 2.22469 19.8643 2.62463 20.2643C3.02457 20.6642 3.56701 20.8889 4.13262 20.8889ZM17.0563 3.99552L18.4973 6.87455H12.3584V3.82796H16.7851C16.8414 3.82813 16.8965 3.84387 16.9444 3.87345C16.9922 3.90303 17.031 3.94528 17.0563 3.99552ZM5.83262 3.99552C5.85793 3.94528 5.89667 3.90303 5.94453 3.87345C5.99239 3.84387 6.0475 3.82813 6.10376 3.82796H10.5305V6.87455H4.39158L5.83262 3.99552Z" fill="#435465"/>
<path d="M15.0759 21.9999C15.348 21.9997 15.6088 21.8938 15.8011 21.7054L21.9998 15.6412L20.5493 14.2222L15.0759 19.5769L12.3391 16.8995L10.8887 18.3186L14.3506 21.7054C14.5429 21.8938 14.8038 21.9997 15.0759 21.9999Z" fill="#435465"/>
<path d="M11 11H7V13H11V11Z" fill="#435465"/>
</svg>
