<svg width="24" height="24" viewBox="0 0 24 24" fill="none" xmlns="http://www.w3.org/2000/svg">
<path d="M16.9507 3C14.5123 3 12.4507 4.55172 11.6749 6.72414L8.88177 5.43842C8.70443 5.34975 8.48276 5.34975 8.28325 5.43842L1.92118 8.34236C1.65517 8.4532 1.5 8.71921 1.5 9.00739V17.3645C1.5 17.6527 1.65517 17.8966 1.92118 18.0296L8.28325 20.9335C8.37192 20.9778 8.48276 21 8.5936 21C8.70443 21 8.7931 20.9778 8.90394 20.9335L15.266 18.0296C15.532 17.9187 15.6872 17.6527 15.6872 17.3645V14.0394C16.0862 14.1281 16.5296 14.1946 16.9507 14.1946C20.032 14.1946 22.5591 11.6897 22.5591 8.58621C22.5591 5.48276 20.0542 3 16.9507 3ZM7.86207 19.1601L2.94089 16.899V10.1379L7.86207 12.399V19.1601ZM8.5936 11.1355L3.96059 9.00739L8.5936 6.87931L11.3645 8.16503C11.3424 8.3202 11.3424 8.4532 11.3424 8.60838C11.3424 9.02956 11.3867 9.42857 11.4754 9.80542L8.5936 11.1355ZM14.2463 16.899L9.30296 19.1601V12.3768L11.9631 11.1576C12.4729 12.133 13.2709 12.9532 14.2241 13.4852V16.899H14.2463ZM16.9507 12.7537C14.6453 12.7537 12.7833 10.8916 12.7833 8.58621C12.7833 6.28079 14.6453 4.41872 16.9507 4.41872C19.2562 4.41872 21.1182 6.30296 21.1182 8.60838C21.1182 10.8916 19.2562 12.7537 16.9507 12.7537Z" fill="#012040"/>
<path d="M18.1256 6.968L16.4187 8.6749L15.7759 8.03204C15.4877 7.74386 15.0443 7.74386 14.7562 8.03204C14.468 8.32022 14.468 8.76357 14.7562 9.05175L15.9089 10.2045C16.0419 10.3375 16.2414 10.4261 16.4187 10.4261C16.5961 10.4261 16.7956 10.3596 16.9286 10.2045L19.1453 7.98771C19.4335 7.69953 19.4335 7.25618 19.1453 6.968C18.8793 6.70199 18.4138 6.70199 18.1256 6.968Z" fill="#012040"/>
</svg>
