<svg width="24" height="24" viewBox="0 0 24 24" fill="none" xmlns="http://www.w3.org/2000/svg">
<path d="M11.5366 17.04C11.7261 17.2295 11.9535 17.4 12.1998 17.5326C12.5598 17.7221 12.9766 17.8169 13.4124 17.8169C14.1135 17.8169 14.7956 17.5516 15.2882 17.04C15.7808 16.5474 16.065 15.8842 16.065 15.1642C16.065 14.4632 15.7998 13.7811 15.2882 13.2884L12.484 10.5221C11.4608 9.48001 9.77451 9.48001 8.73241 10.5221C8.23978 11.0148 7.95557 11.6779 7.95557 12.3979C7.95557 13.099 8.22083 13.7811 8.73241 14.2737L11.5366 17.04ZM13.185 12.6442L14.5493 14.0084C14.8524 14.3116 15.0229 14.7284 15.0229 15.1642C15.0229 15.6 14.8524 16.0169 14.5493 16.32C14.2461 16.6232 13.8293 16.7937 13.3935 16.7937C12.9577 16.7937 12.5408 16.6232 12.2377 16.32L10.8735 14.9558L13.185 12.6442ZM9.50925 11.0526C9.58504 10.9769 9.66083 10.939 9.77451 10.939C9.86925 10.939 9.96399 10.9769 10.0398 11.0526C10.1724 11.1853 10.1724 11.4316 10.0398 11.5642C9.81241 11.7916 9.69872 12.0758 9.69872 12.3979C9.69872 12.72 9.81241 13.0042 10.0398 13.2316L10.3998 13.5916C10.4756 13.6674 10.5135 13.7432 10.5135 13.8569C10.5135 13.9516 10.4756 14.0463 10.3998 14.1221C10.2861 14.2358 10.1156 14.2547 9.98293 14.179C9.94504 14.16 9.92609 14.1411 9.8882 14.1221L9.5282 13.7621C9.1682 13.4021 8.97872 12.9284 8.97872 12.4169C8.94083 11.8863 9.14925 11.4126 9.50925 11.0526Z" fill="#012040"/>
<path d="M17.8842 6.12634H16.4821V7.32003H17.8274V19.8063H6.19368V7.32003H7.46316V6.12634H6.13684C5.51158 6.12634 5 6.63792 5 7.26318V19.8632C5 20.4884 5.51158 21 6.13684 21H17.8842C18.5095 21 19.0211 20.4884 19.0211 19.8632V7.26318C19.0211 6.63792 18.5284 6.12634 17.8842 6.12634Z" fill="#012040"/>
<path d="M8.80864 7.73684H15.156C15.4023 7.73684 15.6108 7.52842 15.6108 7.28211V5.48211C15.6108 5.23579 15.4023 5.02737 15.156 5.02737H14.095C14.0381 3.89053 13.1097 3 11.9729 3C10.836 3 9.90759 3.90947 9.85075 5.02737H8.7897C8.54338 5.02737 8.33496 5.23579 8.33496 5.48211V7.28211C8.35391 7.52842 8.54338 7.73684 8.80864 7.73684ZM11.9729 4.32632C12.4276 4.32632 12.7876 4.68632 12.7876 5.14105C12.7876 5.59579 12.4276 5.95579 11.9729 5.95579C11.5181 5.95579 11.1581 5.59579 11.1581 5.14105C11.1581 4.68632 11.5181 4.32632 11.9729 4.32632Z" fill="#012040"/>
</svg>
