<svg width="24" height="24" viewBox="0 0 24 24" fill="none" xmlns="http://www.w3.org/2000/svg">
<path d="M16.1111 6L1.88889 6C1.4 6 1 6.45 1 7C1 7.55 1.4 8 1.88889 8L16.1111 8C16.6 8 17 7.55 17 7C17 6.45 16.6 6 16.1111 6Z" fill="black"/>
<path d="M16.1111 11L1.88889 11C1.4 11 1 11.45 1 12C1 12.55 1.4 13 1.88889 13L16.1111 13C16.6 13 17 12.55 17 12C17 11.45 16.6 11 16.1111 11Z" fill="black"/>
<path d="M17 17C17 16.45 16.6 16 16.1111 16L1.88889 16C1.4 16 1 16.45 1 17C1 17.55 1.4 18 1.88889 18L16.1111 18C16.6 18 17 17.55 17 17Z" fill="black"/>
<path d="M20.1756 15.211L22.7134 12.6861C23.0955 12.3059 23.0955 11.6917 22.7134 11.3115L20.1756 8.78662C19.5582 8.17246 18.5 8.61115 18.5 9.47878V14.5286C18.5 15.3962 19.5582 15.8251 20.1756 15.211Z" fill="black"/>
</svg>
