<svg width="24" height="24" viewBox="0 0 24 24" fill="none" xmlns="http://www.w3.org/2000/svg">
<path d="M7.88889 18H22.1111C22.6 18 23 17.55 23 17C23 16.45 22.6 16 22.1111 16H7.88889C7.4 16 7 16.45 7 17C7 17.55 7.4 18 7.88889 18Z" fill="black"/>
<path d="M7.88889 13H22.1111C22.6 13 23 12.55 23 12C23 11.45 22.6 11 22.1111 11H7.88889C7.4 11 7 11.45 7 12C7 12.55 7.4 13 7.88889 13Z" fill="black"/>
<path d="M7 7C7 7.55 7.4 8 7.88889 8H22.1111C22.6 8 23 7.55 23 7C23 6.45 22.6 6 22.1111 6H7.88889C7.4 6 7 6.45 7 7Z" fill="black"/>
<path d="M3.82444 8.78902L1.28661 11.3139C0.904464 11.6941 0.904464 12.3083 1.28661 12.6885L3.82444 15.2134C4.44175 15.8275 5.5 15.3889 5.5 14.5212V9.47143C5.5 8.6038 4.44175 8.17486 3.82444 8.78902Z" fill="black"/>
</svg>
