<?xml version="1.0"?>
<svg xmlns="http://www.w3.org/2000/svg" viewBox="0 0 64 64" width="512" height="512">
    <g id="account">
        <path d="M11,40H23a5.006,5.006,0,0,0,5-5V31a5.006,5.006,0,0,0-5-5H11a5.006,5.006,0,0,0-5,5v4A5.006,5.006,0,0,0,11,40ZM8,31a3,3,0,0,1,3-3H23a3,3,0,0,1,3,3v4a3,3,0,0,1-3,3H11a3,3,0,0,1-3-3Z"/>
        <path d="M10.5,42h-2A2.5,2.5,0,0,0,6,44.5v2A2.5,2.5,0,0,0,8.5,49h2A2.5,2.5,0,0,0,13,46.5v-2A2.5,2.5,0,0,0,10.5,42Zm.5,4.5a.5.5,0,0,1-.5.5h-2a.5.5,0,0,1-.5-.5v-2a.5.5,0,0,1,.5-.5h2a.5.5,0,0,1,.5.5Z"/>
        <path d="M10.5,51h-2A2.5,2.5,0,0,0,6,53.5v2A2.5,2.5,0,0,0,8.5,58h2A2.5,2.5,0,0,0,13,55.5v-2A2.5,2.5,0,0,0,10.5,51Zm.5,4.5a.5.5,0,0,1-.5.5h-2a.5.5,0,0,1-.5-.5v-2a.5.5,0,0,1,.5-.5h2a.5.5,0,0,1,.5.5Z"/>
        <path d="M18.5,42h-2A2.5,2.5,0,0,0,14,44.5v2A2.5,2.5,0,0,0,16.5,49h2A2.5,2.5,0,0,0,21,46.5v-2A2.5,2.5,0,0,0,18.5,42Zm.5,4.5a.5.5,0,0,1-.5.5h-2a.5.5,0,0,1-.5-.5v-2a.5.5,0,0,1,.5-.5h2a.5.5,0,0,1,.5.5Z"/>
        <path d="M18.5,51h-2A2.5,2.5,0,0,0,14,53.5v2A2.5,2.5,0,0,0,16.5,58h2A2.5,2.5,0,0,0,21,55.5v-2A2.5,2.5,0,0,0,18.5,51Zm.5,4.5a.5.5,0,0,1-.5.5h-2a.5.5,0,0,1-.5-.5v-2a.5.5,0,0,1,.5-.5h2a.5.5,0,0,1,.5.5Z"/>
        <path d="M20,37h2a2,2,0,0,0,2-2V31a2,2,0,0,0-2-2H20a2,2,0,0,0-2,2v4A2,2,0,0,0,20,37Zm0-6h2v4H20Z"/>
        <path d="M28,46V43a1,1,0,0,0-1-1H23a1,1,0,0,0-1,1v3a1,1,0,0,0,1,1h4A1,1,0,0,0,28,46Zm-2-1H24V44h2Z"/>
        <path d="M61.2,8.5,60.33,8a3,3,0,0,0-1.1-4.1l-3.464-2A3,3,0,0,0,51.67,3l-7,12.125a1,1,0,0,0,.366,1.366l.866.5L44,20.287V5a3,3,0,0,0-3-3H5A3,3,0,0,0,2,5V59a3,3,0,0,0,3,3H41a3,3,0,0,0,3-3V36.287l6.33-10.964a1,1,0,0,0-.366-1.366l-.866-.5,2-3.464.866.5a1,1,0,0,0,.759.1,1,1,0,0,0,.607-.466l6-10.392.866.5a1,1,0,0,1,.366,1.366l-9,15.588,1.732,1,9-15.588A3,3,0,0,0,61.2,8.5ZM28,4h8V16.919l-3.375-2.7a1,1,0,0,0-1.25,0L28,16.919ZM5,4H26V19a1,1,0,0,0,1.625.781L32,16.281l4.375,3.5A1,1,0,0,0,38,19V4h3a1,1,0,0,1,1,1V19.994a.989.989,0,0,0-.33.329L32,37.072V25a3,3,0,0,0-3-3H5a2.966,2.966,0,0,0-1,.184V5A1,1,0,0,1,5,4ZM29.346,51.668l.969-6.723,4.37,2.523ZM5,60a1,1,0,0,1-1-1V25a1,1,0,0,1,1-1H29a1,1,0,0,1,1,1V40.536l-1.33,2.3a.973.973,0,0,0-.12.358h0l0,.018v0L27.01,53.857a1,1,0,0,0,1.608.929L30,53.7V59a1,1,0,0,1-1,1Zm37-1a1,1,0,0,1-1,1H31.816A2.966,2.966,0,0,0,32,59V52.125l5.072-3.991,0,0,.008-.007h0a1,1,0,0,0,.249-.284L42,39.751ZM36.1,45.974l-5.2-3,12-20.785,5.2,3ZM47.366,22.457l-1.732-1,2-3.464,1.732,1Zm4.732-4.2-5.2-3L53.4,4a1,1,0,0,1,1.366-.365l3.464,2A1,1,0,0,1,58.6,7Z"/>
    </g>
</svg>
