<?xml version="1.0" encoding="iso-8859-1"?>
<svg version="1.1" id="Capa_1" xmlns="http://www.w3.org/2000/svg" xmlns:xlink="http://www.w3.org/1999/xlink" x="0px" y="0px"
	 viewBox="0 0 512 512" style="enable-background:new 0 0 512 512;" xml:space="preserve">
<g>
	<g>
		<path d="M435.174,382.964c25.042-35.155,21.986-84.07-9.541-115.597c-33.803-33.803-93.51-33.816-127.266,0
			c-35.193,35.162-35.175,92.122,0,127.266c31.531,31.556,80.458,34.567,115.596,9.542l76.826,75.036L512,458L435.174,382.964z"/>
	</g>
</g>
<g>
	<g>
		<polygon points="272,8.789 272,121 383.211,121"/>
	</g>
</g>
<g>
	<g>
		<path d="M361.985,451.015c-32.051,0-62.183-12.495-84.844-35.186c-46.915-46.855-46.926-122.794,0.029-169.688
			c26.755-26.81,69.164-41.373,114.829-30.018V151H242V0H0v512h392v-65.235C382.268,449.274,372.302,451.015,361.985,451.015z
			 M60,181h212v30H60V181z M212,391H60v-30h152V391z M212,331H60v-30h152V331z M212,271H60v-30h152V271z"/>
	</g>
</g>
</svg>
