<svg viewBox="0 0 20 20" xmlns="http://www.w3.org/2000/svg">
<path d="M1 4C0.45 4 0 4.45 0 5V18C0 19.1 0.9 20 2 20H15C15.55 20 16 19.55 16 19C16 18.45 15.55 18 15 18H3C2.45 18 2 17.55 2 17V5C2 4.45 1.55 4 1 4ZM18 0H6C4.9 0 4 0.9 4 2V14C4 15.1 4.9 16 6 16H18C19.1 16 20 15.1 20 14V2C20 0.9 19.1 0 18 0ZM16 9H8C7.45 9 7 8.55 7 8C7 7.45 7.45 7 8 7H16C16.55 7 17 7.45 17 8C17 8.55 16.55 9 16 9ZM12 13H8C7.45 13 7 12.55 7 12C7 11.45 7.45 11 8 11H12C12.55 11 13 11.45 13 12C13 12.55 12.55 13 12 13ZM16 5H8C7.45 5 7 4.55 7 4C7 3.45 7.45 3 8 3H16C16.55 3 17 3.45 17 4C17 4.55 16.55 5 16 5Z" />
</svg>
