<svg version="1.1" xmlns="http://www.w3.org/2000/svg" xmlns:xlink="http://www.w3.org/1999/xlink" x="0px" y="0px" viewBox="0 0 1000 1000" enable-background="new 0 0 1000 1000" xml:space="preserve">
<g><g transform="translate(0.000000,511.000000) scale(0.100000,-0.100000)"><path d="M3799.5,4924.9c-46.1-23-104.9-71.6-130.5-107.4c-35.8-53.7-2133.7-5354.8-2156.8-5452.1c-7.7-23,667.8-294.2,685.7-273.8c2.6,2.6,450.3,1143.6,997.8,2538c544.9,1394.4,997.8,2543.1,1008,2553.3c17.9,20.5,4794.6-1187.1,4827.8-1217.8c35.8-38.4-1371.3-3924.7-1865.1-5147.6c-437.5-1079.7-726.6-1512-1135.9-1706.5c-158.6-76.8-204.7-84.4-445.2-92.1c-345.4-12.8-498.9,38.4-716.4,243c-245.6,225.1-406.8,621.7-450.3,1092.5l-17.9,189.3l-2126.1,857.1C870.1-1031.2,140.9-747.2,123-765.1c-15.4-15.4-23-197-23-440.1c2.6-337.7,12.8-450.3,56.3-611.5c71.6-261,209.8-534.7,373.5-736.8c255.8-319.8,330-360.7,2174.7-1199.9c931.3-422.1,1747.4-790.5,1813.9-818.7c347.9-148.4,816.1-209.8,1207.6-158.6C6682.9-4602.7,7235.5-4022,7836.8-2515c391.4,977.3,1811.4,4899.4,2036.5,5620.9c53.7,179.1,28.1,301.9-92.1,417c-69.1,66.5-179.1,97.2-1169.2,337.7c-3760.9,905.7-4607.7,1107.8-4664,1107.8C3912.1,4968.4,3845.6,4948,3799.5,4924.9z"/><path d="M4769.2,3632.9c-145.8-74.2-209.8-163.7-225.1-307c-28.1-237.9,153.5-434.9,399.1-434.9c411.9,0,562.9,481,230.3,729.2C5065.9,3696.9,4902.2,3704.5,4769.2,3632.9z"/><path d="M5974.2,3203.1c-84.4-51.2-181.6-222.6-184.2-317.2c0-92.1,104.9-271.2,184.2-312.1c69.1-35.8,1504.4-486.1,1750-550.1c92.1-23,125.4-20.5,225.2,23c145.8,66.5,220,179.1,220,337.7c0,143.3-71.7,268.6-184.2,319.8c-166.3,79.3-1742.3,550.1-1831.8,550.1C6099.6,3254.3,6020.3,3231.2,5974.2,3203.1z"/><path d="M4214,2463.7c-212.4-97.2-294.2-332.6-184.2-537.3c74.2-140.7,194.4-207.2,365.8-207.2c235.4,0,396.6,158.6,396.6,394c0,161.2-71.6,276.3-214.9,345.4C4444.2,2525.1,4349.6,2525.1,4214,2463.7z"/><path d="M5403.7,2016c-214.9-145.8-212.3-450.3,5.1-606.4c33.3-25.6,458-168.9,938.9-317.2c905.7-276.3,926.2-281.4,1087.3-199.6c225.2,115.1,225.2,514.2,0,629.4c-138.1,71.6-1744.8,555.2-1842.1,555.2C5531.6,2077.4,5460,2054.3,5403.7,2016z"/><path d="M3692.1,1448c-33.3-76.8-53.7-143.3-48.6-148.4c5.1-5.1,66.5-28.1,133-53.7c66.5-25.6,127.9-56.3,135.6-69.1c17.9-25.6,87-1008,87-1210.2c0-127.9-2.6-127.9-171.4-255.8c-202.1-151-263.5-243-263.5-388.9c0-199.6,38.4-222.6,1036.2-621.7c491.2-197,900.6-350.5,910.8-337.7c38.4,43.5,99.8,245.6,81.9,263.5c-10.2,10.2-394,168.9-851.9,350.5c-455.4,181.7-834.1,342.8-836.6,355.6c-5.1,12.8,46.1,71.6,115.1,127.9L4142.4-435l573.1-230.3C5183.6-852.1,5309-893,5385.7-882.8c76.8,10.2,197,94.7,601.2,427.3c491.3,401.7,506.6,417,506.6,506.6v94.7L5367.9,598.6l-1125.7,450.3l-7.7,176.5l-7.7,176.5l-107.5,40.9c-58.8,23-166.3,64-240.5,92.1l-130.5,53.7L3692.1,1448z"/><path d="M3372.3-1177c-232.8-214.9-66.5-565.4,245.6-524.5c161.2,20.5,253.3,127.9,253.3,294.2c0,138.2-46,217.5-153.5,273.8C3592.3-1069.5,3472-1084.9,3372.3-1177z"/><path d="M4904.8-1709.1c-171.4-69.1-222.6-342.8-92.1-488.7c58.8-66.5,97.2-84.5,202.1-92.1c120.2-12.8,135.6-7.7,227.7,76.7c92.1,81.9,99.8,102.3,99.8,222.6s-7.7,140.7-94.7,220C5147.8-1681,5027.6-1658,4904.8-1709.1z"/></g></g>
</svg>