<svg viewBox="0 0 19 18" xmlns="http://www.w3.org/2000/svg">
<path d="M10.0001 0C9.45005 0 9.00005 0.45 9.00005 1V9C9.00005 9.55 9.45005 10 10.0001 10C10.5501 10 11.0001 9.55 11.0001 9V1C11.0001 0.45 10.5501 0 10.0001 0ZM15.1401 2.86C14.7501 3.25 14.7601 3.86 15.1301 4.25C16.2601 5.45 16.9601 7.05 17.0001 8.82C17.0901 12.65 13.9201 15.95 10.0901 15.99C6.18005 16.05 3.00005 12.9 3.00005 9C3.00005 7.16 3.71005 5.49 4.87005 4.24C5.24005 3.85 5.24005 3.24 4.86005 2.86C4.46005 2.46 3.81005 2.47 3.43005 2.88C1.98005 4.42 1.07005 6.47 1.00005 8.74C0.860053 13.62 4.83005 17.84 9.71005 17.99C14.8101 18.15 19.0001 14.06 19.0001 8.99C19.0001 6.62 18.0801 4.48 16.5801 2.88C16.2001 2.47 15.5401 2.46 15.1401 2.86Z"/>
</svg>
