<svg viewBox="0 0 18 20" xmlns="http://www.w3.org/2000/svg">
<path d="M18 0.210012C17.87 0.210012 17.74 0.260012 17.65 0.360012L16.86 1.15001C16.66 1.35001 16.35 1.35001 16.15 1.15001L15.36 0.360012C15.16 0.160012 14.85 0.160012 14.65 0.360012L13.86 1.15001C13.66 1.35001 13.35 1.35001 13.15 1.15001L12.36 0.360012C12.16 0.160012 11.85 0.160012 11.65 0.360012L10.86 1.15001C10.66 1.35001 10.35 1.35001 10.15 1.15001L9.36 0.360012C9.16 0.160012 8.85 0.160012 8.65 0.360012L7.86 1.15001C7.66 1.35001 7.35 1.35001 7.15 1.15001L6.35 0.350012C6.15 0.150012 5.84 0.150012 5.64 0.350012L4.85 1.15001C4.65 1.35001 4.34 1.35001 4.14 1.15001L3.35 0.350012C3.15 0.150012 2.84 0.150012 2.64 0.350012L1.85 1.15001C1.65 1.35001 1.34 1.35001 1.14 1.15001L0.35 0.350012C0.26 0.260012 0.13 0.210012 0 0.210012V19.8C0.13 19.8 0.26 19.75 0.35 19.65L1.14 18.86C1.34 18.66 1.65 18.66 1.85 18.86L2.64 19.65C2.84 19.85 3.15 19.85 3.35 19.65L4.14 18.86C4.34 18.66 4.65 18.66 4.85 18.86L5.64 19.65C5.84 19.85 6.15 19.85 6.35 19.65L7.14 18.86C7.34 18.66 7.65 18.66 7.85 18.86L8.64 19.65C8.84 19.85 9.15 19.85 9.35 19.65L10.14 18.86C10.34 18.66 10.65 18.66 10.85 18.86L11.64 19.65C11.84 19.85 12.15 19.85 12.35 19.65L13.14 18.86C13.34 18.66 13.65 18.66 13.85 18.86L14.64 19.65C14.84 19.85 15.15 19.85 15.35 19.65L16.14 18.86C16.34 18.66 16.65 18.66 16.85 18.86L17.64 19.65C17.74 19.75 17.87 19.8 17.99 19.8V0.210012H18ZM14 15H4C3.45 15 3 14.55 3 14C3 13.45 3.45 13 4 13H14C14.55 13 15 13.45 15 14C15 14.55 14.55 15 14 15ZM14 11H4C3.45 11 3 10.55 3 10C3 9.45001 3.45 9.00001 4 9.00001H14C14.55 9.00001 15 9.45001 15 10C15 10.55 14.55 11 14 11ZM14 7.00001H4C3.45 7.00001 3 6.55001 3 6.00001C3 5.45001 3.45 5.00001 4 5.00001H14C14.55 5.00001 15 5.45001 15 6.00001C15 6.55001 14.55 7.00001 14 7.00001Z" />
</svg>
