<?xml version="1.0" encoding="iso-8859-1"?>
<svg version="1.1" id="Capa_1" xmlns="http://www.w3.org/2000/svg" xmlns:xlink="http://www.w3.org/1999/xlink" x="0px" y="0px"
	 viewBox="0 0 60 60" style="enable-background:new 0 0 60 60;" xml:space="preserve">
<path d="M38.914,0H6.5v60h47V14.586L38.914,0z M24.125,41.781l-5,4C18.941,45.928,18.72,46,18.5,46
	c-0.257,0-0.514-0.099-0.708-0.293l-2-2c-0.391-0.391-0.391-1.023,0-1.414s1.023-0.391,1.414,0l1.367,1.367l4.301-3.441
	c0.43-0.345,1.061-0.275,1.405,0.156C24.626,40.807,24.556,41.436,24.125,41.781z M24.125,30.781l-5,4
	C18.941,34.928,18.72,35,18.5,35c-0.257,0-0.514-0.099-0.708-0.293l-2-2c-0.391-0.391-0.391-1.023,0-1.414s1.023-0.391,1.414,0
	l1.367,1.367l4.301-3.441c0.43-0.345,1.061-0.275,1.405,0.156C24.626,29.807,24.556,30.436,24.125,30.781z M24.125,19.781l-5,4
	C18.941,23.928,18.72,24,18.5,24c-0.257,0-0.514-0.099-0.708-0.293l-2-2c-0.391-0.391-0.391-1.023,0-1.414s1.023-0.391,1.414,0
	l1.367,1.367l4.301-3.441c0.43-0.345,1.061-0.275,1.405,0.156C24.626,18.807,24.556,19.436,24.125,19.781z M42.5,45h-16
	c-0.552,0-1-0.447-1-1s0.448-1,1-1h16c0.552,0,1,0.447,1,1S43.052,45,42.5,45z M42.5,34h-16c-0.552,0-1-0.447-1-1s0.448-1,1-1h16
	c0.552,0,1,0.447,1,1S43.052,34,42.5,34z M42.5,23h-16c-0.552,0-1-0.447-1-1s0.448-1,1-1h16c0.552,0,1,0.447,1,1S43.052,23,42.5,23z
	 M37.5,16V2l14,14H37.5z"/>
</svg>
