<svg width="130" height="24" viewBox="0 0 130 24" fill="none" xmlns="http://www.w3.org/2000/svg">
<path d="M0.692383 2.34395C0.692383 1.24424 1.56252 0.336426 2.68655 0.336426H3.1056C3.97574 0.336426 4.55501 0.791562 4.93955 1.40661L11.7626 12.1454L18.6153 1.37217C19.0343 0.693154 19.6136 0.336426 20.4172 0.336426H20.8362C21.9603 0.336426 22.8304 1.24178 22.8304 2.34395V21.2998C22.8304 22.3995 21.9603 23.2729 20.8362 23.2729C19.7738 23.2729 18.8741 22.365 18.8741 21.2998V7.7121L13.3698 16.0251C12.9508 16.6746 12.4356 17.0609 11.6961 17.0609C10.9862 17.0609 10.4734 16.6746 10.0569 16.0251L4.58459 7.77606V21.3293C4.58459 22.429 3.71938 23.2704 2.62247 23.2704C1.52801 23.2704 0.692383 22.429 0.692383 21.3293V2.34395Z" fill="#2ED9C3"/>
<path d="M32.5029 21.1059V2.4699C32.5029 1.33821 33.3731 0.464844 34.4971 0.464844H47.5936C48.5574 0.464844 49.3634 1.27425 49.3634 2.24357C49.3634 3.24487 48.5599 4.02229 47.5936 4.02229H36.4592V9.90708H46.1442C47.1104 9.90708 47.9165 10.7165 47.9165 11.7202C47.9165 12.692 47.1129 13.467 46.1442 13.467H36.4592V19.5486H47.7538C48.7201 19.5486 49.5261 20.358 49.5261 21.3273C49.5261 22.3286 48.7225 23.106 47.7538 23.106H34.4971C33.3706 23.111 32.5029 22.2401 32.5029 21.1059Z" fill="#2ED9C3"/>
<path d="M67.2322 19.4871C71.9625 19.4871 75.0536 16.2839 75.0536 11.8531V11.7891C75.0536 7.3583 71.9625 4.09116 67.2322 4.09116H62.7927V19.4895H67.2322V19.4871ZM58.834 2.47235C58.834 1.34066 59.7041 0.467285 60.8282 0.467285H67.2322C74.3116 0.467285 79.2046 5.35078 79.2046 11.7227V11.7867C79.2046 18.161 74.3116 23.1085 67.2322 23.1085H60.8282C59.7041 23.1085 58.834 22.2351 58.834 21.1034V2.47235Z" fill="#2ED9C3"/>
<path d="M88.5645 2.27825C88.5645 1.17855 89.4346 0.305176 90.5586 0.305176C91.6531 0.305176 92.5208 1.17855 92.5208 2.27825V19.4873H102.721C103.719 19.4873 104.523 20.2992 104.523 21.3005C104.523 22.3018 103.719 23.1112 102.721 23.1112H90.5586C89.4346 23.1112 88.5645 22.2378 88.5645 21.1061V2.27825Z" fill="#2ED9C3"/>
<path d="M116.909 14.3133L109.151 3.60652C108.895 3.22027 108.7 2.76513 108.7 2.21651C108.7 1.14632 109.57 0.307392 110.697 0.307392C111.567 0.307392 112.146 0.789591 112.627 1.50305L118.9 10.591L125.272 1.46861C125.755 0.757608 126.335 0.272949 127.17 0.272949C128.329 0.272949 129.1 1.14632 129.1 2.21405C129.1 2.76021 128.844 3.24733 128.556 3.63604L120.865 14.2124V21.3003C120.865 22.3975 120 23.2709 118.871 23.2709C117.776 23.2709 116.909 22.3975 116.909 21.3003V14.3133Z" fill="#2ED9C3"/>
</svg>
