<svg width="24" height="24" viewBox="0 0 24 24" fill="none" xmlns="http://www.w3.org/2000/svg">
<g id="all_inclusive_24px">
<path id="icon/places/all_inclusive_24px" d="M20.2254 6.86C18.2254 6.26 16.1654 6.82 14.8354 8.15L12.0054 10.66L10.4854 12H10.4954L7.80537 14.39C6.99537 15.2 5.85537 15.54 4.68537 15.31C3.43537 15.06 2.40537 14.06 2.11537 12.82C1.59537 10.59 3.27537 8.62 5.40537 8.62C6.31537 8.62 7.16537 8.97 7.84537 9.65L8.31537 10.06C8.69537 10.4 9.26537 10.4 9.64537 10.06C10.0954 9.66 10.0954 8.96 9.64537 8.56L9.22537 8.2C8.20537 7.18 6.84537 6.62 5.40537 6.62C2.42537 6.62 0.00537109 9.04 0.00537109 12C0.00537109 14.96 2.42537 17.38 5.40537 17.38C6.84537 17.38 8.20537 16.82 9.17537 15.85L12.0054 13.35L12.0154 13.36L13.5254 12H13.5154L16.2054 9.61C17.0154 8.8 18.1554 8.46 19.3254 8.69C20.5754 8.94 21.6054 9.94 21.8954 11.18C22.4154 13.41 20.7354 15.38 18.6054 15.38C17.7054 15.38 16.8454 15.03 16.1654 14.35L15.6854 13.93C15.3054 13.59 14.7354 13.59 14.3554 13.93C13.9054 14.33 13.9054 15.03 14.3554 15.43L14.7754 15.8C15.7954 16.81 17.1454 17.37 18.5954 17.37C21.8654 17.37 24.4554 14.47 23.9254 11.12C23.6254 9.13 22.1554 7.43 20.2254 6.86Z" fill="black" fill-opacity="0.54"/>
</g>
</svg>
