<svg width="24" height="24" viewBox="0 0 24 24" fill="none" xmlns="http://www.w3.org/2000/svg">
<g id="beach_access_24px">
<path id="icon/places/beach_access_24px" fill-rule="evenodd" clip-rule="evenodd" d="M18.8998 7.76888L17.6298 9.03888C14.4998 5.90888 10.1198 4.85888 6.18977 6.15888C9.55977 2.79888 14.6998 2.30888 18.5898 4.68888C19.6698 5.33888 19.7898 6.87888 18.8998 7.76888ZM14.7698 13.3389L13.3398 14.7689L19.0698 20.4989C19.4698 20.8889 20.1098 20.8889 20.4998 20.4989C20.8898 20.0989 20.8898 19.4589 20.4998 19.0689L14.7698 13.3389ZM6.15977 6.18888C2.79977 9.55888 2.30977 14.6989 4.67977 18.5889C5.33977 19.6689 6.86977 19.7989 7.75977 18.8989L9.02977 17.6289C5.90977 14.4989 4.85977 10.1189 6.15977 6.18888ZM6.16977 6.17888L6.17977 6.16888C9.18977 5.78888 13.0698 7.33888 16.1998 10.4689L10.4698 16.1989C7.33977 13.0589 5.78977 9.18888 6.16977 6.17888Z" fill="black" fill-opacity="0.54"/>
</g>
</svg>
