<svg width="24" height="24" viewBox="0 0 24 24" fill="none" xmlns="http://www.w3.org/2000/svg">
<g id="child_friendly_24px">
<path id="icon/places/child_friendly_24px" fill-rule="evenodd" clip-rule="evenodd" d="M13.5 9.96522V3.04522C13.5 2.43522 14.04 1.95522 14.64 2.04522C18.52 2.59522 21.5 5.93522 21.5 9.96522H13.5ZM21.5 10.9652C21.5 12.8052 20.87 14.5052 19.82 15.8552C20.74 16.6752 21.23 17.9652 20.88 19.3552C20.56 20.6152 19.52 21.6152 18.25 21.8852C16.17 22.3252 14.3 20.9052 14.03 18.9652H11.95C11.68 20.9152 9.8 22.3352 7.7 21.8752C6.44 21.5952 5.4 20.5852 5.1 19.3252C4.7 17.6552 5.51 16.0952 6.84 15.3852C6.61 15.0352 4.72 10.9652 4.72 10.9652H3.5C2.95 10.9652 2.5 10.5152 2.5 9.96522C2.5 9.41522 2.95 8.96522 3.5 8.96522H5.36C5.74 8.96522 6.1 9.18522 6.26 9.53522L6.94 10.9652H21.5ZM8.5 19.9652C7.67 19.9652 7 19.2952 7 18.4652C7 17.6352 7.67 16.9652 8.5 16.9652C9.33 16.9652 10 17.6352 10 18.4652C10 19.2952 9.33 19.9652 8.5 19.9652ZM16 18.4652C16 19.2952 16.67 19.9652 17.5 19.9652C18.33 19.9652 19 19.2952 19 18.4652C19 17.6352 18.33 16.9652 17.5 16.9652C16.67 16.9652 16 17.6352 16 18.4652Z" fill="black" fill-opacity="0.54"/>
</g>
</svg>
