<svg width="24" height="24" viewBox="0 0 24 24" fill="none" xmlns="http://www.w3.org/2000/svg">
<g id="child_care_24px">
<path id="icon/places/child_care_24px" fill-rule="evenodd" clip-rule="evenodd" d="M22.94 11.34C22.69 9.83 21.58 8.6 20.13 8.17C19.6 7.05 18.85 6.07 17.94 5.26C16.36 3.85 14.28 3 12 3C9.72 3 7.64 3.85 6.06 5.26C5.14 6.07 4.39 7.06 3.87 8.17C2.42 8.6 1.31 9.82 1.06 11.34C1.02 11.55 1 11.77 1 12C1 12.23 1.02 12.45 1.06 12.66C1.31 14.17 2.42 15.4 3.87 15.83C4.39 16.94 5.14 17.92 6.04 18.72C7.62 20.14 9.71 21 12 21C14.29 21 16.38 20.14 17.97 18.72C18.87 17.92 19.62 16.93 20.14 15.83C21.58 15.4 22.69 14.18 22.94 12.66C22.98 12.45 23 12.23 23 12C23 11.77 22.98 11.55 22.94 11.34ZM9.5 9.25C8.80964 9.25 8.25 9.80964 8.25 10.5C8.25 11.1904 8.80964 11.75 9.5 11.75C10.1904 11.75 10.75 11.1904 10.75 10.5C10.75 9.80964 10.1904 9.25 9.5 9.25ZM14.5 9.25C13.8096 9.25 13.25 9.80964 13.25 10.5C13.25 11.1904 13.8096 11.75 14.5 11.75C15.1904 11.75 15.75 11.1904 15.75 10.5C15.75 9.80964 15.1904 9.25 14.5 9.25ZM16.1 14C16.28 14 16.41 14.2 16.33 14.37C15.5 15.94 13.87 17 12 17C10.13 17 8.5 15.94 7.67 14.37C7.58 14.2 7.71 14 7.9 14H16.1ZM18.8115 13.9828C18.8738 13.9915 18.9348 14 19 14C20.1 14 21 13.1 21 12C21 10.9 20.1 10 19 10C18.9348 10 18.8738 10.0085 18.8115 10.0172C18.7783 10.0218 18.7448 10.0265 18.71 10.03C18.51 9.36 18.22 8.74 17.85 8.17C16.6 6.26 14.45 5 12 5C9.55 5 7.4 6.26 6.15 8.17C5.78 8.74 5.49 9.36 5.29 10.03C5.25525 10.0265 5.2217 10.0218 5.18853 10.0172C5.12624 10.0085 5.06525 10 5 10C3.9 10 3 10.9 3 12C3 13.1 3.9 14 5 14C5.06525 14 5.12624 13.9915 5.18853 13.9828C5.2217 13.9782 5.25525 13.9735 5.29 13.97C5.49 14.64 5.78 15.26 6.15 15.83C7.4 17.74 9.55 19 12 19C14.45 19 16.6 17.74 17.85 15.83C18.22 15.26 18.51 14.64 18.71 13.97C18.7448 13.9735 18.7783 13.9782 18.8115 13.9828Z" fill="black" fill-opacity="0.54"/>
</g>
</svg>
