<svg width="24" height="24" viewBox="0 0 24 24" fill="none" xmlns="http://www.w3.org/2000/svg">
<g id="fitness_center_24px">
<path id="icon/places/fitness_center_24px" d="M20.57 14.86L21.29 14.14C21.68 13.75 21.68 13.12 21.29 12.73L21.27 12.71C21.0831 12.5227 20.8295 12.4175 20.565 12.4175C20.3005 12.4175 20.0468 12.5227 19.86 12.71L17 15.57L8.42998 7L11.29 4.14C11.68 3.75 11.68 3.12 11.29 2.73L11.27 2.71C11.0831 2.52274 10.8295 2.41751 10.565 2.41751C10.3005 2.41751 10.0468 2.52274 9.85998 2.71L9.13998 3.43L8.41998 2.71C8.02998 2.32 7.38998 2.32 6.99998 2.71L5.56998 4.14L4.84998 3.42C4.45998 3.03 3.80998 3.03 3.41998 3.42C3.02998 3.81 3.02998 4.46 3.41998 4.85L4.13998 5.57L2.70998 7C2.31998 7.39 2.31998 8.02 2.70998 8.41L3.42998 9.13L2.70998 9.86C2.31998 10.25 2.31998 10.88 2.70998 11.27L2.72998 11.29C3.11998 11.68 3.74998 11.68 4.13998 11.29L6.99998 8.43L15.57 17L12.71 19.86C12.32 20.25 12.32 20.88 12.71 21.27L12.73 21.29C13.12 21.68 13.75 21.68 14.14 21.29L14.86 20.57L15.58 21.29C15.97 21.68 16.6 21.68 16.99 21.29L18.42 19.86L19.14 20.58C19.53 20.97 20.18 20.97 20.57 20.58C20.96 20.19 20.96 19.54 20.57 19.15L19.85 18.43L21.29 17C21.68 16.61 21.68 15.98 21.29 15.59L20.57 14.86Z" fill="black" fill-opacity="0.54"/>
</g>
</svg>
