<svg width="24" height="24" viewBox="0 0 24 24" fill="none" xmlns="http://www.w3.org/2000/svg">
<g id="golf_course_24px">
<path id="icon/places/golf_course_24px" fill-rule="evenodd" clip-rule="evenodd" d="M10.5 8.67802V17.728C13.34 17.888 15.5 18.708 15.5 19.698C15.5 20.798 12.81 21.698 9.5 21.698C6.19 21.698 3.5 20.798 3.5 19.698C3.5 18.958 4.71 18.318 6.5 17.968V18.698C6.5 19.248 6.95 19.698 7.5 19.698C8.05 19.698 8.5 19.248 8.5 18.698V3.29802C8.5 2.55802 9.28 2.07802 9.95 2.40802L14.71 4.73802C15.45 5.09802 15.45 6.15802 14.72 6.52802L10.5 8.67802ZM17.5 19.198C17.5 18.3696 18.1716 17.698 19 17.698C19.8284 17.698 20.5 18.3696 20.5 19.198C20.5 20.0264 19.8284 20.698 19 20.698C18.1716 20.698 17.5 20.0264 17.5 19.198Z" fill="black" fill-opacity="0.54"/>
</g>
</svg>
