<svg width="24" height="24" viewBox="0 0 24 24" fill="none" xmlns="http://www.w3.org/2000/svg">
<g id="hot_tub_24px">
<path id="icon/places/hot_tub_24px" fill-rule="evenodd" clip-rule="evenodd" d="M15.06 9.5C15.56 9.5 15.99 9.11 16 8.61C16.04 7.21 15.42 6.13 14.65 5.36C14 4.64 13.85 4.09 13.88 3.45C13.9 2.93 13.47 2.5 12.94 2.5C12.44 2.5 12.01 2.9 12 3.4C11.97 4.69 12.5 5.83 13.35 6.65C13.96 7.24 14.13 7.92 14.13 8.54C14.12 9.06 14.53 9.5 15.06 9.5ZM5 5.5C5 4.39543 5.89543 3.5 7 3.5C8.10457 3.5 9 4.39543 9 5.5C9 6.60457 8.10457 7.5 7 7.5C5.89543 7.5 5 6.60457 5 5.5ZM11.15 11.5H21C21.55 11.5 22 11.95 22 12.5V19.5C22 20.6 21.1 21.5 20 21.5H4C2.9 21.5 2 20.6 2 19.5V12.5C2 11.95 2.45 11.5 3 11.5H5V10.75C5 9.51 6.01 8.5 7.25 8.5H7.28C7.62 8.5 7.95 8.59 8.24 8.73C8.5 8.85 8.74 9.02 8.93 9.23L10.33 10.78C10.56 11.04 10.84 11.28 11.15 11.5ZM7 18.5C7 19.05 6.55 19.5 6 19.5C5.45 19.5 5 19.05 5 18.5V14.5C5 13.95 5.45 13.5 6 13.5C6.55 13.5 7 13.95 7 14.5V18.5ZM10 19.5C10.55 19.5 11 19.05 11 18.5V14.5C11 13.95 10.55 13.5 10 13.5C9.45 13.5 9 13.95 9 14.5V18.5C9 19.05 9.45 19.5 10 19.5ZM15 18.5C15 19.05 14.55 19.5 14 19.5C13.45 19.5 13 19.05 13 18.5V14.5C13 13.95 13.45 13.5 14 13.5C14.55 13.5 15 13.95 15 14.5V18.5ZM18 19.5C18.55 19.5 19 19.05 19 18.5V14.5C19 13.95 18.55 13.5 18 13.5C17.45 13.5 17 13.95 17 14.5V18.5C17 19.05 17.45 19.5 18 19.5ZM20 8.61C19.99 9.11 19.56 9.5 19.06 9.5C18.53 9.5 18.12 9.06 18.13 8.54C18.13 7.92 17.96 7.24 17.35 6.65C16.5 5.83 15.97 4.69 16 3.4C16.01 2.9 16.44 2.5 16.94 2.5C17.47 2.5 17.9 2.93 17.88 3.45C17.85 4.09 18 4.64 18.65 5.36C19.42 6.13 20.04 7.21 20 8.61Z" fill="black" fill-opacity="0.54"/>
</g>
</svg>
