<svg width="24" height="24" viewBox="0 0 24 24" fill="none" xmlns="http://www.w3.org/2000/svg">
<g id="no_meeting_room_24px">
<path id="icon/places/no_meeting_room_24px" fill-rule="evenodd" clip-rule="evenodd" d="M12.5605 11.15L21.7305 20.32C22.1205 20.71 22.1205 21.34 21.7205 21.73C21.3305 22.12 20.7005 22.12 20.3105 21.73L14.5605 15.98V19.44C14.5605 19.99 14.1105 20.44 13.5605 20.44H4.56053C4.01053 20.44 3.56053 19.99 3.56053 19.44C3.56053 18.89 4.01053 18.44 4.56053 18.44H5.56053V6.97999L2.27053 3.67999C1.88053 3.28999 1.88053 2.65999 2.27053 2.26999C2.45736 2.08274 2.71101 1.97751 2.97553 1.97751C3.24004 1.97751 3.4937 2.08274 3.68053 2.26999L11.8505 10.44H10.5605V12.44H12.5605V11.15ZM17.5605 5.43999H14.5605V10.32L6.68053 2.43999H13.5605C14.1105 2.43999 14.5605 2.88999 14.5605 3.43999H18.5605C19.1105 3.43999 19.5605 3.88999 19.5605 4.43999V15.32L17.5605 13.32V5.43999Z" fill="black" fill-opacity="0.54"/>
</g>
</svg>
