<svg width="24" height="24" viewBox="0 0 24 24" fill="none" xmlns="http://www.w3.org/2000/svg">
<g id="pool_24px">
<path id="icon/places/pool_24px" fill-rule="evenodd" clip-rule="evenodd" d="M14 5.5C14 4.11929 15.1193 3 16.5 3C17.8807 3 19 4.11929 19 5.5C19 6.88071 17.8807 8 16.5 8C15.1193 8 14 6.88071 14 5.5ZM9 7C8.14 6.14 7.3 5.7 6.11 5.56C5.49 5.48 5 4.98 5 4.35V4.26C5 3.56 5.6 2.99 6.3 3.05C8.04 3.2 9.22 3.74 10.48 5L16.9 11.41C16.75 11.49 16.61 11.57 16.49 11.64C16.12 11.87 15.89 12 15.34 12C14.7954 12 14.5645 11.8627 14.2008 11.6464L14.19 11.64C13.74 11.37 13.12 11 12.01 11C10.9101 11 10.2914 11.3633 9.83265 11.6326L9.82 11.64C9.45 11.87 9.23 12 8.67 12C8.11 12 7.89 11.87 7.52 11.64L7.45703 11.6039C7.26038 11.4909 7.02959 11.3582 6.75 11.25L10 8L9 7ZM20.85 18.64C21.03 18.76 21.18 18.85 21.35 18.91C21.73 19.04 22 19.36 22 19.77V19.89C22 20.56 21.33 21.02 20.7 20.8C20.33 20.67 20.05 20.5 19.82 20.36L19.8092 20.3536C19.4455 20.1373 19.2146 20 18.67 20C18.11 20 17.89 20.13 17.52 20.36L17.4956 20.3743C17.0384 20.6429 16.4305 21 15.34 21C14.23 21 13.61 20.63 13.16 20.36L13.1492 20.3536C12.7855 20.1373 12.5546 20 12.01 20C11.45 20 11.23 20.13 10.86 20.36L10.8473 20.3674C10.3886 20.6367 9.76985 21 8.67 21C7.56 21 6.94 20.63 6.49 20.36C6.12 20.13 5.89 20 5.34 20C4.79 20 4.56 20.13 4.19 20.35L4.14162 20.3783C3.9124 20.5124 3.64542 20.6686 3.3 20.79C2.66 21.01 2 20.55 2 19.88V19.76C2 19.36 2.27 19.04 2.65 18.91C2.82 18.84 2.97 18.75 3.15 18.64L3.16265 18.6326C3.62138 18.3633 4.24015 18 5.34 18C6.45 18 7.07 18.37 7.52 18.64C7.89 18.87 8.11 19 8.67 19C9.23 19 9.45 18.87 9.82 18.64L9.83265 18.6326C10.2914 18.3633 10.9101 18 12.01 18C13.12 18 13.74 18.37 14.19 18.64L14.2008 18.6464C14.5645 18.8627 14.7954 19 15.34 19C15.89 19 16.12 18.87 16.49 18.64C16.94 18.37 17.56 18 18.67 18C19.78 18 20.4 18.37 20.85 18.64ZM3.11 16.35C3.56224 16.2249 3.89412 16.035 4.168 15.8783L4.2 15.86C4.57 15.63 4.8 15.5 5.35 15.5C5.89463 15.5 6.12548 15.6373 6.4892 15.8536L6.5 15.86C6.95 16.13 7.57 16.5 8.68 16.5C9.79 16.5 10.41 16.13 10.86 15.86C11.23 15.63 11.45 15.5 12.01 15.5C12.5546 15.5 12.7855 15.6373 13.1492 15.8536L13.16 15.86C13.61 16.13 14.23 16.5 15.34 16.5C16.45 16.5 17.07 16.13 17.52 15.86C17.89 15.63 18.11 15.5 18.67 15.5C19.2146 15.5 19.4455 15.6373 19.8092 15.8536L19.82 15.86C20.05 16 20.32 16.16 20.67 16.29C21.3 16.52 21.98 16.05 21.98 15.38V15.26C21.98 14.86 21.71 14.54 21.34 14.4C21.1822 14.3443 21.0416 14.2627 20.8702 14.1633L20.83 14.14C20.38 13.87 19.76 13.5 18.65 13.5C17.54 13.5 16.92 13.87 16.47 14.14C16.1 14.37 15.87 14.5 15.32 14.5C14.7754 14.5 14.5445 14.3627 14.1808 14.1464L14.17 14.14C13.72 13.87 13.1 13.5 11.99 13.5C10.88 13.5 10.26 13.87 9.81 14.14C9.44 14.37 9.22 14.5 8.66 14.5C8.11537 14.5 7.88452 14.3627 7.5208 14.1464L7.51 14.14C7.06 13.87 6.44 13.5 5.33 13.5C4.22 13.5 3.6 13.87 3.15 14.14C2.97 14.25 2.82 14.34 2.65 14.41C2.27 14.54 2 14.86 2 15.26V15.49C2 16.07 2.55 16.51 3.11 16.35Z" fill="black" fill-opacity="0.54"/>
</g>
</svg>
