<svg width="24" height="24" viewBox="0 0 24 24" fill="none" xmlns="http://www.w3.org/2000/svg">
<g id="rv_hookup_24px">
<path id="icon/places/rv_hookup_24px" fill-rule="evenodd" clip-rule="evenodd" d="M16 5.63264H9C8.45 5.63264 8 5.18264 8 4.63264C8 4.08264 8.45 3.63264 9 3.63264H16V2.89264C16 2.42264 16.56 2.19264 16.89 2.52264L18.63 4.26264C18.83 4.47264 18.83 4.80264 18.63 5.00264L16.89 6.74264C16.56 7.07264 16 6.83264 16 6.37264V5.63264ZM19 16.6326H20C20.55 16.6326 21 17.0826 21 17.6326C21 18.1826 20.55 18.6326 20 18.6326H13C13 20.2926 11.66 21.6326 10 21.6326C8.34 21.6326 7 20.2926 7 18.6326H5C3.9 18.6326 3 17.7326 3 16.6326V14.6326C3 14.0826 3.45 13.6326 4 13.6326H10V10.6326H6V11.3726C6 11.8426 5.44 12.0726 5.11 11.7426L3.37 10.0026C3.17 9.79264 3.17 9.46264 3.37 9.26264L5.11 7.52264C5.44 7.19264 6 7.43264 6 7.89264V8.63264H17C18.1 8.63264 19 9.53264 19 10.6326V16.6326ZM9 18.6326C9 19.1826 9.45 19.6326 10 19.6326C10.55 19.6326 11 19.1826 11 18.6326C11 18.0826 10.55 17.6326 10 17.6326C9.45 17.6326 9 18.0826 9 18.6326ZM17 13.6326H13V10.6326H16C16.55 10.6326 17 11.0826 17 11.6326V13.6326Z" fill="black" fill-opacity="0.54"/>
</g>
</svg>
