<svg width="24" height="24" viewBox="0 0 24 24" fill="none" xmlns="http://www.w3.org/2000/svg">
<g id="smoking_rooms_24px">
<path id="icon/places/smoking_rooms_24px" fill-rule="evenodd" clip-rule="evenodd" d="M18.85 9.17523C19.47 8.56523 19.85 7.72523 19.85 6.79523C19.85 5.28523 18.85 4.00523 17.47 3.58523C16.99 3.44523 16.5 3.80523 16.5 4.30523C16.5 4.63523 16.71 4.92523 17.02 5.01523C17.79 5.24523 18.35 5.95524 18.35 6.79523C18.35 7.61523 17.82 8.30523 17.08 8.55523C16.75 8.66524 16.5 8.94523 16.5 9.29523V9.44523C16.5 9.81523 16.77 10.1352 17.14 10.1952C19.07 10.5052 20.5 12.1952 20.5 14.2152V15.6952C20.5 16.1052 20.84 16.4452 21.25 16.4452C21.66 16.4452 22 16.1052 22 15.6952V14.2052C22 11.9852 20.72 10.0652 18.85 9.17523ZM15.5 17.4452H3.5C2.67 17.4452 2 18.1152 2 18.9452C2 19.7752 2.67 20.4452 3.5 20.4452H15.5C16.33 20.4452 17 19.7752 17 18.9452C17 18.1152 16.33 17.4452 15.5 17.4452ZM14.73 11.6452H16.03C17.9 11.6452 19.5 12.9952 19.51 14.8052V15.6952C19.51 16.1152 19.17 16.4452 18.76 16.4452H18.75C18.33 16.4452 18 16.1052 18 15.6952V15.1452C18 13.8352 17.08 13.0952 16.03 13.0952H14.61C12.77 13.0952 11.18 11.6452 11.15 9.80523C11.12 8.25523 12.15 6.93523 13.57 6.52523C14.04 6.38523 14.5 6.75523 14.5 7.24523C14.5 7.58523 14.28 7.87523 13.96 7.96523C13.12 8.19523 12.54 8.94523 12.66 9.89524C12.79 10.9152 13.71 11.6452 14.73 11.6452ZM19.5 17.4452V20.4452H18V17.4452H19.5ZM22 20.4452V17.4452H20.5V20.4452H22Z" fill="black" fill-opacity="0.54"/>
</g>
</svg>
