<svg width="24" height="24" viewBox="0 0 24 24" fill="none" xmlns="http://www.w3.org/2000/svg">
<g id="smoke_free_24px">
<path id="icon/places/smoke_free_24px" fill-rule="evenodd" clip-rule="evenodd" d="M14.61 8.33372H16.03C17.08 8.33372 18 9.07372 18 10.3837V10.9337C18 11.3437 18.33 11.6837 18.75 11.6837H18.76C19.17 11.6837 19.51 11.3537 19.51 10.9337V10.0437C19.51 8.23372 17.91 6.88372 16.04 6.88372H14.74C13.72 6.88372 12.8 6.15372 12.67 5.13372C12.55 4.18372 13.13 3.43372 13.97 3.20372C14.29 3.11372 14.51 2.82372 14.51 2.48372C14.51 1.99372 14.05 1.62372 13.58 1.76372C12.16 2.17372 11.13 3.49372 11.16 5.04372C11.18 6.89372 12.77 8.33372 14.61 8.33372ZM19.69 3.06372C19.52 3.57372 19.23 4.03372 18.85 4.41372C20.72 5.30372 22 7.22372 22 9.44372V10.9337C22 11.3437 21.66 11.6837 21.25 11.6837C20.84 11.6837 20.5 11.3437 20.5 10.9337V9.45372C20.5 7.43372 19.07 5.74372 17.14 5.43372C16.77 5.37372 16.5 5.05372 16.5 4.68372V4.53372C16.5 4.18372 16.75 3.90372 17.09 3.79372C17.64 3.61372 18.08 3.17372 18.26 2.62372C18.37 2.29372 18.64 2.05372 18.98 2.04372C19.5 2.05372 19.85 2.56372 19.69 3.06372ZM15.5 12.6837C16.33 12.6837 17 13.3537 17 14.1837C17 14.4237 16.94 14.6537 16.84 14.8637L14.66 12.6837H15.5ZM3.415 4.68123C3.67952 4.68123 3.93317 4.78646 4.12 4.97372L19.7 20.5637C20.09 20.9537 20.09 21.5837 19.7 21.9737C19.31 22.3637 18.68 22.3637 18.29 21.9737L12 15.6837H3.5C2.67 15.6837 2 15.0137 2 14.1837C2 13.3537 2.67 12.6837 3.5 12.6837H9L2.71 6.38372C2.32 5.99372 2.32 5.36372 2.71 4.97372C2.89683 4.78646 3.15048 4.68123 3.415 4.68123ZM18 12.6837H19.5V15.6837H18V12.6837ZM20.5 12.6837H22V15.6837H20.5V12.6837Z" fill="black" fill-opacity="0.54"/>
</g>
</svg>
