<svg width="24" height="24" viewBox="0 0 24 24" fill="none" xmlns="http://www.w3.org/2000/svg">
<g id="spa_24px">
<path id="icon/places/spa_24px" fill-rule="evenodd" clip-rule="evenodd" d="M12.8401 2.61749C14.4501 4.58749 15.3201 6.95749 15.4801 9.37749C14.2001 10.0675 13.0201 10.9475 11.9901 12.0075C10.9601 10.9375 9.78005 10.0575 8.50005 9.37749C8.70005 6.96749 9.62005 4.59749 11.2701 2.61749C11.6801 2.11749 12.4301 2.11749 12.8401 2.61749ZM8.89942 11.9722C8.92687 11.9904 8.95381 12.0087 8.98005 12.0275C8.95769 12.0115 8.93482 11.9961 8.91156 11.9809C8.90752 11.978 8.90347 11.9751 8.89942 11.9722ZM8.89942 11.9722C7.24673 10.7869 5.2864 10.0149 3.16005 9.80749C2.52005 9.74749 1.99005 10.2775 2.05005 10.9175C2.50005 15.7175 5.70005 19.6975 10.0301 21.2475C10.6601 21.4775 11.3201 21.6475 12.0001 21.7575C12.6801 21.6375 13.3301 21.4675 13.9701 21.2475C18.3001 19.6975 21.5001 15.7275 21.9501 10.9175C22.0101 10.2775 21.4701 9.74749 20.8401 9.80749C17.1301 10.1675 13.9401 12.2275 11.9901 15.1975C11.1665 13.9431 10.1217 12.8511 8.91156 11.9809C8.86622 11.9514 8.8194 11.923 8.77201 11.8943L8.772 11.8942L8.772 11.8942C8.69151 11.8455 8.60938 11.7957 8.53005 11.7375C8.59299 11.7795 8.65769 11.8197 8.72194 11.8596C8.78211 11.897 8.84187 11.9341 8.89942 11.9722Z" fill="black" fill-opacity="0.54"/>
</g>
</svg>
