<svg width="24" height="24" viewBox="0 0 24 24" fill="none" xmlns="http://www.w3.org/2000/svg">
<g id="add_location_24px">
<path id="icon/maps/add_location_24px" fill-rule="evenodd" clip-rule="evenodd" d="M5 9.265C5 5.405 8.14 2.265 12 2.265C15.86 2.265 19 5.405 19 9.265C19 13.435 14.58 19.185 12.77 21.375C12.37 21.855 11.64 21.855 11.24 21.375C9.42 19.185 5 13.435 5 9.265ZM13 10.265H15C15.55 10.265 16 9.815 16 9.265C16 8.715 15.55 8.265 15 8.265H13V6.265C13 5.715 12.55 5.265 12 5.265C11.45 5.265 11 5.715 11 6.265V8.265H9C8.45 8.265 8 8.715 8 9.265C8 9.815 8.45 10.265 9 10.265H11V12.265C11 12.815 11.45 13.265 12 13.265C12.55 13.265 13 12.815 13 12.265V10.265Z" fill="black" fill-opacity="0.54"/>
</g>
</svg>
