<svg width="24" height="24" viewBox="0 0 24 24" fill="none" xmlns="http://www.w3.org/2000/svg">
<g id="beenhere_24px">
<path id="icon/maps/beenhere_24px" fill-rule="evenodd" clip-rule="evenodd" d="M5 1.1025H19C20.1 1.1025 21 2.0025 21 3.1025V16.0325C21 16.7225 20.65 17.3325 20.12 17.6925L12.56 22.7325C12.22 22.9525 11.79 22.9525 11.45 22.7325L3.88 17.6925C3.35 17.3325 3 16.7225 3 16.0325L3.01 3.1025C3.01 2.0025 3.9 1.1025 5 1.1025ZM10.71 15.3925L18.3 7.8025C18.69 7.4125 18.68 6.7825 18.29 6.3925C17.9 6.0025 17.27 6.0025 16.88 6.3925L10 13.2725L7.12 10.3925C6.73 10.0025 6.1 10.0025 5.71 10.3925C5.32 10.7825 5.32 11.4125 5.71 11.8025L9.3 15.3925C9.69 15.7825 10.32 15.7825 10.71 15.3925Z" fill="black" fill-opacity="0.54"/>
</g>
</svg>
