<svg width="24" height="24" viewBox="0 0 24 24" fill="none" xmlns="http://www.w3.org/2000/svg">
<g id="category_24px">
<path id="icon/maps/category_24px" fill-rule="evenodd" clip-rule="evenodd" d="M10.65 2.94L6.93 9.02C6.52 9.68 7 10.54 7.78 10.54H15.21C15.99 10.54 16.47 9.68 16.06 9.02L12.35 2.94C11.96 2.3 11.04 2.3 10.65 2.94ZM17 12.54C15.3923 12.54 13.9067 13.3977 13.1029 14.79C12.299 16.1823 12.299 17.8977 13.1029 19.29C13.9067 20.6823 15.3923 21.54 17 21.54C18.6077 21.54 20.0933 20.6823 20.8971 19.29C21.701 17.8977 21.701 16.1823 20.8971 14.79C20.0933 13.3977 18.6077 12.54 17 12.54ZM9.5 21.04H3.5C2.95 21.04 2.5 20.59 2.5 20.04V14.04C2.5 13.49 2.95 13.04 3.5 13.04H9.5C10.05 13.04 10.5 13.49 10.5 14.04V20.04C10.5 20.59 10.05 21.04 9.5 21.04Z" fill="black" fill-opacity="0.54"/>
</g>
</svg>
