<svg width="24" height="24" viewBox="0 0 24 24" fill="none" xmlns="http://www.w3.org/2000/svg">
<g id="compass_calibration_24px">
<path id="icon/maps/compass_calibration_24px" fill-rule="evenodd" clip-rule="evenodd" d="M2.80549 6.41C5.28549 4.29 8.49549 3 12.0055 3C15.5155 3 18.7255 4.28 21.1855 6.4C21.6355 6.78 21.6755 7.46 21.2555 7.88L17.6555 11.48C17.3055 11.84 16.7455 11.87 16.3455 11.56C15.1455 10.63 13.6455 10.07 12.0055 10.07C10.3755 10.07 8.86549 10.63 7.66549 11.57C7.26549 11.88 6.70549 11.85 6.34549 11.49L2.74549 7.89C2.32549 7.47 2.36549 6.79 2.80549 6.41ZM8.00549 17C8.00549 14.7909 9.79635 13 12.0055 13C14.2146 13 16.0055 14.7909 16.0055 17C16.0055 19.2091 14.2146 21 12.0055 21C9.79635 21 8.00549 19.2091 8.00549 17Z" fill="black" fill-opacity="0.54"/>
</g>
</svg>
