<svg width="24" height="24" viewBox="0 0 24 24" fill="none" xmlns="http://www.w3.org/2000/svg">
<g id="departure_board_24px">
<path id="icon/maps/departure_board_24px" fill-rule="evenodd" clip-rule="evenodd" d="M10.2308 4.03478C11.7227 1.87274 14.4077 0.579149 17.3417 1.12803C20.2217 1.65803 22.5017 4.04803 22.9217 6.94803C23.5017 10.938 20.7217 14.378 17.0017 14.918V17.998C17.0017 18.878 16.6117 19.668 16.0017 20.218V21.498C16.0017 22.328 15.3217 22.998 14.5017 22.998C13.6717 22.998 13.0017 22.318 13.0017 21.498V20.998H5.00171V21.498C5.00171 22.328 4.33171 22.998 3.50171 22.998C2.67171 22.998 2.00171 22.328 2.00171 21.498V20.218C1.39171 19.668 1.00171 18.878 1.00171 17.998V7.99803C1.00171 4.49803 4.58171 3.99803 9.00171 3.99803C9.42171 3.99803 9.84171 3.99803 10.2417 4.01803C10.2367 4.02303 10.2342 4.02803 10.2317 4.03303L10.2308 4.03478ZM3.00171 17.498C3.00171 18.328 3.67171 18.998 4.50171 18.998C5.33171 18.998 6.00171 18.328 6.00171 17.498C6.00171 16.668 5.33171 15.998 4.50171 15.998C3.67171 15.998 3.00171 16.668 3.00171 17.498ZM3.00171 12.998V7.99803H9.00171C9.00171 9.95803 9.81171 11.728 11.1117 12.998H3.00171ZM12.0017 17.498C12.0017 18.328 12.6717 18.998 13.5017 18.998C14.3317 18.998 15.0017 18.328 15.0017 17.498C15.0017 16.668 14.3317 15.998 13.5017 15.998C12.6717 15.998 12.0017 16.668 12.0017 17.498ZM16.0017 12.998C13.2417 12.998 11.0017 10.758 11.0017 7.99803C11.0017 5.23803 13.2417 2.99803 16.0017 2.99803C18.7617 2.99803 21.0017 5.23803 21.0017 7.99803C21.0017 10.758 18.7617 12.998 16.0017 12.998ZM15.0017 4.74803C15.0017 4.33803 15.3417 3.99803 15.7517 3.99803C16.1617 3.99803 16.5017 4.33803 16.5017 4.74803V8.24803L18.7417 9.56803C19.0917 9.76803 19.2017 10.218 18.9917 10.558C18.7917 10.888 18.3517 10.998 18.0117 10.798L15.4917 9.28803C15.1917 9.10803 15.0017 8.77803 15.0017 8.42803V4.74803Z" fill="black" fill-opacity="0.54"/>
</g>
</svg>
