<svg width="24" height="24" viewBox="0 0 24 24" fill="none" xmlns="http://www.w3.org/2000/svg">
<g id="directions_bike_24px">
<path id="icon/maps/directions_bike_24px" fill-rule="evenodd" clip-rule="evenodd" d="M17.5 3.75C17.5 4.85 16.6 5.75 15.5 5.75C14.4 5.75 13.5 4.85 13.5 3.75C13.5 2.65 14.4 1.75 15.5 1.75C16.6 1.75 17.5 2.65 17.5 3.75ZM0 17.25C0 14.45 2.2 12.25 5 12.25C7.8 12.25 10 14.45 10 17.25C10 20.05 7.8 22.25 5 22.25C2.2 22.25 0 20.05 0 17.25ZM5 20.75C3.1 20.75 1.5 19.15 1.5 17.25C1.5 15.35 3.1 13.75 5 13.75C6.9 13.75 8.5 15.35 8.5 17.25C8.5 19.15 6.9 20.75 5 20.75ZM17.96 11.17C16.38 10.93 15.06 10.21 14 9.15L13.2 8.35L10.8 10.75L12.45 12.47C12.8 12.84 13 13.33 13 13.85V18.25C13 18.8 12.55 19.25 12 19.25C11.45 19.25 11 18.8 11 18.25V14.25L7.8 11.45C7.4 11.15 7.2 10.65 7.2 10.05C7.2 9.55 7.4 9.05 7.8 8.65L10.6 5.85C10.9 5.45 11.4 5.25 12 5.25C12.6 5.25 13.1 5.45 13.6 5.85L15.5 7.75C16.23 8.47 17.14 9 18.25 9.18C18.73 9.26 19.1 9.68 19.1 10.17C19.1 10.78 18.56 11.26 17.96 11.17ZM19 12.25C16.2 12.25 14 14.45 14 17.25C14 20.05 16.2 22.25 19 22.25C21.8 22.25 24 20.05 24 17.25C24 14.45 21.8 12.25 19 12.25ZM15.5 17.25C15.5 19.15 17.1 20.75 19 20.75C20.9 20.75 22.5 19.15 22.5 17.25C22.5 15.35 20.9 13.75 19 13.75C17.1 13.75 15.5 15.35 15.5 17.25Z" fill="black" fill-opacity="0.54"/>
</g>
</svg>
