<svg width="24" height="24" viewBox="0 0 24 24" fill="none" xmlns="http://www.w3.org/2000/svg">
<g id="directions_boat_24px">
<path id="icon/maps/directions_boat_24px" fill-rule="evenodd" clip-rule="evenodd" d="M3.95111 19H4.00111C5.42111 19 6.70111 18.3 7.66111 17.36C7.85111 17.18 8.16111 17.18 8.35111 17.36C9.30111 18.3 10.5811 19 12.0011 19C13.4211 19 14.7011 18.3 15.6611 17.36C15.8511 17.17 16.1511 17.17 16.3511 17.36C17.3011 18.3 18.5811 19 20.0011 19H20.0511L21.9411 12.32C22.0211 12.06 22.0011 11.78 21.8811 11.54C21.7611 11.3 21.5411 11.12 21.2811 11.04L20.0011 10.62V6C20.0011 4.9 19.1011 4 18.0011 4H15.0011V2C15.0011 1.45 14.5511 1 14.0011 1H10.0011C9.45111 1 9.00111 1.45 9.00111 2V4H6.00111C4.90111 4 4.00111 4.9 4.00111 6V10.62L2.71111 11.04C2.45111 11.12 2.23111 11.3 2.11111 11.54C1.99111 11.78 1.96111 12.06 2.05111 12.32L3.95111 19ZM20.0011 21C18.7111 21 17.4211 20.59 16.2611 19.86C16.1011 19.76 15.8911 19.76 15.7311 19.86C13.4211 21.33 10.5711 21.33 8.26111 19.86C8.10111 19.76 7.89111 19.76 7.73111 19.86C6.58111 20.59 5.29111 21 4.00111 21H3.00111C2.45111 21 2.00111 21.45 2.00111 22C2.00111 22.55 2.45111 23 3.00111 23H4.00111C5.38111 23 6.74111 22.65 8.00111 22.01C10.5211 23.3 13.4811 23.3 16.0011 22.01C17.2611 22.66 18.6211 23 20.0011 23H21.0011C21.5511 23 22.0011 22.55 22.0011 22C22.0011 21.45 21.5511 21 21.0011 21H20.0011ZM17.0011 6H7.00111C6.45111 6 6.00111 6.45 6.00111 7V9.97L11.3711 8.2C11.7811 8.07 12.2111 8.07 12.6211 8.2L18.0011 9.97V7C18.0011 6.45 17.5511 6 17.0011 6Z" fill="black" fill-opacity="0.54"/>
</g>
</svg>
