<svg width="24" height="24" viewBox="0 0 24 24" fill="none" xmlns="http://www.w3.org/2000/svg">
<g id="directions_railway_24px">
<path id="Subtract" fill-rule="evenodd" clip-rule="evenodd" d="M4 16.5C4 18.43 5.57 20 7.5 20L6.36 21.15C6.04 21.46 6.26 22 6.71 22H17.29C17.74 22 17.96 21.46 17.64 21.15L16.5 20C18.43 20 20 18.43 20 16.5V6C20 2.5 16.42 2 12 2C7.58 2 4 2.5 4 6V16.5ZM12 18C10.9 18 10 17.1 10 16C10 14.9 10.9 14 12 14C13.1 14 14 14.9 14 16C14 17.1 13.1 18 12 18ZM6 11H18V6H6V11Z" fill="black" fill-opacity="0.54"/>
</g>
</svg>
