<svg width="24" height="24" viewBox="0 0 24 24" fill="none" xmlns="http://www.w3.org/2000/svg">
<g id="directions_walk_24px">
<path id="icon/maps/directions_walk_24px" fill-rule="evenodd" clip-rule="evenodd" d="M15 3.25C15 4.35 14.1 5.25 13 5.25C11.9 5.25 11 4.35 11 3.25C11 2.15 11.9 1.25 13 1.25C14.1 1.25 15 2.15 15 3.25ZM6.74 21.56L9.3 8.65L7.5 9.35V11.75C7.5 12.3 7.05 12.75 6.5 12.75C5.95 12.75 5.5 12.3 5.5 11.75V9.38C5.5 8.57 5.98 7.85 6.72 7.53L10.55 5.91C11.52 5.5 12.64 5.86 13.2 6.75L14.2 8.35C14.87 9.53 16.13 10.43 17.65 10.68C18.14 10.76 18.5 11.17 18.5 11.66C18.5 12.27 17.96 12.75 17.36 12.66C15.62 12.38 14.07 11.49 13 10.25L12.4 13.25L13.88 14.66C14.28 15.04 14.5 15.56 14.5 16.11V21.75C14.5 22.3 14.05 22.75 13.5 22.75C12.95 22.75 12.5 22.3 12.5 21.75V16.75L10.4 14.75L8.78 21.97C8.67 22.43 8.27 22.75 7.8 22.75H7.72C7.09 22.75 6.61 22.17 6.74 21.56Z" fill="black" fill-opacity="0.54"/>
</g>
</svg>
