<svg width="24" height="24" viewBox="0 0 24 24" fill="none" xmlns="http://www.w3.org/2000/svg">
<g id="directions_run_24px">
<path id="icon/maps/directions_run_24px" fill-rule="evenodd" clip-rule="evenodd" d="M16.46 3.25C16.46 4.35 15.56 5.25 14.46 5.25C13.36 5.25 12.46 4.35 12.46 3.25C12.46 2.15 13.36 1.25 14.46 1.25C15.56 1.25 16.46 2.15 16.46 3.25ZM11.86 14.75L11.29 17.25C11.05 18.31 10.01 18.98 8.95001 18.77L4.84001 17.95C4.30001 17.84 3.95001 17.31 4.06001 16.77V16.73C4.17001 16.19 4.70001 15.84 5.24001 15.95L9.16001 16.75L10.76 8.65L8.96001 9.35V11.75C8.96001 12.3 8.51001 12.75 7.96001 12.75C7.41001 12.75 6.96001 12.3 6.96001 11.75V9.38C6.96001 8.57 7.44001 7.85 8.18001 7.53L12.16 5.85C12.31 5.85 12.435 5.825 12.56 5.8C12.685 5.775 12.81 5.75 12.96 5.75C13.66 5.75 14.26 6.15 14.66 6.75L15.66 8.35C16.33 9.53 17.59 10.43 19.11 10.68C19.6 10.76 19.96 11.17 19.96 11.66C19.96 12.27 19.42 12.75 18.82 12.66C17.08 12.38 15.53 11.49 14.46 10.25L13.86 13.25L15.34 14.66C15.74 15.04 15.96 15.56 15.96 16.11V21.75C15.96 22.3 15.51 22.75 14.96 22.75C14.41 22.75 13.96 22.3 13.96 21.75V16.75L11.86 14.75Z" fill="black" fill-opacity="0.54"/>
</g>
</svg>
