<svg width="24" height="24" viewBox="0 0 24 24" fill="none" xmlns="http://www.w3.org/2000/svg">
<g id="directions_24px">
<path id="icon/maps/directions_24px" fill-rule="evenodd" clip-rule="evenodd" d="M12.7049 2.29499L21.7049 11.295C22.0949 11.695 22.0949 12.325 21.7049 12.705L12.7049 21.705C12.3149 22.095 11.6849 22.095 11.2949 21.705L2.29494 12.705C1.90494 12.315 1.90494 11.685 2.29494 11.295L11.2949 2.29499C11.4818 2.10774 11.7354 2.00251 11.9999 2.00251C12.2645 2.00251 12.5181 2.10774 12.7049 2.29499ZM13.9949 12.005V14.505L17.1449 11.365C17.3449 11.165 17.3449 10.855 17.1449 10.655L13.9949 7.50499V10.005H8.99494C8.44494 10.005 7.99494 10.455 7.99494 11.005V14.005C7.99494 14.555 8.44494 15.005 8.99494 15.005C9.54494 15.005 9.99494 14.555 9.99494 14.005V12.005H13.9949Z" fill="black" fill-opacity="0.54"/>
</g>
</svg>
