<svg width="24" height="24" viewBox="0 0 24 24" fill="none" xmlns="http://www.w3.org/2000/svg">
<g id="edit_location_24px">
<path id="icon/maps/edit_location_24px" fill-rule="evenodd" clip-rule="evenodd" d="M12 2.265C8.14 2.265 5 5.405 5 9.265C5 13.435 9.42 19.185 11.24 21.375C11.64 21.855 12.37 21.855 12.77 21.375C14.58 19.185 19 13.435 19 9.265C19 5.405 15.86 2.265 12 2.265ZM9.95 12.755H8.51V11.315L12.44 7.395L13.87 8.825L9.95 12.755ZM14.59 8.115L15.29 7.415C15.44 7.265 15.44 7.025 15.29 6.875L14.39 5.975C14.24 5.825 14 5.825 13.85 5.975L13.15 6.675L14.59 8.115Z" fill="black" fill-opacity="0.54"/>
</g>
</svg>
