<svg width="24" height="24" viewBox="0 0 24 24" fill="none" xmlns="http://www.w3.org/2000/svg">
<g id="fastfood_24px">
<path id="icon/maps/fastfood_24px" fill-rule="evenodd" clip-rule="evenodd" d="M18.0522 5H21.9522C22.5422 5 23.0022 5.51 22.9422 6.1L21.4022 21.53C21.3022 22.35 20.6122 23 19.7722 23H18.0722L18.0522 15C18.0522 10.77 14.9522 8.16 11.2722 7.31L11.1522 6.1C11.1022 5.51 11.5622 5 12.1522 5H16.0522V2C16.0522 1.45 16.5022 1 17.0522 1C17.6022 1 18.0522 1.45 18.0522 2V5ZM15.0522 21C15.6022 21 16.0522 21.45 16.0522 22C16.0522 22.55 15.6022 23 15.0522 23H2.05225C1.50225 23 1.05225 22.55 1.05225 22C1.05225 21.45 1.50225 21 2.05225 21H15.0522ZM14.9522 15C15.5722 15 16.0622 14.44 15.9422 13.84C15.2922 10.61 11.9222 8.99 8.55225 8.99C5.18225 8.99 1.82225 10.61 1.16225 13.84C1.04225 14.44 1.54225 15 2.15225 15H14.9522ZM1.05225 18C1.05225 17.45 1.50225 17 2.05225 17H15.0522C15.6022 17 16.0522 17.45 16.0522 18C16.0522 18.55 15.6022 19 15.0522 19H2.05225C1.50225 19 1.05225 18.55 1.05225 18Z" fill="black" fill-opacity="0.54"/>
</g>
</svg>
