<svg width="24" height="24" viewBox="0 0 24 24" fill="none" xmlns="http://www.w3.org/2000/svg">
<g id="flight_24px">
<path id="icon/maps/flight_24px" d="M21.5 14.6605C21.5 14.3005 21.31 13.9705 21.01 13.7705L13.5 9.08047V3.58047C13.5 2.75047 12.83 2.08047 12 2.08047C11.17 2.08047 10.5 2.75047 10.5 3.58047V9.08047L2.99 13.7705C2.69 13.9605 2.5 14.3005 2.5 14.6605C2.5 15.3605 3.18 15.8705 3.86 15.6605L10.5 13.5805V19.0805L8.7 20.4305C8.57 20.5205 8.5 20.6705 8.5 20.8305V21.4205C8.5 21.7505 8.82 21.9905 9.14 21.9005L12 21.0805L14.86 21.9005C15.18 21.9905 15.5 21.7505 15.5 21.4205V20.8305C15.5 20.6705 15.43 20.5205 15.3 20.4305L13.5 19.0805V13.5805L20.14 15.6605C20.82 15.8705 21.5 15.3605 21.5 14.6605Z" fill="black" fill-opacity="0.54"/>
</g>
</svg>
