<svg width="24" height="24" viewBox="0 0 24 24" fill="none" xmlns="http://www.w3.org/2000/svg">
<g id="layers_24px">
<path id="icon/maps/layers_24px" fill-rule="evenodd" clip-rule="evenodd" d="M19.9951 10.255L13.2351 15.515C12.5151 16.085 11.4951 16.085 10.7751 15.525L4.01506 10.265C3.50506 9.865 3.50506 9.085 4.01506 8.685L10.7751 3.415C11.5051 2.855 12.5151 2.855 13.2351 3.415L19.9951 8.675C20.5051 9.075 20.5051 9.855 19.9951 10.255ZM11.3751 18.535C11.7351 18.815 12.2451 18.815 12.6051 18.535L18.7551 13.745C19.1135 13.465 19.6166 13.465 19.9751 13.745L19.9851 13.755C20.4951 14.155 20.4951 14.925 19.9851 15.325L13.2251 20.585C12.4951 21.145 11.4851 21.145 10.7651 20.585L4.00506 15.325C3.49506 14.925 3.49506 14.155 4.00506 13.755C4.36353 13.475 4.86658 13.475 5.22506 13.755L11.3751 18.535Z" fill="black" fill-opacity="0.54"/>
</g>
</svg>
