<svg width="24" height="24" viewBox="0 0 24 24" fill="none" xmlns="http://www.w3.org/2000/svg">
<g id="layers_clear_24px">
<path id="icon/maps/layers_clear_24px" fill-rule="evenodd" clip-rule="evenodd" d="M4.04625 2.63499L21.3662 19.955C21.7562 20.345 21.7563 20.975 21.3463 21.365C20.9563 21.755 20.3263 21.755 19.9363 21.365L16.8663 18.295L13.1462 21.185C12.4163 21.745 11.4062 21.745 10.6862 21.185L3.92625 15.925C3.41625 15.525 3.41625 14.755 3.92625 14.355C4.28473 14.075 4.78777 14.075 5.14625 14.355L11.2963 19.135C11.6562 19.415 12.1663 19.415 12.5262 19.135L15.4462 16.865L14.0262 15.445L13.1562 16.125C12.4263 16.685 11.4163 16.685 10.6962 16.125L3.93625 10.865C3.42625 10.465 3.42625 9.68499 3.93625 9.28499L6.15625 7.56499L2.63625 4.04499C2.24625 3.65499 2.24625 3.02499 2.63625 2.63499C2.82308 2.44774 3.07673 2.34251 3.34125 2.34251C3.60577 2.34251 3.85942 2.44774 4.04625 2.63499ZM19.9163 10.865C20.4263 10.465 20.4263 9.68499 19.9163 9.28499L13.1562 4.02499C12.4362 3.46499 11.4262 3.46499 10.6962 4.02499L9.33625 5.09499L17.2162 12.975L19.9163 10.865ZM19.9163 14.355L19.9062 14.345C19.5478 14.065 19.0447 14.065 18.6862 14.345L18.6362 14.385L20.0362 15.785C20.4062 15.375 20.3762 14.715 19.9163 14.355Z" fill="black" fill-opacity="0.54"/>
</g>
</svg>
