<svg width="24" height="24" viewBox="0 0 24 24" fill="none" xmlns="http://www.w3.org/2000/svg">
<g id="local_pizza_24px">
<path id="icon/maps/local_pizza_24px" fill-rule="evenodd" clip-rule="evenodd" d="M12 2.52C9.00999 2.52 6.27999 3.6 4.16999 5.4C3.45999 6.01 3.30999 7.05 3.76999 7.86L11.13 20.97C11.51 21.65 12.49 21.65 12.87 20.97L20.23 7.86C20.69 7.05 20.54 6 19.83 5.4C17.73 3.61 14.99 2.52 12 2.52ZM6.99999 7.52C6.99999 6.42 7.89999 5.52 8.99999 5.52C10.1 5.52 11 6.42 11 7.52C11 8.62 10.1 9.52 8.99999 9.52C7.89999 9.52 6.99999 8.62 6.99999 7.52ZM9.99999 13.52C9.99999 14.62 10.9 15.52 12 15.52C13.1 15.52 14 14.62 14 13.52C14 12.42 13.1 11.52 12 11.52C10.9 11.52 9.99999 12.42 9.99999 13.52Z" fill="black" fill-opacity="0.54"/>
</g>
</svg>
