<svg width="24" height="24" viewBox="0 0 24 24" fill="none" xmlns="http://www.w3.org/2000/svg">
<g id="local_grocery_store_24px">
<path id="icon/maps/local_grocery_store_24px" fill-rule="evenodd" clip-rule="evenodd" d="M2.99634 4H3.99634L7.59634 11.59L6.24634 14.03C5.51634 15.37 6.47634 17 7.99634 17H18.9963C19.5463 17 19.9963 16.55 19.9963 16C19.9963 15.45 19.5463 15 18.9963 15H7.99634L9.09634 13H16.5463C17.2963 13 17.9563 12.59 18.2963 11.97L21.8763 5.48C22.2463 4.82 21.7663 4 21.0063 4H6.20634L5.53634 2.57C5.37634 2.22 5.01634 2 4.63634 2H2.99634C2.44634 2 1.99634 2.45 1.99634 3C1.99634 3.55 2.44634 4 2.99634 4ZM7.99634 18C6.89634 18 6.00634 18.9 6.00634 20C6.00634 21.1 6.89634 22 7.99634 22C9.09634 22 9.99634 21.1 9.99634 20C9.99634 18.9 9.09634 18 7.99634 18ZM16.0063 20C16.0063 18.9 16.8963 18 17.9963 18C19.0963 18 19.9963 18.9 19.9963 20C19.9963 21.1 19.0963 22 17.9963 22C16.8963 22 16.0063 21.1 16.0063 20Z" fill="black" fill-opacity="0.54"/>
</g>
</svg>
