<svg width="24" height="24" viewBox="0 0 24 24" fill="none" xmlns="http://www.w3.org/2000/svg">
<g id="local_library_24px">
<path id="icon/maps/local_library_24px" fill-rule="evenodd" clip-rule="evenodd" d="M15 4.89272C15 6.55272 13.66 7.89272 12 7.89272C10.34 7.89272 9 6.55272 9 4.89272C9 3.23272 10.34 1.89272 12 1.89272C13.66 1.89272 15 3.23272 15 4.89272ZM5.32 8.09272C7.88 8.55272 10.18 9.74271 12 11.4427C13.82 9.74271 16.12 8.55272 18.68 8.09272C19.89 7.88272 21 8.84272 21 10.0727V16.9927C21 17.9527 20.23 18.8827 19.29 19.0127C16.77 19.3327 14.48 20.3827 12.61 21.9127C12.26 22.1927 11.69 22.1627 11.34 21.8727C9.48 20.3527 7.21 19.3227 4.71 19.0027C3.72 18.8727 3 17.9927 3 16.3127V10.0727C3 8.84272 4.11 7.88272 5.32 8.09272Z" fill="black" fill-opacity="0.54"/>
</g>
</svg>
