<svg width="24" height="24" viewBox="0 0 24 24" fill="none" xmlns="http://www.w3.org/2000/svg">
<g id="local_car_wash_24px">
<path id="icon/maps/local_car_wash_24px" fill-rule="evenodd" clip-rule="evenodd" d="M8.5 3.4575C8.5 4.2875 7.83 4.9575 7 4.9575C6.17 4.9575 5.5 4.2875 5.5 3.4575C5.5 2.7975 6.16 1.8175 6.6 1.2375C6.8 0.977503 7.19 0.977503 7.39 1.2375C7.84 1.8175 8.5 2.7975 8.5 3.4575ZM12 4.9575C12.83 4.9575 13.5 4.2875 13.5 3.4575C13.5 2.7975 12.84 1.8175 12.39 1.2375C12.19 0.977503 11.8 0.977503 11.6 1.2375C11.16 1.8175 10.5 2.7975 10.5 3.4575C10.5 4.2875 11.17 4.9575 12 4.9575ZM17 4.9575C17.83 4.9575 18.5 4.2875 18.5 3.4575C18.5 2.7975 17.84 1.8175 17.39 1.2375C17.19 0.977503 16.8 0.977503 16.6 1.2375C16.16 1.8175 15.5 2.7975 15.5 3.4575C15.5 4.2875 16.17 4.9575 17 4.9575ZM18.92 7.9675C18.72 7.3775 18.16 6.9575 17.5 6.9575H6.5C5.84 6.9575 5.29 7.3775 5.08 7.9675L3.11 13.6375C3.04 13.8475 3 14.0675 3 14.2975V21.4575C3 22.2875 3.67 22.9575 4.5 22.9575C5.33 22.9575 6 22.2875 6 21.4575V20.9575H18V21.4575C18 22.2775 18.67 22.9575 19.5 22.9575C20.32 22.9575 21 22.2875 21 21.4575V14.2975C21 14.0775 20.96 13.8475 20.89 13.6375L18.92 7.9675ZM5 16.4575C5 17.2875 5.67 17.9575 6.5 17.9575C7.33 17.9575 8 17.2875 8 16.4575C8 15.6275 7.33 14.9575 6.5 14.9575C5.67 14.9575 5 15.6275 5 16.4575ZM17.5 17.9575C16.67 17.9575 16 17.2875 16 16.4575C16 15.6275 16.67 14.9575 17.5 14.9575C18.33 14.9575 19 15.6275 19 16.4575C19 17.2875 18.33 17.9575 17.5 17.9575ZM6.27 9.1375L5 12.9575H19L17.73 9.1375C17.59 8.7375 17.21 8.4575 16.78 8.4575H7.22C6.79 8.4575 6.41 8.7375 6.27 9.1375Z" fill="black" fill-opacity="0.54"/>
</g>
</svg>
