<svg width="24" height="24" viewBox="0 0 24 24" fill="none" xmlns="http://www.w3.org/2000/svg">
<g id="local_florist_24px">
<path id="icon/maps/local_florist_24px" fill-rule="evenodd" clip-rule="evenodd" d="M8.09996 13.25C6.71996 13.25 5.59996 12.13 5.59996 10.75C5.59996 9.75 6.18996 8.9 7.02996 8.5C6.18996 8.1 5.59996 7.25 5.59996 6.25C5.59996 4.87 6.71996 3.75 8.09996 3.75C8.62996 3.75 9.11996 3.91 9.51996 4.19L9.49996 4C9.49996 2.62 10.62 1.5 12 1.5C13.38 1.5 14.5 2.62 14.5 4L14.48 4.19C14.89 3.91 15.37 3.75 15.9 3.75C17.28 3.75 18.4 4.87 18.4 6.25C18.4 7.25 17.81 8.1 16.97 8.5C17.81 8.9 18.4 9.75 18.4 10.75C18.4 12.13 17.28 13.25 15.9 13.25C15.37 13.25 14.88 13.09 14.48 12.81L14.5 13C14.5 14.38 13.38 15.5 12 15.5C10.62 15.5 9.49996 14.38 9.49996 13L9.51996 12.81C9.10996 13.09 8.62996 13.25 8.09996 13.25ZM20.92 14.7C20.33 19.1 16.56 22.5 12 22.5C12 17.94 15.4 14.17 19.8 13.58C20.44 13.49 21.01 14.06 20.92 14.7ZM12 22.5C12 17.94 8.59996 14.17 4.19996 13.58C3.55996 13.49 2.98996 14.06 3.07996 14.7C3.66996 19.1 7.43996 22.5 12 22.5ZM12 6C13.38 6 14.5 7.12 14.5 8.5C14.5 9.88 13.38 11 12 11C10.62 11 9.49996 9.88 9.49996 8.5C9.49996 7.12 10.62 6 12 6Z" fill="black" fill-opacity="0.54"/>
</g>
</svg>
