<svg width="24" height="24" viewBox="0 0 24 24" fill="none" xmlns="http://www.w3.org/2000/svg">
<g id="local_gas_station_24px">
<path id="icon/maps/local_gas_station_24px" fill-rule="evenodd" clip-rule="evenodd" d="M19.52 7.22851L19.53 7.21851L16.34 4.02851C16.05 3.73851 15.57 3.73851 15.28 4.02851C14.99 4.31851 14.99 4.79851 15.28 5.08851L16.86 6.66851C15.81 7.06851 15.1 8.13851 15.28 9.37851C15.44 10.4785 16.38 11.3685 17.48 11.4885C17.95 11.5385 18.36 11.4585 18.75 11.2885V18.4985C18.75 19.0485 18.3 19.4985 17.75 19.4985C17.2 19.4985 16.75 19.0485 16.75 18.4985V13.9985C16.75 12.8985 15.85 11.9985 14.75 11.9985H13.75V4.99851C13.75 3.89851 12.85 2.99851 11.75 2.99851H5.75C4.65 2.99851 3.75 3.89851 3.75 4.99851V19.9985C3.75 20.5485 4.2 20.9985 4.75 20.9985H12.75C13.3 20.9985 13.75 20.5485 13.75 19.9985V13.4985H15.25V18.3585C15.25 19.6685 16.19 20.8585 17.49 20.9885C18.99 21.1385 20.25 19.9685 20.25 18.4985V8.99851C20.25 8.30851 19.97 7.67851 19.52 7.22851ZM11.75 9.99851H5.75V5.99851C5.75 5.44851 6.2 4.99851 6.75 4.99851H10.75C11.3 4.99851 11.75 5.44851 11.75 5.99851V9.99851ZM16.75 8.99851C16.75 9.54851 17.2 9.99851 17.75 9.99851C18.3 9.99851 18.75 9.54851 18.75 8.99851C18.75 8.44851 18.3 7.99851 17.75 7.99851C17.2 7.99851 16.75 8.44851 16.75 8.99851Z" fill="black" fill-opacity="0.54"/>
</g>
</svg>
