<svg width="24" height="24" viewBox="0 0 24 24" fill="none" xmlns="http://www.w3.org/2000/svg">
<g id="local_mall_24px">
<path id="icon/maps/local_mall_24px" fill-rule="evenodd" clip-rule="evenodd" d="M19 6.5H17C17 3.74 14.76 1.5 12 1.5C9.24 1.5 7 3.74 7 6.5H5C3.9 6.5 3 7.4 3 8.5V20.5C3 21.6 3.9 22.5 5 22.5H19C20.1 22.5 21 21.6 21 20.5V8.5C21 7.4 20.1 6.5 19 6.5ZM12 3.5C13.66 3.5 15 4.84 15 6.5H9C9 4.84 10.34 3.5 12 3.5ZM7.16 9.75C7.71 11.91 9.67 13.5 12 13.5C14.33 13.5 16.29 11.91 16.84 9.75C17 9.12 16.52 8.5 15.87 8.5C15.4 8.5 15.02 8.84 14.89 9.3C14.54 10.57 13.38 11.5 12 11.5C10.62 11.5 9.46 10.57 9.11 9.3C8.98 8.84 8.6 8.5 8.13 8.5C7.48 8.5 6.99 9.12 7.16 9.75Z" fill="black" fill-opacity="0.54"/>
</g>
</svg>
