<svg width="24" height="24" viewBox="0 0 24 24" fill="none" xmlns="http://www.w3.org/2000/svg">
<g id="local_pharmacy_24px">
<path id="icon/maps/local_pharmacy_24px" fill-rule="evenodd" clip-rule="evenodd" d="M18.3699 5.82353H18.8999C20.2599 5.82353 21.2199 7.16353 20.7899 8.45353L19.0099 13.8235L20.7899 19.1935C21.2199 20.4835 20.2499 21.8235 18.8899 21.8235H5.10993C3.74993 21.8235 2.77993 20.4835 3.21993 19.1935L5.00993 13.8235L3.20993 8.45353C2.77993 7.16353 3.73993 5.82353 5.10993 5.82353H15.6999L16.7199 3.00353C16.9599 2.35353 17.6799 2.01353 18.3299 2.25353C18.9799 2.48353 19.3199 3.20353 19.0799 3.85353L18.3699 5.82353ZM13.0099 14.8235H15.0099C15.5599 14.8235 16.0099 14.3735 16.0099 13.8235C16.0099 13.2735 15.5599 12.8235 15.0099 12.8235H13.0099V10.8235C13.0099 10.2735 12.5599 9.82353 12.0099 9.82353C11.4599 9.82353 11.0099 10.2735 11.0099 10.8235V12.8235H9.00993C8.45993 12.8235 8.00993 13.2735 8.00993 13.8235C8.00993 14.3735 8.45993 14.8235 9.00993 14.8235H11.0099V16.8235C11.0099 17.3735 11.4599 17.8235 12.0099 17.8235C12.5599 17.8235 13.0099 17.3735 13.0099 16.8235V14.8235Z" fill="black" fill-opacity="0.54"/>
</g>
</svg>
