<svg width="24" height="24" viewBox="0 0 24 24" fill="none" xmlns="http://www.w3.org/2000/svg">
<g id="local_drink_24px">
<path id="icon/maps/local_drink_24px" fill-rule="evenodd" clip-rule="evenodd" d="M5.22993 2C4.03993 2 3.10993 3.04 3.23993 4.22L5.00993 20.23C5.12993 21.23 5.96993 22 6.99993 22H16.9999C18.0299 22 18.8699 21.23 18.9899 20.23L20.7599 4.22C20.8899 3.04 19.9599 2 18.7699 2H5.22993ZM11.9999 19C10.3399 19 8.99993 17.66 8.99993 16C8.99993 14.45 10.8099 12.05 11.6199 11.06C11.8199 10.81 12.1899 10.81 12.3899 11.06C13.1999 12.06 15.0099 14.45 15.0099 16C14.9999 17.66 13.6599 19 11.9999 19ZM5.66993 8H18.3299L18.6399 5.11C18.7099 4.52 18.2399 4 17.6499 4H6.34993C5.74993 4 5.28993 4.52 5.34993 5.11L5.66993 8Z" fill="black" fill-opacity="0.54"/>
</g>
</svg>
