<svg width="24" height="24" viewBox="0 0 24 24" fill="none" xmlns="http://www.w3.org/2000/svg">
<g id="map_24px">
<path id="icon/maps/map_24px" fill-rule="evenodd" clip-rule="evenodd" d="M9.65488 3.22999L14.6549 4.97999C14.8849 5.05999 15.1249 5.04999 15.3449 4.96999L18.2749 3.82999C19.5849 3.31999 20.9949 4.27999 20.9949 5.68999V17.54C20.9949 18.4 20.4449 19.17 19.6349 19.44L15.6449 20.78C15.2249 20.92 14.7649 20.92 14.3449 20.77L9.34488 19.02C9.12488 18.94 8.87488 18.94 8.65488 19.03L5.72488 20.17C4.41488 20.68 3.00488 19.72 3.00488 18.31V6.45999C3.00488 5.59999 3.55488 4.83999 4.36488 4.55999L8.35488 3.21999C8.77488 3.07999 9.23488 3.07999 9.65488 3.22999ZM9.00488 16.78L15.0049 18.89V7.21999L9.00488 5.10999V16.78Z" fill="black" fill-opacity="0.54"/>
</g>
</svg>
