<svg width="24" height="24" viewBox="0 0 24 24" fill="none" xmlns="http://www.w3.org/2000/svg">
<g id="360_24px">
<path id="icon/maps/360_24px" d="M12 5.85423C6.48 5.85423 2 8.09423 2 10.8542C2 13.0942 4.94 14.9842 9 15.6242V17.6442C9 18.0942 9.54 18.3142 9.85 17.9942L12.64 15.2042C12.84 15.0042 12.84 14.6942 12.64 14.4942L9.85 11.7042C9.54 11.3942 9 11.6142 9 12.0642V13.5842C5.85 13.0242 4 11.6842 4 10.8542C4 9.79423 7.04 7.85423 12 7.85423C16.96 7.85423 20 9.79423 20 10.8542C20 11.5142 18.8 12.5342 16.68 13.1942C16.27 13.3242 16 13.7042 16 14.1342C16 14.8042 16.65 15.2942 17.28 15.0942C20.11 14.2142 22 12.6442 22 10.8542C22 8.09423 17.52 5.85423 12 5.85423Z" fill="black" fill-opacity="0.54"/>
</g>
</svg>
