<svg width="24" height="24" viewBox="0 0 24 24" fill="none" xmlns="http://www.w3.org/2000/svg">
<g id="not_listed_location_24px">
<path id="icon/maps/not_listed_location_24px" fill-rule="evenodd" clip-rule="evenodd" d="M12 2.265C8.14 2.265 5 5.405 5 9.265C5 13.435 9.42 19.185 11.23 21.375C11.63 21.855 12.36 21.855 12.76 21.375C14.58 19.185 19 13.435 19 9.265C19 5.405 15.86 2.265 12 2.265ZM12.88 16.015H11.13V14.265H12.88V16.015ZM13.17 12.115C13.2 12.065 13.23 12.015 13.26 11.975C13.4973 11.6446 13.8158 11.3665 14.138 11.0852C14.8884 10.43 15.6589 9.75727 15.47 8.365C15.27 6.845 14.07 5.545 12.55 5.315C10.75 5.035 9.16 6.135 8.66 7.715C8.49 8.235 8.87 8.765 9.42 8.765H9.58C9.94 8.765 10.23 8.515 10.34 8.185C10.63 7.395 11.46 6.865 12.37 7.065C13.2 7.245 13.8 8.065 13.73 8.915C13.6709 9.59469 13.1921 9.96387 12.6605 10.3738C12.1127 10.7962 11.5088 11.2619 11.25 12.155V12.215H11.23C11.16 12.485 11.12 12.785 11.12 13.145H12.88C12.88 12.915 12.92 12.705 12.98 12.515C12.99 12.465 13.01 12.425 13.03 12.385L13.03 12.385L13.03 12.385C13.05 12.335 13.07 12.285 13.1 12.235C13.11 12.215 13.1225 12.195 13.135 12.175C13.1475 12.155 13.16 12.135 13.17 12.115Z" fill="black" fill-opacity="0.54"/>
</g>
</svg>
