<svg width="24" height="24" viewBox="0 0 24 24" fill="none" xmlns="http://www.w3.org/2000/svg">
<g id="person_pin_24px">
<path id="icon/maps/person_pin_24px" fill-rule="evenodd" clip-rule="evenodd" d="M19 1.70876H5C3.89 1.70876 3 2.60876 3 3.70876V17.7088C3 18.8088 3.9 19.7088 5 19.7088H9L11.29 21.9988C11.68 22.3888 12.31 22.3888 12.7 21.9988L15 19.7088H19C20.1 19.7088 21 18.8088 21 17.7088V3.70876C21 2.60876 20.1 1.70876 19 1.70876ZM12 5.00876C13.49 5.00876 14.7 6.21876 14.7 7.70876C14.7 9.19876 13.49 10.4088 12 10.4088C10.51 10.4088 9.3 9.19876 9.3 7.70876C9.3 6.21876 10.51 5.00876 12 5.00876ZM6 14.8088V15.7088H18V14.8088C18 12.8088 14 11.7088 12 11.7088C10 11.7088 6 12.8088 6 14.8088Z" fill="black" fill-opacity="0.54"/>
</g>
</svg>
