<svg width="24" height="24" viewBox="0 0 24 24" fill="none" xmlns="http://www.w3.org/2000/svg">
<g id="person_pin_circle_24px">
<path id="icon/maps/person_pin_circle_24px" fill-rule="evenodd" clip-rule="evenodd" d="M12 2.265C8.14 2.265 5 5.405 5 9.265C5 13.435 9.42 19.185 11.24 21.375C11.64 21.855 12.37 21.855 12.77 21.375C14.58 19.185 19 13.435 19 9.265C19 5.405 15.86 2.265 12 2.265ZM12 4.265C13.1 4.265 14 5.165 14 6.265C14 7.375 13.1 8.265 12 8.265C10.9 8.265 10 7.375 10 6.265C10 5.165 10.9 4.265 12 4.265ZM8 12.115C8.86 13.415 10.33 14.265 12 14.265C13.67 14.265 15.14 13.415 16 12.115C15.98 10.795 13.33 10.065 12 10.065C10.67 10.065 8.02 10.795 8 12.115Z" fill="black" fill-opacity="0.54"/>
</g>
</svg>
