<svg width="24" height="24" viewBox="0 0 24 24" fill="none" xmlns="http://www.w3.org/2000/svg">
<g id="streetview_24px">
<path id="icon/maps/streetview_24px" fill-rule="evenodd" clip-rule="evenodd" d="M17 2C14.2386 2 12 4.23858 12 7C12 9.76142 14.2386 12 17 12C19.7614 12 22 9.76142 22 7C22 4.23858 19.7614 2 17 2ZM11.56 15.33C11.22 15.6 11 16.03 11 16.5V22H18C19.1 22 20 21.1 20 20V14.02C19.06 13.69 18.05 13.5 17 13.5C14.97 13.5 13.07 14.2 11.56 15.33ZM11.24 4C10.77 4.9 10.5 5.92 10.5 7C10.5 8.8 11.23 10.42 12.41 11.59L2.59 21.41C2.23 21.05 2 20.55 2 20V6C2 4.9 2.9 4 4 4H11.24Z" fill="black" fill-opacity="0.54"/>
</g>
</svg>
