<svg width="24" height="24" viewBox="0 0 24 24" fill="none" xmlns="http://www.w3.org/2000/svg">
<g id="subway_24px">
<path id="icon/maps/subway_24px" fill-rule="evenodd" clip-rule="evenodd" d="M17.8 2.8C16 2.09 13.86 2 12 2C10.14 2 8 2.09 6.2 2.8C3.53 3.84 2 6.05 2 8.86V22H22V8.86C22 6.05 20.47 3.84 17.8 2.8ZM17.01 9H7.01V14H17.01V9ZM8.5 15C7.94772 15 7.5 15.4477 7.5 16C7.5 16.5523 7.94772 17 8.5 17C9.05228 17 9.5 16.5523 9.5 16C9.5 15.4477 9.05228 15 8.5 15ZM15.5 15C14.9477 15 14.5 15.4477 14.5 16C14.5 16.5523 14.9477 17 15.5 17C16.0523 17 16.5 16.5523 16.5 16C16.5 15.4477 16.0523 15 15.5 15ZM15.35 18.46C16.84 18.29 18 17.04 18 15.5V9C18 6.37 15 6 12 6C9 6 6 6.37 6 9V15.5C6 17.04 7.16 18.29 8.65 18.46L7.5 19.62V20H9.17L10.67 18.5H13.33L14.83 20H16.5V19.62L15.35 18.46Z" fill="black" fill-opacity="0.54"/>
</g>
</svg>
