<svg width="24" height="24" viewBox="0 0 24 24" fill="none" xmlns="http://www.w3.org/2000/svg">
<g id="trafficon/maps/24px">
<path id="icon/maps/trafficon/maps/24px" fill-rule="evenodd" clip-rule="evenodd" d="M19.4599 10C19.7699 10 19.9999 10.28 19.9599 10.59C19.7199 12.18 18.5399 13.46 16.9999 13.86V15H19.4599C19.7699 15 19.9999 15.28 19.9599 15.59C19.7199 17.18 18.5399 18.46 16.9999 18.86V20C16.9999 20.55 16.5499 21 15.9999 21H7.99993C7.44993 21 6.99993 20.55 6.99993 20V18.86C5.45993 18.46 4.27993 17.18 4.03993 15.59C3.99993 15.28 4.22993 15 4.53993 15H6.99993V13.86C5.45993 13.46 4.27993 12.18 4.03993 10.59C3.99993 10.28 4.22993 10 4.53993 10H6.99993V8.86C5.45993 8.46 4.27993 7.18 4.03993 5.59C3.99993 5.28 4.22993 5 4.53993 5H6.99993V4C6.99993 3.45 7.44993 3 7.99993 3H15.9999C16.5499 3 16.9999 3.45 16.9999 4V5H19.4599C19.7699 5 19.9999 5.28 19.9599 5.59C19.7199 7.18 18.5399 8.46 16.9999 8.86V10H19.4599ZM9.99993 17C9.99993 18.1 10.8899 19 11.9999 19C13.1099 19 13.9999 18.1 13.9999 17C13.9999 15.9 13.0999 15 11.9999 15C10.8899 15 9.99993 15.9 9.99993 17ZM11.9999 14C10.8899 14 9.99993 13.1 9.99993 12C9.99993 10.9 10.8899 10 11.9999 10C13.0999 10 13.9999 10.9 13.9999 12C13.9999 13.1 13.1099 14 11.9999 14ZM9.99993 7C9.99993 8.1 10.8899 9 11.9999 9C13.1099 9 13.9999 8.1 13.9999 7C13.9999 5.89 13.0999 5 11.9999 5C10.8899 5 9.99993 5.89 9.99993 7Z" fill="black" fill-opacity="0.54"/>
</g>
</svg>
