<svg width="24" height="24" viewBox="0 0 24 24" fill="none" xmlns="http://www.w3.org/2000/svg">
<g id="train_24px">
<path id="icon/maps/train_24px" fill-rule="evenodd" clip-rule="evenodd" d="M12 2.5C8 2.5 4 3 4 6.5V16C4 17.93 5.57 19.5 7.5 19.5L6.35 20.65C6.04 20.96 6.26 21.5 6.71 21.5H7.8C7.93 21.5 8.06 21.45 8.15 21.35L10 19.5H14L15.85 21.35C15.94 21.44 16.07 21.5 16.2 21.5H17.29C17.74 21.5 17.96 20.96 17.64 20.65L16.5 19.5C18.43 19.5 20 17.93 20 16V6.5C20 3 16 2.5 12 2.5ZM7.5 17.5C6.67 17.5 6 16.83 6 16C6 15.17 6.67 14.5 7.5 14.5C8.33 14.5 9 15.17 9 16C9 16.83 8.33 17.5 7.5 17.5ZM6 10.5H11V6.5H6V10.5ZM16.5 17.5C15.67 17.5 15 16.83 15 16C15 15.17 15.67 14.5 16.5 14.5C17.33 14.5 18 15.17 18 16C18 16.83 17.33 17.5 16.5 17.5ZM13 10.5H18V6.5H13V10.5Z" fill="black" fill-opacity="0.54"/>
</g>
</svg>
