<svg width="24" height="24" viewBox="0 0 24 24" fill="none" xmlns="http://www.w3.org/2000/svg">
<g id="transfer_within_a_station_24px">
<path id="icon/maps/transfer_within_a_station_24px" fill-rule="evenodd" clip-rule="evenodd" d="M9.5 5.25C10.6 5.25 11.5 4.35 11.5 3.25C11.5 2.15 10.6 1.25 9.5 1.25C8.4 1.25 7.5 2.15 7.5 3.25C7.5 4.35 8.4 5.25 9.5 5.25ZM16.48 15.25H22V16.75H16.48V17.51C16.48 17.88 16.05 18.06 15.79 17.8L14.28 16.28C14.12 16.12 14.12 15.87 14.28 15.71L15.79 14.19C16.04 13.94 16.48 14.12 16.48 14.48V15.25ZM20.21 18.44L21.72 19.96C21.88 20.12 21.88 20.38 21.72 20.54L20.21 22.06C19.96 22.31 19.52 22.13 19.52 21.77V21H14V19.5H19.52V18.73C19.52 18.36 19.95 18.18 20.21 18.44ZM3.23 21.56L5.75 8.65L4 9.4V11.75C4 12.3 3.55 12.75 3 12.75C2.45 12.75 2 12.3 2 11.75V9.39C2 8.58 2.49 7.85 3.24 7.54L7.25 5.9C7.5 5.8 7.75 5.75 8 5.75C8.7 5.75 9.35 6.1 9.7 6.7L10.65 8.3C11.41 9.53 12.67 10.43 14.16 10.68C14.64 10.76 15 11.17 15 11.66C15 12.27 14.46 12.76 13.86 12.66C12.13 12.38 10.62 11.47 9.55 10.15L8.95 13.15L10.41 14.62C10.79 14.99 11 15.5 11 16.03V21.75C11 22.3 10.55 22.75 10 22.75C9.45 22.75 9 22.3 9 21.75V16.75L6.85 14.75L5.28 21.96C5.18 22.42 4.77 22.75 4.3 22.75H4.21C3.58 22.75 3.11 22.18 3.23 21.56Z" fill="black" fill-opacity="0.54"/>
</g>
</svg>
