<?xml version="1.0" encoding="utf-8"?>
<!-- Generator: Adobe Illustrator 24.0.0, SVG Export Plug-In . SVG Version: 6.00 Build 0)  -->
<svg version="1.1" id="Layer_1" xmlns="http://www.w3.org/2000/svg" xmlns:xlink="http://www.w3.org/1999/xlink" x="0px" y="0px"
	 viewBox="0 0 100 100" style="enable-background:new 0 0 100 100;" xml:space="preserve">
<path d="M81.5,49.5c-1.8-1.8-4.2-2.8-6.7-2.8v-1.8c0-1.3-1-2.4-2.2-2.6c-0.1-0.2-0.2-0.4-0.2-0.7c-1.2-2.8-3.4-5-6.2-6.2
	c-0.1,0-0.1-0.1-0.2-0.1c0.3-1.1,0.4-2.2,0-3.3l-6.1-19.2c0-0.2-0.1-0.3-0.2-0.5c-1.2-2.8-4.4-4.1-7.2-2.9L15.9,24.8
	c-2.6,1.1-4,4-3.1,6.7l4,12.5c0.7,2.3,2.9,3.8,5.2,3.8c0.4,0,0.8,0,1.2-0.1L62,39.1c0.2,0,0.3-0.1,0.5-0.1c0.2-0.1,0.5-0.2,0.7-0.3
	c0.6-0.1,1.1,0,1.6,0.3c1.5,0.6,2,2,2.4,3.3H67c0,0-0.1,0-0.1,0c-1.5,0-2.6,1.2-2.6,2.7l0,1.8c-5.2,0.1-9.4,4.3-9.4,9.6l-0.1,29.2
	c0,5.3,4.3,9.6,9.6,9.6c0,0,0,0,0,0h10.2c5.3,0,9.6-4.3,9.6-9.6l0.1-29.2C84.3,53.8,83.3,51.3,81.5,49.5z M17.5,28.5l36.6-15.4
	c0.2-0.1,0.4-0.1,0.6-0.1c0.6,0,1.1,0.3,1.4,0.9c0,0,0,0.1,0,0.1l6.1,19.2c0.1,0.4,0.1,0.8-0.1,1.1c-0.2,0.3-0.5,0.6-0.8,0.7H18.1
	l-1.5-4.8C16.4,29.6,16.8,28.8,17.5,28.5z M80,83.5l-21-0.1l0.1-25.8L80,57.7L80,83.5z"/>
</svg>
