<?xml version="1.0" encoding="utf-8"?>
<!-- Generator: Adobe Illustrator 24.0.0, SVG Export Plug-In . SVG Version: 6.00 Build 0)  -->
<svg version="1.1" id="Layer_1" xmlns="http://www.w3.org/2000/svg" xmlns:xlink="http://www.w3.org/1999/xlink" x="0px" y="0px"
	 viewBox="0 0 100 100" style="enable-background:new 0 0 100 100;" xml:space="preserve">
<g>
	<path d="M99.6,92.5c0-0.4-1.1-9.3-6.9-13c-4.9-3.1-20.6-7.1-23.3-7.8c0.2-2.2,0.3-4.5,0.3-6.7c1.4-2.1,2.5-4.3,3.2-6.7l0.4-1.3
		l-1.3-0.6c-1.2-0.5-1.9-1.3-1.9-2.1c0-1,1.3-2,3-2.4l1.1-0.3l0.1-1.1c0.1-1.7,0-3.5-0.1-5.2c-0.1-0.6,0.2-1.3,0.6-1.7l0.9-0.8
		c1.9-1.8,2-4.9,0.1-6.8c-0.5-0.5-1-0.8-1.6-1.1L73,34.3c-1.7-0.7-3.1-1.9-4.2-3.5c-6.8-9.8-18-14-28-10.5c-3.4,1.2-6.3,3.2-8.6,5.8
		L21.6,7.8c-0.4-0.6-0.9-1.1-1.5-1.5c-0.9-0.5-2-0.7-3.1-0.4c-1,0.3-1.9,1-2.5,1.9L1.9,29.6c-0.4,0.6-0.5,1.3-0.5,2
		c0,1.1,0.4,2.1,1.2,2.9c0.8,0.8,1.8,1.2,2.9,1.2h21.4c-1.7,5.6-1.6,12.1,0.6,18.3c2.9,8.2,9.2,15,16.6,18.1
		C39,73.5,27,76.8,22.8,79.5c-5.8,3.7-6.9,12.6-6.9,13c-0.1,1.1,0.7,2.1,1.8,2.2c0.1,0,0.2,0,0.2,0c1,0,1.9-0.8,2-1.8
		c0-0.1,0.9-7.4,5.1-10.1c3.9-2.5,17.6-6.2,22.5-7.4c0.2,0,0.3-0.1,0.5-0.2c2.1,3.1,5.5,5.1,9.3,5.3c0.2,0,0.5,0,0.7,0
		c4,0,7.8-1.9,10.1-5.2c4.9,1.2,18.5,4.9,22.5,7.4c4.2,2.7,5.1,10,5.1,10.1c0.1,1,1,1.8,2,1.8c0.1,0,0.1,0,0.2,0
		C98.9,94.6,99.7,93.6,99.6,92.5z M5.5,32.7c-0.3,0-0.5-0.1-0.7-0.3S4.4,32,4.4,31.7c0-0.2,0-0.4,0.1-0.5L17.2,9.3l0,0
		c0.1-0.2,0.4-0.4,0.6-0.5c0.1,0,0.2,0,0.3,0c0.2,0,0.4,0,0.5,0.1C18.8,9,18.9,9.1,19,9.3l11.2,19.4c-0.9,1.2-1.6,2.6-2.2,4H5.5z
		 M57.4,77.5c-3.7-0.2-6.9-2.6-8-6.1l-0.3-0.8l-0.8-0.2c-3.8-1-7.4-3.1-10.4-5.9c1.2-1,3.2-2.9,4.9-6.1c1.5-3,1.6-6.6,0.3-9.7
		c-0.6-0.6-1-1.3-1.3-2.1c-1.1-2.9,0.3-6.2,3.2-7.4c1-0.3,1.8-1.3,1.8-2.3c0.1-2,0.7-5,3.4-6c3.7-1.4,8.2-3,10.8-3.8
		c1.9,1.5,3.7,3.4,5.2,5.6c1.4,2,3.3,3.6,5.5,4.5l1.2,0.5c0.2,0.1,0.4,0.2,0.6,0.4c0.7,0.7,0.6,1.8,0,2.5l-0.9,0.8
		c-1.2,1.1-1.7,2.7-1.5,4.3c0.1,1.2,0.2,2.4,0.2,3.6c-2.6,1-4.2,2.9-4.2,5.1c0,1.6,0.9,3.1,2.5,4.2c-0.7,1.8-1.6,3.5-2.7,5.1
		L66.6,64l0,0.5c0,2.7-0.1,5.5-0.5,8.2C64.4,75.9,61,77.8,57.4,77.5z"/>
	<path d="M63.3,55.2c-1.7-1-4-1-7.1-0.1c-6.6,1.9-7.1,5.6-6.3,8.3c0.6,2,1.8,3.6,3.6,4.6c1.2,0.7,2.5,1,3.9,1c0.9,0,1.8-0.1,2.7-0.4
		c4.6-1.3,7-5.4,5.9-9.8C65.4,57.1,64.6,55.9,63.3,55.2z M56.9,57.8c1.2-0.4,2.3-0.5,3.2-0.5c0.7,0,1.3,0.1,1.8,0.4
		c0.6,0.3,1,1,1.3,1.9c0.2,0.6,0.2,1.2,0.2,1.8c-1.1,0.5-2.9,0.8-5.5,0.1c-2.5-0.7-4.2,0.4-5.2,1.5c0-0.1-0.1-0.1-0.1-0.2l0,0
		C52,60.9,52.2,59.1,56.9,57.8z M56.9,62.6c0.5-0.2,1.1,0.1,1.2,0.7c0.2,0.5-0.1,1.1-0.7,1.2c0,0,0,0,0,0c-0.5,0.1-1.1-0.2-1.2-0.7
		C56.1,63.4,56.4,62.8,56.9,62.6z M60,65.3c-0.3,0.1-0.6-0.1-0.7-0.4c-0.1-0.3,0.1-0.6,0.4-0.7c0.3-0.1,0.6,0.1,0.7,0.4c0,0,0,0,0,0
		C60.5,64.9,60.3,65.2,60,65.3C60,65.3,60,65.3,60,65.3L60,65.3z"/>
	<circle cx="88.3" cy="54.6" r="1.4"/>
	<path d="M92.4,47.5c1,0,1.8-0.8,1.8-1.8S93.4,44,92.4,44c-1,0-1.8,0.8-1.8,1.8S91.4,47.5,92.4,47.5z"/>
	<circle cx="84.3" cy="39.4" r="2.7"/>
	<path d="M18,27C18,27,18,27,18,27c-1,0-1.8,0.8-1.8,1.8V29c0.1,0.9,0.8,1.6,1.7,1.7c1,0.1,1.9-0.7,1.9-1.7v-0.2c0,0,0-0.1,0-0.1
		C19.8,27.7,19,27,18,27z"/>
	<path d="M18.9,12.7h-1.8c-0.1,0-0.1,0-0.2,0c-0.5,0.1-0.8,0.6-0.7,1.1l0.9,10.4c0,0.5,0.4,0.9,0.9,0.9c0,0,0,0,0,0
		c0.5,0,0.9-0.4,0.9-0.9l0.9-10.4c0,0,0,0,0,0C19.9,13.2,19.5,12.7,18.9,12.7z"/>
</g>
</svg>
