<?xml version="1.0" encoding="utf-8"?>
<!-- Generator: Adobe Illustrator 24.0.0, SVG Export Plug-In . SVG Version: 6.00 Build 0)  -->
<svg version="1.1" id="Layer_1" xmlns="http://www.w3.org/2000/svg" xmlns:xlink="http://www.w3.org/1999/xlink" x="0px" y="0px"
	 viewBox="0 0 100 100" style="enable-background:new 0 0 100 100;" xml:space="preserve">
<path d="M89.8,52.4c-0.2-1.9-1.2-3.6-2.7-4.8l0.2-0.2c2.6-2.6,2.6-6.9,0-9.6c0,0,0,0,0,0l-0.1-0.1c-0.7-0.7-1.6-1.3-2.6-1.6
	c0.1-1.4-0.3-2.8-1.1-4c-1.2-1.8-3.3-2.9-5.5-2.9c-0.4,0-0.7,0-1.1,0.1c-0.3-0.7-0.8-1.3-1.3-1.8c-2.7-2.7-7-2.7-9.6,0L60.5,33
	c1.4,0.3,2.6,1.1,3.5,2.2l4.8-4.9c1.1-1.1,2.9-1.1,4,0c0,0,0,0,0,0c1.1,1,1.2,2.8,0.2,3.9c0,0,0,0,0,0l-6.2,6.2
	c-0.4-0.2-0.8-0.4-1.2-0.6c0.1-1.4-0.3-2.8-1.1-4c-1.2-1.8-3.3-3-5.5-3c-0.2,0-0.3,0-0.5,0l-3.7-4.8c-1.9-2.7-5.1-3.8-8.1-3.2
	l-3.2-4.5c0.5-0.8,0.9-1.8,1.1-2.8c0.4-2.1-0.1-4.2-1.3-6L42.8,11C40.3,7.4,35.3,6.5,31.7,9l-8,5.7l0,0c-1.7,1.2-2.9,3.1-3.3,5.2
	c-0.4,2.1,0.1,4.2,1.3,6l0.4,0.6c1.2,1.7,3.1,2.9,5.2,3.3c0.5,0.1,0.9,0.1,1.4,0.1c0.5,0,1.1-0.1,1.6-0.2l3.2,4.5
	c-1,1.7-1.4,3.7-1,5.7c-0.6-0.2-1.3-0.3-2-0.3c-1.8,0-3.6,0.7-4.9,2L14.8,52.3c-1.1,1.1-2.1,2.2-3,3.4c-6.5,8.3-6.3,19.9,0.5,28
	c0.8,1,1.7,2,2.6,2.9c7.5,7.5,19.4,7.9,27.4,1.3c7,2.2,14.6,0.5,20-4.5l2.5,3.5v0.2l0.5,0.5c1.2,1.7,3,2.8,5.1,3.1
	c0.5,0.1,0.9,0.1,1.4,0.1c1.6,0,3.2-0.5,4.6-1.5l8-5.7c1.7-1.2,2.9-3.1,3.3-5.2c0.4-2.1-0.1-4.2-1.3-6l-5.4-7.7l7-7
	C89.3,56.4,90,54.4,89.8,52.4z M84.4,40.6L84.4,40.6c1.1,1.1,1.1,2.9,0.1,3.9c0,0,0,0,0,0L73.9,55.1l-3.3-4.7l9.8-9.8
	C81.5,39.5,83.3,39.5,84.4,40.6z M76.2,34c0.5-0.5,1.2-0.8,1.9-0.8c0.9,0,1.7,0.4,2.2,1.2c0.7,1.1,0.5,2.5-0.4,3.3l-9.8,9.9
	c0.4-2-0.1-4.2-1.6-5.9L76.2,34z M68.2,41.5l-2.9,2.7l0.5-0.5L68.2,41.5C68.2,41.5,68.2,41.5,68.2,41.5z M50.4,29.3
	c-1.3,0.3-2.6,0.9-3.5,1.9l-9.7,9.7c0-0.1-0.1-0.2-0.2-0.3c-1.3-1.8-0.8-4.3,1-5.6l8-5.7c0.2-0.1,0.4-0.3,0.6-0.4
	c0.1,0,0.1,0,0.2-0.1C48,28.5,49.3,28.6,50.4,29.3z M40.6,23.2l2.4,3.4l-6.7,4.7l-2.4-3.4L40.6,23.2z M17.7,83.7
	c-0.8-0.8-1.6-1.7-2.4-2.6c-5.5-6.6-5.6-16.2-0.4-23c0.8-1.1,1.7-2.1,2.7-3l10.8-10.7c0.5-0.6,1.3-0.9,2.1-0.9c0.5,0,1,0.1,1.5,0.4
	c1.3,0.8,1.6,2.5,0.8,3.8c-0.1,0.2-0.2,0.3-0.4,0.4l-5.7,5.7c-0.4,0.4-0.4,1.1-0.1,1.5c0.2,0.3,0.5,0.4,0.9,0.4
	c0.3,0,0.6-0.1,0.8-0.3L49.7,34c0.5-0.5,1.3-0.8,2-0.8l0,0c0.7,0,1.5,0.3,2,0.8c1.1,1,1.2,2.8,0.2,3.9c0,0,0,0,0,0L37.4,54.2
	c-0.4,0.5-0.4,1.2,0,1.6c0.1,0.1,0.1,0.1,0.2,0.1c0.2,0.1,0.4,0.2,0.6,0.2c0.3,0,0.7-0.1,0.9-0.4l18-18.2c0.5-0.5,1.2-0.8,1.9-0.7
	c0.9,0,1.7,0.4,2.1,1.2c0.7,1.1,0.5,2.5-0.4,3.3L43.2,59.1c-0.5,0.4-0.5,1.2,0,1.6c0,0,0,0,0,0c0.2,0.2,0.5,0.3,0.8,0.3
	c0.3,0,0.6-0.1,0.8-0.3l16.4-16.4c0.5-0.5,1.2-0.8,2-0.8c0.8,0,1.5,0.3,2,0.8l0.1,0.1c1.1,1.1,1.1,2.8,0,3.9c0,0,0,0,0,0L48.1,65.4
	c-0.5,0.4-0.5,1.2,0,1.6c0,0,0,0,0,0c0.2,0.2,0.5,0.3,0.8,0.3c0.3,0,0.6-0.1,0.8-0.3L62,54.9c0.5-0.5,1.2-0.9,2-0.9
	c0.5,0,1,0.1,1.5,0.4c1.3,0.8,1.6,2.5,0.8,3.8c-0.1,0.2-0.2,0.3-0.4,0.4l-25,25C34.5,90.1,24.1,90.1,17.7,83.7z M48.4,84.9
	c-0.9,0-1.8-0.1-2.7-0.2l10.2-10.2l4,5.7C56.9,83.2,52.7,84.9,48.4,84.9z M83.6,77.8c-0.2,1.1-0.8,2-1.6,2.6l-8,5.7
	c-0.9,0.6-1.9,0.8-3,0.7c-1-0.2-1.9-0.7-2.5-1.6l-9.6-13.6l9.9-9.9c1.2-1.1,1.8-2.6,2-4.1l12.2,17.3C83.5,75.7,83.8,76.8,83.6,77.8z
	 M85.3,54.6c-0.1,0.1-0.2,0.3-0.3,0.4l-6.6,6.6L75.3,57l5.8-5.8c0.6-0.5,1.3-0.9,2.1-0.9c0.5,0,1,0.1,1.5,0.4
	C85.8,51.6,86.2,53.4,85.3,54.6z"/>
</svg>
