<?xml version="1.0" encoding="utf-8"?>
<!-- Generator: Adobe Illustrator 24.0.0, SVG Export Plug-In . SVG Version: 6.00 Build 0)  -->
<svg version="1.1" id="Layer_1" xmlns="http://www.w3.org/2000/svg" xmlns:xlink="http://www.w3.org/1999/xlink" x="0px" y="0px"
	 viewBox="0 0 100 100" style="enable-background:new 0 0 100 100;" xml:space="preserve">
<g>
	<path d="M24.7,9.5C16,9.5,8.9,16.6,8.9,25.3C8.9,34,16,41,24.7,41S40.5,34,40.5,25.3C40.5,16.6,33.4,9.5,24.7,9.5z M12.9,25.3
		c0-2.5,0.8-4.8,2.1-6.7l16.4,16.4c-1.9,1.3-4.2,2.1-6.7,2.1C18.2,37,12.9,31.8,12.9,25.3z M34.3,32L18,15.6
		c1.9-1.3,4.2-2.1,6.7-2.1c6.5,0,11.8,5.3,11.8,11.8C36.5,27.8,35.7,30.1,34.3,32z"/>
	<path d="M47.3,50.2c0.1,0,0.2,0,0.2,0c1,0,1.9-0.8,2-1.8c0.1-0.9,0.7-3.5,2.2-4.4c1.4-0.9,6-2.3,9.5-3.2c1.1,3.3,3.5,6.8,6.8,6.8
		c3.3,0,5.7-3.5,6.8-6.8c3.4,0.9,7.9,2.3,9.3,3.2c1.4,0.9,2,3.6,2.1,4.4c0.1,1,1,1.8,2,1.8c0.1,0,0.1,0,0.2,0
		c1.1-0.1,1.9-1.1,1.8-2.2c-0.1-0.5-0.7-5.2-4-7.3c-2-1.3-6.8-2.7-9.9-3.5c3.2-3.2,5-7.5,4.9-12.1c0-8.3-6-15.1-13.4-15.1
		c-7.4,0-13.4,6.8-13.4,15.1c-0.1,4.5,1.8,8.9,4.9,12.1c-3,0.8-7.9,2.3-9.9,3.5c-3.3,2.1-3.9,6.8-4,7.3
		C45.4,49.1,46.2,50.1,47.3,50.2z M68,43.6c-0.9,0-2.1-1.7-2.8-3.5c0.9,0.2,1.8,0.3,2.7,0.3c1,0,2-0.1,3-0.4
		C70.1,41.9,68.9,43.6,68,43.6z M58.5,25.1c0-6.1,4.2-11.1,9.4-11.1c5.2,0,9.4,5,9.4,11.1c0,0,0,0,0,0c0.1,3.8-1.7,7.5-4.6,10
		c-3.4,1.8-6.1,1.8-9.4,0.1C60.2,32.8,58.4,29,58.5,25.1z"/>
	<path d="M90.2,89c-0.1-0.5-0.7-5.3-4-7.4c-2-1.3-6.9-2.7-9.9-3.5c3.2-3.2,5-7.5,5-12c0-8.3-6-15.1-13.4-15.1
		c-7.4,0-13.4,6.8-13.4,15.1c0,4.5,1.8,8.9,5,12c-3,0.8-8,2.3-10,3.5c-3.3,2.1-3.9,6.8-4,7.4c-0.1,1.1,0.7,2.1,1.8,2.2
		c0.1,0,0.2,0,0.2,0c1,0,1.9-0.8,2-1.8c0.1-0.9,0.7-3.5,2.1-4.4c1.4-0.9,6.1-2.3,9.5-3.2c1.1,3.3,3.5,6.8,6.8,6.8
		c3.3,0,5.7-3.4,6.8-6.7c3.4,0.9,7.9,2.3,9.3,3.2c1.4,0.9,2,3.6,2.1,4.4c0.1,1,1,1.8,2,1.8c0.1,0,0.1,0,0.2,0
		C89.5,91,90.3,90.1,90.2,89z M58.5,66c0-6.1,4.2-11.1,9.4-11.1c5.2,0,9.4,5,9.4,11.1c0,0,0,0,0,0c0,3.3-1.2,6.4-3.5,8.8
		c-4.3,2.6-7.6,2.7-11.8,0.1C59.8,72.6,58.5,69.4,58.5,66z M68,84.5c-0.9,0-2.3-2-3-4c1,0.2,1.9,0.3,2.9,0.3c1,0,2.1-0.1,3.1-0.4
		C70.3,82.5,68.9,84.5,68,84.5z"/>
</g>
</svg>
