<svg id="Layer_1" data-name="Layer 1" xmlns="http://www.w3.org/2000/svg" viewBox="0 0 100 100"><defs><style>.cls-1,.cls-2{fill:none;}.cls-1,.cls-2,.cls-3{stroke:#000;stroke-miterlimit:10;stroke-width:4px;}.cls-2,.cls-3{stroke-linecap:round;}</style></defs><circle class="cls-1" cx="23.77" cy="22.53" r="13.77"/><path d="M15.6,11.44a14.18,14.18,0,0,0-2.92,2.92L31.93,33.61a13.48,13.48,0,0,0,2.92-2.92Z"/><path class="cls-2" d="M84.76,94C87,78.05,90.33,53,90,44.05c-.46-13.58-3.64-16.27-3.64-21.86a32.7,32.7,0,0,1,2.45-11.37"/><path class="cls-2" d="M14.49,94c-2.27-16-5.57-41-5.26-49.95a32.26,32.26,0,0,1,.91-7.91,43.67,43.67,0,0,0,1.45-6"/><path class="cls-3" d="M90,44.05s-26.65,6-40.79,6c-14,0-40-6-40-6-.31,9,3,34,5.26,50H45.34l5.09-12.82L56,94H84.76C87,78.05,90.33,53,90,44.05Z"/><rect class="cls-3" x="52.17" y="11.15" width="29.61" height="18.56" rx="7.1" transform="translate(-0.05 0.18) rotate(-0.15)"/></svg>