<svg id="Layer_1" data-name="Layer 1" xmlns="http://www.w3.org/2000/svg" viewBox="0 0 100 100"><defs><style>.cls-1{fill:none;}.cls-1,.cls-2{stroke:#000;stroke-miterlimit:10;stroke-width:4px;}</style></defs><path class="cls-1" d="M55.17,88.34H42.43A3.4,3.4,0,0,1,39,85.24L35.59,46.69A3.4,3.4,0,0,1,39,43H58.63A3.41,3.41,0,0,1,62,46.69L58.56,85.24A3.4,3.4,0,0,1,55.17,88.34Z"/><path d="M36.54,57.35,39,85.24a3.4,3.4,0,0,0,3.39,3.1H55.17a3.4,3.4,0,0,0,3.39-3.1l2.5-27.89Z"/><circle cx="48.89" cy="21.4" r="1.55"/><circle cx="43.02" cy="26.83" r="1.55"/><circle cx="54.76" cy="26.85" r="1.55"/><circle cx="52.2" cy="35.46" r="1.55"/><circle cx="44.57" cy="35.51" r="1.55"/><circle cx="48.63" cy="28.4" r="1.55"/><circle cx="38.41" cy="31.74" r="1.55"/><circle cx="59.54" cy="32.7" r="1.55"/><path class="cls-1" d="M28,24l5.81,4.48,6.27-8.13-5.81-4.48a5,5,0,0,0-7,.82l-.27.35A5,5,0,0,0,28,24Z"/><path class="cls-2" d="M68.47,23.79l-5.81,4.48-6.27-8.13,5.81-4.48a5,5,0,0,1,7,.82l.27.35A5,5,0,0,1,68.47,23.79Z"/></svg>