<?xml version="1.0" encoding="utf-8"?>
<!-- Generator: Adobe Illustrator 24.2.3, SVG Export Plug-In . SVG Version: 6.00 Build 0)  -->
<svg version="1.1" id="Layer_1" xmlns="http://www.w3.org/2000/svg" xmlns:xlink="http://www.w3.org/1999/xlink" x="0px" y="0px"
	 viewBox="0 0 100 100" style="enable-background:new 0 0 100 100;" xml:space="preserve">
<path d="M57.2,86.3c-0.2-0.4-0.5-0.8-0.8-1.3c-2.4-3.9-4.7-7.8-7.1-11.6c2.6-3.6,4.1-8,4.1-12.8c0-12.1-9.8-21.9-21.9-21.9
	S9.7,48.6,9.7,60.7c0,6.2,2.6,11.7,6.7,15.7l-0.6,1.2c-1.6,3.2-3.2,6.5-4.8,9.7c-0.2,0.4-0.3,0.8-0.2,1.2c0.4,0.8,1.1,1.3,2,1.3
	c0.6,0.1,1.1-0.3,1.5-1.1c1.2-2.8,2.5-5.7,3.7-8.5c0.3-0.6,0.5-1.2,0.8-1.8c3.6,2.6,8.1,4.2,12.9,4.2c6.2,0,11.8-2.6,15.8-6.8
	c0.7,1.3,3.1,5.9,3.7,6.9c1,1.8,1.9,3.6,2.9,5.4c0,0,0,0.1,0,0.1c0.3,0.7,1.1,1,1.8,0.7c0.4-0.2,0.7-0.4,1-0.6
	C57.4,87.7,57.5,87,57.2,86.3z M31.6,78.5c-4.3,0-8.2-1.5-11.2-4c0.4-1,0.9-2,1.3-3.1c0.2-0.6,0.8-1,1.4-1.1
	c0.8-0.1,1.6-0.4,2.3-0.8c1.6-0.9,2.8-2.2,3.6-3.7c1.3-2.1,1.7-4.6,1.2-7c-0.1-0.8-0.4-1.5-0.9-2.1c-1.5-2-4.4-2.3-6.3-0.7
	c-2.3,1.5-3.9,3.8-4.4,6.4c-0.7,2.2-0.4,4.5,0.9,6.4c0.3,0.4,0.3,1,0,1.5l-1.1,2.3c-2.8-3.2-4.6-7.3-4.6-11.9
	c0-9.8,8-17.9,17.9-17.9s17.9,8,17.9,17.9c0,3.3-0.9,6.3-2.4,9c-0.2-0.5-0.1-1,0.2-1.4c1-1.1,1.3-2.6,0.7-4
	c-0.5-1.4-1.1-2.9-1.8-4.2c-0.9-1.8-2-3.5-3.5-5c-0.3-0.3-0.8-0.6-1.2-0.7c-0.8-0.1-1,0.3-0.6,1c1.1,2,2.2,4.1,3.2,6.2
	c0.2,0.3,0.3,0.6,0.3,1c0,0.2,0,0.3-0.1,0.4c-0.2,0.2-0.6,0.3-0.8,0.1c-0.3-0.2-0.5-0.4-0.6-0.6c-1.2-1.9-2.4-3.8-3.7-5.8
	c-0.4-0.6-0.7-0.7-1.3-0.4c-0.6,0.3-0.7,0.7-0.3,1.3c1.1,2,2.2,4.1,3.2,6.2c0.1,0.3,0.2,0.6,0.2,0.9c0,0.1,0,0.3-0.1,0.4
	c-0.2,0.2-0.5,0.3-0.8,0.1c-0.3-0.2-0.5-0.4-0.7-0.7c-0.7-1.1-1.3-2.2-2-3.3c-0.6-0.9-1.2-1.9-1.8-2.8c-0.3-0.4-0.6-0.5-0.9,0
	c-0.4,0.5-0.5,1.1-0.2,1.7c1,3.1,2.6,6,4.7,8.5c0.9,1.4,2.5,2.2,4.2,2c0.8-0.2,1.6,0.2,1.9,1c0.1,0.2,0.2,0.4,0.3,0.6
	C42.1,76,37.1,78.5,31.6,78.5z"/>
<polygon points="67.2,68.1 67.2,66.3 65.7,68.1 "/>
<path d="M74.9,67c-0.6,0-1.1,0.5-1.2,1.1c0,0,0,0.1,0,0.1l0,0c0,0.7,0.5,1.2,1.1,1.2c0,0,0,0,0,0c0.6,0,1.1-0.5,1.1-1.1
	c0,0,0,0,0-0.1l0,0C76,67.6,75.5,67,74.9,67z"/>
<path d="M89.1,38.1C88,37,86.5,36.4,85,36.4H63.3c-0.2,0-0.4,0-0.5,0c-3.2,0.3-5.5,3.1-5.2,6.2l3.8,42.5c0.3,3,2.8,5.2,5.7,5.2
	c0,0,0.1,0,0.1,0h14c3,0,5.5-2.2,5.7-5.2l3.9-42.5c0-0.2,0-0.3,0-0.5C90.7,40.6,90.2,39.2,89.1,38.1z M68.8,68.2
	c0.3-0.1,0.6,0.1,0.6,0.4c0.1,0.3-0.1,0.6-0.4,0.6c-0.1,0-0.2,0-0.3,0h-0.3v0.7c0,0.3-0.3,0.6-0.6,0.6c0,0,0,0,0,0
	c-0.3,0-0.6-0.3-0.6-0.6c0,0,0,0,0,0v-0.7h-2.4c-0.3,0-0.6-0.2-0.6-0.6c0,0,0,0,0,0c0-0.3,0.1-0.5,0.3-0.7L67,65
	c0.2-0.3,0.5-0.4,0.8-0.4c0.3,0,0.6,0.3,0.6,0.6c0,0,0,0,0,0v3H68.8z M72.5,68.2c0-1.3,1.1-2.4,2.4-2.4c1.3,0,2.4,1.1,2.4,2.4
	c0,1.3-1.1,2.3-2.4,2.3c0,0,0,0-0.1,0C73.6,70.5,72.5,69.5,72.5,68.2C72.5,68.2,72.5,68.2,72.5,68.2z M78.4,67
	c-0.3-0.1-0.5-0.3-0.4-0.6c0-0.2,0.2-0.4,0.4-0.4h2.8c0.3,0,0.6,0.2,0.6,0.5c0,0.2-0.1,0.4-0.3,0.6l-2.1,2.3h1.8
	c0.3,0.1,0.5,0.3,0.4,0.6c0,0.2-0.2,0.4-0.4,0.4h-2.8c-0.3,0-0.6-0.2-0.6-0.5c0,0,0,0,0,0c0-0.2,0.1-0.5,0.3-0.6l2.1-2.3H78.4z
	 M83.4,70.5C83.4,70.5,83.3,70.5,83.4,70.5L83.4,70.5c-0.5,0-0.8-0.3-0.8-0.7c0,0,0,0,0,0c0-0.4,0.3-0.7,0.7-0.7s0.7,0.3,0.7,0.7
	C84,70.1,83.8,70.4,83.4,70.5z M86.7,42.3l-1.2,13.3l-22.8,0l-1.2-13.3c-0.1-1,0.6-1.8,1.6-1.9c0.1,0,0.1,0,0.2,0c0,0,0,0,0,0H85
	c0.5,0,0.9,0.2,1.2,0.5c0.3,0.3,0.5,0.8,0.5,1.2C86.7,42.2,86.7,42.3,86.7,42.3z"/>
</svg>
