<?xml version="1.0" encoding="utf-8"?>
<!-- Generator: Adobe Illustrator 24.0.0, SVG Export Plug-In . SVG Version: 6.00 Build 0)  -->
<svg version="1.1" id="Layer_1" xmlns="http://www.w3.org/2000/svg" xmlns:xlink="http://www.w3.org/1999/xlink" x="0px" y="0px"
	 viewBox="0 0 100 100" style="enable-background:new 0 0 100 100;" xml:space="preserve">
<g>
	<path d="M71.2,44.2c-0.6-0.4-1.3-0.2-1.7,0.3c-1.8,2.8-5.3,8.7-5.3,11.3h0c0,0.2,0,0.3,0,0.5c0.1,3.5,3.1,6.2,6.5,6
		c3.5-0.1,6.2-3.1,6-6.5c0-2.6-3.5-8.5-5.3-11.3C71.4,44.4,71.3,44.3,71.2,44.2z"/>
	<path d="M58.6,62.7c-0.6-0.4-1.3-0.2-1.7,0.3c-1.8,2.8-5.3,8.7-5.3,11.3h0c0,3.5,2.8,6.3,6.3,6.3c3.5,0,6.3-2.8,6.3-6.3
		c0-2.6-3.5-8.4-5.3-11.3C58.8,62.9,58.7,62.8,58.6,62.7z"/>
	<path d="M79.4,23.6c-3.1-1.7-6.3-2.2-9.5-2.6c-2.4-0.3-4.7-0.7-6.7-1.5c-2.9-1.2-5.4-3.9-7.5-7.9c-0.8-1.6-2.6-2.4-4.3-2l-4.3,1.1
		l0,0c-1.1,0.3-1.9,1-2.5,1.9c-0.5,0.9-0.7,2-0.4,3.1c0.1,0.5,0.3,0.9,0.6,1.3c2.5,3.7,4.8,7.6,6.9,11.5c3.1,6,4.6,11.3,4.5,16.4
		c-0.1,5.9-2.6,12.9-9.1,15c-4.4,1.4-8.9,0-13.6-1.4c-4-1.2-8.1-2.5-12.5-2.1c-6.6,0.5-11.4,5.9-12.7,14.5c-0.2,1.3-0.2,5.6,0.1,9.6
		c0.5,8.4,1.6,9.7,2.1,10.2c0.5,0.6,1.2,0.9,1.9,0.9h6c2,0,3.6-1.7,3.6-3.8c0-0.3-0.1-0.6-0.1-0.9c-1.1-3.8-2.1-8.2-1.4-12
		c0.4-1.9,1.5-3.3,2.3-3.5c0.4-0.1,1,0.1,1.6,0.7c1.8,1.8,3.3,3.9,5,6c2.1,2.8,4.2,5.7,7,8c5,4.2,10.9,6.3,17.2,6.3
		c3.6,0,7.4-0.7,11.3-2.1c1.1-0.4,2.2-0.9,3.3-1.4c1.2,1.4,3,2.2,5,2.1c3.5-0.1,6.2-3.1,6-6.5c0-0.7-0.2-1.6-0.6-2.6
		c6.7-6.1,11.6-14.2,13-22.4C93.6,46.7,90.8,30,79.4,23.6z M87.5,58.9c-1.2,6.9-5.2,13.8-10.8,19.2c-0.8-1.6-1.7-3.1-2.5-4.2
		c-0.1-0.2-0.3-0.4-0.5-0.5c-0.8-0.5-1.8-0.3-2.3,0.5c-1.9,3-4.9,8.2-4.9,10.7c0,0.2,0,0.3,0,0.5c0,0.1,0,0.1,0,0.2
		c-1,0.5-2.1,1-3.2,1.4c-9.1,3.4-17.8,2.1-24.5-3.5c-2.4-2-4.3-4.6-6.4-7.3c-1.6-2.2-3.3-4.5-5.4-6.5c-1.5-1.5-3-1.9-4.1-1.9
		c-0.6,0-1,0.1-1.4,0.2c-2.9,0.9-4.5,4.1-5,6.6c-0.9,4.5,0.2,9.3,1.3,13.5h-4.6c-0.7-2.6-1.7-12.5-1.1-16.2
		c0.4-2.5,2.2-10.6,9.1-11.2c3.6-0.3,7.2,0.8,11,2c5.1,1.6,10.4,3.2,16,1.4C56.9,61,60.1,52.3,60.2,45c0.1-5.8-1.5-11.8-4.9-18.3
		c-2.1-4.1-4.5-8.1-7.2-12c0,0,0-0.1,0.1-0.1l4-1c2.5,4.9,5.7,8.1,9.5,9.7c2.6,1,5.2,1.4,7.7,1.7c2.9,0.4,5.7,0.8,8.1,2.1
		C87.8,33,89.1,49.3,87.5,58.9z"/>
	<path d="M36.3,39.3C36.3,39.3,36.3,39.3,36.3,39.3c0.7,0,1.4-0.2,2-0.5c1.9-1.1,2.6-3.6,1.5-5.5L27.2,11.4
		c-0.4-0.6-0.9-1.2-1.5-1.5c-0.9-0.5-2-0.7-3.1-0.4c-1,0.3-1.9,1-2.4,1.9L7.5,33.2c-0.3,0.6-0.5,1.3-0.5,2c0,1.1,0.4,2.1,1.2,2.9
		s1.8,1.2,2.9,1.2H36.3z M10,35.3c0-0.2,0.1-0.4,0.1-0.5l12.6-21.8l0,0c0.1-0.2,0.4-0.4,0.6-0.5c0.1,0,0.2,0,0.3,0
		c0.2,0,0.4,0,0.5,0.1c0.2,0.1,0.3,0.2,0.4,0.4l12.6,21.8c0.1,0.2,0.2,0.5,0.1,0.8s-0.2,0.5-0.5,0.6c-0.2,0.1-0.3,0.1-0.5,0.1
		c0,0,0,0,0,0H11c-0.3,0-0.5-0.1-0.7-0.3C10.1,35.8,10,35.6,10,35.3z"/>
	<path d="M23.5,28.8C23.5,28.8,23.5,28.8,23.5,28.8c0.6,0,1-0.4,1-0.9l0.9-10.4c0-0.1,0-0.1,0-0.2c0-0.5-0.4-0.9-0.9-0.9h-1.8
		c-0.1,0-0.1,0-0.2,0c-0.5,0.1-0.8,0.6-0.7,1.1l0.8,10.4C22.6,28.4,23,28.8,23.5,28.8z"/>
	<path d="M23.4,34.3c1,0.1,1.9-0.7,1.9-1.7v-0.2c0,0,0-0.1,0-0.1c0-1-0.9-1.7-1.8-1.7c0,0,0,0-0.1,0c-1,0-1.8,0.8-1.7,1.8v0.2
		C21.8,33.6,22.5,34.3,23.4,34.3z"/>
</g>
</svg>
