<?xml version="1.0" encoding="utf-8"?>
<!-- Generator: Adobe Illustrator 24.0.0, SVG Export Plug-In . SVG Version: 6.00 Build 0)  -->
<svg version="1.1" id="Layer_1" xmlns="http://www.w3.org/2000/svg" xmlns:xlink="http://www.w3.org/1999/xlink" x="0px" y="0px"
	 viewBox="0 0 100 100" style="enable-background:new 0 0 100 100;" xml:space="preserve">
<g>
	<path d="M91.5,15.5c0-2.9-2.4-5.2-5.2-5.2H17.4c-2.9,0-5.2,2.4-5.2,5.2v68.8c0,2.9,2.4,5.2,5.2,5.2h36.3l0.6-0.6c0,0,0,0,0,0
		l36.6-36.6c0,0,0,0,0,0l0.6-0.6V15.5z M16.1,84.3V15.5c0-0.7,0.6-1.2,1.2-1.2h68.8c0.7,0,1.2,0.6,1.2,1.2V49h-6.8V26.3
		c0-2.9-2.4-5.2-5.2-5.2H28.2c-2.9,0-5.2,2.4-5.2,5.2v47.2c0,2.9,2.4,5.2,5.2,5.2h22.7v6.8H17.4C16.7,85.6,16.1,85,16.1,84.3z
		 M76.7,49h-9.9c0,0,0,0,0,0c-8.7,0-15.8,7.1-15.8,15.8v10H28.2c-0.7,0-1.2-0.6-1.2-1.2V26.3c0-0.7,0.6-1.2,1.2-1.2h47.2
		c0.7,0,1.2,0.6,1.2,1.2V49z M78.7,58.9c-0.2-0.4-0.7-0.7-1.2-0.7c-0.7,0-1.3,0.6-1.3,1.3c0,0.5,0.3,1,0.7,1.2L73.7,64
		c-0.2-0.4-0.7-0.8-1.2-0.8c-0.7,0-1.4,0.6-1.4,1.3c0,0.5,0.3,1,0.8,1.2l-3.4,3.4c-0.2-0.6-0.7-1-1.3-1c-0.7,0-1.3,0.6-1.3,1.3
		c0,0.6,0.4,1.1,1,1.3l-3.6,3.6c-0.1-0.7-0.6-1.2-1.3-1.2c-0.7,0-1.4,0.6-1.4,1.3c0,0.7,0.5,1.3,1.2,1.3l-6.9,6.9v-18
		c0-6.5,5.3-11.8,11.8-11.8c0,0,0,0,0,0h17.9L78.7,58.9z"/>
	<polygon points="43.4,31.5 38.4,31.5 38.4,36.9 33,36.9 33,41.9 38.4,41.9 38.4,47.2 43.4,47.2 43.4,41.9 48.8,41.9 48.8,36.9 
		43.4,36.9 	"/>
	<path d="M61.9,58.2c-0.7,0-1.4,0.6-1.4,1.3s0.6,1.3,1.4,1.3c0.7,0,1.3-0.6,1.3-1.3S62.6,58.2,61.9,58.2z"/>
	<path d="M65.8,59.6c0,0.7,0.6,1.3,1.3,1.3c0.7,0,1.4-0.6,1.4-1.3s-0.6-1.3-1.4-1.3C66.4,58.2,65.8,58.8,65.8,59.6z"/>
	<path d="M72.5,60.9c0.7,0,1.3-0.6,1.3-1.3s-0.6-1.3-1.3-1.3c-0.7,0-1.4,0.6-1.4,1.3S71.7,60.9,72.5,60.9z"/>
	<path d="M61.9,63.2c-0.7,0-1.4,0.6-1.4,1.3s0.6,1.3,1.4,1.3c0.7,0,1.3-0.6,1.3-1.3S62.6,63.2,61.9,63.2z"/>
	<path d="M67.2,63.2c-0.7,0-1.3,0.6-1.3,1.3s0.6,1.3,1.3,1.3c0.7,0,1.4-0.6,1.4-1.3S67.9,63.2,67.2,63.2z"/>
	<path d="M61.9,68.2c-0.7,0-1.4,0.6-1.4,1.3s0.6,1.3,1.4,1.3c0.7,0,1.3-0.6,1.3-1.3S62.6,68.2,61.9,68.2z"/>
</g>
</svg>
