<svg id="Layer_1" data-name="Layer 1" xmlns="http://www.w3.org/2000/svg" viewBox="0 0 100 100"><defs><style>.cls-1,.cls-3{fill:none;}.cls-1,.cls-2,.cls-3,.cls-4,.cls-5{stroke:#000;stroke-miterlimit:10;stroke-width:4px;}.cls-1,.cls-2,.cls-5{stroke-linecap:round;}.cls-5{fill:#fff;}</style></defs><rect class="cls-1" x="43.68" y="34" width="16.8" height="7.42" rx="3.71"/><path class="cls-2" d="M63.61,56.82,57.52,41.27H46.34L40.26,56.82a4.77,4.77,0,0,0-.33,1.75v10.7a4.8,4.8,0,0,1,4.8-4.8H59.14a4.8,4.8,0,0,1,4.8,4.8V58.57A4.77,4.77,0,0,0,63.61,56.82Z"/><path class="cls-2" d="M59.14,84.42H44.73a4.79,4.79,0,0,1-4.8-4.8v8a4.8,4.8,0,0,0,4.8,4.8H59.14a4.8,4.8,0,0,0,4.8-4.8v-8A4.79,4.79,0,0,1,59.14,84.42Z"/><circle cx="52.31" cy="14.32" r="1.55"/><circle cx="46.44" cy="19.75" r="1.55"/><circle cx="58.18" cy="19.77" r="1.55"/><circle cx="55.62" cy="28.38" r="1.55"/><circle cx="48" cy="28.43" r="1.55"/><circle cx="52.06" cy="21.32" r="1.55"/><circle cx="41.83" cy="24.66" r="1.55"/><circle cx="62.97" cy="25.62" r="1.55"/><path class="cls-3" d="M31.46,16.92l5.81,4.48,6.27-8.13L37.73,8.79a5,5,0,0,0-7,.82l-.27.35A5,5,0,0,0,31.46,16.92Z"/><path class="cls-4" d="M71.9,16.71l-5.81,4.48-6.27-8.13,5.81-4.48a5,5,0,0,1,7,.82l.26.35A5,5,0,0,1,71.9,16.71Z"/><line class="cls-5" x1="63.94" y1="79.62" x2="63.94" y2="69.27"/><line class="cls-5" x1="39.93" y1="79.62" x2="39.93" y2="69.27"/></svg>