<svg id="Layer_1" data-name="Layer 1" xmlns="http://www.w3.org/2000/svg" viewBox="0 0 100 100"><defs><style>.cls-1,.cls-2{fill:none;stroke:#000;stroke-miterlimit:10;stroke-width:4px;}.cls-2{stroke-linecap:round;}</style></defs><path class="cls-1" d="M62.9,51.36H74.64a.47.47,0,0,1,.47.47v27a0,0,0,0,1,0,0H62.43a0,0,0,0,1,0,0v-27A.47.47,0,0,1,62.9,51.36Z" transform="translate(86.22 158.18) rotate(-144.05)"/><path class="cls-1" d="M56.68,73.32l7.9,5.73L60.4,82.31a.48.48,0,0,1-.57,0l-4.78-3.46a.47.47,0,0,1-.16-.55Z"/><line class="cls-2" x1="84.38" y1="59.38" x2="69.49" y2="48.75"/><line class="cls-2" x1="51.06" y1="89.73" x2="56.76" y2="81.44"/><line class="cls-2" x1="73.24" y1="58.84" x2="79.26" y2="50.4"/><path class="cls-2" d="M77.69,44h8.84a.41.41,0,0,1,.41.41v5.13a0,0,0,0,1,0,0H77.28a0,0,0,0,1,0,0V44.45a.41.41,0,0,1,.41-.41Z" transform="translate(121.73 132.63) rotate(-144.47)"/><line class="cls-2" x1="77.56" y1="63.79" x2="67.24" y2="56.42"/><ellipse cx="64.26" cy="71.44" rx="1.56" ry="1.47"/><ellipse cx="69.44" cy="64.62" rx="1.56" ry="1.47"/><ellipse cx="66.92" cy="67.99" rx="1.56" ry="1.47"/><path class="cls-1" d="M25.91,51.36H38.6a0,0,0,0,1,0,0v27a.47.47,0,0,1-.47.47H26.39a.47.47,0,0,1-.47-.47v-27a0,0,0,0,1,0,0Z" transform="translate(-32.08 31.33) rotate(-35.95)"/><path class="cls-1" d="M44.34,73.32l-7.9,5.73,4.19,3.26a.48.48,0,0,0,.57,0L46,78.86a.49.49,0,0,0,.17-.55Z"/><line class="cls-2" x1="16.65" y1="59.38" x2="31.54" y2="48.75"/><line class="cls-2" x1="49.96" y1="89.73" x2="44.26" y2="81.44"/><line class="cls-2" x1="27.79" y1="58.84" x2="21.76" y2="50.4"/><path class="cls-2" d="M14.09,44h9.65a0,0,0,0,1,0,0v5.13a.41.41,0,0,1-.41.41H14.49a.41.41,0,0,1-.41-.41V44a0,0,0,0,1,0,0Z" transform="translate(-23.68 19.71) rotate(-35.53)"/><line class="cls-2" x1="23.47" y1="63.79" x2="33.79" y2="56.42"/><ellipse cx="36.77" cy="71.44" rx="1.56" ry="1.47"/><ellipse cx="31.59" cy="64.62" rx="1.56" ry="1.47"/><ellipse cx="34.1" cy="67.99" rx="1.56" ry="1.47"/><circle class="cls-1" cx="25.9" cy="26.74" r="13.77"/><path d="M17.74,15.66a13.7,13.7,0,0,0-2.92,2.92L34.07,37.83A13.94,13.94,0,0,0,37,34.91Z"/></svg>