<?xml version="1.0" encoding="utf-8"?>
<!-- Generator: Adobe Illustrator 24.0.0, SVG Export Plug-In . SVG Version: 6.00 Build 0)  -->
<svg version="1.1" id="Layer_1" xmlns="http://www.w3.org/2000/svg" xmlns:xlink="http://www.w3.org/1999/xlink" x="0px" y="0px"
	 viewBox="0 0 100 100" style="enable-background:new 0 0 100 100;" xml:space="preserve">
<g>
	<path d="M24.6,9.2C15.9,9.2,8.9,16.3,8.9,25s7.1,15.8,15.8,15.8S40.4,33.7,40.4,25S33.3,9.2,24.6,9.2z M12.9,25
		c0-2.5,0.8-4.8,2.1-6.7l16.4,16.4c-1.9,1.3-4.2,2.1-6.7,2.1C18.1,36.7,12.9,31.5,12.9,25z M34.3,31.7L17.9,15.3
		c1.9-1.3,4.2-2.1,6.7-2.1c6.5,0,11.8,5.3,11.8,11.8C36.4,27.5,35.6,29.8,34.3,31.7z"/>
	<path d="M88.3,41.1L85,33.2v-10c0-2.6-2.1-4.6-4.6-4.6H46.8c-2.6,0-4.6,2.1-4.6,4.6v10l-3.1,8.1c-0.6,1.5-0.9,3.1-0.9,4.7v39.5
		c0,2.5,2,4.5,4.5,4.5c0,0,0,0,0,0h42.1c2.5,0,4.5-2,4.5-4.5V46.2C89.4,44.5,89,42.7,88.3,41.1z M82.9,52.5v22.1
		c0,2.5-2,4.5-4.5,4.5H49.2c-2.5,0-4.5-2-4.5-4.5v-22c0-2.5,1.9-4.6,4.4-4.6c0,0,0.1,0,0.1,0h29.1C80.9,48,82.9,50,82.9,52.5
		C82.9,52.5,82.9,52.5,82.9,52.5z"/>
	<path d="M49.6,64.9c-0.1,0-0.3,0-0.4,0.1c-0.3,0.3-0.8,0.4-1.2,0.4c0,0-0.1,0-0.1,0c-0.9-0.1-1.6-0.9-1.5-1.8c0,0,0,0,0,0
		c0-0.9,0.7-1.7,1.6-1.7c0.4,0,0.8,0.1,1.2,0.4c0.1,0.1,0.2,0.1,0.4,0.1c0.2,0,0.4-0.1,0.5-0.2c0.2-0.3,0.2-0.6-0.1-0.9
		c-0.5-0.4-1.2-0.6-1.9-0.6c0,0-0.1,0-0.1,0c-1.6,0-2.8,1.3-2.8,2.9c0,0,0,0.1,0,0.1c0,1.6,1.3,2.8,2.9,2.8c0.7,0,1.5-0.2,2-0.7
		c0.1-0.1,0.2-0.3,0.2-0.4C50.2,65.1,49.9,64.9,49.6,64.9z"/>
	<path d="M51.8,60.6c-0.4,0-0.7,0.2-0.7,0.6c0,0.3,0.3,0.5,0.6,0.6c0.4,0.1,0.7-0.2,0.8-0.6C52.5,60.8,52.2,60.6,51.8,60.6z"/>
	<path d="M51.8,62.1c-0.3,0-0.6,0.3-0.6,0.6v3.2c0,0.3,0.3,0.6,0.6,0.6c0.3,0,0.6-0.3,0.6-0.6v-3.2C52.4,62.4,52.1,62.1,51.8,62.1z"
		/>
	<path d="M55.4,63.8c-0.5-0.2-0.9-0.3-0.9-0.5c0-0.2,0.2-0.3,0.4-0.3c0.3,0,0.6,0.1,0.9,0.3c0.1,0,0.1,0.1,0.2,0.1c0,0,0,0,0,0
		c0.3,0,0.5-0.2,0.5-0.5c0-0.2-0.1-0.4-0.3-0.5c-0.4-0.2-0.9-0.3-1.3-0.3c0,0-0.1,0-0.1,0c-0.8,0-1.4,0.6-1.4,1.4
		c0,0.8,0.8,1.1,1.3,1.3c0.5,0.1,0.9,0.2,0.9,0.5c0,0.2-0.2,0.3-0.5,0.3c-0.4,0-0.8-0.2-1.2-0.4c-0.1,0-0.1-0.1-0.2-0.1
		c-0.3,0-0.5,0.2-0.5,0.5c0,0.2,0.1,0.3,0.2,0.4c0.5,0.3,1.1,0.5,1.7,0.5c0.9,0,1.6-0.4,1.6-1.4C56.7,64.3,55.9,64,55.4,63.8z"/>
	<path d="M59.3,62.1c-0.5,0-0.9,0.1-1.4,0.2c-0.2,0.1-0.3,0.3-0.3,0.5c0,0,0,0,0,0c0,0.3,0.2,0.5,0.5,0.5h0.2
		c0.3-0.1,0.6-0.1,0.8-0.1c0.6,0,0.9,0.3,0.9,0.8V64c-0.3-0.1-0.7-0.2-1-0.2c-1,0-1.7,0.4-1.7,1.4c0,0.1,0,0.2,0,0.2
		c0.1,0.7,0.7,1.3,1.5,1.2c0.5,0,1-0.2,1.3-0.5c0,0,0,0,0,0c0,0.3,0.3,0.5,0.6,0.5c0,0,0,0,0,0c0.3,0,0.6-0.3,0.6-0.6v-2
		c0-0.5-0.1-1.1-0.5-1.4C60.3,62.2,59.8,62,59.3,62.1z M60.1,64.9c0,0.4-0.4,0.8-1,0.7c-0.4,0-0.7-0.2-0.7-0.5
		c0-0.4,0.3-0.6,0.8-0.6c0.3,0,0.5,0.1,0.8,0.2V64.9z"/>
	<path d="M64.8,62c-0.5,0-1,0.2-1.3,0.7c0-0.3-0.3-0.6-0.6-0.6c-0.3,0-0.6,0.3-0.6,0.6v4.4c0,0.3,0.3,0.6,0.6,0.6
		c0.3,0,0.6-0.3,0.6-0.6v-1.3c0.3,0.4,0.8,0.7,1.3,0.6c0.1,0,0.1,0,0.2,0c1.1-0.1,1.9-1.1,1.8-2.2c0-0.1,0-0.1,0-0.2
		C66.8,62.9,65.9,62,64.8,62z M65.6,64.5c-0.1,0.6-0.6,1-1.1,0.9s-1-0.6-0.9-1.1c0-0.1,0-0.1,0-0.2c0.1-0.6,0.6-1,1.1-0.9
		c0.6,0.1,1,0.6,0.9,1.1C65.6,64.4,65.6,64.4,65.6,64.5z"/>
	<path d="M69.7,62.1c-0.4,0-0.6,0.4-0.8,0.8v-0.2c0-0.3-0.3-0.6-0.6-0.6c-0.3,0-0.6,0.3-0.6,0.6l0,3.2c0,0.3,0.3,0.6,0.6,0.6
		s0.6-0.3,0.6-0.6v-1.1c0-0.9,0.4-1.3,1-1.5c0.3-0.1,0.5-0.3,0.5-0.6c0,0,0-0.1,0-0.1C70.3,62.3,70,62.1,69.7,62.1z"/>
	<path d="M71.7,60.6c-0.4,0-0.7,0.2-0.7,0.6c0,0.3,0.3,0.5,0.6,0.6c0.4,0.1,0.7-0.2,0.8-0.6C72.4,60.8,72.1,60.6,71.7,60.6z"/>
	<path d="M71.7,62.1c-0.3,0-0.6,0.3-0.6,0.6v3.2c0,0.3,0.3,0.6,0.6,0.6c0.3,0,0.6-0.3,0.6-0.6v-3.2C72.3,62.4,72,62.1,71.7,62.1z"/>
	<path d="M77.1,60.5c-0.3,0-0.6,0.3-0.5,0.7v1.6c-0.3-0.4-0.8-0.7-1.3-0.6c-0.1,0-0.1,0-0.2,0c-1.1,0.1-1.9,1.1-1.8,2.2
		c0,0.1,0,0.1,0,0.2c0,1.1,0.9,2,2,2c0.5,0,1-0.2,1.3-0.7v0c0,0.1,0,0.1,0,0.2c0,0.3,0.3,0.6,0.7,0.5c0.3,0,0.6-0.3,0.5-0.7v-4.7
		c0-0.1,0-0.1,0-0.2C77.7,60.7,77.4,60.4,77.1,60.5z M75.5,65.3c-0.6,0-1-0.5-1-1c0-0.6,0.5-1,1-1c0.6,0,1,0.5,1,1
		C76.6,64.9,76.1,65.3,75.5,65.3z"/>
	<path d="M80.7,62.1c-1.2,0.1-2.1,1.1-2,2.2c0,0.1,0,0.1,0,0.2c0.1,1.2,1,2.1,2.2,2c0.5,0,1.1-0.2,1.5-0.5c0.1-0.1,0.2-0.2,0.2-0.4
		c0,0,0,0,0,0c0-0.3-0.2-0.5-0.5-0.5c-0.1,0-0.2,0-0.3,0.1c-0.2,0.2-0.6,0.3-0.9,0.3c-0.5,0-1-0.3-1.1-0.8h2.4c0,0,0,0,0,0
		c0.3,0,0.5-0.3,0.5-0.6c0,0,0-0.1,0-0.1C82.8,62.9,81.9,62,80.7,62.1C80.7,62.1,80.7,62.1,80.7,62.1z M81.7,64h-1.8
		c0.1-0.6,0.4-0.9,0.9-0.9C81.3,63.1,81.7,63.5,81.7,64z"/>
</g>
</svg>
