<?xml version="1.0" encoding="utf-8"?>
<!-- Generator: Adobe Illustrator 24.0.0, SVG Export Plug-In . SVG Version: 6.00 Build 0)  -->
<svg version="1.1" id="Layer_1" xmlns="http://www.w3.org/2000/svg" xmlns:xlink="http://www.w3.org/1999/xlink" x="0px" y="0px"
	 viewBox="0 0 100 100" style="enable-background:new 0 0 100 100;" xml:space="preserve">
<g>
	<path d="M46.4,35.3c1.1,0,2-0.9,2-2V20.9c0-1.1-0.9-2-2-2s-2,0.9-2,2v12.4C44.4,34.4,45.3,35.3,46.4,35.3z"/>
	<path d="M60.1,37.7c0.2,0.1,0.4,0.1,0.7,0.1c0.8,0,1.6-0.5,1.9-1.3l4-11.8c0.4-1-0.2-2.2-1.2-2.5c-1-0.4-2.2,0.2-2.5,1.2l-4,11.8
		C58.5,36.2,59,37.3,60.1,37.7z"/>
	<path d="M72.4,42.2c0.4,0.3,0.8,0.4,1.2,0.4c0.6,0,1.2-0.3,1.6-0.8l7.7-9.8c0.7-0.9,0.5-2.1-0.3-2.8c-0.9-0.7-2.1-0.5-2.8,0.3
		l-7.7,9.8C71.4,40.3,71.6,41.5,72.4,42.2z"/>
	<path d="M19.8,41.4c8.8,0,15.9-7.1,15.9-15.9c0-8.8-7.1-15.9-15.9-15.9C11,9.6,3.9,16.7,3.9,25.5C3.9,34.3,11,41.4,19.8,41.4z
		 M19.8,11.1C19.8,11.1,19.9,11.1,19.8,11.1l0.1,4.9c5.2,0,9.4,4.3,9.5,9.5h4.8c0,7.9-6.4,14.3-14.3,14.3c-7.9,0-14.4-6.4-14.4-14.3
		C5.4,17.6,11.9,11.1,19.8,11.1z"/>
	<path d="M13.6,23.4c0.1,0,0.2,0,0.3,0l0.6-0.2V29c0,0.5,0.4,0.9,0.9,0.9c0.5,0,0.9-0.4,0.9-0.9v-6.8c0-0.5-0.4-0.9-0.9-0.9h0
		c-0.3,0-0.5,0.1-0.9,0.2l-1.2,0.3c-0.4,0.1-0.6,0.4-0.6,0.8C12.8,23,13.2,23.4,13.6,23.4z"/>
	<path d="M18.6,29.2c0.7,0.5,1.5,0.8,2.6,0.8c1.8,0,3.1-1.1,3.1-2.9v0c0-1.9-1.3-2.7-2.9-2.7c-0.5,0-0.8,0.1-1.1,0.1l0.1-1.5h2.8
		c0.4,0,0.8-0.4,0.8-0.8c0-0.4-0.4-0.8-0.8-0.8h-3.6c-0.4,0-0.8,0.3-0.8,0.8L18.6,25c0,0.3,0.1,0.6,0.3,0.7c0.4,0.3,0.6,0.4,0.8,0.4
		c0.3,0,0.6-0.2,1.3-0.2c0.9,0,1.5,0.4,1.5,1.1v0c0,0.7-0.6,1.2-1.4,1.2c-0.6,0-1.1-0.2-1.6-0.5c-0.1-0.1-0.3-0.2-0.5-0.2
		c-0.5,0-0.9,0.4-0.9,0.9C18.2,28.8,18.4,29,18.6,29.2z"/>
	<path d="M75.5,45.3c-3.4,0-6.5,0.8-9.3,2.2C59.7,45,53,43.8,46.1,43.9c-20.7,0-37.5,10.6-37.5,23.6c0,13,16.8,23.6,37.5,23.6
		c0.2,0,0.3,0,0.5,0c6.7,0,13.4-1.2,19.7-3.6c0.5-0.2,0.9-0.6,1.1-1.1c2.5,1,5.3,1.6,8.1,1.6c11.8,0,21.3-9.6,21.3-21.4
		S87.3,45.3,75.5,45.3z M46.1,87.1c-18.5,0-33.5-8.8-33.5-19.6c0-10.8,15-19.6,33.6-19.6c5.4-0.1,10.7,0.8,15.8,2.4
		c-1.8,1.5-3.3,3.2-4.5,5.2l-0.1,0c-3.4-2.7-7.6-3.8-11.9-3.3c-4.3,0.5-8.1,2.7-10.8,6.1c-5.5,7-4.3,17.2,2.8,22.7
		c2.9,2.3,6.5,3.4,10,3.4c3.8,0,7.6-1.3,10.6-3.9l0.7-0.6c1.4,1.7,3,3.3,4.8,4.5C57.9,86.2,52.1,87.2,46.1,87.1z M75.5,84
		c-9.6,0-17.3-7.8-17.3-17.4c0-9.6,7.8-17.4,17.3-17.4s17.3,7.8,17.3,17.4C92.8,76.2,85.1,84,75.5,84z"/>
</g>
</svg>
