<svg id="Layer_1" data-name="Layer 1" xmlns="http://www.w3.org/2000/svg" viewBox="0 0 100 100"><defs><style>.cls-1,.cls-2,.cls-3{fill:none;}.cls-2,.cls-3,.cls-4{stroke:#000;stroke-miterlimit:10;stroke-width:4px;}.cls-2{stroke-linecap:round;}</style></defs><circle cx="50.91" cy="15.53" r="1.55"/><circle cx="45.04" cy="20.96" r="1.55"/><circle cx="56.78" cy="20.98" r="1.55"/><circle cx="54.22" cy="29.59" r="1.55"/><circle cx="46.59" cy="29.64" r="1.55"/><circle cx="50.65" cy="22.53" r="1.55"/><circle cx="40.43" cy="25.87" r="1.55"/><circle cx="61.56" cy="26.84" r="1.55"/><g id="_254" data-name="254"><rect class="cls-1" x="9.23" y="13.04" width="80" height="80"/><path class="cls-2" d="M77.92,52a10.63,10.63,0,0,0-9.07-5.85A10.61,10.61,0,0,0,53,39.18a10.62,10.62,0,0,0-19.63,5.07A10.65,10.65,0,0,0,23.84,52Z"/><path class="cls-3" d="M36.21,81.87v3a6,6,0,0,0,6,6H59a6,6,0,0,0,6-6v-3"/><path class="cls-3" d="M50.53,84.56c17.4,0,31.91-11.17,35.23-26a5.37,5.37,0,0,0-5.29-6.47H20.59a5.36,5.36,0,0,0-5.29,6.47C18.62,73.39,33.13,84.56,50.53,84.56Z"/></g><path class="cls-3" d="M30.06,18.13l5.81,4.48,6.27-8.13L36.33,10a5,5,0,0,0-7,.82l-.27.35A5,5,0,0,0,30.06,18.13Z"/><path class="cls-4" d="M70.49,17.92,64.68,22.4l-6.27-8.13,5.81-4.48a5,5,0,0,1,7,.82l.27.35A5,5,0,0,1,70.49,17.92Z"/></svg>