<svg id="Layer_1" data-name="Layer 1" xmlns="http://www.w3.org/2000/svg" viewBox="0 0 100 100"><defs><style>.cls-1,.cls-3{fill:none;}.cls-1,.cls-2,.cls-3{stroke:#000;stroke-miterlimit:10;stroke-width:4px;}.cls-1,.cls-2{stroke-linecap:round;}</style></defs><g id="_308" data-name="308"><g id="_3" data-name="3"><path class="cls-1" d="M65.05,85.37C59.37,87.7,53.46,88.7,46.1,88.7,26.47,88.7,10.56,79,10.56,67.06S26.47,45.42,46.1,45.42a53,53,0,0,1,19.41,3.51"/><path class="cls-2" d="M56.11,56.47q-.4-.31-.81-.6A14.2,14.2,0,1,0,56.62,78.4h0a19.26,19.26,0,0,1-.52-21.92Z"/><line class="cls-1" x1="46.38" y1="20.47" x2="46.38" y2="32.9"/><line class="cls-1" x1="64.75" y1="23.59" x2="60.71" y2="35.34"/><line class="cls-1" x1="81.32" y1="30.42" x2="73.67" y2="40.21"/></g><circle class="cls-3" cx="21.15" cy="28.43" r="13.77"/><path d="M13,17.35a13.7,13.7,0,0,0-2.92,2.92L29.31,39.52a13.7,13.7,0,0,0,2.92-2.92Z"/></g><circle class="cls-1" cx="74.23" cy="67.06" r="19.35"/></svg>