<?xml version="1.0" encoding="utf-8"?>
<!-- Generator: Adobe Illustrator 24.0.0, SVG Export Plug-In . SVG Version: 6.00 Build 0)  -->
<svg version="1.1" id="Layer_1" xmlns="http://www.w3.org/2000/svg" xmlns:xlink="http://www.w3.org/1999/xlink" x="0px" y="0px"
	 viewBox="0 0 100 100" style="enable-background:new 0 0 100 100;" xml:space="preserve">
<g>
	<path d="M39.9,25.5c0-8.7-7.1-15.8-15.8-15.8S8.4,16.8,8.4,25.5s7.1,15.8,15.8,15.8S39.9,34.2,39.9,25.5z M35.9,25.5
		c0,2.5-0.8,4.8-2.1,6.7L17.4,15.9c1.9-1.3,4.2-2.1,6.7-2.1C30.6,13.8,35.9,19,35.9,25.5z M12.4,25.5c0-2.5,0.8-4.8,2.1-6.7
		l16.4,16.3c-1.9,1.3-4.2,2.1-6.7,2.1C17.6,37.3,12.4,32,12.4,25.5z"/>
	<path d="M92.3,38.1c-0.5-3-3-6.1-6.6-8c-0.2-0.1-0.3-0.2-0.5-0.2c2.3-4.4,1.1-6.6,0.1-7.6c-1.6-1.6-4.3-1.4-7.5,0.3
		c-0.1-0.1-0.1-0.3-0.2-0.4c-2-3.6-5.2-6-8.2-6.4c-2.1-0.3-4.1,0.5-5.7,2.1c-1.7,1.7,0,3.7,0.8,4.7c0.9,1,2.1,2.5,2.8,4.4
		c1.3,3.6,0.4,7.1-0.2,9.4c-3.1-0.9-7.4-0.2-12.4,2.1c-1.9,0.9-3.9,2-5.9,3.3c-0.7-0.3-1.7-0.2-2.3,0.4c-0.4,0.4-0.6,1-0.6,1.5
		c-3.6,2.6-7.3,5.8-10.8,9.4c-13.9,14.3-20,29.4-14.1,35.2c1.4,1.4,3.4,2.1,5.8,2.1c7.3,0,18.4-6.3,28.9-17.2
		c6.3-6.5,11.3-13.6,14.1-19.9c2.2-5.1,2.8-9.3,1.8-12.4c2.2-0.7,5.7-1.7,9.4-0.5c2,0.7,3.5,1.8,4.5,2.7c0.8,0.6,1.9,1.5,3,1.5
		c0.6,0,1.1-0.2,1.7-0.8C91.9,42.3,92.6,40.3,92.3,38.1z M82.5,25.2c0.1,0.4-0.1,1.7-1.6,4.1c-0.9,0.1-2,0.3-3.1,0.8
		c0.4-1.2,0.6-2.3,0.7-3.3C80.6,25.4,82,25.1,82.5,25.2z M67.5,20C67.5,20,67.5,20,67.5,20c0.4-0.3,0.8-0.3,1.3-0.3
		c1.7,0.2,3.8,2,5.2,4.4c0.2,0.4,0.3,0.7,0.4,1.1c-0.1,0.4-0.1,0.9,0.1,1.3c-0.1,2-1.3,4.2-2.7,6.2c0.2-2.1,0.1-4.5-0.8-7.1
		C70,23.1,68.5,21.2,67.5,20z M66.2,51.8C63.7,57.7,59,64.3,53,70.5C42.8,81,28.2,89.6,23.9,85.5c-2.7-2.7-0.3-9.8,4.5-17.3l3.9,3.8
		c0.4,0.4,0.9,0.6,1.4,0.6c0.5,0,1-0.2,1.4-0.6c0.8-0.8,0.8-2.1,0-2.8l-4.4-4.2c1.1-1.5,2.3-3,3.5-4.5L40,66
		c0.4,0.4,0.9,0.6,1.4,0.6c0.5,0,1-0.2,1.4-0.6c0.8-0.8,0.8-2.1,0-2.8l-6-5.9c0.4-0.5,0.8-0.9,1.3-1.3c0.9-1,1.9-1.9,2.9-2.8
		l6.1,5.9c0.4,0.4,0.9,0.6,1.4,0.6c0.5,0,1-0.2,1.4-0.6c0.8-0.8,0.7-2.1,0-2.8l-5.9-5.7c1.5-1.3,3-2.5,4.5-3.6l5.6,5.5
		c0.4,0.4,0.9,0.6,1.4,0.6c0.5,0,1-0.2,1.4-0.6c0.8-0.8,0.8-2.1,0-2.8l-5-4.9c1.5-1,3.1-1.8,4.5-2.5c5-2.3,8.9-2.8,10.7-1.3
		c0,0,0.1,0.1,0.1,0.1c0,0,0.1,0.1,0.1,0.1C68.8,42.8,68.4,46.8,66.2,51.8z M88.2,40.1C88.1,40.1,88.1,40.1,88.2,40.1
		c-1.3-1-3.1-2.5-5.8-3.4c-1.7-0.6-3.4-0.8-4.9-0.8c-0.7,0-1.4,0-2.1,0.1c2.8-2.1,6.1-3.7,8.5-2.4c2.5,1.3,4.3,3.4,4.5,5.1
		C88.4,39.2,88.3,39.7,88.2,40.1z"/>
</g>
</svg>
