<?xml version="1.0" encoding="utf-8"?>
<!-- Generator: Adobe Illustrator 24.0.0, SVG Export Plug-In . SVG Version: 6.00 Build 0)  -->
<svg version="1.1" id="Layer_1" xmlns="http://www.w3.org/2000/svg" xmlns:xlink="http://www.w3.org/1999/xlink" x="0px" y="0px"
	 viewBox="0 0 100 100" style="enable-background:new 0 0 100 100;" xml:space="preserve">
<path d="M92.4,89.4L90.3,77c-0.1-0.9-1.2-9-6.6-12.4c-4.3-2.7-16.8-6.1-21.2-7.2c0-0.3,0.1-0.6,0.1-0.9c6.7-5.1,11-14.2,11-23.5
	c0-14.6-10.5-26.5-23.4-26.5C37.4,6.5,26.9,18.4,26.9,33c0,9.3,4.4,18.5,11.2,23.6c0,0.3,0.1,0.6,0.1,0.9c-4.8,1.2-16.6,4.4-20.7,7
	C12.2,68,11.1,76.1,11,77L8.7,89.9c-0.2,1.1,0.5,2.1,1.6,2.3c0.1,0,0.2,0,0.4,0c1,0,1.8-0.7,2-1.7l2.3-12.9l0-0.1
	c0-0.1,0.8-7,4.8-9.5c2.9-1.9,11.6-4.4,17.5-6v11.8c-2.7,0.9-4.6,3.4-4.6,6.3c0,3.7,3,6.6,6.6,6.6s6.6-3,6.6-6.6
	c0-3-1.9-5.5-4.6-6.3v-8.9c2.2,3.1,5.5,5.3,9.2,5.3c3.7,0,6.9-2.2,9.1-5.2v4.8l-2.6,1.4c-2.9,1.6-4.8,4.7-4.8,8.1v2.7
	c0,1.9,1.5,3.4,3.4,3.4h1.4v-4h-0.8v-2.1c0-1.9,1-3.7,2.7-4.6l2.7-1.5l2.7,1.5c1.7,0.9,2.7,2.7,2.7,4.6v2.1H66v4h1.4
	c1.9,0,3.4-1.5,3.4-3.4v-2.7c0-3.4-1.8-6.4-4.8-8.1l-2.6-1.4v-7.9c5.8,1.6,15,4.3,18.1,6.2c4,2.5,4.8,9.5,4.8,9.5l2.1,12.5
	c0.2,1,1,1.7,2,1.7c0.1,0,0.2,0,0.3,0C91.8,91.5,92.6,90.5,92.4,89.4z M30.9,33c0-12.4,8.7-22.5,19.4-22.5S69.7,20.6,69.7,33
	c0,8.3-4,16.5-10.1,20.8c-0.2,0.2-0.4,0.4-0.5,0.6c-6.3,3.7-11.2,3.7-17.4-0.1c-0.1-0.1-0.2-0.2-0.4-0.3
	C34.9,49.7,30.9,41.5,30.9,33z M39.2,82.7c-1.4,0-2.6-1.2-2.6-2.6s1.2-2.6,2.6-2.6s2.6,1.2,2.6,2.6S40.7,82.7,39.2,82.7z M50.4,66.1
	c-3.3,0-6.2-3.1-7.5-6.7c2.5,1.1,5,1.7,7.5,1.7c2.5,0,5-0.6,7.6-1.7C56.5,63,53.6,66.1,50.4,66.1z"/>
</svg>
