<svg id="Layer_1" data-name="Layer 1" xmlns="http://www.w3.org/2000/svg" viewBox="0 0 100 100"><defs><style>.cls-1,.cls-2,.cls-3{fill:none;}.cls-2,.cls-3{stroke:#000;stroke-miterlimit:10;stroke-width:4px;}.cls-2{stroke-linecap:round;}</style></defs><circle cx="52.13" cy="9.32" r="1.55"/><circle cx="46.26" cy="14.76" r="1.55"/><circle cx="58" cy="14.78" r="1.55"/><circle cx="55.44" cy="23.39" r="1.55"/><circle cx="47.82" cy="23.43" r="1.55"/><circle cx="51.34" cy="31.54" r="1.55"/><circle cx="43.62" cy="29.91" r="1.55"/><circle cx="67.29" cy="26.54" r="1.55"/><circle cx="60.27" cy="29.73" r="1.55"/><circle cx="51.88" cy="16.32" r="1.55"/><circle cx="36.73" cy="25.71" r="1.55"/><circle cx="41.65" cy="19.66" r="1.55"/><circle cx="62.79" cy="20.63" r="1.55"/><g id="_254" data-name="254"><rect class="cls-1" x="10.06" y="16.62" width="80" height="80"/><path class="cls-2" d="M78.75,55.53a10.62,10.62,0,0,0-9.06-5.85,10.61,10.61,0,0,0-15.9-6.92,10.62,10.62,0,0,0-19.63,5.07,10.65,10.65,0,0,0-9.49,7.7Z"/><path class="cls-3" d="M37,85.33v3.1a6,6,0,0,0,6,6H59.83a6,6,0,0,0,6-6v-3"/><path class="cls-3" d="M51.36,88.14c17.4,0,31.92-11.17,35.24-26a5.38,5.38,0,0,0-5.3-6.48H21.42a5.37,5.37,0,0,0-5.29,6.48C19.45,77,34,88.14,51.36,88.14Z"/></g></svg>