<?xml version="1.0" encoding="utf-8"?>
<!-- Generator: Adobe Illustrator 24.0.0, SVG Export Plug-In . SVG Version: 6.00 Build 0)  -->
<svg version="1.1" id="Layer_1" xmlns="http://www.w3.org/2000/svg" xmlns:xlink="http://www.w3.org/1999/xlink" x="0px" y="0px"
	 viewBox="0 0 100 100" style="enable-background:new 0 0 100 100;" xml:space="preserve">
<g>
	<path d="M18.8,47.3L18.8,47.3l-2.5,2.9l-1.9-30.4c0-0.1,0-0.3-0.1-0.4c-0.3-0.9-1.1-1.5-2.1-1.4c-0.3,0-0.5,0.1-0.8,0.2
		c-0.2,0.1-0.4,0.3-0.6,0.5c-0.4,0.4-0.5,0.9-0.5,1.5l1.9,30.3l-2.8-2.5c-0.8-0.7-2.1-0.7-2.8,0.2c-0.7,0.8-0.7,2.1,0.2,2.8l6.4,5.7
		l1.5,1.4l1.3-1.5l5.7-6.5c0.7-0.8,0.7-2.1-0.2-2.8C20.8,46.4,19.5,46.5,18.8,47.3z"/>
	<path d="M57,24.9c0.8,0.5,1.7,0.4,2.4-0.2h0l2.4-2.9l2.5,30.3c0,0.1,0,0.3,0.1,0.4c0.1,0.5,0.5,0.9,0.9,1.2
		c0.3,0.2,0.7,0.3,1.1,0.2c0.1,0,0.3,0,0.4-0.1c0.5-0.2,0.9-0.5,1.2-1c0.2-0.3,0.3-0.7,0.2-1.1l-2.5-30.3l2.9,2.5
		c0.9,0.6,2.2,0.3,2.8-0.6c0.5-0.8,0.4-1.7-0.2-2.4l-6.6-5.6l-1.5-1.3L62,15.6l-5.6,6.6C55.8,23.1,56.1,24.3,57,24.9z"/>
	<path d="M78,75.1c-0.1-0.4-0.1-0.7-0.2-1c-0.1-0.3-0.2-0.7-0.4-1l-0.1-0.2c-0.2-0.3-0.3-0.6-0.5-0.9c-0.2-0.3-0.4-0.6-0.7-0.8
		L76,71c-0.5-0.5-1.1-1-1.8-1.4h0c-0.3-0.2-0.7-0.4-1-0.5c-0.2-0.3-0.4-0.6-0.6-0.8l0-0.1c-0.4-0.5-0.9-1-1.4-1.4L71,66.7
		c-0.2-0.2-0.5-0.3-0.7-0.5l-0.1-0.1c-0.6-0.3-1.2-0.6-1.8-0.8c-0.1,0-0.2,0-0.2-0.1c-0.2-0.1-0.5-0.1-0.7-0.2h-0.3
		c-0.3,0-0.7-0.1-1-0.1h-9.8l-0.9-10.3L54.6,45c0,0,0,0,0-0.1c0-0.2-0.1-0.5-0.1-0.7c0-0.1-0.1-0.3-0.1-0.4c0-0.1,0-0.2-0.1-0.3
		c0-0.1-0.1-0.4-0.2-0.6l-0.1-0.2c-0.1-0.2-0.2-0.4-0.3-0.7c-0.5-0.9-1.2-1.7-2-2.4L51.3,29L50.9,19c0-0.3-0.1-0.6-0.1-1
		c0-0.3-0.1-0.7-0.2-1c-0.2-0.7-0.5-1.5-0.9-2.1c-0.3-0.5-0.6-0.9-1-1.3c-1.6-1.9-4-3-6.6-3h-4.1c-3.6,0-6.8,2.2-8.1,5.5
		c-0.1,0.3-0.2,0.5-0.3,0.8c-0.2,0.6-0.3,1.2-0.3,1.7c0,0.3,0,0.6,0,0.9l0.3,7.9c-0.2,0.1-0.4,0.2-0.6,0.3l-0.4,0.2
		c-0.2,0.1-0.4,0.2-0.6,0.4c-0.1,0.1-0.2,0.2-0.3,0.2c-0.1,0.1-0.3,0.2-0.5,0.4l-0.3,0.3c-0.2,0.2-0.3,0.3-0.4,0.5
		c-0.1,0.1-0.1,0.2-0.2,0.2c-0.2,0.2-0.3,0.4-0.5,0.6c0,0.1-0.1,0.1-0.1,0.2c-0.1,0.3-0.3,0.5-0.4,0.8l-0.1,0.2
		c-0.1,0.3-0.2,0.6-0.3,0.9c0,0.1,0,0.1,0,0.2c-0.1,0.3-0.1,0.7-0.2,1c0,0,0,0.1,0,0.1c0,0.4,0,0.7,0,1.1l2.8,47
		c0,0.5,0.1,1,0.2,1.5c0.1,0.5,0.3,0.9,0.5,1.4c0.2,0.4,0.5,0.9,0.7,1.2c0.1,0.2,0.3,0.4,0.5,0.6c1.5,1.7,3.6,2.6,5.8,2.6h23v-0.1
		h7.7c0.3,0,0.7,0,1-0.1h0.3c0.2,0,0.5-0.1,0.7-0.2l0.2-0.1c0.6-0.2,1.2-0.4,1.8-0.8l0.1-0.1c0.3-0.1,0.5-0.3,0.7-0.5h0.1
		c0.8-0.6,1.5-1.4,2-2.3c0.4-0.1,0.7-0.3,1.1-0.5c0.7-0.4,1.3-0.9,1.8-1.4l0.1-0.1c0.3-0.3,0.5-0.5,0.7-0.9c0.2-0.3,0.4-0.6,0.6-0.9
		c0-0.1,0-0.1,0.1-0.2c0.1-0.3,0.3-0.7,0.4-1c0,0,0,0,0,0c0.1-0.3,0.2-0.7,0.2-1c0-0.1,0-0.2,0-0.2c0.1-0.4,0.1-0.7,0.1-1.1v-1.5
		c0-0.4,0-0.7-0.1-1.1C78,75.3,78,75.2,78,75.1z M34.2,17.6c0.6-1.6,2.2-2.6,3.9-2.6h4.1c0.8,0,1.6,0.2,2.3,0.7
		c0.2,0.1,0.4,0.3,0.6,0.5c0.8,0.7,1.2,1.8,1.3,2.8v0.1H33.9C33.9,18.6,34,18.1,34.2,17.6z M44,33.6l-6.7-5.1h0
		c-0.3-0.2-0.6-0.4-0.9-0.6l-0.3-0.1c-0.2-0.1-0.4-0.2-0.6-0.3l-0.3-0.1c-0.3-0.1-0.6-0.2-0.9-0.3l-0.1-3.4h12.5l0.1,3.2l0.4,9.1
		L44,33.6z M52.7,45.1L52.7,45.1l0.8-0.1L52.7,45.1z"/>
	<path d="M93.6,76.6c-0.3-0.7-1-1.1-1.8-1.1h-7.4c-1.1,0-2,0.9-2,2c0,0.7,0.3,1.3,0.9,1.7c0.3,0.2,0.7,0.4,1.1,0.3h7.4
		c0.4,0,0.8-0.1,1.1-0.3c0.2-0.1,0.4-0.3,0.5-0.5c0.2-0.3,0.3-0.7,0.3-1.1C93.9,77.2,93.8,76.9,93.6,76.6z"/>
	<path d="M89.4,85.4L83,81.6c-0.5-0.3-1-0.3-1.5-0.2c-0.3,0.1-0.5,0.2-0.7,0.3c-0.2,0.2-0.4,0.4-0.5,0.6c-0.3,0.5-0.3,1.2-0.1,1.8
		c0.2,0.4,0.4,0.8,0.8,1l6.4,3.7c0.8,0.5,1.9,0.3,2.5-0.4c0.1-0.1,0.2-0.2,0.2-0.3c0.4-0.7,0.4-1.6-0.1-2.2
		C89.8,85.7,89.6,85.5,89.4,85.4z"/>
	<path d="M82.9,73.5l6.4-3.7c0.5-0.3,0.8-0.7,0.9-1.2c0.1-0.5,0.1-1.1-0.2-1.5c-0.1-0.2-0.3-0.4-0.5-0.6c-0.6-0.5-1.5-0.5-2.2-0.1
		L80.9,70c-0.2,0.1-0.4,0.3-0.6,0.5c-0.1,0.1-0.1,0.2-0.2,0.3c-0.4,0.7-0.2,1.6,0.3,2.2C81.1,73.8,82.1,73.9,82.9,73.5z"/>
</g>
</svg>
