<svg id="Layer_1" data-name="Layer 1" xmlns="http://www.w3.org/2000/svg" viewBox="0 0 100 100"><defs><style>.cls-1{fill:none;stroke-width:4px;}.cls-1,.cls-2{stroke:#000;stroke-miterlimit:10;}</style></defs><path d="M75.67,43.34A15.88,15.88,0,1,1,91.55,27.46,15.89,15.89,0,0,1,75.67,43.34Zm0-30.24A14.37,14.37,0,1,0,90,27.46,14.37,14.37,0,0,0,75.67,13.1Z"/><path d="M75.75,12.34v5.6a9.53,9.53,0,0,1,0,19.05v5.59a15.12,15.12,0,0,0,0-30.24Z"/><path d="M68.69,30.47a.64.64,0,0,1-.23-.5.68.68,0,0,1,.67-.67.67.67,0,0,1,.46.18,2.42,2.42,0,0,0,1.81.76A1.24,1.24,0,0,0,72.77,29v0c0-.78-.71-1.23-1.83-1.23h-.28a.6.6,0,0,1-.6-.6.78.78,0,0,1,.29-.56l1.86-2H69.33a.61.61,0,1,1,0-1.21h4.06a.63.63,0,0,1,.7.61,1,1,0,0,1-.4.76l-1.87,1.94c1.2.15,2.33.76,2.33,2.22v0a2.54,2.54,0,0,1-2.78,2.51A3.72,3.72,0,0,1,68.69,30.47Z"/><path d="M75.5,27.42v0c0-2.27,1.39-4.11,3.47-4.11s3.45,1.82,3.45,4.09v0c0,2.27-1.38,4.1-3.47,4.1S75.5,29.69,75.5,27.42Zm5.48,0v0c0-1.57-.81-2.85-2-2.85s-2,1.25-2,2.83v0c0,1.56.8,2.84,2,2.84S81,29,81,27.42Z"/><circle class="cls-1" cx="27.2" cy="27.13" r="13.77"/><path d="M19,16A14,14,0,0,0,16.11,19L35.36,38.21a14,14,0,0,0,2.93-2.92Z"/><circle class="cls-2" cx="31.27" cy="54.4" r="5.53"/><path d="M31.27,50.87A3.53,3.53,0,0,1,34.8,54.4h4a7.53,7.53,0,0,0-7.53-7.53ZM27.74,54.4a3.53,3.53,0,0,1,3.53-3.53v-4a7.53,7.53,0,0,0-7.53,7.53Zm3.53,3.53a3.53,3.53,0,0,1-3.53-3.53h-4c0,4.16,2.27,7.53,7.53,7.53ZM34.8,54.4a3.53,3.53,0,0,1-3.53,3.53v4c6.8,0,7.53,3,7.53-7.53Z"/><path d="M45.79,45.25a8,8,0,0,0-8,8h4a4,4,0,0,1,4-4Zm21.86,0H45.79v4H67.65Zm5.74,2.43a7.94,7.94,0,0,0-5.74-2.43v4a4,4,0,0,1,2.87,1.21ZM87.86,62.61,73.39,47.68l-2.87,2.78L85,65.39ZM39.77,65.69,86.41,66l0-4L39.8,61.69Zm-2-12.44V63.69h4V53.25Zm8-6v0ZM72,49.07l-1.44,1.39h0ZM86.43,64l0,2,4.77,0-3.32-3.42Zm-46.64-.31h-2v2l2,0Z"/><path d="M84.25,61.69h-57a4,4,0,0,1-4-4V42.77a6.74,6.74,0,0,0-13.48,0V88.26h4V78.49H88.25v9.77h4V69.69A8,8,0,0,0,84.25,61.69ZM13.8,74.49V42.77a2.74,2.74,0,0,1,5.48,0V57.69a8,8,0,0,0,8,8h57a4,4,0,0,1,4,4v4.8Z"/></svg>