<svg id="Layer_1" data-name="Layer 1" xmlns="http://www.w3.org/2000/svg" viewBox="0 0 100 100"><defs><style>.cls-1,.cls-2,.cls-3{fill:none;stroke:#000;stroke-width:4px;}.cls-1,.cls-3{stroke-miterlimit:10;}.cls-2{stroke-linejoin:round;}.cls-3{stroke-linecap:round;}</style></defs><circle class="cls-1" cx="24.7" cy="25.26" r="13.77"/><path d="M16.54,14.17a13.94,13.94,0,0,0-2.92,2.92L32.87,36.34a13.7,13.7,0,0,0,2.92-2.92Z"/><path class="cls-2" d="M79.31,25.09c0-7.23-5.11-13.1-11.42-13.1s-11.41,5.87-11.41,13.1a14.73,14.73,0,0,0,6,12.05h0c0,3,2.46,8.49,5.49,8.49s5.49-5.45,5.49-8.49a.22.22,0,0,0,0-.08A14.78,14.78,0,0,0,79.31,25.09Z"/><path class="cls-3" d="M47.53,48.22S48,44,50.59,42.34s11.77-3.91,11.77-3.91"/><path class="cls-3" d="M88.22,48.22s-.47-4.23-3.06-5.88-11.77-3.91-11.77-3.91"/><path class="cls-2" d="M79.31,66.05c0-7.24-5.11-13.1-11.42-13.1s-11.41,5.86-11.41,13.1a14.75,14.75,0,0,0,6,12h0c0,3,2.46,8.49,5.49,8.49s5.49-5.46,5.49-8.49a.28.28,0,0,0,0-.09A14.75,14.75,0,0,0,79.31,66.05Z"/><path class="cls-3" d="M47.53,89.18s.47-4.24,3.06-5.89,11.77-3.9,11.77-3.9"/><path class="cls-3" d="M88.22,89.18s-.47-4.24-3.06-5.89-11.77-3.9-11.77-3.9"/><path class="cls-2" d="M60.78,36.1h0c5,3.09,9.13,3.09,14.18,0"/><path class="cls-2" d="M60.78,76.56h0c5,3.09,9.13,3.09,14.18,0"/></svg>