<?xml version="1.0" encoding="utf-8"?>
<!-- Generator: Adobe Illustrator 24.0.0, SVG Export Plug-In . SVG Version: 6.00 Build 0)  -->
<svg version="1.1" id="Layer_1" xmlns="http://www.w3.org/2000/svg" xmlns:xlink="http://www.w3.org/1999/xlink" x="0px" y="0px"
	 viewBox="0 0 100 100" style="enable-background:new 0 0 100 100;" xml:space="preserve">
<path d="M81.2,39.7c0-23.6-25-23.6-33.2-23.6c-8.2,0-33.2,0-33.2,23.6c-0.1,5.3,1.3,10.4,3.8,14.9C23,76.4,34.5,89.9,48.1,89.9
	c13.6,0,25.1-13.6,29.4-35.4C80,50,81.3,44.9,81.2,39.7z M43.4,67.5C43.4,67.5,43.4,67.5,43.4,67.5c-1,1-2.6,1-3.6,0
	c-1-1-1-2.6,0-3.6c1-1,2.6-1,3.6,0C44.4,64.9,44.4,66.5,43.4,67.5z M40.3,55C40.3,55,40.3,55,40.3,55c-1.4-1.4-1.4-3.7,0-5.1
	s3.7-1.4,5.1,0c1.4,1.4,1.4,3.7,0,5.1C44,56.4,41.7,56.4,40.3,55z M48.8,74.3c-0.6,0.6-1.4,0.6-2,0c-0.6-0.6-0.6-1.4,0-2
	c0.6-0.6,1.4-0.6,2,0C49.4,72.9,49.4,73.8,48.8,74.3z M50.6,62.3C50.6,62.3,50.6,62.3,50.6,62.3L50.6,62.3c-1-1-1-2.5,0-3.5
	s2.6-1,3.5,0s1,2.6,0,3.5c0,0,0,0,0,0C53.2,63.3,51.6,63.3,50.6,62.3z M55.5,70.3c-0.6,0.6-1.4,0.6-2,0c-0.6-0.6-0.6-1.4,0-2
	c0.6-0.6,1.4-0.6,2,0C56,68.9,56,69.8,55.5,70.3z M55.4,51.4c-1.3,1.3-3.5,1.3-4.8,0s-1.3-3.5,0-4.8c1.3-1.3,3.5-1.3,4.8,0
	c0,0,0,0,0,0C56.7,47.9,56.7,50.1,55.4,51.4z M60.9,46.4L60.9,46.4c-0.4,2.6-6.7-5.7-12.5-1.9c-5.9,3.8-12.7,4.8-13.2,2.3
	C34,39.7,38.9,33,46,31.9c7.1-1.1,13.8,3.7,14.9,10.8C61.1,43.9,61.1,45.1,60.9,46.4z M47.2,28.8c-15.2,0.2-24.6,8.9-28.1,14.8
	c-0.2-1.3-0.3-2.5-0.2-3.8c0-13.4,9.3-19.6,29.2-19.6c19.9,0,29.2,6.2,29.2,19.7c0,1.1,0,2.2-0.2,3.3C73.3,37.3,62.9,28.6,47.2,28.8
	z"/>
</svg>
