<?xml version="1.0" encoding="utf-8"?>
<!-- Generator: Adobe Illustrator 24.0.0, SVG Export Plug-In . SVG Version: 6.00 Build 0)  -->
<svg version="1.1" id="Layer_1" xmlns="http://www.w3.org/2000/svg" xmlns:xlink="http://www.w3.org/1999/xlink" x="0px" y="0px"
	 viewBox="0 0 100 100" style="enable-background:new 0 0 100 100;" xml:space="preserve">
<g>
	<path d="M30.7,72.9L30.7,72.9l-2.3,2.6L26.6,48c0-0.1,0-0.2-0.1-0.4c-0.3-1-1.3-1.5-2.3-1.3c-0.1,0-0.2,0.1-0.3,0.1
		c-0.2,0.1-0.4,0.3-0.5,0.4c-0.3,0.4-0.5,0.8-0.5,1.3l1.7,27.5l-2.5-2.2c-0.8-0.7-1.9-0.6-2.6,0.2c-0.7,0.7-0.6,1.9,0.2,2.5l5.8,5.2
		l1.4,1.2l1.2-1.4l5.2-5.9c0.7-0.8,0.6-1.9-0.2-2.6C32.5,72.1,31.3,72.2,30.7,72.9z"/>
	<path d="M63.1,39c0.7,0.6,1.8,0.5,2.5-0.2h0l2.2-2.6L70,63.7c0,0.1,0,0.2,0.1,0.4c0.2,0.8,1,1.4,1.9,1.3c0.1,0,0.2,0,0.4-0.1
		c0.8-0.2,1.4-1,1.3-1.9l-2.2-27.5l2.6,2.2c0.8,0.6,1.9,0.6,2.6-0.2s0.6-1.9-0.2-2.6l-6-5.1L69,29.1l-1.2,1.4l-5,5.9
		C62.2,37.3,62.3,38.4,63.1,39z"/>
	<path d="M82.3,77.3c0-0.3-0.1-0.7-0.2-1c-0.1-0.3-0.2-0.6-0.4-0.9l-0.1-0.2c-0.1-0.3-0.3-0.6-0.5-0.8c-0.2-0.3-0.4-0.5-0.6-0.8
		c0,0-0.1-0.1-0.1-0.1c-0.5-0.5-1-0.9-1.6-1.3c-0.3-0.2-0.6-0.3-0.9-0.5c-0.2-0.3-0.3-0.5-0.5-0.8c0,0,0,0,0-0.1
		c-0.4-0.5-0.8-0.9-1.3-1.3L76,69.7c-0.2-0.2-0.4-0.3-0.7-0.4l-0.1-0.1c-0.5-0.3-1-0.5-1.6-0.7h-0.2c-0.2-0.1-0.4-0.1-0.7-0.1h-0.2
		c-0.3,0-0.6-0.1-0.9-0.1h-8.9L61.9,59l-0.8-9c0,0,0,0,0-0.1c0-0.2,0-0.4-0.1-0.7c0-0.1-0.1-0.3-0.1-0.4c0-0.1,0-0.2-0.1-0.3
		c0-0.1-0.1-0.4-0.2-0.5s0-0.1,0-0.1c-0.1-0.2-0.2-0.4-0.3-0.6c-0.5-0.8-1.1-1.6-1.8-2.2l-0.4-9.6l-0.4-9.1c0-0.3,0-0.5-0.1-0.8
		c0-0.3-0.1-0.6-0.2-0.9c-0.2-0.7-0.4-1.3-0.8-1.9c-0.2-0.4-0.5-0.8-0.9-1.2c-1.5-1.7-3.7-2.7-6-2.7h-3.8c-2.4,0-4.5,1.1-6,2.8
		C38.4,14.9,32.3,9.9,25,9.9c-8.7,0-15.8,7.1-15.8,15.8S16.3,41.4,25,41.4c3.7,0,7.1-1.3,9.8-3.4c0,0,0,0.1-0.1,0.1
		c-0.1,0.3-0.2,0.5-0.3,0.8c0,0.1,0,0.1,0,0.2c-0.1,0.3-0.1,0.6-0.1,0.9v0.1c0,0.3,0,0.7,0,1l2.5,42.6c0,0.4,0.1,0.9,0.1,1.3
		c0.1,0.4,0.3,0.8,0.5,1.2c0.2,0.4,0.4,0.8,0.7,1.1c0.1,0.2,0.3,0.3,0.4,0.5c1.3,1.5,3.3,2.4,5.3,2.4h20.9v-0.1h7
		c0.3,0,0.6,0,0.9-0.1h0.2c0.2,0,0.4-0.1,0.6-0.1l0.2-0.1c0.6-0.2,1.1-0.4,1.6-0.7l0.1-0.1c0.2-0.1,0.5-0.3,0.7-0.5c0,0,0,0,0.1,0
		c0.7-0.6,1.3-1.3,1.8-2.1c0.3-0.1,0.7-0.3,1-0.5c0.6-0.3,1.2-0.8,1.6-1.3l0.1-0.1c0.2-0.2,0.4-0.5,0.6-0.8c0.2-0.3,0.4-0.6,0.5-0.8
		l0.1-0.2c0.1-0.3,0.2-0.6,0.3-0.9c0.1-0.3,0.2-0.7,0.2-1c0-0.1,0-0.2,0-0.2c0-0.3,0.1-0.7,0.1-1v-1.4c0-0.3,0-0.7-0.1-1
		C82.3,77.5,82.3,77.4,82.3,77.3z M36.7,25.6c0,2.5-0.8,4.8-2.1,6.8L18.2,16c1.9-1.3,4.2-2.1,6.7-2.1C31.5,13.9,36.7,19.1,36.7,25.6
		z M13.2,25.6c0-2.5,0.8-4.8,2.1-6.7l16.4,16.4c-1.9,1.3-4.2,2.1-6.7,2.1C18.5,37.4,13.2,32.1,13.2,25.6z M38.1,34.4L38.1,34.4
		c0.1-0.3,0.3-0.6,0.5-0.9l0,0.7C38.5,34.2,38.3,34.3,38.1,34.4z M42.7,25.2c0.6-1.4,2-2.3,3.5-2.3h3.7c0.3,0,0.5,0,0.8,0.1
		c0.7,0.1,1.4,0.5,1.9,1c0.7,0.7,1.1,1.6,1.2,2.6v0.1H42.4C42.4,26.1,42.5,25.7,42.7,25.2z M51.6,39.7l-6.1-4.6h0
		c-0.3-0.2-0.5-0.4-0.8-0.5l-0.3-0.1l-0.6-0.3c-0.1,0-0.2-0.1-0.3-0.1c-0.3-0.1-0.5-0.2-0.8-0.2l-0.1-3.1h11.3l0.1,2.8l0.3,8.3
		L51.6,39.7z"/>
	<path d="M96.5,78.7c-0.3-0.6-0.9-1-1.6-1h-6.7c-1,0-1.8,0.8-1.8,1.8c0,0.6,0.3,1.2,0.8,1.5c0.3,0.2,0.6,0.3,1,0.3h6.8
		c0.4,0,0.7-0.1,1-0.3c0.2-0.1,0.4-0.3,0.5-0.5c0.2-0.3,0.3-0.6,0.3-1C96.7,79.2,96.6,78.9,96.5,78.7z"/>
	<path d="M93.2,87.1c-0.1-0.2-0.3-0.4-0.5-0.5l-5.8-3.4c-0.4-0.3-0.9-0.3-1.4-0.2c-0.2,0.1-0.4,0.2-0.6,0.3
		c-0.2,0.1-0.3,0.3-0.5,0.5c-0.3,0.5-0.3,1.1-0.1,1.6c0.2,0.4,0.4,0.7,0.8,0.9l5.8,3.4c0.7,0.4,1.7,0.3,2.3-0.4
		c0.1-0.1,0.2-0.2,0.2-0.3C93.7,88.4,93.6,87.6,93.2,87.1L93.2,87.1z"/>
	<path d="M84.5,75.4c0.6,0.6,1.5,0.8,2.3,0.4l5.8-3.4c0.4-0.2,0.7-0.6,0.8-1.1c0.1-0.5,0-0.9-0.2-1.3c-0.1-0.2-0.3-0.4-0.5-0.5
		c-0.2-0.1-0.4-0.2-0.6-0.3c-0.5-0.1-1-0.1-1.4,0.2L85,72.7c-0.2,0.1-0.4,0.3-0.5,0.5c-0.1,0.1-0.1,0.2-0.2,0.3
		C84,74,84,74.6,84.3,75.1C84.4,75.2,84.5,75.3,84.5,75.4z"/>
</g>
</svg>
