<?xml version="1.0" encoding="utf-8"?>
<!-- Generator: Adobe Illustrator 24.2.3, SVG Export Plug-In . SVG Version: 6.00 Build 0)  -->
<svg version="1.1" id="Layer_1" xmlns="http://www.w3.org/2000/svg" xmlns:xlink="http://www.w3.org/1999/xlink" x="0px" y="0px"
	 viewBox="0 0 100 100" style="enable-background:new 0 0 100 100;" xml:space="preserve">
<g>
	<path d="M74.4,43.4c8.8,0,15.9-7.1,15.9-15.9s-7.1-15.9-15.9-15.9s-15.9,7.1-15.9,15.9S65.6,43.4,74.4,43.4z M74.4,15.7
		c6.5,0,11.8,5.3,11.8,11.8l0,0c0,6.5-5.3,11.8-11.8,11.8S62.6,34,62.6,27.5C62.6,21,67.9,15.7,74.4,15.7z"/>
	<path d="M86.5,62.6L72.1,47.7c-1.5-1.6-3.6-2.4-5.8-2.4H44.5c-3.7,0-6.8,2.5-7.7,5.9c-1.2-2.5-3.8-4.3-6.8-4.3
		c-4.2,0-7.5,3.4-7.5,7.5l0,0c0,3.5,1.6,6.4,5.2,7.3H26c-2.2,0-4-1.8-4-4V42.8c0-0.1,0-0.3,0-0.4c1.3,0.3,2.6,0.5,4,0.5
		c8.7,0,15.8-7.1,15.8-15.8S34.7,11.3,26,11.3s-15.8,7.1-15.8,15.8c0,3.4,1.1,6.6,3,9.2c-2.7,0.9-4.7,3.4-4.7,6.4v45.5h4v-9.8H87
		v9.8h4V69.7C91,66.6,89.2,63.9,86.5,62.6z M40.5,53.3c0-2.2,1.8-4,4-4h21.9c1.1,0,2.1,0.4,2.9,1.2l10.9,11.2H40.5V53.3L40.5,53.3z
		 M37.7,27.2c0,2.5-0.8,4.8-2.1,6.7L19.2,17.5c1.9-1.3,4.2-2.1,6.7-2.1C32.4,15.4,37.7,20.7,37.7,27.2z M16.3,20.4l16.4,16.4
		c-1.9,1.3-4.2,2.1-6.7,2.1c-6.5,0-11.8-5.3-11.8-11.8C14.2,24.7,15,22.4,16.3,20.4z M87,74.5H12.5V42.8c0-1.5,1.2-2.7,2.7-2.7
		s2.7,1.2,2.7,2.7v14.9c0,4.4,3.6,8,8,8h10.5h2l46,0.3c1.4,0.6,2.5,2,2.5,3.7L87,74.5L87,74.5z"/>
	<path d="M70.5,31.3c1.8,0,3.2-1.2,3.2-2.9l0,0c0-1.8-1.3-2.7-3-2.7c-0.8,0-1.3,0.3-1.7,0.5c0.1-1.1,0.6-1.9,1.7-1.9
		c0.5,0,0.9,0.1,1.2,0.3c0.1,0.1,0.3,0.1,0.5,0.1c0.5,0,0.9-0.4,0.9-0.9c0-0.4-0.2-0.6-0.5-0.8c-0.5-0.3-1.2-0.5-2-0.5
		c-2.5,0-3.7,2-3.7,4.6l0,0c0,1.7,0.4,2.6,1,3.2C68.7,31,69.4,31.3,70.5,31.3z M69,28.4c0-0.7,0.5-1.2,1.4-1.2s1.5,0.5,1.5,1.2l0,0
		c0,0.7-0.5,1.2-1.4,1.2S69,29.1,69,28.4L69,28.4z"/>
	<path d="M78.7,31.3c2.2,0,3.7-1.9,3.7-4.3l0,0c0-2.4-1.5-4.3-3.7-4.3S75,24.6,75,27l0,0C75,29.4,76.5,31.3,78.7,31.3z M76.9,26.9
		c0-1.5,0.7-2.7,1.8-2.7s1.8,1.2,1.8,2.7l0,0c0,1.5-0.7,2.7-1.8,2.7S76.9,28.5,76.9,26.9L76.9,26.9z"/>
</g>
</svg>
