<svg id="Layer_1" data-name="Layer 1" xmlns="http://www.w3.org/2000/svg" viewBox="0 0 100 100"><defs><style>.cls-1,.cls-2,.cls-3{fill:none;}.cls-2,.cls-3{stroke:#000;stroke-miterlimit:10;}.cls-2{stroke-width:4px;}.cls-3{stroke-width:4.66px;}</style></defs><g id="_254" data-name="254"><rect class="cls-1" x="7.29" y="11.73" width="80" height="80"/></g><path class="cls-2" d="M73.05,36.61H50.59a3.89,3.89,0,0,0-3.87,4.24l1,11.46a7.5,7.5,0,0,1,3.5-.87,7.66,7.66,0,0,1,7.5,6.08,7.64,7.64,0,0,1,5.64,2.87h2.72a3.87,3.87,0,0,1,3.81,4.66c-1.68,7.53-7.36,13.74-15,16.75V84a4.31,4.31,0,0,1-3,4.11,3.8,3.8,0,0,0,1.58.35H69.1A3.89,3.89,0,0,0,73,84.91l4-44.06A3.89,3.89,0,0,0,73.05,36.61Z"/><path d="M55.93,53a7.63,7.63,0,0,1,2.82,4.48,7.64,7.64,0,0,1,5.64,2.87h2.72a3.87,3.87,0,0,1,3.81,4.66c-1.68,7.53-7.36,13.74-15,16.75V84a4.31,4.31,0,0,1-3,4.11,3.8,3.8,0,0,0,1.58.35H69.1A3.89,3.89,0,0,0,73,84.91L75.83,53Z"/><rect class="cls-1" x="15.02" y="32.29" width="57.6" height="57.6"/><path d="M68.26,62.63H22.47l.84-3a10,10,0,0,1,7-6.92A10,10,0,0,1,47.2,48.22,10,10,0,0,1,59.74,54a10,10,0,0,1,6.82,5.28ZM29.94,58H56l-.29-1.41a5.32,5.32,0,0,0-8-3.47l-2,1.19-1.22-2a5.32,5.32,0,0,0-9.83,2.54l-.1,2.07-2.06.14A5.36,5.36,0,0,0,29.94,58Z"/><path class="cls-2" d="M34.45,81.84V84a4.32,4.32,0,0,0,4.32,4.32H50.86A4.33,4.33,0,0,0,55.18,84V81.8"/><path class="cls-3" d="M44.76,83.78c12.53,0,23-8,25.37-18.73a3.87,3.87,0,0,0-3.81-4.66H23.21a3.88,3.88,0,0,0-3.82,4.66C21.79,75.74,32.24,83.78,44.76,83.78Z"/><circle class="cls-2" cx="25.26" cy="23.33" r="13.77"/><path d="M17.1,12.24a13.7,13.7,0,0,0-2.92,2.92L33.43,34.41a13.7,13.7,0,0,0,2.92-2.92Z"/><path d="M77.41,39.85A15.88,15.88,0,1,1,93.28,24,15.89,15.89,0,0,1,77.41,39.85Zm0-30.24A14.37,14.37,0,1,0,91.77,24,14.39,14.39,0,0,0,77.41,9.61Z"/><path d="M77.48,8.86v5.6a9.52,9.52,0,0,1,0,19v5.6a15.12,15.12,0,0,0,0-30.24Z"/><path d="M70.42,27a.69.69,0,0,1-.22-.5.68.68,0,0,1,.67-.67.67.67,0,0,1,.46.18,2.42,2.42,0,0,0,1.8.76,1.25,1.25,0,0,0,1.38-1.2v0c0-.79-.72-1.23-1.83-1.23H72.4a.6.6,0,0,1-.6-.6.82.82,0,0,1,.29-.57l1.86-2H71.07a.61.61,0,1,1,0-1.21h4.06a.62.62,0,0,1,.69.61,1,1,0,0,1-.4.76l-1.87,1.94c1.21.14,2.34.76,2.34,2.22v0A2.54,2.54,0,0,1,73.11,28,3.74,3.74,0,0,1,70.42,27Z"/><path d="M77.24,23.94v0c0-2.26,1.38-4.1,3.47-4.1s3.45,1.81,3.45,4.08v0c0,2.27-1.39,4.11-3.47,4.11S77.24,26.2,77.24,23.94Zm5.48,0v0c0-1.56-.81-2.84-2-2.84s-2,1.25-2,2.82v0c0,1.57.79,2.85,2,2.85S82.72,25.49,82.72,23.94Z"/></svg>