<?xml version="1.0" encoding="utf-8"?>
<!-- Generator: Adobe Illustrator 24.0.0, SVG Export Plug-In . SVG Version: 6.00 Build 0)  -->
<svg version="1.1" id="Layer_1" xmlns="http://www.w3.org/2000/svg" xmlns:xlink="http://www.w3.org/1999/xlink" x="0px" y="0px"
	 viewBox="0 0 100 100" style="enable-background:new 0 0 100 100;" xml:space="preserve">
<g>
	<path d="M36.9,23.4c0-7.6-6.2-13.8-13.8-13.8S9.2,15.7,9.2,23.4S15.4,37.2,23,37.2S36.9,31,36.9,23.4z M32.9,23.4
		c0,2.1-0.7,4-1.8,5.6L17.4,15.3c1.6-1.1,3.5-1.7,5.6-1.7C28.4,13.5,32.9,17.9,32.9,23.4z M13.2,23.4c0-2.1,0.6-4,1.7-5.6l13.7,13.7
		c-1.6,1.1-3.5,1.7-5.6,1.7C17.6,33.2,13.2,28.8,13.2,23.4z"/>
	<path d="M90.3,81.9c0-0.3-0.9-7.9-5.9-11.1c-3.8-2.4-14.5-5.3-18.4-6.3c4.4-3.5,7.5-8.4,8.7-13.9c0.1-0.4,0.4-0.8,0.8-1l0.9-0.4
		c1-0.5,1.8-1.3,2.2-2.4c0.4-1.1,0.4-2.2-0.1-3.3c-0.2-0.5-0.6-1-1-1.4l-0.8-0.7c-1.1-1-1.8-2.3-2.2-3.8
		c-2.7-9.7-10.4-16.2-19.3-16.2C44.1,21.6,35,31.8,35,44.5c0,7.9,3.6,15.7,9.4,20.1c-3.9,1-14.7,3.9-18.5,6.3
		C20.9,74,20,81.6,20,81.9c-0.1,1.1,0.7,2.1,1.8,2.2c0.1,0,0.2,0,0.2,0c1,0,1.9-0.8,2-1.8c0-0.1,0.8-6,4.1-8.1
		c3-1.9,12.9-4.7,17.6-5.9c1,2.4,3,4.4,5.5,5.4l0.7,0.2l0.1-0.3v8.9c0,1.8,1.4,3.2,3.2,3.2c1.8,0,3.2-1.4,3.2-3.2v-8.8l0.1,0.3
		c2.9-0.9,5.2-3,6.4-5.7c4.7,1.2,14.4,3.9,17.4,5.8c2.8,1.8,3.9,6.5,4.1,8.1c0.1,1,1,1.8,2,1.8c0.1,0,0.1,0,0.2,0
		C89.6,84,90.4,83,90.3,81.9z M57.6,71.5c0,1.3-1,2.3-2.3,2.3s-2.3-1-2.3-2.3s1-2.3,2.3-2.3c1.2,0,2.1,0.9,2.2,2c0,0,0,0,0,0l0,0.1
		C57.6,71.4,57.6,71.4,57.6,71.5z M58.4,70.8V66c0-4.5,1.2-8.1,5.6-8.1c1.8,0,3.2-1.4,3.2-3.2c0-1.8-1.4-3.2-3.2-3.2v0
		c-8,0-12.1,6.5-12.1,14.5v4.8c-1.8-0.8-3.2-2.4-3.8-4.3c0-0.2,0-0.5,0-0.8c-0.1-0.2-0.1-0.4-0.3-0.6c0-0.3-0.1-0.7,0-1l0-0.8
		l-0.7-0.5c-2.6-1.8-4.8-4.4-6.4-7.4c1.3-0.5,3.2-1.4,5.3-3.3c2-1.9,3.1-4.7,2.9-7.5c-0.3-0.6-0.4-1.3-0.4-2
		c-0.1-2.6,1.9-4.8,4.5-4.9c0.9,0,1.7-0.5,2.1-1.3c0.6-1.6,2-3.7,4.4-3.8c3.1-0.1,6.9-0.1,9.2,0c1.2,1.8,2.1,3.8,2.7,6.1
		c0.5,2,1.6,3.8,3.1,5.2l0.8,0.7c0.1,0.1,0.2,0.2,0.3,0.4c0.1,0.3,0.1,0.6,0,0.9c-0.1,0.3-0.3,0.5-0.6,0.7l-0.9,0.4
		c-1.3,0.6-2.2,1.7-2.5,3.1c-1.1,5.1-4.1,9.6-8.3,12.8l-0.6,0.5v0.9c0,0.3,0,0.5-0.1,0.8c-0.2,0.2-0.4,0.5-0.5,0.8
		c-0.1,0.3-0.1,0.7,0,1C61.5,68.5,60.2,70,58.4,70.8z"/>
</g>
</svg>
