<svg id="Layer_1" data-name="Layer 1" xmlns="http://www.w3.org/2000/svg" viewBox="0 0 100 100"><defs><style>.cls-1,.cls-2{fill:none;stroke:#000;stroke-miterlimit:10;stroke-width:4px;}.cls-2{stroke-linecap:round;}</style></defs><path d="M55.54,88.94a26.72,26.72,0,0,1-11-2.46c-14.19-6.59-25.44-16.2-31.29-31.15-1.37-3.52-2.63-7.18-1.82-11.07C12.46,39,16,35.72,20.51,33.44c1.94-1,2.74-.59,3.92,1.21q3.3,5,6.58,10c1.1,1.69,1.08,2.46-.32,3.91s-2.87,2.63-4.28,4c-1.91,1.82-2.16,2.53-.86,4.82a29,29,0,0,0,4.1,5.75A73,73,0,0,0,45,75.22c2.14,1.31,2.85,1.14,4.4-.81,1.12-1.4,2.12-2.89,3.25-4.28,1.5-1.82,2.34-2,4.35-.87,3.57,1.92,7.1,3.92,10.69,5.79A2.2,2.2,0,0,1,69,77.89c-1.5,5.68-5.27,9.06-10.82,10.59C57.2,88.74,56.19,88.82,55.54,88.94Z"/><circle class="cls-1" cx="73.1" cy="26.04" r="14.98"/><line class="cls-2" x1="65.74" y1="25.59" x2="80.79" y2="25.59"/><line class="cls-2" x1="73.26" y1="33.12" x2="73.26" y2="18.07"/><path class="cls-2" d="M43.13,47.67a8,8,0,0,1,7.95,7.95"/><path class="cls-2" d="M43.67,39.68A14.81,14.81,0,0,1,58.48,54.49"/></svg>