<?xml version="1.0" encoding="utf-8"?>
<!-- Generator: Adobe Illustrator 24.2.3, SVG Export Plug-In . SVG Version: 6.00 Build 0)  -->
<svg version="1.1" id="Layer_1" xmlns="http://www.w3.org/2000/svg" xmlns:xlink="http://www.w3.org/1999/xlink" x="0px" y="0px"
	 viewBox="0 0 100 100" style="enable-background:new 0 0 100 100;" xml:space="preserve">
<style type="text/css">
	.st0{enable-background:new    ;}
</style>
<g class="st0">
	<path d="M50.5,46.5c-8.5,0-12.8,3.1-12.8,9.4c0,6.9,5.4,11.8,12.8,11.8c7.4,0,12.8-5,12.8-11.8C63.3,49.7,59,46.5,50.5,46.5z
		 M50.5,64.7c-1.9,0-3.6-0.4-5-1.2c4.7-1.2,9.4-1.3,12.3-1.5C56,63.7,53.5,64.7,50.5,64.7z M50.7,57.9l1.5-0.5v-2.1
		c1.6,0.4,2.6,2,2.2,3.6c-0.3,1.1-1.1,1.9-2.2,2.2h-0.1c-1.1,0.2-2.2-0.1-2.9-0.9l1.8-0.8L50.7,57.9z M48.3,57.3l0.8,1.3l-1.5,1.2
		c-0.3-0.2-0.6-0.4-0.8-0.7c-0.1-0.1-0.2-0.2-0.2-0.3c-0.9-1.4-0.4-3.2,1-4.1l0.2-0.1c0.3-0.2,0.7-0.3,1.1-0.3l0.7,2L48.3,57.3z
		 M60.2,56c-1.6-1.5-4.7-3.2-10.2-3c-4.5,0.2-7.6,1.9-9.2,3.4c0-0.2,0-0.3,0-0.5c0-3.1,1.2-6.3,9.7-6.3C59,49.6,60.2,52.8,60.2,56
		C60.2,55.9,60.2,55.9,60.2,56z"/>
	<path d="M90.2,90.9c0-0.4-1.1-8.9-6.7-12.5c-4.2-2.7-16.6-6-21.1-7.2c0,0,0,0,0,0c6.8-5.2,11-14.1,11-23.5
		c0-14.6-10.5-26.5-23.4-26.5S26.8,33.1,26.8,47.8c0,9.2,4.3,18.3,11,23.5c-4.4,1.1-16.9,4.5-21.1,7.2c-5.6,3.5-6.6,12.1-6.7,12.5
		c-0.1,1.1,0.7,2.1,1.8,2.2c0.1,0,0.2,0,0.2,0c1,0,1.9-0.8,2-1.8c0-0.1,0.8-7,4.8-9.5c3.4-2.2,14.6-5.3,20.1-6.7
		c0.6,1.5,1.5,2.8,2.6,3.9c1.8,1.8,4,2.9,6.4,3.4v4l-1.1-1.1c-0.8-0.8-2-0.8-2.8,0s-0.8,2,0,2.8l5.9,5.9l5.9-5.9
		c0.8-0.8,0.8-2,0-2.8c-0.8-0.8-2-0.8-2.8,0l-1.1,1.1v-4c4.3-0.6,7.9-3.5,9.6-7.4c5.5,1.4,16.5,4.5,19.9,6.7c4,2.5,4.8,9.4,4.8,9.5
		c0.1,1,1,1.8,2,1.8c0.1,0,0.1,0,0.2,0C89.5,93,90.3,92,90.2,90.9z M59.4,68.6c-0.5,0.4-0.9,1-0.9,1.6v0.1c0,4.5-3.6,8.2-8.1,8.3
		c-0.2,0-0.3-0.1-0.5-0.1c-0.1,0-0.3,0-0.4,0c-1.9-0.2-3.8-1-5.2-2.4c-1.6-1.6-2.4-3.6-2.4-5.9c0-0.7-0.3-1.3-0.9-1.6
		c-6.3-4.3-10.3-12.5-10.3-20.9c0-12.4,8.7-22.5,19.4-22.5c10.7,0,19.4,10.1,19.4,22.5C69.5,56.1,65.5,64.3,59.4,68.6z"/>
	<path d="M21.6,33.9c-7.4,0-13.3-6-13.3-13.3c0-7.4,6-13.3,13.3-13.3s13.3,6,13.3,13.3C34.9,27.9,28.9,33.9,21.6,33.9z M21.6,10.2
		c-5.7,0-10.3,4.6-10.3,10.3c0,5.7,4.6,10.3,10.3,10.3s10.3-4.6,10.3-10.3C31.9,14.9,27.3,10.2,21.6,10.2z"/>
	<path d="M19.4,19.1l2.1-1.7c0.9-0.7,1.2-1.1,1.2-1.7c0-0.6-0.4-0.9-1-0.9c-0.5,0-0.8,0.2-1.2,0.6c-0.1,0.1-0.3,0.2-0.5,0.2
		c-0.4,0-0.7-0.3-0.7-0.7c0-0.2,0.1-0.4,0.2-0.5c0.6-0.7,1.3-1.1,2.4-1.1c1.5,0,2.5,0.9,2.5,2.2v0c0,1.2-0.6,1.8-1.9,2.8l-1.2,0.9
		h2.5c0.4,0,0.7,0.3,0.7,0.7s-0.3,0.7-0.7,0.7h-3.9c-0.5,0-0.9-0.3-0.9-0.8C19,19.6,19.1,19.3,19.4,19.1z"/>
	<path d="M13.6,26.3c0,0-0.1-0.1-0.1-0.2c0-0.1,0.1-0.2,0.2-0.2c0,0,0.1,0,0.1,0c0.4,0.2,0.7,0.4,1.1,0.4c0.4,0,0.7-0.2,0.7-0.6v0
		c0-0.4-0.4-0.5-0.9-0.6c-0.6-0.2-1.2-0.4-1.2-1v0c0-0.6,0.5-1,1.2-1c0.4,0,0.8,0.1,1.1,0.3c0.1,0,0.1,0.1,0.1,0.2
		c0,0.1-0.1,0.2-0.2,0.2c0,0-0.1,0-0.1,0c-0.3-0.2-0.6-0.3-0.9-0.3c-0.4,0-0.7,0.2-0.7,0.5v0c0,0.3,0.4,0.5,0.9,0.6
		c0.6,0.2,1.1,0.4,1.1,1v0c0,0.7-0.6,1.1-1.3,1.1C14.6,26.7,14,26.6,13.6,26.3z"/>
	<path d="M17,25.7v-2.1h-0.3c-0.1,0-0.2-0.1-0.2-0.2c0-0.1,0.1-0.2,0.2-0.2H17v-0.8c0-0.1,0.1-0.3,0.3-0.3c0.1,0,0.3,0.1,0.3,0.3
		v0.8h0.9c0.1,0,0.2,0.1,0.2,0.2c0,0.1-0.1,0.2-0.2,0.2h-0.9v2.1c0,0.4,0.2,0.6,0.6,0.6c0.2,0,0.3,0,0.3,0c0.1,0,0.2,0.1,0.2,0.2
		c0,0.1-0.1,0.2-0.2,0.2c-0.2,0.1-0.3,0.1-0.5,0.1C17.5,26.7,17,26.4,17,25.7z"/>
	<path d="M20.7,26.7c-1,0-1.8-0.8-1.8-1.9v0c0-1,0.7-1.9,1.7-1.9c1.1,0,1.7,0.9,1.7,1.8c0,0.1-0.1,0.2-0.2,0.2h-2.6
		c0.1,0.8,0.6,1.2,1.3,1.2c0.4,0,0.8-0.2,1-0.4c0,0,0.1-0.1,0.2-0.1c0.1,0,0.2,0.1,0.2,0.2c0,0.1,0,0.1-0.1,0.2
		C21.7,26.5,21.3,26.7,20.7,26.7z M21.8,24.7c-0.1-0.6-0.4-1.2-1.1-1.2c-0.6,0-1.1,0.5-1.2,1.2H21.8z"/>
	<path d="M22.9,23.3c0-0.2,0.1-0.3,0.3-0.3c0.2,0,0.3,0.1,0.3,0.3v0.5c0.3-0.4,0.7-0.8,1.4-0.8c0.9,0,1.7,0.7,1.7,1.8v0
		c0,1.2-0.8,1.9-1.7,1.9c-0.7,0-1.1-0.4-1.4-0.8v1.5c0,0.2-0.1,0.3-0.3,0.3s-0.3-0.1-0.3-0.3V23.3z M26,24.9L26,24.9
		c0-0.9-0.6-1.4-1.3-1.4c-0.7,0-1.3,0.6-1.3,1.4v0c0,0.8,0.6,1.4,1.3,1.4C25.4,26.3,26,25.8,26,24.9z"/>
	<path d="M26.9,26.3c0,0-0.1-0.1-0.1-0.2c0-0.1,0.1-0.2,0.2-0.2c0,0,0.1,0,0.1,0c0.4,0.2,0.7,0.4,1.1,0.4c0.4,0,0.7-0.2,0.7-0.6v0
		c0-0.4-0.4-0.5-0.9-0.6c-0.6-0.2-1.2-0.4-1.2-1v0c0-0.6,0.5-1,1.2-1c0.4,0,0.8,0.1,1.1,0.3c0.1,0,0.1,0.1,0.1,0.2
		c0,0.1-0.1,0.2-0.2,0.2c0,0-0.1,0-0.1,0c-0.3-0.2-0.6-0.3-0.9-0.3c-0.4,0-0.7,0.2-0.7,0.5v0c0,0.3,0.4,0.5,0.9,0.6
		c0.6,0.2,1.1,0.4,1.1,1v0c0,0.7-0.6,1.1-1.3,1.1C27.8,26.7,27.3,26.6,26.9,26.3z"/>
</g>
</svg>
