<?xml version="1.0" encoding="utf-8"?>
<!-- Generator: Adobe Illustrator 24.0.0, SVG Export Plug-In . SVG Version: 6.00 Build 0)  -->
<svg version="1.1" id="Layer_1" xmlns="http://www.w3.org/2000/svg" xmlns:xlink="http://www.w3.org/1999/xlink" x="0px" y="0px"
	 viewBox="0 0 100 100" style="enable-background:new 0 0 100 100;" xml:space="preserve">
<g>
	<path d="M93.3,43.7c0-0.4,0-0.8-0.1-1.2l0-1.2l0,0c-0.4-6.8-1.6-10.7-2.4-13.7c-0.6-2.2-1.1-3.7-1.1-5.7c0.1-3.7,0.9-7.3,2.3-10.7
		c0.4-1-0.1-2.2-1.1-2.6c-1-0.4-2.2,0.1-2.6,1.1c-1.6,3.8-2.5,7.9-2.6,12.1c0,2.6,0.6,4.5,1.3,6.9c0.9,3,1.9,6.7,2.3,13.4
		c-6,1.3-26.9,5.6-38.7,5.6c-11.7,0-32.2-4.3-38-5.6c0.1-2,0.4-3.9,0.8-5.8c1.4-4.6,2.1-8.3,1.6-12.6L12,12.1
		c-0.3-1.1-1.4-1.7-2.4-1.5c-1.1,0.3-1.7,1.4-1.5,2.4L11,24.4c0.4,3.5-0.3,6.8-1.5,10.9l0,0.1c-0.7,2.7-1,5.6-1,8.3c0,0,0,0,0,0
		c0,0.3,0,0.6,0,0.9c0,0.1,0,0.2,0,0.3c0,0.2,0,0.4,0,0.7c0,0.1,0,0.2,0,0.3c0,0.2,0,0.5,0,0.8c0,0.1,0,0.2,0,0.3c0,0.3,0,0.6,0,0.9
		c0,0.1,0,0.2,0,0.2c0,0.3,0,0.7,0.1,1c0,0,0,0.1,0,0.1c0,0.4,0,0.8,0.1,1.2c0,0,0,0,0,0c0.2,3.2,0.5,6.9,1,10.9c0,0,0,0,0,0
		c0.1,0.5,0.1,1,0.2,1.5c0,0.1,0,0.3,0,0.4c0,0.3,0.1,0.7,0.1,1c0,0.3,0.1,0.6,0.1,0.9c0,0.1,0,0.3,0,0.4c1.1,9.9,2.6,20.7,3.7,28.4
		c0,0,0,0,0,0l0.2,1.7h33.9l3.8-9.6l4.2,9.6h31.8L88,94c0.1-0.4,0.1-0.7,0.2-1.1C90.3,78,93.6,52.9,93.3,43.7z"/>
	<path d="M60,24.6l15.4,0.7c0.1,0,0.3,0,0.4,0c4.8,0,8.9-3.8,9.1-8.7l0.2-4.4c0.1-2.4-0.7-4.8-2.4-6.5c-1.6-1.8-3.9-2.8-6.3-2.9
		L61,2c-2.4-0.1-4.8,0.7-6.5,2.4c-1.8,1.6-2.8,3.9-2.9,6.3l-0.2,4.4c-0.1,2.4,0.7,4.8,2.4,6.5C55.4,23.4,57.6,24.5,60,24.6z"/>
</g>
</svg>
