<?xml version="1.0" encoding="utf-8"?>
<!-- Generator: Adobe Illustrator 24.2.3, SVG Export Plug-In . SVG Version: 6.00 Build 0)  -->
<svg version="1.1" id="Layer_1" xmlns="http://www.w3.org/2000/svg" xmlns:xlink="http://www.w3.org/1999/xlink" x="0px" y="0px"
	 viewBox="0 0 100 100" style="enable-background:new 0 0 100 100;" xml:space="preserve">
<g>
	<circle cx="52.1" cy="9.3" r="1.5"/>
	<circle cx="46.3" cy="14.8" r="1.5"/>
	<circle cx="58" cy="14.8" r="1.5"/>
	<circle cx="55.4" cy="23.4" r="1.5"/>
	<circle cx="47.8" cy="23.4" r="1.5"/>
	<circle cx="51.3" cy="31.5" r="1.5"/>
	<circle cx="43.6" cy="29.9" r="1.5"/>
	<circle cx="67.3" cy="26.5" r="1.6"/>
	<circle cx="60.3" cy="29.7" r="1.5"/>
	<circle cx="51.9" cy="16.3" r="1.5"/>
	<circle cx="36.7" cy="25.7" r="1.5"/>
	<circle cx="41.7" cy="19.7" r="1.5"/>
	<circle cx="62.8" cy="20.6" r="1.6"/>
	<path d="M87.5,57c-1.1-1.7-2.7-2.8-4.7-3.2c-0.5-0.1-1-0.1-1.5-0.2H80c-1.9-3.1-5.1-5.2-8.7-5.8c-2-6-8.2-9.7-14.5-8.4
		c-0.8,0.2-1.6,0.4-2.3,0.7c-4-4.7-10.9-5.9-16.3-2.6c-3,1.9-5.1,5-5.8,8.4c-4.1,0.8-7.5,3.7-9.1,7.6h-1.8c0,0,0,0-0.1,0
		c-1.9,0-3.8,0.8-5.2,2.1C14.8,57.2,14,59,14,61c0,0.5,0.1,1.1,0.2,1.6C16.6,73.4,24.5,82.2,35,86.7v1.7c0,4.4,3.6,8,8,8h16.8
		c4.4,0,8-3.6,8-8v-1.7c10.4-4.6,18.3-13.4,20.7-24.1C89,60.6,88.6,58.6,87.5,57z M34.3,49.8l1.8-0.1l0.1-1.8
		c0.1-2.8,1.7-5.4,4.1-6.9c4-2.5,9.4-1.3,11.9,2.8l1,1.7l1.7-1c0.8-0.5,1.8-0.9,2.7-1.1c4.6-1,9.2,2,10.2,6.7l0.3,1.5l1.6,0.1
		c1.8,0.1,3.6,0.7,5,1.9H27.8C29.3,51.4,31.6,50,34.3,49.8z M63.8,88.4c0,2.2-1.8,4-4,4H43c-2.2,0-4-1.8-4-4v-0.2
		c3.9,1.2,8.1,1.9,12.4,1.9c4.3,0,8.5-0.7,12.5-1.9V88.4z M84.6,61.7c-3.2,14.2-17.2,24.4-33.3,24.4S21.2,75.9,18.1,61.7
		c0-0.2-0.1-0.5-0.1-0.7c0-0.9,0.4-1.7,1-2.4c0.6-0.6,1.5-1,2.4-1c0,0,0,0,0,0h59.9c0.2,0,0.5,0,0.7,0.1c0.9,0.2,1.6,0.7,2.1,1.5
		C84.7,59.9,84.8,60.8,84.6,61.7z"/>
</g>
</svg>
