<svg id="Layer_1" data-name="Layer 1" xmlns="http://www.w3.org/2000/svg" viewBox="0 0 100 100"><defs><style>.cls-1{fill:none;}.cls-1,.cls-2{stroke:#000;stroke-linecap:round;stroke-miterlimit:10;stroke-width:4px;}</style></defs><polyline class="cls-1" points="35.93 33.37 29.58 24.34 39.54 17.33 45.89 26.35"/><rect class="cls-2" x="21.55" y="11.5" width="21.83" height="12.73" rx="6" transform="translate(-4.37 21.95) rotate(-35.14)"/><path class="cls-1" d="M68.55,50.16l16,22.71a6,6,0,0,1-1.45,8.36l-8,5.66a6,6,0,0,1-8.36-1.45L56.25,70.61"/><path class="cls-1" d="M35.37,41a6,6,0,0,1,1.45-8.36l8-5.66a6,6,0,0,1,8.36,1.46l3.51,5"/><path d="M51.7,32.32a2.81,2.81,0,0,1,2,.83h0a2.77,2.77,0,0,1,.16,3.94L37.43,53.39a1.16,1.16,0,0,0,.23,1.82,1,1,0,0,0,.56.16,1.27,1.27,0,0,0,.89-.38l18-18.19A2.59,2.59,0,0,1,59,36a2.63,2.63,0,0,1,2.19,1.17,2.69,2.69,0,0,1-.4,3.35L43.23,58.27a1.15,1.15,0,0,0,0,1.63h0a1.14,1.14,0,0,0,.82.34,1.16,1.16,0,0,0,.82-.34L61.27,43.47a2.83,2.83,0,0,1,2-.84,2.87,2.87,0,0,1,2,.84l.06.06a2.76,2.76,0,0,1,0,3.91L48.13,64.59a1.15,1.15,0,0,0,0,1.64h0a1.2,1.2,0,0,0,.82.34,1.17,1.17,0,0,0,.82-.34L62,54.06A2.93,2.93,0,0,1,64,53.2a2.56,2.56,0,0,1,1.45.43,2.75,2.75,0,0,1,.44,4.25l-25,25a16.38,16.38,0,0,1-23.19,0c-.78-.77-1.58-1.65-2.37-2.6a18.44,18.44,0,0,1-.36-23,29.33,29.33,0,0,1,2.65-3L28.37,43.55a2.93,2.93,0,0,1,2.07-.86,2.56,2.56,0,0,1,1.45.43,2.75,2.75,0,0,1,.44,4.25l-5.65,5.7a1.11,1.11,0,0,0,.79,1.9,1.09,1.09,0,0,0,.79-.32l21.45-21.5a2.81,2.81,0,0,1,2-.83m0-4a6.77,6.77,0,0,0-4.82,2L35.82,41.41a7.14,7.14,0,0,0-1.71-1.62,6.64,6.64,0,0,0-3.67-1.1,7,7,0,0,0-4.9,2L14.79,51.47a34.91,34.91,0,0,0-3,3.43,22.31,22.31,0,0,0,.46,28c.85,1,1.73,2,2.62,2.87a20.39,20.39,0,0,0,28.85,0l25-25A6.75,6.75,0,0,0,68,50.5l.23-.23a6.76,6.76,0,0,0,0-9.56l0-.05A6.87,6.87,0,0,0,65.54,39a6.48,6.48,0,0,0-1.09-4A6.62,6.62,0,0,0,59,32a7,7,0,0,0-1.12.09,6.87,6.87,0,0,0-1.31-1.79,6.77,6.77,0,0,0-4.82-2Z"/><path d="M61.52,77.73,60,79.24a16.34,16.34,0,0,1-18.64,3.19l-.47.47A16.24,16.24,0,0,1,38,85.18a20.36,20.36,0,0,0,24.81-3.11l1-1Z"/><path d="M89.8,51.6a6.76,6.76,0,0,0-2.72-4.77l.22-.22a6.76,6.76,0,0,0,0-9.57L87.26,37a6.79,6.79,0,0,0-2.61-1.64,6.45,6.45,0,0,0-1.08-4,6.63,6.63,0,0,0-5.51-2.95,5.8,5.8,0,0,0-1.11.1,7.19,7.19,0,0,0-1.32-1.8,6.82,6.82,0,0,0-9.63,0L54.93,37.75a6.87,6.87,0,0,0-.85-.94,2.83,2.83,0,0,1-.23.28l-2.59,2.57a2.77,2.77,0,0,1,1,2l4.85-4.9a2.61,2.61,0,0,1,4,.39l7.7-7.71a2.82,2.82,0,0,1,4,0A2.77,2.77,0,0,1,73,33.42l-9.31,9.24a2.87,2.87,0,0,1,1.66.81l.06.06.25.3L76.2,33.13a2.62,2.62,0,0,1,4,.4,2.68,2.68,0,0,1-.4,3.35L67.71,49.17l1.39,2L80.38,39.8a2.86,2.86,0,0,1,4.05,0l.06.07a2.74,2.74,0,0,1,0,3.9l-12.07,12,1.36,1.91,7.29-7.29a3,3,0,0,1,2.07-.87,2.61,2.61,0,0,1,1.45.43A2.77,2.77,0,0,1,85,54.22l-8,8,2.35,3.3,8.5-8.49A6.73,6.73,0,0,0,89.8,51.6Z"/></svg>