<?xml version="1.0" encoding="utf-8"?>
<!-- Generator: Adobe Illustrator 24.0.0, SVG Export Plug-In . SVG Version: 6.00 Build 0)  -->
<svg version="1.1" id="Layer_1" xmlns="http://www.w3.org/2000/svg" xmlns:xlink="http://www.w3.org/1999/xlink" x="0px" y="0px"
	 viewBox="0 0 100 100" style="enable-background:new 0 0 100 100;" xml:space="preserve">
<g>
	<path d="M42.4,25.6c0-8.7-7.1-15.8-15.8-15.8s-15.8,7.1-15.8,15.8s7.1,15.8,15.8,15.8S42.4,34.3,42.4,25.6z M38.4,25.6
		c0,2.5-0.8,4.8-2.1,6.7L19.9,15.9c1.9-1.3,4.2-2.1,6.7-2.1C33.1,13.8,38.4,19.1,38.4,25.6z M14.8,25.6c0-2.5,0.8-4.8,2.1-6.7
		l16.4,16.4c-1.9,1.3-4.2,2.1-6.7,2.1C20.1,37.3,14.8,32.1,14.8,25.6z"/>
	<path d="M31.9,56.3c0-1.2,0.5-2.3,1.3-3.1c0.8-0.8,1.9-1.3,3.1-1.3c0,0,0,0,0,0c1.1,0,2-0.9,2-2c0-1.1-0.9-2-2-2c0,0,0,0,0,0
		c-2.2,0-4.3,0.9-5.9,2.4c-1.6,1.6-2.5,3.7-2.5,5.9c0,1.1,0.9,2,2,2c0,0,0,0,0,0C31,58.3,31.9,57.4,31.9,56.3z"/>
	<path d="M35.8,45.6c1.1,0,2-0.9,2-2c0-1.1-0.9-2-2-2c0,0,0,0,0,0c-7.6,0-13.8,6.3-13.8,13.9c0,1.1,0.9,2,2,2s2-0.9,2-2
		C26,50.1,30.4,45.7,35.8,45.6z"/>
	<path d="M76.1,77.6c-1.1,0-2,0.9-2,2c0,2.4-1.9,4.4-4.4,4.4l0,4c4.6,0,8.3-3.8,8.3-8.4C78.1,78.5,77.2,77.6,76.1,77.6
		C76.1,77.6,76.1,77.6,76.1,77.6z"/>
	<path d="M82.5,78.1c-1.1,0-2,0.9-2,2c0,5.4-4.4,9.8-9.8,9.8c-1.1,0-2,0.9-2,2c0,1.1,0.9,2,2,2c0,0,0,0,0,0
		c7.6,0,13.8-6.2,13.8-13.8C84.5,79,83.6,78.1,82.5,78.1z"/>
	<path d="M79.6,39.2l2.7-4.4c1-1.7,0.5-3.9-1.1-4.9l-6-3.8c-1.7-1-3.9-0.5-4.9,1.2l-2.7,4.3c-4.8-2.9-11.1-1.5-14.2,3.3L32.1,68.6
		c-3.1,4.8-1.6,11.3,3.2,14.3l11.7,7.4c1.7,1.1,3.6,1.6,5.5,1.6c0.8,0,1.5-0.1,2.3-0.3c2.7-0.6,5-2.2,6.5-4.6l21.3-33.7
		C85.7,48.7,84.3,42.3,79.6,39.2z M78.4,40.8L78.4,40.8L78.4,40.8L78.4,40.8z M76.3,54.1L59.7,80.3L39,67.3L55.6,41L76.3,54.1z"/>
</g>
</svg>
