<?xml version="1.0" encoding="utf-8"?>
<!-- Generator: Adobe Illustrator 24.0.0, SVG Export Plug-In . SVG Version: 6.00 Build 0)  -->
<svg version="1.1" id="Layer_1" xmlns="http://www.w3.org/2000/svg" xmlns:xlink="http://www.w3.org/1999/xlink" x="0px" y="0px"
	 viewBox="0 0 100 100" style="enable-background:new 0 0 100 100;" xml:space="preserve">
<path d="M83.2,37.8c0-23.6-25-23.6-33.2-23.6c-8.2,0-33.2,0-33.2,23.6c-0.1,5.2,1.3,10.3,3.8,14.8C24.9,74.4,36.4,88,50,88
	c13.6,0,25.1-13.5,29.4-35.5C81.9,48.1,83.2,43,83.2,37.8z M45.4,65.6c-1,1-2.6,1-3.6,0c-1-1-1-2.6,0-3.6c1-1,2.6-1,3.6,0
	C46.3,63,46.3,64.6,45.4,65.6z M42.2,53C42.2,53,42.2,53,42.2,53c-1.4-1.4-1.4-3.7,0-5.1s3.7-1.4,5.1,0c1.4,1.4,1.4,3.7,0,5.1
	C45.9,54.4,43.6,54.4,42.2,53z M50.7,72.3c-0.5,0.6-1.4,0.6-2,0c0,0,0,0,0,0c-0.5-0.6-0.5-1.4,0-2c0.6-0.5,1.4-0.5,2,0
	C51.3,70.9,51.3,71.8,50.7,72.3z M52.6,60.4C52.6,60.4,52.6,60.4,52.6,60.4L52.6,60.4c-1-1-1-2.6,0-3.6c1-1,2.6-1,3.5,0
	c1,1,1,2.6,0,3.5C55.1,61.3,53.5,61.3,52.6,60.4z M57.5,68.3C57.5,68.3,57.4,68.4,57.5,68.3L57.5,68.3c-0.6,0.6-1.5,0.6-2.1,0
	c-0.5-0.6-0.5-1.4,0-2c0.5-0.5,1.4-0.5,2,0C58,66.9,58,67.7,57.5,68.3z M57.3,49.4C57.3,49.4,57.3,49.4,57.3,49.4L57.3,49.4
	c-1.4,1.3-3.5,1.3-4.9,0c-1.3-1.3-1.3-3.5,0-4.8c1.3-1.3,3.5-1.3,4.8,0c0,0,0,0,0,0C58.6,45.9,58.6,48.1,57.3,49.4z M62.8,44.4
	c-0.4,2.6-6.7-5.8-12.6-1.9c-5.9,3.8-12.7,4.8-13.2,2.3c-1.3-7.1,3.4-13.9,10.5-15.2S61.5,33,62.8,40.1C63,41.5,63.1,43,62.8,44.4z
	 M49.2,26.8C34,27,24.5,35.7,21.1,41.6c-0.2-1.3-0.3-2.5-0.2-3.8c0-13.4,9.3-19.6,29.2-19.6s29.2,6.2,29.2,19.7c0,1.1,0,2.2-0.2,3.2
	C75.2,35.3,64.8,26.7,49.2,26.8z"/>
</svg>
