<?xml version="1.0" encoding="utf-8"?>
<!-- Generator: Adobe Illustrator 24.2.3, SVG Export Plug-In . SVG Version: 6.00 Build 0)  -->
<svg version="1.1" id="Layer_1" xmlns="http://www.w3.org/2000/svg" xmlns:xlink="http://www.w3.org/1999/xlink" x="0px" y="0px"
	 viewBox="0 0 100 100" style="enable-background:new 0 0 100 100;" xml:space="preserve">
<g>
	<path d="M65.5,56.1l-5.4-13.7c1.4-1,2.4-2.7,2.4-4.6c0-3.1-2.6-5.7-5.7-5.7h-9.4c-3.1,0-5.7,2.6-5.7,5.7c0,1.8,0.8,3.4,2.2,4.5
		l-5.4,13.9c-0.3,0.8-0.5,1.6-0.5,2.5v10.7v10.4v8c0,3.7,3.1,6.8,6.8,6.8h14.4c3.8,0,6.8-3.1,6.8-6.8v-8c0,0,0,0,0,0c0,0,0,0,0,0
		V69.3V58.6C65.9,57.7,65.8,56.9,65.5,56.1z M47.4,36h9.4c0.9,0,1.7,0.8,1.7,1.7c0,0.7-0.4,1.3-1,1.6H46.7c-0.6-0.3-1-0.9-1-1.6
		C45.7,36.8,46.4,36,47.4,36z M61.9,79.6c0,1.5-1.2,2.8-2.8,2.8H44.7c0,0,0,0,0,0c-0.7,0-1.4-0.3-2-0.8c-0.5-0.5-0.8-1.2-0.8-2V69.3
		c0-1.5,1.3-2.8,2.8-2.8h14.4c1.5,0,2.8,1.3,2.8,2.8V79.6L61.9,79.6z"/>
	<circle cx="52.3" cy="14.3" r="1.5"/>
	<circle cx="46.4" cy="19.8" r="1.5"/>
	<path d="M58.2,21.3c0.9,0,1.5-0.7,1.5-1.5c0-0.9-0.7-1.6-1.5-1.6c-0.9,0-1.5,0.7-1.5,1.6C56.6,20.6,57.3,21.3,58.2,21.3z"/>
	<circle cx="55.6" cy="28.4" r="1.5"/>
	<circle cx="48" cy="28.4" r="1.5"/>
	<circle cx="52.1" cy="21.3" r="1.5"/>
	<path d="M40.3,24.7c0,0.9,0.7,1.6,1.5,1.6c0.9,0,1.5-0.7,1.5-1.6c0-0.9-0.7-1.5-1.5-1.5C41,23.1,40.3,23.8,40.3,24.7z"/>
	<path d="M64.5,25.6c0-0.9-0.7-1.5-1.5-1.5c-0.9,0-1.6,0.7-1.6,1.5s0.7,1.5,1.6,1.5C63.8,27.2,64.5,26.5,64.5,25.6z"/>
	<path d="M39,7.2c-3-2.4-7.4-1.9-9.8,1.2l-0.3,0.4c-2.3,3.1-1.6,7.4,1.4,9.7l7.4,5.7l8.7-11.3L39,7.2z M36.9,18.6l-4.2-3.3
		c-1.3-1-1.6-2.9-0.6-4.1l0.3-0.3c0.6-0.7,1.5-1.1,2.3-1.1c0.7,0,1.3,0.2,1.9,0.6l4.2,3.3L36.9,18.6z"/>
	<path d="M74.5,8.6l-0.3-0.4c-2.4-3-6.8-3.5-9.8-1.2L57,12.7L65.7,24l7.4-5.7C76.1,16,76.8,11.6,74.5,8.6z"/>
</g>
</svg>
