<?xml version="1.0" encoding="utf-8"?>
<!-- Generator: Adobe Illustrator 24.2.3, SVG Export Plug-In . SVG Version: 6.00 Build 0)  -->
<svg version="1.1" id="Layer_1" xmlns="http://www.w3.org/2000/svg" xmlns:xlink="http://www.w3.org/1999/xlink" x="0px" y="0px"
	 viewBox="0 0 100 100" style="enable-background:new 0 0 100 100;" xml:space="preserve">
<g>
	<path d="M50.9,17.1c0.9,0,1.6-0.7,1.6-1.5c0-0.9-0.7-1.6-1.6-1.6c-0.9,0-1.5,0.7-1.5,1.6C49.4,16.4,50.1,17.1,50.9,17.1z"/>
	<path d="M43.5,21c0,0.9,0.7,1.5,1.5,1.5c0.9,0,1.6-0.7,1.6-1.5c0-0.9-0.7-1.6-1.6-1.6C44.2,19.4,43.5,20.1,43.5,21z"/>
	<path d="M56.8,22.5c0.9,0,1.5-0.7,1.5-1.5c0-0.9-0.7-1.5-1.5-1.5c-0.9,0-1.6,0.7-1.6,1.5C55.2,21.8,55.9,22.5,56.8,22.5z"/>
	<path d="M54.2,31.1c0.9,0,1.5-0.7,1.5-1.5c0-0.9-0.7-1.6-1.5-1.6c-0.9,0-1.6,0.7-1.6,1.6C52.7,30.4,53.4,31.1,54.2,31.1z"/>
	<path d="M45,29.6c0,0.9,0.7,1.5,1.6,1.5c0.9,0,1.5-0.7,1.5-1.5c0-0.9-0.7-1.5-1.5-1.5C45.7,28.1,45,28.8,45,29.6z"/>
	<path d="M50.7,24.1c0.9,0,1.5-0.7,1.5-1.5c0-0.9-0.7-1.6-1.5-1.6c-0.9,0-1.6,0.7-1.6,1.6C49.1,23.4,49.8,24.1,50.7,24.1z"/>
	<circle cx="40.4" cy="25.9" r="1.5"/>
	<path d="M60,26.8c0,0.9,0.7,1.5,1.5,1.5s1.5-0.7,1.5-1.5c0-0.9-0.7-1.6-1.5-1.6S60,26,60,26.8z"/>
	<path d="M86.7,53.4c-1.1-1.6-2.7-2.8-4.7-3.2c-0.5-0.1-1-0.2-1.5-0.2h-1.3c-1.9-3.1-5.1-5.2-8.7-5.8c-0.9-2.7-2.6-5-5-6.5
		c-2.8-1.9-6.2-2.5-9.5-1.8c-0.8,0.2-1.6,0.4-2.3,0.7c-4-4.7-10.9-5.9-16.3-2.6c-3,1.9-5.1,5-5.8,8.4c-4.1,0.8-7.6,3.7-9.2,7.6h-1.8
		c-4,0-7.4,3.2-7.4,7.3c0,0.5,0,1.1,0.2,1.6c2.4,10.8,10.4,19.6,20.9,24.2v1.7c0,4.4,3.6,8,8,8H59c4.4,0,8-3.6,8-8v-1.8
		C77.4,78.5,85.3,69.8,87.7,59C88.1,57,87.7,55.1,86.7,53.4z M33.5,46.2l1.8-0.1l0.1-1.8c0.1-2.8,1.7-5.4,4.1-6.9
		c4-2.5,9.4-1.3,11.9,2.8l1,1.7l1.7-1c0.8-0.5,1.7-0.9,2.7-1.1c2.3-0.5,4.6,0,6.5,1.2c1.9,1.3,3.2,3.2,3.7,5.5l0.3,1.5l1.6,0.1
		c1.9,0.1,3.6,0.7,5,1.9H27C28.4,47.9,30.8,46.4,33.5,46.2z M63,84.9c0,2.2-1.8,4-4,4H42.2c-2.2,0-4-1.8-4-4v-0.2
		c3.9,1.2,8,1.9,12.3,1.9c4.3,0,8.5-0.7,12.5-1.9V84.9z M83.8,58.1c-3.2,14.2-17.2,24.4-33.3,24.4c-16.1,0-30.1-10.3-33.3-24.4
		c-0.1-0.2-0.1-0.5-0.1-0.7c0-0.9,0.4-1.7,1-2.4c0.6-0.6,1.5-1,2.4-1c0,0,0,0,0,0h59.9c0.2,0,0.5,0,0.7,0.1c0.9,0.2,1.6,0.7,2.1,1.5
		C83.8,56.4,84,57.3,83.8,58.1z"/>
	<path d="M28.8,19.7l7.4,5.7l8.7-11.3l-7.4-5.7c-3-2.4-7.4-1.9-9.8,1.2L27.5,10C25.2,13,25.8,17.4,28.8,19.7z M30.6,12.4l0.3-0.3
		c0.6-0.7,1.5-1.1,2.3-1.1c0.7,0,1.3,0.2,1.9,0.6l4.2,3.3l-3.8,5l-4.2-3.3C30,15.5,29.7,13.7,30.6,12.4z"/>
	<path d="M71.7,19.5c3-2.3,3.7-6.7,1.4-9.8l-0.3-0.4c-2.4-3-6.8-3.5-9.8-1.2l-7.4,5.7l8.7,11.3L71.7,19.5z"/>
</g>
</svg>
