<svg id="Layer_1" data-name="Layer 1" xmlns="http://www.w3.org/2000/svg" viewBox="0 0 100 100"><defs><style>.cls-1,.cls-2{fill:none;stroke:#000;stroke-miterlimit:10;}.cls-1{stroke-width:3.08px;}.cls-2{stroke-linecap:round;stroke-width:4px;}</style></defs><path class="cls-1" d="M54.3,74.14A11.05,11.05,0,0,0,62,63.72v-.18A28.62,28.62,0,0,0,72.9,46.74a3.63,3.63,0,0,1,2-2.48l1.11-.5A3.35,3.35,0,0,0,77,38.25l-1-.93a11.59,11.59,0,0,1-3.26-5.51C69.86,21.09,61.16,13.29,50.87,13.29,38.24,13.29,28,25,28,39.54c0,10,4.84,19.3,12,24.16v0a10.59,10.59,0,0,0,6.57,10.13c.27.11.53.2.8.29"/><path class="cls-2" d="M10.13,85.9s.94-8.49,6.13-11.79,23.6-7.83,23.6-7.83"/><path class="cls-2" d="M91.62,85.9s-1-8.49-6.14-11.79-23.6-7.83-23.6-7.83"/><path d="M42.83,37.2a5.79,5.79,0,0,1,5.54-6h0A2.7,2.7,0,0,0,51,29.56c.78-1.94,2.39-4.58,5.37-4.65,6-.13,13.93,0,13.93,0-4.66-7.18-15-11.66-19.39-11.66C38.24,13.29,28,25,28,39.54a31.35,31.35,0,0,0,3.33,14s3.83-.49,8.4-4.6a11.74,11.74,0,0,0,3.6-9.29A6.31,6.31,0,0,1,42.83,37.2Z"/><path d="M61.71,48.19c-9.83,0-14.82,8-14.82,17.82V86.46a4,4,0,0,0,7.91,0V66c0-5.47,1.44-9.91,6.91-9.91a4,4,0,0,0,0-7.91ZM51.05,75.58a2.81,2.81,0,1,1,2.8-2.8A2.8,2.8,0,0,1,51.05,75.58Z"/></svg>