<svg id="Layer_1" data-name="Layer 1" xmlns="http://www.w3.org/2000/svg" viewBox="0 0 100 100"><defs><style>.cls-1{fill:none;stroke:#000;stroke-miterlimit:10;stroke-width:4px;}</style></defs><path class="cls-1" d="M29.19,59.53A27,27,0,0,1,18.84,37.77c0-17.21,14-21.64,31.16-21.64s31.16,4.43,31.16,21.64A27.08,27.08,0,0,1,72,58.51"/><path d="M49.16,26.85C29.21,27.07,19.1,42,19.59,46.08,22.72,71.74,35.15,88,50,88c15.06,0,27.63-16.68,30.53-43C81,41.25,69.39,26.61,49.16,26.85Zm-3.8,38.72a2.55,2.55,0,1,1,0-3.61A2.57,2.57,0,0,1,45.36,65.57ZM42.21,53a3.63,3.63,0,1,1,5.14,0A3.63,3.63,0,0,1,42.21,53Zm8.51,19.34a1.41,1.41,0,0,1-2,0,1.4,1.4,0,1,1,2,0Zm1.84-12a2.5,2.5,0,1,1,3.54,0A2.5,2.5,0,0,1,52.56,60.36Zm4.85,8a1.4,1.4,0,1,1,0-2A1.39,1.39,0,0,1,57.41,68.38Zm-.13-18.93a3.41,3.41,0,1,1,0-4.82A3.41,3.41,0,0,1,57.28,49.45Zm5.57-5c-.39,2.59-6.7-5.75-12.56-1.92s-12.73,4.79-13.18,2.34a13.05,13.05,0,1,1,25.74-.42Z"/></svg>