<svg id="Layer_1" data-name="Layer 1" xmlns="http://www.w3.org/2000/svg" viewBox="0 0 100 100"><defs><style>.cls-1,.cls-2{fill:none;stroke:#000;stroke-miterlimit:10;}.cls-1{stroke-width:4px;}.cls-2{stroke-width:3px;}</style></defs><path class="cls-1" d="M24.64,59c0-17.24,14-21.68,31.22-21.68S87.08,41.79,87.08,59s-14,28.62-31.22,28.62S24.64,76.28,24.64,59Z"/><path d="M55,55.73c-19.93.76-30.12,7.92-29.62,10C28.53,79.18,41,87.65,55.86,87.65c15.09,0,27.68-8.71,30.59-22.44C86.87,63.25,79.87,54.77,55,55.73ZM51.38,78.85a2.17,2.17,0,1,1,0-3.06A2.17,2.17,0,0,1,51.38,78.85Zm4.55,5.78a1.18,1.18,0,0,1-1.68,0A1.19,1.19,0,1,1,55.93,83,1.18,1.18,0,0,1,55.93,84.63Zm1.56-10.2a2.12,2.12,0,1,1,3,0A2.14,2.14,0,0,1,57.49,74.43Zm4.12,6.81a1.19,1.19,0,1,1-1.68-1.68,1.19,1.19,0,0,1,1.68,1.68ZM67,69.73c-.33,2.21-5.68-4.88-10.66-1.62s-10.81,4.06-11.19,2A11.08,11.08,0,1,1,67,69.73Z"/><path class="cls-2" d="M23.8,11.79a2.2,2.2,0,0,1,3.81,0L33,21.19l5.43,9.4a2.19,2.19,0,0,1-1.9,3.29H14.86A2.2,2.2,0,0,1,13,30.59l5.43-9.4Z"/><path d="M24.07,16.31a.8.8,0,0,1,.77-.95h1.59a.82.82,0,0,1,.79.95l-.77,9a.82.82,0,0,1-.82.79.79.79,0,0,1-.79-.79Zm1.56,11.36a1.5,1.5,0,0,1,1.56,1.52v.22a1.5,1.5,0,0,1-1.56,1.52,1.52,1.52,0,0,1-1.56-1.52v-.22A1.52,1.52,0,0,1,25.63,27.67Z"/></svg>