<svg id="Layer_1" data-name="Layer 1" xmlns="http://www.w3.org/2000/svg" viewBox="0 0 100 100"><defs><style>.cls-1{fill:none;stroke-linecap:round;}.cls-1,.cls-2{stroke:#000;stroke-miterlimit:10;stroke-width:4px;}</style></defs><path class="cls-1" d="M35.07,16a8,8,0,0,0-7.94,8"/><path class="cls-1" d="M34.53,8.05a14.8,14.8,0,0,0-14.8,14.8"/><path class="cls-1" d="M72.08,78.27a8,8,0,0,1-8,7.94"/><path class="cls-1" d="M80.07,78.81a14.8,14.8,0,0,1-14.81,14.8"/><g id="_110" data-name="110"><path d="M69.78,10.67l7.4,4.68a4.43,4.43,0,0,1,1.42,6.06l-4,6.57L59.68,18.57l4-6.46A4.44,4.44,0,0,1,69.78,10.67Z"/><path class="cls-2" d="M73.8,28.82,59.32,19.67a10.34,10.34,0,0,0-14.27,3.22L18.84,64.37a10.34,10.34,0,0,0,3.22,14.27l14.48,9.15a10.34,10.34,0,0,0,14.27-3.22L77,43.09A10.34,10.34,0,0,0,73.8,28.82ZM51.53,80.92,21.83,62.15,44.92,25.61l29.7,18.77Z"/></g></svg>