<?xml version="1.0" encoding="utf-8"?>
<!-- Generator: Adobe Illustrator 24.0.0, SVG Export Plug-In . SVG Version: 6.00 Build 0)  -->
<svg version="1.1" id="Layer_1" xmlns="http://www.w3.org/2000/svg" xmlns:xlink="http://www.w3.org/1999/xlink" x="0px" y="0px"
	 viewBox="0 0 100 100" style="enable-background:new 0 0 100 100;" xml:space="preserve">
<g>
	<path d="M35.1,14c-5.5,0-9.9,4.5-9.9,10c0,1.1,0.9,2,2,2s2-0.9,2-2c0-3.3,2.7-6,6-6c1.1,0,2-0.9,2-2C37.1,14.9,36.1,14,35.1,14z"/>
	<path d="M19.7,24.9c1.1,0,2-0.9,2-2c0-7.1,5.7-12.8,12.8-12.8c1.1,0,2-0.9,2-2s-0.9-2-2-2c-9.3,0-16.8,7.5-16.8,16.8
		C17.7,24,18.6,24.9,19.7,24.9z"/>
	<path d="M74.1,78.3c0-1.1-0.9-2-2-2c-1.1,0-2,0.9-2,2c0,3.3-2.7,6-6,6c-1.1,0-2,0.9-2,2s0.9,2,2,2C69.6,88.2,74,83.8,74.1,78.3z"/>
	<path d="M80.1,76.8c-1.1,0-2,0.9-2,2c0,7.1-5.7,12.8-12.8,12.8c-1.1,0-2,0.9-2,2s0.9,2,2,2c9.3,0,16.8-7.5,16.8-16.8
		C82.1,77.7,81.2,76.8,80.1,76.8z"/>
	<path d="M80.3,34.9c-0.7-3.1-2.6-5.8-5.3-7.6l3.6-5.8c1.3-2.1,0.6-4.8-1.4-6.1l-7.4-4.7c-2.1-1.3-4.8-0.6-6.1,1.4l-3.5,5.7
		c-5.7-3.4-13.2-1.7-16.8,4L17.1,63.3c-1.8,2.8-2.3,6.1-1.6,9.3s2.7,6,5.4,7.7l14.5,9.2c2,1.3,4.3,1.9,6.6,1.9c4.1,0,8.1-2,10.4-5.7
		l26.2-41.5C80.5,41.4,81,38.1,80.3,34.9z M71.9,45l-21,33.2L24.6,61.5l21-33.2L71.9,45z"/>
</g>
</svg>
