<svg id="Layer_1" data-name="Layer 1" xmlns="http://www.w3.org/2000/svg" viewBox="0 0 100 100"><defs><style>.cls-1,.cls-2{fill:none;stroke:#000;stroke-miterlimit:10;stroke-width:4px;}.cls-2{stroke-linecap:round;}</style></defs><path class="cls-1" d="M59.16,90.14H42.33A4.48,4.48,0,0,1,37.86,86L33.29,35.13a4.5,4.5,0,0,1,4.48-4.9H63.72a4.5,4.5,0,0,1,4.48,4.9L63.64,86A4.5,4.5,0,0,1,59.16,90.14Z"/><path d="M34.56,49.21,37.86,86a4.48,4.48,0,0,0,4.47,4.1H59.16A4.5,4.5,0,0,0,63.64,86l3.3-36.83Zm18.62,5a1,1,0,1,1-1,1A1,1,0,0,1,53.18,54.21ZM50.87,65.39a1.87,1.87,0,1,1,1,2.43A1.86,1.86,0,0,1,50.87,65.39ZM46,60.57a1.54,1.54,0,1,1,1.54,1.53A1.54,1.54,0,0,1,46,60.57Zm5.18,22a4.29,4.29,0,1,1,4.29-4.29A4.3,4.3,0,0,1,51.2,82.54Z"/><circle cx="48.22" cy="45.97" r="1.05"/><circle cx="49.92" cy="40.13" r="1.05"/><circle cx="45.92" cy="36.65" r="1.05"/><circle cx="52.39" cy="44.54" r="1.05"/><line class="cls-2" x1="31.06" y1="6.21" x2="45.9" y2="71.47"/><path class="cls-2" d="M39.28,16.32l5.37.72c.27,2.14-4.51,4.5-10.67,5.26S22.61,22,22.35,19.81c-.19-1.52,2.16-3.15,5.74-4.24"/><line class="cls-2" x1="45.24" y1="22.28" x2="44.65" y2="17.04"/></svg>