<?xml version="1.0" encoding="utf-8"?>
<!-- Generator: Adobe Illustrator 24.0.0, SVG Export Plug-In . SVG Version: 6.00 Build 0)  -->
<svg version="1.1" id="Layer_1" xmlns="http://www.w3.org/2000/svg" xmlns:xlink="http://www.w3.org/1999/xlink" x="0px" y="0px"
	 viewBox="0 0 100 100" style="enable-background:new 0 0 100 100;" xml:space="preserve">
<g>
	<path d="M36.1,33.5c0.7,0,1.3-0.2,1.9-0.5c1.8-1,2.3-3.3,1.3-5.1L28.4,9.1c-0.3-0.6-0.8-1-1.4-1.4c-1.8-1-4-0.4-5,1.4L11.1,27.9
		c-0.3,0.6-0.5,1.2-0.5,1.8c0,2,1.7,3.7,3.7,3.7L36.1,33.5C36,33.5,36,33.5,36.1,33.5z M13.6,29.8c0-0.1,0-0.2,0.1-0.3l10.9-18.8
		l0,0c0.1-0.2,0.4-0.3,0.6-0.3c0.1,0,0.2,0,0.3,0.1c0.1,0.1,0.2,0.1,0.3,0.3l10.9,18.8c0.2,0.3,0.1,0.8-0.2,1
		c-0.1,0.1-0.2,0.1-0.4,0.1H14.3C14,30.5,13.6,30.2,13.6,29.8z"/>
	<path d="M25.1,25.8C25.1,25.8,25.1,25.8,25.1,25.8c-0.9,0-1.6,0.7-1.6,1.5v0.2c0,0.9,0.7,1.6,1.6,1.6s1.6-0.7,1.6-1.6v-0.2
		c0,0,0,0,0-0.1C26.6,26.4,25.9,25.7,25.1,25.8z"/>
	<path d="M25.9,13.5h-1.6c-0.1,0-0.1,0-0.2,0c-0.4,0.1-0.7,0.5-0.6,0.9l0.8,9c0,0,0,0,0,0c0,0.4,0.4,0.8,0.8,0.8c0,0,0,0,0,0
		c0.4,0,0.8-0.3,0.8-0.8l0.8-9c0,0,0-0.1,0-0.1C26.7,13.8,26.4,13.4,25.9,13.5z"/>
	<path d="M71.4,37.2c-0.2-0.1-0.5-0.2-0.7-0.2c-0.1,0-0.2-0.1-0.4-0.1c-4.5-1.4-10-2.2-16.5-2.4c-0.1,0-0.1,0-0.2,0
		c-0.7,0-1.5,0-2.2,0c-10.8,0-18.9,1.6-24.7,4.8c-0.1,0-0.2,0.1-0.2,0.1c-0.3,0.2-0.5,0.3-0.8,0.5c-0.2,0.1-0.4,0.3-0.7,0.4
		c-0.1,0-0.1,0.1-0.2,0.1l-0.9,0.6l0,0c-5.8,4.3-8.7,10.6-8.7,19.2c0,19.3,15.2,33.4,36.2,33.4c21,0,36.2-14,36.2-33.4
		C87.6,48.5,82.3,40.9,71.4,37.2z M83.6,60.1c0,1.2-0.1,2.3-0.2,3.4c-1.4-1.6-5.5-6.2-14.1-9c4.3-0.2,7.9-3.9,8.6-9.1
		C81.7,48.9,83.6,53.8,83.6,60.1z M42.2,55.8l0.8-0.4c1-0.5,2.1-0.8,3.2-0.9h0.7l2.3,6.8l-3.7,2.9l2.4,4l-5.2,4.4l-0.3-0.2
		c-1.1-0.6-2-1.4-2.7-2.4c-0.3-0.4-0.5-0.7-0.7-1C36.1,64.5,37.6,58.6,42.2,55.8z M53.8,38.4c0.5,0,1,0,1.5,0c0.1,0,0.2,0,0.3,0
		c0.5,0,1.1,0.1,1.6,0.1c0.1,0,0.1,0,0.2,0c1.6,0.1,3.2,0.3,4.6,0.5l-0.2,11.5H53l-0.1-12.1c0.1,0,0.3,0,0.4,0
		C53.5,38.4,53.6,38.4,53.8,38.4z M72.5,41.9c0.3,0.1,0.6,0.3,0.9,0.5c0.1,0.1,0.2,0.1,0.4,0.2c0.1,0.1,0.2,0.1,0.3,0.2l-0.2,2
		c-0.4,3.3-2.6,5.8-5.1,5.8h-3.1L66,39.8c2.4,0.5,4.5,1.2,6.4,2.1C72.5,41.9,72.5,41.9,72.5,41.9z M61.7,78.2v9.9
		c-2.7,0.8-5.7,1.2-8.8,1.3V77.7C55.9,77.8,58.8,78,61.7,78.2z M49.5,77.7v11.7c-3-0.1-5.9-0.6-8.7-1.4v-9.8
		C43.7,78,46.6,77.8,49.5,77.7z M31.5,82.7c0-1.9,1.4-3.6,3.4-3.8c0.9-0.1,1.7-0.2,2.6-0.3v8.3c-2.1-0.9-4.1-1.9-5.9-3.2L31.5,82.7z
		 M65.1,87v-8.4c0.9,0.1,1.9,0.2,2.8,0.3c1.9,0.2,3.4,1.9,3.4,3.8v1C69.4,85,67.4,86.1,65.1,87z M49,50.5h-9l-0.5-11.3
		c2.8-0.5,5.9-0.7,9.4-0.8L49,50.5z M35.6,40.1L36,50.5h-2.9c-2.7,0-4.9-2.8-5.2-6.3l0-1.1C30.1,41.8,32.6,40.8,35.6,40.1z
		 M47.2,73.2l-0.4-0.5l6-2.4l-1.1-4.7l4.6-1.6l-0.1-6.8l0.5,0.1c5.2,1.3,8.3,6.6,7,11.8c-0.6,2.3-2,4.2-3.8,5.5
		c-2.9-0.2-5.8-0.3-8.6-0.4c-0.9,0-1.9,0.1-2.8,0.1C48,74,47.6,73.6,47.2,73.2z M24.2,46.1c0.9,4.9,4.6,8.5,8.9,8.5h4.5
		c-6.8,2.1-14,5.5-18.2,10.1c-0.2-1.5-0.3-3-0.3-4.5C19.2,54.2,20.8,49.5,24.2,46.1z"/>
</g>
</svg>
