<svg id="Layer_1" data-name="Layer 1" xmlns="http://www.w3.org/2000/svg" viewBox="0 0 100 100"><defs><style>.cls-1{fill:none;stroke-width:4px;}.cls-1,.cls-2{stroke:#000;stroke-miterlimit:10;}</style></defs><path d="M75.73,41.59A15.88,15.88,0,1,1,91.61,25.72,15.89,15.89,0,0,1,75.73,41.59Zm0-30.24A14.37,14.37,0,1,0,90.1,25.72,14.38,14.38,0,0,0,75.73,11.35Z"/><path d="M75.81,10.6v5.59a9.53,9.53,0,0,1,0,19.05v5.59a15.12,15.12,0,0,0,0-30.23Z"/><path d="M68.75,28.72a.66.66,0,0,1,.44-1.16.65.65,0,0,1,.47.18,2.4,2.4,0,0,0,1.8.76,1.25,1.25,0,0,0,1.37-1.21v0c0-.78-.71-1.22-1.82-1.22h-.29a.61.61,0,0,1-.6-.6.77.77,0,0,1,.3-.57l1.86-2H69.4a.61.61,0,1,1,0-1.21h4.06a.63.63,0,0,1,.69.61,1,1,0,0,1-.4.76L71.88,25c1.2.15,2.34.76,2.34,2.23v0a2.55,2.55,0,0,1-2.78,2.52A3.71,3.71,0,0,1,68.75,28.72Z"/><path d="M75.57,25.67v0c0-2.27,1.38-4.1,3.47-4.1s3.44,1.81,3.44,4.08v0c0,2.27-1.38,4.11-3.47,4.11S75.57,27.94,75.57,25.67Zm5.47,0v0c0-1.56-.8-2.85-2-2.85s-2,1.25-2,2.83v0c0,1.57.79,2.85,2,2.85S81,27.23,81,25.67Z"/><circle class="cls-1" cx="27.26" cy="25.38" r="13.77"/><path d="M19.1,14.29a13.94,13.94,0,0,0-2.92,2.92L35.43,36.46a13.7,13.7,0,0,0,2.92-2.92Z"/><circle class="cls-2" cx="31.33" cy="52.65" r="5.53"/><path d="M31.33,49.12a3.53,3.53,0,0,1,3.53,3.53h4a7.53,7.53,0,0,0-7.53-7.53ZM27.8,52.65a3.53,3.53,0,0,1,3.53-3.53v-4a7.53,7.53,0,0,0-7.53,7.53Zm3.53,3.53a3.53,3.53,0,0,1-3.53-3.53h-4c0,4.16,2.27,7.53,7.53,7.53Zm3.53-3.53a3.53,3.53,0,0,1-3.53,3.53v4c6.81,0,7.53,3,7.53-7.53Z"/><path d="M45.85,43.5a8,8,0,0,0-8,8h4a4,4,0,0,1,4-4Zm21.86,0H45.85v4H67.71Zm5.75,2.43a8,8,0,0,0-5.75-2.43v4a4,4,0,0,1,2.87,1.21ZM87.92,60.86,73.45,45.93l-2.87,2.78L85.05,63.64ZM39.84,63.94l46.64.31,0-4-46.64-.31Zm-2-12.44V61.94h4V51.5Zm8-6v0ZM72,47.32l-1.44,1.39h0ZM86.49,62.25v2l4.76,0-3.32-3.42Zm-46.64-.31h-2v2h2Z"/><path d="M84.31,59.94h-57a4,4,0,0,1-4-4V41A6.74,6.74,0,1,0,9.86,41V86.51h4V76.74H88.31v9.77h4V67.94A8,8,0,0,0,84.31,59.94ZM13.86,72.74V41a2.74,2.74,0,1,1,5.48,0V55.94a8,8,0,0,0,8,8h57a4,4,0,0,1,4,4v4.8Z"/></svg>