<svg id="Layer_1" data-name="Layer 1" xmlns="http://www.w3.org/2000/svg" viewBox="0 0 100 100"><defs><style>.cls-1,.cls-2,.cls-3,.cls-4{fill:none;stroke:#000;}.cls-1,.cls-3,.cls-4{stroke-miterlimit:10;}.cls-1{stroke-width:2.8px;}.cls-2{stroke-linejoin:round;}.cls-2,.cls-3{stroke-width:4px;}.cls-3{stroke-linecap:round;}.cls-4{stroke-width:3px;}.cls-5{font-size:10.32px;font-family:GothamRounded-Bold, Gotham Rounded;font-weight:700;}.cls-6{font-size:6.88px;font-family:GothamRounded-Book, Gotham Rounded;letter-spacing:-0.06em;}.cls-7{letter-spacing:-0.07em;}.cls-8{letter-spacing:-0.05em;}</style></defs><path class="cls-1" d="M33.89,52.49C30.27,47,33.78,42.67,39.26,39s10.85-5.15,14.47.33,1.58,12-3.9,15.65S37.52,58,33.89,52.49Z"/><path d="M54.83,41.47c-.28-.71-1.71,4.54-11,4.9-7.21.27-8.83,7.53-8.23,8.11,3.81,3.6,9.55,3.67,14.28.54S56.79,46.44,54.83,41.47ZM44.93,51.8A1.7,1.7,0,0,1,43.06,49a1.7,1.7,0,1,1,1.87,2.83Zm4.55,0a1,1,0,0,1-1.32-.27.95.95,0,1,1,1.32.27Z"/><path class="cls-2" d="M57.67,28.09c-7.39-12.27-22.06-17-32.76-10.55s-13.37,21.62-6,33.9c5.09,8.44,14,13.87,22.47,14.34v0A10.88,10.88,0,0,0,60.05,54.57L60,54.42C63.41,46.7,62.71,36.45,57.67,28.09Z"/><path class="cls-3" d="M9,85.29s.93-8.4,6.06-11.66,23.34-7.74,23.34-7.74"/><path class="cls-3" d="M90,85.29S89.1,76.89,84,73.63s-23.33-7.74-23.33-7.74"/><circle cx="71.87" cy="52.4" r="1.37"/><circle cx="75.77" cy="43.95" r="1.72"/><circle cx="48.36" cy="40.04" r="1.2"/><circle cx="68.04" cy="37.9" r="2.58"/><line class="cls-3" x1="50.08" y1="83.5" x2="50.08" y2="72.01"/><polyline class="cls-3" points="55.35 78.39 50.1 83.63 44.87 78.39"/><circle class="cls-4" cx="79.15" cy="23.66" r="11.84"/><text class="cls-5" transform="translate(76.12 23.77)">3</text><text class="cls-6" transform="translate(70.81 29.75)">s<tspan class="cls-7" x="3.01" y="0">t</tspan><tspan class="cls-8" x="5.34" y="0">eps</tspan></text></svg>