<?xml version="1.0" encoding="utf-8"?>
<!-- Generator: Adobe Illustrator 24.0.0, SVG Export Plug-In . SVG Version: 6.00 Build 0)  -->
<svg version="1.1" id="Layer_1" xmlns="http://www.w3.org/2000/svg" xmlns:xlink="http://www.w3.org/1999/xlink" x="0px" y="0px"
	 viewBox="0 0 100 100" style="enable-background:new 0 0 100 100;" xml:space="preserve">
<g>
	<path d="M40.7,24.1c0-8.7-7.1-15.8-15.8-15.8S9.2,15.4,9.2,24.1S16.3,39.9,25,39.9S40.7,32.8,40.7,24.1z M36.7,24.1
		c0,2.5-0.8,4.8-2.1,6.7L18.2,14.4c1.9-1.3,4.2-2.1,6.7-2.1C31.5,12.3,36.7,17.6,36.7,24.1z M13.2,24.1c0-2.5,0.8-4.8,2.1-6.7
		l16.4,16.4c-1.9,1.3-4.2,2.1-6.7,2.1C18.5,35.9,13.2,30.6,13.2,24.1z"/>
	<path d="M30.2,54.9c0-2.4,2-4.4,4.3-4.4c1.1,0,2-0.9,2-2s-0.9-2-2-2c-4.6,0-8.3,3.7-8.3,8.4c0,1.1,0.9,2,2,2S30.2,56,30.2,54.9z"/>
	<path d="M34.2,44.1c1.1,0,2-0.9,2-2s-0.9-2-2-2c-7.6,0-13.9,6.2-13.9,13.9c0,1.1,0.9,2,2,2s2-0.9,2-2
		C24.3,48.6,28.7,44.1,34.2,44.1z"/>
	<path d="M76.5,78.2c0-1.1-0.9-2-2-2s-2,0.9-2,2c0,2.4-2,4.3-4.4,4.3c-1.1,0-2,0.9-2,2s0.9,2,2,2C72.7,86.5,76.5,82.8,76.5,78.2z"/>
	<path d="M80.9,76.6C80.9,76.6,80.9,76.6,80.9,76.6c-1.1,0-2,0.9-2,2c0,2.6-1,5.1-2.9,7c-1.9,1.9-4.3,2.9-7,2.9c0,0,0,0,0,0
		c-1.1,0-2,0.9-2,2c0,1.1,0.9,2,2,2c0,0,0,0,0,0c3.7,0,7.2-1.4,9.8-4c2.6-2.6,4.1-6.1,4.1-9.8C82.9,77.5,82,76.6,80.9,76.6z"/>
	<path d="M82.4,43.7c-0.6-2.7-2.2-4.9-4.5-6.4l2.7-4.4c1-1.7,0.5-3.9-1.2-4.9l-6-3.8c0,0,0,0,0,0c-1.7-1-3.9-0.5-5,1.2l-2.6,4.3
		c-4.8-2.9-11.1-1.4-14.1,3.3L30.5,66.7C27.4,71.5,28.9,78,33.7,81l11.8,7.4c1.7,1.1,3.6,1.6,5.5,1.6c0.8,0,1.5-0.1,2.3-0.3
		c2.7-0.6,5-2.2,6.5-4.5l21.3-33.7C82.5,49.2,83,46.4,82.4,43.7z M74.7,52.2L58.1,78.4L37.4,65.4L54,39.1L74.7,52.2z"/>
</g>
</svg>
