<svg id="Layer_1" data-name="Layer 1" xmlns="http://www.w3.org/2000/svg" viewBox="0 0 100 100"><defs><style>.cls-1,.cls-2{fill:none;stroke:#000;stroke-miterlimit:10;stroke-width:4px;}.cls-2{stroke-linecap:round;}</style></defs><g id="Store_at_room_temperature" data-name="Store at room temperature"><path class="cls-1" d="M79.4,37.62l.06,44.46a6,6,0,0,1-6,6H25.34a6,6,0,0,1-6-6l.06-44.46L45.17,11.84a6,6,0,0,1,8.46,0Z"/><path class="cls-2" d="M9.4,47.62,45.15,11.87a6,6,0,0,1,8.49,0L89.4,47.62"/><path class="cls-2" d="M75.4,33.63V18.69a4.51,4.51,0,0,0-4.51-4.51h0a4.51,4.51,0,0,0-4.51,4.51v5.92Z"/><path d="M57.77,37.51H41a6,6,0,0,0-6,6V74.7a6,6,0,0,0,6,6H57.77a6,6,0,0,0,6-6V43.51A6,6,0,0,0,57.77,37.51ZM49.4,73.91a5.18,5.18,0,0,1-1.8-10V46.52a2,2,0,0,1,4,0V64a5.18,5.18,0,0,1-2.2,9.87ZM59.82,54.3H55.66a2,2,0,0,1,0-4h4.16a2,2,0,1,1,0,4Zm0-6H55.66a2,2,0,0,1,0-4h4.16a2,2,0,1,1,0,4Z"/></g></svg>