<?xml version="1.0" encoding="utf-8"?>
<!-- Generator: Adobe Illustrator 24.0.0, SVG Export Plug-In . SVG Version: 6.00 Build 0)  -->
<svg version="1.1" id="Layer_1" xmlns="http://www.w3.org/2000/svg" xmlns:xlink="http://www.w3.org/1999/xlink" x="0px" y="0px"
	 viewBox="0 0 100 100" style="enable-background:new 0 0 100 100;" xml:space="preserve">
<g>
	<path d="M36.1,46.4c0.7,0,1.4-0.2,2-0.5c1.9-1.1,2.6-3.6,1.5-5.5L27,18.5c-0.4-0.6-0.9-1.2-1.5-1.5c-0.9-0.5-2-0.7-3.1-0.4
		c-1,0.3-1.9,1-2.4,1.9L7.3,40.3c-0.3,0.6-0.5,1.3-0.5,2c0,2.2,1.8,4.1,4.1,4.1H36.1C36.1,46.4,36.1,46.4,36.1,46.4z M9.8,42.3
		c0-0.2,0-0.4,0.1-0.5L22.5,20l0,0c0.1-0.2,0.4-0.4,0.6-0.5c0.1,0,0.2,0,0.3,0c0.2,0,0.4,0,0.5,0.1c0.2,0.1,0.3,0.2,0.4,0.4L37,41.8
		c0.3,0.5,0.1,1.1-0.4,1.4c-0.2,0.1-0.3,0.1-0.5,0.1c0,0,0,0,0,0H10.8C10.2,43.4,9.8,42.9,9.8,42.3z"/>
	<path d="M24.3,23.4h-1.8c-0.1,0-0.1,0-0.2,0c-0.5,0.1-0.8,0.6-0.7,1.1l0.9,10.4c0,0.5,0.4,0.9,0.9,0.9c0,0,0,0,0,0
		c0.5,0,0.9-0.4,0.9-0.9l0.9-10.4c0-0.1,0-0.1,0-0.2C25.2,23.8,24.8,23.4,24.3,23.4z"/>
	<path d="M23.3,37.7C23.3,37.7,23.3,37.7,23.3,37.7c-1,0-1.8,0.8-1.8,1.8v0.2c0,0,0,0,0,0.1c0,1,0.8,1.7,1.8,1.7c0,0,0.1,0,0.1,0
		c1,0,1.7-0.8,1.7-1.8v-0.2c0,0,0-0.1,0-0.1C25.1,38.4,24.3,37.6,23.3,37.7z"/>
	<path d="M81,43c-7.6-1.5-15.3,1.4-20,7.4c-7.8,9.5-8.3,26.1-8.4,26.8l0,0.3c-0.7,1.4-1.3,2.8-1.7,4.1c-0.1-0.2-0.2-0.3-0.3-0.5
		c-0.1-2.9-0.8-14-6.1-20.8c-3.6-5.1-9.8-7.7-16-6.8l-1.7,0.2v1.7c0,0.5,0.1,12.6,4.7,19c3.7,5.3,9.6,8.7,16,9.3
		c0,0.1,0.1,0.1,0.1,0.2c0.7,1.2,2,2,3.3,2c0.6,0,1.3-0.2,1.9-0.5c0.8-0.5,1.4-1.2,1.7-2.1c0.5-1.3,1.1-2.7,1.7-4.1
		c7.8-0.5,15.2-4.4,20-10.6c5.9-7.9,6.4-22.9,6.4-23.6l0-1.7L81,43z M34.7,72.2c-2.9-4.1-3.7-11.4-3.9-14.8c0,0,0,0,0.1,0
		c4.1,0,7.9,1.9,10.4,5.4c2.4,3.1,3.7,7.4,4.4,11.1c-2.3-3.1-4.9-6-7.7-8.8c-0.8-0.8-2.1-0.8-2.8,0c-0.8,0.8-0.8,2.1,0,2.8
		c3.5,3.4,6.7,7.2,9.4,11.3C40.7,78.1,37.1,75.6,34.7,72.2z M73,66.2c-3.6,4.7-8.9,7.8-14.6,8.8c3.2-5.8,6.9-11,8.5-12.2
		c0.9-0.7,1-1.9,0.4-2.8c-0.7-0.9-1.9-1-2.8-0.4c-1.6,1.3-4.2,4.6-6.7,8.6c1-5,2.9-11,6.3-15.2c3.2-4,7.9-6.3,12.9-6.3
		c0.5,0,1,0,1.5,0.1C78.2,50.8,77.1,60.8,73,66.2z"/>
</g>
</svg>
