<svg id="Layer_1" data-name="Layer 1" xmlns="http://www.w3.org/2000/svg" viewBox="0 0 100 100"><defs><style>.cls-1,.cls-2{fill:none;}.cls-1,.cls-2,.cls-3{stroke:#000;stroke-miterlimit:10;stroke-width:4px;}.cls-2{stroke-linecap:round;}</style></defs><circle class="cls-1" cx="24.96" cy="24.08" r="13.77"/><path d="M16.79,13a13.94,13.94,0,0,0-2.92,2.92L33.12,35.16A13.7,13.7,0,0,0,36,32.24Z"/><path class="cls-2" d="M34.59,48.53a6.35,6.35,0,0,0-6.35,6.36"/><path class="cls-2" d="M34.16,42.14A11.85,11.85,0,0,0,22.31,54"/><path class="cls-2" d="M74.48,78.15a6.35,6.35,0,0,1-6.35,6.35"/><path class="cls-2" d="M80.88,78.58A11.85,11.85,0,0,1,69,90.42"/><g id="_110" data-name="110"><path d="M73.51,24.21l6,3.8a3.6,3.6,0,0,1,1.15,4.91L77.4,38.25,65.31,30.62l3.2-5.24A3.61,3.61,0,0,1,73.51,24.21Z"/><path class="cls-3" d="M76.76,38.93,65,31.51a8.39,8.39,0,0,0-11.57,2.61L32.19,67.77A8.38,8.38,0,0,0,34.8,79.34l11.74,7.42a8.38,8.38,0,0,0,11.57-2.61L79.37,50.5A8.38,8.38,0,0,0,76.76,38.93ZM58.7,81.19,34.61,66,53.34,36.33,77.43,51.55Z"/></g></svg>