<svg id="Layer_1" data-name="Layer 1" xmlns="http://www.w3.org/2000/svg" viewBox="0 0 100 100"><defs><style>.cls-1,.cls-2,.cls-3,.cls-4{fill:none;stroke:#000;}.cls-1,.cls-2,.cls-3{stroke-linejoin:round;}.cls-1{stroke-width:4.37px;}.cls-2{stroke-width:3.31px;}.cls-3,.cls-4{stroke-width:4px;}.cls-4{stroke-linecap:round;stroke-miterlimit:10;}</style></defs><line class="cls-1" x1="40.05" y1="62.03" x2="40.05" y2="77.31"/><circle class="cls-2" cx="40.05" cy="81.14" r="4.44"/><path class="cls-1" d="M65.8,84.22h1.37a1.34,1.34,0,0,0,1.34-1.34V80.31a6.94,6.94,0,0,0-3.58-6.07l-3.48-1.93V63.48h0v8.83l-3.47,1.93a6.93,6.93,0,0,0-3.59,6.07v2.57a1.34,1.34,0,0,0,1.34,1.34h1.37"/><path class="cls-3" d="M71.25,36c0-13-9.21-23.58-20.56-23.58S30.14,22.94,30.14,36c0,9,4.35,17.35,10.76,21.71v0c0,5.46,4.43,12.47,9.89,12.47s9.89-7,9.89-12.47c0,0,0-.1,0-.15C67,53.14,71.25,44.83,71.25,36Z"/><path class="cls-4" d="M41.51,60.9S25,65,20.3,67.93s-5.51,10.6-5.51,10.6L12.6,90.9"/><path class="cls-4" d="M60.59,60.9s16.54,4.06,21.21,7,5.51,10.6,5.51,10.6l2,11.92"/><path class="cls-3" d="M41.06,57.82v0c6.81,4.24,12.54,4.24,19.48,0"/></svg>