<svg id="Layer_1" data-name="Layer 1" xmlns="http://www.w3.org/2000/svg" viewBox="0 0 100 100"><defs><style>.cls-1,.cls-2,.cls-3{fill:none;stroke:#000;stroke-miterlimit:10;}.cls-1,.cls-3{stroke-width:4px;}.cls-2{stroke-width:3.08px;}.cls-3{stroke-linecap:round;}</style></defs><circle class="cls-1" cx="23.02" cy="23.37" r="11.84"/><path d="M16,13.84a11.76,11.76,0,0,0-2.52,2.51L30,32.9a11.71,11.71,0,0,0,2.51-2.51Z"/><path class="cls-2" d="M58,72.65a9,9,0,0,0,6.24-8.53c0-.05,0-.1,0-.15a23.26,23.26,0,0,0,8.89-13.66,3,3,0,0,1,1.67-2l.9-.41a2.73,2.73,0,0,0,.75-4.48l-.81-.75a9.55,9.55,0,0,1-2.65-4.48C70.6,29.44,63.53,23.1,55.16,23.1c-10.27,0-18.6,9.56-18.6,21.35,0,8.11,3.94,15.7,9.74,19.65v0a8.62,8.62,0,0,0,5.35,8.24l.7.25"/><path class="cls-3" d="M22,82.16s.77-6.91,5-9.59,19.2-6.37,19.2-6.37"/><path class="cls-3" d="M88.3,82.16s-.77-6.91-5-9.59S64.12,66.2,64.12,66.2"/><path d="M48.62,42.55a4.71,4.71,0,0,1,4.5-4.89h0a2.19,2.19,0,0,0,2.09-1.33c.64-1.58,2-3.72,4.37-3.78,4.88-.11,11.34,0,11.34,0-3.8-5.85-12.22-9.49-15.78-9.49-10.27,0-18.6,9.56-18.6,21.35a25.52,25.52,0,0,0,2.71,11.42s3.11-.41,6.83-3.75A9.53,9.53,0,0,0,49,44.57,5.21,5.21,0,0,1,48.62,42.55Z"/><path d="M64,51.48c-8,0-12.06,6.5-12.06,14.5V82.61a3.22,3.22,0,0,0,6.44,0V66c0-4.45,1.17-8.06,5.62-8.06a3.22,3.22,0,0,0,0-6.44ZM55.31,73.76a2.28,2.28,0,1,1,2.28-2.28A2.28,2.28,0,0,1,55.31,73.76Z"/></svg>