<?xml version="1.0" encoding="utf-8"?>
<!-- Generator: Adobe Illustrator 24.0.0, SVG Export Plug-In . SVG Version: 6.00 Build 0)  -->
<svg version="1.1" id="Layer_1" xmlns="http://www.w3.org/2000/svg" xmlns:xlink="http://www.w3.org/1999/xlink" x="0px" y="0px"
	 viewBox="0 0 100 100" style="enable-background:new 0 0 100 100;" xml:space="preserve">
<g>
	<path d="M93.3,43.4c0-0.4,0-0.8-0.1-1.3l0-1.2l0,0c-0.4-6.8-1.6-10.7-2.4-13.7c-0.6-2.2-1.1-3.7-1.1-5.7c0.1-3.7,0.9-7.3,2.3-10.7
		c0.4-1-0.1-2.2-1.1-2.6c-1-0.4-2.2,0.1-2.6,1.1c-1.6,3.8-2.5,7.9-2.6,12.1c0,2.6,0.6,4.5,1.3,6.9c0.9,3,1.9,6.7,2.3,13.4
		c-6,1.3-26.9,5.6-38.7,5.6c-11.7,0-32.2-4.3-38-5.6c0.1-2,0.4-3.9,0.8-5.8c1.4-4.6,2.1-8.3,1.6-12.6L12,11.8
		c-0.3-1.1-1.3-1.7-2.4-1.5c-1.1,0.3-1.7,1.4-1.5,2.4L11,24.1c0.4,3.5-0.3,6.8-1.5,10.9l0,0.1c-0.7,2.7-1,5.6-1,8.3
		c-0.3,8.7,2.7,32.2,5.3,50.3l0.2,1.7h33.9l3.8-9.6l4.2,9.6h31.8l0.2-1.7c0,0,0,0,0,0C90.6,75.6,93.6,52.2,93.3,43.4z"/>
	<path d="M62.9,28.2l13.7,0.1c0,0,0.1,0,0.1,0c4.8,0,8.8-3.9,8.8-8.7l0.1-4.9c0-2.4-0.9-4.6-2.5-6.3c-1.7-1.7-3.9-2.6-6.2-2.7
		L63.1,5.7c0,0-0.1,0-0.1,0c-4.8,0-8.8,3.9-8.8,8.7l-0.1,4.9c0,2.4,0.9,4.6,2.5,6.3C58.3,27.3,60.5,28.2,62.9,28.2z"/>
	<path d="M41.3,27.1c0.4,0,0.8-0.1,1.2-0.4c2-1.5,3.3-3.7,3.6-6.2c0.1-1.1-0.7-2.1-1.8-2.2c-1.1-0.1-2.1,0.7-2.2,1.8
		c-0.1,1.3-0.8,2.6-1.9,3.4c-0.9,0.7-1.1,1.9-0.4,2.8C40.1,26.9,40.7,27.1,41.3,27.1z"/>
	<path d="M42.1,14.7c0,1.1,0.9,2,2,2s2-0.9,2-2c0-2.5-1.1-4.8-2.9-6.5c-0.8-0.7-2.1-0.7-2.8,0.1c-0.7,0.8-0.7,2.1,0.1,2.8
		C41.6,12,42.1,13.3,42.1,14.7z"/>
	<path d="M31,9.8l5.7,0.1c0,0,0,0,0,0c1.1,0,2-0.9,2-2c0-1.1-0.9-2-2-2L31,5.8c-1.1,0-2,0.9-2,2C29,8.9,29.9,9.8,31,9.8z"/>
	<path d="M17,21.5C17,21.5,17,21.5,17,21.5c1.1,0,2-0.9,2-2l0.1-5c0-0.2,0-0.3,0-0.5c0.1-1.1-0.7-2.1-1.8-2.2
		c-1.1-0.1-2.1,0.7-2.2,1.8c0,0.3-0.1,0.6-0.1,0.9l-0.1,5l0,0.2C15,20.7,15.9,21.5,17,21.5z"/>
	<path d="M30.2,28.4l5.7,0.1c0,0,0,0,0,0c1.1,0,2-0.9,2-2c0-1.1-0.9-2-2-2l-5.7-0.1c0,0,0,0,0,0c-1.1,0-2,0.9-2,2
		C28.2,27.5,29.1,28.4,30.2,28.4z"/>
	<path d="M23.7,24.3c-1.2,0-2.3-0.4-3.1-1.2c-0.8-0.7-2.1-0.7-2.8,0.2c-0.7,0.8-0.7,2.1,0.2,2.8c1.6,1.4,3.6,2.2,5.8,2.2l0.8,0
		c0,0,0,0,0,0c1.1,0,2-0.9,2-2c0-1.1-0.9-2-2-2L23.7,24.3z"/>
	<path d="M19.9,11c0.4,0,0.8-0.1,1.2-0.4c0.8-0.6,1.8-0.9,2.8-0.9l1.4,0c1.1,0,2-0.9,2-2c0-1.1-0.9-2-2-2l-1.5,0
		c-1.8,0-3.6,0.6-5.1,1.6c-0.9,0.6-1.1,1.9-0.5,2.8C18.7,10.7,19.3,11,19.9,11z"/>
</g>
</svg>
