<svg id="Layer_1" data-name="Layer 1" xmlns="http://www.w3.org/2000/svg" viewBox="0 0 100 100"><defs><style>.cls-1,.cls-2,.cls-3{fill:none;}.cls-1,.cls-3{stroke:#000;stroke-miterlimit:10;stroke-width:4px;}.cls-3{stroke-linecap:round;}</style></defs><path class="cls-1" d="M59.38,87.56H41.92a4.66,4.66,0,0,1-4.64-4.24L32.55,30.49a4.66,4.66,0,0,1,4.64-5.08H64.12a4.66,4.66,0,0,1,4.64,5.08L64,83.32A4.66,4.66,0,0,1,59.38,87.56Z"/><path class="cls-2" d="M56.23,75.19a1.25,1.25,0,1,0,1.24,1.25A1.25,1.25,0,0,0,56.23,75.19Z"/><path d="M33.85,45.1l3.43,38.22a4.66,4.66,0,0,0,4.64,4.24H59.38A4.66,4.66,0,0,0,64,83.32L67.45,45.1ZM56.23,81.68a5.25,5.25,0,1,1,5.24-5.24A5.25,5.25,0,0,1,56.23,81.68Z"/><line class="cls-3" x1="36.29" y1="15.13" x2="43.58" y2="64.4"/></svg>