<svg id="Layer_1" data-name="Layer 1" xmlns="http://www.w3.org/2000/svg" viewBox="0 0 100 100"><defs><style>.cls-1,.cls-2{fill:none;stroke:#000;stroke-miterlimit:10;}.cls-1{stroke-linecap:round;stroke-width:4px;}.cls-2{stroke-width:3px;}</style></defs><path d="M64.24,55.78c0-2.6,3.5-8.46,5.28-11.27a1.21,1.21,0,0,1,2,0c1.78,2.81,5.28,8.67,5.28,11.27a6.3,6.3,0,1,1-12.59,0Z"/><path d="M51.64,74.34c0-2.6,3.51-8.45,5.29-11.26a1.2,1.2,0,0,1,2,0c1.78,2.81,5.28,8.66,5.28,11.26a6.3,6.3,0,0,1-12.6,0Z"/><path d="M66.54,84.53c0-2.42,3-7.69,4.9-10.67a1.65,1.65,0,0,1,2.79,0c1.85,3,4.9,8.25,4.9,10.67a6.3,6.3,0,1,1-12.59,0Z"/><path class="cls-1" d="M47.62,12.67a2.08,2.08,0,0,0-1.14,3.23,121.66,121.66,0,0,1,7,11.73C56.26,32.94,58.32,38.86,58.2,45c-.14,7.23-3.39,14.56-10.5,16.82-9,2.86-17.46-4.16-26.52-3.44-6.61.52-9.94,6.73-10.93,12.85-.37,2.27.08,18.47,2.1,18.47h6a1.68,1.68,0,0,0,1.58-2.15c-1.16-4.15-2.26-8.77-1.4-12.92.76-3.65,3.83-7.17,7.19-3.83,4.32,4.28,7.16,10,11.85,13.9,19.12,15.93,48.28-3.77,51.94-25.49,1.89-11.26-.16-27.67-11.08-33.82-4.94-2.78-10.8-1.91-16-4-3.91-1.6-6.62-5.11-8.55-8.87a1.73,1.73,0,0,0-2-.92Z"/><path class="cls-2" d="M21.43,12.18a2.55,2.55,0,0,1,4.43,0L32.17,23.1,38.48,34a2.56,2.56,0,0,1-2.22,3.84H11A2.56,2.56,0,0,1,8.81,34L15.12,23.1Z"/><path d="M21.75,17.43a.92.92,0,0,1,.89-1.1h1.84a.94.94,0,0,1,.92,1.1l-.89,10.43a.94.94,0,0,1-1,.92.92.92,0,0,1-.92-.92Zm1.81,13.21a1.75,1.75,0,0,1,1.82,1.77v.25a1.82,1.82,0,0,1-3.63,0v-.25A1.76,1.76,0,0,1,23.56,30.64Z"/></svg>