<svg id="Layer_1" data-name="Layer 1" xmlns="http://www.w3.org/2000/svg" viewBox="0 0 100 100"><defs><style>.cls-1{fill:none;stroke-linecap:round;}.cls-1,.cls-2{stroke:#000;stroke-miterlimit:10;stroke-width:4px;}</style></defs><path class="cls-1" d="M35.64,17.47a8,8,0,0,0-7.95,8"/><path class="cls-1" d="M35.09,9.48a14.8,14.8,0,0,0-14.8,14.8"/><path class="cls-1" d="M72.64,79.7a8,8,0,0,1-8,7.94"/><path class="cls-1" d="M80.63,80.24A14.8,14.8,0,0,1,65.83,95"/><g id="_110" data-name="110"><path d="M70.35,12.1l7.4,4.68a4.42,4.42,0,0,1,1.41,6.06l-4,6.57L60.25,20l3.94-6.46A4.45,4.45,0,0,1,70.35,12.1Z"/><path class="cls-2" d="M74.36,30.25,59.88,21.1a10.35,10.35,0,0,0-14.27,3.22L19.4,65.8a10.34,10.34,0,0,0,3.22,14.27L37.1,89.22A10.34,10.34,0,0,0,51.37,86L77.58,44.52A10.34,10.34,0,0,0,74.36,30.25ZM52.09,82.35,22.39,63.58,45.48,27l29.7,18.77Z"/></g></svg>