<svg id="Layer_1" data-name="Layer 1" xmlns="http://www.w3.org/2000/svg" viewBox="0 0 100 100"><defs><style>.cls-1,.cls-2,.cls-3{fill:none;}.cls-2,.cls-3,.cls-4{stroke:#000;stroke-miterlimit:10;stroke-width:4px;}.cls-2{stroke-linecap:round;}</style></defs><circle cx="51.72" cy="15.51" r="1.55"/><circle cx="45.85" cy="20.94" r="1.55"/><circle cx="57.59" cy="20.96" r="1.55"/><circle cx="55.03" cy="29.57" r="1.55"/><circle cx="47.41" cy="29.62" r="1.55"/><circle cx="51.47" cy="22.51" r="1.55"/><circle cx="41.24" cy="25.85" r="1.55"/><circle cx="62.38" cy="26.81" r="1.55"/><g id="_254" data-name="254"><rect class="cls-1" x="10.04" y="13.02" width="80" height="80"/><path class="cls-2" d="M78.73,51.93a10.65,10.65,0,0,0-9.06-5.86,10.63,10.63,0,0,0-15.9-6.92,10.62,10.62,0,0,0-19.63,5.08,10.65,10.65,0,0,0-9.49,7.7Z"/><path class="cls-3" d="M37,81.86v3a6,6,0,0,0,6,6H59.81a6,6,0,0,0,6-6v-3"/><path class="cls-3" d="M51.34,84.54c17.4,0,31.91-11.17,35.24-26a5.38,5.38,0,0,0-5.3-6.47H21.4a5.37,5.37,0,0,0-5.29,6.47C19.43,73.37,33.94,84.54,51.34,84.54Z"/></g><path class="cls-3" d="M30.87,18.11l5.81,4.48L43,14.46,37.14,10a5,5,0,0,0-7,.82l-.27.35A5,5,0,0,0,30.87,18.11Z"/><path class="cls-4" d="M71.31,17.9,65.5,22.38l-6.27-8.13L65,9.77a5,5,0,0,1,7,.82l.27.35A5,5,0,0,1,71.31,17.9Z"/></svg>