<svg id="Layer_1" data-name="Layer 1" xmlns="http://www.w3.org/2000/svg" viewBox="0 0 100 100"><defs><style>.cls-1,.cls-3{fill:none;}.cls-1,.cls-2,.cls-3{stroke:#000;stroke-miterlimit:10;}.cls-1,.cls-2{stroke-width:4px;}.cls-3{stroke-width:3px;}</style></defs><g id="_193" data-name="193"><path class="cls-1" d="M49.43,65.33h7.21a0,0,0,0,1,0,0v21.3A3.61,3.61,0,0,1,53,90.24h0a3.61,3.61,0,0,1-3.61-3.61V65.33A0,0,0,0,1,49.43,65.33Z"/><path class="cls-1" d="M26.41,88.84c-2.33-.29-10.88-28.09-1.23-42.44s28.48-7.1,32.6-6.78c3.83.3,10.45-.79,18.28.52S90.67,46.4,90.67,46.4s-9,1.83-14.68,5.68c-5.54,3.73-8.42,9.09-14.56,11.3a9,9,0,0,1-6,.3,1.59,1.59,0,0,0-1.85.7,29.9,29.9,0,0,1-5.57,6.92C44.4,74.43,40.83,73.86,36.94,77,33.47,79.71,29.54,89.21,26.41,88.84Z"/><path class="cls-1" d="M57.78,39.62s-6.15,10.6-8.48,13.94c-1.47,2.11,6.17,10.12,6.17,10.12"/><path class="cls-2" d="M33.37,68a5.32,5.32,0,0,1-2.79-2.48c-5.67,8.36-6.49,19.25-6.31,19.72.84,2.23,1.64,3.58,2.14,3.65,3.13.37,7.06-9.13,10.53-11.89,3.89-3.09,7.46-2.52,11.11-5.65C48.3,71.08,38.76,70.23,33.37,68Z"/><path class="cls-2" d="M66.8,47.69a5,5,0,0,0-1.87.5C60,51,58.7,54.54,52.4,56.38c-4.88,1.43-9.52-.46-13.67,1.65a19.07,19.07,0,0,0-2.43,1.46c2,.69,3.81,2.67,6.16,5a27.65,27.65,0,0,0,7.3,5.12,34.29,34.29,0,0,0,3.86-5.25,1.59,1.59,0,0,1,1.85-.7,9,9,0,0,0,6-.3c6.14-2.21,9-7.57,14.56-11.3,5.71-3.85,14.68-5.68,14.68-5.68S77,47.28,66.8,47.69Z"/><path class="cls-1" d="M36.3,59.49a5,5,0,0,0-1-.24c-2.48-.29-4.06.59-4.87,2.29a4.59,4.59,0,0,0,.17,3.93"/><path class="cls-3" d="M19.39,10.49a2.55,2.55,0,0,1,4.42,0l6.31,10.92,6.31,10.93a2.56,2.56,0,0,1-2.21,3.83H9a2.55,2.55,0,0,1-2.21-3.83l6.31-10.93Z"/><path d="M19.7,15.73a.92.92,0,0,1,.9-1.09h1.84a.94.94,0,0,1,.92,1.09l-.9,10.43a.93.93,0,0,1-.94.92.9.9,0,0,1-.92-.92ZM21.52,29a1.75,1.75,0,0,1,1.81,1.76V31a1.82,1.82,0,0,1-3.63,0v-.26A1.76,1.76,0,0,1,21.52,29Z"/></g></svg>