<?xml version="1.0" encoding="utf-8"?>
<!-- Generator: Adobe Illustrator 24.0.0, SVG Export Plug-In . SVG Version: 6.00 Build 0)  -->
<svg version="1.1" id="Layer_1" xmlns="http://www.w3.org/2000/svg" xmlns:xlink="http://www.w3.org/1999/xlink" x="0px" y="0px"
	 viewBox="0 0 100 100" style="enable-background:new 0 0 100 100;" xml:space="preserve">
<g>
	<path d="M16.2,22.7C16.2,22.7,16.2,22.7,16.2,22.7c-0.9,0-1.6,0.7-1.6,1.5v0.2c0,0.9,0.7,1.6,1.6,1.6s1.6-0.7,1.6-1.6v-0.2
		c0,0,0,0,0-0.1C17.8,23.3,17.1,22.6,16.2,22.7z"/>
	<path d="M17,10.4h-1.6c0,0-0.1,0-0.1,0c-0.4,0.1-0.7,0.5-0.6,0.9l0.8,9c0,0,0,0,0,0c0,0.4,0.4,0.8,0.8,0.8c0,0,0,0,0,0
		c0.4,0,0.8-0.3,0.8-0.8l0.8-9c0,0,0-0.1,0-0.1C17.8,10.7,17.4,10.4,17,10.4z"/>
	<path d="M63.5,59.6c0.1-0.1,0.2-0.2,0.2-0.3c0.1-0.2,0.3-0.4,0.4-0.6c0.1-0.1,0.2-0.3,0.3-0.4c0.1-0.2,0.2-0.4,0.3-0.6
		c0.1-0.2,0.2-0.3,0.2-0.5c0.1-0.2,0.2-0.3,0.2-0.5c0.1-0.2,0.2-0.4,0.2-0.6c0.1-0.2,0.1-0.3,0.2-0.5c0.1-0.2,0.1-0.5,0.2-0.7
		c0-0.1,0.1-0.3,0.1-0.4c0.1-0.3,0.1-0.7,0.2-1c0,0,0-0.1,0-0.1c0-0.4,0.1-0.8,0.1-1.2l0-0.1c0,0,0,0,0,0l0-0.8l0,0
		c0-0.6-0.1-1.2-0.2-1.8c-0.7-3.6-2.6-6-5.8-7.1c-2.4-0.8-5.5-0.9-9.5-0.1c-4,0.8-6.9,2-8.8,3.7c-2.5,2.2-3.4,5.1-2.7,8.7
		c0.2,1,0.5,1.9,0.9,2.8c0,0,0,0.1,0,0.1c0.1,0.2,0.2,0.3,0.3,0.5c0,0.1,0.1,0.1,0.1,0.2c1.9,3.6,5.2,5.8,9.3,6.4c0.1,0,0.1,0,0.2,0
		c0,0,0.1,0,0.1,0c0.6,0.1,1.2,0.1,1.9,0.1c1,0,2.1-0.1,3.1-0.3c0.4-0.1,0.7-0.2,1-0.3c0.1,0,0.1,0,0.2,0c0.2-0.1,0.5-0.1,0.7-0.2
		c0.2-0.1,0.4-0.1,0.6-0.2c0.2-0.1,0.4-0.2,0.6-0.2c0.2-0.1,0.4-0.2,0.6-0.3c0.2-0.1,0.4-0.2,0.6-0.3c0.2-0.1,0.4-0.2,0.5-0.3
		c0.2-0.1,0.4-0.2,0.6-0.3c0.1-0.1,0.3-0.2,0.4-0.3c0.2-0.1,0.4-0.3,0.6-0.4c0.1-0.1,0.2-0.1,0.3-0.2C62.3,61,62.9,60.3,63.5,59.6z
		 M43.6,48.3c1.5-1.3,4-2.3,7.5-3c1.8-0.3,3.3-0.5,4.7-0.5c1.3,0,2.4,0.2,3.4,0.5c2.1,0.7,3.4,2.3,3.9,4.9c0.1,0.4,0.1,0.8,0.2,1.1
		c-1.3,0.7-4.5,2.2-10.4,0c-5.6-2.1-9.5,0.9-11,2.3C41.5,51.3,42.1,49.6,43.6,48.3z"/>
	<path d="M89.5,77.4c-4.5-2.9-17.8-6.5-22.8-7.7c0.2-1,0.2-2,0.1-3.1c6.4-6.6,9.5-17.1,8.1-27c0,0,0,0,0,0C72.6,24,59.4,13,45.7,15
		c-6.2,0.9-11.6,4.3-15.5,9.6L19.5,6.1c-0.3-0.6-0.8-1-1.4-1.4c-0.9-0.5-1.9-0.6-2.8-0.4c-1,0.3-1.7,0.9-2.2,1.7l-5.4,9.4l-5.5,9.4
		c-0.3,0.6-0.5,1.2-0.5,1.9c0,2,1.7,3.7,3.7,3.7c0,0,0,0,0,0H27c-2.2,5.1-2.9,10.9-2,16.8c1.4,9.4,7,18,14.4,22.6
		c-3.1,0.7-8,1.9-12.7,3.3l0.7-7.7c0-0.1,0-0.3,0-0.4c0-2.4-2-4.4-4.4-4.4H9.1c-0.1,0-0.3,0-0.4,0c-2.4,0.2-4.2,2.4-4,4.8l2.5,27.3
		c0.2,2.3,2.1,4,4.4,4c0,0,0,0,0,0h9c2.3,0,4.1-1.8,4.3-4l1.4-15.3c5.4-1.6,11.7-3.2,15.5-4c2.2,4.5,6.8,7.5,11.9,7.5
		c0.6,0,1.3,0,1.9-0.1c4.4-0.7,8-3.5,9.9-7.2c6,1.5,18.1,4.9,21.8,7.3c4.3,2.8,5.3,10.4,5.3,10.6c0.1,1,1,1.8,2,1.8
		c0.1,0,0.2,0,0.2,0c1.1-0.1,1.9-1.1,1.8-2.2C96.6,90.4,95.5,81.2,89.5,77.4z M9.2,64.5h13.9c0.2,0,0.4,0.2,0.4,0.5l-0.7,7.7H9.5
		L8.8,65C8.8,64.7,8.9,64.5,9.2,64.5z M5.4,27.4C5.4,27.4,5.4,27.4,5.4,27.4c-0.4,0-0.7-0.3-0.7-0.7c0-0.1,0-0.2,0.1-0.3l5.5-9.4
		l5.4-9.4l0,0c0.1-0.2,0.4-0.3,0.6-0.3c0.1,0,0.2,0,0.3,0.1c0.1,0.1,0.2,0.1,0.3,0.3l10.8,18.8c0.1,0.2,0.1,0.4,0.1,0.5
		c0,0.1-0.1,0.3-0.3,0.4c-0.1,0.1-0.2,0.1-0.3,0.1H5.4z M55.1,76.7c-5,0.8-9.7-2.7-10.4-7.7c-0.1-0.7-0.5-1.2-1.1-1.5
		C36.1,63.9,30.4,55.7,29,46.6c-1-6.6,0.3-13.1,3.6-18.3c3.3-5.2,8.1-8.5,13.7-9.3c0.9-0.1,1.8-0.2,2.7-0.2c10.5,0,20.1,9.1,22,21.4
		c1.3,9-1.7,18.5-7.6,24.2c-0.4,0.4-0.6,0.9-0.6,1.4V66c0,0.1,0,0.2,0,0.3c0.4,2.4-0.2,4.8-1.7,6.8C59.7,75.1,57.5,76.4,55.1,76.7z"
		/>
	<path d="M78.1,65.4c-0.5,1-0.2,2.2,0.8,2.7l7.6,4.1l3.7-7.4c0.5-1,0.1-2.2-0.9-2.7c-1-0.5-2.2-0.1-2.7,0.9l-0.6,1.3
		c-0.9-2.8-2.8-6.3-6.7-9.5c-0.9-0.7-2.1-0.6-2.8,0.3c-0.7,0.9-0.6,2.1,0.3,2.8c3,2.5,4.5,5.3,5.3,7.4l-1.4-0.7
		C79.8,64.1,78.6,64.4,78.1,65.4z"/>
	<path d="M84.6,31.7c7.4,0,13.3-6,13.3-13.3C98,11,92,5,84.6,5c-7.4,0-13.3,6-13.3,13.3C71.3,25.7,77.3,31.7,84.6,31.7z M84.6,8
		C90.3,8,95,12.7,95,18.4c0,5.7-4.6,10.3-10.3,10.3c-5.7,0-10.3-4.6-10.3-10.3C74.3,12.7,78.9,8,84.6,8z"/>
	<path d="M84.5,15.3l-2.1,1.7c-0.3,0.2-0.4,0.5-0.4,0.8c0,0.5,0.4,0.8,0.9,0.8h3.9c0.4,0,0.7-0.3,0.7-0.7s-0.3-0.7-0.7-0.7h-2.5
		l1.2-0.9c1.3-1,1.9-1.6,1.9-2.8v0c0-1.4-1-2.2-2.5-2.2c-1.1,0-1.8,0.4-2.4,1.1c-0.1,0.1-0.2,0.3-0.2,0.5c0,0.4,0.3,0.7,0.7,0.7
		c0.2,0,0.4-0.1,0.5-0.2c0.4-0.4,0.7-0.6,1.2-0.6c0.6,0,1,0.3,1,0.9C85.8,14.1,85.4,14.5,84.5,15.3z"/>
	<path d="M79.3,23.5L79.3,23.5c0-0.7-0.6-0.9-1.1-1c-0.5-0.1-0.9-0.3-0.9-0.6v0c0-0.3,0.3-0.5,0.7-0.5c0.3,0,0.6,0.1,0.9,0.3
		c0,0,0.1,0,0.1,0c0.1,0,0.2-0.1,0.2-0.2c0-0.1-0.1-0.2-0.1-0.2c-0.3-0.2-0.8-0.3-1.1-0.3c-0.7,0-1.2,0.4-1.2,1v0
		c0,0.7,0.6,0.8,1.2,1c0.5,0.1,0.9,0.3,0.9,0.6v0c0,0.3-0.3,0.6-0.7,0.6c-0.4,0-0.8-0.1-1.1-0.4c0,0-0.1,0-0.1,0
		c-0.1,0-0.2,0.1-0.2,0.2c0,0.1,0,0.2,0.1,0.2c0.4,0.3,0.9,0.4,1.4,0.4C78.8,24.5,79.3,24.1,79.3,23.5z"/>
	<path d="M79.8,21.4h0.3v2.1c0,0.7,0.4,1,1,1c0.2,0,0.4,0,0.5-0.1c0.1,0,0.2-0.1,0.2-0.2c0-0.1-0.1-0.2-0.2-0.2c0,0-0.1,0-0.3,0
		c-0.4,0-0.6-0.2-0.6-0.6v-2.1h0.9c0.1,0,0.2-0.1,0.2-0.2c0-0.1-0.1-0.2-0.2-0.2h-0.9v-0.8c0-0.1-0.1-0.3-0.3-0.3
		c-0.2,0-0.3,0.1-0.3,0.3v0.8h-0.3c-0.1,0-0.2,0.1-0.2,0.2C79.6,21.3,79.7,21.4,79.8,21.4z"/>
	<path d="M83.8,24.6c0.6,0,1-0.2,1.3-0.5c0.1,0,0.1-0.1,0.1-0.2c0-0.1-0.1-0.2-0.2-0.2c-0.1,0-0.1,0-0.2,0.1c-0.3,0.2-0.6,0.4-1,0.4
		c-0.6,0-1.2-0.4-1.3-1.2h2.6c0.1,0,0.2-0.1,0.2-0.2c0-0.9-0.6-1.8-1.7-1.8c-1,0-1.7,0.8-1.7,1.9v0C82,23.8,82.8,24.6,83.8,24.6z
		 M83.7,21.3c0.7,0,1.1,0.6,1.1,1.2h-2.3C82.6,21.8,83.1,21.3,83.7,21.3z"/>
	<path d="M86.5,21.6v-0.5c0-0.2-0.1-0.3-0.3-0.3c-0.1,0-0.3,0.1-0.3,0.3v4.2c0,0.2,0.1,0.3,0.3,0.3s0.3-0.1,0.3-0.3v-1.5
		c0.3,0.4,0.7,0.8,1.4,0.8c0.9,0,1.7-0.7,1.7-1.9v0c0-1.2-0.8-1.8-1.7-1.8C87.2,20.8,86.8,21.2,86.5,21.6z M87.8,21.3
		c0.7,0,1.3,0.5,1.3,1.4v0c0,0.9-0.6,1.4-1.3,1.4c-0.7,0-1.3-0.5-1.3-1.4v0C86.5,21.9,87.1,21.3,87.8,21.3z"/>
	<path d="M91.4,24.5c0.7,0,1.3-0.4,1.3-1.1v0c0-0.6-0.6-0.9-1.1-1c-0.5-0.1-0.9-0.3-0.9-0.6v0c0-0.3,0.3-0.5,0.7-0.5
		c0.3,0,0.6,0.1,0.9,0.3c0,0,0.1,0,0.1,0c0.1,0,0.2-0.1,0.2-0.2c0-0.1-0.1-0.2-0.1-0.2c-0.3-0.2-0.8-0.3-1.1-0.3
		c-0.7,0-1.2,0.4-1.2,1v0c0,0.7,0.6,0.8,1.2,1c0.5,0.1,0.9,0.3,0.9,0.6v0c0,0.3-0.3,0.6-0.7,0.6c-0.4,0-0.8-0.1-1.1-0.4
		c0,0-0.1,0-0.1,0c-0.1,0-0.2,0.1-0.2,0.2c0,0.1,0,0.2,0.1,0.2C90.4,24.4,90.9,24.5,91.4,24.5z"/>
</g>
</svg>
