<?xml version="1.0" encoding="utf-8"?>
<!-- Generator: Adobe Illustrator 24.2.3, SVG Export Plug-In . SVG Version: 6.00 Build 0)  -->
<svg version="1.1" id="Layer_1" xmlns="http://www.w3.org/2000/svg" xmlns:xlink="http://www.w3.org/1999/xlink" x="0px" y="0px"
	 viewBox="0 0 100 100" style="enable-background:new 0 0 100 100;" xml:space="preserve">
<g>
	<path d="M91.8,44.8c-0.3-0.2-7.3-5.2-15.5-6.6c-5.3-0.9-10-0.7-13.8-0.6c-1.9,0.1-3.5,0.1-4.7,0c-0.5,0-1.5-0.3-2.7-0.5
		c-3.9-0.9-10.9-2.4-17.8-1c1-1.3,1.1-3,0.3-4.5L25.1,9.7c-0.4-0.6-0.9-1.1-1.5-1.5c-0.9-0.5-2-0.7-3.1-0.4c-1,0.3-1.9,1-2.5,1.9
		L5.5,31.6c-0.4,0.6-0.5,1.3-0.5,2c0,2.2,1.8,4,4,4c0,0,0,0,0,0h23.4c-3.3,1.5-6.4,3.9-8.9,7.6c-8.1,12.1-4.1,32.3-1.2,40.4
		c0,0.1,0,0.2,0.1,0.2c1.5,3.9,2.5,4.8,3.8,4.9c0.1,0,0.3,0,0.4,0c2.8,0,5-3.3,7.6-7.1c1.4-2.1,2.8-4.2,4-5.2c0,0,0,0,0,0
		c1.6-1.3,3.3-1.9,5-2.5c1.3-0.5,2.8-1,4.2-1.8v12.4c0,3.1,2.5,5.6,5.6,5.6c3.1,0,5.6-2.5,5.6-5.6V66c1.2-0.1,2.4-0.3,3.5-0.8
		c0.5-0.2,1-0.4,1.5-0.6c3.3-1.5,5.7-3.9,8-6.2c1.7-1.6,3.4-3.3,5.5-4.7c2-1.3,4.4-2.4,6.7-3.3c3.8-1.4,7.2-2.1,7.2-2.1l4.4-0.9
		L91.8,44.8z M9,34.7C9,34.7,9,34.7,9,34.7c-0.6,0-1.1-0.5-1.1-1c0-0.2,0-0.4,0.1-0.5l12.6-21.9v0c0.1-0.2,0.4-0.4,0.6-0.5
		c0.1,0,0.2,0,0.3,0c0.2,0,0.4,0,0.5,0.1c0.2,0.1,0.3,0.2,0.4,0.4l12.6,21.8c0.3,0.5,0.1,1.2-0.4,1.4c-0.2,0.1-0.3,0.1-0.5,0.1H9z
		 M34.1,66.2L34.1,66.2c-0.8-0.3-1.4-0.9-1.8-1.6l0,0l0,0C32,63.8,32,63,32.2,62.4c0.3-0.7,0.9-1.4,2.8-1.2c0.2,0,0.4,0.1,0.6,0.1
		l0,0l0,0c1.3,0.5,2.9,2,4.6,3.7l0.8,0.8c1,1,2.1,1.9,3.2,2.7C41.2,68.1,37,67.3,34.1,66.2z M47.7,52.4C47.2,53.1,47,54,47.2,55
		c-0.4,0-0.8,0-1.3,0c-2.7,0-5.4-0.1-8.1,1.3c-0.7,0.3-1.3,0.7-1.9,1.1c-0.1,0-0.3-0.1-0.4-0.1c-4.4-0.5-6.2,1.9-6.9,3.5
		c-0.6,1.4-0.7,3-0.2,4.5c-2.1,3.3-3.6,7-4.5,10.4c-1.6-8.8-2.1-20.5,3-28.1c4.3-6.3,10.6-8,16.5-8c4.3,0,8.3,0.9,11.1,1.5
		c0.1,0,0.2,0,0.2,0.1C52.7,44.4,49.2,50.2,47.7,52.4z M54.6,86.6c0,0.9-0.7,1.6-1.6,1.6c-0.9,0-1.6-0.7-1.6-1.6V70.8
		c0.9-1,1.7-2.1,2.5-3.2c0,0,0,0,0,0c0.1-0.1,0.1-0.2,0.2-0.2h0.6V86.6z M66.7,45.7L66.7,45.7c-1,0.1-1.8,0.3-2.7,0.7l-0.1,0.1
		c-2.1,1.2-3.6,2.5-5,3.7c-2,1.8-3.7,3.3-7.1,4.3c-0.2,0.1-0.4,0.1-0.6,0.1c0-0.1-0.1-0.1-0.1-0.2c2-3,6.2-10.1,7.8-12.7
		c1.1,0,2.4,0,3.8-0.1c3.6-0.1,8.1-0.3,13,0.5c3,0.5,5.8,1.6,8.2,2.7C79,45.1,72.3,45.5,66.7,45.7z"/>
	<path d="M21.5,29C21.5,29,21.5,29,21.5,29c-1,0-1.8,0.8-1.8,1.7V31c0.1,0.9,0.8,1.6,1.7,1.7c1,0.1,1.9-0.7,1.9-1.7v-0.2
		c0,0,0,0,0-0.1C23.3,29.7,22.5,29,21.5,29z"/>
	<path d="M22.4,14.6h-1.8c-0.1,0-0.1,0-0.2,0c-0.5,0.1-0.8,0.6-0.7,1.1l0.9,10.4c0,0,0,0,0,0c0,0.5,0.4,0.9,0.9,0.9h0
		c0.5,0,0.9-0.4,0.9-0.9l0.9-10.4c0,0,0-0.1,0-0.1C23.4,15.1,23,14.6,22.4,14.6z"/>
</g>
</svg>
