<svg id="Layer_1" data-name="Layer 1" xmlns="http://www.w3.org/2000/svg" viewBox="0 0 100 100"><defs><style>.cls-1,.cls-3{fill:none;}.cls-1,.cls-2,.cls-3{stroke:#000;stroke-miterlimit:10;}.cls-1{stroke-width:4px;}.cls-3{stroke-linecap:round;stroke-width:3px;}</style></defs><circle class="cls-1" cx="25.94" cy="26.45" r="13.77"/><path d="M17.77,15.37a14.18,14.18,0,0,0-2.92,2.92L34.1,37.54A13.7,13.7,0,0,0,37,34.62Z"/><circle class="cls-2" cx="30" cy="53.73" r="5.53"/><path d="M30,50.2a3.53,3.53,0,0,1,3.53,3.53h4A7.53,7.53,0,0,0,30,46.2Zm-3.53,3.53A3.54,3.54,0,0,1,30,50.2v-4a7.53,7.53,0,0,0-7.53,7.53ZM30,57.26a3.54,3.54,0,0,1-3.53-3.53h-4c0,4.15,2.28,7.53,7.53,7.53Zm3.53-3.53A3.53,3.53,0,0,1,30,57.26v4c6.81,0,7.53,3,7.53-7.53Z"/><path d="M44.52,44.58a8,8,0,0,0-8,8h4a4,4,0,0,1,4-4Zm21.86,0H44.52v4H66.38ZM72.13,47a8,8,0,0,0-5.75-2.43v4a4,4,0,0,1,2.88,1.2ZM86.6,61.93,72.13,47l-2.87,2.79L83.73,64.72ZM38.51,65l46.64.31,0-4L38.54,61Zm-2-12.44V63h4V52.58Zm8-6v0ZM70.69,48.4l-1.43,1.38h0ZM85.16,63.33v2l4.77,0L86.6,61.93ZM38.52,63h-2v2l2,0Z"/><path d="M83,61H26a4,4,0,0,1-4-4V42.1a6.74,6.74,0,0,0-13.48,0V87.59h4V77.82H87v9.77h4V69A8,8,0,0,0,83,61ZM12.53,73.82V42.1a2.74,2.74,0,0,1,5.48,0V57a8,8,0,0,0,8,8H83a4,4,0,0,1,4,4v4.8Z"/><g id="_254" data-name="254"><path class="cls-3" d="M86.12,20.93a5.37,5.37,0,0,0-4.58-3,5.36,5.36,0,0,0-8-3.5A5.37,5.37,0,0,0,63.58,17a5.36,5.36,0,0,0-4.79,3.89Z"/><path class="cls-1" d="M65,36.05v1.5a3,3,0,0,0,3,3h8.48a3,3,0,0,0,3-3V36"/><path class="cls-1" d="M72.28,37.41c8.79,0,16.12-5.65,17.8-13.15A2.71,2.71,0,0,0,87.41,21H57.14a2.71,2.71,0,0,0-2.67,3.27C56.15,31.76,63.48,37.41,72.28,37.41Z"/></g></svg>