<?xml version="1.0" encoding="utf-8"?>
<!-- Generator: Adobe Illustrator 24.0.0, SVG Export Plug-In . SVG Version: 6.00 Build 0)  -->
<svg version="1.1" id="Layer_1" xmlns="http://www.w3.org/2000/svg" xmlns:xlink="http://www.w3.org/1999/xlink" x="0px" y="0px"
	 viewBox="0 0 100 100" style="enable-background:new 0 0 100 100;" xml:space="preserve">
<g>
	<path d="M89.4,45.4L80,36v0l-4-4V17.9c0-3.6-2.9-6.5-6.5-6.5S63,14.3,63,17.9V19l-9.4-9.4c-3.1-3.1-8.2-3.1-11.3,0L23.1,28.8
		L6.6,45.4c-0.8,0.8-0.8,2,0,2.8c0.8,0.8,2,0.8,2.8,0l6.6-6.6l-0.1,39.6c0,4.4,3.6,8,8,8H72c4.4,0,8-3.6,8-8V41.6l6.6,6.6
		c0.4,0.4,0.9,0.6,1.4,0.6c0.5,0,1-0.2,1.4-0.6C90.2,47.4,90.2,46.2,89.4,45.4z M67,17.9c0-1.4,1.1-2.5,2.5-2.5s2.5,1.1,2.5,2.5V28
		l-5-5V17.9z M76,81.3c0,2.2-1.8,4-4,4H23.9c-2.2,0-4-1.8-4-4L20,37.6l6.4-6.5l18.7-18.7c1.6-1.6,4.1-1.6,5.7,0L76,37.7V81.3z"/>
	<path d="M33.6,42.7v31.2c0,3.3,2.7,6,6,6h16.7c3.3,0,6-2.7,6-6V42.7c0-3.3-2.7-6-6-6H39.6C36.3,36.7,33.6,39.4,33.6,42.7z
		 M54.2,43.5h4.2c1.1,0,2,0.9,2,2s-0.9,2-2,2h-4.2c-1.1,0-2-0.9-2-2S53.1,43.5,54.2,43.5z M54.2,49.5h4.2c1.1,0,2,0.9,2,2
		s-0.9,2-2,2h-4.2c-1.1,0-2-0.9-2-2S53.1,49.5,54.2,49.5z M46.2,63.1V45.7c0-1.1,0.9-2,2-2s2,0.9,2,2v17.5c2.6,1.2,3.7,4.3,2.5,6.9
		c-0.9,1.8-2.7,3-4.7,3c-2.9-0.1-5.1-2.4-5.1-5.3C43,65.7,44.3,63.9,46.2,63.1z"/>
</g>
</svg>
