<?xml version="1.0" encoding="utf-8"?>
<!-- Generator: Adobe Illustrator 24.2.3, SVG Export Plug-In . SVG Version: 6.00 Build 0)  -->
<svg version="1.1" id="Layer_1" xmlns="http://www.w3.org/2000/svg" xmlns:xlink="http://www.w3.org/1999/xlink" x="0px" y="0px"
	 viewBox="0 0 100 100" style="enable-background:new 0 0 100 100;" xml:space="preserve">
<path d="M62.5,42.6c-1-1-2.4-1.6-3.8-1.6H39c-0.2,0-0.3,0-0.5,0c-1.4,0.1-2.7,0.8-3.7,1.9c-0.9,1.1-1.4,2.5-1.2,3.9L37,85.4
	c0.2,2.8,2.6,4.9,5.4,4.9c0,0,0,0,0.1,0h12.7c0,0,0,0,0,0c2.8,0,5.1-2.1,5.4-4.9L64,46.9c0-0.1,0-0.3,0-0.4
	C64,45,63.5,43.6,62.5,42.6z M38.9,45c0,0,0.1,0,0.1,0c0,0,0,0,0,0h19.6c0.4,0,0.7,0.2,1,0.4c0.3,0.3,0.4,0.6,0.4,1l-1,10.9H38.5
	l-1-10.8C37.5,45.8,38.1,45.1,38.9,45z"/>
<circle cx="48.9" cy="21.4" r="1.5"/>
<circle cx="43" cy="26.8" r="1.5"/>
<circle cx="54.8" cy="26.9" r="1.5"/>
<circle cx="52.2" cy="35.5" r="1.5"/>
<circle cx="44.6" cy="35.5" r="1.5"/>
<circle cx="48.6" cy="28.4" r="1.5"/>
<circle cx="38.4" cy="31.7" r="1.5"/>
<circle cx="59.5" cy="32.7" r="1.5"/>
<path d="M34.2,31.3l-7.4-5.7c-3-2.3-3.7-6.7-1.4-9.7l0.3-0.4c2.4-3,6.8-3.5,9.8-1.2l7.4,5.7L34.2,31.3z M31.2,16.8
	c-0.9,0-1.8,0.4-2.3,1.1l-0.3,0.3c-0.9,1.3-0.7,3.2,0.6,4.1l4.2,3.3l3.8-5L33,17.5C32.5,17,31.8,16.8,31.2,16.8z"/>
<path d="M71.1,15.6l-0.3-0.4c-2.4-3-6.8-3.5-9.8-1.2l-7.4,5.7l8.7,11.3l7.4-5.7C72.7,23.1,73.3,18.7,71.1,15.6z"/>
</svg>
