<svg id="Layer_1" data-name="Layer 1" xmlns="http://www.w3.org/2000/svg" viewBox="0 0 100 100"><defs><style>.cls-1{fill:none;stroke-width:4px;}.cls-1,.cls-2{stroke:#000;stroke-miterlimit:10;}.cls-3{font-size:12px;font-family:GothamRounded-Medium, Gotham Rounded;font-weight:500;}</style></defs><path d="M74.41,43.39A15.88,15.88,0,1,1,90.29,27.51,15.9,15.9,0,0,1,74.41,43.39Zm0-27.67A11.8,11.8,0,1,0,86.2,27.51,11.8,11.8,0,0,0,74.41,15.72Z"/><circle class="cls-1" cx="25.94" cy="27.18" r="13.77"/><path d="M17.77,16.09A14.18,14.18,0,0,0,14.85,19L34.1,38.26A13.48,13.48,0,0,0,37,35.34Z"/><circle class="cls-2" cx="30" cy="54.45" r="5.53"/><path d="M30,50.92a3.53,3.53,0,0,1,3.53,3.53h4A7.53,7.53,0,0,0,30,46.92Zm-3.53,3.53A3.54,3.54,0,0,1,30,50.92v-4a7.53,7.53,0,0,0-7.53,7.53ZM30,58a3.54,3.54,0,0,1-3.53-3.53h-4C22.47,58.61,24.75,62,30,62Zm3.53-3.53A3.53,3.53,0,0,1,30,58v4c6.81,0,7.53,3,7.53-7.53Z"/><path d="M44.52,45.3a8,8,0,0,0-8,8h4a4,4,0,0,1,4-4Zm21.86,0H44.52v4H66.38Zm5.75,2.43a8,8,0,0,0-5.75-2.43v4a4,4,0,0,1,2.88,1.21ZM86.6,62.66,72.13,47.73l-2.87,2.78L83.73,65.44ZM38.51,65.74l46.64.31,0-4-46.64-.31Zm-2-12.44V63.74h4V53.3Zm8-6v0Zm26.17,1.82-1.43,1.39h0ZM85.16,64.05v2l4.77,0L86.6,62.66Zm-46.64-.31h-2v2h2Z"/><path d="M83,61.74H26a4,4,0,0,1-4-4V42.82a6.74,6.74,0,0,0-13.48,0V88.31h4V78.54H87v9.77h4V69.74A8,8,0,0,0,83,61.74ZM12.53,74.54V42.82a2.74,2.74,0,0,1,5.48,0V57.74a8,8,0,0,0,8,8H83a4,4,0,0,1,4,4v4.8Z"/><text class="cls-3" transform="translate(66.43 31.12)">60</text></svg>