<?xml version="1.0" encoding="utf-8"?>
<!-- Generator: Adobe Illustrator 24.0.0, SVG Export Plug-In . SVG Version: 6.00 Build 0)  -->
<svg version="1.1" id="Layer_1" xmlns="http://www.w3.org/2000/svg" xmlns:xlink="http://www.w3.org/1999/xlink" x="0px" y="0px"
	 viewBox="0 0 100 100" style="enable-background:new 0 0 100 100;" xml:space="preserve">
<path d="M93.6,85.7c0-0.4-1.2-9.5-7-13.2c-4.7-3-18.9-6.7-23.1-7.8c0-0.1,0-0.2,0-0.3C69,60,72.9,53.9,74.4,47.1
	c0.1-0.6,0.6-1.2,1.1-1.4l1.1-0.5c2.5-1.1,3.6-3.9,2.6-6.4c-0.3-0.6-0.6-1.2-1.1-1.6l-1-0.9c-1.4-1.3-2.4-2.9-2.8-4.8
	c-3.2-11.8-12.5-19.7-23.4-19.7c-13.5,0-24.4,12.5-24.4,27.8c0,9.9,4.7,19.6,12,25c0,0,0,0,0,0.1c-3.8,1-18.5,4.8-23.3,7.9
	c-5.9,3.8-7,12.9-7,13.3c-0.1,1.1,0.7,2.1,1.8,2.2c0.1,0,0.2,0,0.2,0c1,0,1.9-0.8,2-1.8c0-0.1,0.9-7.6,5.2-10.3
	c3.8-2.4,16.3-5.9,22-7.3c1.2,3,3.6,5.5,6.7,6.8c0.3,0.1,0.6,0.2,0.9,0.3l0,0v10.9c0.3,2.2,2.4,3.7,4.6,3.4c1.7-0.3,3.1-1.6,3.4-3.4
	V75.6c3.6-1.1,6.3-3.8,7.7-7.1c5.7,1.5,18.1,4.9,21.9,7.3c4.3,2.7,5.2,10.2,5.2,10.3c0.1,1,1,1.8,2,1.8c0.1,0,0.2,0,0.2,0
	C93,87.8,93.7,86.8,93.6,85.7z M53.8,72.8c0,1.5-1.3,2.8-2.8,2.8c-1.6,0-2.8-1.2-2.8-2.8c0-1.6,1.2-2.8,2.8-2.8
	c1.5,0,2.8,1.2,2.8,2.7c0,0,0,0,0,0L53.8,72.8C53.8,72.7,53.8,72.7,53.8,72.8C53.9,72.8,53.9,72.8,53.8,72.8z M54.8,72.3V66
	c0-5.5,1.4-9.9,6.9-9.9c2.2-0.3,3.7-2.4,3.4-4.6c-0.3-1.7-1.6-3.1-3.4-3.4v0c-9.8,0-14.8,8-14.8,17.8v6.3c-2.5-1.1-4.3-3.3-5-5.9
	c0-0.2,0-0.4,0-0.5c0-0.1-0.1-0.3-0.1-0.4c-0.1-0.5-0.1-1.1-0.1-1.7l0-0.8l-0.7-0.5c-3.3-2.2-6-5.5-8-9.3c1.5-0.5,4.1-1.7,6.9-4.2
	c2.5-2.4,3.8-5.8,3.6-9.3c-0.3-0.8-0.5-1.6-0.5-2.5c-0.1-3.2,2.4-5.9,5.5-6c1.1,0.1,2.2-0.6,2.6-1.6c0.8-1.9,2.4-4.6,5.4-4.7
	c4-0.1,8.9-0.1,11.7,0c1.4,2.2,2.5,4.6,3.2,7.3c0.6,2.4,1.9,4.5,3.7,6.2l1,0.9c0.2,0.2,0.3,0.4,0.4,0.6c0.4,0.9,0,2-1,2.4l-1.1,0.5
	c-1.5,0.7-2.5,2-2.9,3.5c-1.4,6.4-5.1,12-10.3,15.9l-0.6,0.5v0.9c0,0.4,0,0.9-0.1,1.3c-0.2,0.2-0.3,0.5-0.4,0.8
	c-0.1,0.3-0.1,0.6,0,0.9C59.1,69.2,57.2,71.2,54.8,72.3z"/>
</svg>
