<?xml version="1.0" encoding="utf-8"?>
<!-- Generator: Adobe Illustrator 24.0.0, SVG Export Plug-In . SVG Version: 6.00 Build 0)  -->
<svg version="1.1" id="Layer_1" xmlns="http://www.w3.org/2000/svg" xmlns:xlink="http://www.w3.org/1999/xlink" x="0px" y="0px"
	 viewBox="0 0 100 100" style="enable-background:new 0 0 100 100;" xml:space="preserve">
<path d="M91.3,90.1l-2-11.9c-0.1-0.9-1.2-8.7-6.4-12c-4.1-2.6-16.1-5.8-20.3-6.9c0-0.2,0.1-0.5,0.1-0.7c6.5-5,10.6-13.7,10.6-22.6
	c0-14.1-10.1-25.6-22.6-25.6c-12.4,0-22.5,11.5-22.5,25.6c0,9,4.2,17.8,10.8,22.8c0,0.2,0.1,0.5,0.1,0.7c-4.6,1.2-15.8,4.3-19.8,6.8
	c-5.3,3.3-6.3,11.1-6.4,12l-2.2,12.3c-0.2,1.1,0.5,2.1,1.6,2.3c0.1,0,0.2,0,0.4,0c1,0,1.8-0.7,2-1.7l2.2-12.4l0-0.1
	c0.2-1.9,1.4-7.2,4.6-9.1c2.8-1.7,10.9-4.2,16.5-5.7v11.5c-2.3,0.9-3.9,3.1-3.9,5.7c0,3.4,2.7,6.1,6.1,6.1s6.1-2.7,6.1-6.1
	c0-2.6-1.6-4.8-3.9-5.7v-8.3c2.2,2.9,5.2,5,8.6,5c3.3,0,6.3-2,8.5-4.9V71l-2.3,1.3c-2.9,1.6-4.7,4.7-4.7,8v2.6
	c0,1.9,1.6,3.5,3.5,3.5h1.4V82h-0.5v-1.7c0-1.7,0.9-3.3,2.5-4.2l2.4-1.3l2.4,1.3c1.5,0.8,2.5,2.4,2.5,4.2V82h-0.5v4.4h1.4
	c1.9,0,3.5-1.6,3.5-3.5v-2.6c0-3.3-1.8-6.4-4.7-8L63.6,71v-7.3c5.6,1.5,14.2,4,17.1,5.8c3.1,2,4.4,7.3,4.6,9.1l2,12
	c0.2,1,1,1.7,2,1.7c0.1,0,0.2,0,0.3,0C90.7,92.2,91.5,91.2,91.3,90.1z M32.1,36c0-11.9,8.3-21.6,18.5-21.6
	c10.2,0,18.6,9.7,18.6,21.6c0,8-3.8,15.8-9.7,19.9c-0.2,0.1-0.3,0.3-0.4,0.4c-6.1,3.6-10.9,3.6-17-0.2l0,0c0,0-0.1-0.1-0.1-0.1
	C36,52,32.1,44.1,32.1,36z M40,83.9c-1.5,0-2.8-1.2-2.8-2.8c0-1.5,1.2-2.8,2.8-2.8c1.5,0,2.8,1.2,2.8,2.8
	C42.8,82.7,41.6,83.9,40,83.9z M50.8,68.2c-3,0-5.9-3.2-7.2-6.8c2.4,1.1,4.8,1.6,7.1,1.6c2.4,0,4.7-0.5,7.2-1.6
	C56.7,64.9,53.8,68.2,50.8,68.2z"/>
</svg>
