<?xml version="1.0" encoding="utf-8"?>
<!-- Generator: Adobe Illustrator 24.0.0, SVG Export Plug-In . SVG Version: 6.00 Build 0)  -->
<svg version="1.1" id="Layer_1" xmlns="http://www.w3.org/2000/svg" xmlns:xlink="http://www.w3.org/1999/xlink" x="0px" y="0px"
	 viewBox="0 0 100 100" style="enable-background:new 0 0 100 100;" xml:space="preserve">
<path d="M89.8,51.6c-0.2-1.9-1.2-3.6-2.7-4.8l0.2-0.2c2.6-2.6,2.6-6.9,0-9.6c0,0,0,0,0,0l0,0c-0.7-0.7-1.6-1.3-2.6-1.6
	c0.1-1.4-0.3-2.8-1.1-4c-1.2-1.8-3.3-2.9-5.5-3c-0.4,0-0.7,0-1.1,0.1c-0.3-0.7-0.8-1.3-1.3-1.8c-2.7-2.7-7-2.7-9.6,0l-5.5,5.5
	C60,32.1,59.5,32,59,32c-0.3,0-0.6,0-0.8,0.1l-3.4-4.8c-1.9-2.7-5.1-3.8-8.1-3.2l-3.2-4.5c0.5-0.8,0.9-1.8,1.1-2.8
	c0.4-2.1-0.1-4.2-1.3-6l-0.4-0.6c-2.5-3.6-7.5-4.5-11.1-1.9l-8,5.7l0,0c-1.7,1.2-2.9,3.1-3.3,5.2c-0.4,2.1,0.1,4.2,1.3,6l0.4,0.6
	c1.2,1.7,3.1,2.9,5.2,3.3c0.5,0.1,0.9,0.1,1.4,0.1c0.5,0,1.1-0.1,1.6-0.2l3.2,4.5c-1,1.7-1.4,3.7-1.1,5.6c-0.6-0.2-1.3-0.3-2-0.3
	c-1.8,0-3.6,0.7-4.9,2L14.8,51.5c-1.1,1.1-2.1,2.2-3,3.4c-6.5,8.3-6.3,19.9,0.5,28c0.8,1,1.7,2,2.6,2.9c7.5,7.5,19.4,7.9,27.4,1.3
	c6.9,2.2,14.6,0.6,20-4.5l2.8,4c1.6,2.2,4,3.4,6.5,3.4c1.6,0,3.2-0.5,4.6-1.5l8-5.7c3.6-2.5,4.5-7.5,1.9-11.1l-5.4-7.6l7.1-7
	C89.3,55.6,90,53.6,89.8,51.6z M84.4,39.8C84.4,39.8,84.4,39.8,84.4,39.8L84.4,39.8c1.1,1.1,1.2,2.9,0.1,4c0,0,0,0,0,0L73.9,54.3
	l-3.3-4.7l9.8-9.8C81.5,38.7,83.3,38.7,84.4,39.8z M76.2,33.1c1-1,2.7-1,3.7,0c0.1,0.1,0.2,0.2,0.3,0.4c0.7,1.1,0.5,2.5-0.4,3.3
	l-9.7,9.9c0.4-2-0.2-4.2-1.6-5.8L76.2,33.1z M68.8,29.4c1.1-1.1,2.9-1.1,4,0c0,0,0,0,0,0c1.1,1,1.3,2.8,0.3,3.9c0,0,0,0-0.1,0.1
	l-6.2,6.2c-0.4-0.2-0.8-0.4-1.3-0.6c0.1-1.4-0.3-2.8-1.1-4c-0.2-0.2-0.3-0.5-0.5-0.7L68.8,29.4z M50.3,28.5
	c-1.3,0.3-2.5,0.9-3.4,1.9l-9.7,9.8c0-0.1-0.1-0.2-0.1-0.2c-1.3-1.8-0.8-4.3,1-5.6l8-5.7C47.3,27.7,49,27.7,50.3,28.5z M40.6,22.4
	l2.4,3.4l-6.7,4.7l-2.4-3.5L40.6,22.4z M17.7,82.9C17.7,82.9,17.7,82.9,17.7,82.9c-0.8-0.8-1.6-1.7-2.4-2.6
	c-5.5-6.6-5.6-16.2-0.4-23c0.8-1.1,1.7-2.1,2.7-3l10.8-10.7c0.5-0.5,1.3-0.9,2.1-0.9c0.5,0,1,0.1,1.5,0.4c1.3,0.8,1.6,2.5,0.8,3.8
	c-0.1,0.2-0.2,0.3-0.4,0.4l-5.7,5.7c-0.4,0.4-0.4,1.1,0,1.6c0.2,0.2,0.5,0.3,0.8,0.3c0.3,0,0.6-0.1,0.8-0.3l21.5-21.5
	c0.5-0.5,1.2-0.8,2-0.8c0.7,0,1.5,0.3,2,0.8c1.1,1,1.2,2.6,0.3,3.8c0,0.1-0.1,0.1-0.2,0.2l-2.6,2.6c0,0,0,0,0,0L37.4,53.4
	c-0.5,0.5-0.5,1.2,0,1.6c0.1,0.1,0.1,0.1,0.2,0.2c0.2,0.1,0.4,0.2,0.6,0.2c0.3,0,0.7-0.1,0.9-0.4l18-18.2c0.5-0.5,1.2-0.8,1.9-0.8
	c0.1,0,0.2,0,0.3,0c0.1,0,0.1,0,0.2,0c0.5,0.1,0.9,0.3,1.3,0.7c0.1,0.1,0.2,0.2,0.3,0.4l0,0c0,0,0,0,0,0.1c0.7,1.1,0.5,2.5-0.4,3.4
	L43.2,58.3c-0.5,0.4-0.5,1.2,0,1.6c0,0,0,0,0,0c0.2,0.2,0.5,0.3,0.8,0.3c0.3,0,0.6-0.1,0.8-0.3l16.4-16.4c0.5-0.5,1.2-0.8,2-0.8
	c0.8,0,1.5,0.3,2,0.8l0.1,0.1c1.1,1.1,1.1,2.8,0,3.9c0,0,0,0,0,0L48.1,64.6c-0.5,0.4-0.5,1.2,0,1.6c0,0,0,0,0,0
	c0.2,0.2,0.5,0.3,0.8,0.3c0.3,0,0.6-0.1,0.8-0.3L62,54.1c0.5-0.5,1.2-0.8,2-0.9c0.5,0,1,0.1,1.5,0.4c1.3,0.8,1.6,2.5,0.8,3.8
	c-0.1,0.2-0.2,0.3-0.4,0.4l-25,25c-0.3,0.3-0.6,0.6-1,0.9c-0.1,0.1-0.2,0.2-0.3,0.3c-0.2,0.1-0.3,0.3-0.5,0.4
	c-0.3,0.2-0.7,0.5-1,0.7C31.7,89.2,23.3,88.4,17.7,82.9z M45.7,83.8l10.2-10.2l4,5.7C56.1,83.1,50.8,84.7,45.7,83.8z M81.9,79.6
	l-8,5.7c-1.8,1.3-4.3,0.8-5.6-1l-9.6-13.6l9.9-9.9c1.2-1.1,1.8-2.6,2-4.1L82.9,74C84.2,75.8,83.8,78.3,81.9,79.6z M85.4,53.8
	c-0.1,0.2-0.2,0.3-0.4,0.4l-6.5,6.5l-3.2-4.6l5.8-5.8c0.6-0.5,1.3-0.9,2.1-0.9c0.5,0,1,0.1,1.5,0.4C85.9,50.8,86.2,52.5,85.4,53.8z"
	/>
</svg>
