<svg id="Layer_1" data-name="Layer 1" xmlns="http://www.w3.org/2000/svg" viewBox="0 0 100 100"><defs><style>.cls-1,.cls-2,.cls-3,.cls-4{fill:none;}.cls-1,.cls-2,.cls-4{stroke:#000;stroke-miterlimit:10;}.cls-1,.cls-2{stroke-width:4px;}.cls-2{stroke-linecap:round;}.cls-4{stroke-width:4.66px;}</style></defs><path class="cls-1" d="M72.36,44.35H84.46a.49.49,0,0,1,.49.49V72.68a0,0,0,0,1,0,0H71.88a0,0,0,0,1,0,0V44.84a.49.49,0,0,1,.49-.49Z" transform="translate(156.52 117.44) rotate(-179.7)"/><path class="cls-1" d="M73.23,72.66l10,0L81.73,78a.48.48,0,0,1-.47.35l-6.07,0a.48.48,0,0,1-.47-.35Z"/><line class="cls-2" x1="88.04" y1="44.35" x2="69.2" y2="44.39"/><line class="cls-2" x1="78.38" y1="89.76" x2="78.17" y2="79.4"/><line class="cls-2" x1="78.39" y1="50.6" x2="78.37" y2="39.91"/><path class="cls-2" d="M74,32.35h9.11a.42.42,0,0,1,.42.42v5.28a0,0,0,0,1,0,0H73.63a0,0,0,0,1,0,0V32.77a.42.42,0,0,1,.42-.42Z" transform="matrix(-1, 0, 0, -1, 157.27, 70.23)"/><line class="cls-2" x1="84.98" y1="52.14" x2="71.91" y2="52.17"/><ellipse cx="78.44" cy="66.53" rx="1.61" ry="1.51" transform="translate(-24.07 58.18) rotate(-35.65)"/><ellipse cx="78.68" cy="57.71" rx="1.61" ry="1.51" transform="translate(-18.89 56.67) rotate(-35.65)"/><ellipse cx="78.6" cy="62.04" rx="1.61" ry="1.51" transform="translate(-21.43 57.44) rotate(-35.65)"/><circle class="cls-1" cx="25.79" cy="26.09" r="13.77"/><path d="M17.63,15a13.48,13.48,0,0,0-2.92,2.92L34,37.18a14.18,14.18,0,0,0,2.92-2.92Z"/><g id="_254" data-name="254"><rect class="cls-3" x="7.04" y="31.65" width="60.01" height="60.01"/><path class="cls-2" d="M58.56,60.83a8,8,0,0,0-6.8-4.39A8,8,0,0,0,44,50.1a7.89,7.89,0,0,0-4.11,1.15,8,8,0,0,0-14.73,3.81A8,8,0,0,0,18,60.83Z"/><path class="cls-1" d="M27.27,83.28v2.23A4.5,4.5,0,0,0,31.78,90H44.37a4.5,4.5,0,0,0,4.5-4.5V83.24"/><path class="cls-4" d="M38,85.29c13,0,23.94-8.37,26.43-19.5a4,4,0,0,0-4-4.86H15.56a4,4,0,0,0-4,4.86C14.08,76.92,25,85.29,38,85.29Z"/></g></svg>