<svg id="Layer_1" data-name="Layer 1" xmlns="http://www.w3.org/2000/svg" viewBox="0 0 100 100"><defs><style>.cls-1{fill:none;stroke:#000;stroke-miterlimit:10;stroke-width:4px;}</style></defs><path class="cls-1" d="M26.65,61a27.07,27.07,0,0,1-9.74-21.27c0-17.21,14-21.64,31.16-21.64S79.24,22.5,79.24,39.71A27.11,27.11,0,0,1,70.8,59.82"/><path d="M47.23,28.79C27.29,29,17.17,44,17.67,48,20.79,73.68,33.22,89.9,48.08,89.9,63.14,89.9,75.7,73.23,78.61,47,79,43.19,67.46,28.56,47.23,28.79Zm-3.8,38.72a2.55,2.55,0,1,1,0-3.61A2.54,2.54,0,0,1,43.43,67.51ZM40.29,55a3.63,3.63,0,1,1,5.14,0A3.63,3.63,0,0,1,40.29,55ZM48.8,74.32a1.4,1.4,0,0,1-2-2,1.4,1.4,0,1,1,2,2Zm1.84-12a2.5,2.5,0,1,1,3.53,0A2.49,2.49,0,0,1,50.64,62.3Zm4.85,8a1.4,1.4,0,0,1-2-2,1.4,1.4,0,0,1,2,2ZM55.36,51.4a3.41,3.41,0,1,1,0-4.82A3.41,3.41,0,0,1,55.36,51.4Zm5.56-5c-.39,2.6-6.69-5.75-12.55-1.91S35.64,49.25,35.19,46.8a13,13,0,1,1,25.73-.42Z"/></svg>