<?xml version="1.0" encoding="utf-8"?>
<!-- Generator: Adobe Illustrator 24.0.0, SVG Export Plug-In . SVG Version: 6.00 Build 0)  -->
<svg version="1.1" id="Layer_1" xmlns="http://www.w3.org/2000/svg" xmlns:xlink="http://www.w3.org/1999/xlink" x="0px" y="0px"
	 viewBox="0 0 100 100" style="enable-background:new 0 0 100 100;" xml:space="preserve">
<g>
	<path d="M82.7,62.9c-0.4-0.1-0.7-0.1-1.1-0.1h-0.4c-1.2-1.7-3-2.9-5-3.3c-1.3-3.1-4.3-5.2-7.7-5.2c-0.9,0-1.8,0.1-2.7,0.4
		c-1.1-1.1-2.5-1.9-4-2.3c-2.2-0.5-4.4-0.1-6.3,1c-1.8,1.1-3.2,3-3.7,5c-2.3,0.6-4.2,2.2-5.2,4.3h-0.5c-2.8,0-5.2,2.3-5.2,5.1
		c0,0.4,0,0.8,0.1,1.2c1.5,6.5,6.2,11.8,12.3,14.6v0.5c0,3.1,2.5,5.6,5.6,5.6h10c3.1,0,5.6-2.5,5.6-5.6v-0.6
		c6.1-2.9,10.8-8.2,12.2-14.6c0.3-1.4,0-2.7-0.7-3.9C85.2,63.9,84.1,63.1,82.7,62.9z M53.8,62.1l1.8-0.1l0.1-1.8
		c0.1-1.4,0.8-2.7,2-3.4c1-0.6,2.1-0.8,3.2-0.5c1.1,0.3,2.1,0.9,2.7,1.9l1,1.7l1.7-1c0.7-0.4,1.4-0.6,2.2-0.6c2,0,3.8,1.4,4.2,3.4
		l0.2,1.1H52C52.5,62.4,53.1,62.2,53.8,62.1z M58.9,85.8c-0.4,0-0.8-0.2-1.1-0.5c0.9,0.2,1.7,0.4,2.6,0.5H58.9z M68.9,85.8h-1.6
		c0.9-0.1,1.9-0.3,2.8-0.5C69.8,85.5,69.4,85.8,68.9,85.8z M63.9,82c-9.1,0-17.1-5.8-18.9-13.8c0-0.1,0-0.2,0-0.3
		c0-0.6,0.5-1.2,1.2-1.2c0,0,0,0,0,0h35.5c0,0,0,0,0,0c0.1,0,0.2,0,0.2,0c0.6,0.1,1.1,0.8,0.9,1.4C81,76.2,73,82,63.9,82z"/>
	<path d="M41,49c0-2.9-2.3-5.2-5.2-5.2c0,0,0,0,0,0H17.3c-0.2,0-0.3,0-0.5,0c-2.9,0.3-5,2.8-4.7,5.6l3.3,36.3
		c0.2,2.7,2.5,4.7,5.2,4.7h12c2.7,0,4.9-2,5.2-4.7L41,49.5C41,49.3,41,49.2,41,49z M20.7,71.6C20.7,71.6,20.6,71.6,20.7,71.6
		c-0.4,0-0.7,0.2-0.9,0.4c-0.1,0.1-0.2,0.2-0.3,0.2c-0.3,0-0.5-0.2-0.5-0.5c0-0.1,0-0.2,0.1-0.3c0.4-0.5,0.9-0.7,1.5-0.7
		c0.8-0.1,1.5,0.5,1.6,1.3c0,0.1,0,0.1,0,0.2c0,0.8-0.4,1.2-1.2,1.8l-0.8,0.6h1.6c0.2,0,0.5,0.2,0.5,0.5s-0.2,0.5-0.5,0.5v0h-2.6
		c-0.3,0-0.5-0.2-0.6-0.4c0,0,0,0,0-0.1c0-0.2,0.1-0.4,0.3-0.5l1.3-1.1c0.6-0.5,0.8-0.7,0.8-1.1C21.2,72,21,71.7,20.7,71.6z
		 M25,73.7c0.2-1.1,1.3-1.8,2.4-1.5c0.8,0.2,1.4,0.8,1.5,1.5c-0.2,1.1-1.3,1.8-2.4,1.5C25.8,75.1,25.2,74.5,25,73.7z M29.8,72.7
		c-0.2,0-0.4-0.2-0.4-0.4c0,0,0,0,0,0c0-0.2,0.2-0.4,0.4-0.4h2.2c0.2,0,0.5,0.1,0.5,0.4c0,0,0,0,0,0c0,0.2-0.1,0.4-0.2,0.5l-1.7,1.9
		h1.5c0.2,0,0.4,0.2,0.4,0.4c0,0.2-0.2,0.4-0.4,0.4c0,0,0,0,0,0h-2.3c-0.2,0-0.5-0.1-0.5-0.4c0,0,0,0,0,0c0-0.2,0.1-0.4,0.2-0.5
		l1.7-1.9H29.8z M33.9,75.6C33.9,75.6,33.8,75.6,33.9,75.6L33.9,75.6c-0.4,0-0.6-0.3-0.6-0.6c0,0,0,0,0,0c0-0.3,0.3-0.6,0.6-0.6
		c0.3,0,0.6,0.3,0.6,0.6C34.4,75.3,34.2,75.6,33.9,75.6z M37,49.2l-1.2,13.4H17.3l-1.2-13.4c-0.1-0.7,0.4-1.2,1.1-1.3
		c0,0,0.1,0,0.1,0c0,0,0,0,0,0h18.5c0.4,0,0.6,0.1,0.9,0.3c0.2,0.2,0.4,0.5,0.4,0.8C37,49.1,37,49.1,37,49.2z"/>
	<path d="M28,73.8C28,73.8,28,73.8,28,73.8c0-0.6-0.4-1.1-1-1.1c-0.5,0-0.9,0.4-0.9,0.9c0,0,0,0.1,0,0.1c0,0.5,0.4,1,1,1
		C27.5,74.7,27.9,74.3,28,73.8z"/>
	<path d="M24,40.7c8.7,0,15.8-7.1,15.8-15.8S32.7,9.2,24,9.2C15.3,9.2,8.2,16.3,8.2,25S15.3,40.7,24,40.7z M24,13.2
		c6.5,0,11.8,5.3,11.8,11.8S30.5,36.7,24,36.7c-6.5,0-11.8-5.3-11.8-11.8S17.5,13.2,24,13.2z"/>
	<path d="M16,27.5l0.4-1h2.8l0.4,1c0.1,0.3,0.4,0.5,0.7,0.5c0,0,0,0,0,0c0.4,0,0.7-0.3,0.6-0.7c0-0.1,0-0.2-0.1-0.3l-2.2-5
		c-0.1-0.3-0.4-0.5-0.8-0.5h-0.1c-0.4,0-0.7,0.2-0.8,0.5l-2.2,5c0,0.1-0.1,0.2-0.1,0.2c0,0,0,0,0,0c0,0.4,0.3,0.6,0.6,0.6
		C15.6,28,15.9,27.8,16,27.5z M17.8,23.3l0.9,2.1h-1.8L17.8,23.3z"/>
	<path d="M22.6,28C22.6,28,22.6,28,22.6,28c0.5,0,0.8-0.4,0.8-0.8c0,0,0,0,0,0c0-0.4-0.4-0.7-0.8-0.7c0,0,0,0-0.1,0
		c-0.4,0-0.7,0.4-0.7,0.8c0,0,0,0,0,0.1C21.8,27.7,22.1,28,22.6,28z"/>
	<path d="M24.6,27.4c0,0.4,0.3,0.7,0.7,0.7c0,0,0,0,0,0c0.4,0,0.7-0.3,0.7-0.7v-3.1l1.2,1.9c0.1,0.1,0.2,0.2,0.3,0.3
		c0.3,0.2,0.7,0.1,0.9-0.3l1.2-1.9v3.2c0,0,0,0,0,0c0,0.4,0.3,0.7,0.7,0.7s0.7-0.3,0.7-0.7v-5c0-0.4-0.3-0.7-0.7-0.7h-0.2
		c-0.3,0-0.5,0.1-0.6,0.3l-1.7,2.7L26.1,22c-0.1-0.2-0.4-0.4-0.6-0.4h-0.2c0,0,0,0,0,0c-0.4,0-0.7,0.3-0.7,0.7L24.6,27.4
		C24.6,27.4,24.6,27.4,24.6,27.4z"/>
	<path d="M33,28c0.4,0,0.8-0.3,0.8-0.8c0,0,0,0,0-0.1c0-0.4-0.4-0.7-0.8-0.7c0,0,0,0-0.1,0c-0.4,0-0.7,0.4-0.7,0.8
		C32.2,27.7,32.6,28,33,28z"/>
	<path d="M74.2,10.5c-8.8,0-15.9,7.1-15.9,15.9c0,8.8,7.1,15.9,15.9,15.9c8.8,0,15.9-7.1,15.9-15.9c0,0,0,0,0,0
		C90.1,17.6,83,10.5,74.2,10.5z M59.9,26.4c0-7.9,6.4-14.4,14.4-14.4c0,0,0,0,0.1,0v4.8c5.2,0.3,9.2,4.9,8.9,10.1
		c-0.3,4.8-4.1,8.6-8.9,8.9v4.9c0,0,0,0-0.1,0C66.3,40.8,59.9,34.4,59.9,26.4z"/>
	<path d="M70.4,25.7l1.9-2c0.2-0.2,0.4-0.5,0.4-0.8c0,0,0,0,0-0.1c0-0.3-0.3-0.6-0.7-0.5h-4.1c-0.1,0-0.1,0-0.2,0
		c-0.3,0-0.6,0.3-0.5,0.7s0.3,0.6,0.7,0.5h2.9l-1.9,2c-0.2,0.1-0.3,0.3-0.3,0.6c0,0.3,0.3,0.6,0.6,0.6h0.3c1.1,0,1.8,0.4,1.8,1.2
		c0,0,0,0.1,0,0.1c-0.1,0.7-0.7,1.2-1.4,1.1c-0.7,0-1.3-0.3-1.8-0.8c-0.1-0.1-0.3-0.2-0.5-0.2c-0.4,0-0.7,0.3-0.7,0.7
		c0,0.2,0.1,0.4,0.2,0.5c0.7,0.7,1.7,1.1,2.7,1c0.1,0,0.1,0,0.2,0c1.4,0,2.5-1.1,2.5-2.5C72.7,26.5,71.6,25.9,70.4,25.7z"/>
	<path d="M77.5,30.4c2.1,0,3.5-1.8,3.5-4.1c0-2.3-1.3-4.1-3.4-4.1s-3.5,1.8-3.5,4.1C74.1,28.7,75.4,30.4,77.5,30.4z M77.6,23.5
		c1.2,0,2,1.3,2,2.9c0,1.5-0.8,2.8-2,2.8s-2-1.3-2-2.8C75.6,24.8,76.4,23.5,77.6,23.5z"/>
</g>
</svg>
