<?xml version="1.0" encoding="utf-8"?>
<!-- Generator: Adobe Illustrator 24.0.0, SVG Export Plug-In . SVG Version: 6.00 Build 0)  -->
<svg version="1.1" id="Layer_1" xmlns="http://www.w3.org/2000/svg" xmlns:xlink="http://www.w3.org/1999/xlink" x="0px" y="0px"
	 viewBox="0 0 100 100" style="enable-background:new 0 0 100 100;" xml:space="preserve">
<g>
	<path d="M75.7,41.6c8.8,0,15.9-7.1,15.9-15.9c0,0,0,0,0,0c0-8.8-7.1-15.9-15.9-15.9c-8.8,0-15.9,7.1-15.9,15.9
		C59.8,34.5,67,41.6,75.7,41.6z M75.7,11.3C75.8,11.3,75.8,11.4,75.7,11.3l0.1,4.8c5.3,0.2,9.4,4.6,9.2,9.8c-0.2,5-4.2,9.1-9.2,9.2
		v4.8c0,0-0.1,0-0.1,0c-7.9,0-14.4-6.4-14.4-14.4C61.4,17.8,67.8,11.3,75.7,11.3z"/>
	<path d="M71.4,29.8c0.1,0,0.1,0,0.2,0c1.4,0,2.6-1.1,2.6-2.5c0-1.5-1.1-2.1-2.3-2.2l1.9-1.9c0.2-0.2,0.4-0.5,0.4-0.8c0,0,0,0,0,0
		c0-0.3-0.3-0.6-0.7-0.6h-4.1c-0.1,0-0.1,0-0.2,0c-0.3,0-0.6,0.3-0.5,0.7c0,0.3,0.3,0.6,0.7,0.5h2.9l-1.9,2
		c-0.2,0.1-0.3,0.3-0.3,0.6c0,0.3,0.3,0.6,0.6,0.6H71c1.1,0,1.8,0.4,1.8,1.2c0,0,0,0.1,0,0.1c-0.1,0.7-0.7,1.2-1.4,1.1
		c-0.7,0-1.3-0.3-1.8-0.8c-0.1-0.1-0.3-0.2-0.5-0.2c-0.2,0-0.4,0.1-0.5,0.2c-0.2,0.3-0.2,0.7,0.1,0.9C69.5,29.4,70.4,29.8,71.4,29.8
		z"/>
	<path d="M79,29.8c2.1,0,3.5-1.8,3.5-4.1c0-2.3-1.3-4.1-3.4-4.1c-2.1,0-3.5,1.8-3.5,4.1C75.6,27.9,76.9,29.8,79,29.8z M79,22.8
		c1.2,0,2,1.3,2,2.8h0c0,1.6-0.8,2.8-2,2.8c-1.2,0-2-1.3-2-2.8C77,24.1,77.8,22.8,79,22.8z"/>
	<path d="M87.8,60.8L73.5,45.9l0,0c-1.5-1.6-3.6-2.4-5.8-2.4H45.8c-3.7,0-6.8,2.5-7.7,5.9c-1.2-2.5-3.8-4.3-6.8-4.3
		c-4.2,0-7.5,3.4-7.5,7.5c0,3.5,1.6,6.5,5.3,7.3h-1.8c-2.2,0-4-1.8-4-4V41c0-0.1,0-0.2,0-0.4c1.3,0.3,2.6,0.5,3.9,0.5
		C36,41.1,43,34.1,43,25.4S36,9.6,27.3,9.6c-8.7,0-15.8,7.1-15.8,15.8c0,3.3,1,6.3,2.7,8.9c-2.4,0.9-4.2,3.1-4.4,5.9
		c0,0.3,0,0.6,0,0.9v45.5h4v-9.8h74.5v9.8h4V67.9C92.3,64.8,90.5,62.1,87.8,60.8z M41.8,51.5c0-2.2,1.8-4,4-4h21.9
		c1.1,0,2.1,0.4,2.9,1.2l10.9,11.2H41.8L41.8,51.5L41.8,51.5z M39,25.4c0,2.5-0.8,4.8-2.1,6.7L20.5,15.7c1.9-1.3,4.2-2.1,6.7-2.1
		C33.8,13.6,39,18.9,39,25.4z M17.6,18.6L34,35c-1.9,1.3-4.2,2.1-6.7,2.1c-6.5,0-11.8-5.3-11.8-11.8C15.5,22.9,16.3,20.6,17.6,18.6z
		 M88.3,72.7H13.9V41c0-1.5,1.2-2.7,2.7-2.7c1.5,0,2.7,1.2,2.7,2.7v14.9c0,4.4,3.6,8,8,8h10.5h2l46,0.3c1.4,0.6,2.5,2,2.5,3.7V72.7z
		"/>
</g>
</svg>
