<svg id="Layer_1" data-name="Layer 1" xmlns="http://www.w3.org/2000/svg" viewBox="0 0 100 100"><defs><style>.cls-1,.cls-2,.cls-3,.cls-4{fill:none;stroke:#000;}.cls-1{stroke-linejoin:round;}.cls-1,.cls-2{stroke-width:4px;}.cls-2{stroke-linecap:round;}.cls-2,.cls-3,.cls-4{stroke-miterlimit:10;}.cls-3{stroke-width:3.08px;}.cls-4{stroke-width:3px;}.cls-5{font-size:10.32px;font-family:GothamRounded-Bold, Gotham Rounded;font-weight:700;}.cls-6{font-size:6.88px;font-family:GothamRounded-Book, Gotham Rounded;letter-spacing:-0.06em;}.cls-7{letter-spacing:-0.07em;}.cls-8{letter-spacing:-0.05em;}</style></defs><path class="cls-1" d="M71.51,47.76c0-13.55-9.57-24.54-21.38-24.54s-21.38,11-21.38,24.54c0,9.32,4.53,18,11.2,22.58v0a10.28,10.28,0,0,0,20.56,0V70.2C67.07,65.62,71.51,57,71.51,47.76Z"/><path class="cls-2" d="M12,91.1s.88-7.94,5.74-11,22.06-7.31,22.06-7.31"/><path class="cls-2" d="M88.22,91.1s-.88-7.94-5.74-11-22.06-7.31-22.06-7.31"/><path class="cls-3" d="M39.23,55.9c0-6.22,5-7.81,11.25-7.81s11.25,1.59,11.25,7.81-5,10.3-11.25,10.3S39.23,62.11,39.23,55.9Z"/><path d="M50,53c-7.18.34-10.7,4.49-10.52,5.42a20.22,20.22,0,0,0,2.94,6.06c8.16-3.22,17.71-1.91,18.11-3.17a23.84,23.84,0,0,0,.94-3.13C61.65,57.34,59,52.6,50,53Zm-2.44,6.87a2.84,2.84,0,0,1-.85-.74,3.46,3.46,0,0,1-.22-.31,3,3,0,0,1,1-4.11l.23-.12a3,3,0,0,1,1.08-.29l.69,2-1.23,1,.79,1.32Zm4.54,1.18a3,3,0,0,1-2.9-.92l1.85-.76-.34-1.5,1.46-.52,0-2.13a3,3,0,0,1,0,5.83Z"/><line class="cls-2" x1="49.94" y1="91.16" x2="49.94" y2="80.54"/><polyline class="cls-2" points="54.48 86.76 49.96 91.27 45.46 86.76"/><circle class="cls-4" cx="21.58" cy="20.57" r="11.84"/><text class="cls-5" transform="translate(18.56 20.68)">2</text><text class="cls-6" transform="translate(13.25 26.66)">s<tspan class="cls-7" x="3.01" y="0">t</tspan><tspan class="cls-8" x="5.34" y="0">eps</tspan></text></svg>