<svg id="Layer_1" data-name="Layer 1" xmlns="http://www.w3.org/2000/svg" viewBox="0 0 100 100"><defs><style>.cls-1{fill:none;stroke:#000;stroke-miterlimit:10;stroke-width:4px;}</style></defs><path class="cls-1" d="M18.7,43.39l-4-12.46a3.49,3.49,0,0,1,2-4.28L53.33,11.26A3.49,3.49,0,0,1,58,13.42l6.13,19.22a3.5,3.5,0,0,1-2.57,4.47L22.78,45.74A3.48,3.48,0,0,1,18.7,43.39Z"/><path d="M67,42.22h5.21a2.65,2.65,0,0,1,2.64,2.62l0,4.59-10.5,0-.06-4.51A2.65,2.65,0,0,1,67,42.22Z"/><path d="M81.52,49.5a9.57,9.57,0,0,0-6.79-2.84l-10.21,0h0a9.62,9.62,0,0,0-9.61,9.57l-.1,29.25a9.61,9.61,0,0,0,9.58,9.65l10.21,0h0a9.61,9.61,0,0,0,9.61-9.58l.1-29.25A9.53,9.53,0,0,0,81.52,49.5ZM80,83.47,59,83.4l.09-25.76,20.94.07Z"/><path d="M64,35.1H16.05l2.65,8.29a3.48,3.48,0,0,0,4.08,2.35l38.78-8.63A3.46,3.46,0,0,0,64,35.1Z"/><path d="M68.94,54.86a57.75,57.75,0,0,0-1.53-11.57c-.29-1.29-.69-3.55-2.62-4.34a3,3,0,0,0-2.39-.15l-1.68-3.38a6.54,6.54,0,0,1,5.51,0,11.55,11.55,0,0,1,6.15,6.17,43.87,43.87,0,0,1,2.78,13Z"/></svg>