<svg id="Layer_1" data-name="Layer 1" xmlns="http://www.w3.org/2000/svg" viewBox="0 0 100 100"><defs><style>.cls-1,.cls-2,.cls-3{fill:none;stroke:#000;stroke-miterlimit:10;}.cls-1{stroke-width:3px;}.cls-2,.cls-3{stroke-width:4px;}.cls-3{stroke-linecap:round;}</style></defs><g id="_193" data-name="193"><path class="cls-1" d="M21.22,19.22a2.55,2.55,0,0,1,4.43,0L32,30.14l6.31,10.93a2.55,2.55,0,0,1-2.21,3.83H10.82A2.56,2.56,0,0,1,8.6,41.07l6.31-10.93Z"/><path d="M21.53,24.47a.92.92,0,0,1,.9-1.1h1.84a.94.94,0,0,1,.92,1.1l-.9,10.43a.93.93,0,0,1-.94.92.92.92,0,0,1-.92-.92Zm1.82,13.21a1.75,1.75,0,0,1,1.81,1.77v.25a1.74,1.74,0,0,1-1.81,1.76,1.76,1.76,0,0,1-1.82-1.76v-.25A1.77,1.77,0,0,1,23.35,37.68Z"/></g><path class="cls-2" d="M54.64,77.31s.44-16.54,7.91-25.57A18.41,18.41,0,0,1,80.61,45s-.41,14.92-6,22.44A25.22,25.22,0,0,1,54.64,77.31Z"/><path class="cls-2" d="M48.6,81.87s-.05-13-5.75-20.36a14.7,14.7,0,0,0-14.06-6s0,11.85,4.32,17.83A19.94,19.94,0,0,0,48.6,81.87Z"/><path class="cls-3" d="M36.61,66.52A73.33,73.33,0,0,1,49.35,83a1.81,1.81,0,0,0,3.29-.29c2.88-8.1,10.17-19.24,13.08-21.48"/></svg>