<?xml version="1.0" encoding="utf-8"?>
<!-- Generator: Adobe Illustrator 24.0.0, SVG Export Plug-In . SVG Version: 6.00 Build 0)  -->
<svg version="1.1" id="Layer_1" xmlns="http://www.w3.org/2000/svg" xmlns:xlink="http://www.w3.org/1999/xlink" x="0px" y="0px"
	 viewBox="0 0 100 100" style="enable-background:new 0 0 100 100;" xml:space="preserve">
<g>
	<path d="M24.6,55.3c-0.2-0.4-0.6-0.7-1-0.7h-0.1c-0.4,0-0.8,0.3-1,0.7l-2.8,6.3c-0.1,0.1-0.1,0.2-0.1,0.4c0,0,0,0,0,0
		c0,0.4,0.4,0.8,0.8,0.8c0.4,0,0.7-0.2,0.8-0.5l0.6-1.3h3.5l0.5,1.3c0.1,0.4,0.5,0.6,0.8,0.6c0,0,0,0,0,0c0.5,0,0.8-0.4,0.8-0.8
		c0-0.1,0-0.2-0.1-0.4L24.6,55.3z M22.5,59.4l1.1-2.7l1.1,2.7H22.5z"/>
	<path d="M31.4,59.1c-0.7-0.2-1.2-0.4-1.2-0.7c0-0.2,0.2-0.4,0.6-0.4c0.5,0,0.9,0.2,1.3,0.4c0.1,0.1,0.2,0.1,0.3,0.1c0,0,0,0,0,0
		c0.4,0,0.7-0.3,0.7-0.7c0-0.3-0.2-0.5-0.4-0.6c-0.6-0.3-1.2-0.5-1.9-0.5c-0.1,0-0.2,0-0.2,0c-1.1,0-2,0.9-2,2c0,1.2,1,1.6,1.8,1.8
		c0.7,0.2,1.3,0.3,1.3,0.7c0,0.3-0.2,0.5-0.7,0.5c-0.6,0-1.2-0.2-1.7-0.5C29.2,61,29.1,61,29,61c-0.4,0-0.7,0.3-0.7,0.7
		c0,0.2,0.1,0.5,0.3,0.6c0.7,0.5,1.5,0.7,2.3,0.7c1.3,0,2.3-0.6,2.3-2C33.2,59.8,32.2,59.4,31.4,59.1z"/>
	<path d="M38.2,56.5c-0.8,0-1.5,0.4-1.9,1v-0.1c0-0.1,0-0.1,0-0.2c-0.1-0.5-0.5-0.8-1-0.8c-0.5,0.1-0.8,0.5-0.8,1v6.4
		c0,0.1,0,0.1,0,0.2c0.1,0.5,0.5,0.8,1,0.8c0.5-0.1,0.8-0.5,0.8-1V62c0.5,0.6,1.2,0.9,1.9,0.9c0.1,0,0.2,0,0.2,0
		c1.6-0.2,2.7-1.6,2.6-3.2c0-0.1,0-0.1,0-0.2C41.1,57.9,39.8,56.6,38.2,56.5z M39.3,59.7c0,0.1,0,0.2,0,0.3
		c-0.1,0.8-0.8,1.4-1.7,1.3c-0.8-0.1-1.4-0.8-1.3-1.7c0-0.1,0-0.2,0-0.3c0.1-0.8,0.8-1.4,1.7-1.3C38.8,58.2,39.4,58.9,39.3,59.7z"/>
	<circle cx="43.3" cy="55.2" r="1"/>
	<path d="M43.2,56.6c-0.5,0-0.9,0.4-0.9,0.9V62c0,0.5,0.4,0.9,0.9,0.9s0.9-0.4,0.9-0.9v-4.5C44.1,57,43.7,56.6,43.2,56.6z"/>
	<path d="M48.7,56.6c-0.5,0-0.9,0.5-1.2,1.1v-0.3c0-0.1,0-0.1,0-0.2c-0.1-0.5-0.5-0.8-1-0.8c-0.5,0.1-0.8,0.5-0.8,1V62
		c0,0.4,0.4,0.7,0.8,0.8c0.5,0.1,0.9-0.3,1-0.8v-1.6c0-1.2,0.5-1.9,1.4-2.1c0.4-0.1,0.6-0.4,0.6-0.8C49.5,57,49.2,56.6,48.7,56.6z"
		/>
	<circle cx="51.5" cy="55.2" r="1"/>
	<path d="M51.5,56.6c-0.5,0-0.9,0.4-0.9,0.9V62c0,0.5,0.4,0.9,0.9,0.9c0.5,0,0.9-0.4,0.9-0.9v-4.5C52.4,57,52,56.6,51.5,56.6z"/>
	<path d="M59.7,62v-3.2c0-0.1,0-0.3,0-0.4c-0.1-1.1-1-1.9-2.1-1.9c-0.7,0-1.4,0.4-1.8,1v-0.1c0-0.1,0-0.1,0-0.2
		c-0.1-0.5-0.5-0.8-1-0.8c-0.5,0.1-0.8,0.5-0.8,1V62c0,0.4,0.4,0.7,0.8,0.8c0.5,0.1,0.9-0.3,1-0.8v-2.6c0-0.8,0.4-1.2,1.1-1.2
		c0.7,0,1.1,0.4,1.1,1.2V62c0,0.4,0.4,0.7,0.8,0.8C59.2,62.8,59.6,62.5,59.7,62z"/>
	<path d="M74.7,58.8c-2.5,0-4.9,0.6-7,1.7c0.1-0.1,0.3-0.1,0.4-0.2V40.5c0-1.9-0.4-3.9-1.1-5.7l-3.7-8.8V15c0-2.8-2.3-5.1-5.1-5.1
		c0,0,0,0,0,0H20.8c-2.8,0-5.1,2.3-5.1,5.1v11.1l-3.4,9c-0.7,1.7-1,3.4-1,5.2v44c0,2.8,2.2,5,5,5h46.9c1.3,0,2.5-0.5,3.4-1.3
		c-0.1,0-0.1-0.1-0.2-0.1c2.4,1.5,5.3,2.5,8.4,2.5c8.7,0,15.8-7.1,15.8-15.8C90.5,65.8,83.4,58.8,74.7,58.8z M67.1,60.8
		c-0.4,0.2-0.7,0.4-1.1,0.6C66.3,61.2,66.7,61,67.1,60.8z M65.8,61.6c-0.3,0.2-0.7,0.5-1,0.7C65.1,62.1,65.4,61.8,65.8,61.6z
		 M64.6,62.5c-0.3,0.3-0.6,0.5-0.9,0.8C63.9,63.1,64.2,62.8,64.6,62.5z M55.9,77.1H23.5c-2.8,0-5-2.2-5-5V47.6c0-2.8,2.2-5,5-5h32.4
		c2.8,0,5,2.2,5,5v19.3c0.7-1.3,1.6-2.4,2.6-3.4c-2.8,2.8-4.6,6.8-4.6,11.1c0,2.1,0.4,4.1,1.2,5.9c-0.6-1.4-1-2.9-1.1-4.5
		C58.1,76.7,57,77.1,55.9,77.1z M62.9,85c0.3,0.4,0.7,0.8,1.1,1.1C63.7,85.8,63.3,85.4,62.9,85z M60.3,80.8c0.2,0.4,0.3,0.7,0.5,1
		C60.6,81.5,60.4,81.2,60.3,80.8z M61,82.3c0.2,0.3,0.4,0.6,0.6,0.9C61.4,82.9,61.2,82.6,61,82.3z M61.9,83.7
		c0.2,0.3,0.4,0.6,0.6,0.9C62.3,84.3,62.1,84,61.9,83.7z M64.8,86.8c0.2,0.1,0.3,0.2,0.5,0.4C65.2,87.1,65,86.9,64.8,86.8z
		 M82.9,85.6L63.7,66.4c0.8-1.1,1.8-2.1,2.9-2.9l19.2,19.2C85,83.8,84,84.8,82.9,85.6z"/>
</g>
</svg>
