<?xml version="1.0" encoding="utf-8"?>
<!-- Generator: Adobe Illustrator 24.0.0, SVG Export Plug-In . SVG Version: 6.00 Build 0)  -->
<svg version="1.1" id="Layer_1" xmlns="http://www.w3.org/2000/svg" xmlns:xlink="http://www.w3.org/1999/xlink" x="0px" y="0px"
	 viewBox="0 0 100 100" style="enable-background:new 0 0 100 100;" xml:space="preserve">
<g>
	<path d="M82.7,71.9c2.6-0.1,4.6-2.3,4.5-4.9c0-1.8-2.3-5.7-3.6-7.9c-0.1-0.2-0.2-0.3-0.4-0.4c-0.6-0.4-1.3-0.2-1.7,0.4
		c-1.4,2.2-3.7,6.1-3.7,7.9c0,0.1,0,0.3,0,0.4C77.9,70,80.1,72,82.7,71.9z"/>
	<path d="M43.7,62.9C43.7,62.9,43.8,62.9,43.7,62.9c2.4,2.1,5.6,3.3,9.2,3.3c0.4,0,0.7,0,1.1,0c4.3-0.3,7.9-2.2,10.2-5
		c0.1-0.1,0.2-0.2,0.3-0.3c0.1-0.2,0.3-0.4,0.4-0.6c0.1-0.2,0.2-0.4,0.4-0.6c0.1-0.1,0.1-0.2,0.2-0.4c0.1-0.2,0.3-0.5,0.4-0.8
		c0,0,0-0.1,0-0.1c0.8-1.8,1.2-3.8,1-5.9c-0.2-2.8-1.2-4.9-2.9-6.5c-2.4-2.1-6.1-2.9-11.4-2.5c-9,0.7-13.4,4.3-12.9,10.9
		c0.1,1,0.2,1.9,0.5,2.7c0,0.1,0,0.1,0,0.2C40.8,59.6,42.1,61.4,43.7,62.9z M52.8,46.4c4.4-0.3,7.5,0.3,9.3,1.8c1.2,1,1.8,2.5,2,4.5
		c0,0.4,0,0.8,0,1.2c-1.4,0.5-4.7,1.6-10.4-1.3c-5.4-2.8-9.7-0.1-11.2,0.9C42.5,50.5,44,47.1,52.8,46.4z"/>
	<path d="M95.5,91.9c-0.4-3-1.4-5.9-2.8-8.6l1.1-6.8c0.1-0.8-0.1-1.6-0.7-2.3c-0.8-0.9-2.2-1.5-3.7-1.5H75.5c-0.6,0-1.2,0.1-1.7,0.3
		c-3.2-0.9-6.1-1.7-8-2.2c0-0.4,0.1-0.8,0.1-1.2c7.2-5.8,11.5-15.6,11.3-25.7c-0.2-8.2-3.5-16-9.1-21.3c-4.7-4.5-10.7-6.8-16.8-6.7
		c-13.9,0.4-24.9,13.5-24.5,29.3C27,55.3,32,65,39.6,70.4c0,0.1,0,0.1,0,0.2c-2.4,0.6-7.4,1.7-12.3,3.1c-0.8-0.6-1.9-1-3.2-1H10.2
		c-1.5,0-2.9,0.5-3.7,1.5c-0.6,0.7-0.8,1.5-0.7,2.3l1.9,11.8c-0.3,1.2-0.6,2.4-0.8,3.6c-0.1,1.1,0.6,2.1,1.7,2.2c0.1,0,0.2,0,0.3,0
		c0.3,0,0.6-0.1,0.9-0.2c0.7,0.4,1.7,0.7,2.8,0.7h9c2.4,0,4.1-1.2,4.4-2.9l2.3-14.1c4.9-1.4,9.8-2.5,12.2-3.1
		c2,5.5,6.7,10.3,12.3,10.3c0.1,0,0.2,0,0.2,0c5.4-0.1,9.8-4.8,11.8-10.1c1.5,0.4,3.8,1,6.3,1.7c0,0,0,0.1,0,0.1l2.5,15.2
		c0.3,1.7,2.1,2.9,4.4,2.9h9c2.3,0,4.1-1.2,4.4-2.9l0-0.2c0.1,0.3,0.1,0.6,0.2,0.9c0.1,1,1,1.7,2,1.7c0.1,0,0.2,0,0.3,0
		C94.8,94,95.6,92.9,95.5,91.9z M10.2,76.7h13.9c0.1,0,0.2,0,0.3,0l-1,6.3H11l-1-6.3C10,76.7,10.1,76.7,10.2,76.7z M30.7,45
		c-0.4-13.5,8.9-24.8,20.6-25.2c0.2,0,0.3,0,0.5,0c4.9,0,9.6,2,13.4,5.6c4.8,4.6,7.7,11.3,7.9,18.5C73.4,53,69.3,62,62.7,66.9
		c-0.2,0.1-0.3,0.3-0.5,0.5c-7.1,4.3-12.6,4.3-19.5,0l-0.1,0.1c0,0,0,0,0,0C35.6,63.1,30.9,54.2,30.7,45z M52.9,80.7
		c-3.8,0.1-7.3-3.7-8.8-7.9c2.8,1.3,5.5,1.9,8.2,1.9c2.9,0,5.8-0.7,8.9-2.2C60,76.7,56.7,80.6,52.9,80.7z M89.7,76.7l-1,6.3H76.2
		l-1-6.3c0.1,0,0.2,0,0.3,0h13.9C89.5,76.7,89.6,76.7,89.7,76.7z"/>
	<path d="M17.4,32.8c7.4,0,13.3-6,13.3-13.3c0-7.4-6-13.3-13.3-13.3c-7.4,0-13.3,6-13.3,13.3C4.1,26.8,10,32.8,17.4,32.8z M17.4,9.1
		c5.7,0,10.3,4.6,10.3,10.3c0,5.7-4.6,10.3-10.3,10.3c-5.7,0-10.3-4.6-10.3-10.3C7.1,13.7,11.7,9.1,17.4,9.1z"/>
	<path d="M17.3,16.3L15.2,18c-0.2,0.2-0.4,0.5-0.4,0.8c0,0,0,0.1,0,0.1c0,0.4,0.4,0.7,0.8,0.7h3.9c0.4,0,0.7-0.3,0.7-0.7
		c0-0.4-0.3-0.7-0.7-0.7H17l1.2-0.9c1.3-1,1.9-1.6,1.9-2.8c0-0.1,0-0.2,0-0.3c-0.1-1.2-1.3-2.1-2.5-2c-0.9,0-1.8,0.4-2.4,1.1
		c-0.1,0.1-0.2,0.3-0.2,0.5c0,0,0,0,0,0c0,0.4,0.3,0.7,0.7,0.7c0.2,0,0.4-0.1,0.5-0.2c0.3-0.4,0.7-0.6,1.2-0.6c0.1,0,0.1,0,0.2,0
		c0.5,0,0.9,0.5,0.8,0.9C18.5,15.2,18.2,15.6,17.3,16.3z"/>
	<path d="M12.1,24.6c0-0.6-0.7-0.9-1.1-1C10.5,23.4,10,23.3,10,23c0-0.3,0.3-0.5,0.7-0.5c0.3,0,0.6,0.1,0.9,0.3h0.1c0,0,0,0,0,0
		c0.1,0,0.2-0.1,0.2-0.2c0-0.1-0.1-0.2-0.1-0.2c-0.3-0.2-0.7-0.3-1.1-0.3c0,0,0,0-0.1,0c-0.6,0-1.1,0.4-1.1,1c0,0.7,0.7,0.9,1.2,1
		c0.5,0.1,0.9,0.3,0.9,0.6c0,0.3-0.3,0.6-0.7,0.6c-0.4,0-0.8-0.1-1.1-0.4c0,0-0.1,0-0.1,0c-0.1,0-0.2,0.1-0.2,0.2
		c0,0.1,0,0.1,0.1,0.1c0.4,0.3,0.9,0.5,1.4,0.5C11.5,25.6,12.1,25.2,12.1,24.6z"/>
	<path d="M12.6,22.4h0.3v2.2c0,0.1,0,0.2,0,0.2c0.1,0.5,0.5,0.9,1,0.8c0.2,0,0.4,0,0.5-0.1c0.1,0,0.1-0.1,0.2-0.2
		c0-0.1-0.1-0.2-0.2-0.2c-0.1,0-0.2,0-0.3,0c0,0-0.1,0-0.1,0c-0.3,0-0.5-0.3-0.5-0.6v-2.1h0.9c0,0,0,0,0,0c0.1,0,0.2-0.1,0.2-0.2
		c0-0.1-0.1-0.2-0.2-0.2h-0.9v-0.9c0-0.1-0.1-0.3-0.3-0.3c0,0,0,0,0,0c-0.1,0-0.3,0.1-0.2,0.3V22h-0.3c-0.1,0-0.2,0.1-0.2,0.2
		C12.3,22.3,12.4,22.4,12.6,22.4z"/>
	<path d="M16.5,25.6c0.5,0,1-0.2,1.3-0.5c0,0,0.1-0.1,0.1-0.2c0,0,0,0,0,0c0-0.1-0.1-0.2-0.2-0.2c-0.1,0-0.1,0-0.1,0.1
		c-0.3,0.3-0.6,0.4-1,0.4c-0.7,0-1.2-0.5-1.2-1.2h2.6c0.1,0,0.2-0.1,0.2-0.2c0,0,0-0.1,0-0.1c0-0.9-0.7-1.7-1.7-1.7c0,0,0,0,0,0
		c-1,0.1-1.7,0.9-1.7,1.8c0,0,0,0.1,0,0.1C14.8,24.8,15.6,25.6,16.5,25.6z M16.5,22.3C16.5,22.3,16.5,22.3,16.5,22.3
		c0.7,0,1.2,0.6,1.1,1.2h-2.3C15.3,22.9,15.8,22.4,16.5,22.3z"/>
	<path d="M19.3,22.7v-0.5c0,0,0-0.1,0-0.1c0-0.1-0.2-0.2-0.3-0.2s-0.2,0.2-0.2,0.3v4.2c0,0.1,0.1,0.3,0.3,0.3c0,0,0,0,0,0
		c0.1,0,0.3-0.1,0.2-0.3v-1.5c0.3,0.5,0.8,0.8,1.4,0.8c0,0,0,0,0.1,0c1-0.1,1.7-0.9,1.6-1.8c0,0,0-0.1,0-0.1c0-1-0.7-1.7-1.7-1.8
		C20.1,21.9,19.5,22.2,19.3,22.7z M20.5,22.4C20.5,22.4,20.6,22.4,20.5,22.4c0.8,0.1,1.3,0.7,1.3,1.4c0,0,0,0.1,0,0.1
		c0,0.7-0.6,1.3-1.3,1.3c0,0,0,0,0,0c-0.7,0-1.3-0.6-1.3-1.4c0,0,0,0,0,0C19.2,23,19.8,22.4,20.5,22.4z"/>
	<path d="M24.1,25.6c0,0,0.1,0,0.1,0c0.6,0,1.1-0.5,1.1-1.1c0-0.6-0.7-0.9-1.1-1c-0.5-0.1-0.9-0.3-0.9-0.6c0-0.3,0.3-0.5,0.7-0.5
		c0.3,0,0.6,0.1,0.9,0.3h0.1c0,0,0,0,0,0c0.1,0,0.2-0.1,0.2-0.2c0-0.1-0.1-0.2-0.1-0.2c-0.3-0.2-0.7-0.3-1.1-0.3c0,0,0,0-0.1,0
		c-0.6,0-1.1,0.4-1.1,1c0,0.7,0.7,0.9,1.2,1c0.5,0.1,0.9,0.3,0.9,0.6c0,0.3-0.3,0.6-0.7,0.6c-0.4,0-0.8-0.1-1.1-0.4c0,0-0.1,0-0.1,0
		c-0.1,0-0.2,0.1-0.2,0.2c0,0.1,0,0.1,0.1,0.2C23.2,25.4,23.6,25.6,24.1,25.6z"/>
	<circle cx="17.1" cy="58.4" r="1.2"/>
	<path d="M13.8,62.5c0-0.7-0.5-1.2-1.2-1.2c-0.7,0-1.2,0.5-1.2,1.2c0,0.7,0.5,1.2,1.2,1.2C13.3,63.7,13.8,63.2,13.8,62.5z"/>
	<path d="M22.8,62.5c0-0.7-0.5-1.2-1.2-1.2c-0.7,0-1.2,0.5-1.2,1.2c0,0.7,0.5,1.2,1.2,1.2C22.2,63.7,22.8,63.2,22.8,62.5z"/>
	<circle cx="19.6" cy="69.1" r="1.2"/>
	<circle cx="13.8" cy="69.1" r="1.2"/>
	<path d="M16.9,62.5c-0.7,0-1.2,0.5-1.2,1.2c0,0.7,0.5,1.2,1.2,1.2c0.7,0,1.2-0.5,1.2-1.2C18.1,63.1,17.6,62.5,16.9,62.5z"/>
	<path d="M8,66.3c0,0.7,0.5,1.2,1.2,1.2s1.2-0.5,1.2-1.2c0-0.7-0.5-1.2-1.2-1.2S8,65.6,8,66.3z"/>
	<circle cx="25.2" cy="67" r="1.2"/>
</g>
</svg>
