<svg id="Layer_1" data-name="Layer 1" xmlns="http://www.w3.org/2000/svg" viewBox="0 0 100 100"><defs><style>.cls-1,.cls-2{fill:none;stroke:#000;stroke-miterlimit:10;}.cls-1{stroke-width:3.08px;}.cls-2{stroke-linecap:round;stroke-width:4px;}</style></defs><path class="cls-1" d="M54,73.46A12,12,0,0,0,62.37,62c0-.07,0-.13,0-.19A31,31,0,0,0,74.23,43.59a4,4,0,0,1,2.24-2.7l1.21-.55a3.65,3.65,0,0,0,1-6l-1.08-1a12.68,12.68,0,0,1-3.55-6C70.93,15.7,61.48,7.22,50.29,7.22,36.56,7.22,25.43,20,25.43,35.75c0,10.84,5.27,21,13,26.26v0a11.54,11.54,0,0,0,7.14,11c.35.14.7.26,1,.37"/><path class="cls-2" d="M6,86.15s1-9.23,6.66-12.82,25.66-8.5,25.66-8.5"/><path class="cls-2" d="M94.58,86.15s-1-9.23-6.66-12.82-25.66-8.5-25.66-8.5"/><path d="M41.55,33.21a6.29,6.29,0,0,1,6-6.53h0a3,3,0,0,0,2.8-1.77c.85-2.11,2.6-5,5.84-5.06,6.51-.14,15.14,0,15.14,0C66.3,12.09,55,7.22,50.29,7.22,36.56,7.22,25.43,20,25.43,35.75A34,34,0,0,0,29.06,51s4.16-.54,9.12-5A12.74,12.74,0,0,0,42.1,35.91,6.85,6.85,0,0,1,41.55,33.21Z"/><path d="M65.33,45.15A19.39,19.39,0,0,0,46,64.52V86.75a4.3,4.3,0,0,0,8.6,0V64.52A10.78,10.78,0,0,1,65.33,53.75a4.3,4.3,0,0,0,0-8.6ZM50.49,74.93a3,3,0,1,1,3-3.05A3,3,0,0,1,50.49,74.93Z"/></svg>