<svg id="Layer_1" data-name="Layer 1" xmlns="http://www.w3.org/2000/svg" viewBox="0 0 100 100"><defs><style>.cls-1,.cls-2,.cls-3,.cls-5,.cls-6{fill:none;}.cls-1,.cls-2,.cls-3,.cls-4,.cls-5,.cls-6{stroke:#000;}.cls-1,.cls-2,.cls-3,.cls-4,.cls-6{stroke-miterlimit:10;}.cls-1{stroke-width:3px;}.cls-2,.cls-5,.cls-6{stroke-width:4px;}.cls-3,.cls-4{stroke-width:2.88px;}.cls-5{stroke-linejoin:round;}.cls-6{stroke-linecap:round;}.cls-7{font-size:10.32px;font-family:GothamRounded-Bold, Gotham Rounded;font-weight:700;}.cls-8{font-size:6.88px;font-family:GothamRounded-Book, Gotham Rounded;letter-spacing:-0.06em;}.cls-9{letter-spacing:-0.07em;}.cls-10{letter-spacing:-0.05em;}</style></defs><g id="_193" data-name="193"><path class="cls-1" d="M14.4,6.8a2.19,2.19,0,0,1,3.8,0l5.43,9.4,5.42,9.39a2.2,2.2,0,0,1-1.9,3.3H5.45a2.2,2.2,0,0,1-1.91-3.3L9,16.2Z"/><path d="M14.67,11.31a.79.79,0,0,1,.77-.94H17a.81.81,0,0,1,.79.94l-.77,9a.8.8,0,0,1-.81.79.78.78,0,0,1-.79-.79Zm1.56,11.37a1.5,1.5,0,0,1,1.56,1.51v.22a1.56,1.56,0,0,1-3.12,0v-.22A1.51,1.51,0,0,1,16.23,22.68Z"/></g><path class="cls-2" d="M20.64,94.62h-9a2.4,2.4,0,0,1-2.4-2.19L6.78,65.15a2.41,2.41,0,0,1,2.39-2.63H23.08a2.41,2.41,0,0,1,2.4,2.63L23,92.43A2.4,2.4,0,0,1,20.64,94.62Z"/><path d="M7.45,72.69,9.22,92.43a2.4,2.4,0,0,0,2.4,2.19h9A2.4,2.4,0,0,0,23,92.43L24.8,72.69Z"/><path class="cls-3" d="M40.49,54.52c-1.29-6.62,3.74-9.37,10.36-10.66s12.32-.63,13.61,6-3.22,12-9.84,13.33S41.78,61.15,40.49,54.52Z"/><path class="cls-4" d="M52.28,52.59c9,3.32,12.42-1.1,12.4-.32-.09,5.49-4.27,9.78-10.06,10.91S43.49,62,41.28,57.06C40.93,56.28,45.32,50,52.28,52.59Z"/><path class="cls-5" d="M73,39.9C70.74,25.34,58.68,15.11,46,17S24.83,32.31,27,46.86c1.52,10,7.81,18.64,15.71,22.43v0A11.17,11.17,0,0,0,64.83,66l0-.18C71.09,59.8,74.46,49.8,73,39.9Z"/><path class="cls-6" d="M10.18,91.07s1-8.62,6.22-12,26.4-8,26.4-8"/><path class="cls-6" d="M94.68,91.07s-1-8.62-6.22-12-24-7.95-24-7.95"/><path class="cls-6" d="M78.11,56.31C84.38,61.49,85,68,85,68.86"/><polyline class="cls-6" points="79.87 66.34 85.68 69.44 88.48 63.84"/><circle class="cls-1" cx="84.64" cy="18.38" r="11.84"/><text class="cls-7" transform="translate(81.61 18.49)">2</text><text class="cls-8" transform="translate(76.31 24.47)">s<tspan class="cls-9" x="3.01" y="0">t</tspan><tspan class="cls-10" x="5.34" y="0">eps</tspan></text></svg>