<?xml version="1.0" encoding="utf-8"?>
<!-- Generator: Adobe Illustrator 24.0.0, SVG Export Plug-In . SVG Version: 6.00 Build 0)  -->
<svg version="1.1" id="Layer_1" xmlns="http://www.w3.org/2000/svg" xmlns:xlink="http://www.w3.org/1999/xlink" x="0px" y="0px"
	 viewBox="0 0 100 100" style="enable-background:new 0 0 100 100;" xml:space="preserve">
<g>
	<path d="M41.1,24.2c0-8.7-7.1-15.8-15.8-15.8S9.6,15.5,9.6,24.2s7.1,15.8,15.8,15.8S41.1,32.9,41.1,24.2z M37.1,24.2
		c0,2.5-0.8,4.8-2.1,6.7L18.6,14.5c1.9-1.3,4.2-2.1,6.7-2.1C31.8,12.4,37.1,17.7,37.1,24.2z M13.6,24.2c0-2.5,0.8-4.8,2.1-6.7
		l16.4,16.4c-1.9,1.3-4.2,2.1-6.7,2.1C18.9,35.9,13.6,30.7,13.6,24.2z"/>
	<path d="M90.7,23.4c0-8.7-7.1-15.8-15.8-15.8s-15.8,7.1-15.8,15.8c0,4.4,1.8,8.3,4.7,11.2H50.7c0,0,0,0,0,0c-3.2,0-5.9,2.6-5.9,5.9
		c0,0.2,0,0.4,0,0.5l0.5,5.6c-0.9-0.5-1.9-1-2.9-1.2c-2.6-0.6-5.3-0.2-7.5,1.2c-2.2,1.4-3.8,3.6-4.4,6.1c-2.8,0.8-5.1,2.7-6.4,5.3
		h-0.7c-3.5,0-6.2,2.7-6.2,6.1c0,0.4,0,0.9,0.1,1.4c1.8,8,7.6,14.5,15.3,17.9V84c0,3.5,2.8,6.3,6.3,6.3h12.1c0,0,0,0,0,0
		c0.6,0,1.1-0.1,1.6-0.2c0.6,0.2,1.3,0.4,2,0.4h14.6c3.1,0,5.6-2.3,5.9-5.4l4-44.1c0.1-0.8,0-1.6-0.3-2.4
		C85.6,36.9,90.6,30.8,90.7,23.4z M50.7,38.6C50.7,38.6,50.7,38.6,50.7,38.6h20.1c1.2,0.3,2.4,0.5,3.7,0.5c0,0,0.1,0.1,0.1,0.1
		c0.3,0.4,0.5,0.9,0.4,1.4L73.9,53H59.4c-1.7-3.2-5-5.4-8.8-5.4c0,0,0,0,0,0c-0.4,0-0.8,0-1.1,0.1l-0.6-7.1c0-0.1,0-0.1,0-0.2
		C48.8,39.5,49.6,38.6,50.7,38.6z M32.6,57.1l2.1-0.1l0.1-2.1c0.1-1.7,1-3.3,2.5-4.3c1.2-0.7,2.6-1,4-0.7c1.4,0.3,2.6,1.2,3.3,2.4
		l1.2,2l0.1-0.1l0.1,1.3l2.7-1.4c0.8-0.4,1.7-0.6,2.6-0.6c1.4,0,2.7,0.5,3.7,1.4c0.3,0.5,0.5,1.1,0.7,1.7L56,58l-26,0
		C30.8,57.5,31.7,57.2,32.6,57.1z M21.8,64.6c0-0.1,0-0.2,0-0.3c0-0.8,0.7-1.5,1.5-1.5c0,0,0,0,0,0h43.1c0.1,0,0.2,0,0.3,0
		c0.8,0.2,1.4,1,1.2,1.7c-1.7,6.7-6.5,12.3-12.9,14.9c-3.2,1.4-6.6,2.1-10.2,2.1h0C33.7,81.5,23.9,74.4,21.8,64.6z M38.8,86.3
		c-0.9,0-1.7-0.5-2.1-1.3c2.6,0.7,5.3,1.1,8.1,1.1c0,0,0.1,0,0.1,0c2.8,0,5.5-0.4,8.1-1.1c-0.1,0.2-0.3,0.4-0.4,0.6
		c-0.4,0.4-1,0.7-1.6,0.7c0,0,0,0,0,0H38.8z M75.6,35.2c-0.6-0.3-1.2-0.4-1.8-0.5c-0.2,0-0.4,0-0.6,0h-1.8c-4.7-1.5-8.2-6-8.2-11.2
		c0-6.5,5.3-11.8,11.8-11.8S86.7,17,86.7,23.4C86.7,29.7,81.7,34.8,75.6,35.2z"/>
	<path d="M69,18.9c-0.3,0-0.5,0-0.8,0.1L67,19.4c-0.3,0.1-0.5,0.3-0.5,0.6c0,0.4,0.3,0.6,0.7,0.6c0.1,0,0.2,0,0.3,0l0.9-0.3l0,6.3
		c0,0.3,0.3,0.6,0.6,0.6c0.4,0,0.8-0.2,0.8-0.6v-7.1c0,0,0,0,0,0C69.7,19.2,69.4,18.9,69,18.9z"/>
	<path d="M77,20.9c-0.8,0-1.6,0.4-2,1.1v-2.7c0,0,0,0,0,0c0-0.4-0.3-0.7-0.7-0.7c0,0,0,0,0,0c-0.4,0-0.7,0.3-0.7,0.7l0,7.4
		c0,0.3,0.3,0.6,0.6,0.6c0.4,0,0.8-0.2,0.8-0.6v-2.9c0-0.1,0-0.2,0-0.3c0-0.8,0.7-1.4,1.5-1.3c0.9,0,1.4,0.5,1.4,1.5v2.9
		c0,0,0,0,0,0c0,0.4,0.3,0.7,0.7,0.7c0,0,0,0,0,0c0.4,0,0.7-0.3,0.7-0.7v-3.4c0-0.1,0-0.2,0-0.4C79.3,21.8,78.2,20.8,77,20.9z"/>
	<path d="M83.2,21c-0.8,0.1-1.4,0.7-1.6,1.4v-0.7c0,0,0,0,0,0c0-0.4-0.3-0.7-0.7-0.7c0,0,0,0,0,0c-0.4,0-0.7,0.3-0.7,0.7v5
		c0,0.3,0.3,0.6,0.6,0.6c0.4,0,0.8-0.2,0.8-0.6v-1.9c0-1.5,0.7-2.3,1.7-2.5c0.4-0.1,0.6-0.4,0.6-0.7C83.9,21.3,83.6,21,83.2,21z"/>
</g>
</svg>
