<svg id="Layer_1" data-name="Layer 1" xmlns="http://www.w3.org/2000/svg" viewBox="0 0 100 100"><defs><style>.cls-1,.cls-2,.cls-3{fill:none;}.cls-2,.cls-3{stroke:#000;stroke-miterlimit:10;}.cls-2{stroke-width:4px;}.cls-3{stroke-width:4.66px;}</style></defs><g id="_254" data-name="254"><rect class="cls-1" x="11.94" y="9.74" width="80" height="80"/></g><g id="_254-2" data-name="254"><path class="cls-2" d="M73.14,36.63H50.68a3.88,3.88,0,0,0-3.87,4.23l1,11.47a7.57,7.57,0,0,1,3.51-.88,7.67,7.67,0,0,1,7.5,6.09,7.62,7.62,0,0,1,5.64,2.87H67.2A3.86,3.86,0,0,1,71,65.07c-1.68,7.52-7.37,13.73-15,16.75V84a4.33,4.33,0,0,1-3,4.12,3.85,3.85,0,0,0,1.59.35H69.19a3.89,3.89,0,0,0,3.87-3.54l4-44.07A3.88,3.88,0,0,0,73.14,36.63Z"/><path d="M56,53.05a7.7,7.7,0,0,1,2.82,4.49,7.62,7.62,0,0,1,5.64,2.87H67.2A3.86,3.86,0,0,1,71,65.07c-1.68,7.52-7.37,13.73-15,16.75V84a4.33,4.33,0,0,1-3,4.12,3.85,3.85,0,0,0,1.59.35H69.19a3.88,3.88,0,0,0,3.87-3.54l2.86-31.88Z"/><g id="_254-3" data-name="254"><rect class="cls-1" x="15.11" y="32.3" width="57.6" height="57.6"/><path class="cls-3" d="M64.57,60.31A7.67,7.67,0,0,0,58,56.1,7.65,7.65,0,0,0,50.55,50a7.57,7.57,0,0,0-3.95,1.11,7.65,7.65,0,0,0-14.14,3.65,7.68,7.68,0,0,0-6.83,5.54Z"/><path class="cls-2" d="M34.54,81.86V84a4.31,4.31,0,0,0,4.32,4.32H50.94A4.31,4.31,0,0,0,55.26,84"/><path class="cls-3" d="M44.85,83.79a28,28,0,0,0,11.09-2.25A24,24,0,0,0,70.22,65.07a3.87,3.87,0,0,0-3.81-4.66H23.29a3.86,3.86,0,0,0-3.81,4.66C21.87,75.75,32.32,83.79,44.85,83.79Z"/></g><circle class="cls-2" cx="25.35" cy="24.17" r="13.77"/><path d="M17.18,13.08A14.18,14.18,0,0,0,14.26,16L33.51,35.25a13.7,13.7,0,0,0,2.92-2.92Z"/></g><path class="cls-2" d="M74.91,37.19A13.75,13.75,0,1,1,88.66,23.44,13.77,13.77,0,0,1,74.91,37.19Z"/><path d="M68.26,20.4l-.86.26a.82.82,0,0,1-.26,0,.65.65,0,0,1-.65-.63.63.63,0,0,1,.49-.63L68.25,19A2.75,2.75,0,0,1,69,18.9h0a.72.72,0,0,1,.74.73v7.1a.74.74,0,0,1-1.47,0Z"/><path d="M73.59,19.31a.71.71,0,0,1,.72-.72.72.72,0,0,1,.73.72V22a2.3,2.3,0,0,1,2-1.1,2.17,2.17,0,0,1,2.26,2.42v3.38a.7.7,0,0,1-.72.72.71.71,0,0,1-.73-.72V23.8c0-1-.5-1.54-1.36-1.54A1.41,1.41,0,0,0,75,23.83v2.91a.73.73,0,0,1-1.45,0Z"/><path d="M80.13,21.73a.71.71,0,0,1,.72-.73.72.72,0,0,1,.73.73v.65A2,2,0,0,1,83.18,21a.71.71,0,0,1,.14,1.41c-1,.18-1.74,1-1.74,2.47v1.87a.73.73,0,0,1-1.45,0Z"/></svg>