<svg id="Layer_1" data-name="Layer 1" xmlns="http://www.w3.org/2000/svg" viewBox="0 0 100 100"><path d="M19.81,47.17l-2.55,2.88-1.88-30.4a2.57,2.57,0,0,0-.06-.4,2,2,0,0,0-2.06-1.47,1.87,1.87,0,0,0-.77.2,2.12,2.12,0,0,0-.6.47,2,2,0,0,0-.5,1.44l1.88,30.35-2.81-2.49a2,2,0,0,0-2.65,3l6.44,5.71.08-.09h0l-.08.09,1.5,1.33,1.33-1.5L17,56.2h0l.1.09,5.72-6.47a2,2,0,0,0-3-2.65Z"/><path d="M60.48,24.59l2.42-2.86L65.36,52a1.77,1.77,0,0,0,.08.4,2,2,0,0,0,.94,1.18,1.91,1.91,0,0,0,1.14.25,1.76,1.76,0,0,0,.4-.07,2,2,0,0,0,1.18-.94,2,2,0,0,0,.25-1.14L66.89,21.35l2.92,2.48a2,2,0,1,0,2.59-3L65.82,15.2l-.08.1h0l.08-.1-1.53-1.3L63,15.43l.08.07h0L63,15.43,57.43,22a2,2,0,0,0,3,2.59Z"/><path d="M79,74.94a7.3,7.3,0,0,0-.25-1s0,0,0,0a8.18,8.18,0,0,0-.39-1l-.09-.18a6.15,6.15,0,0,0-.55-.93v0a7.71,7.71,0,0,0-.67-.84l-.09-.1a8.54,8.54,0,0,0-1.76-1.4l-.05,0a7.71,7.71,0,0,0-1-.51h0a9.17,9.17,0,0,0-.55-.83L73.46,68a7.84,7.84,0,0,0-1.4-1.42L72,66.5c-.23-.17-.46-.34-.71-.49l-.15-.09a7.91,7.91,0,0,0-1.77-.75l-.24-.07c-.24-.06-.48-.11-.73-.15l-.27,0a8,8,0,0,0-1-.07H57.35l-.87-10.25-.84-9.83h0a.13.13,0,0,1,0-.06c0-.25-.06-.49-.11-.73a3,3,0,0,0-.1-.43c0-.12-.05-.23-.08-.35s-.14-.39-.21-.58l-.06-.16a5.72,5.72,0,0,0-.32-.66.05.05,0,0,0,0,0,7.64,7.64,0,0,0-2-2.41l-.43-10.58-.41-10.08h0a8.08,8.08,0,0,0-.08-.86,8.37,8.37,0,0,0-.21-1,8.6,8.6,0,0,0-.87-2.12,8.26,8.26,0,0,0-.95-1.33,8.67,8.67,0,0,0-6.57-3H39.09A8.66,8.66,0,0,0,31,15.89a6.18,6.18,0,0,0-.27.83,8.33,8.33,0,0,0-.3,1.74c0,.3,0,.6,0,.91l2.14-.08h0l-2.14.08h0l.32,7.9h0a6.28,6.28,0,0,0-.59.27l-.4.21-.57.35-.33.25q-.24.18-.48.39l-.31.3c-.15.15-.3.31-.44.47l-.2.25a6.87,6.87,0,0,0-.45.65,2.39,2.39,0,0,0-.13.21,7.46,7.46,0,0,0-.4.8c0,.06-.05.13-.08.2a6.61,6.61,0,0,0-.29.89,1.16,1.16,0,0,0,0,.18,6.74,6.74,0,0,0-.17,1,.57.57,0,0,1,0,.13,7,7,0,0,0,0,1.12h0l2.78,47h0a8.12,8.12,0,0,0,.23,1.49,7.33,7.33,0,0,0,.5,1.38,7.67,7.67,0,0,0,.74,1.24,6.12,6.12,0,0,0,.45.56,7.74,7.74,0,0,0,5.82,2.63H59.44v-.13h7.7a7.77,7.77,0,0,0,1-.06l.28,0c.24,0,.48-.09.71-.15l.24-.06a8.19,8.19,0,0,0,1.77-.75l.13-.08a7,7,0,0,0,.72-.49l.08-.06a8.12,8.12,0,0,0,2-2.26h0a8.13,8.13,0,0,0,1.07-.52h0a7.86,7.86,0,0,0,1.81-1.44.46.46,0,0,0,.07-.07,8,8,0,0,0,.69-.85v0a8,8,0,0,0,.56-.94l.08-.18a8,8,0,0,0,.39-1s0,0,0,0a7.63,7.63,0,0,0,.25-1c0-.09,0-.17,0-.25a8.32,8.32,0,0,0,.08-1.12V76.29a8,8,0,0,0-.08-1.1C79,75.1,79,75,79,74.94ZM54.51,44.86l-.81.07h-.06ZM35.24,17.4a4.17,4.17,0,0,1,3.85-2.57H43.2a4.22,4.22,0,0,1,2.31.68,4.85,4.85,0,0,1,.61.49,4.17,4.17,0,0,1,1.29,2.87h0V19l-12.5,0A4.28,4.28,0,0,1,35.24,17.4Zm3.07,10.92h0a10.06,10.06,0,0,0-.91-.59l-.3-.15a5.44,5.44,0,0,0-.65-.3l-.33-.13a6.1,6.1,0,0,0-.9-.26l-.14-3.38,12.52,0,.13,3.16.37,9.16L45,33.46l-6.72-5.13Z"/><path d="M94.62,76.44a2,2,0,0,0-1.76-1.07H85.42a2,2,0,0,0-2,2A2,2,0,0,0,84.31,79a1.92,1.92,0,0,0,1.11.34h7.44A2,2,0,0,0,94,79a1.85,1.85,0,0,0,.54-.54,2,2,0,0,0,.34-1.12A2,2,0,0,0,94.62,76.44Z"/><path d="M91,85.71a2,2,0,0,0-.6-.53l-6.44-3.72a2,2,0,0,0-1.51-.2,1.94,1.94,0,0,0-.69.34,2.14,2.14,0,0,0-.53.59,2,2,0,0,0,.73,2.74l6.44,3.72a2,2,0,0,0,2.5-.41,2.43,2.43,0,0,0,.24-.32A2,2,0,0,0,91,85.71Z"/><path d="M81.43,72.88a2,2,0,0,0,2.49.41l6.44-3.72a2,2,0,0,0,.74-2.74,2.14,2.14,0,0,0-.53-.59,2,2,0,0,0-2.21-.14l-6.44,3.72a1.89,1.89,0,0,0-.59.53,1.38,1.38,0,0,0-.2.33,2,2,0,0,0,.06,1.88A2.43,2.43,0,0,0,81.43,72.88Z"/></svg>