<?xml version="1.0" encoding="utf-8"?>
<!-- Generator: Adobe Illustrator 24.0.0, SVG Export Plug-In . SVG Version: 6.00 Build 0)  -->
<svg version="1.1" id="Layer_1" xmlns="http://www.w3.org/2000/svg" xmlns:xlink="http://www.w3.org/1999/xlink" x="0px" y="0px"
	 viewBox="0 0 100 100" style="enable-background:new 0 0 100 100;" xml:space="preserve">
<g>
	<path d="M18.8,29.1C18.8,29.1,18.7,29.1,18.8,29.1c-0.9,0-1.6,0.7-1.6,1.5v0.2c0,0.9,0.7,1.6,1.6,1.6c0.9,0,1.6-0.7,1.6-1.6v-0.2
		c0,0,0-0.1,0-0.1C20.3,29.7,19.6,29.1,18.8,29.1z"/>
	<path d="M19.6,16.8H18c-0.1,0-0.1,0-0.2,0c-0.4,0.1-0.7,0.5-0.6,0.9l0.8,9c0,0,0,0,0,0c0,0.4,0.3,0.8,0.8,0.8c0,0,0,0,0,0
		c0.4,0,0.8-0.3,0.8-0.8l0.8-9c0,0,0-0.1,0-0.1C20.4,17.2,20,16.8,19.6,16.8z"/>
	<path d="M64.9,45.8L64.9,45.8c-0.2-0.4-0.4-0.8-0.7-1.1c-3-4.5-7.6-4.8-13.9-0.7c-3.6,2.4-5.7,4.7-6.2,7.3
		c-0.4,1.9,0.1,3.8,1.3,5.7c1.5,2.3,3.7,3.9,6.4,4.4c0.7,0.1,1.4,0.2,2.1,0.2c2.2,0,4.5-0.7,6.6-2.1c1.4-0.9,2.6-2.1,3.5-3.4
		c0.1-0.1,0.1-0.2,0.2-0.2c0.1-0.2,0.2-0.3,0.3-0.5c1.6-2.7,1.9-5.8,0.8-8.8L64.9,45.8z M47,51.8c0.4-1.7,2-3.5,4.9-5.5
		c2.7-1.8,4.7-2.4,6.1-2.4c1.9,0,3,1.1,3.8,2.3c0.1,0.2,0.2,0.4,0.3,0.6c-0.8,1-2.7,2.7-7.4,2.9c-4.4,0.1-6.5,3-7.4,4.7
		C46.9,53.5,46.8,52.6,47,51.8z"/>
	<path d="M94.6,82c0-0.3-0.9-7.9-5.9-11c-3.5-2.2-12.9-4.8-17.4-6c0.7-2.6,0.5-5.5-0.8-8c2.7-6.9,1.8-15.6-2.3-22.5
		c-6.5-11-19.8-15.3-29.6-9.5c-2.4,1.4-4.4,3.3-5.9,5.6L22,12.5c-0.3-0.5-0.8-1-1.3-1.3c-1.8-1-4-0.4-5.1,1.3L4.8,31.2
		c-0.3,0.6-0.5,1.2-0.5,1.9c0,2,1.7,3.7,3.7,3.7c0,0,0,0,0,0h21.7c0,0,0,0,0,0c0,0,0.1,0,0.1,0c0,0,0,0.1,0,0.1
		c-1.5,6.1-0.5,12.9,3,18.6c2.8,4.7,6.9,8.4,11.6,10.6c-5.2,1.4-11.5,3.2-14.1,4.8c-1.9,1.2-3.3,3.1-4.1,5l1.3-14.3
		c0-0.1,0-0.2,0-0.3c0-2.2-1.8-3.9-3.9-3.9H12.4c-0.1,0-0.2,0-0.4,0c-1,0.1-2,0.6-2.7,1.4c-0.7,0.8-1,1.8-0.9,2.9l2,21.8
		c0.2,2,1.9,3.6,3.9,3.6h7.2h0c1.8,0,3.4-1.3,3.7-3.1c0.2,0.1,0.5,0.2,0.8,0.3c0.1,0,0.2,0,0.2,0c1,0,1.9-0.8,2-1.8
		c0.2-1.7,1.3-6.4,4.1-8.1c3-1.9,14.2-4.7,19.4-5.9c2.1,2.9,5.4,4.6,8.9,4.6c1.8,0,3.6-0.4,5.3-1.4c1.4-0.8,2.5-1.8,3.4-3
		c4.8,1.2,14.2,3.9,17.1,5.7c2.8,1.8,3.9,6.5,4.1,8.1c0.1,1,1,1.8,2,1.8c0.1,0,0.1,0,0.2,0C93.9,84.1,94.7,83.1,94.6,82z M29.7,33.8
		C29.7,33.8,29.7,33.8,29.7,33.8H8c-0.4,0-0.7-0.3-0.7-0.7c0-0.1,0-0.2,0.1-0.4L18.2,14c0.2-0.3,0.6-0.4,1-0.3
		c0.1,0.1,0.2,0.1,0.2,0.2l10.9,18.8c0.1,0.2,0.1,0.4,0.1,0.5s-0.1,0.3-0.3,0.4C29.9,33.8,29.8,33.8,29.7,33.8z M23.4,61.4l-0.6,6.1
		H13l-0.5-6.1H23.4z M64.1,68.2c-3.4,1.9-7.6,0.6-9.4-2.7c-0.3-0.5-0.7-0.8-1.3-1c-0.4-0.2-0.8-0.3-1.3-0.2c0,0,0,0,0,0
		c-6.2-0.7-12.3-4.9-15.8-10.8c-2.9-4.9-3.8-10.5-2.6-15.6c1-4.1,3.5-7.5,6.9-9.5c2.3-1.4,4.9-2,7.6-2c6.3,0,12.8,3.7,16.6,10.1
		c0,0,0,0,0,0c3.7,6.2,4.4,13.9,1.7,19.8c-0.3,0.6-0.2,1.3,0.1,1.8l0.1,0.2c0.1,0.1,0.2,0.3,0.2,0.4c0.9,1.6,1.1,3.5,0.6,5.3
		c-0.1,0.3-0.2,0.6-0.3,0.9c-0.3,0.3-0.5,0.6-0.6,1c0,0,0,0.1,0,0.1C65.8,66.9,65,67.6,64.1,68.2z"/>
	<path d="M79.4,58.8L78,58.1c-1-0.5-2.2-0.2-2.7,0.8c-0.5,1-0.2,2.2,0.8,2.7l7.6,4.1l3.7-7.5c0.5-1,0.1-2.2-0.9-2.7
		c-1-0.5-2.2-0.1-2.7,0.9l-0.6,1.3c-1-2.9-3-6.4-6.7-9.4c-0.8-0.7-2.1-0.6-2.8,0.3c-0.7,0.9-0.6,2.1,0.3,2.8
		C77,53.8,78.6,56.7,79.4,58.8z"/>
</g>
</svg>
