<?xml version="1.0" encoding="utf-8"?>
<!-- Generator: Adobe Illustrator 24.2.3, SVG Export Plug-In . SVG Version: 6.00 Build 0)  -->
<svg version="1.1" id="Layer_1" xmlns="http://www.w3.org/2000/svg" xmlns:xlink="http://www.w3.org/1999/xlink" x="0px" y="0px"
	 viewBox="0 0 100 100" style="enable-background:new 0 0 100 100;" xml:space="preserve">
<g>
	<path d="M63.8,50.5L58,35.2L44.4,62c-0.5,1-1.5,1.6-2.7,1.6h-0.3c-1.2-0.1-2.3-1-2.6-2.1l-4.1-14L32,54.7c-0.6,1.6-2.1,2.6-3.8,2.6
		h-6.6l28.1,31.8l28.9-32.7l3-3.4h-14C65.9,53.1,64.4,52.1,63.8,50.5z"/>
	<path d="M83.9,17.6L83.9,17.6c-8-9-20.9-9-28.9,0l-5.4,6.1l-5.3-6.1c-8-9-20.9-9-28.9,0l0,0c-8,9-8,23.7,0,32.7l2.6,3h10.2L32,43.2
		c0.4-1.2,1.6-2,2.9-2c1.3,0,2.4,0.9,2.8,2.2L42,57.9l13.5-26.5c0.8-1.5,2.6-2.1,4-1.3c0.7,0.3,1.2,0.9,1.4,1.6l6.6,17.4H85
		C91.9,40,91.5,26.2,83.9,17.6z"/>
</g>
</svg>
