<?xml version="1.0" encoding="utf-8"?>
<!-- Generator: Adobe Illustrator 24.0.0, SVG Export Plug-In . SVG Version: 6.00 Build 0)  -->
<svg version="1.1" id="Layer_1" xmlns="http://www.w3.org/2000/svg" xmlns:xlink="http://www.w3.org/1999/xlink" x="0px" y="0px"
	 viewBox="0 0 100 100" style="enable-background:new 0 0 100 100;" xml:space="preserve">
<path d="M64.1,23.4H39.5l-1.3-8.6c-0.2-1.1-1.2-1.8-2.3-1.7c-1.1,0.2-1.8,1.2-1.7,2.3l1.2,8.2c-3.1,0.8-5.3,3.7-5,7l4.7,52.8
	c0.3,3.5,3.2,6.1,6.6,6.1h17.5h0c3.5,0,6.3-2.6,6.6-6.1l4.8-52.8c0-0.2,0-0.4,0-0.6C70.8,26.4,67.8,23.4,64.1,23.4z M64.1,27.4
	c1.5,0,2.7,1.2,2.7,2.7c0,0.1,0,0.2,0,0.2l-1.3,14.8H42.7l-2.6-17.7H64.1z M61.5,76.4c0,2.9-2.3,5.2-5.2,5.2c-2.9,0-5.3-2.3-5.3-5.2
	c0-2.9,2.3-5.3,5.2-5.3C59.1,71.2,61.5,73.5,61.5,76.4C61.5,76.4,61.5,76.4,61.5,76.4z M36.1,27.6l2.6,17.5h-2.8l-1.3-14.8
	C34.4,29.1,35.1,28.1,36.1,27.6z"/>
</svg>
