<svg id="Layer_1" data-name="Layer 1" xmlns="http://www.w3.org/2000/svg" viewBox="0 0 100 100"><defs><style>.cls-1,.cls-2,.cls-3{fill:none;stroke:#000;}.cls-1,.cls-3{stroke-miterlimit:10;}.cls-1,.cls-2{stroke-width:4px;}.cls-2{stroke-linejoin:round;}.cls-3{stroke-width:4.03px;}</style></defs><path class="cls-1" d="M58.91,86H33.71a2.3,2.3,0,0,1-2.3-2.3V34.86a2.3,2.3,0,0,1,2.3-2.3H82.56a2.3,2.3,0,0,1,2.3,2.3V60Z"/><path class="cls-1" d="M58.91,78.35H41.37a2.3,2.3,0,0,1-2.3-2.3V42.52a2.3,2.3,0,0,1,2.3-2.3H74.9a2.3,2.3,0,0,1,2.3,2.3V60"/><path class="cls-2" d="M84.86,60H68.71a9.81,9.81,0,0,0-9.8,9.81V86Z"/><line class="cls-3" x1="45.14" y1="53.27" x2="57.83" y2="53.27"/><line class="cls-3" x1="51.49" y1="59.62" x2="51.49" y2="46.93"/><circle cx="65.2" cy="66.16" r="1.01"/><circle cx="69.17" cy="66.16" r="1.01"/><circle cx="73.13" cy="66.16" r="1.01"/><circle cx="65.2" cy="69.71" r="1.01"/><circle cx="69.17" cy="69.71" r="1.01"/><circle cx="65.2" cy="73.26" r="1.01"/><circle class="cls-2" cx="21.4" cy="21.92" r="14.61"/><path d="M12.35,27.71a1.26,1.26,0,0,1-.61-1.07A1.2,1.2,0,0,1,13,25.45a1.29,1.29,0,0,1,.68.2,3.47,3.47,0,0,0,1.9.53c1.46,0,2.25-1.1,2.42-2.7a3.65,3.65,0,0,1-2.42.81c-2.58,0-4.24-1.42-4.24-3.83v0a4.19,4.19,0,0,1,4.53-4.16,4.3,4.3,0,0,1,3.43,1.29c.85.85,1.41,2.14,1.41,4.49v0c0,3.86-1.81,6.49-5.19,6.49A5.68,5.68,0,0,1,12.35,27.71ZM18,20.35v0a1.85,1.85,0,0,0-2.09-1.82,1.79,1.79,0,0,0-2,1.8v0c0,1.05.78,1.78,2.07,1.78A1.8,1.8,0,0,0,18,20.35Z"/><path d="M22.76,17.14a1.29,1.29,0,1,1,2.58,0v3.4A3.24,3.24,0,0,1,28,19.08c1.95,0,3.09,1.29,3.09,3.38v4.71a1.29,1.29,0,0,1-2.58,0V23.28c0-1.23-.58-1.86-1.56-1.86s-1.62.63-1.62,1.86v3.89a1.29,1.29,0,0,1-2.58,0Z"/></svg>