<?xml version="1.0" encoding="utf-8"?>
<!-- Generator: Adobe Illustrator 24.0.0, SVG Export Plug-In . SVG Version: 6.00 Build 0)  -->
<svg version="1.1" id="Layer_1" xmlns="http://www.w3.org/2000/svg" xmlns:xlink="http://www.w3.org/1999/xlink" x="0px" y="0px"
	 viewBox="0 0 100 100" style="enable-background:new 0 0 100 100;" xml:space="preserve">
<g>
	<path d="M88,42.4C88,42.4,88,42.4,88,42.4l-6.8,0l-0.8,0l0-2.5c0,0,0,0,0,0h2.9v0c1.3,0,2.4-1.1,2.4-2.4v-7.3H71.7v7.3
		c0,1.3,1.1,2.4,2.4,2.4h2.2c0,0,0,0,0,0l0,2.4l-6.4,0l0,0.1l-0.8,0c-1.1,0-2,0.9-2,2c0,1.1,0.9,2,2,2c0,0,0,0,0,0l0.7,0l0,5.8
		c0,0,0,0,0,0c0,0,0,0,0,0l-0.1,20c0,1.2,0.8,2.1,1.9,2.4l1.1,4c0.3,1.1,1.3,1.8,2.4,1.8c0,0,0,0,0,0h1l0.2,9.5c0,1.1,0.9,2,2,2
		c0,0,0,0,0,0c1.1,0,2-0.9,2-2l-0.2-9.4h1c0,0,0,0,0,0c1.1,0,2.1-0.7,2.4-1.8l1.1-3.9c1.2-0.2,2.1-1.2,2.1-2.4L87,46.4l1,0
		c1.1,0,2-0.9,2-2C90,43.2,89.1,42.4,88,42.4z M75.7,34.2h5.9v1.7h-5.9V34.2z M76.4,46.4l0,3.8l-2.5,0l0-3.8L76.4,46.4z M82.9,70.7
		h-8.3l-0.7,0l0.1-16.5l9.1,0L82.9,70.7z M76.3,76.3l-0.5-1.7l4.7,0l-0.5,1.7H76.3z M83,46.4l0,3.8l-2.6,0l0-3.8l0.8,0L83,46.4z"/>
	<path d="M77.6,65.3c-0.7,0.5-0.9,1.5-0.4,2.2c0.5,0.7,1.5,0.8,2.2,0.3s0.9-1.5,0.4-2.2C79.3,64.9,78.3,64.8,77.6,65.3z"/>
	<path d="M79.6,58.9c0.7-0.5,0.9-1.5,0.4-2.2c-0.5-0.7-1.5-0.8-2.2-0.3c-0.7,0.5-0.9,1.5-0.4,2.2C77.9,59.3,78.8,59.5,79.6,58.9z"/>
	<path d="M79.5,63.3c0.7-0.5,0.9-1.5,0.4-2.2c-0.5-0.7-1.5-0.8-2.2-0.3s-0.9,1.5-0.4,2.2C77.8,63.7,78.8,63.8,79.5,63.3z"/>
	<path d="M25.8,41.9c8.7,0,15.8-7.1,15.8-15.8s-7.1-15.8-15.8-15.8S10,17.4,10,26.1S17.1,41.9,25.8,41.9z M37.6,26.1
		c0,2.5-0.8,4.8-2.1,6.7L19.1,16.4c1.9-1.3,4.2-2.1,6.7-2.1C32.3,14.3,37.6,19.6,37.6,26.1z M16.1,19.4l16.4,16.4
		c-1.9,1.3-4.2,2.1-6.7,2.1c-6.5,0-11.8-5.3-11.8-11.8C14,23.6,14.8,21.3,16.1,19.4z"/>
	<path d="M61.9,58.7c-0.5-0.1-1-0.2-1.5-0.1h-0.9c-1.5-2.1-3.7-3.5-6.2-4c-1.4-3.9-5.1-6.5-9.3-6.5c0,0,0,0,0,0
		c-1.2,0-2.4,0.2-3.5,0.6c-1.4-1.5-3.2-2.5-5.2-3c-2.6-0.6-5.3-0.1-7.5,1.3c-2.2,1.4-3.8,3.7-4.4,6.2c-2.9,0.7-5.3,2.6-6.6,5.3h-1.1
		c-3.5-0.1-6.4,2.7-6.5,6.2c0,0.5,0,1,0.1,1.5c1.9,8.3,8,15.1,16,18.6v0.6c0,1.7,0.7,3.4,1.9,4.6c1.2,1.2,2.9,1.9,4.6,1.9
		c0,0,0,0,0,0h12.6c3.6,0,6.5-2.9,6.5-6.5v-0.6c7.9-3.6,14-10.3,15.8-18.6c0.4-1.7,0.1-3.3-0.8-4.8S63.5,59.1,61.9,58.7z M25.3,57.1
		l1.8-0.1l0.1-1.8c0.1-1.9,1.2-3.7,2.8-4.7c1.4-0.9,3-1.1,4.5-0.8c1.6,0.3,2.9,1.3,3.8,2.6l1.1,1.7l1.7-1c0.9-0.6,2-0.9,3-0.9
		c0,0,0,0,0,0c2.8,0,5.2,2,5.8,4.8l0.3,1.5l1.5,0.1c0.4,0,0.7,0.1,1.1,0.2l-31.1,0C22.7,57.7,23.9,57.1,25.3,57.1z M44.4,88H31.8
		c0,0,0,0,0,0c-0.7,0-1.3-0.3-1.8-0.7c-0.2-0.2-0.4-0.5-0.6-0.8c2.7,0.8,5.6,1.2,8.6,1.2c3,0,5.9-0.4,8.7-1.2
		C46.3,87.3,45.4,88,44.4,88z M62.2,65.3C59.9,75.5,49.7,83,38,83c-11.7,0-21.8-7.4-24.2-17.7c0-0.1,0-0.3,0-0.4
		c0-0.9,0.8-1.6,1.7-1.6c0,0,0,0,0,0l44.9,0c0.1,0,0.3,0,0.4,0c0.4,0.1,0.8,0.4,1,0.7C62.2,64.4,62.2,64.9,62.2,65.3z"/>
</g>
</svg>
