<?xml version="1.0" encoding="utf-8"?>
<!-- Generator: Adobe Illustrator 24.0.0, SVG Export Plug-In . SVG Version: 6.00 Build 0)  -->
<svg version="1.1" id="Layer_1" xmlns="http://www.w3.org/2000/svg" xmlns:xlink="http://www.w3.org/1999/xlink" x="0px" y="0px"
	 viewBox="0 0 100 100" style="enable-background:new 0 0 100 100;" xml:space="preserve">
<g>
	<path d="M49.3,34.5c-3-0.6-6.5,0.5-10.8,3.4c-2.7,1.8-11.1,7.4-5.8,15.4c1.8,2.8,4.4,4.5,7.5,5.2c0.8,0.2,1.6,0.2,2.4,0.2
		c2.7,0,5.4-0.9,7.9-2.5c6.4-4.3,8.2-11.7,4.3-17.6C53.4,36.3,51.5,34.9,49.3,34.5z M48.4,50.2c0.4-0.3,1-0.2,1.3,0.3
		c0.3,0.4,0.2,1-0.3,1.3c-0.4,0.3-1,0.1-1.3-0.3C47.9,51.1,48,50.5,48.4,50.2z M45.1,51.7c-0.1,0-0.1,0.1-0.2,0.1v0
		c-0.8,0.4-1.9,0.1-2.3-0.8c-0.3-0.7-0.2-1.5,0.4-2c0.7-0.6,1.8-0.4,2.4,0.3S45.9,51.1,45.1,51.7z M40,40.2c3-2,5.5-3,7.6-3
		c0.4,0,0.8,0,1.1,0.1c1.5,0.3,2.7,1.2,3.8,2.9c0.5,0.8,0.9,1.6,1.2,2.5c-1.3,1.4-4,3.6-9.9,3.8c-5.1,0.2-7.4,3.9-8.1,6.2
		c-0.2-0.3-0.5-0.6-0.7-0.9C32.4,47.7,33.9,44.3,40,40.2z"/>
	<path d="M85.1,71.9c-4.4-2.8-17.5-6.3-22.2-7.6c1.1-3.2,1-6.8-0.7-10.1c3.3-8.3,2.2-18.9-2.8-27.3c-3.8-6.3-9.6-11-16.2-13.2
		c-6.7-2.2-13.6-1.5-19.3,1.9c-11.6,7-14.6,23.4-6.7,36.6c3.5,5.8,8.9,10.4,14.8,13c-5.9,1.6-14.6,4.2-18,6.4
		c-5.9,3.7-6.9,12.7-7,13.1c-0.1,1.1,0.7,2.1,1.8,2.2c0.1,0,0.2,0,0.2,0c1,0,1.9-0.8,2-1.8c0-0.1,0.9-7.5,5.1-10.2
		c4-2.5,17.8-6.3,22.7-7.5c0.2-0.1,0.4-0.1,0.6-0.2c0.3,0,0.5,0.1,0.8,0.1c1.9,2.7,4.8,4.4,7.8,5.1v6L46.3,77c-0.8-0.8-2-0.8-2.8,0
		c-0.8,0.8-0.8,2,0,2.8l6.6,6.7l6.7-6.7c0.8-0.8,0.8-2,0-2.8c-0.8-0.8-2-0.8-2.8,0l-1.9,1.9V73c1.8-0.2,3.6-0.8,5.3-1.8
		c1.4-0.9,2.6-2,3.6-3.2c5.5,1.4,18.2,4.9,22,7.3C87.1,78,88,85.4,88,85.5c0.1,1,1,1.8,2,1.8c0.1,0,0.1,0,0.2,0
		c1.1-0.1,1.9-1.1,1.8-2.2C91.9,84.7,90.9,75.7,85.1,71.9z M55.3,67.8c-4.2,2.5-9.7,1.2-12.2-3c-0.3-0.6-0.9-0.9-1.6-1
		c-8-0.4-16.2-5.7-20.9-13.4c-6.8-11.3-4.4-25.3,5.3-31.2c2.9-1.7,6.1-2.6,9.5-2.6c2.1,0,4.3,0.3,6.5,1c5.7,1.8,10.7,5.9,14,11.4
		c0,0,0,0,0,0c4.6,7.6,5.4,17.2,2.2,24.5c-0.2,0.5-0.2,1-0.1,1.4l0,0.2c0,0.1,0.1,0.3,0.2,0.4c1.2,2,1.6,4.4,1,6.7
		C58.8,64.6,57.3,66.6,55.3,67.8z"/>
	<circle cx="71.9" cy="52.4" r="1.4"/>
	<path d="M74,44c0,0.9,0.8,1.7,1.7,1.7c0.9,0,1.7-0.8,1.7-1.7c0-0.9-0.8-1.7-1.7-1.7C74.8,42.2,74,43,74,44z"/>
	<path d="M48.4,41.2c0.7,0,1.2-0.5,1.2-1.2c0-0.7-0.5-1.2-1.2-1.2c-0.7,0-1.2,0.5-1.2,1.2C47.2,40.7,47.7,41.2,48.4,41.2z"/>
	<path d="M68,40.5c1.4,0,2.6-1.2,2.6-2.6c0-1.4-1.2-2.6-2.6-2.6c-1.4,0-2.6,1.2-2.6,2.6C65.5,39.3,66.6,40.5,68,40.5z"/>
	<path d="M79.2,37c7.4,0,13.3-6,13.3-13.3c0-7.4-6-13.3-13.3-13.3c-7.4,0-13.3,6-13.3,13.3C65.8,31,71.8,37,79.2,37z M79.2,13.3
		c5.7,0,10.3,4.6,10.3,10.3c0,5.7-4.6,10.3-10.3,10.3c-5.7,0-10.3-4.6-10.3-10.3C68.8,18,73.4,13.3,79.2,13.3z"/>
	<path d="M79.3,22.5c-0.6,0-1-0.2-1.4-0.5c-0.1-0.1-0.3-0.2-0.5-0.2c-0.4,0-0.8,0.4-0.8,0.8c0,0.2,0.1,0.4,0.3,0.6
		c0.6,0.5,1.4,0.8,2.4,0.8c1.6,0,2.6-1,2.6-2.4v0c0-1.3-1-1.9-1.9-2l1.4-1.4c0.3-0.3,0.5-0.5,0.5-0.9c0-0.4-0.3-0.7-0.8-0.7h-3.5
		c-0.4,0-0.7,0.3-0.7,0.7c0,0.4,0.3,0.7,0.7,0.7h2.2l-1.4,1.4C78.1,19.6,78,19.8,78,20c0,0.4,0.3,0.7,0.7,0.7H79
		c0.9,0,1.4,0.3,1.4,0.9v0C80.4,22.1,79.9,22.5,79.3,22.5z"/>
	<path d="M73.8,28.8L73.8,28.8c0-0.7-0.6-0.9-1.1-1c-0.5-0.1-0.9-0.3-0.9-0.6v0c0-0.3,0.3-0.5,0.7-0.5c0.3,0,0.6,0.1,0.9,0.3
		c0,0,0.1,0,0.1,0c0.1,0,0.2-0.1,0.2-0.2c0-0.1-0.1-0.2-0.1-0.2c-0.3-0.2-0.8-0.3-1.1-0.3c-0.7,0-1.2,0.4-1.2,1v0
		c0,0.7,0.6,0.8,1.2,1c0.5,0.1,0.9,0.3,0.9,0.6v0c0,0.3-0.3,0.6-0.7,0.6c-0.4,0-0.8-0.1-1.1-0.4c0,0-0.1,0-0.1,0
		c-0.1,0-0.2,0.1-0.2,0.2c0,0.1,0,0.2,0.1,0.2c0.4,0.3,0.9,0.4,1.4,0.4C73.3,29.8,73.8,29.4,73.8,28.8z"/>
	<path d="M74.3,26.7h0.3v2.1c0,0.7,0.4,1,1,1c0.2,0,0.4,0,0.5-0.1c0.1,0,0.2-0.1,0.2-0.2c0-0.1-0.1-0.2-0.2-0.2c0,0-0.1,0-0.3,0
		c-0.4,0-0.6-0.2-0.6-0.6v-2.1H76c0.1,0,0.2-0.1,0.2-0.2c0-0.1-0.1-0.2-0.2-0.2h-0.9v-0.8c0-0.1-0.1-0.3-0.3-0.3
		c-0.2,0-0.3,0.1-0.3,0.3v0.8h-0.3c-0.1,0-0.2,0.1-0.2,0.2C74.1,26.5,74.2,26.7,74.3,26.7z"/>
	<path d="M78.3,29.8c0.6,0,1-0.2,1.3-0.5c0.1,0,0.1-0.1,0.1-0.2c0-0.1-0.1-0.2-0.2-0.2c-0.1,0-0.1,0-0.2,0.1c-0.3,0.2-0.6,0.4-1,0.4
		c-0.6,0-1.2-0.4-1.3-1.2h2.6c0.1,0,0.2-0.1,0.2-0.2c0-0.9-0.6-1.8-1.7-1.8c-1,0-1.7,0.8-1.7,1.9v0C76.5,29.1,77.3,29.8,78.3,29.8z
		 M78.2,26.6c0.7,0,1.1,0.6,1.1,1.2h-2.3C77.1,27.1,77.6,26.6,78.2,26.6z"/>
	<path d="M81,26.9v-0.5c0-0.2-0.1-0.3-0.3-0.3c-0.1,0-0.3,0.1-0.3,0.3v4.2c0,0.2,0.1,0.3,0.3,0.3s0.3-0.1,0.3-0.3v-1.5
		c0.3,0.4,0.7,0.8,1.4,0.8c0.9,0,1.7-0.7,1.7-1.9v0c0-1.2-0.8-1.8-1.7-1.8C81.7,26.1,81.3,26.5,81,26.9z M82.3,26.6
		c0.7,0,1.3,0.5,1.3,1.4v0c0,0.9-0.6,1.4-1.3,1.4c-0.7,0-1.3-0.5-1.3-1.4v0C81,27.1,81.6,26.6,82.3,26.6z"/>
	<path d="M85.9,29.8c0.7,0,1.3-0.4,1.3-1.1v0c0-0.6-0.6-0.9-1.1-1c-0.5-0.1-0.9-0.3-0.9-0.6v0c0-0.3,0.3-0.5,0.7-0.5
		c0.3,0,0.6,0.1,0.9,0.3c0,0,0.1,0,0.1,0c0.1,0,0.2-0.1,0.2-0.2c0-0.1-0.1-0.2-0.1-0.2c-0.3-0.2-0.8-0.3-1.1-0.3
		c-0.7,0-1.2,0.4-1.2,1v0c0,0.7,0.6,0.8,1.2,1c0.5,0.1,0.9,0.3,0.9,0.6v0c0,0.3-0.3,0.6-0.7,0.6c-0.4,0-0.8-0.1-1.1-0.4
		c0,0-0.1,0-0.1,0c-0.1,0-0.2,0.1-0.2,0.2c0,0.1,0,0.2,0.1,0.2C84.9,29.6,85.4,29.8,85.9,29.8z"/>
</g>
</svg>
