<?xml version="1.0" encoding="utf-8"?>
<!-- Generator: Adobe Illustrator 24.2.3, SVG Export Plug-In . SVG Version: 6.00 Build 0)  -->
<svg version="1.1" id="Layer_1" xmlns="http://www.w3.org/2000/svg" xmlns:xlink="http://www.w3.org/1999/xlink" x="0px" y="0px"
	 viewBox="0 0 100 100" style="enable-background:new 0 0 100 100;" xml:space="preserve">
<g>
	<circle cx="50.9" cy="19.9" r="1.5"/>
	<circle cx="45" cy="25.4" r="1.5"/>
	<circle cx="56.8" cy="25.4" r="1.5"/>
	<circle cx="54.2" cy="34" r="1.5"/>
	<circle cx="46.6" cy="34" r="1.5"/>
	<circle cx="50.7" cy="26.9" r="1.5"/>
	<circle cx="40.4" cy="30.3" r="1.5"/>
	<circle cx="61.6" cy="31.2" r="1.5"/>
	<path d="M82,49.7c-0.5-0.1-1-0.2-1.5-0.2h-5.6c-3.8-6.8-13.2-11.3-24-11.3c-10.7,0-20.2,4.5-24,11.3h-6.1c-1.9,0-3.8,0.7-5.2,2.1
		c-1.4,1.4-2.2,3.2-2.2,5.2c0,0.5,0,1.1,0.2,1.6c2.4,10.8,10.4,19.6,20.9,24.2v1.6c0,4.4,3.6,8,8,8H59c4.4,0,8-3.6,8-8v-1.7
		C77.4,78,85.3,69.2,87.7,58.4C88.5,54.4,86,50.5,82,49.7z M50.8,42.2c8.1,0,15.4,2.9,19.2,7.3H31.6C35.4,45.1,42.8,42.2,50.8,42.2z
		 M63,84.3c0,2.2-1.8,4-4,4H42.2c-2.2,0-4-1.8-4-4v-0.1c3.9,1.2,8,1.9,12.3,1.9c4.3,0,8.5-0.7,12.5-1.9V84.3z M83.8,57.6
		C80.6,71.7,66.6,82,50.5,82c-16.1,0-30.1-10.3-33.3-24.4c-0.1-0.2-0.1-0.5-0.1-0.7c0-1.8,1.5-3.3,3.4-3.3c0,0,0,0,0,0h59.9
		c0.2,0,0.5,0,0.7,0.1c0.9,0.2,1.6,0.7,2.1,1.5C83.8,55.8,84,56.7,83.8,57.6z"/>
	<path d="M36.2,29.8l-7.4-5.7c-3-2.3-3.7-6.7-1.4-9.7l0.3-0.4c2.4-3,6.8-3.5,9.8-1.2l7.4,5.7L36.2,29.8z M33.2,15.3
		c-0.9,0-1.8,0.4-2.3,1.1l-0.3,0.3c-0.9,1.3-0.7,3.2,0.6,4.1l4.2,3.3l3.8-5L35.1,16C34.6,15.5,33.9,15.3,33.2,15.3z"/>
	<path d="M73.1,14.1l-0.3-0.4c-2.4-3-6.8-3.5-9.8-1.2l-7.4,5.7l8.7,11.3l7.4-5.7C74.7,21.6,75.4,17.2,73.1,14.1z"/>
</g>
</svg>
