<?xml version="1.0" encoding="utf-8"?>
<!-- Generator: Adobe Illustrator 24.0.0, SVG Export Plug-In . SVG Version: 6.00 Build 0)  -->
<svg version="1.1" id="Layer_1" xmlns="http://www.w3.org/2000/svg" xmlns:xlink="http://www.w3.org/1999/xlink" x="0px" y="0px"
	 viewBox="0 0 100 100" style="enable-background:new 0 0 100 100;" xml:space="preserve">
<g>
	<path d="M92,44l-0.1-2.4l0,0c-0.4-6.8-1.6-10.7-2.4-13.7c-0.6-2.2-1.1-3.7-1.1-5.7c0.1-3.7,0.9-7.3,2.3-10.7c0.4-1-0.1-2.2-1.1-2.6
		c-1-0.4-2.2,0.1-2.6,1.1c-1.6,3.8-2.5,7.9-2.6,12.1c0,2.6,0.6,4.5,1.3,6.9c0.9,3,1.9,6.7,2.3,13.4C82,43.7,61,48,49.2,48
		c-11.6,0-32.1-4.3-37.9-5.6c0.1-1.9,0.3-3.9,0.8-5.8c0.3-0.9,0.5-1.9,0.8-2.8c2.8,2.7,6.7,4.4,10.9,4.4c8.7,0,15.8-7.1,15.8-15.8
		S32.5,6.8,23.8,6.8S8,13.8,8,22.5c0,2.5,0.6,4.9,1.7,7c0,0.1-0.1,0.2-0.1,0.2c-0.3,1.9-0.8,3.9-1.4,5.7l0,0.1
		c-0.5,1.9-0.8,3.9-0.9,5.9l0,0l0,0.2c0,0.2,0,0.4,0,0.6L7.2,44C7,50.9,8.7,67.8,12.5,94.3l0.2,1.7h34l3.8-9.6l4.2,9.6h31.8l0.2-1.7
		c0.5-3.4,0.9-6.6,1.3-9.6c2.7-19.8,4-32.7,4-39.3C92,44.9,92,44.4,92,44z M35.5,22.5c0,2.5-0.8,4.8-2.1,6.7L17,12.9
		c1.9-1.3,4.2-2.1,6.7-2.1C30.3,10.8,35.5,16,35.5,22.5z M14.1,15.8l16.4,16.4c-1.9,1.3-4.2,2.1-6.7,2.1C17.3,34.3,12,29,12,22.5
		C12,20,12.8,17.7,14.1,15.8z"/>
	<path d="M59.3,31.7C59.3,31.7,59.3,31.7,59.3,31.7l15.4,0c2.4,0,4.7-1,6.4-2.7c1.7-1.7,2.7-4,2.6-6.4l0-4.4c0-2.4-1-4.7-2.7-6.4
		c-1.7-1.7-4-2.6-6.4-2.6c0,0,0,0,0,0l-15.4,0c-2.4,0-4.7,1-6.4,2.7c-1.7,1.7-2.7,4-2.6,6.4l0,4.4C50.2,27.7,54.3,31.7,59.3,31.7z"
		/>
</g>
</svg>
