<svg id="Layer_1" data-name="Layer 1" xmlns="http://www.w3.org/2000/svg" viewBox="0 0 100 100"><defs><style>.cls-1{fill:none;stroke:#000;stroke-miterlimit:10;stroke-width:4px;}</style></defs><path class="cls-1" d="M81.14,88.41h-14A3.74,3.74,0,0,1,63.36,85L59.55,42.5a3.75,3.75,0,0,1,3.74-4.09H85a3.75,3.75,0,0,1,3.73,4.09L84.88,85A3.76,3.76,0,0,1,81.14,88.41Z"/><path d="M17.94,80.13q-1.83,4.26-3.68,8.52c-.33.77-.83,1.18-1.46,1.07a2.19,2.19,0,0,1-2-1.26A1.7,1.7,0,0,1,11,87.27c1.59-3.25,3.22-6.48,4.84-9.72l3.61-7.23a1.36,1.36,0,0,0,0-1.45,7.48,7.48,0,0,1-.88-6.43A10.14,10.14,0,0,1,23,56a4.52,4.52,0,0,1,7.27,2.87,9.83,9.83,0,0,1-1.22,7,8.81,8.81,0,0,1-3.64,3.74,8.8,8.8,0,0,1-2.31.75,1.74,1.74,0,0,0-1.43,1.09Q19.82,75.83,17.94,80.13Z"/><path d="M49.47,79.6q-2.19-4.08-4.37-8.18a1.52,1.52,0,0,0-1.89-1,4.43,4.43,0,0,1-4.18-2,26.41,26.41,0,0,1-4.65-8.52,1.68,1.68,0,0,1,.23-1.65c.37-.45.61-.44.92,0,.59.92,1.17,1.84,1.75,2.77.68,1.09,1.35,2.2,2,3.29a2.36,2.36,0,0,0,.72.72.56.56,0,0,0,.9-.51,1.92,1.92,0,0,0-.23-.88c-1-2.06-2.12-4.11-3.18-6.16-.32-.61-.24-.93.33-1.26s.92-.26,1.3.35c1.22,2,2.43,3.89,3.67,5.82a2,2,0,0,0,.63.65.58.58,0,0,0,.94-.53,2.37,2.37,0,0,0-.29-1c-1.06-2.06-2.14-4.1-3.21-6.15-.38-.73-.17-1.11.64-1a2.4,2.4,0,0,1,1.25.65,18.25,18.25,0,0,1,3.45,5A33,33,0,0,1,48,64.22a3.93,3.93,0,0,1-.74,4,1.48,1.48,0,0,0,0,1.86q4.59,7.5,9.16,15c.26.42.52.84.76,1.27a1.37,1.37,0,0,1-.34,1.81,4.08,4.08,0,0,1-1,.6A1.35,1.35,0,0,1,54,88c-1-1.79-1.93-3.6-2.91-5.38-.55-1-1.13-2-1.7-3Z"/><circle class="cls-1" cx="31.59" cy="60.66" r="19.86"/><polygon points="67.24 68.13 67.24 66.33 65.7 68.13 67.24 68.13"/><path d="M74.87,67a1.13,1.13,0,0,0-1.15,1.21v0a1.18,1.18,0,0,0,1.17,1.22A1.13,1.13,0,0,0,76,68.22h0A1.19,1.19,0,0,0,74.87,67Z"/><path d="M61.29,55.63l2.54,28.26A3.44,3.44,0,0,0,67.26,87H80.17a3.45,3.45,0,0,0,3.44-3.14l2.53-28.26Zm7.47,13.54h-.3v.69a.61.61,0,0,1-.62.6.59.59,0,0,1-.6-.6v-.69H64.86a.6.6,0,0,1-.62-.59,1,1,0,0,1,.29-.7L67.05,65a.93.93,0,0,1,.79-.43.61.61,0,0,1,.62.6v3h.3a.52.52,0,1,1,0,1Zm8.52-1a2.33,2.33,0,0,1-2.41,2.3,2.3,2.3,0,0,1-2.39-2.29h0a2.4,2.4,0,0,1,4.8,0Zm4.5-1.7a.81.81,0,0,1-.28.61L79.43,69.4h1.84a.51.51,0,0,1,0,1H78.43a.55.55,0,0,1-.61-.51v0a.88.88,0,0,1,.28-.62L80.16,67H78.41a.51.51,0,0,1,0-1h2.76a.55.55,0,0,1,.61.5Zm1.52,3.95a.69.69,0,0,1-.72-.7v0a.72.72,0,0,1,1.44,0v0A.69.69,0,0,1,83.3,70.46Z"/></svg>