<svg id="Layer_1" data-name="Layer 1" xmlns="http://www.w3.org/2000/svg" viewBox="0 0 100 100"><path d="M18.81,47.35l-2.55,2.88-1.88-30.4a2.57,2.57,0,0,0-.06-.4A2,2,0,0,0,12.26,18a2,2,0,0,0-.77.2,2.12,2.12,0,0,0-.6.47,2,2,0,0,0-.5,1.45l1.88,30.34L9.46,47.93a2,2,0,0,0-2.65,3l6.44,5.71.08-.09h0l-.08.09L14.75,58l1.33-1.5-.1-.09h0l.1.09L21.8,50a2,2,0,0,0-3-2.65Z"/><path d="M59.48,24.77l2.42-2.86L64.36,52.2a1.77,1.77,0,0,0,.08.4,2,2,0,0,0,.94,1.18,1.91,1.91,0,0,0,1.14.25,1.76,1.76,0,0,0,.4-.07A2,2,0,0,0,68.1,53a2,2,0,0,0,.25-1.14L65.89,21.53,68.81,24A2,2,0,0,0,71.4,21l-6.58-5.58-.08.1h0l.08-.1-1.53-1.3L62,15.61l.08.07h0L62,15.61l-5.57,6.57a2,2,0,0,0,3,2.59Z"/><path d="M78,75.12a7.3,7.3,0,0,0-.25-1.05s0,0,0,0a8,8,0,0,0-.39-1l-.09-.19a6.15,6.15,0,0,0-.55-.93v0a7.71,7.71,0,0,0-.67-.84l-.09-.1a8.54,8.54,0,0,0-1.76-1.4l-.05,0a9.11,9.11,0,0,0-1-.51h0a9.17,9.17,0,0,0-.55-.83l-.05-.06a7.84,7.84,0,0,0-1.4-1.42L71,66.68c-.23-.17-.46-.33-.71-.48l-.15-.1a7.91,7.91,0,0,0-1.77-.75,2.1,2.1,0,0,0-.24-.06,5.93,5.93,0,0,0-.73-.16l-.27,0a8,8,0,0,0-1-.06H56.35l-.87-10.26L54.64,45h0a.13.13,0,0,1,0-.06c0-.25-.06-.49-.11-.73a3,3,0,0,0-.1-.43c0-.12-.05-.23-.08-.35s-.14-.39-.21-.58l-.06-.16a6.65,6.65,0,0,0-.32-.66.08.08,0,0,0,0,0,7.87,7.87,0,0,0-2-2.41l-.43-10.58-.41-10.08h0A8.08,8.08,0,0,0,50.8,18a8.37,8.37,0,0,0-.21-1,8.6,8.6,0,0,0-.87-2.12,8.26,8.26,0,0,0-.95-1.33,8.67,8.67,0,0,0-6.57-3H38.09A8.68,8.68,0,0,0,30,16.07a6.18,6.18,0,0,0-.27.83,8.33,8.33,0,0,0-.3,1.74c0,.3,0,.61,0,.91l2.14-.08h0l-2.14.08h0l.32,7.9h0a6.28,6.28,0,0,0-.59.27l-.4.21q-.29.16-.57.36c-.11.07-.22.16-.33.24s-.32.25-.48.39l-.31.3c-.15.15-.3.31-.44.48a2.43,2.43,0,0,0-.2.25,5.67,5.67,0,0,0-.45.64,2.39,2.39,0,0,0-.13.21,7.46,7.46,0,0,0-.4.8l-.08.2a7.11,7.11,0,0,0-.29.89,1.16,1.16,0,0,0,0,.18,6.74,6.74,0,0,0-.17,1,.57.57,0,0,1,0,.13,7,7,0,0,0,0,1.12h0l2.78,47h0a8,8,0,0,0,.23,1.49,7.33,7.33,0,0,0,.5,1.38,7.67,7.67,0,0,0,.74,1.24,5,5,0,0,0,.45.56,7.75,7.75,0,0,0,5.82,2.64H58.44v-.13h7.7a7.77,7.77,0,0,0,1-.07l.28,0c.24,0,.48-.09.71-.15l.24-.06a7.72,7.72,0,0,0,1.77-.75l.13-.08A7,7,0,0,0,71,87.7l.08,0a8.31,8.31,0,0,0,2-2.27h0a8.13,8.13,0,0,0,1.07-.52h0a8.1,8.1,0,0,0,1.81-1.43l.07-.08a7.11,7.11,0,0,0,.69-.85v0a8,8,0,0,0,.56-.94c0-.06,0-.12.08-.17a8.93,8.93,0,0,0,.39-1s0,0,0-.05a7.3,7.3,0,0,0,.25-1c0-.09,0-.17,0-.25a8.29,8.29,0,0,0,.08-1.11V76.48A8.05,8.05,0,0,0,78,75.37C78,75.29,78,75.2,78,75.12ZM53.51,45l-.81.07h-.06ZM34.24,17.58A4.18,4.18,0,0,1,38.09,15H42.2a4.22,4.22,0,0,1,2.31.68,4.85,4.85,0,0,1,.61.49A4.17,4.17,0,0,1,46.41,19h0v.14l-12.5,0A4.28,4.28,0,0,1,34.24,17.58Zm3.07,10.93h0a8.39,8.39,0,0,0-.91-.6l-.3-.15c-.21-.11-.43-.21-.65-.3l-.33-.13a6.1,6.1,0,0,0-.9-.26l-.14-3.38,12.52,0,.13,3.17L47.1,36,44,33.64l-6.72-5.13Z"/><path d="M93.62,76.62a2,2,0,0,0-1.76-1.06H84.42a2,2,0,0,0-2,2,2,2,0,0,0,.89,1.65,1.93,1.93,0,0,0,1.11.35h7.44A2,2,0,0,0,93,79.21a1.85,1.85,0,0,0,.54-.54,1.94,1.94,0,0,0,.34-1.11A2,2,0,0,0,93.62,76.62Z"/><path d="M90,85.89a2,2,0,0,0-.6-.53l-6.44-3.72a2,2,0,0,0-1.51-.2,1.94,1.94,0,0,0-.69.34,2,2,0,0,0-.53.6,2,2,0,0,0-.1,1.77,2,2,0,0,0,.83,1l6.44,3.72a2,2,0,0,0,2.5-.41,1.57,1.57,0,0,0,.24-.32A2,2,0,0,0,90,85.89Z"/><path d="M80.43,73.07a2,2,0,0,0,2.49.4l6.44-3.72a2,2,0,0,0,.94-1.22A2,2,0,0,0,90.1,67a2,2,0,0,0-.53-.6,2,2,0,0,0-2.21-.14L80.92,70a1.89,1.89,0,0,0-.59.53,1.38,1.38,0,0,0-.2.33,2,2,0,0,0,.3,2.21Z"/></svg>