<svg id="Layer_1" data-name="Layer 1" xmlns="http://www.w3.org/2000/svg" viewBox="0 0 100 100"><defs><style>.cls-1{fill:none;stroke:#000;stroke-miterlimit:10;stroke-width:4px;}</style></defs><circle class="cls-1" cx="24.62" cy="24.96" r="13.77"/><path d="M16.45,13.88a14.18,14.18,0,0,0-2.92,2.92L32.78,36.05a13.7,13.7,0,0,0,2.92-2.92Z"/><path d="M88.33,41.13,85,33.24h0v-10a4.62,4.62,0,0,0-4.62-4.62H46.79a4.62,4.62,0,0,0-4.62,4.62v10L39.1,41.3A13.1,13.1,0,0,0,38.23,46V85.54a4.53,4.53,0,0,0,4.53,4.54H84.82a4.54,4.54,0,0,0,4.54-4.54V46.23A13.13,13.13,0,0,0,88.33,41.13ZM82.9,74.62a4.53,4.53,0,0,1-4.53,4.53H49.22a4.53,4.53,0,0,1-4.53-4.53v-22A4.53,4.53,0,0,1,49.22,48H78.37a4.53,4.53,0,0,1,4.53,4.54Z"/><path d="M45.1,63.65h0A2.84,2.84,0,0,1,48,60.74a3,3,0,0,1,1.87.57.61.61,0,0,1-.37,1.09.66.66,0,0,1-.36-.12,1.85,1.85,0,0,0-1.15-.4,1.66,1.66,0,0,0-1.62,1.74v0A1.65,1.65,0,0,0,48,65.39,1.8,1.8,0,0,0,49.23,65a.55.55,0,0,1,.37-.13.57.57,0,0,1,.36,1,2.79,2.79,0,0,1-2,.7A2.83,2.83,0,0,1,45.1,63.65Z"/><path d="M51.11,61.12c0-.35.3-.56.68-.56s.68.21.68.56v0a.69.69,0,0,1-1.36,0Zm.07,1.59a.61.61,0,0,1,1.22,0v3.16a.61.61,0,0,1-1.22,0Z"/><path d="M53.43,66a.49.49,0,0,1-.23-.42.49.49,0,0,1,.72-.42,2.22,2.22,0,0,0,1.16.39c.35,0,.51-.13.51-.32v0c0-.26-.42-.35-.89-.49s-1.28-.46-1.28-1.29v0A1.41,1.41,0,0,1,55,62.08a3,3,0,0,1,1.33.33.5.5,0,0,1,.28.46.47.47,0,0,1-.48.48.46.46,0,0,1-.23-.06A2.22,2.22,0,0,0,55,63c-.29,0-.44.13-.44.3h0c0,.24.4.35.87.51s1.29.49,1.29,1.27v0c0,1-.71,1.38-1.64,1.38A3,3,0,0,1,53.43,66Z"/><path d="M57.3,65.2h0c0-.94.71-1.37,1.73-1.37a3,3,0,0,1,1,.18v-.08c0-.5-.32-.78-.92-.78a2.82,2.82,0,0,0-.84.12l-.18,0a.49.49,0,0,1-.5-.49.51.51,0,0,1,.33-.48,3.79,3.79,0,0,1,1.36-.22,2,2,0,0,1,1.45.48A1.87,1.87,0,0,1,61.24,64v2a.58.58,0,0,1-.59.58.54.54,0,0,1-.58-.5h0a1.66,1.66,0,0,1-1.3.54A1.33,1.33,0,0,1,57.3,65.2Zm2.79-.28v-.21a1.82,1.82,0,0,0-.77-.16c-.52,0-.84.21-.84.59h0c0,.33.27.52.66.52C59.71,65.67,60.09,65.36,60.09,64.92Z"/><path d="M62.29,62.71a.61.61,0,0,1,.61-.61.61.61,0,0,1,.61.61v0a1.55,1.55,0,0,1,1.33-.69,2,2,0,0,1,2,2.21v0a2,2,0,0,1-2,2.21,1.63,1.63,0,0,1-1.33-.64v1.28a.61.61,0,0,1-.61.61.61.61,0,0,1-.61-.61Zm3.29,1.59v0a1.05,1.05,0,1,0-2.09,0v0a1.05,1.05,0,1,0,2.09,0Z"/><path d="M67.69,62.71a.61.61,0,0,1,.61-.61.61.61,0,0,1,.61.61v.19c.18-.42.46-.8.82-.8a.55.55,0,0,1,.59.59.56.56,0,0,1-.45.57c-.62.14-1,.62-1,1.48v1.13a.61.61,0,0,1-.61.61.61.61,0,0,1-.61-.61Z"/><path d="M71,61.12c0-.35.3-.56.68-.56s.68.21.68.56v0a.69.69,0,0,1-1.36,0Zm.07,1.59a.61.61,0,0,1,.61-.61.61.61,0,0,1,.61.61v3.16a.61.61,0,0,1-.61.61.61.61,0,0,1-.61-.61Z"/><path d="M77.76,65.87a.61.61,0,1,1-1.21,0v-.05a1.59,1.59,0,0,1-1.34.69,2,2,0,0,1-1.95-2.21v0a2,2,0,0,1,1.95-2.21,1.64,1.64,0,0,1,1.34.64V61.16a.61.61,0,1,1,1.21,0Zm-3.28-1.59v0a1,1,0,1,0,2.08,0v0a1,1,0,1,0-2.08,0Z"/><path d="M80.88,66.53a2.14,2.14,0,0,1-2.23-2.22h0a2.13,2.13,0,0,1,2.11-2.23,2,2,0,0,1,2.07,2.06.56.56,0,0,1-.57.59H79.85a1,1,0,0,0,1.05.83,1.39,1.39,0,0,0,.86-.28.44.44,0,0,1,.3-.1.47.47,0,0,1,.47.48.47.47,0,0,1-.16.36A2.2,2.2,0,0,1,80.88,66.53ZM81.67,64a.92.92,0,0,0-.91-.92c-.5,0-.83.36-.92.92Z"/></svg>