<svg id="Layer_1" data-name="Layer 1" xmlns="http://www.w3.org/2000/svg" viewBox="0 0 100 100"><defs><style>.cls-1,.cls-2{fill:none;stroke:#000;stroke-miterlimit:10;}.cls-1{stroke-width:3px;}.cls-2{stroke-width:4px;}</style></defs><path d="M51.4,93.22a38.55,38.55,0,0,1-22.65-6.9L28,85.81v-3.1a7.29,7.29,0,0,1,6.37-7.22,146.29,146.29,0,0,1,16.89-1.25A153.4,153.4,0,0,1,68.36,75.5h0a7.3,7.3,0,0,1,6.4,7.23v3.09l-.72.51A38.6,38.6,0,0,1,51.4,93.22ZM31.47,84A35.37,35.37,0,0,0,51.4,89.78,35.4,35.4,0,0,0,71.32,84v-1.3a3.84,3.84,0,0,0-3.38-3.81,147.06,147.06,0,0,0-16.65-1.24,142.29,142.29,0,0,0-16.46,1.23,3.83,3.83,0,0,0-3.36,3.8Z"/><g id="_193" data-name="193"><path class="cls-1" d="M23.29,9.88a2.19,2.19,0,0,1,3.8,0l5.43,9.39,5.42,9.4A2.2,2.2,0,0,1,36,32H14.34a2.2,2.2,0,0,1-1.9-3.3l5.42-9.4Z"/><path d="M23.56,14.39a.78.78,0,0,1,.77-.94h1.58a.8.8,0,0,1,.79.94l-.77,9a.8.8,0,0,1-.81.79.78.78,0,0,1-.79-.79Zm1.56,11.37a1.5,1.5,0,0,1,1.56,1.51v.22a1.56,1.56,0,0,1-3.12,0v-.22A1.51,1.51,0,0,1,25.12,25.76Z"/></g><path class="cls-2" d="M17.19,60.14c0-18.89,15.31-23.75,34.21-23.75s34.2,4.86,34.2,23.75S70.29,91.5,51.4,91.5,17.19,79,17.19,60.14Z"/><path class="cls-2" d="M51.4,36.39c-10.12,0-19.21,1.4-25.48,5.6v.35l.08,2c.31,4.64,3.42,8.21,7.15,8.21H68.86c3.53,0,6.53-3.2,7.09-7.54L76.23,42l0-.36C70,37.7,61.19,36.39,51.4,36.39Z"/><line class="cls-2" x1="37.48" y1="38.14" x2="38.11" y2="52.18"/><line class="cls-2" x1="51.05" y1="52.49" x2="50.9" y2="36.64"/><line class="cls-2" x1="64.04" y1="38.05" x2="63.73" y2="52.57"/><path d="M85,66.58c.08-.36-.28-1.49-1.56-3C81.31,61.09,72.62,51.31,50,52.18c-7.73.3-24.09,4.79-30.95,13-.83,1-1.07,1.67-1,2A29.45,29.45,0,0,0,29.44,84.37V82.69a5.62,5.62,0,0,1,4.94-5.59,147.52,147.52,0,0,1,16.73-1.26,9.56,9.56,0,0,1-3.9-2.62l-.41-.46,6-2.44-1.07-4.65,4.58-1.62-.12-6.82.55.13A9.67,9.67,0,0,1,57.12,76c4.09.25,8.21.69,11.27,1.07a5.63,5.63,0,0,1,5,5.59v1.7A29.45,29.45,0,0,0,85,66.58Zm-37.2,1.65-5.24,4.42-.27-.15a9.76,9.76,0,0,1-2.74-2.39c-.28-.37-.5-.69-.7-1a9.68,9.68,0,0,1,3.35-13.27l.75-.4a9.62,9.62,0,0,1,3.5-.93l.33,0,2.34,6.83-3.74,2.86Z"/><rect x="49.5" y="76.14" width="3.44" height="15.44"/><rect x="37.41" y="77.28" width="3.44" height="12.01"/><rect x="61.69" y="76.71" width="3.44" height="12.86"/></svg>