<?xml version="1.0" encoding="utf-8"?>
<!-- Generator: Adobe Illustrator 24.0.0, SVG Export Plug-In . SVG Version: 6.00 Build 0)  -->
<svg version="1.1" id="Layer_1" xmlns="http://www.w3.org/2000/svg" xmlns:xlink="http://www.w3.org/1999/xlink" x="0px" y="0px"
	 viewBox="0 0 100 100" style="enable-background:new 0 0 100 100;" xml:space="preserve">
<g>
	<path d="M30.8,61.6c-0.7-0.2-1.3-0.4-1.3-0.8c0-0.2,0.2-0.5,0.7-0.5c0.5,0,1,0.2,1.4,0.4c0.1,0.1,0.2,0.1,0.3,0.1
		c0.4,0,0.7-0.3,0.7-0.7c0-0.3-0.2-0.6-0.4-0.7c-0.6-0.3-1.3-0.5-2-0.5c-0.1,0-0.1,0-0.2,0c-1.2,0-2.1,0.9-2.2,2
		c0,1.2,1,1.7,1.9,1.9c0.7,0.2,1.3,0.3,1.3,0.7c0,0.3-0.2,0.5-0.8,0.5c-0.6,0-1.2-0.2-1.7-0.6c-0.1-0.1-0.2-0.1-0.4-0.1
		c-0.3,0-0.5,0.1-0.6,0.4c-0.2,0.3-0.1,0.8,0.3,1c0.7,0.5,1.6,0.8,2.4,0.8c1.4,0,2.5-0.6,2.5-2.1C32.7,62.3,31.7,61.9,30.8,61.6z"/>
	<path d="M37.8,58.9c-0.8,0-1.5,0.3-2,1v-0.1c0-0.5-0.4-0.9-0.9-0.9c-0.5,0-0.9,0.4-0.9,0.9v6.6c0,0.5,0.4,0.9,0.9,0.9
		c0.5,0,0.9-0.4,0.9-0.9v-1.9c0.5,0.6,1.2,1,2,1c0.1,0,0.2,0,0.2,0c1.6-0.2,2.8-1.6,2.7-3.3c0-0.1,0-0.2,0-0.2
		C40.8,60.3,39.5,58.9,37.8,58.9z M38.9,62.2c0,0.1,0,0.3,0,0.4c-0.1,0.9-0.9,1.5-1.8,1.3c-0.9-0.1-1.5-0.9-1.3-1.8
		c0-0.1,0-0.3,0-0.4c0.1-0.9,0.9-1.5,1.8-1.3C38.4,60.5,39,61.3,38.9,62.2z"/>
	<path d="M43,56.6c-0.6,0-1,0.3-1,0.8c0,0.6,0.4,1,1,1c0.6,0,1-0.4,1-1c0,0,0,0,0-0.1C44,56.9,43.5,56.5,43,56.6z"/>
	<path d="M43.1,58.9c-0.5,0-0.9,0.4-0.9,0.9v4.7c0,0.5,0.4,0.9,0.9,0.9c0.5,0,0.9-0.4,0.9-0.9v-4.7C44,59.3,43.6,58.9,43.1,58.9z"/>
	<path d="M48.7,58.9c-0.5,0-1,0.6-1.2,1.2v-0.3c0-0.5-0.4-0.9-0.9-0.9c-0.5,0-0.9,0.4-0.9,0.9v4.7c0,0.5,0.4,0.9,0.9,0.9
		c0.5,0,0.9-0.4,0.9-0.9v-1.7c0-1.3,0.5-2,1.4-2.2c0.4-0.1,0.7-0.4,0.7-0.8c0,0,0-0.1,0-0.1C49.6,59.2,49.2,58.9,48.7,58.9z"/>
	<path d="M51.7,58.9c-0.5,0-0.9,0.4-0.9,0.9v4.7c0,0.5,0.4,0.9,0.9,0.9c0.5,0,0.9-0.4,0.9-0.9v-4.7C52.6,59.3,52.2,58.9,51.7,58.9z"
		/>
	<path d="M51.7,56.6C51.7,56.6,51.6,56.6,51.7,56.6c-0.6,0-1,0.4-1,0.8c0,0.6,0.4,1,1,1c0.6,0,1-0.4,1-1
		C52.7,56.9,52.2,56.6,51.7,56.6z"/>
	<path d="M60.2,64.6v-3.3c0-0.1,0-0.3,0-0.4c-0.1-1.2-1-2.1-2.2-2c-0.8,0-1.5,0.4-1.9,1v-0.1c0-0.5-0.4-0.9-0.9-0.9
		c-0.5,0-0.9,0.4-0.9,0.9v4.7c0,0.5,0.4,0.9,0.9,0.9c0.5,0,0.9-0.4,0.9-0.9v-2.7c0-0.9,0.5-1.3,1.1-1.3s1.1,0.4,1.1,1.3v2.8
		c0,0.5,0.4,0.9,0.9,0.9C59.8,65.5,60.2,65.1,60.2,64.6z"/>
	<path d="M74.7,60.9c-2.5,0-4.8,0.6-6.9,1.6c0.1,0,0.1-0.1,0.2-0.1V42.6c0-1.9-0.4-3.8-1.1-5.6l-3.7-8.8V17.1c0-2.8-2.3-5.1-5.2-5.1
		c0,0,0,0,0,0H20.8c-2.8,0-5.1,2.3-5.1,5.1v11l-3.4,9c-0.7,1.7-1,3.4-1,5.2v44c0,2.8,2.2,5,5,5h46.9c1.3,0,2.5-0.5,3.4-1.3
		c2.4,1.5,5.2,2.3,8.2,2.3c8.7,0,15.8-7.1,15.8-15.8c0,0,0,0,0,0C90.5,67.9,83.4,60.9,74.7,60.9z M67,62.9c-0.3,0.2-0.6,0.3-0.9,0.5
		C66.4,63.3,66.7,63.1,67,62.9z M64.6,64.6c-0.3,0.3-0.7,0.6-1,0.9C63.9,65.2,64.3,64.9,64.6,64.6z M65.8,63.7
		c-0.4,0.2-0.7,0.5-1,0.8C65.1,64.2,65.4,63.9,65.8,63.7z M55.9,79.2H23.5c-2.8,0-5-2.2-5-5v-9.4c0.1,0.4,0.4,0.7,0.8,0.7
		c0.4,0,0.7-0.2,0.9-0.6l0.6-1.4h3.7l0.6,1.3c0.1,0.4,0.5,0.6,0.9,0.6c0,0,0,0,0,0c0.5,0,0.9-0.4,0.9-0.9c0-0.1,0-0.3-0.1-0.4
		l-2.9-6.6c-0.2-0.4-0.6-0.7-1.1-0.7h-0.1c-0.5,0-0.9,0.3-1.1,0.7l-2.9,6.6c0,0.1,0,0.2-0.1,0.2V49.7c0-2.8,2.2-5,5-5h32.4
		c2.8,0,5,2.2,5,5V69c0.7-1.3,1.6-2.4,2.6-3.4c-2.8,2.9-4.6,6.8-4.6,11.1c0,1.5,0.2,3,0.6,4.4c-0.3-1-0.5-2-0.6-3
		C58.1,78.9,57,79.2,55.9,79.2z M21.4,61.9l1.2-2.8l1.2,2.8H21.4z M62.4,86.5C62.4,86.5,62.4,86.5,62.4,86.5
		C62.4,86.5,62.4,86.5,62.4,86.5z M61.5,85.1c-0.1-0.1-0.2-0.3-0.3-0.4C61.3,84.9,61.4,85,61.5,85.1z M60.7,83.8
		c-0.1-0.2-0.2-0.4-0.3-0.7C60.4,83.3,60.5,83.5,60.7,83.8z M60,82.3c-0.1-0.3-0.2-0.6-0.3-0.9C59.8,81.7,59.9,82,60,82.3z
		 M82.9,87.7L63.7,68.5c0.8-1.1,1.8-2.1,2.9-2.9l19.2,19.2C85,85.9,84,86.9,82.9,87.7z"/>
</g>
</svg>
