<?xml version="1.0" encoding="utf-8"?>
<!-- Generator: Adobe Illustrator 24.2.3, SVG Export Plug-In . SVG Version: 6.00 Build 0)  -->
<svg version="1.1" id="Layer_1" xmlns="http://www.w3.org/2000/svg" xmlns:xlink="http://www.w3.org/1999/xlink" x="0px" y="0px"
	 viewBox="0 0 100 100" style="enable-background:new 0 0 100 100;" xml:space="preserve">
<g id="_169">
	<path d="M24.4,8.6c-8.7,0-15.8,7.1-15.8,15.8s7.1,15.8,15.8,15.8s15.8-7.1,15.8-15.8S33.1,8.6,24.4,8.6z M12.6,24.4
		c0-2.5,0.8-4.8,2.1-6.7l16.4,16.4c-1.9,1.3-4.2,2.1-6.7,2.1C17.9,36.2,12.6,30.9,12.6,24.4z M34,31.1L17.7,14.8
		c1.9-1.3,4.2-2.1,6.7-2.1c6.5,0,11.8,5.3,11.8,11.8C36.2,26.9,35.4,29.2,34,31.1z"/>
	<path d="M79.5,70c-2,0-3.9,0.6-5.5,1.6L58.8,56c0.5-1.2,0.8-2.6,0.8-4.1c0-3.8-2.1-7.2-5.3-8.9l4.4-12.8c0.4,0.1,0.9,0.1,1.3,0.1
		c5.6,0,10.1-4.5,10.1-10.1c0-5.6-4.5-10.1-10.1-10.1S50,14.6,50,20.2c0,3.7,2,7,5,8.7l-4.4,12.9c-0.3,0-0.7-0.1-1-0.1
		c-5.6,0-10.1,4.5-10.1,10.1c0,1.1,0.2,2.2,0.5,3.2l-12.2,7c-1.9-2.1-4.6-3.5-7.6-3.5c-5.6,0-10.1,4.5-10.1,10.1S14.5,79,20.1,79
		s10.1-4.5,10.1-10.1c0-1.1-0.2-2.2-0.5-3.2l12.2-7c1.9,2.1,4.6,3.5,7.6,3.5c2.7,0,5.1-1.1,6.9-2.8l14.6,15.1
		C70,76,69.3,78,69.3,80.2c0,5.6,4.5,10.1,10.1,10.1c5.6,0,10.1-4.5,10.1-10.1C89.6,74.5,85.1,70,79.5,70z"/>
</g>
</svg>
