<svg id="Layer_1" data-name="Layer 1" xmlns="http://www.w3.org/2000/svg" viewBox="0 0 100 100"><path d="M59,76a5,5,0,0,1-3.12,1.11H23.49a5,5,0,0,1-5-5V47.57a5,5,0,0,1,5-5H55.92a5,5,0,0,1,5,5V66.88a15.9,15.9,0,0,1,7.19-6.64V40.52A14.6,14.6,0,0,0,67,34.84l-3.68-8.78h0V15a5.13,5.13,0,0,0-5.13-5.14H20.78A5.14,5.14,0,0,0,15.65,15V26.06l-3.42,9a14.7,14.7,0,0,0-1,5.24v44a5,5,0,0,0,5,5H63.1A5,5,0,0,0,66.5,88,15.76,15.76,0,0,1,59,76Z"/><path d="M19.71,61.67l2.81-6.33a1.09,1.09,0,0,1,1-.7h.1a1.09,1.09,0,0,1,1,.7l2.8,6.33a.83.83,0,0,1,.09.36.84.84,0,0,1-.84.85.9.9,0,0,1-.85-.61L25.34,61H21.8l-.56,1.32a.88.88,0,0,1-.82.55.81.81,0,0,1-.81-.83A.9.9,0,0,1,19.71,61.67Zm5-2.23-1.12-2.65-1.11,2.65Z"/><path d="M28.61,62.22a.69.69,0,0,1-.33-.59.7.7,0,0,1,1-.6,3.19,3.19,0,0,0,1.66.55c.51,0,.74-.18.74-.46v0c0-.38-.6-.51-1.28-.71-.86-.26-1.84-.66-1.84-1.85v0a2,2,0,0,1,2.26-1.95,4.27,4.27,0,0,1,1.9.47.71.71,0,0,1,.42.65.69.69,0,0,1-.7.7.66.66,0,0,1-.33-.09,3.26,3.26,0,0,0-1.33-.39c-.42,0-.64.19-.64.43v0c0,.35.58.51,1.25.74.86.28,1.86.7,1.86,1.82v0c0,1.36-1,2-2.35,2A4.26,4.26,0,0,1,28.61,62.22Z"/><path d="M34.54,57.46a.88.88,0,1,1,1.75,0v.08a2.24,2.24,0,0,1,1.92-1A2.9,2.9,0,0,1,41,59.72v0a2.88,2.88,0,0,1-2.8,3.18A2.37,2.37,0,0,1,36.29,62v1.83a.88.88,0,1,1-1.75,0Zm4.72,2.28v0a1.51,1.51,0,1,0-3,0v0a1.51,1.51,0,1,0,3,0Z"/><path d="M42.27,55.18a1,1,0,0,1,2,0v0a1,1,0,0,1-2,0Zm.11,2.28a.87.87,0,1,1,1.74,0V62a.87.87,0,1,1-1.74,0Z"/><path d="M45.76,57.46a.88.88,0,1,1,1.75,0v.27c.25-.6.67-1.15,1.18-1.15a.85.85,0,0,1,.2,1.67c-.89.2-1.38.88-1.38,2.12V62a.88.88,0,0,1-1.75,0Z"/><path d="M50.54,55.18a1,1,0,0,1,2,0v0a1,1,0,0,1-2,0Zm.11,2.28a.87.87,0,1,1,1.74,0V62a.87.87,0,0,1-1.74,0Z"/><path d="M54,57.46a.88.88,0,1,1,1.75,0v.06a2.19,2.19,0,0,1,1.8-1,2,2,0,0,1,2.1,2.28V62a.88.88,0,0,1-1.75,0V59.37c0-.82-.39-1.25-1.06-1.25s-1.09.43-1.09,1.25V62A.88.88,0,0,1,54,62Z"/><path d="M74.73,58.78A15.77,15.77,0,1,0,90.5,74.55,15.79,15.79,0,0,0,74.73,58.78ZM82.9,85.63,63.65,66.38a13.94,13.94,0,0,1,2.92-2.92L85.82,82.71A13.7,13.7,0,0,1,82.9,85.63Z"/></svg>