<?xml version="1.0" encoding="utf-8"?>
<!-- Generator: Adobe Illustrator 24.0.0, SVG Export Plug-In . SVG Version: 6.00 Build 0)  -->
<svg version="1.1" id="Layer_1" xmlns="http://www.w3.org/2000/svg" xmlns:xlink="http://www.w3.org/1999/xlink" x="0px" y="0px"
	 viewBox="0 0 100 100" style="enable-background:new 0 0 100 100;" xml:space="preserve">
<g>
	<path d="M55.9,35.3c-8.2,0-33.2,0-33.2,23.7c0,17.7,14,30.6,33.2,30.6S89.1,76.7,89.1,59C89.1,43.1,78.2,35.3,55.9,35.3z
		 M55.9,39.3c19.9,0,29.2,6.3,29.2,19.7c0,1.2-0.1,2.3-0.2,3.4C81.6,59.3,73,55,55,55.7c-15,0.6-24.4,4.7-28,7.7
		c-0.2-1.4-0.4-2.9-0.4-4.4C26.6,45.6,35.9,39.3,55.9,39.3z M55.9,84.6c-0.5,0.5-1.2,0.5-1.7,0c0,0,0,0,0,0
		c-0.5-0.4-0.7-1.1-0.3-1.7c0.4-0.5,1.1-0.7,1.7-0.3c0.1,0.1,0.2,0.2,0.3,0.3C56.4,83.5,56.4,84.2,55.9,84.6z M60.5,74.4
		c-0.8,0.8-2.2,0.8-3,0c-0.8-0.8-0.8-2.2,0-3s2.2-0.8,3,0C61.3,72.3,61.3,73.6,60.5,74.4z M61.6,79.7c0.4,0.5,0.4,1.1,0,1.6
		c-0.4,0.5-1.2,0.5-1.7,0.1s-0.5-1.2-0.1-1.7c0,0,0.1-0.1,0.1-0.1C60.4,79.1,61.2,79.2,61.6,79.7z M67,69.7
		c-0.3,2.2-5.7-4.9-10.7-1.6c-5,3.3-10.8,4.1-11.2,2C44,64.1,48,58.3,54,57.2s11.8,2.9,12.9,8.9C67.2,67.3,67.2,68.5,67,69.7z
		 M51.4,78.8c-0.8,0.8-2.2,0.9-3.1,0c-0.8-0.8-0.9-2.2,0-3.1c0.8-0.8,2.2-0.9,3.1,0c0,0,0,0,0,0C52.2,76.6,52.2,78,51.4,78.8z"/>
	<path d="M36.5,35.4c0.6,0,1.3-0.2,1.9-0.5c0.9-0.5,1.5-1.3,1.7-2.2c0.3-1,0.1-1.9-0.4-2.8L28.9,11c-0.3-0.6-0.8-1-1.4-1.4
		c-1.8-1-4-0.4-5.1,1.4l-5.4,9.4l-5.4,9.4c-0.3,0.5-0.5,1.1-0.5,1.7c0,1,0.3,1.9,1,2.6s1.6,1.1,2.6,1.1H36.5
		C36.5,35.4,36.5,35.4,36.5,35.4z M14.4,32.2c-0.1-0.1-0.2-0.2-0.2-0.5c0-0.1,0-0.2,0.1-0.3l5.4-9.4l5.4-9.4c0.2-0.3,0.6-0.4,1-0.3
		c0.1,0.1,0.2,0.1,0.3,0.3l10.8,18.8c0.2,0.3,0.1,0.8-0.3,0.9c-0.1,0.1-0.2,0.1-0.3,0.1c0,0,0,0,0,0l-21.6,0
		C14.6,32.4,14.5,32.2,14.4,32.2z"/>
	<path d="M26.4,15.4h-1.6c0,0-0.1,0-0.1,0c-0.4,0.1-0.7,0.5-0.6,0.9l0.8,9c0,0.4,0.4,0.8,0.8,0.8c0.4,0,0.8-0.3,0.8-0.8l0.8-9
		c0,0,0-0.1,0-0.1C27.2,15.7,26.9,15.4,26.4,15.4z"/>
	<path d="M25.6,27.7C25.6,27.7,25.6,27.7,25.6,27.7c-0.9,0-1.6,0.7-1.6,1.5v0.2c0,0,0,0,0,0c0,0.8,0.7,1.5,1.6,1.5c0,0,0.1,0,0.1,0
		c0.8,0,1.5-0.7,1.5-1.5v-0.2c0,0,0-0.1,0-0.1C27.2,28.3,26.5,27.6,25.6,27.7z"/>
</g>
</svg>
