<svg id="Layer_1" data-name="Layer 1" xmlns="http://www.w3.org/2000/svg" viewBox="0 0 100 100"><defs><style>.cls-1{fill:none;stroke:#000;stroke-miterlimit:10;stroke-width:4px;}</style></defs><path d="M30.62,72.92l-2.3,2.61L26.62,48a2.25,2.25,0,0,0-.06-.36A1.83,1.83,0,0,0,24,46.48a1.91,1.91,0,0,0-.55.43A1.82,1.82,0,0,0,23,48.22L24.7,75.7l-2.54-2.25a1.81,1.81,0,0,0-2.4,2.71l5.84,5.17.07-.08h0l-.07.08L27,82.54l1.21-1.36-.1-.08h0l.1.08,5.18-5.86a1.81,1.81,0,0,0-2.72-2.4Z"/><path d="M65.57,38.81l2.19-2.59L70,63.66a1.53,1.53,0,0,0,.07.36,1.82,1.82,0,0,0,1.88,1.3,1.91,1.91,0,0,0,.36-.07,1.79,1.79,0,0,0,1.3-1.89L71.37,35.88,74,38.13a1.81,1.81,0,1,0,2.35-2.76l-6-5.06-.07.09h0l.07-.09L69,29.13l-1.17,1.39.07.06h0l-.07-.06-5,5.95a1.81,1.81,0,0,0,2.76,2.34Z"/><path d="M82.31,77.3a6.23,6.23,0,0,0-.22-1s0,0,0,0a8.31,8.31,0,0,0-.35-.87l-.09-.17a7.07,7.07,0,0,0-.49-.84v0a8.82,8.82,0,0,0-.61-.76.6.6,0,0,1-.08-.08,7.22,7.22,0,0,0-1.59-1.27l0,0a6.81,6.81,0,0,0-.94-.46h0a8.14,8.14,0,0,0-.5-.75.21.21,0,0,1,0-.06,7.33,7.33,0,0,0-1.27-1.28L76,69.66c-.21-.16-.43-.3-.65-.44l-.13-.08a7.66,7.66,0,0,0-1.61-.69l-.22,0a4.69,4.69,0,0,0-.65-.14l-.25,0a8.67,8.67,0,0,0-.89-.06H62.74l-.8-9.29L61.18,50h0a.13.13,0,0,0,0-.06q0-.33-.09-.66c0-.13-.06-.26-.09-.39s-.05-.21-.08-.31-.12-.35-.19-.53,0-.09,0-.14a6.63,6.63,0,0,0-.29-.6v0a7.08,7.08,0,0,0-1.83-2.18l-.39-9.58-.37-9.13h0a6.46,6.46,0,0,0-.07-.78,6.81,6.81,0,0,0-.19-.92,7.76,7.76,0,0,0-.79-1.92,7.93,7.93,0,0,0-.86-1.2,7.84,7.84,0,0,0-5.95-2.72H46.19a7.84,7.84,0,0,0-7.3,5,7.32,7.32,0,0,0-.25.75,8.28,8.28,0,0,0-.27,1.58,7.63,7.63,0,0,0,0,.83l1.94-.08h0L38.36,27h0l.29,7.16h0c-.18.07-.36.16-.53.24l-.36.19c-.18.1-.35.21-.52.32l-.3.22-.43.36-.28.27c-.14.14-.27.28-.4.43l-.19.23a6.1,6.1,0,0,0-.4.59l-.12.18c-.13.23-.25.48-.36.72,0,.07,0,.13-.08.19a7,7,0,0,0-.26.81.94.94,0,0,1,0,.16,8.44,8.44,0,0,0-.15.9v.12a6.89,6.89,0,0,0,0,1h0l2.52,42.59h0A7.32,7.32,0,0,0,36.93,85a6.67,6.67,0,0,0,.46,1.25,7.1,7.1,0,0,0,.66,1.13c.13.17.27.34.41.5a7,7,0,0,0,5.28,2.39H64.63v-.12h7a8.48,8.48,0,0,0,.88-.06l.25,0c.22,0,.43-.08.65-.13l.22-.06a7.07,7.07,0,0,0,1.6-.68l.11-.07A5.82,5.82,0,0,0,76,88.7a.18.18,0,0,1,.07,0,7.41,7.41,0,0,0,1.8-2.06h0a7.85,7.85,0,0,0,1-.46h0a7.36,7.36,0,0,0,1.64-1.29l.06-.07a6.61,6.61,0,0,0,.63-.77v0a7.27,7.27,0,0,0,.5-.85l.08-.16a8.31,8.31,0,0,0,.35-.87l0,0a6.23,6.23,0,0,0,.22-1,1.85,1.85,0,0,0,0-.23,8.26,8.26,0,0,0,.08-1V78.53a8.26,8.26,0,0,0-.08-1A1.85,1.85,0,0,0,82.31,77.3ZM60.16,50.06l-.73.06h0ZM42.71,25.19a3.79,3.79,0,0,1,3.49-2.33h3.72a3.67,3.67,0,0,1,.75.07,3.7,3.7,0,0,1,1.9,1,3.84,3.84,0,0,1,1.17,2.59h0v.13l-11.32,0A3.87,3.87,0,0,1,42.71,25.19Zm2.78,9.9h0a7.7,7.7,0,0,0-.82-.54l-.27-.14-.6-.27c-.1,0-.2-.09-.3-.12a6.21,6.21,0,0,0-.81-.24l-.13-3.06,11.34,0L54,33.56l.34,8.3-2.78-2.12-6.09-4.65Z"/><path d="M96.49,78.66a1.8,1.8,0,0,0-1.59-1H88.16a1.81,1.81,0,0,0-1.81,1.81,1.79,1.79,0,0,0,.8,1.5,1.75,1.75,0,0,0,1,.31H94.9a1.77,1.77,0,0,0,1-.31,1.9,1.9,0,0,0,.49-.49,1.85,1.85,0,0,0,.31-1A1.76,1.76,0,0,0,96.49,78.66Z"/><path d="M93.17,87.06a1.79,1.79,0,0,0-.54-.48L86.8,83.21A1.8,1.8,0,0,0,85.43,83a1.83,1.83,0,0,0-.63.3,1.87,1.87,0,0,0-.47.54,1.82,1.82,0,0,0-.1,1.62,1.8,1.8,0,0,0,.76.86l5.83,3.37a1.81,1.81,0,0,0,2.26-.37,3.15,3.15,0,0,0,.22-.29,1.79,1.79,0,0,0-.13-2Z"/><path d="M84.54,75.44a1.82,1.82,0,0,0,2.26.37l5.83-3.37a1.79,1.79,0,0,0,.85-1.1A1.82,1.82,0,0,0,93.3,70a2.07,2.07,0,0,0-.48-.54,1.87,1.87,0,0,0-.62-.3,1.82,1.82,0,0,0-1.38.18L85,72.67a1.67,1.67,0,0,0-.54.48,1.75,1.75,0,0,0-.18.29,1.77,1.77,0,0,0,.06,1.7A1.61,1.61,0,0,0,84.54,75.44Z"/><circle class="cls-1" cx="24.96" cy="25.64" r="13.77"/><path d="M16.79,14.56a13.7,13.7,0,0,0-2.92,2.92L33.12,36.73A13.94,13.94,0,0,0,36,33.81Z"/></svg>