<?xml version="1.0" encoding="utf-8"?>
<!-- Generator: Adobe Illustrator 24.0.0, SVG Export Plug-In . SVG Version: 6.00 Build 0)  -->
<svg version="1.1" id="Layer_1" xmlns="http://www.w3.org/2000/svg" xmlns:xlink="http://www.w3.org/1999/xlink" x="0px" y="0px"
	 viewBox="0 0 100 100" style="enable-background:new 0 0 100 100;" xml:space="preserve">
<g>
	<path d="M63.7,28.2H38.1l-1-4.4c2.2-0.5,4.3-1.2,6.1-2.1l0.1,0.8c0.1,1,1,1.8,2,1.8c0.1,0,0.2,0,0.2,0c1.1-0.1,1.9-1.1,1.8-2.2
		l-0.6-5.2c0,0,0,0,0,0c0,0,0,0,0,0l-0.2-1.5l-6.9-0.9c-1.1-0.1-2.1,0.6-2.2,1.7c-0.1,1.1,0.6,2.1,1.7,2.2l1.6,0.2
		c-1.1,0.5-2.5,1-4.4,1.4L33,5.8c-0.2-1.1-1.3-1.8-2.4-1.5c-1.1,0.2-1.8,1.3-1.5,2.4l3.1,13.8c-4.2,0.3-6.9-0.4-7.8-0.9
		c0.5-0.5,1.7-1.3,4.2-2.1c1.1-0.3,1.7-1.4,1.3-2.5s-1.4-1.7-2.5-1.3c-4.9,1.5-7.5,3.8-7.1,6.4c0.1,0.7,0.4,1.7,1.5,2.6
		c1.8,1.4,5,1.9,8.3,1.9c1,0,2-0.1,3-0.2l1.1,4.9c-0.5,0.4-1,0.8-1.5,1.3c-1.1,1.3-1.6,3-1.5,4.7l4.6,50.8c0.3,3.4,3.1,6,6.5,6
		c0,0,0,0,0,0h16.8c3.4,0,6.2-2.6,6.5-6l4.6-50.9c0-0.2,0-0.4,0-0.6C70.2,31.1,67.3,28.2,63.7,28.2z M63.7,32.2
		c1.4,0,2.5,1.1,2.5,2.5c0,0.1,0,0.1,0,0.2l-1.3,14.2l-22,0l-3.9-17H63.7z M53.3,64.4c1,0.4,1.4,1.5,1,2.4c-0.4,1-1.5,1.4-2.4,1
		c0,0,0,0,0,0c-0.9-0.4-1.4-1.5-1-2.4C51.3,64.4,52.4,64,53.3,64.4z M52.2,55.2c0-0.6,0.4-1,1-1c0.6,0,1,0.4,1,1c0,0.6-0.4,1-1,1
		C52.6,56.2,52.2,55.8,52.2,55.2z M51.2,74c2.4,0,4.3,1.9,4.3,4.3c0,2.3-1.9,4.2-4.3,4.3l0,0c-2.4,0-4.3-1.9-4.3-4.3
		C46.9,75.9,48.8,74,51.2,74z M47.5,62.1C47.5,62.1,47.5,62.1,47.5,62.1c-0.9,0-1.5-0.7-1.5-1.5c0-0.9,0.7-1.5,1.5-1.5
		c0.9,0,1.5,0.7,1.5,1.5C49.1,61.4,48.4,62.1,47.5,62.1z M38.8,49.2l-2.2,0L35.3,35c0-0.3,0-0.6,0.1-0.8L38.8,49.2z"/>
	<path d="M48.2,47c0.6,0,1-0.5,1-1.1c0-0.6-0.5-1-1-1c-0.6,0-1.1,0.5-1.1,1C47.2,46.5,47.6,47,48.2,47z"/>
	<circle cx="49.9" cy="40.1" r="1"/>
	<path d="M45.9,37.7c0.6,0,1-0.5,1-1s-0.5-1.1-1-1.1s-1,0.5-1,1.1S45.3,37.7,45.9,37.7z"/>
	<path d="M52.4,45.6c0.6,0,1-0.5,1-1.1s-0.5-1-1-1s-1,0.5-1,1S51.8,45.6,52.4,45.6z"/>
</g>
</svg>
