<?xml version="1.0" encoding="utf-8"?>
<!-- Generator: Adobe Illustrator 24.0.0, SVG Export Plug-In . SVG Version: 6.00 Build 0)  -->
<svg version="1.1" id="Layer_1" xmlns="http://www.w3.org/2000/svg" xmlns:xlink="http://www.w3.org/1999/xlink" x="0px" y="0px"
	 viewBox="0 0 100 100" style="enable-background:new 0 0 100 100;" xml:space="preserve">
<g>
	<path d="M19.8,47.2L19.8,47.2L17.3,50l-1.9-30.4c0-0.1,0-0.3-0.1-0.4c-0.2-0.9-1.1-1.5-2.1-1.5c-0.3,0-0.5,0.1-0.8,0.2
		c-0.2,0.1-0.4,0.3-0.6,0.5c-0.4,0.4-0.5,0.9-0.5,1.4l1.9,30.3l-2.8-2.5c-0.8-0.7-2.1-0.7-2.8,0.2C6.9,48.8,7,50,7.8,50.8l6.4,5.7
		l1.5,1.3l1.3-1.5L17,56.2l0.1,0.1l5.7-6.5c0.7-0.8,0.7-2.1-0.2-2.8S20.6,46.3,19.8,47.2z"/>
	<path d="M58,24.8c0.8,0.5,1.7,0.4,2.4-0.2h0l2.4-2.9L65.4,52c0,0.1,0,0.3,0.1,0.4c0.1,0.5,0.5,0.9,0.9,1.2c0.3,0.2,0.7,0.3,1.1,0.2
		c0.1,0,0.3,0,0.4-0.1c0.5-0.1,0.9-0.5,1.2-0.9c0.2-0.3,0.3-0.7,0.2-1.1l-2.5-30.3l2.9,2.5c0.7,0.8,2,0.9,2.8,0.2
		c0.8-0.7,0.9-2,0.2-2.8c-0.1-0.1-0.3-0.3-0.4-0.4l-6.6-5.6l-1.5-1.3L63,15.4L57.4,22C56.8,22.9,57.1,24.2,58,24.8z"/>
	<path d="M79,74.9c-0.1-0.3-0.1-0.7-0.2-1c-0.1-0.3-0.2-0.7-0.4-1l-0.1-0.2c-0.2-0.3-0.3-0.6-0.5-0.9c-0.2-0.3-0.4-0.6-0.7-0.8
		L77,70.9c-0.5-0.5-1.1-1-1.8-1.4h0c-0.3-0.2-0.7-0.4-1-0.5c-0.2-0.3-0.4-0.6-0.6-0.8L73.5,68c-0.4-0.5-0.9-1-1.4-1.4L72,66.5
		c-0.2-0.2-0.5-0.3-0.7-0.5l-0.1-0.1c-0.6-0.3-1.2-0.6-1.8-0.8l-0.2-0.1C68.9,65,68.7,65,68.4,65h-0.3c-0.3,0-0.7-0.1-1-0.1h-9.8
		l-0.9-10.2l-0.8-9.8c0,0,0,0,0-0.1c0-0.2-0.1-0.5-0.1-0.7c0-0.1-0.1-0.3-0.1-0.4c0-0.1,0-0.2-0.1-0.4c0-0.1-0.1-0.4-0.2-0.6
		l-0.1-0.2c-0.1-0.2-0.2-0.4-0.3-0.7c-0.5-0.9-1.2-1.8-2-2.4l-0.4-10.6l-0.4-10.1c0-0.3,0-0.6-0.1-0.9c0-0.3-0.1-0.7-0.2-1
		c-0.2-0.7-0.5-1.5-0.9-2.1c-0.3-0.5-0.6-0.9-1-1.3c-1.6-1.9-4-3-6.6-3h-4.1c-3.6,0-6.8,2.1-8.1,5.4c-0.1,0.3-0.2,0.5-0.3,0.8
		c-0.2,0.6-0.3,1.2-0.3,1.7c0,0.3,0,0.6,0,0.9l0.3,7.9c-0.2,0.1-0.4,0.2-0.6,0.3l-0.4,0.2l-0.6,0.3l-0.3,0.2
		c-0.2,0.1-0.3,0.2-0.5,0.4L28.1,29c-0.2,0.2-0.3,0.3-0.4,0.5l-0.2,0.2c-0.2,0.2-0.3,0.4-0.5,0.6c0,0.1-0.1,0.1-0.1,0.2
		c-0.1,0.3-0.3,0.5-0.4,0.8c0,0.1,0,0.1-0.1,0.2c-0.1,0.3-0.2,0.6-0.3,0.9c0,0.1,0,0.1,0,0.2c-0.1,0.3-0.1,0.7-0.2,1
		c0,0,0,0.1,0,0.1c0,0.4,0,0.7,0,1.1l2.8,47c0,0.5,0.1,1,0.2,1.5c0.1,0.5,0.3,0.9,0.5,1.4c0.2,0.4,0.5,0.9,0.7,1.2
		c0.1,0.2,0.3,0.4,0.5,0.6c1.5,1.7,3.6,2.6,5.8,2.6h23v-0.1h7.7c0.3,0,0.7,0,1-0.1h0.3c0.2,0,0.5-0.1,0.7-0.2l0.2-0.1
		c0.6-0.2,1.2-0.4,1.8-0.8l0.1-0.1c0.2-0.1,0.5-0.3,0.7-0.5l0.1-0.1c0.8-0.6,1.5-1.4,2-2.3c0.4-0.1,0.7-0.3,1.1-0.5
		c0.7-0.4,1.3-0.9,1.8-1.4c0,0,0,0,0.1-0.1c0.2-0.3,0.5-0.6,0.7-0.8c0.2-0.3,0.4-0.6,0.6-0.9l0.1-0.2c0.2-0.3,0.3-0.7,0.4-1
		c0.1-0.3,0.2-0.7,0.2-1c0-0.1,0-0.2,0-0.2c0.1-0.4,0.1-0.7,0.1-1.1v-1.5c0-0.4,0-0.7-0.1-1.1C79,75.1,79,75,79,74.9z M35.2,17.4
		c0.6-1.6,2.2-2.6,3.9-2.6h4.1c0.8,0,1.6,0.2,2.3,0.7c0.2,0.1,0.4,0.3,0.6,0.5c0.8,0.8,1.3,1.8,1.3,2.9V19H34.9
		C34.9,18.5,35,17.9,35.2,17.4z M45,33.5l-6.7-5.1l0,0c-0.3-0.2-0.6-0.4-0.9-0.6l-0.3-0.1c-0.2-0.1-0.4-0.2-0.6-0.3l-0.3-0.1
		c-0.3-0.1-0.6-0.2-0.9-0.3l-0.1-3.4h12.5l0.1,3.2l0.4,9.2L45,33.5z M53.7,44.9L53.7,44.9l0.8-0.1L53.7,44.9z"/>
	<path d="M94.6,76.4c-0.3-0.7-1-1.1-1.8-1.1h-7.4c-1.1,0-2,0.9-2,2c0,0.7,0.3,1.3,0.9,1.6c0.3,0.2,0.7,0.3,1.1,0.3h7.4
		c0.4,0,0.8-0.1,1.1-0.3c0.2-0.1,0.4-0.3,0.5-0.5c0.2-0.3,0.3-0.7,0.3-1.1C94.9,77,94.8,76.7,94.6,76.4z"/>
	<path d="M90.4,85.2L84,81.5c-0.5-0.3-1-0.3-1.5-0.2c-0.3,0.1-0.5,0.2-0.7,0.3c-0.2,0.2-0.4,0.4-0.5,0.6c-0.6,1-0.2,2.2,0.7,2.7
		c0,0,0,0,0,0l6.4,3.7c0.8,0.5,1.9,0.3,2.5-0.4c0.1-0.1,0.2-0.2,0.2-0.3c0.4-0.7,0.3-1.6-0.1-2.2C90.8,85.5,90.6,85.3,90.4,85.2z"/>
	<path d="M81.4,72.9c0.6,0.7,1.7,0.9,2.5,0.4l6.4-3.7c1-0.5,1.3-1.8,0.7-2.7c0,0,0,0,0,0c-0.1-0.2-0.3-0.4-0.5-0.6
		c-0.6-0.5-1.5-0.5-2.2-0.1l-6.4,3.7c-0.2,0.1-0.4,0.3-0.6,0.5c-0.1,0.1-0.1,0.2-0.2,0.3c-0.3,0.6-0.3,1.3,0.1,1.9
		C81.3,72.7,81.3,72.8,81.4,72.9z"/>
</g>
</svg>
