<?xml version="1.0" encoding="utf-8"?>
<!-- Generator: Adobe Illustrator 24.0.0, SVG Export Plug-In . SVG Version: 6.00 Build 0)  -->
<svg version="1.1" id="Layer_1" xmlns="http://www.w3.org/2000/svg" xmlns:xlink="http://www.w3.org/1999/xlink" x="0px" y="0px"
	 viewBox="0 0 100 100" style="enable-background:new 0 0 100 100;" xml:space="preserve">
<g>
	<path d="M85.5,57.8l-6-4.3l1.2-1.7l2.2,1.5l1.7,1.1l0.6-0.9c0.4-0.2,0.8-0.4,1.1-0.8l4.1-5.8L79.3,39l-4.1,5.8
		c-0.4,0.5-0.5,1.2-0.4,1.8c0.1,0.6,0.5,1.2,1,1.6l1.8,1.3l-1.2,1.7l-5-3.7l0,0l-0.6-0.4c-0.9-0.6-2.1-0.4-2.8,0.5
		c-0.6,0.9-0.4,2.1,0.5,2.8l0.5,0.4L54.2,71c-0.7,0.9-0.6,2.2,0.1,3L53,77.6c-0.4,1-0.1,2.2,0.9,2.9l0.7,0.5l-4.1,6l-4.1-6l0.8-0.6
		c0.9-0.6,1.2-1.8,0.8-2.8l-1.4-3.7c0.7-0.8,0.8-2.1,0.1-3L32.2,50.8l0.5-0.4c0.9-0.6,1.1-1.9,0.5-2.8c-0.6-0.9-1.9-1.1-2.8-0.5
		l-0.6,0.4l-0.1-0.1l-5,3.7l-1.2-1.7l1.8-1.3c0.5-0.4,0.9-0.9,1-1.6c0.1-0.6,0-1.3-0.4-1.8l-1.7-2.3c0.6,0.1,1.2,0.1,1.7,0.1
		c8.7,0,15.8-7.1,15.8-15.8C41.7,18,34.6,11,25.9,11S10.1,18,10.1,26.7c0,6.2,3.6,11.6,8.8,14.1l-6.8,4.8l-1.6,1.2l4.2,5.8
		c0.5,0.7,1.2,1,2,1c0.5,0,1-0.1,1.4-0.4l2.2-1.5l1.3,1.8l-1.1,0.8l-0.9,0.6l0,0l-0.8,0.6l-3.2,2.3c-0.9,0.6-1.1,1.9-0.5,2.8
		c0.4,0.5,1,0.8,1.6,0.8c0.4,0,0.8-0.1,1.2-0.4l0.8-0.6l3.2,4.4c0,0,0,0,0,0.1c0,0,0,0,0,0l11.4,15.7c0.4,0.5,1,0.9,1.6,1
		c0.1,0,0.3,0,0.4,0c0.4,0,0.7-0.1,1-0.2l3.1,2.4c0.4,0.3,1,0.5,1.5,0.5c0.5,0,1-0.2,1.4-0.5l0.8-0.6l5.2,7.5c0.4,0.6,1,0.9,1.6,0.9
		c0.2,0,0.4,0,0.5-0.1c0.2,0.1,0.4,0.1,0.5,0.1c0.6,0,1.3-0.3,1.7-0.9l5.2-7.5l0.8,0.6c0.4,0.3,0.9,0.5,1.5,0.5
		c0.5,0,1.1-0.2,1.5-0.5l3-2.4c0.3,0.2,0.7,0.2,1.1,0.2c0.1,0,0.3,0,0.4,0c0.7-0.1,1.2-0.5,1.6-1L79.2,65c0,0,0,0,0,0c0,0,0,0,0,0
		l3.2-4.5l0.8,0.6c0.4,0.3,0.8,0.4,1.2,0.4c0.6,0,1.2-0.3,1.6-0.8C86.6,59.6,86.4,58.4,85.5,57.8z M80.2,44.6l4.6,3.3L84,49.1
		l-0.3-0.2l0,0l-4.3-3L80.2,44.6z M37.7,26.7c0,2.5-0.8,4.8-2.1,6.7L19.2,17.1c1.9-1.3,4.2-2.1,6.7-2.1C32.4,15,37.7,20.2,37.7,26.7
		z M14.1,26.7c0-2.5,0.8-4.8,2.1-6.7l16.4,16.4c-1.9,1.3-4.2,2.1-6.7,2.1C19.4,38.5,14.1,33.2,14.1,26.7z M17,49.1l-0.9-1.3l4.6-3.3
		l0.9,1.3L17,49.1z M35.6,77.1l-9.3-12.9l7.1-5L42.7,72L35.6,77.1z M31,56l-1.9,1.3l-2.1-2.9l1.8-1.3L31,56z M23.8,56.7l2.1,2.9
		l-2,1.4l-2.1-2.9l0.8-0.6L23.8,56.7z M39.8,79.1l3.6-2.6l0.5,1.4L41,80L39.8,79.1z M77.1,61l-2-1.4l2.1-2.9l2,1.4L77.1,61z
		 M74,54.4l-2.1,2.9L70,56l2.1-2.9L74,54.4z M67.7,59.2l7.1,5l-9.4,12.9l-7-5.1L67.7,59.2z M60.1,80l-2.9-2.1l0.5-1.4l3.6,2.6
		L60.1,80z"/>
	<path d="M64.3,70c-0.9,0-1.6,0.7-1.6,1.5c0,0.8,0.7,1.5,1.6,1.5s1.6-0.7,1.6-1.5C65.8,70.6,65.1,70,64.3,70z"/>
	<path d="M69.4,66.1c0.9,0,1.6-0.7,1.6-1.5c0-0.8-0.7-1.5-1.6-1.5s-1.6,0.7-1.6,1.5C67.9,65.4,68.6,66.1,69.4,66.1z"/>
	<path d="M66.9,69.5c0.9,0,1.6-0.7,1.6-1.5c0-0.8-0.7-1.5-1.6-1.5s-1.6,0.7-1.6,1.5C65.4,68.8,66.1,69.5,66.9,69.5z"/>
	<path d="M36.8,72.9c0.9,0,1.6-0.7,1.6-1.5c0-0.8-0.7-1.5-1.6-1.5s-1.6,0.7-1.6,1.5C35.2,72.3,35.9,72.9,36.8,72.9z"/>
	<path d="M33.2,64.6c0-0.8-0.7-1.5-1.6-1.5c-0.9,0-1.6,0.7-1.6,1.5c0,0.8,0.7,1.5,1.6,1.5C32.5,66.1,33.2,65.4,33.2,64.6z"/>
	<path d="M32.5,68c0,0.8,0.7,1.5,1.6,1.5c0.9,0,1.6-0.7,1.6-1.5c0-0.8-0.7-1.5-1.6-1.5C33.2,66.5,32.5,67.2,32.5,68z"/>
</g>
</svg>
