<svg id="Layer_1" data-name="Layer 1" xmlns="http://www.w3.org/2000/svg" viewBox="0 0 100 100"><defs><style>.cls-1,.cls-2{fill:none;}.cls-1,.cls-2,.cls-3{stroke:#000;stroke-miterlimit:10;stroke-width:4px;}.cls-2{stroke-linecap:round;}</style></defs><circle class="cls-1" cx="26.59" cy="25.57" r="13.77"/><path d="M18.43,14.48a13.7,13.7,0,0,0-2.92,2.92L34.76,36.65a13.7,13.7,0,0,0,2.92-2.92Z"/><path class="cls-2" d="M36.23,50a6.35,6.35,0,0,0-6.36,6.35"/><path class="cls-2" d="M35.79,43.63A11.85,11.85,0,0,0,24,55.48"/><path class="cls-2" d="M76.12,79.64A6.35,6.35,0,0,1,69.76,86"/><path class="cls-2" d="M82.51,80.07A11.85,11.85,0,0,1,70.67,91.92"/><g id="_110" data-name="110"><path d="M75.14,26.12l6,3.8a3.59,3.59,0,0,1,1.14,4.91L79,40.16,67,32.53l3.2-5.24A3.6,3.6,0,0,1,75.14,26.12Z"/><path class="cls-3" d="M78.4,40.84,66.65,33.42A8.4,8.4,0,0,0,55.08,36L33.82,69.68a8.39,8.39,0,0,0,2.61,11.57l11.75,7.42a8.38,8.38,0,0,0,11.57-2.61L81,52.41A8.38,8.38,0,0,0,78.4,40.84ZM60.34,83.1,36.25,67.88,55,38.24,79.06,53.46Z"/></g></svg>