<?xml version="1.0" encoding="utf-8"?>
<!-- Generator: Adobe Illustrator 24.0.0, SVG Export Plug-In . SVG Version: 6.00 Build 0)  -->
<svg version="1.1" id="Layer_1" xmlns="http://www.w3.org/2000/svg" xmlns:xlink="http://www.w3.org/1999/xlink" x="0px" y="0px"
	 viewBox="0 0 100 100" style="enable-background:new 0 0 100 100;" xml:space="preserve">
<g>
	<path d="M86.5,61.8L72.1,47l-2.9,2.8L80.1,61H40.5v-8.4h0c0-2.2,1.8-4,4-4h21.9v0c1.1,0,2.1,0.4,2.9,1.2l2.9-2.8
		c-1.5-1.6-3.6-2.4-5.8-2.4v0H44.5c-3.7,0-6.8,2.5-7.7,5.9C35.6,48,33,46.2,30,46.2c-4.2,0-7.5,3.4-7.5,7.5c0,3.5,1.6,6.4,5.2,7.3
		H26c-2.2,0-4-1.8-4-4V42.1c0-0.1,0-0.3,0-0.4c1.3,0.3,2.6,0.5,4,0.5c8.7,0,15.8-7.1,15.8-15.8s-7.1-15.8-15.8-15.8
		s-15.8,7.1-15.8,15.8c0,3.5,1.1,6.6,3,9.2c-2.7,0.9-4.7,3.4-4.7,6.4v45.5h4v-9.8H87v9.8h4V69C91,65.8,89.2,63.1,86.5,61.8z
		 M37.7,26.5c0,2.5-0.8,4.8-2.1,6.7L19.2,16.8c1.9-1.3,4.2-2.1,6.7-2.1C32.4,14.7,37.7,20,37.7,26.5z M16.3,19.7l16.4,16.4
		c-1.9,1.3-4.2,2.1-6.7,2.1c-6.5,0-11.8-5.3-11.8-11.8C14.2,24,15,21.6,16.3,19.7z M87,73.8l-74.5,0V42.1c0-1.5,1.2-2.7,2.7-2.7
		c1.5,0,2.7,1.2,2.7,2.7V57c0,4.4,3.6,8,8,8h10.5h2l46,0.3c1.4,0.6,2.5,2,2.5,3.7V73.8z"/>
	<path d="M88.4,19.1c-0.3-0.1-0.7-0.1-1-0.1h-0.8c-1-1.2-2.4-2.1-4-2.4c-0.5-1.3-1.4-2.5-2.7-3.3c-1.5-1-3.4-1.3-5.2-1
		c-0.3,0.1-0.6,0.1-0.9,0.2c-0.9-1-2.1-1.7-3.4-2c-1.8-0.4-3.6-0.2-5.2,0.8c-1.6,1-2.7,2.6-3.1,4.4c-1.8,0.5-3.4,1.7-4.3,3.3h-0.8
		c0,0,0,0,0,0c-2.6,0-4.7,2.1-4.7,4.7c0,0.3,0,0.7,0.1,1c1.2,5.6,5.2,10.1,10.5,12.6v0.2c0,2.8,2.2,5,5,5h8.5c2.8,0,5-2.2,5-5v-0.2
		c5.3-2.5,9.3-7.1,10.6-12.7C92.6,22.1,90.9,19.6,88.4,19.1z M63.7,18.5l1.3-0.1l0.1-1.3c0.1-1.3,0.7-2.5,1.9-3.2
		c0.9-0.5,1.9-0.7,2.9-0.4c1,0.2,1.9,0.9,2.4,1.8l0.8,1.3l1.3-0.8c0.4-0.2,0.8-0.4,1.2-0.5c1-0.2,2,0,2.9,0.5s1.5,1.4,1.7,2.4
		l0.2,0.8H62C62.5,18.7,63.1,18.5,63.7,18.5z M72.3,35.4c-7.7,0-14.4-4.9-15.9-11.6c0-0.1,0-0.1,0-0.2c0-0.4,0.3-0.7,0.7-0.7
		c0,0,0,0,0,0h30.3c0,0,0.1,0,0.1,0c0.4,0.1,0.6,0.5,0.6,0.8C86.6,30.5,80,35.4,72.3,35.4z"/>
</g>
</svg>
