<svg id="Layer_1" data-name="Layer 1" xmlns="http://www.w3.org/2000/svg" viewBox="0 0 100 100"><defs><style>.cls-1,.cls-2,.cls-3,.cls-4{fill:none;stroke:#000;stroke-miterlimit:10;}.cls-1{stroke-width:3.08px;}.cls-2{stroke-linecap:round;stroke-width:4px;}.cls-3{stroke-width:2.8px;}.cls-4{stroke-width:3px;}</style></defs><path class="cls-1" d="M71.45,57.82c-1.69-.75-2.82-2-2.82-3.48,0-1.81,1.75-3.34,4.18-3.92a30.27,30.27,0,0,0-.13-4.94,3.58,3.58,0,0,1,1.08-3l.86-.82a3.28,3.28,0,0,0-1-5.38l-1.22-.53a11.51,11.51,0,0,1-4.81-4c-6.17-8.94-16.74-13.28-26.22-9.91C29.76,26,24.18,40.19,28.93,53.55c3.27,9.19,10.8,16.21,19,18.34v0a10.36,10.36,0,0,0,9.38,7.19,10.93,10.93,0,0,0,10.34-5.89,71.94,71.94,0,0,0,.5-8.67A24.53,24.53,0,0,0,71.45,57.82Z"/><path d="M41.83,46.54A5.68,5.68,0,0,1,45,39.18h0a2.62,2.62,0,0,0,1.83-2.34c.09-2,.71-5,3.43-6,5.48-2.08,12.86-4.53,12.86-4.53-6.66-5.08-17.67-5.82-21.7-4.39C29.76,26,24.18,40.19,28.93,53.55A30.67,30.67,0,0,0,36.61,65.4s3.36-1.71,6.22-7a11.45,11.45,0,0,0,.28-9.74A6.46,6.46,0,0,1,41.83,46.54Z"/><path class="cls-2" d="M17.86,92.74s.92-8.31,6-11.54,23.08-7.66,23.08-7.66"/><path class="cls-2" d="M97.57,92.74s-.92-8.31-6-11.54-23.08-7.66-23.08-7.66"/><path class="cls-3" d="M51.18,63c-1.07-3.7,1.65-5.52,5.35-6.59s7-1,8,2.72-1.23,7-4.92,8.07S52.24,66.72,51.18,63Z"/><path d="M57.78,61.32c-4.09-1.1-6.26,2.67-6,3.1,1.5,2.68,4.69,3.72,7.89,2.8s5.39-3.58,5.16-6.71C64.78,60.07,63.06,62.76,57.78,61.32Zm-.31,3.24a1,1,0,0,1-1.23-.68,1,1,0,1,1,1.23.68Zm2.55.77a.56.56,0,1,1,.38-.69A.55.55,0,0,1,60,65.33Z"/><circle cx="88.33" cy="54.6" r="1.43"/><circle cx="92.42" cy="45.75" r="1.8"/><circle cx="84.33" cy="39.42" r="2.7"/><path class="cls-4" d="M15.86,8.54a2.55,2.55,0,0,1,4.42,0l6.31,10.93L32.9,30.39a2.56,2.56,0,0,1-2.21,3.84H5.45a2.56,2.56,0,0,1-2.21-3.84L9.55,19.47Z"/><path d="M16.17,13.79a.93.93,0,0,1,.9-1.1h1.84a1,1,0,0,1,.92,1.1l-.9,10.43a.93.93,0,0,1-.94.92.92.92,0,0,1-.92-.92ZM18,27a1.75,1.75,0,0,1,1.81,1.77V29a1.82,1.82,0,0,1-3.63,0v-.25A1.77,1.77,0,0,1,18,27Z"/></svg>