<svg id="Layer_1" data-name="Layer 1" xmlns="http://www.w3.org/2000/svg" viewBox="0 0 100 100"><defs><style>.cls-1,.cls-3,.cls-4,.cls-5,.cls-6{fill:none;}.cls-1,.cls-2,.cls-3,.cls-4,.cls-5,.cls-6{stroke:#000;}.cls-1,.cls-2,.cls-4,.cls-5,.cls-6{stroke-miterlimit:10;}.cls-1,.cls-2{stroke-width:2.88px;}.cls-3{stroke-linejoin:round;}.cls-3,.cls-4,.cls-5{stroke-width:4px;}.cls-4{stroke-linecap:round;}.cls-6{stroke-width:3px;}</style></defs><path d="M77.75,67c0-1.8,2.27-5.72,3.65-7.94a1.22,1.22,0,0,1,2.07,0c1.38,2.22,3.65,6.14,3.65,7.94a4.69,4.69,0,1,1-9.37,0Z"/><path class="cls-1" d="M41.1,54.33C40.64,47.6,46,45.5,52.71,45s12.3.9,12.76,7.63-4.69,11.54-11.42,12S41.56,61.06,41.1,54.33Z"/><path class="cls-2" d="M53,53.87c8.52,4.42,12.46.45,12.35,1.23-.77,5.43-5.45,9.17-11.34,9.57s-10.89-2.58-12.47-7.73C41.33,56.12,46.46,50.46,53,53.87Z"/><path class="cls-3" d="M75.13,43.84c-.38-14.71-11.09-26.37-23.91-26S28.32,30.34,28.7,45.06c.27,10.12,5.43,19.46,12.81,24.2a0,0,0,0,0,0,0C41.67,75.44,46.8,82.89,53,82.73s11-7.87,10.87-14v-.18C70.82,63.36,75.39,53.86,75.13,43.84Z"/><path class="cls-4" d="M26.48,76c7.3-2.11,15.11-3.84,15.11-3.84"/><path class="cls-4" d="M9,92.12a23.84,23.84,0,0,1,1.1-4.63"/><path class="cls-4" d="M73.81,75.07c-5.54-1.64-10.52-2.87-10.52-2.87"/><path class="cls-4" d="M93.48,92.12a23,23,0,0,0-2.9-8.48"/><path class="cls-5" d="M21.7,92.6h-9c-1.25,0-2.29-.53-2.4-1.23L7.83,76.15c-.12-.78,1-1.46,2.4-1.46H24.14c1.42,0,2.52.68,2.4,1.46L24.09,91.37C24,92.07,22.94,92.6,21.7,92.6Z"/><path d="M8.93,83l1.35,8.42c.11.7,1.15,1.23,2.4,1.23h9c1.24,0,2.28-.53,2.39-1.23L25.45,83Z"/><path class="cls-5" d="M86.94,92.6h-9c-1.24,0-2.28-.53-2.39-1.23L73.08,76.15c-.13-.78,1-1.46,2.4-1.46H89.39c1.41,0,2.52.68,2.39,1.46L89.34,91.37C89.23,92.07,88.19,92.6,86.94,92.6Z"/><path d="M74.17,83l1.36,8.42c.11.7,1.15,1.23,2.39,1.23h9c1.25,0,2.29-.53,2.4-1.23L90.69,83Z"/><circle class="cls-6" cx="17.4" cy="19.43" r="11.84"/><path d="M15.23,18l2.05-1.68c.9-.74,1.25-1.14,1.25-1.74a.88.88,0,0,0-1-.93,1.55,1.55,0,0,0-1.18.62.7.7,0,0,1-.53.23.72.72,0,0,1-.73-.72.84.84,0,0,1,.19-.5,2.85,2.85,0,0,1,2.35-1.06,2.23,2.23,0,0,1,2.49,2.23v0c0,1.21-.62,1.81-1.9,2.8l-1.18.9h2.52a.69.69,0,0,1,0,1.38H15.67a.76.76,0,0,1-.85-.76A1,1,0,0,1,15.23,18Z"/><path d="M9.46,25.14A.22.22,0,0,1,9.37,25a.23.23,0,0,1,.23-.23.25.25,0,0,1,.13,0,2,2,0,0,0,1.13.38c.42,0,.73-.22.73-.56v0c0-.35-.42-.49-.88-.62s-1.18-.35-1.18-1v0a1.08,1.08,0,0,1,1.21-1,2.47,2.47,0,0,1,1.14.31.26.26,0,0,1,.13.22.23.23,0,0,1-.24.22l-.11,0a1.88,1.88,0,0,0-.93-.28c-.42,0-.69.22-.69.52h0c0,.34.44.47.91.61s1.15.38,1.15,1h0c0,.68-.56,1.07-1.27,1.07A2.44,2.44,0,0,1,9.46,25.14Z"/><path d="M12.85,24.58V22.43h-.29a.24.24,0,0,1-.23-.23.23.23,0,0,1,.23-.23h.29v-.84a.26.26,0,0,1,.26-.27.27.27,0,0,1,.27.27V22h.92a.24.24,0,0,1,.24.23.23.23,0,0,1-.24.23h-.92v2.08a.53.53,0,0,0,.6.59,1.34,1.34,0,0,0,.32-.05.23.23,0,0,1,.23.23.23.23,0,0,1-.15.21,1.38,1.38,0,0,1-.52.09A.91.91,0,0,1,12.85,24.58Z"/><path d="M16.55,25.6a1.77,1.77,0,0,1-1.77-1.85h0a1.76,1.76,0,0,1,1.71-1.85,1.67,1.67,0,0,1,1.65,1.8.25.25,0,0,1-.25.25H15.32a1.24,1.24,0,0,0,1.25,1.2,1.44,1.44,0,0,0,1-.41.25.25,0,0,1,.15-.06.23.23,0,0,1,.24.23.25.25,0,0,1-.08.17A1.83,1.83,0,0,1,16.55,25.6Zm1.06-2.05a1.17,1.17,0,0,0-1.14-1.21,1.22,1.22,0,0,0-1.15,1.21Z"/><path d="M18.73,22.2a.27.27,0,1,1,.53,0v.48a1.59,1.59,0,0,1,1.36-.79,1.73,1.73,0,0,1,1.7,1.84v0a1.74,1.74,0,0,1-1.7,1.85,1.59,1.59,0,0,1-1.36-.76v1.55a.26.26,0,0,1-.26.27.27.27,0,0,1-.27-.27Zm3.05,1.55h0a1.29,1.29,0,0,0-1.26-1.38,1.32,1.32,0,0,0-1.28,1.37v0a1.32,1.32,0,0,0,1.28,1.37A1.26,1.26,0,0,0,21.78,23.75Z"/><path d="M22.76,25.14a.22.22,0,0,1-.1-.19.24.24,0,0,1,.24-.23.28.28,0,0,1,.13,0,2,2,0,0,0,1.13.38c.42,0,.73-.22.73-.56v0c0-.35-.42-.49-.88-.62s-1.18-.35-1.18-1v0a1.08,1.08,0,0,1,1.21-1,2.4,2.4,0,0,1,1.13.31.25.25,0,0,1,.14.22.23.23,0,0,1-.24.22l-.12,0a1.82,1.82,0,0,0-.92-.28c-.42,0-.69.22-.69.52h0c0,.34.44.47.91.61s1.14.38,1.14,1h0a1.11,1.11,0,0,1-1.26,1.07A2.44,2.44,0,0,1,22.76,25.14Z"/><circle cx="17.12" cy="58.39" r="1.18"/><circle cx="12.65" cy="62.53" r="1.18"/><circle cx="21.59" cy="62.55" r="1.18"/><circle cx="19.64" cy="69.11" r="1.18"/><circle cx="13.83" cy="69.14" r="1.18"/><circle cx="16.93" cy="63.72" r="1.18"/><circle cx="9.13" cy="66.27" r="1.18"/><circle cx="25.24" cy="67.01" r="1.18"/><path class="cls-3" d="M41.62,69.14s0,0,0,0c7.57,4.72,13.94,4.72,21.67,0"/></svg>