<svg id="Layer_1" data-name="Layer 1" xmlns="http://www.w3.org/2000/svg" viewBox="0 0 100 100"><defs><style>.cls-1,.cls-2,.cls-3{fill:none;}.cls-2,.cls-3{stroke:#000;stroke-miterlimit:10;}.cls-2{stroke-width:4px;}.cls-3{stroke-width:4.66px;}</style></defs><path d="M78.76,26.64a.76.76,0,0,1-.29-.58.71.71,0,0,1,.7-.7.62.62,0,0,1,.43.14,2.83,2.83,0,0,0,1.83.71,1.47,1.47,0,0,0,1.63-1.45v0c0-.86-.72-1.39-1.74-1.39a5.66,5.66,0,0,0-1.44.29,1.19,1.19,0,0,1-.7-.29.72.72,0,0,1-.28-.65l.18-3a.67.67,0,0,1,.67-.66h3.8a.67.67,0,0,1,.66.66.66.66,0,0,1-.66.65H80.4l-.14,2A3.69,3.69,0,0,1,81.6,22c1.64,0,2.92.87,2.92,2.64v0a2.82,2.82,0,0,1-3.07,2.84A4.26,4.26,0,0,1,78.76,26.64Z"/><g id="_254" data-name="254"><rect class="cls-1" x="11.57" y="10.83" width="80" height="80"/></g><g id="_254-2" data-name="254"><path class="cls-2" d="M77.33,35.72H54.87A3.89,3.89,0,0,0,51,40l1,11.47a7.54,7.54,0,0,1,3.51-.88A7.65,7.65,0,0,1,63,56.63a7.6,7.6,0,0,1,5.64,2.87H71.4a3.87,3.87,0,0,1,3.81,4.66c-1.69,7.52-7.37,13.73-15,16.75v2.18a4.31,4.31,0,0,1-3,4.12,3.8,3.8,0,0,0,1.58.35H73.39A3.89,3.89,0,0,0,77.26,84L81.21,40A3.89,3.89,0,0,0,77.33,35.72Z"/><path d="M60.21,52.14A7.65,7.65,0,0,1,63,56.63a7.6,7.6,0,0,1,5.64,2.87H71.4a3.87,3.87,0,0,1,3.81,4.66c-1.69,7.52-7.37,13.73-15,16.75v2.18a4.31,4.31,0,0,1-3,4.12,3.8,3.8,0,0,0,1.58.35H73.39A3.89,3.89,0,0,0,77.26,84l2.86-31.88Z"/><g id="_254-3" data-name="254"><rect class="cls-1" x="19.31" y="31.39" width="57.6" height="57.6"/><path class="cls-3" d="M68.77,59.41a7.67,7.67,0,0,0-6.53-4.22,7.64,7.64,0,0,0-11.45-5,7.64,7.64,0,0,0-14.13,3.65,7.66,7.66,0,0,0-6.83,5.55Z"/><path class="cls-2" d="M38.73,81v2.14a4.32,4.32,0,0,0,4.32,4.32H55.14a4.32,4.32,0,0,0,4.32-4.32V80.91"/><path class="cls-3" d="M49,82.88c12.53,0,23-8,25.37-18.72A3.86,3.86,0,0,0,70.6,59.5H27.49a3.86,3.86,0,0,0-3.81,4.66C26.07,74.84,36.52,82.88,49,82.88Z"/></g><circle class="cls-2" cx="29.54" cy="23.43" r="13.77"/><path d="M21.38,12.35a13.7,13.7,0,0,0-2.92,2.92L37.71,34.52a13.94,13.94,0,0,0,2.92-2.92Z"/></g><path d="M81.69,39A15.88,15.88,0,1,1,97.57,23.08,15.9,15.9,0,0,1,81.69,39Zm0-30.24A14.37,14.37,0,1,0,96.05,23.08,14.37,14.37,0,0,0,81.69,8.72Z"/><path d="M89.78,10.33a15,15,0,0,0-8-2.36v5.59a9.54,9.54,0,0,1,5,1.45Z"/></svg>