<svg id="Layer_1" data-name="Layer 1" xmlns="http://www.w3.org/2000/svg" viewBox="0 0 100 100"><defs><style>.cls-1,.cls-2{fill:none;stroke:#000;stroke-miterlimit:10;}.cls-1{stroke-width:3px;}.cls-2{stroke-width:4px;}</style></defs><g id="_193" data-name="193"><path class="cls-1" d="M25.67,5a2.55,2.55,0,0,1,4.42,0L36.4,15.91l6.31,10.93a2.56,2.56,0,0,1-2.21,3.83H15.26a2.56,2.56,0,0,1-2.21-3.83l6.31-10.93Z"/><path d="M26,10.24a.92.92,0,0,1,.9-1.1h1.84a.94.94,0,0,1,.92,1.1l-.9,10.43a.93.93,0,0,1-.94.92.92.92,0,0,1-.92-.92ZM27.8,23.45a1.75,1.75,0,0,1,1.81,1.77v.25a1.82,1.82,0,0,1-3.63,0v-.25A1.77,1.77,0,0,1,27.8,23.45Z"/></g><path class="cls-2" d="M34.81,67.23a24.43,24.43,0,0,1-3.14-5.89,25.82,25.82,0,0,1-.79-2.58,27,27,0,0,1-.78-6.53c0-15.79,12.8-19.86,28.6-19.86s28.6,4.07,28.6,19.86a26.74,26.74,0,0,1-.64,5.9c-.18.82-.4,1.61-.65,2.39a24.14,24.14,0,0,1-3.42,6.71"/><path d="M57.93,42.21c-18.3.21-27.59,13.91-27.13,17.65,2.87,23.55,14.27,38.43,27.9,38.43,13.82,0,25.35-15.3,28-39.42C87.1,55.43,76.49,42,57.93,42.21ZM54.44,77.74a2.34,2.34,0,1,1,0-3.31A2.33,2.33,0,0,1,54.44,77.74ZM51.55,66.25a3.34,3.34,0,1,1,4.72,0A3.34,3.34,0,0,1,51.55,66.25ZM59.36,84a1.28,1.28,0,1,1-1.82-1.81A1.28,1.28,0,0,1,59.36,84Zm1.69-11a2.3,2.3,0,1,1,3.25,0A2.29,2.29,0,0,1,61.05,73Zm4.45,7.35a1.28,1.28,0,0,1-1.82-1.81,1.28,1.28,0,1,1,1.82,1.81ZM65.38,63a3.13,3.13,0,1,1,0-4.43A3.13,3.13,0,0,1,65.38,63Zm5.11-4.61c-.36,2.39-6.15-5.27-11.52-1.75S47.29,61,46.87,58.74a12,12,0,1,1,23.62-.39Z"/></svg>