<svg id="Layer_1" data-name="Layer 1" xmlns="http://www.w3.org/2000/svg" viewBox="0 0 100 100"><defs><style>.cls-1,.cls-2{fill:none;stroke:#000;stroke-miterlimit:10;stroke-width:4px;}.cls-2{stroke-linecap:round;}</style></defs><circle class="cls-1" cx="24.13" cy="25.53" r="13.77"/><path d="M16,14.45A13.94,13.94,0,0,0,13,17.37L32.29,36.62a13.7,13.7,0,0,0,2.92-2.92Z"/><ellipse class="cls-2" cx="45.51" cy="63.24" rx="33.03" ry="12.41" transform="translate(-31.56 51.82) rotate(-45.83)"/><line class="cls-2" x1="47.93" y1="43.71" x2="55.42" y2="50.99"/><line class="cls-2" x1="41.1" y1="50.6" x2="48.39" y2="57.67"/><line class="cls-2" x1="34.15" y1="57.55" x2="41.42" y2="64.61"/><line class="cls-2" x1="28.68" y1="65.75" x2="33.61" y2="70.54"/><path class="cls-2" d="M76.38,25.83c3.22-2.39,6.23-3.34,7.49-2.12s.47,4-1.58,7.09"/><path class="cls-2" d="M68.51,39.53c-.91-.42,3-6.41.62-13.13-1.58-4.36-5-6.2-4.12-7.08,3.47-3.6,8.3-.46,10.77,3.86C79.53,29.73,68.51,39.53,68.51,39.53Z"/><path class="cls-2" d="M68.59,39.61c.43.89,6.31-3.24,13.1-1,4.41,1.46,6.34,4.8,7.2,3.92,3.49-3.57.22-8.31-4.17-10.66C78.06,28.31,68.59,39.61,68.59,39.61Z"/></svg>