<svg id="Layer_1" data-name="Layer 1" xmlns="http://www.w3.org/2000/svg" viewBox="0 0 100 100"><defs><style>.cls-1{fill:none;}.cls-1,.cls-2{stroke:#000;stroke-linecap:round;stroke-miterlimit:10;stroke-width:4px;}.cls-3{font-size:12px;font-family:GothamRounded-Medium, Gotham Rounded;font-weight:500;}</style></defs><g id="_308" data-name="308"><g id="_3" data-name="3"><path class="cls-1" d="M65.51,85.61A52.92,52.92,0,0,1,46.1,89.12c-19.63,0-35.54-9.68-35.54-21.63S26.47,45.85,46.1,45.85a52.92,52.92,0,0,1,19.41,3.51"/><line class="cls-1" x1="46.38" y1="20.9" x2="46.38" y2="33.33"/><line class="cls-1" x1="64.76" y1="24.02" x2="60.71" y2="35.77"/><line class="cls-1" x1="81.33" y1="30.85" x2="73.68" y2="40.64"/><path class="cls-2" d="M53,67.49A19.28,19.28,0,0,1,56.11,56.9h0a14.2,14.2,0,1,0,.52,21.94h0A19.24,19.24,0,0,1,53,67.49Z"/></g></g><path d="M19.8,41.36A15.88,15.88,0,1,1,35.68,25.48,15.9,15.9,0,0,1,19.8,41.36Zm0-30.24A14.36,14.36,0,1,0,34.17,25.48,14.37,14.37,0,0,0,19.8,11.12Z"/><text class="cls-3" transform="translate(12.44 29.8)">15</text><path d="M19.88,10.36V16a9.53,9.53,0,0,1,9.45,9.52h5.59A15.12,15.12,0,0,0,19.88,10.36Z"/><circle class="cls-1" cx="75.5" cy="66.63" r="19.35"/></svg>