<svg id="Layer_1" data-name="Layer 1" xmlns="http://www.w3.org/2000/svg" viewBox="0 0 100 100"><defs><style>.cls-1{fill:none;}.cls-1,.cls-2{stroke:#000;stroke-linecap:round;stroke-miterlimit:10;stroke-width:4px;}</style></defs><path class="cls-1" d="M86,93.74c2.28-15.95,5.57-41,5.26-49.95-.46-13.58-3.64-16.27-3.64-21.86a32.7,32.7,0,0,1,2.45-11.37"/><path class="cls-1" d="M15.72,93.74c-2.27-15.95-5.56-41-5.26-49.95a32.75,32.75,0,0,1,.91-7.91c1.29-4.25,2.06-7.8,1.55-11.82L10.05,12.58"/><path class="cls-2" d="M91.25,43.79s-26.64,6-40.79,6c-14,0-40-6-40-6-.3,9,3,34,5.26,49.95H46.57l5.09-12.82,5.59,12.82H86C88.27,77.79,91.56,52.77,91.25,43.79Z"/><rect class="cls-2" x="53.4" y="4.34" width="29.61" height="18.56" rx="7.1" transform="translate(0.64 -2.87) rotate(2.42)"/></svg>