<svg id="Layer_1" data-name="Layer 1" xmlns="http://www.w3.org/2000/svg" viewBox="0 0 100 100"><defs><style>.cls-1,.cls-2,.cls-3,.cls-5,.cls-6{fill:none;}.cls-1,.cls-2,.cls-3,.cls-4,.cls-5,.cls-6{stroke:#000;}.cls-1,.cls-2,.cls-3,.cls-4,.cls-6{stroke-miterlimit:10;}.cls-1{stroke-width:3px;}.cls-2,.cls-5,.cls-6{stroke-width:4px;}.cls-3,.cls-4{stroke-width:2.88px;}.cls-5{stroke-linejoin:round;}.cls-6{stroke-linecap:round;}</style></defs><g id="_193" data-name="193"><path class="cls-1" d="M16.94,13.21a2.2,2.2,0,0,1,3.8,0l5.43,9.4L31.59,32a2.19,2.19,0,0,1-1.9,3.29H8A2.19,2.19,0,0,1,6.09,32l5.42-9.4Z"/><path d="M17.21,17.73a.79.79,0,0,1,.77-.95h1.58a.82.82,0,0,1,.79.95l-.77,9a.8.8,0,0,1-.81.79A.78.78,0,0,1,18,26.7Zm1.56,11.36a1.5,1.5,0,0,1,1.56,1.52v.22a1.56,1.56,0,0,1-3.12,0v-.22A1.52,1.52,0,0,1,18.77,29.09Z"/></g><path class="cls-2" d="M21.56,85.11H14.35a1.93,1.93,0,0,1-1.92-1.75L10.48,61.53a1.92,1.92,0,0,1,1.91-2.1H23.52a1.93,1.93,0,0,1,1.92,2.1l-2,21.83A1.93,1.93,0,0,1,21.56,85.11Z"/><path d="M11,67.57l1.41,15.79a1.93,1.93,0,0,0,1.92,1.75h7.21a1.93,1.93,0,0,0,1.92-1.75L24.9,67.57Z"/><path class="cls-3" d="M46.7,56.14c-3-4.51-.06-8.07,4.46-11s8.93-4.19,11.89.32,1.24,9.89-3.27,12.85S49.65,60.66,46.7,56.14Z"/><path class="cls-4" d="M54.85,51.15c7.67-.26,8.87-4.57,9.09-4,1.59,4.09-.21,8.53-4.16,11.12s-8.61,2.46-11.73-.51C47.56,57.31,48.92,51.35,54.85,51.15Z"/><path class="cls-5" d="M66.33,35.5c-6-10.11-18.06-14-26.87-8.8s-11.07,17.72-5,27.83c4.15,7,11.41,11.45,18.41,11.87h0a8.94,8.94,0,1,0,15.35-9.15l-.07-.12C71,50.81,70.44,42.39,66.33,35.5Z"/><path class="cls-6" d="M26.34,82.27s.77-6.9,5-9.58,21.12-6.43,21.12-6.43"/><path class="cls-6" d="M92.57,82.27s-.77-6.9-5-9.58-19.17-6.35-19.17-6.35"/><path class="cls-6" d="M75.3,49.81c6.27,5.18,6.93,11.68,6.9,12.56"/><polyline class="cls-6" points="77.06 59.84 82.87 62.95 85.67 57.34"/></svg>