<?xml version="1.0" encoding="utf-8"?>
<!-- Generator: Adobe Illustrator 24.0.0, SVG Export Plug-In . SVG Version: 6.00 Build 0)  -->
<svg version="1.1" id="Layer_1" xmlns="http://www.w3.org/2000/svg" xmlns:xlink="http://www.w3.org/1999/xlink" x="0px" y="0px"
	 viewBox="0 0 100 100" style="enable-background:new 0 0 100 100;" xml:space="preserve">
<g>
	<path d="M35.6,15.5C35.6,15.5,35.6,15.5,35.6,15.5c-5.5,0-10,4.5-10,10c0,1.1,0.9,2,2,2s2-0.9,2-2c0-3.3,2.7-6,6-6c1.1,0,2-0.9,2-2
		C37.6,16.4,36.7,15.5,35.6,15.5z"/>
	<path d="M20.3,26.3c1.1,0,2-0.9,2-2c0-7.1,5.7-12.8,12.8-12.8c1.1,0,2-0.9,2-2s-0.9-2-2-2c-9.3,0-16.8,7.5-16.8,16.8
		C18.3,25.4,19.2,26.3,20.3,26.3z"/>
	<path d="M74.6,79.7c0-1.1-0.9-2-2-2c-1.2,0-2,0.9-2,2c0,3.3-2.7,6-6,6c-1.1,0-2,0.9-2,2s0.9,2,2,2C70.1,89.6,74.6,85.2,74.6,79.7z"
		/>
	<path d="M80.6,78.2C80.6,78.2,80.6,78.2,80.6,78.2c-1.1,0-2,0.9-2,2c0,7-5.8,12.8-12.8,12.8c-1.1,0-2,0.9-2,2s0.9,2,2,2
		c9.2,0,16.8-7.5,16.8-16.8C82.6,79.1,81.7,78.2,80.6,78.2z"/>
	<path d="M75.6,28.7l3.6-5.8c1.3-2.1,0.6-4.8-1.4-6.1l-7.4-4.7c0,0,0,0,0,0c-2.1-1.3-4.8-0.6-6.1,1.5l-3.5,5.7
		c-5.7-3.4-13.2-1.7-16.8,4L17.7,64.7c-3.6,5.7-2,13.2,3.6,16.9L36,90.9c2,1.3,4.3,1.9,6.6,1.9c0.9,0,1.8-0.1,2.7-0.3
		c3.1-0.7,5.8-2.6,7.6-5.3l26.3-41.7C82.9,39.9,81.2,32.4,75.6,28.7z M72.4,46.4l-21,33.2L25.1,63l21-33.2L72.4,46.4z"/>
</g>
</svg>
