<?xml version="1.0" encoding="utf-8"?>
<!-- Generator: Adobe Illustrator 24.2.3, SVG Export Plug-In . SVG Version: 6.00 Build 0)  -->
<svg version="1.1" id="Layer_1" xmlns="http://www.w3.org/2000/svg" xmlns:xlink="http://www.w3.org/1999/xlink" x="0px" y="0px"
	 viewBox="0 0 100 100" style="enable-background:new 0 0 100 100;" xml:space="preserve">
<g>
	<path d="M44,26.1L31.4,4.3c-0.4-0.6-0.9-1.1-1.5-1.5c-1.9-1.1-4.4-0.4-5.5,1.5L11.7,26.1c-0.3,0.6-0.5,1.3-0.5,2
		c0,1.1,0.4,2.1,1.2,2.9c0.8,0.8,1.8,1.2,2.9,1.2h25.2c0.7,0,1.4-0.2,2-0.5c0.9-0.5,1.6-1.4,1.9-2.5C44.7,28.1,44.6,27,44,26.1z
		 M41.5,28.4c-0.1,0.3-0.3,0.5-0.5,0.6c-0.2,0.1-0.3,0.1-0.5,0.1H15.3c-0.3,0-0.5-0.1-0.7-0.3s-0.3-0.5-0.3-0.8c0-0.2,0-0.4,0.1-0.5
		L27,5.8l0,0c0.1-0.2,0.4-0.4,0.6-0.5c0.1,0,0.2,0,0.3,0c0.2,0,0.4,0,0.5,0.1c0.2,0.1,0.3,0.2,0.4,0.4l12.6,21.8
		C41.5,27.8,41.6,28.1,41.5,28.4z"/>
	<path d="M27.8,23.5C27.8,23.4,27.8,23.4,27.8,23.5c-1,0-1.8,0.8-1.8,1.8v0.2c0.1,0.9,0.8,1.6,1.7,1.7c1,0.1,1.9-0.7,1.9-1.7v-0.2
		c0,0,0-0.1,0-0.1C29.6,24.2,28.8,23.4,27.8,23.5z"/>
	<path d="M28.7,9.1h-1.8c-0.1,0-0.1,0-0.2,0c-0.5,0.1-0.8,0.6-0.7,1.1l0.9,10.4c0,0.5,0.4,0.9,0.9,0.9c0,0,0,0,0,0
		c0.5,0,0.9-0.4,0.9-0.9l0.9-10.4c0-0.1,0-0.1,0-0.2C29.7,9.6,29.3,9.1,28.7,9.1z"/>
</g>
<path d="M58.7,30.4c-3.8,0-11.4,0-18.1,2.7s-12.5,8.2-12.5,19.1c0,2.4,0.3,4.7,0.8,7c0.2,0.9,0.5,1.9,0.9,2.8c0.5,1.5,1.2,2.9,2,4.3
	c4,19.8,14.5,32,26.9,32c12.3,0,22.8-12.2,26.8-31.9c1-1.7,1.8-3.4,2.4-5.2c0.3-0.9,0.5-1.7,0.7-2.6c0.5-2.1,0.7-4.2,0.7-6.3
	C89.3,30.4,66.3,30.4,58.7,30.4z M54.5,77.7C54.4,77.7,54.4,77.7,54.5,77.7c-0.9,0.9-2.4,0.9-3.3,0c-0.9-0.9-0.9-2.4,0-3.3
	c0.9-0.9,2.4-0.9,3.3,0C55.4,75.3,55.4,76.8,54.5,77.7z M56.3,66.2c-1.3,1.3-3.4,1.3-4.7,0c-1.3-1.3-1.3-3.4,0-4.7
	c1.3-1.3,3.4-1.3,4.7,0S57.6,64.9,56.3,66.2C56.3,66.2,56.3,66.2,56.3,66.2z M59.4,84c-0.5,0.5-1.3,0.5-1.8,0
	c-0.5-0.5-0.5-1.3,0-1.8s1.3-0.5,1.8,0C59.9,82.7,59.9,83.5,59.4,84z M61.1,73C61.1,73,61.1,73,61.1,73c-0.9-0.9-0.9-2.4,0-3.3
	s2.4-0.9,3.3,0c0.9,0.9,0.9,2.4,0,3.3c0,0,0,0,0,0C63.4,73.9,62,73.9,61.1,73z M65.5,80.3c-0.5,0.5-1.3,0.5-1.8,0s-0.5-1.3,0-1.8
	c0.5-0.5,1.3-0.5,1.8,0S66,79.8,65.5,80.3z M65.4,63C65.4,63,65.4,63,65.4,63c-1.2,1.2-3.2,1.2-4.4,0c-1.2-1.2-1.2-3.2,0-4.4
	c1.2-1.2,3.2-1.2,4.4,0C66.6,59.8,66.6,61.8,65.4,63z M70.5,58.3L70.5,58.3c-0.4,2.4-6.1-5.2-11.5-1.7c-5.4,3.5-11.7,4.4-12.1,2.1
	c-1.3-6.5,3-12.8,9.5-14.1c6.5-1.3,12.8,3,14.1,9.5C70.7,55.5,70.7,56.9,70.5,58.3z M57.9,42.2c-13.7,0.2-22.3,7.8-25.6,13.3
	c-0.1-1.1-0.2-2.2-0.2-3.3c0-12.4,8.2-17.9,26.6-17.9c18.4,0,26.6,5.5,26.6,17.9c0,0.9,0,1.9-0.2,2.8C81.6,49.8,72.1,42,57.9,42.2z"
	/>
</svg>
