<?xml version="1.0" encoding="utf-8"?>
<!-- Generator: Adobe Illustrator 24.0.0, SVG Export Plug-In . SVG Version: 6.00 Build 0)  -->
<svg version="1.1" id="Layer_1" xmlns="http://www.w3.org/2000/svg" xmlns:xlink="http://www.w3.org/1999/xlink" x="0px" y="0px"
	 viewBox="0 0 100 100" style="enable-background:new 0 0 100 100;" xml:space="preserve">
<g>
	<path d="M51.7,17.1c0.9,0,1.5-0.7,1.5-1.5c0-0.9-0.7-1.5-1.5-1.5c-0.9,0-1.6,0.7-1.6,1.5C50.2,16.4,50.9,17.1,51.7,17.1z"/>
	<path d="M44.3,20.9c0,0.9,0.7,1.5,1.5,1.5c0.9,0,1.6-0.7,1.6-1.5c0-0.8-0.7-1.5-1.6-1.5C45,19.4,44.3,20.1,44.3,20.9z"/>
	<path d="M57.6,22.5c0.9,0,1.5-0.7,1.5-1.5c0-0.9-0.7-1.6-1.5-1.6c-0.9,0-1.6,0.7-1.6,1.6C56,21.8,56.7,22.5,57.6,22.5z"/>
	<path d="M55,31.1c0.9,0,1.5-0.7,1.5-1.5c0-0.9-0.7-1.5-1.5-1.5c-0.9,0-1.6,0.7-1.6,1.5C53.5,30.4,54.2,31.1,55,31.1z"/>
	<path d="M45.9,29.6c0,0.9,0.7,1.5,1.5,1.5c0.9,0,1.6-0.7,1.6-1.5c0-0.8-0.7-1.5-1.6-1.5C46.6,28.1,45.9,28.8,45.9,29.6z"/>
	<path d="M51.5,24.1c0.9,0,1.5-0.7,1.5-1.5c0-0.9-0.7-1.5-1.5-1.5c-0.9,0-1.6,0.7-1.6,1.5C49.9,23.4,50.6,24.1,51.5,24.1z"/>
	<path d="M39.7,25.8c0,0.9,0.7,1.6,1.5,1.6c0.9,0,1.5-0.7,1.5-1.6c0-0.9-0.7-1.5-1.5-1.5S39.7,25,39.7,25.8z"/>
	<circle cx="62.4" cy="26.8" r="1.5"/>
	<path d="M82.8,50.2c-0.5-0.1-1-0.2-1.5-0.2H80c-1.9-3.1-5.1-5.3-8.7-5.8c-2-6-8.2-9.7-14.6-8.3c-0.8,0.2-1.6,0.4-2.3,0.7
		c-1.7-2.1-4.1-3.5-6.8-4.1c-3.3-0.8-6.7-0.2-9.5,1.6c-3,1.9-5.1,5-5.8,8.4c-4.1,0.9-7.6,3.7-9.1,7.6h-1.8c-4,0-7.3,3.3-7.4,7.3
		c0,0.5,0,1,0.2,1.6C16.6,69.8,24.5,78.6,35,83.2v1.7c0,4.4,3.6,8,8,8h16.8c4.4,0,8-3.6,8-8v-1.8C78.2,78.5,86.1,69.7,88.5,59
		C89.4,55,86.8,51,82.8,50.2z M34.3,46.2l1.8-0.1l0.1-1.8c0.1-2.8,1.7-5.4,4.1-6.9c2-1.2,4.3-1.6,6.5-1.1s4.1,1.9,5.4,3.8l1,1.7
		l1.7-1c0.8-0.5,1.7-0.9,2.7-1.1c4.7-1,9.2,2,10.2,6.7L68,48l1.6,0.1c1.9,0.1,3.6,0.7,5,1.9H27.8C29.3,47.8,31.6,46.4,34.3,46.2z
		 M63.8,84.9c0,2.2-1.8,4-4,4H43c-2.2,0-4-1.8-4-4v-0.2c3.9,1.2,8,1.9,12.3,1.9s8.5-0.7,12.5-1.9V84.9z M84.6,58.1
		c-3.2,14.2-17.2,24.4-33.3,24.4c-16.1,0-30.1-10.3-33.3-24.4c0-0.2-0.1-0.5-0.1-0.7c0-1.9,1.5-3.3,3.4-3.3h59.9
		c0.2,0,0.5,0,0.7,0.1C83.8,54.5,85,56.3,84.6,58.1z"/>
	<path d="M29.7,19.7l7.4,5.7l8.8-11.3l-7.4-5.7c-3-2.4-7.4-1.9-9.8,1.2L28.3,10C26,13,26.6,17.4,29.7,19.7z M31.5,12.4l0.3-0.3
		c0.6-0.7,1.5-1.1,2.3-1.1c0.7,0,1.3,0.2,1.9,0.7l4.3,3.2l-3.9,5l-4.2-3.3C30.8,15.5,30.5,13.7,31.5,12.4z"/>
	<path d="M72.5,19.5c3-2.3,3.6-6.7,1.3-9.8l-0.3-0.4c-2.4-3-6.8-3.5-9.8-1.2l-7.3,5.7l8.7,11.3L72.5,19.5z"/>
</g>
</svg>
