<svg id="Layer_1" data-name="Layer 1" xmlns="http://www.w3.org/2000/svg" viewBox="0 0 100 100"><defs><style>.cls-1,.cls-2{fill:none;stroke:#000;stroke-miterlimit:10;}.cls-1{stroke-width:4px;}.cls-2{stroke-width:3px;}.cls-3{font-size:12px;}.cls-3,.cls-4{font-family:GothamRounded-Bold, Gotham Rounded;font-weight:700;}.cls-4{font-size:8px;letter-spacing:-0.05em;}</style></defs><circle class="cls-1" cx="22.64" cy="24.29" r="13.77"/><path d="M14.48,13.21a13.48,13.48,0,0,0-2.92,2.92L30.81,35.38a13.94,13.94,0,0,0,2.92-2.92Z"/><circle class="cls-2" cx="77.51" cy="23.99" r="13.77"/><text class="cls-3" transform="translate(73.99 24.12)">4</text><text class="cls-4" transform="translate(72.01 31.08)">hrs</text><circle class="cls-2" cx="77.51" cy="75.17" r="13.77"/><text class="cls-3" transform="translate(73.99 75.29)">8</text><text class="cls-4" transform="translate(72.01 82.26)">hrs</text><path d="M61.29,49.53l-2.7-6.44h0V35a3.77,3.77,0,0,0-3.77-3.77H27.36A3.77,3.77,0,0,0,23.59,35v8.13l-2.51,6.59a10.75,10.75,0,0,0-.71,3.84v32.3a3.7,3.7,0,0,0,3.7,3.7H58.43a3.7,3.7,0,0,0,3.7-3.7V53.71A10.72,10.72,0,0,0,61.29,49.53ZM56.86,76.89a3.7,3.7,0,0,1-3.7,3.7H29.35a3.7,3.7,0,0,1-3.71-3.7v-18a3.71,3.71,0,0,1,3.71-3.71H53.16a3.71,3.71,0,0,1,3.7,3.71Z"/><path d="M32.89,63A1.08,1.08,0,0,1,34,61.92h3.4a3.92,3.92,0,0,1,2.86,1,3.07,3.07,0,0,1,.84,2.24v0a3,3,0,0,1-2,3L40.61,70a1.27,1.27,0,0,1,.35.83,1,1,0,0,1-1,1,1.29,1.29,0,0,1-1.07-.56l-2.1-2.66H35.05v2.15a1.08,1.08,0,0,1-2.16,0Zm4.34,3.69c1.05,0,1.66-.56,1.66-1.39v0c0-.92-.65-1.4-1.7-1.4H35.05v2.82Z"/><path d="M46.21,71.9A3.75,3.75,0,0,1,42.29,68v0A3.74,3.74,0,0,1,46,64.08a3.55,3.55,0,0,1,3.61,3.62,1,1,0,0,1-1,1H44.4a1.74,1.74,0,0,0,1.84,1.47,2.49,2.49,0,0,0,1.51-.5.74.74,0,0,1,.52-.17A.84.84,0,0,1,48.81,71,3.88,3.88,0,0,1,46.21,71.9Zm1.37-4.51A1.62,1.62,0,0,0,46,65.79a1.68,1.68,0,0,0-1.63,1.6Z"/></svg>