<?xml version="1.0" encoding="utf-8"?>
<!-- Generator: Adobe Illustrator 24.0.0, SVG Export Plug-In . SVG Version: 6.00 Build 0)  -->
<svg version="1.1" id="Layer_1" xmlns="http://www.w3.org/2000/svg" xmlns:xlink="http://www.w3.org/1999/xlink" x="0px" y="0px"
	 viewBox="0 0 100 100" style="enable-background:new 0 0 100 100;" xml:space="preserve">
<g>
	<path d="M75.7,43.3c8.8,0,15.9-7.1,15.9-15.9c0-8.8-7.1-15.9-15.9-15.9c-8.8,0-15.9,7.1-15.9,15.9C59.8,36.2,66.9,43.3,75.7,43.3z
		 M75.7,13.1C75.7,13.1,75.7,13.1,75.7,13.1l0.1,4.8c5.3,0.2,9.4,4.6,9.2,9.8c-0.2,5-4.2,9.1-9.2,9.2v4.8c-0.1,0-0.1,0-0.2,0
		c-7.9,0-14.4-6.5-14.3-14.4C61.3,19.5,67.7,13.1,75.7,13.1z"/>
	<path d="M71.4,30.2c-0.7,0-1.3-0.3-1.8-0.8c-0.1-0.1-0.3-0.2-0.5-0.2c-0.4,0-0.7,0.3-0.7,0.7c0,0.2,0.1,0.4,0.2,0.5
		c0.7,0.7,1.7,1,2.7,1c0.1,0,0.1,0,0.2,0c1.4,0,2.5-1.1,2.6-2.5c0-1.5-1.1-2.1-2.3-2.2l1.9-1.9c0.2-0.2,0.4-0.5,0.4-0.8
		c0,0,0,0,0-0.1c0-0.3-0.4-0.6-0.7-0.6h-4.1c-0.1,0-0.1,0-0.2,0c-0.3,0-0.6,0.3-0.5,0.7c0,0.3,0.3,0.6,0.7,0.5h2.9l-1.9,2
		c-0.2,0.1-0.3,0.3-0.3,0.6c0,0.3,0.3,0.6,0.6,0.6h0.3c1.1,0,1.8,0.4,1.8,1.2c0,0,0,0.1,0,0.1C72.7,29.8,72.1,30.3,71.4,30.2z"/>
	<path d="M79,31.5c2.1,0,3.5-1.8,3.5-4.1c0-2.3-1.4-4.1-3.4-4.1c-2.1,0-3.5,1.8-3.5,4.1C75.5,29.7,76.9,31.5,79,31.5z M79,24.6
		c1.2,0,2,1.3,2,2.8h0c0,1.6-0.8,2.8-2,2.8c-1.2,0-2-1.3-2-2.8C77,25.8,77.8,24.6,79,24.6z"/>
	<path d="M87.8,62.5L73.4,47.7c-1.5-1.6-3.6-2.4-5.7-2.4H45.8c-3.7,0-6.8,2.5-7.7,5.9c-1.2-2.5-3.8-4.3-6.8-4.3
		c-4.2,0-7.5,3.4-7.5,7.5c0,3.5,1.6,6.5,5.3,7.3h-1.8c-2.2,0-4-1.8-4-4V42.8c0-0.1,0-0.3,0-0.4c1.3,0.3,2.6,0.5,4,0.5
		c8.7,0,15.8-7.1,15.8-15.8s-7.1-15.8-15.8-15.8s-15.8,7.1-15.8,15.8c0,3.4,1.1,6.6,3,9.2c-2.7,0.9-4.7,3.4-4.7,6.4v45.5h4v-9.8
		h74.5v9.8h4V69.7C92.2,66.5,90.4,63.8,87.8,62.5z M41.8,53.2c0-2.2,1.8-4,4-4h21.9c1.1,0,2.1,0.4,2.9,1.2l10.9,11.2H41.8L41.8,53.2
		L41.8,53.2z M39,27.1c0,2.5-0.8,4.8-2.1,6.7L20.5,17.5c1.9-1.3,4.2-2.1,6.7-2.1C33.7,15.4,39,20.6,39,27.1z M17.5,20.4l16.4,16.4
		c-1.9,1.3-4.2,2.1-6.7,2.1c-6.5,0-11.8-5.3-11.8-11.8C15.4,24.6,16.2,22.3,17.5,20.4z M88.3,74.5H13.8V42.8c0-1.5,1.2-2.7,2.7-2.7
		c1.5,0,2.7,1.2,2.7,2.7v14.9c0,4.4,3.6,8,8,8c0,0,0,0,0,0h10.5h2l46,0.3c1.4,0.6,2.5,2,2.5,3.7V74.5z"/>
</g>
</svg>
