<svg id="Layer_1" data-name="Layer 1" xmlns="http://www.w3.org/2000/svg" viewBox="0 0 100 100"><defs><style>.cls-1,.cls-2{fill:none;stroke:#000;stroke-width:4px;}.cls-1{stroke-linejoin:round;}.cls-2{stroke-linecap:round;stroke-miterlimit:10;}</style></defs><line class="cls-1" x1="39.21" y1="60.17" x2="39.21" y2="76.06"/><circle class="cls-1" cx="39.21" cy="80.05" r="4.62"/><path class="cls-1" d="M66,83.24h1.43a1.39,1.39,0,0,0,1.39-1.39V79.18a7.24,7.24,0,0,0-3.73-6.32l-3.62-2V61.67h0v9.19l-3.62,2a7.24,7.24,0,0,0-3.73,6.32v2.67a1.39,1.39,0,0,0,1.39,1.39H56.9"/><path class="cls-1" d="M71.65,33.05c0-13.55-9.57-24.54-21.38-24.54s-21.38,11-21.38,24.54c0,9.32,4.53,18,11.2,22.58v0c0,5.68,4.61,12.5,10.28,12.5s10.29-6.82,10.29-12.5c0,0,0-.11,0-.16C67.21,50.91,71.65,42.28,71.65,33.05Z"/><path class="cls-2" d="M40.72,59S23.51,63.21,18.66,66.3s-5.73,11-5.73,11L10.65,90.2"/><path class="cls-2" d="M60.57,59s17.21,4.23,22.06,7.32,5.73,11,5.73,11l2.07,12.41"/><path class="cls-1" d="M40.27,55.85s0,0,0,0c7.06,4.41,13,4.41,20.22,0"/></svg>