<?xml version="1.0" encoding="utf-8"?>
<!-- Generator: Adobe Illustrator 24.0.0, SVG Export Plug-In . SVG Version: 6.00 Build 0)  -->
<svg version="1.1" id="Layer_1" xmlns="http://www.w3.org/2000/svg" xmlns:xlink="http://www.w3.org/1999/xlink" x="0px" y="0px"
	 viewBox="0 0 100 100" style="enable-background:new 0 0 100 100;" xml:space="preserve">
<g>
	<path d="M65.5,15.3L65.5,15.3H34.3c-0.2,0-0.4,0-0.7,0c-2,0.2-3.7,1.1-5,2.6c-1.3,1.5-1.9,3.4-1.7,5.4l5.5,61.2
		c0.3,3.8,3.5,6.7,7.4,6.7c0,0,0,0,0,0H60c0,0,0,0,0,0c3.9,0,7-2.9,7.4-6.7l5.5-61.2c0-0.2,0-0.4,0-0.7
		C72.9,18.6,69.6,15.3,65.5,15.3z M31.7,20.5c0.6-0.7,1.4-1.1,2.3-1.2c0.1,0,0.2,0,0.3,0h31.2c1.9,0,3.4,1.5,3.4,3.4
		c0,0.1,0,0.2,0,0.3l-1.5,17.1H32.4L30.9,23C30.8,22.1,31.1,21.2,31.7,20.5z M52.9,58.3c1.2,0.5,1.7,1.8,1.2,2.9
		c-0.5,1.2-1.8,1.7-2.9,1.2c-1.2-0.5-1.7-1.8-1.2-2.9C50.5,58.4,51.8,57.8,52.9,58.3z M51.5,47.3c0-0.7,0.6-1.3,1.3-1.3
		s1.3,0.6,1.3,1.3c0,0.7-0.6,1.3-1.3,1.3S51.5,48,51.5,47.3z M50.5,69.8c2.8,0,5.1,2.3,5.1,5.2c0,2.8-2.3,5.1-5.2,5.1h0
		c-2.8,0-5.1-2.4-5.1-5.2C45.3,72.1,47.6,69.8,50.5,69.8z M46,55.6C46,55.6,46,55.6,46,55.6c-1,0-1.8-0.8-1.8-1.8h0
		c0-1,0.8-1.9,1.8-1.9c1,0,1.9,0.8,1.9,1.8C47.9,54.7,47.1,55.6,46,55.6z"/>
	<circle cx="46.9" cy="36.2" r="1.3"/>
	<path d="M48.9,30.4c0.7,0,1.3-0.6,1.3-1.3c0-0.7-0.6-1.3-1.3-1.3c-0.7,0-1.3,0.6-1.3,1.3C47.6,29.9,48.2,30.4,48.9,30.4z"/>
	<path d="M44.1,26.2c0.7,0,1.3-0.6,1.3-1.3c0-0.7-0.6-1.3-1.3-1.3c-0.7,0-1.3,0.6-1.3,1.3C42.8,25.7,43.4,26.2,44.1,26.2z"/>
	<circle cx="51.9" cy="34.5" r="1.3"/>
</g>
</svg>
