<svg id="Layer_1" data-name="Layer 1" xmlns="http://www.w3.org/2000/svg" viewBox="0 0 100 100"><defs><style>.cls-1,.cls-2,.cls-3{fill:none;}.cls-2,.cls-3{stroke:#000;stroke-miterlimit:10;stroke-width:4px;}.cls-2{stroke-linecap:round;}</style></defs><g id="_254" data-name="254"><rect class="cls-1" x="39.4" y="41.64" width="47.41" height="47.41"/><path class="cls-2" d="M80.11,64.7a6.29,6.29,0,0,0-5.37-3.47,6.32,6.32,0,0,0-6.17-5,6.22,6.22,0,0,0-3.26.91,6.29,6.29,0,0,0-11.63,3,6.28,6.28,0,0,0-5.62,4.56Z"/><path class="cls-3" d="M55.39,82.43v1.76a3.55,3.55,0,0,0,3.55,3.56h10a3.56,3.56,0,0,0,3.56-3.56V82.4"/><path class="cls-3" d="M63.88,84c10.31,0,18.91-6.62,20.88-15.41a3.19,3.19,0,0,0-3.14-3.84H46.13A3.18,3.18,0,0,0,43,68.61C45,77.4,53.57,84,63.88,84Z"/></g><path class="cls-3" d="M32.53,88.59h-12a3.21,3.21,0,0,1-3.19-2.92L14.07,49.33a3.2,3.2,0,0,1,3.2-3.49H35.79A3.2,3.2,0,0,1,39,49.33L35.73,85.67A3.22,3.22,0,0,1,32.53,88.59Z"/><path d="M15.61,62.51l2.06,23a2.81,2.81,0,0,0,2.8,2.56H31a2.81,2.81,0,0,0,2.8-2.56l2.06-23Zm6.31,13H19.35a.5.5,0,0,1-.56-.49.66.66,0,0,1,.27-.52l1.35-1.1c.58-.48.81-.74.81-1.13a.58.58,0,0,0-.63-.62,1,1,0,0,0-.77.41.46.46,0,0,1-.35.15.47.47,0,0,1-.47-.47.45.45,0,0,1,.12-.32,1.86,1.86,0,0,1,1.54-.7,1.45,1.45,0,0,1,1.62,1.46h0c0,.79-.4,1.18-1.24,1.83l-.77.59h1.65a.45.45,0,1,1,0,.9Zm7-1.8a2,2,0,0,1-3.91,0h0a2,2,0,0,1,3.91,0Zm3.67-1.38a.66.66,0,0,1-.23.49l-1.68,1.86h1.49a.42.42,0,0,1,.42.42.41.41,0,0,1-.42.41h-2.3a.44.44,0,0,1-.5-.41v0a.63.63,0,0,1,.23-.5l1.68-1.86H29.85a.41.41,0,0,1-.42-.41.42.42,0,0,1,.42-.42h2.24a.45.45,0,0,1,.5.42Zm1.24,3.22a.57.57,0,0,1-.59-.57v0a.59.59,0,0,1,1.18,0v0A.57.57,0,0,1,33.83,75.58Z"/><path d="M27,72.74a.93.93,0,0,0-.94,1h0a1,1,0,0,0,.95,1,.93.93,0,0,0,.94-1h0A1,1,0,0,0,27,72.74Z"/><circle class="cls-3" cx="24.01" cy="24.96" r="13.77"/><path d="M14.79,27.08l2.19-5a.88.88,0,0,1,.81-.55h.09a.86.86,0,0,1,.8.55l2.19,5a.63.63,0,0,1,.08.28.66.66,0,0,1-.66.67.71.71,0,0,1-.67-.48l-.42-1H16.43l-.44,1a.69.69,0,0,1-.64.43.64.64,0,0,1-.64-.65A.67.67,0,0,1,14.79,27.08Zm3.9-1.74-.88-2.08-.87,2.08Z"/><path d="M22.56,26.48a.76.76,0,0,1,.79.77h0a.76.76,0,0,1-.79.77.75.75,0,0,1-.78-.77h0A.75.75,0,0,1,22.56,26.48Z"/><path d="M24.61,22.33a.68.68,0,0,1,.69-.69h.15a.7.7,0,0,1,.63.36l1.68,2.73L29.44,22a.67.67,0,0,1,.62-.35h.16a.69.69,0,0,1,.69.69v5a.69.69,0,1,1-1.38,0V24.19l-1.21,1.88a.66.66,0,0,1-1.16,0L26,24.22v3.13a.68.68,0,0,1-.69.68.67.67,0,0,1-.67-.68Z"/><path d="M33,26.48a.75.75,0,0,1,.78.77h0a.78.78,0,0,1-1.56,0h0A.75.75,0,0,1,33,26.48Z"/><path d="M74.26,42.31A15.88,15.88,0,1,1,90.13,26.43,15.9,15.9,0,0,1,74.26,42.31Zm0-30.24A14.36,14.36,0,1,0,88.62,26.43,14.38,14.38,0,0,0,74.26,12.07Z"/><path d="M74.33,11.31v5.6a9.52,9.52,0,0,1,0,19v5.6a15.12,15.12,0,0,0,0-30.24Z"/><path d="M67.27,29.44a.69.69,0,0,1-.22-.5.67.67,0,0,1,1.13-.49,2.4,2.4,0,0,0,1.8.76A1.24,1.24,0,0,0,71.35,28v0c0-.79-.71-1.23-1.82-1.23h-.29a.61.61,0,0,1-.6-.6.8.8,0,0,1,.3-.57l1.86-2H67.92a.61.61,0,1,1,0-1.21H72a.62.62,0,0,1,.69.61,1,1,0,0,1-.4.76L70.4,25.71c1.2.15,2.34.76,2.34,2.22v0A2.54,2.54,0,0,1,70,30.47,3.74,3.74,0,0,1,67.27,29.44Z"/><path d="M74.09,26.39v0c0-2.27,1.38-4.11,3.47-4.11S81,24.07,81,26.34v0c0,2.26-1.38,4.1-3.47,4.1S74.09,28.66,74.09,26.39Zm5.47,0v0c0-1.57-.8-2.85-2-2.85s-2,1.25-2,2.82v0c0,1.56.79,2.84,2,2.84S79.56,27.94,79.56,26.39Z"/></svg>