<?xml version="1.0" encoding="utf-8"?>
<!-- Generator: Adobe Illustrator 24.2.3, SVG Export Plug-In . SVG Version: 6.00 Build 0)  -->
<svg version="1.1" id="Layer_1" xmlns="http://www.w3.org/2000/svg" xmlns:xlink="http://www.w3.org/1999/xlink" x="0px" y="0px"
	 viewBox="0 0 100 100" style="enable-background:new 0 0 100 100;" xml:space="preserve">
<path d="M22.6,8.5c-8.7,0-15.8,7.1-15.8,15.8s7.1,15.8,15.8,15.8S38.4,33,38.4,24.3S31.3,8.5,22.6,8.5z M10.9,24.3
	c0-2.5,0.8-4.8,2.1-6.7l16.4,16.4c-1.9,1.3-4.2,2.1-6.7,2.1C16.1,36.1,10.9,30.8,10.9,24.3z M32.3,31L15.9,14.6
	c1.9-1.3,4.2-2.1,6.7-2.1c6.5,0,11.8,5.3,11.8,11.8C34.4,26.8,33.6,29.1,32.3,31z"/>
<path d="M77.5,39.3c-8.4,0-15.3-6.9-15.3-15.3c0-8.4,6.8-15.3,15.3-15.3S92.8,15.6,92.8,24C92.8,32.4,85.9,39.3,77.5,39.3z
	 M77.5,11.7c-6.8,0-12.3,5.5-12.3,12.3s5.5,12.3,12.3,12.3S89.8,30.8,89.8,24S84.3,11.7,77.5,11.7z"/>
<path d="M77.8,22.3h-3.5c-0.5,0-0.9-0.4-0.9-0.9c0-0.4,0.2-0.7,0.4-1l3.6-4.2c0.3-0.4,0.6-0.6,1.2-0.6c0.5,0,0.9,0.4,0.9,0.9v4.3H80
	c0.4,0,0.8,0.3,0.8,0.8s-0.3,0.7-0.8,0.7h-0.4v1c0,0.5-0.4,0.9-0.9,0.9c-0.5,0-0.9-0.4-0.9-0.9V22.3z M77.8,20.8v-2.6l-2.2,2.6H77.8
	z"/>
<path d="M72.6,25.8c0-0.3,0.3-0.6,0.6-0.6s0.6,0.3,0.6,0.6v1.6c0.3-0.4,0.6-0.7,1.3-0.7c0.9,0,1.5,0.6,1.5,1.6v2.2
	c0,0.3-0.3,0.6-0.6,0.6s-0.6-0.3-0.6-0.6v-1.8c0-0.6-0.3-0.9-0.7-0.9s-0.8,0.3-0.8,0.9v1.8c0,0.3-0.3,0.6-0.6,0.6s-0.6-0.3-0.6-0.6
	V25.8z"/>
<path d="M77.1,27.4c0-0.3,0.3-0.6,0.6-0.6s0.6,0.3,0.6,0.6v0.2c0.2-0.4,0.5-0.8,0.8-0.8c0.4,0,0.6,0.2,0.6,0.6
	c0,0.3-0.2,0.5-0.5,0.6c-0.6,0.1-1,0.6-1,1.5v1.1c0,0.3-0.3,0.6-0.6,0.6s-0.6-0.3-0.6-0.6V27.4z"/>
<path d="M80,30.7c-0.1-0.1-0.2-0.2-0.2-0.4c0-0.3,0.2-0.5,0.5-0.5c0.1,0,0.2,0,0.2,0.1c0.4,0.3,0.8,0.4,1.2,0.4
	c0.4,0,0.5-0.1,0.5-0.3v0c0-0.3-0.4-0.4-0.9-0.5c-0.6-0.2-1.3-0.5-1.3-1.3v0c0-0.9,0.7-1.4,1.6-1.4c0.4,0,0.9,0.1,1.3,0.3
	c0.2,0.1,0.3,0.2,0.3,0.5c0,0.3-0.2,0.5-0.5,0.5c-0.1,0-0.1,0-0.2-0.1c-0.3-0.2-0.7-0.3-0.9-0.3c-0.3,0-0.4,0.1-0.4,0.3v0
	c0,0.2,0.4,0.4,0.9,0.5c0.6,0.2,1.3,0.5,1.3,1.3v0c0,1-0.7,1.4-1.6,1.4C81.1,31.2,80.5,31,80,30.7z"/>
<path d="M77.5,90.4c-8.4,0-15.3-6.9-15.3-15.3s6.8-15.3,15.3-15.3s15.3,6.8,15.3,15.3S85.9,90.4,77.5,90.4z M77.5,62.9
	c-6.8,0-12.3,5.5-12.3,12.3s5.5,12.3,12.3,12.3s12.3-5.5,12.3-12.3S84.3,62.9,77.5,62.9z"/>
<path d="M74.5,73L74.5,73c0-1,0.5-1.6,1.4-2.1c-0.6-0.4-1.1-0.9-1.1-1.8v0c0-1.3,1.2-2.3,3-2.3c1.8,0,3,1,3,2.3v0
	c0,0.9-0.4,1.4-1.1,1.8c0.9,0.4,1.4,1,1.4,2v0c0,1.6-1.4,2.5-3.2,2.5C75.9,75.4,74.5,74.5,74.5,73z M79.2,72.8L79.2,72.8
	c0-0.7-0.6-1.1-1.5-1.1c-0.8,0-1.5,0.4-1.5,1v0c0,0.6,0.5,1,1.5,1C78.7,73.9,79.2,73.4,79.2,72.8z M79,69.3L79,69.3
	c0-0.5-0.4-1-1.2-1c-0.8,0-1.2,0.5-1.2,1v0c0,0.6,0.5,1,1.2,1C78.5,70.3,79,69.9,79,69.3z"/>
<path d="M72.6,77c0-0.3,0.3-0.6,0.6-0.6s0.6,0.3,0.6,0.6v1.6c0.3-0.4,0.6-0.7,1.3-0.7c0.9,0,1.5,0.6,1.5,1.6v2.2
	c0,0.3-0.3,0.6-0.6,0.6s-0.6-0.3-0.6-0.6v-1.8c0-0.6-0.3-0.9-0.7-0.9s-0.8,0.3-0.8,0.9v1.8c0,0.3-0.3,0.6-0.6,0.6s-0.6-0.3-0.6-0.6
	V77z"/>
<path d="M77.1,78.5c0-0.3,0.3-0.6,0.6-0.6s0.6,0.3,0.6,0.6v0.2c0.2-0.4,0.5-0.8,0.8-0.8c0.4,0,0.6,0.2,0.6,0.6
	c0,0.3-0.2,0.5-0.5,0.6c-0.6,0.1-1,0.6-1,1.5v1.1c0,0.3-0.3,0.6-0.6,0.6s-0.6-0.3-0.6-0.6V78.5z"/>
<path d="M80,81.9c-0.1-0.1-0.2-0.2-0.2-0.4c0-0.3,0.2-0.5,0.5-0.5c0.1,0,0.2,0,0.2,0.1c0.4,0.3,0.8,0.4,1.2,0.4
	c0.4,0,0.5-0.1,0.5-0.3v0c0-0.3-0.4-0.4-0.9-0.5c-0.6-0.2-1.3-0.5-1.3-1.3v0c0-0.9,0.7-1.4,1.6-1.4c0.4,0,0.9,0.1,1.3,0.3
	c0.2,0.1,0.3,0.2,0.3,0.5c0,0.3-0.2,0.5-0.5,0.5c-0.1,0-0.1,0-0.2-0.1c-0.3-0.2-0.7-0.3-0.9-0.3c-0.3,0-0.4,0.1-0.4,0.3v0
	c0,0.2,0.4,0.4,0.9,0.5c0.6,0.2,1.3,0.5,1.3,1.3v0c0,1-0.7,1.4-1.6,1.4C81.1,82.3,80.5,82.2,80,81.9z"/>
<path d="M61.3,49.5l-2.7-6.4l0,0V35c0-2.1-1.7-3.8-3.8-3.8l0,0H27.4c-2.1,0-3.8,1.7-3.8,3.8l0,0v8.1l-2.5,6.6
	c-0.5,1.2-0.7,2.5-0.7,3.8v32.3c0,2,1.7,3.7,3.7,3.7h34.4c2,0,3.7-1.7,3.7-3.7V53.7C62.1,52.3,61.8,50.9,61.3,49.5z M56.9,76.9
	c0,2-1.7,3.7-3.7,3.7H29.4c-2,0-3.7-1.6-3.7-3.7c0,0,0,0,0,0v-18c0-2,1.7-3.7,3.7-3.7h23.8c2,0,3.7,1.7,3.7,3.7V76.9z"/>
<path d="M32.9,63c0-0.6,0.5-1.1,1.1-1.1c0,0,0,0,0,0h3.4c1-0.1,2.1,0.3,2.9,1c0.6,0.6,0.9,1.4,0.8,2.2l0,0c0.1,1.3-0.7,2.6-2,3
	l1.5,1.8c0.2,0.2,0.3,0.5,0.3,0.8c0,0.6-0.4,1-1,1c-0.4,0-0.8-0.2-1.1-0.6l-2.1-2.7H35v2.2c0,0.6-0.5,1.1-1.1,1.1
	c-0.6,0-1.1-0.5-1.1-1.1V63z M37.2,66.7c1,0,1.7-0.6,1.7-1.4l0,0c0-0.9-0.7-1.4-1.7-1.4H35v2.8L37.2,66.7z"/>
<path d="M46.2,71.9c-2.1,0.1-3.8-1.5-3.9-3.6c0-0.1,0-0.2,0-0.3l0,0c-0.1-2.1,1.5-3.8,3.6-3.9c0.1,0,0.1,0,0.2,0
	c2,0,3.6,1.5,3.6,3.5c0,0,0,0.1,0,0.1c0,0.6-0.4,1-1,1h-4.2c0.1,0.9,0.9,1.5,1.8,1.5c0.5,0,1.1-0.2,1.5-0.5c0.1-0.1,0.3-0.2,0.5-0.2
	c0.5,0,0.8,0.4,0.9,0.8c0,0.3-0.1,0.5-0.3,0.7C48.1,71.6,47.2,71.9,46.2,71.9z M47.6,67.4c0-0.9-0.7-1.6-1.6-1.6
	c-0.9,0-1.6,0.7-1.6,1.6H47.6z"/>
</svg>
