<svg id="Layer_1" data-name="Layer 1" xmlns="http://www.w3.org/2000/svg" viewBox="0 0 100 100"><path d="M59,78.14a5,5,0,0,1-3.12,1.11H23.49a5,5,0,0,1-5-5V49.68a5,5,0,0,1,5-5H55.92a5,5,0,0,1,5,5V69a15.77,15.77,0,0,1,7.18-6.64V42.63A14.56,14.56,0,0,0,67,37l-3.68-8.78h0V17.1A5.13,5.13,0,0,0,58.16,12H20.78a5.14,5.14,0,0,0-5.13,5.14V28.17l-3.42,9a14.66,14.66,0,0,0-1,5.24v44a5,5,0,0,0,5,5H63.1a5,5,0,0,0,3.4-1.34A15.75,15.75,0,0,1,59,78.14Z"/><path d="M18.55,64.2l2.92-6.59a1.15,1.15,0,0,1,1.08-.74h.11a1.12,1.12,0,0,1,1.06.74l2.92,6.59a.89.89,0,0,1,.1.37.88.88,0,0,1-.87.89.93.93,0,0,1-.89-.64l-.56-1.31H20.73l-.58,1.37a.92.92,0,0,1-.85.58.85.85,0,0,1-.85-.87A.94.94,0,0,1,18.55,64.2Zm5.19-2.32-1.17-2.77-1.16,2.77Z"/><path d="M27.83,64.77a.72.72,0,0,1,.37-1.34.72.72,0,0,1,.36.1,3.39,3.39,0,0,0,1.73.57c.53,0,.77-.19.77-.47v0c0-.39-.63-.53-1.33-.74-.9-.26-1.92-.68-1.92-1.93v0a2.1,2.1,0,0,1,2.35-2,4.57,4.57,0,0,1,2,.49.77.77,0,0,1,.43.69.73.73,0,0,1-.73.72.69.69,0,0,1-.34-.09,3.41,3.41,0,0,0-1.39-.41c-.44,0-.67.2-.67.45v0c0,.36.61.53,1.31.77.9.3,1.94.73,1.94,1.9v0c0,1.43-1.07,2.07-2.46,2.07A4.37,4.37,0,0,1,27.83,64.77Z"/><path d="M34,59.81a.91.91,0,0,1,1.82,0v.08a2.34,2.34,0,0,1,2-1,3,3,0,0,1,2.92,3.31v0a3,3,0,0,1-2.92,3.31,2.47,2.47,0,0,1-2-1v1.91a.91.91,0,0,1-1.82,0Zm4.92,2.38v0a1.58,1.58,0,1,0-3.13,0v0a1.58,1.58,0,1,0,3.13,0Z"/><path d="M42.05,57.44c0-.53.44-.85,1-.85a.9.9,0,0,1,1,.85v0a1,1,0,0,1-2,0Zm.11,2.37a.91.91,0,0,1,1.82,0v4.74a.91.91,0,0,1-1.82,0Z"/><path d="M45.69,59.81a.91.91,0,0,1,1.82,0v.28c.26-.62.69-1.19,1.23-1.19a.83.83,0,0,1,.89.88.84.84,0,0,1-.69.85c-.92.22-1.43.92-1.43,2.22v1.7a.91.91,0,0,1-1.82,0Z"/><path d="M50.67,57.44a.9.9,0,0,1,1-.85c.58,0,1,.32,1,.85v0a1,1,0,0,1-2,0Zm.1,2.37a.91.91,0,0,1,1.82,0v4.74a.91.91,0,0,1-1.82,0Z"/><path d="M54.3,59.81a.91.91,0,0,1,1.82,0v.07a2.27,2.27,0,0,1,1.88-1,2.1,2.1,0,0,1,2.18,2.38v3.32a.91.91,0,0,1-1.82,0V61.81c0-.87-.41-1.31-1.1-1.31s-1.14.44-1.14,1.31v2.74a.91.91,0,0,1-1.82,0Z"/><path d="M74.73,60.89A15.77,15.77,0,1,0,90.5,76.65,15.78,15.78,0,0,0,74.73,60.89ZM82.9,87.74,63.65,68.49a13.94,13.94,0,0,1,2.92-2.92L85.82,84.82A13.94,13.94,0,0,1,82.9,87.74Z"/></svg>