<?xml version="1.0" encoding="utf-8"?>
<!-- Generator: Adobe Illustrator 24.0.0, SVG Export Plug-In . SVG Version: 6.00 Build 0)  -->
<svg version="1.1" id="Layer_1" xmlns="http://www.w3.org/2000/svg" xmlns:xlink="http://www.w3.org/1999/xlink" x="0px" y="0px"
	 viewBox="0 0 100 100" style="enable-background:new 0 0 100 100;" xml:space="preserve">
<path d="M96.6,85.9c0-0.4-1.2-10.2-7.6-14.3c-5.1-3.3-20.8-7.4-25.1-8.5c0-0.2,0-0.4,0-0.6c6-4.6,10.2-11.2,11.8-18.6
	c0.2-0.7,0.7-1.3,1.4-1.7l1.2-0.5c1.3-0.6,2.2-1.6,2.7-2.9c0.5-1.3,0.5-2.7-0.1-4c-0.3-0.6-0.7-1.2-1.2-1.7l-1.1-1
	c-1.5-1.4-2.6-3.3-3.1-5.3C72.1,14.2,62,5.7,50.3,5.7c-14.6,0-26.4,13.5-26.4,30.1c0,10.8,5.1,21.3,13,27.1c0,0.1,0,0.2,0,0.3
	c-4.1,1-20.1,5.2-25.3,8.5C5.2,75.7,4.1,85.5,4,85.9C3.9,87,4.7,88,5.8,88.1c0.1,0,0.1,0,0.2,0c1,0,1.9-0.8,2-1.8
	C8,86.3,9,78,13.7,75c4.2-2.6,17.9-6.4,24-8c1.3,3.3,3.8,6,7.2,7.4c0.3,0.1,0.5,0.2,0.8,0.3l0.2,0.1v11.9c0,2.4,1.9,4.3,4.3,4.3
	c2.4,0,4.3-1.9,4.3-4.3V74.9c3.9-1.3,6.9-4.2,8.3-7.8c6.2,1.6,19.8,5.3,23.9,8c4.8,3,5.7,11.2,5.7,11.3c0.1,1,1,1.8,2,1.8
	c0.1,0,0.1,0,0.2,0C95.9,88,96.7,87,96.6,85.9z M50.5,74.9C50.5,74.9,50.5,74.9,50.5,74.9c-1.7,0-3.1-1.3-3-3s1.3-3,3-3
	c1.6,0,3,1.3,3,3C53.5,73.5,52.2,74.9,50.5,74.9z M61.5,60.6L60.8,61v1c0,0.5,0,1.1-0.1,1.6c-0.2,0.2-0.3,0.5-0.4,0.8
	c-0.1,0.3-0.1,0.6,0,0.9c-0.9,2.8-3,5.1-5.7,6.3v-7.1c0-5.9,4.8-10.7,10.7-10.8c2.4,0,4.3-1.9,4.3-4.3c0-2.4-1.9-4.3-4.3-4.3
	C54.7,45.2,46,53.8,46,64.5v7c-2.8-1.2-4.9-3.7-5.7-6.6c0-0.2,0-0.4,0-0.5c0-0.1-0.1-0.3-0.2-0.4C40,63.3,40,62.7,40,62.1l0-0.8
	l-0.7-0.5c-3.6-2.4-6.6-6-8.7-10.1c1.6-0.5,4.5-1.8,7.6-4.6c2.7-2.6,4.2-6.3,3.9-10.1c-0.4-0.9-0.6-1.8-0.5-2.7
	c-0.1-3.5,2.5-6.4,6-6.5c1.2,0,2.3-0.7,2.8-1.8c0.9-2.1,2.6-5,5.8-5.1c4.5-0.1,10-0.1,12.9,0c1.5,2.4,2.6,5,3.4,7.9
	c0.7,2.6,2,4.9,4,6.7l1.1,1c0.2,0.2,0.4,0.4,0.5,0.7c0.2,0.5,0.2,1.1,0,1.6s-0.6,0.9-1.1,1.2l-1.2,0.5c-1.6,0.7-2.7,2.1-3.1,3.8
	C71.2,50.2,67.2,56.3,61.5,60.6z"/>
</svg>
