<svg id="Layer_1" data-name="Layer 1" xmlns="http://www.w3.org/2000/svg" viewBox="0 0 100 100"><defs><style>.cls-1,.cls-3{fill:none;}.cls-1,.cls-2,.cls-3{stroke:#000;stroke-linecap:round;stroke-miterlimit:10;stroke-width:4px;}.cls-3{stroke-dasharray:5.68 5.68;}</style></defs><path class="cls-1" d="M86,93.41c2.28-16,5.57-41,5.26-49.94-.46-13.59-3.64-16.28-3.64-21.87a32.65,32.65,0,0,1,2.45-11.36"/><path class="cls-1" d="M15.72,93.41c-2.27-16-5.56-41-5.26-49.94a32.78,32.78,0,0,1,.91-7.92c1.29-4.25,2.06-7.8,1.55-11.81L10.05,12.25"/><path class="cls-2" d="M91.25,43.47s-26.64,6-40.79,6c-14,0-40-6-40-6-.3,9,3,34,5.26,49.94H46.57l5.09-12.82,5.59,12.82H86C88.27,77.46,91.56,52.44,91.25,43.47Z"/><rect class="cls-2" x="56.15" y="7.77" width="27.4" height="18.56" rx="6.83" transform="translate(0.18 -0.74) rotate(0.6)"/><rect class="cls-3" x="21.29" y="3.54" width="18.56" height="27.08" rx="6.79" transform="translate(13.17 47.48) rotate(-89.4)"/></svg>