<svg id="Layer_1" data-name="Layer 1" xmlns="http://www.w3.org/2000/svg" viewBox="0 0 100 100"><defs><style>.cls-1{fill:none;}</style></defs><g id="_161" data-name="161"><rect class="cls-1" x="9.51" y="10" width="80" height="80"/><path d="M63.77,50.47,58,35.23,44.37,62a3,3,0,0,1-2.67,1.64h-.28a3,3,0,0,1-2.6-2.14l-4.13-14L32,54.69a4,4,0,0,1-3.76,2.62H21.63L49.71,89.15,78.58,56.42l3-3.36h-14A4,4,0,0,1,63.77,50.47Z"/><path d="M83.93,17.63h0c-8-9-20.89-9-28.86,0L49.71,23.7l-5.35-6.07c-8-9-20.9-9-28.87,0h0c-8,9-8,23.69,0,32.72l2.61,3H28.27L32,43.23a3,3,0,0,1,2.92-2,3,3,0,0,1,2.77,2.15l4.27,14.52L55.48,31.4a3,3,0,0,1,5.47.3l6.57,17.36H85C91.89,40,91.53,26.24,83.93,17.63Z"/></g></svg>