<svg id="Layer_1" data-name="Layer 1" xmlns="http://www.w3.org/2000/svg" viewBox="0 0 100 100"><defs><style>.cls-1{fill:none;}.cls-1,.cls-2{stroke:#000;stroke-linecap:round;stroke-miterlimit:10;stroke-width:4px;}</style></defs><polyline class="cls-1" points="35.93 34.19 29.58 25.16 39.54 18.15 45.89 27.18"/><rect class="cls-2" x="21.55" y="12.32" width="21.83" height="12.73" rx="6" transform="translate(-4.84 22.1) rotate(-35.14)"/><path class="cls-1" d="M67.42,49.38,84.54,73.7a6,6,0,0,1-1.45,8.36l-8,5.66a6,6,0,0,1-8.36-1.46L56.46,71.73"/><path class="cls-1" d="M35.37,41.78a6,6,0,0,1,1.45-8.36l8-5.66a6,6,0,0,1,8.36,1.45l3.86,5"/><path d="M51.7,33.15a2.8,2.8,0,0,1,2,.82h0a2.77,2.77,0,0,1,.16,3.94L37.43,54.21A1.16,1.16,0,0,0,37.66,56a1,1,0,0,0,.56.16,1.27,1.27,0,0,0,.89-.38l18-18.19A2.59,2.59,0,0,1,59,36.84,2.62,2.62,0,0,1,61.14,38a2.69,2.69,0,0,1-.4,3.35L43.23,59.09a1.15,1.15,0,0,0,0,1.63h0a1.14,1.14,0,0,0,.82.34,1.16,1.16,0,0,0,.82-.34L61.27,44.29a2.83,2.83,0,0,1,2-.84,2.87,2.87,0,0,1,2,.84l.06.06a2.76,2.76,0,0,1,0,3.91L48.13,65.41a1.15,1.15,0,0,0,0,1.64h0a1.16,1.16,0,0,0,.82.34,1.13,1.13,0,0,0,.82-.34L62,54.89A2.94,2.94,0,0,1,64,54a2.64,2.64,0,0,1,1.45.43,2.75,2.75,0,0,1,.44,4.25l-25,25a16.4,16.4,0,0,1-23.19,0h0c-.78-.78-1.58-1.66-2.37-2.61a18.44,18.44,0,0,1-.36-23h0a29.33,29.33,0,0,1,2.65-3L28.37,44.38a2.94,2.94,0,0,1,2.07-.87,2.64,2.64,0,0,1,1.45.43,2.75,2.75,0,0,1,.44,4.25l-5.65,5.7a1.11,1.11,0,0,0-.06,1.51,1.13,1.13,0,0,0,.85.4,1.11,1.11,0,0,0,.79-.33L49.71,34a2.8,2.8,0,0,1,2-.82m0-4a6.76,6.76,0,0,0-4.82,2L35.82,42.23a7.14,7.14,0,0,0-1.71-1.62,6.64,6.64,0,0,0-3.67-1.1,7,7,0,0,0-4.9,2L14.79,52.29a36.1,36.1,0,0,0-3,3.43,22.31,22.31,0,0,0,.46,28c.85,1,1.73,2,2.62,2.87a20.39,20.39,0,0,0,28.85,0l25-25A6.75,6.75,0,0,0,68,51.32l.23-.23a6.76,6.76,0,0,0,0-9.56l-2.89,2.76,2.83-2.82a6.79,6.79,0,0,0-2.61-1.64,6.49,6.49,0,0,0-1.09-4A6.62,6.62,0,0,0,59,32.84a7,7,0,0,0-1.12.09,7,7,0,0,0-1.31-1.79,6.76,6.76,0,0,0-4.82-2Z"/><path d="M89.8,52.43a6.78,6.78,0,0,0-2.72-4.78l.22-.22a6.76,6.76,0,0,0,0-9.57l-.07-.06a6.91,6.91,0,0,0-2.61-1.64,6.45,6.45,0,0,0-1.08-4,6.65,6.65,0,0,0-5.51-2.95,6.74,6.74,0,0,0-1.11.1,7.38,7.38,0,0,0-1.32-1.8,6.81,6.81,0,0,0-9.63,0L60.46,33A6.67,6.67,0,0,1,64,35.16l4.85-4.86a2.82,2.82,0,0,1,4,0A2.77,2.77,0,0,1,73,34.24L66.76,40.4a6.78,6.78,0,0,1,1.39,1.07l-2.83,2.82,2.89-2.76a3.08,3.08,0,0,1,.24.27L76.2,34a2.61,2.61,0,0,1,1.86-.78,2.64,2.64,0,0,1,2.19,1.18,2.68,2.68,0,0,1-.4,3.35l-9.8,9.92a6.57,6.57,0,0,1-1.86,3.47l-.23.23a6.19,6.19,0,0,1,.93.84L80.38,40.62a2.87,2.87,0,0,1,4.05,0l.06.06a2.74,2.74,0,0,1,0,3.9L72.57,56.45l1.49,1.77,7-7a3,3,0,0,1,2.07-.87,2.55,2.55,0,0,1,1.45.44A2.76,2.76,0,0,1,85,55l-8.55,8.55,2.78,2.87,8.59-8.59A6.73,6.73,0,0,0,89.8,52.43Z"/><path d="M61.36,78.7,60,80.06a16.33,16.33,0,0,1-11.59,4.8,17.15,17.15,0,0,1-2.76-.24l-1.93,1.93c-.48.48-1,.93-1.49,1.35a20.39,20.39,0,0,0,20.6-5L63.7,82Z"/></svg>