<svg id="Layer_1" data-name="Layer 1" xmlns="http://www.w3.org/2000/svg" viewBox="0 0 100 100"><defs><style>.cls-1,.cls-2{fill:none;stroke:#000;stroke-miterlimit:10;stroke-width:4px;}.cls-2{stroke-linecap:round;}</style></defs><g id="Store_at_room_temperature" data-name="Store at room temperature"><path class="cls-1" d="M78,36.81,78,81.26a6,6,0,0,1-6,6H23.89a6,6,0,0,1-6-6L18,36.81,43.72,11a6,6,0,0,1,8.46,0Z"/><path class="cls-2" d="M8,46.81,43.71,11.05a6,6,0,0,1,8.48,0L88,46.81"/><path class="cls-2" d="M74,32.81V17.88a4.51,4.51,0,0,0-4.51-4.51h0a4.51,4.51,0,0,0-4.51,4.51v5.91Z"/><path d="M56.32,36.69H39.58a6,6,0,0,0-6,6V73.88a6,6,0,0,0,6,6H56.32a6,6,0,0,0,6-6V42.69A6,6,0,0,0,56.32,36.69ZM48,73.1a5.18,5.18,0,0,1-1.8-10V45.7a2,2,0,0,1,4,0V63.22A5.18,5.18,0,0,1,48,73.1ZM58.37,53.49H54.21a2,2,0,0,1,0-4h4.16a2,2,0,0,1,0,4Zm0-6H54.21a2,2,0,0,1,0-4h4.16a2,2,0,0,1,0,4Z"/></g></svg>