<?xml version="1.0" encoding="utf-8"?>
<!-- Generator: Adobe Illustrator 24.0.0, SVG Export Plug-In . SVG Version: 6.00 Build 0)  -->
<svg version="1.1" id="Layer_1" xmlns="http://www.w3.org/2000/svg" xmlns:xlink="http://www.w3.org/1999/xlink" x="0px" y="0px"
	 viewBox="0 0 100 100" style="enable-background:new 0 0 100 100;" xml:space="preserve">
<g>
	<path d="M46.4,34.9c1.1,0,2-0.9,2-2V20.5c0-1.1-0.9-2-2-2s-2,0.9-2,2v12.4C44.4,34,45.3,34.9,46.4,34.9z"/>
	<path d="M60.1,37.2c0.2,0.1,0.4,0.1,0.7,0.1c0.8,0,1.6-0.5,1.9-1.4l4-11.8c0.4-1-0.2-2.2-1.2-2.5c-1-0.4-2.2,0.2-2.5,1.2l-4,11.8
		C58.5,35.7,59,36.9,60.1,37.2z"/>
	<path d="M72.4,41.8c0.4,0.3,0.8,0.4,1.2,0.4c0.6,0,1.2-0.3,1.6-0.8l7.7-9.8c0.7-0.9,0.5-2.1-0.3-2.8c-0.9-0.7-2.1-0.5-2.8,0.3
		L72.1,39C71.4,39.8,71.6,41.1,72.4,41.8z"/>
	<path d="M21.1,44.2c8.7,0,15.8-7.1,15.8-15.8s-7.1-15.8-15.8-15.8S5.4,19.7,5.4,28.4S12.5,44.2,21.1,44.2z M32.9,28.4
		c0,2.5-0.8,4.8-2.1,6.7L14.4,18.8c1.9-1.3,4.2-2.1,6.7-2.1C27.6,16.7,32.9,21.9,32.9,28.4z M11.5,21.7l16.4,16.4
		c-1.9,1.3-4.2,2.1-6.7,2.1c-6.5,0-11.8-5.3-11.8-11.8C9.4,25.9,10.2,23.6,11.5,21.7z"/>
	<path d="M74.2,45.7c-2.7,0-5.3,0.5-7.8,1.5c-0.1,0-0.2-0.1-0.3-0.1c-6.5-2.5-13.2-3.7-20.1-3.6C25.4,43.4,8.6,54,8.6,67.1
		s16.8,23.6,37.5,23.6c7.8,0,13.8-1.1,19.7-3.5c0.2-0.1,0.4-0.2,0.5-0.3c2.4,1,5.1,1.5,7.9,1.5c11.8,0,21.3-9.6,21.3-21.4
		S86,45.7,74.2,45.7z M46.1,86.7c-18.5,0-33.5-8.8-33.5-19.6c0-10.8,15-19.6,33.6-19.6c5.3-0.1,10.6,0.7,15.7,2.3
		c-1.9,1.3-3.5,3-4.8,4.8c-0.2-0.1-0.3-0.2-0.5-0.4c-7.4-5-17.5-3-22.5,4.4c-2.4,3.6-3.3,7.9-2.5,12.1c0.8,4.2,3.3,7.9,6.8,10.3
		c2.7,1.9,5.9,2.8,9.1,2.8c3.6,0,7.2-1.2,10.1-3.6c1.3,1.6,2.7,3,4.4,4.2C57.2,86,52.2,86.7,46.1,86.7z M74.2,84.4
		c-9.6,0-17.4-7.8-17.4-17.4c0-9.6,7.8-17.3,17.4-17.3c9.6,0,17.3,7.8,17.3,17.3C91.6,76.6,83.8,84.4,74.2,84.4z"/>
</g>
</svg>
