<?xml version="1.0" encoding="utf-8"?>
<!-- Generator: Adobe Illustrator 24.2.3, SVG Export Plug-In . SVG Version: 6.00 Build 0)  -->
<svg version="1.1" id="Layer_1" xmlns="http://www.w3.org/2000/svg" xmlns:xlink="http://www.w3.org/1999/xlink" x="0px" y="0px"
	 viewBox="0 0 100 100" style="enable-background:new 0 0 100 100;" xml:space="preserve">
<g>
	<path d="M73.7,34.6c-0.2,0-0.4,0-0.6,0H50.6c-1.6,0-3.1,0.6-4.2,1.7c-1.1,1.1-1.7,2.6-1.7,4.2c0,0.2,0,0.3,0,0.5l0.5,5.6
		c-0.9-0.5-1.8-0.9-2.8-1.2c-5.4-1.4-10.8,1.9-12.1,7.2c-2.8,0.8-5.1,2.7-6.4,5.3h-0.7c0,0,0,0,0,0c-1.6,0-3.2,0.6-4.4,1.8
		C17.6,61,17,62.6,17,64.2c0,0.4,0,0.9,0.1,1.3c1.8,8,7.6,14.5,15.3,17.9V84c0,3.5,2.8,6.3,6.3,6.3h12.1c0.6,0,1.1-0.1,1.6-0.2
		c0.6,0.2,1.3,0.4,2,0.4h14.6c0,0,0,0,0,0c3,0,5.6-2.4,5.9-5.4L79,41C79.3,37.8,76.9,34.9,73.7,34.6z M32.5,57.1l2.1-0.1l0.1-2.1
		c0.1-1.7,1-3.3,2.5-4.2c2.5-1.6,5.8-0.8,7.3,1.7l1.2,2l2-1.2c0.1,0,0.1-0.1,0.2-0.1c0.5-0.3,1-0.5,1.6-0.6c2.3-0.5,4.6,0.6,5.7,2.6
		c0.3,0.5,0.5,1,0.6,1.5L56,58H29.9C30.7,57.5,31.6,57.1,32.5,57.1z M21.7,64.6c0-0.1,0-0.2,0-0.3c0-0.4,0.2-0.8,0.5-1.1
		c0.3-0.3,0.7-0.4,1.1-0.4c0,0,0,0,0,0h43.1c0.1,0,0.2,0,0.3,0c0.4,0.1,0.7,0.3,1,0.7c0.2,0.3,0.3,0.8,0.2,1.1
		C65.7,74.3,56,81.5,44.8,81.5C33.6,81.5,23.9,74.3,21.7,64.6z M50.9,86.3H38.8c-0.9,0-1.7-0.5-2.1-1.3c2.6,0.7,5.3,1.1,8.1,1.1
		c2.8,0,5.6-0.4,8.2-1.1C52.6,85.8,51.8,86.3,50.9,86.3z M73.9,53H59.3c-1.9-3.7-5.9-5.7-9.9-5.3l-0.6-7.1c0-0.1,0-0.1,0-0.2
		c0-0.5,0.2-1,0.6-1.3c0.4-0.4,0.8-0.6,1.3-0.6H73l0,0c0.1,0,0.1,0,0.2,0c1,0.1,1.8,1,1.7,2.1L73.9,53z"/>
	<path d="M25.3,7.6c-8.7,0-15.8,7.1-15.8,15.8s7.1,15.8,15.8,15.8C34,39.1,41,32,41,23.3S34,7.6,25.3,7.6z M13.5,23.3
		c0-2.5,0.8-4.8,2.1-6.7L32,33c-1.9,1.3-4.2,2.1-6.7,2.1C18.8,35.1,13.5,29.8,13.5,23.3z M34.9,30L18.5,13.7
		c1.9-1.3,4.2-2.1,6.7-2.1c6.5,0,11.8,5.3,11.8,11.8C37,25.8,36.2,28.1,34.9,30z"/>
	<path d="M77.4,8.1c-8.8,0-15.9,7.1-15.9,15.9s7.1,15.9,15.9,15.9c8.8,0,15.8-7.1,15.9-15.8c0,0,0,0,0,0
		C93.3,15.2,86.2,8.1,77.4,8.1z M86.4,24.6c-0.3,4.8-4.1,8.6-8.9,8.9v4.9c0,0-0.1,0-0.1,0C69.5,38.3,63,31.9,63,24
		C63,16,69.5,9.6,77.4,9.6c0,0,0,0,0.1,0v4.8C82.7,14.8,86.7,19.3,86.4,24.6z"/>
	<path d="M73.5,23.3l1.9-1.9c0.2-0.2,0.4-0.5,0.4-0.8c0,0,0,0,0-0.1c0-0.3-0.3-0.6-0.7-0.5h-4.1c-0.1,0-0.1,0-0.2,0
		c-0.3,0-0.6,0.3-0.5,0.7c0,0.3,0.3,0.6,0.7,0.5H74l-1.9,2c-0.2,0.1-0.3,0.3-0.3,0.6c0,0.3,0.3,0.6,0.6,0.6h0.3
		c1.1,0,1.8,0.4,1.8,1.2c0,0,0,0.1,0,0.1c-0.1,0.7-0.7,1.2-1.4,1.1c-0.7,0-1.3-0.3-1.8-0.8c-0.1-0.1-0.3-0.2-0.5-0.2
		c-0.4,0-0.7,0.3-0.7,0.7c0,0.2,0.1,0.4,0.2,0.5c0.7,0.7,1.7,1,2.7,1c0.1,0,0.1,0,0.2,0c1.4,0,2.5-1.1,2.6-2.5
		C75.9,24,74.8,23.4,73.5,23.3z"/>
	<path d="M80.7,19.8c-2.1,0-3.5,1.8-3.5,4.1s1.4,4.1,3.5,4.1s3.5-1.8,3.5-4.1C84.2,21.7,82.8,19.8,80.7,19.8z M80.7,26.8
		c-1.2,0-2-1.3-2-2.9s0.8-2.8,2-2.8s2,1.3,2,2.8C82.7,25.5,81.9,26.8,80.7,26.8z"/>
</g>
</svg>
