<?xml version="1.0" encoding="utf-8"?>
<!-- Generator: Adobe Illustrator 24.0.0, SVG Export Plug-In . SVG Version: 6.00 Build 0)  -->
<svg version="1.1" id="Layer_1" xmlns="http://www.w3.org/2000/svg" xmlns:xlink="http://www.w3.org/1999/xlink" x="0px" y="0px"
	 viewBox="0 0 100 100" style="enable-background:new 0 0 100 100;" xml:space="preserve">
<g>
	<path d="M90.8,46.2l-9.4-9.4v0l-4-4V18.7c0-3.6-2.9-6.5-6.5-6.5s-6.5,2.9-6.5,6.5v1.1L55,10.4c-3.1-3.1-8.2-3.1-11.3,0L17.4,36.8
		L8,46.2c-0.8,0.8-0.8,2,0,2.8c0.8,0.8,2,0.8,2.8,0l6.6-6.6l-0.1,39.6c0,4.4,3.6,8,8,8h48.1c4.4,0,8-3.6,8-8l-0.1-39.6L88,49
		c0.4,0.4,0.9,0.6,1.4,0.6s1-0.2,1.4-0.6C91.6,48.3,91.6,47,90.8,46.2z M68.4,18.7c0-1.4,1.1-2.5,2.5-2.5c1.4,0,2.5,1.1,2.5,2.5
		v10.1l-5-5V18.7z M77.5,82.1c0,2.2-1.8,4-4,4H25.3c-2.2,0-4-1.8-4-4l0.1-43.6l25.2-25.2c0.8-0.8,1.8-1.2,2.8-1.2c0,0,0,0,0,0
		c1,0,2,0.4,2.8,1.1l12.2,12.2v0l13,13v0l0,0L77.5,82.1z"/>
	<path d="M57.8,37.5H41c-3.3,0-6,2.7-6,6v31.2c0,3.3,2.7,6,6,6h16.8c3.3,0,6-2.7,6-6V43.5C63.8,40.2,61.1,37.5,57.8,37.5z
		 M54.1,70.9c-0.9,1.8-2.7,3-4.7,3v0c-2.9-0.1-5.1-2.4-5.1-5.3c0-2.1,1.3-4,3.3-4.7V46.5c0-1.1,0.9-2,2-2c1.1,0,2,0.9,2,2V64
		C54.2,65.2,55.3,68.3,54.1,70.9z M59.8,54.3h-4.2c-1.1,0-2-0.9-2-2s0.9-2,2-2h4.2c1.1,0,2,0.9,2,2S60.9,54.3,59.8,54.3z M59.8,48.3
		h-4.2c-1.1,0-2-0.9-2-2s0.9-2,2-2h4.2c1.1,0,2,0.9,2,2S60.9,48.3,59.8,48.3z"/>
</g>
</svg>
