<?xml version="1.0" encoding="utf-8"?>
<!-- Generator: Adobe Illustrator 24.0.0, SVG Export Plug-In . SVG Version: 6.00 Build 0)  -->
<svg version="1.1" id="Layer_1" xmlns="http://www.w3.org/2000/svg" xmlns:xlink="http://www.w3.org/1999/xlink" x="0px" y="0px"
	 viewBox="0 0 100 100" style="enable-background:new 0 0 100 100;" xml:space="preserve">
<g>
	<path d="M81.6,22c-0.5,0-0.9,0.2-1.3,0.4l0.1-2h3.1c0.4,0,0.7-0.3,0.7-0.7c0-0.4-0.3-0.7-0.7-0.7h-3.8c-0.4,0-0.7,0.3-0.7,0.7
		l-0.2,3c0,0.3,0.1,0.5,0.3,0.7c0.2,0.2,0.4,0.3,0.7,0.3c0.5-0.2,0.9-0.3,1.4-0.3c1,0,1.7,0.5,1.7,1.4c0,0,0,0.1,0,0.1
		c-0.1,0.8-0.8,1.4-1.6,1.3c-0.7,0-1.3-0.3-1.8-0.7c-0.1-0.1-0.3-0.1-0.4-0.1c-0.4,0-0.7,0.3-0.7,0.7c0,0.2,0.1,0.4,0.3,0.6
		c0.8,0.6,1.7,0.9,2.7,0.8c0.1,0,0.2,0,0.3,0c1.6,0,2.8-1.3,2.8-2.9C84.5,22.9,83.2,22,81.6,22z"/>
	<path d="M45.3,23.4c0-8.7-7.1-15.8-15.8-15.8s-15.8,7.1-15.8,15.8s7.1,15.8,15.8,15.8S45.3,32.1,45.3,23.4z M41.3,23.4
		c0,2.5-0.8,4.8-2.1,6.7L22.8,13.8c1.9-1.3,4.2-2.1,6.7-2.1C36,11.7,41.3,16.9,41.3,23.4z M17.8,23.4c0-2.5,0.8-4.8,2.1-6.7
		l16.4,16.4c-1.9,1.3-4.2,2.1-6.7,2.1C23,35.2,17.8,29.9,17.8,23.4z"/>
	<path d="M97.6,23.1c0-8.8-7.1-15.8-15.9-15.8c-8.8,0-15.9,7.1-15.9,15.9c0,4.1,1.6,7.8,4.1,10.6h-15c-1.6,0-3.1,0.6-4.2,1.7
		C49.6,36.6,49,38,49,39.6c0,0.2,0,0.4,0,0.6l0.5,5.5c-0.9-0.5-1.9-1-2.9-1.2c-2.6-0.6-5.3-0.2-7.5,1.2c-2.2,1.4-3.8,3.6-4.4,6.1
		c-2.8,0.8-5.1,2.7-6.4,5.3h-0.7c-3.4,0-6.2,2.7-6.2,6.1c0,0.4,0,0.9,0.1,1.4c1.8,8,7.6,14.5,15.3,17.9v0.5c0,3.5,2.8,6.3,6.3,6.3
		h12.1c0.6,0,1.2-0.1,1.7-0.2c0.6,0.2,1.3,0.3,1.9,0.3h14.6c3.1,0,5.6-2.3,5.9-5.4l3.9-44c0-0.4,0-0.9,0-1.3
		C91.3,38.2,97.6,31.4,97.6,23.1z M53.5,38.3c0.4-0.4,0.8-0.6,1.3-0.6h20.6c1.1,0.5,2.3,0.8,3.6,1c0.2,0.3,0.2,0.7,0.2,1.1
		l-1.1,12.3l-14.5,0c-1.9-3.6-5.8-5.8-10-5.3l-0.6-7c0-0.1,0-0.1,0-0.2C53,39.1,53.2,38.6,53.5,38.3z M36.8,56.2l2.1-0.1L39,54
		c0.1-1.7,1-3.3,2.5-4.3c1.2-0.7,2.6-1,4-0.7c1.4,0.3,2.6,1.2,3.3,2.4l1.2,2l0.1-0.1l0.1,1.4l2.7-1.4c0.8-0.4,1.7-0.6,2.6-0.6
		c0,0,0,0,0,0c1.5,0,2.9,0.6,3.9,1.6c0.2,0.4,0.4,0.9,0.5,1.5l0.3,1.4l-26,0C35,56.6,35.9,56.2,36.8,56.2z M26,63.7
		c0-0.1,0-0.2,0-0.3c0-0.8,0.7-1.5,1.5-1.5c0,0,0,0,0,0h43.1c0.1,0,0.2,0,0.3,0c0.4,0.1,0.7,0.3,1,0.7c0.2,0.3,0.3,0.8,0.2,1.1
		C69.9,73.4,60.2,80.5,49,80.5C37.8,80.5,28.1,73.4,26,63.7z M40.9,84.1c2.6,0.7,5.3,1.1,8.1,1.1c2.9,0,5.6-0.4,8.3-1.2
		c-0.4,0.8-1.2,1.4-2.1,1.4H43C42.1,85.5,41.3,84.9,40.9,84.1z M82.8,37.4c-0.2-0.6-0.5-1.1-0.9-1.6c-1-1.2-2.4-2-4-2.1
		c-0.2,0-0.4,0-0.6,0H72c-2.9-2.6-4.7-6.4-4.7-10.6c0-7.9,6.4-14.4,14.4-14.4v0c0,0,0.1,0,0.1,0v4.8c1.8,0,3.5,0.5,5,1.5l2.6-4
		c4,2.5,6.7,7,6.7,12.1c0,0,0,0,0,0.1C96,30.7,90.2,36.9,82.8,37.4z"/>
</g>
</svg>
