<svg id="Layer_1" data-name="Layer 1" xmlns="http://www.w3.org/2000/svg" viewBox="0 0 100 100"><defs><style>.cls-1,.cls-2,.cls-3{fill:none;stroke:#000;}.cls-1,.cls-3{stroke-miterlimit:10;}.cls-1,.cls-2{stroke-width:4px;}.cls-2{stroke-linejoin:round;}.cls-3{stroke-width:5px;}</style></defs><path class="cls-1" d="M52.88,87.59H17.38a3.24,3.24,0,0,1-3.24-3.24V15.52a3.24,3.24,0,0,1,3.24-3.24H86.21a3.24,3.24,0,0,1,3.24,3.24V51Z"/><path class="cls-1" d="M52.88,76.79H28.17a3.24,3.24,0,0,1-3.24-3.24V26.32a3.24,3.24,0,0,1,3.24-3.24H75.41a3.24,3.24,0,0,1,3.24,3.24V51"/><path class="cls-2" d="M89.45,51H66.7A13.81,13.81,0,0,0,52.88,64.79v22.8Z"/><line class="cls-3" x1="33.04" y1="39.36" x2="48.79" y2="39.36"/><line class="cls-3" x1="40.92" y1="47.24" x2="40.92" y2="31.49"/><circle cx="61.89" cy="59.56" r="1.35"/><circle cx="67.18" cy="59.56" r="1.35"/><circle cx="72.47" cy="59.56" r="1.35"/><circle cx="77.5" cy="59.56" r="1.35"/><circle cx="61.89" cy="64.56" r="1.35"/><circle cx="67.18" cy="64.56" r="1.35"/><circle cx="72.47" cy="64.56" r="1.35"/><circle cx="61.89" cy="69.56" r="1.35"/><circle cx="67.18" cy="69.56" r="1.35"/><circle cx="61.89" cy="74.56" r="1.35"/></svg>