<svg id="Layer_1" data-name="Layer 1" xmlns="http://www.w3.org/2000/svg" viewBox="0 0 100 100"><defs><style>.cls-1{fill:none;stroke:#000;stroke-miterlimit:10;stroke-width:4px;}</style></defs><path class="cls-1" d="M60,89.26H39.78a5.4,5.4,0,0,1-5.38-4.92l-5.48-61.2a5.39,5.39,0,0,1,5.37-5.88h31.2a5.4,5.4,0,0,1,5.38,5.88l-5.48,61.2A5.41,5.41,0,0,1,60,89.26Z"/><path d="M30.43,40.07l4,44.27a5.4,5.4,0,0,0,5.38,4.92H60a5.41,5.41,0,0,0,5.38-4.92l4-44.27Zm22.38,6a1.26,1.26,0,1,1-1.26,1.26A1.26,1.26,0,0,1,52.81,46.07ZM50,59.51a2.25,2.25,0,1,1,1.25,2.93A2.26,2.26,0,0,1,50,59.51Zm-5.82-5.79a1.85,1.85,0,1,1,1.84,1.84A1.84,1.84,0,0,1,44.22,53.72Zm6.21,26.41A5.16,5.16,0,1,1,55.59,75,5.16,5.16,0,0,1,50.43,80.13Z"/><circle cx="46.86" cy="36.17" r="1.26"/><circle cx="48.9" cy="29.16" r="1.26"/><circle cx="44.09" cy="24.97" r="1.26"/><circle cx="51.87" cy="34.45" r="1.26"/></svg>