<svg id="Layer_1" data-name="Layer 1" xmlns="http://www.w3.org/2000/svg" viewBox="0 0 100 100"><defs><style>.cls-1{fill:none;stroke:#000;stroke-miterlimit:10;stroke-width:3px;}</style></defs><g id="_193" data-name="193"><path class="cls-1" d="M24.8,13.86a2.56,2.56,0,0,1,4.43,0l6.31,10.93,6.31,10.92a2.56,2.56,0,0,1-2.22,3.84H14.4a2.56,2.56,0,0,1-2.21-3.84l6.3-10.92Z"/><path d="M25.12,19.11A.92.92,0,0,1,26,18h1.84a.94.94,0,0,1,.92,1.1l-.89,10.43a.94.94,0,0,1-.95.92.92.92,0,0,1-.92-.92Zm1.81,13.22a1.75,1.75,0,0,1,1.82,1.76v.25a1.82,1.82,0,0,1-3.63,0v-.25A1.76,1.76,0,0,1,26.93,32.33Z"/></g><path d="M26.56,68.76a20.33,20.33,0,0,1,1.21-6A16.19,16.19,0,0,1,32,56.53a22.78,22.78,0,0,1,6.06-4.14,1,1,0,0,0,.42-.73c0-2.11-.2-4.24,0-6.33a17.47,17.47,0,0,1,2.36-7.25,18.76,18.76,0,0,1,7.83-7c1.58-.84,4.26-1.28,4.43-1.09a2.12,2.12,0,0,1,.31.66c.32.91.32,1.54-1.22,2.14a13.76,13.76,0,0,0-5.93,4.65,9.7,9.7,0,0,0-1.86,5.3A14.36,14.36,0,0,0,45,48.15a9.2,9.2,0,0,0,3.4,5.16,31.79,31.79,0,0,0,3.77,2.38,13.36,13.36,0,0,0,3.51.93c.63.1,1,.27,1,.93.16,1.14,0,1.77-.64,2a3.17,3.17,0,0,0-2,3.12,2.18,2.18,0,0,1-.95,2.09.71.71,0,0,1-1,0c-1.72-1.45-3.38-3.23-5.42-4.22-5.65-2.72-13.76.65-16,6.51a17.1,17.1,0,0,0-.64,7.15c.06,1.11.58,3.49-1.24,3.4-.82,0-2.12-4.78-2.26-7A14.79,14.79,0,0,1,26.56,68.76Z"/><path d="M74.89,47.6c0,.94-.1,1.88-.16,2.82a.81.81,0,0,0,.62,1,17.48,17.48,0,0,1,5.33,2.73,17.5,17.5,0,0,1,4.65,4.63A14.68,14.68,0,0,1,88,66.48a20.92,20.92,0,0,1-.18,6.4c-.14.58-.3,1-.53,1.82-.19.62-.73,1.2-1.23,1a1.1,1.1,0,0,1-.84-1.45,12.29,12.29,0,0,0-.49-7.67,12.47,12.47,0,0,0-4.79-5.5,13.07,13.07,0,0,0-4.42-1.75,11,11,0,0,0-5.48.16,12.17,12.17,0,0,0-3.53,1.67,30,30,0,0,0-3.21,2.88,1.09,1.09,0,0,1-1.86-.52,2.72,2.72,0,0,1-.11-.75,3.43,3.43,0,0,0-2.27-3.52,1.33,1.33,0,0,1-1-1.22c0-1,0-1.21,1-1.46A17,17,0,0,0,62.85,55a11.87,11.87,0,0,0,4.94-4.91A11.46,11.46,0,0,0,69,45.83a13,13,0,0,0-.67-6.31,11.32,11.32,0,0,0-4-5.08,13.78,13.78,0,0,0-5.66-2.28A1.42,1.42,0,0,1,57.54,30a1.07,1.07,0,0,1,.86-.43,37.91,37.91,0,0,1,4.37,1,22.24,22.24,0,0,1,3.81,1.67C72.28,35.37,74.73,41.32,74.89,47.6Z"/><path d="M70.72,87.72c-3.7.12-7-1.15-10.37-2.9-.77-.4-1.46-1-2.23-1.38a1.12,1.12,0,0,0-1,0,21.89,21.89,0,0,1-12.69,4.49c-5.16,0-9.09-2.33-12.82-5.68a.93.93,0,0,1-.12-1.46c.5-.57,1.14-.69,1.6-.22a13,13,0,0,0,4.49,2.92,10.19,10.19,0,0,0,7.41.47,15.72,15.72,0,0,0,6.74-4.36,11,11,0,0,0,2-3.31,10.36,10.36,0,0,0,.55-5,22.05,22.05,0,0,0-1-4.11c-.15-.51-.42-1,.09-1.38,1.05-.76,1.25-1,2-.44a6.15,6.15,0,0,0,1.69.87c1.09.42,2-.17,2.82-.75A1.49,1.49,0,0,1,62,66a1.26,1.26,0,0,1-.13.85,11.53,11.53,0,0,0-1,5.55,13.26,13.26,0,0,0,.61,3.12c1.61,4.65,6.94,8.13,11.77,8.19,3.5,0,6-1.54,8.74-3.47a1.12,1.12,0,0,1,1.74.59,1.31,1.31,0,0,1-.25,1.06A20.51,20.51,0,0,1,72.7,87.52,15.27,15.27,0,0,1,70.72,87.72Z"/><path d="M72.68,70.16a16.37,16.37,0,0,1-4.49,5.58,20.32,20.32,0,0,1-2.29,1.61c-1,.62-1.59.45-2.05-.56s-.79-1.87-1.13-2.82a1,1,0,0,1,.57-1.37,12.74,12.74,0,0,0,4.38-4.55A10.18,10.18,0,0,0,69,62.11,1,1,0,0,1,69.9,61c1.17-.23,2.33-.51,3.51-.63.64-.06,1,.51,1,1.1A22.49,22.49,0,0,1,72.68,70.16Z"/><path d="M40.89,62.71c.06-1.89.25-2,2.13-1.61.7.14,1.39.28,2.09.37,1,.12,1.17.29,1.18,1.29A11.56,11.56,0,0,0,48,68.85a10,10,0,0,0,4.08,3.85c.72.35.82.82.54,1.54-.36,1-.67,1.91-1,2.87-.2.59-.64.9-1.23.66a8.52,8.52,0,0,1-2-1,27.29,27.29,0,0,1-4-3.58,12.54,12.54,0,0,1-2.53-4.55A22.47,22.47,0,0,1,40.89,62.71Z"/><path d="M62.73,46.73A8.48,8.48,0,0,1,66,48.21c.62.48.75,1,.26,1.58-.74.87-1.42,1.79-2.23,2.58a1.31,1.31,0,0,1-1.24.2c-.81-.27-1.6-.61-2.41-.93a9.42,9.42,0,0,0-5.68-.13A18.84,18.84,0,0,0,52,52.69c-1.13.71-1.13.71-2.08-.26l-2-2c-.59-.6-.57-1,.09-1.48a19.54,19.54,0,0,1,4.17-2.16A17.89,17.89,0,0,1,62.73,46.73Z"/></svg>