<?xml version="1.0" encoding="utf-8"?>
<!-- Generator: Adobe Illustrator 24.0.0, SVG Export Plug-In . SVG Version: 6.00 Build 0)  -->
<svg version="1.1" id="Layer_1" xmlns="http://www.w3.org/2000/svg" xmlns:xlink="http://www.w3.org/1999/xlink" x="0px" y="0px"
	 viewBox="0 0 100 100" style="enable-background:new 0 0 100 100;" xml:space="preserve">
<g>
	<path d="M27.8,18H26c-0.1,0-0.1,0-0.2,0c-0.5,0.1-0.8,0.6-0.7,1.1L26,29.5c0,0.5,0.4,0.9,0.9,0.9c0.5,0,0.9-0.4,1-0.9l0.9-10.4
		c0-0.1,0-0.1,0-0.2C28.8,18.4,28.4,18,27.8,18z"/>
	<path d="M26.9,32.3C26.9,32.3,26.9,32.3,26.9,32.3c-1,0-1.8,0.8-1.8,1.8v0.2c0.1,0.9,0.8,1.6,1.7,1.7c1,0.1,1.9-0.7,1.9-1.7v-0.2
		c0,0,0-0.1,0-0.1C28.7,33,27.9,32.3,26.9,32.3z"/>
	<path d="M46.7,60.5c2,1,3.7,2.8,5.4,4.2c0.3,0.3,0.7,0.3,1,0c0.7-0.5,1.1-1.3,0.9-2.1c-0.1-1.4,0.7-2.6,2-3.1
		c0.6-0.2,0.8-0.9,0.6-2c0-0.7-0.4-0.8-1-0.9c-1.2-0.1-2.4-0.5-3.5-0.9c-1.3-0.7-2.6-1.5-3.8-2.4c-1.7-1.3-2.9-3.1-3.4-5.2
		c-0.5-1.7-0.7-3.6-0.6-5.4c0.1-1.9,0.7-3.8,1.9-5.3c1.5-2.1,3.6-3.7,5.9-4.7c1.5-0.6,1.5-1.2,1.2-2.1c-0.1-0.2-0.2-0.5-0.3-0.7
		c-0.2-0.2-2.8,0.2-4.4,1.1c-2.1,1-3.9,2.3-5.5,4c0,0,0-0.1,0-0.1L30.5,13.1c-0.4-0.6-0.9-1.1-1.5-1.5c-0.9-0.5-2-0.7-3.1-0.4
		c-1,0.3-1.9,0.9-2.5,1.9L10.9,35c-0.4,0.6-0.5,1.3-0.5,2c0,2.2,1.8,4.1,4.1,4.1h25.1c-0.5,1.4-0.8,2.8-1,4.3c-0.2,2.1,0,4.2,0,6.3
		c0,0.3-0.2,0.6-0.4,0.7c-2.2,1-4.3,2.4-6.1,4.1c-1.9,1.7-3.3,3.8-4.2,6.2c-0.7,1.9-1.1,4-1.2,6c0,0.6-0.1,1.2,0,1.8
		c0.1,2.2,1.4,7,2.3,7c1.8,0.1,1.3-2.3,1.2-3.4c-0.3-2.4-0.1-4.8,0.6-7.2C32.9,61.2,41,57.8,46.7,60.5z M13.3,37
		c0-0.2,0-0.4,0.1-0.5l12.6-21.8c0.3-0.5,0.9-0.7,1.4-0.4c0.2,0.1,0.3,0.2,0.4,0.4l12.6,21.9c0.3,0.5,0.1,1.2-0.4,1.4
		C40,38,39.8,38,39.6,38c0,0,0,0,0,0H14.4C13.8,38,13.3,37.6,13.3,37z"/>
	<path d="M88,66.5c-0.1-2.8-1.1-5.4-2.7-7.7c-1.2-1.8-2.8-3.4-4.7-4.6c-1.6-1.2-3.4-2.1-5.3-2.7c0,0,0,0,0,0c-0.4-0.1-0.7-0.6-0.6-1
		c0.1-0.9,0.2-1.9,0.2-2.8c-0.2-6.3-2.6-12.2-8.3-15.4c-1.2-0.7-2.5-1.2-3.8-1.7c-1.4-0.4-2.9-0.8-4.4-1c-0.3,0-0.7,0.2-0.9,0.4
		c-0.1,0.2-0.2,0.4-0.2,0.7c0,0.8,0.6,1.5,1.3,1.5c2,0.3,4,1.1,5.7,2.3c1.8,1.3,3.2,3,4,5.1c0.7,2,1,4.2,0.7,6.3
		c-0.1,1.5-0.5,2.9-1.2,4.3c-1.1,2.1-2.8,3.8-4.9,4.9c-1.2,0.7-2.5,1.2-3.8,1.6c-1,0.2-1,0.5-1,1.5c0,0.6,0.4,1.1,1,1.2
		c1.5,0.5,2.4,2,2.3,3.5c0,0.3,0,0.5,0.1,0.8c0,0.2,0.2,0.4,0.3,0.6c0.4,0.4,1.1,0.4,1.5,0c1-1,2.1-2,3.2-2.9
		c1.1-0.7,2.3-1.3,3.5-1.7c1.8-0.5,3.7-0.6,5.5-0.2c1.6,0.3,3.1,0.9,4.4,1.8c2.1,1.3,3.8,3.2,4.8,5.5c1,2.4,1.2,5.1,0.5,7.7
		c0,0.1,0,0.1,0,0.2c-0.1,0.6,0.3,1.2,0.9,1.3c0.5,0.2,1-0.4,1.2-1c0.2-0.8,0.4-1.2,0.5-1.8C88.2,70.8,88.3,68.6,88,66.5z"/>
	<path d="M83.6,80.5c-0.4-0.5-1.1-0.6-1.6-0.2c-2.7,1.9-5.2,3.5-8.7,3.5c-4.8-0.1-10.2-3.5-11.8-8.2c-0.3-1-0.5-2.1-0.6-3.1
		c-0.1-1.9,0.2-3.8,1-5.6c0.1-0.3,0.2-0.6,0.1-0.8c0,0,0-0.1-0.1-0.1c-0.5-0.7-1.4-0.9-2.1-0.4c-0.8,0.6-1.7,1.2-2.8,0.8
		c-0.6-0.2-1.2-0.5-1.7-0.9c-0.8-0.6-1-0.3-2,0.4c-0.5,0.4-0.2,0.9-0.1,1.4c0.5,1.3,0.8,2.7,1,4.1c0.2,1.7,0,3.4-0.6,5
		c-0.5,1.2-1.1,2.3-2,3.3c-1.8,2-4.2,3.5-6.7,4.4c-2.4,0.8-5.1,0.6-7.4-0.5c-1.7-0.7-3.2-1.6-4.5-2.9c-0.5-0.5-1.1-0.4-1.6,0.2
		c-0.1,0.1-0.1,0.1-0.1,0.2c-0.3,0.4-0.2,1,0.3,1.3c3.7,3.3,7.7,5.7,12.8,5.7c4.6-0.1,9-1.7,12.7-4.5c0.3-0.2,0.7-0.2,1,0
		c0.8,0.4,1.5,1,2.2,1.4c3.4,1.8,6.7,3,10.4,2.9c0.7,0,1.3-0.1,2-0.2c4.1-0.7,7.8-2.7,10.8-5.6c0.2-0.3,0.3-0.7,0.2-1.1
		C83.7,80.7,83.6,80.6,83.6,80.5z"/>
	<path d="M63.3,72.6C63.3,72.6,63.2,72.6,63.3,72.6c-0.6,0.3-0.8,0.9-0.6,1.4c0.3,0.9,0.7,1.8,1.1,2.8c0.5,1,1.1,1.2,2.1,0.6
		c0.8-0.5,1.6-1,2.3-1.6c1.9-1.5,3.4-3.4,4.5-5.6c1.1-2.8,1.7-5.7,1.7-8.7c0-0.6-0.4-1.2-1-1.1c-1.2,0.1-2.3,0.4-3.5,0.6
		c0,0,0,0,0,0c-0.5,0.1-0.9,0.6-0.9,1.1c0.2,2.1-0.3,4.1-1.3,5.9C66.6,69.9,65.1,71.5,63.3,72.6z"/>
	<path d="M52.1,72.7c-1.7-0.9-3.1-2.2-4.1-3.9c-1.1-1.8-1.7-3.9-1.7-6.1c0-1-0.2-1.2-1.2-1.3c-0.7-0.1-1.4-0.2-2.1-0.4
		c-1.9-0.4-2.1-0.3-2.1,1.6c0.1,2,0.4,4,1,5.9c0.5,1.7,1.4,3.2,2.5,4.5c1.2,1.3,2.6,2.5,4,3.6c0.6,0.4,1.3,0.8,2,1
		c0.6,0.2,1-0.1,1.2-0.7c0.3-1,0.6-1.9,1-2.9C52.9,73.5,52.8,73,52.1,72.7z"/>
	<path d="M48,49c-0.7,0.5-0.7,0.9-0.1,1.5l2,2c1,1,1,1,2.1,0.3c0.9-0.5,1.8-0.9,2.7-1.2c1.9-0.5,3.8-0.5,5.7,0.1
		c0.8,0.3,1.6,0.7,2.4,0.9c0.4,0.1,0.9,0.1,1.2-0.2c0.8-0.8,1.5-1.7,2.2-2.6c0.5-0.6,0.4-1.1-0.3-1.6c-1-0.7-2.1-1.2-3.3-1.5
		c-3.4-1-7.1-1-10.5,0.1C50.7,47.3,49.3,48.1,48,49z"/>
</g>
</svg>
