<svg id="Layer_1" data-name="Layer 1" xmlns="http://www.w3.org/2000/svg" viewBox="0 0 100 100"><defs><style>.cls-1{fill:none;stroke:#000;stroke-miterlimit:10;stroke-width:3px;}</style></defs><path class="cls-1" d="M24.23,11.2a2.32,2.32,0,0,1,4,0L34,21.11,39.7,31a2.32,2.32,0,0,1-2,3.48H14.8a2.32,2.32,0,0,1-2-3.48l5.72-9.91Z"/><path d="M24.52,16a.84.84,0,0,1,.81-1H27a.86.86,0,0,1,.84,1L27,25.42a.85.85,0,0,1-1.69,0Zm1.65,12a1.58,1.58,0,0,1,1.64,1.6v.23a1.58,1.58,0,0,1-1.64,1.6,1.6,1.6,0,0,1-1.65-1.6v-.23A1.6,1.6,0,0,1,26.17,28Z"/><path d="M86.46,78.11a4.35,4.35,0,0,0-7.66-1.56,1.41,1.41,0,0,1-1.57.54L62.77,72l14.31-5a1.6,1.6,0,0,1,1.79.43,4.35,4.35,0,0,0,6.92-5.26,4.42,4.42,0,0,0-2.2-1.61,4.35,4.35,0,1,0-7.76-2.68,1.73,1.73,0,0,1-1.13,1.71l-5.65,2A7.94,7.94,0,0,0,71,56.39V44.54H70.8c-1.23-8.63-9.5-15.36-19.37-15.36S33.29,35.91,32.05,44.54h-.16V56.39A8,8,0,0,0,34.17,62l-6.81-2.39a1.76,1.76,0,0,1-1.13-1.73,4.35,4.35,0,1,0-7.75,2.7,4.45,4.45,0,0,0-2.21,1.61,4.38,4.38,0,0,0-.67,3.61,4.35,4.35,0,0,0,7.59,1.65A1.61,1.61,0,0,1,25,67l14.31,5L24.83,77.09a1.39,1.39,0,0,1-1.56-.54,4.35,4.35,0,0,0-7,5.16,4.41,4.41,0,0,0,2.21,1.62,4.35,4.35,0,0,0,6.11,6.11A4.38,4.38,0,0,0,26.23,86a1.66,1.66,0,0,1,1.11-1.56L51,76.13l23.69,8.32A1.65,1.65,0,0,1,75.83,86a4.36,4.36,0,0,0,4.36,4.36,4.34,4.34,0,0,0,3.4-7.06,4.34,4.34,0,0,0,2.87-5.22Zm-42.64-13V60.39H39.89a4,4,0,0,1-4-4V46.57C36,39.19,43,33.18,51.43,33.18s15.4,6,15.53,13.39v9.82a4,4,0,0,1-4,4H59.18v4.69a4,4,0,0,1-2.5,3.7V65a2,2,0,0,0-4,0v4.06H50.1V65a2,2,0,0,0-4,0v3.65A4,4,0,0,1,43.82,65.08Z"/><circle cx="44.57" cy="49.82" r="4.55" transform="matrix(0.99, -0.16, 0.16, 0.99, -7.4, 7.78)"/><circle cx="58.18" cy="49.82" r="4.55"/><polygon points="51.44 55.63 49.14 59.02 53.65 59.02 51.44 55.63"/></svg>