<svg id="Layer_1" data-name="Layer 1" xmlns="http://www.w3.org/2000/svg" viewBox="0 0 100 100"><defs><style>.cls-1{fill:none;stroke:#000;stroke-miterlimit:10;stroke-width:3px;}</style></defs><path class="cls-1" d="M23.35,11.3a2.33,2.33,0,0,1,4,0l5.72,9.92,5.73,9.91a2.32,2.32,0,0,1-2,3.48H13.92a2.32,2.32,0,0,1-2-3.48l5.72-9.91Z"/><path d="M23.64,16.06a.83.83,0,0,1,.81-1h1.67a.85.85,0,0,1,.84,1l-.82,9.47a.84.84,0,0,1-.85.83.83.83,0,0,1-.84-.83Zm1.65,12a1.58,1.58,0,0,1,1.64,1.6v.24a1.58,1.58,0,0,1-1.64,1.6,1.6,1.6,0,0,1-1.65-1.6v-.24A1.6,1.6,0,0,1,25.29,28.05Z"/><path d="M85.58,78.21a4.34,4.34,0,0,0-7.66-1.55,1.4,1.4,0,0,1-1.57.53L61.89,72.11l14.31-5a1.59,1.59,0,0,1,1.79.44A4.35,4.35,0,0,0,82.48,69a4.34,4.34,0,0,0,2.43-6.72,4.38,4.38,0,0,0-2.2-1.62,4.34,4.34,0,0,0-2.39-6.94A4.36,4.36,0,0,0,75,58a1.73,1.73,0,0,1-1.13,1.71l-5.65,2a8,8,0,0,0,1.92-5.18V44.64h-.16C68.69,36,60.42,29.28,50.55,29.28S32.41,36,31.17,44.64H31V56.49a8,8,0,0,0,2.28,5.59l-6.81-2.4A1.76,1.76,0,0,1,25.35,58,4.36,4.36,0,0,0,20,53.71a4.34,4.34,0,0,0-2.38,6.94,4.41,4.41,0,0,0-2.21,1.62,4.35,4.35,0,0,0-.67,3.6,4.35,4.35,0,0,0,7.59,1.66,1.61,1.61,0,0,1,1.79-.44l14.31,5L24,77.19a1.38,1.38,0,0,1-1.56-.53,4.35,4.35,0,0,0-7.67,1.55,4.37,4.37,0,0,0,.67,3.61,4.45,4.45,0,0,0,2.21,1.61,4.35,4.35,0,1,0,7.75,2.69,1.66,1.66,0,0,1,1.11-1.57l23.69-8.32,23.69,8.32A1.65,1.65,0,0,1,75,86.13a4.36,4.36,0,0,0,4.36,4.36,4.37,4.37,0,0,0,4.24-3.34,4.34,4.34,0,0,0-.84-3.72,4.42,4.42,0,0,0,2.2-1.61A4.37,4.37,0,0,0,85.58,78.21Zm-42.64-13V60.49H39a4,4,0,0,1-4-4V46.68c.12-7.39,7.09-13.4,15.53-13.4s15.4,6,15.53,13.4v9.81a4,4,0,0,1-4,4H58.3v4.69a4,4,0,0,1-2.5,3.7V65.12a2,2,0,1,0-4,0v4.06H49.22V65.12a2,2,0,1,0-4,0v3.66A4,4,0,0,1,42.94,65.18Z"/><circle cx="43.69" cy="49.92" r="4.55" transform="matrix(0.99, -0.16, 0.16, 0.99, -7.43, 7.64)"/><circle cx="57.3" cy="49.92" r="4.55"/><polygon points="50.56 55.74 48.26 59.13 52.77 59.13 50.56 55.74"/></svg>