<?xml version="1.0" encoding="utf-8"?>
<!-- Generator: Adobe Illustrator 24.0.0, SVG Export Plug-In . SVG Version: 6.00 Build 0)  -->
<svg version="1.1" id="Layer_1" xmlns="http://www.w3.org/2000/svg" xmlns:xlink="http://www.w3.org/1999/xlink" x="0px" y="0px"
	 viewBox="0 0 100 100" style="enable-background:new 0 0 100 100;" xml:space="preserve">
<g>
	<path d="M26.2,28C26.2,28,26.1,28,26.2,28c-0.9,0-1.7,0.7-1.6,1.6v0.2c0,0,0,0,0,0.1c0,0.9,0.8,1.6,1.6,1.5c0,0,0.1,0,0.1,0
		c0.9,0,1.6-0.7,1.6-1.6v-0.2c0,0,0-0.1,0-0.1C27.8,28.6,27,28,26.2,28z"/>
	<path d="M27,15h-1.7c0,0-0.1,0-0.1,0c-0.5,0.1-0.8,0.5-0.7,1l0.8,9.4c0,0.4,0.4,0.7,0.8,0.8c0.5,0.1,0.9-0.3,0.9-0.8l0.8-9.4
		c0,0,0-0.1,0-0.1C27.9,15.4,27.5,15,27,15z"/>
	<path d="M86.5,78.1L86.5,78.1c-0.6-2.3-3-3.7-5.3-3.1c-0.9,0.2-1.8,0.8-2.4,1.6c-0.4,0.5-1,0.7-1.6,0.5L62.8,72l14.3-5
		c0.6-0.2,1.3-0.1,1.8,0.4c1.5,1.8,4.3,2.1,6.1,0.6c1.7-1.4,2.1-4,0.8-5.8c-0.5-0.8-1.3-1.3-2.2-1.6c1.5-1.9,1.2-4.6-0.7-6.1
		c-1.9-1.5-4.6-1.2-6.1,0.7c-0.6,0.8-0.9,1.7-0.9,2.7c0,0.8-0.4,1.4-1.1,1.7l-5.7,2c1.3-1.4,1.9-3.3,2-5.2V44.5h-0.2
		c-1.2-8.6-9.5-15.4-19.4-15.4c-3.6,0-7,0.9-10,2.5c-0.1-0.5-0.2-1-0.5-1.4l-5.7-9.9l-5.8-9.9c-0.3-0.6-0.8-1-1.4-1.4
		c-0.9-0.5-1.9-0.7-2.9-0.4c-1,0.3-1.8,0.9-2.3,1.8L11.5,30.3c-0.3,0.6-0.5,1.2-0.5,1.9c0,1,0.4,2,1.1,2.7s1.7,1.1,2.7,1.1h21.3
		c-2.1,2.4-3.5,5.4-4,8.6h-0.2v11.9c0,2.1,0.8,4.1,2.3,5.6l-6.8-2.4c-0.7-0.3-1.2-1-1.1-1.7c0-2.4-1.9-4.4-4.3-4.4
		c-2.4,0-4.4,1.9-4.4,4.3c0,1,0.3,2,0.9,2.7c-0.9,0.3-1.7,0.9-2.2,1.6c-0.7,1-1,2.4-0.7,3.6c0.6,2.3,3,3.7,5.3,3.1
		c0.9-0.2,1.7-0.7,2.3-1.5c0.4-0.5,1.2-0.7,1.8-0.5l14.3,5l-14.5,5.1c-0.6,0.2-1.2,0-1.6-0.5c-1.5-1.9-4.2-2.2-6.1-0.7
		c-1.8,1.4-2.2,4-0.9,5.9c0.5,0.8,1.3,1.3,2.2,1.6c-1.5,1.9-1.2,4.6,0.7,6.1c1.6,1.2,3.8,1.2,5.4,0c1-0.8,1.6-2.1,1.6-3.4
		c0-0.7,0.4-1.3,1.1-1.6L51,76.1l23.7,8.3c0.7,0.2,1.1,0.8,1.1,1.5c0,2.4,2,4.4,4.4,4.4c2.4,0,4.3-1.9,4.4-4.3c0-1-0.3-2-1-2.7
		C85.8,82.6,87,80.3,86.5,78.1z M14.2,32.7c-0.2-0.2-0.2-0.4-0.2-0.6c0-0.1,0-0.3,0.1-0.4L25.5,12c0.1-0.2,0.3-0.3,0.5-0.4
		c0.2-0.1,0.4,0,0.6,0.1c0.1,0.1,0.2,0.2,0.3,0.3l5.8,9.9l5.7,9.9c0.2,0.4,0.1,0.9-0.3,1.1C38,32.9,37.8,33,37.7,33H14.8
		C14.6,33,14.4,32.9,14.2,32.7z M59.2,65.1c0,1.6-1,3.1-2.5,3.7V65c0-1.1-0.9-2-2-2s-2,0.9-2,2v4.1h-2.6V65c0-1.1-0.9-2-2-2
		c-1.1,0-2,0.9-2,2v3.7c-1.4-0.7-2.3-2-2.3-3.6v-4.7h-3.9c-2.2,0-4-1.8-4-4v-9.8C36,39.2,43,33.2,51.4,33.2s15.4,6,15.5,13.4v9.8
		c0,2.2-1.8,4-4,4h-3.8V65.1z"/>
	<path d="M49.2,49.2c-0.4-2.5-2.7-4.2-5.2-3.8c-2.5,0.4-4.2,2.7-3.8,5.2c0.4,2.5,2.7,4.2,5.2,3.8C47.9,54.1,49.6,51.7,49.2,49.2z"/>
	<circle cx="58.2" cy="49.8" r="4.5"/>
	<polygon points="49.1,59 53.7,59 51.4,55.6 	"/>
</g>
</svg>
