<?xml version="1.0" encoding="utf-8"?>
<!-- Generator: Adobe Illustrator 24.0.0, SVG Export Plug-In . SVG Version: 6.00 Build 0)  -->
<svg version="1.1" id="Layer_1" xmlns="http://www.w3.org/2000/svg" xmlns:xlink="http://www.w3.org/1999/xlink" x="0px" y="0px"
	 viewBox="0 0 100 100" style="enable-background:new 0 0 100 100;" xml:space="preserve">
<g>
	<path d="M26.1,15.1h-1.7c-0.1,0-0.1,0-0.2,0c-0.4,0.1-0.7,0.5-0.6,1l0.8,9.5c0,0,0,0,0,0c0,0.5,0.4,0.8,0.8,0.8c0,0,0,0,0,0
		c0.5,0,0.8-0.4,0.8-0.8l0.8-9.5c0-0.1,0-0.1,0-0.2C27,15.4,26.6,15.1,26.1,15.1z"/>
	<path d="M25.3,28.1L25.3,28.1C25.3,28,25.2,28,25.3,28.1c-0.9,0-1.7,0.7-1.6,1.6v0.2c0,0,0,0,0,0.1c0,0.9,0.8,1.6,1.6,1.5
		c0,0,0.1,0,0.1,0c0.9,0,1.6-0.7,1.6-1.6v-0.2c0,0,0-0.1,0-0.1C26.9,28.7,26.2,28,25.3,28.1z"/>
	<path d="M85.6,78.2c-0.6-2.3-3-3.7-5.3-3.1c-0.9,0.2-1.8,0.8-2.4,1.6c-0.4,0.5-1,0.7-1.6,0.5l-14.5-5.1l14.3-5
		c0.6-0.2,1.3-0.1,1.8,0.4c1.1,1.3,2.8,1.9,4.5,1.5c2.3-0.6,3.7-3,3.1-5.3c-0.1-0.5-0.4-1-0.7-1.4c-0.5-0.8-1.3-1.3-2.2-1.6
		c1.5-1.9,1.2-4.6-0.7-6.1c-0.5-0.4-1.1-0.7-1.7-0.8c-2.3-0.5-4.7,0.9-5.2,3.3C75,57.3,75,57.7,75,58c0,0.8-0.4,1.4-1.1,1.7l-5.6,2
		c1.2-1.4,1.9-3.3,1.9-5.2V44.6H70c-1.3-8.6-9.6-15.4-19.4-15.4c-3.6,0-7,0.9-10,2.5c-0.1-0.5-0.2-1-0.5-1.4L28.6,10.5
		c-0.3-0.5-0.8-1-1.3-1.3c-0.9-0.5-1.9-0.7-2.9-0.4c-1,0.2-1.8,0.9-2.4,1.7L10.6,30.4c-0.3,0.6-0.5,1.2-0.5,1.9c0,1,0.4,2,1.1,2.7
		s1.7,1.1,2.7,1.1h21.2c-2.1,2.4-3.5,5.3-4,8.5H31v11.8c0,2.1,0.8,4.1,2.3,5.6l-6.8-2.4c-0.7-0.3-1.1-0.9-1.1-1.7
		c0-2.4-1.9-4.4-4.3-4.4c-0.3,0-0.7,0-1,0.1c-2.3,0.6-3.8,2.9-3.2,5.2c0.1,0.6,0.4,1.2,0.8,1.7c-0.9,0.3-1.7,0.9-2.2,1.6
		c-0.7,1-1,2.4-0.7,3.6c0.6,2.3,3,3.7,5.3,3.1c0.9-0.2,1.7-0.7,2.3-1.5c0.4-0.5,1.2-0.7,1.8-0.4l14.3,5L24,77.2
		c-0.6,0.2-1.2,0-1.6-0.5c-1.5-1.9-4.2-2.3-6.1-0.8c-0.8,0.6-1.3,1.4-1.6,2.4c-0.3,1.2-0.1,2.6,0.7,3.6c0.5,0.8,1.3,1.3,2.2,1.6
		c-1.5,1.9-1.2,4.6,0.7,6.1s4.6,1.2,6.1-0.7c0.6-0.8,1-1.7,0.9-2.7c0-0.7,0.4-1.3,1.1-1.6l23.7-8.3l23.7,8.3
		c0.7,0.2,1.1,0.9,1.1,1.6c0,2.4,2,4.4,4.4,4.4c2,0,3.8-1.4,4.2-3.3c0.3-1.3,0-2.7-0.8-3.7c0.9-0.3,1.7-0.9,2.2-1.6
		C85.7,80.8,85.9,79.4,85.6,78.2z M13.3,32.9c-0.2-0.2-0.2-0.4-0.2-0.6c0-0.1,0-0.3,0.1-0.4l11.4-19.8c0.1-0.2,0.3-0.3,0.5-0.4
		c0.2-0.1,0.4,0,0.6,0.1c0.1,0.1,0.2,0.2,0.3,0.3l11.4,19.8c0.1,0.2,0.1,0.4,0.1,0.6c-0.1,0.2-0.2,0.4-0.4,0.5
		c-0.1,0.1-0.3,0.1-0.4,0.1H13.9C13.7,33.1,13.5,33,13.3,32.9z M58.3,65.2c0,1.6-1,3.1-2.5,3.7v-3.8c0-1.1-0.9-2-2-2s-2,0.9-2,2v4.1
		h-2.6v-4.1c0-1.1-0.9-2-2-2c-1.1,0-2,0.9-2,2v3.7c-1.4-0.7-2.3-2.1-2.3-3.6v-4.7H39c-2.2,0-4-1.8-4-4v-9.8
		c0.1-7.4,7.1-13.4,15.5-13.4c8.4,0,15.4,6,15.5,13.4v9.8c0,2.2-1.8,4-4,4h-3.8V65.2z"/>
	<path d="M48.3,49.3c-0.4-2.5-2.7-4.2-5.2-3.8c-2.5,0.4-4.2,2.7-3.8,5.2c0.4,2.5,2.7,4.2,5.2,3.8C47,54.2,48.7,51.8,48.3,49.3z"/>
	<circle cx="57.3" cy="49.9" r="4.5"/>
	<polygon points="48.3,59.1 52.8,59.1 50.6,55.7 	"/>
</g>
</svg>
