<?xml version="1.0" encoding="utf-8"?>
<!-- Generator: Adobe Illustrator 24.2.3, SVG Export Plug-In . SVG Version: 6.00 Build 0)  -->
<svg version="1.1" id="Layer_1" xmlns="http://www.w3.org/2000/svg" xmlns:xlink="http://www.w3.org/1999/xlink" x="0px" y="0px"
	 viewBox="0 0 100 100" style="enable-background:new 0 0 100 100;" xml:space="preserve">
<path d="M24.5,8.8c-8.7,0-15.8,7.1-15.8,15.8s7.1,15.8,15.8,15.8s15.8-7.1,15.8-15.8S33.1,8.8,24.5,8.8z M12.7,24.6
	c0-2.5,0.8-4.8,2.1-6.7l16.4,16.4c-1.9,1.3-4.2,2.1-6.7,2.1C18,36.4,12.7,31.1,12.7,24.6z M34.1,31.3L17.7,14.9
	c1.9-1.3,4.2-2.1,6.7-2.1c6.5,0,11.8,5.3,11.8,11.8C36.2,27.1,35.4,29.4,34.1,31.3z"/>
<path d="M74.5,38.8c-1.5-0.7-3.1-1.3-4.7-1.7c-1.7-0.5-2.9-2-2.9-3.8l-0.3-4.8c1.8-2.5,2.3-5.6,1.5-8.5c-0.3-1.1-0.8-2.1-1.5-3.1
	c0.3,0.1,0.6,0.2,0.9,0.3c1,0.5,1.8,1.5,2,2.7c0.2,0.9,0.3,1.8,0.4,2.7c0.1,0.8,0.2,1.6,0.4,2.4c0.3,0.9,0.8,1.7,1.6,2.3
	c0.9,0.6,2.1,0.9,3.2,0.6c0.5-0.1,0.9-0.4,1.3-0.7c1.2-0.9,1.7-2.4,1.4-3.9c0-0.2-0.1-0.4-0.1-0.6c0,0.1,0,0.1,0,0.2
	c-0.1,0.9-0.8,1.6-1.7,1.7c-0.7,0.1-1.4-0.4-1.6-1.1c-0.1-0.5-0.2-1.1-0.2-1.6c0-1-0.1-1.9-0.1-2.9c-0.1-0.8-0.2-1.6-0.5-2.4
	c-0.5-1.3-1.3-2.5-2.4-3.3c-0.8-0.7-1.7-1.1-2.6-1.4c-1.6-0.5-3.3-0.3-4.7,0.6c-0.5,0.3-0.9,0.7-1.2,1.1c-3.7-1.8-8.3-1.2-11.4,1.9
	c-2.6,2.6-3.7,6.4-2.7,9.9l-0.9,2.6c-0.1,0.3,0.1,0.7,0.4,0.8c0.1,0,0.2,0,0.3,0l1.7-0.2c1.6,2.3,4.2,3.8,7,4.2l-0.8,8.2
	c-0.2,1.8-1.2,3.5-2.8,4.5l-3,1.9c-2.5,1.6-3.5,4.8-2.2,7.6l1.5,3.3c0.5,1.2,0.2,2.6-0.8,3.5c-3.6,3.1-6,7.3-6.9,12
	c-0.1,0.9-0.2,1.7-0.2,2.6c0,3.3,0.7,6.6,2.1,9.5l2,4.2h27.2c0,0-0.3-14.4,0.6-15.3c3.7-3.3,12.3-11.5,13-14.8
	C87.8,55.6,76.2,39.8,74.5,38.8z M77.2,59.8L77.2,59.8l-5.6,6.7c-0.1,0.1-0.3,0.2-0.4,0C71,66.5,71,66.4,71,66.3l0.9-14.8
	c0-0.2,0.2-0.3,0.4-0.3c0.1,0,0.2,0.1,0.2,0.1l4.8,6.7C77.6,58.5,77.6,59.3,77.2,59.8z"/>
</svg>
