<svg id="Layer_1" data-name="Layer 1" xmlns="http://www.w3.org/2000/svg" viewBox="0 0 100 100"><defs><style>.cls-1{fill:none;stroke:#000;stroke-miterlimit:10;stroke-width:4px;}</style></defs><circle class="cls-1" cx="24.45" cy="24.58" r="13.77"/><path d="M16.28,13.5a14.18,14.18,0,0,0-2.92,2.92L32.61,35.67a13.7,13.7,0,0,0,2.92-2.92Z"/><path d="M74.54,38.8a28.86,28.86,0,0,0-4.69-1.7,4.08,4.08,0,0,1-2.91-3.79l-.3-4.82a10,10,0,0,0,1.5-8.5,10.58,10.58,0,0,0-2.47-4.34,10.07,10.07,0,0,0-16.93,9.69l-.86,2.55a.64.64,0,0,0,.7.84l1.66-.22a10.11,10.11,0,0,0,7,4.16l-.78,8.15a6,6,0,0,1-2.75,4.49l-3,1.89a6,6,0,0,0-2.23,7.56l1.52,3.31a3,3,0,0,1-.79,3.5,21.19,21.19,0,0,0-6.87,12,16.87,16.87,0,0,0-.22,2.61,21.89,21.89,0,0,0,2.08,9.55l2,4.25H73.39s-.31-14.41.65-15.28c3.66-3.33,12.31-11.46,13-14.81C87.83,55.64,76.2,39.75,74.54,38.8Zm2.61,21L71.51,66.5a.31.31,0,0,1-.55-.22l.88-14.78a.32.32,0,0,1,.57-.16L77.22,58A1.43,1.43,0,0,1,77.15,59.76Z"/><path d="M61.62,16A5.12,5.12,0,0,1,64,12.54a5.48,5.48,0,0,1,4.66-.64,7.53,7.53,0,0,1,2.65,1.44,7.42,7.42,0,0,1,2.36,3.32,8.71,8.71,0,0,1,.5,2.37c.06.95.08,1.91.11,2.87a8,8,0,0,0,.16,1.62A1.37,1.37,0,0,0,76,24.62a1.92,1.92,0,0,0,1.66-1.74,1.37,1.37,0,0,1,0-.19h0c0,.21.11.42.15.63a3.82,3.82,0,0,1-1.36,3.9,3.21,3.21,0,0,1-1.29.68A3.93,3.93,0,0,1,72,27.3,4.13,4.13,0,0,1,70.38,25a12.56,12.56,0,0,1-.44-2.42,24.25,24.25,0,0,0-.41-2.69,3.83,3.83,0,0,0-2-2.66A2.61,2.61,0,0,0,65.35,17c-.14.05-.26.12-.42.19A31.8,31.8,0,0,1,61.62,16Z"/></svg>