<?xml version="1.0" encoding="utf-8"?>
<!-- Generator: Adobe Illustrator 24.0.0, SVG Export Plug-In . SVG Version: 6.00 Build 0)  -->
<svg version="1.1" id="Layer_1" xmlns="http://www.w3.org/2000/svg" xmlns:xlink="http://www.w3.org/1999/xlink" x="0px" y="0px"
	 viewBox="0 0 100 100" style="enable-background:new 0 0 100 100;" xml:space="preserve">
<g>
	<path d="M88.2,58l4.4-4.5c2.6-2.6,2.6-6.9,0-9.5c-0.2-0.2-0.5-0.5-0.8-0.7l0.2-0.2c2.6-2.6,2.6-6.9,0-9.5c0,0,0,0,0,0l0-0.1
		c-0.7-0.7-1.6-1.3-2.6-1.6c0.1-1.4-0.3-2.8-1.1-4c-1.2-1.8-3.3-2.9-5.5-2.9c-0.4,0-0.7,0-1.1,0.1c-0.3-0.7-0.8-1.3-1.3-1.8
		c-1.3-1.3-3-2-4.8-2l-0.1,0c-1.8,0-3.5,0.7-4.8,2l-6,6.1l-1.3-1.3c-4.7-4.7-12.4-4.7-17.1,0l-8.6,8.6c-1.9,1.9-3.1,4.4-3.5,7.1
		c0,0,0,0,0,0c-1.8,0-3.6,0.7-4.9,2L18.6,56.4c-1.1,1.1-2.1,2.2-3,3.4c-6.5,8.3-6.3,19.9,0.5,28c0.8,1,1.7,2,2.6,2.9
		c8,8,20.9,8,28.8,0c0,0,0,0,0,0l3.5-3.5c0.2,0.2,0.4,0.4,0.6,0.5c1.7,1,3.7,1.6,5.8,1.6c2.5,0,5-0.7,7.2-2c2,1.4,4.4,2.2,6.8,2.2
		c6.3,0,11.5-5.1,11.6-11.4c4.6-1.7,7.6-6,7.6-10.9c0-3.2-2-5.8-4.3-7.7c0-0.1,0.1-0.2,0.1-0.4C87.1,58.8,87.7,58.5,88.2,58z
		 M90.1,50.3c-0.1,0.2-0.2,0.3-0.3,0.4L86.5,54c-0.4-1.9-1.2-3.7-2.5-5.3l1.8-1.8c0.6-0.5,1.3-0.9,2.1-0.9c0.5,0,1,0.1,1.5,0.4
		C90.6,47.3,90.9,49,90.1,50.3z M71.7,55.4l0.3-0.2c1.9-1.9,2.4-4.6,1.6-6.9c0.2,0.2,0.4,0.4,0.7,0.5l6.2,7c-0.5-0.2-1-0.3-1.5-0.4
		c-1.1,0-2.1,0.4-2.8,1.2l-2.1,2.1C73.7,57.4,72.8,56.2,71.7,55.4z M70.6,44.6c-0.4-0.2-0.8-0.4-1.2-0.6c0-0.3,0-0.6,0-0.8
		L70.6,44.6z M79,59.5c0,0,1.1,0.5,2.4,1.3c-0.3,0.5-0.7,0.9-1.1,1.3l-8.6,8.6c-1.7,1.7-4,2.5-6.4,2.3L79,59.5z M87.2,35.5
		c0.8,0,1.5,0.3,2,0.8l0.1,0.1c1.1,1.1,1.1,2.8,0,3.9c0,0,0,0,0,0L82.4,47l-4-4l6.7-6.7C85.6,35.8,86.4,35.5,87.2,35.5L87.2,35.5z
		 M80.9,29.7c1-1,2.7-1.1,3.7-0.1c0.1,0.1,0.3,0.3,0.4,0.4c0.7,1.1,0.5,2.5-0.4,3.3l-7.8,8L73,37.6L80.9,29.7z M73.6,26
		c0.5-0.5,1.2-0.8,2-0.8c0.7,0,1.5,0.3,2,0.8c1.1,1,1.2,2.8,0.2,3.9c0,0,0,0,0,0l-6.2,6.2l-4-4L73.6,26z M49,30.8
		c3.2-3.2,8.3-3.2,11.5,0l1.8,1.8c-0.3,1.2,0,2.5,0.9,3.6l0.9,1.1c-0.4-0.1-0.9-0.1-1.4-0.1c-0.4,0-0.7,0-1.1,0
		c-0.3-0.7-0.8-1.3-1.3-1.8c-2.7-2.7-7-2.7-9.6,0c0,0,0,0,0,0L39.6,46.3c-0.4-0.6-0.9-1-1.5-1.4c0,0,0,0,0,0c0-2.1,0.9-4.1,2.4-5.6
		L49,30.8z M38,44.9C38,44.8,38,44.8,38,44.9C38,44.8,38,44.8,38,44.9z M44.7,87.8c-0.4,0.4-0.8,0.8-1.2,1.2c-0.4,0.3-0.9,0.7-1.3,1
		c-2.7,1.7-5.8,2.7-9,2.7c-0.6,0-1.2,0-1.8-0.1c-2.6-0.3-5.1-1.2-7.3-2.6c-0.9-0.6-1.8-1.3-2.6-2.1L21,87.4c-0.7-0.7-1.3-1.4-2-2.2
		c-5.5-6.6-5.7-16.2-0.4-23c0.8-1.1,1.7-2.1,2.7-3l3.7-3.6l7.2-7.2c0.1-0.1,0.3-0.2,0.4-0.3l0.1-0.1l0.3-0.2l0.2-0.1
		c0.1,0,0.2-0.1,0.3-0.1l0.2,0c0.1,0,0.2,0,0.3,0h0.3h0.3h0.2l0.3,0.1l0.1,0c0.1,0.1,0.3,0.1,0.4,0.2c0.2,0.1,0.3,0.3,0.5,0.4
		c1,1.1,1,2.8-0.1,3.8L30.5,58c-0.1,0.1-0.2,0.2-0.2,0.3c-0.2,0.4-0.1,0.8,0.2,1.2c0.1,0.1,0.2,0.2,0.4,0.3h0.1
		c0.1,0,0.2,0.1,0.3,0.1c0.1,0,0.2,0,0.3-0.1h0.2c0.1-0.1,0.3-0.1,0.4-0.2l14.3-14.3l7.2-7.2c0.1-0.1,0.1-0.1,0.2-0.2
		c0.2-0.1,0.4-0.3,0.6-0.4c0.4-0.2,0.8-0.3,1.2-0.3c0.2,0,0.4,0,0.5,0.1c0.3,0.1,0.5,0.2,0.8,0.3c0.1,0,0.2,0.1,0.3,0.2
		c0.1,0.1,0.3,0.2,0.4,0.3c0.4,0.4,0.7,0.9,0.8,1.5c0.2,0.7,0,1.4-0.3,2c-0.1,0.2-0.2,0.3-0.3,0.4L41.2,58.3c-0.3,0.3-0.4,0.6-0.3,1
		c0,0.4,0.2,0.7,0.6,0.9c0.1,0.1,0.2,0.1,0.3,0.1h0.1H42h0.1c0.1,0,0.2,0,0.3-0.1h0.1c0.1-0.1,0.3-0.1,0.4-0.2l0.5-0.5l2.8-2.8
		l14.6-14.8c0.1-0.1,0.3-0.3,0.4-0.4l0.2-0.1c0.1-0.1,0.2-0.1,0.3-0.2l0.2-0.1l0.3-0.1h0.2h0.2h0.1h0.3h0.2c0.1,0,0.2,0.1,0.3,0.1
		l0.2,0.1c0.1,0.1,0.2,0.2,0.3,0.2l0.2,0.1c0.2,0.2,0.3,0.3,0.4,0.5c0.1,0.1,0.2,0.3,0.2,0.4c0.4,1,0.2,2.2-0.6,2.9L49.9,60.2
		l-2.8,2.8L47,63.2c-0.2,0.2-0.3,0.5-0.3,0.8c0,0.3,0.1,0.6,0.3,0.8c0.1,0.1,0.2,0.2,0.4,0.3h0.1c0.1,0,0.2,0.1,0.3,0.1
		c0.1,0,0.2,0,0.3-0.1h0.1c0.1-0.1,0.3-0.2,0.4-0.3l0.1-0.1l2.8-2.8L65,48.5v-0.1c0.4-0.4,0.9-0.7,1.5-0.8h0.2c0.1,0,0.3,0,0.4,0
		h0.3h0.2l0.3,0.1l0.2,0.1c0.1,0.1,0.3,0.1,0.4,0.2l0.1,0c0.2,0.1,0.3,0.2,0.5,0.4l0.1,0.1c0.5,0.5,0.8,1.3,0.8,2
		c0,0.7-0.3,1.4-0.8,1.9L51.9,69.5c-0.5,0.4-0.5,1.2,0,1.6c0,0,0,0,0,0c0.5,0.5,1.2,0.5,1.6,0l0.8-0.8l2.8-2.8l0.4-0.4l8.1-8.1
		c0.1-0.1,0.3-0.2,0.4-0.3l0.1-0.1c0.1-0.1,0.2-0.1,0.3-0.2l0.2-0.1c0.1,0,0.2-0.1,0.3-0.1h0.2c0.1,0,0.2,0,0.4,0H68h0.3h0.1
		c0.1,0,0.2,0,0.3,0.1l0.1,0c0.1,0.1,0.3,0.1,0.4,0.2c0.2,0.1,0.3,0.3,0.5,0.4l0.1,0.1c0.2,0.3,0.4,0.6,0.5,0.9
		c0.1,0.2,0.1,0.4,0.1,0.6c0.1,0.7-0.2,1.4-0.6,1.9c-0.1,0.1-0.1,0.2-0.2,0.3l-8.5,8.5l-2.8,2.8l-1.1,1.1l-4.4,4.4L51,81.5
		c0,0-0.1,0.1-0.1,0.1L44.7,87.8z M86.6,67.1c0,4.2-3.4,7.6-7.6,7.6c-0.2,0-0.5,0-0.7,0c1.6,3.9-0.2,8.3-4.1,10
		c-3.4,1.4-7.3,0.2-9.3-2.9c-1.9,2.2-4.6,3.5-7.5,3.5c-1.3,0-2.5-0.3-3.6-0.9l1.5-1.5l6.6-6.6c4.4,1.6,9.3,0.5,12.6-2.8l8.6-8.6
		c0.5-0.5,1-1.1,1.4-1.7C85.7,64.3,86.6,65.6,86.6,67.1z"/>
	<path d="M44.6,21.3c5.2,0,9.5-4.2,9.5-9.5c0,0,0,0,0,0c0-5.2-4.2-9.5-9.5-9.5c-5.2,0-9.5,4.2-9.5,9.5
		C35.1,17.1,39.4,21.3,44.6,21.3z M44.6,6.3C44.6,6.3,44.6,6.3,44.6,6.3c3.1,0,5.5,2.5,5.5,5.5c0,3-2.5,5.5-5.5,5.5
		c-3,0-5.5-2.5-5.5-5.5C39.1,8.8,41.6,6.4,44.6,6.3z"/>
	<path d="M67.2,21.1c3.5,0,6.4-2.9,6.4-6.4c0-3.6-2.9-6.4-6.4-6.4c-3.6,0-6.4,2.9-6.4,6.4C60.8,18.2,63.7,21.1,67.2,21.1z
		 M67.2,11.7c1.7,0,3,1.3,3,3s-1.3,3-3,3s-3-1.3-3-3S65.5,11.7,67.2,11.7z"/>
	<path d="M26.4,36.9c3.8,0,6.9-3.1,6.9-6.9c0-3.8-3.1-6.9-6.9-6.9c-3.8,0-6.9,3.1-6.9,6.9S22.6,36.9,26.4,36.9z M26.4,26.3
		L26.4,26.3c2,0,3.7,1.6,3.7,3.7c0,2-1.7,3.7-3.7,3.7c-2,0-3.7-1.6-3.7-3.7C22.7,28,24.4,26.3,26.4,26.3z"/>
</g>
</svg>
