<?xml version="1.0" encoding="utf-8"?>
<!-- Generator: Adobe Illustrator 24.0.0, SVG Export Plug-In . SVG Version: 6.00 Build 0)  -->
<svg version="1.1" id="Layer_1" xmlns="http://www.w3.org/2000/svg" xmlns:xlink="http://www.w3.org/1999/xlink" x="0px" y="0px"
	 viewBox="0 0 100 100" style="enable-background:new 0 0 100 100;" xml:space="preserve">
<g>
	<path d="M39.5,23c0-8.7-7.1-15.8-15.8-15.8S8,14.3,8,23s7.1,15.8,15.8,15.8S39.5,31.7,39.5,23z M35.5,23c0,2.5-0.8,4.8-2.1,6.7
		L17,13.4c1.9-1.3,4.2-2.1,6.8-2.1C30.3,11.3,35.5,16.5,35.5,23z M12,23c0-2.5,0.8-4.8,2.1-6.7l16.4,16.3c-1.9,1.3-4.2,2.1-6.7,2.1
		C17.3,34.8,12,29.5,12,23z"/>
	<path d="M88.4,60.7c-2.6-2.6-6-4-9.6-4l-12.3,0l0,0l-22.8,0.1l0,0l-11.7,0h0c-3.6,0-7,1.4-9.6,4s-4,6-4,9.6c0,3.6,1.4,7,4,9.6
		c2.6,2.6,6,4,9.6,4c0,0,0,0,0,0L78.9,84c3.6,0,7-1.4,9.6-4c2.6-2.6,4-6,4-9.6C92.5,66.7,91,63.2,88.4,60.7z M32.1,80.1
		C32.1,80.1,32,80.1,32.1,80.1c-2.6,0-5-1-6.8-2.8c-1.8-1.8-2.8-4.2-2.8-6.8c0-2.6,1-5,2.8-6.8s4.2-2.8,6.8-2.8l11.8,0l0.6,19.2
		L32.1,80.1z M85.7,77.1c-1.8,1.8-4.2,2.8-6.8,2.8l-11.7,0l-0.6-19.2l12.2,0c0,0,0,0,0,0c2.6,0,5,1,6.8,2.8c1.8,1.8,2.8,4.2,2.8,6.8
		C88.5,72.9,87.5,75.3,85.7,77.1z"/>
</g>
</svg>
