<?xml version="1.0" encoding="utf-8"?>
<!-- Generator: Adobe Illustrator 24.0.0, SVG Export Plug-In . SVG Version: 6.00 Build 0)  -->
<svg version="1.1" id="Layer_1" xmlns="http://www.w3.org/2000/svg" xmlns:xlink="http://www.w3.org/1999/xlink" x="0px" y="0px"
	 viewBox="0 0 100 100" style="enable-background:new 0 0 100 100;" xml:space="preserve">
<g>
	<path d="M40.7,46.3v-0.5c6.2-2.9,11-8.3,12.4-14.8c0.3-1.4,0-2.8-0.7-3.9c-0.8-1.2-1.9-2-3.3-2.3c-0.3-0.1-0.7-0.1-1-0.1H12
		c0,0,0,0,0,0c-2.9,0-5.2,2.3-5.2,5.2c0,0.4,0,0.8,0.1,1.1c1.5,6.6,6.2,11.9,12.5,14.8v0.5c0,3.1,2.5,5.6,5.6,5.6h10.1
		C38.2,51.9,40.7,49.3,40.7,46.3z M35.1,47.9h-1.8c1-0.1,2-0.3,3-0.6C36,47.6,35.6,47.9,35.1,47.9z M10.8,30.1c0-0.1,0-0.2,0-0.3
		c0-0.7,0.6-1.2,1.2-1.2c0,0,0,0,0,0h36c0.1,0,0.2,0,0.2,0c0.3,0.1,0.6,0.3,0.8,0.5c0.2,0.3,0.2,0.6,0.2,0.9
		c-1.8,8.1-9.9,14-19.2,14C20.7,44.1,12.6,38.2,10.8,30.1z M23.8,47.3c0.9,0.2,1.9,0.4,2.9,0.5H25C24.5,47.9,24.1,47.7,23.8,47.3z"
		/>
	<path d="M80.1,33.3c-2-1-4.2-1.6-6.5-1.8c-1.5-0.1-2.9-0.4-4.3-0.9c-1.8-0.7-3.3-2.4-4.6-4.9c-0.7-1.3-2.1-2-3.6-1.7l-2.9,0.7
		c-0.9,0.2-1.6,0.8-2,1.6l-0.1,0c0,0,0,0.1,0.1,0.1c-0.1,0.1-0.1,0.2-0.2,0.4c-0.4,1-0.3,2.2,0.4,3.1c1.6,2.4,3.1,4.9,4.5,7.5
		c1.8,3.2,2.8,6.8,2.9,10.5c-0.1,3.6-1.6,8-5.5,9.2c-2.7,0.9-5.6,0-8.6-0.9c-2.7-0.8-5.5-1.7-8.5-1.4c-4.7,0.4-8.1,4.2-9,10.2
		c-0.1,0.8-0.3,11.4,1.6,13.7c0.4,0.5,1.1,0.8,1.8,0.8h4c1,0,1.9-0.4,2.5-1.2c0.6-0.8,0.8-1.8,0.5-2.7c-0.8-2.5-1.5-5.3-1-7.6
		c0.1-0.7,0.5-1.4,1-1.8c0.2,0.1,0.3,0.2,0.4,0.3c1.2,1.2,2.2,2.5,3.2,3.9c1.4,2,2.9,3.8,4.7,5.4c3.3,2.8,7.5,4.2,11.8,4.2
		c2.6,0,5.2-0.5,7.7-1.5c9.1-3.4,16.6-12,18.1-20.9C89.8,49,87.9,37.7,80.1,33.3z M40.3,65.7C40.3,65.7,40.3,65.7,40.3,65.7
		C40.3,65.7,40.3,65.7,40.3,65.7z M71.2,62c0,0.1,0,0.1,0,0.2v5.9c0,0.4-0.3,0.8-0.7,0.8c-0.4,0-0.8-0.3-0.8-0.7c0-0.1,0-0.1,0-0.2
		v-5.9c0-0.4,0.3-0.8,0.7-0.8C70.7,61.3,71.1,61.6,71.2,62z M68.2,62c0,0.1,0,0.1,0,0.2v5.9c0,0.4-0.3,0.8-0.7,0.8
		c-0.4,0-0.8-0.3-0.8-0.7c0-0.1,0-0.1,0-0.2v-5.9c0-0.4,0.3-0.8,0.7-0.8C67.7,61.3,68.1,61.6,68.2,62z M62.1,68.9
		c-1,0-1.8-0.7-1.8-1.7c0-0.1,0-0.2,0-0.3v-2.7c0-0.4,0.3-0.8,0.7-0.8c0.4,0,0.8,0.3,0.8,0.7c0,0.1,0,0.1,0,0.2v2.3
		c0,0.7,0.3,1.1,0.9,1.1s1-0.4,1-1.1v-2.3c0-0.4,0.3-0.8,0.8-0.8s0.8,0.3,0.8,0.8l-0.1,4c0,0.4-0.3,0.8-0.8,0.8s-0.8-0.3-0.8-0.8V68
		C63.3,68.5,62.7,68.9,62.1,68.9z M58.9,63.5c0.3,0,0.6,0.3,0.6,0.6c0,0.3-0.3,0.6-0.6,0.6h-0.6v3.4c0,0.4-0.3,0.8-0.7,0.8
		c-0.4,0-0.8-0.3-0.8-0.7c0-0.1,0-0.1,0-0.2v-3.4h-0.1c-0.3,0-0.6-0.3-0.6-0.6c0,0,0,0,0,0c0-0.3,0.3-0.6,0.6-0.6h0.1v-0.3
		c0-0.5,0.1-0.9,0.4-1.3c0.3-0.3,0.8-0.5,1.2-0.4c0.2,0,0.4,0,0.6,0c0.3,0,0.5,0.3,0.5,0.6c0,0.3-0.3,0.6-0.6,0.6h-0.1
		c-0.4,0-0.6,0.2-0.6,0.6v0.2L58.9,63.5z M39.5,77.5h-4c0,0,0,0,0,0L39.5,77.5C39.5,77.5,39.5,77.5,39.5,77.5z M45.7,66.6
		C45.7,66.6,45.7,66.6,45.7,66.6c0.4,0.4,0.8,0.9,1.2,1.5C46.5,67.6,46.1,67.1,45.7,66.6z"/>
</g>
</svg>
