<?xml version="1.0" encoding="utf-8"?>
<!-- Generator: Adobe Illustrator 24.0.0, SVG Export Plug-In . SVG Version: 6.00 Build 0)  -->
<svg version="1.1" id="Layer_1" xmlns="http://www.w3.org/2000/svg" xmlns:xlink="http://www.w3.org/1999/xlink" x="0px" y="0px"
	 viewBox="0 0 100 100" style="enable-background:new 0 0 100 100;" xml:space="preserve">
<g>
	<path d="M49.9,18.5c0-0.2,0-0.4,0-0.5c0-1.8-0.7-3.4-1.9-4.7s-2.9-1.9-4.7-1.9H16.6c-0.2,0-0.4,0-0.5,0c-3.6,0.3-6.4,3.5-6.1,7.2
		l4.7,52.3c0.3,3.4,3.1,6,6.6,6c0,0,0,0,0,0h17.3c0,0,0,0,0,0c3.4,0,6.3-2.6,6.6-6L49.9,18.5z M42.5,56.2c-1.3,5.6-6.3,9.8-12.3,9.9
		c0,0,0,0,0,0c-7,0.1-12.7-5.6-12.8-12.6c-0.1-7,5.6-12.7,12.6-12.8c6.9-0.1,12.5,5.4,12.8,12.2L42.5,56.2z M15.3,33.2l-1.3-15
		c-0.1-1.4,1-2.7,2.4-2.8c0.1,0,0.1,0,0.2,0h26.7c0.7,0,1.4,0.3,1.9,0.8c0.5,0.5,0.8,1.2,0.8,1.9c0,0.1,0,0.1,0,0.2l-1.3,15H15.3z"
		/>
	<path d="M36.4,60.8l-4.9-4.9c-0.2,0.1-0.4,0.2-0.5,0.2V63c0,0.4,0.3,0.7,0.7,0.7c0,0,0.1,0,0.1,0c1.6-0.2,3.2-0.9,4.5-1.8
		C36.7,61.7,36.7,61.2,36.4,60.8C36.5,60.8,36.4,60.8,36.4,60.8z"/>
	<path d="M20.6,52.8c0,0,0.1,0,0.1,0h6.9c0.1-0.2,0.1-0.4,0.2-0.5L23,47.4c-0.3-0.3-0.8-0.3-1.1,0c0,0-0.1,0.1-0.1,0.1
		c-1,1.3-1.6,2.9-1.9,4.5C19.9,52.4,20.2,52.7,20.6,52.8z"/>
	<path d="M27.7,54.3h-6.9c-0.4,0-0.8,0.3-0.8,0.7c0,0,0,0.1,0,0.1c0.3,1.6,0.9,3.1,1.8,4.4c0.2,0.3,0.7,0.4,1.1,0.1
		c0,0,0.1,0,0.1-0.1l4.9-4.9C27.8,54.6,27.7,54.5,27.7,54.3z"/>
	<path d="M24.1,60.7c-0.3,0.3-0.3,0.8,0,1c0,0,0.1,0.1,0.1,0.1c1.3,1,2.8,1.6,4.4,1.8c0.4,0.1,0.8-0.2,0.9-0.6c0,0,0-0.1,0-0.1v-6.9
		c-0.2-0.1-0.4-0.1-0.5-0.2L24.1,60.7z"/>
	<path d="M28.7,43.3c0,0-0.1,0-0.1,0c-1.6,0.3-3.2,0.9-4.5,1.9c-0.3,0.3-0.4,0.7-0.2,1.1c0,0,0,0,0.1,0.1l4.8,4.9
		c0.2-0.1,0.4-0.2,0.6-0.3l0-6.9C29.4,43.6,29.1,43.3,28.7,43.3z"/>
	<path d="M36.4,46.2c0.3-0.3,0.3-0.8,0-1c0,0-0.1-0.1-0.1-0.1c-1.3-1-2.9-1.6-4.5-1.9c-0.4,0-0.8,0.3-0.8,0.7c0,0,0,0,0,0.1v6.9
		c0.2,0.1,0.4,0.1,0.6,0.2L36.4,46.2z"/>
	<path d="M37.6,47.2C37.6,47.3,37.5,47.3,37.6,47.2l-5,4.9c0.1,0.2,0.2,0.4,0.3,0.6h6.9c0.4,0,0.8-0.3,0.8-0.8c0,0,0-0.1,0-0.1
		c-0.3-1.6-0.9-3.2-1.9-4.5C38.4,47.1,37.9,47,37.6,47.2z"/>
	<path d="M39.9,54.3c0,0-0.1,0-0.1,0h-6.9c-0.1,0.2-0.2,0.4-0.3,0.6l4.9,4.8c0.3,0.3,0.8,0.3,1.1,0c0,0,0-0.1,0.1-0.1
		c1-1.3,1.6-2.9,1.9-4.5C40.6,54.8,40.3,54.4,39.9,54.3z"/>
	<path d="M80.4,55.1c-1.1,0-2,0.8-2.1,1.9c-0.5,11.6-9.1,21.3-20.5,23.2c-1.1,0.2-1.8,1.2-1.7,2.3c0.2,1,1,1.7,2,1.7
		c0.1,0,0.2,0,0.3,0c13.3-2.2,23.3-13.5,23.9-27C82.4,56.1,81.5,55.1,80.4,55.1z"/>
	<path d="M83,44.1c-0.6-0.7-1.3-1.1-2.2-1.3l-2.5-5.8c-0.4-0.9-1.1-1.6-2-2c-0.9-0.4-1.9-0.4-2.9,0l-1.3,0.5c-0.9,0.4-1.6,1.1-2,2
		c-0.4,0.9-0.4,1.9,0,2.9l2.4,5.7c-0.2,0.6-0.2,1.2-0.1,1.8c0.1,0.3,0.1,0.6,0.2,1c2.1,13.2-7,25.7-20.2,27.8
		c-1.5,0.2-3,0.3-4.4,0.3L48,77c0,0,0,0,0,0c-1.6,0-3.1,0.8-4,2.1c-0.7,1.1-1,2.3-0.7,3.6s1,2.3,2,3c4.8,3.2,10.3,4.8,15.9,4.8
		c6.5,0,13-2.2,18.2-6.5C91.4,74.1,93,56.2,83,44.1z M76.8,81c-8.3,6.9-20.3,7.5-29.2,1.5c-0.2-0.2-0.3-0.4-0.3-0.5s0-0.4,0.1-0.6
		c0.1-0.2,0.4-0.3,0.6-0.3c1.7,0,3.4-0.1,5.1-0.3C68.5,78.3,79,63.9,76.7,48.5l3.4-1.5C88.5,57.3,87,72.5,76.8,81z"/>
</g>
</svg>
