<?xml version="1.0" encoding="utf-8"?>
<!-- Generator: Adobe Illustrator 24.0.0, SVG Export Plug-In . SVG Version: 6.00 Build 0)  -->
<svg version="1.1" id="Layer_1" xmlns="http://www.w3.org/2000/svg" xmlns:xlink="http://www.w3.org/1999/xlink" x="0px" y="0px"
	 viewBox="0 0 100 100" style="enable-background:new 0 0 100 100;" xml:space="preserve">
<g>
	<path d="M30.1,43l-7.3,0l-0.4,0l0-2.3l0.8,0v0l2,0c1.3,0,2.4-1.1,2.4-2.4l0-7.3l-14,0l0,7.3c0,1.3,1.1,2.4,2.4,2.4c0,0,0,0,0,0
		l2.3,0l0,2.3l-6.4,0l0,0.1l-0.8,0c-1.1,0-2,0.9-2,2c0,1.1,0.9,2,2,2c0,0,0,0,0,0l0.7,0l0,5.7c0,0,0,0,0,0c0,0,0,0,0,0l-0.1,19.9
		c0,0.7,0.3,1.3,0.7,1.8c0.3,0.3,0.7,0.5,1.2,0.7l1.1,3.9c0.3,1.1,1.3,1.8,2.4,1.8c0,0,0,0,0,0h1l0.2,9.5c0,1.1,0.9,2,2,2
		c0,0,0,0,0,0c1.1,0,2-0.9,2-2l-0.2-9.4h1.1c0,0,0,0,0,0c1.1,0,2-0.7,2.4-1.8l1.1-3.8c1.2-0.2,2.1-1.2,2.1-2.4L29.1,47l1,0
		c1.1,0,2-0.9,2-2C32.1,43.9,31.2,43,30.1,43z M17.7,35l5.9,0l0,1.7l-5.9,0L17.7,35z M18.5,47l0,3.8l-2.5,0l0-3.8L18.5,47z M25,71.3
		h-8.9l-0.2,0L16,54.8l9.1,0L25,71.3z M18.4,76.9l-0.5-1.6l4.7,0l-0.5,1.6H18.4z M25.1,47l0,3.8l-2.6,0l0-3.8l0.4,0L25.1,47z"/>
	<path d="M19.6,65.9c-0.7,0.5-0.9,1.5-0.4,2.2c0.5,0.7,1.5,0.8,2.2,0.3s0.9-1.5,0.4-2.2C21.3,65.6,20.4,65.4,19.6,65.9z"/>
	<path d="M21.6,59.6c0.7-0.5,0.9-1.5,0.4-2.2c-0.5-0.7-1.5-0.8-2.2-0.3s-0.9,1.5-0.4,2.2S20.9,60.1,21.6,59.6z"/>
	<path d="M21.5,63.9c0.7-0.5,0.9-1.5,0.4-2.2c-0.5-0.7-1.5-0.8-2.2-0.3c-0.7,0.5-0.9,1.5-0.4,2.2C19.8,64.3,20.8,64.4,21.5,63.9z"/>
	<path d="M84.9,58.7c-0.5-0.1-1-0.2-1.5-0.1h-0.9c-1.5-2.1-3.7-3.5-6.2-4C74.9,50.7,71.2,48,67,48c0,0,0,0,0,0
		c-1.2,0-2.4,0.2-3.5,0.6c-1.4-1.5-3.2-2.5-5.2-3c-2.6-0.6-5.3-0.1-7.5,1.3c-2.2,1.4-3.8,3.7-4.4,6.3c-2.9,0.7-5.3,2.6-6.6,5.3h-1.1
		c-1.7,0-3.3,0.6-4.5,1.7c-1.2,1.2-1.9,2.7-2,4.4c0,0.5,0,1,0.1,1.5c1.9,8.3,8,15.1,16,18.6v0.5c0,3.6,2.8,6.5,6.5,6.6h12.6
		c0,0,0,0,0,0c1.7,0,3.4-0.7,4.6-1.9c1.2-1.2,1.9-2.9,1.9-4.6v-0.7c7.9-3.6,14-10.3,15.8-18.6C90.5,62.8,88.3,59.4,84.9,58.7z
		 M48.3,57l1.8-0.1l0.1-1.8c0.1-1.9,1.1-3.7,2.8-4.7c1.4-0.9,3-1.1,4.5-0.8c1.6,0.3,2.9,1.3,3.8,2.6l1.1,1.7l1.7-1
		c0.9-0.6,2-0.9,3.1-0.9c0,0,0,0,0,0c2.8,0,5.3,2,5.8,4.8l0.3,1.5l1.6,0.1c0.4,0,0.7,0.1,1.1,0.2l-31.1,0
		C45.7,57.7,46.9,57.1,48.3,57z M69.2,87.3c-0.5,0.5-1.1,0.7-1.8,0.7H54.8c-1.1,0-1.9-0.7-2.3-1.6c2.7,0.8,5.6,1.2,8.5,1.2
		c3,0,6-0.5,8.7-1.2C69.6,86.7,69.4,87,69.2,87.3z M85.2,65.2C82.9,75.5,72.7,82.9,61,82.9c-11.7,0-21.8-7.4-24.1-17.7
		c0-0.1,0-0.3,0-0.4c0-0.4,0.2-0.9,0.5-1.2c0.3-0.3,0.7-0.5,1.2-0.5c0,0,0,0,0,0l44.9,0c0.1,0,0.3,0,0.4,0
		C84.8,63.4,85.4,64.3,85.2,65.2z"/>
	<path d="M75.9,41.4c8.4,0,15.3-6.9,15.3-15.3s-6.8-15.3-15.3-15.3s-15.3,6.9-15.3,15.3S67.4,41.4,75.9,41.4z M75.9,13.9
		c6.8,0,12.3,5.5,12.3,12.3s-5.5,12.3-12.3,12.3s-12.3-5.5-12.3-12.3S69.1,13.9,75.9,13.9z"/>
	<path d="M73.5,19.8c0.1,0,0.2,0,0.3,0l0.6-0.2v5.8c0,0.5,0.4,0.9,0.9,0.9c0.5,0,0.9-0.4,0.9-0.9v-6.8c0-0.5-0.4-0.9-0.9-0.9h0
		c-0.3,0-0.5,0.1-0.9,0.2l-1.2,0.3c-0.4,0.1-0.6,0.4-0.6,0.8C72.7,19.5,73.1,19.8,73.5,19.8z"/>
	<path d="M75.2,28.8c-0.6,0-1,0.3-1.3,0.7v-1.6c0-0.3-0.3-0.6-0.6-0.6s-0.6,0.3-0.6,0.6v4.7c0,0.3,0.3,0.6,0.6,0.6s0.6-0.3,0.6-0.6
		v-1.8c0-0.6,0.3-0.9,0.8-0.9s0.7,0.3,0.7,0.9v1.8c0,0.3,0.3,0.6,0.6,0.6s0.6-0.3,0.6-0.6v-2.2C76.6,29.5,76.1,28.8,75.2,28.8z"/>
	<path d="M77.9,33.3c0.3,0,0.6-0.3,0.6-0.6v-1.1c0-0.9,0.3-1.3,1-1.5c0.2-0.1,0.5-0.2,0.5-0.6c0-0.3-0.2-0.6-0.6-0.6
		c-0.4,0-0.6,0.4-0.8,0.8v-0.2c0-0.3-0.3-0.6-0.6-0.6s-0.6,0.3-0.6,0.6v3.2C77.3,33,77.6,33.3,77.9,33.3z"/>
</g>
</svg>
