<svg id="Layer_1" data-name="Layer 1" xmlns="http://www.w3.org/2000/svg" viewBox="0 0 100 100"><defs><style>.cls-1,.cls-2,.cls-3{fill:none;}.cls-2,.cls-3{stroke:#000;stroke-miterlimit:10;stroke-width:4px;}.cls-2{stroke-linecap:round;}</style></defs><g id="_254" data-name="254"><rect class="cls-1" x="17.04" y="12.23" width="80" height="80"/><path class="cls-2" d="M85.74,51.15a10.64,10.64,0,0,0-9.07-5.86,10.61,10.61,0,0,0-15.9-6.92,10.62,10.62,0,0,0-19.63,5.08,10.61,10.61,0,0,0-9.48,7.7Z"/><path class="cls-3" d="M44,81.07v3a6,6,0,0,0,6,6H66.81a6,6,0,0,0,6-6V81"/><path class="cls-3" d="M58.35,83.75c17.39,0,31.91-11.17,35.23-26a5.38,5.38,0,0,0-5.29-6.48H28.41a5.38,5.38,0,0,0-5.3,6.48C26.43,72.58,41,83.75,58.35,83.75Z"/></g><circle class="cls-3" cx="26.59" cy="25.12" r="13.77"/><path d="M18.43,14A13.75,13.75,0,0,0,15.51,17L34.76,36.21a14,14,0,0,0,2.92-2.93Z"/></svg>