<?xml version="1.0" encoding="utf-8"?>
<!-- Generator: Adobe Illustrator 24.0.0, SVG Export Plug-In . SVG Version: 6.00 Build 0)  -->
<svg version="1.1" id="Layer_1" xmlns="http://www.w3.org/2000/svg" xmlns:xlink="http://www.w3.org/1999/xlink" x="0px" y="0px"
	 viewBox="0 0 100 100" style="enable-background:new 0 0 100 100;" xml:space="preserve">
<g>
	<path d="M75.8,40.1c8.4,0,15.3-6.9,15.3-15.3S84.2,9.6,75.8,9.6s-15.3,6.9-15.3,15.3S67.4,40.1,75.8,40.1z M75.8,12.6
		c6.8,0,12.3,5.5,12.3,12.3s-5.5,12.3-12.3,12.3s-12.3-5.5-12.3-12.3S69,12.6,75.8,12.6z"/>
	<path d="M73.6,23.2h3.5v1c0,0.5,0.4,0.9,0.9,0.9c0.5,0,0.9-0.4,0.9-0.9v-1h0.4c0.4,0,0.8-0.3,0.8-0.7s-0.3-0.8-0.8-0.8h-0.4v-4.3
		c0-0.5-0.4-0.9-0.9-0.9c-0.5,0-0.8,0.2-1.2,0.6l-3.6,4.2c-0.3,0.3-0.4,0.6-0.4,1C72.7,22.8,73.1,23.2,73.6,23.2z M77.1,19v2.6h-2.2
		L77.1,19z"/>
	<path d="M71.5,32c0.3,0,0.6-0.3,0.6-0.6v-1.8c0-0.6,0.3-0.9,0.8-0.9s0.7,0.3,0.7,0.9v1.8c0,0.3,0.3,0.6,0.6,0.6s0.6-0.3,0.6-0.6
		v-2.2c0-1-0.5-1.6-1.5-1.6c-0.6,0-1,0.3-1.3,0.7v-1.6c0-0.3-0.3-0.6-0.6-0.6s-0.6,0.3-0.6,0.6v4.7C70.8,31.7,71.1,32,71.5,32z"/>
	<path d="M77.5,27.6c-0.4,0-0.6,0.4-0.8,0.8v-0.2c0-0.3-0.3-0.6-0.6-0.6s-0.6,0.3-0.6,0.6v3.2c0,0.3,0.3,0.6,0.6,0.6
		s0.6-0.3,0.6-0.6v-1.1c0-0.9,0.3-1.3,1-1.5c0.2-0.1,0.5-0.2,0.5-0.6C78.1,27.9,77.8,27.6,77.5,27.6z"/>
	<path d="M78.3,28.9L78.3,28.9c0,0.8,0.7,1.1,1.3,1.3c0.5,0.1,0.9,0.2,0.9,0.5v0c0,0.2-0.2,0.3-0.5,0.3c-0.3,0-0.8-0.1-1.2-0.4
		c-0.1,0-0.2-0.1-0.2-0.1c-0.3,0-0.5,0.2-0.5,0.5c0,0.2,0.1,0.3,0.2,0.4c0.5,0.3,1.1,0.5,1.6,0.5c0.9,0,1.6-0.4,1.6-1.4v0
		c0-0.8-0.7-1.1-1.3-1.3c-0.5-0.2-0.9-0.3-0.9-0.5v0c0-0.2,0.2-0.3,0.4-0.3c0.3,0,0.6,0.1,0.9,0.3c0.1,0,0.1,0.1,0.2,0.1
		c0.3,0,0.5-0.2,0.5-0.5c0-0.2-0.1-0.4-0.3-0.5c-0.4-0.2-0.9-0.3-1.3-0.3C79,27.6,78.3,28.1,78.3,28.9z"/>
	<path d="M75.8,60.8c-8.4,0-15.3,6.8-15.3,15.3s6.8,15.3,15.3,15.3S91.1,84.4,91.1,76S84.2,60.8,75.8,60.8z M75.8,88.3
		c-6.8,0-12.3-5.5-12.3-12.3S69,63.8,75.8,63.8S88.1,69.3,88.1,76S82.6,88.3,75.8,88.3z"/>
	<path d="M73.8,76.2h4.6c0.4,0,0.8-0.3,0.8-0.8c0-0.4-0.4-0.8-0.8-0.8h-2.9l1.4-1.1c1.5-1.2,2.2-1.8,2.2-3.2v0
		c0-1.6-1.2-2.6-2.9-2.6c-1.3,0-2.1,0.5-2.7,1.2c-0.1,0.2-0.2,0.4-0.2,0.6c0,0.5,0.4,0.8,0.8,0.8c0.3,0,0.5-0.1,0.6-0.3
		c0.5-0.5,0.8-0.7,1.4-0.7c0.7,0,1.1,0.4,1.1,1.1c0,0.7-0.4,1.2-1.5,2l-2.4,2c-0.3,0.3-0.5,0.6-0.5,0.9
		C72.8,75.8,73.2,76.2,73.8,76.2z"/>
	<path d="M73.3,78.7c-0.6,0-1,0.3-1.3,0.7v-1.6c0-0.3-0.3-0.6-0.6-0.6s-0.6,0.3-0.6,0.6v4.7c0,0.3,0.3,0.6,0.6,0.6s0.6-0.3,0.6-0.6
		v-1.8c0-0.6,0.3-0.9,0.8-0.9s0.7,0.3,0.7,0.9v1.8c0,0.3,0.3,0.6,0.6,0.6s0.6-0.3,0.6-0.6v-2.2C74.8,79.4,74.2,78.7,73.3,78.7z"/>
	<path d="M77.5,78.8c-0.4,0-0.6,0.4-0.8,0.8v-0.2c0-0.3-0.3-0.6-0.6-0.6s-0.6,0.3-0.6,0.6v3.2c0,0.3,0.3,0.6,0.6,0.6
		s0.6-0.3,0.6-0.6v-1.1c0-0.9,0.3-1.3,1-1.5c0.2-0.1,0.5-0.2,0.5-0.6C78.1,79,77.8,78.8,77.5,78.8z"/>
	<path d="M80.2,80.5c-0.5-0.2-0.9-0.3-0.9-0.5v0c0-0.2,0.2-0.3,0.4-0.3c0.3,0,0.6,0.1,0.9,0.3c0.1,0,0.1,0.1,0.2,0.1
		c0.3,0,0.5-0.2,0.5-0.5c0-0.2-0.1-0.4-0.3-0.5c-0.4-0.2-0.9-0.3-1.3-0.3c-0.9,0-1.6,0.5-1.6,1.4v0c0,0.8,0.7,1.1,1.3,1.3
		c0.5,0.1,0.9,0.2,0.9,0.5v0c0,0.2-0.2,0.3-0.5,0.3c-0.3,0-0.8-0.1-1.2-0.4c-0.1,0-0.2-0.1-0.2-0.1c-0.3,0-0.5,0.2-0.5,0.5
		c0,0.2,0.1,0.3,0.2,0.4c0.5,0.3,1.1,0.5,1.6,0.5c0.9,0,1.6-0.4,1.6-1.4v0C81.5,81,80.8,80.7,80.2,80.5z"/>
	<path d="M55.1,36.2v-9.5c0-2.4-2-4.4-4.4-4.4h-32c-2.4,0-4.4,2-4.4,4.4v9.5l-2.9,7.7c-0.5,1.4-0.8,2.9-0.8,4.5v37.7
		c0,2.4,1.9,4.3,4.3,4.3H55c2.4,0,4.3-1.9,4.3-4.3V48.6c0-1.7-0.4-3.3-1-4.9L55.1,36.2z M53.1,75.7c0,2.4-1.9,4.3-4.3,4.3
		c0,0,0,0,0,0H21c-2.4,0-4.3-1.9-4.3-4.3v-21c0-2.4,1.9-4.3,4.3-4.3c0,0,0,0,0,0h27.8c2.4,0,4.3,1.9,4.3,4.3V75.7z"/>
	<path d="M33.7,60.2h-5.5c0,0,0,0,0,0c-0.6,0-1.1,0.5-1.1,1.1V69c0,0,0,0,0,0c0,0.6,0.5,1.1,1.1,1.1c0.6,0,1.1-0.5,1.1-1.1v-2.7H33
		c0.6,0,1-0.4,1-1c0-0.6-0.4-1-1-1h-3.8v-2.1h4.4c0.6,0,1-0.4,1-1C34.7,60.7,34.2,60.2,33.7,60.2z"/>
	<path d="M39.2,62.4c0,0-0.1,0-0.1,0c-2.1,0.1-3.7,1.8-3.6,3.9c0,0.1,0,0.2,0,0.3c0.1,2.1,1.9,3.7,3.9,3.6c0.9,0,1.9-0.3,2.6-0.9
		c0.2-0.1,0.3-0.3,0.3-0.5c0-0.5-0.3-0.9-0.8-0.9c-0.2,0-0.4,0-0.5,0.2c-0.5,0.3-1,0.5-1.6,0.5c-0.9,0.1-1.7-0.6-1.8-1.5h4.2
		c0.6,0,1-0.4,1-1c0,0,0-0.1,0-0.1C42.8,63.9,41.2,62.4,39.2,62.4z M37.6,65.7c0-0.9,0.7-1.6,1.6-1.6c0.9,0,1.6,0.7,1.6,1.6H37.6z"
		/>
</g>
</svg>
