<?xml version="1.0" encoding="utf-8"?>
<!-- Generator: Adobe Illustrator 24.2.3, SVG Export Plug-In . SVG Version: 6.00 Build 0)  -->
<svg version="1.1" id="Layer_1" xmlns="http://www.w3.org/2000/svg" xmlns:xlink="http://www.w3.org/1999/xlink" x="0px" y="0px"
	 viewBox="0 0 100 100" style="enable-background:new 0 0 100 100;" xml:space="preserve">
<path d="M82.9,83.4h0.2H82.9z"/>
<path d="M65.4,83.1l0.3,0.1L65.4,83.1z"/>
<path d="M83.6,83.3l0.3-0.1L83.6,83.3z"/>
<path d="M84.2,83.2l0.3-0.1L84.2,83.2z"/>
<path d="M66.1,83.3l0.3,0.1L66.1,83.3z"/>
<path d="M66.8,83.4H67H66.8z"/>
<path d="M83.1,59.6h-0.2H83.1z"/>
<path d="M65.7,59.9L65.4,60L65.7,59.9z"/>
<path d="M83.9,59.8l-0.3-0.1L83.9,59.8z"/>
<path d="M67,59.6h-0.2H67z"/>
<path d="M84.5,60l-0.3-0.1L84.5,60z"/>
<path d="M66.3,59.7l-0.3,0.1L66.3,59.7z"/>
<path d="M88.5,53.2l-5.4-13.7c1.4-1,2.4-2.7,2.4-4.6c0-3.1-2.6-5.7-5.7-5.7h-9.4c-3.1,0-5.7,2.6-5.7,5.7c0,1.8,0.8,3.4,2.2,4.5
	l-5.4,13.9c-0.3,0.8-0.4,1.6-0.4,2.5v10.7v10.4v8c0,3.8,3,6.8,6.8,6.8h14.4c3.8,0,6.8-3,6.8-6.8v-7.6c0-0.1,0-0.3,0-0.4V66.3V55.6
	C89,54.8,88.8,53.9,88.5,53.2z M70.4,33.1h9.4c0.9,0,1.7,0.8,1.7,1.7c0,0.7-0.4,1.3-1,1.6H69.7c-0.6-0.3-1-0.9-1-1.6
	C68.7,33.8,69.5,33.1,70.4,33.1z M82.2,79.5H67.8c-1.5,0-2.8-1.3-2.8-2.8V66.3c0-1.5,1.3-2.8,2.8-2.8h14.4c1.5,0,2.8,1.3,2.8,2.8
	l0,10.4C85,78.2,83.7,79.5,82.2,79.5z"/>
<g>
	<path d="M41.1,58.3H30.9c-2.5,0-4.5,2-4.5,4.5v6.7c0,2.5,2,4.5,4.5,4.5h10.2c2.5,0,4.5-2,4.5-4.5v-6.7
		C45.6,60.3,43.6,58.3,41.1,58.3z"/>
	<path d="M66.4,81.2c-1.1,0-2,0.9-2,2c0,2.2-1.8,4-4,4H51V49.1l6.9-8.7l5.6,7.6c0.5,0.7,0.8,1.5,0.8,2.4c0,1.1,0.9,2,2,2
		c0,0,0,0,0,0c1.1,0,2-0.9,2-2c0-1.7-0.6-3.4-1.6-4.8L60,36.5v-7.3c0-2.2-1.8-4-4-4H41c-0.1-8.6-7.1-15.6-15.8-15.6
		c-8.7,0-15.8,7.1-15.8,15.8s7.1,15.8,15.8,15.8c0.1,0,0.2,0,0.3,0l-3.2,4.6c-0.9,1.3-1.4,2.9-1.4,4.5v33c0,4.4,3.6,8,8,8h21.9v0
		h9.4c4.4,0,8-3.6,8-8C68.4,82.1,67.5,81.2,66.4,81.2z M56,35.1h-2.5H37.6c1.4-1.7,2.4-3.7,2.9-5.9H56V35.1z M25.3,13.6
		c6.5,0,11.8,5.3,11.8,11.8c0,2.5-0.8,4.8-2.1,6.7L18.6,15.7C20.5,14.4,22.8,13.6,25.3,13.6z M13.5,25.4c0-2.5,0.8-4.8,2.1-6.7
		L32,35c-1.9,1.3-4.2,2.1-6.7,2.1C18.8,37.1,13.5,31.8,13.5,25.4z M46.9,47.7v39.6H29c-2.2,0-4-1.8-4-4v-33c0-0.8,0.3-1.6,0.7-2.3
		l5.5-8.1c0.6-0.2,1.1-0.5,1.7-0.8l20.7,0c0.1,0,0.1,0.1,0,0.2L46.9,47.7z"/>
</g>
</svg>
