<?xml version="1.0" encoding="utf-8"?>
<!-- Generator: Adobe Illustrator 24.0.0, SVG Export Plug-In . SVG Version: 6.00 Build 0)  -->
<svg version="1.1" id="Layer_1" xmlns="http://www.w3.org/2000/svg" xmlns:xlink="http://www.w3.org/1999/xlink" x="0px" y="0px"
	 viewBox="0 0 100 100" style="enable-background:new 0 0 100 100;" xml:space="preserve">
<g>
	<path d="M66.7,56.1c11.7,0,21.2-9.5,21.2-21.2c0-11.7-9.5-21.2-21.2-21.2s-21.2,9.5-21.2,21.2C45.5,46.6,55,56.1,66.7,56.1z
		 M66.7,17.6c9.5,0,17.2,7.7,17.2,17.2c0,9.5-7.7,17.2-17.2,17.2c-9.5,0-17.2-7.7-17.2-17.2C49.5,25.4,57.2,17.6,66.7,17.6z"/>
	<path d="M68.9,50.1c0,0,0.1,0,0.1,0c2.4-0.4,4.7-1.3,6.7-2.7c0.5-0.4,0.6-1.1,0.2-1.6c0,0-0.1-0.1-0.1-0.1l-7.2-7.2
		c-0.3,0.1-0.5,0.2-0.8,0.3V49C67.7,49.6,68.3,50.1,68.9,50.1z"/>
	<path d="M52.4,33.8c0,0,0.1,0,0.2,0h10.2c0.1-0.3,0.2-0.6,0.3-0.8l-7.2-7.2c-0.4-0.4-1.1-0.4-1.6,0c0,0-0.1,0.1-0.1,0.1
		c-1.4,2-2.3,4.2-2.7,6.6C51.4,33.2,51.8,33.7,52.4,33.8z"/>
	<path d="M55.8,44.2c0,0,0.1-0.1,0.1-0.1l7.2-7.2c-0.1-0.2-0.2-0.5-0.3-0.8H52.6c-0.6,0-1.1,0.5-1.1,1.1c0,0.1,0,0.1,0,0.2
		c0.4,2.4,1.3,4.6,2.8,6.6C54.6,44.4,55.3,44.5,55.8,44.2z"/>
	<path d="M57.5,45.6c-0.4,0.4-0.4,1.1,0,1.6c0,0,0.1,0.1,0.1,0.1c1.9,1.4,4.2,2.4,6.6,2.8c0.6,0.1,1.2-0.3,1.3-0.9c0,0,0-0.1,0-0.1
		V38.8c-0.3-0.1-0.5-0.2-0.8-0.3L57.5,45.6z"/>
	<path d="M57.4,24.2l7.2,7.2c0.3-0.2,0.6-0.3,0.9-0.4V20.8c0-0.6-0.5-1.1-1.1-1.1c-0.1,0-0.1,0-0.2,0c-2.4,0.4-4.7,1.4-6.7,2.8
		c-0.5,0.4-0.6,1.1-0.2,1.6C57.4,24.1,57.4,24.2,57.4,24.2z"/>
	<path d="M75.8,24.1c0.4-0.4,0.4-1.1,0-1.6c0,0-0.1-0.1-0.1-0.1c-2-1.5-4.3-2.4-6.7-2.8c-0.6-0.1-1.2,0.3-1.3,1c0,0,0,0.1,0,0.2V31
		c0.3,0.1,0.6,0.2,0.9,0.4L75.8,24.1z"/>
	<path d="M70.6,33.8l10.2,0c0.6,0,1.1-0.5,1.1-1.1c0-0.1,0-0.1,0-0.2c-0.4-2.4-1.3-4.7-2.8-6.7c-0.4-0.5-1.1-0.6-1.6-0.2
		c0,0-0.1,0.1-0.1,0.1l-7.2,7.2C70.4,33.2,70.5,33.5,70.6,33.8z"/>
	<path d="M80.9,36.1c0,0-0.1,0-0.1,0H70.6c-0.1,0.3-0.2,0.6-0.4,0.9l7.2,7.2c0.4,0.4,1.2,0.4,1.6,0c0,0,0.1-0.1,0.1-0.1
		c1.5-2,2.4-4.3,2.8-6.7C81.9,36.7,81.5,36.2,80.9,36.1z"/>
	<path d="M33,49.2H17c-1.4,0-2.7,0.7-3.6,1.8l0,0c-4.7,6.4-3.4,15.5,3,20.2c2,1.4,4.2,2.3,6.5,2.7v12.4h-4c-1.1,0-2,0.9-2,2
		s0.9,2,2,2h12c1.1,0,2-0.9,2-2s-0.9-2-2-2h-4V73.8c0.1,0,0.1,0,0.2,0c3.8-0.6,7.2-2.6,9.5-5.7c3.8-5.1,3.8-12,0-17.2
		C35.8,49.8,34.4,49.2,33,49.2z M17,53.2h16c0.2,0,0.3,0.1,0.4,0.2c1.1,1.5,1.7,3.1,2,4.8H14.7c0.2-1.7,0.9-3.3,1.9-4.8
		C16.7,53.2,16.9,53.2,17,53.2z"/>
	<path d="M23.6,39.6c8.7,0,15.8-7.1,15.8-15.8S32.3,8.1,23.6,8.1S7.8,15.2,7.8,23.9S14.9,39.6,23.6,39.6z M35.4,23.9
		c0,2.5-0.8,4.8-2.1,6.7L16.9,14.2c1.9-1.3,4.2-2.1,6.7-2.1C30.1,12.1,35.4,17.4,35.4,23.9z M14,17.2l16.4,16.4
		c-1.9,1.3-4.2,2.1-6.7,2.1c-6.5,0-11.8-5.3-11.8-11.8C11.8,21.4,12.6,19.1,14,17.2z"/>
	<path d="M87.3,67.5l-3.2-2.1c-0.8,0.5-1.7,0.9-2.6,1c-2.1,0.3-3.9-0.3-4.1-1.4c-0.1-0.9,1-1.9,2.5-2.3c0,0,0,0,0-0.1l-2.7-1.8
		c-0.4-0.3-0.9-0.3-1.4-0.2l-25.9,7.2c-1.7,0.5-2.9,2-2.9,3.8v14.5c0,2.2,1.8,4,4,3.9h1.1c0.6,0,1-0.4,1-1c0-0.2,0-0.4,0.1-0.6
		c0.3-1.7,2-2.9,3.8-2.5c1.5,0.3,2.6,1.6,2.6,3.2c0,0.6,0.4,1,1,1h16.1c0.4-1.5,2-2.4,3.6-2c1,0.3,1.7,1,2,2h2.7c2.2,0,3.9-1.8,4-4
		v-0.3c-1.8-0.4-2.8-2.2-2.4-4c0.3-1.2,1.2-2.1,2.4-2.4l0-0.1v-8.7C89,69.5,88.4,68.2,87.3,67.5z M53.2,82.4L53.2,82.4
		c-1.1,0-2-0.8-2-2c0-1.1,0.9-2,2-2c1.1,0,2,0.9,2,2C55.2,81.6,54.3,82.4,53.2,82.4z M55.7,74.9L55.7,74.9c-0.9,0-1.6-0.7-1.6-1.6
		s0.7-1.6,1.6-1.6s1.6,0.7,1.6,1.6C57.3,74.2,56.6,74.9,55.7,74.9z M71.3,63.7L71.3,63.7c1.3,0,2.3,0.6,2.3,1.3c0,0.7-1,1.3-2.3,1.3
		C70,66.4,69,65.8,69,65S70,63.7,71.3,63.7z M66.3,77.2c0,1.3-1,2.3-2.3,2.3c-1.3,0-2.3-1-2.3-2.3c0-1.3,1-2.3,2.3-2.3
		C65.3,74.9,66.3,75.9,66.3,77.2C66.3,77.2,66.3,77.2,66.3,77.2z M69.8,85.9C69.8,85.9,69.8,85.9,69.8,85.9L69.8,85.9
		c-1,0-1.9-0.9-1.9-1.9c0-1,0.9-1.9,1.9-1.9c1,0,1.9,0.9,1.9,1.9C71.7,85.1,70.9,85.9,69.8,85.9z M75.7,78.1c-1.7,0-3-1.3-3-3
		s1.3-3,3-3s3,1.3,3,3S77.4,78.1,75.7,78.1z M80.3,84.8c-1.3,0-2.4-1.1-2.4-2.4s1.1-2.3,2.4-2.3c1.3,0,2.3,1.1,2.3,2.3
		S81.6,84.8,80.3,84.8z"/>
</g>
</svg>
