<?xml version="1.0" encoding="utf-8"?>
<!-- Generator: Adobe Illustrator 24.0.0, SVG Export Plug-In . SVG Version: 6.00 Build 0)  -->
<svg version="1.1" id="Layer_1" xmlns="http://www.w3.org/2000/svg" xmlns:xlink="http://www.w3.org/1999/xlink" x="0px" y="0px"
	 viewBox="0 0 100 100" style="enable-background:new 0 0 100 100;" xml:space="preserve">
<g>
	<path d="M42,24.5c0-8.7-7.1-15.8-15.8-15.8s-15.8,7.1-15.8,15.8s7.1,15.8,15.8,15.8S42,33.2,42,24.5z M38,24.5
		c0,2.5-0.8,4.8-2.1,6.7L19.5,14.8c1.9-1.3,4.2-2.1,6.7-2.1C32.7,12.7,38,18,38,24.5z M14.4,24.5c0-2.5,0.8-4.8,2.1-6.7l16.4,16.4
		c-1.9,1.3-4.2,2.1-6.7,2.1C19.7,36.2,14.4,31,14.4,24.5z"/>
	<path d="M81,25.9c-2.8-1.6-5.8-2-8.6-2.4c-2.2-0.3-4.2-0.6-6.1-1.4c-2.6-1.1-4.8-3.4-6.8-7.1c-0.7-1.5-2.3-2.2-4-1.9l-4,1l-0.1,0
		c-1,0.3-1.8,1-2.3,1.9s-0.6,2-0.3,3c0.1,0.4,0.3,0.9,0.6,1.2c2.3,3.4,4.4,6.9,6.3,10.5c2.7,5.4,4.1,10.4,4,14.8
		c-0.1,5.3-2.3,11.6-8.2,13.4c-4,1.3-8,0-12.3-1.3c-3.6-1.1-7.4-2.3-11.4-2c-6,0.5-10.4,5.5-11.8,13.4c-0.2,1.5-0.3,15.5,2,18.2
		c0.5,0.6,1.2,0.9,1.9,0.9h5.5c0.9,0,1.8-0.4,2.5-1.1c0.7-0.7,1-1.6,1-2.5c0-0.4-0.1-0.7-0.1-1c-1-3.7-1.9-7.6-1.2-10.8
		c0.4-1.7,1.3-2.9,2-3.1c0.4-0.1,0.9,0.3,1.3,0.6c1.6,1.6,3,3.5,4.5,5.5c1.9,2.5,3.9,5.2,6.4,7.3c4.6,3.8,10,5.8,15.8,5.8
		c3.4,0,6.8-0.7,10.4-2c12.4-4.6,22.4-16.2,24.4-28.2C94.1,47,91.4,31.7,81,25.9z M88.1,58.1c-1.7,10.5-10.9,21.1-21.8,25.1
		c-8.2,3.1-16.1,2-22.2-3.1c-2.2-1.8-3.9-4.2-5.8-6.6c-1.5-2-3-4.1-4.9-5.9c-1.4-1.4-2.8-1.8-3.9-1.8c-0.5,0-0.9,0.1-1.3,0.2
		c-2.7,0.8-4.2,3.7-4.8,6.1c-0.8,3.9,0,8.1,1.2,12.2h-3.8c-0.8-2.9-1.2-12.6-0.9-14.5c0.5-2.9,2.3-9.6,8.2-10.1
		c3.3-0.3,6.5,0.7,9.9,1.8c4.7,1.4,9.5,2.9,14.7,1.3c7.9-2.5,10.8-10.5,11-17.2c0.1-5.1-1.4-10.7-4.4-16.8
		c-1.9-3.7-4.1-7.3-6.5-10.8l3.4-0.9c2.4,4.5,5.2,7.3,8.7,8.7c2.3,1,4.7,1.3,7,1.6c2.6,0.4,5.1,0.7,7.2,1.9
		C85.2,32.8,90.6,43.3,88.1,58.1z"/>
	<path d="M50.3,65.8c0,0-0.1,0-0.1,0c-1.3,0.1-2.4,1.2-2.3,2.5c0,0.1,0,0.1,0,0.2c0.1,1.3,1.2,2.4,2.5,2.3c0.6,0,1.2-0.1,1.7-0.5
		c0.1-0.1,0.2-0.3,0.2-0.4c0,0,0,0,0,0c0-0.3-0.2-0.5-0.5-0.5c-0.1,0-0.2,0-0.3,0.1c-0.3,0.2-0.6,0.3-1,0.3c-0.6,0-1.1-0.4-1.2-1H52
		c0,0,0,0,0,0c0.3,0,0.6-0.3,0.6-0.7c0,0,0-0.1,0-0.1C52.6,66.8,51.6,65.8,50.3,65.8z M49.3,68c0-0.6,0.5-1,1.1-1c0.6,0,1,0.4,1,1
		H49.3z"/>
	<path d="M59.5,65.8c-0.6,0-1.2,0.3-1.6,0.8c-0.3-0.5-0.8-0.8-1.4-0.8c-0.6,0-1.1,0.3-1.4,0.8c0-0.4-0.3-0.7-0.7-0.7
		c-0.4,0-0.7,0.3-0.7,0.7l0,3.6c0,0.4,0.3,0.7,0.7,0.7c0.4,0,0.7-0.3,0.7-0.7v-2.1c0-0.7,0.3-1,0.8-1s0.8,0.3,0.8,1v2.1
		c0,0.4,0.3,0.7,0.7,0.7c0.4,0,0.7-0.3,0.7-0.7v-2.1c0-0.7,0.3-1,0.8-1c0.5,0,0.8,0.3,0.8,1v2c0,0.4,0.3,0.7,0.7,0.7
		c0.4,0,0.7-0.3,0.7-0.7v-2.5C61.2,66.4,60.5,65.8,59.5,65.8z"/>
	<path d="M65.3,65.8c-0.6,0-1.2,0.3-1.5,0.8v-0.1c0-0.4-0.3-0.7-0.7-0.7c-0.4,0-0.7,0.3-0.7,0.7v5c0,0.4,0.3,0.7,0.7,0.7
		s0.7-0.3,0.7-0.7v-1.5c0.4,0.5,0.9,0.7,1.5,0.7c0.1,0,0.1,0,0.2,0c1.3-0.1,2.2-1.3,2-2.5c0-0.1,0-0.1,0-0.2
		C67.5,66.9,66.5,65.8,65.3,65.8z M66.1,68.7c-0.1,0.7-0.7,1.1-1.3,1c-0.7-0.1-1.1-0.7-1-1.3c0-0.1,0-0.2,0-0.3
		c0.1-0.7,0.7-1.1,1.3-1c0.7,0.1,1.1,0.7,1,1.3C66.1,68.5,66.1,68.6,66.1,68.7z"/>
	<path d="M70.7,67.1c0.3,0,0.6-0.3,0.6-0.6s-0.3-0.6-0.6-0.6h-0.6v-0.6c0-0.4-0.3-0.7-0.7-0.7c-0.4,0-0.7,0.3-0.7,0.7v0.6
		c-0.3,0-0.6,0.3-0.6,0.6s0.3,0.6,0.6,0.6v2.3c0,1.1,0.6,1.5,1.4,1.5c0.3,0,0.5,0,0.8-0.1c0.2-0.1,0.4-0.3,0.4-0.5
		c0-0.3-0.3-0.6-0.6-0.6h-0.2c-0.3,0-0.5-0.2-0.5-0.5v-2.1H70.7z"/>
	<path d="M76,65.8c-0.3,0-0.6,0.2-0.7,0.5l-1,2.8l-1-2.8c-0.1-0.3-0.4-0.5-0.7-0.5c0,0,0,0,0,0c-0.4,0-0.7,0.3-0.6,0.7
		c0,0.1,0,0.2,0.1,0.3l1.7,3.8v0.1c-0.1,0.2-0.3,0.3-0.5,0.3c-0.1,0-0.2,0-0.3,0c-0.1,0-0.2,0-0.2,0c0,0,0,0,0,0
		c-0.3,0-0.5,0.3-0.5,0.6c0,0.3,0.2,0.5,0.4,0.6c0.3,0.1,0.5,0.1,0.8,0.1c0.8,0,1.2-0.4,1.7-1.4l1.6-4.1c0-0.1,0.1-0.2,0.1-0.3
		C76.6,66.1,76.4,65.8,76,65.8z"/>
</g>
</svg>
