<svg id="Layer_1" data-name="Layer 1" xmlns="http://www.w3.org/2000/svg" viewBox="0 0 100 100"><defs><style>.cls-1,.cls-2,.cls-3{fill:none;stroke:#000;stroke-miterlimit:10;}.cls-1,.cls-3{stroke-linecap:round;}.cls-1{stroke-width:3px;}.cls-2,.cls-3{stroke-width:4px;}</style></defs><g id="_254" data-name="254"><path class="cls-1" d="M46,29a6.4,6.4,0,0,0-5.44-3.52A6.38,6.38,0,0,0,31,21.37a6.37,6.37,0,0,0-11.78,3.05A6.38,6.38,0,0,0,13.54,29Z"/><path class="cls-2" d="M21,47v1.79a3.6,3.6,0,0,0,3.6,3.6H34.63a3.6,3.6,0,0,0,3.6-3.6V47"/><path class="cls-2" d="M29.55,48.6C40,48.6,48.7,41.9,50.69,33a3.22,3.22,0,0,0-3.17-3.89H11.59A3.23,3.23,0,0,0,8.41,33C10.41,41.9,19.11,48.6,29.55,48.6Z"/></g><path class="cls-3" d="M56.4,27.11a1.57,1.57,0,0,0-.85,2.44,93.55,93.55,0,0,1,5.28,8.81,27.59,27.59,0,0,1,3.53,13c-.1,5.44-2.55,11-7.9,12.65-6.79,2.15-13.13-3.13-19.94-2.59-5,.39-7.47,5.06-8.22,9.66C28,72.83,28.36,85,29.88,85h4.51a1.27,1.27,0,0,0,1.19-1.63c-.87-3.11-1.7-6.59-1-9.71.57-2.75,2.88-5.39,5.41-2.88,3.24,3.22,5.38,7.51,8.9,10.45,14.38,12,36.31-2.83,39.06-19.17,1.43-8.46-.11-20.81-8.33-25.43-3.71-2.09-8.12-1.43-12-3-3-1.2-5-3.84-6.43-6.67a1.3,1.3,0,0,0-1.47-.69Z"/><path d="M49.69,74.05a2.68,2.68,0,0,1-2.8-2.77v0a2.67,2.67,0,0,1,2.65-2.78,2.53,2.53,0,0,1,2.58,2.57.69.69,0,0,1-.71.73h-3a1.24,1.24,0,0,0,1.31,1,1.75,1.75,0,0,0,1.08-.36.57.57,0,0,1,.37-.12.58.58,0,0,1,.59.6.6.6,0,0,1-.2.45A2.78,2.78,0,0,1,49.69,74.05Zm1-3.22a1.14,1.14,0,0,0-1.13-1.13,1.19,1.19,0,0,0-1.16,1.13Z"/><path d="M53.28,69.28a.76.76,0,0,1,1.52,0v0a1.93,1.93,0,0,1,1.58-.85,1.6,1.6,0,0,1,1.51.85,2.21,2.21,0,0,1,1.76-.85,1.71,1.71,0,0,1,1.81,2v2.79a.76.76,0,0,1-1.52,0V70.94c0-.72-.32-1.09-.89-1.09s-.92.37-.92,1.09v2.29a.76.76,0,1,1-1.52,0V70.94c0-.72-.32-1.09-.89-1.09s-.92.37-.92,1.09v2.29a.76.76,0,0,1-1.52,0Z"/><path d="M62.78,69.28a.76.76,0,1,1,1.52,0v.06A2,2,0,0,1,66,68.48a2.51,2.51,0,0,1,2.44,2.76v0A2.51,2.51,0,0,1,66,74a2.06,2.06,0,0,1-1.67-.8v1.6a.76.76,0,0,1-1.52,0Zm4.11,2v0a1.32,1.32,0,1,0-2.61,0v0a1.32,1.32,0,1,0,2.61,0Z"/><path d="M69.78,72.41V69.87h0a.65.65,0,1,1,0-1.29h0v-.67a.76.76,0,0,1,1.52,0v.67H72a.65.65,0,1,1,0,1.29H71.3v2.29c0,.35.15.52.49.52H72a.63.63,0,0,1,.63.63.62.62,0,0,1-.39.57,2.24,2.24,0,0,1-.87.15C70.41,74,69.78,73.65,69.78,72.41Z"/><path d="M74,75.42a.66.66,0,0,1-.48-.63.61.61,0,0,1,.6-.62.72.72,0,0,1,.25,0,1,1,0,0,0,.32.06.5.5,0,0,0,.54-.32l0-.12-1.83-4.24a1.11,1.11,0,0,1-.08-.35.72.72,0,0,1,.75-.72.74.74,0,0,1,.73.56L76,72.2l1.12-3.1a.77.77,0,0,1,.73-.58.7.7,0,0,1,.72.69,1.28,1.28,0,0,1-.07.37L76.6,74.06c-.45,1.09-.9,1.5-1.81,1.5A2.29,2.29,0,0,1,74,75.42Z"/></svg>