<?xml version="1.0" encoding="utf-8"?>
<!-- Generator: Adobe Illustrator 24.0.0, SVG Export Plug-In . SVG Version: 6.00 Build 0)  -->
<svg version="1.1" id="Layer_1" xmlns="http://www.w3.org/2000/svg" xmlns:xlink="http://www.w3.org/1999/xlink" x="0px" y="0px"
	 viewBox="0 0 100 100" style="enable-background:new 0 0 100 100;" xml:space="preserve">
<g>
	<path d="M21.9,34.4c3.2-0.8,6-2.5,8.1-4.9c1-1.2,0.9-2.9-0.2-3.9c-0.5-0.4-1.1-0.7-1.8-0.7c-0.5,0-1,0-1.5-0.1h0
		c-6.6-0.9-11.2-6.9-10.3-13.5c0.2-1.4,0.6-2.7,1.2-3.8C18,6,17.5,4.3,16.2,3.6c-0.6-0.3-1.3-0.4-2-0.3C5.6,5.5,0.4,14.2,2.5,22.7
		C4.3,30,10.9,34.9,18,34.9C19.3,34.9,20.6,34.7,21.9,34.4z"/>
	<path d="M79.1,23.1c-3.1-1.7-6.3-2.2-9.5-2.6c-2.4-0.3-4.7-0.7-6.7-1.5c-2.9-1.2-5.4-3.8-7.5-7.9c-0.8-1.6-2.6-2.5-4.3-2l-4.3,1.1
		l0,0c-1.1,0.3-1.9,1-2.5,1.9c-0.5,0.9-0.7,2.1-0.4,3.1c0.1,0.5,0.3,0.9,0.6,1.3c2.5,3.7,4.8,7.6,6.9,11.5
		c3.1,5.8,4.6,11.3,4.5,16.4c-0.1,5.9-2.6,12.9-9.1,15c-4.4,1.4-8.9,0.1-13.6-1.4c-4-1.2-8.1-2.5-12.5-2.1
		C14.1,56.3,9.4,61.8,8,70.3C7.8,71.7,7.8,76,8,80c0.5,8.4,1.6,9.7,2.1,10.2c0.5,0.6,1.2,0.9,1.9,0.9h6c2,0,3.7-1.7,3.7-3.7
		c0-0.3,0-0.7-0.1-1c-1.1-3.8-2.1-8.2-1.4-12c0.4-1.9,1.5-3.3,2.3-3.5c0.4-0.1,1,0.1,1.6,0.7c1.8,1.8,3.3,3.9,5,6
		c2.1,2.8,4.2,5.7,7,8c5,4.2,10.9,6.3,17.2,6.3c3.6,0,7.4-0.7,11.3-2.1C78,84.9,89,72.2,91.2,59C93.3,46.2,90.4,29.5,79.1,23.1z
		 M87.3,58.3C85.3,70,75.1,81.6,63,86.1c-9.1,3.4-17.8,2.1-24.5-3.5c-2.4-2-4.3-4.6-6.3-7.3c-1.6-2.2-3.3-4.5-5.4-6.5
		c-1.5-1.5-3-1.9-4.1-1.9c-0.6,0-1,0.1-1.4,0.2c-2.9,0.9-4.5,4.1-5,6.6c-0.9,4.5,0.2,9.3,1.3,13.5H13c-0.7-2.6-1.7-12.5-1.1-16.2
		c0.4-2.5,2.2-10.6,9.1-11.2c3.6-0.3,7.2,0.8,11,2c5.1,1.6,10.4,3.2,16,1.4c8.6-2.7,11.8-11.4,11.9-18.7c0.1-5.8-1.6-11.9-4.9-18.3
		c-2.1-4.1-4.5-8.1-7.2-12c0,0,0-0.1,0.1-0.1l4-1c2.5,4.9,5.7,8.1,9.5,9.7c2.6,1,5.2,1.4,7.7,1.7c2.9,0.4,5.7,0.8,8.1,2.1
		C83.9,30.4,89.9,42,87.3,58.3z"/>
	<path d="M45.5,68.8c0,0-0.1,0-0.1,0c-1.5,0.1-2.6,1.3-2.5,2.8c0,0.1,0,0.1,0,0.2c0.1,1.5,1.3,2.6,2.8,2.6c0.7,0,1.4-0.2,1.9-0.7
		c0.1-0.1,0.2-0.3,0.2-0.4c0,0,0,0,0,0c0-0.3-0.3-0.6-0.6-0.6c-0.1,0-0.3,0-0.4,0.1c-0.3,0.2-0.7,0.4-1.1,0.4c-0.6,0-1.2-0.4-1.3-1
		h3c0,0,0,0,0.1,0c0.4,0,0.7-0.3,0.6-0.7c0,0,0-0.1,0-0.1C48,69.9,46.9,68.8,45.5,68.8z M44.3,71.1c0-0.6,0.5-1.1,1.2-1.1
		c0.6,0,1.1,0.5,1.1,1.1L44.3,71.1z"/>
	<path d="M55.6,68.8c-0.7,0-1.3,0.3-1.8,0.8c-0.3-0.6-0.9-0.9-1.5-0.8c-0.6,0-1.2,0.3-1.6,0.9v-0.1c0-0.4-0.3-0.8-0.8-0.8
		c-0.4,0-0.8,0.3-0.8,0.8v4c0,0.4,0.3,0.8,0.8,0.8s0.8-0.3,0.8-0.8v-2.3c0-0.7,0.4-1.1,0.9-1.1s0.9,0.4,0.9,1.1v2.3
		c0,0.4,0.3,0.8,0.8,0.8s0.8-0.3,0.8-0.8v-2.3c0-0.7,0.3-1.1,0.9-1.1s0.9,0.4,0.9,1.1v2.3c0,0.4,0.3,0.8,0.8,0.8s0.8-0.3,0.8-0.8
		v-2.8C57.4,69.4,56.7,68.8,55.6,68.8z"/>
	<path d="M61.9,68.8c-0.7,0-1.3,0.3-1.7,0.9v-0.1c0-0.4-0.3-0.8-0.8-0.8c-0.4,0-0.8,0.3-0.8,0.8v5.5c0,0.4,0.3,0.8,0.8,0.8
		c0.4,0,0.8-0.3,0.8-0.8v-1.6c0.4,0.5,1,0.8,1.7,0.8c0.1,0,0.1,0,0.2,0c1.4-0.1,2.4-1.4,2.2-2.7c0-0.1,0-0.1,0-0.2
		C64.4,70,63.3,68.8,61.9,68.8z M62.8,71.8c-0.1,0.7-0.7,1.3-1.4,1.2c-0.7-0.1-1.3-0.7-1.2-1.4c0-0.1,0-0.3,0-0.4
		c0.1-0.7,0.8-1.2,1.5-1.1c0.7,0.1,1.2,0.8,1.1,1.5C62.8,71.6,62.8,71.7,62.8,71.8z"/>
	<path d="M67.9,70.2c0.4,0,0.6-0.3,0.6-0.6c0-0.4-0.3-0.7-0.6-0.7h-0.7v-0.7c0,0,0,0,0,0c0-0.4-0.3-0.8-0.8-0.8
		c-0.4,0-0.8,0.3-0.8,0.8v0.7c-0.4,0-0.7,0.3-0.7,0.7c0,0.4,0.3,0.6,0.7,0.6v2.5c0,1.2,0.6,1.6,1.6,1.6c0.3,0,0.6,0,0.9-0.2
		c0.2-0.1,0.4-0.3,0.4-0.6c0-0.3-0.3-0.6-0.6-0.6h-0.2c-0.3,0-0.5-0.2-0.5-0.5v-2.3H67.9z"/>
	<path d="M73.7,68.8c-0.3,0-0.6,0.2-0.7,0.6l-1.1,3.1l-1.2-3.1c-0.1-0.3-0.4-0.6-0.7-0.6c0,0,0,0,0,0c-0.4,0-0.7,0.3-0.7,0.7
		c0,0.1,0,0.2,0.1,0.3l1.8,4.2v0.1c-0.1,0.2-0.3,0.4-0.5,0.3c-0.1,0-0.2,0-0.3-0.1c-0.1,0-0.2,0-0.2,0c0,0,0,0,0,0
		c-0.3,0-0.6,0.3-0.6,0.6c0,0.3,0.2,0.5,0.5,0.6c0.3,0.1,0.5,0.1,0.8,0.1c0.9,0,1.4-0.4,1.8-1.5l1.9-4.5c0-0.1,0.1-0.2,0.1-0.4
		c0,0,0,0,0,0C74.4,69.1,74.1,68.8,73.7,68.8z"/>
</g>
</svg>
