<?xml version="1.0" encoding="utf-8"?>
<!-- Generator: Adobe Illustrator 24.2.3, SVG Export Plug-In . SVG Version: 6.00 Build 0)  -->
<svg version="1.1" id="Layer_1" xmlns="http://www.w3.org/2000/svg" xmlns:xlink="http://www.w3.org/1999/xlink" x="0px" y="0px"
	 viewBox="0 0 100 100" style="enable-background:new 0 0 100 100;" xml:space="preserve">
<g>
	<path d="M90.5,93.5c0-0.4-1.1-9.1-6.8-12.7c-4.3-2.7-16.7-6.1-21.4-7.3c6.8-3.7,10.8-8.5,11.9-14.2c0.1-0.6,0-1.2-0.4-1.6
		S73,57,72.4,57c-7.4-0.5-9.1-2.1-9.1-2.4c0,0,0.5-2.4,11.5-7.3c0.8-0.4,1.3-1.3,1.1-2.2c-0.3-1.9-0.9-3.8-1.6-5.6l2.2-2.9
		c1.2-1.6,0.9-3.9-0.7-5.1c-0.5-0.3-1-0.6-1.5-0.7l-6.2-1.2c0.8-0.3,1.7-0.6,2.4-1c7.2-3,10.5-6.3,10.1-9.8c-0.4-3-3.7-5.1-9.7-6.2
		c-1.1-0.2-2.1,0.5-2.3,1.6c-0.2,1.1,0.5,2.1,1.6,2.3c5.1,0.9,6.4,2.3,6.5,2.8c0.2,1.6-4.3,4.6-12.7,7.4c-4.1-2.7-8.8-4.2-13.7-4.4
		H50c-7.7,0-14.5,4-18.9,10.3c-0.1,0.1-0.1,0.2-0.2,0.3c-3.2,4.6-5,10.3-5,16.5c0,9.6,4.5,18.9,11.5,24.1c0,0.1,0,0.1,0,0.2
		c-4.2,1.1-16.7,4.3-21,7c-5.7,3.6-6.7,12.4-6.8,12.7c-0.1,1.1,0.7,2.1,1.8,2.2c0.1,0,0.2,0,0.2,0c1,0,1.9-0.8,2-1.8
		c0-0.1,0.9-7.2,4.9-9.8C22,82,33,79,38.4,77.6c2,4.4,6.3,7.4,11.4,7.4c5.2,0,9.6-3.2,11.5-7.7c5.7,1.5,16.8,4.6,20.3,6.8
		c4.1,2.6,4.9,9.7,4.9,9.8c0.1,1,1,1.8,2,1.8c0.1,0,0.1,0,0.2,0C89.8,95.6,90.6,94.6,90.5,93.5z M50.1,26.4c2.9,0.1,5.8,0.8,8.4,2
		c-3.6,0.9-7.7,1.7-12.2,2.4c-3,0.4-6,0.7-9,0.9c3.5-3.3,7.9-5.3,12.7-5.3L50.1,26.4z M49.8,81c-4.7,0-8.5-3.8-8.5-8.5
		c0-0.7-0.3-1.3-0.9-1.7C34,66.6,29.8,58.2,29.8,49.5c0-5,1.5-9.7,4-13.6c4.4-0.1,8.8-0.5,13.1-1.1c5.9-0.8,11.5-2,16.4-3.5
		c0.6,0.5,1.2,1,1.8,1.5c0.3,0.3,0.6,0.4,1,0.5l6.9,1.4L70.4,38c-0.5,0.6-0.5,1.4-0.2,2.1c0.6,1.4,1.1,2.8,1.5,4.2
		c-11.1,5.3-12.5,8.4-12.3,10.5c0.2,3.3,3.6,5.2,10.4,6c-1.5,3.7-4.8,6.9-9.9,9.6c-0.4,0.2-0.6,0.3-0.7,0.4c-0.5,0.4-0.8,1-0.8,1.6
		v0.2C58.3,77.2,54.4,81,49.8,81z"/>
	<polygon points="35.4,20.4 38.5,18.1 42.1,19.4 40.9,15.8 43.2,12.8 39.4,12.8 37.2,9.7 36,13.3 32.4,14.4 35.5,16.6 	"/>
	<polygon points="25.7,29.6 23.5,26.5 22.4,30.1 18.7,31.2 21.8,33.4 21.7,37.2 24.8,35 28.4,36.2 27.2,32.6 29.5,29.6 	"/>
	<polygon points="60.2,19 63.2,16.8 66.8,18 65.6,14.4 67.9,11.4 64.1,11.4 62,8.3 60.8,11.9 57.2,13 60.2,15.2 	"/>
	<path d="M10.1,29.2c0.4,1.7,1.5,3.1,3.1,3.8c0.3,0.1,0.6,0.2,0.9,0.2c0.7,0,1.5-0.4,1.8-1.1c0.5-1,0-2.2-0.9-2.7
		c-0.4-0.2-0.7-0.6-0.9-1c0-1.3,3.9-5,16.3-8.4c1.1-0.3,1.7-1.4,1.4-2.5c-0.3-1.1-1.4-1.7-2.5-1.4C21.6,18.2,9.1,22.6,10,29
		C10,29.1,10,29.1,10.1,29.2z"/>
	<path d="M46.3,16.8c0.1,0,0.2,0,0.3,0c2.6-0.4,5.2-0.6,7.8-0.7c1.1,0,2-1,1.9-2.1c0-1.1-1-2-2.1-1.9c-2.7,0.1-5.5,0.4-8.2,0.7
		c-1.1,0.1-1.9,1.2-1.7,2.2C44.5,16.1,45.3,16.8,46.3,16.8z"/>
</g>
</svg>
