<?xml version="1.0" encoding="utf-8"?>
<!-- Generator: Adobe Illustrator 24.0.0, SVG Export Plug-In . SVG Version: 6.00 Build 0)  -->
<svg version="1.1" id="Layer_1" xmlns="http://www.w3.org/2000/svg" xmlns:xlink="http://www.w3.org/1999/xlink" x="0px" y="0px"
	 viewBox="0 0 100 100" style="enable-background:new 0 0 100 100;" xml:space="preserve">
<g>
	<path d="M75.8,9.5c-8.4,0-15.3,6.9-15.3,15.3S67.4,40,75.8,40s15.3-6.9,15.3-15.3S84.2,9.5,75.8,9.5z M75.8,37
		c-6.8,0-12.3-5.5-12.3-12.3S69,12.5,75.8,12.5S88.1,18,88.1,24.7S82.6,37,75.8,37z"/>
	<path d="M73.8,24.9h4.6c0.4,0,0.8-0.3,0.8-0.8c0-0.4-0.4-0.8-0.8-0.8h-2.9l1.4-1.1c1.5-1.2,2.2-1.8,2.2-3.2v0
		c0-1.6-1.2-2.6-2.9-2.6c-1.3,0-2.1,0.5-2.7,1.2c-0.1,0.2-0.2,0.4-0.2,0.6c0,0.5,0.4,0.8,0.8,0.8c0.3,0,0.5-0.1,0.6-0.3
		c0.5-0.5,0.8-0.7,1.4-0.7c0.7,0,1.1,0.4,1.1,1.1c0,0.7-0.4,1.2-1.5,2l-2.4,2c-0.3,0.3-0.5,0.6-0.5,0.9
		C72.8,24.5,73.2,24.9,73.8,24.9z"/>
	<path d="M73.3,27.4c-0.6,0-1,0.3-1.3,0.7v-1.6c0-0.3-0.3-0.6-0.6-0.6s-0.6,0.3-0.6,0.6v4.7c0,0.3,0.3,0.6,0.6,0.6s0.6-0.3,0.6-0.6
		v-1.8c0-0.6,0.3-0.9,0.8-0.9s0.7,0.3,0.7,0.9v1.8c0,0.3,0.3,0.6,0.6,0.6s0.6-0.3,0.6-0.6V29C74.8,28.1,74.2,27.4,73.3,27.4z"/>
	<path d="M77.5,27.5c-0.4,0-0.6,0.4-0.8,0.8v-0.2c0-0.3-0.3-0.6-0.6-0.6s-0.6,0.3-0.6,0.6v3.2c0,0.3,0.3,0.6,0.6,0.6
		s0.6-0.3,0.6-0.6v-1.1c0-0.9,0.3-1.3,1-1.5c0.2-0.1,0.5-0.2,0.5-0.6C78.1,27.7,77.8,27.5,77.5,27.5z"/>
	<path d="M80.2,29.2c-0.5-0.2-0.9-0.3-0.9-0.5v0c0-0.2,0.2-0.3,0.4-0.3c0.3,0,0.6,0.1,0.9,0.3c0.1,0,0.1,0.1,0.2,0.1
		c0.3,0,0.5-0.2,0.5-0.5c0-0.2-0.1-0.4-0.3-0.5c-0.4-0.2-0.9-0.3-1.3-0.3c-0.9,0-1.6,0.5-1.6,1.4v0c0,0.8,0.7,1.1,1.3,1.3
		c0.5,0.1,0.9,0.2,0.9,0.5v0c0,0.2-0.2,0.3-0.5,0.3c-0.3,0-0.8-0.1-1.2-0.4c-0.1,0-0.2-0.1-0.2-0.1c-0.3,0-0.5,0.2-0.5,0.5
		c0,0.2,0.1,0.3,0.2,0.4c0.5,0.3,1.1,0.5,1.6,0.5c0.9,0,1.6-0.4,1.6-1.4v0C81.5,29.7,80.8,29.4,80.2,29.2z"/>
	<path d="M66.9,46.6v-7.6c0-2-1.6-3.5-3.5-3.5c0,0,0,0,0,0H37.5c-0.5,0-0.9,0.1-1.3,0.3c2.4-2.8,3.8-6.3,3.8-10.2
		C40,16.7,33,9.6,24.3,9.6S8.5,16.7,8.5,25.4s7.1,15.8,15.8,15.8c3.8,0,7.3-1.3,10-3.6C34.1,38,34,38.5,34,38.9c0,0,0,0,0,0v7.7
		l-2.4,6.2c-0.4,1.2-0.6,2.4-0.6,3.6v30.4c0,1.9,1.6,3.5,3.5,3.5h32.3c1.9,0,3.5-1.5,3.5-3.5c0,0,0,0,0,0V56.6
		c0-1.3-0.3-2.7-0.8-3.9L66.9,46.6z M36,25.4c0,2.5-0.8,4.8-2.1,6.7L17.6,15.8c1.9-1.3,4.2-2.1,6.7-2.1C30.8,13.6,36,18.9,36,25.4z
		 M12.5,25.4c0-2.5,0.8-4.8,2.1-6.7L31,35c-1.9,1.3-4.2,2.1-6.7,2.1C17.8,37.2,12.5,31.9,12.5,25.4z M65.3,61.5v16.9
		c0,1.9-1.6,3.5-3.5,3.5c0,0,0,0,0,0H39.4c-1.9,0-3.5-1.6-3.5-3.5V61.4c0-1.9,1.6-3.4,3.5-3.4h22.4C63.7,58,65.3,59.5,65.3,61.5
		C65.3,61.5,65.3,61.5,65.3,61.5z"/>
	<path d="M49.7,65h-5.5c0,0,0,0,0,0c-0.6,0-1.1,0.5-1.1,1.1v7.8c0,0.6,0.5,1.1,1.1,1.1c0.6,0,1.1-0.5,1.1-1.1v-2.8h3.8
		c0.6,0,1-0.4,1-1c0-0.6-0.4-1-1-1h-3.8V67h4.4c0.6,0,1-0.4,1-1S50.2,65,49.7,65z"/>
	<path d="M55.2,67.2c0,0-0.1,0-0.1,0c-2.1,0.1-3.7,1.8-3.6,3.9c0,0.1,0,0.2,0,0.3c0.1,2.1,1.8,3.7,3.9,3.6c1,0,1.9-0.3,2.6-0.9
		c0.2-0.2,0.3-0.4,0.3-0.6c0,0,0,0,0-0.1c0-0.4-0.4-0.8-0.8-0.8c-0.2,0-0.4,0.1-0.5,0.2c-0.4,0.3-1,0.5-1.5,0.5
		c-0.9,0.1-1.7-0.6-1.8-1.5h4.2c0.6,0,1-0.4,1-1c0,0,0-0.1,0-0.1C58.8,68.7,57.2,67.2,55.2,67.2z M53.6,70.5c0-0.9,0.7-1.6,1.6-1.6
		c0.9,0,1.6,0.7,1.6,1.6H53.6z"/>
</g>
</svg>
