<svg id="Layer_1" data-name="Layer 1" xmlns="http://www.w3.org/2000/svg" viewBox="0 0 100 100"><defs><style>.cls-1,.cls-2,.cls-3,.cls-4{fill:none;}.cls-1,.cls-2,.cls-4{stroke:#000;stroke-miterlimit:10;}.cls-1,.cls-2{stroke-width:4px;}.cls-2{stroke-linecap:round;}.cls-4{stroke-width:4.66px;}</style></defs><path class="cls-1" d="M14.44,39.77H26.53a.49.49,0,0,1,.49.49V68.09a0,0,0,0,1,0,0H13.95a0,0,0,0,1,0,0V40.25A.49.49,0,0,1,14.44,39.77Z" transform="translate(40.69 107.97) rotate(-179.7)"/><path class="cls-1" d="M15.3,68.07l10.05.05L23.8,73.36a.48.48,0,0,1-.47.35l-6.07,0a.49.49,0,0,1-.47-.36Z"/><line class="cls-2" x1="30.12" y1="39.77" x2="11.27" y2="39.81"/><line class="cls-2" x1="20.45" y1="85.18" x2="20.24" y2="74.81"/><line class="cls-2" x1="20.47" y1="46.01" x2="20.44" y2="35.32"/><path class="cls-2" d="M16.12,27.76h9.11a.42.42,0,0,1,.42.42v5.28a0,0,0,0,1,0,0H15.7a0,0,0,0,1,0,0V28.18a.42.42,0,0,1,.42-.42Z" transform="translate(41.41 61.18) rotate(179.88)"/><line class="cls-2" x1="27.05" y1="47.55" x2="13.98" y2="47.58"/><ellipse cx="20.51" cy="61.94" rx="1.61" ry="1.51" transform="translate(-32.26 23.56) rotate(-35.65)"/><ellipse cx="20.75" cy="53.12" rx="1.61" ry="1.51" transform="translate(-27.07 22.05) rotate(-35.65)"/><ellipse cx="20.67" cy="57.45" rx="1.61" ry="1.51" transform="matrix(0.81, -0.58, 0.58, 0.81, -29.61, 22.82)"/><g id="_254" data-name="254"><rect class="cls-3" x="30.06" y="26.36" width="60.01" height="60.01"/><path class="cls-2" d="M81.59,55.55a8,8,0,0,0-6.8-4.4A8,8,0,0,0,62.86,46a8,8,0,0,0-14.72,3.81A8,8,0,0,0,41,55.55Z"/><path class="cls-1" d="M50.3,78v2.24a4.5,4.5,0,0,0,4.5,4.5H67.39a4.5,4.5,0,0,0,4.5-4.5V78"/><path class="cls-4" d="M61,80C74.09,80,85,71.63,87.47,60.5a4,4,0,0,0-4-4.86H38.58a4,4,0,0,0-4,4.86C37.1,71.63,48,80,61,80Z"/></g></svg>