<?xml version="1.0" encoding="utf-8"?>
<!-- Generator: Adobe Illustrator 24.2.3, SVG Export Plug-In . SVG Version: 6.00 Build 0)  -->
<svg version="1.1" id="Layer_1" xmlns="http://www.w3.org/2000/svg" xmlns:xlink="http://www.w3.org/1999/xlink" x="0px" y="0px"
	 viewBox="0 0 100 100" style="enable-background:new 0 0 100 100;" xml:space="preserve">
<path d="M23.6,7.6c-8.7,0-15.8,7.1-15.8,15.8s7.1,15.8,15.8,15.8s15.8-7.1,15.8-15.8S32.3,7.6,23.6,7.6z M11.9,23.4
	c0-2.5,0.8-4.8,2.1-6.7l16.4,16.4c-1.9,1.3-4.2,2.1-6.7,2.1C17.1,35.2,11.9,29.9,11.9,23.4z M33.3,30.1L16.9,13.8
	c1.9-1.3,4.2-2.1,6.7-2.1c6.5,0,11.8,5.3,11.8,11.8C35.4,25.9,34.6,28.2,33.3,30.1z"/>
<path d="M88.5,56.3l-2.1-5l0,0V45c0-1.6-1.3-2.9-2.9-2.9H62.2c-1.6,0-2.9,1.3-2.9,2.9v6.3l-2,5.1c-0.4,1-0.6,2-0.5,3v25
	c0,1.6,1.3,2.9,2.9,2.9h26.6c1.6,0,2.9-1.3,2.9-2.9c0,0,0,0,0,0V59.5C89.2,58.4,88.9,57.3,88.5,56.3z M85.1,77.5
	c0,1.6-1.3,2.9-2.8,2.9c0,0,0,0,0,0H63.8c-1.6,0-2.9-1.3-2.9-2.8c0,0,0,0,0,0v-14c0-1.6,1.3-2.9,2.9-2.9c0,0,0,0,0,0h18.5
	c1.6,0,2.9,1.3,2.9,2.9l0,0V77.5z"/>
<path d="M24,54.3c-8.7,0-15.8,7.1-15.7,15.8s7.1,15.8,15.8,15.7c8.7,0,15.7-7.1,15.7-15.8C39.8,61.4,32.7,54.3,24,54.3
	C24,54.3,24,54.3,24,54.3z M32.2,81.2L13,62c0.8-1.1,1.8-2.2,2.9-3l19.2,19.3C34.3,79.4,33.3,80.4,32.2,81.2z"/>
<path d="M46.7,70.2h-2.6c-0.8,0-1.5-0.7-1.5-1.5c0-0.8,0.7-1.5,1.5-1.5c0,0,0,0,0,0h2.6v-2.6c-0.1-0.9,0.6-1.6,1.4-1.7
	c0.9-0.1,1.6,0.6,1.7,1.4c0,0.1,0,0.2,0,0.3v2.6h2.6c0.8,0,1.5,0.7,1.5,1.5c0,0.8-0.7,1.5-1.5,1.5h-2.6v2.6c0.1,0.9-0.6,1.6-1.4,1.7
	c-0.9,0.1-1.6-0.6-1.7-1.4c0-0.1,0-0.2,0-0.3L46.7,70.2z"/>
<polygon points="79.4,68.2 75.2,68.2 75.2,64.1 70.5,64.1 70.5,68.2 66.6,68.2 66.6,72.9 70.5,72.9 70.5,76.8 75.2,76.8 75.2,72.9 
	79.4,72.9 "/>
</svg>
