<svg id="Layer_1" data-name="Layer 1" xmlns="http://www.w3.org/2000/svg" viewBox="0 0 100 100"><defs><style>.cls-1,.cls-2{fill:none;stroke:#000;stroke-miterlimit:10;}.cls-1{stroke-width:4px;}.cls-2{stroke-width:3px;}.cls-3{font-size:12px;}.cls-3,.cls-4{font-family:GothamRounded-Bold, Gotham Rounded;font-weight:700;}.cls-4{font-size:8px;letter-spacing:-0.05em;}</style></defs><circle class="cls-1" cx="24.28" cy="25.4" r="13.77"/><path d="M16.11,14.31a13.94,13.94,0,0,0-2.92,2.92L32.44,36.48a13.48,13.48,0,0,0,2.92-2.92Z"/><circle class="cls-2" cx="75.8" cy="24.72" r="13.77"/><text class="cls-3" transform="translate(72.28 24.85)">2</text><text class="cls-4" transform="translate(70.3 31.81)">hrs</text><path d="M69.46,52.64l-2.55-6.06h0V38.94a3.54,3.54,0,0,0-3.54-3.55H37.54A3.54,3.54,0,0,0,34,38.94v7.65l-2.37,6.19A10.12,10.12,0,0,0,31,56.39V86.77a3.48,3.48,0,0,0,3.48,3.48H66.76a3.48,3.48,0,0,0,3.49-3.48V56.57A10.21,10.21,0,0,0,69.46,52.64ZM65.29,78.37a3.48,3.48,0,0,1-3.49,3.48H39.41a3.48,3.48,0,0,1-3.48-3.48V61.44A3.48,3.48,0,0,1,39.41,58H61.8a3.48,3.48,0,0,1,3.49,3.48Z"/><path d="M43.12,66.09A1.08,1.08,0,0,1,44.2,65h5.49a1,1,0,0,1,0,2H45.28v2.08h3.78a1,1,0,1,1,0,2H45.28v2.81a1.08,1.08,0,0,1-2.16,0Z"/><path d="M55.43,75a3.75,3.75,0,0,1-3.92-3.88v0a3.74,3.74,0,0,1,3.71-3.91,3.55,3.55,0,0,1,3.61,3.62,1,1,0,0,1-1,1H53.62a1.74,1.74,0,0,0,1.84,1.47,2.45,2.45,0,0,0,1.51-.5.78.78,0,0,1,.52-.17.81.81,0,0,1,.83.84.85.85,0,0,1-.28.63A3.91,3.91,0,0,1,55.43,75Zm1.37-4.51a1.61,1.61,0,0,0-1.58-1.6,1.67,1.67,0,0,0-1.62,1.6Z"/></svg>