<svg id="Layer_1" data-name="Layer 1" xmlns="http://www.w3.org/2000/svg" viewBox="0 0 100 100"><defs><style>.cls-1,.cls-4,.cls-6{fill:none;}.cls-1,.cls-4,.cls-5,.cls-6{stroke:#000;stroke-miterlimit:10;}.cls-1{stroke-width:3px;}.cls-2{font-size:12px;}.cls-2,.cls-3,.cls-7{font-family:GothamRounded-Bold, Gotham Rounded;font-weight:700;}.cls-3{font-size:8px;letter-spacing:-0.05em;}.cls-4,.cls-5{stroke-linecap:round;}.cls-4,.cls-5,.cls-6{stroke-width:4px;}.cls-7{font-size:6.5px;}.cls-8{letter-spacing:-0.02em;}</style></defs><circle class="cls-1" cx="76.39" cy="17.23" r="13.77"/><text class="cls-2" transform="translate(72.87 17.35)">1</text><text class="cls-3" transform="translate(72.7 24.32)">hr</text><path class="cls-4" d="M58,29.78H80.2a1.91,1.91,0,0,1,1.91,1.91v7.6a0,0,0,0,1,0,0h-26a0,0,0,0,1,0,0v-7.6A1.91,1.91,0,0,1,58,29.78Z"/><path class="cls-4" d="M56.09,39.29l-6.41,9.35a5.7,5.7,0,0,0-1,3.25V83.44a5.74,5.74,0,0,0,5.74,5.75H73.48V50.11l6-7.5a2,2,0,0,0-1.6-3.32Z"/><rect class="cls-5" x="53.79" y="61.48" width="14.61" height="11.26" rx="2.44"/><path class="cls-4" d="M82.11,39.29,73.48,50.11V89.19h11a5.74,5.74,0,0,0,5.74-5.75V52A5.74,5.74,0,0,0,89,48.58Z"/><circle class="cls-6" cx="23.69" cy="17.53" r="13.77"/><path d="M15.52,6.44A13.94,13.94,0,0,0,12.6,9.36L31.85,28.61a13.7,13.7,0,0,0,2.92-2.92Z"/><path d="M51.28,53.36,48.74,47.3h0V39.65a3.53,3.53,0,0,0-3.54-3.54H19.37a3.54,3.54,0,0,0-3.55,3.54V47.3l-2.36,6.2a10.12,10.12,0,0,0-.66,3.61V87.48A3.48,3.48,0,0,0,16.28,91H48.59a3.48,3.48,0,0,0,3.48-3.49V57.28A10,10,0,0,0,51.28,53.36ZM47.11,79.09a3.48,3.48,0,0,1-3.48,3.48H21.24a3.48,3.48,0,0,1-3.49-3.48V62.15a3.48,3.48,0,0,1,3.49-3.48H43.63a3.48,3.48,0,0,1,3.48,3.48Z"/><text class="cls-7" transform="translate(18.66 68.58)">antacids<tspan x="7.41" y="7.8">i</tspan><tspan class="cls-8" x="9.37" y="7.8">r</tspan><tspan x="11.99" y="7.8">on</tspan></text></svg>