<svg id="Layer_1" data-name="Layer 1" xmlns="http://www.w3.org/2000/svg" viewBox="0 0 100 100"><defs><style>.cls-1,.cls-2,.cls-3{fill:none;}.cls-2,.cls-3{stroke:#000;stroke-miterlimit:10;stroke-width:4px;}.cls-2{stroke-linecap:round;}</style></defs><g id="_254" data-name="254"><rect class="cls-1" x="9.14" y="8.61" width="80" height="80"/><path class="cls-2" d="M80.57,46.46A11.69,11.69,0,0,0,70.6,40a11.68,11.68,0,0,0-17.49-7.61A11.68,11.68,0,0,0,31.52,38a11.71,11.71,0,0,0-10.43,8.47Z"/><path class="cls-3" d="M34.69,79.37v3.28a6.6,6.6,0,0,0,6.6,6.6H59.76a6.61,6.61,0,0,0,6.6-6.6V79.31"/><path class="cls-3" d="M50.44,82.33C69.58,82.33,85.55,70,89.2,53.72a5.91,5.91,0,0,0-5.82-7.12H17.51a5.91,5.91,0,0,0-5.82,7.12C15.34,70,31.31,82.33,50.44,82.33Z"/></g></svg>