<svg id="Layer_1" data-name="Layer 1" xmlns="http://www.w3.org/2000/svg" viewBox="0 0 100 100"><defs><style>.cls-1,.cls-2,.cls-3{fill:none;}.cls-2,.cls-3{stroke:#000;stroke-miterlimit:10;stroke-width:4px;}.cls-2{stroke-linecap:round;}</style></defs><g id="_254" data-name="254"><rect class="cls-1" x="11.28" y="8.51" width="80" height="80"/><path class="cls-2" d="M80,47.43a10.62,10.62,0,0,0-9.07-5.86A10.61,10.61,0,0,0,55,34.65a10.62,10.62,0,0,0-19.63,5.08,10.63,10.63,0,0,0-9.49,7.7Z"/><path class="cls-3" d="M38.26,77.35v3a6,6,0,0,0,6,6H61a6,6,0,0,0,6-6v-3"/><path class="cls-3" d="M52.58,80C70,80,84.49,68.86,87.81,54a5.37,5.37,0,0,0-5.29-6.48H22.64A5.38,5.38,0,0,0,17.35,54C20.67,68.86,35.18,80,52.58,80Z"/></g><path d="M25.63,38A15.88,15.88,0,1,1,41.51,22.11,15.9,15.9,0,0,1,25.63,38Zm0-30.24A14.37,14.37,0,1,0,40,22.11,14.38,14.38,0,0,0,25.63,7.74Z"/><path d="M25.71,7v5.59a9.53,9.53,0,0,1,0,19v5.59A15.12,15.12,0,0,0,25.71,7Z"/><path d="M18.65,25.11a.64.64,0,0,1-.23-.5.67.67,0,0,1,.67-.66.62.62,0,0,1,.46.18,2.42,2.42,0,0,0,1.81.76,1.25,1.25,0,0,0,1.37-1.21v0c0-.78-.72-1.22-1.83-1.22h-.28a.61.61,0,0,1-.6-.6.79.79,0,0,1,.29-.57l1.86-2H19.29a.61.61,0,1,1,0-1.21h4.06a.62.62,0,0,1,.69.61,1,1,0,0,1-.39.76l-1.87,1.94c1.2.15,2.33.76,2.33,2.23v0a2.54,2.54,0,0,1-2.78,2.52A3.68,3.68,0,0,1,18.65,25.11Z"/><path d="M25.46,22.06v0c0-2.27,1.39-4.1,3.47-4.1s3.45,1.81,3.45,4.08v0c0,2.27-1.38,4.11-3.47,4.11S25.46,24.33,25.46,22.06Zm5.48,0v0c0-1.56-.81-2.85-2-2.85s-2,1.25-2,2.83v0c0,1.57.8,2.85,2,2.85S30.94,23.62,30.94,22.06Z"/></svg>