<?xml version="1.0" encoding="utf-8"?>
<!-- Generator: Adobe Illustrator 24.0.0, SVG Export Plug-In . SVG Version: 6.00 Build 0)  -->
<svg version="1.1" id="Layer_1" xmlns="http://www.w3.org/2000/svg" xmlns:xlink="http://www.w3.org/1999/xlink" x="0px" y="0px"
	 viewBox="0 0 100 100" style="enable-background:new 0 0 100 100;" xml:space="preserve">
<g>
	<path d="M76.3,19.4c-3.1-1.7-6.3-2.2-9.5-2.6c-2.4-0.3-4.6-0.7-6.7-1.5c-2.9-1.2-5.4-3.8-7.5-7.9c-0.8-1.6-2.6-2.4-4.3-2L44,6.6
		c-2.2,0.6-3.5,2.8-2.9,5c0.1,0.5,0.4,1,0.6,1.3c2.5,3.7,4.8,7.6,6.9,11.5c3.1,6,4.6,11.3,4.5,16.4C53,46.6,50.6,53.6,44,55.7
		c-4.4,1.4-8.9,0-13.6-1.4c-4-1.2-8.1-2.5-12.5-2.1c-6.6,0.5-11.3,5.9-12.7,14.5C5,68,5,72.3,5.2,76.3c0.5,8.4,1.6,9.7,2.1,10.2
		c0.5,0.6,1.2,0.9,1.9,0.9h6c2,0,3.6-1.7,3.6-3.7c0-0.3-0.1-0.7-0.1-1c-1.1-3.8-2.1-8.2-1.4-12c0.4-1.9,1.5-3.3,2.2-3.5
		c0.4-0.1,1,0.1,1.6,0.7c1.8,1.8,3.3,3.9,5,6c2.1,2.8,4.2,5.7,7,8c5,4.2,10.9,6.3,17.2,6.3c3.7,0,7.4-0.7,11.3-2.1
		c13.5-5,24.5-17.7,26.7-30.8C90.5,42.5,87.7,25.8,76.3,19.4z M84.4,54.7c-2,11.6-12.1,23.3-24.1,27.7c-9.1,3.4-17.8,2.1-24.6-3.5
		c-2.4-2-4.3-4.6-6.4-7.3c-1.6-2.2-3.3-4.5-5.4-6.5c-1.5-1.5-3-1.9-4.1-1.9c-0.6,0-1,0.1-1.4,0.2c-2.9,0.9-4.5,4.1-5,6.6
		c-0.9,4.5,0.2,9.3,1.3,13.5h-4.6c-1-3-1.4-14-1.1-16.2c0.4-2.5,2.2-10.6,9.1-11.2c3.6-0.3,7.2,0.8,11,2c5.1,1.6,10.4,3.2,16,1.4
		c7.1-2.3,11.8-9.6,11.9-18.7c0.1-5.7-1.5-11.7-4.9-18.3c-2.1-4.1-4.5-8.1-7.1-11.9L45,10.5c0,0,0-0.1,0-0.1l4.1-1.1
		c2.5,4.9,5.7,8.1,9.5,9.7c2.5,1,5.1,1.4,7.7,1.7c2.9,0.4,5.7,0.8,8.1,2.1C84.7,28.7,86,45.1,84.4,54.7z"/>
	<path d="M42.7,63.1c0,0-0.1,0-0.1,0c-1.5,0.1-2.6,1.3-2.5,2.8c0,0.1,0,0.2,0,0.2c0.1,1.5,1.3,2.6,2.8,2.5c0.7,0,1.3-0.2,1.9-0.6
		c0.1-0.1,0.2-0.3,0.2-0.5c0,0,0,0,0,0c0-0.3-0.3-0.6-0.6-0.6c-0.1,0-0.3,0-0.4,0.1c-0.3,0.2-0.7,0.4-1.1,0.4c-0.6,0-1.2-0.4-1.3-1
		h3c0,0,0,0,0.1,0c0.4,0,0.7-0.3,0.6-0.7c0,0,0-0.1,0-0.1C45.2,64.2,44,63.1,42.7,63.1z M41.5,65.5c0-0.6,0.5-1.1,1.2-1.1
		c0.6,0,1.1,0.5,1.1,1.1H41.5z"/>
	<path d="M52.8,63.2c-0.7,0-1.3,0.3-1.8,0.8c-0.3-0.5-0.9-0.9-1.5-0.9c-0.6,0-1.2,0.3-1.6,0.9v-0.1c0-0.4-0.3-0.8-0.8-0.8
		s-0.8,0.3-0.8,0.8l0,4c0,0.4,0.3,0.8,0.8,0.8s0.8-0.3,0.8-0.8v-2.3c0-0.7,0.3-1.1,0.9-1.1s0.9,0.4,0.9,1.1v2.3
		c0,0.4,0.3,0.8,0.8,0.8s0.8-0.3,0.8-0.8v-2.3c0-0.7,0.4-1.1,0.9-1.1c0.6,0,0.9,0.4,0.9,1.1v2.4c0,0.1,0,0.1,0,0.2
		c0,0.4,0.4,0.7,0.8,0.7c0.4,0,0.7-0.4,0.7-0.8v-2.8C54.6,63.8,53.9,63.2,52.8,63.2z"/>
	<path d="M59.1,63.1c-0.7,0-1.3,0.3-1.7,0.9v-0.1c0-0.4-0.3-0.8-0.8-0.8s-0.8,0.3-0.8,0.8v5.6c0,0.4,0.3,0.8,0.8,0.8
		s0.8-0.3,0.8-0.8v-1.6c0.4,0.5,1,0.8,1.7,0.8c0.1,0,0.1,0,0.2,0c1.4-0.1,2.4-1.4,2.2-2.8c0-0.1,0-0.1,0-0.2
		C61.6,64.3,60.5,63.2,59.1,63.1z M60,66.3c-0.1,0.7-0.8,1.2-1.5,1.1c-0.7-0.1-1.2-0.8-1.1-1.5c0-0.1,0-0.3,0-0.4
		c0.1-0.7,0.8-1.2,1.5-1.1c0.7,0.1,1.2,0.8,1.1,1.5C60,66,60,66.2,60,66.3z"/>
	<path d="M65.1,64.5c0.4,0,0.6-0.3,0.6-0.6c0-0.4-0.3-0.7-0.6-0.7h-0.7v-0.7c0-0.4-0.3-0.8-0.8-0.8c-0.4,0-0.8,0.3-0.8,0.8v0.7h0
		c-0.4,0-0.6,0.3-0.6,0.6c0,0.4,0.3,0.7,0.6,0.7h0V67c0,1.3,0.6,1.7,1.6,1.7c0.3,0,0.6,0,0.9-0.1c0.2-0.1,0.4-0.3,0.4-0.6
		c0-0.3-0.3-0.6-0.6-0.6h-0.2c-0.3,0-0.5-0.2-0.5-0.5v-2.3H65.1z"/>
	<path d="M70.9,63.1c-0.3,0-0.6,0.2-0.7,0.6l-1.1,3.1l-1.2-3.1c-0.1-0.3-0.4-0.6-0.7-0.6c0,0,0,0,0,0c-0.4,0-0.7,0.3-0.7,0.7
		c0,0.1,0,0.2,0.1,0.3l1.8,4.2v0.1c-0.1,0.2-0.3,0.4-0.5,0.3c-0.1,0-0.2,0-0.3-0.1c-0.1,0-0.2,0-0.2,0c0,0,0,0,0,0
		c-0.3,0-0.6,0.3-0.6,0.6c0,0.3,0.2,0.6,0.5,0.6c0.3,0.1,0.5,0.1,0.8,0.1c0.9,0,1.4-0.4,1.8-1.5l1.9-4.5c0-0.1,0.1-0.2,0.1-0.4
		c0,0,0,0,0,0C71.6,63.4,71.3,63.1,70.9,63.1z"/>
</g>
</svg>
