<?xml version="1.0" encoding="utf-8"?>
<!-- Generator: Adobe Illustrator 24.0.0, SVG Export Plug-In . SVG Version: 6.00 Build 0)  -->
<svg version="1.1" id="Layer_1" xmlns="http://www.w3.org/2000/svg" xmlns:xlink="http://www.w3.org/1999/xlink" x="0px" y="0px"
	 viewBox="0 0 100 100" style="enable-background:new 0 0 100 100;" xml:space="preserve">
<g>
	<path d="M93.1,52.9c-1.1-1.7-2.7-2.8-4.7-3.2c-0.5-0.1-1-0.2-1.5-0.2h-1.4c-1.9-3.1-5.1-5.3-8.7-5.8c-0.9-2.7-2.7-5-5.1-6.5
		c-2.8-1.8-6.2-2.5-9.5-1.8c-0.8,0.2-1.6,0.4-2.3,0.7c-4-4.7-10.9-5.9-16.3-2.6c-3,1.9-5.1,5-5.8,8.4c-4.1,0.8-7.5,3.7-9.1,7.6h-1.8
		c-2,0-3.8,0.7-5.2,2.1c-1.4,1.4-2.2,3.2-2.2,5.2c0,0.5,0,1,0.2,1.6c2.4,10.8,10.4,19.6,20.9,24.2v1.7c0,4.4,3.6,8,8,8h16.8
		c4.4,0,8-3.6,8-8v-1.8c10.4-4.6,18.3-13.4,20.7-24.1C94.6,56.6,94.2,54.6,93.1,52.9z M40,45.8l1.8-0.1l0.1-1.8
		c0.1-2.8,1.7-5.4,4.1-6.9c4-2.5,9.4-1.3,11.9,2.8l1,1.7l1.7-1c0.8-0.5,1.7-0.9,2.7-1.1c2.3-0.5,4.6,0,6.5,1.2
		c1.9,1.3,3.3,3.2,3.7,5.5l0.3,1.5l1.6,0.1c1.9,0.1,3.6,0.7,5,1.9H33.5C34.9,47.4,37.3,46,40,45.8z M69.5,84.4c0,2.2-1.8,4-4,4H48.7
		c-2.2,0-4-1.8-4-4v-0.2c3.9,1.2,8,1.9,12.3,1.9c4.3,0,8.6-0.7,12.5-1.9V84.4z M90.3,57.7C87.1,71.8,73.1,82.1,57,82.1
		c-16.1,0-30.1-10.3-33.3-24.4c0-0.2-0.1-0.5-0.1-0.7c0-0.9,0.4-1.7,1-2.4c0.6-0.6,1.5-1,2.4-1c0,0,0,0,0,0H87c0.2,0,0.4,0,0.7,0.1
		C89.5,54.1,90.7,55.9,90.3,57.7z"/>
	<path d="M41,25.5C41,16.8,34,9.7,25.3,9.7S9.5,16.8,9.5,25.5s7.1,15.8,15.8,15.8S41,34.2,41,25.5z M37,25.5c0,2.5-0.8,4.8-2.1,6.7
		L18.6,15.8c1.9-1.3,4.2-2.1,6.7-2.1C31.8,13.7,37,19,37,25.5z M13.5,25.5c0-2.5,0.8-4.8,2.1-6.7L32,35.1c-1.9,1.3-4.2,2.1-6.7,2.1
		C18.8,37.2,13.5,32,13.5,25.5z"/>
</g>
</svg>
