<?xml version="1.0" encoding="utf-8"?>
<!-- Generator: Adobe Illustrator 24.0.0, SVG Export Plug-In . SVG Version: 6.00 Build 0)  -->
<svg version="1.1" id="Layer_1" xmlns="http://www.w3.org/2000/svg" xmlns:xlink="http://www.w3.org/1999/xlink" x="0px" y="0px"
	 viewBox="0 0 100 100" style="enable-background:new 0 0 100 100;" xml:space="preserve">
<g>
	<path d="M32.9,50.3h-11c-2.6,0-4.8,2.1-4.8,4.8v7.2c0,2.6,2.1,4.8,4.8,4.8h11c2.6,0,4.8-2.1,4.8-4.8V55
		C37.6,52.4,35.5,50.3,32.9,50.3z"/>
	<path d="M79.6,29.9C79.6,29.9,79.6,29.9,79.6,29.9H56c-0.1,0-0.3,0-0.4,0L53,26.5v-7.9c0-2.3-1.9-4.2-4.2-4.2h-25
		c-2.3,0-4.2,1.9-4.2,4.2v8l-6.9,10c-1,1.4-1.5,3.1-1.5,4.8V77c0,4.7,3.8,8.5,8.5,8.5h19.5v0h2h12.4c0.4,0,0.9,0,1.3-0.1
		c1.1,1.8,3,2.9,5.2,2.9h15.3c3.2,0,5.8-2.4,6.1-5.5l4.1-46.3c0-0.2,0-0.4,0-0.5C85.7,32.6,83,29.9,79.6,29.9z M79.6,33.9
		C79.6,33.9,79.6,33.9,79.6,33.9c1.1,0,2.1,0.9,2.1,2.1c0,0.1,0,0.1,0,0.2l-1.2,13H55.1l-1.1-13c-0.1-1.1,0.7-2.2,1.9-2.3
		c0,0,0.1,0,0.1,0H79.6z M23.7,18.6c0-0.1,0.1-0.2,0.2-0.2h25c0.1,0,0.2,0.1,0.2,0.2v6.6H23.7V18.6z M19.8,81.5
		c-2.5,0-4.5-2-4.5-4.5V41.4c0-0.9,0.3-1.8,0.8-2.5l6.6-9.7l23.5,0c0.1,0,0.1,0,0.2,0.1c0.1,0.1,0.1,0.1,0.1,0.2c0,0,0,0.1,0,0.2
		l-6.8,8.5l-0.4,0.5v0v42.8H19.8z M53.7,81.5H43.3V40.1l6.3-7.9c0,0,0.1-0.1,0.1-0.1l1.3-1.6l0.8,1.1c-1.3,1.2-2,3-1.8,4.9l4,45
		C53.9,81.5,53.8,81.5,53.7,81.5z"/>
</g>
</svg>
