<?xml version="1.0" encoding="utf-8"?>
<!-- Generator: Adobe Illustrator 24.0.0, SVG Export Plug-In . SVG Version: 6.00 Build 0)  -->
<svg version="1.1" id="Layer_1" xmlns="http://www.w3.org/2000/svg" xmlns:xlink="http://www.w3.org/1999/xlink" x="0px" y="0px"
	 viewBox="0 0 100 100" style="enable-background:new 0 0 100 100;" xml:space="preserve">
<g>
	<path d="M76.2,9.5c-8.4,0-15.3,6.9-15.3,15.3S67.8,40,76.2,40s15.3-6.9,15.3-15.3S84.6,9.5,76.2,9.5z M76.2,37
		c-6.8,0-12.3-5.5-12.3-12.3s5.5-12.3,12.3-12.3S88.4,18,88.4,24.7S82.9,37,76.2,37z"/>
	<path d="M76.7,24.9c0.5,0,0.9-0.4,0.9-0.9v-6.8c0-0.5-0.4-0.9-0.9-0.9h0c-0.3,0-0.5,0.1-0.9,0.2l-1.2,0.3c-0.4,0.1-0.6,0.4-0.6,0.8
		c0,0.4,0.4,0.8,0.8,0.8c0.1,0,0.2,0,0.3,0l0.6-0.2V24C75.8,24.5,76.2,24.9,76.7,24.9z"/>
	<path d="M73.7,27.4c-0.6,0-1,0.3-1.3,0.7v-1.6c0-0.3-0.3-0.6-0.6-0.6s-0.6,0.3-0.6,0.6v4.7c0,0.3,0.3,0.6,0.6,0.6s0.6-0.3,0.6-0.6
		v-1.8c0-0.6,0.3-0.9,0.8-0.9s0.7,0.3,0.7,0.9v1.8c0,0.3,0.3,0.6,0.6,0.6s0.6-0.3,0.6-0.6V29C75.1,28.1,74.6,27.4,73.7,27.4z"/>
	<path d="M77.8,27.5c-0.4,0-0.6,0.4-0.8,0.8v-0.2c0-0.3-0.3-0.6-0.6-0.6s-0.6,0.3-0.6,0.6v3.2c0,0.3,0.3,0.6,0.6,0.6
		s0.6-0.3,0.6-0.6v-1.1c0-0.9,0.3-1.3,1-1.5c0.2-0.1,0.5-0.2,0.5-0.6C78.4,27.7,78.2,27.5,77.8,27.5z"/>
	<path d="M80.6,29.2c-0.5-0.2-0.9-0.3-0.9-0.5v0c0-0.2,0.2-0.3,0.4-0.3c0.3,0,0.6,0.1,0.9,0.3c0.1,0,0.1,0.1,0.2,0.1
		c0.3,0,0.5-0.2,0.5-0.5c0-0.2-0.1-0.4-0.3-0.5c-0.4-0.2-0.9-0.3-1.3-0.3c-0.9,0-1.6,0.5-1.6,1.4v0c0,0.8,0.7,1.1,1.3,1.3
		c0.5,0.1,0.9,0.2,0.9,0.5v0c0,0.2-0.2,0.3-0.5,0.3c-0.3,0-0.8-0.1-1.2-0.4c-0.1,0-0.2-0.1-0.2-0.1c-0.3,0-0.5,0.2-0.5,0.5
		c0,0.2,0.1,0.3,0.2,0.4c0.5,0.3,1.1,0.5,1.6,0.5c0.9,0,1.6-0.4,1.6-1.4v0C81.9,29.7,81.2,29.4,80.6,29.2z"/>
	<path d="M58.3,32.6V22.5c0-2.6-2.1-4.7-4.7-4.7h-34c-2.6,0-4.7,2.1-4.7,4.7v10.1l-3.1,8.2C11.3,42.3,11,44,11,45.6v40.1
		c0,2.5,2,4.6,4.6,4.6c0,0,0,0,0,0h42.6c2.5,0,4.6-2.1,4.6-4.6V45.8c0-1.8-0.4-3.5-1-5.2L58.3,32.6z M56.2,74.6
		c0,2.5-2.1,4.6-4.6,4.6H22c-2.5,0-4.6-2.1-4.6-4.6V52.2c0-2.5,2.1-4.6,4.6-4.6h29.6c2.5,0,4.6,2.1,4.6,4.6V74.6z"/>
	<path d="M36.8,57.9h-5.5c0,0,0,0,0,0c-0.6,0-1.1,0.5-1.1,1.1v7.8c0,0.6,0.5,1.1,1.1,1.1c0.6,0,1.1-0.5,1.1-1.1V64h3.8
		c0.6,0,1-0.4,1-1s-0.4-1-1-1h-3.8v-2.1h4.4c0.6,0,1-0.4,1-1C37.8,58.4,37.4,57.9,36.8,57.9z"/>
	<path d="M42.4,60.1c-0.1,0-0.1,0-0.2,0c-2.1,0.1-3.7,1.8-3.6,3.9c0,0.1,0,0.2,0,0.3c0.1,2.1,1.9,3.7,3.9,3.6c1,0,1.9-0.3,2.6-0.9
		c0.2-0.2,0.3-0.4,0.3-0.6c0-0.2-0.1-0.4-0.2-0.5c-0.3-0.4-0.8-0.4-1.2-0.2c-0.4,0.3-1,0.5-1.5,0.5c-0.9,0.1-1.7-0.6-1.8-1.5H45
		c0.6,0,1-0.4,1-1c0-0.1,0-0.1,0-0.2C45.9,61.6,44.3,60,42.4,60.1z M40.7,63.4c0-0.9,0.7-1.6,1.6-1.6c0.9,0,1.6,0.7,1.6,1.6H40.7z"
		/>
</g>
</svg>
