<?xml version="1.0" encoding="utf-8"?>
<!-- Generator: Adobe Illustrator 24.0.0, SVG Export Plug-In . SVG Version: 6.00 Build 0)  -->
<svg version="1.1" id="Layer_1" xmlns="http://www.w3.org/2000/svg" xmlns:xlink="http://www.w3.org/1999/xlink" x="0px" y="0px"
	 viewBox="0 0 100 100" style="enable-background:new 0 0 100 100;" xml:space="preserve">
<g>
	<path d="M42.1,25.9c0-8.7-7.1-15.8-15.8-15.8s-15.8,7.1-15.8,15.8s7.1,15.8,15.8,15.8S42.1,34.6,42.1,25.9z M38.1,25.9
		c0,2.5-0.8,4.8-2.1,6.7L19.6,16.3c1.9-1.3,4.2-2.1,6.7-2.1C32.9,14.1,38.1,19.4,38.1,25.9z M14.6,25.9c0-2.5,0.8-4.8,2.1-6.7
		l16.4,16.4c-1.9,1.3-4.2,2.1-6.7,2.1C19.9,37.7,14.6,32.4,14.6,25.9z"/>
	<path d="M87.4,68.6V53.8c0-2.2-1.1-4.3-3-5.6L79,44.6l0-0.1c-1.3,0.9-2.8,1.5-4.4,1.7c-3.5,0.5-6.7-0.5-6.9-2.4
		c-0.2-1.5,1.6-3.2,4.3-3.9c0,0,0.1-0.1,0-0.1l-4.5-3c-0.7-0.5-1.6-0.6-2.4-0.4L21,48.8c-2.9,0.8-4.9,3.5-4.9,6.5v24.7
		c0,3.7,3,6.7,6.7,6.7c0,0,0,0,0,0h1.9c0.9,0,1.7-0.8,1.7-1.7c0-0.3,0-0.7,0.1-1c0.5-3,3.3-5,6.3-4.5c2.7,0.5,4.6,2.8,4.5,5.5
		c0,0.9,0.7,1.6,1.6,1.6h27.5c0.7-2.6,3.4-4.2,6.1-3.4c1.7,0.5,3,1.8,3.4,3.4c0,0,0,0,0.1,0h4.5c3.7,0,6.7-3,6.7-6.7c0,0,0,0,0,0
		v-0.5c-3-0.8-4.8-3.8-4-6.8C83.8,70.7,85.4,69.1,87.4,68.6z M26.5,73.6C26.5,73.6,26.5,73.6,26.5,73.6L26.5,73.6
		c-1.9,0-3.5-1.6-3.5-3.5s1.5-3.4,3.4-3.4s3.4,1.5,3.4,3.4C29.9,72,28.4,73.6,26.5,73.6z M33.4,58c0,1.5-1.2,2.8-2.8,2.8v0
		c-1.5,0-2.8-1.2-2.8-2.8c0-1.5,1.2-2.8,2.8-2.8S33.4,56.4,33.4,58C33.4,58,33.4,58,33.4,58z M57.2,41.8L57.2,41.8
		c2.2-0.1,4,0.9,4,2.1s-1.8,2.2-4,2.2c-2.2,0-3.9-1-3.9-2.2S55,41.8,57.2,41.8z M44.7,68.7c-2.2,0-3.9-1.8-3.9-3.9
		c0-2.2,1.8-3.9,3.9-3.9c2.2,0,3.9,1.8,3.9,3.9S46.9,68.7,44.7,68.7z M54.7,79.5C54.7,79.5,54.7,79.5,54.7,79.5
		c-1.8,0-3.2-1.5-3.2-3.2c0-1.8,1.5-3.2,3.2-3.2c1.8,0,3.2,1.5,3.2,3.2C57.9,78.1,56.4,79.5,54.7,79.5z M64.7,66.2L64.7,66.2
		c-2.9,0-5.2-2.3-5.2-5.2c0-2.9,2.3-5.2,5.2-5.2c2.9,0,5.2,2.3,5.2,5.2C69.8,63.9,67.5,66.2,64.7,66.2z M72.5,77.6L72.5,77.6
		c-2.2,0-4-1.8-4-4c0-2.2,1.8-4,4-4c2.2,0,4,1.8,4,4C76.5,75.8,74.7,77.6,72.5,77.6z"/>
</g>
</svg>
