<svg id="Layer_1" data-name="Layer 1" xmlns="http://www.w3.org/2000/svg" viewBox="0 0 100 100"><defs><style>.cls-1,.cls-2,.cls-3,.cls-4{fill:none;}.cls-1,.cls-2,.cls-4{stroke:#000;stroke-miterlimit:10;}.cls-1,.cls-2{stroke-width:4px;}.cls-2{stroke-linecap:round;}.cls-4{stroke-width:4.66px;}</style></defs><path d="M21.65,37.43A15.88,15.88,0,1,1,37.53,21.56,15.89,15.89,0,0,1,21.65,37.43Zm0-30.24A14.37,14.37,0,1,0,36,21.56,14.38,14.38,0,0,0,21.65,7.19Z"/><path d="M21.73,6.44V12a9.53,9.53,0,0,1,0,19v5.59a15.12,15.12,0,0,0,0-30.23Z"/><path d="M14.67,24.56a.64.64,0,0,1-.23-.49.68.68,0,0,1,.67-.67.69.69,0,0,1,.47.18,2.39,2.39,0,0,0,1.8.76,1.24,1.24,0,0,0,1.37-1.2v0c0-.78-.71-1.22-1.82-1.22h-.29a.6.6,0,0,1-.6-.6.8.8,0,0,1,.3-.57l1.86-2H15.32a.61.61,0,0,1-.62-.61.61.61,0,0,1,.62-.61h4.05a.63.63,0,0,1,.7.61,1,1,0,0,1-.4.76L17.8,20.83c1.2.15,2.33.76,2.33,2.23v0a2.54,2.54,0,0,1-2.77,2.52A3.71,3.71,0,0,1,14.67,24.56Z"/><path d="M21.48,21.51v0c0-2.27,1.39-4.1,3.47-4.1s3.45,1.81,3.45,4.08v0c0,2.27-1.38,4.11-3.47,4.11S21.48,23.78,21.48,21.51Zm5.48,0v0c0-1.56-.8-2.85-2-2.85s-2,1.25-2,2.83v0c0,1.57.8,2.85,2,2.85S27,23.07,27,21.51Z"/><circle class="cls-1" cx="79.36" cy="21.93" r="14.65"/><circle cx="79.36" cy="21.93" r="2.94"/><line class="cls-2" x1="79.36" y1="13.02" x2="79.36" y2="20.64"/><line class="cls-2" x1="80.65" y1="21.93" x2="85.82" y2="21.93"/><g id="_254" data-name="254"><rect class="cls-3" x="8.81" y="9.54" width="80" height="80"/><path class="cls-2" d="M77.51,48.45a10.68,10.68,0,0,0-9.07-5.86,10.63,10.63,0,0,0-15.9-6.92,10.62,10.62,0,0,0-19.63,5.08,10.64,10.64,0,0,0-9.48,7.7Z"/><path class="cls-1" d="M35.79,78.38v3a6,6,0,0,0,6,6H58.58a6,6,0,0,0,6-6v-3"/><path class="cls-4" d="M50.12,81.06c17.39,0,31.91-11.17,35.23-26a5.37,5.37,0,0,0-5.29-6.47H20.18a5.38,5.38,0,0,0-5.3,6.47C18.2,69.89,32.72,81.06,50.12,81.06Z"/></g></svg>