<svg id="Layer_1" data-name="Layer 1" xmlns="http://www.w3.org/2000/svg" viewBox="0 0 100 100"><defs><style>.cls-1,.cls-2,.cls-3,.cls-4{fill:none;}.cls-1,.cls-2,.cls-4{stroke:#000;stroke-miterlimit:10;}.cls-1,.cls-2{stroke-width:4px;}.cls-2{stroke-linecap:round;}.cls-4{stroke-width:4.66px;}</style></defs><circle class="cls-1" cx="79.36" cy="22" r="14.65"/><circle cx="79.36" cy="22" r="2.94"/><line class="cls-2" x1="79.36" y1="13.09" x2="79.36" y2="20.71"/><line class="cls-2" x1="80.65" y1="22" x2="85.82" y2="22"/><g id="_254" data-name="254"><rect class="cls-3" x="8.81" y="9.61" width="80" height="80"/><path class="cls-2" d="M77.51,48.52a10.65,10.65,0,0,0-9.07-5.85,10.61,10.61,0,0,0-15.9-6.92,10.62,10.62,0,0,0-19.63,5.08,10.61,10.61,0,0,0-9.48,7.69Z"/><path class="cls-1" d="M35.79,78.45v3a6,6,0,0,0,6,6H58.58a6,6,0,0,0,6-6v-3"/><path class="cls-4" d="M50.12,81.13c17.39,0,31.91-11.17,35.23-26a5.38,5.38,0,0,0-5.29-6.48H20.18a5.38,5.38,0,0,0-5.3,6.48C18.2,70,32.72,81.13,50.12,81.13Z"/></g></svg>