<?xml version="1.0" encoding="utf-8"?>
<!-- Generator: Adobe Illustrator 24.0.0, SVG Export Plug-In . SVG Version: 6.00 Build 0)  -->
<svg version="1.1" id="Layer_1" xmlns="http://www.w3.org/2000/svg" xmlns:xlink="http://www.w3.org/1999/xlink" x="0px" y="0px"
	 viewBox="0 0 84.3 83.8" style="enable-background:new 0 0 84.3 83.8;" xml:space="preserve">
<g>
	<path d="M68.5,0c-8.7,0-15.8,7.1-15.8,15.8s7.1,15.8,15.8,15.8h0c8.7,0,15.7-7.1,15.7-15.8C84.3,7.1,77.2,0,68.5,0z M68.5,27.5
		c-6.5,0-11.7-5.3-11.7-11.8C56.8,9.3,62.1,4,68.5,4s11.8,5.3,11.8,11.7C80.3,22.2,75,27.5,68.5,27.5z"/>
	<path d="M62.6,11.2c-0.2,0-0.5,0.1-0.7,0.1l-1.3,0.4c-0.3,0.1-0.5,0.3-0.5,0.6c0,0.3,0.3,0.6,0.6,0.6c0.1,0,0.2,0,0.3,0l0.9-0.3
		l0,6.3c0,0.4,0.3,0.7,0.7,0.7c0.4,0,0.7-0.3,0.7-0.7v-7.1c0,0,0,0,0,0C63.3,11.5,63,11.2,62.6,11.2z"/>
	<path d="M70.7,13.2c-0.8,0-1.6,0.4-2,1.1v-2.7c0,0,0,0,0,0c0-0.4-0.3-0.7-0.7-0.7c-0.4,0-0.7,0.3-0.7,0.7l0,7.4
		c0,0.4,0.3,0.7,0.7,0.7c0.4,0,0.7-0.3,0.7-0.7v-2.9c0-0.1,0-0.1,0-0.2c0-0.8,0.7-1.4,1.4-1.4c0.9,0,1.4,0.5,1.4,1.5V19c0,0,0,0,0,0
		c0,0.4,0.3,0.7,0.7,0.7c0,0,0,0,0,0c0.4,0,0.7-0.3,0.7-0.7v-3.4c0-0.1,0-0.2,0-0.4C72.9,14.1,71.9,13.2,70.7,13.2z"/>
	<path d="M76.8,13.3c-0.7,0.1-1.4,0.6-1.6,1.4V14c0,0,0,0,0,0c0-0.4-0.3-0.7-0.7-0.7c0,0,0,0,0,0c-0.4,0-0.7,0.3-0.7,0.7v5
		c0,0.4,0.3,0.7,0.7,0.7c0,0,0,0,0,0c0.4,0,0.7-0.3,0.7-0.7v-1.9c0-1.5,0.7-2.3,1.7-2.5c0.4-0.1,0.6-0.4,0.6-0.7
		C77.5,13.6,77.2,13.3,76.8,13.3z"/>
	<path d="M31.5,15.9c0-8.7-7.1-15.8-15.8-15.8S0,7.2,0,15.9s7.1,15.8,15.8,15.8S31.5,24.6,31.5,15.9z M27.5,15.9
		c0,2.5-0.8,4.8-2.1,6.7L9,6.2c1.9-1.3,4.2-2.1,6.7-2.1C22.3,4.1,27.5,9.4,27.5,15.9z M4,15.9c0-2.5,0.8-4.8,2.1-6.7l16.3,16.4
		c-1.9,1.3-4.2,2.1-6.7,2.1C9.3,27.6,4,22.4,4,15.9z"/>
	<path d="M48.9,28.1v-4.5c0-1.8-1.5-3.3-3.3-3.3l-6.7-0.1c0,0,0,0-0.1,0c-1.8,0-3.4,1.4-3.4,3.3v4.4c-5.3,0-9.6,4.2-9.8,9.5L25,73.8
		c0,5.4,4.4,9.8,9.8,9.8l13.1,0.2c0.1,0,0.2,0,0.3,0c5.3,0,9.6-4.2,9.8-9.5l0.6-36.4C58.5,32.5,54.2,28.2,48.9,28.1z M30.1,69.3
		l0.4-28l22.9,0.3l-0.4,28L30.1,69.3z"/>
	<path d="M36.4,52.7c0.4,0,0.9-0.2,1.2-0.5c0,0,0,0,0,0c0,0.3,0.3,0.5,0.5,0.4c0.3,0,0.5-0.2,0.5-0.5v-1.8c0-0.5-0.1-0.9-0.4-1.2
		c-0.4-0.3-0.8-0.5-1.3-0.4c-0.4,0-0.8,0.1-1.2,0.2c-0.2,0.1-0.3,0.2-0.3,0.4c0,0,0,0,0,0c0,0.2,0.2,0.4,0.5,0.4c0.1,0,0.1,0,0.2,0
		c0.2-0.1,0.5-0.1,0.8-0.1c0.6,0,0.8,0.2,0.8,0.7v0.1c-0.3-0.1-0.6-0.2-0.9-0.2c-0.9,0-1.6,0.4-1.6,1.2c0,0,0,0.1,0,0.1
		C35.1,52.3,35.7,52.8,36.4,52.7z M36.9,51c0.2,0,0.5,0,0.7,0.1v0.2c0,0.4-0.5,0.7-0.8,0.7c-0.4,0-0.6-0.2-0.6-0.5
		C36.1,51.1,36.4,51,36.9,51z"/>
	<path d="M41.8,48.7c-0.5,0-0.9,0.2-1.1,0.6c0,0,0-0.1,0-0.1c0-0.3-0.3-0.5-0.6-0.5c-0.3,0-0.5,0.3-0.5,0.6v2.9c0,0,0,0.1,0,0.1
		c0,0.3,0.3,0.5,0.6,0.5c0.3,0,0.5-0.3,0.5-0.6v-1.7c0-0.5,0.3-0.8,0.7-0.8S42,50,42,50.5v1.6c0,0,0,0,0,0c0,0.3,0.2,0.5,0.6,0.5
		c0.3,0,0.5-0.2,0.5-0.6v-2c0-0.1,0-0.1,0-0.2C43.1,49.2,42.5,48.7,41.8,48.7z"/>
	<path d="M44.2,49.7v1.8c0,0.9,0.4,1.2,1.1,1.2c0.2,0,0.4,0,0.6-0.1c0.2-0.1,0.3-0.2,0.3-0.4c0-0.2-0.2-0.5-0.5-0.5h-0.1
		c-0.2,0-0.4-0.1-0.4-0.4v-1.7h0.5c0,0,0,0,0,0c0.3,0,0.5-0.2,0.5-0.5s-0.2-0.5-0.5-0.5h-0.5v-0.5c0,0,0-0.1,0-0.1
		c0-0.3-0.3-0.5-0.6-0.5c-0.3,0-0.5,0.3-0.5,0.6v0.5c-0.3,0-0.5,0.2-0.5,0.5C43.8,49.5,44,49.7,44.2,49.7z"/>
	<path d="M47.4,51h1.3c0,0,0,0,0,0c0.3,0,0.5-0.2,0.5-0.5c0-0.3-0.2-0.5-0.5-0.5h-1.3c-0.3,0-0.5,0.2-0.5,0.5
		C46.9,50.7,47.1,50.9,47.4,51z"/>
	<path d="M34.7,57.4c-0.4,0-0.8,0.1-1.2,0.2c-0.2,0.1-0.3,0.2-0.3,0.4c0,0.2,0.2,0.5,0.5,0.5h0.2c0.2-0.1,0.5-0.1,0.8-0.1
		c0.6,0,0.8,0.2,0.8,0.7v0.1C35.1,59,34.8,59,34.4,59c-0.9,0-1.6,0.4-1.6,1.2c0,0,0,0.1,0,0.1c0.1,0.7,0.7,1.1,1.3,1.1
		c0.4,0,0.9-0.2,1.2-0.5c0,0,0,0,0,0c0,0.3,0.3,0.5,0.5,0.4c0,0,0,0,0,0c0.3,0,0.5-0.2,0.5-0.5v-1.8c0-0.4-0.1-0.9-0.4-1.2
		C35.7,57.5,35.2,57.4,34.7,57.4z M35.4,60c0,0.3-0.4,0.6-0.9,0.7c-0.4,0-0.6-0.2-0.6-0.5c0-0.3,0.3-0.5,0.8-0.5
		c0.2,0,0.5,0,0.7,0.1V60z"/>
	<path d="M40.2,60c-0.1,0-0.2,0-0.3,0.1c-0.2,0.2-0.5,0.3-0.7,0.3c0,0,0,0-0.1,0c-0.6,0-1-0.5-0.9-1.1c0-0.5,0.4-1,0.9-1
		c0.3,0,0.5,0.1,0.7,0.2c0.1,0.1,0.2,0.1,0.3,0.1c0.3,0,0.5-0.2,0.5-0.5c0-0.1-0.1-0.3-0.2-0.4c-0.4-0.3-0.8-0.5-1.3-0.4
		c-1.1,0-2,0.9-2,2c0,1.1,0.9,2,2,2c0.5,0,1-0.2,1.4-0.5c0.1-0.1,0.2-0.2,0.2-0.3c0,0,0,0,0,0C40.7,60.3,40.5,60,40.2,60z"/>
	<path d="M42.2,56c-0.3-0.1-0.7,0.1-0.8,0.5c0,0.3,0.3,0.5,0.5,0.5c0.3,0,0.7-0.2,0.7-0.5C42.6,56.3,42.5,56.1,42.2,56z"/>
	<path d="M42,57.4c-0.3,0-0.5,0.3-0.5,0.6v2.8c0,0,0,0.1,0,0.1c0,0.3,0.3,0.5,0.6,0.5c0.3,0,0.5-0.3,0.5-0.6V58c0,0,0-0.1,0-0.1
		C42.6,57.6,42.3,57.3,42,57.4z"/>
	<path d="M47,56.1c-0.3,0-0.6,0.2-0.6,0.5V58c-0.3-0.4-0.7-0.6-1.2-0.6c-0.1,0-0.1,0-0.2,0c-1,0.1-1.7,1-1.6,2c0,0,0,0.1,0,0.1
		c0,1,0.8,1.8,1.8,1.9c0.5,0,0.9-0.2,1.2-0.6c0,0,0,0,0,0c0,0.3,0.2,0.5,0.6,0.5c0.3,0,0.5-0.2,0.5-0.6v-4.2
		C47.5,56.3,47.3,56.1,47,56.1z M46.4,59.6c-0.1,0.5-0.6,0.9-1.1,0.8c-0.5-0.1-0.9-0.6-0.8-1.1c0-0.1,0-0.2,0-0.3
		c0.1-0.5,0.6-0.9,1.1-0.8c0.5,0.1,0.9,0.6,0.8,1.1C46.4,59.5,46.4,59.6,46.4,59.6z"/>
	<path d="M50.2,59c-0.4-0.1-0.8-0.2-0.8-0.5c0-0.1,0.1-0.3,0.4-0.3c0.3,0,0.6,0.1,0.8,0.2c0.1,0,0.1,0,0.2,0c0,0,0,0,0,0
		c0.2,0,0.4-0.2,0.4-0.4c0-0.2-0.1-0.3-0.3-0.4c-0.4-0.2-0.8-0.3-1.2-0.3c0,0-0.1,0-0.1,0c-0.7,0-1.3,0.5-1.3,1.2
		c0,0.8,0.7,1,1.2,1.2c0.4,0.1,0.8,0.2,0.8,0.4c0,0.2-0.2,0.3-0.5,0.3c-0.4,0-0.7-0.1-1-0.3c-0.1,0-0.1-0.1-0.2-0.1c0,0,0,0,0,0
		c-0.2,0-0.4,0.2-0.4,0.4c0,0.2,0.1,0.3,0.2,0.4c0.4,0.3,0.9,0.4,1.4,0.5c0.8,0,1.5-0.4,1.5-1.2C51.3,59.4,50.6,59.1,50.2,59z"/>
</g>
</svg>
