<svg id="Layer_1" data-name="Layer 1" xmlns="http://www.w3.org/2000/svg" viewBox="0 0 100 100"><defs><style>.cls-1,.cls-6,.cls-7,.cls-8,.cls-9{fill:none;}.cls-1,.cls-7,.cls-8,.cls-9{stroke:#000;stroke-miterlimit:10;}.cls-1{stroke-width:3px;}.cls-2{font-size:12px;}.cls-2,.cls-5{font-family:GothamRounded-Bold, Gotham Rounded;font-weight:700;}.cls-3,.cls-4{font-family:GothamRounded-Book, Gotham Rounded;font-weight:400;}.cls-3{letter-spacing:-0.01em;}.cls-5{font-size:8px;letter-spacing:-0.05em;}.cls-7{stroke-linecap:round;}.cls-7,.cls-8{stroke-width:4px;}.cls-9{stroke-width:4.66px;}</style></defs><circle class="cls-1" cx="75.84" cy="24.96" r="13.77"/><text class="cls-2" transform="translate(68.45 25.08)">1<tspan class="cls-3" x="5.06" y="0">s</tspan><tspan class="cls-4" x="10.92" y="0">t</tspan></text><text class="cls-5" transform="translate(66.89 32.05)">meal</text><path d="M38.62,23.45l-1.84-4.39h0V13.51a2.58,2.58,0,0,0-2.58-2.57H15.48a2.57,2.57,0,0,0-2.57,2.57v5.55L11.2,23.55a7.32,7.32,0,0,0-.48,2.62v22a2.52,2.52,0,0,0,2.52,2.52H36.67a2.52,2.52,0,0,0,2.52-2.52V26.29A7.31,7.31,0,0,0,38.62,23.45Zm-3,18.65a2.53,2.53,0,0,1-2.53,2.53H16.84a2.53,2.53,0,0,1-2.53-2.53V29.83a2.53,2.53,0,0,1,2.53-2.53H33.07a2.53,2.53,0,0,1,2.53,2.53Z"/><g id="_254" data-name="254"><rect class="cls-6" x="10.62" y="11.29" width="80" height="80"/><path class="cls-7" d="M81.72,57a8.79,8.79,0,0,0-7.49-4.84,8.79,8.79,0,0,0-13.15-5.72,8.77,8.77,0,0,0-16.22,4.19A8.8,8.8,0,0,0,37,57Z"/><path class="cls-8" d="M47.24,81.68v2.46a5,5,0,0,0,5,5H66.08a5,5,0,0,0,5-5v-2.5"/><path class="cls-9" d="M59.08,83.9c14.38,0,26.38-9.23,29.12-21.49a4.44,4.44,0,0,0-4.37-5.36H34.33A4.44,4.44,0,0,0,30,62.41C32.7,74.67,44.7,83.9,59.08,83.9Z"/></g></svg>