<svg id="Layer_1" data-name="Layer 1" xmlns="http://www.w3.org/2000/svg" viewBox="0 0 100 100"><defs><style>.cls-1{fill:none;stroke:#000;stroke-miterlimit:10;stroke-width:3px;}.cls-2{font-size:12px;}.cls-2,.cls-3{font-family:GothamRounded-Bold, Gotham Rounded;font-weight:700;}.cls-3{font-size:8px;letter-spacing:-0.05em;}</style></defs><circle class="cls-1" cx="75.8" cy="25.07" r="13.77"/><text class="cls-2" transform="translate(72.28 25.19)">4</text><text class="cls-3" transform="translate(70.3 32.16)">hrs</text><path d="M58.34,46.73l-3-7.07h0V30.74a4.14,4.14,0,0,0-4.13-4.14H21.11A4.14,4.14,0,0,0,17,30.74v8.92l-2.76,7.23a11.85,11.85,0,0,0-.77,4.21V86.53a4.06,4.06,0,0,0,4.06,4.07H55.2a4.07,4.07,0,0,0,4.06-4.07V51.3A11.77,11.77,0,0,0,58.34,46.73Zm-4.86,30a4.06,4.06,0,0,1-4.06,4.06H23.29a4.06,4.06,0,0,1-4.06-4.06V57a4.06,4.06,0,0,1,4.06-4.06H49.42A4.06,4.06,0,0,1,53.48,57Z"/><path d="M29.33,62.14a1.06,1.06,0,0,1,1.08-1.07H35.9a1,1,0,0,1,0,2H31.48v2.08h3.79a1,1,0,0,1,0,2H31.48v2.8a1.08,1.08,0,1,1-2.15,0Z"/><path d="M41.64,71a3.76,3.76,0,0,1-3.93-3.88v0a3.75,3.75,0,0,1,3.72-3.91A3.55,3.55,0,0,1,45,66.84a1,1,0,0,1-1,1H39.83a1.73,1.73,0,0,0,1.83,1.47,2.5,2.5,0,0,0,1.52-.5.73.73,0,0,1,.51-.17.81.81,0,0,1,.83.84.85.85,0,0,1-.28.63A3.88,3.88,0,0,1,41.64,71ZM43,66.53a1.62,1.62,0,0,0-1.58-1.6,1.67,1.67,0,0,0-1.63,1.6Z"/></svg>