<?xml version="1.0" encoding="utf-8"?>
<!-- Generator: Adobe Illustrator 24.0.0, SVG Export Plug-In . SVG Version: 6.00 Build 0)  -->
<svg version="1.1" id="Layer_1" xmlns="http://www.w3.org/2000/svg" xmlns:xlink="http://www.w3.org/1999/xlink" x="0px" y="0px"
	 viewBox="0 0 100 100" style="enable-background:new 0 0 100 100;" xml:space="preserve">
<g>
	<path d="M42.1,27.3c0-8.7-7.1-15.8-15.8-15.8s-15.8,7.1-15.8,15.8s7.1,15.8,15.8,15.8S42.1,36,42.1,27.3z M38.1,27.3
		c0,2.5-0.8,4.8-2.1,6.7L19.6,17.7c1.9-1.3,4.2-2.1,6.7-2.1C32.9,15.5,38.1,20.8,38.1,27.3z M14.6,27.3c0-2.5,0.8-4.8,2.1-6.7
		L33.1,37c-1.9,1.3-4.2,2.1-6.7,2.1C19.9,39.1,14.6,33.8,14.6,27.3z"/>
	<path d="M87.3,70V55.1c0-2.2-1.1-4.3-3-5.6l-5.4-3.6c-1.3,0.9-2.8,1.5-4.4,1.7c-3.5,0.5-6.7-0.5-6.9-2.4c-0.2-1.5,1.6-3.2,4.3-3.9
		c0,0,0.1-0.1,0-0.1l-4.5-3c-0.7-0.5-1.6-0.6-2.4-0.4L21,50.1c-2.9,0.8-4.9,3.5-4.9,6.5v24.7c0,3.7,3,6.7,6.7,6.7c0,0,0,0,0,0h1.8
		c0.9,0,1.7-0.8,1.7-1.7c0-0.3,0-0.7,0.1-1c0.6-3,3.5-4.9,6.4-4.3c2.5,0.5,4.4,2.7,4.4,5.3c0,0.9,0.7,1.6,1.6,1.6h27.5
		c0.7-2.6,3.4-4.2,6.1-3.4c1.7,0.5,3,1.8,3.4,3.4h4.6c3.7,0,6.7-3,6.7-6.7c0,0,0,0,0,0v-0.5c-3-0.8-4.8-3.8-4-6.8
		C83.8,72.1,85.3,70.5,87.3,70z M26.4,75c-1.9,0-3.4-1.5-3.4-3.4s1.5-3.4,3.4-3.4s3.4,1.5,3.4,3.4S28.3,75,26.4,75z M30.6,62.2
		L30.6,62.2c-1.5,0-2.8-1.2-2.8-2.8c0-1.5,1.2-2.8,2.8-2.8s2.8,1.2,2.8,2.8C33.4,60.9,32.2,62.2,30.6,62.2z M57.2,43.2L57.2,43.2
		c2.2,0,4,1,4,2.2s-1.8,2.2-4,2.2c-2.2,0-3.9-1-3.9-2.2S55,43.2,57.2,43.2z M44.7,70.1c-2.2,0-3.9-1.8-3.9-3.9
		c0-2.2,1.8-3.9,3.9-3.9c2.2,0,3.9,1.8,3.9,3.9C48.7,68.3,46.9,70.1,44.7,70.1z M54.7,80.9C54.7,80.9,54.7,80.9,54.7,80.9
		c-1.8,0-3.2-1.5-3.2-3.2c0-1.8,1.5-3.2,3.2-3.2c1.8,0,3.2,1.5,3.2,3.2C57.9,79.5,56.4,80.9,54.7,80.9z M64.7,67.6L64.7,67.6
		c-2.9,0-5.2-2.3-5.2-5.2c0-2.9,2.3-5.2,5.2-5.2c2.9,0,5.2,2.3,5.2,5.2C69.8,65.3,67.5,67.6,64.7,67.6z M72.5,79c-2.2,0-4-1.8-4-4
		c0-2.2,1.8-4,4-4c2.2,0,4,1.8,4,4C76.5,77.2,74.7,79,72.5,79z"/>
</g>
</svg>
