<svg id="Layer_1" data-name="Layer 1" xmlns="http://www.w3.org/2000/svg" viewBox="0 0 100 100"><defs><style>.cls-1{fill:none;stroke:#000;stroke-miterlimit:10;stroke-width:3px;}.cls-2{font-size:12px;}.cls-2,.cls-3{font-family:GothamRounded-Bold, Gotham Rounded;font-weight:700;}.cls-3{font-size:8px;letter-spacing:-0.05em;}</style></defs><circle class="cls-1" cx="75.8" cy="24.85" r="13.77"/><text class="cls-2" transform="translate(72.28 24.97)">4</text><text class="cls-3" transform="translate(70.3 31.94)">hrs</text><circle class="cls-1" cx="75.8" cy="76.02" r="13.77"/><text class="cls-2" transform="translate(72.28 76.15)">2</text><text class="cls-3" transform="translate(70.3 83.11)">hrs</text><path d="M58.28,43.75l-3.15-7.51h0V26.76a4.4,4.4,0,0,0-4.4-4.4h-32a4.4,4.4,0,0,0-4.4,4.4v9.48l-2.93,7.68a12.69,12.69,0,0,0-.82,4.48V86.06a4.31,4.31,0,0,0,4.31,4.31H55a4.31,4.31,0,0,0,4.31-4.31V48.61A12.48,12.48,0,0,0,58.28,43.75Zm-5.17,31.9A4.31,4.31,0,0,1,48.8,80H21a4.32,4.32,0,0,1-4.32-4.31v-21A4.32,4.32,0,0,1,21,50.34H48.8a4.31,4.31,0,0,1,4.31,4.31Z"/><path d="M27.11,61.31a1.07,1.07,0,0,1,1.08-1.08h5.49a1,1,0,1,1,0,2H29.27v2.09h3.78a1,1,0,1,1,0,2H29.27V69a1.08,1.08,0,1,1-2.16,0Z"/><path d="M39.42,70.2a3.76,3.76,0,0,1-3.93-3.88v0a3.75,3.75,0,0,1,3.72-3.91A3.55,3.55,0,0,1,42.82,66a1,1,0,0,1-1,1H37.61a1.73,1.73,0,0,0,1.83,1.47A2.5,2.5,0,0,0,41,68a.74.74,0,0,1,.52-.17A.84.84,0,0,1,42,69.29,3.88,3.88,0,0,1,39.42,70.2Zm1.37-4.51a1.62,1.62,0,0,0-1.58-1.6,1.67,1.67,0,0,0-1.63,1.6Z"/></svg>