<svg id="Layer_1" data-name="Layer 1" xmlns="http://www.w3.org/2000/svg" viewBox="0 0 100 100"><defs><style>.cls-1,.cls-2{fill:none;stroke:#000;stroke-miterlimit:10;}.cls-1{stroke-width:4px;}.cls-2{stroke-width:3px;}.cls-3{font-size:12px;}.cls-3,.cls-4{font-family:GothamRounded-Bold, Gotham Rounded;font-weight:700;}.cls-4{font-size:8px;letter-spacing:-0.05em;}</style></defs><circle class="cls-1" cx="25.09" cy="26.37" r="13.77"/><path d="M16.93,15.29A13.75,13.75,0,0,0,14,18.21L33.25,37.46a14,14,0,0,0,2.93-2.92Z"/><circle class="cls-2" cx="75.8" cy="24.72" r="13.77"/><text class="cls-3" transform="translate(72.28 24.85)">8</text><text class="cls-4" transform="translate(70.3 31.81)">hrs</text><circle class="cls-2" cx="75.8" cy="75.9" r="13.77"/><text class="cls-3" transform="translate(71.28 76.02)">4</text><text class="cls-4" transform="translate(72.11 82.99)">hr</text><path d="M62.18,55.05l-2.35-5.59h0V42.41a3.28,3.28,0,0,0-3.27-3.27H32.76a3.27,3.27,0,0,0-3.27,3.27v7.05l-2.18,5.71a9.48,9.48,0,0,0-.61,3.33v28a3.21,3.21,0,0,0,3.21,3.21H59.69A3.21,3.21,0,0,0,62.9,86.5V58.66A9.3,9.3,0,0,0,62.18,55.05ZM58.33,78.76A3.21,3.21,0,0,1,55.12,82H34.48a3.21,3.21,0,0,1-3.21-3.21V63.15a3.21,3.21,0,0,1,3.21-3.21H55.12a3.21,3.21,0,0,1,3.21,3.21Z"/><path d="M37.12,67.15a1.08,1.08,0,0,1,1.08-1.08h5.49a1,1,0,1,1,0,2H39.28v2.09h3.78a1,1,0,0,1,0,2H39.28v2.8a1.08,1.08,0,1,1-2.16,0Z"/><path d="M49.43,76a3.75,3.75,0,0,1-3.92-3.88v0a3.73,3.73,0,0,1,3.71-3.91,3.54,3.54,0,0,1,3.61,3.61,1,1,0,0,1-1,1H47.62a1.74,1.74,0,0,0,1.84,1.47,2.45,2.45,0,0,0,1.51-.5.79.79,0,0,1,.52-.17.82.82,0,0,1,.83.84.85.85,0,0,1-.28.63A3.91,3.91,0,0,1,49.43,76Zm1.37-4.51a1.6,1.6,0,0,0-1.58-1.59,1.68,1.68,0,0,0-1.63,1.59Z"/></svg>