<svg id="Layer_1" data-name="Layer 1" xmlns="http://www.w3.org/2000/svg" viewBox="0 0 100 100"><defs><style>.cls-1,.cls-4,.cls-5,.cls-6,.cls-7{fill:none;}.cls-1,.cls-5,.cls-6,.cls-7{stroke:#000;stroke-miterlimit:10;}.cls-1{stroke-width:3px;}.cls-2{font-size:12px;}.cls-2,.cls-3{font-family:GothamRounded-Bold, Gotham Rounded;font-weight:700;}.cls-3{font-size:8px;letter-spacing:-0.05em;}.cls-5{stroke-linecap:round;}.cls-5,.cls-6{stroke-width:4px;}.cls-7{stroke-width:4.66px;}</style></defs><circle class="cls-1" cx="76.46" cy="24.01" r="13.77"/><text class="cls-2" transform="translate(73.94 24.14)">1</text><text class="cls-3" transform="translate(70.97 31.1)">hrs</text><path d="M39.24,22.5,37.4,18.11h0V12.57A2.58,2.58,0,0,0,34.81,10H16.11a2.58,2.58,0,0,0-2.58,2.57v5.54L11.82,22.6a7.36,7.36,0,0,0-.48,2.62v22a2.52,2.52,0,0,0,2.52,2.53H37.29a2.52,2.52,0,0,0,2.52-2.53V25.35A7.36,7.36,0,0,0,39.24,22.5Zm-3,18.66a2.52,2.52,0,0,1-2.53,2.52H17.46a2.52,2.52,0,0,1-2.53-2.52V28.88a2.52,2.52,0,0,1,2.53-2.52H33.69a2.52,2.52,0,0,1,2.53,2.52Z"/><g id="_254" data-name="254"><rect class="cls-4" x="11.24" y="10.35" width="80" height="80"/><path class="cls-5" d="M82.34,56a8.81,8.81,0,0,0-7.49-4.84A8.79,8.79,0,0,0,61.7,45.44a8.77,8.77,0,0,0-16.22,4.2A8.79,8.79,0,0,0,37.64,56Z"/><path class="cls-6" d="M47.86,80.73v2.46a5,5,0,0,0,5,5H66.7a5,5,0,0,0,5-5v-2.5"/><path class="cls-7" d="M59.7,83c14.38,0,26.38-9.24,29.12-21.5a4.44,4.44,0,0,0-4.37-5.35H35a4.44,4.44,0,0,0-4.37,5.35C33.32,73.72,45.32,83,59.7,83Z"/></g></svg>