<?xml version="1.0" encoding="utf-8"?>
<!-- Generator: Adobe Illustrator 24.2.3, SVG Export Plug-In . SVG Version: 6.00 Build 0)  -->
<svg version="1.1" id="Layer_1" xmlns="http://www.w3.org/2000/svg" xmlns:xlink="http://www.w3.org/1999/xlink" x="0px" y="0px"
	 viewBox="0 0 100 100" style="enable-background:new 0 0 100 100;" xml:space="preserve">
<g>
	<path d="M59.9,32.1V22c0-2.6-2.1-4.7-4.7-4.7c0,0,0,0,0,0h-34c-2.6,0-4.7,2-4.8,4.6c0,0,0,0.1,0,0.1v10.1l-3.1,8.2
		c-0.6,1.5-0.9,3.1-0.9,4.8v40.1c0,2.5,2.1,4.6,4.6,4.6h42.6c2.5,0,4.6-2.1,4.6-4.6c0,0,0,0,0,0V45.3c0-1.8-0.4-3.5-1-5.2L59.9,32.1
		z M57.7,74.1c0,2.5-2.1,4.6-4.6,4.6H23.6c-2.5,0-4.6-2.1-4.6-4.6V51.7c0-2.5,2-4.6,4.6-4.6c0,0,0,0,0,0h29.5c2.5,0,4.6,2.1,4.6,4.6
		V74.1z"/>
	<polygon points="42.1,54.7 36.2,54.7 36.2,59.8 31.2,59.7 31.2,65.6 36.2,65.6 36.2,70.6 42.1,70.6 42.1,65.6 47.1,65.6 47.1,59.8 
		42.1,59.8 	"/>
	<path d="M76.7,9.3c-8.4,0-15.3,6.9-15.3,15.3s6.9,15.3,15.3,15.3S92,33,92,24.6S85.1,9.3,76.7,9.3z M76.7,36.8
		c-6.8,0-12.3-5.5-12.3-12.3s5.5-12.3,12.3-12.3S89,17.8,89,24.6S83.5,36.8,76.7,36.8z"/>
	<path d="M77.2,24.8c1.8,0,3.2-1.2,3.2-2.9v0c0-1.8-1.3-2.7-3-2.7c-0.8,0-1.3,0.3-1.7,0.5c0.1-1.1,0.6-1.9,1.7-1.9
		c0.5,0,0.9,0.1,1.2,0.3c0.1,0.1,0.3,0.1,0.5,0.1c0.5,0,0.9-0.4,0.9-0.9c0-0.4-0.2-0.6-0.5-0.8c-0.5-0.3-1.2-0.5-2-0.5
		c-2.5,0-3.7,2-3.7,4.6v0c0,1.7,0.4,2.6,1,3.2C75.4,24.5,76.1,24.8,77.2,24.8z M75.7,22c0-0.7,0.5-1.2,1.4-1.2
		c0.9,0,1.5,0.5,1.5,1.2v0c0,0.7-0.5,1.2-1.4,1.2S75.7,22.7,75.7,22L75.7,22z"/>
	<path d="M74.2,27.3c-0.6,0-1,0.3-1.3,0.7v-1.6c0-0.3-0.3-0.6-0.6-0.6s-0.6,0.3-0.6,0.6v4.7c0,0.3,0.3,0.6,0.6,0.6s0.6-0.3,0.6-0.6
		v-1.8c0-0.6,0.3-0.9,0.8-0.9s0.7,0.3,0.7,0.9v1.8c0,0.3,0.3,0.6,0.6,0.6s0.6-0.3,0.6-0.6v-2.2C75.7,27.9,75.1,27.3,74.2,27.3z"/>
	<path d="M78.4,27.3c-0.4,0-0.6,0.4-0.8,0.8v-0.2c0-0.3-0.3-0.6-0.6-0.6s-0.6,0.3-0.6,0.6v3.2c0,0.3,0.3,0.6,0.6,0.6
		s0.6-0.3,0.6-0.6V30c0-0.9,0.3-1.3,1-1.5c0.2-0.1,0.5-0.2,0.5-0.6C79,27.6,78.7,27.3,78.4,27.3z"/>
	<path d="M81.1,29.1c-0.5-0.2-0.9-0.3-0.9-0.5v0c0-0.2,0.2-0.3,0.4-0.3c0.3,0,0.6,0.1,0.9,0.3c0.1,0,0.1,0.1,0.2,0.1
		c0.3,0,0.5-0.2,0.5-0.5c0-0.2-0.1-0.4-0.3-0.5c-0.4-0.2-0.9-0.3-1.3-0.3c-0.9,0-1.6,0.5-1.6,1.4v0c0,0.8,0.7,1.1,1.3,1.3
		c0.5,0.1,0.9,0.2,0.9,0.5v0c0,0.2-0.2,0.3-0.5,0.3c-0.3,0-0.8-0.1-1.2-0.4c-0.1,0-0.2-0.1-0.2-0.1c-0.3,0-0.5,0.2-0.5,0.5
		c0,0.2,0.1,0.3,0.2,0.4c0.5,0.3,1.1,0.5,1.6,0.5c0.9,0,1.6-0.4,1.6-1.4v0C82.4,29.6,81.7,29.3,81.1,29.1z"/>
</g>
</svg>
