<svg id="Layer_1" data-name="Layer 1" xmlns="http://www.w3.org/2000/svg" viewBox="0 0 100 100"><defs><style>.cls-1,.cls-2,.cls-3{fill:none;}.cls-2,.cls-3{stroke:#000;stroke-miterlimit:10;stroke-width:4px;}.cls-2{stroke-linecap:round;}</style></defs><g id="_254" data-name="254"><rect class="cls-1" x="8.7" y="11.01" width="80" height="80"/><path class="cls-2" d="M77.39,49.92a10.65,10.65,0,0,0-9.06-5.86,10.63,10.63,0,0,0-15.9-6.92A10.62,10.62,0,0,0,32.8,42.22a10.65,10.65,0,0,0-9.49,7.7Z"/><path class="cls-3" d="M35.68,79.85v3a6,6,0,0,0,6,6H58.47a6,6,0,0,0,6-6v-3"/><path class="cls-3" d="M50,82.53c17.4,0,31.92-11.17,35.24-26a5.38,5.38,0,0,0-5.3-6.47H20.06a5.37,5.37,0,0,0-5.29,6.47C18.09,71.36,32.61,82.53,50,82.53Z"/></g></svg>