<?xml version="1.0" encoding="utf-8"?>
<!-- Generator: Adobe Illustrator 24.0.0, SVG Export Plug-In . SVG Version: 6.00 Build 0)  -->
<svg version="1.1" id="Layer_1" xmlns="http://www.w3.org/2000/svg" xmlns:xlink="http://www.w3.org/1999/xlink" x="0px" y="0px"
	 viewBox="0 0 100 100" style="enable-background:new 0 0 100 100;" xml:space="preserve">
<g>
	<path d="M84.8,36.5C80,28,72.2,22,62.8,19.4c-8.4-2.3-17.1-1.5-24.9,2.1c-1.5-7.1-7.9-12.5-15.4-12.5c-8.7,0-15.8,7.1-15.8,15.8
		c0,7.8,5.6,14.2,13,15.5c-4.4,10.3-3.7,22.4,1.9,32.2c4.8,8.4,12.6,14.5,22,17c3.2,0.9,6.4,1.3,9.6,1.3c6.2,0,12.4-1.6,18-4.8
		c8.4-4.8,14.5-12.6,17-22S89.7,44.9,84.8,36.5z M34.3,24.8c0,2.5-0.8,4.8-2.1,6.7L15.8,15.2c1.9-1.3,4.2-2.1,6.7-2.1
		C29,13.1,34.3,18.3,34.3,24.8z M10.8,24.8c0-2.5,0.8-4.8,2.1-6.7l16.4,16.4c-1.9,1.3-4.2,2.1-6.7,2.1C16,36.6,10.8,31.3,10.8,24.8z
		 M84.5,63c-2.3,8.3-7.7,15.3-15.2,19.6c-7.5,4.3-16.2,5.4-24.6,3.1c-8.3-2.3-15.3-7.7-19.6-15.2c-5.3-9.2-5.6-20.5-1.1-30
		c7.6-0.7,13.7-7,14.2-14.7c7.3-3.8,15.6-4.7,23.5-2.6c8.3,2.3,15.3,7.7,19.6,15.2C85.7,46,86.8,54.7,84.5,63z"/>
	<path d="M69.6,73.9L56.7,61c-0.5,0.2-1,0.4-1.5,0.6v18.2c0,1.1,0.9,2,2,2c0.1,0,0.2,0,0.3,0c4.3-0.6,8.4-2.3,11.9-4.8
		c0.9-0.7,1.1-1.9,0.4-2.8C69.7,74,69.6,74,69.6,73.9z"/>
	<path d="M27.9,52.6c0.1,0,0.2,0,0.3,0h18.1c0.1-0.5,0.3-1,0.6-1.5L34,38.3c-0.8-0.8-2.1-0.8-2.8,0c-0.1,0.1-0.1,0.1-0.2,0.2
		c-2.5,3.5-4.2,7.6-4.8,11.9C26,51.5,26.8,52.5,27.9,52.6z"/>
	<path d="M46.4,56.7H28.1c-1.1,0-2,0.9-2,2c0,0.1,0,0.2,0,0.3c0.7,4.2,2.4,8.3,4.9,11.8c0.7,0.9,1.9,1.1,2.8,0.4
		C33.9,71,34,71,34,70.9L47,58C46.8,57.6,46.6,57.1,46.4,56.7z"/>
	<path d="M36.9,73.8c-0.8,0.8-0.8,2.1,0,2.8c0.1,0.1,0.1,0.1,0.2,0.2c3.5,2.5,7.5,4.2,11.8,4.9c1.1,0.2,2.1-0.6,2.3-1.7
		c0-0.1,0-0.2,0-0.3V61.5c-0.5-0.1-1-0.3-1.4-0.6L36.9,73.8z"/>
	<path d="M49.2,27.3c-0.1,0-0.2,0-0.3,0c-4.3,0.7-8.4,2.4-11.9,5c-0.9,0.7-1,1.9-0.4,2.8c0.1,0.1,0.1,0.1,0.2,0.2l12.9,12.9
		c0.5-0.3,1-0.5,1.6-0.7V29.4C51.2,28.3,50.3,27.3,49.2,27.3z"/>
	<path d="M69.7,35.3c0.8-0.8,0.8-2.1,0-2.8c-0.1-0.1-0.1-0.1-0.2-0.2c-3.6-2.6-7.7-4.3-12.1-5c-1.1-0.1-2.1,0.6-2.3,1.7
		c0,0.1,0,0.2,0,0.3v18.2c0.6,0.1,1.1,0.4,1.7,0.7L69.7,35.3z"/>
	<path d="M75.5,38.3c-0.7-0.9-1.9-1.1-2.8-0.4c-0.1,0.1-0.1,0.1-0.2,0.2L59.7,51c0.3,0.5,0.5,1.1,0.7,1.7l18.2,0c1.1,0,2-0.9,2-2
		c0-0.1,0-0.2,0-0.3C79.9,46,78.1,41.9,75.5,38.3z"/>
	<path d="M78.8,56.7c-0.1,0-0.2,0-0.3,0H60.3c-0.2,0.6-0.4,1.1-0.7,1.6l12.9,12.9c0.8,0.8,2,0.8,2.8,0c0.1-0.1,0.1-0.1,0.2-0.2
		c2.6-3.5,4.3-7.6,5-11.9C80.6,57.9,79.8,56.8,78.8,56.7z"/>
</g>
</svg>
