<?xml version="1.0" encoding="utf-8"?>
<!-- Generator: Adobe Illustrator 24.0.0, SVG Export Plug-In . SVG Version: 6.00 Build 0)  -->
<svg version="1.1" id="Layer_1" xmlns="http://www.w3.org/2000/svg" xmlns:xlink="http://www.w3.org/1999/xlink" x="0px" y="0px"
	 viewBox="0 0 100 100" style="enable-background:new 0 0 100 100;" xml:space="preserve">
<g>
	<path d="M38.2,83L38.2,83c0-1.7-1.1-3.2-2.6-3.8c-0.7-1.2-2-2.1-3.5-2.1l0,0.1h-5L26.3,67l-1,0.1l0,0l1-0.1
		c-0.1-1.1-0.6-2.1-1.5-2.7l-0.4-10.6c-0.1-2.4-2-4.2-4.4-4.2h-2.1c-2.4,0-4.4,2-4.4,4.4c0,0.1,0,0.1,0,0.2l0.2,4.1
		c-0.7,0.3-1.3,0.7-1.7,1.3c-0.5,0.7-0.8,1.6-0.8,2.6l0,0l1.4,24l1-0.1c0,0,0,0,0,0l-1,0.1c0.1,2.1,1.9,3.7,4,3.7l0,0h10.6v0.1h1.1
		l0-0.1h3.9l0-1c0,0,0,0,0,0v0.9c1.5,0,2.8-0.8,3.5-2c1.5-0.6,2.6-2.1,2.6-3.8l-0.1,0V83z M36.2,83.8c0,0.1,0,0.1,0,0.2v-1.1
		c0,0.1,0,0.1,0,0.2V83.8z M15.8,56.1h6.4l0.3,6.3l-5-3.8c-0.5-0.4-1-0.6-1.6-0.7L15.8,56.1z M17.8,51.7h2.1c1.2,0,2.1,0.9,2.2,2.1
		h0v0.1h-6.4C15.7,52.7,16.7,51.7,17.8,51.7z"/>
	<path d="M45.2,82.6h-3.8c-0.6,0-1,0.4-1,1c0,0.6,0.4,1,1,1h3.8c0.6,0,1-0.4,1-1C46.2,83,45.8,82.6,45.2,82.6z"/>
	<path d="M43.9,87.5l-3.3-1.9l0,0c-0.5-0.3-1.1-0.1-1.4,0.4c-0.3,0.5-0.1,1.1,0.4,1.4l0,0l3.3,1.9c0.5,0.3,1.1,0.1,1.4-0.4
		S44.4,87.8,43.9,87.5z"/>
	<path d="M40.7,81.5L40.7,81.5l3.3-1.9c0.5-0.3,0.7-0.9,0.4-1.4s-0.9-0.7-1.4-0.4l-3.3,1.9l0.4,0.7l-0.4-0.7
		c-0.5,0.3-0.7,0.9-0.4,1.4S40.2,81.8,40.7,81.5z"/>
	<path d="M91.4,63.6c-0.8-1.2-2-2.1-3.5-2.4c-0.4-0.1-0.7-0.1-1.1-0.1c0,0,0,0,0,0h-0.5c-1.3-1.9-3.3-3.2-5.5-3.7
		c-1.5-4-5.8-6.4-10.1-5.5c-0.4,0.1-0.8,0.2-1.2,0.3c-1.2-1.2-2.7-2.1-4.4-2.5c-2.3-0.5-4.7-0.1-6.7,1.1c-2,1.2-3.4,3.2-3.9,5.4
		c-2.5,0.7-4.6,2.4-5.8,4.8h-0.7c0,0,0,0,0,0c-3,0-5.5,2.4-5.5,5.4c0,0.4,0,0.8,0.1,1.2c1.6,7.1,6.7,12.9,13.5,15.9v0.6
		c0,3.2,2.7,5.9,5.9,5.9h10.9c3.2,0,5.9-2.6,5.9-5.9v-0.7c6.7-3.1,11.8-8.9,13.4-15.9C92.5,66.3,92.2,64.8,91.4,63.6z M56.4,60
		l1.8-0.1l0.1-1.8c0.1-1.6,0.9-3,2.3-3.9c2.3-1.4,5.3-0.7,6.7,1.5l1,1.7l1.7-1c0.5-0.3,1-0.5,1.5-0.6c2.6-0.5,5.2,1.2,5.8,3.8
		l0.3,1.4H53.8C54.6,60.4,55.5,60.1,56.4,60z M72.9,86.2H62.1c-0.7,0-1.3-0.4-1.7-1c2.3,0.6,4.6,0.9,7.1,0.9c2.5,0,4.9-0.3,7.2-1
		C74.3,85.8,73.7,86.2,72.9,86.2z M88.3,66.8c-2,8.9-10.8,15.3-20.9,15.3s-18.9-6.4-20.9-15.3c0-0.1,0-0.2,0-0.3
		c0-0.8,0.7-1.5,1.5-1.5c0,0,0,0,0,0h38.8c0.1,0,0.2,0,0.3,0c0.4,0.1,0.7,0.3,0.9,0.6C88.3,66.1,88.4,66.5,88.3,66.8z"/>
	<path d="M76.9,39.3c8.4,0,15.3-6.9,15.3-15.3S85.3,8.8,76.9,8.8S61.6,15.6,61.6,24S68.5,39.3,76.9,39.3z M76.9,11.8
		c6.8,0,12.3,5.5,12.3,12.3s-5.5,12.3-12.3,12.3S64.6,30.8,64.6,24S70.1,11.8,76.9,11.8z"/>
	<path d="M71.4,17.7c0.1,0,0.2,0,0.3,0l0.6-0.2v5.8c0,0.5,0.4,0.9,0.9,0.9s0.9-0.4,0.9-0.9v-6.8c0-0.5-0.4-0.9-0.9-0.9h0
		c-0.3,0-0.5,0.1-0.9,0.2l-1.2,0.3c-0.4,0.1-0.6,0.4-0.6,0.8C70.6,17.4,71,17.7,71.4,17.7z"/>
	<path d="M79.7,24.3c2.2,0,3.7-1.9,3.7-4.3v0c0-2.4-1.5-4.3-3.7-4.3c-2.2,0-3.7,1.9-3.7,4.3v0C76,22.4,77.4,24.3,79.7,24.3z
		 M77.8,19.9c0-1.5,0.7-2.7,1.8-2.7s1.8,1.2,1.8,2.7v0c0,1.5-0.7,2.7-1.8,2.7S77.8,21.5,77.8,19.9L77.8,19.9z"/>
	<path d="M69.4,31.2c0.3,0,0.6-0.3,0.6-0.6v-1.8c0-0.6,0.3-0.9,0.7-0.9c0.5,0,0.7,0.3,0.7,0.9v1.8c0,0.3,0.3,0.6,0.6,0.6
		s0.6-0.3,0.6-0.6v-1.8c0-0.6,0.3-0.9,0.7-0.9s0.7,0.3,0.7,0.9v1.8c0,0.3,0.3,0.6,0.6,0.6s0.6-0.3,0.6-0.6v-2.2c0-1-0.5-1.6-1.4-1.6
		c-0.6,0-1,0.2-1.4,0.7c-0.2-0.4-0.6-0.7-1.2-0.7c-0.6,0-1,0.3-1.3,0.7v0c0-0.3-0.3-0.6-0.6-0.6s-0.6,0.3-0.6,0.6v3.2
		C68.8,30.9,69.1,31.2,69.4,31.2z"/>
	<path d="M76.7,25.3c-0.4,0-0.7,0.2-0.7,0.6v0c0,0.4,0.3,0.6,0.7,0.6c0.4,0,0.7-0.2,0.7-0.6v0C77.3,25.5,77,25.3,76.7,25.3z"/>
	<path d="M76.7,26.8c-0.3,0-0.6,0.3-0.6,0.6v3.2c0,0.3,0.3,0.6,0.6,0.6c0.3,0,0.6-0.3,0.6-0.6v-3.2C77.3,27.1,77,26.8,76.7,26.8z"/>
	<path d="M80.5,26.8c-0.6,0-1,0.3-1.3,0.7v0c0-0.3-0.3-0.6-0.6-0.6S78,27.1,78,27.4v3.2c0,0.3,0.3,0.6,0.6,0.6s0.6-0.3,0.6-0.6v-1.8
		c0-0.6,0.3-0.9,0.8-0.9s0.7,0.3,0.7,0.9v1.8c0,0.3,0.3,0.6,0.6,0.6s0.6-0.3,0.6-0.6v-2.2C81.9,27.4,81.4,26.8,80.5,26.8z"/>
	<path d="M82.5,28.1L82.5,28.1c0,0.8,0.7,1.1,1.3,1.3c0.5,0.1,0.9,0.2,0.9,0.5v0c0,0.2-0.2,0.3-0.5,0.3c-0.3,0-0.8-0.1-1.2-0.4
		c-0.1,0-0.2-0.1-0.2-0.1c-0.3,0-0.5,0.2-0.5,0.5c0,0.2,0.1,0.3,0.2,0.4c0.5,0.3,1.1,0.5,1.6,0.5c0.9,0,1.6-0.4,1.6-1.4v0
		c0-0.8-0.7-1.1-1.3-1.3c-0.5-0.2-0.9-0.3-0.9-0.5v0c0-0.2,0.2-0.3,0.4-0.3c0.3,0,0.6,0.1,0.9,0.3c0.1,0,0.1,0.1,0.2,0.1
		c0.3,0,0.5-0.2,0.5-0.5c0-0.2-0.1-0.4-0.3-0.5c-0.4-0.2-0.9-0.3-1.3-0.3C83.2,26.8,82.5,27.3,82.5,28.1z"/>
</g>
</svg>
