<?xml version="1.0" encoding="utf-8"?>
<!-- Generator: Adobe Illustrator 24.0.0, SVG Export Plug-In . SVG Version: 6.00 Build 0)  -->
<svg version="1.1" id="Layer_1" xmlns="http://www.w3.org/2000/svg" xmlns:xlink="http://www.w3.org/1999/xlink" x="0px" y="0px"
	 viewBox="0 0 100 100" style="enable-background:new 0 0 100 100;" xml:space="preserve">
<g>
	<path d="M75.8,9.8c-8.4,0-15.3,6.9-15.3,15.3s6.8,15.3,15.3,15.3s15.3-6.9,15.3-15.3S84.2,9.8,75.8,9.8z M75.8,37.3
		c-6.8,0-12.3-5.5-12.3-12.3S69,12.8,75.8,12.8s12.3,5.5,12.3,12.3S82.6,37.3,75.8,37.3z"/>
	<path d="M73.6,23.4h3.5v1c0,0.5,0.4,0.9,0.9,0.9c0.5,0,0.9-0.4,0.9-0.9v-1h0.4c0.4,0,0.8-0.3,0.8-0.7s-0.3-0.8-0.8-0.8h-0.4v-4.3
		c0-0.5-0.4-0.9-0.9-0.9c-0.5,0-0.8,0.2-1.2,0.6l-3.6,4.2c-0.3,0.3-0.4,0.6-0.4,1C72.7,23,73.1,23.4,73.6,23.4z M77.1,19.3v2.6h-2.2
		L77.1,19.3z"/>
	<path d="M73.3,27.8c-0.6,0-1,0.3-1.3,0.7v-1.6c0-0.3-0.3-0.6-0.6-0.6s-0.6,0.3-0.6,0.6v4.7c0,0.3,0.3,0.6,0.6,0.6s0.6-0.3,0.6-0.6
		v-1.8c0-0.6,0.3-0.9,0.8-0.9s0.7,0.3,0.7,0.9v1.8c0,0.3,0.3,0.6,0.6,0.6s0.6-0.3,0.6-0.6v-2.2C74.8,28.4,74.2,27.8,73.3,27.8z"/>
	<path d="M77.5,27.8c-0.4,0-0.6,0.4-0.8,0.8v-0.2c0-0.3-0.3-0.6-0.6-0.6s-0.6,0.3-0.6,0.6v3.2c0,0.3,0.3,0.6,0.6,0.6
		s0.6-0.3,0.6-0.6v-1.1c0-0.9,0.3-1.3,1-1.5c0.2-0.1,0.5-0.2,0.5-0.6C78.1,28.1,77.8,27.8,77.5,27.8z"/>
	<path d="M80.2,29.6c-0.5-0.2-0.9-0.3-0.9-0.5v0c0-0.2,0.2-0.3,0.4-0.3c0.3,0,0.6,0.1,0.9,0.3c0.1,0,0.1,0.1,0.2,0.1
		c0.3,0,0.5-0.2,0.5-0.5c0-0.2-0.1-0.4-0.3-0.5c-0.4-0.2-0.9-0.3-1.3-0.3c-0.9,0-1.6,0.5-1.6,1.4v0c0,0.8,0.7,1.1,1.3,1.3
		c0.5,0.1,0.9,0.2,0.9,0.5v0c0,0.2-0.2,0.3-0.5,0.3c-0.3,0-0.8-0.1-1.2-0.4c-0.1,0-0.2-0.1-0.2-0.1c-0.3,0-0.5,0.2-0.5,0.5
		c0,0.2,0.1,0.3,0.2,0.4c0.5,0.3,1.1,0.5,1.6,0.5c0.9,0,1.6-0.4,1.6-1.4v0C81.5,30.1,80.8,29.8,80.2,29.6z"/>
	<path d="M55.3,39.7v-8.9c0-2.3-1.8-4.1-4.1-4.1H21.1c-2.3,0-4.1,1.9-4.1,4.1v8.9l-2.8,7.2c-0.5,1.3-0.8,2.8-0.8,4.2v35.4
		c0,2.2,1.8,4.1,4,4.1c0,0,0,0,0,0h37.7c2.2,0,4.1-1.8,4.1-4.1V51.3c0-1.6-0.3-3.1-0.9-4.6L55.3,39.7z M53.5,76.7
		c0,2.2-1.8,4.1-4.1,4.1H23.3c-2.2,0-4.1-1.8-4.1-4.1V57c0-2.2,1.8-4.1,4.1-4.1h26.1c2.2,0,4.1,1.8,4.1,4.1V76.7z"/>
	<path d="M35.9,61.1h-5.5c0,0,0,0,0,0c-0.6,0-1.1,0.5-1,1.1V70c0,0.1,0,0.1,0,0.2c0.1,0.6,0.6,1,1.2,1c0.6-0.1,1-0.6,1-1.2v-2.8h3.8
		c0.6,0,1-0.4,1-1c0-0.6-0.4-1-1-1h-3.8v-2.1h4.4c0.6,0,1-0.4,1-1C36.9,61.5,36.5,61.1,35.9,61.1z"/>
	<path d="M41.4,63.2c0,0-0.1,0-0.1,0c-2.1,0.1-3.7,1.8-3.6,3.9c0,0.1,0,0.2,0,0.3c0.1,2.1,1.9,3.7,3.9,3.6c0.9,0,1.9-0.3,2.6-0.9
		c0.2-0.2,0.3-0.4,0.3-0.6c0,0,0,0,0-0.1c0-0.4-0.4-0.8-0.8-0.8c-0.2,0-0.4,0.1-0.5,0.2c-0.4,0.3-1,0.5-1.5,0.5
		c-0.9,0.1-1.7-0.6-1.8-1.5H44c0.6,0,1-0.4,1-1c0,0,0-0.1,0-0.1C45,64.8,43.4,63.2,41.4,63.2z M39.8,66.5c0-0.9,0.7-1.6,1.6-1.6
		c0.9,0,1.6,0.7,1.6,1.6H39.8z"/>
</g>
</svg>
