<svg id="Layer_1" data-name="Layer 1" xmlns="http://www.w3.org/2000/svg" viewBox="0 0 100 100"><defs><style>.cls-1,.cls-3{fill:none;}.cls-1,.cls-2,.cls-3,.cls-4{stroke:#000;stroke-miterlimit:10;stroke-width:4px;}.cls-1,.cls-2{stroke-linecap:round;}</style></defs><path class="cls-1" d="M23.2,17h25a2.16,2.16,0,0,1,2.16,2.16V27.7a0,0,0,0,1,0,0H21a0,0,0,0,1,0,0V19.13A2.16,2.16,0,0,1,23.2,17Z"/><path class="cls-1" d="M21,27.7,13.8,38.24a6.5,6.5,0,0,0-1.14,3.67v35.6A6.48,6.48,0,0,0,19.14,84H40.65V39.9l6.75-8.45a2.31,2.31,0,0,0-1.81-3.75Z"/><rect class="cls-2" x="18.43" y="52.73" width="16.48" height="12.7" rx="2.76"/><path class="cls-1" d="M59.48,42.05a6.49,6.49,0,0,0-1.28-3.87L50.39,27.7,40.65,39.9V84H53a6.46,6.46,0,0,0,4.58-1.9"/><path class="cls-3" d="M72.14,83.45c3.88.55,7.1-1,9.74-4,6-6.84,11.49-21.36,1.85-27.6a15.56,15.56,0,0,0-13.41-1.48,4.43,4.43,0,0,1-2.81,0,15.49,15.49,0,0,0-13.34,1.49c-9.65,6.24-4.12,20.76,1.84,27.6,2.64,3,5.86,4.59,9.74,4a13.38,13.38,0,0,1,3.2-.66A13.38,13.38,0,0,1,72.14,83.45Z"/><path class="cls-1" d="M74.76,39.56s-2.17.83-4.21,4.2c-1.32,2.18-1.23,6.33-1.23,6.33"/><ellipse class="cls-4" cx="62.78" cy="43.65" rx="2.68" ry="7.03" transform="translate(2.29 90.43) rotate(-72.52)"/></svg>