<?xml version="1.0" encoding="utf-8"?>
<!-- Generator: Adobe Illustrator 24.0.0, SVG Export Plug-In . SVG Version: 6.00 Build 0)  -->
<svg version="1.1" id="Layer_1" xmlns="http://www.w3.org/2000/svg" xmlns:xlink="http://www.w3.org/1999/xlink" x="0px" y="0px"
	 viewBox="0 0 100 100" style="enable-background:new 0 0 100 100;" xml:space="preserve">
<g>
	<path d="M77.5,36.5l-3.7-8.8V16.7c0-2.8-2.3-5.1-5.1-5.1H31.3c-2.8,0-5.1,2.3-5.1,5.1v11.1l-3.4,9c-0.6,1.7-1,3.4-1,5.2v44
		c0,2.8,2.2,5,5,5h46.9c2.8,0,5-2.2,5-5V42.2C78.6,40.3,78.2,38.3,77.5,36.5z M66.5,78.8H34c-2.8,0-5-2.2-5-5V49.3c0-2.8,2.2-5,5-5
		h32.4c2.8,0,5,2.2,5,5l0.1,24.5C71.5,76.6,69.3,78.8,66.5,78.8z"/>
	<path d="M43,56.7c-0.6,0-1.1,0.5-1.1,1.1v4.6c0,1.5-0.8,2.3-2.1,2.3s-2.1-0.8-2.1-2.4v-4.5c0-0.1,0-0.1,0-0.2c-0.1-0.6-0.6-1-1.2-1
		c-0.6,0.1-1,0.6-1,1.2v4.6c0,2.9,1.6,4.4,4.2,4.4s4.3-1.4,4.3-4.4v-4.5c0,0,0,0,0,0C44.1,57.2,43.6,56.7,43,56.7z"/>
	<path d="M53.5,56.6c-0.6,0.1-1,0.6-1,1.2v4.6c0,1.5-0.8,2.3-2.1,2.3s-2.1-0.8-2.1-2.4v-4.5c0,0,0,0,0,0c0-0.6-0.5-1.1-1.1-1.1
		c-0.6,0-1.1,0.5-1.1,1.1v4.6c0,2.9,1.6,4.4,4.2,4.4s4.3-1.4,4.3-4.4v-4.5c0-0.1,0-0.1,0-0.2C54.6,57,54.1,56.5,53.5,56.6z"/>
	<path d="M64.2,56.7c-0.6,0-1.1,0.5-1.1,1.1v4.6c0,1.5-0.8,2.3-2.1,2.3s-2.1-0.8-2.1-2.4v-4.5c0,0,0,0,0,0c0-0.6-0.5-1.1-1.1-1.1
		c-0.6,0-1.1,0.5-1.1,1.1v4.6c0,2.9,1.6,4.4,4.2,4.4s4.3-1.4,4.3-4.4v-4.5C65.3,57.2,64.8,56.7,64.2,56.7z"/>
</g>
</svg>
