<?xml version="1.0" encoding="utf-8"?>
<!-- Generator: Adobe Illustrator 24.0.0, SVG Export Plug-In . SVG Version: 6.00 Build 0)  -->
<svg version="1.1" id="Layer_1" xmlns="http://www.w3.org/2000/svg" xmlns:xlink="http://www.w3.org/1999/xlink" x="0px" y="0px"
	 viewBox="0 0 100 100" style="enable-background:new 0 0 100 100;" xml:space="preserve">
<g>
	<path d="M79.7,23.1c-3.1-1.7-6.3-2.2-9.5-2.6c-2.4-0.3-4.7-0.7-6.7-1.5c-2.9-1.2-5.4-3.8-7.5-7.8c-0.8-1.6-2.6-2.5-4.3-2l-4.3,1.1
		l0,0c-1.1,0.3-1.9,1-2.5,1.9c-0.5,0.9-0.7,2.1-0.4,3.1c0.1,0.5,0.3,0.9,0.6,1.3c2.5,3.7,4.8,7.6,6.9,11.5c3.1,6,4.6,11.3,4.5,16.4
		c-0.1,5.9-2.5,12.9-9.1,14.9c-4.4,1.4-8.9,0.1-13.6-1.4c-4-1.2-8.1-2.5-12.5-2.1c-6.6,0.5-11.4,5.9-12.7,14.5
		C8.3,71.7,8.3,76,8.6,80c0.5,8.4,1.6,9.7,2.1,10.2c0.5,0.6,1.2,0.9,1.9,0.9l6.1,0c1,0,1.9-0.4,2.6-1.2s1-1.7,1-2.6
		c0-0.3-0.1-0.6-0.1-0.9c-1.1-3.8-2.1-8.2-1.4-12c0.4-1.9,1.5-3.3,2.3-3.5c0.4-0.1,1,0.1,1.6,0.7c1.8,1.8,3.3,3.9,5,6
		c2.1,2.8,4.2,5.7,7,8c5,4.2,10.9,6.3,17.2,6.3c3.6,0,7.4-0.7,11.3-2.1c13.5-5,24.5-17.7,26.8-30.9C93.9,46.2,91,29.5,79.7,23.1z
		 M87.8,58.3c-2,11.6-12.2,23.3-24.2,27.8c-9.1,3.4-17.8,2.1-24.5-3.5c-2.4-2-4.3-4.6-6.3-7.3c-1.6-2.2-3.3-4.5-5.4-6.5
		c-1.5-1.5-3-1.9-4.1-1.9c-0.6,0-1,0.1-1.4,0.2c-2.9,0.9-4.5,4.1-5,6.6c-0.9,4.5,0.2,9.3,1.3,13.5h-4.6c-0.7-2.6-1.7-12.5-1.1-16.2
		c0.4-2.5,2.2-10.6,9.1-11.2c3.6-0.3,7.2,0.8,11,2c5.1,1.6,10.4,3.2,16,1.4c8.6-2.7,11.8-11.4,11.9-18.7c0.1-5.7-1.5-11.7-4.9-18.3
		c-2.1-4.1-4.5-8.1-7.2-12c0,0,0-0.1,0.1-0.1l4.1-1c2.5,4.9,5.7,8.1,9.5,9.6c2.6,1,5.2,1.4,7.7,1.7c2.9,0.4,5.7,0.8,8.1,2.1
		C84.4,30.4,90.5,42,87.8,58.3z"/>
	<path d="M46,68.8c0,0-0.1,0-0.1,0c-1.5,0.1-2.6,1.3-2.5,2.8c0,0.1,0,0.1,0,0.2c0.1,1.5,1.3,2.6,2.8,2.6c0.7,0,1.3-0.2,1.9-0.7
		c0.1-0.1,0.2-0.3,0.2-0.5c0,0,0,0,0,0c0-0.3-0.3-0.6-0.6-0.6c-0.1,0-0.3,0-0.4,0.1c-0.3,0.2-0.7,0.4-1.1,0.3c-0.6,0-1.2-0.4-1.3-1
		h3c0,0,0,0,0.1,0c0.4,0,0.7-0.3,0.6-0.7c0,0,0-0.1,0-0.1C48.6,69.8,47.4,68.7,46,68.8z M44.8,71.1c0-0.6,0.5-1.1,1.2-1.1
		c0.6,0,1.2,0.5,1.2,1.1L44.8,71.1z"/>
	<path d="M56.1,68.8c-0.7,0-1.3,0.3-1.8,0.8c-0.3-0.6-0.9-0.9-1.5-0.8c-0.6,0-1.2,0.3-1.6,0.9v-0.1c0-0.4-0.3-0.8-0.8-0.8
		s-0.8,0.3-0.8,0.8v4c0,0.4,0.3,0.8,0.8,0.8s0.8-0.3,0.8-0.8v-2.3c0-0.7,0.3-1.1,0.9-1.1s0.9,0.4,0.9,1.1v2.3c0,0.4,0.3,0.8,0.8,0.8
		s0.8-0.3,0.8-0.8v-2.3c0-0.7,0.4-1.1,0.9-1.1c0.6,0,0.9,0.4,0.9,1.1v2.3c0,0.4,0.3,0.8,0.8,0.8s0.8-0.3,0.8-0.8v-2.8
		C57.9,69.4,57.3,68.8,56.1,68.8z"/>
	<path d="M62.5,68.8c-0.7,0-1.3,0.3-1.7,0.9v-0.1c0-0.4-0.3-0.8-0.8-0.8s-0.8,0.3-0.8,0.8v5.5c0,0.4,0.3,0.8,0.8,0.8
		s0.8-0.3,0.8-0.8v-1.6c0.4,0.5,1,0.8,1.7,0.8c0.1,0,0.1,0,0.2,0c1.4-0.1,2.4-1.4,2.2-2.7c0-0.1,0-0.1,0-0.2
		C64.9,70,63.8,68.8,62.5,68.8z M63.4,71.8C63.3,72.5,62.7,73,62,73c-0.7-0.1-1.3-0.7-1.2-1.4c0-0.1,0-0.3,0-0.4
		c0.1-0.7,0.8-1.2,1.5-1.1c0.7,0.1,1.2,0.8,1.1,1.5C63.4,71.6,63.4,71.7,63.4,71.8z"/>
	<path d="M68.5,70.2c0.4,0,0.6-0.3,0.6-0.6c0-0.4-0.3-0.7-0.6-0.7h-0.7v-0.7c0,0,0,0,0,0c0-0.4-0.3-0.8-0.8-0.8
		c-0.4,0-0.8,0.3-0.8,0.8v0.7h0c-0.4,0-0.7,0.3-0.7,0.7c0,0.4,0.3,0.6,0.7,0.6h0v2.5c0,1.2,0.6,1.6,1.6,1.6c0.3,0,0.6,0,0.9-0.2
		c0.2-0.1,0.4-0.3,0.4-0.6c0-0.3-0.3-0.6-0.6-0.6h-0.2c-0.3,0-0.5-0.2-0.5-0.5v-2.3H68.5z"/>
	<path d="M74.2,68.8c-0.3,0-0.6,0.2-0.7,0.6l-1.1,3.1l-1.2-3.1c-0.1-0.3-0.4-0.6-0.7-0.6c0,0,0,0,0,0c-0.4,0-0.7,0.3-0.7,0.7
		c0,0.1,0,0.2,0.1,0.3l1.8,4.2v0.1c-0.1,0.2-0.3,0.4-0.5,0.3c-0.1,0-0.2,0-0.3-0.1c-0.1,0-0.2,0-0.2,0c0,0,0,0,0,0
		c-0.3,0-0.6,0.3-0.6,0.6c0,0.3,0.2,0.5,0.5,0.6c0.3,0.1,0.5,0.1,0.8,0.1c0.9,0,1.4-0.4,1.8-1.5l1.9-4.5c0-0.1,0.1-0.2,0.1-0.4
		c0,0,0,0,0,0C75,69.1,74.6,68.8,74.2,68.8z"/>
</g>
</svg>
