<?xml version="1.0" encoding="utf-8"?>
<!-- Generator: Adobe Illustrator 24.0.0, SVG Export Plug-In . SVG Version: 6.00 Build 0)  -->
<svg version="1.1" id="Layer_1" xmlns="http://www.w3.org/2000/svg" xmlns:xlink="http://www.w3.org/1999/xlink" x="0px" y="0px"
	 viewBox="0 0 100 100" style="enable-background:new 0 0 100 100;" xml:space="preserve">
<g>
	<path d="M30.1,37.8C30.1,37.8,30.1,37.8,30.1,37.8l-7.3,0l-0.4,0l0-2.3l2.8,0c1.3,0,2.4-1.1,2.4-2.4l0-7.3l-14,0l0,7.3
		c0,1.3,1.1,2.4,2.4,2.4c0,0,0,0,0,0l2.3,0l0,2.3l-6.4,0l0,0.1l-0.8,0c-1.1,0-2,0.9-2,2c0,1.1,0.9,2,2,2c0,0,0,0,0,0l0.7,0l0,5.7
		c0,0,0,0,0,0.1c0,0,0,0,0,0.1l-0.1,19.9c0,0.7,0.3,1.3,0.7,1.8c0.3,0.3,0.7,0.5,1.2,0.7l1.1,3.9c0.3,1.1,1.3,1.8,2.4,1.8h1l0.2,9.5
		c0,1.1,0.9,2,2,2c0,0,0,0,0,0c1.1,0,2-0.9,2-2l-0.2-9.4h1c0,0,0,0,0,0c1.1,0,2.1-0.7,2.4-1.8l1.1-3.8c1.2-0.2,2.1-1.2,2.1-2.4
		l0.1-25.9l1,0c1.1,0,2-0.9,2-2C32.1,38.7,31.2,37.8,30.1,37.8z M17.7,29.8l5.9,0l0,1.7l-5.9,0L17.7,29.8z M18.5,41.8l0,3.8l-2.5,0
		l0-3.8L18.5,41.8z M25,66.1l-9.1,0L16,49.6l9.1,0L25,66.1z M22.2,71.7h-3.8l-0.5-1.6l4.7,0L22.2,71.7z M25.1,41.8l0,3.8l-2.6,0
		l0-3.8l0.4,0L25.1,41.8z"/>
	<path d="M19.6,60.7c-0.7,0.5-0.9,1.5-0.4,2.2c0.5,0.7,1.5,0.8,2.2,0.3s0.9-1.5,0.4-2.2C21.3,60.3,20.3,60.2,19.6,60.7z"/>
	<path d="M21.6,54.3c0.7-0.5,0.9-1.5,0.4-2.2c-0.5-0.7-1.5-0.8-2.2-0.3s-0.9,1.5-0.4,2.2C19.9,54.7,20.9,54.9,21.6,54.3z"/>
	<path d="M21.3,58.6c0.7-0.5,0.9-1.5,0.4-2.2c-0.5-0.7-1.5-0.8-2.2-0.3c-0.7,0.5-0.9,1.5-0.4,2.2C19.6,59,20.6,59.1,21.3,58.6z"/>
	<path d="M84.9,53.5c-0.5-0.1-1-0.2-1.5-0.1h-0.9c-1.5-2.1-3.7-3.5-6.2-4c-0.8-2-2.1-3.7-4-4.9c-2.2-1.4-4.9-1.9-7.5-1.3
		c-0.5,0.1-0.9,0.2-1.4,0.4c-3.2-3.5-8.6-4.3-12.7-1.6c-2.2,1.4-3.8,3.6-4.3,6.2c-2.9,0.7-5.3,2.6-6.6,5.3h-1.1
		c-3.5-0.1-6.4,2.7-6.5,6.2c0,0.5,0,1,0.1,1.5c1.9,8.3,8,15.1,16,18.6v0.6c0,3.6,2.9,6.5,6.5,6.5h12.6c3.6,0,6.5-2.9,6.5-6.5v-0.7
		c8-3.6,14-10.3,15.9-18.6C90.5,57.6,88.3,54.2,84.9,53.5z M48.3,51.8l1.8-0.1l0.1-1.8c0.1-1.9,1.1-3.6,2.8-4.7
		c2.8-1.8,6.5-1,8.3,1.8l1,1.6l1.7-1c0.6-0.3,1.2-0.6,1.8-0.7c3.2-0.7,6.4,1.3,7.1,4.6l0.3,1.5l1.5,0.1c0.4,0,0.7,0.1,1.1,0.2
		l-31.1,0C45.7,52.5,46.9,51.9,48.3,51.8z M67.4,82.7H54.8c-1.1,0-2-0.7-2.3-1.6c2.7,0.8,5.6,1.2,8.5,1.2c3,0,6-0.4,8.7-1.2
		C69.4,82.1,68.5,82.7,67.4,82.7z M85.2,60C82.9,70.2,72.7,77.7,61,77.7c-11.7,0-21.8-7.4-24.1-17.7c0-0.1,0-0.3,0-0.4
		c0-0.9,0.8-1.6,1.7-1.6c0,0,0,0,0,0l44.9,0c0.1,0,0.3,0,0.4,0c0.4,0.1,0.8,0.4,1,0.7C85.2,59.1,85.3,59.6,85.2,60z"/>
</g>
</svg>
