<svg id="Layer_1" data-name="Layer 1" xmlns="http://www.w3.org/2000/svg" viewBox="0 0 100 100"><defs><style>.cls-1,.cls-2,.cls-6,.cls-7,.cls-8,.cls-9{fill:none;stroke:#000;stroke-miterlimit:10;}.cls-1{stroke-width:4px;}.cls-2{stroke-width:3px;}.cls-3{font-size:12px;}.cls-3,.cls-5{font-family:GothamRounded-Bold, Gotham Rounded;font-weight:700;}.cls-4{letter-spacing:2.08em;}.cls-5{font-size:8px;letter-spacing:-0.05em;}.cls-6,.cls-7{stroke-width:3.74px;}.cls-7,.cls-8{stroke-linecap:round;}.cls-8{stroke-width:2.8px;}.cls-9{stroke-width:2.82px;}</style></defs><circle class="cls-1" cx="23.77" cy="23.77" r="13.77"/><path d="M15.6,12.68a13.94,13.94,0,0,0-2.92,2.92L31.93,34.85a13.48,13.48,0,0,0,2.92-2.92Z"/><circle class="cls-2" cx="76.9" cy="23.77" r="13.77"/><text class="cls-3" transform="translate(73.38 23.89)">2<tspan class="cls-4" x="7.48" y="0">	</tspan></text><text class="cls-5" transform="translate(71.41 30.86)">hrs</text><path class="cls-6" d="M68.29,56.78l.85-.38a2.58,2.58,0,0,0,.71-4.23l-.76-.71a9,9,0,0,1-2.51-4.23C64.38,39,57.7,33,49.81,33c-9.7,0-17.56,9-17.56,20.15,0,7.65,3.72,14.81,9.2,18.54h0a8.11,8.11,0,0,0,5,7.78,8.49,8.49,0,0,0,11.84-7.78v-.13a22,22,0,0,0,8.38-12.89A2.81,2.81,0,0,1,68.29,56.78Z"/><path class="cls-7" d="M18.54,88.74s.72-6.52,4.7-9,18.12-6,18.12-6"/><path class="cls-7" d="M81.08,88.74s-.73-6.52-4.71-9-18.11-6-18.11-6"/><path d="M43.63,51.36a4.44,4.44,0,0,1,4.25-4.61h0a2.08,2.08,0,0,0,2-1.25C50.47,44,51.71,42,54,41.93c4.59-.1,10.69,0,10.69,0-3.58-5.51-11.53-9-14.88-9-9.7,0-17.56,9-17.56,20.15a24.07,24.07,0,0,0,2.56,10.77s2.94-.38,6.44-3.53A9,9,0,0,0,44,53.27,4.83,4.83,0,0,1,43.63,51.36Z"/><path class="cls-8" d="M74.44,38.5V62.13A4.44,4.44,0,0,1,72.12,66a3.88,3.88,0,0,1-3.93-.25L56.43,58.1a3.87,3.87,0,0,0-3.53-.42A4.62,4.62,0,0,0,50,61.94v26.8"/><rect class="cls-9" x="72.17" y="41.93" width="4.6" height="7.54" rx="1.85"/></svg>