<svg id="Layer_1" data-name="Layer 1" xmlns="http://www.w3.org/2000/svg" viewBox="0 0 100 100"><defs><style>.cls-1,.cls-2,.cls-3,.cls-4{fill:none;}.cls-2,.cls-3,.cls-4{stroke:#000;stroke-miterlimit:10;}.cls-2{stroke-linecap:round;}.cls-2,.cls-3{stroke-width:4px;}.cls-4{stroke-width:4.66px;}</style></defs><path d="M89.07,23.06l-1.85-4.39h0V13.12a2.57,2.57,0,0,0-2.57-2.57H65.93a2.57,2.57,0,0,0-2.57,2.57v5.55l-1.71,4.49a7.29,7.29,0,0,0-.49,2.62v22a2.52,2.52,0,0,0,2.53,2.52H87.11a2.52,2.52,0,0,0,2.53-2.52V25.9A7.5,7.5,0,0,0,89.07,23.06ZM86,41.71a2.52,2.52,0,0,1-2.52,2.53H67.28a2.52,2.52,0,0,1-2.52-2.53V29.44a2.52,2.52,0,0,1,2.52-2.53H83.52A2.52,2.52,0,0,1,86,29.44Z"/><g id="_254" data-name="254"><rect class="cls-1" x="10.78" y="10.9" width="80" height="80"/><path class="cls-2" d="M62,56.56a8.76,8.76,0,0,0-7.49-4.84A8.78,8.78,0,0,0,41.36,46a8.78,8.78,0,0,0-16.23,4.19,8.79,8.79,0,0,0-7.84,6.37Z"/><path class="cls-3" d="M27.51,81.29v2.46a5,5,0,0,0,5,5H46.35a5,5,0,0,0,5-5V81.24"/><path class="cls-4" d="M39.35,83.51c14.38,0,26.38-9.23,29.12-21.5a4.44,4.44,0,0,0-4.37-5.35H14.61A4.44,4.44,0,0,0,10.23,62C13,74.28,25,83.51,39.35,83.51Z"/></g><rect x="68.44" y="33.45" width="14.07" height="5.19" transform="translate(39.34 111.48) rotate(-89.94)"/><rect x="72.88" y="29.01" width="5.19" height="14.07" transform="translate(39.33 111.47) rotate(-89.92)"/></svg>