<svg id="Layer_1" data-name="Layer 1" xmlns="http://www.w3.org/2000/svg" viewBox="0 0 100 100"><defs><style>.cls-1,.cls-4,.cls-5,.cls-6,.cls-7{fill:none;}.cls-1,.cls-5,.cls-6,.cls-7{stroke:#000;stroke-miterlimit:10;}.cls-1{stroke-width:3px;}.cls-2{font-size:12px;}.cls-2,.cls-3{font-family:GothamRounded-Bold, Gotham Rounded;font-weight:700;}.cls-3{font-size:8px;letter-spacing:-0.05em;}.cls-5{stroke-linecap:round;}.cls-5,.cls-6{stroke-width:4px;}.cls-7{stroke-width:4.66px;}</style></defs><circle class="cls-1" cx="75.84" cy="24.75" r="13.77"/><text class="cls-2" transform="translate(73.32 24.87)">1</text><text class="cls-3" transform="translate(70.35 31.84)">hrs</text><path d="M38.62,23.24l-1.84-4.39h0V13.3a2.58,2.58,0,0,0-2.58-2.57H15.48a2.57,2.57,0,0,0-2.57,2.57v5.55L11.2,23.34A7.32,7.32,0,0,0,10.72,26V48a2.52,2.52,0,0,0,2.52,2.52H36.67A2.52,2.52,0,0,0,39.19,48V26.08A7.31,7.31,0,0,0,38.62,23.24Zm-3,18.65a2.53,2.53,0,0,1-2.53,2.53H16.84a2.53,2.53,0,0,1-2.53-2.53V29.62a2.53,2.53,0,0,1,2.53-2.53H33.07a2.53,2.53,0,0,1,2.53,2.53Z"/><g id="_254" data-name="254"><rect class="cls-4" x="10.62" y="11.08" width="80" height="80"/><path class="cls-5" d="M81.72,56.74a8.79,8.79,0,0,0-7.49-4.84,8.79,8.79,0,0,0-13.15-5.72,8.77,8.77,0,0,0-16.22,4.19A8.8,8.8,0,0,0,37,56.74Z"/><path class="cls-6" d="M47.24,81.47v2.46a5,5,0,0,0,5,5H66.08a5,5,0,0,0,5-5v-2.5"/><path class="cls-7" d="M59.08,83.69c14.38,0,26.38-9.23,29.12-21.49a4.44,4.44,0,0,0-4.37-5.36H34.33A4.44,4.44,0,0,0,30,62.2C32.7,74.46,44.7,83.69,59.08,83.69Z"/></g><rect x="17.82" y="33.36" width="14.07" height="5.19" transform="translate(-11.13 60.78) rotate(-89.94)"/><rect x="22.26" y="28.92" width="5.19" height="14.07" transform="translate(-11.14 60.77) rotate(-89.92)"/></svg>