<svg id="Layer_1" data-name="Layer 1" xmlns="http://www.w3.org/2000/svg" viewBox="0 0 100 100"><defs><style>.cls-1{fill:#fff;}.cls-2{fill:#2c2628;}.cls-3,.cls-4,.cls-5,.cls-6{fill:none;}.cls-4,.cls-5,.cls-6{stroke:#000;stroke-miterlimit:10;}.cls-4{stroke-linecap:round;}.cls-4,.cls-5{stroke-width:4px;}.cls-6{stroke-width:3px;}.cls-7{font-size:12px;}.cls-7,.cls-8{font-family:GothamRounded-Bold, Gotham Rounded;font-weight:700;}.cls-8{font-size:8px;letter-spacing:-0.05em;}</style></defs><path class="cls-1" d="M34.64,86.82H28.77V80h5.87A3.06,3.06,0,0,1,37.7,83v.75A3.06,3.06,0,0,1,34.64,86.82Z"/><path d="M36.17,83.76a2,2,0,0,1-2,2v2a4.08,4.08,0,0,0,4.08-4.08Zm0-.75v.75h2V83Zm-2-2a2,2,0,0,1,2,2h2a4.08,4.08,0,0,0-4.08-4.07Zm-5.87,0h5.87v-2H28.26Zm1,5.84V80h-2v6.86Zm4.85-1H28.26v2h5.87ZM28.26,80v-1h-1v1Zm0,6.86h-1v1h1Z"/><path d="M32.11,88.55H18.54V78.2H32.11a3.06,3.06,0,0,1,3.06,3.06v4.23A3.06,3.06,0,0,1,32.11,88.55Z"/><path d="M34.15,85.49a2,2,0,0,1-2,2v2a4.08,4.08,0,0,0,4.08-4.08Zm0-4.23v4.23h2V81.26Zm-2-2a2,2,0,0,1,2,2h2a4.08,4.08,0,0,0-4.08-4.08Zm-13.57,0H32.11v-2H18.54Zm1,9.33V78.2h-2V88.55Zm12.56-1H18.54v2H32.11Zm3.06-2h0ZM18.54,78.2v-1h-1v1Zm0,10.35h-1v1h1Z"/><polygon class="cls-2" points="17.82 49.42 17.82 49.42 17.82 50.55 17.82 49.42"/><path d="M24.89,67.08l-.55-13.43h0a4.42,4.42,0,0,0-4.42-4.24v0h-2.1v0A4.41,4.41,0,0,0,13.42,54l1.09,0h0l-1.09,0h0l.49,12.29,1.14,0-.11,1.14,8.69.87.12-1.14h0l-.12,1.14,1.31.13Zm-2.33-1.22-6.41-.64-.37-9.1,6.38,0ZM17.83,51.69h2.09a2.15,2.15,0,0,1,2.15,2.06l1.14,0h0l-1.11,0h0v.08H15.7A2.14,2.14,0,0,1,17.83,51.69Z"/><polygon class="cls-2" points="13.91 66.3 13.95 67.29 14.94 67.39 15.05 66.25 13.91 66.3"/><path d="M27.09,88.61H16.44a2.94,2.94,0,0,1-2.93-2.76l-1.42-24a2.94,2.94,0,0,1,4.72-2.51L24.1,65A2.94,2.94,0,0,1,25.24,67Z"/><path d="M24.23,67.12,26.07,88.7l2-.17L26.26,67Zm-.75-1.36a1.93,1.93,0,0,1,.75,1.36l2-.17a4,4,0,0,0-1.54-2.81Zm-7.29-5.57,7.29,5.57,1.24-1.62-7.29-5.57Zm-3.08,1.64a1.92,1.92,0,0,1,3.08-1.64l1.24-1.62A4,4,0,0,0,11.08,62Zm1.42,24-1.42-24-2,.12,1.41,24Zm1.91,1.81a1.92,1.92,0,0,1-1.91-1.81l-2,.12a4,4,0,0,0,4,3.72Zm10.65,0H16.44v2H27.09ZM25.24,67l1-.08h0ZM24.1,65l.62-.81h0Zm-7.29-5.57.62-.81h0Zm-4.72,2.51-1,.06h0Zm1.42,24-1,.06h0Zm13.58,2.76v1H28.2l-.1-1.1Z"/><path d="M41.44,84.58h3.79v-2H41.44Zm3.79,0a1,1,0,1,0,0-2Zm-3.79-2a1,1,0,1,0,0,2Z"/><path d="M39.65,87.41l3.28,1.9,1-1.77-3.28-1.89Zm3.28,1.9a1,1,0,1,0,1-1.77Zm-2.26-3.66a1,1,0,0,0-1,1.76Z"/><path d="M40.67,81.48,44,79.59l-1-1.77-3.28,1.9ZM44,79.59a1,1,0,1,0-1-1.77Zm-4.3.13a1,1,0,0,0,1,1.76Z"/><g id="_254" data-name="254"><rect class="cls-3" x="40.7" y="37.8" width="51.81" height="51.81"/><path class="cls-4" d="M85.19,63a6.88,6.88,0,0,0-5.87-3.79A6.89,6.89,0,0,0,69,54.72,6.88,6.88,0,0,0,56.3,58a6.91,6.91,0,0,0-6.14,5Z"/><path class="cls-5" d="M58.17,82.38v1.93a3.89,3.89,0,0,0,3.89,3.88H72.93a3.89,3.89,0,0,0,3.89-3.88v-2"/><path class="cls-5" d="M67.45,84.12c11.27,0,20.67-7.23,22.82-16.84a3.49,3.49,0,0,0-3.43-4.2H48.06a3.48,3.48,0,0,0-3.43,4.2C46.78,76.89,56.18,84.12,67.45,84.12Z"/></g><circle class="cls-6" cx="76.88" cy="24.05" r="13.77"/><text class="cls-7" transform="translate(70.24 24.17)">10</text><text class="cls-8" transform="translate(68.25 31.14)">mins</text></svg>