<?xml version="1.0" encoding="utf-8"?>
<!-- Generator: Adobe Illustrator 24.0.0, SVG Export Plug-In . SVG Version: 6.00 Build 0)  -->
<svg version="1.1" id="Layer_1" xmlns="http://www.w3.org/2000/svg" xmlns:xlink="http://www.w3.org/1999/xlink" x="0px" y="0px"
	 viewBox="0 0 100 100" style="enable-background:new 0 0 100 100;" xml:space="preserve">
<g>
	<path d="M40.2,48.8v-0.6c6.2-2.9,10.9-8.3,12.4-14.8c0.3-1.4,0-2.8-0.7-3.9c-0.8-1.2-1.9-2-3.3-2.3c-0.4-0.1-0.7-0.1-1.1-0.1h-1
		c-1.2-1.6-2.9-2.6-4.8-3c-0.6-1.6-1.7-3-3.1-3.9c-1.8-1.1-3.9-1.5-5.9-1.1c-0.4,0.1-0.8,0.2-1.2,0.4c-2.5-2.8-6.7-3.5-10-1.4
		c-1.8,1.1-3.1,3-3.6,5.1c-2.2,0.5-4.1,2-5.2,4h-1.1c-2.9,0-5.2,2.3-5.3,5.2c0,0.4,0,0.7,0.1,1.1c1.5,6.6,6.3,12,12.5,14.9v0.5
		c0,3.1,2.5,5.6,5.6,5.6h10C37.7,54.4,40.2,51.9,40.2,48.8z M34.6,50.4h-2c1.1-0.1,2.1-0.3,3.2-0.6C35.6,50.2,35.1,50.4,34.6,50.4z
		 M19.3,25.9l1.3-0.1l0.1-1.3c0.1-1.6,0.9-3.1,2.3-3.9c2.3-1.4,5.3-0.7,6.7,1.6l0.8,1.3l1.3-0.8c0.5-0.3,1-0.5,1.5-0.6
		c1.3-0.3,2.6,0,3.7,0.7c1.1,0.7,1.8,1.8,2.1,3.1l0.2,1.1l1.2,0.1c0.3,0,0.6,0.1,0.9,0.1H16.5C17.3,26.4,18.3,26,19.3,25.9z
		 M10.4,32.6c0-0.1,0-0.2,0-0.3c0-0.7,0.6-1.2,1.2-1.2c0,0,0,0,0,0h35.9c0.1,0,0.2,0,0.3,0c0.3,0.1,0.6,0.3,0.8,0.5
		c0.2,0.3,0.2,0.6,0.2,0.9c-1.8,8.1-9.9,14-19.2,14C20.3,46.6,12.2,40.7,10.4,32.6z M23.4,49.9c1,0.2,2,0.4,3,0.5h-1.8
		C24.1,50.4,23.7,50.2,23.4,49.9z"/>
	<path d="M80.6,34.9c-2.4-1.3-4.9-1.7-7.3-2c-1.8-0.2-3.4-0.5-4.9-1.1c-2.1-0.8-3.9-2.7-5.4-5.7c-0.7-1.4-2.2-2.1-3.8-1.7l-3.4,0.9
		c-1.9,0.5-3,2.5-2.5,4.4c0.1,0.4,0.3,0.8,0.5,1.1c1.9,2.8,3.6,5.7,5.2,8.7c2.1,3.7,3.2,7.8,3.3,12c-0.1,4.3-1.8,9.3-6.5,10.8
		c-3.2,1-6.5,0-9.9-1.1c-3-0.9-6.2-1.9-9.6-1.6c-5.2,0.4-8.9,4.6-10,11.3c-0.2,1.2-0.1,4.7,0,7.4c0.4,6.5,1.3,7.5,1.7,8
		c0.5,0.6,1.1,0.9,1.8,0.9l4.6,0c0.9,0,1.7-0.4,2.3-1c0.6-0.6,0.9-1.5,0.9-2.3c0-0.3-0.1-0.6-0.1-0.8c-0.8-2.8-1.6-6-1-8.8
		c0.3-1.3,1-2.2,1.4-2.3c0.1,0,0.4,0.1,0.7,0.4c1.3,1.3,2.5,2.9,3.7,4.5c1.6,2.1,3.2,4.3,5.3,6.1c3.8,3.2,8.4,4.8,13.3,4.8
		c2.8,0,5.7-0.5,8.6-1.6c10.3-3.8,18.7-13.5,20.4-23.6C91.6,52.6,89.4,39.8,80.6,34.9z M86,61.7c-1.4,8.6-9,17.2-17.9,20.5
		c-6.7,2.5-13,1.6-18-2.5c-1.8-1.5-3.2-3.4-4.7-5.4c-1.2-1.7-2.5-3.4-4.1-4.9c-1.3-1.3-2.5-1.6-3.5-1.6c-0.5,0-0.9,0.1-1.2,0.2
		c-2.4,0.7-3.7,3.3-4.1,5.3c-0.7,3.3,0,6.7,0.8,9.8H31c-0.6-2.6-0.9-10.1-0.7-11.6c0.4-2.3,1.7-7.6,6.4-8c2.6-0.2,5.3,0.6,8.1,1.5
		c3.9,1.2,7.9,2.4,12.3,1c6.7-2.1,9.2-8.9,9.3-14.6c-0.1-4.9-1.4-9.7-3.8-13.9c-1.5-2.9-3.2-5.8-5.1-8.5l2.1-0.5
		c1.9,3.6,4.3,6,7.2,7.1c2,0.8,4,1.1,5.9,1.3c2.1,0.3,4.2,0.6,5.9,1.5C86.2,42.6,87.2,54.7,86,61.7z"/>
	<path d="M49.5,68.5C49.5,68.5,49.5,68.5,49.5,68.5c-1.6,0.1-2.7,1.3-2.6,2.8c0,0.1,0,0.1,0,0.2c0.1,1.5,1.3,2.6,2.8,2.6
		c0.7,0,1.4-0.2,1.9-0.7c0.1-0.1,0.2-0.3,0.2-0.5c0,0,0,0,0,0c0-0.3-0.3-0.6-0.6-0.6c-0.1,0-0.3,0-0.4,0.1c-0.3,0.2-0.7,0.4-1.1,0.4
		c-0.6,0-1.2-0.4-1.3-1h3c0,0,0,0,0.1,0c0.4,0,0.7-0.3,0.6-0.7c0,0,0-0.1,0-0.1C52.1,69.6,50.9,68.5,49.5,68.5z M48.4,70.8
		c0-0.6,0.5-1.1,1.2-1.1c0.6,0,1.1,0.5,1.1,1.1H48.4z"/>
	<path d="M59.7,68.4c-0.7,0-1.3,0.3-1.8,0.8c-0.3-0.6-0.9-0.9-1.5-0.8c-0.6,0-1.2,0.3-1.6,0.8c0-0.4-0.3-0.8-0.8-0.8
		s-0.8,0.3-0.8,0.8v4c0,0.4,0.3,0.8,0.8,0.8s0.8-0.3,0.8-0.8v-2.3c0-0.7,0.4-1.1,0.9-1.1c0.6,0,0.9,0.4,0.9,1.1v2.3
		c0,0.4,0.3,0.8,0.8,0.8s0.8-0.3,0.8-0.8v-2.3c0-0.7,0.3-1.1,0.9-1.1s0.9,0.4,0.9,1.1v2.3c0,0.4,0.3,0.8,0.8,0.8s0.8-0.3,0.8-0.8
		v-2.8c0-0.1,0-0.3,0-0.4C61.4,69.1,60.6,68.4,59.7,68.4z"/>
	<path d="M66,68.5c-0.7,0-1.3,0.3-1.7,0.9v-0.1c0,0,0,0,0,0c0-0.4-0.3-0.8-0.8-0.8c-0.4,0-0.8,0.3-0.8,0.8l0,5.5
		c0,0.4,0.3,0.8,0.8,0.8s0.8-0.3,0.8-0.8v-1.6c0.4,0.5,1,0.8,1.7,0.8c0.1,0,0.1,0,0.2,0c1.4-0.1,2.4-1.4,2.2-2.7c0-0.1,0-0.1,0-0.2
		C68.5,69.7,67.4,68.5,66,68.5z M66.9,71.7c-0.1,0.7-0.8,1.2-1.5,1.1c-0.7-0.1-1.2-0.8-1.1-1.5c0-0.1,0-0.3,0-0.4
		c0.1-0.7,0.8-1.2,1.5-1.1c0.7,0.1,1.2,0.8,1.1,1.5C66.9,71.4,66.9,71.5,66.9,71.7z"/>
	<path d="M72,69.9c0.1,0,0.1,0,0.2,0c0.4,0,0.6-0.4,0.6-0.7s-0.4-0.6-0.7-0.6h-0.7v-0.7c0-0.4-0.3-0.8-0.8-0.8
		c-0.4,0-0.8,0.3-0.8,0.8v0.7c-0.1,0-0.1,0-0.2,0c-0.4,0-0.6,0.4-0.6,0.7c0,0.4,0.4,0.6,0.7,0.6v2.5c0,1.2,0.6,1.6,1.6,1.6
		c0.3,0,0.6,0,0.9-0.1c0.2-0.1,0.4-0.3,0.4-0.6c0-0.3-0.3-0.6-0.6-0.6h-0.2c-0.3,0-0.5-0.2-0.5-0.5v-2.3H72z"/>
	<path d="M77.9,68.5c-0.3,0-0.6,0.2-0.7,0.6L76,72.2L74.8,69c-0.1-0.3-0.4-0.6-0.7-0.6c0,0,0,0,0,0c-0.4,0-0.7,0.3-0.7,0.7
		c0,0.1,0,0.2,0.1,0.3l1.8,4.2v0.1c-0.1,0.2-0.3,0.4-0.5,0.3c-0.1,0-0.2,0-0.3-0.1c-0.1,0-0.2,0-0.2,0c0,0,0,0,0,0
		c-0.3,0-0.6,0.3-0.6,0.6c0,0.3,0.2,0.6,0.5,0.6c0.3,0.1,0.5,0.1,0.8,0.1c0.9,0,1.4-0.4,1.8-1.5l1.9-4.5c0-0.1,0.1-0.2,0.1-0.4
		c0,0,0,0,0,0C78.6,68.8,78.2,68.5,77.9,68.5z"/>
</g>
</svg>
