<svg id="Layer_1" data-name="Layer 1" xmlns="http://www.w3.org/2000/svg" viewBox="0 0 100 100"><defs><style>.cls-1{fill:none;stroke:#000;stroke-miterlimit:10;stroke-width:4px;}</style></defs><circle class="cls-1" cx="26.36" cy="25.92" r="13.77"/><path d="M18.19,14.83a14,14,0,0,0-2.92,2.93L34.52,37a14,14,0,0,0,2.92-2.93Z"/><path d="M87.37,68.56a.05.05,0,0,0,0,0V53.72a6.7,6.7,0,0,0-3-5.58L79,44.52a0,0,0,0,0-.06,0,10.16,10.16,0,0,1-4.44,1.67c-3.55.53-6.66-.54-6.93-2.38-.23-1.55,1.62-3.15,4.32-3.93,0,0,.06-.07,0-.1l-4.5-3a2.86,2.86,0,0,0-2.36-.38l-44,12.35a6.72,6.72,0,0,0-4.9,6.47V79.93a6.71,6.71,0,0,0,6.72,6.71h1.85a1.72,1.72,0,0,0,1.71-1.71,5.89,5.89,0,0,1,.11-1A5.46,5.46,0,0,1,37.36,85h0A1.64,1.64,0,0,0,39,86.64H66.54s0,0,0,0a4.93,4.93,0,0,1,9.5,0,.06.06,0,0,0,.06,0h4.54a6.71,6.71,0,0,0,6.72-6.71v-.52s0,0,0,0a5.57,5.57,0,0,1,0-10.8Zm-60.93,5a3.43,3.43,0,1,1,3.43-3.43A3.43,3.43,0,0,1,26.44,73.59Zm4.19-12.8A2.79,2.79,0,1,1,33.42,58,2.79,2.79,0,0,1,30.63,60.79Zm26.53-19c2.18,0,4,1,4,2.19s-1.77,2.2-4,2.2-3.94-1-3.94-2.2S55,41.82,57.16,41.82ZM44.72,68.68a3.94,3.94,0,1,1,3.94-3.94A3.94,3.94,0,0,1,44.72,68.68Zm9.93,10.85a3.23,3.23,0,1,1,3.24-3.23A3.23,3.23,0,0,1,54.65,79.53Zm10-13.29a5.19,5.19,0,1,1,5.19-5.19A5.19,5.19,0,0,1,64.67,66.24Zm7.87,11.34a4,4,0,1,1,4-4A4,4,0,0,1,72.54,77.58Z"/></svg>