<svg id="Layer_1" data-name="Layer 1" xmlns="http://www.w3.org/2000/svg" viewBox="0 0 100 100"><defs><style>.cls-1,.cls-3{fill:none;}.cls-1,.cls-2,.cls-3{stroke:#000;stroke-miterlimit:10;stroke-width:4px;}.cls-1,.cls-2{stroke-linecap:round;}</style></defs><path class="cls-1" d="M38.92,27.18H56a2,2,0,0,1,2,2v7.94h-24"/><path class="cls-1" d="M29.92,38.37l-5.84,8.51A6,6,0,0,0,23,50.28v33a6,6,0,0,0,6,6H48.94V48.41l6.25-7.82a2.14,2.14,0,0,0-1.67-3.47H32.46"/><rect class="cls-2" x="28.37" y="60.29" width="15.26" height="11.76" rx="2.55"/><path class="cls-1" d="M66.38,50.4a6,6,0,0,0-1.19-3.58L58,37.12l-9,11.29V89.24H60.38a6,6,0,0,0,6-6"/><rect class="cls-1" x="66.71" y="31.07" width="16.8" height="7.42" rx="3.71"/><path d="M65,84.65a2.81,2.81,0,0,0,2.8,2.8H82.17a2.8,2.8,0,0,0,2.8-2.8V82.88s0,0-.07,0-.24.1-.37.15l-.28.1-.39.11-.28.07-.46.07-.23,0c-.24,0-.48,0-.72,0H67.76c-.24,0-.48,0-.72,0l-.23,0-.46-.07-.27-.07-.4-.11-.28-.1a3.88,3.88,0,0,1-.36-.15s-.06,0-.08,0Z"/><path d="M84.9,82.91s0,0,.07,0v1.77a2.8,2.8,0,0,1-2.8,2.8H67.76a2.81,2.81,0,0,1-2.8-2.8V82.88s.05,0,.08,0A6.79,6.79,0,0,1,61,76.69v8a6.81,6.81,0,0,0,6.8,6.8H82.17a6.81,6.81,0,0,0,6.8-6.8v-8A6.8,6.8,0,0,1,84.9,82.91Z"/><path d="M82.89,83.45l.23,0Z"/><path d="M65.4,83.06l.28.1Z"/><path d="M83.58,83.34l.28-.07Z"/><path d="M84.25,83.16l.28-.1Z"/><path d="M66.08,83.27l.27.07Z"/><path d="M66.81,83.41l.23,0Z"/><path d="M65.68,59.86l.4-.11.27-.07.46-.08.23,0a5.79,5.79,0,0,1,.72,0H82.17a5.79,5.79,0,0,1,.72,0l.23,0,.46.08.28.07.39.11.28.1.37.14.07,0v-4.5a2.75,2.75,0,0,0-.19-1L79.19,40.34H70.74L65.15,54.61a3,3,0,0,0-.19,1v4.5l.08,0L65.4,60Z"/><path d="M88.51,53.15,81.92,36.34H68L61.43,53.15A6.82,6.82,0,0,0,61,55.63v10.7A6.82,6.82,0,0,1,65,60.1l-.08,0v-4.5a3,3,0,0,1,.19-1l5.59-14.27h8.45l5.59,14.27a2.75,2.75,0,0,1,.19,1v4.5l-.07,0A6.83,6.83,0,0,1,89,66.33V55.63A6.81,6.81,0,0,0,88.51,53.15Z"/><path d="M83.12,59.6l-.23,0Z"/><path d="M65.68,59.86l-.28.1Z"/><path d="M83.86,59.75l-.28-.07Z"/><path d="M67,59.57l-.23,0Z"/><path d="M84.53,60l-.28-.1Z"/><path d="M66.35,59.68l-.27.07Z"/><path d="M84.9,60.1,84.53,60l-.28-.1-.39-.11-.28-.07-.46-.08-.23,0a5.79,5.79,0,0,0-.72,0H67.76a5.79,5.79,0,0,0-.72,0l-.23,0-.46.08-.27.07-.4.11-.28.1L65,60.1A6.82,6.82,0,0,0,61,66.33V76.69A6.79,6.79,0,0,0,65,82.91a3.88,3.88,0,0,0,.36.15l.28.1.4.11.27.07.46.07.23,0c.24,0,.48,0,.72,0H82.17c.24,0,.48,0,.72,0l.23,0,.46-.07.28-.07.39-.11.28-.1c.13,0,.25-.09.37-.15A6.8,6.8,0,0,0,89,76.69V66.33A6.83,6.83,0,0,0,84.9,60.1ZM85,76.69a2.8,2.8,0,0,1-2.8,2.8H67.76a2.81,2.81,0,0,1-2.8-2.8V66.33a2.81,2.81,0,0,1,2.8-2.8H82.17a2.8,2.8,0,0,1,2.8,2.8Z"/><circle class="cls-3" cx="25.28" cy="25.35" r="13.77"/><path d="M17.12,14.27a14,14,0,0,0-2.93,2.92L33.44,36.44a14,14,0,0,0,2.93-2.92Z"/></svg>