<svg id="Layer_1" data-name="Layer 1" xmlns="http://www.w3.org/2000/svg" viewBox="0 0 100 100"><defs><style>.cls-1{fill:none;stroke:#000;stroke-miterlimit:10;stroke-width:4px;}</style></defs><circle class="cls-1" cx="26.36" cy="27.31" r="13.77"/><path d="M18.19,16.22a14,14,0,0,0-2.92,2.93L34.52,38.39a13.7,13.7,0,0,0,2.92-2.92Z"/><path d="M87.37,70a.05.05,0,0,0,0,0V55.11a6.7,6.7,0,0,0-3-5.58L79,45.91a0,0,0,0,0-.06,0,10.16,10.16,0,0,1-4.44,1.67c-3.55.53-6.66-.54-6.93-2.38-.23-1.55,1.62-3.15,4.32-3.93,0,0,.06-.07,0-.1l-4.5-3a2.86,2.86,0,0,0-2.36-.38l-44,12.35a6.72,6.72,0,0,0-4.9,6.47V81.32A6.71,6.71,0,0,0,22.88,88h1.85a1.72,1.72,0,0,0,1.71-1.71,5.89,5.89,0,0,1,.11-1,5.46,5.46,0,0,1,10.81,1.07h0A1.64,1.64,0,0,0,39,88H66.54s0,0,0,0a4.93,4.93,0,0,1,9.5,0,.05.05,0,0,0,0,0h4.55a6.71,6.71,0,0,0,6.72-6.71V80.8s0,0,0,0a5.57,5.57,0,0,1,0-10.8ZM26.44,75a3.43,3.43,0,1,1,3.43-3.43A3.43,3.43,0,0,1,26.44,75Zm4.19-12.8a2.79,2.79,0,1,1,2.79-2.79A2.79,2.79,0,0,1,30.63,62.18Zm26.53-19c2.18,0,4,1,4,2.19s-1.77,2.2-4,2.2-3.94-1-3.94-2.2S55,43.21,57.16,43.21ZM44.72,70.07a3.94,3.94,0,1,1,3.94-3.94A3.94,3.94,0,0,1,44.72,70.07Zm9.93,10.85a3.23,3.23,0,1,1,3.24-3.23A3.23,3.23,0,0,1,54.65,80.92Zm10-13.29a5.19,5.19,0,1,1,5.19-5.19A5.19,5.19,0,0,1,64.67,67.63ZM72.54,79a4,4,0,1,1,4-4A4,4,0,0,1,72.54,79Z"/></svg>