<?xml version="1.0" encoding="utf-8"?>
<!-- Generator: Adobe Illustrator 24.0.0, SVG Export Plug-In . SVG Version: 6.00 Build 0)  -->
<svg version="1.1" id="Layer_1" xmlns="http://www.w3.org/2000/svg" xmlns:xlink="http://www.w3.org/1999/xlink" x="0px" y="0px"
	 viewBox="0 0 100 100" style="enable-background:new 0 0 100 100;" xml:space="preserve">
<g>
	<path d="M75.8,40c8.4,0,15.3-6.9,15.3-15.3S84.3,9.5,75.8,9.5s-15.3,6.9-15.3,15.3S67.4,40,75.8,40z M75.8,12.5
		c6.8,0,12.3,5.5,12.3,12.3S82.6,37,75.8,37s-12.3-5.5-12.3-12.3S69.1,12.5,75.8,12.5z"/>
	<path d="M74.5,18.4c0.1,0,0.2,0,0.3,0l0.6-0.2V24c0,0.5,0.4,0.9,0.9,0.9s0.9-0.4,0.9-0.9v-6.8c0-0.5-0.4-0.9-0.9-0.9h0
		c-0.3,0-0.5,0.1-0.9,0.2l-1.2,0.3c-0.4,0.1-0.6,0.4-0.6,0.8C73.7,18.1,74.1,18.4,74.5,18.4z"/>
	<path d="M71.5,31.9c0.3,0,0.6-0.3,0.6-0.6v-1.8c0-0.6,0.3-0.9,0.8-0.9s0.7,0.3,0.7,0.9v1.8c0,0.3,0.3,0.6,0.6,0.6s0.6-0.3,0.6-0.6
		v-2.2c0-1-0.5-1.6-1.5-1.6c-0.6,0-1,0.3-1.3,0.7v-1.6c0-0.3-0.3-0.6-0.6-0.6s-0.6,0.3-0.6,0.6v4.7C70.9,31.6,71.2,31.9,71.5,31.9z"
		/>
	<path d="M76.7,28.3v-0.2c0-0.3-0.3-0.6-0.6-0.6s-0.6,0.3-0.6,0.6v3.2c0,0.3,0.3,0.6,0.6,0.6s0.6-0.3,0.6-0.6v-1.1
		c0-0.9,0.3-1.3,1-1.5c0.2-0.1,0.5-0.2,0.5-0.6c0-0.3-0.2-0.6-0.6-0.6C77.2,27.5,76.9,27.9,76.7,28.3z"/>
	<path d="M80,31c-0.3,0-0.8-0.1-1.2-0.4c-0.1,0-0.2-0.1-0.2-0.1c-0.3,0-0.5,0.2-0.5,0.5c0,0.2,0.1,0.3,0.2,0.4
		c0.5,0.3,1.1,0.5,1.6,0.5c0.9,0,1.6-0.4,1.6-1.4v0c0-0.8-0.7-1.1-1.3-1.3c-0.5-0.2-0.9-0.3-0.9-0.5v0c0-0.2,0.2-0.3,0.4-0.3
		c0.3,0,0.6,0.1,0.9,0.3c0.1,0,0.1,0.1,0.2,0.1c0.3,0,0.5-0.2,0.5-0.5c0-0.2-0.1-0.4-0.3-0.5c-0.4-0.2-0.9-0.3-1.3-0.3
		c-0.9,0-1.6,0.5-1.6,1.4v0c0,0.8,0.7,1.1,1.3,1.3c0.5,0.1,0.9,0.2,0.9,0.5v0C80.5,30.9,80.3,31,80,31z"/>
	<path d="M39.2,48V26.1c0-1-0.2-1.9-0.6-2.8l-1.8-4.4v-5.5c0-1.4-1.2-2.6-2.6-2.6H15.5c-1.4,0-2.6,1.2-2.6,2.6v5.5l-1.7,4.5
		c-0.3,0.8-0.5,1.8-0.5,2.7v22c0,1.4,1.1,2.5,2.5,2.5h23.4C38.1,50.5,39.2,49.4,39.2,48z M33.1,44.4H16.8c-1.4,0-2.5-1.1-2.5-2.5
		V29.6c0-1.4,1.1-2.5,2.5-2.5h16.2c1.4,0,2.5,1.1,2.5,2.5l0,12.3C35.6,43.3,34.5,44.4,33.1,44.4z"/>
	<path d="M85.3,54.7c-0.5-0.1-0.9-0.2-1.4-0.1h-1.1c-1.6-2.3-4.1-3.9-6.9-4.4c-1.8-5-7-8-12.4-6.9c-0.6,0.1-1.2,0.3-1.7,0.5
		c-3.4-3.9-9.2-4.8-13.7-2c-2.5,1.6-4.3,4.1-4.9,7c-3.2,0.7-5.9,2.9-7.3,5.9h-1.4c-3.7,0-6.8,3.1-6.7,6.8c0,0.5,0.1,0.9,0.2,1.4
		c2,9.1,8.7,16.6,17.5,20.4v0.8c0,3.9,3.1,7,7,7h13.8c3.9,0,7-3.1,7-7v-0.9c8.7-3.9,15.4-11.3,17.4-20.4
		C91.3,59,88.9,55.4,85.3,54.7z M45,52.4l1.8-0.1l0.1-1.8c0.1-2.2,1.3-4.3,3.2-5.4c3.2-2,7.4-1,9.3,2.2l1,1.7l1.7-1
		c0.7-0.4,1.4-0.7,2.1-0.8c3.7-0.8,7.3,1.6,8,5.3l0.3,1.5l1.6,0.1c0.9,0,1.7,0.3,2.5,0.6H40.5C41.7,53.3,43.2,52.5,45,52.4z
		 M66.1,86.9H52.2c-1.4,0-2.6-1-2.9-2.3c3.1,0.9,6.4,1.4,9.7,1.4c3.4,0,6.8-0.5,9.9-1.4C68.7,85.9,67.5,86.9,66.1,86.9z M85.9,61.7
		c-2.5,11.4-13.8,19.7-26.8,19.7c-13,0-24.3-8.3-26.8-19.6c0-0.1,0-0.3,0-0.4c0-0.6,0.2-1.1,0.6-1.5c0.4-0.4,0.9-0.6,1.5-0.6h49.5
		c0,0,0,0,0,0c0.1,0,0.3,0,0.4,0C85.4,59.5,86.2,60.6,85.9,61.7z"/>
	<polygon points="27.5,28.9 22.3,28.9 22.3,33.4 17.8,33.4 17.8,38.6 22.3,38.6 22.2,43 27.4,43 27.4,38.6 31.9,38.6 31.9,33.4 
		27.4,33.4 	"/>
</g>
</svg>
