<svg id="Layer_1" data-name="Layer 1" xmlns="http://www.w3.org/2000/svg" viewBox="0 0 100 100"><defs><style>.cls-1,.cls-2{fill:none;stroke:#000;stroke-miterlimit:10;}.cls-1{stroke-width:4px;}.cls-2{stroke-width:3px;}.cls-3{font-size:12px;}.cls-3,.cls-4{font-family:GothamRounded-Bold, Gotham Rounded;font-weight:700;}.cls-4{font-size:8px;letter-spacing:-0.05em;}</style></defs><circle class="cls-1" cx="24.28" cy="25.4" r="13.77"/><path d="M16.11,14.31a13.94,13.94,0,0,0-2.92,2.92L32.44,36.48a13.48,13.48,0,0,0,2.92-2.92Z"/><circle class="cls-2" cx="75.8" cy="24.72" r="13.77"/><text class="cls-3" transform="translate(71.28 24.85)">4</text><text class="cls-4" transform="translate(70.3 31.81)">hrs</text><path d="M69.46,52.64l-2.55-6.06h0V38.94a3.55,3.55,0,0,0-3.55-3.55H37.54A3.54,3.54,0,0,0,34,38.94v7.65l-2.37,6.19A10.12,10.12,0,0,0,31,56.39V86.77a3.48,3.48,0,0,0,3.48,3.48H66.76a3.48,3.48,0,0,0,3.49-3.48V56.57A10.21,10.21,0,0,0,69.46,52.64ZM65.29,78.37a3.48,3.48,0,0,1-3.49,3.48H39.41a3.48,3.48,0,0,1-3.48-3.48V61.44A3.48,3.48,0,0,1,39.41,58H61.8a3.48,3.48,0,0,1,3.49,3.48Z"/><path d="M36.21,71.11h0c0-.81.62-1.18,1.49-1.18a2.6,2.6,0,0,1,.9.15V70c0-.44-.27-.68-.79-.68a2.45,2.45,0,0,0-.72.1.33.33,0,0,1-.15,0A.42.42,0,0,1,36.5,69a.43.43,0,0,1,.28-.4,3.09,3.09,0,0,1,1.18-.2,1.72,1.72,0,0,1,1.25.42,1.58,1.58,0,0,1,.4,1.18v1.68a.5.5,0,0,1-.51.5.47.47,0,0,1-.5-.43h0a1.44,1.44,0,0,1-1.12.47A1.14,1.14,0,0,1,36.21,71.11Zm2.41-.24v-.19a1.7,1.7,0,0,0-.67-.14c-.45,0-.73.18-.73.52h0c0,.28.24.45.58.45C38.29,71.52,38.62,71.25,38.62,70.87Z"/><path d="M40.51,69a.53.53,0,0,1,.53-.53.52.52,0,0,1,.52.53v0a1.3,1.3,0,0,1,1.08-.59,1.21,1.21,0,0,1,1.26,1.37v1.91a.52.52,0,0,1-.53.52.52.52,0,0,1-.52-.52V70.11c0-.5-.23-.75-.63-.75s-.66.25-.66.75v1.58a.52.52,0,0,1-.52.52.52.52,0,0,1-.53-.52Z"/><path d="M45,71.12V69.37h0a.45.45,0,0,1,0-.89h0V68a.52.52,0,0,1,.52-.52A.52.52,0,0,1,46,68v.47h.46a.45.45,0,1,1,0,.89H46V71c0,.24.1.36.33.36h.13a.44.44,0,0,1,.43.44.42.42,0,0,1-.27.39,1.46,1.46,0,0,1-.6.1C45.41,72.23,45,72,45,71.12Z"/><path d="M47.45,71.11h0c0-.81.61-1.18,1.49-1.18a2.6,2.6,0,0,1,.9.15V70c0-.44-.27-.68-.79-.68a2.52,2.52,0,0,0-.73.1.29.29,0,0,1-.15,0,.43.43,0,0,1-.15-.83,3.09,3.09,0,0,1,1.18-.2,1.74,1.74,0,0,1,1.25.42A1.62,1.62,0,0,1,50.84,70v1.68a.5.5,0,0,1-.51.5.47.47,0,0,1-.5-.43h0a1.43,1.43,0,0,1-1.12.47A1.14,1.14,0,0,1,47.45,71.11Zm2.4-.24v-.19a1.66,1.66,0,0,0-.67-.14c-.44,0-.72.18-.72.52h0c0,.28.23.45.57.45S49.85,71.25,49.85,70.87Z"/><path d="M51.57,70.34h0a1.89,1.89,0,0,1,1.94-1.92,1.87,1.87,0,0,1,1.26.41.47.47,0,0,1-.31.83.6.6,0,0,1-.31-.1,1,1,0,0,0-.65-.24.94.94,0,0,0-.9,1h0a1,1,0,0,0,.94,1,1.1,1.1,0,0,0,.69-.25.48.48,0,0,1,.28-.1.44.44,0,0,1,.44.45.43.43,0,0,1-.15.33,1.82,1.82,0,0,1-1.31.47A1.88,1.88,0,0,1,51.57,70.34Z"/><path d="M55.67,67.59c0-.3.25-.49.59-.49a.52.52,0,0,1,.58.49v0a.52.52,0,0,1-.58.49c-.34,0-.59-.19-.59-.49ZM55.73,69a.53.53,0,1,1,1.05,0v2.73a.53.53,0,0,1-1.05,0Z"/><path d="M61.48,71.69a.52.52,0,0,1-.52.52.52.52,0,0,1-.53-.52v0a1.33,1.33,0,0,1-1.15.6,1.74,1.74,0,0,1-1.68-1.91h0a1.73,1.73,0,0,1,1.68-1.91,1.41,1.41,0,0,1,1.15.55V67.62A.52.52,0,0,1,61,67.1a.52.52,0,0,1,.52.52Zm-2.83-1.37h0a.91.91,0,1,0,1.8,0h0a.91.91,0,1,0-1.8,0Z"/><path d="M62.32,71.82a.42.42,0,0,1-.2-.36.41.41,0,0,1,.41-.41.43.43,0,0,1,.21,0,1.94,1.94,0,0,0,1,.33c.3,0,.44-.11.44-.27v0c0-.22-.36-.3-.76-.42s-1.11-.4-1.11-1.11v0a1.21,1.21,0,0,1,1.35-1.17,2.6,2.6,0,0,1,1.15.28.45.45,0,0,1,.25.4.41.41,0,0,1-.42.41.35.35,0,0,1-.2-.05,2,2,0,0,0-.8-.23c-.25,0-.38.11-.38.25v0c0,.2.35.3.75.44s1.12.42,1.12,1.09v0c0,.82-.62,1.19-1.42,1.19A2.58,2.58,0,0,1,62.32,71.82Z"/></svg>