<?xml version="1.0" encoding="utf-8"?>
<!-- Generator: Adobe Illustrator 24.0.0, SVG Export Plug-In . SVG Version: 6.00 Build 0)  -->
<svg version="1.1" id="Layer_1" xmlns="http://www.w3.org/2000/svg" xmlns:xlink="http://www.w3.org/1999/xlink" x="0px" y="0px"
	 viewBox="0 0 100 100" style="enable-background:new 0 0 100 100;" xml:space="preserve">
<g>
	<path d="M89.1,23.1l-1.8-4.4v-5.5c0-1.4-1.2-2.6-2.6-2.6H65.9c-1.4,0-2.6,1.2-2.6,2.6v5.5l-1.7,4.5c-0.3,0.8-0.5,1.7-0.5,2.6v22
		c0,1.4,1.1,2.5,2.5,2.5c0,0,0,0,0,0h23.4c1.4,0,2.5-1.1,2.5-2.5c0,0,0,0,0,0V25.9C89.6,24.9,89.4,24,89.1,23.1z M86,41.7
		c0,1.4-1.1,2.5-2.5,2.5c0,0,0,0,0,0H67.3c-1.4,0-2.5-1.1-2.5-2.5c0,0,0,0,0,0V29.4c0-1.4,1.1-2.5,2.5-2.5c0,0,0,0,0,0h16.2
		c1.4,0,2.5,1.1,2.5,2.5V41.7z"/>
	<path d="M65.5,54.5c-0.5-0.1-0.9-0.1-1.4-0.1H63c-1.6-2.3-4.1-3.9-6.9-4.4c-0.8-2.2-2.3-4.1-4.2-5.4c-2.4-1.6-5.3-2.1-8.1-1.5
		c-0.6,0.1-1.2,0.3-1.8,0.5c-1.5-1.7-3.4-2.8-5.6-3.3c-2.8-0.7-5.7-0.2-8.1,1.3c-2.5,1.6-4.3,4.1-4.9,7c-3.2,0.7-5.9,2.9-7.3,5.9
		h-1.4c-3.7,0-6.8,3-6.8,6.7c0,0.5,0,1,0.1,1.5c2.1,9.1,8.8,16.6,17.6,20.4v0.8c0,3.9,3.1,7,7,7h13.8c3.9,0,7-3.1,7-7v-0.9
		c8.7-3.9,15.4-11.3,17.4-20.4c0.4-1.8,0-3.6-1-5.1C68.8,55.9,67.3,54.8,65.5,54.5z M25.3,52.2l1.8-0.1l0.1-1.8
		c0.1-2.2,1.3-4.2,3.2-5.4c1.5-1,3.4-1.3,5.1-0.8c1.8,0.4,3.3,1.5,4.2,3l1,1.7l1.7-1c0.7-0.4,1.4-0.7,2.1-0.8c1.8-0.4,3.6,0,5.1,1
		c1.5,1,2.6,2.5,2.9,4.3l0.3,1.5l1.6,0.1c0.9,0,1.7,0.3,2.5,0.6H20.8C21.9,53.1,23.5,52.3,25.3,52.2z M46.4,86.8H32.5
		c-1.4,0-2.6-1-2.9-2.3c3.1,0.9,6.4,1.4,9.8,1.4c3.4,0,6.8-0.5,9.9-1.4C49,85.7,47.8,86.8,46.4,86.8z M66.2,61.5
		c-2.5,11.4-13.8,19.7-26.8,19.7c-13,0-24.3-8.3-26.8-19.7c0-0.1,0-0.3,0-0.4c0-1.2,1-2.1,2.1-2.1c0,0,0,0,0,0h49.5
		c0.1,0,0.3,0,0.4,0c0.6,0.1,1,0.4,1.3,0.9C66.2,60.4,66.3,61,66.2,61.5z"/>
	<polygon points="78.1,29 72.9,29 72.9,33.4 68.4,33.4 68.4,38.6 72.9,38.6 72.9,43.1 78.1,43.1 78.1,38.6 82.5,38.7 82.5,33.5 
		78.1,33.5 	"/>
</g>
</svg>
