<svg id="Layer_1" data-name="Layer 1" xmlns="http://www.w3.org/2000/svg" viewBox="0 0 100 100"><defs><style>.cls-1{fill:none;stroke:#000;stroke-miterlimit:10;stroke-width:3px;}.cls-2{font-size:12px;}.cls-2,.cls-3{font-family:GothamRounded-Bold, Gotham Rounded;font-weight:700;}.cls-3{font-size:8px;letter-spacing:-0.05em;}</style></defs><circle class="cls-1" cx="76.17" cy="24.72" r="13.77"/><text class="cls-2" transform="translate(73.65 24.85)">1</text><text class="cls-3" transform="translate(70.68 31.81)">hrs</text><path d="M61.68,40.63l-3.36-8h0V22.55a4.69,4.69,0,0,0-4.68-4.68h-34a4.69,4.69,0,0,0-4.68,4.68V32.64l-3.12,8.17a13.43,13.43,0,0,0-.87,4.77V85.65a4.59,4.59,0,0,0,4.59,4.6H58.12a4.6,4.6,0,0,0,4.6-4.6V45.81A13.53,13.53,0,0,0,61.68,40.63Zm-5.5,33.95a4.6,4.6,0,0,1-4.6,4.59H22a4.6,4.6,0,0,1-4.59-4.59V52.24A4.6,4.6,0,0,1,22,47.64H51.58a4.6,4.6,0,0,1,4.6,4.6Z"/><path d="M30.26,59a1.07,1.07,0,0,1,1.08-1.08h5.49a1,1,0,1,1,0,2H32.42V62H36.2a1,1,0,0,1,0,2H32.42v2.8a1.08,1.08,0,0,1-2.16,0Z"/><path d="M42.57,67.91A3.75,3.75,0,0,1,38.65,64v0a3.73,3.73,0,0,1,3.71-3.9A3.54,3.54,0,0,1,46,63.71a1,1,0,0,1-1,1H40.76A1.74,1.74,0,0,0,42.6,66.2a2.45,2.45,0,0,0,1.51-.5.84.84,0,0,1,1.35.67.85.85,0,0,1-.28.63A3.91,3.91,0,0,1,42.57,67.91Zm1.37-4.51a1.61,1.61,0,0,0-1.58-1.6,1.67,1.67,0,0,0-1.62,1.6Z"/></svg>