<?xml version="1.0" encoding="utf-8"?>
<!-- Generator: Adobe Illustrator 24.2.3, SVG Export Plug-In . SVG Version: 6.00 Build 0)  -->
<svg version="1.1" id="Layer_1" xmlns="http://www.w3.org/2000/svg" xmlns:xlink="http://www.w3.org/1999/xlink" x="0px" y="0px"
	 viewBox="0 0 100 100" style="enable-background:new 0 0 100 100;" xml:space="preserve">
<g>
	<path d="M75.7,38.5c-8.4,0-15.3-6.8-15.3-15.3c0-8.4,6.8-15.3,15.3-15.3S91,14.8,91,23.2c0,0,0,0,0,0C91,31.6,84.2,38.5,75.7,38.5z
		 M75.7,10.9c-6.8,0-12.3,5.5-12.3,12.3s5.5,12.3,12.3,12.3S88,30,88,23.2c0,0,0,0,0,0C88,16.4,82.5,10.9,75.7,10.9z"/>
	<path d="M73.2,22.5c-0.2-0.2-0.3-0.4-0.3-0.7c0-0.5,0.4-0.9,0.9-0.9c0.2,0,0.4,0.1,0.6,0.2c0.4,0.4,1,0.6,1.6,0.6
		c0.6,0.1,1.1-0.3,1.2-0.9c0,0,0-0.1,0-0.1l0,0c0-0.7-0.6-1.1-1.6-1.1h-0.3c-0.4,0-0.8-0.4-0.8-0.8c0-0.3,0.2-0.6,0.4-0.8l1.6-1.6
		h-2.6c-0.4,0-0.8-0.4-0.8-0.8c0-0.4,0.4-0.8,0.8-0.8H78c0.5-0.1,0.9,0.3,0.9,0.7c0,0,0,0.1,0,0.1c0,0.4-0.2,0.8-0.6,1l-1.6,1.6
		c1.3,0,2.3,1.1,2.3,2.3l0,0c0,1.5-1.2,2.7-2.7,2.8c-0.1,0-0.2,0-0.3,0C75,23.5,74,23.2,73.2,22.5z"/>
	<path d="M70.8,25c0-0.3,0.3-0.6,0.6-0.6l0,0c0.3,0,0.6,0.3,0.6,0.6v1.6c0.3-0.4,0.7-0.7,1.2-0.7c0.8,0,1.4,0.6,1.5,1.3
		c0,0.1,0,0.2,0,0.2v2.2c0,0.3-0.3,0.6-0.6,0.6c-0.3,0-0.6-0.3-0.6-0.6c0,0,0,0,0,0v-1.8c0-0.6-0.3-0.9-0.7-0.9S72,27.3,72,27.9v1.8
		c0,0.3-0.3,0.6-0.6,0.6c-0.3,0-0.6-0.3-0.6-0.6c0,0,0,0,0,0L70.8,25z"/>
	<path d="M75.4,26.6c0-0.3,0.3-0.6,0.6-0.6c0.3,0,0.6,0.3,0.6,0.6c0,0,0,0,0,0v0.2c0.2-0.4,0.5-0.8,0.8-0.8c0.3,0,0.6,0.2,0.6,0.5
		c0,0,0,0.1,0,0.1c0,0.3-0.2,0.5-0.4,0.6c-0.6,0.1-1,0.6-1,1.5v1.1c0,0.3-0.3,0.6-0.6,0.6l0,0c-0.3,0-0.6-0.3-0.6-0.6L75.4,26.6z"/>
	<path d="M78.2,29.9c-0.1-0.1-0.2-0.2-0.2-0.4c0-0.3,0.2-0.5,0.5-0.5c0,0,0,0,0,0c0.1,0,0.2,0,0.2,0.1c0.3,0.2,0.7,0.4,1.2,0.4
		c0.3,0,0.5-0.1,0.5-0.3l0,0c0-0.3-0.4-0.4-0.9-0.5s-1.3-0.5-1.3-1.3l0,0c0-0.8,0.7-1.4,1.4-1.4c0,0,0.1,0,0.1,0
		c0.5,0,0.9,0.1,1.3,0.3c0.2,0.1,0.3,0.3,0.3,0.5c0,0.3-0.2,0.5-0.5,0.5c0,0,0,0,0,0c-0.1,0-0.2,0-0.2-0.1c-0.3-0.2-0.6-0.2-0.9-0.3
		c-0.3,0-0.4,0.1-0.4,0.3l0,0c0,0.2,0.4,0.4,0.9,0.5s1.3,0.5,1.3,1.3l0,0c0,1-0.7,1.4-1.6,1.4C79.2,30.4,78.7,30.2,78.2,29.9z"/>
	<path d="M58.3,43.5L55.1,36l0,0v-9.5c0-2.4-2-4.4-4.4-4.4h-32c-2.4,0-4.4,2-4.4,4.4V36l-2.9,7.7c-0.5,1.4-0.8,2.9-0.8,4.5v37.6
		c0,2.4,1.9,4.3,4.3,4.3c0,0,0,0,0,0H55c2.4,0,4.3-1.9,4.3-4.3c0,0,0,0,0,0V48.3C59.3,46.7,58.9,45,58.3,43.5z M53.1,75.4
		c0,2.4-1.9,4.3-4.3,4.3c0,0,0,0,0,0H21c-2.4,0-4.3-1.9-4.3-4.3v-21c0-2.4,1.9-4.3,4.3-4.3h27.8c2.4,0,4.3,1.9,4.3,4.3V75.4z"/>
	<polygon points="43,61.3 37.9,61.3 37.9,56.2 32,56.2 32,61.3 27,61.3 27,67.2 32,67.2 32,72.1 37.9,72.1 37.9,67.2 42.9,67.2 	"/>
</g>
</svg>
