<?xml version="1.0" encoding="utf-8"?>
<!-- Generator: Adobe Illustrator 24.0.0, SVG Export Plug-In . SVG Version: 6.00 Build 0)  -->
<svg version="1.1" id="Layer_1" xmlns="http://www.w3.org/2000/svg" xmlns:xlink="http://www.w3.org/1999/xlink" x="0px" y="0px"
	 viewBox="0 0 100 100" style="enable-background:new 0 0 100 100;" xml:space="preserve">
<g>
	<path d="M32.1,50.7h-11c-2.6,0-4.8,2.1-4.8,4.8v7.2c0,2.6,2.1,4.8,4.8,4.8h11c2.6,0,4.8-2.1,4.8-4.8v-7.2
		C36.9,52.9,34.8,50.7,32.1,50.7z"/>
	<path d="M90.8,59.7c-0.6-4.1-2.6-7.3-6-9.5c-4-2.5-8.8-3.3-13.4-2.2c0.1-1.2,0.4-2.4,0.8-3.2c1.6-2.6,3.1-3.3,3.2-3.4
		c1-0.4,1.5-1.5,1.1-2.6c-0.4-1-1.6-1.5-2.6-1.2c-0.3,0.1-2.5,1-4.6,4.2c-1.4-1.1-3.3-2-5.2-2.6c-1.2-0.4-2.4-0.6-3.5-0.7
		c-0.2-0.5-0.5-1-0.8-1.5l-7.4-10v-7.8c0-2.3-1.9-4.2-4.2-4.2h-25c0,0,0,0,0,0c-2.3,0-4.1,1.8-4.2,4.1v8l-6.8,10
		c-1,1.4-1.5,3.1-1.5,4.8v35.6c0,4.7,3.8,8.5,8.5,8.5h19.5h4H53c0,0,0,0,0,0c2,0,3.9-0.7,5.4-2c1.8,1,3.7,1.6,5.8,1.6
		c0.6,0,1.2,0,1.8-0.1l0.3-0.1c0.8-0.3,1.7-0.5,2.6-0.5c0.9,0.1,1.7,0.3,2.6,0.5l0.4,0.1c4.4,0.6,8.3-0.9,11.5-4.7
		C87.7,75.9,91.9,67.2,90.8,59.7z M23,19.2c0-0.1,0.1-0.1,0.2-0.2h25c0.1,0,0.2,0.1,0.2,0.2v6.5h-2.8h0H23V19.2z M38.6,82H19.1
		c-2.5,0-4.5-2-4.5-4.5V41.9c0-0.9,0.3-1.8,0.8-2.5l6.6-9.7h23.5h0c0.1,0,0.1,0,0.2,0.1c0.1,0.1,0.1,0.1,0.1,0.2
		c0,0.1,0,0.1-0.1,0.2l-7.2,9V82z M53,82C53,82,53,82,53,82H42.6V40.6l6.3-7.9c0,0,0,0,0,0l1.4-1.7l5.9,7.9c-1.3,0.6-1.9,1.5-2,2.1
		v0c-0.9,2.8,2.2,5.3,5.9,6.7c-2.4,0.3-4.8,1.2-7,2.5c-3.3,2.2-5.4,5.4-6,9.5c-1.1,7.5,3.1,16.2,7.4,21.1c0.2,0.2,0.4,0.4,0.6,0.7
		C54.5,81.8,53.8,82,53,82z M80.4,78.1c-2.3,2.6-4.9,3.7-7.8,3.4c-1.1-0.4-2.3-0.6-3.5-0.7l-0.2,0l-0.2,0c-1.2,0.1-2.4,0.3-3.5,0.7
		c-2.9,0.4-5.4-0.7-7.8-3.4c-3.8-4.4-7.3-12-6.5-17.9c0.4-2.9,1.8-5.1,4.2-6.7c2.2-1.4,4.6-2.1,7.1-2.1c1.5,0,3,0.3,4.5,0.8
		c1.3,0.4,2.8,0.4,4.1,0c3.9-1.4,8.2-0.9,11.7,1.3c2.4,1.5,3.8,3.8,4.2,6.7C87.7,66.2,84.2,73.8,80.4,78.1z"/>
</g>
</svg>
