<?xml version="1.0" encoding="utf-8"?>
<!-- Generator: Adobe Illustrator 24.2.3, SVG Export Plug-In . SVG Version: 6.00 Build 0)  -->
<svg version="1.1" id="Layer_1" xmlns="http://www.w3.org/2000/svg" xmlns:xlink="http://www.w3.org/1999/xlink" x="0px" y="0px"
	 viewBox="0 0 100 100" style="enable-background:new 0 0 100 100;" xml:space="preserve">
<path d="M81.5,48.2c-0.5-0.1-1-0.1-1.5-0.2h-1.3c-1.9-3.1-5.1-5.3-8.7-5.8c-0.9-2.7-2.7-5-5.1-6.5c-2.8-1.8-6.2-2.5-9.5-1.8
	c-0.8,0.2-1.6,0.4-2.3,0.7c-1.7-2.1-4.1-3.5-6.8-4.1c-3.3-0.8-6.7-0.2-9.5,1.6c-3,1.9-5.1,5-5.8,8.4c-4.1,0.9-7.6,3.7-9.1,7.6h-1.8
	c0,0,0,0,0,0c-4,0-7.3,3.3-7.4,7.3c0,0.5,0,1,0.2,1.6c2.4,10.8,10.4,19.6,20.9,24.2v1.7c0,4.4,3.6,8,8,8h16.8c4.4,0,8-3.6,8-8v-1.8
	c10.4-4.6,18.3-13.4,20.7-24.2C88,53,85.5,49,81.5,48.2z M32.9,44.2l1.8-0.1l0.1-1.8c0.1-2.8,1.7-5.4,4.1-6.9c2-1.2,4.3-1.6,6.5-1.1
	c2.2,0.5,4.1,1.9,5.4,3.8l1,1.7l1.7-1c0.8-0.5,1.7-0.9,2.7-1.1c2.3-0.5,4.6,0,6.5,1.2c1.9,1.3,3.3,3.2,3.7,5.5l0.3,1.5l1.6,0.1
	c1.9,0.1,3.6,0.7,5,1.9H26.4C27.9,45.8,30.3,44.4,32.9,44.2z M62.5,82.8c0,2.2-1.8,4-4,4H41.7c-2.2,0-4-1.8-4-4v-0.2
	c3.9,1.2,8,1.9,12.3,1.9c4.3,0,8.5-0.7,12.5-1.9V82.8z M83.3,56.1C80.1,70.3,66.1,80.5,50,80.5c-16.1,0-30.1-10.3-33.3-24.4
	c0-0.2-0.1-0.5-0.1-0.7c0-0.9,0.4-1.7,1-2.4c0.6-0.6,1.5-1,2.4-1c0,0,0,0,0,0l59.9,0c0.3,0,0.5,0,0.7,0.1
	C82.5,52.5,83.7,54.3,83.3,56.1z"/>
</svg>
