<?xml version="1.0" encoding="utf-8"?>
<!-- Generator: Adobe Illustrator 24.0.0, SVG Export Plug-In . SVG Version: 6.00 Build 0)  -->
<svg version="1.1" id="Layer_1" xmlns="http://www.w3.org/2000/svg" xmlns:xlink="http://www.w3.org/1999/xlink" x="0px" y="0px"
	 viewBox="0 0 100 100" style="enable-background:new 0 0 100 100;" xml:space="preserve">
<g>
	<path d="M45.1,17.8C45.1,17.8,45.1,17.8,45.1,17.8H13.7c-0.2,0-0.4,0-0.7,0c-4.1,0.4-7.1,4-6.8,8.1l5.5,61.6
		c0.3,3.9,3.5,6.8,7.4,6.8h20.4c0,0,0,0,0,0c3.9,0,7.1-2.9,7.4-6.8l5.5-61.6c0-0.2,0-0.5,0-0.7C52.5,21.1,49.2,17.8,45.1,17.8z
		 M22.5,54.6c0,0.1,0,0.2-0.1,0.3l-1.5,4.3c-0.1,0.4-0.5,0.8-1,0.8h-0.1c-0.4,0-0.8-0.3-0.9-0.7l-1-3l-1,3C16.8,59.7,16.4,60,16,60
		c-0.5,0-0.8-0.3-0.9-0.8L13.6,55c0-0.1-0.1-0.3-0.1-0.4c0-0.4,0.4-0.8,0.8-0.8c0,0,0,0,0,0c0.4,0,0.7,0.3,0.8,0.7l0.9,3.1l1-3.1
		c0.1-0.4,0.5-0.7,0.9-0.7h0c0.4,0,0.8,0.3,0.9,0.7l1,3.1l1-3.1c0.1-0.4,0.4-0.7,0.8-0.7C22.1,53.8,22.5,54.1,22.5,54.6
		C22.5,54.6,22.5,54.6,22.5,54.6z M28.7,59.2c0,0.5-0.4,0.8-0.8,0.8c0,0,0,0,0,0c-0.4,0-0.8-0.3-0.8-0.7c0,0,0,0,0,0
		c-0.5,0.5-1.1,0.8-1.8,0.8c-1,0.1-2-0.6-2.1-1.6c0-0.1,0-0.1,0-0.2c0-1.3,1-1.9,2.4-1.9c0.5,0,1,0.1,1.5,0.2v-0.1
		c0-0.7-0.4-1.1-1.3-1.1c-0.4,0-0.8,0-1.2,0.2c-0.1,0-0.2,0-0.2,0c-0.4,0-0.7-0.3-0.7-0.7c0-0.3,0.2-0.5,0.4-0.6
		c0.6-0.2,1.3-0.3,1.9-0.3c0.7-0.1,1.5,0.2,2,0.7c0.5,0.5,0.7,1.2,0.7,1.9V59.2z M33.6,54.6c0,0.4-0.3,0.7-0.7,0.7c0,0,0,0,0,0h-0.8
		v2.6c0,0.4,0.2,0.6,0.5,0.6h0h0.2c0.4,0,0.7,0.3,0.7,0.7c0,0.3-0.2,0.5-0.4,0.6c-0.3,0.1-0.7,0.2-1,0.2c-1,0-1.8-0.4-1.8-1.8v-2.9
		h-0.1c-0.4,0-0.7-0.3-0.7-0.7c0,0,0,0,0,0c0-0.4,0.3-0.7,0.7-0.7h0.1v-0.8c0-0.5,0.4-0.9,0.9-0.9c0.5,0,0.9,0.4,0.9,0.9v0.8h0.8
		C33.3,53.8,33.6,54.2,33.6,54.6L33.6,54.6z M40.3,56.7c0,0.4-0.3,0.8-0.8,0.8c0,0,0,0,0,0l0,0h-3.4c0.1,0.7,0.8,1.2,1.5,1.2
		c0.4,0,0.9-0.1,1.2-0.4c0.1-0.1,0.3-0.1,0.4-0.1c0.4,0,0.7,0.3,0.7,0.6c0,0,0,0,0,0c0,0.2-0.1,0.4-0.2,0.5
		c-0.6,0.5-1.3,0.8-2.1,0.7c-1.7,0.1-3.1-1.2-3.2-2.8c0-0.1,0-0.2,0-0.3c-0.1-1.7,1.2-3.1,2.8-3.2c0.1,0,0.1,0,0.2,0
		c1.6,0,2.9,1.2,2.9,2.8C40.3,56.6,40.3,56.7,40.3,56.7z M44.7,55.4L44.7,55.4c-0.9,0.2-1.4,0.9-1.4,2.1v1.6c0,0.5-0.4,0.9-0.9,0.9
		c-0.5,0-0.9-0.4-0.9-0.9v-4.5c0-0.5,0.4-0.9,0.9-0.9c0.5,0,0.9,0.4,0.9,0.9v0.3c0.2-0.6,0.7-1.1,1.2-1.1c0.5,0,0.8,0.4,0.8,0.8
		C45.3,55,45.1,55.3,44.7,55.4z M48.5,25.5l-1.7,18.6H11.9l-1.7-18.6c-0.1-0.9,0.2-1.8,0.8-2.5s1.4-1.1,2.3-1.2c0.1,0,0.2,0,0.3,0
		h31.4c0,0,0,0,0,0c1.9,0,3.4,1.5,3.4,3.4C48.5,25.3,48.5,25.4,48.5,25.5z"/>
	<path d="M37.4,55.1c-0.7,0-1.2,0.5-1.3,1.3h2.6C38.6,55.7,38.1,55.1,37.4,55.1z"/>
	<path d="M24.8,58.1c0,0.5,0.4,0.7,0.9,0.7c0.8,0,1.3-0.4,1.3-1.1v-0.3c-0.3-0.1-0.7-0.2-1.1-0.2C25.2,57.2,24.8,57.5,24.8,58.1z"/>
	<path d="M86,26l-1.8-4.4V16c0-1.4-1.2-2.6-2.6-2.6H62.8c-1.4,0-2.6,1.2-2.6,2.6v5.5L58.5,26c-0.3,0.8-0.5,1.7-0.5,2.6v22
		c0,1.4,1.1,2.5,2.5,2.5c0,0,0,0,0,0H84c1.4,0,2.5-1.1,2.5-2.5c0,0,0,0,0,0V28.8C86.5,27.9,86.4,26.9,86,26z M83,44.6
		c0,1.4-1.1,2.5-2.5,2.5c0,0,0,0,0,0H64.2c-1.4,0-2.5-1.1-2.5-2.5c0,0,0,0,0,0V32.4c0-1.4,1.1-2.5,2.5-2.5c0,0,0,0,0,0h16.2
		c1.4,0,2.5,1.1,2.6,2.5c0,0,0,0,0,0.1V44.6z"/>
	<polygon points="74.9,31.7 69.7,31.7 69.7,36.2 65.3,36.1 65.3,41.3 69.7,41.3 69.7,45.8 74.9,45.8 74.9,41.3 79.3,41.4 79.3,36.2 
		74.9,36.2 	"/>
</g>
</svg>
