<?xml version="1.0" encoding="utf-8"?>
<!-- Generator: Adobe Illustrator 24.0.0, SVG Export Plug-In . SVG Version: 6.00 Build 0)  -->
<svg version="1.1" id="Layer_1" xmlns="http://www.w3.org/2000/svg" xmlns:xlink="http://www.w3.org/1999/xlink" x="0px" y="0px"
	 viewBox="0 0 100 100" style="enable-background:new 0 0 100 100;" xml:space="preserve">
<g>
	<path d="M75.8,9.5c-8.4,0-15.3,6.9-15.3,15.3S67.4,40,75.8,40s15.3-6.9,15.3-15.3S84.2,9.5,75.8,9.5z M75.8,37
		c-6.8,0-12.3-5.5-12.3-12.3S69,12.5,75.8,12.5S88.1,18,88.1,24.7S82.6,37,75.8,37z"/>
	<path d="M73.8,24.9h4.6c0.4,0,0.8-0.3,0.8-0.8c0-0.4-0.4-0.8-0.8-0.8h-2.9l1.4-1.1c1.5-1.2,2.2-1.8,2.2-3.2v0
		c0-1.6-1.2-2.6-2.9-2.6c-1.3,0-2.1,0.5-2.7,1.2c-0.1,0.2-0.2,0.4-0.2,0.6c0,0.5,0.4,0.8,0.8,0.8c0.3,0,0.5-0.1,0.6-0.3
		c0.5-0.5,0.8-0.7,1.4-0.7c0.7,0,1.1,0.4,1.1,1.1c0,0.7-0.4,1.2-1.5,2l-2.4,2c-0.3,0.3-0.5,0.6-0.5,0.9
		C72.8,24.5,73.2,24.9,73.8,24.9z"/>
	<path d="M73.3,27.4c-0.6,0-1,0.3-1.3,0.7v-1.6c0-0.3-0.3-0.6-0.6-0.6s-0.6,0.3-0.6,0.6v4.7c0,0.3,0.3,0.6,0.6,0.6s0.6-0.3,0.6-0.6
		v-1.8c0-0.6,0.3-0.9,0.8-0.9s0.7,0.3,0.7,0.9v1.8c0,0.3,0.3,0.6,0.6,0.6s0.6-0.3,0.6-0.6V29C74.8,28.1,74.2,27.4,73.3,27.4z"/>
	<path d="M77.5,27.5c-0.4,0-0.6,0.4-0.8,0.8v-0.2c0-0.3-0.3-0.6-0.6-0.6s-0.6,0.3-0.6,0.6v3.2c0,0.3,0.3,0.6,0.6,0.6
		s0.6-0.3,0.6-0.6v-1.1c0-0.9,0.3-1.3,1-1.5c0.2-0.1,0.5-0.2,0.5-0.6C78.1,27.7,77.8,27.5,77.5,27.5z"/>
	<path d="M80.2,29.2c-0.5-0.2-0.9-0.3-0.9-0.5v0c0-0.2,0.2-0.3,0.4-0.3c0.3,0,0.6,0.1,0.9,0.3c0.1,0,0.1,0.1,0.2,0.1
		c0.3,0,0.5-0.2,0.5-0.5c0-0.2-0.1-0.4-0.3-0.5c-0.4-0.2-0.9-0.3-1.3-0.3c-0.9,0-1.6,0.5-1.6,1.4v0c0,0.8,0.7,1.1,1.3,1.3
		c0.5,0.1,0.9,0.2,0.9,0.5v0c0,0.2-0.2,0.3-0.5,0.3c-0.3,0-0.8-0.1-1.2-0.4c-0.1,0-0.2-0.1-0.2-0.1c-0.3,0-0.5,0.2-0.5,0.5
		c0,0.2,0.1,0.3,0.2,0.4c0.5,0.3,1.1,0.5,1.6,0.5c0.9,0,1.6-0.4,1.6-1.4v0C81.5,29.7,80.8,29.4,80.2,29.2z"/>
	<path d="M58,32.6V22.5c0-2.6-2.1-4.7-4.7-4.7h-34c-2.6,0-4.7,2.1-4.7,4.7v10.1l-3.2,8.2c-0.6,1.5-0.9,3.1-0.9,4.8v40.1
		c0,2.5,2.1,4.6,4.6,4.6h42.6c2.5,0,4.6-2.1,4.6-4.6V45.8c0-1.8-0.4-3.5-1-5.2L58,32.6z M55.8,74.6c0,2.5-2.1,4.6-4.6,4.6H21.7
		c-2.5,0-4.6-2.1-4.6-4.6V52.2c0-2.5,2.1-4.6,4.6-4.6h29.5c2.5,0,4.6,2.1,4.6,4.6V74.6z"/>
	<path d="M35.8,57.9h-5.5c0,0,0,0,0,0c-0.6,0-1.1,0.5-1.1,1.1v7.8c0,0,0,0,0,0c0,0.6,0.5,1.1,1.1,1.1c0.6,0,1.1-0.5,1.1-1.1V64h3.8
		c0.6,0,1-0.4,1-1c0-0.6-0.4-1-1-1h-3.8v-2.1h4.4c0.6,0,1-0.4,1-1S36.3,57.9,35.8,57.9z"/>
	<path d="M41.3,60.1c0,0-0.1,0-0.1,0c-2.1,0.1-3.7,1.8-3.6,3.9c0,0.1,0,0.2,0,0.3c0.1,2.1,1.8,3.7,3.9,3.6c0.9,0,1.9-0.3,2.6-0.9
		c0.2-0.2,0.3-0.4,0.3-0.6c0,0,0,0,0-0.1c0-0.4-0.4-0.8-0.8-0.8c-0.2,0-0.4,0.1-0.5,0.2c-0.4,0.3-1,0.5-1.5,0.5
		c-0.9,0.1-1.7-0.6-1.8-1.5h4.2c0.6,0,1-0.4,1-1c0,0,0-0.1,0-0.1C44.9,61.6,43.3,60.1,41.3,60.1z M39.7,63.4c0-0.9,0.7-1.6,1.6-1.6
		c0.9,0,1.6,0.7,1.6,1.6H39.7z"/>
</g>
</svg>
