<svg id="Layer_1" data-name="Layer 1" xmlns="http://www.w3.org/2000/svg" viewBox="0 0 100 100"><defs><style>.cls-1{fill:none;stroke:#000;stroke-linecap:round;stroke-linejoin:round;stroke-width:4px;}</style></defs><path class="cls-1" d="M39.2,75.37s-16.87,4-21.82,7.12-5.85,11.25-5.85,11.25"/><path class="cls-1" d="M88.47,93.74s-.9-8.1-5.85-11.25S60.12,75,60.12,75"/><path class="cls-1" d="M50,24.44c-12,0-22.16,11.27-22.16,25.09,0,9.51,4.61,18.41,11.42,23v0a10.49,10.49,0,1,0,21,0v-.17c.64-.45,10.3-4.58,12.05-13.4-4.36-.27-10.82-1.2-11-4.31s8.37-7.3,12.62-9.23A25.08,25.08,0,0,0,72,39.23l2.9-3.79a1.61,1.61,0,0,0-1-2.56l-7.48-1.49a25,25,0,0,0-16.23-6.95Z"/><polygon points="42.06 19.37 38.49 18.13 35.43 20.37 35.51 16.59 32.42 14.37 36.05 13.27 37.21 9.66 39.38 12.78 43.16 12.76 40.87 15.78 42.06 19.37"/><polygon points="28.36 36.23 24.78 34.98 21.73 37.22 21.8 33.44 18.72 31.22 22.36 30.13 23.51 26.51 25.66 29.63 29.45 29.61 27.17 32.62 28.36 36.23"/><polygon points="66.82 17.99 63.23 16.75 60.19 18.99 60.25 15.21 57.18 12.99 60.81 11.9 61.97 8.28 64.12 11.4 67.91 11.38 65.63 14.39 66.82 17.99"/><path class="cls-1" d="M14,31.19a3.67,3.67,0,0,1-2-2.48c-.51-3.52,6.76-7.65,17.72-10.67"/><path class="cls-1" d="M70.5,14.72c4.79.86,7.81,2.4,8.11,4.5.69,4.89-13.66,11-32,13.6a116.81,116.81,0,0,1-14,1.17"/><path class="cls-1" d="M46.3,14.79c2.75-.37,5.42-.6,8-.71"/></svg>