<svg id="Layer_1" data-name="Layer 1" xmlns="http://www.w3.org/2000/svg" viewBox="0 0 100 100"><defs><style>.cls-1{fill:none;stroke:#000;stroke-miterlimit:10;stroke-width:4px;}</style></defs><g id="_254" data-name="254"><path class="cls-1" d="M22,48.24V50a3.6,3.6,0,0,0,3.6,3.6H35.63a3.6,3.6,0,0,0,3.6-3.6V48.21"/><path class="cls-1" d="M30.55,49.85c10.44,0,19.15-6.7,21.14-15.6a3.22,3.22,0,0,0-3.17-3.89H12.59a3.23,3.23,0,0,0-3.18,3.89C11.41,43.15,20.11,49.85,30.55,49.85Z"/></g><path d="M81.69,39.57c-1.47-.83-6.22-3.08-8.07-3.34A20.56,20.56,0,0,1,68.39,35c-2.51-1-2.65-3.1-4.36-6.2l-7.3,1.33c1.79,2.63,4.89,8.52,5.27,9.25a25.68,25.68,0,0,1,3.32,12.4c-.1,5-.33,9.06-6.32,11-3.93,1.25-7.51-.85-11-1.91a17.84,17.84,0,0,0-7-.27c-4,.32-7.15,7.29-7.39,8.8a72.53,72.53,0,0,0,.56,11.88h7.62c-.69-2.62-1.23-7.54-.65-10.35.38-1.83-1.41-1.19.78-1.85a4.25,4.25,0,0,1,1.13-.16,4.49,4.49,0,0,1,3.2,1.46c1.38,1.36,2.51,3.88,3.61,5.36A26.51,26.51,0,0,0,54,80.43c4.25,3.54,12.76,2.31,18.53.17C80.24,77.74,86.76,68.26,88,60.81,89,54.68,88.21,43.23,81.69,39.57ZM59.47,67.25a.62.62,0,1,1,0,1.24h-.64v3.36a.76.76,0,0,1-1.52,0V68.49h-.06a.62.62,0,0,1-.63-.62.63.63,0,0,1,.63-.63h.06V66.9a1.77,1.77,0,0,1,.43-1.3A1.67,1.67,0,0,1,59,65.18a3.72,3.72,0,0,1,.62,0,.62.62,0,0,1,.52.61.63.63,0,0,1-.62.63h-.13c-.35,0-.55.18-.55.58v.21Zm6.27,4.6a.76.76,0,0,1-1.52,0v-.06a1.9,1.9,0,0,1-1.57.86,1.76,1.76,0,0,1-1.82-2V67.89a.76.76,0,1,1,1.52,0v2.29c0,.72.34,1.09.92,1.09s.95-.37.95-1.09V67.89a.76.76,0,0,1,1.52,0Zm3,0a.76.76,0,0,1-1.52,0V66a.76.76,0,0,1,1.52,0Zm3,0a.76.76,0,0,1-1.52,0V66a.76.76,0,0,1,1.52,0Z"/><path d="M80.65,37.08a17.5,17.5,0,0,0-6.48-1.81,18,18,0,0,1-4.27-.94c-1.75-.71-3.31-2.37-4.62-4.91a3.13,3.13,0,0,0-3.56-1.64l-2.88.73h0A3.38,3.38,0,0,0,57,33.77a79.51,79.51,0,0,1,4.48,7.48,21.94,21.94,0,0,1,2.87,10.48c-.07,3.64-1.56,8-5.53,9.23-2.74.87-5.58,0-8.58-.92a22.62,22.62,0,0,0-8.48-1.44c-4.69.37-8.06,4.17-9,10.16-.14.83-.34,11.41,1.57,13.66a2.32,2.32,0,0,0,1.79.85h4a3,3,0,0,0,2.45-1.22A3.16,3.16,0,0,0,43,79.31c-.69-2.45-1.38-5.25-.89-7.58a3,3,0,0,1,1-1.82,1,1,0,0,1,.42.3,34.34,34.34,0,0,1,3.21,3.91,30.22,30.22,0,0,0,4.73,5.38A18.06,18.06,0,0,0,63.2,83.8a22.18,22.18,0,0,0,7.7-1.45C80,79,87.46,70.39,89,61.48,90.42,52.8,88.44,41.46,80.65,37.08ZM87,61.14C84.57,75.48,65.32,88.48,52.7,78c-3.09-2.58-5-6.35-7.81-9.18-2.23-2.2-4.25.12-4.75,2.53-.57,2.74.15,5.79.92,8.53a1.11,1.11,0,0,1-1,1.42h-4c-1.34,0-1.63-10.69-1.39-12.19.66-4,2.86-8.14,7.22-8.48,6-.48,11.54,4.16,17.5,2.27,4.69-1.49,6.84-6.33,6.93-11.1a24.21,24.21,0,0,0-3.09-11.44,83.31,83.31,0,0,0-4.64-7.74,1.38,1.38,0,0,1,.75-2.14l2.87-.73a1.13,1.13,0,0,1,1.29.61c1.28,2.48,3.06,4.8,5.65,5.85,3.39,1.38,7.26.81,10.52,2.64C86.88,42.88,88.23,53.71,87,61.14Z"/></svg>