<?xml version="1.0" encoding="utf-8"?>
<!-- Generator: Adobe Illustrator 24.2.3, SVG Export Plug-In . SVG Version: 6.00 Build 0)  -->
<svg version="1.1" id="Layer_1" xmlns="http://www.w3.org/2000/svg" xmlns:xlink="http://www.w3.org/1999/xlink" x="0px" y="0px"
	 viewBox="0 0 100 100" style="enable-background:new 0 0 100 100;" xml:space="preserve">
<path d="M72.7,12.6c-1.5-1.4-3.4-2.2-5.4-2.2H34.6c-0.2,0-0.4,0-0.7,0c-2,0.2-3.9,1.1-5.2,2.7c-1.3,1.6-1.9,3.6-1.8,5.6L32.7,83
	c0.4,4,3.6,7,7.6,7c0,0,0,0,0,0h21.2c4,0,7.3-3,7.6-7L75,18.8c0-0.3,0-0.5,0-0.7C75,16,74.2,14,72.7,12.6z M31.8,15.7
	c0.6-0.8,1.5-1.2,2.5-1.3c0.1,0,0.2,0,0.3,0h32.8c0,0,0,0,0,0c1,0,1.9,0.4,2.6,1.1c0.7,0.7,1.1,1.6,1.1,2.6c0,0.1,0,0.2,0,0.4
	l-1.6,18l-36.9,0l-1.6-18C30.8,17.4,31.1,16.5,31.8,15.7z"/>
</svg>
