<svg id="Layer_1" data-name="Layer 1" xmlns="http://www.w3.org/2000/svg" viewBox="0 0 100 100"><defs><style>.cls-1{fill:none;stroke:#000;stroke-linecap:round;stroke-miterlimit:10;stroke-width:4px;}</style></defs><path class="cls-1" d="M44.51,8.5a2.07,2.07,0,0,0-1.13,3.23,123.81,123.81,0,0,1,7,11.73c2.75,5.31,4.8,11.23,4.69,17.33C55,48,51.7,55.35,44.6,57.61c-9,2.86-17.46-4.16-26.53-3.44C11.47,54.69,8.14,60.9,7.15,67c-.37,2.28.07,18.48,2.09,18.48h6a1.68,1.68,0,0,0,1.58-2.16c-1.16-4.14-2.25-8.76-1.39-12.91.75-3.65,3.82-7.17,7.19-3.84,4.32,4.29,7.15,10,11.84,13.91C53.59,96.42,82.75,76.72,86.4,55c1.9-11.26-.15-27.67-11.08-33.82-4.94-2.78-10.8-1.91-15.94-4-3.92-1.6-6.62-5.11-8.55-8.87a1.74,1.74,0,0,0-2-.93Z"/><path d="M42.83,68.68A2.68,2.68,0,0,1,40,65.91v0a2.67,2.67,0,0,1,2.65-2.79,2.53,2.53,0,0,1,2.58,2.58.69.69,0,0,1-.71.73h-3a1.24,1.24,0,0,0,1.31,1,1.75,1.75,0,0,0,1.08-.36A.57.57,0,0,1,44.3,67a.58.58,0,0,1,.59.6.6.6,0,0,1-.2.45A2.78,2.78,0,0,1,42.83,68.68Zm1-3.22a1.15,1.15,0,0,0-1.13-1.14,1.19,1.19,0,0,0-1.16,1.14Z"/><path d="M46.42,63.9a.76.76,0,0,1,1.52,0V64a1.91,1.91,0,0,1,1.58-.86A1.6,1.6,0,0,1,51,64a2.21,2.21,0,0,1,1.76-.85c1.12,0,1.8.68,1.8,2v2.79a.76.76,0,1,1-1.51,0V65.57c0-.72-.32-1.09-.89-1.09s-.92.37-.92,1.09v2.29a.76.76,0,1,1-1.52,0V65.57c0-.72-.32-1.09-.89-1.09s-.92.37-.92,1.09v2.29a.76.76,0,1,1-1.52,0Z"/><path d="M55.92,63.9a.76.76,0,0,1,1.52,0V64a2,2,0,0,1,1.67-.87,2.52,2.52,0,0,1,2.44,2.77v0a2.51,2.51,0,0,1-2.44,2.77,2.06,2.06,0,0,1-1.67-.8v1.6a.76.76,0,1,1-1.52,0Zm4.11,2v0a1.32,1.32,0,1,0-2.61,0v0a1.32,1.32,0,1,0,2.61,0Z"/><path d="M62.92,67V64.5h-.05a.65.65,0,0,1,0-1.3h.05v-.67a.76.76,0,0,1,1.52,0v.67h.67a.65.65,0,0,1,0,1.3h-.67v2.29c0,.35.15.52.49.52h.18a.63.63,0,0,1,.63.63.62.62,0,0,1-.39.57,2.24,2.24,0,0,1-.87.15C63.55,68.65,62.92,68.28,62.92,67Z"/><path d="M67.1,70.05a.66.66,0,0,1-.48-.63.61.61,0,0,1,.6-.62.72.72,0,0,1,.25,0,1,1,0,0,0,.32.06.5.5,0,0,0,.54-.32l0-.12-1.83-4.24a1.11,1.11,0,0,1-.08-.35.72.72,0,0,1,.75-.73.74.74,0,0,1,.73.57l1.16,3.12,1.12-3.11a.77.77,0,0,1,.73-.58.71.71,0,0,1,.72.7,1.15,1.15,0,0,1-.07.36l-1.87,4.49c-.45,1.09-.9,1.5-1.81,1.5A2.29,2.29,0,0,1,67.1,70.05Z"/></svg>