<?xml version="1.0" encoding="utf-8"?>
<!-- Generator: Adobe Illustrator 24.0.0, SVG Export Plug-In . SVG Version: 6.00 Build 0)  -->
<svg version="1.1" id="Layer_1" xmlns="http://www.w3.org/2000/svg" xmlns:xlink="http://www.w3.org/1999/xlink" x="0px" y="0px"
	 viewBox="0 0 100 100" style="enable-background:new 0 0 100 100;" xml:space="preserve">
<g>
	<path d="M23.2,41.2c8.7,0,15.8-7.1,15.8-15.8S31.9,9.6,23.2,9.6S7.4,16.7,7.4,25.4S14.5,41.2,23.2,41.2z M35,25.4
		c0,2.5-0.8,4.8-2.1,6.7L16.4,15.8c1.9-1.3,4.2-2.1,6.7-2.1C29.7,13.6,35,18.9,35,25.4z M13.5,18.7l16.4,16.4
		c-1.9,1.3-4.2,2.1-6.7,2.1c-6.5,0-11.8-5.3-11.8-11.8C11.4,22.9,12.2,20.6,13.5,18.7z"/>
	<path d="M87.9,49.8l-2.8-6.6v-8.3c0-2.1-1.8-3.8-3.9-3.8H53c-2.1,0-3.9,1.7-3.9,3.9v8.4L46.6,50c-0.5,1.3-0.7,2.6-0.7,3.9V87
		c0,2.1,1.7,3.8,3.8,3.8h35.2c2.1,0,3.8-1.7,3.8-3.8V54C88.7,52.5,88.4,51.1,87.9,49.8z M83.3,77.8c0,2.1-1.7,3.8-3.8,3.8H55.1
		c-2.1,0-3.8-1.7-3.8-3.8V59.3c0-2.1,1.7-3.8,3.8-3.8h24.4c2.1,0,3.8,1.7,3.8,3.8V77.8z"/>
	<path d="M19.1,66.9c-6.2,0-11.2,5-11.2,11.2s5,11.2,11.2,11.2s11.2-5,11.2-11.2c0,0,0,0,0,0C30.3,71.9,25.3,66.9,19.1,66.9z
		 M24.5,85.6L11.6,72.6c0.6-0.8,1.2-1.4,2-2l12.9,13C26,84.4,25.3,85,24.5,85.6z"/>
	<path d="M41.3,76.2h-2.2V74c-0.1-0.6-0.6-1.2-1.2-1.2c-0.7-0.1-1.4,0.5-1.4,1.2v2.2h-2.2c-0.1,0-0.2,0-0.2,0
		c-0.7,0.1-1.2,0.7-1.2,1.4c0.1,0.7,0.7,1.2,1.4,1.2h2.2v2.1c0.1,0.6,0.6,1.2,1.2,1.2c0.7,0.1,1.4-0.5,1.4-1.2v-2.2h2.2
		c0.1,0,0.2,0,0.2,0c0.7-0.1,1.2-0.7,1.2-1.4C42.7,76.6,42,76.1,41.3,76.2z"/>
	<path d="M66.2,64c-0.2-0.5-0.7-0.9-1.2-0.9h-0.1c-0.6,0-1.1,0.3-1.3,0.9l-3.4,7.7c-0.1,0.1-0.1,0.3-0.1,0.5c0,0.6,0.4,1,1,1
		c0.4,0,0.9-0.2,1-0.7l0.7-1.6h4.3l0.7,1.5c0.2,0.4,0.5,0.7,1,0.7c0.2,0,0.3,0,0.5-0.1c0.5-0.3,0.7-0.9,0.4-1.4L66.2,64z M63.6,69
		l1.4-3.2l1.4,3.2H63.6z"/>
	<path d="M72.3,62.7c-0.6,0.1-1,0.6-1,1.2v8.3c0,0.1,0,0.1,0,0.2c0.1,0.6,0.6,1,1.2,1s1-0.6,1-1.2v-8.3c0-0.1,0-0.1,0-0.2
		C73.4,63.1,72.9,62.6,72.3,62.7z"/>
</g>
</svg>
