<svg id="Layer_1" data-name="Layer 1" xmlns="http://www.w3.org/2000/svg" viewBox="0 0 100 100"><defs><style>.cls-1,.cls-2{fill:none;stroke:#000;stroke-width:4px;}.cls-1{stroke-linejoin:round;}.cls-2{stroke-linecap:round;stroke-miterlimit:10;}</style></defs><path class="cls-1" d="M72,37.43c0-13.32-9.4-24.11-21-24.11S30,24.11,30,37.43c0,9.16,4.45,17.73,11,22.19v0c0,5.58,4.52,13.11,10.1,13.11s10.11-7.53,10.11-13.11c0,0,0-.1,0-.16C67.63,55,72,46.5,72,37.43Z"/><path class="cls-2" d="M41.6,62.92s-16.92,4.15-21.68,7.19-5.64,10.83-5.64,10.83L12,93.59"/><path class="cls-2" d="M61.1,62.92S78,67.07,82.78,70.11s5.63,10.83,5.63,10.83l2,12.19"/><path d="M95,25.58a16.64,16.64,0,0,1,1.48,6.88c0,9.72-2.52,18.56-9.44,25.75-1.63,1.69-3.37,3.35-5.77,3.91-3.23.75-6-.36-8.48-2.33-1.06-.85-1-1.4-.34-2.53q2-3.16,4-6.33c.67-1.06,1.1-1.25,2.29-.83S81,51,82.09,51.48c1.53.6,2,.56,3-.77a18,18,0,0,0,2.18-3.81A46,46,0,0,0,90,35.09c.17-1.55-.1-1.91-1.61-2.28-1.08-.26-2.18-.44-3.26-.72-1.41-.37-1.72-.81-1.62-2.23.16-2.51.37-5,.49-7.54a1.36,1.36,0,0,1,1.27-1.45,8.86,8.86,0,0,1,8.79,3.36A13.72,13.72,0,0,1,95,25.58Z"/><path class="cls-1" d="M40.89,59.54v0C48.06,64,54.1,64,61.41,59.56"/></svg>