<svg id="Layer_1" data-name="Layer 1" xmlns="http://www.w3.org/2000/svg" viewBox="0 0 100 100"><defs><style>.cls-1{fill:none;stroke:#000;stroke-miterlimit:10;stroke-width:4px;}</style></defs><path class="cls-1" d="M39.58,92.25H19.21a5.45,5.45,0,0,1-5.42-5L8.27,25.68a5.44,5.44,0,0,1,5.42-5.92H45.1a5.43,5.43,0,0,1,5.41,5.92L45,87.3A5.44,5.44,0,0,1,39.58,92.25Z"/><path d="M11.16,44.13l3.77,42.05A5.13,5.13,0,0,0,20,90.85H39.25a5.14,5.14,0,0,0,5.11-4.67l3.76-42.05Zm11.22,10.8-1.52,4.33a1,1,0,0,1-.95.77h-.06a1,1,0,0,1-.93-.74l-1-3-1,3a1,1,0,0,1-.93.74H16a1,1,0,0,1-.95-.77L13.57,55a1.57,1.57,0,0,1-.08-.41.8.8,0,0,1,.83-.79.87.87,0,0,1,.84.67l.92,3.08,1-3.07a.92.92,0,0,1,.89-.69H18a.91.91,0,0,1,.88.69l1,3.08.95-3.1a.86.86,0,0,1,.83-.66.79.79,0,0,1,.8.8A1.22,1.22,0,0,1,22.38,54.93Zm6.32,4.23a.82.82,0,0,1-.83.82.77.77,0,0,1-.83-.71h0a2.35,2.35,0,0,1-1.83.77,1.87,1.87,0,0,1-2.08-1.86v0c0-1.32,1-1.93,2.44-1.93a4.23,4.23,0,0,1,1.48.25v-.11c0-.71-.44-1.1-1.3-1.1a4.08,4.08,0,0,0-1.19.16.62.62,0,0,1-.25,0,.71.71,0,0,1-.25-1.37A5.42,5.42,0,0,1,26,53.78a2.8,2.8,0,0,1,2.05.68,2.67,2.67,0,0,1,.65,1.94Zm4-.66h.2a.72.72,0,0,1,.72.71.71.71,0,0,1-.44.65,2.68,2.68,0,0,1-1,.17c-1.05,0-1.76-.42-1.76-1.82V55.32h-.06a.73.73,0,0,1-.74-.73.74.74,0,0,1,.74-.74h.06v-.76a.86.86,0,0,1,1.72,0v.76h.75a.74.74,0,0,1,.74.74.73.73,0,0,1-.74.73h-.75v2.59C32.14,58.31,32.31,58.5,32.69,58.5Zm6.79-1h-3.4a1.4,1.4,0,0,0,1.48,1.19,2,2,0,0,0,1.22-.41.64.64,0,0,1,.42-.13.66.66,0,0,1,.67.68.72.72,0,0,1-.23.51,3.15,3.15,0,0,1-2.11.73,3,3,0,0,1-3.16-3.13v0a3,3,0,0,1,3-3.16,2.86,2.86,0,0,1,2.92,2.92A.78.78,0,0,1,39.48,57.48Zm5.2-2.06c-.87.21-1.36.88-1.36,2.1v1.6a.86.86,0,0,1-1.72,0V54.64a.86.86,0,0,1,1.72,0v.28c.25-.59.66-1.14,1.17-1.14a.83.83,0,0,1,.19,1.64Z"/><path d="M37.36,55.12c-.71,0-1.17.51-1.31,1.29h2.59A1.3,1.3,0,0,0,37.36,55.12Z"/><path d="M24.79,58.08v0c0,.46.38.73.94.73.8,0,1.34-.44,1.34-1.06v-.31A2.71,2.71,0,0,0,26,57.25C25.24,57.25,24.79,57.54,24.79,58.08Z"/><path d="M86,26l-1.84-4.39h0V16a2.57,2.57,0,0,0-2.57-2.57H62.84A2.57,2.57,0,0,0,60.27,16v5.55l-1.72,4.49a7.29,7.29,0,0,0-.48,2.62v22a2.52,2.52,0,0,0,2.53,2.52H84a2.52,2.52,0,0,0,2.53-2.52V28.82A7.32,7.32,0,0,0,86,26ZM83,44.63a2.52,2.52,0,0,1-2.52,2.53H64.19a2.52,2.52,0,0,1-2.52-2.53V32.36a2.52,2.52,0,0,1,2.52-2.53H80.43A2.52,2.52,0,0,1,83,32.36Z"/><rect x="65.27" y="36.15" width="14.07" height="5.19" transform="translate(33.48 111.01) rotate(-89.94)"/><rect x="69.71" y="31.71" width="5.19" height="14.07" transform="translate(33.46 111) rotate(-89.92)"/></svg>