<?xml version="1.0" encoding="utf-8"?>
<!-- Generator: Adobe Illustrator 24.0.0, SVG Export Plug-In . SVG Version: 6.00 Build 0)  -->
<svg version="1.1" id="Layer_1" xmlns="http://www.w3.org/2000/svg" xmlns:xlink="http://www.w3.org/1999/xlink" x="0px" y="0px"
	 viewBox="0 0 100 100" style="enable-background:new 0 0 100 100;" xml:space="preserve">
<g>
	<path d="M40.5,24.8C40.5,16.1,33.5,9,24.8,9C16.1,9,9,16.1,9,24.8s7.1,15.8,15.8,15.8C33.5,40.5,40.5,33.4,40.5,24.8z M36.5,24.8
		c0,2.5-0.8,4.8-2.1,6.7L18,15.1c1.9-1.3,4.2-2.1,6.7-2.1C31.2,13,36.5,18.3,36.5,24.8z M13,24.8c0-2.5,0.8-4.8,2.1-6.7l16.4,16.4
		c-1.9,1.3-4.2,2.1-6.7,2.1C18.3,36.5,13,31.2,13,24.8z"/>
	<path d="M90.5,47.8C88.8,46,86.3,45,83.3,45c-0.7,0-1.5,0.1-2.2,0.1v-2.4c0-2-0.6-3.6-1.7-4.8c-1.1-1.1-2.8-1.7-4.7-1.7h-1.9
		c1.7-1.3,2.3-2.6,2.1-4.3c-0.2-2.1-2.1-3.1-3.7-3.8c-0.8-0.4-2-1-2.1-1.5c0-0.2,0.4-1.4,3.1-3.3c0.9-0.6,1.1-1.9,0.5-2.8
		c-0.6-0.9-1.9-1.1-2.8-0.5c-3.6,2.6-5.1,5-4.6,7.4c0.5,2.3,2.6,3.4,4.2,4.2c0.5,0.3,1.2,0.6,1.5,0.9c-0.2,0.2-0.9,1-4,2.4
		c-0.6,0.3-0.9,0.7-1.1,1.3h-3.4c1.7-1.3,2.3-2.6,2.1-4.3c-0.2-2.1-2.1-3.1-3.7-3.8c-0.8-0.4-2-1-2.1-1.5c0-0.2,0.4-1.4,3.1-3.3
		c0.9-0.6,1.1-1.9,0.5-2.8c-0.6-0.9-1.9-1.1-2.8-0.5c-3.6,2.6-5.1,5-4.6,7.4c0.5,2.3,2.6,3.4,4.2,4.2c0.5,0.3,1.2,0.6,1.5,0.9
		c-0.2,0.2-0.9,1-4,2.4c-0.6,0.3-0.9,0.7-1.1,1.3H52c1.7-1.3,2.3-2.6,2.1-4.3c-0.2-2.1-2.1-3.1-3.7-3.8c-0.8-0.4-2-1-2.1-1.5
		c0-0.2,0.4-1.4,3.1-3.3c0.9-0.6,1.1-1.9,0.5-2.8c-0.6-0.9-1.9-1.1-2.8-0.5c-3.6,2.6-5.1,5-4.6,7.4c0.5,2.3,2.6,3.4,4.2,4.2
		c0.5,0.3,1.2,0.6,1.5,0.9c-0.2,0.2-0.9,1-4,2.4c-0.6,0.3-0.9,0.7-1.1,1.3h-2c-2.1,0-3.7,0.6-4.8,1.8c-1.1,1.2-1.7,2.8-1.6,4.8
		c0.1,2.9,0.1,6.2,0.4,9.5c0.3,7.4,1.5,14.7,3.6,21.9c0.6,1.9,1.4,3.7,2.1,5.5h-8.1c-1.6,0-2.8,0.7-3.5,1.9
		c-0.6,1.1-0.5,2.4,0.3,3.5c1.1,1.6,2.3,3.2,3.7,4.6c1,1.1,2.2,1.8,3.5,2.2c0.8,0.3,1.6,0.4,2.5,0.4c0.1,0,0.1,0,0.2,0h35.2
		c0,0,0.1,0,0.1,0c2.4,0,4.6-1,6.3-2.8c1.2-1.4,2.4-2.9,3.4-4.4c0.5-0.7,0.8-1.5,0.7-2.3c-0.1-1.8-1.7-3.2-3.6-3.2h-8.4
		c0.9-2.5,1.7-5,2.6-7.4l0,0c3.5-1.4,6.6-3.4,9.4-5.8c3.3-2.8,5.4-6.8,5.8-11.1C93,52.3,92.2,49.7,90.5,47.8z M70.9,32.5
		C70.9,32.5,70.9,32.5,70.9,32.5C70.9,32.5,70.9,32.5,70.9,32.5C70.9,32.5,70.9,32.5,70.9,32.5z M60.6,32.5
		C60.6,32.5,60.6,32.5,60.6,32.5C60.6,32.5,60.6,32.5,60.6,32.5C60.6,32.5,60.6,32.5,60.6,32.5z M50.2,32.5
		C50.2,32.5,50.2,32.5,50.2,32.5C50.2,32.5,50.2,32.5,50.2,32.5C50.2,32.5,50.2,32.5,50.2,32.5z M88.7,55c-0.3,3.3-1.9,6.3-4.4,8.5
		c-2.5,2.2-5.2,3.9-8.3,5.1c-0.9,0.4-1.7,1.1-2.1,2l-0.1,0.2c-1.1,3-2.1,5.9-3.1,8.9l0,0H46.9c-0.2-0.5-0.4-1-0.6-1.4
		c-0.7-1.8-1.5-3.5-2-5.2c-2-6.8-3.1-13.8-3.4-20.9c-0.2-3.3-0.3-6.6-0.3-9.4c0-0.6,0.1-1.5,0.5-1.9c0.5-0.5,1.3-0.6,2-0.6h31.7
		c0.6,0,1.4,0.1,1.8,0.6c0.5,0.5,0.6,1.3,0.6,1.9v6.8l2.2-0.2c0.5,0,1-0.1,1.4-0.1c0.9-0.1,1.8-0.2,2.6-0.2c1.9,0,3.3,0.5,4.2,1.5
		C88.5,51.6,88.9,53.1,88.7,55z"/>
</g>
</svg>
