<svg id="Layer_1" data-name="Layer 1" xmlns="http://www.w3.org/2000/svg" viewBox="0 0 100 100"><defs><style>.cls-1,.cls-3{fill:none;}.cls-1,.cls-2,.cls-3{stroke:#000;stroke-miterlimit:10;stroke-width:4px;}.cls-1,.cls-2{stroke-linecap:round;}</style></defs><path class="cls-1" d="M23.89,16.49h25a2.16,2.16,0,0,1,2.16,2.16v8.57a0,0,0,0,1,0,0H21.73a0,0,0,0,1,0,0V18.65A2.16,2.16,0,0,1,23.89,16.49Z"/><path class="cls-1" d="M21.73,27.23,14.49,37.77a6.5,6.5,0,0,0-1.14,3.67V77a6.48,6.48,0,0,0,6.48,6.48H41.34V39.43L48.09,31a2.31,2.31,0,0,0-1.8-3.75Z"/><rect class="cls-2" x="19.13" y="52.26" width="16.48" height="12.7" rx="2.76"/><path class="cls-1" d="M54.73,32.12l-3.65-4.89-9.74,12.2V83.52H53.7A6.63,6.63,0,0,0,56.22,83"/><path class="cls-3" d="M75.46,86.34H60.17a4.1,4.1,0,0,1-4.07-3.72L52,36.35A4.08,4.08,0,0,1,56,31.91H79.61a4.08,4.08,0,0,1,4.07,4.44L79.53,82.62A4.09,4.09,0,0,1,75.46,86.34Z"/><path d="M53.11,49.15l3,33.47a4.1,4.1,0,0,0,4.07,3.72H75.46a4.09,4.09,0,0,0,4.07-3.72l3-33.47Z"/></svg>