<svg id="Layer_1" data-name="Layer 1" xmlns="http://www.w3.org/2000/svg" viewBox="0 0 100 100"><defs><style>.cls-1,.cls-2{fill:none;}.cls-1,.cls-2,.cls-3{stroke:#000;stroke-miterlimit:10;}.cls-1{stroke-width:3px;}.cls-2,.cls-3{stroke-width:4px;}</style></defs><g id="_193" data-name="193"><path class="cls-1" d="M23.65,12.54a2.56,2.56,0,0,1,4.43,0l6.31,10.93,6.3,10.93a2.55,2.55,0,0,1-2.21,3.83H13.25A2.56,2.56,0,0,1,11,34.4l6.31-10.93Z"/><path d="M24,17.79a.93.93,0,0,1,.9-1.1H26.7a.94.94,0,0,1,.92,1.1l-.89,10.43a1,1,0,0,1-.95.92.92.92,0,0,1-.92-.92ZM25.78,31a1.74,1.74,0,0,1,1.81,1.76V33a1.74,1.74,0,0,1-1.81,1.76A1.77,1.77,0,0,1,24,33v-.26A1.76,1.76,0,0,1,25.78,31Z"/></g><path d="M68.94,80.46c0-4,5-12.69,8.1-17.6a2.7,2.7,0,0,1,4.59,0c3.06,4.91,8.09,13.6,8.09,17.6a10.39,10.39,0,0,1-20.78,0Z"/><path class="cls-2" d="M55.45,89.22a2.24,2.24,0,0,0,1.86,0A18.89,18.89,0,0,0,68,76.06c2.39-11.69-1.27-17-1.09-19.7s3.07-4.33,2-15.17C67.93,32.05,59.7,26.5,57.14,25a1.46,1.46,0,0,0-1.51,0c-2.56,1.51-10.8,7.06-11.71,16.2-1.09,10.84,1.8,12.46,2,15.17s-3.48,8-1.08,19.7A18.86,18.86,0,0,0,55.45,89.22Z"/><path class="cls-3" d="M68.85,41.19C67.93,32.05,59.7,26.5,57.14,25a1.46,1.46,0,0,0-1.51,0,29.94,29.94,0,0,0-4.13,3c3.45,2.59,8.44,7.47,9.14,14.48,1.08,10.84-1.81,12.46-2,15.17s3.48,8,1.09,19.7A18.12,18.12,0,0,1,53.16,88a20.28,20.28,0,0,0,2.29,1.27,2.24,2.24,0,0,0,1.86,0A18.89,18.89,0,0,0,68,76.06c2.39-11.69-1.27-17-1.09-19.7S69.93,52,68.85,41.19Z"/></svg>