<svg id="Layer_1" data-name="Layer 1" xmlns="http://www.w3.org/2000/svg" viewBox="0 0 100 100"><defs><style>.cls-1,.cls-2{fill:none;}.cls-1,.cls-2,.cls-3{stroke:#000;stroke-miterlimit:10;stroke-width:4px;}.cls-2{stroke-linecap:round;}</style></defs><path class="cls-1" d="M38.61,74.93H21.31a4.61,4.61,0,0,1-4.6-4.2L12,18.38a4.62,4.62,0,0,1,4.6-5H43.3a4.62,4.62,0,0,1,4.6,5L43.21,70.73A4.61,4.61,0,0,1,38.61,74.93Z"/><path d="M13.76,33.19l3.3,37.08a4.49,4.49,0,0,0,4.47,4.12H37.37a4.51,4.51,0,0,0,4.47-4.12l3.3-37.08Zm16.47,32.9A12.69,12.69,0,1,1,42.82,53.4,12.64,12.64,0,0,1,30.23,66.09Z"/><path d="M31,63a.74.74,0,0,0,.85.74,10.09,10.09,0,0,0,4.48-1.82.75.75,0,0,0,.09-1.14l-4.87-4.86a2.6,2.6,0,0,1-.55.21Z"/><path d="M23,47.38a.75.75,0,0,0-1.14.08A10.32,10.32,0,0,0,20,51.94a.75.75,0,0,0,.75.85h6.86a2.87,2.87,0,0,1,.22-.55Z"/><path d="M20.78,54.3a.75.75,0,0,0-.75.86,10.17,10.17,0,0,0,1.85,4.43.75.75,0,0,0,1.13.08l4.86-4.86a2.91,2.91,0,0,1-.22-.51Z"/><path d="M24.08,60.74a.74.74,0,0,0,.08,1.13,10.18,10.18,0,0,0,4.42,1.85.75.75,0,0,0,.87-.74V56.1a3.38,3.38,0,0,1-.52-.22Z"/><path d="M29.45,44a.75.75,0,0,0-.87-.74,10.34,10.34,0,0,0-4.49,1.89A.77.77,0,0,0,24,46.3l4.85,4.85a2.77,2.77,0,0,1,.58-.26Z"/><path d="M36.43,46.25a.74.74,0,0,0-.08-1.13,10.23,10.23,0,0,0-4.54-1.87A.75.75,0,0,0,31,44v6.86a2.78,2.78,0,0,1,.62.25Z"/><path d="M39.76,52.79a.76.76,0,0,0,.75-.86,10.41,10.41,0,0,0-1.88-4.54.74.74,0,0,0-1.13-.07l-4.86,4.85a2.81,2.81,0,0,1,.26.62Z"/><path d="M39.74,54.3H32.87a3.11,3.11,0,0,1-.26.59l4.85,4.85a.75.75,0,0,0,1.13-.08,10.35,10.35,0,0,0,1.9-4.5A.75.75,0,0,0,39.74,54.3Z"/><path class="cls-2" d="M58.13,82.21A26.52,26.52,0,0,0,80.34,57.1"/><path class="cls-1" d="M48,79.05a26.16,26.16,0,0,0,4.81-.32A26.31,26.31,0,0,0,74.53,47.61a1.88,1.88,0,0,1,1.56-2.25l3.66-.55a1.85,1.85,0,0,1,1.7.63,26.35,26.35,0,0,1-35,38.7A2.78,2.78,0,0,1,48,79.05Z"/><path class="cls-3" d="M73.05,36.83h4.83a0,0,0,0,1,0,0v7.86a1.73,1.73,0,0,1-1.73,1.73H74.78a1.73,1.73,0,0,1-1.73-1.73V36.83A0,0,0,0,1,73.05,36.83Z" transform="translate(161.24 50.05) rotate(156.73)"/></svg>