<svg id="Layer_1" data-name="Layer 1" xmlns="http://www.w3.org/2000/svg" viewBox="0 0 100 100"><defs><style>.cls-1,.cls-2{fill:none;stroke:#000;stroke-miterlimit:10;stroke-width:4px;}.cls-2{stroke-linecap:round;}</style></defs><circle class="cls-1" cx="26.19" cy="24.47" r="13.77"/><path d="M18,13.38a13.94,13.94,0,0,0-2.92,2.92L34.36,35.55a13.7,13.7,0,0,0,2.92-2.92Z"/><path class="cls-2" d="M52,16.1a1.9,1.9,0,0,0-1,2.95,111,111,0,0,1,6.4,10.67C59.86,34.55,61.73,40,61.62,45.5c-.13,6.58-3.09,13.25-9.56,15.31-8.22,2.6-15.89-3.79-24.14-3.14-6,.48-9,6.13-10,11.7-.33,2.07.07,16.82,1.91,16.82h5.46a1.53,1.53,0,0,0,1.44-2c-1.06-3.77-2.05-8-1.27-11.76C26.2,69.14,29,65.94,32.06,69c3.93,3.9,6.51,9.1,10.78,12.65,17.4,14.51,44-3.43,47.28-23.2C91.84,48.18,90,33.24,80,27.64,75.54,25.11,70.2,25.91,65.52,24c-3.57-1.45-6-4.65-7.79-8.07A1.57,1.57,0,0,0,56,15.09Z"/><path d="M50.45,70.88a2.44,2.44,0,0,1-2.55-2.52h0a2.43,2.43,0,0,1,2.42-2.54,2.3,2.3,0,0,1,2.34,2.35.63.63,0,0,1-.64.66H49.28a1.12,1.12,0,0,0,1.19,1,1.58,1.58,0,0,0,1-.32.48.48,0,0,1,.34-.11.53.53,0,0,1,.54.54.53.53,0,0,1-.19.41A2.47,2.47,0,0,1,50.45,70.88ZM51.34,68a1,1,0,0,0-1-1,1.09,1.09,0,0,0-1.06,1Z"/><path d="M53.72,66.54a.69.69,0,1,1,1.38,0v0a1.75,1.75,0,0,1,1.44-.78,1.47,1.47,0,0,1,1.38.77,2,2,0,0,1,1.6-.77c1,0,1.64.62,1.64,1.79v2.54a.69.69,0,1,1-1.38,0V68.06c0-.66-.29-1-.81-1s-.84.34-.84,1v2.08a.69.69,0,1,1-1.38,0V68.06c0-.66-.29-1-.81-1s-.84.34-.84,1v2.08a.69.69,0,1,1-1.38,0Z"/><path d="M62.37,66.54a.69.69,0,1,1,1.38,0v.06a1.78,1.78,0,0,1,1.52-.79,2.29,2.29,0,0,1,2.22,2.52v0a2.29,2.29,0,0,1-2.22,2.52,1.88,1.88,0,0,1-1.52-.73v1.45a.69.69,0,1,1-1.38,0Zm3.74,1.81v0a1.2,1.2,0,1,0-2.38,0v0a1.2,1.2,0,1,0,2.38,0Z"/><path d="M68.74,69.39V67.08h0a.59.59,0,0,1,0-1.18h0v-.61a.69.69,0,0,1,1.38,0v.61h.61a.59.59,0,0,1,0,1.18h-.61v2.09c0,.31.14.47.45.47h.16a.58.58,0,0,1,.58.57.56.56,0,0,1-.36.52,2,2,0,0,1-.79.14C69.31,70.86,68.74,70.52,68.74,69.39Z"/><path d="M72.55,72.13a.6.6,0,0,1-.44-.57.55.55,0,0,1,.54-.57.59.59,0,0,1,.23,0,.8.8,0,0,0,.29,0,.44.44,0,0,0,.49-.29l0-.11L72,66.83a1.23,1.23,0,0,1-.07-.32.66.66,0,0,1,.68-.67.68.68,0,0,1,.67.52l1.05,2.84,1-2.83a.71.71,0,0,1,.67-.53.65.65,0,0,1,.65.64,1,1,0,0,1-.06.33L75,70.89c-.41,1-.82,1.37-1.65,1.37A2.06,2.06,0,0,1,72.55,72.13Z"/></svg>