<svg id="Layer_1" data-name="Layer 1" xmlns="http://www.w3.org/2000/svg" viewBox="0 0 100 100"><defs><style>.cls-1{fill:none;stroke:#000;stroke-miterlimit:10;stroke-width:3px;}.cls-2{font-size:12px;}.cls-2,.cls-4{font-family:GothamRounded-Bold, Gotham Rounded;font-weight:700;}.cls-3{letter-spacing:2.28em;}.cls-4{font-size:8px;letter-spacing:-0.05em;}</style></defs><circle class="cls-1" cx="75.8" cy="25.06" r="13.77"/><text class="cls-2" transform="translate(72.28 25.18)">1<tspan class="cls-3" x="5.06" y="0">	</tspan></text><text class="cls-4" transform="translate(72.11 32.15)">hr</text><circle class="cls-1" cx="75.8" cy="76.23" r="13.77"/><text class="cls-2" transform="translate(72.28 76.36)">4</text><text class="cls-4" transform="translate(70.3 83.32)">hrs</text><path d="M58.28,44l-3.15-7.51h0V27a4.4,4.4,0,0,0-4.4-4.4h-32a4.4,4.4,0,0,0-4.4,4.4v9.48l-2.93,7.68a12.69,12.69,0,0,0-.82,4.48V86.27a4.32,4.32,0,0,0,4.31,4.32H55a4.32,4.32,0,0,0,4.31-4.32V48.83A12.53,12.53,0,0,0,58.28,44Zm-5.17,31.9a4.32,4.32,0,0,1-4.31,4.32H21a4.33,4.33,0,0,1-4.32-4.32v-21A4.32,4.32,0,0,1,21,50.55H48.8a4.31,4.31,0,0,1,4.31,4.32Z"/><rect x="27.49" y="62.21" width="15.91" height="5.87" transform="translate(-29.75 100.52) rotate(-89.94)"/><rect x="32.51" y="57.2" width="5.87" height="15.91" transform="translate(-29.75 100.5) rotate(-89.92)"/></svg>