<?xml version="1.0" encoding="utf-8"?>
<!-- Generator: Adobe Illustrator 24.0.0, SVG Export Plug-In . SVG Version: 6.00 Build 0)  -->
<svg version="1.1" id="Layer_1" xmlns="http://www.w3.org/2000/svg" xmlns:xlink="http://www.w3.org/1999/xlink" x="0px" y="0px"
	 viewBox="0 0 100 100" style="enable-background:new 0 0 100 100;" xml:space="preserve">
<g>
	<path d="M75.8,40.2c8.4,0,15.3-6.9,15.3-15.3S84.3,9.7,75.8,9.7S60.6,16.5,60.6,25S67.4,40.2,75.8,40.2z M75.8,12.7
		c6.8,0,12.3,5.5,12.3,12.3s-5.5,12.3-12.3,12.3S63.6,31.7,63.6,25S69.1,12.7,75.8,12.7z"/>
	<path d="M69.6,18.7c0.1,0,0.2,0,0.3,0l0.6-0.2v5.8c0,0.5,0.4,0.9,0.9,0.9s0.9-0.4,0.9-0.9v-6.8c0-0.5-0.4-0.9-0.9-0.9h0
		c-0.3,0-0.5,0.1-0.9,0.2l-1.2,0.3c-0.4,0.1-0.6,0.4-0.6,0.8C68.8,18.3,69.2,18.7,69.6,18.7z"/>
	<path d="M76.6,25.2c1.2,0,2.2-0.7,2.2-1.9v0c0-1.1-1-1.5-2-1.8c-0.8-0.3-1.6-0.5-1.6-1.1v0c0-0.5,0.5-0.9,1.2-0.9
		c0.5,0,1.1,0.2,1.6,0.5c0,0,0.1,0,0.2,0c0.2,0,0.4-0.2,0.4-0.4c0-0.2-0.1-0.3-0.2-0.4c-0.6-0.3-1.3-0.5-2-0.5
		c-1.2,0-2.1,0.7-2.1,1.8v0c0,1.1,1.1,1.5,2.1,1.8c0.8,0.2,1.5,0.5,1.5,1.1v0c0,0.6-0.5,1-1.3,1c-0.7,0-1.3-0.2-2-0.7
		c-0.1,0-0.1-0.1-0.2-0.1c-0.2,0-0.4,0.2-0.4,0.4c0,0.2,0.1,0.3,0.2,0.3C74.9,24.9,75.8,25.2,76.6,25.2z"/>
	<path d="M80.2,19.7h0.5v3.7c0,1.3,0.8,1.8,1.8,1.8c0.4,0,0.6-0.1,0.9-0.2c0.2-0.1,0.3-0.2,0.3-0.4c0-0.2-0.2-0.4-0.4-0.4
		c-0.1,0-0.2,0.1-0.6,0.1c-0.6,0-1-0.3-1-1v-3.6h1.6c0.2,0,0.4-0.2,0.4-0.4c0-0.2-0.2-0.4-0.4-0.4h-1.6v-1.5c0-0.3-0.2-0.5-0.5-0.5
		c-0.3,0-0.5,0.2-0.5,0.5v1.5h-0.5c-0.2,0-0.4,0.2-0.4,0.4C79.8,19.5,80,19.7,80.2,19.7z"/>
	<path d="M68,32.1c0.3,0,0.6-0.3,0.6-0.6v-1.8c0-0.6,0.3-0.9,0.7-0.9c0.5,0,0.7,0.3,0.7,0.9v1.8c0,0.3,0.3,0.6,0.6,0.6
		s0.6-0.3,0.6-0.6v-1.8c0-0.6,0.3-0.9,0.7-0.9s0.7,0.3,0.7,0.9v1.8c0,0.3,0.3,0.6,0.6,0.6s0.6-0.3,0.6-0.6v-2.2c0-1-0.5-1.6-1.4-1.6
		c-0.6,0-1,0.2-1.4,0.7c-0.2-0.4-0.6-0.7-1.2-0.7c-0.6,0-1,0.3-1.3,0.7v0c0-0.3-0.3-0.6-0.6-0.6s-0.6,0.3-0.6,0.6v3.2
		C67.4,31.8,67.7,32.1,68,32.1z"/>
	<path d="M76.5,27.7c-1.2,0-2.1,1-2.1,2.2v0c0,1.3,1,2.2,2.2,2.2c0.6,0,1.1-0.2,1.5-0.5c0.1-0.1,0.2-0.2,0.2-0.4
		c0-0.3-0.2-0.5-0.5-0.5c-0.1,0-0.2,0-0.3,0.1c-0.2,0.2-0.5,0.3-0.9,0.3c-0.5,0-0.9-0.3-1-0.8H78c0.3,0,0.6-0.2,0.6-0.6
		C78.6,28.9,78,27.7,76.5,27.7z M75.6,29.6c0.1-0.6,0.4-0.9,0.9-0.9c0.5,0,0.8,0.4,0.9,0.9H75.6z"/>
	<path d="M80.4,32.1c0.6,0,1-0.2,1.3-0.5v0c0,0.3,0.2,0.5,0.6,0.5c0.3,0,0.6-0.3,0.6-0.6v-2c0-0.6-0.1-1-0.5-1.4
		c-0.3-0.3-0.8-0.5-1.4-0.5c-0.6,0-1,0.1-1.4,0.2c-0.2,0.1-0.3,0.3-0.3,0.5c0,0.3,0.2,0.5,0.5,0.5c0.1,0,0.1,0,0.2,0
		c0.2-0.1,0.5-0.1,0.8-0.1c0.6,0,0.9,0.3,0.9,0.8v0.1c-0.3-0.1-0.6-0.2-1-0.2c-1,0-1.7,0.4-1.7,1.4v0C78.9,31.7,79.5,32.1,80.4,32.1
		z M80.1,30.8c0-0.4,0.3-0.6,0.8-0.6c0.3,0,0.6,0.1,0.8,0.2v0.2c0,0.4-0.4,0.8-1,0.8C80.3,31.3,80.1,31.1,80.1,30.8L80.1,30.8z"/>
	<path d="M83.5,31.5c0,0.3,0.3,0.6,0.6,0.6c0.3,0,0.6-0.3,0.6-0.6v-4.7c0-0.3-0.3-0.6-0.6-0.6c-0.3,0-0.6,0.3-0.6,0.6V31.5z"/>
	<path d="M39.2,48.2V26.3c0-1-0.2-1.9-0.6-2.8l-1.8-4.4v-5.5c0-1.4-1.2-2.6-2.6-2.6H15.5c-1.4,0-2.6,1.2-2.6,2.6v5.5l-1.7,4.5
		c-0.3,0.8-0.5,1.7-0.5,2.6v22c0,1.4,1.1,2.5,2.5,2.5h23.4C38.1,50.7,39.2,49.6,39.2,48.2z M33.1,44.6H16.8c-1.4,0-2.5-1.1-2.5-2.5
		V29.8c0-1.4,1.1-2.5,2.5-2.5h16.2c1.4,0,2.5,1.1,2.5,2.5l0,12.3C35.6,43.5,34.5,44.6,33.1,44.6z"/>
	<path d="M85.3,54.9c-0.5-0.1-0.9-0.1-1.4-0.1h-1.2c-1.6-2.3-4.1-3.9-6.9-4.4c-1.8-5-7-8-12.4-6.9c-0.6,0.1-1.2,0.3-1.7,0.5
		c-3.4-3.9-9.2-4.8-13.7-2c-2.5,1.6-4.3,4.1-4.9,7c-3.2,0.7-5.9,2.9-7.3,5.8h-1.4c-3.7,0-6.8,3.1-6.7,6.8c0,0.5,0.1,0.9,0.2,1.4
		c2,9.1,8.7,16.6,17.5,20.4v0.8c0,3.9,3.1,7,7,7h13.8c3.9,0,7-3.1,7-7v-0.9c8.7-3.9,15.4-11.3,17.4-20.4
		C91.3,59.2,88.9,55.6,85.3,54.9z M45,52.6l1.8-0.1l0.1-1.8c0.1-2.2,1.3-4.3,3.2-5.4c3.2-2,7.4-1,9.3,2.2l1,1.7l1.7-1
		c0.7-0.4,1.4-0.7,2.1-0.8c3.7-0.8,7.3,1.6,8,5.3l0.3,1.5l1.6,0.1c0.8,0,1.7,0.2,2.4,0.6h-36C41.7,53.5,43.3,52.7,45,52.6z
		 M66.1,87.1H52.2c-1.4,0-2.6-1-2.9-2.3c3.1,0.9,6.4,1.4,9.7,1.4c3.4,0,6.8-0.5,9.9-1.4C68.7,86.1,67.5,87.1,66.1,87.1z M85.9,61.9
		c-2.5,11.4-13.8,19.7-26.8,19.7c-13,0-24.3-8.3-26.8-19.6c0-0.1,0-0.3,0-0.4c0-1.2,0.9-2.1,2.1-2.1h49.5c0,0,0,0,0,0
		c0.1,0,0.3,0,0.4,0C85.4,59.7,86.2,60.8,85.9,61.9z"/>
</g>
</svg>
