<?xml version="1.0" encoding="utf-8"?>
<!-- Generator: Adobe Illustrator 24.0.0, SVG Export Plug-In . SVG Version: 6.00 Build 0)  -->
<svg version="1.1" id="Layer_1" xmlns="http://www.w3.org/2000/svg" xmlns:xlink="http://www.w3.org/1999/xlink" x="0px" y="0px"
	 viewBox="0 0 100 100" style="enable-background:new 0 0 100 100;" xml:space="preserve">
<g>
	<path d="M75.8,40.3c8.4,0,15.3-6.9,15.3-15.3S84.2,9.8,75.8,9.8s-15.3,6.9-15.3,15.3S67.4,40.3,75.8,40.3z M75.8,12.8
		c6.8,0,12.3,5.5,12.3,12.3s-5.5,12.3-12.3,12.3s-12.3-5.5-12.3-12.3S69,12.8,75.8,12.8z"/>
	<path d="M73.4,18.8c0.1,0,0.2,0,0.3,0l0.6-0.2v5.8c0,0.5,0.4,0.9,0.9,0.9s0.9-0.4,0.9-0.9v-6.8c0-0.5-0.4-0.9-0.9-0.9h0
		c-0.3,0-0.5,0.1-0.9,0.2l-1.2,0.3c-0.4,0.1-0.6,0.4-0.6,0.8C72.6,18.4,73,18.8,73.4,18.8z"/>
	<path d="M75.1,27.8c-0.6,0-1,0.3-1.3,0.7v-1.6c0-0.3-0.3-0.6-0.6-0.6s-0.6,0.3-0.6,0.6v4.7c0,0.3,0.3,0.6,0.6,0.6s0.6-0.3,0.6-0.6
		v-1.8c0-0.6,0.3-0.9,0.8-0.9s0.7,0.3,0.7,0.9v1.8c0,0.3,0.3,0.6,0.6,0.6s0.6-0.3,0.6-0.6v-2.2C76.6,28.4,76,27.8,75.1,27.8z"/>
	<path d="M77.8,32.2c0.3,0,0.6-0.3,0.6-0.6v-1.1c0-0.9,0.3-1.3,1-1.5c0.2-0.1,0.5-0.2,0.5-0.6c0-0.3-0.2-0.6-0.6-0.6
		c-0.4,0-0.6,0.4-0.8,0.8v-0.2c0-0.3-0.3-0.6-0.6-0.6s-0.6,0.3-0.6,0.6v3.2C77.2,31.9,77.5,32.2,77.8,32.2z"/>
	<path d="M75.8,61c-8.4,0-15.3,6.9-15.3,15.3s6.8,15.3,15.3,15.3s15.3-6.8,15.3-15.3S84.2,61,75.8,61z M75.8,88.5
		c-6.8,0-12.3-5.5-12.3-12.3S69,64,75.8,64s12.3,5.5,12.3,12.3S82.6,88.5,75.8,88.5z"/>
	<path d="M73.6,74.5h3.5v1c0,0.5,0.4,0.9,0.9,0.9c0.5,0,0.9-0.4,0.9-0.9v-1h0.4c0.4,0,0.8-0.3,0.8-0.7S79.7,73,79.3,73h-0.4v-4.3
		c0-0.5-0.4-0.9-0.9-0.9c-0.5,0-0.8,0.2-1.2,0.6l-3.6,4.2c-0.3,0.3-0.4,0.6-0.4,1C72.7,74.2,73.1,74.5,73.6,74.5z M77.1,70.4V73
		h-2.2L77.1,70.4z"/>
	<path d="M73.3,79c-0.6,0-1,0.3-1.3,0.7V78c0-0.3-0.3-0.6-0.6-0.6s-0.6,0.3-0.6,0.6v4.7c0,0.3,0.3,0.6,0.6,0.6s0.6-0.3,0.6-0.6v-1.8
		c0-0.6,0.3-0.9,0.8-0.9s0.7,0.3,0.7,0.9v1.8c0,0.3,0.3,0.6,0.6,0.6s0.6-0.3,0.6-0.6v-2.2C74.8,79.6,74.2,79,73.3,79z"/>
	<path d="M77.5,79c-0.4,0-0.6,0.4-0.8,0.8v-0.2c0-0.3-0.3-0.6-0.6-0.6s-0.6,0.3-0.6,0.6v3.2c0,0.3,0.3,0.6,0.6,0.6s0.6-0.3,0.6-0.6
		v-1.1c0-0.9,0.3-1.3,1-1.5c0.2-0.1,0.5-0.2,0.5-0.6C78.1,79.2,77.8,79,77.5,79z"/>
	<path d="M80.2,80.7c-0.5-0.2-0.9-0.3-0.9-0.5v0c0-0.2,0.2-0.3,0.4-0.3c0.3,0,0.6,0.1,0.9,0.3c0.1,0,0.1,0.1,0.2,0.1
		c0.3,0,0.5-0.2,0.5-0.5c0-0.2-0.1-0.4-0.3-0.5c-0.4-0.2-0.9-0.3-1.3-0.3c-0.9,0-1.6,0.5-1.6,1.4v0c0,0.8,0.7,1.1,1.3,1.3
		c0.5,0.1,0.9,0.2,0.9,0.5v0c0,0.2-0.2,0.3-0.5,0.3c-0.3,0-0.8-0.1-1.2-0.4c-0.1,0-0.2-0.1-0.2-0.1c-0.3,0-0.5,0.2-0.5,0.5
		c0,0.2,0.1,0.3,0.2,0.4c0.5,0.3,1.1,0.5,1.6,0.5c0.9,0,1.6-0.4,1.6-1.4v0C81.5,81.2,80.8,80.9,80.2,80.7z"/>
	<path d="M55.1,36.5V27c0-2.4-2-4.4-4.4-4.4h-32c-2.4,0-4.4,2-4.4,4.4v9.5l-2.9,7.7c-0.5,1.4-0.8,2.9-0.8,4.5v37.6
		c0,2.4,1.9,4.3,4.3,4.3H55c2.4,0,4.3-1.9,4.3-4.3V48.8c0-1.7-0.4-3.3-1-4.8L55.1,36.5z M53.1,54.9v21c0,2.4-1.9,4.3-4.3,4.3H21
		c-2.4,0-4.3-1.9-4.3-4.3v-21c0-2.4,1.9-4.3,4.3-4.3c0,0,0,0,0,0h27.8C51.2,50.5,53.1,52.5,53.1,54.9C53.1,54.9,53.1,54.9,53.1,54.9
		z"/>
	<polygon points="38.4,57.2 32.5,57.2 32.5,62.2 27.5,62.2 27.5,68.1 32.5,68.1 32.5,73.1 38.4,73.1 38.4,68.1 43.4,68.1 43.4,62.2 
		38.4,62.2 	"/>
</g>
</svg>
