<?xml version="1.0" encoding="utf-8"?>
<!-- Generator: Adobe Illustrator 24.0.0, SVG Export Plug-In . SVG Version: 6.00 Build 0)  -->
<svg version="1.1" id="Layer_1" xmlns="http://www.w3.org/2000/svg" xmlns:xlink="http://www.w3.org/1999/xlink" x="0px" y="0px"
	 viewBox="0 0 100 100" style="enable-background:new 0 0 100 100;" xml:space="preserve">
<g>
	<path d="M91.1,63.5c-0.6-4.2-2.7-7.6-6.2-9.9c-4.2-2.6-9.3-3.4-14-2.2c0.1-1.2,0.4-2.6,0.9-3.5c1.7-2.8,3.3-3.5,3.4-3.6
		c1-0.4,1.5-1.5,1.1-2.6c-0.4-1-1.5-1.6-2.6-1.2c-0.3,0.1-2.6,1.1-4.9,4.4c-0.1,0-0.1-0.1-0.2-0.1c-1.4-1.1-3.3-2-5.4-2.7
		c-2.1-0.7-4.2-1-5.9-0.9c-3.2,0.2-4.2,1.7-4.4,2.6c-0.3,0.9-0.4,2.7,2.1,4.7c1.1,0.9,2.6,1.7,4.3,2.3c-2.2,0.3-4.4,1-6.5,2
		c-4.3-6-11.4-9.9-19.3-9.9c-13.1,0-23.8,10.7-23.8,23.8s10.7,23.8,23.8,23.8c7,0,13.3-3,17.6-7.8c0.6,0.9,1.3,1.8,2,2.6
		c3.3,3.8,7.5,5.5,12,4.9l0.4-0.1c0.9-0.3,1.8-0.5,2.7-0.6c0.9,0.1,1.8,0.3,2.7,0.6l0.4,0.1c0.6,0.1,1.3,0.1,1.9,0.1
		c3.8,0,7.2-1.7,10.1-5C87.9,80.4,92.2,71.3,91.1,63.5z M33.6,86.7c-10.9,0-19.8-8.9-19.8-19.8s8.9-19.8,19.8-19.8
		S53.4,56,53.4,66.9S44.5,86.7,33.6,86.7z M80.4,82.9c-2.4,2.8-5.1,4-8.3,3.6c-1.2-0.4-2.4-0.6-3.6-0.7l-0.2,0l-0.2,0
		c-1.2,0.1-2.5,0.3-3.6,0.7c-3.1,0.4-5.9-0.8-8.2-3.6c-0.9-1.1-1.8-2.2-2.5-3.4c2.3-3.7,3.6-8,3.6-12.6c0-3.8-0.9-7.3-2.4-10.5
		c3.5-1.8,7.5-2.1,11.3-0.8c1.4,0.5,2.9,0.5,4.2,0c4.1-1.4,8.6-0.9,12.3,1.3c2.5,1.6,4,4,4.4,7.1C88.1,70.3,84.4,78.3,80.4,82.9z"/>
	<path d="M43.9,79.2L35.7,71c-0.3,0.2-0.6,0.3-0.9,0.4v11.5c0,0.7,0.6,1.3,1.2,1.3c0.1,0,0.1,0,0.2,0c2.7-0.4,5.3-1.5,7.5-3.1
		c0.6-0.4,0.7-1.2,0.3-1.8C44,79.3,44,79.2,43.9,79.2z"/>
	<path d="M17.4,65.7c0.1,0,0.1,0,0.2,0h11.5c0.1-0.3,0.2-0.6,0.4-0.9l-8.2-8.2c-0.5-0.5-1.3-0.5-1.8,0c0,0-0.1,0.1-0.1,0.1
		c-1.6,2.2-2.7,4.8-3.1,7.5C16.3,65,16.7,65.6,17.4,65.7z"/>
	<path d="M29.2,68.3H17.6c-0.7,0-1.3,0.6-1.3,1.3c0,0.1,0,0.1,0,0.2c0.4,2.7,1.5,5.3,3.1,7.5c0.4,0.6,1.2,0.7,1.8,0.3
		c0.1,0,0.1-0.1,0.1-0.1l8.2-8.2C29.4,68.8,29.3,68.6,29.2,68.3z"/>
	<path d="M23.2,79.1c-0.5,0.5-0.5,1.3,0,1.8c0,0,0.1,0.1,0.1,0.1c2.2,1.6,4.8,2.7,7.4,3.1c0.7,0.1,1.3-0.4,1.4-1.1
		c0-0.1,0-0.1,0-0.2V71.3c-0.3-0.1-0.6-0.2-0.9-0.4L23.2,79.1z"/>
	<path d="M31,49.7c-0.1,0-0.1,0-0.2,0c-2.7,0.4-5.3,1.5-7.6,3.2c-0.6,0.4-0.7,1.2-0.3,1.7c0,0.1,0.1,0.1,0.1,0.2l8.2,8.2
		c0.3-0.2,0.7-0.3,1-0.4l0-11.6C32.3,50.2,31.7,49.7,31,49.7z"/>
	<path d="M44,54.7c0.5-0.5,0.5-1.3,0-1.8c0,0-0.1-0.1-0.1-0.1c-2.3-1.6-4.9-2.7-7.6-3.1c-0.7-0.1-1.3,0.4-1.4,1.1c0,0.1,0,0.1,0,0.2
		v11.6c0.3,0.1,0.7,0.2,1,0.4L44,54.7z"/>
	<path d="M38,65.7l11.6,0c0.7,0,1.3-0.6,1.3-1.3c0-0.1,0-0.1,0-0.2c-0.4-2.8-1.5-5.4-3.2-7.6c-0.4-0.6-1.2-0.7-1.8-0.3
		c-0.1,0-0.1,0.1-0.1,0.1l-8.2,8.2C37.8,65,37.9,65.3,38,65.7z"/>
	<path d="M49.8,68.3c-0.1,0-0.1,0-0.2,0H38c-0.1,0.3-0.2,0.7-0.4,1l8.2,8.2c0.5,0.5,1.3,0.5,1.8,0c0,0,0.1-0.1,0.1-0.1
		c1.7-2.2,2.8-4.8,3.2-7.6C50.9,69,50.5,68.4,49.8,68.3z"/>
	<path d="M24.6,40.8c8.7,0,15.8-7.1,15.8-15.8S33.3,9.3,24.6,9.3S8.9,16.3,8.9,25S15.9,40.8,24.6,40.8z M36.4,25
		c0,2.5-0.8,4.8-2.1,6.7L17.9,15.4c1.9-1.3,4.2-2.1,6.7-2.1C31.1,13.3,36.4,18.5,36.4,25z M15,18.3l16.4,16.4
		c-1.9,1.3-4.2,2.1-6.7,2.1c-6.5,0-11.8-5.3-11.8-11.8C12.9,22.5,13.6,20.2,15,18.3z"/>
</g>
</svg>
