<svg id="Layer_1" data-name="Layer 1" xmlns="http://www.w3.org/2000/svg" viewBox="0 0 100 100"><defs><style>.cls-1{fill:none;stroke:#000;stroke-miterlimit:10;stroke-width:4px;}</style></defs><circle class="cls-1" cx="25" cy="25.42" r="13.77"/><path d="M16.84,14.34a13.7,13.7,0,0,0-2.92,2.92L33.17,36.51a13.94,13.94,0,0,0,2.92-2.92Z"/><path class="cls-1" d="M76.41,87H56.18a5.4,5.4,0,0,1-5.38-4.92l-5.48-61.2A5.39,5.39,0,0,1,50.69,15h31.2a5.4,5.4,0,0,1,5.38,5.88l-5.48,61.2A5.41,5.41,0,0,1,76.41,87Z"/><path d="M46.83,37.85l4,44.27A5.4,5.4,0,0,0,56.18,87H76.41a5.41,5.41,0,0,0,5.38-4.92l4-44.27Zm22.38,6A1.26,1.26,0,1,1,68,45.11,1.26,1.26,0,0,1,69.21,43.85ZM66.44,57.29a2.25,2.25,0,1,1,1.25,2.93A2.26,2.26,0,0,1,66.44,57.29ZM60.62,51.5a1.85,1.85,0,1,1,1.84,1.84A1.84,1.84,0,0,1,60.62,51.5Zm6.21,26.41A5.16,5.16,0,1,1,72,72.75,5.16,5.16,0,0,1,66.83,77.91Z"/><circle cx="63.26" cy="33.95" r="1.26"/><circle cx="65.3" cy="26.94" r="1.26"/><circle cx="60.49" cy="22.75" r="1.26"/><circle cx="68.27" cy="32.23" r="1.26"/></svg>