<?xml version="1.0" encoding="utf-8"?>
<!-- Generator: Adobe Illustrator 24.2.3, SVG Export Plug-In . SVG Version: 6.00 Build 0)  -->
<svg version="1.1" id="Layer_1" xmlns="http://www.w3.org/2000/svg" xmlns:xlink="http://www.w3.org/1999/xlink" x="0px" y="0px"
	 viewBox="0 0 100 100" style="enable-background:new 0 0 100 100;" xml:space="preserve">
<path d="M21.7,5.7c-8.8,0-15.9,7.1-15.9,15.9s7.1,15.9,15.9,15.9c8.8,0,15.9-7.1,15.9-15.9c0,0,0,0,0,0C37.5,12.8,30.4,5.7,21.7,5.7
	z M21.6,35.9c-7.9,0-14.4-6.5-14.3-14.4S13.7,7.2,21.7,7.2c0,0,0.1,0,0.1,0V12c5.2,0.4,9.2,5,8.7,10.3c-0.4,4.7-4.1,8.4-8.7,8.7v4.9
	C21.7,35.9,21.7,35.9,21.6,35.9z"/>
<path d="M14.7,24.6c-0.1-0.1-0.2-0.3-0.2-0.5c0-0.4,0.3-0.7,0.7-0.7c0.2,0,0.3,0.1,0.5,0.2c0.5,0.5,1.1,0.8,1.8,0.8
	c0.7,0.1,1.3-0.4,1.4-1.1c0,0,0-0.1,0-0.1l0,0c0-0.8-0.7-1.2-1.8-1.2h-0.3c-0.3,0-0.6-0.3-0.6-0.6l0,0c0-0.2,0.1-0.4,0.3-0.6l1.9-2
	h-2.9c-0.3,0-0.6-0.3-0.6-0.6c0,0,0,0,0,0c0-0.3,0.3-0.6,0.6-0.6c0,0,0,0,0,0h4c0.3,0,0.7,0.2,0.7,0.6c0,0,0,0,0,0.1
	c0,0.3-0.2,0.6-0.4,0.8l-1.9,1.9c1.2,0.1,2.3,0.8,2.3,2.2l0,0c0,1.4-1.1,2.5-2.5,2.5c-0.1,0-0.1,0-0.2,0
	C16.4,25.6,15.4,25.2,14.7,24.6z"/>
<path d="M21.5,21.5L21.5,21.5c0-2.3,1.4-4.1,3.5-4.1s3.5,1.8,3.5,4.1l0,0c0,2.3-1.4,4.1-3.5,4.1S21.5,23.8,21.5,21.5z M27,21.5
	L27,21.5c0-1.6-0.8-2.9-2-2.9s-2,1.2-2,2.8l0,0c0,1.6,0.8,2.9,2,2.9S27,23.1,27,21.5L27,21.5z"/>
<path d="M79.4,38.6c-9.2,0-16.7-7.5-16.7-16.6c0-9.2,7.5-16.7,16.7-16.7S96,12.7,96,21.9C96,31.1,88.5,38.6,79.4,38.6z M79.4,9.3
	c-7,0-12.7,5.7-12.7,12.7c0,7,5.7,12.6,12.7,12.6c7,0,12.6-5.7,12.6-12.6C92,15,86.3,9.3,79.4,9.3z"/>
<path d="M85.8,19.9h-4.3c0,0-0.1-0.1-0.1-0.1V13c0-1.1-0.9-2-2-2s-2,0.9-2,2v6.8c-0.6,0.5-0.9,1.3-0.9,2.1c0,1.6,1.3,2.9,2.9,2.9
	c0.8,0,1.6-0.4,2.1-0.9h4.3c1.1,0,2-0.9,2-2S86.9,19.9,85.8,19.9z"/>
<path d="M86.5,49.7c-1.1-1.7-2.9-2.9-4.9-3.3c-0.5-0.1-1.1-0.2-1.6-0.2h-1.5c-2-2.9-5.1-4.9-8.5-5.5c-2-6-8.2-9.7-14.6-8.3
	c-0.8,0.2-1.6,0.4-2.3,0.7c-1.7-2.1-4.1-3.5-6.8-4.1c-3.3-0.8-6.7-0.2-9.5,1.6c-3,1.9-5.1,5-5.8,8.4c-4,0.8-7.4,3.6-9,7.3h-1.9
	c0,0,0,0,0,0c-4.2,0-7.7,3.4-7.7,7.7c0,0.5,0.1,1.1,0.2,1.6c2.5,11,10.6,19.9,21.2,24.5v1.3c0,4.4,3.6,8,8,8h16.8c4.4,0,8-3.6,8-8
	V80c10.6-4.6,18.6-13.5,21-24.4C88.1,53.5,87.7,51.5,86.5,49.7z M33.1,42.7l1.8-0.1l0.1-1.8c0.1-2.8,1.7-5.4,4.1-6.9
	c2-1.2,4.3-1.6,6.5-1.1s4.1,1.9,5.4,3.8l1,1.7l1.7-1c0.8-0.5,1.7-0.9,2.7-1.1c4.6-1,9.2,2,10.2,6.7l0.3,1.5l1.6,0.1
	c1.7,0.1,3.4,0.7,4.7,1.7H26.7C28.2,44.3,30.5,42.9,33.1,42.7z M58.6,85.4H41.8c-2.2,0-3.9-1.7-4-3.9c3.9,1.2,8,1.9,12.3,1.9
	c4.3,0,8.5-0.7,12.5-1.9C62.5,83.6,60.8,85.4,58.6,85.4z M83.1,54.6c-3.1,14-17,24.2-33,24.2c-16,0-29.8-10.2-33-24.1
	c0-0.2-0.1-0.4-0.1-0.6c0-1.7,1.4-3,3.1-3c0,0,0,0,0,0h59.9c0.2,0,0.4,0,0.6,0.1c0.8,0.2,1.5,0.6,1.9,1.3S83.2,53.8,83.1,54.6z"/>
</svg>
