<svg id="Layer_1" data-name="Layer 1" xmlns="http://www.w3.org/2000/svg" viewBox="0 0 100 100"><defs><style>.cls-1,.cls-3{fill:none;}.cls-1,.cls-2,.cls-3{stroke:#000;stroke-miterlimit:10;stroke-width:4px;}.cls-3{stroke-linecap:round;}</style></defs><circle class="cls-1" cx="24.76" cy="24.75" r="13.77"/><path d="M16.6,13.67a13.7,13.7,0,0,0-2.92,2.92L32.93,35.84a13.94,13.94,0,0,0,2.92-2.92Z"/><path class="cls-1" d="M79.12,47.35c1.39-.12,2.78-.35,4.18-.36,5,0,7.86,3.2,7.4,8.22A14.68,14.68,0,0,1,85.63,65a31,31,0,0,1-8.84,5.49,2.07,2.07,0,0,0-1.08,1c-1.22,3.38-2.37,6.79-3.56,10.28h9.47c.59,0,1.19,0,1.77,0a1.41,1.41,0,0,1,1.19,2.3,40.6,40.6,0,0,1-3.31,4.3,6.5,6.5,0,0,1-4.87,2.08q-17.6,0-35.19,0a6.28,6.28,0,0,1-4.75-2A39.38,39.38,0,0,1,33,84.06c-.8-1.17-.05-2.28,1.51-2.29,3.26,0,6.52,0,9.78,0h1.27c-1.07-2.74-2.29-5.36-3.15-8.1A89.9,89.9,0,0,1,38.91,52.3c-.21-3.16-.29-6.33-.35-9.5-.06-3,1.49-4.52,4.48-4.53H74.7c2.83,0,4.43,1.63,4.42,4.49Z"/><path class="cls-2" d="M81.62,81.77c.59,0,1.19,0,1.77,0a1.41,1.41,0,0,1,1.19,2.3,40.6,40.6,0,0,1-3.31,4.3,6.5,6.5,0,0,1-4.87,2.08q-17.6,0-35.19,0a6.28,6.28,0,0,1-4.75-2A39.38,39.38,0,0,1,33,84.06c-.8-1.17-.05-2.28,1.51-2.29,3.26,0,6.52,0,9.78,0Z"/><path class="cls-3" d="M50.23,21.72c-2,1.44-4.24,3.5-3.85,5.33.56,2.68,5.5,3,5.75,5.15.12,1,0,2.29-5.23,4.61"/><path class="cls-3" d="M60.63,21.72c-2,1.44-4.23,3.5-3.85,5.33.57,2.68,5.51,3,5.76,5.15.11,1,0,2.29-5.23,4.61"/><path class="cls-3" d="M71,21.72c-2,1.44-4.23,3.5-3.85,5.33.57,2.68,5.51,3,5.76,5.15.11,1,0,2.29-5.23,4.61"/></svg>