<svg id="Layer_1" data-name="Layer 1" xmlns="http://www.w3.org/2000/svg" viewBox="0 0 100 100"><defs><style>.cls-1{fill:none;stroke:#000;stroke-linecap:round;stroke-miterlimit:10;stroke-width:4px;}</style></defs><path class="cls-1" d="M47.86,12.15a2.09,2.09,0,0,0-1.14,3.24,121.8,121.8,0,0,1,7,11.72c2.75,5.31,4.81,11.24,4.69,17.33C58.3,51.67,55.05,59,47.94,61.26c-9,2.87-17.46-4.16-26.52-3.44-6.61.52-9.94,6.73-10.93,12.85-.37,2.27.08,18.48,2.1,18.48h6A1.69,1.69,0,0,0,20.17,87c-1.16-4.15-2.26-8.77-1.4-12.92.75-3.65,3.83-7.17,7.19-3.83,4.32,4.28,7.16,10,11.84,13.9,19.13,15.94,48.29-3.77,52-25.49C91.64,47.39,89.59,31,78.67,24.83c-4.94-2.78-10.8-1.91-16-4C58.8,19.24,56.1,15.72,54.17,12a1.73,1.73,0,0,0-2-.93Z"/><path d="M46.17,74.33a2.68,2.68,0,0,1-2.8-2.76v0A2.67,2.67,0,0,1,46,68.76a2.53,2.53,0,0,1,2.58,2.58.69.69,0,0,1-.71.73h-3a1.24,1.24,0,0,0,1.31,1,1.81,1.81,0,0,0,1.08-.35.52.52,0,0,1,.37-.13.58.58,0,0,1,.59.6.6.6,0,0,1-.2.45A2.78,2.78,0,0,1,46.17,74.33Zm1-3.21A1.15,1.15,0,0,0,46,70a1.19,1.19,0,0,0-1.16,1.14Z"/><path d="M49.76,69.56a.76.76,0,0,1,1.52,0v.06a1.91,1.91,0,0,1,1.58-.86,1.6,1.6,0,0,1,1.51.85,2.21,2.21,0,0,1,1.76-.85c1.13,0,1.81.68,1.81,2v2.78a.76.76,0,1,1-1.52,0V71.23c0-.72-.32-1.09-.89-1.09s-.92.37-.92,1.09v2.28a.76.76,0,0,1-1.52,0V71.23c0-.72-.32-1.09-.89-1.09s-.92.37-.92,1.09v2.28a.76.76,0,1,1-1.52,0Z"/><path d="M59.26,69.56a.76.76,0,1,1,1.52,0v.07a2,2,0,0,1,1.67-.87,2.52,2.52,0,0,1,2.44,2.77v0a2.51,2.51,0,0,1-2.44,2.76,2.06,2.06,0,0,1-1.67-.8v1.6a.76.76,0,0,1-1.52,0Zm4.11,2v0a1.32,1.32,0,1,0-2.61,0v0a1.31,1.31,0,1,0,2.61,0Z"/><path d="M66.26,72.69V70.16h-.05a.65.65,0,0,1,0-1.3h.05v-.67a.76.76,0,1,1,1.52,0v.67h.67a.65.65,0,1,1,0,1.3h-.67v2.29c0,.35.15.51.49.51h.18a.63.63,0,0,1,.63.63.62.62,0,0,1-.39.57,2.24,2.24,0,0,1-.87.15C66.89,74.3,66.26,73.93,66.26,72.69Z"/><path d="M70.44,75.7a.66.66,0,0,1-.48-.63.61.61,0,0,1,.6-.62.72.72,0,0,1,.25,0,1,1,0,0,0,.32.06.5.5,0,0,0,.54-.32l0-.12-1.83-4.23a1.11,1.11,0,0,1-.08-.35.72.72,0,0,1,.75-.73.74.74,0,0,1,.73.57l1.16,3.11,1.12-3.1a.77.77,0,0,1,.73-.58.71.71,0,0,1,.72.7,1.15,1.15,0,0,1-.07.36l-1.87,4.48c-.45,1.09-.9,1.5-1.81,1.5A2.29,2.29,0,0,1,70.44,75.7Z"/></svg>