<svg xmlns="http://www.w3.org/2000/svg" viewBox="0 0 84.28 83.76"><defs><style>.cls-1{fill:none;}.cls-1,.cls-2{stroke:#000;stroke-miterlimit:10;stroke-width:4px;}</style></defs><g id="Layer_2" data-name="Layer 2"><g id="Layer_1-2" data-name="Layer 1"><path class="cls-1" d="M68.53,29.5A13.75,13.75,0,1,1,82.28,15.75,13.77,13.77,0,0,1,68.53,29.5Z"/><path d="M61.89,12.71,61,13a.82.82,0,0,1-.26,0,.65.65,0,0,1-.65-.62.64.64,0,0,1,.49-.64l1.27-.41a2.75,2.75,0,0,1,.72-.13h0a.72.72,0,0,1,.73.73V19a.73.73,0,0,1-1.46,0Z"/><path d="M67.21,11.62a.72.72,0,0,1,.72-.72.73.73,0,0,1,.74.72v2.73a2.27,2.27,0,0,1,2-1.1,2.17,2.17,0,0,1,2.26,2.42v3.38a.7.7,0,0,1-.72.72.71.71,0,0,1-.73-.72V16.12c0-1-.49-1.55-1.36-1.55a1.4,1.4,0,0,0-1.42,1.57v2.91a.73.73,0,0,1-1.46,0Z"/><path d="M73.75,14a.72.72,0,0,1,.72-.73.73.73,0,0,1,.74.73v.65A2,2,0,0,1,76.8,13.3a.71.71,0,0,1,.14,1.41c-1,.18-1.73,1-1.73,2.47v1.87a.73.73,0,0,1-.74.72.72.72,0,0,1-.72-.72Z"/><circle class="cls-1" cx="15.77" cy="15.87" r="13.77"/><path d="M7.6,4.78A13.94,13.94,0,0,0,4.68,7.7L23.93,27A13.7,13.7,0,0,0,26.85,24Z"/><g id="_110" data-name="110"><path d="M38.82,20.17l6.69.1a3.34,3.34,0,0,1,3.35,3.28v5.71l-13.48-.19V23.46A3.34,3.34,0,0,1,38.82,20.17Z"/><path class="cls-2" d="M48.68,30.09l-13.1-.19a7.81,7.81,0,0,0-8,7.55L27,73.8a7.77,7.77,0,0,0,7.79,7.77l13.11.19a7.79,7.79,0,0,0,8-7.55l.56-36.35A7.78,7.78,0,0,0,48.68,30.09Zm6.26,41.53-26.88-.38.49-32,26.87.38Z"/></g><path d="M35.05,51.55v0c0-.84.64-1.23,1.56-1.23a2.56,2.56,0,0,1,.94.16v-.07c0-.45-.28-.7-.83-.7a2.28,2.28,0,0,0-.75.11.5.5,0,0,1-.16,0,.44.44,0,0,1-.46-.44.47.47,0,0,1,.3-.43,3.33,3.33,0,0,1,1.23-.2,1.78,1.78,0,0,1,1.3.43,1.7,1.7,0,0,1,.42,1.24v1.75a.53.53,0,0,1-.53.53.49.49,0,0,1-.53-.45h0a1.48,1.48,0,0,1-1.16.49A1.2,1.2,0,0,1,35.05,51.55Zm2.51-.25v-.2a1.6,1.6,0,0,0-.69-.14c-.47,0-.76.18-.76.53h0c0,.3.24.47.6.47S37.56,51.69,37.56,51.3Z"/><path d="M39.55,49.3a.55.55,0,1,1,1.09,0v0a1.39,1.39,0,0,1,1.13-.62,1.28,1.28,0,0,1,1.32,1.44v2a.55.55,0,1,1-1.1,0V50.5c0-.52-.24-.78-.66-.78s-.69.26-.69.78v1.65a.55.55,0,1,1-1.09,0Z"/><path d="M44.22,51.56V49.73h0a.47.47,0,0,1,0-.94h0v-.48a.55.55,0,1,1,1.09,0v.48h.49a.47.47,0,1,1,0,.94h-.49v1.65c0,.25.11.38.36.38h.13a.45.45,0,0,1,.45.45.43.43,0,0,1-.28.41,1.61,1.61,0,0,1-.63.11C44.67,52.72,44.22,52.45,44.22,51.56Z"/><path d="M46.86,50.42a.52.52,0,0,1,.52-.52h1.26a.52.52,0,0,1,.52.52.52.52,0,0,1-.52.53H47.38A.53.53,0,0,1,46.86,50.42Z"/><path d="M32.87,60.2v0c0-.84.64-1.23,1.56-1.23a2.79,2.79,0,0,1,.94.16v-.06c0-.46-.28-.71-.83-.71a2.33,2.33,0,0,0-.75.11l-.16,0a.45.45,0,0,1-.45-.45.47.47,0,0,1,.29-.43,3.37,3.37,0,0,1,1.23-.2,1.78,1.78,0,0,1,1.31.44,1.65,1.65,0,0,1,.41,1.23v1.75a.52.52,0,0,1-.53.53.48.48,0,0,1-.52-.45h0a1.49,1.49,0,0,1-1.17.49A1.2,1.2,0,0,1,32.87,60.2ZM35.39,60v-.2a1.65,1.65,0,0,0-.7-.14c-.47,0-.76.19-.76.53v0c0,.29.25.46.6.46C35,60.62,35.39,60.34,35.39,60Z"/><path d="M37.18,59.4v0a2,2,0,0,1,2-2,1.93,1.93,0,0,1,1.32.44.46.46,0,0,1,.17.37.5.5,0,0,1-.81.38,1.07,1.07,0,0,0-.69-.24,1,1,0,0,0-.94,1h0a1,1,0,0,0,1,1.07,1.07,1.07,0,0,0,.72-.27.56.56,0,0,1,.3-.1.46.46,0,0,1,.46.47.45.45,0,0,1-.16.35,1.91,1.91,0,0,1-1.37.49A2,2,0,0,1,37.18,59.4Z"/><path d="M41.47,56.52a.63.63,0,0,1,1.23,0v0a.62.62,0,0,1-1.23,0ZM41.54,58a.55.55,0,1,1,1.09,0V60.8a.55.55,0,1,1-1.09,0Z"/><path d="M47.55,60.8a.55.55,0,1,1-1.1,0v0a1.41,1.41,0,0,1-1.2.63,1.82,1.82,0,0,1-1.76-2h0a1.81,1.81,0,0,1,1.76-2,1.48,1.48,0,0,1,1.2.58v-1.4a.55.55,0,0,1,1.1,0Zm-3-1.43h0a.95.95,0,1,0,1.88,0h0a.95.95,0,1,0-1.88,0Z"/><path d="M48.43,60.94a.42.42,0,0,1-.21-.37.43.43,0,0,1,.43-.44.51.51,0,0,1,.22.06,2,2,0,0,0,1,.35c.32,0,.47-.12.47-.29v0c0-.23-.38-.31-.8-.44s-1.16-.41-1.16-1.16v0a1.26,1.26,0,0,1,1.41-1.22,2.79,2.79,0,0,1,1.2.29.45.45,0,0,1,.26.41.43.43,0,0,1-.44.44.46.46,0,0,1-.2-.05,2,2,0,0,0-.84-.25c-.26,0-.4.12-.4.27h0c0,.22.37.32.79.46s1.16.44,1.16,1.15h0c0,.86-.64,1.25-1.47,1.25A2.72,2.72,0,0,1,48.43,60.94Z"/></g></g></svg>