<?xml version="1.0" encoding="utf-8"?>
<!-- Generator: Adobe Illustrator 24.0.0, SVG Export Plug-In . SVG Version: 6.00 Build 0)  -->
<svg version="1.1" id="Layer_1" xmlns="http://www.w3.org/2000/svg" xmlns:xlink="http://www.w3.org/1999/xlink" x="0px" y="0px"
	 viewBox="0 0 100 100" style="enable-background:new 0 0 100 100;" xml:space="preserve">
<g>
	<path d="M80.3,49.8c-0.5,13-10.2,24-23.1,26.1c-1.1,0.2-1.8,1.2-1.6,2.3c0.2,1,1,1.7,2,1.7c0.1,0,0.2,0,0.3,0
		c14.7-2.4,25.8-15,26.4-29.9c0-1.1-0.8-2-1.9-2.1C81.2,47.9,80.3,48.7,80.3,49.8z"/>
	<path d="M85,35.6c-0.6-0.7-1.5-1.2-2.4-1.3l-2.8-6.5c-0.4-1-1.2-1.7-2.2-2.1c-1-0.4-2-0.4-3,0l-1.4,0.6c-2,0.8-2.9,3.1-2.1,5.1
		l2.7,6.4c-0.2,0.6-0.2,1.3-0.1,2c0.4,2.1,0.6,4.2,0.5,6.2C73.8,60.7,61.6,72.4,47,72.4c-0.2,0-0.4,0-0.7,0l0,0c0,0,0,0,0,0
		c-1.7,0-3.3,0.8-4.2,2.3c-0.8,1.1-1,2.5-0.8,3.8c0.3,1.3,1,2.5,2.2,3.2c5.3,3.6,11.5,5.4,17.6,5.4c7.2,0,14.4-2.4,20.1-7.3
		c6.4-5.4,10.4-12.9,11.1-21.3C93,50.2,90.4,42.1,85,35.6z M88.3,58.2c-0.6,7.3-4.1,13.9-9.7,18.5c-9.3,7.8-22.8,8.5-32.9,1.6
		c-0.2-0.2-0.4-0.4-0.5-0.7c-0.1-0.3,0-0.6,0.2-0.8c0.2-0.3,0.5-0.5,0.9-0.5c17.1,0.4,31.5-13.2,32.1-30.3c0.1-2-0.1-4-0.4-5.9
		l4.2-1.8C86.7,44,88.9,51,88.3,58.2z"/>
	<path d="M49.6,59.7c5-5.7,9.8-15.8,8.6-24.4c-0.7-4.6-3-8.3-6.9-10.8c-4.8-3-10.4-3.8-15.8-2.4c0.1-1.5,0.4-3.2,1.1-4.3
		c1.9-3.1,3.9-4.1,4-4.1c1-0.4,1.5-1.6,1.1-2.6c-0.4-1-1.6-1.5-2.6-1.1c-0.3,0.1-2.9,1.2-5.4,5c-1.6-1.4-3.9-2.5-6.3-3.3
		c-2.3-0.7-4.6-1.1-6.5-1c-3.4,0.2-4.4,1.8-4.7,2.8c-0.3,1-0.4,2.9,2.3,5c1.4,1.1,3.4,2.1,5.6,2.9c-3.3,0.2-6.5,1.2-9.3,3
		c-3.8,2.5-6.2,6.2-6.8,10.8C6.6,44,11.4,54,16.4,59.7c3.7,4.3,8.2,6.1,13.2,5.4l0.4-0.1c1-0.3,2.1-0.6,3.1-0.7
		c1,0.1,2.1,0.3,3.1,0.7l0.4,0.1c0.7,0.1,1.4,0.1,2.1,0.1C42.7,65.3,46.4,63.4,49.6,59.7z M37.2,61.2c-1.3-0.4-2.6-0.7-4-0.8l-0.2,0
		l-0.2,0c-1.4,0.1-2.7,0.4-4,0.8c-3.5,0.5-6.6-0.9-9.4-4.1c-4.5-5.2-8.6-14.2-7.6-21.2c0.5-3.5,2.2-6.2,5-8
		c4.2-2.6,9.2-3.2,13.9-1.5c1.5,0.5,3.1,0.5,4.6,0c4.7-1.6,9.7-1.1,13.9,1.5c2.9,1.9,4.6,4.5,5,8c1,7-3.1,16-7.6,21.2
		C43.8,60.3,40.7,61.6,37.2,61.2z"/>
</g>
</svg>
