<svg id="Layer_1" data-name="Layer 1" xmlns="http://www.w3.org/2000/svg" viewBox="0 0 100 100"><defs><style>.cls-1,.cls-2,.cls-5,.cls-6{fill:none;stroke:#000;stroke-miterlimit:10;}.cls-1,.cls-5{stroke-width:4px;}.cls-2{stroke-width:3px;}.cls-3{font-size:12px;}.cls-3,.cls-4{font-family:GothamRounded-Bold, Gotham Rounded;font-weight:700;}.cls-4{font-size:8px;letter-spacing:-0.05em;}.cls-5{stroke-linecap:round;}.cls-6{stroke-width:4.66px;}</style></defs><path class="cls-1" d="M31.54,89.87H17.77a3.67,3.67,0,0,1-3.66-3.34L10.37,44.86a3.68,3.68,0,0,1,3.66-4H35.27a3.69,3.69,0,0,1,3.67,4L35.2,86.53A3.67,3.67,0,0,1,31.54,89.87Z"/><path d="M11.41,56.38l2.7,30.15a3.67,3.67,0,0,0,3.66,3.34H31.54a3.67,3.67,0,0,0,3.66-3.34l2.7-30.15Z"/><circle class="cls-2" cx="75.61" cy="24.93" r="13.77"/><text class="cls-3" transform="translate(72.09 25.05)">1</text><text class="cls-4" transform="translate(71.92 32.02)">hr</text><path class="cls-5" d="M83.3,62A7.37,7.37,0,0,0,77,58,7.38,7.38,0,0,0,66,53.14a7.38,7.38,0,0,0-13.64,3.53A7.4,7.4,0,0,0,45.73,62Z"/><path class="cls-1" d="M54.32,82.81v2.06A4.17,4.17,0,0,0,58.49,89H70.15a4.16,4.16,0,0,0,4.17-4.17v-2.1"/><path class="cls-6" d="M64.27,84.67c12.09,0,22.17-7.76,24.48-18.06a3.73,3.73,0,0,0-3.68-4.5H43.47a3.73,3.73,0,0,0-3.67,4.5C42.1,76.91,52.19,84.67,64.27,84.67Z"/><path class="cls-5" d="M20,11.6c-6,3.71-5.92,8.8-4.94,10.75,1.37,2.76,4.62,3,5.82,6s-2.31,6.85-5.5,8.92"/><path class="cls-5" d="M51.93,23.07c-6,3.71-5.92,8.79-4.94,10.75,1.37,2.75,4.63,3,5.83,6s-2.31,6.85-5.51,8.92"/><path class="cls-5" d="M33.58,12.13c-6,3.71-5.92,8.8-4.94,10.76,1.37,2.75,4.63,3.05,5.82,6s-2.3,6.84-5.5,8.92"/></svg>