<svg id="Layer_1" data-name="Layer 1" xmlns="http://www.w3.org/2000/svg" viewBox="0 0 100 100"><defs><style>.cls-1{fill:none;stroke:#000;stroke-linecap:round;stroke-miterlimit:10;stroke-width:4px;}</style></defs><path class="cls-1" d="M48.3,11.25a2.09,2.09,0,0,0-1.14,3.24,124,124,0,0,1,7,11.72c2.75,5.31,4.81,11.24,4.69,17.34-.14,7.22-3.4,14.56-10.5,16.81-9,2.87-17.46-4.16-26.53-3.44-6.6.52-9.93,6.73-10.92,12.85C10.56,72.05,11,88.25,13,88.25h6a1.68,1.68,0,0,0,1.57-2.16c-1.16-4.15-2.25-8.77-1.39-12.92C20,69.52,23,66,26.4,69.34c4.32,4.28,7.15,10,11.84,13.9,19.13,15.94,48.29-3.77,51.94-25.49,1.9-11.26-.15-27.67-11.07-33.82-4.94-2.78-10.8-1.9-16-4-3.92-1.59-6.62-5.11-8.55-8.86a1.73,1.73,0,0,0-2-.93Z"/><path d="M46.61,73.44a2.68,2.68,0,0,1-2.8-2.77v0a2.67,2.67,0,0,1,2.65-2.79A2.53,2.53,0,0,1,49,70.44a.69.69,0,0,1-.71.73h-3a1.24,1.24,0,0,0,1.31,1,1.75,1.75,0,0,0,1.08-.36.57.57,0,0,1,.37-.12.58.58,0,0,1,.59.6.6.6,0,0,1-.2.45A2.78,2.78,0,0,1,46.61,73.44Zm1-3.22a1.15,1.15,0,0,0-1.13-1.14,1.19,1.19,0,0,0-1.16,1.14Z"/><path d="M50.2,68.66a.76.76,0,1,1,1.52,0v.06a1.91,1.91,0,0,1,1.58-.86,1.6,1.6,0,0,1,1.51.85,2.21,2.21,0,0,1,1.76-.85c1.13,0,1.81.68,1.81,2v2.79a.76.76,0,0,1-1.52,0V70.33c0-.72-.32-1.09-.89-1.09s-.92.37-.92,1.09v2.29a.76.76,0,0,1-1.52,0V70.33c0-.72-.32-1.09-.89-1.09s-.92.37-.92,1.09v2.29a.76.76,0,0,1-1.52,0Z"/><path d="M59.7,68.66a.76.76,0,0,1,1.52,0v.07a2,2,0,0,1,1.67-.87,2.52,2.52,0,0,1,2.44,2.77v0a2.5,2.5,0,0,1-2.44,2.76,2.05,2.05,0,0,1-1.67-.79v1.59a.76.76,0,0,1-1.52,0Zm4.11,2v0a1.32,1.32,0,1,0-2.61,0v0a1.32,1.32,0,1,0,2.61,0Z"/><path d="M66.7,71.8V69.26h0a.65.65,0,0,1,0-1.3h0v-.67a.76.76,0,1,1,1.52,0V68h.67a.65.65,0,0,1,0,1.3h-.67v2.29c0,.35.15.52.49.52h.18a.63.63,0,0,1,.63.63.62.62,0,0,1-.39.57,2.44,2.44,0,0,1-.87.14C67.33,73.4,66.7,73,66.7,71.8Z"/><path d="M70.88,74.8a.66.66,0,0,1-.48-.63.6.6,0,0,1,.6-.61.54.54,0,0,1,.25,0,1.32,1.32,0,0,0,.32.05.48.48,0,0,0,.54-.32l0-.11L70.33,69a1.11,1.11,0,0,1-.08-.35A.72.72,0,0,1,71,67.9a.74.74,0,0,1,.73.57l1.16,3.12L74,68.48a.77.77,0,0,1,.73-.58.71.71,0,0,1,.72.7,1.15,1.15,0,0,1-.07.36l-1.87,4.48c-.45,1.09-.9,1.5-1.81,1.5A2.29,2.29,0,0,1,70.88,74.8Z"/></svg>