<?xml version="1.0" encoding="utf-8"?>
<!-- Generator: Adobe Illustrator 24.0.0, SVG Export Plug-In . SVG Version: 6.00 Build 0)  -->
<svg version="1.1" id="Layer_1" xmlns="http://www.w3.org/2000/svg" xmlns:xlink="http://www.w3.org/1999/xlink" x="0px" y="0px"
	 viewBox="0 0 100 100" style="enable-background:new 0 0 100 100;" xml:space="preserve">
<g>
	<path d="M37.5,22.2c0-8.8-7.1-15.9-15.9-15.9c-8.8,0-15.9,7.1-15.9,15.9c0,8.8,7.1,15.9,15.9,15.9C30.4,38.1,37.5,31,37.5,22.2z
		 M7.3,22.2c0-7.9,6.4-14.4,14.4-14.3c0,0,0.1,0,0.1,0v4.8c5.2,0.3,9.2,4.9,8.9,10.1c-0.3,4.8-4.1,8.6-8.9,8.9v4.9c0,0-0.1,0-0.1,0
		C13.7,36.6,7.3,30.2,7.3,22.2z"/>
	<path d="M17.8,21.5l1.9-1.9c0.2-0.2,0.4-0.5,0.4-0.8c0,0,0,0,0-0.1c0-0.3-0.4-0.6-0.7-0.6h-4c-0.1,0-0.1,0-0.2,0
		c-0.3,0-0.6,0.3-0.5,0.7c0,0.3,0.3,0.6,0.7,0.5h2.8l-1.9,2C16.1,21.6,16,21.8,16,22c0,0,0,0,0,0c0,0.3,0.3,0.6,0.6,0.6h0.3
		c1.1,0,1.8,0.4,1.8,1.2c0,0,0,0.1,0,0.1c-0.1,0.7-0.7,1.2-1.4,1.1c-0.7,0-1.3-0.3-1.8-0.8c-0.1-0.1-0.3-0.2-0.5-0.2
		c-0.4,0-0.7,0.3-0.7,0.7c0,0.2,0.1,0.4,0.2,0.5c0.7,0.7,1.7,1,2.7,1c0.1,0,0.1,0,0.2,0c1.4,0,2.5-1.1,2.5-2.5
		C20.1,22.3,19,21.7,17.8,21.5z"/>
	<path d="M24.9,26.3c2.1,0,3.5-1.8,3.5-4.1c0-2.3-1.4-4.1-3.5-4.1s-3.5,1.8-3.5,4.1S22.8,26.3,24.9,26.3z M25,19.3
		c1.2,0,2,1.3,2,2.8h0c0,1.5-0.8,2.8-2,2.8c-1.2,0-2-1.3-2-2.8C23,20.6,23.8,19.3,25,19.3z"/>
	<path d="M79.4,6c-9.2,0-16.7,7.5-16.7,16.6s7.5,16.6,16.7,16.6S96,31.8,96,22.6S88.5,6,79.4,6z M79.4,35.2c-7,0-12.7-5.7-12.7-12.6
		S72.4,10,79.4,10c7,0,12.6,5.7,12.6,12.6S86.3,35.2,79.4,35.2z"/>
	<path d="M85.8,20.6h-4.3c0,0-0.1-0.1-0.1-0.1v-6.8c0-1.1-0.9-2-2-2s-2,0.9-2,2v6.8c-0.6,0.5-0.9,1.3-0.9,2.1c0,1.6,1.3,2.9,2.9,2.9
		c0.8,0,1.6-0.4,2.1-0.9h4.3c1.1,0,2-0.9,2-2S86.9,20.6,85.8,20.6z"/>
	<path d="M81.7,47.1c-0.5-0.1-1.1-0.2-1.6-0.2h-1.5c-1.9-2.9-5-4.9-8.5-5.5c-2-6-8.2-9.7-14.5-8.4c-0.8,0.2-1.6,0.4-2.3,0.7
		c-1.7-2.1-4.1-3.5-6.8-4.1c-3.3-0.8-6.7-0.2-9.5,1.6c-3,1.9-5.1,5-5.8,8.4c-4,0.8-7.4,3.5-9,7.3h-1.9c-2.1,0-4,0.8-5.5,2.2
		c-1.5,1.4-2.3,3.4-2.3,5.4c0,0.5,0.1,1.1,0.2,1.7c2.5,11,10.6,19.9,21.2,24.5V82c0,4.4,3.6,8,8,8h16.8c4.4,0,8-3.6,8-8v-1.4
		c10.6-4.6,18.6-13.5,21-24.4c0.4-2,0-4.1-1.1-5.8C85.4,48.7,83.7,47.5,81.7,47.1z M33,43.4l1.8-0.1l0.1-1.8
		c0.1-2.8,1.7-5.4,4.1-6.9c2-1.2,4.3-1.6,6.5-1.1c2.2,0.5,4.1,1.9,5.4,3.8l1,1.7l1.7-1c0.8-0.5,1.8-0.9,2.7-1.1
		c4.6-1,9.2,2,10.2,6.7l0.3,1.5l1.6,0.1c1.7,0.1,3.3,0.7,4.7,1.7H26.7C28.2,44.9,30.5,43.6,33,43.4z M58.6,86H41.8
		c-2.2,0-3.9-1.7-4-3.9c3.9,1.2,8,1.9,12.3,1.9c4.3,0,8.5-0.7,12.4-1.9C62.5,84.3,60.8,86,58.6,86z M83.1,55.2
		c-3.1,14-17,24.2-33,24.2c-16,0-29.8-10.2-33-24.1c0-0.2-0.1-0.4-0.1-0.6c0-0.8,0.3-1.6,0.9-2.2c0.6-0.6,1.3-0.9,2.2-0.9
		c0,0,0,0,0,0h59.9c0.2,0,0.4,0,0.6,0.1c0.8,0.2,1.5,0.6,1.9,1.3S83.2,54.5,83.1,55.2z"/>
</g>
</svg>
