<?xml version="1.0" encoding="utf-8"?>
<!-- Generator: Adobe Illustrator 24.0.0, SVG Export Plug-In . SVG Version: 6.00 Build 0)  -->
<svg version="1.1" id="Layer_1" xmlns="http://www.w3.org/2000/svg" xmlns:xlink="http://www.w3.org/1999/xlink" x="0px" y="0px"
	 viewBox="0 0 100 100" style="enable-background:new 0 0 100 100;" xml:space="preserve">
<g>
	<path d="M84.1,45.7c-0.5-0.1-1.1-0.2-1.6-0.2h-1.3c-1.9-3.1-5.1-5.2-8.7-5.8c-0.9-2.7-2.6-5-5-6.5c-2.8-1.9-6.2-2.5-9.5-1.8
		c-0.8,0.2-1.6,0.4-2.4,0.7c-3.9-4.6-10.5-5.8-15.8-2.8c1.1-2.2,1.7-4.6,1.7-7.2c0-8.8-7.1-15.9-15.9-15.9
		c-8.8,0-15.9,7.1-15.9,15.9S16.9,38,25.6,38c3.2,0,6.2-1,8.7-2.6c-0.3,0.8-0.6,1.7-0.8,2.6c-4.1,0.8-7.5,3.7-9.1,7.6h-1.8
		c-1.9,0-3.8,0.8-5.2,2.1c-1.4,1.4-2.2,3.2-2.2,5.2c0,0.5,0.1,1,0.2,1.6c2.4,10.8,10.4,19.6,20.9,24.2v1.7c0,4.4,3.6,8,8,8H61
		c4.4,0,8-3.6,8-8v-1.8C79.4,74,87.4,65.2,89.8,54.4C90.6,50.4,88.1,46.5,84.1,45.7z M25.7,31.6v4.9c0,0-0.1,0-0.1,0
		c-7.9,0-14.4-6.4-14.4-14.4S17.7,7.8,25.6,7.8v0c0,0,0.1,0,0.1,0v4.8c5.6,0.4,9.8,5,9.3,10.3C34.6,27.5,30.7,31.2,25.7,31.6z
		 M35.5,41.7l1.8-0.1l0.1-1.8c0.1-2.8,1.7-5.4,4.1-6.9c4-2.5,9.4-1.3,11.9,2.8l1,1.7l1.7-1c0.9-0.5,1.8-0.9,2.8-1.1
		c4.7-1,9.2,2.1,10.2,6.7l0.3,1.5l1.6,0.1c1.9,0.1,3.6,0.7,5,1.9H29C30.5,43.3,32.9,41.9,35.5,41.7z M65,80.3c0,2.2-1.8,4-4,4H44.3
		c-2.2,0-4-1.8-4-4v-0.2c3.9,1.2,8,1.9,12.3,1.9c4.3,0,8.5-0.7,12.4-1.9V80.3z M85.9,53.6C82.7,67.7,68.7,78,52.6,78
		c-16.1,0-30.1-10.3-33.3-24.4c0-0.2-0.1-0.5-0.1-0.7c0-0.9,0.4-1.8,1-2.4c0.6-0.6,1.5-1,2.4-1c0,0,0,0,0,0h59.9
		c0.3,0,0.5,0,0.7,0.1c0.9,0.2,1.6,0.7,2.1,1.5C85.9,51.8,86,52.7,85.9,53.6z"/>
	<path d="M21.8,21.4l1.9-1.9c0.2-0.2,0.4-0.5,0.4-0.8c0,0,0,0,0-0.1c0-0.3-0.3-0.6-0.7-0.5h-4.1c-0.1,0-0.1,0-0.2,0
		c-0.3,0-0.6,0.3-0.5,0.7c0,0.3,0.3,0.6,0.7,0.5h2.9l-1.9,2c-0.2,0.1-0.3,0.3-0.3,0.6c0,0.3,0.3,0.6,0.6,0.6h0.3
		c1.1,0,1.8,0.4,1.8,1.2c0,0,0,0.1,0,0.1c-0.1,0.7-0.7,1.2-1.4,1.1c-0.7,0-1.3-0.3-1.8-0.8c-0.1-0.1-0.3-0.2-0.5-0.2
		c-0.4,0-0.7,0.3-0.7,0.7c0,0.2,0.1,0.4,0.2,0.5c0.7,0.7,1.7,1.1,2.7,1c0.1,0,0.2,0,0.2,0c1.4,0,2.5-1.1,2.5-2.5
		C24.1,22.2,23,21.5,21.8,21.4z"/>
	<path d="M28.9,18c-2.1,0-3.5,1.8-3.5,4.1s1.4,4.1,3.4,4.1c2.1,0,3.5-1.8,3.5-4.1C32.4,19.8,31,18,28.9,18z M28.9,24.9
		c-1.2,0-2-1.3-2-2.9c0-1.6,0.8-2.8,2-2.8s2,1.3,2,2.8S30.1,24.9,28.9,24.9z"/>
</g>
</svg>
