<svg id="Layer_1" data-name="Layer 1" xmlns="http://www.w3.org/2000/svg" viewBox="0 0 100 100"><defs><style>.cls-1{fill:none;stroke:#000;stroke-miterlimit:10;stroke-width:3px;}.cls-2{font-size:12px;}.cls-2,.cls-3{font-family:GothamRounded-Bold, Gotham Rounded;font-weight:700;}.cls-3{font-size:8px;letter-spacing:-0.05em;}</style></defs><path d="M63.23,40.12l-3.35-8h0V22a4.67,4.67,0,0,0-4.67-4.68h-34A4.67,4.67,0,0,0,16.45,22V32.13L13.33,40.3a13.4,13.4,0,0,0-.88,4.77V85.14a4.6,4.6,0,0,0,4.6,4.6H59.68a4.59,4.59,0,0,0,4.59-4.6V45.3A13.35,13.35,0,0,0,63.23,40.12Zm-5.5,33.95a4.6,4.6,0,0,1-4.59,4.59H23.59A4.59,4.59,0,0,1,19,74.07V51.73a4.59,4.59,0,0,1,4.59-4.6H53.14a4.6,4.6,0,0,1,4.59,4.6Z"/><rect x="31.22" y="59.75" width="15.91" height="5.87" transform="translate(-23.56 101.79) rotate(-89.94)"/><rect x="36.24" y="54.73" width="5.87" height="15.91" transform="translate(-23.57 101.78) rotate(-89.92)"/><circle class="cls-1" cx="76.69" cy="24.57" r="13.77"/><text class="cls-2" transform="translate(73.17 24.7)">6</text><text class="cls-3" transform="translate(71.2 31.66)">hrs</text></svg>