<svg id="Layer_1" data-name="Layer 1" xmlns="http://www.w3.org/2000/svg" viewBox="0 0 100 100"><defs><style>.cls-1,.cls-2{fill:none;stroke:#000;stroke-miterlimit:10;stroke-width:4px;}.cls-2{stroke-linecap:round;}</style></defs><circle class="cls-1" cx="66.69" cy="34.88" r="19.23"/><path d="M67.73,49A1.12,1.12,0,0,0,69,50.09a15.39,15.39,0,0,0,6.65-2.7,1.12,1.12,0,0,0,.12-1.69l-7.22-7.22a4.5,4.5,0,0,1-.82.32Z"/><path d="M55.88,25.81a1.11,1.11,0,0,0-1.69.12,15.35,15.35,0,0,0-2.7,6.64,1.12,1.12,0,0,0,1.11,1.27H62.78A3.6,3.6,0,0,1,63.1,33Z"/><path d="M52.62,36.08a1.12,1.12,0,0,0-1.11,1.28,15.39,15.39,0,0,0,2.75,6.57,1.11,1.11,0,0,0,1.68.11l7.21-7.2a4.22,4.22,0,0,1-.32-.76Z"/><path d="M57.52,45.63a1.11,1.11,0,0,0,.12,1.68,15.21,15.21,0,0,0,6.57,2.75A1.12,1.12,0,0,0,65.49,49V38.75a4,4,0,0,1-.76-.33Z"/><path d="M65.49,20.81a1.11,1.11,0,0,0-1.28-1.1,15.2,15.2,0,0,0-6.66,2.81,1.11,1.11,0,0,0-.11,1.68l7.19,7.2a3.88,3.88,0,0,1,.86-.38Z"/><path d="M75.85,24.13a1.11,1.11,0,0,0-.11-1.68A15.26,15.26,0,0,0,69,19.68a1.12,1.12,0,0,0-1.27,1.11V31a3.85,3.85,0,0,1,.92.37Z"/><path d="M80.79,33.84a1.12,1.12,0,0,0,1.11-1.27,15.35,15.35,0,0,0-2.78-6.74,1.11,1.11,0,0,0-1.68-.12l-7.21,7.21a4.14,4.14,0,0,1,.38.92Z"/><path d="M80.76,36.08H70.56a4.18,4.18,0,0,1-.38.87l7.19,7.19A1.12,1.12,0,0,0,79.05,44a15.3,15.3,0,0,0,2.82-6.67A1.11,1.11,0,0,0,80.76,36.08Z"/><path class="cls-1" d="M15,52.15a12.43,12.43,0,1,0,20,0,2.52,2.52,0,0,0-2-1H17A2.57,2.57,0,0,0,15,52.15Z"/><line class="cls-2" x1="18.95" y1="88.21" x2="30.95" y2="88.21"/><line class="cls-1" x1="24.95" y1="61.53" x2="24.95" y2="88.21"/><path d="M12.6,60.9a12.42,12.42,0,1,0,24.69-2.76H12.61A12.72,12.72,0,0,0,12.6,60.9Z"/><circle class="cls-1" cx="23.6" cy="23.88" r="13.77"/><path d="M15.44,12.79a13.75,13.75,0,0,0-2.92,2.93L31.77,35A14,14,0,0,0,34.69,32Z"/><path d="M89.05,79.47s0,0,0,0v-8.7a4,4,0,0,0-1.75-3.28l-3.19-2.13s0,0,0,0a5.92,5.92,0,0,1-2.61,1c-2.09.31-3.91-.31-4.07-1.4-.14-.91,1-1.85,2.54-2.31,0,0,0,0,0-.05l-2.65-1.77a1.69,1.69,0,0,0-1.38-.22L50.06,67.82a4,4,0,0,0-2.88,3.8V86.15a4,4,0,0,0,4,3.95h1.09a1,1,0,0,0,1-1,3,3,0,0,1,.06-.59,3.21,3.21,0,0,1,6.36.63h0a1,1,0,0,0,1,1H76.8s0,0,0,0a2.9,2.9,0,0,1,5.59,0s0,0,0,0h2.67a4,4,0,0,0,3.95-3.95v-.31s0,0,0,0a3.27,3.27,0,0,1,0-6.34Zm-35.82,3a2,2,0,1,1,2-2A2,2,0,0,1,53.23,82.42Zm2.46-7.52a1.64,1.64,0,1,1,1.64-1.64A1.63,1.63,0,0,1,55.69,74.9Zm15.6-11.16c1.28,0,2.32.58,2.32,1.29s-1,1.3-2.32,1.3S69,65.75,69,65,70,63.74,71.29,63.74ZM64,79.54a2.32,2.32,0,1,1,2.31-2.32A2.32,2.32,0,0,1,64,79.54Zm5.83,6.38a1.9,1.9,0,1,1,1.9-1.9A1.9,1.9,0,0,1,69.81,85.92ZM75.7,78.1a3,3,0,1,1,3-3A3,3,0,0,1,75.7,78.1Zm4.63,6.67a2.35,2.35,0,1,1,2.35-2.35A2.35,2.35,0,0,1,80.33,84.77Z"/></svg>