<?xml version="1.0" encoding="utf-8"?>
<!-- Generator: Adobe Illustrator 24.0.0, SVG Export Plug-In . SVG Version: 6.00 Build 0)  -->
<svg version="1.1" id="Layer_1" xmlns="http://www.w3.org/2000/svg" xmlns:xlink="http://www.w3.org/1999/xlink" x="0px" y="0px"
	 viewBox="0 0 100 100" style="enable-background:new 0 0 100 100;" xml:space="preserve">
<g>
	<path d="M39.5,23.8C39.5,15.1,32.5,8,23.8,8S8,15.1,8,23.8s7.1,15.8,15.8,15.8S39.5,32.5,39.5,23.8z M35.5,23.8
		c0,2.5-0.8,4.8-2.1,6.7L17,14.1c1.9-1.3,4.2-2.1,6.7-2.1C30.3,12,35.5,17.3,35.5,23.8z M12,23.8c0-2.5,0.8-4.8,2.1-6.7l16.4,16.4
		c-1.9,1.3-4.2,2.1-6.7,2.1C17.3,35.5,12,30.3,12,23.8z"/>
	<path d="M76.9,39c8.4,0,15.3-6.9,15.3-15.3S85.3,8.5,76.9,8.5s-15.3,6.9-15.3,15.3c0,7.1,4.9,13,11.4,14.8v2.2
		c-1.3,0.4-2.3,1.6-2.3,3.1v3.8c0,1.5,1,2.7,2.3,3.1v11.4c0,1.1-0.6,2.1-1.6,2.6c-0.8,0.4-1.8,0.3-2.5-0.2l-1.9-1.2
		c0.6-1.4,1.1-2.8,1.4-4.2c0.1-0.3,0.3-0.5,0.5-0.6l0.9-0.4c2.2-1,3.2-3.6,2.2-5.9c-0.2-0.5-0.6-1-1-1.4l-0.8-0.7
		c-1-0.9-1.6-2.1-2-3.4c-2.5-9.3-10-15.6-18.6-15.6c-10.7,0-19.4,9.9-19.4,22c0,7.5,3.4,14.9,8.8,19.2c-4,1-13.6,3.7-17,5.8
		c-4.7,2.9-5.5,10.1-5.6,10.4c-0.1,1,0.6,1.9,1.7,2.1c0.1,0,0.1,0,0.2,0c0.9,0,1.7-0.7,1.9-1.7c0.2-1.6,1.2-6,3.8-7.6
		c2.7-1.7,11.6-4.2,16.2-5.4c1,2.3,2.9,4.3,5.3,5.3c0.9,0.4,1.9,0.7,2.9,0.8v6.8c0,0.8,0.6,1.4,1.4,1.4s1.4-0.6,1.4-1.4v-6.8
		c0.8-0.1,1.5-0.3,2.2-0.6c2.5-1,4.5-2.9,5.6-5.4c4.6,1.2,13.4,3.7,16.1,5.4C78,83,79,87.4,79.2,89c0.1,1,0.9,1.7,1.9,1.7
		c0.1,0,0.1,0,0.2,0c1-0.1,1.8-1,1.7-2.1c0-0.3-0.9-7.5-5.6-10.4c-3.4-2.1-13.1-4.8-17-5.8c2.2-1.8,4.1-4,5.5-6.5l1.6,1
		c1.6,1.1,3.6,1.2,5.4,0.3c1.9-1,3-3,3.1-5.1V50.7c1.3-0.4,2.3-1.6,2.3-3.1v-3.8c0-1.5-1-2.7-2.3-3.1V39C76.2,39,76.5,39,76.9,39z
		 M47.2,77.7c-2.4-1-3.9-3.4-3.8-6l0-1l-0.9-0.6c-2.4-1.7-4.4-4-5.9-6.8c1.2-0.5,2.8-1.4,4.6-3c1.9-1.8,2.9-4.4,2.8-7
		c-0.3-0.6-0.4-1.3-0.4-1.9c-0.1-2.4,1.8-4.5,4.2-4.6c0.9,0,1.7-0.5,2-1.2c0.6-1.5,1.8-3.5,4.1-3.6c2.7-0.1,6,0,8.2,0
		c1.1,1.7,2,3.7,2.6,5.8c0.5,2,1.6,3.7,3,5.1l0.8,0.7c0.1,0.1,0.1,0.1,0.2,0.2c0.2,0.4,0,0.8-0.4,0.9l-0.8,0.4
		c-1.3,0.6-2.3,1.7-2.7,3.2c-0.2,1-0.6,2-0.9,3l-6.7-4.3c-1.4-1-3.2-1.2-4.8-0.6c-2.3,0.9-3.8,3.1-3.8,5.6v16.2
		C48.1,78.1,47.6,77.9,47.2,77.7z M57.2,70.1l-0.8,0.6v1.1c0,0.9-0.2,1.8-0.5,2.6c-0.7,1.6-2,2.9-3.6,3.5c-0.3,0.1-0.6,0.2-0.9,0.3
		V61.9c0-1.3,0.8-2.5,2-3c0.7-0.3,1.6-0.2,2.3,0.3l7,4.6C61.3,66.2,59.4,68.4,57.2,70.1z M64.6,23.8c0-6.8,5.5-12.3,12.3-12.3
		S89.2,17,89.2,23.8S83.7,36,76.9,36S64.6,30.5,64.6,23.8z"/>
	<path d="M74.9,23.9h4.6c0.4,0,0.8-0.3,0.8-0.8c0-0.4-0.4-0.8-0.8-0.8h-2.9l1.4-1.1c1.5-1.2,2.2-1.8,2.2-3.2v0
		c0-1.6-1.2-2.6-2.9-2.6c-1.3,0-2.1,0.5-2.7,1.2c-0.1,0.2-0.2,0.4-0.2,0.6c0,0.5,0.4,0.8,0.8,0.8c0.3,0,0.5-0.1,0.6-0.3
		c0.5-0.5,0.8-0.7,1.4-0.7c0.7,0,1.1,0.4,1.1,1.1c0,0.7-0.4,1.2-1.5,2l-2.4,2c-0.3,0.3-0.5,0.6-0.5,0.9
		C73.9,23.6,74.3,23.9,74.9,23.9z"/>
	<path d="M74.4,26.5c-0.6,0-1,0.3-1.3,0.7v-1.6c0-0.3-0.3-0.6-0.6-0.6S72,25.2,72,25.6v4.7c0,0.3,0.3,0.6,0.6,0.6s0.6-0.3,0.6-0.6
		v-1.8c0-0.6,0.3-0.9,0.8-0.9s0.7,0.3,0.7,0.9v1.8c0,0.3,0.3,0.6,0.6,0.6s0.6-0.3,0.6-0.6v-2.2C75.9,27.1,75.3,26.5,74.4,26.5z"/>
	<path d="M77.8,30.3v-1.1c0-0.9,0.3-1.3,1-1.5c0.2-0.1,0.5-0.2,0.5-0.6c0-0.3-0.2-0.6-0.6-0.6c-0.4,0-0.6,0.4-0.8,0.8v-0.2
		c0-0.3-0.3-0.6-0.6-0.6s-0.6,0.3-0.6,0.6v3.2c0,0.3,0.3,0.6,0.6,0.6S77.8,30.6,77.8,30.3z"/>
	<path d="M79.4,27.9L79.4,27.9c0,0.8,0.7,1.1,1.3,1.3c0.5,0.1,0.9,0.2,0.9,0.5v0c0,0.2-0.2,0.3-0.5,0.3c-0.3,0-0.8-0.1-1.2-0.4
		c-0.1,0-0.2-0.1-0.2-0.1c-0.3,0-0.5,0.2-0.5,0.5c0,0.2,0.1,0.3,0.2,0.4c0.5,0.3,1.1,0.5,1.6,0.5c0.9,0,1.6-0.4,1.6-1.4v0
		c0-0.8-0.7-1.1-1.3-1.3c-0.5-0.2-0.9-0.3-0.9-0.5v0c0-0.2,0.2-0.3,0.4-0.3c0.3,0,0.6,0.1,0.9,0.3c0.1,0,0.1,0.1,0.2,0.1
		c0.3,0,0.5-0.2,0.5-0.5c0-0.2-0.1-0.4-0.3-0.5c-0.4-0.2-0.9-0.3-1.3-0.3C80.1,26.5,79.4,27,79.4,27.9z"/>
</g>
</svg>
