<svg id="Layer_1" data-name="Layer 1" xmlns="http://www.w3.org/2000/svg" viewBox="0 0 100 100"><defs><style>.cls-1,.cls-2,.cls-3,.cls-4,.cls-5{fill:none;}.cls-1,.cls-2,.cls-4,.cls-5{stroke:#000;stroke-miterlimit:10;}.cls-1,.cls-2{stroke-width:4px;}.cls-2{stroke-linecap:round;}.cls-4{stroke-width:4.66px;}.cls-5{stroke-width:3px;}.cls-6{font-size:12px;}.cls-6,.cls-7{font-family:GothamRounded-Bold, Gotham Rounded;font-weight:700;}.cls-7{font-size:8px;letter-spacing:-0.05em;}</style></defs><path class="cls-1" d="M14.44,45H26.53a.49.49,0,0,1,.49.49V73.32a0,0,0,0,1,0,0H13.95a0,0,0,0,1,0,0V45.48A.49.49,0,0,1,14.44,45Z" transform="translate(40.66 118.42) rotate(-179.7)"/><path class="cls-1" d="M15.3,73.29l10.05,0L23.8,78.59a.49.49,0,0,1-.47.34l-6.07,0a.48.48,0,0,1-.47-.35Z"/><line class="cls-2" x1="30.12" y1="44.99" x2="11.27" y2="45.03"/><line class="cls-2" x1="20.45" y1="90.4" x2="20.24" y2="80.04"/><line class="cls-2" x1="20.47" y1="51.23" x2="20.44" y2="40.55"/><path class="cls-2" d="M16.12,33h9.11a.42.42,0,0,1,.42.42v5.28a0,0,0,0,1,0,0H15.7a0,0,0,0,1,0,0V33.4a.42.42,0,0,1,.42-.42Z" transform="translate(41.42 71.63) rotate(179.88)"/><line class="cls-2" x1="27.05" y1="52.78" x2="13.98" y2="52.8"/><ellipse cx="20.51" cy="67.17" rx="1.61" ry="1.51" transform="translate(-35.3 24.54) rotate(-35.65)"/><ellipse cx="20.75" cy="58.35" rx="1.61" ry="1.51" transform="translate(-30.12 23.03) rotate(-35.65)"/><ellipse cx="20.67" cy="62.68" rx="1.61" ry="1.51" transform="translate(-32.66 23.8) rotate(-35.65)"/><g id="_254" data-name="254"><rect class="cls-3" x="30.06" y="31.59" width="60.01" height="60.01"/><path class="cls-2" d="M81.59,60.77a8,8,0,0,0-6.8-4.39A8,8,0,0,0,67,50a7.9,7.9,0,0,0-4.12,1.15A8,8,0,0,0,48.14,55,8,8,0,0,0,41,60.77Z"/><path class="cls-1" d="M50.3,83.22v2.23A4.49,4.49,0,0,0,54.8,90H67.39a4.49,4.49,0,0,0,4.5-4.5V83.18"/><path class="cls-4" d="M61,85.24c13.05,0,23.94-8.38,26.43-19.51a4,4,0,0,0-4-4.86H38.58a4,4,0,0,0-4,4.86C37.1,76.86,48,85.24,61,85.24Z"/></g><circle class="cls-5" cx="75.86" cy="26.12" r="13.77"/><text class="cls-6" transform="translate(72.34 26.24)">1</text><text class="cls-7" transform="translate(72.18 33.21)">hr</text></svg>