<svg id="Layer_1" data-name="Layer 1" xmlns="http://www.w3.org/2000/svg" viewBox="0 0 100 100"><defs><style>.cls-1,.cls-3{fill:none;}.cls-1,.cls-2,.cls-3,.cls-4{stroke:#000;stroke-miterlimit:10;stroke-width:4px;}.cls-1,.cls-2{stroke-linecap:round;}.cls-4{fill:#898484;}</style></defs><path class="cls-1" d="M38.43,27h17a2,2,0,0,1,2,2V37H32"/><path class="cls-1" d="M29.43,38.21l-5.85,8.5a6.06,6.06,0,0,0-1,3.4v33a6,6,0,0,0,6,6H48.45V48.25l6.24-7.83A2.14,2.14,0,0,0,53,37"/><rect class="cls-2" x="27.88" y="60.13" width="15.26" height="11.76" rx="2.55"/><path class="cls-1" d="M64.69,46.65,57.46,37l-9,11.3V89.07H59.88a6,6,0,0,0,6-6"/><rect class="cls-1" x="66.22" y="30.9" width="16.8" height="7.42" rx="3.71"/><path class="cls-2" d="M81.68,81.32H67.27a4.8,4.8,0,0,1-4.8-4.8v8a4.8,4.8,0,0,0,4.8,4.8H81.68a4.8,4.8,0,0,0,4.8-4.8v-8A4.8,4.8,0,0,1,81.68,81.32Z"/><path class="cls-2" d="M86.15,53.72,80.06,38.17H68.88L62.8,53.72a4.73,4.73,0,0,0-.33,1.75V66.16a4.8,4.8,0,0,1,4.8-4.8H81.68a4.8,4.8,0,0,1,4.8,4.8V55.47A4.73,4.73,0,0,0,86.15,53.72Z"/><circle class="cls-3" cx="24.79" cy="25.19" r="13.77"/><path d="M16.62,14.1A13.94,13.94,0,0,0,13.7,17L33,36.27a13.48,13.48,0,0,0,2.92-2.92Z"/><line class="cls-4" x1="86.48" y1="76.52" x2="86.48" y2="66.16"/><line class="cls-4" x1="62.47" y1="76.52" x2="62.47" y2="66.16"/></svg>