<svg id="Layer_1" data-name="Layer 1" xmlns="http://www.w3.org/2000/svg" viewBox="0 0 100 100"><defs><style>.cls-1{fill:none;stroke:#000;stroke-miterlimit:10;stroke-width:3px;}.cls-2{font-size:12px;}.cls-2,.cls-4{font-family:GothamRounded-Bold, Gotham Rounded;font-weight:700;}.cls-3{letter-spacing:2.08em;}.cls-4{font-size:8px;letter-spacing:-0.05em;}</style></defs><circle class="cls-1" cx="75.8" cy="24.91" r="13.77"/><text class="cls-2" transform="translate(72.28 25.04)">2<tspan class="cls-3" x="7.48" y="0">	</tspan></text><text class="cls-4" transform="translate(70.3 32)">hrs</text><circle class="cls-1" cx="75.8" cy="76.09" r="13.77"/><text class="cls-2" transform="translate(72.28 76.21)">1</text><text class="cls-4" transform="translate(72.11 83.18)">hr</text><path d="M58.28,43.82,55.13,36.3h0V26.82a4.39,4.39,0,0,0-4.4-4.39h-32a4.39,4.39,0,0,0-4.4,4.39v9.49L11.39,44a12.75,12.75,0,0,0-.82,4.49V86.12a4.31,4.31,0,0,0,4.31,4.32H55a4.31,4.31,0,0,0,4.31-4.32V48.68A12.48,12.48,0,0,0,58.28,43.82ZM53.11,75.71A4.31,4.31,0,0,1,48.8,80H21a4.32,4.32,0,0,1-4.32-4.32v-21A4.33,4.33,0,0,1,21,50.4H48.8a4.32,4.32,0,0,1,4.31,4.32Z"/><rect x="27.49" y="62.07" width="15.91" height="5.87" transform="translate(-29.6 100.37) rotate(-89.94)"/><rect x="32.51" y="57.05" width="5.87" height="15.91" transform="translate(-29.61 100.36) rotate(-89.92)"/></svg>