<svg id="Layer_1" data-name="Layer 1" xmlns="http://www.w3.org/2000/svg" viewBox="0 0 100 100"><defs><style>.cls-1{fill:none;stroke:#000;stroke-miterlimit:10;stroke-width:4px;}</style></defs><path class="cls-1" d="M84.94,66.18H74.79a2.72,2.72,0,0,1-2.7-2.47L69.34,33A2.71,2.71,0,0,1,72,30.05H87.69A2.71,2.71,0,0,1,90.39,33L87.64,63.71A2.72,2.72,0,0,1,84.94,66.18Z"/><path d="M70.1,41.49l2,22.22a2.72,2.72,0,0,0,2.7,2.47H84.94a2.72,2.72,0,0,0,2.7-2.47l2-22.22Z"/><path d="M23,59.06q.16-5.34.32-10.68c0-1.2-.22-1.63-1.31-2.08a5.11,5.11,0,0,1-3-4.39,30.24,30.24,0,0,1,.23-11.18,1.92,1.92,0,0,1,1.18-1.52c.61-.23.86-.09.89.57.07,1.26.11,2.52.16,3.77.06,1.49.09,3,.17,4.46a2.8,2.8,0,0,0,.3,1.14.65.65,0,0,0,1.2,0,2.17,2.17,0,0,0,.27-1c.13-2.65.23-5.31.34-8,0-.8.29-1.06,1.06-1.07s1.06.27,1.1,1.1c.1,2.64.2,5.28.33,7.92a2.36,2.36,0,0,0,.26,1,.66.66,0,0,0,1.24,0A2.82,2.82,0,0,0,28,38c.11-2.66.2-5.32.31-8,0-1,.45-1.21,1.2-.62a2.86,2.86,0,0,1,.87,1.37,21,21,0,0,1,.58,7,38.06,38.06,0,0,1-.58,5.11,4.54,4.54,0,0,1-3,3.53,1.7,1.7,0,0,0-1.12,1.84q.3,10.13.57,20.24c0,.57.05,1.13,0,1.7a1.59,1.59,0,0,1-1.38,1.62,4.91,4.91,0,0,1-1.38,0,1.57,1.57,0,0,1-1.39-1.72c.05-2.35.13-4.7.18-7,0-1.32,0-2.64,0-4Z"/><ellipse class="cls-1" cx="49.99" cy="35.22" rx="9.91" ry="4.42"/><path d="M64.76,64.76,62.17,40.51a3,3,0,0,0-3-2.66H40.78a3,3,0,0,0-3,2.66L35.22,64.76a3,3,0,0,0,3,3.32H61.8A3,3,0,0,0,64.76,64.76ZM47.23,43.93,45,61.28A2,2,0,0,1,43,63l-.26,0A2,2,0,0,1,41,60.76l2.24-17.35a2,2,0,0,1,4,.52Zm4.7,17.28a2,2,0,0,1-4,0V43.72a2,2,0,0,1,4,0ZM57.11,63l-.26,0a2,2,0,0,1-2-1.74L52.62,43.93a2,2,0,0,1,4-.52l2.25,17.35A2,2,0,0,1,57.11,63Z"/></svg>