<?xml version="1.0" encoding="utf-8"?>
<!-- Generator: Adobe Illustrator 24.0.0, SVG Export Plug-In . SVG Version: 6.00 Build 0)  -->
<svg version="1.1" id="Layer_1" xmlns="http://www.w3.org/2000/svg" xmlns:xlink="http://www.w3.org/1999/xlink" x="0px" y="0px"
	 viewBox="0 0 100 100" style="enable-background:new 0 0 100 100;" xml:space="preserve">
<g>
	<path d="M40.6,25.7C40.6,17,33.5,10,24.8,10S9.1,17,9.1,25.7s7.1,15.8,15.8,15.8S40.6,34.4,40.6,25.7z M36.6,25.7
		c0,2.5-0.8,4.8-2.1,6.7L18.1,16.1c1.9-1.3,4.2-2.1,6.7-2.1C31.3,14,36.6,19.2,36.6,25.7z M13.1,25.7c0-2.5,0.8-4.8,2.1-6.7
		l16.4,16.4c-1.9,1.3-4.2,2.1-6.7,2.1C18.3,37.5,13.1,32.2,13.1,25.7z"/>
	<path d="M75.1,9.1c-8.4,0-15.3,6.9-15.3,15.3s6.8,15.3,15.3,15.3s15.3-6.9,15.3-15.3S83.5,9.1,75.1,9.1z M75.1,36.6
		c-6.8,0-12.3-5.5-12.3-12.3s5.5-12.3,12.3-12.3s12.3,5.5,12.3,12.3S81.9,36.6,75.1,36.6z"/>
	<path d="M72.8,18c0.1,0,0.2,0,0.3,0l0.6-0.2v5.8c0,0.5,0.4,0.9,0.9,0.9s0.9-0.4,0.9-0.9v-6.8c0-0.5-0.4-0.9-0.9-0.9h0
		c-0.3,0-0.5,0.1-0.9,0.2l-1.2,0.3c-0.4,0.1-0.6,0.4-0.6,0.8C72,17.7,72.3,18,72.8,18z"/>
	<path d="M74.5,27.1c-0.6,0-1,0.3-1.3,0.7v-1.6c0-0.3-0.3-0.6-0.6-0.6S72,25.8,72,26.2v4.7c0,0.3,0.3,0.6,0.6,0.6s0.6-0.3,0.6-0.6
		V29c0-0.6,0.3-0.9,0.8-0.9s0.7,0.3,0.7,0.9v1.8c0,0.3,0.3,0.6,0.6,0.6s0.6-0.3,0.6-0.6v-2.2C75.9,27.7,75.4,27.1,74.5,27.1z"/>
	<path d="M78.6,27.1c-0.4,0-0.6,0.4-0.8,0.8v-0.2c0-0.3-0.3-0.6-0.6-0.6s-0.6,0.3-0.6,0.6v3.2c0,0.3,0.3,0.6,0.6,0.6
		s0.6-0.3,0.6-0.6v-1.1c0-0.9,0.3-1.3,1-1.5c0.2-0.1,0.5-0.2,0.5-0.6C79.2,27.4,79,27.1,78.6,27.1z"/>
	<path d="M77.9,50.7c-0.7-0.2-1.4-0.2-2.1,0c-5.4,1.5-12.4,4-15.8,7.3h0c-4.4,4.4-3.2,10.5-2.4,13.1l-5.4,5.5V63.9
		c2.3-1.1,9.5-5.2,9.5-13.2c0-5.8-4.1-14.2-7.6-20.2c-0.3-0.6-0.9-1.1-1.5-1.5c-0.9-0.5-2-0.7-3-0.4c-1,0.3-1.9,0.9-2.4,1.9
		c-2.8,4.9-7.5,14-7.5,20.2c0,7.8,7,11.9,9.5,13.1v12.7l-4.8-4.8c0.8-2.6,2.1-8.6-2.1-13c-3.3-3.5-10.3-6.1-15.6-7.7
		c-0.6-0.2-1.3-0.2-2,0c-1,0.2-1.9,0.9-2.5,1.8c-0.6,0.9-0.7,2-0.5,3c1.3,5.4,3.6,12.5,6.9,15.9c2.5,2.7,5.7,3.4,8.4,3.4
		c1.8,0,3.5-0.3,4.5-0.6l7.6,7.7v7.2c0,0.8,0.7,1.5,1.5,1.5s1.5-0.7,1.5-1.5v-7l8.3-8.5c1.1,0.3,2.8,0.7,4.7,0.7
		c2.6,0,5.6-0.7,8.1-3.2c3.4-3.4,5.9-10.4,7.4-15.8C81.2,53.5,80,51.3,77.9,50.7z M39.4,61.6L39.4,61.6c1.9,2,2,4.8,1.7,6.9
		l-4.8-4.9l0.1-3.5c0-0.6-0.4-1-1-1c-0.6,0-1,0.4-1,1l0,1.6l-4.5-4.5c-0.8-0.8-2-0.8-2.8,0c-0.3,0.3-0.5,0.6-0.5,1
		c-0.3-1-0.6-2-0.9-3.1C32.2,57,37.3,59.4,39.4,61.6z M27,60l4.5,4.5l-1.7,0c-0.4,0-0.7,0.2-0.9,0.5C28.3,63.5,27.6,61.9,27,60z
		 M31.5,69.1c-0.6-0.6-1.2-1.5-1.8-2.6c0,0,0.1,0,0.1,0l3.7,0.1l4.6,4.6C36,71.3,33.4,71.1,31.5,69.1z M43.7,50.8
		c0-3.8,2.5-10.5,7-18.2c4.5,7.9,7,14.3,7,18.2c0,4.2-3.2,7.1-5.5,8.6v-5.6l4.6-4.9c0.4-0.4,0.4-1,0-1.4c-0.4-0.4-1-0.4-1.4,0
		l-3.1,3.4v-3.9l2.7-3c0.4-0.4,0.3-1-0.1-1.4c-0.4-0.4-1-0.3-1.4,0.1l-1.2,1.3v-3.8c0-0.8-0.7-1.5-1.5-1.5s-1.5,0.7-1.5,1.5v3.7
		L48,42.6c-0.4-0.4-1-0.4-1.4-0.1c-0.4,0.4-0.4,1-0.1,1.4l2.6,2.9v4l-3.1-3.3c-0.4-0.4-1-0.4-1.4,0c-0.4,0.4-0.4,1,0,1.4l4.5,4.8
		v5.5C46.9,57.8,43.7,55,43.7,50.8z M62.8,60.9c0.4-0.4,0.8-0.8,1.4-1.1c-0.2,0.2-0.3,0.4-0.3,0.7v4.2l-3,3.1
		C60.6,65.6,60.8,62.9,62.8,60.9z M70.5,68.6c-2,1.9-4.6,2.1-6.7,1.9l3.2-3.3l3.4-0.4c0.5-0.1,0.9-0.6,0.9-1.1
		c-0.1-0.5-0.6-0.9-1.1-0.9l-1,0.1l4.6-4.7c0.8-0.8,0.8-2.1,0-2.8c-0.8-0.8-2.1-0.8-2.8,0l-5,5.2v-2.2c0-0.6-0.4-1-1-1
		c-0.1,0-0.2,0-0.3,0.1c2.6-1.7,6.8-3.4,12.2-4.9C74.9,61.4,72.6,66.5,70.5,68.6z"/>
</g>
</svg>
