<?xml version="1.0" encoding="utf-8"?>
<!-- Generator: Adobe Illustrator 24.0.0, SVG Export Plug-In . SVG Version: 6.00 Build 0)  -->
<svg version="1.1" id="Layer_1" xmlns="http://www.w3.org/2000/svg" xmlns:xlink="http://www.w3.org/1999/xlink" x="0px" y="0px"
	 viewBox="0 0 100 100" style="enable-background:new 0 0 100 100;" xml:space="preserve">
<g>
	<path d="M75.8,40.2c8.4,0,15.3-6.9,15.3-15.3S84.2,9.6,75.8,9.6s-15.3,6.9-15.3,15.3S67.4,40.2,75.8,40.2z M75.8,12.6
		c6.8,0,12.3,5.5,12.3,12.3s-5.5,12.3-12.3,12.3s-12.3-5.5-12.3-12.3S69,12.6,75.8,12.6z"/>
	<path d="M73.8,25h4.6c0.4,0,0.8-0.3,0.8-0.8c0-0.4-0.4-0.8-0.8-0.8h-2.9l1.4-1.1c1.5-1.2,2.2-1.8,2.2-3.2v0c0-1.6-1.2-2.6-2.9-2.6
		c-1.3,0-2.1,0.5-2.7,1.2c-0.1,0.2-0.2,0.4-0.2,0.6c0,0.5,0.4,0.8,0.8,0.8c0.3,0,0.5-0.1,0.6-0.3c0.5-0.5,0.8-0.7,1.4-0.7
		c0.7,0,1.1,0.4,1.1,1.1c0,0.7-0.4,1.2-1.5,2l-2.4,2c-0.3,0.3-0.5,0.6-0.5,0.9C72.8,24.7,73.2,25,73.8,25z"/>
	<path d="M71.5,32c0.3,0,0.6-0.3,0.6-0.6v-1.8c0-0.6,0.3-0.9,0.8-0.9s0.7,0.3,0.7,0.9v1.8c0,0.3,0.3,0.6,0.6,0.6s0.6-0.3,0.6-0.6
		v-2.2c0-1-0.5-1.6-1.5-1.6c-0.6,0-1,0.3-1.3,0.7v-1.6c0-0.3-0.3-0.6-0.6-0.6s-0.6,0.3-0.6,0.6v4.7C70.8,31.8,71.1,32,71.5,32z"/>
	<path d="M77.5,27.7c-0.4,0-0.6,0.4-0.8,0.8v-0.2c0-0.3-0.3-0.6-0.6-0.6s-0.6,0.3-0.6,0.6v3.2c0,0.3,0.3,0.6,0.6,0.6
		s0.6-0.3,0.6-0.6v-1.1c0-0.9,0.3-1.3,1-1.5c0.2-0.1,0.5-0.2,0.5-0.6C78.1,27.9,77.8,27.7,77.5,27.7z"/>
	<path d="M78.3,29L78.3,29c0,0.8,0.7,1.1,1.3,1.3c0.5,0.1,0.9,0.2,0.9,0.5v0c0,0.2-0.2,0.3-0.5,0.3c-0.3,0-0.8-0.1-1.2-0.4
		c-0.1,0-0.2-0.1-0.2-0.1c-0.3,0-0.5,0.2-0.5,0.5c0,0.2,0.1,0.3,0.2,0.4c0.5,0.3,1.1,0.5,1.6,0.5c0.9,0,1.6-0.4,1.6-1.4v0
		c0-0.8-0.7-1.1-1.3-1.3c-0.5-0.2-0.9-0.3-0.9-0.5v0c0-0.2,0.2-0.3,0.4-0.3c0.3,0,0.6,0.1,0.9,0.3c0.1,0,0.1,0.1,0.2,0.1
		c0.3,0,0.5-0.2,0.5-0.5c0-0.2-0.1-0.4-0.3-0.5c-0.4-0.2-0.9-0.3-1.3-0.3C79,27.7,78.3,28.1,78.3,29z"/>
	<path d="M75.8,60.8c-8.4,0-15.3,6.8-15.3,15.3s6.8,15.3,15.3,15.3s15.3-6.9,15.3-15.3S84.2,60.8,75.8,60.8z M75.8,88.4
		c-6.8,0-12.3-5.5-12.3-12.3S69,63.8,75.8,63.8s12.3,5.5,12.3,12.3S82.6,88.4,75.8,88.4z"/>
	<path d="M73.4,69.8c0.1,0,0.2,0,0.3,0l0.6-0.2v5.8c0,0.5,0.4,0.9,0.9,0.9s0.9-0.4,0.9-0.9v-6.8c0-0.5-0.4-0.9-0.9-0.9h0
		c-0.3,0-0.5,0.1-0.9,0.2l-1.2,0.3c-0.4,0.1-0.6,0.4-0.6,0.8C72.6,69.4,73,69.8,73.4,69.8z"/>
	<path d="M75.1,78.8c-0.6,0-1,0.3-1.3,0.7v-1.6c0-0.3-0.3-0.6-0.6-0.6s-0.6,0.3-0.6,0.6v4.7c0,0.3,0.3,0.6,0.6,0.6s0.6-0.3,0.6-0.6
		v-1.8c0-0.6,0.3-0.9,0.8-0.9s0.7,0.3,0.7,0.9v1.8c0,0.3,0.3,0.6,0.6,0.6s0.6-0.3,0.6-0.6v-2.2C76.6,79.4,76,78.8,75.1,78.8z"/>
	<path d="M79.3,78.8c-0.4,0-0.6,0.4-0.8,0.8v-0.2c0-0.3-0.3-0.6-0.6-0.6s-0.6,0.3-0.6,0.6v3.2c0,0.3,0.3,0.6,0.6,0.6
		s0.6-0.3,0.6-0.6v-1.1c0-0.9,0.3-1.3,1-1.5c0.2-0.1,0.5-0.2,0.5-0.6C79.9,79.1,79.7,78.8,79.3,78.8z"/>
	<path d="M55.1,36.3v-9.5c0-2.4-2-4.4-4.4-4.4c0,0,0,0,0,0h-32c-2.4,0-4.4,2-4.4,4.4c0,0,0,0,0,0v9.5L11.4,44
		c-0.5,1.4-0.8,3-0.8,4.5v37.6c0,2.4,1.9,4.3,4.3,4.3c0,0,0,0,0,0H55c2.4,0,4.3-1.9,4.3-4.3c0,0,0,0,0,0V48.7c0-1.7-0.4-3.3-1-4.9
		L55.1,36.3z M53.1,75.7c0,2.4-1.9,4.3-4.3,4.3H21c-2.4,0-4.3-1.9-4.3-4.3v-21c0-2.4,2-4.3,4.3-4.3h27.8c2.4,0,4.3,1.9,4.3,4.3V75.7
		z"/>
	<polygon points="38.4,57 32.5,57 32.5,62.1 27.5,62.1 27.5,67.9 32.5,67.9 32.5,72.9 38.4,73 38.4,67.9 43.4,68 43.4,62.1 
		38.4,62.1 	"/>
</g>
</svg>
