<svg id="Layer_1" data-name="Layer 1" xmlns="http://www.w3.org/2000/svg" viewBox="0 0 100 100"><defs><style>.cls-1{fill:none;stroke:#000;stroke-miterlimit:10;stroke-width:3px;}.cls-2{font-size:12px;}.cls-2,.cls-3{font-family:GothamRounded-Bold, Gotham Rounded;font-weight:700;}.cls-3{font-size:8px;letter-spacing:-0.05em;}</style></defs><circle class="cls-1" cx="75.8" cy="24.72" r="13.77"/><text class="cls-2" transform="translate(72.28 24.85)">2</text><text class="cls-3" transform="translate(70.3 31.81)">hrs</text><path d="M61.3,40.63l-3.35-8h0V22.55a4.68,4.68,0,0,0-4.68-4.68h-34a4.69,4.69,0,0,0-4.68,4.68V32.64L11.4,40.81a13.44,13.44,0,0,0-.88,4.77V85.65a4.6,4.6,0,0,0,4.59,4.6H57.75a4.6,4.6,0,0,0,4.59-4.6V45.81A13.35,13.35,0,0,0,61.3,40.63ZM55.8,74.58a4.6,4.6,0,0,1-4.6,4.59H21.66a4.6,4.6,0,0,1-4.6-4.59V52.24a4.6,4.6,0,0,1,4.6-4.6H51.2a4.6,4.6,0,0,1,4.6,4.6Z"/><path d="M29.21,59a1.07,1.07,0,0,1,1.08-1.07h5.49a1,1,0,1,1,0,2H31.37v2.08h3.78a1,1,0,0,1,0,2H31.37v2.8a1.08,1.08,0,1,1-2.16,0Z"/><path d="M41.52,67.87A3.75,3.75,0,0,1,37.6,64v0a3.74,3.74,0,0,1,3.71-3.91,3.55,3.55,0,0,1,3.61,3.62,1,1,0,0,1-1,1H39.71a1.74,1.74,0,0,0,1.84,1.47,2.45,2.45,0,0,0,1.51-.5.78.78,0,0,1,.52-.17.81.81,0,0,1,.83.84.85.85,0,0,1-.28.63A3.91,3.91,0,0,1,41.52,67.87Zm1.37-4.51a1.61,1.61,0,0,0-1.58-1.6,1.67,1.67,0,0,0-1.62,1.6Z"/></svg>