<?xml version="1.0" encoding="utf-8"?>
<!-- Generator: Adobe Illustrator 24.0.0, SVG Export Plug-In . SVG Version: 6.00 Build 0)  -->
<svg version="1.1" id="Layer_1" xmlns="http://www.w3.org/2000/svg" xmlns:xlink="http://www.w3.org/1999/xlink" x="0px" y="0px"
	 viewBox="0 0 100 100" style="enable-background:new 0 0 100 100;" xml:space="preserve">
<path d="M85,44.8c-0.5-0.1-1.1-0.2-1.7-0.2h-1.6c-2.1-3.5-5.6-5.8-9.6-6.5C70,31.6,63.3,27.5,56.4,29c-0.9,0.2-1.8,0.5-2.7,0.8
	c-4.3-5.2-11.9-6.5-17.8-2.9c-3.3,2.1-5.6,5.5-6.3,9.3c-4.5,0.9-8.4,4.1-10.1,8.4h-2.1c-2.1,0-4.1,0.8-5.6,2.3
	c-1.5,1.5-2.3,3.5-2.4,5.6c0,0.6,0.1,1.1,0.2,1.7c2.7,11.9,11.4,21.6,23,26.5v2c0,4.7,3.9,8.6,8.6,8.6h18.5c4.7,0,8.6-3.9,8.6-8.6
	v-2c11.4-5,20.1-14.6,22.8-26.5C92.1,49.9,89.3,45.7,85,44.8z M31.7,40l1.8-0.1l0.1-1.8c0.2-3.2,1.9-6.1,4.6-7.8
	c1.6-1,3.3-1.5,5.1-1.5c3.2,0,6.4,1.6,8.2,4.6l1,1.7l1.7-1c0.9-0.6,2-1,3-1.2c5.2-1.1,10.4,2.3,11.4,7.5l0.3,1.5l1.6,0.1
	c2.3,0.1,4.4,1,6.1,2.5l-52.4,0C25.8,41.9,28.6,40.2,31.7,40z M64.4,82.6c0,2.5-2.1,4.6-4.6,4.6H41.3c-2.5,0-4.6-2.1-4.6-4.6v-0.5
	c4.3,1.4,9,2.1,13.8,2.1c4.8,0,9.5-0.8,13.9-2.2V82.6z M87.2,53.3c-3.5,15.7-19,27-36.8,27c-17.8,0-33.3-11.4-36.8-27
	c-0.1-0.3-0.1-0.5-0.1-0.8c0-1,0.4-2,1.2-2.8c0.7-0.7,1.7-1.1,2.8-1.1c0,0,0,0,0,0h65.9c0.3,0,0.6,0,0.8,0.1
	C86.3,49.1,87.7,51.2,87.2,53.3z"/>
</svg>
