<?xml version="1.0" encoding="utf-8"?>
<!-- Generator: Adobe Illustrator 24.0.0, SVG Export Plug-In . SVG Version: 6.00 Build 0)  -->
<svg version="1.1" id="Layer_1" xmlns="http://www.w3.org/2000/svg" xmlns:xlink="http://www.w3.org/1999/xlink" x="0px" y="0px"
	 viewBox="0 0 100 100" style="enable-background:new 0 0 100 100;" xml:space="preserve">
<g>
	<path d="M25,9.6c-8.7,0-15.8,7.1-15.8,15.8S16.3,41.2,25,41.2s15.8-7.1,15.8-15.8S33.7,9.6,25,9.6z M13.2,25.4
		c0-2.5,0.8-4.8,2.1-6.7l16.4,16.4c-1.9,1.3-4.2,2.1-6.7,2.1C18.5,37.2,13.2,31.9,13.2,25.4z M34.6,32.1L18.3,15.8
		c1.9-1.3,4.2-2.1,6.7-2.1c6.5,0,11.8,5.3,11.8,11.8C36.8,27.9,36,30.2,34.6,32.1z"/>
	<path d="M87.1,15.2c-1.4-1.4-3.3-2.2-5.2-2.2c0,0,0,0,0,0H50.7c-0.2,0-0.5,0-0.7,0c-4.1,0.4-7.1,4-6.7,8l5.5,61.2
		c0.3,3.8,3.5,6.7,7.4,6.7c0,0,0,0,0,0h20.2c3.9,0,7-2.9,7.4-6.7l5.5-61.2c0-0.2,0-0.4,0-0.7C89.3,18.4,88.5,16.6,87.1,15.2z
		 M48.1,18.2c0.6-0.7,1.4-1.1,2.3-1.2c0.1,0,0.2,0,0.3,0h31.2c0,0,0,0,0,0c0.9,0,1.8,0.4,2.4,1c0.6,0.6,1,1.5,1,2.4
		c0,0.1,0,0.2,0,0.3l-1.5,17.1l-34.9,0l-1.5-17.1C47.2,19.8,47.5,18.9,48.1,18.2z M69.4,56c1.2,0.5,1.7,1.8,1.2,2.9
		c-0.5,1.2-1.8,1.7-2.9,1.2c-1.2-0.5-1.7-1.8-1.2-2.9C66.9,56.1,68.2,55.6,69.4,56z M68,45.1c0-0.7,0.5-1.2,1.2-1.3
		c0.7,0,1.3,0.5,1.3,1.2c0,0.7-0.5,1.3-1.2,1.3C68.6,46.4,68,45.9,68,45.1C68,45.1,68,45.1,68,45.1z M66.8,67.6
		c2.8,0,5.2,2.3,5.2,5.2c0,2.8-2.3,5.2-5.2,5.2c0,0,0,0,0,0c-2.8,0-5.2-2.3-5.2-5.2C61.7,69.9,64,67.6,66.8,67.6z M62.5,53.3
		C62.5,53.3,62.5,53.3,62.5,53.3c-1,0-1.9-0.8-1.9-1.8c0-1,0.8-1.9,1.8-1.9c1,0,1.9,0.8,1.9,1.8S63.5,53.3,62.5,53.3z"/>
	<circle cx="63.3" cy="34" r="1.3"/>
	<circle cx="65.3" cy="26.9" r="1.3"/>
	<circle cx="60.5" cy="22.8" r="1.3"/>
	<circle cx="68.3" cy="32.2" r="1.3"/>
</g>
</svg>
