<svg id="Layer_1" data-name="Layer 1" xmlns="http://www.w3.org/2000/svg" viewBox="0 0 100 100"><defs><style>.cls-1{fill:none;stroke:#000;stroke-miterlimit:10;stroke-width:4px;}</style></defs><circle class="cls-1" cx="23.62" cy="23.41" r="13.77"/><path d="M15.46,12.33a13.94,13.94,0,0,0-2.92,2.92L31.79,34.5a13.94,13.94,0,0,0,2.92-2.92Z"/><path d="M88.51,56.32l-2.09-5h0V45a2.92,2.92,0,0,0-2.92-2.92H62.22A2.92,2.92,0,0,0,59.3,45v6.3l-1.95,5.1a8.42,8.42,0,0,0-.55,3v25a2.88,2.88,0,0,0,2.87,2.87H86.29a2.87,2.87,0,0,0,2.87-2.87V59.55A8.32,8.32,0,0,0,88.51,56.32ZM85.07,77.51a2.86,2.86,0,0,1-2.86,2.87H63.76a2.86,2.86,0,0,1-2.87-2.87v-14a2.86,2.86,0,0,1,2.87-2.86H82.21a2.86,2.86,0,0,1,2.86,2.86Z"/><path d="M24,54.35A15.77,15.77,0,1,0,39.81,70.12,15.79,15.79,0,0,0,24,54.35ZM32.2,81.21,13,62A13.7,13.7,0,0,1,15.87,59L35.12,78.29A13.7,13.7,0,0,1,32.2,81.21Z"/><path d="M46.74,70.25H44.12a1.53,1.53,0,1,1,0-3.06h2.62V64.64a1.58,1.58,0,1,1,3.15,0v2.55h2.62a1.53,1.53,0,0,1,0,3.06H49.89V72.8a1.58,1.58,0,1,1-3.15,0Z"/><rect x="66.59" y="68.18" width="12.78" height="4.71" transform="matrix(0, -1, 1, 0, 2.36, 143.44)"/><rect x="70.62" y="64.15" width="4.71" height="12.78" transform="translate(2.34 143.43) rotate(-89.92)"/></svg>