<?xml version="1.0" encoding="utf-8"?>
<!-- Generator: Adobe Illustrator 24.0.0, SVG Export Plug-In . SVG Version: 6.00 Build 0)  -->
<svg version="1.1" id="Layer_1" xmlns="http://www.w3.org/2000/svg" xmlns:xlink="http://www.w3.org/1999/xlink" x="0px" y="0px"
	 viewBox="0 0 100 100" style="enable-background:new 0 0 100 100;" xml:space="preserve">
<g>
	<path d="M74,10.9c0.1,0,0.2,0,0.3,0l0.6-0.2v5.8c0,0.5,0.4,0.9,0.9,0.9s0.9-0.4,0.9-0.9V9.7c0-0.5-0.4-0.9-0.9-0.9h0
		c-0.3,0-0.5,0.1-0.9,0.2l-1.2,0.3c-0.4,0.1-0.6,0.4-0.6,0.8C73.2,10.6,73.6,10.9,74,10.9z"/>
	<path d="M75.7,20c-0.6,0-1,0.3-1.3,0.7V19c0-0.3-0.3-0.6-0.6-0.6s-0.6,0.3-0.6,0.6v4.7c0,0.3,0.3,0.6,0.6,0.6s0.6-0.3,0.6-0.6v-1.8
		c0-0.6,0.3-0.9,0.8-0.9s0.7,0.3,0.7,0.9v1.8c0,0.3,0.3,0.6,0.6,0.6s0.6-0.3,0.6-0.6v-2.2C77.2,20.6,76.6,20,75.7,20z"/>
	<path d="M80.5,20.6c0-0.3-0.2-0.6-0.6-0.6c-0.4,0-0.6,0.4-0.8,0.8v-0.2c0-0.3-0.3-0.6-0.6-0.6s-0.6,0.3-0.6,0.6v3.2
		c0,0.3,0.3,0.6,0.6,0.6s0.6-0.3,0.6-0.6v-1.1c0-0.9,0.3-1.3,1-1.5C80.2,21.1,80.5,20.9,80.5,20.6z"/>
	<path d="M90.6,47.4l-6.5-8.8v-6.9c0-0.4-0.1-0.8-0.2-1.2c4.6-2.6,7.8-7.6,7.8-13.3C91.7,8.8,84.8,2,76.4,2S61.1,8.8,61.1,17.2
		c0,4.1,1.6,7.8,4.3,10.5H58c-2.1,0-3.9,1.8-3.9,3.9v7l-5.4,7.8v-6.8c0-1.9-1.6-3.5-3.5-3.5c0,0,0,0,0,0H19.4c-2,0-3.5,1.6-3.5,3.5
		c0,0,0,0,0,0v7.6l-2.4,6.2c-0.4,1.2-0.7,2.4-0.7,3.6v30.4c0,1.9,1.5,3.5,3.4,3.5c0,0,0,0,0,0h32.3c0.8,0,1.5-0.3,2.1-0.8
		c1.1,0.6,2.4,0.9,3.7,0.9h17.1h4h9c4.3,0,7.7-3.5,7.7-7.8V52C92.2,50.3,91.6,48.7,90.6,47.4z M64.1,17.2C64.1,10.5,69.6,5,76.4,5
		s12.3,5.5,12.3,12.3c0,4.8-2.8,8.9-6.8,11c-0.5-0.2-1.1-0.4-1.7-0.4h-10C66.5,25.6,64.1,21.7,64.1,17.2z M58.1,31.8h13.7
		c1.5,0.5,3,0.7,4.6,0.7c1.3,0,2.5-0.2,3.7-0.5v5.3h-2.2H58.1V31.8z M43.6,82.6H21.2c-1.9,0-3.5-1.5-3.5-3.5c0,0,0,0,0,0V62.2
		c0-1.9,1.6-3.5,3.5-3.5c0,0,0,0,0,0h22.4c1.3,0,2.5,0.7,3.1,1.8v20.2C46.1,81.8,45,82.6,43.6,82.6z M71.5,87.2H54.4
		c-0.9,0-1.7-0.3-2.3-0.9V71.8c0.6,1.7,2.2,2.9,4.2,2.9H66c2.4,0,4.4-2,4.4-4.4v-6.4c0-2.4-2-4.4-4.4-4.4h-9.7
		c-1.9,0-3.5,1.2-4.2,2.9v-5.1c0-1.3-0.3-2.7-0.8-3.9l-0.6-1.4v0c0-0.8,0.2-1.5,0.6-2.1l5.8-8.5l20.8,0.1L72,48.8l-0.5,0.6v0V87.2z
		 M88.2,83.5c0,2.1-1.7,3.7-3.7,3.7h-9V50.8l5.5-6.9c0.1-0.1,0.1-0.1,0.1-0.2l0.9-1.2l5.4,7.2c0.5,0.6,0.8,1.4,0.8,2.2V83.5z"/>
	<path d="M39.5,17.5c0-8.7-7.1-15.8-15.8-15.8S7.9,8.8,7.9,17.5S15,33.3,23.7,33.3S39.5,26.2,39.5,17.5z M35.5,17.5
		c0,2.5-0.8,4.8-2.1,6.7L17,7.9c1.9-1.3,4.2-2.1,6.7-2.1C30.2,5.8,35.5,11,35.5,17.5z M11.9,17.5c0-2.5,0.8-4.8,2.1-6.7l16.4,16.4
		c-1.9,1.3-4.2,2.1-6.7,2.1C17.2,29.3,11.9,24,11.9,17.5z"/>
	<path d="M20.5,65.1c-0.5,0-0.8,0.1-1.1,0.2c-0.2,0.1-0.3,0.2-0.3,0.4c0,0.2,0.2,0.4,0.4,0.4c0,0,0.1,0,0.1,0
		c0.2-0.1,0.4-0.1,0.7-0.1c0.5,0,0.7,0.2,0.7,0.6v0.1c-0.2-0.1-0.5-0.1-0.9-0.1c-0.8,0-1.4,0.4-1.4,1.1v0c0,0.7,0.5,1.1,1.2,1.1
		c0.5,0,0.8-0.2,1.1-0.4v0c0,0.2,0.2,0.4,0.5,0.4c0.3,0,0.5-0.2,0.5-0.5v-1.6c0-0.5-0.1-0.9-0.4-1.1C21.5,65.2,21.1,65.1,20.5,65.1z
		 M21.2,67.4c0,0.4-0.3,0.6-0.8,0.6c-0.3,0-0.5-0.2-0.5-0.4v0c0-0.3,0.3-0.5,0.7-0.5c0.2,0,0.5,0.1,0.6,0.1V67.4z"/>
	<path d="M25,65c-0.5,0-0.8,0.3-1,0.6v0c0-0.3-0.2-0.5-0.5-0.5S23,65.3,23,65.6v2.6c0,0.3,0.2,0.5,0.5,0.5s0.5-0.2,0.5-0.5v-1.5
		c0-0.5,0.2-0.7,0.6-0.7c0.4,0,0.6,0.2,0.6,0.7v1.5c0,0.3,0.2,0.5,0.5,0.5s0.5-0.2,0.5-0.5v-1.8C26.1,65.5,25.7,65,25,65z"/>
	<path d="M29,68.2c0-0.2-0.2-0.4-0.4-0.4c0,0-0.1,0-0.1,0c-0.2,0-0.3-0.1-0.3-0.3v-1.5h0.4c0.2,0,0.4-0.2,0.4-0.4s-0.2-0.4-0.4-0.4
		h-0.4v-0.4c0-0.3-0.2-0.5-0.5-0.5s-0.5,0.2-0.5,0.5v0.4h0c-0.2,0-0.4,0.2-0.4,0.4s0.2,0.4,0.4,0.4h0v1.7c0,0.8,0.4,1,1,1
		c0.2,0,0.4,0,0.6-0.1C28.9,68.5,29,68.3,29,68.2z"/>
	<path d="M31.7,68.2c0,0.2,0.2,0.4,0.5,0.4c0.3,0,0.5-0.2,0.5-0.5v-1.6c0-0.5-0.1-0.9-0.4-1.1c-0.2-0.2-0.6-0.4-1.2-0.4
		c-0.5,0-0.8,0.1-1.1,0.2c-0.2,0.1-0.3,0.2-0.3,0.4c0,0.2,0.2,0.4,0.4,0.4c0,0,0.1,0,0.1,0c0.2-0.1,0.4-0.1,0.7-0.1
		c0.5,0,0.7,0.2,0.7,0.6v0.1c-0.2-0.1-0.5-0.1-0.9-0.1c-0.8,0-1.4,0.4-1.4,1.1v0c0,0.7,0.5,1.1,1.2,1.1
		C31.2,68.6,31.5,68.5,31.7,68.2L31.7,68.2z M31,68c-0.3,0-0.5-0.2-0.5-0.4v0c0-0.3,0.3-0.5,0.7-0.5c0.2,0,0.5,0.1,0.6,0.1v0.2
		C31.8,67.7,31.4,68,31,68z"/>
	<path d="M36.6,67.9c0-0.2-0.2-0.4-0.4-0.4c-0.1,0-0.2,0.1-0.3,0.1c-0.2,0.1-0.4,0.2-0.6,0.2c-0.5,0-0.9-0.4-0.9-1v0
		c0-0.5,0.4-0.9,0.8-0.9c0.3,0,0.4,0.1,0.6,0.2c0.1,0,0.2,0.1,0.3,0.1c0.2,0,0.4-0.2,0.4-0.4c0-0.2-0.1-0.3-0.2-0.3
		c-0.3-0.2-0.7-0.4-1.2-0.4c-1.1,0-1.8,0.8-1.8,1.8v0c0,1,0.8,1.8,1.8,1.8c0.6,0,0.9-0.2,1.2-0.4C36.5,68.1,36.6,68,36.6,67.9z"/>
	<path d="M37.8,64.7c0.3,0,0.6-0.2,0.6-0.5v0c0-0.3-0.2-0.5-0.6-0.5s-0.6,0.2-0.6,0.5v0C37.2,64.6,37.5,64.7,37.8,64.7z"/>
	<path d="M37.8,65.1c-0.3,0-0.5,0.2-0.5,0.5v2.6c0,0.3,0.2,0.5,0.5,0.5s0.5-0.2,0.5-0.5v-2.6C38.3,65.3,38.1,65.1,37.8,65.1z"/>
	<path d="M42.2,63.8c-0.3,0-0.5,0.2-0.5,0.5v1.3c-0.2-0.3-0.6-0.5-1.1-0.5c-0.8,0-1.6,0.6-1.6,1.8v0c0,1.2,0.8,1.8,1.6,1.8
		c0.5,0,0.8-0.2,1.1-0.6v0c0,0.3,0.2,0.5,0.5,0.5s0.5-0.2,0.5-0.5v-3.8C42.7,64,42.5,63.8,42.2,63.8z M41.7,66.8c0,0.6-0.4,1-0.8,1
		s-0.9-0.4-0.9-1v0c0-0.6,0.4-1,0.9-1S41.7,66.3,41.7,66.8L41.7,66.8z"/>
	<path d="M45.1,66.5c-0.4-0.1-0.7-0.2-0.7-0.4v0c0-0.1,0.1-0.2,0.4-0.2c0.2,0,0.5,0.1,0.8,0.2c0.1,0,0.1,0,0.2,0
		c0.2,0,0.4-0.2,0.4-0.4c0-0.2-0.1-0.3-0.2-0.4c-0.3-0.2-0.7-0.3-1.1-0.3c-0.7,0-1.3,0.4-1.3,1.1v0c0,0.7,0.6,0.9,1,1
		c0.4,0.1,0.7,0.2,0.7,0.4v0c0,0.2-0.1,0.3-0.4,0.3c-0.3,0-0.6-0.1-0.9-0.3c-0.1,0-0.1-0.1-0.2-0.1c-0.2,0-0.4,0.2-0.4,0.4
		c0,0.2,0.1,0.3,0.2,0.3c0.4,0.3,0.9,0.4,1.3,0.4c0.8,0,1.3-0.4,1.3-1.1v0C46.2,66.9,45.6,66.6,45.1,66.5z"/>
	<path d="M27.1,71.6c-0.3,0-0.6,0.2-0.6,0.5v0c0,0.3,0.2,0.5,0.6,0.5s0.6-0.2,0.6-0.5v0C27.6,71.8,27.4,71.6,27.1,71.6z"/>
	<path d="M27.1,72.9c-0.3,0-0.5,0.2-0.5,0.5v2.6c0,0.3,0.2,0.5,0.5,0.5s0.5-0.2,0.5-0.5v-2.6C27.5,73.1,27.3,72.9,27.1,72.9z"/>
	<path d="M30.1,72.9c-0.3,0-0.5,0.3-0.7,0.7v-0.2c0-0.3-0.2-0.5-0.5-0.5s-0.5,0.2-0.5,0.5v2.6c0,0.3,0.2,0.5,0.5,0.5
		s0.5-0.2,0.5-0.5V75c0-0.7,0.3-1.1,0.8-1.2c0.2,0,0.4-0.2,0.4-0.5C30.6,73.1,30.4,72.9,30.1,72.9z"/>
	<path d="M32.8,72.8c-1.1,0-1.9,0.8-1.9,1.8v0c0,1,0.8,1.8,1.9,1.8c1.1,0,1.9-0.8,1.9-1.8v0C34.7,73.6,33.9,72.8,32.8,72.8z
		 M33.7,74.7c0,0.5-0.3,0.9-0.9,0.9c-0.5,0-0.9-0.4-0.9-1v0c0-0.5,0.3-0.9,0.9-0.9C33.3,73.7,33.7,74.1,33.7,74.7L33.7,74.7z"/>
	<path d="M37.4,72.8c-0.5,0-0.8,0.3-1,0.6v0c0-0.3-0.2-0.5-0.5-0.5s-0.5,0.2-0.5,0.5v2.6c0,0.3,0.2,0.5,0.5,0.5s0.5-0.2,0.5-0.5
		v-1.5c0-0.5,0.2-0.7,0.6-0.7c0.4,0,0.6,0.2,0.6,0.7v1.5c0,0.3,0.2,0.5,0.5,0.5s0.5-0.2,0.5-0.5v-1.8C38.6,73.3,38.2,72.8,37.4,72.8
		z"/>
</g>
</svg>
