<?xml version="1.0" encoding="utf-8"?>
<!-- Generator: Adobe Illustrator 24.0.0, SVG Export Plug-In . SVG Version: 6.00 Build 0)  -->
<svg version="1.1" id="Layer_1" xmlns="http://www.w3.org/2000/svg" xmlns:xlink="http://www.w3.org/1999/xlink" x="0px" y="0px"
	 viewBox="0 0 100 100" style="enable-background:new 0 0 100 100;" xml:space="preserve">
<g>
	<path d="M76.5,39.3c8.4,0,15.3-6.9,15.3-15.3c0-8.4-6.9-15.3-15.3-15.3S61.2,15.6,61.2,24C61.2,32.4,68,39.3,76.5,39.3z M76.5,11.7
		c6.8,0,12.3,5.5,12.3,12.3s-5.5,12.3-12.3,12.3S64.2,30.8,64.2,24S69.7,11.7,76.5,11.7z"/>
	<path d="M75.1,17.7c0.1,0,0.2,0,0.3,0l0.6-0.2v5.8c0,0.5,0.4,0.9,0.9,0.9s0.9-0.4,0.9-0.9v-6.8c0-0.5-0.4-0.9-0.9-0.9h0
		c-0.3,0-0.5,0.1-0.9,0.2l-1.2,0.3c-0.4,0.1-0.6,0.4-0.6,0.8C74.3,17.4,74.7,17.7,75.1,17.7z"/>
	<path d="M72.1,31.1c0.3,0,0.6-0.3,0.6-0.6v-1.8c0-0.6,0.3-0.9,0.8-0.9s0.7,0.3,0.7,0.9v1.8c0,0.3,0.3,0.6,0.6,0.6s0.6-0.3,0.6-0.6
		v-2.2c0-1-0.5-1.6-1.5-1.6c-0.6,0-1,0.3-1.3,0.7v-1.6c0-0.3-0.3-0.6-0.6-0.6s-0.6,0.3-0.6,0.6v4.7C71.5,30.9,71.8,31.1,72.1,31.1z"
		/>
	<path d="M77.3,27.6v-0.2c0-0.3-0.3-0.6-0.6-0.6s-0.6,0.3-0.6,0.6v3.2c0,0.3,0.3,0.6,0.6,0.6s0.6-0.3,0.6-0.6v-1.1
		c0-0.9,0.3-1.3,1-1.5c0.2-0.1,0.5-0.2,0.5-0.6c0-0.3-0.2-0.6-0.6-0.6C77.8,26.8,77.5,27.1,77.3,27.6z"/>
	<path d="M80.6,30.2c-0.3,0-0.8-0.1-1.2-0.4c-0.1,0-0.2-0.1-0.2-0.1c-0.3,0-0.5,0.2-0.5,0.5c0,0.2,0.1,0.3,0.2,0.4
		c0.5,0.3,1.1,0.5,1.6,0.5c0.9,0,1.6-0.4,1.6-1.4v0c0-0.8-0.7-1.1-1.3-1.3C80.4,28.4,80,28.2,80,28v0c0-0.2,0.2-0.3,0.4-0.3
		c0.3,0,0.6,0.1,0.9,0.3c0.1,0,0.1,0.1,0.2,0.1c0.3,0,0.5-0.2,0.5-0.5c0-0.2-0.1-0.4-0.3-0.5c-0.4-0.2-0.9-0.3-1.3-0.3
		c-0.9,0-1.6,0.5-1.6,1.4v0c0,0.8,0.7,1.1,1.3,1.3c0.5,0.1,0.9,0.2,0.9,0.5v0C81.1,30.1,80.9,30.2,80.6,30.2z"/>
	<path d="M39.8,47.2C39.8,47.2,39.8,47.2,39.8,47.2V25.3c0-1-0.2-1.9-0.6-2.8l-1.8-4.4v-5.5c0-1.4-1.2-2.6-2.6-2.6h0H16.1
		c-1.4,0-2.6,1.1-2.6,2.6v5.5l-1.7,4.5c-0.3,0.8-0.5,1.7-0.5,2.6v22c0,1.4,1.1,2.5,2.5,2.5c0,0,0,0,0,0h23.4
		C38.7,49.8,39.8,48.6,39.8,47.2z M33.7,43.7C33.7,43.7,33.7,43.7,33.7,43.7H17.5c-1.4,0-2.5-1.1-2.5-2.5c0,0,0,0,0,0V28.9
		c0-1.4,1.1-2.5,2.5-2.5c0,0,0,0,0,0h16.2c1.4,0,2.5,1.1,2.5,2.5c0,0,0,0,0,0l0,12.3C36.2,42.6,35.1,43.7,33.7,43.7z"/>
	<path d="M85.9,54c-0.5-0.1-0.9-0.1-1.4-0.1h-1.1c-1.6-2.4-4.1-4-6.9-4.5c-0.8-2.2-2.3-4.1-4.3-5.4c-2.4-1.6-5.3-2.1-8.1-1.5
		c-0.6,0.1-1.2,0.3-1.7,0.5c-3.4-3.9-9.2-4.8-13.7-2c-2.5,1.6-4.3,4.1-4.9,7c-3.2,0.7-5.9,2.9-7.3,5.9H35c-1.8,0-3.5,0.7-4.8,2
		s-2,3-2,4.8c0,0.5,0,1,0.1,1.4c2,9.1,8.7,16.6,17.5,20.4v0.7c0,3.9,3.1,7,7,7h13.8c3.9,0,7-3.1,7-7v-0.8
		c8.7-3.9,15.4-11.3,17.4-20.4C91.9,58.3,89.5,54.7,85.9,54z M45.6,51.6l1.8-0.1l0.1-1.8c0.1-2.2,1.3-4.3,3.2-5.4
		c3.2-2,7.4-1,9.3,2.2l1,1.7l1.7-1c0.7-0.4,1.4-0.7,2.1-0.8c1.8-0.4,3.6,0,5.1,1c1.5,1,2.6,2.5,2.9,4.3l0.3,1.5l1.6,0.1
		c0.9,0,1.8,0.3,2.6,0.7H41.1C42.3,52.6,43.9,51.8,45.6,51.6z M66.7,86.2H52.9c-1.4,0-2.6-1-2.9-2.2c3.1,0.9,6.4,1.4,9.7,1.4
		c3.4,0,6.8-0.5,9.9-1.4C69.3,85.2,68.1,86.2,66.7,86.2z M86.5,61C84,72.4,72.7,80.7,59.7,80.7c-13,0-24.3-8.3-26.8-19.6
		c0-0.1,0-0.3,0-0.4c0-0.6,0.2-1.1,0.6-1.5c0.4-0.4,0.9-0.6,1.5-0.6c0,0,0,0,0,0h49.5c0.2,0,0.3,0,0.4,0C86,58.8,86.8,59.9,86.5,61z
		"/>
</g>
</svg>
