<?xml version="1.0" encoding="utf-8"?>
<!-- Generator: Adobe Illustrator 24.0.0, SVG Export Plug-In . SVG Version: 6.00 Build 0)  -->
<svg version="1.1" id="Layer_1" xmlns="http://www.w3.org/2000/svg" xmlns:xlink="http://www.w3.org/1999/xlink" x="0px" y="0px"
	 viewBox="0 0 100 100" style="enable-background:new 0 0 100 100;" xml:space="preserve">
<g>
	<path d="M80.1,22.2c-3.1-1.7-6.3-2.2-9.5-2.6c-2.4-0.3-4.7-0.7-6.8-1.5c-2.9-1.2-5.4-3.8-7.5-7.9c-0.8-1.6-2.6-2.5-4.3-2l-4.3,1.1
		c-1.1,0.3-1.9,1-2.5,1.9s-0.7,2.1-0.4,3.1c0.1,0.5,0.3,0.9,0.6,1.3c2.5,3.7,4.8,7.6,6.9,11.5c3.1,6,4.6,11.4,4.5,16.4
		c-0.1,5.9-2.6,12.9-9.1,14.9c-4.4,1.4-8.9,0.1-13.6-1.4c-4-1.2-8.1-2.5-12.5-2.1c-6.6,0.5-11.3,5.9-12.7,14.5
		c-0.2,1.3-0.2,5.7,0.1,9.6c0.5,8.5,1.6,9.7,2.1,10.2c0.5,0.6,1.2,0.9,1.9,0.9l6,0c2,0,3.6-1.7,3.6-3.8c0-0.3-0.1-0.7-0.1-0.9
		c-1.1-3.8-2.1-8.2-1.4-11.9c0.4-1.9,1.5-3.3,2.3-3.6c0.4-0.1,1,0.1,1.6,0.7c1.8,1.8,3.3,3.9,5,6c2.1,2.8,4.2,5.7,7,8
		c5,4.2,10.9,6.3,17.2,6.3c3.7,0,7.4-0.7,11.3-2.1c13.5-5,24.5-17.7,26.7-30.8C94.3,45.3,91.5,28.6,80.1,22.2z M88.2,57.4
		c-2,11.6-12.1,23.3-24.1,27.8c-9.1,3.4-17.8,2.1-24.6-3.5c-2.4-2-4.3-4.6-6.4-7.3c-1.6-2.2-3.3-4.5-5.4-6.5c-1.5-1.5-3-1.9-4.2-1.9
		c-0.5,0-1,0.1-1.4,0.2c-2.8,0.8-4.5,4-5.1,6.6c-0.9,4.5,0.2,9.3,1.3,13.5H14c-0.9-3-1.4-14-1.1-16.2c0.4-2.5,2.2-10.6,9.1-11.2
		c3.6-0.3,7.2,0.8,11,2c5.1,1.6,10.4,3.2,16,1.4c8.6-2.7,11.8-11.4,11.9-18.7c0.1-5.7-1.5-11.7-4.9-18.3c-2.1-4.1-4.5-8.1-7.2-12
		c0,0,0-0.1,0.1-0.1l4-1.1c2.5,4.9,5.7,8.1,9.5,9.7c2.6,1,5.2,1.4,7.7,1.8c2.9,0.4,5.7,0.8,8.1,2.1C88.5,31.5,89.8,47.8,88.2,57.4z"
		/>
	<path d="M46.5,67.9c0,0-0.1,0-0.1,0c-1.5,0.1-2.6,1.3-2.5,2.8c0,0.1,0,0.1,0,0.2c0.1,1.5,1.3,2.6,2.8,2.6c0.7,0,1.3-0.3,1.8-0.7
		c0.1-0.1,0.2-0.3,0.2-0.5c0,0,0,0,0,0c0-0.3-0.3-0.6-0.6-0.6c-0.1,0-0.3,0-0.4,0.1c-0.3,0.2-0.7,0.4-1.1,0.4c-0.6,0-1.2-0.4-1.3-1
		h3c0,0,0,0,0.1,0c0.4,0,0.7-0.3,0.6-0.7c0,0,0,0,0,0C49,69,47.9,67.9,46.5,67.9z M45.3,70.2c0-0.6,0.5-1.1,1.2-1.1
		c0.6,0,1.1,0.5,1.1,1.1H45.3z"/>
	<path d="M56.6,67.9c-0.7,0-1.3,0.3-1.8,0.9c-0.3-0.6-0.9-0.9-1.5-0.9c-0.6,0-1.2,0.3-1.6,0.9v-0.1c0-0.4-0.3-0.8-0.8-0.8
		s-0.8,0.3-0.8,0.8v4c0,0.4,0.3,0.8,0.8,0.8s0.8-0.3,0.8-0.8v-2.3c0-0.7,0.3-1.1,0.9-1.1s0.9,0.4,0.9,1.1v2.3c0,0.4,0.3,0.8,0.8,0.8
		S55,73,55,72.6v-2.3c0-0.7,0.4-1.1,0.9-1.1c0.6,0,0.9,0.4,0.9,1.1v2.3c0,0.4,0.3,0.8,0.8,0.8s0.8-0.3,0.8-0.8v-2.8
		C58.4,68.5,57.7,67.9,56.6,67.9z"/>
	<path d="M62.9,67.9c-0.7,0-1.3,0.3-1.7,0.9v-0.1c0-0.4-0.3-0.8-0.8-0.8s-0.8,0.3-0.8,0.8v5.5c0,0.4,0.3,0.8,0.8,0.8
		s0.8-0.3,0.8-0.8v-1.6c0.4,0.5,1,0.8,1.7,0.8c0.1,0,0.1,0,0.2,0c1.4-0.1,2.4-1.4,2.2-2.7c0-0.1,0-0.1,0-0.2
		C65.4,69.1,64.3,67.9,62.9,67.9z M63.8,71.1c-0.1,0.7-0.8,1.2-1.5,1.1c-0.7-0.1-1.2-0.8-1.1-1.5c0-0.1,0-0.3,0-0.4
		c0.1-0.7,0.8-1.2,1.5-1.1c0.7,0.1,1.2,0.8,1.1,1.5C63.8,70.8,63.8,70.9,63.8,71.1z"/>
	<path d="M68.9,69.3c0.4,0,0.6-0.3,0.6-0.6c0-0.4-0.3-0.7-0.6-0.7h-0.7v-0.7c0,0,0,0,0,0c0-0.4-0.3-0.8-0.8-0.8
		c-0.4,0-0.8,0.3-0.8,0.8V68c-0.4,0-0.7,0.3-0.7,0.6c0,0.4,0.3,0.7,0.7,0.7v2.5c0,1.2,0.6,1.6,1.6,1.7c0.3,0,0.6,0,0.9-0.1
		c0.2-0.1,0.4-0.3,0.4-0.6c0-0.3-0.3-0.6-0.6-0.6h-0.2c-0.3,0-0.5-0.2-0.5-0.5v-2.3H68.9z"/>
	<path d="M74.7,67.9c-0.3,0-0.6,0.2-0.7,0.6l-1.1,3.1l-1.2-3.1c-0.1-0.3-0.4-0.6-0.7-0.6c0,0,0,0-0.1,0c-0.4,0-0.7,0.4-0.7,0.8
		c0,0.1,0,0.2,0.1,0.3l1.8,4.2v0.1c-0.1,0.2-0.3,0.4-0.5,0.3c-0.1,0-0.2,0-0.3,0c-0.1,0-0.2,0-0.2,0c0,0,0,0,0,0
		c-0.3,0-0.6,0.3-0.6,0.6c0,0.3,0.2,0.6,0.5,0.6c0.3,0.1,0.5,0.1,0.8,0.1c0.9,0,1.4-0.4,1.8-1.5l1.9-4.5c0-0.1,0.1-0.2,0.1-0.4
		c0,0,0,0,0,0C75.4,68.2,75.1,67.9,74.7,67.9z"/>
</g>
</svg>
