<svg id="Layer_1" data-name="Layer 1" xmlns="http://www.w3.org/2000/svg" viewBox="0 0 100 100"><defs><style>.cls-1,.cls-2{fill:none;}.cls-1,.cls-2,.cls-3{stroke:#000;stroke-miterlimit:10;stroke-width:4px;}.cls-2{stroke-linecap:round;}</style></defs><path class="cls-1" d="M51.45,79.47a29.6,29.6,0,0,0,3.35,4.74C57.57,87.39,61,89,65,88.45a14.23,14.23,0,0,1,3.35-.69,14.11,14.11,0,0,1,3.35.69c4.06.58,7.44-1.06,10.21-4.24,6.24-7.16,12-22.38,1.93-28.92a16.29,16.29,0,0,0-14-1.56,4.62,4.62,0,0,1-2.94,0,16.2,16.2,0,0,0-14,1.56"/><path class="cls-2" d="M74.45,42.45s-2.27.86-4.41,4.4c-1.38,2.28-1.29,6.63-1.29,6.63"/><ellipse class="cls-3" cx="61.9" cy="46.73" rx="2.81" ry="7.37" transform="translate(-1.26 91.74) rotate(-72.52)"/><circle class="cls-1" cx="33.61" cy="66.91" r="21.82"/><path d="M34.79,82.9a1.26,1.26,0,0,0,1.44,1.26,17.38,17.38,0,0,0,7.54-3.06,1.27,1.27,0,0,0,.14-1.92L35.72,71a4.72,4.72,0,0,1-.93.36Z"/><path d="M21.34,56.61a1.27,1.27,0,0,0-1.92.13,17.38,17.38,0,0,0-3.06,7.54,1.26,1.26,0,0,0,1.26,1.44H29.17a4.88,4.88,0,0,1,.36-.92Z"/><path d="M17.64,68.26a1.26,1.26,0,0,0-1.25,1.45,17.21,17.21,0,0,0,3.11,7.46,1.26,1.26,0,0,0,1.91.13l8.18-8.18a5.07,5.07,0,0,1-.37-.86Z"/><path d="M23.2,79.1A1.26,1.26,0,0,0,23.34,81a17.36,17.36,0,0,0,7.45,3.12,1.27,1.27,0,0,0,1.46-1.26V71.29a4.46,4.46,0,0,1-.87-.37Z"/><path d="M32.25,50.94a1.27,1.27,0,0,0-1.46-1.26,17.44,17.44,0,0,0-7.56,3.2,1.25,1.25,0,0,0-.12,1.9L31.27,63a4.78,4.78,0,0,1,1-.43Z"/><path d="M44,54.71a1.27,1.27,0,0,0-.14-1.92,17.38,17.38,0,0,0-7.64-3.14,1.27,1.27,0,0,0-1.44,1.26V62.46a4.72,4.72,0,0,1,1,.42Z"/><path d="M49.61,65.72a1.27,1.27,0,0,0,1.26-1.44,17.33,17.33,0,0,0-3.16-7.65,1.26,1.26,0,0,0-1.91-.13l-8.17,8.17a4.8,4.8,0,0,1,.42,1Z"/><path d="M49.58,68.26H38a4.86,4.86,0,0,1-.43,1l8.16,8.16a1.27,1.27,0,0,0,1.91-.12,17.47,17.47,0,0,0,3.2-7.58A1.27,1.27,0,0,0,49.58,68.26Z"/><circle class="cls-1" cx="24.62" cy="25.04" r="13.77"/><path d="M16.46,14a13.7,13.7,0,0,0-2.92,2.92L32.79,36.13a13.94,13.94,0,0,0,2.92-2.92Z"/></svg>