<?xml version="1.0" encoding="utf-8"?>
<!-- Generator: Adobe Illustrator 24.0.0, SVG Export Plug-In . SVG Version: 6.00 Build 0)  -->
<svg version="1.1" id="Layer_1" xmlns="http://www.w3.org/2000/svg" xmlns:xlink="http://www.w3.org/1999/xlink" x="0px" y="0px"
	 viewBox="0 0 100 100" style="enable-background:new 0 0 100 100;" xml:space="preserve">
<g>
	<path d="M21.4,31.4c-5.8,0-10.6,4.7-10.6,10.6v11.4V55v10.9c0,0,0,0,0,0v0.2v0h0c0,5.7,4.5,10.3,10.2,10.4h0.4l0.4,0
		c5.7-0.1,10.2-4.7,10.2-10.4v-0.2V55v-1.7V41.9C32,36.1,27.2,31.4,21.4,31.4z M28.7,65.9c0,4-3.3,7.3-7.3,7.3s-7.3-3.3-7.3-7.3V55
		h14.6V65.9z"/>
	<path d="M89.4,74.9c-0.2-0.5-0.5-0.9-0.8-1.4c-2.5-4.2-5.1-8.4-7.7-12.6c1.3-1.9,2.4-3.9,3.1-6.2c2-6,1.5-12.4-1.3-18
		c-5.8-11.6-20-16.4-31.6-10.6c-5.6,2.8-9.8,7.7-11.8,13.6c-1.9,5.7-1.6,11.7,0.8,17.1c-1.7,0.9-2.5,3.1-1.6,4.9c0,0,0,0,0,0l4,8.3
		c0.6,1.3,1.9,2.1,3.4,2.1c0.6,0,1.1-0.1,1.6-0.4l5.5-2.6l0,0c2.8,1.1,5.7,1.6,8.6,1.6c3.6,0,7.2-0.8,10.5-2.5
		c2.5-1.3,4.7-2.9,6.6-4.9l2.3,4.2l0,0c0.6,1.1,1.2,2.1,1.8,3.2c1.1,1.9,2.1,3.9,3.1,5.8c0.3,0.7,1.2,1.1,1.9,0.8
		c0.4-0.2,0.8-0.4,1.1-0.7C89.6,76.4,89.8,75.5,89.4,74.9z M46.2,69.1c-0.1,0-0.2,0.1-0.3,0.1c-0.3,0-0.6-0.2-0.7-0.4l-4-8.3
		c-0.2-0.4,0-0.8,0.4-1l12.1-5.8l0,0c-0.9,1.1-1.4,2.4-1.4,3.8c0.1,2.8,1.8,5.2,4.5,6.1c0,0.1,0,0.3,0.1,0.4L46.2,69.1z M70.2,64.5
		c-3.5,1.7-7.4,2.3-11.2,1.8l1.2-0.6c0.2-0.1,0.4-0.2,0.5-0.3c-0.6-0.6-1-1.5-1-2.4c0-0.6,0.2-1.2,0.5-1.8h-0.1
		c-2.7,0-4.9-1.7-4.9-3.7c0-1.7,1.5-3.1,3.4-3.6L58,52.4c-0.6-1.3-1.9-2.1-3.4-2.1l0,0c-0.6,0-1.1,0.1-1.6,0.4L44,55
		c-4.1-9.3-0.2-20.3,9-24.9c9.5-4.7,21.1-0.9,25.8,8.6c2.3,4.6,2.7,9.8,1,14.7c-0.4,1.2-0.9,2.3-1.5,3.4c-0.2-0.5-0.1-1,0.3-1.5
		c1-1.2,1.3-2.8,0.8-4.3c-0.5-1.5-1.2-3-1.9-4.4c-0.9-2-2.2-3.8-3.7-5.4c-0.4-0.4-0.8-0.6-1.4-0.7c-0.9-0.1-1.1,0.3-0.7,1.1
		c1.2,2.2,2.3,4.4,3.5,6.6c0.2,0.3,0.3,0.7,0.3,1.1c0,0.2,0,0.3-0.1,0.5c-0.2,0.3-0.6,0.3-0.9,0.1c-0.3-0.2-0.5-0.4-0.7-0.7
		c-1.3-2.1-2.7-4.2-4-6.3c-0.4-0.7-0.8-0.7-1.4-0.4c-0.6,0.4-0.7,0.7-0.4,1.4c1.1,2.2,2.3,4.4,3.5,6.7c0.2,0.3,0.2,0.7,0.2,1
		c0,0.2,0,0.3-0.1,0.5c-0.2,0.3-0.6,0.3-0.9,0.1c-0.3-0.2-0.6-0.5-0.8-0.8c-0.7-1.2-1.5-2.4-2.1-3.6c-0.6-1-1.2-2-1.9-3
		c-0.3-0.5-0.6-0.5-1,0c-0.4,0.5-0.5,1.2-0.2,1.8c1.1,3.4,2.8,6.5,5,9.2c1,1.5,2.7,2.3,4.5,2.2c0.9-0.2,1.7,0.3,2,1.1l0.3,0.5
		C74.9,61.5,72.7,63.2,70.2,64.5z"/>
	<path d="M54.6,39c-1.8,0-3.3,1.5-3.3,3.3c0,1.8,1.5,3.3,3.3,3.3c1.8,0,3.3-1.5,3.3-3.3C57.9,40.5,56.4,39,54.6,39z"/>
	<path d="M64.1,40.9c-0.6-4.5-4.8-7.7-9.3-7.1l0,0c-3.2,0.5-5.8,2.9-6.6,6c-0.1,0.4-0.4,0.6-0.8,0.8c-1,0.3-1.8,0.8-2.5,1.6
		c-1,1-1.5,2.4-1.4,3.8c0.1,1.4,0.8,2.6,1.8,3.5c0.9,0.8,2.1,1.2,3.3,1.2c0.2,0,0.3,0,0.5,0c0.8-0.1,1.6-0.3,2.3-0.8
		c0.6-0.4,1.3-0.5,2-0.3c1.1,0.4,2.2,0.5,3.3,0.4c4.5-0.4,7.8-4.3,7.4-8.8L64.1,40.9z M56.5,46.9c-0.7,0.1-1.4,0-2.1-0.2
		c-1.6-0.5-3.3-0.2-4.6,0.7c-0.3,0.2-0.6,0.3-1,0.3c-1.2,0.1-2.2-0.7-2.3-1.9c0-0.6,0.2-1.1,0.6-1.5l0.1-0.1
		c0.3-0.3,0.7-0.6,1.1-0.7c1.4-0.4,2.5-1.5,2.9-2.9c0.5-2,2.1-3.5,4.2-3.8c2.9-0.4,5.5,1.7,5.9,4.5l0,0.1
		C61.4,44.2,59.3,46.7,56.5,46.9z"/>
</g>
</svg>
