<svg id="Layer_1" data-name="Layer 1" xmlns="http://www.w3.org/2000/svg" viewBox="0 0 100 100"><defs><style>.cls-1,.cls-2{fill:none;}.cls-1,.cls-2,.cls-3{stroke:#000;stroke-miterlimit:10;stroke-width:4px;}.cls-1{stroke-linecap:round;}</style></defs><path class="cls-1" d="M57,80a29.54,29.54,0,0,0,24.75-28"/><path class="cls-2" d="M45.7,76.5A29.41,29.41,0,0,0,75.81,48.17a28.89,28.89,0,0,0-.55-6.7A2.09,2.09,0,0,1,77,39l4.08-.62a2.09,2.09,0,0,1,1.9.7A29.35,29.35,0,0,1,44,82.16,3.09,3.09,0,0,1,45.7,76.5Z"/><path class="cls-3" d="M73.62,29.47H79a0,0,0,0,1,0,0v8.75a1.93,1.93,0,0,1-1.93,1.93H75.55a1.93,1.93,0,0,1-1.93-1.93V29.47A0,0,0,0,1,73.62,29.47Z" transform="translate(160.16 36.64) rotate(156.73)"/><path class="cls-2" d="M36.17,65.25c4.52.64,8.28-1.18,11.37-4.72,7-8,13.41-24.93,2.15-32.22A18.2,18.2,0,0,0,34,26.57a5.12,5.12,0,0,1-3.28,0,18,18,0,0,0-15.59,1.74c-11.26,7.29-4.8,24.24,2.15,32.22,3.09,3.54,6.85,5.36,11.38,4.72a15.59,15.59,0,0,1,3.73-.77A15.82,15.82,0,0,1,36.17,65.25Z"/><path class="cls-1" d="M39.22,14s-2.53,1-4.92,4.91c-1.54,2.54-1.44,7.39-1.44,7.39"/><ellipse class="cls-3" cx="25.24" cy="18.78" rx="3.13" ry="8.21" transform="translate(-0.25 37.21) rotate(-72.52)"/></svg>