<svg id="Layer_1" data-name="Layer 1" xmlns="http://www.w3.org/2000/svg" viewBox="0 0 100 100"><defs><style>.cls-1,.cls-2{fill:none;}.cls-1{stroke:#000;stroke-miterlimit:10;stroke-width:4px;}</style></defs><path class="cls-1" d="M36.21,24.68A34.37,34.37,0,1,1,23.12,38"/><path d="M55.17,79.75a2,2,0,0,0,2.27,2,27.4,27.4,0,0,0,11.9-4.84,2,2,0,0,0,.22-3L56.66,61a7.65,7.65,0,0,1-1.49.57Z"/><path d="M34,38.29a2,2,0,0,0-3,.22,27.44,27.44,0,0,0-4.84,11.88,2,2,0,0,0,2,2.27H46.29a7.46,7.46,0,0,1,.57-1.47Z"/><path d="M28.14,56.66a2,2,0,0,0-2,2.3,27.39,27.39,0,0,0,4.91,11.75,2,2,0,0,0,3,.21L47,58.05a7.44,7.44,0,0,1-.59-1.39Z"/><path d="M36.91,73.75a2,2,0,0,0,.21,3,27.37,27.37,0,0,0,11.75,4.93,2,2,0,0,0,2.3-2V61.48a6.87,6.87,0,0,1-1.39-.6Z"/><path d="M51.17,29.36a2,2,0,0,0-2.3-2,27.21,27.21,0,0,0-11.92,5,2,2,0,0,0-.2,3L49.61,48.28a7.3,7.3,0,0,1,1.56-.7Z"/><path d="M69.71,35.3a2,2,0,0,0-.21-3,27.39,27.39,0,0,0-12.06-5,2,2,0,0,0-2.27,2v18.2a6.92,6.92,0,0,1,1.67.66Z"/><path d="M78.53,52.66a2,2,0,0,0,2-2.27,27.42,27.42,0,0,0-5-12.06,2,2,0,0,0-3-.21L59.67,51a7.38,7.38,0,0,1,.67,1.67Z"/><path d="M78.49,56.66H60.27a7.24,7.24,0,0,1-.7,1.58L72.43,71.1a2,2,0,0,0,3-.2,27.42,27.42,0,0,0,5-11.94A2,2,0,0,0,78.49,56.66Z"/><path class="cls-2" d="M60.59,54.53a7.27,7.27,0,0,0-.25-1.87,7.21,7.21,0,0,0-3.5-4.49,6.92,6.92,0,0,0-1.67-.66,7.06,7.06,0,0,0-1.85-.25,7.11,7.11,0,0,0-3.71,1,7.34,7.34,0,0,0-2.75,2.91,7.46,7.46,0,0,0-.57,1.47A7.73,7.73,0,0,0,46,54.53,7.28,7.28,0,0,0,47,58.05a7.26,7.26,0,0,0,2.83,2.83,6.87,6.87,0,0,0,1.39.6,7.27,7.27,0,0,0,2.15.33,7.51,7.51,0,0,0,1.85-.25A7.65,7.65,0,0,0,56.66,61a7.34,7.34,0,0,0,2.91-2.75,7.24,7.24,0,0,0,.7-1.58A7.13,7.13,0,0,0,60.59,54.53Z"/><circle class="cls-1" cx="22.53" cy="24.84" r="13.77"/><path d="M14.37,13.75a13.7,13.7,0,0,0-2.92,2.92L30.7,35.92A13.94,13.94,0,0,0,33.62,33Z"/></svg>