<?xml version="1.0" encoding="utf-8"?>
<!-- Generator: Adobe Illustrator 24.0.0, SVG Export Plug-In . SVG Version: 6.00 Build 0)  -->
<svg version="1.1" id="Layer_1" xmlns="http://www.w3.org/2000/svg" xmlns:xlink="http://www.w3.org/1999/xlink" x="0px" y="0px"
	 viewBox="0 0 100 100" style="enable-background:new 0 0 100 100;" xml:space="preserve">
<g>
	<path d="M75.8,40c8.4,0,15.3-6.9,15.3-15.3S84.2,9.5,75.8,9.5s-15.3,6.9-15.3,15.3S67.4,40,75.8,40z M75.8,12.5
		c6.8,0,12.3,5.5,12.3,12.3S82.6,37,75.8,37s-12.3-5.5-12.3-12.3S69,12.5,75.8,12.5z"/>
	<path d="M76.1,25c1.9,0,3.2-0.9,3.2-2.5v0c0-1-0.5-1.5-1.4-2c0.6-0.4,1.1-0.9,1.1-1.8v0c0-1.3-1.2-2.3-3-2.3c-1.8,0-3,1-3,2.3v0
		c0,0.9,0.4,1.4,1.1,1.8c-0.9,0.4-1.4,1-1.4,2v0C72.8,24,74.2,25,76.1,25z M74.9,18.8c0-0.5,0.4-1,1.2-1c0.8,0,1.2,0.5,1.2,1v0
		c0,0.6-0.5,1-1.2,1C75.3,19.9,74.9,19.4,74.9,18.8L74.9,18.8z M74.6,22.4c0-0.6,0.6-1,1.5-1c0.8,0,1.5,0.4,1.5,1v0
		c0,0.6-0.5,1-1.5,1C75.1,23.4,74.6,23,74.6,22.4L74.6,22.4z"/>
	<path d="M71.5,31.9c0.3,0,0.6-0.3,0.6-0.6v-1.8c0-0.6,0.3-0.9,0.8-0.9s0.7,0.3,0.7,0.9v1.8c0,0.3,0.3,0.6,0.6,0.6s0.6-0.3,0.6-0.6
		V29c0-1-0.5-1.6-1.5-1.6c-0.6,0-1,0.3-1.3,0.7v-1.6c0-0.3-0.3-0.6-0.6-0.6s-0.6,0.3-0.6,0.6v4.7C70.8,31.6,71.1,31.9,71.5,31.9z"/>
	<path d="M77.5,27.5c-0.4,0-0.6,0.4-0.8,0.8v-0.2c0-0.3-0.3-0.6-0.6-0.6s-0.6,0.3-0.6,0.6v3.2c0,0.3,0.3,0.6,0.6,0.6
		s0.6-0.3,0.6-0.6v-1.1c0-0.9,0.3-1.3,1-1.5c0.2-0.1,0.5-0.2,0.5-0.6C78.1,27.7,77.8,27.5,77.5,27.5z"/>
	<path d="M78.3,28.8L78.3,28.8c0,0.8,0.7,1.1,1.3,1.3c0.5,0.1,0.9,0.2,0.9,0.5v0c0,0.2-0.2,0.3-0.5,0.3c-0.3,0-0.8-0.1-1.2-0.4
		c-0.1,0-0.2-0.1-0.2-0.1c-0.3,0-0.5,0.2-0.5,0.5c0,0.2,0.1,0.3,0.2,0.4c0.5,0.3,1.1,0.5,1.6,0.5c0.9,0,1.6-0.4,1.6-1.4v0
		c0-0.8-0.7-1.1-1.3-1.3c-0.5-0.2-0.9-0.3-0.9-0.5v0c0-0.2,0.2-0.3,0.4-0.3c0.3,0,0.6,0.1,0.9,0.3c0.1,0,0.1,0.1,0.2,0.1
		c0.3,0,0.5-0.2,0.5-0.5c0-0.2-0.1-0.4-0.3-0.5c-0.4-0.2-0.9-0.3-1.3-0.3C79,27.5,78.3,27.9,78.3,28.8z"/>
	<path d="M75.8,60.6c-5.4,0-10.2,2.9-12.9,7.1v-9.1c0-1.2-0.2-2.5-0.7-3.6l-2.3-5.6v-7.1c0-1.8-1.5-3.3-3.3-3.3H34.3
		c4-2.9,6.6-7.5,6.6-12.8c0-8.7-7.1-15.8-15.8-15.8S9.3,17.7,9.3,26.4s7.1,15.8,15.8,15.8c1.6,0,3.1-0.2,4.6-0.7
		c-0.1,0.3-0.2,0.6-0.2,0.9v7.1l-2.2,5.7c-0.4,1.1-0.6,2.2-0.6,3.3v28c0,1.8,1.4,3.2,3.2,3.2h29.8c1.8,0,3.2-1.4,3.2-3.2V84
		c2.7,4.3,7.5,7.1,12.9,7.1c8.4,0,15.3-6.8,15.3-15.3S84.2,60.6,75.8,60.6z M36.9,26.4c0,2.5-0.8,4.8-2.1,6.7L18.4,16.7
		c1.9-1.3,4.2-2.1,6.7-2.1C31.6,14.6,36.9,19.9,36.9,26.4z M13.3,26.4c0-2.5,0.8-4.8,2.1-6.7L31.8,36c-1.9,1.3-4.2,2.1-6.7,2.1
		C18.6,38.1,13.3,32.9,13.3,26.4z M58.3,78.8c0,1.8-1.4,3.2-3.2,3.2c0,0,0,0,0,0H34.5c-1.8,0-3.2-1.4-3.2-3.2V63.2
		c0-1.8,1.4-3.2,3.2-3.2h20.6c1.8,0,3.2,1.4,3.2,3.2V78.8z M75.8,88.2c-6.8,0-12.3-5.5-12.3-12.3S69,63.6,75.8,63.6
		s12.3,5.5,12.3,12.3S82.6,88.2,75.8,88.2z"/>
	<path d="M77.8,75.2v-1h0.4c0.4,0,0.8-0.3,0.8-0.7s-0.3-0.8-0.8-0.8h-0.4v-4.3c0-0.5-0.4-0.9-0.9-0.9c-0.5,0-0.8,0.2-1.2,0.6
		l-3.6,4.2c-0.3,0.3-0.4,0.6-0.4,1c0,0.5,0.4,0.9,0.9,0.9h3.5v1c0,0.5,0.4,0.9,0.9,0.9C77.4,76.1,77.8,75.7,77.8,75.2z M76.1,72.7
		h-2.2l2.2-2.6V72.7z"/>
	<path d="M75.1,78.6c-0.6,0-1,0.3-1.3,0.7v-1.6c0-0.3-0.3-0.6-0.6-0.6s-0.6,0.3-0.6,0.6v4.7c0,0.3,0.3,0.6,0.6,0.6s0.6-0.3,0.6-0.6
		v-1.8c0-0.6,0.3-0.9,0.8-0.9s0.7,0.3,0.7,0.9v1.8c0,0.3,0.3,0.6,0.6,0.6s0.6-0.3,0.6-0.6v-2.2C76.6,79.2,76,78.6,75.1,78.6z"/>
	<path d="M79.3,78.7c-0.4,0-0.6,0.4-0.8,0.8v-0.2c0-0.3-0.3-0.6-0.6-0.6s-0.6,0.3-0.6,0.6v3.2c0,0.3,0.3,0.6,0.6,0.6
		s0.6-0.3,0.6-0.6v-1.1c0-0.9,0.3-1.3,1-1.5c0.2-0.1,0.5-0.2,0.5-0.6C79.9,78.9,79.7,78.7,79.3,78.7z"/>
	<path d="M43.7,66.1h-5.5c-0.6,0-1.1,0.5-1.1,1.1V75c0,0,0,0,0,0c0,0.6,0.5,1.1,1.1,1.1c0.6,0,1.1-0.5,1.1-1.1v-2.8h3.8
		c0.6,0,1-0.4,1-1c0-0.6-0.4-1-1-1h-3.8v-2.1h4.4c0.6,0,1-0.4,1-1C44.7,66.5,44.2,66.1,43.7,66.1z"/>
	<path d="M49.2,68.2c-0.1,0-0.1,0-0.2,0c-2.1,0.1-3.6,1.8-3.5,3.9c0,0.1,0,0.2,0,0.3c0.1,2.1,1.8,3.7,3.9,3.6c1,0,1.9-0.3,2.6-0.9
		c0.2-0.2,0.3-0.4,0.3-0.6c0,0,0,0,0,0c0-0.5-0.4-0.8-0.8-0.8c-0.2,0-0.4,0.1-0.5,0.2c-0.4,0.3-1,0.5-1.5,0.5
		c-0.9,0.1-1.7-0.6-1.8-1.5h4.2c0.6,0,1-0.4,1-1c0,0,0-0.1,0-0.1C52.8,69.7,51.2,68.2,49.2,68.2z M47.6,71.5c0-0.9,0.8-1.6,1.6-1.6
		c0.9,0,1.6,0.7,1.6,1.6H47.6z"/>
</g>
</svg>
