<?xml version="1.0" encoding="utf-8"?>
<!-- Generator: Adobe Illustrator 24.0.0, SVG Export Plug-In . SVG Version: 6.00 Build 0)  -->
<svg version="1.1" id="Layer_1" xmlns="http://www.w3.org/2000/svg" xmlns:xlink="http://www.w3.org/1999/xlink" x="0px" y="0px"
	 viewBox="0 0 100 100" style="enable-background:new 0 0 100 100;" xml:space="preserve">
<g>
	<path d="M75.6,40.2c8.4,0,15.3-6.9,15.3-15.3S84,9.7,75.6,9.7s-15.3,6.9-15.3,15.3S67.2,40.2,75.6,40.2z M75.6,12.7
		c6.8,0,12.3,5.5,12.3,12.3s-5.5,12.3-12.3,12.3s-12.3-5.5-12.3-12.3S68.8,12.7,75.6,12.7z"/>
	<path d="M73.3,18.6c0.1,0,0.2,0,0.3,0l0.6-0.2v5.8c0,0.5,0.4,0.9,0.9,0.9c0.5,0,0.9-0.4,0.9-0.9v-6.8c0-0.5-0.4-0.9-0.9-0.9h0
		c-0.3,0-0.5,0.1-0.9,0.2L73.1,17c-0.4,0.1-0.6,0.4-0.6,0.8C72.5,18.3,72.8,18.6,73.3,18.6z"/>
	<path d="M74.9,27.7c-0.6,0-1,0.3-1.3,0.7v-1.6c0-0.3-0.3-0.6-0.6-0.6s-0.6,0.3-0.6,0.6v4.7c0,0.3,0.3,0.6,0.6,0.6s0.6-0.3,0.6-0.6
		v-1.8c0-0.6,0.3-0.9,0.8-0.9s0.7,0.3,0.7,0.9v1.8c0,0.3,0.3,0.6,0.6,0.6s0.6-0.3,0.6-0.6v-2.2C76.4,28.3,75.9,27.7,74.9,27.7z"/>
	<path d="M77.7,32.1c0.3,0,0.6-0.3,0.6-0.6v-1.1c0-0.9,0.3-1.3,1-1.5c0.2-0.1,0.5-0.2,0.5-0.6c0-0.3-0.2-0.6-0.6-0.6
		c-0.4,0-0.6,0.4-0.8,0.8v-0.2c0-0.3-0.3-0.6-0.6-0.6S77,28,77,28.3v3.2C77,31.8,77.3,32.1,77.7,32.1z"/>
	<path d="M90.2,62.5c-0.9-1.4-2.2-2.3-3.8-2.6c-0.4-0.1-0.9-0.1-1.3-0.1h-0.8c-1.4-1.9-3.4-3.2-5.7-3.6c-1.6-4.2-6.1-6.8-10.7-5.9
		c-0.4,0.1-0.9,0.2-1.3,0.4c-1.3-1.4-2.9-2.3-4.7-2.8c-2.4-0.6-5-0.2-7.1,1.2c-2.1,1.3-3.6,3.4-4.2,5.9c-2.6,0.7-4.9,2.4-6.1,4.9h-1
		c0,0,0,0,0,0c-1.5,0-2.9,0.5-4,1.5L40.9,45c0-0.2,0-0.3,0-0.5c0-1.5-0.6-3-1.7-4c-1.1-1.1-2.5-1.7-4-1.7H31c3.8-2.8,6.8-7,5.4-10.7
		c-0.8-2.1-2.4-3.2-3.7-4.1c-1-0.7-1.8-1.2-2.2-2.1c-0.4-0.9-1.1-4.9,4.2-8.2c0.9-0.6,1.2-1.8,0.6-2.8c-0.6-0.9-1.8-1.2-2.8-0.6
		c-6.9,4.3-7.1,10.4-5.7,13.4c0.9,1.8,2.3,2.7,3.5,3.6c1.2,0.8,1.9,1.3,2.3,2.3c0.6,1.4-1.6,4.5-4.7,6.5c-0.9,0.6-1.2,1.8-0.6,2.7
		H16.6c4.2-2.8,7.7-7.3,6.1-11.3c-0.9-2.1-2.4-3.2-3.7-4.1c-1-0.7-1.7-1.2-2.2-2.1c-0.4-0.9-1.1-4.9,4.2-8.2
		c0.9-0.6,1.2-1.8,0.6-2.8c-0.6-0.9-1.8-1.2-2.8-0.6c-6.9,4.3-7.1,10.4-5.7,13.3c0.9,1.8,2.3,2.8,3.5,3.6c1.2,0.8,1.9,1.3,2.3,2.3
		c0.6,1.5-1.6,4.5-4.7,6.5c-0.9,0.6-1.2,1.8-0.6,2.8c0.1,0.2,0.3,0.4,0.5,0.5H14c-0.2,0-0.3,0-0.5,0c-1.5,0.1-2.9,0.8-3.9,2
		c-1,1.2-1.4,2.6-1.3,4.2l3.7,41.7c0.3,2.9,2.7,5.2,5.6,5.2c0,0,0,0,0,0h13.8c0,0,0,0,0,0c3,0,5.4-2.2,5.6-5.2l1.4-16.1
		c2.4,6.1,7.4,11,13.7,13.8v0.4c0,3.4,2.8,6.1,6.2,6.1h11.7c0,0,0,0,0,0c1.6,0,3.2-0.6,4.3-1.8c1.2-1.2,1.8-2.7,1.8-4.4v-0.4
		c7.4-3.3,13-9.6,14.7-17.3C91.4,65.5,91.1,63.9,90.2,62.5z M12.7,43.5c0.3-0.3,0.7-0.6,1.1-0.6c0,0,0.1,0,0.1,0h21.2
		c0.5,0,0.9,0.2,1.2,0.5c0.3,0.3,0.5,0.7,0.5,1.2c0,0,0,0.1,0,0.1l-1,11.7H13.4l-1-11.7C12.3,44.2,12.5,43.8,12.7,43.5z M52.5,58.7
		l1.8-0.1l0.1-1.8c0.1-1.8,1-3.4,2.5-4.3c1.2-0.8,2.7-1,4.1-0.7c1.4,0.3,2.6,1.2,3.3,2.4l1,1.7l1.7-1c0.5-0.3,1.1-0.5,1.7-0.6
		c1.4-0.3,2.8,0,4,0.8c1.2,0.8,2,2,2.3,3.4l0.3,1.4H49.6C50.4,59.1,51.4,58.7,52.5,58.7z M71.7,86.4c-0.4,0.4-0.9,0.7-1.5,0.6h-5.9
		h-5.8c-0.8,0-1.4-0.4-1.8-1c2.4,0.6,5,1,7.6,1c2.7,0,5.3-0.4,7.7-1C71.9,86.1,71.8,86.2,71.7,86.4z M86.5,66.1
		C84.4,75.5,75,82.3,64.3,82.3c-10.8,0-20.1-6.8-22.2-16.2c0-0.1,0-0.2,0-0.3c0-0.4,0.1-0.7,0.4-1c0.3-0.3,0.6-0.4,1-0.4
		c0,0,0,0,0,0h41.6c0.1,0,0.2,0,0.3,0c0.4,0.1,0.7,0.3,0.9,0.6S86.5,65.8,86.5,66.1z"/>
	<path d="M48.7,38.3c1.2,0.8,1.9,1.3,2.3,2.3c0.6,1.5-1.6,4.5-4.7,6.5c-0.9,0.6-1.2,1.8-0.6,2.8c0.4,0.6,1,0.9,1.7,0.9
		c0.4,0,0.7-0.1,1.1-0.3c4.3-2.8,7.9-7.3,6.3-11.3c-0.9-2.1-2.5-3.2-3.7-4.1c-1-0.7-1.7-1.2-2.2-2c-0.4-0.9-1-4.9,4.2-8.2
		c0.9-0.6,1.2-1.8,0.6-2.8c-0.6-0.9-1.8-1.2-2.8-0.6c-6.9,4.2-7.1,10.4-5.7,13.3C46.1,36.5,47.5,37.5,48.7,38.3z"/>
</g>
</svg>
