<?xml version="1.0" encoding="utf-8"?>
<!-- Generator: Adobe Illustrator 24.0.0, SVG Export Plug-In . SVG Version: 6.00 Build 0)  -->
<svg version="1.1" id="Layer_1" xmlns="http://www.w3.org/2000/svg" xmlns:xlink="http://www.w3.org/1999/xlink" x="0px" y="0px"
	 viewBox="0 0 100 100" style="enable-background:new 0 0 100 100;" xml:space="preserve">
<g>
	<path d="M94.5,52.6c-1.1-1.6-2.7-2.8-4.7-3.2c-0.5-0.1-1-0.2-1.5-0.2H87c-1.9-3.1-5.1-5.2-8.7-5.8c-0.9-2.7-2.6-5-5-6.5
		c-2.8-1.9-6.2-2.5-9.5-1.8c-0.8,0.2-1.6,0.4-2.3,0.7c-1.7-2.1-4.1-3.5-6.8-4.1c-3.3-0.8-6.7-0.2-9.5,1.6c-3,1.9-5.1,5-5.8,8.4
		c-4.1,0.8-7.5,3.7-9.1,7.6h-1.8c0,0,0,0,0,0c-2,0-3.8,0.8-5.2,2.1c-1.4,1.4-2.2,3.2-2.2,5.2c0,0.5,0,1,0.2,1.6
		C23.6,69,31.5,77.8,42,82.4v1.7c0,4.4,3.6,8,8,8h16.8c4.4,0,8-3.6,8-8v-1.8C85.2,77.7,93.1,69,95.5,58.2
		C95.9,56.2,95.6,54.3,94.5,52.6z M41.3,45.4l1.8-0.1l0.1-1.8c0.1-2.8,1.7-5.4,4.1-6.9c2-1.2,4.3-1.6,6.5-1.1
		c2.2,0.5,4.1,1.9,5.4,3.8l1,1.7l1.7-1c0.8-0.5,1.8-0.9,2.7-1.1c2.3-0.5,4.6,0,6.5,1.2c1.9,1.3,3.2,3.2,3.7,5.5l0.3,1.5l1.6,0.1
		c1.9,0.1,3.6,0.7,5,1.9H34.8C36.2,47,38.6,45.6,41.3,45.4z M70.8,84.1c0,2.2-1.8,4-4,4H50c-2.2,0-4-1.8-4-4v-0.2
		c3.9,1.2,8.1,1.9,12.3,1.9c4.3,0,8.5-0.7,12.5-1.9V84.1z M91.6,57.3c-3.2,14.2-17.2,24.4-33.3,24.4c-16.1,0-30.1-10.3-33.3-24.4
		c0-0.2-0.1-0.5-0.1-0.7c0-0.9,0.4-1.8,1-2.4c0.6-0.6,1.5-1,2.4-1c0,0,0,0,0,0h59.9c0.2,0,0.5,0,0.7,0.1c0.9,0.2,1.6,0.7,2.1,1.5
		C91.6,55.6,91.8,56.5,91.6,57.3z"/>
	<path d="M42.4,25.1c0-8.7-7.1-15.8-15.8-15.8s-15.8,7.1-15.8,15.8s7.1,15.8,15.8,15.8S42.4,33.8,42.4,25.1z M38.4,25.1
		c0,2.5-0.8,4.8-2.1,6.7L19.9,15.5c1.9-1.3,4.2-2.1,6.7-2.1C33.1,13.4,38.4,18.6,38.4,25.1z M14.8,25.1c0-2.5,0.8-4.8,2.1-6.7
		l16.4,16.4c-1.9,1.3-4.2,2.1-6.7,2.1C20.1,36.9,14.8,31.6,14.8,25.1z"/>
</g>
</svg>
