<?xml version="1.0" encoding="utf-8"?>
<!-- Generator: Adobe Illustrator 24.0.0, SVG Export Plug-In . SVG Version: 6.00 Build 0)  -->
<svg version="1.1" id="Layer_1" xmlns="http://www.w3.org/2000/svg" xmlns:xlink="http://www.w3.org/1999/xlink" x="0px" y="0px"
	 viewBox="0 0 100 100" style="enable-background:new 0 0 100 100;" xml:space="preserve">
<g>
	<path d="M79.4,5.4c-9.2,0-16.7,7.5-16.7,16.6s7.5,16.6,16.7,16.6S96,31.2,96,22S88.5,5.4,79.4,5.4z M79.4,34.6
		c-7,0-12.7-5.7-12.7-12.6S72.4,9.4,79.4,9.4C86.3,9.4,92,15,92,22S86.3,34.6,79.4,34.6z"/>
	<path d="M85.8,20h-4.3c0,0-0.1-0.1-0.1-0.1v-6.8c0-1.1-0.9-2-2-2s-2,0.9-2,2v6.8c-0.6,0.5-0.9,1.3-0.9,2.1c0,1.6,1.3,2.9,2.9,2.9
		c0.8,0,1.6-0.4,2.1-0.9h4.3c1.1,0,2-0.9,2-2S86.9,20,85.8,20z"/>
	<path d="M81.7,46.5c-0.5-0.1-1.1-0.2-1.6-0.2h-1.5c-1.9-2.9-5-4.9-8.5-5.5c-2-6-8.2-9.7-14.5-8.4c-0.8,0.2-1.6,0.4-2.3,0.7
		c-1.7-2.1-4.1-3.5-6.8-4.1c-3.3-0.8-6.7-0.2-9.5,1.6c-3,1.9-5.1,5-5.8,8.4c-4,0.8-7.4,3.5-9,7.3h-1.9c0,0,0,0,0,0
		c-4.2,0-7.7,3.4-7.7,7.7c0,0.5,0.1,1.1,0.2,1.7c2.5,11,10.5,19.9,21.2,24.5v1.3c0,4.4,3.6,8,8,8h16.8c4.4,0,8-3.6,8-8v-1.4
		c10.6-4.6,18.6-13.5,21-24.4c0.4-2,0-4.1-1.1-5.8S83.7,46.9,81.7,46.5z M33,42.8l1.8-0.1l0.1-1.8c0.1-2.8,1.7-5.4,4.1-6.9
		c2-1.2,4.3-1.6,6.5-1.1s4.1,1.9,5.4,3.8l1,1.7l1.7-1c0.8-0.5,1.8-0.9,2.7-1.1c4.7-1,9.2,2,10.2,6.7l0.3,1.5l1.6,0.1
		c1.7,0.1,3.3,0.7,4.7,1.7H26.7C28.2,44.3,30.5,43,33,42.8z M58.6,85.5H41.8c-2.2,0-3.9-1.7-4-3.9c3.9,1.2,8,1.9,12.3,1.9
		c4.3,0,8.5-0.7,12.5-1.9C62.5,83.7,60.8,85.5,58.6,85.5z M83.1,54.6c-3.1,14-17,24.2-33,24.2c-16,0-29.8-10.2-33-24.1
		c0-0.2-0.1-0.4-0.1-0.6c0-1.7,1.4-3,3.1-3c0,0,0,0,0,0h59.9c0.2,0,0.4,0,0.6,0.1c0.8,0.2,1.5,0.6,1.9,1.3
		C83.1,53,83.2,53.9,83.1,54.6z"/>
</g>
</svg>
