<svg id="Layer_1" data-name="Layer 1" xmlns="http://www.w3.org/2000/svg" viewBox="0 0 100 100"><path d="M77.5,36.53l-3.68-8.77h0V16.68a5.13,5.13,0,0,0-5.13-5.13H31.28a5.14,5.14,0,0,0-5.14,5.13V27.76l-3.42,9a14.86,14.86,0,0,0-1,5.23V86a5,5,0,0,0,5,5H73.6a5,5,0,0,0,5-5V42.21A14.77,14.77,0,0,0,77.5,36.53Zm-6,37.26a5,5,0,0,1-5,5H34a5,5,0,0,1-5-5V49.27a5,5,0,0,1,5-5H66.42a5,5,0,0,1,5,5Z"/><path d="M35.55,62.37v-4.6a1.08,1.08,0,1,1,2.15,0v4.55c0,1.6.8,2.42,2.12,2.42s2.11-.8,2.11-2.35V57.77a1.08,1.08,0,1,1,2.16,0V62.3c0,3-1.67,4.43-4.3,4.43S35.55,65.26,35.55,62.37Z"/><path d="M46.13,62.37v-4.6a1.08,1.08,0,1,1,2.16,0v4.55c0,1.6.8,2.42,2.11,2.42s2.12-.8,2.12-2.35V57.77a1.08,1.08,0,1,1,2.15,0V62.3c0,3-1.66,4.43-4.3,4.43S46.13,65.26,46.13,62.37Z"/><path d="M56.71,62.37v-4.6a1.08,1.08,0,1,1,2.16,0v4.55c0,1.6.8,2.42,2.12,2.42s2.11-.8,2.11-2.35V57.77a1.08,1.08,0,1,1,2.16,0V62.3c0,3-1.67,4.43-4.3,4.43S56.71,65.26,56.71,62.37Z"/></svg>