<svg id="Layer_1" data-name="Layer 1" xmlns="http://www.w3.org/2000/svg" viewBox="0 0 100 100"><defs><style>.cls-1{fill:none;stroke:#000;stroke-miterlimit:10;stroke-width:4px;}</style></defs><circle class="cls-1" cx="23.18" cy="25.41" r="13.77"/><path d="M15,14.33a13.48,13.48,0,0,0-2.92,2.92L31.35,36.5a13.94,13.94,0,0,0,2.92-2.92Z"/><path d="M87.86,49.76l-2.77-6.61h0V34.81A3.87,3.87,0,0,0,81.2,31H53.05a3.86,3.86,0,0,0-3.86,3.86v8.35l-2.58,6.75a11.09,11.09,0,0,0-.73,3.94V87a3.8,3.8,0,0,0,3.8,3.8H84.92a3.8,3.8,0,0,0,3.8-3.8V54A11.05,11.05,0,0,0,87.86,49.76ZM83.31,77.82a3.8,3.8,0,0,1-3.8,3.8H55.09a3.8,3.8,0,0,1-3.8-3.8V59.35a3.8,3.8,0,0,1,3.8-3.79H79.51a3.8,3.8,0,0,1,3.8,3.79Z"/><path d="M19.07,66.88A11.25,11.25,0,1,0,30.32,78.12,11.25,11.25,0,0,0,19.07,66.88Zm5.48,18.69L11.63,72.64a9.11,9.11,0,0,1,2-2L26.52,83.61A9.89,9.89,0,0,1,24.55,85.57Z"/><path d="M36.47,78.74h-2.2a1.29,1.29,0,1,1,0-2.57h2.2V74a1.33,1.33,0,0,1,2.65,0v2.15h2.2a1.29,1.29,0,1,1,0,2.57h-2.2v2.15a1.33,1.33,0,0,1-2.65,0Z"/><path d="M60.22,71.72,63.64,64a1.34,1.34,0,0,1,1.26-.86H65a1.33,1.33,0,0,1,1.25.86l3.42,7.72a1,1,0,0,1-.91,1.47,1.11,1.11,0,0,1-1-.74l-.66-1.55H62.77l-.69,1.62a1,1,0,0,1-1,.67,1,1,0,0,1-1-1A1.14,1.14,0,0,1,60.22,71.72ZM66.28,69l-1.35-3.24L63.57,69Z"/><path d="M71.36,63.86a1.07,1.07,0,1,1,2.13,0v8.26a1.07,1.07,0,1,1-2.13,0Z"/></svg>