<svg id="Layer_1" data-name="Layer 1" xmlns="http://www.w3.org/2000/svg" viewBox="0 0 100 100"><defs><style>.cls-1,.cls-2,.cls-3{fill:none;}.cls-2,.cls-3{stroke:#000;stroke-miterlimit:10;stroke-width:4px;}.cls-2{stroke-linecap:round;}</style></defs><g id="_254" data-name="254"><rect class="cls-1" x="15.72" y="12.57" width="80" height="80"/><path class="cls-2" d="M84.41,51.48a10.65,10.65,0,0,0-9.06-5.86,10.63,10.63,0,0,0-15.9-6.92,10.62,10.62,0,0,0-19.63,5.08,10.65,10.65,0,0,0-9.49,7.7Z"/><path class="cls-3" d="M42.7,81.4v3a6,6,0,0,0,6,6H65.49a6,6,0,0,0,6-6v-3"/><path class="cls-3" d="M57,84.09c17.4,0,31.92-11.17,35.24-26A5.38,5.38,0,0,0,87,51.61H27.08a5.37,5.37,0,0,0-5.29,6.47C25.11,72.92,39.63,84.09,57,84.09Z"/></g><circle class="cls-3" cx="25.27" cy="25.46" r="13.77"/><path d="M17.11,14.37a13.7,13.7,0,0,0-2.92,2.92L33.44,36.54a13.94,13.94,0,0,0,2.92-2.92Z"/></svg>