<svg id="Layer_1" data-name="Layer 1" xmlns="http://www.w3.org/2000/svg" viewBox="0 0 100 100"><defs><style>.cls-1{fill:none;}.cls-1,.cls-2{stroke:#000;stroke-miterlimit:10;stroke-width:4px;}</style></defs><circle class="cls-1" cx="25.12" cy="24.56" r="13.77"/><path d="M17,13.48A13.94,13.94,0,0,0,14,16.4L33.29,35.65a13.94,13.94,0,0,0,2.92-2.92Z"/><g id="_110" data-name="110"><path d="M57.4,21.81l7.43.11a3.7,3.7,0,0,1,3.71,3.65v6.32l-15-.21V25.46A3.72,3.72,0,0,1,57.4,21.81Z"/><path class="cls-2" d="M68.35,32.82l-14.54-.21A8.65,8.65,0,0,0,44.9,41l-.61,40.33a8.62,8.62,0,0,0,8.64,8.62l14.55.21a8.64,8.64,0,0,0,8.9-8.37L77,41.44A8.63,8.63,0,0,0,68.35,32.82ZM75.29,78.9l-29.82-.42L46,43l29.82.42Z"/></g><path d="M53.22,56.63v0c0-.93.71-1.36,1.73-1.36a3.1,3.1,0,0,1,1,.17v-.07c0-.5-.31-.78-.91-.78a2.53,2.53,0,0,0-.84.12l-.18,0a.5.5,0,0,1-.5-.5.5.5,0,0,1,.32-.47,3.85,3.85,0,0,1,1.37-.22A2,2,0,0,1,56.7,54a1.86,1.86,0,0,1,.46,1.36v2a.58.58,0,0,1-.59.59A.54.54,0,0,1,56,57.4h0a1.69,1.69,0,0,1-1.3.54A1.32,1.32,0,0,1,53.22,56.63ZM56,56.35v-.22a2,2,0,0,0-.77-.16c-.52,0-.84.21-.84.59v0c0,.33.27.52.66.52C55.63,57.1,56,56.79,56,56.35Z"/><path d="M58.21,54.13a.61.61,0,0,1,1.22,0v0a1.52,1.52,0,0,1,1.25-.69,1.41,1.41,0,0,1,1.46,1.6V57.3a.61.61,0,0,1-1.22,0V55.47c0-.58-.27-.87-.73-.87s-.76.29-.76.87V57.3a.61.61,0,0,1-1.22,0Z"/><path d="M63.4,56.65v-2h0a.52.52,0,0,1-.52-.52.52.52,0,0,1,.52-.52h0V53a.61.61,0,1,1,1.21,0v.53h.54a.53.53,0,0,1,.52.52.52.52,0,0,1-.52.52h-.54v1.83c0,.28.12.42.39.42h.15a.51.51,0,0,1,.5.51.48.48,0,0,1-.31.45,1.78,1.78,0,0,1-.7.12C63.9,57.93,63.4,57.64,63.4,56.65Z"/><path d="M66.32,55.38a.59.59,0,0,1,.59-.58H68.3a.58.58,0,0,1,.58.58.59.59,0,0,1-.58.59H66.91A.6.6,0,0,1,66.32,55.38Z"/><path d="M50.8,66.23v0c0-.93.72-1.36,1.73-1.36a3.2,3.2,0,0,1,1,.17V65c0-.5-.31-.78-.92-.78a2.53,2.53,0,0,0-.84.12l-.18,0a.5.5,0,0,1-.5-.5.51.51,0,0,1,.33-.47,3.81,3.81,0,0,1,1.37-.22,1.93,1.93,0,0,1,1.44.48A1.86,1.86,0,0,1,54.75,65v2a.59.59,0,0,1-.6.59.54.54,0,0,1-.58-.51h0a1.67,1.67,0,0,1-1.29.54A1.33,1.33,0,0,1,50.8,66.23ZM53.59,66v-.22a1.91,1.91,0,0,0-.77-.16c-.52,0-.84.21-.84.6h0c0,.33.27.52.66.52C53.21,66.7,53.59,66.39,53.59,66Z"/><path d="M55.59,65.34h0a2.31,2.31,0,0,1,3.71-1.76.56.56,0,0,1,.19.42.55.55,0,0,1-.55.54.54.54,0,0,1-.35-.12,1.21,1.21,0,0,0-.76-.27,1.1,1.1,0,0,0-1,1.17v0a1.09,1.09,0,0,0,1.08,1.18,1.2,1.2,0,0,0,.8-.3A.67.67,0,0,1,59,66.1a.52.52,0,0,1,.34.9,2.11,2.11,0,0,1-1.52.56A2.19,2.19,0,0,1,55.59,65.34Z"/><path d="M60.35,62.15a.69.69,0,0,1,1.36,0v0a.69.69,0,0,1-1.36,0Zm.07,1.58a.6.6,0,0,1,.61-.6.61.61,0,0,1,.61.6V66.9a.61.61,0,0,1-.61.61.61.61,0,0,1-.61-.61Z"/><path d="M67.09,66.9a.61.61,0,0,1-.61.61.61.61,0,0,1-.61-.61v-.05a1.58,1.58,0,0,1-1.33.69,2,2,0,0,1-2-2.21v0a2,2,0,0,1,2-2.21,1.62,1.62,0,0,1,1.33.63V62.18a.61.61,0,0,1,.61-.6.6.6,0,0,1,.61.6ZM63.8,65.31v0a1.05,1.05,0,1,0,2.09,0v0a1.05,1.05,0,1,0-2.09,0Z"/><path d="M68.07,67.05a.47.47,0,0,1-.23-.41.46.46,0,0,1,.48-.48.5.5,0,0,1,.24.06,2.2,2.2,0,0,0,1.16.39c.35,0,.51-.13.51-.33h0c0-.26-.42-.35-.89-.5s-1.28-.45-1.28-1.28v0a1.4,1.4,0,0,1,1.57-1.36,3,3,0,0,1,1.32.33.49.49,0,0,1,.29.45.47.47,0,0,1-.49.48.44.44,0,0,1-.22-.05,2.22,2.22,0,0,0-.93-.27c-.29,0-.44.12-.44.29v0c0,.24.4.35.87.51s1.29.49,1.29,1.27v0c0,1-.71,1.38-1.64,1.38A3,3,0,0,1,68.07,67.05Z"/></svg>