<?xml version="1.0" encoding="utf-8"?>
<!-- Generator: Adobe Illustrator 24.0.0, SVG Export Plug-In . SVG Version: 6.00 Build 0)  -->
<svg version="1.1" id="Layer_1" xmlns="http://www.w3.org/2000/svg" xmlns:xlink="http://www.w3.org/1999/xlink" x="0px" y="0px"
	 viewBox="0 0 100 100" style="enable-background:new 0 0 100 100;" xml:space="preserve">
<g>
	<path d="M42,33.7L29.4,11.8c-0.4-0.6-0.9-1.1-1.5-1.5c-1.9-1.1-4.4-0.5-5.5,1.5L9.7,33.7c-0.4,0.6-0.5,1.3-0.5,2.1
		c0,1.1,0.4,2.1,1.2,2.9c0.8,0.7,1.8,1.2,2.8,1.2c0,0,0,0,0,0h25.2c0,0,0,0,0,0c0.7,0,1.4-0.2,2-0.5c0.9-0.5,1.6-1.4,1.9-2.5
		C42.7,35.7,42.5,34.6,42,33.7z M39.5,35.9c-0.1,0.3-0.2,0.5-0.5,0.6c-0.2,0.1-0.3,0.1-0.5,0.1c0,0,0,0,0,0H13.2
		c-0.3,0-0.6-0.1-0.8-0.3c-0.2-0.2-0.3-0.5-0.3-0.7c0-0.2,0-0.4,0.1-0.5l12.6-21.9h0c0.1-0.2,0.4-0.4,0.6-0.5c0.1,0,0.2,0,0.3,0
		c0.2,0,0.4,0,0.5,0.1c0.2,0.1,0.3,0.2,0.4,0.4l12.6,21.9C39.5,35.4,39.6,35.7,39.5,35.9z"/>
	<path d="M25.8,31C25.8,31,25.8,31,25.8,31c-1,0-1.8,0.8-1.8,1.7V33v0c0,1,0.8,1.8,1.8,1.8c0,0,0.1,0,0.1,0c1,0,1.7-0.8,1.7-1.8
		v-0.2c0,0,0-0.1,0-0.1C27.5,31.7,26.7,31,25.8,31z"/>
	<path d="M26.7,16.7h-1.8c-0.1,0-0.1,0-0.2,0c-0.5,0.1-0.8,0.6-0.7,1.1l0.9,10.4c0,0.5,0.4,0.9,0.9,0.9c0.5,0,0.9-0.4,0.9-0.9
		l0.9-10.4c0-0.1,0-0.1,0-0.2C27.6,17.1,27.2,16.7,26.7,16.7z"/>
	<path d="M81.6,62.9c-0.2-0.4-0.5-0.7-0.9-0.9c-1.3-0.8-2.9-0.4-3.7,0.9c-2.2,3.5-5.3,8.9-7,13.1c1.1-5.8,0.8-10.1,0.2-13.3
		c-0.3-1.5-0.6-2.7-0.9-3.8c-0.3-1-0.5-2-0.5-2.4c0-0.5,0.2-1,0.5-1.7c0.9-2.2,2.3-5.6,1.5-13.8c-1.1-10.1-10-16.1-12.7-17.7
		c-1.1-0.7-2.5-0.7-3.6,0c0,0,0,0,0,0c0,0,0,0,0,0c0,0,0,0,0,0c-1,0.6-3,1.9-5.1,3.8l-1.2,1.1l0.1,0.1c-3,3-5.9,7.3-6.5,12.8
		c-0.8,8.2,0.5,11.6,1.5,13.8c0.3,0.7,0.5,1.2,0.5,1.7c0,0.4-0.2,1.4-0.5,2.4c-0.9,3.3-2.3,8.7-0.5,17.5c1,4.5,3.5,8.6,7,11.5
		l-0.2,0.1l2.4,1.5c0.8,0.5,1.7,1,2.5,1.4c0.6,0.3,1.2,0.4,1.8,0.4c0.6,0,1.2-0.1,1.7-0.4c5-2.3,8.9-6.4,10.9-11.5
		c0,0.3-0.1,0.6-0.1,0.9c0,5.7,4.7,10.4,10.4,10.4c5.7,0,10.4-4.6,10.4-10.4C89.7,76.5,84.7,67.8,81.6,62.9z M46.8,75.7
		c-1.6-7.8-0.3-12.6,0.5-15.7c0.4-1.5,0.7-2.6,0.6-3.8c-0.1-1.1-0.4-2-0.8-2.9c-0.8-2-1.9-4.7-1.2-11.9c0.5-4.6,3.1-8.2,5.7-10.8
		c3.2,2.7,6.5,6.7,7.1,12.1c0.7,7.2-0.4,9.9-1.2,11.9c-0.4,0.9-0.7,1.8-0.8,2.9c-0.1,1.1,0.2,2.3,0.6,3.8c0.8,3.1,2.1,7.8,0.5,15.7
		c-0.7,3.3-2.3,6.2-4.7,8.5C49.9,83,47.7,79.6,46.8,75.7z"/>
</g>
</svg>
