<?xml version="1.0" encoding="utf-8"?>
<!-- Generator: Adobe Illustrator 24.0.0, SVG Export Plug-In . SVG Version: 6.00 Build 0)  -->
<svg version="1.1" id="Layer_1" xmlns="http://www.w3.org/2000/svg" xmlns:xlink="http://www.w3.org/1999/xlink" x="0px" y="0px"
	 viewBox="0 0 100 100" style="enable-background:new 0 0 100 100;" xml:space="preserve">
<g>
	<path d="M81.8,50c-1.1,0-2,0.8-2.1,1.9c-0.5,13-10.2,24-23.1,26.1c-1.1,0.2-1.8,1.2-1.7,2.3c0.2,1,1,1.7,2,1.7c0.1,0,0.2,0,0.3,0
		c14.7-2.4,25.8-15,26.4-29.9C83.8,51,82.9,50,81.8,50z"/>
	<path d="M84.5,37.8c-0.6-0.7-1.5-1.2-2.4-1.4l-2.8-6.6c-0.9-2-3.2-2.9-5.2-2.1l-1.4,0.6c-2,0.9-2.9,3.2-2.1,5.2l2.8,6.4
		c-0.2,0.6-0.2,1.3-0.1,1.9c0.4,2,0.6,4.1,0.5,6.2c-0.5,14.7-12.8,26.4-27.4,26.4c-0.2,0-0.4,0-0.7,0l-0.1,0c-1.7,0-3.3,0.9-4.2,2.3
		c-1.6,2.3-0.9,5.5,1.4,7.1c5.3,3.5,11.4,5.3,17.5,5.3c7.2,0,14.3-2.4,20-7.2C93.7,70.9,95.5,51.1,84.5,37.8z M77.8,78.9
		c-9.3,7.7-22.7,8.4-32.7,1.6c-0.5-0.3-0.6-1-0.3-1.5c0.2-0.3,0.5-0.5,0.9-0.5c17.1,0.4,31.5-13.2,32.1-30.3c0.1-2-0.1-4-0.4-5.9
		l4.1-1.8C91,52.1,89.4,69.3,77.8,78.9z"/>
	<path d="M49,61.8c5-5.7,9.8-15.7,8.6-24.3c-0.6-4.6-3-8.4-6.9-10.9c-4.8-3-10.4-3.8-15.8-2.4c0.1-1.5,0.5-3.3,1.1-4.2
		c1.9-3.1,3.9-4.1,4-4.1c1-0.4,1.5-1.6,1.1-2.6c-0.4-1-1.6-1.5-2.6-1.1c-0.3,0.1-2.9,1.2-5.4,5c-1.6-1.4-3.9-2.5-6.3-3.3
		c-4.8-1.5-10.2-1.6-11.3,1.8v0c-1,3.3,3.2,6.3,7.9,7.9c-3.3,0.2-6.5,1.2-9.4,3.1c-3.8,2.5-6.2,6.2-6.8,10.8
		c-1.2,8.6,3.6,18.7,8.6,24.4c3.7,4.3,8.2,6.1,13.2,5.4l0.4-0.1c1-0.3,2-0.6,3.1-0.7c1.1,0.1,2.1,0.3,3.1,0.7l0.4,0.1
		c0.7,0.1,1.4,0.1,2.1,0.1C42.1,67.4,45.8,65.5,49,61.8z M36.6,63.3c-1.3-0.4-2.7-0.7-4.1-0.8l-0.2,0l-0.2,0c-1.4,0.1-2.7,0.4-4,0.8
		c-3.6,0.4-6.6-0.9-9.4-4.1C14.3,54,10.2,45.1,11.2,38c0.5-3.5,2.2-6.2,5-8c4.2-2.6,9.2-3.2,13.9-1.5c1.5,0.5,3.1,0.5,4.6,0
		c4.7-1.6,9.8-1.1,13.9,1.5c2.9,1.9,4.6,4.6,5.1,8.1c1,7-3.1,16-7.6,21.2C43.2,62.4,40.2,63.7,36.6,63.3z"/>
</g>
</svg>
