<?xml version="1.0" encoding="utf-8"?>
<!-- Generator: Adobe Illustrator 24.0.0, SVG Export Plug-In . SVG Version: 6.00 Build 0)  -->
<svg version="1.1" id="Layer_1" xmlns="http://www.w3.org/2000/svg" xmlns:xlink="http://www.w3.org/1999/xlink" x="0px" y="0px"
	 viewBox="0 0 100 100" style="enable-background:new 0 0 100 100;" xml:space="preserve">
<g>
	<path d="M41.2,50v-0.5c6.2-2.9,10.9-8.3,12.4-14.8c0.3-1.4,0-2.8-0.7-3.9c-0.8-1.2-1.9-2-3.3-2.3c-0.4-0.1-0.7-0.1-1.1-0.1H12.6
		c0,0,0,0,0,0c-2.9,0-5.2,2.3-5.2,5.2c0,0.4,0,0.7,0.1,1.1c1.5,6.6,6.3,12,12.5,14.9V50c0,3.1,2.5,5.6,5.6,5.6h10
		C38.7,55.6,41.2,53.1,41.2,50z M35.6,51.6H34c1-0.1,1.9-0.3,2.8-0.5C36.5,51.4,36.1,51.6,35.6,51.6z M11.4,33.8c0-0.1,0-0.2,0-0.3
		c0-0.7,0.6-1.2,1.2-1.2c0,0,0,0,0,0h35.9c0.1,0,0.2,0,0.3,0c0.3,0.1,0.6,0.3,0.8,0.5c0.2,0.3,0.2,0.6,0.2,0.9
		c-1.8,8.1-9.9,14-19.2,14C21.3,47.9,13.2,41.9,11.4,33.8z M24.5,51.1c0.9,0.2,1.8,0.4,2.7,0.5h-1.5C25.2,51.6,24.7,51.4,24.5,51.1z
		"/>
	<path d="M80.7,37.1c-2-1-4.2-1.6-6.5-1.8c-1.5-0.1-2.9-0.5-4.3-0.9c-1.8-0.7-3.3-2.4-4.6-4.9c-0.7-1.3-2.1-2-3.6-1.6l-2.9,0.7
		c-0.9,0.2-1.6,0.8-2.1,1.6l0,0c0,0,0,0,0,0c-0.4,0.7-0.5,1.6-0.3,2.5c0.1,0.4,0.3,0.8,0.5,1.1c1.6,2.4,3.1,4.9,4.5,7.5
		c1.8,3.2,2.8,6.8,2.9,10.5c-0.1,3.6-1.6,8-5.5,9.2c-2.7,0.9-5.6,0-8.6-0.9c-2.7-1-5.6-1.5-8.5-1.4c-4.7,0.4-8.1,4.2-9,10.2
		c-0.1,0.8-0.3,11.4,1.6,13.7c0.4,0.5,1.1,0.8,1.8,0.9h4c1,0,1.9-0.4,2.5-1.2c0.6-0.8,0.7-1.8,0.4-2.7c-0.7-2.5-1.4-5.2-0.9-7.6
		c0.1-0.7,0.5-1.4,1-1.8c0.2,0.1,0.3,0.2,0.4,0.3c1.2,1.2,2.2,2.5,3.2,3.9c1.4,2,2.9,3.8,4.7,5.4c3.3,2.8,7.4,4.3,11.7,4.3
		c2.6,0,5.2-0.5,7.7-1.5C80,79,87.5,70.4,89,61.5C90.4,52.8,88.4,41.5,80.7,37.1z M40.8,69.5c0-0.1,0-0.1,0.1-0.2
		C40.9,69.4,40.9,69.5,40.8,69.5z M71.7,66v5.8c0,0.4-0.3,0.8-0.8,0.8c-0.4,0-0.8-0.3-0.8-0.8V66c0-0.4,0.3-0.8,0.8-0.8
		C71.4,65.2,71.7,65.6,71.7,66z M68.7,66v5.8c0,0.4-0.3,0.8-0.8,0.8c-0.4,0-0.8-0.3-0.8-0.8V66c0-0.4,0.3-0.8,0.8-0.8
		C68.4,65.2,68.7,65.6,68.7,66z M62.7,72.7c-1,0-1.8-0.7-1.8-1.7c0-0.1,0-0.2,0-0.3v-2.8c0-0.4,0.3-0.8,0.8-0.8s0.8,0.3,0.8,0.8v2.3
		c0,0.7,0.3,1.1,0.9,1.1c0.6,0,1-0.4,1-1.1v-2.3c0-0.4,0.3-0.8,0.8-0.8c0.4,0,0.8,0.3,0.8,0.8v4c0,0.4-0.3,0.8-0.8,0.8
		c-0.4,0-0.8-0.3-0.8-0.8v-0.1C63.9,72.3,63.3,72.6,62.7,72.7z M59.5,67.2c0.3,0,0.6,0.3,0.6,0.6c0,0.3-0.3,0.6-0.6,0.6c0,0,0,0,0,0
		h-0.6v3.4c0,0.4-0.3,0.8-0.8,0.8s-0.8-0.3-0.8-0.8v-3.4h-0.1c-0.3,0-0.6-0.3-0.6-0.6c0,0,0,0,0,0c0-0.3,0.3-0.6,0.6-0.6h0.1v-0.3
		c0-0.5,0.1-0.9,0.4-1.3c0.3-0.3,0.8-0.5,1.3-0.4c0.2,0,0.4,0,0.6,0c0.3,0,0.5,0.3,0.5,0.6c0,0.3-0.3,0.6-0.6,0.6h-0.1
		c-0.4,0-0.5,0.2-0.5,0.6v0.2L59.5,67.2z M40.1,81.3h-4c0,0-0.1,0-0.1,0h4.2C40.1,81.3,40.1,81.3,40.1,81.3z M46.6,70.8
		c0.2,0.2,0.4,0.5,0.6,0.8C47,71.3,46.8,71,46.6,70.8z"/>
</g>
</svg>
