<svg id="Layer_1" data-name="Layer 1" xmlns="http://www.w3.org/2000/svg" viewBox="0 0 100 100"><defs><style>.cls-1,.cls-2{fill:none;stroke:#000;stroke-miterlimit:10;stroke-width:4px;}.cls-2{stroke-linecap:round;}</style></defs><path class="cls-1" d="M15,52a12.42,12.42,0,1,0,20,0,2.54,2.54,0,0,0-2-1H17A2.54,2.54,0,0,0,15,52Z"/><line class="cls-2" x1="18.95" y1="88.1" x2="30.95" y2="88.1"/><line class="cls-1" x1="24.95" y1="61.42" x2="24.95" y2="88.1"/><path d="M12.6,60.79A12.42,12.42,0,1,0,37.29,58H12.61A12.72,12.72,0,0,0,12.6,60.79Z"/><circle class="cls-1" cx="23.6" cy="23.77" r="13.77"/><path d="M15.44,12.68a13.7,13.7,0,0,0-2.92,2.92L31.77,34.85a13.7,13.7,0,0,0,2.92-2.92Z"/><path class="cls-1" d="M55.55,34.23h29a0,0,0,0,1,0,0V53.58a4,4,0,0,1-4,4h-21a4,4,0,0,1-4-4V34.23A0,0,0,0,1,55.55,34.23Z"/><path class="cls-1" d="M55.55,34.48V15a4,4,0,0,1,4-4h21a4,4,0,0,1,4,4V34.15"/><line class="cls-1" x1="55.55" y1="21.79" x2="84.57" y2="21.79"/><line class="cls-1" x1="55.55" y1="32.11" x2="84.57" y2="32.11"/><line class="cls-1" x1="70.06" y1="11" x2="70.06" y2="36.55"/><path class="cls-1" d="M85.35,48.33,80,42.63a2.31,2.31,0,0,0-3.39,0l-6,6.47a.76.76,0,0,1-1.12,0l-5.89-6.39a2.31,2.31,0,0,0-3.37,0l-5.47,5.68a.77.77,0,0,1-1.32-.53V36.74a1.41,1.41,0,0,1,1.41-1.41h30.4a1.41,1.41,0,0,1,1.41,1.41V47.8A.76.76,0,0,1,85.35,48.33Z"/><path d="M89.05,79.35s0,0,0,0V70.63a4,4,0,0,0-1.75-3.28l-3.19-2.13s0,0,0,0a5.92,5.92,0,0,1-2.61,1c-2.09.31-3.91-.32-4.07-1.4-.13-.91,1-1.85,2.54-2.31,0,0,0,0,0-.06l-2.65-1.76a1.65,1.65,0,0,0-1.38-.22L50.06,67.71a4,4,0,0,0-2.88,3.8V86a4,4,0,0,0,4,3.95h1.09a1,1,0,0,0,1-1,3,3,0,0,1,.06-.59,3.21,3.21,0,0,1,6.36.62h0a1,1,0,0,0,1,1H76.8s0,0,0,0a2.9,2.9,0,0,1,5.59,0s0,0,0,0h2.67A4,4,0,0,0,89.07,86v-.31s0,0,0,0a3.28,3.28,0,0,1,0-6.35Zm-35.82,3a2,2,0,1,1,2-2A2,2,0,0,1,53.23,82.31Zm2.46-7.52a1.64,1.64,0,1,1,1.64-1.64A1.64,1.64,0,0,1,55.69,74.79Zm15.6-11.16c1.28,0,2.32.58,2.32,1.29s-1,1.29-2.32,1.29S69,65.64,69,64.92,70,63.63,71.29,63.63ZM64,79.42a2.32,2.32,0,1,1,2.31-2.31A2.31,2.31,0,0,1,64,79.42Zm5.83,6.38a1.9,1.9,0,1,1,1.9-1.9A1.9,1.9,0,0,1,69.81,85.8ZM75.7,78a3,3,0,1,1,3-3A3,3,0,0,1,75.7,78Zm4.63,6.67a2.35,2.35,0,1,1,2.35-2.35A2.35,2.35,0,0,1,80.33,84.66Z"/></svg>