<svg id="Layer_1" data-name="Layer 1" xmlns="http://www.w3.org/2000/svg" viewBox="0 0 100 100"><defs><style>.cls-1{fill:none;stroke:#000;stroke-miterlimit:10;stroke-width:4px;}</style></defs><g id="_254" data-name="254"><path class="cls-1" d="M21.39,44.48v1.78a3.6,3.6,0,0,0,3.6,3.6H35.07a3.6,3.6,0,0,0,3.6-3.6V44.45"/><path class="cls-1" d="M30,46.09c10.44,0,19.14-6.7,21.14-15.6A3.23,3.23,0,0,0,48,26.6H12a3.22,3.22,0,0,0-3.17,3.89C10.84,39.39,19.55,46.09,30,46.09Z"/></g><path d="M81.11,35.8C79.64,35,74.89,32.72,73,32.47a21.37,21.37,0,0,1-5.22-1.2c-2.51-1-2.65-3.11-4.36-6.21l-7.31,1.33c1.79,2.64,4.9,8.52,5.28,9.25A25.77,25.77,0,0,1,64.74,48c-.09,5-.33,9.06-6.32,11-3.93,1.24-7.51-.86-11-1.91a17.67,17.67,0,0,0-7-.28c-4,.32-7.15,7.29-7.4,8.81a72.46,72.46,0,0,0,.56,11.87h7.62C40.57,74.88,40,70,40.6,67.15c.38-1.82-1.4-1.18.78-1.84a3.85,3.85,0,0,1,1.13-.17,4.53,4.53,0,0,1,3.21,1.46c1.37,1.36,2.5,3.89,3.6,5.36a26.51,26.51,0,0,0,4.08,4.7c4.25,3.54,12.77,2.31,18.53.18C79.66,74,86.18,64.49,87.43,57,88.47,50.92,87.63,39.47,81.11,35.8ZM58.89,63.48a.62.62,0,1,1,0,1.24h-.64v3.36a.76.76,0,1,1-1.51,0V64.72h-.06a.62.62,0,0,1-.63-.62.63.63,0,0,1,.63-.63h.06v-.34a1.77,1.77,0,0,1,.43-1.3,1.66,1.66,0,0,1,1.22-.42,3.72,3.72,0,0,1,.62,0,.62.62,0,0,1,.52.61.63.63,0,0,1-.62.63h-.13c-.35,0-.55.18-.55.58v.21Zm6.27,4.6a.76.76,0,1,1-1.52,0V68a1.9,1.9,0,0,1-1.57.86,1.76,1.76,0,0,1-1.81-2V64.12a.76.76,0,1,1,1.51,0v2.29c0,.72.34,1.09.92,1.09s1-.37,1-1.09V64.12a.76.76,0,1,1,1.52,0Zm3,0a.76.76,0,1,1-1.51,0v-5.9a.76.76,0,1,1,1.51,0Zm3,0a.76.76,0,1,1-1.51,0v-5.9a.76.76,0,1,1,1.51,0Z"/><path d="M80.08,33.31A17.5,17.5,0,0,0,73.6,31.5a17.53,17.53,0,0,1-4.28-.94c-1.75-.71-3.31-2.37-4.62-4.91A3.13,3.13,0,0,0,61.14,24l-2.87.74h0A3.32,3.32,0,0,0,56,26.86,3.38,3.38,0,0,0,56.39,30a75.37,75.37,0,0,1,4.48,7.48A21.88,21.88,0,0,1,63.75,48c-.07,3.64-1.57,8-5.54,9.23-2.74.87-5.58,0-8.58-.92-2.69-.82-5.46-1.67-8.48-1.44-4.68.37-8.06,4.17-9,10.16-.13.83-.34,11.41,1.57,13.66a2.34,2.34,0,0,0,1.79.85h4a3,3,0,0,0,2.45-1.22,3.09,3.09,0,0,0,.52-2.74C41.73,73.1,41,70.3,41.52,68a3,3,0,0,1,1-1.82,1.17,1.17,0,0,1,.42.3,33.31,33.31,0,0,1,3.21,3.91,30.28,30.28,0,0,0,4.73,5.39A18.14,18.14,0,0,0,62.63,80a22.13,22.13,0,0,0,7.69-1.45c9.13-3.39,16.56-12,18.06-20.88C89.84,49,87.86,37.69,80.08,33.31Zm6.33,24.06C84,71.71,64.75,84.72,52.12,74.2c-3.09-2.58-5-6.35-7.81-9.18-2.22-2.2-4.25.12-4.75,2.53-.56,2.74.16,5.79.92,8.53a1.11,1.11,0,0,1-1,1.42h-4c-1.33,0-1.63-10.69-1.38-12.19.65-4,2.85-8.14,7.21-8.48,6-.48,11.55,4.16,17.5,2.27,4.69-1.49,6.84-6.33,6.93-11.1a24.1,24.1,0,0,0-3.09-11.44A80.22,80.22,0,0,0,58,28.82a1.38,1.38,0,0,1,.75-2.14L61.63,26a1.16,1.16,0,0,1,1.3.61C64.2,29,66,31.36,68.57,32.41c3.4,1.39,7.26.81,10.52,2.64C86.31,39.11,87.66,50,86.41,57.37Z"/></svg>