<?xml version="1.0" encoding="utf-8"?>
<!-- Generator: Adobe Illustrator 24.0.0, SVG Export Plug-In . SVG Version: 6.00 Build 0)  -->
<svg version="1.1" id="Layer_1" xmlns="http://www.w3.org/2000/svg" xmlns:xlink="http://www.w3.org/1999/xlink" x="0px" y="0px"
	 viewBox="0 0 100 100" style="enable-background:new 0 0 100 100;" xml:space="preserve">
<g>
	<path d="M40.6,58.1H30.4c-2.5,0-4.6,2-4.6,4.5v6.7c0,2.5,2,4.5,4.6,4.5h10.2c2.5,0,4.6-2,4.6-4.5v-6.7
		C45.1,60.2,43.1,58.1,40.6,58.1z"/>
	<path d="M88,53l-5.4-13.7c1.4-1,2.4-2.7,2.4-4.6c0-3.1-2.6-5.7-5.7-5.7h-9.4c-3.1,0-5.7,2.6-5.7,5.7c0,1.8,0.8,3.4,2.2,4.5
		l-1.7,4.3l-5.3-7V29c0-2.2-1.8-4-4-4H40.6c-0.1-8.6-7.1-15.6-15.8-15.6C16.1,9.4,9,16.5,9,25.2S16.1,41,24.8,41c0.1,0,0.2,0,0.3,0
		l-3.2,4.7c-0.9,1.3-1.3,2.9-1.3,4.5v33c0,4.4,3.6,8,8,8h21.9v0h9.4c1.3,0,2.5-0.3,3.6-0.9c1.1,0.7,2.4,1.1,3.8,1.1h14.4
		c3.8,0,6.8-3.1,6.8-6.8v-8V66.2V55.5C88.5,54.6,88.3,53.8,88,53z M69.9,32.9h9.4c0.9,0,1.7,0.8,1.7,1.7c0,0.7-0.4,1.3-1,1.6H69.2
		c-0.6-0.3-1-0.9-1-1.6C68.2,33.7,69,32.9,69.9,32.9z M55.4,35H37.1c1.4-1.7,2.4-3.8,3-6h15.4V35z M36.6,25.2c0,2.5-0.8,4.8-2.1,6.7
		L18.1,15.5c1.9-1.3,4.2-2.1,6.7-2.1C31.3,13.4,36.6,18.7,36.6,25.2z M13,25.2c0-2.5,0.8-4.8,2.1-6.7l16.4,16.4
		c-1.9,1.3-4.2,2.1-6.8,2.1C18.3,37,13,31.7,13,25.2z M46.5,87.1H28.6c-2.2,0-4-1.8-4-4v-33c0-0.8,0.2-1.6,0.6-2.2l5.6-8.1
		c0.6-0.2,1.1-0.5,1.6-0.8h20.4c0.1,0,0.2,0,0.2,0c0.1,0,0.1,0.1,0.1,0.1l-6.7,8.4V87.1z M50.5,87.1V49l7-8.7l5.6,7.5L60.9,53
		c-0.3,0.8-0.5,1.6-0.5,2.5v10.7v10.4v8c0,0.8,0.2,1.7,0.4,2.4c-0.3,0.1-0.7,0.2-1,0.2H50.5z M84.5,76.5c0,1.5-1.3,2.8-2.8,2.8H67.3
		c-1.5,0-2.8-1.3-2.8-2.8V66.2c0-1.5,1.3-2.8,2.8-2.8h14.4c1.5,0,2.8,1.3,2.8,2.8V76.5z"/>
</g>
</svg>
