<svg id="Layer_1" data-name="Layer 1" xmlns="http://www.w3.org/2000/svg" viewBox="0 0 100 100"><path d="M75.74,38.47A15.27,15.27,0,1,1,91,23.2,15.29,15.29,0,0,1,75.74,38.47Zm0-27.54A12.27,12.27,0,1,0,88,23.2,12.28,12.28,0,0,0,75.74,10.93Z"/><path d="M73.17,22.51a.92.92,0,0,1-.31-.67.89.89,0,0,1,.88-.88.86.86,0,0,1,.59.23,2.42,2.42,0,0,0,1.64.62,1.06,1.06,0,0,0,1.19-1v0c0-.69-.61-1.07-1.64-1.07h-.29a.8.8,0,0,1-.79-.79,1.08,1.08,0,0,1,.39-.76l1.64-1.64H73.89a.79.79,0,0,1,0-1.58H78a.83.83,0,0,1,.93.81,1.31,1.31,0,0,1-.55,1l-1.64,1.57A2.33,2.33,0,0,1,79,20.69v0a2.73,2.73,0,0,1-3,2.74A4.12,4.12,0,0,1,73.17,22.51Z"/><path d="M70.79,25a.61.61,0,0,1,.61-.61A.61.61,0,0,1,72,25v1.6a1.52,1.52,0,0,1,1.25-.69,1.41,1.41,0,0,1,1.46,1.59v2.22a.62.62,0,0,1-.61.61.61.61,0,0,1-.61-.61V27.9c0-.58-.27-.87-.73-.87s-.76.29-.76.87v1.83a.62.62,0,0,1-.61.61.61.61,0,0,1-.61-.61Z"/><path d="M75.37,26.56A.62.62,0,0,1,76,26a.61.61,0,0,1,.61.61v.19c.17-.41.46-.8.82-.8a.55.55,0,0,1,.59.6.54.54,0,0,1-.45.56c-.62.15-1,.62-1,1.48v1.14a.61.61,0,0,1-.61.61.62.62,0,0,1-.61-.61Z"/><path d="M78.21,29.88a.48.48,0,0,1-.24-.42.47.47,0,0,1,.48-.48.45.45,0,0,1,.24.07,2.32,2.32,0,0,0,1.16.38c.35,0,.51-.13.51-.32h0c0-.27-.41-.36-.88-.5s-1.28-.46-1.28-1.29h0a1.4,1.4,0,0,1,1.57-1.36,3,3,0,0,1,1.32.33.47.47,0,0,1,.29.45.48.48,0,0,1-.49.48.43.43,0,0,1-.22-.06,2.43,2.43,0,0,0-.93-.27c-.3,0-.45.13-.45.3h0c0,.25.41.36.87.52s1.3.48,1.3,1.27h0c0,1-.71,1.39-1.64,1.39A2.93,2.93,0,0,1,78.21,29.88Z"/><path d="M58.28,43.49,55.13,36h0V26.49a4.4,4.4,0,0,0-4.4-4.39h-32a4.4,4.4,0,0,0-4.4,4.39V36l-2.93,7.68a12.69,12.69,0,0,0-.82,4.48V85.79a4.31,4.31,0,0,0,4.31,4.32H55a4.31,4.31,0,0,0,4.31-4.32V48.35A12.48,12.48,0,0,0,58.28,43.49ZM53.11,75.38A4.31,4.31,0,0,1,48.8,79.7H21a4.32,4.32,0,0,1-4.32-4.32v-21A4.33,4.33,0,0,1,21,50.07H48.8a4.32,4.32,0,0,1,4.31,4.32Z"/><rect x="27.04" y="61.3" width="15.91" height="5.87" transform="matrix(0, -1, 1, 0, -29.29, 99.15)"/><rect x="32.05" y="56.28" width="5.87" height="15.91" transform="translate(-29.29 99.14) rotate(-89.92)"/></svg>