<?xml version="1.0" encoding="utf-8"?>
<!-- Generator: Adobe Illustrator 24.0.0, SVG Export Plug-In . SVG Version: 6.00 Build 0)  -->
<svg version="1.1" id="Layer_1" xmlns="http://www.w3.org/2000/svg" xmlns:xlink="http://www.w3.org/1999/xlink" x="0px" y="0px"
	 viewBox="0 0 100 100" style="enable-background:new 0 0 100 100;" xml:space="preserve">
<g>
	<path d="M90.4,80.7c-0.1-0.8-1.2-8.8-6.5-12.2c-4.2-2.7-16.4-6-20.8-7.1c0-0.3,0.1-0.6,0.1-0.9c6.6-5,10.8-14,10.8-23.1
		C74,23,63.7,11.3,51,11.3c-12.7,0-23,11.7-23,26.1c0,9.2,4.3,18.2,11,23.2c0,0.3,0.1,0.5,0.1,0.8c-4.7,1.2-16.3,4.4-20.3,6.9
		c-5.3,3.4-6.4,11.3-6.5,12.2L10,93.2c-0.2,1.1,0.5,2.1,1.6,2.3c0.1,0,0.2,0,0.4,0c0.9,0,1.8-0.7,2-1.6l2.3-12.6l0-0.1
		c0-0.1,0.8-6.9,4.7-9.4c3.2-2.1,13.6-5,19.1-6.4c1.9,5,6.1,9.4,11,9.4c4.9,0,9.1-4.4,11-9.5c5.4,1.4,16.2,4.4,19.6,6.6
		c3.9,2.5,4.7,9.3,4.7,9.4l2,12.3c0.2,1,1,1.7,2,1.7c0.1,0,0.2,0,0.3,0c1.1-0.2,1.8-1.2,1.6-2.3L90.4,80.7z M32,37.4
		c0-12.2,8.5-22.1,19-22.1s19,9.9,19,22.1c0,8.2-3.9,16.2-9.9,20.4c-0.2,0.1-0.3,0.3-0.5,0.5c-6.3,3.6-11.3,3.5-17.6-0.4
		C35.9,53.7,32,45.7,32,37.4z M51.1,70.7c-3.2,0-6.2-3.6-7.5-7.5c2.5,1.1,5,1.7,7.5,1.7c2.5,0,4.9-0.6,7.5-1.6
		C57.3,67.1,54.3,70.7,51.1,70.7z"/>
	<path d="M72.8,59.8c2.5,2,5.2,3.1,8.5,2.3c2.4-0.6,4.1-2.2,5.8-3.9c6.9-7.2,9.4-16,9.4-25.8c0-2.4-0.5-4.7-1.5-6.9
		c-0.3-0.5-0.6-0.9-0.9-1.4c-2-2.7-5.5-4-8.8-3.4c0,0,0,0,0,0c-0.7,0.1-1.3,0.7-1.3,1.4c-0.1,2.5-0.3,5-0.5,7.5
		c-0.1,1.4,0.2,1.9,1.6,2.2c1.1,0.3,2.2,0.5,3.3,0.7c1.5,0.4,1.8,0.7,1.6,2.3c-0.4,4-1.3,8-2.7,11.8c-0.6,1.4-1.3,2.6-2.2,3.8
		c-1,1.3-1.5,1.4-3,0.8c-1.1-0.5-2.2-1-3.4-1.4c-1.2-0.4-1.6-0.2-2.3,0.8c-1.3,2.1-2.7,4.2-4,6.3C71.8,58.4,71.7,58.9,72.8,59.8z"/>
</g>
</svg>
