<svg id="Layer_1" data-name="Layer 1" xmlns="http://www.w3.org/2000/svg" viewBox="0 0 100 100"><defs><style>.cls-1,.cls-2,.cls-3,.cls-4{fill:none;}.cls-1,.cls-2,.cls-4{stroke:#000;stroke-miterlimit:10;}.cls-1,.cls-2{stroke-width:4px;}.cls-2{stroke-linecap:round;}.cls-4{stroke-width:4.66px;}</style></defs><path d="M21.65,38.11A15.88,15.88,0,1,1,37.53,22.23,15.9,15.9,0,0,1,21.65,38.11Zm0-30.24A14.36,14.36,0,1,0,36,22.23,14.37,14.37,0,0,0,21.65,7.87Z"/><path d="M21.73,7.11v5.6a9.52,9.52,0,0,1,0,19v5.6a15.12,15.12,0,0,0,0-30.24Z"/><path d="M14.67,25.24a.66.66,0,0,1-.23-.5.68.68,0,0,1,.67-.67.69.69,0,0,1,.47.18,2.39,2.39,0,0,0,1.8.76,1.24,1.24,0,0,0,1.37-1.2v0c0-.79-.71-1.23-1.82-1.23h-.29A.6.6,0,0,1,16,22a.8.8,0,0,1,.3-.57l1.86-2H15.32a.61.61,0,1,1,0-1.21h4.05a.63.63,0,0,1,.7.61,1,1,0,0,1-.4.76L17.8,21.51c1.2.15,2.33.76,2.33,2.22v0a2.54,2.54,0,0,1-2.77,2.52A3.74,3.74,0,0,1,14.67,25.24Z"/><path d="M21.48,22.19v0c0-2.27,1.39-4.11,3.47-4.11s3.45,1.81,3.45,4.08v0c0,2.26-1.38,4.1-3.47,4.1S21.48,24.46,21.48,22.19Zm5.48,0v0c0-1.57-.8-2.85-2-2.85s-2,1.25-2,2.82v0c0,1.56.8,2.84,2,2.84S27,23.74,27,22.19Z"/><circle class="cls-1" cx="79.36" cy="22.6" r="14.65"/><circle cx="79.36" cy="22.6" r="2.94"/><line class="cls-2" x1="79.36" y1="13.69" x2="79.36" y2="21.31"/><line class="cls-2" x1="80.65" y1="22.6" x2="85.82" y2="22.6"/><g id="_254" data-name="254"><rect class="cls-3" x="8.81" y="10.21" width="80" height="80"/><path class="cls-2" d="M77.51,49.12a10.65,10.65,0,0,0-9.07-5.85,10.61,10.61,0,0,0-15.9-6.92,10.62,10.62,0,0,0-19.63,5.08,10.61,10.61,0,0,0-9.48,7.69Z"/><path class="cls-1" d="M35.79,79.05v3a6,6,0,0,0,6,6H58.58a6,6,0,0,0,6-6V79"/><path class="cls-4" d="M50.12,81.73c17.39,0,31.91-11.17,35.23-26a5.38,5.38,0,0,0-5.29-6.48H20.18a5.38,5.38,0,0,0-5.3,6.48C18.2,70.56,32.72,81.73,50.12,81.73Z"/></g></svg>