<svg id="Layer_1" data-name="Layer 1" xmlns="http://www.w3.org/2000/svg" viewBox="0 0 100 100"><defs><style>.cls-1,.cls-2,.cls-3,.cls-4{stroke:#000;stroke-miterlimit:10;}.cls-1,.cls-2{stroke-width:3.3px;}.cls-2{fill:#fff;}.cls-3,.cls-4{fill:none;}.cls-3{stroke-width:4.33px;}.cls-4{stroke-width:3px;}</style></defs><path class="cls-1" d="M21.44,33a8.93,8.93,0,0,0-8.93,8.93V53.32H30.37V41.89A8.93,8.93,0,0,0,21.44,33Z"/><path class="cls-2" d="M21.44,74.83h.38a8.65,8.65,0,0,0,8.55-8.74V65.9A8.93,8.93,0,0,1,21.44,74.83Z"/><path class="cls-2" d="M12.51,65.9v.19a8.65,8.65,0,0,0,8.55,8.74h.38A8.93,8.93,0,0,1,12.51,65.9Z"/><path d="M81,67.69l-4.73-8.85a1.65,1.65,0,0,0-2-1.09,4.76,4.76,0,0,1-4.52-2.15,28.14,28.14,0,0,1-5-9.21,1.82,1.82,0,0,1,.25-1.79c.39-.48.66-.47,1,0q1,1.49,1.89,3C68.55,48.83,69.28,50,70,51.2a2.6,2.6,0,0,0,.77.78.61.61,0,0,0,1-.55,2.28,2.28,0,0,0-.25-1c-1.14-2.23-2.3-4.44-3.45-6.66-.35-.67-.26-1,.36-1.36s1-.28,1.41.38q2,3.15,4,6.29a2.2,2.2,0,0,0,.69.7.62.62,0,0,0,1-.57,2.54,2.54,0,0,0-.31-1.06c-1.14-2.22-2.31-4.43-3.47-6.64-.41-.79-.19-1.2.69-1.07a2.59,2.59,0,0,1,1.35.72,19.57,19.57,0,0,1,3.73,5.41,36.13,36.13,0,0,1,1.92,4.43,4.26,4.26,0,0,1-.8,4.27,1.6,1.6,0,0,0,0,2q5,8.1,9.91,16.22c.28.45.57.9.82,1.37a1.49,1.49,0,0,1-.36,2,4.82,4.82,0,0,1-1.12.65,1.48,1.48,0,0,1-1.94-.76c-1-1.93-2.08-3.88-3.14-5.81-.59-1.09-1.23-2.16-1.84-3.23Z"/><path class="cls-3" d="M42.46,56.84A21.41,21.41,0,1,1,53.79,67.2"/><circle cx="54.57" cy="42.38" r="3.34"/><path class="cls-4" d="M55,35.27a6.63,6.63,0,0,0-5.39,4.9A2.52,2.52,0,0,1,47.82,42,3.86,3.86,0,0,0,46,43.19a3.49,3.49,0,0,0-1,2.69,3.64,3.64,0,0,0,4,3.27,3.51,3.51,0,0,0,1.61-.55,3.87,3.87,0,0,1,3.33-.49,6.43,6.43,0,0,0,2.71.31,6.62,6.62,0,0,0,6-7.33A6.81,6.81,0,0,0,55,35.27Z"/><path d="M53.69,53.68a6.09,6.09,0,0,0-1.38,3.85,6.67,6.67,0,0,0,4.45,6.1c0,.14,0,.28.06.42l-10.64,5.1a.78.78,0,0,1-.33.07.74.74,0,0,1-.68-.43l-4-8.28a.76.76,0,0,1,.35-1l12.14-5.82m.94-3.37a3.72,3.72,0,0,0-1.62.37L40.26,56.79a3.75,3.75,0,0,0-1.77,5l4,8.29a3.77,3.77,0,0,0,3.39,2.13,3.72,3.72,0,0,0,1.62-.37l12.76-6.11a3.46,3.46,0,0,0,.52-.32,3.34,3.34,0,0,1-1-2.39,3.29,3.29,0,0,1,.54-1.77h-.11c-2.68,0-4.85-1.68-4.85-3.74,0-1.69,1.45-3.1,3.44-3.56L58,52.44a3.77,3.77,0,0,0-3.39-2.13Z"/><line class="cls-2" x1="12.51" y1="66.09" x2="12.51" y2="53.32"/><line class="cls-2" x1="30.37" y1="66.09" x2="30.37" y2="53.32"/></svg>