<?xml version="1.0" encoding="utf-8"?>
<!-- Generator: Adobe Illustrator 24.0.0, SVG Export Plug-In . SVG Version: 6.00 Build 0)  -->
<svg version="1.1" id="Layer_1" xmlns="http://www.w3.org/2000/svg" xmlns:xlink="http://www.w3.org/1999/xlink" x="0px" y="0px"
	 viewBox="0 0 100 100" style="enable-background:new 0 0 100 100;" xml:space="preserve">
<g>
	<path d="M33,49H17c-1.4,0-2.7,0.7-3.6,1.8l0,0C8.7,57.2,10,66.3,16.4,71c1.9,1.4,4.2,2.3,6.5,2.7v12.5h-4c-1.1,0-2,0.9-2,2
		s0.9,2,2,2h12c1.1,0,2-0.9,2-2s-0.9-2-2-2h-4V73.6c0.1,0,0.1,0,0.2,0c3.8-0.6,7.2-2.6,9.4-5.7c3.8-5.1,3.8-12,0-17.1
		C35.7,49.7,34.4,49,33,49z M17,53h16c0.2,0,0.3,0.1,0.4,0.2c1.1,1.5,1.7,3.1,1.9,4.8H14.7c0.2-1.7,0.9-3.3,1.9-4.8
		C16.7,53.1,16.9,53,17,53z"/>
	<path d="M23.6,39.5c8.7,0,15.8-7.1,15.8-15.8S32.3,8,23.6,8S7.8,15.1,7.8,23.8S14.9,39.5,23.6,39.5z M35.4,23.8
		c0,2.5-0.8,4.8-2.1,6.7L16.9,14.1c1.9-1.3,4.2-2.1,6.7-2.1C30.1,12,35.4,17.3,35.4,23.8z M14,17l16.4,16.4
		c-1.9,1.3-4.2,2.1-6.7,2.1c-6.5,0-11.8-5.3-11.8-11.8C11.8,21.3,12.6,18.9,14,17z"/>
	<path d="M53.5,50.5v3c0,3.3,2.7,6,6,6h21c3.3,0,6-2.7,6-6v-3.1c0.5-0.1,0.9-0.4,1.3-0.7c0.5-0.5,0.8-1.2,0.8-1.9V36.7
		c0-1.4-0.9-2.6-2.1-3.1v-1.4V15c0-3.3-2.7-6-6-6h-21c-3.3,0-6,2.7-6,6v17.2v1.4c-1.2,0.5-2.1,1.7-2.1,3.1v11.1c0,0.7,0.3,1.4,0.8,2
		C52.6,50.2,53.1,50.4,53.5,50.5z M82.5,30.1H72.1v-6.3h10.5V30.1z M65.1,41.3c-0.8-0.8-1.9-1.3-3-1.4c0,0-0.1,0-0.1,0
		c-1.1,0-2.1,0.4-3,1.2c-0.1,0.1-0.1,0.1-0.2,0.2l-1.2,1.3v-5.3h25v5.1l-1.1-1.2c-1.6-1.7-4.3-1.8-6.1-0.2c-0.1,0.1-0.2,0.2-0.2,0.2
		l-5.1,5.5L65.1,41.3z M68.1,30.1H57.5v-6.3h10.5V30.1z M80.5,55.6h-21c-1.1,0-2-0.9-2-2v-5.2l4.2-4.3c0.1-0.1,0.2-0.1,0.2-0.1
		c0.1,0,0.1,0,0.2,0.1l5.9,6.4l0.2,0.2c0.5,0.5,1.2,0.7,1.9,0.7c0.7,0,1.5-0.3,2-0.9l6-6.5c0.1-0.1,0.3-0.1,0.4,0l4,4.3v5.3
		C82.5,54.7,81.7,55.6,80.5,55.6z M82.5,15v4.8H72.1V13h8.5C81.7,13,82.5,13.9,82.5,15z M59.5,13h8.5v6.8H57.5V15
		C57.5,13.9,58.4,13,59.5,13z"/>
	<path d="M89.1,79.3C89.1,79.3,89.1,79.3,89.1,79.3L89.1,79.3L89.1,79.3z"/>
	<path d="M86.7,81.7c0.3-1.1,1.2-2,2.3-2.3v-8.7c0-1.3-0.7-2.5-1.8-3.3l-3.2-2.1c-0.8,0.5-1.7,0.9-2.6,1c-2.1,0.3-3.9-0.3-4.1-1.4
		c-0.1-0.9,1-1.9,2.5-2.3c0,0,0,0,0-0.1l-2.7-1.8c-0.4-0.3-0.9-0.4-1.4-0.2l-25.9,7.2c-1.7,0.5-2.9,2-2.9,3.8V86c0,2.2,1.8,4,4,4
		h1.1c0.6,0,1-0.4,1-1c0-0.2,0-0.4,0.1-0.6c0.3-1.7,2-2.9,3.8-2.5c1.5,0.3,2.6,1.6,2.6,3.2c0,0.6,0.4,1,1,1h16.1
		c0.4-1.5,2-2.4,3.6-2c1,0.3,1.7,1,2,2h2.7c2.2,0,4-1.8,4-4v-0.3C87.3,85.2,86.3,83.4,86.7,81.7z M53.2,82.3L53.2,82.3
		c-1.1,0-2-0.9-2-2c0-1.1,0.9-2,2-2c1.1,0,2,0.9,2,2C55.2,81.4,54.3,82.3,53.2,82.3z M55.7,74.8L55.7,74.8c-0.9,0-1.6-0.7-1.6-1.6
		s0.7-1.6,1.6-1.6s1.6,0.7,1.6,1.6C57.3,74.1,56.6,74.8,55.7,74.8z M71.3,63.6L71.3,63.6c1.3,0,2.3,0.6,2.3,1.3c0,0.7-1,1.3-2.3,1.3
		c-1.3,0-2.3-0.6-2.3-1.3C69,64.2,70,63.6,71.3,63.6z M66.3,77.1c0,1.3-1,2.3-2.3,2.3c-1.3,0-2.3-1-2.3-2.3c0-1.3,1-2.3,2.3-2.3
		S66.3,75.8,66.3,77.1C66.3,77.1,66.3,77.1,66.3,77.1z M69.8,85.8C69.8,85.8,69.8,85.8,69.8,85.8L69.8,85.8c-1,0-1.9-0.9-1.9-1.9
		c0-1,0.9-1.9,1.9-1.9c1,0,1.9,0.9,1.9,1.9C71.7,84.9,70.9,85.8,69.8,85.8z M75.7,78c-1.7,0-3-1.3-3-3s1.3-3,3-3s3,1.3,3,3
		S77.4,78,75.7,78z M80.3,84.7L80.3,84.7c-1.3,0-2.4-1-2.4-2.3S79,80,80.3,80c1.3,0,2.3,1.1,2.3,2.4C82.7,83.6,81.6,84.7,80.3,84.7z
		"/>
</g>
</svg>
