<svg id="Layer_1" data-name="Layer 1" xmlns="http://www.w3.org/2000/svg" viewBox="0 0 100 100"><defs><style>.cls-1,.cls-2,.cls-5,.cls-6,.cls-7{fill:none;stroke:#000;stroke-miterlimit:10;}.cls-1,.cls-7{stroke-width:4px;}.cls-2,.cls-5{stroke-width:3px;}.cls-3{font-size:12px;}.cls-3,.cls-4{font-family:GothamRounded-Bold, Gotham Rounded;font-weight:700;}.cls-4{font-size:8px;letter-spacing:-0.05em;}.cls-5,.cls-6,.cls-7{stroke-linecap:round;}.cls-6{stroke-width:2px;}</style></defs><circle class="cls-1" cx="24.83" cy="25.73" r="13.77"/><path d="M16.67,14.64a13.75,13.75,0,0,0-2.92,2.93L33,36.82a14,14,0,0,0,2.92-2.93Z"/><circle class="cls-2" cx="75.13" cy="24.35" r="13.77"/><text class="cls-3" transform="translate(71.61 24.47)">1</text><text class="cls-4" transform="translate(71.45 31.44)">hr</text><line class="cls-5" x1="50.64" y1="40.13" x2="50.64" y2="89.41"/><path class="cls-1" d="M59.68,50.77c0,8-9,11.62-9,11.62s-9-3.65-9-11.62c0-5.73,4.63-14.62,7.24-19.16a2,2,0,0,1,3.46,0C55,36.15,59.68,45,59.68,50.77Z"/><path class="cls-1" d="M40.8,60.19c4.56,4.79,1.25,12.12,1.25,12.12s-7.48,2.93-12-1.86c-3.12-3.29-5.36-10.72-6.45-15.06A2,2,0,0,1,26.08,53C30.36,54.3,37.67,56.9,40.8,60.19Z"/><path class="cls-1" d="M61.37,59.48c-4.68,4.67-1.56,12.09-1.56,12.09s7.4,3.12,12.08-1.55c3.21-3.21,5.63-10.58,6.84-14.89a2,2,0,0,0-2.46-2.46C72,53.87,64.58,56.28,61.37,59.48Z"/><line class="cls-6" x1="47.27" y1="43.22" x2="50.64" y2="46.96"/><line class="cls-6" x1="54.1" y1="43.22" x2="50.73" y2="46.96"/><polyline class="cls-6" points="45.36 48.25 50.64 53.88 56.01 48.14"/><polyline class="cls-7" points="28.32 58.48 50.72 81 72.38 58.84"/><polyline class="cls-6" points="29.79 65.45 35.17 65.57 35.3 60.07"/><polyline class="cls-6" points="64.91 60.43 64.91 66.43 70.3 65.82"/></svg>