<svg id="Layer_1" data-name="Layer 1" xmlns="http://www.w3.org/2000/svg" viewBox="0 0 100 100"><defs><style>.cls-1,.cls-2{stroke:#000;stroke-miterlimit:10;stroke-width:4px;}.cls-2{fill:#fff;}</style></defs><path class="cls-1" d="M28.43,56.2a16,16,0,1,0,0,32.07H49V56.2Z"/><path class="cls-2" d="M71.55,88.27h.35A15.52,15.52,0,0,0,87.59,72.92v-.69A16,16,0,0,1,71.55,88.27Z"/><path class="cls-2" d="M71.9,56.2h-.35a16,16,0,0,1,16,16v-.68A15.52,15.52,0,0,0,71.9,56.2Z"/><line class="cls-2" x1="48.97" y1="56.2" x2="71.55" y2="56.2"/><line class="cls-2" x1="48.97" y1="88.27" x2="71.9" y2="88.27"/><path d="M38.37,43v-.11a3.71,3.71,0,0,1,1.27-2.76l9.3-10.28H41a2.3,2.3,0,0,1-2.32-2.28A2.33,2.33,0,0,1,41,25.25H53.46c1.61,0,2.77.93,2.77,2.28v.11A3.72,3.72,0,0,1,55,30.4L45.61,40.68h8.3A2.33,2.33,0,0,1,56.23,43a2.3,2.3,0,0,1-2.32,2.28H41.13C39.52,45.27,38.37,44.34,38.37,43Z"/><path d="M57.58,31.9v-.09a2.85,2.85,0,0,1,1-2.12l7.15-7.9H59.62A1.76,1.76,0,0,1,57.84,20a1.79,1.79,0,0,1,1.78-1.78h9.56A1.89,1.89,0,0,1,71.31,20v.09a2.85,2.85,0,0,1-1,2.12l-7.18,7.9h6.38a1.79,1.79,0,0,1,1.78,1.78,1.77,1.77,0,0,1-1.78,1.75H59.71A1.89,1.89,0,0,1,57.58,31.9Z"/><path d="M73,23.71v-.08a2.87,2.87,0,0,1,1-2.13l7.15-7.89H75.07a1.76,1.76,0,0,1-1.78-1.75,1.78,1.78,0,0,1,1.78-1.78h9.56a1.88,1.88,0,0,1,2.12,1.75v.09a2.85,2.85,0,0,1-1,2.12L78.6,21.93H85a1.79,1.79,0,0,1,1.78,1.78A1.76,1.76,0,0,1,85,25.46H75.16C73.92,25.46,73,24.75,73,23.71Z"/></svg>