<?xml version="1.0" encoding="utf-8"?>
<!-- Generator: Adobe Illustrator 24.0.0, SVG Export Plug-In . SVG Version: 6.00 Build 0)  -->
<svg version="1.1" id="Layer_1" xmlns="http://www.w3.org/2000/svg" xmlns:xlink="http://www.w3.org/1999/xlink" x="0px" y="0px"
	 viewBox="0 0 100 100" style="enable-background:new 0 0 100 100;" xml:space="preserve">
<g>
	<path d="M55.1,46H44c-1.1,0-2,0.9-2,2s0.9,2,2,2h11.1c1.1,0,2-0.9,2-2S56.2,46,55.1,46z"/>
	<path d="M55.1,53H44c-1.1,0-2,0.9-2,2s0.9,2,2,2h11.1c1.1,0,2-0.9,2-2S56.2,53,55.1,53z"/>
	<path d="M27.1,25.1h-0.5v2h0c0,0,0,0,0,0v2c4.6,0,8.3,3.7,8.3,8.3v12.4H18.4V37.4v0c0-4.6,3.7-8.3,8.2-8.3l0-4h-0.5
		c-6.6,0.1-11.9,5.5-11.8,12.1v0.2c0,0,0,0,0,0v0v12.4v2V65c0,6.7,5.5,12.2,12.3,12.2c6.7,0,12.2-5.5,12.3-12.2V51.8v-2V37.4
		c0,0,0,0,0,0v-0.2c0-3.2-1.2-6.2-3.4-8.5C33.3,26.4,30.3,25.1,27.1,25.1z"/>
	<path d="M73.3,23.8c-7.1,0-12.8,5.8-12.8,12.8v13.9v2v13.2v0c0,0,0,0,0,0v0.2v0h0c-0.1,6.9,5.5,12.5,12.4,12.6h0.4c0,0,0,0,0,0h0
		c0,0,0,0,0,0h0.4c6.9-0.1,12.4-5.7,12.3-12.6v-0.2c0,0,0,0,0,0c0,0,0,0,0,0V52.5v-2V36.6C86.1,29.5,80.4,23.8,73.3,23.8z
		 M82.1,65.7L82.1,65.7C82.1,65.7,82.1,65.7,82.1,65.7L82.1,65.7c0,2.4-0.9,4.6-2.6,6.2c-1.7,1.7-3.9,2.6-6.2,2.6h0
		c-4.9,0-8.8-4-8.8-8.8V52.5h17.6V65.7z"/>
</g>
</svg>
