<svg id="Layer_1" data-name="Layer 1" xmlns="http://www.w3.org/2000/svg" viewBox="0 0 100 100"><defs><style>.cls-1,.cls-3{fill:none;}.cls-1,.cls-2,.cls-3{stroke:#000;stroke-miterlimit:10;}.cls-1{stroke-width:3px;}.cls-2,.cls-3{stroke-width:4px;}</style></defs><path class="cls-1" d="M27.24,10.8a2.55,2.55,0,0,1,4.43,0L38,21.72l6.31,10.93a2.56,2.56,0,0,1-2.22,3.83H16.84a2.55,2.55,0,0,1-2.21-3.83l6.3-10.93Z"/><path d="M27.56,16.05a.92.92,0,0,1,.89-1.1h1.84a.94.94,0,0,1,.92,1.1l-.89,10.42a.94.94,0,0,1-.95.92.91.91,0,0,1-.92-.92Zm1.81,13.21A1.75,1.75,0,0,1,31.19,31v.26a1.82,1.82,0,0,1-3.63,0V31A1.76,1.76,0,0,1,29.37,29.26Z"/><ellipse class="cls-2" cx="54.28" cy="44.84" rx="11.97" ry="6.48"/><ellipse class="cls-3" cx="54.28" cy="62.98" rx="11.97" ry="6.48"/><ellipse class="cls-2" cx="54.28" cy="81.11" rx="11.97" ry="6.48"/></svg>