<svg id="Layer_1" data-name="Layer 1" xmlns="http://www.w3.org/2000/svg" viewBox="0 0 100 100"><defs><style>.cls-1,.cls-2,.cls-3{fill:none;stroke:#000;stroke-miterlimit:10;}.cls-1,.cls-2{stroke-width:4px;}.cls-2{stroke-linecap:round;}.cls-3{stroke-width:3.48px;}</style></defs><path class="cls-1" d="M7.12,57.34h8a6,6,0,0,1,6,6V77.78a6,6,0,0,1-6,6h-8a0,0,0,0,1,0,0V57.34A0,0,0,0,1,7.12,57.34Z"/><path class="cls-2" d="M21.09,62.71c6.14-3,20.64-4.48,24.7,2.79a2.19,2.19,0,0,0,1.91,1.11h12a2.15,2.15,0,0,1,2.16,2.16v3.9a2.15,2.15,0,0,1-2.16,2.16H41.48"/><path class="cls-1" d="M21.09,79.85s21.52,8.27,29.68,8.3c6.64,0,23.21-7.89,30.95-12.45a5.28,5.28,0,0,0,2.1-6.78h0a5.28,5.28,0,0,0-6.55-2.76l-15.4,5.43"/><circle cx="54.38" cy="61.3" r="4.55"/><circle cx="59.49" cy="51.49" r="4.55"/><path d="M84.94,23.12l-17.08-9.2a2.1,2.1,0,0,0-2.83.85l-8.59,16a5.81,5.81,0,0,0-.7,2.29L55.36,37h0l-2.18,4a2.12,2.12,0,0,0,.87,2.88L67.7,51.23a2.13,2.13,0,0,0,2.88-.86l2.17-4,3-2.6A6.23,6.23,0,0,0,77.15,42l8.64-16A2.1,2.1,0,0,0,84.94,23.12ZM80.78,29,76,37.92a2.08,2.08,0,0,1-2.83.85L61.29,32.4a2.1,2.1,0,0,1-.85-2.83l4.82-8.95a2.1,2.1,0,0,1,2.83-.85l11.84,6.37A2.11,2.11,0,0,1,80.78,29Z"/><line class="cls-3" x1="74.76" y1="31.59" x2="66.44" y2="27.11"/><line class="cls-3" x1="72.84" y1="25.19" x2="68.36" y2="33.51"/></svg>