<?xml version="1.0" encoding="utf-8"?>
<!-- Generator: Adobe Illustrator 24.0.0, SVG Export Plug-In . SVG Version: 6.00 Build 0)  -->
<svg version="1.1" id="Layer_1" xmlns="http://www.w3.org/2000/svg" xmlns:xlink="http://www.w3.org/1999/xlink" x="0px" y="0px"
	 viewBox="0 0 100 100" style="enable-background:new 0 0 100 100;" xml:space="preserve">
<g>
	<path d="M32.6,77c-0.9-1.1-1.4-1.2-2.8-0.6c-1,0.5-2,1.2-3,1.7c-1.4,0.8-1.8,0.7-2.8-0.6c-2.5-3.3-4.5-7-6-10.9
		c-0.5-1.4-0.8-2.9-1-4.4c-0.2-1.7,0.1-2,1.7-2.6c1.2-0.4,2.3-0.8,3.5-1.3c1.2-0.5,1.4-0.9,1.2-2.2c-0.4-2.5-0.9-5-1.3-7.5
		c-0.3-1.3-0.6-1.8-2-1.7c-3.2,0.2-6.1,1.3-8,4.1c-1.4,2.1-1.6,4.5-1.7,6.9C10.1,68.1,14.3,76.5,21,83.9c1.6,1.8,3.6,3.2,5.8,4.2
		c0.5,0.2,1.1,0.3,1.7,0.4c3.4,0.7,6.9-0.7,8.9-3.5c0,0,0,0,0,0c0.5-0.6,0.5-1.4,0-2C35.8,81,34.2,79,32.6,77z"/>
	<path d="M25.5,8.5c-9.4,0-17,7.6-17,17s7.6,17,17,17s17-7.6,17-17S34.8,8.5,25.5,8.5z M25.5,38.5c-7.2,0-13-5.8-13-13s5.8-13,13-13
		s13,5.8,13,13S32.6,38.5,25.5,38.5z"/>
	<path d="M33.1,23h-5.5v-5.5c0-1.1-0.9-2-2-2s-2,0.9-2,2V23h-5.5c-1.1,0-2,0.9-2,2s0.9,2,2,2h5.5v5.5c0,1.1,0.9,2,2,2s2-0.9,2-2V27
		h5.5c1.1,0,2-0.9,2-2S34.2,23,33.1,23z"/>
	<path d="M81.4,38c-1.5-0.7-3.1-1.3-4.7-1.7c-1.7-0.5-2.9-2-2.9-3.8l-0.3-4.8c1.8-2.5,2.3-5.6,1.5-8.5C74.7,18,74.2,17,73.5,16
		c0.3,0.1,0.6,0.1,0.9,0.3c1,0.5,1.8,1.5,2,2.7c0.2,0.9,0.3,1.8,0.3,2.7c0.1,0.8,0.2,1.6,0.4,2.4c0.3,0.9,0.8,1.8,1.7,2.3
		c0.9,0.6,2.1,0.9,3.1,0.6c0.5-0.1,0.9-0.4,1.3-0.7c1.2-0.9,1.7-2.4,1.4-3.9c0-0.2-0.2-0.4-0.2-0.6c0,0.1,0,0.1,0,0.2
		c-0.1,0.9-0.8,1.6-1.7,1.7c-0.7,0.1-1.4-0.4-1.6-1.1c-0.1-0.5-0.2-1.1-0.2-1.6c0-1,0-1.9-0.1-2.9c-0.1-0.8-0.2-1.6-0.5-2.4
		c-0.5-1.3-1.3-2.5-2.4-3.3c-0.8-0.7-1.7-1.1-2.7-1.4c-1.6-0.5-3.3-0.3-4.7,0.6c-0.5,0.3-0.8,0.7-1.2,1.1c-3.7-1.8-8.3-1.2-11.4,1.9
		c-2.6,2.6-3.7,6.4-2.7,9.9l-0.9,2.5c-0.1,0.3,0.1,0.7,0.4,0.8c0.1,0,0.2,0,0.3,0l1.7-0.2c1.7,2.3,4.2,3.8,7.1,4.2L63.4,40
		c-0.2,1.8-1.2,3.5-2.8,4.5l-3,1.9c-2.5,1.6-3.5,4.8-2.2,7.6l1.6,3.3c0.5,1.2,0.2,2.6-0.8,3.5c-3.6,3.1-6,7.3-6.9,12
		c-0.1,0.9-0.2,1.7-0.2,2.6c0,3.3,0.7,6.6,2.1,9.6l2,4.2h27.1c0,0-0.3-14.4,0.6-15.3c3.7-3.3,12.3-11.5,13-14.8
		C94.7,54.8,83.1,38.9,81.4,38z M84,59l-5.6,6.7c-0.1,0.1-0.3,0.2-0.4,0c-0.1-0.1-0.1-0.2-0.1-0.3l0.9-14.8c0-0.2,0.2-0.3,0.4-0.3
		c0.1,0,0.2,0.1,0.2,0.1l4.8,6.6C84.5,57.7,84.4,58.4,84,59L84,59z"/>
</g>
</svg>
