<svg id="Layer_1" data-name="Layer 1" xmlns="http://www.w3.org/2000/svg" viewBox="0 0 100 100"><defs><style>.cls-1,.cls-2,.cls-3{fill:none;}.cls-1,.cls-3{stroke:#000;stroke-miterlimit:10;}.cls-1{stroke-width:4px;}.cls-3{stroke-width:3px;}</style></defs><rect x="59.8" y="26.99" width="5.03" height="16.28" rx="2.52"/><rect x="42.15" y="26.99" width="5.03" height="16.28" rx="2.52"/><rect x="77.44" y="26.99" width="5.03" height="16.28" rx="2.52"/><path class="cls-1" d="M32,71.88V39.77a4.64,4.64,0,0,1,4.64-4.64H88a4.64,4.64,0,0,1,4.64,4.64V71.88"/><circle class="cls-2" cx="62.31" cy="41.2" r="4.05"/><circle class="cls-2" cx="44.66" cy="41.2" r="4.05"/><circle class="cls-2" cx="79.96" cy="41.2" r="4.05"/><polygon points="38.03 88.17 86.59 88.17 86.6 88.17 38.02 88.17 38.03 88.17"/><path d="M92.59,42.83a6,6,0,0,0-6-6H38a6,6,0,0,0-6,6v8.59H92.59V82.18h0ZM44.66,45.26a4.06,4.06,0,1,1,4.06-4.06A4.05,4.05,0,0,1,44.66,45.26Zm17.65,0a4.06,4.06,0,1,1,4-4.06A4.05,4.05,0,0,1,62.31,45.26Zm17.65,0A4.06,4.06,0,1,1,84,41.2,4.05,4.05,0,0,1,80,45.26Z"/><path class="cls-1" d="M32,51.42h0V83.53a4.64,4.64,0,0,0,4.64,4.64H88a4.64,4.64,0,0,0,4.64-4.64V51.42Z"/><rect x="75.91" y="56.69" width="8.11" height="6.27"/><rect x="40.61" y="56.69" width="8.11" height="6.27"/><rect x="58.26" y="66.75" width="8.11" height="6.27"/><rect x="40.61" y="66.75" width="8.11" height="6.27"/><rect x="58.26" y="76.81" width="8.11" height="6.27"/><rect x="75.91" y="76.81" width="8.11" height="6.27"/><path class="cls-3" d="M19.17,11.67a2.55,2.55,0,0,1,4.43,0l6.3,10.92,6.31,10.93A2.55,2.55,0,0,1,34,37.35H8.77a2.56,2.56,0,0,1-2.22-3.83l6.31-10.93Z"/><path d="M19.48,16.91a.92.92,0,0,1,.9-1.09h1.84a.93.93,0,0,1,.92,1.09l-.89,10.43a.94.94,0,0,1-.95.92.91.91,0,0,1-.92-.92ZM21.3,30.13a1.74,1.74,0,0,1,1.81,1.76v.26a1.74,1.74,0,0,1-1.81,1.76,1.76,1.76,0,0,1-1.82-1.76v-.26A1.77,1.77,0,0,1,21.3,30.13Z"/></svg>