<svg id="Layer_1" data-name="Layer 1" xmlns="http://www.w3.org/2000/svg" viewBox="0 0 100 100"><defs><style>.cls-1,.cls-2{fill:none;stroke:#000;stroke-miterlimit:10;stroke-width:4px;}.cls-2{stroke-linecap:round;}</style></defs><path d="M26.81,88.07A17,17,0,0,1,21,83.9C14.31,76.54,10.12,68.14,10.41,58c.07-2.39.24-4.84,1.68-6.91,1.92-2.79,4.78-3.86,8-4.07,1.37-.08,1.74.34,2,1.68.45,2.5.91,5,1.35,7.5.22,1.26,0,1.71-1.15,2.21s-2.33.82-3.49,1.26c-1.56.59-1.89.94-1.7,2.6a18.66,18.66,0,0,0,1,4.38,46.13,46.13,0,0,0,6,10.85c.93,1.3,1.39,1.38,2.78.62,1-.54,1.95-1.16,2.95-1.69,1.33-.69,1.85-.57,2.76.56,1.61,2,3.17,4,4.81,6a1.38,1.38,0,0,1,0,2,9,9,0,0,1-8.94,3.5A14,14,0,0,1,26.81,88.07Z"/><circle class="cls-1" cx="25.45" cy="25.5" r="14.98"/><line class="cls-2" x1="18.08" y1="25.05" x2="33.14" y2="25.05"/><line class="cls-2" x1="25.61" y1="32.58" x2="25.61" y2="17.52"/><path d="M81.42,38a28.86,28.86,0,0,0-4.69-1.7,4.08,4.08,0,0,1-2.91-3.79l-.3-4.81A10.06,10.06,0,0,0,75,19.16a10.66,10.66,0,0,0-2.47-4.34,10.07,10.07,0,0,0-16.93,9.69l-.86,2.55a.64.64,0,0,0,.7.84l1.66-.22a10.12,10.12,0,0,0,7.05,4.17L63.39,40a6,6,0,0,1-2.75,4.49l-3,1.89a6,6,0,0,0-2.23,7.56L57,57.24a3,3,0,0,1-.79,3.5,21.19,21.19,0,0,0-6.87,12,16.87,16.87,0,0,0-.22,2.61,22,22,0,0,0,2.08,9.56l2,4.24H80.27s-.31-14.41.65-15.28c3.67-3.33,12.31-11.45,13-14.81C94.71,54.82,83.09,38.92,81.42,38Zm2.61,21-5.64,6.74a.31.31,0,0,1-.55-.22l.88-14.78a.32.32,0,0,1,.57-.16L84.1,57.2A1.43,1.43,0,0,1,84,58.93Z"/><path d="M68.5,15.14a5.12,5.12,0,0,1,2.33-3.43,5.48,5.48,0,0,1,4.66-.64,7.53,7.53,0,0,1,2.65,1.44,7.42,7.42,0,0,1,2.36,3.32A8.79,8.79,0,0,1,81,18.2c.06.95.08,1.91.11,2.87a8,8,0,0,0,.16,1.62,1.37,1.37,0,0,0,1.56,1.1,1.91,1.91,0,0,0,1.66-1.73,1.11,1.11,0,0,1,0-.19h0c0,.21.11.42.15.63a3.82,3.82,0,0,1-1.36,3.9,3.21,3.21,0,0,1-1.29.68,3.93,3.93,0,0,1-3.14-.6,4.13,4.13,0,0,1-1.65-2.32,12.56,12.56,0,0,1-.44-2.42A24.25,24.25,0,0,0,76.41,19a3.83,3.83,0,0,0-2-2.66,2.65,2.65,0,0,0-2.15-.23l-.42.19A29.66,29.66,0,0,1,68.5,15.14Z"/></svg>