<?xml version="1.0" encoding="utf-8"?>
<!-- Generator: Adobe Illustrator 24.0.0, SVG Export Plug-In . SVG Version: 6.00 Build 0)  -->
<svg version="1.1" id="Layer_1" xmlns="http://www.w3.org/2000/svg" xmlns:xlink="http://www.w3.org/1999/xlink" x="0px" y="0px"
	 viewBox="0 0 100 100" style="enable-background:new 0 0 100 100;" xml:space="preserve">
<g>
	<path d="M74.4,43c8.8,0,15.9-7.1,15.9-15.9c0,0,0,0,0,0c0-8.8-7.1-15.9-15.9-15.9s-15.9,7.1-15.9,15.9S65.6,43,74.4,43z M74.4,12.8
		L74.4,12.8C74.4,12.8,74.5,12.8,74.4,12.8l0.1,4.8c5.3,0.2,9.4,4.6,9.2,9.8c-0.2,5-4.2,9.1-9.2,9.2v4.9c0,0-0.1,0-0.1,0
		c-7.9,0-14.4-6.4-14.4-14.4C60,19.2,66.5,12.8,74.4,12.8z"/>
	<path d="M70.1,29.9c-0.7,0-1.3-0.3-1.8-0.8C68.2,29,68,29,67.9,29c-0.4,0-0.7,0.3-0.7,0.7c0,0.2,0.1,0.4,0.2,0.5
		c0.7,0.7,1.7,1.1,2.7,1c0.1,0,0.2,0,0.2,0c1.4,0,2.5-1.1,2.5-2.5c0-1.5-1.1-2.1-2.3-2.2l1.9-1.9c0.2-0.2,0.4-0.5,0.4-0.8
		c0,0,0,0,0-0.1c0-0.3-0.3-0.6-0.7-0.5h-4.1c-0.1,0-0.1,0-0.2,0c-0.3,0-0.6,0.3-0.5,0.7c0,0.3,0.3,0.6,0.7,0.5H71l-1.9,2
		c-0.2,0.1-0.3,0.3-0.3,0.6c0,0.3,0.3,0.6,0.6,0.6h0.3c1.1,0,1.8,0.4,1.8,1.2c0,0,0,0.1,0,0.1C71.4,29.5,70.8,30,70.1,29.9z"/>
	<path d="M77.7,31.2c2.1,0,3.5-1.8,3.5-4.1c0-2.3-1.4-4.1-3.4-4.1c-2.1,0-3.5,1.8-3.5,4.1C74.2,29.4,75.6,31.2,77.7,31.2z
		 M77.7,24.2c1.2,0,2,1.3,2,2.8s-0.8,2.8-2,2.8c-1.2,0-2-1.3-2-2.8C75.7,25.5,76.5,24.2,77.7,24.2z"/>
	<path d="M86.5,62.2L72.1,47.4c-1.5-1.6-3.6-2.4-5.8-2.4H44.5c-3.7,0-6.8,2.5-7.7,5.9c-1.2-2.5-3.8-4.3-6.8-4.3
		c-4.2,0-7.5,3.4-7.5,7.5c0,3.5,1.6,6.5,5.3,7.3H26c-2.2,0-4-1.8-4-4V42.5c0-0.1,0-0.3,0-0.4c1.3,0.3,2.6,0.5,4,0.5
		c8.7,0,15.8-7.1,15.8-15.8S34.6,11,25.9,11s-15.8,7.1-15.8,15.8c0,3.4,1.1,6.6,3,9.2c-2.7,0.9-4.7,3.4-4.7,6.4v45.5h4v-9.8H87v9.8
		h4V69.4C91,66.2,89.2,63.5,86.5,62.2z M40.5,52.9c0-2.2,1.8-4,4-4h21.9c1.1,0,2.1,0.4,2.9,1.2l10.9,11.2H40.5L40.5,52.9L40.5,52.9z
		 M37.7,26.8c0,2.5-0.8,4.8-2.1,6.8L19.2,17.2c1.9-1.3,4.2-2.1,6.7-2.1C32.4,15,37.7,20.3,37.7,26.8z M16.3,20.1l16.4,16.4
		c-1.9,1.3-4.2,2.1-6.7,2.1c-6.5,0-11.8-5.3-11.8-11.8C14.2,24.3,15,22,16.3,20.1z M87,74.2H12.5V42.5c0-1.5,1.2-2.7,2.7-2.7
		c1.5,0,2.7,1.2,2.7,2.7v14.9c0,4.4,3.6,8,8,8h10.5h2l46,0.3c1.4,0.6,2.5,2,2.5,3.7V74.2z"/>
</g>
</svg>
