<svg id="Layer_1" data-name="Layer 1" xmlns="http://www.w3.org/2000/svg" viewBox="0 0 100 100"><path d="M39.13,38.58v-.07a2.31,2.31,0,0,1,.8-1.73l5.83-6.45h-5a1.44,1.44,0,0,1-1.45-1.43,1.46,1.46,0,0,1,1.45-1.45H48.6a1.54,1.54,0,0,1,1.73,1.43V29a2.31,2.31,0,0,1-.8,1.73l-5.85,6.45h5.2a1.45,1.45,0,0,1,1.45,1.45A1.43,1.43,0,0,1,48.88,40h-8A1.54,1.54,0,0,1,39.13,38.58Z"/><path d="M51.18,31.62v-.05a1.76,1.76,0,0,1,.62-1.33l4.48-5H52.46a1.1,1.1,0,0,1-1.11-1.09,1.12,1.12,0,0,1,1.11-1.12h6a1.18,1.18,0,0,1,1.33,1.1v0a1.79,1.79,0,0,1-.61,1.33l-4.5,5h4a1.11,1.11,0,1,1,0,2.21H52.52C51.74,32.72,51.18,32.27,51.18,31.62Z"/><path d="M60.87,26.49v0a1.81,1.81,0,0,1,.61-1.34l4.49-5H62.15A1.11,1.11,0,0,1,61,19.05a1.12,1.12,0,0,1,1.12-1.11h6A1.18,1.18,0,0,1,69.48,19v.06a1.8,1.8,0,0,1-.61,1.33l-4.5,4.95h4a1.13,1.13,0,0,1,1.12,1.12,1.11,1.11,0,0,1-1.12,1.1H62.2A1.18,1.18,0,0,1,60.87,26.49Z"/><circle cx="31.26" cy="53.81" r="5.53"/><path d="M31.26,46.28a7.53,7.53,0,0,0-7.53,7.53c0,4.16,2.28,7.53,7.53,7.53,6.81,0,7.53,3,7.53-7.53A7.53,7.53,0,0,0,31.26,46.28Zm0,11.06a3.53,3.53,0,1,1,3.53-3.53A3.53,3.53,0,0,1,31.26,57.34Z"/><path d="M87.86,62,73.39,47.09h0a8,8,0,0,0-5.75-2.43H45.78a8,8,0,0,0-8,8V65.09h2l46.64.31,4.77,0ZM45.78,48.66H67.64a4,4,0,0,1,2.87,1.21h0l11.15,11.5-39.89-.26V52.66A4,4,0,0,1,45.78,48.66Z"/><path d="M84.24,61.1h-57a4,4,0,0,1-4-4V42.18a6.74,6.74,0,0,0-13.48,0V87.67h4V77.9H88.24v9.77h4V69.1A8,8,0,0,0,84.24,61.1ZM13.79,73.9V42.18a2.74,2.74,0,1,1,5.48,0V57.1a8,8,0,0,0,8,8h57a4,4,0,0,1,4,4v4.8Z"/></svg>