<?xml version="1.0" encoding="utf-8"?>
<!-- Generator: Adobe Illustrator 24.0.0, SVG Export Plug-In . SVG Version: 6.00 Build 0)  -->
<svg version="1.1" id="Layer_1" xmlns="http://www.w3.org/2000/svg" xmlns:xlink="http://www.w3.org/1999/xlink" x="0px" y="0px"
	 viewBox="0 0 100 100" style="enable-background:new 0 0 100 100;" xml:space="preserve">
<g>
	<path d="M44.1,37.4C45,36.9,45.7,36,46,35c0.3-1,0.1-2.1-0.4-3.1L33,10.1c-0.4-0.6-0.9-1.2-1.5-1.5c-1.9-1.1-4.4-0.4-5.5,1.5
		L13.3,31.9c-0.4,0.6-0.5,1.3-0.5,2c0,2.2,1.8,4,4,4c0,0,0,0,0,0h25.3C42.8,38,43.5,37.8,44.1,37.4z M16.8,35
		C16.8,35,16.8,35,16.8,35c-0.6,0-1.1-0.5-1.1-1c0-0.2,0-0.4,0.1-0.5l12.6-21.8l0,0c0.2-0.3,0.5-0.5,0.9-0.5c0.2,0,0.4,0,0.5,0.1
		c0.2,0.1,0.3,0.2,0.4,0.4L43,33.4c0.1,0.2,0.2,0.5,0.1,0.8c-0.1,0.3-0.3,0.5-0.5,0.6c-0.2,0.1-0.3,0.1-0.5,0.1H16.8z"/>
	<path d="M30.3,15h-1.8c-0.1,0-0.1,0-0.2,0c-0.5,0.1-0.8,0.6-0.7,1.1l0.9,10.4c0,0,0,0,0,0c0,0.5,0.4,0.9,0.9,0.9
		c0.5,0,0.9-0.4,1-0.9L31.2,16c0-0.1,0-0.1,0-0.2C31.2,15.4,30.8,15,30.3,15z"/>
	<path d="M29.4,29.3C29.4,29.3,29.3,29.3,29.4,29.3c-1,0-1.8,0.8-1.8,1.7v0.3c0.1,0.9,0.8,1.6,1.7,1.7c1,0.1,1.9-0.7,1.9-1.7V31
		c0,0,0,0,0-0.1C31.1,30,30.3,29.2,29.4,29.3z"/>
	<path d="M40.3,44.8c0,4.8,6.1,8.5,14,8.5c7.8,0,14-3.7,14-8.5s-6.1-8.5-14-8.5C46.4,36.4,40.3,40.1,40.3,44.8z"/>
	<path d="M54.3,54.5c-7.8,0-14,3.7-14,8.5c0,4.8,6.1,8.5,14,8.5c7.8,0,14-3.7,14-8.5C68.2,58.2,62.1,54.5,54.3,54.5z M54.3,67.5
		c-5.7,0-10-2.4-10-4.5c0-2.1,4.3-4.5,10-4.5c5.7,0,10,2.4,10,4.5C64.2,65.1,60,67.5,54.3,67.5z"/>
	<path d="M54.3,72.6c-7.8,0-14,3.7-14,8.5c0,4.8,6.1,8.5,14,8.5c7.8,0,14-3.7,14-8.5C68.2,76.4,62.1,72.6,54.3,72.6z"/>
</g>
</svg>
