<?xml version="1.0" encoding="utf-8"?>
<!-- Generator: Adobe Illustrator 24.0.0, SVG Export Plug-In . SVG Version: 6.00 Build 0)  -->
<svg version="1.1" id="Layer_1" xmlns="http://www.w3.org/2000/svg" xmlns:xlink="http://www.w3.org/1999/xlink" x="0px" y="0px"
	 viewBox="0 0 100 100" style="enable-background:new 0 0 100 100;" xml:space="preserve">
<g>
	<path d="M85.6,68.1c-1.6-3.4-5.5-5.1-9-3.8l-12.7,4.5v0c0-1.1-0.4-2.1-1.2-2.9s-1.8-1.2-2.9-1.2h-2.2c0.9-0.8,1.4-2,1.4-3.3
		c0-2.5-2-4.5-4.5-4.5s-4.5,2-4.5,4.5c0,1.3,0.6,2.5,1.4,3.3h-3.6c0,0,0,0,0,0c-0.1,0-0.1,0-0.2-0.1c-4.4-7.8-17.7-7.1-25.1-4.5
		c-1.3-2.8-4-4.7-7.3-4.7h-10v30.4h10c2.8,0,5.2-1.4,6.6-3.5c5,1.8,21.7,7.9,29,7.9c7.3,0,24.4-8.3,32-12.7
		C86,75.5,87.2,71.5,85.6,68.1z M19.1,77.8c0,2.2-1.8,4-4,4h-6V59.3h6c2.2,0,4,1.8,4,4V77.8z M80.7,74c-8.6,5.1-24.2,12.2-29.9,12.2
		c-6.6,0-23-5.9-27.7-7.7c0-0.2,0-0.5,0-0.7V64c6.2-2.4,17.8-3.1,20.9,2.5c0.7,1.3,2.1,2.1,3.6,2.1c0,0,0,0,0,0h12c0,0,0,0,0,0
		c0.1,0,0.1,0.1,0.1,0.2v3.9c0,0.1-0.1,0.2-0.2,0.2H41.5c-1.1,0-2,0.9-2,2s0.9,2,2,2h18.2c2.2,0,3.9-1.7,4.1-3.8l14.1-5
		c1.6-0.6,3.4,0.2,4.1,1.7C82.7,71.3,82.2,73.1,80.7,74z"/>
	<path d="M54,43.9C54,43.9,54,43.9,54,43.9l5.8,3.1c-0.1,0-0.2,0-0.3,0c-2.5,0-4.5,2-4.5,4.5s2,4.5,4.5,4.5c2.5,0,4.5-2,4.5-4.5
		c0-1-0.4-2-0.9-2.7l4.6,2.5c1,0.6,2.3,0.2,2.9-0.9l2.2-4l3-2.6c0.6-0.5,1-1.1,1.4-1.8l8.6-16c0.6-1,0.2-2.3-0.8-2.9c0,0,0,0,0,0
		l-17.1-9.2c-1-0.5-2.3-0.2-2.8,0.9l-8.6,16c-0.4,0.7-0.6,1.5-0.7,2.3L55.4,37l-2.2,4C52.6,42,53,43.3,54,43.9z M60.4,29.6l4.8-9
		c0.6-1,1.8-1.4,2.8-0.8l11.8,6.4c1,0.6,1.4,1.8,0.9,2.9L76,37.9c-0.5,1-1.8,1.4-2.8,0.9c0,0,0,0,0,0l-11.9-6.4
		C60.3,31.8,59.9,30.6,60.4,29.6z"/>
	<polygon points="66.8,32.7 69.9,34.3 71.3,31.7 73.9,33.1 75.6,30.1 73,28.6 74.4,26 71.3,24.4 69.9,27 67.3,25.6 65.6,28.6 
		68.2,30.1 	"/>
</g>
</svg>
