<?xml version="1.0" encoding="utf-8"?>
<!-- Generator: Adobe Illustrator 24.0.0, SVG Export Plug-In . SVG Version: 6.00 Build 0)  -->
<svg version="1.1" id="Layer_1" xmlns="http://www.w3.org/2000/svg" xmlns:xlink="http://www.w3.org/1999/xlink" x="0px" y="0px"
	 viewBox="0 0 100 100" style="enable-background:new 0 0 100 100;" xml:space="preserve">
<g>
	<path d="M33.1,24.6h-4.3c0,0-0.1-0.1-0.1-0.1v-6.8c0-1.1-0.9-2-2-2s-2,0.9-2,2v6.8c-0.6,0.5-0.9,1.3-0.9,2.1c0,1.6,1.3,2.9,2.9,2.9
		c0.8,0,1.6-0.4,2.1-0.9h4.3c1.1,0,2-0.9,2-2S34.2,24.6,33.1,24.6z"/>
	<path d="M84.7,48.3c-0.5-0.1-1-0.2-1.6-0.2h-1.3c-1.9-3.1-5.1-5.3-8.7-5.9c-0.9-2.7-2.7-5-5.1-6.5c-2.8-1.8-6.2-2.5-9.5-1.8
		c-0.8,0.2-1.6,0.4-2.3,0.7c-1.8-2.1-4.1-3.5-6.8-4.1c-2.2-0.5-4.5-0.4-6.7,0.3c0.4-1.4,0.6-2.8,0.6-4.2c0-9.2-7.5-16.6-16.6-16.6
		S10,17.5,10,26.6s7.5,16.6,16.6,16.6c0.7,0,1.4-0.1,2.1-0.1c-1.6,1.3-2.9,3-3.7,5h-1.8c-2,0-3.8,0.7-5.2,2.1
		c-1.4,1.4-2.2,3.2-2.2,5.2c0,0.5,0,1,0.2,1.6c2.4,10.8,10.4,19.6,20.9,24.2V83c0,4.4,3.6,8,8,8h16.8c4.4,0,8-3.6,8-8v-1.8
		C80,76.6,87.9,67.9,90.4,57.1C91.2,53.1,88.7,49.2,84.7,48.3z M48.5,34.5c2.2,0.5,4.2,1.9,5.4,3.8l1,1.7l1.7-1
		c0.8-0.5,1.7-0.9,2.7-1.1c2.3-0.5,4.6,0,6.5,1.2c1.9,1.3,3.3,3.2,3.7,5.5l0.3,1.5l1.6,0.1c1.8,0.1,3.6,0.8,5,1.9H29.6
		c1.5-2.1,3.9-3.5,6.5-3.7l1.8-0.1l0.1-1.8c0.1-2.8,1.6-5.4,4-6.9C44,34.3,46.3,34,48.5,34.5z M14,26.6c0-7,5.7-12.6,12.6-12.6
		s12.6,5.7,12.6,12.6s-5.7,12.6-12.6,12.6S14,33.6,14,26.6z M65.6,83c0,2.2-1.8,4-4,4H44.9c-2.2,0-4-1.8-4-4v-0.2
		c3.9,1.2,8,1.9,12.3,1.9c4.3,0,8.5-0.7,12.5-1.9V83z M86.4,56.2c-3.2,14.2-17.2,24.4-33.3,24.4c-16.1,0-30.1-10.3-33.3-24.4
		c0-0.2-0.1-0.5-0.1-0.7c0-0.9,0.4-1.7,1-2.4c0.6-0.6,1.5-1,2.4-1c0,0,0,0,0,0l59.9,0c0.2,0,0.5,0,0.7,0.1
		C85.7,52.6,86.8,54.4,86.4,56.2z"/>
</g>
</svg>
