<?xml version="1.0" encoding="utf-8"?>
<!-- Generator: Adobe Illustrator 24.2.3, SVG Export Plug-In . SVG Version: 6.00 Build 0)  -->
<svg version="1.1" id="Layer_1" xmlns="http://www.w3.org/2000/svg" xmlns:xlink="http://www.w3.org/1999/xlink" x="0px" y="0px"
	 viewBox="0 0 100 100" style="enable-background:new 0 0 100 100;" xml:space="preserve">
<path d="M89.1,65.4c-0.7-0.6-1.6-1-2.6-1c-1.4,0-2.8-0.1-4.2-0.3c-2.6-0.3-5-1-7.4-1.9h10c2.6,0,4.8-2.1,4.8-4.8
	c0-5.2-3.6-9.7-8.5-10.9c-1.3-3.3-5.4-5.6-10.5-5.6c-4.8,0-8.8,2.1-10.3,5.2h-3.2c-4.7-9.4-4.7-20.5,0.1-29.8c1-1.9,0.3-4.4-1.6-5.4
	c-0.9-0.5-1.9-0.6-2.9-0.4c-9.5,2.5-17.5,8.5-22.5,17c-5,8.5-6.4,18.4-3.9,28c0.3,1.3,0.7,2.5,1.2,3.7c-5,0.3-9.2,4-10,8.9
	c-4.6,0.9-8,5-8,9.8c0,5.5,4.5,10,10,10h34.6c3.6,0,6.8-1.9,8.5-4.8c2.9,0,5.8-0.4,8.7-1.2c7-1.8,13.3-5.6,18.2-11.1
	c0.7-0.8,1.1-1.8,1-2.9C90.4,67.1,89.9,66.2,89.1,65.4z M70.3,78.3c-2.1,0.5-4.2,0.9-6.3,1c0-0.4,0.1-0.8,0.1-1.2
	c0-4.8-3.5-8.9-8-9.8c0-0.2,0-0.5,0-0.7c0-6.4-6.3-11.7-14-11.7c0,0,0,0,0,0c-3.8-0.1-7.4,1.2-10.2,3.7c-0.7-1.5-1.2-3.2-1.7-4.8
	c-2.2-8.5-1-17.4,3.5-24.9s11.6-13,20.1-15.1c-5.5,10.6-5.5,23.2,0,33.8c5.6,10.8,16,18.1,28.1,19.7h0c1.6,0.2,3.1,0.3,4.7,0.3
	C82.2,73.2,76.6,76.6,70.3,78.3z"/>
</svg>
