<?xml version="1.0" encoding="utf-8"?>
<!-- Generator: Adobe Illustrator 24.2.3, SVG Export Plug-In . SVG Version: 6.00 Build 0)  -->
<svg version="1.1" id="Layer_1" xmlns="http://www.w3.org/2000/svg" xmlns:xlink="http://www.w3.org/1999/xlink" x="0px" y="0px"
	 viewBox="0 0 100 100" style="enable-background:new 0 0 100 100;" xml:space="preserve">
<g>
	<path d="M89.6,72.2c0,0,0-0.7,0-0.7c-0.1-9.6-8-17.3-17.5-17.3c0,0-0.1,0-0.1,0H28.4c-9.9,0-18,8.1-18,18s8.1,18,18,18h43.4
		c0.1,0,0.1,0,0.2,0c4.6,0,8.9-1.8,12.2-5c3.3-3.3,5.2-7.7,5.3-12.4L89.6,72.2L89.6,72.2z M85.6,72.2L85.6,72.2
		c0,3.8-1.5,7.3-4.1,9.9c-2.6,2.6-6,4.1-9.8,4.1H51V58.2h20.5C79.3,58.2,85.6,64.5,85.6,72.2L85.6,72.2z"/>
	<path d="M41.1,45.3h12.8c0,0,0,0,0,0c1.3,0,2.3-1,2.3-2.3c0-1.3-1-2.3-2.3-2.3h-8.3L55,30.4c0.8-0.7,1.2-1.7,1.2-2.8v-0.1
		c0-1.4-1.2-2.3-2.8-2.3H41c-1.3,0-2.3,1-2.3,2.3c0,0,0,0,0,0c0,1.3,1,2.3,2.3,2.3h7.9l-9.3,10.3c-0.8,0.7-1.3,1.7-1.3,2.8V43
		C38.4,44.3,39.5,45.3,41.1,45.3z"/>
	<path d="M59.7,33.6h9.8c1,0,1.8-0.8,1.8-1.8c0-1-0.8-1.8-1.8-1.8h-6.4l7.2-7.9c0.6-0.5,1-1.3,1-2.1V20c0,0,0-0.1,0-0.1
		c-0.1-1-1.1-1.8-2.1-1.6h-9.6c-1,0-1.8,0.8-1.8,1.8c0,0,0,0,0,0.1c0,1,0.8,1.8,1.8,1.7h6.1l-7.1,7.9c-0.6,0.5-1,1.3-1,2.1v0.1
		c0,0,0,0.1,0,0.1C57.7,33,58.7,33.8,59.7,33.6z"/>
	<path d="M75.2,25.5H85c0,0,0,0,0,0c1,0,1.8-0.8,1.8-1.8c0-1-0.8-1.8-1.8-1.8h-6.4l7.2-7.9c0.6-0.5,1-1.3,1-2.1v-0.1
		c0,0,0-0.1,0-0.1c-0.1-1-1.1-1.8-2.1-1.6h-9.6c-1,0-1.8,0.8-1.8,1.8c0,0,0,0,0,0c0,1,0.8,1.8,1.8,1.7h6.1L74,21.5
		c-0.6,0.5-1,1.3-1,2.1v0.1C73,24.8,73.9,25.5,75.2,25.5z"/>
</g>
</svg>
