<svg id="Layer_1" data-name="Layer 1" xmlns="http://www.w3.org/2000/svg" viewBox="0 0 100 100"><defs><style>.cls-1{fill:none;stroke-width:5px;}.cls-1,.cls-2{stroke:#000;stroke-miterlimit:10;}.cls-2{stroke-width:2px;}</style></defs><circle class="cls-1" cx="50" cy="50.42" r="20.45"/><path class="cls-2" d="M50,21.06a1.65,1.65,0,0,1-1.65-1.65V12.07a1.65,1.65,0,0,1,3.3,0v7.34A1.65,1.65,0,0,1,50,21.06Z"/><path class="cls-2" d="M50,90.42a1.65,1.65,0,0,1-1.65-1.65V81.43a1.65,1.65,0,1,1,3.3,0v7.34A1.65,1.65,0,0,1,50,90.42Z"/><path class="cls-2" d="M71.93,30.14a1.65,1.65,0,0,1-1.17-2.82L76,22.13a1.65,1.65,0,1,1,2.33,2.34l-5.19,5.19A1.64,1.64,0,0,1,71.93,30.14Z"/><path class="cls-2" d="M22.88,79.19a1.66,1.66,0,0,1-1.16-2.82l5.19-5.19a1.65,1.65,0,1,1,2.33,2.33L24.05,78.7A1.67,1.67,0,0,1,22.88,79.19Z"/><path class="cls-2" d="M88.35,52.07H81a1.65,1.65,0,0,1,0-3.3h7.34a1.65,1.65,0,1,1,0,3.3Z"/><path class="cls-2" d="M19,52.07H11.65a1.65,1.65,0,0,1,0-3.3H19a1.65,1.65,0,1,1,0,3.3Z"/><path class="cls-2" d="M77.12,79.19A1.67,1.67,0,0,1,76,78.7l-5.19-5.19a1.65,1.65,0,0,1,2.33-2.33l5.19,5.19a1.66,1.66,0,0,1-1.16,2.82Z"/><path class="cls-2" d="M28.07,30.14a1.64,1.64,0,0,1-1.16-.48l-5.19-5.19a1.65,1.65,0,1,1,2.33-2.34l5.19,5.19a1.65,1.65,0,0,1-1.17,2.82Z"/></svg>