<?xml version="1.0" encoding="utf-8"?>
<!-- Generator: Adobe Illustrator 24.0.0, SVG Export Plug-In . SVG Version: 6.00 Build 0)  -->
<svg version="1.1" id="Layer_1" xmlns="http://www.w3.org/2000/svg" xmlns:xlink="http://www.w3.org/1999/xlink" x="0px" y="0px"
	 viewBox="0 0 100 100" style="enable-background:new 0 0 100 100;" xml:space="preserve">
<g>
	<path d="M72.4,53.8C72.4,53.8,72.3,53.8,72.4,53.8C72.3,53.8,72.3,53.8,72.4,53.8c-0.1,0-0.2,0-0.2,0h-0.3H51.3h-2H28.7
		c0,0,0,0,0,0c-9.3,0-17,7.1-17.9,16.2c0,0,0,0,0,0.1c-0.1,0.6-0.1,1.1-0.1,1.7v0.1V72c0,4.8,1.9,9.3,5.3,12.7
		c3.4,3.4,7.9,5.2,12.7,5.2c0,0,0,0,0,0h20.5h2h20.6h0.1c0,0,0,0,0,0h0.2c0,0,0,0,0,0c0,0,0.1,0,0.1,0c0,0,0,0,0,0c0,0,0,0,0,0
		c9.6,0,17.4-7.7,17.5-17.4V72c0,0,0-0.1,0-0.1c0,0,0,0,0,0c0,0,0-0.1,0-0.1v-0.6C89.8,61.6,81.9,53.8,72.4,53.8z M51.3,85.9V57.8
		h20.6c7.7,0,14,6.3,14,14h0v0v0h0c0,7.7-6.3,14-14,14H51.3z"/>
	<path d="M41.4,44.9h12.8c0,0,0,0,0,0c1.3,0,2.3-1,2.3-2.3c0-1.3-1-2.3-2.3-2.3h-8.3L55.2,30c0.8-0.7,1.3-1.7,1.3-2.8v-0.1
		c0-1.3-1.2-2.3-2.8-2.3H41.3c-1.3,0-2.3,1-2.3,2.3c0,0,0,0,0,0c0,1.3,1,2.3,2.3,2.3h7.9l-9.3,10.3c-0.8,0.7-1.3,1.7-1.3,2.8v0.1
		C38.7,44,39.8,44.9,41.4,44.9z"/>
	<path d="M60,33.3h9.8c0,0,0,0,0,0c1,0,1.8-0.8,1.8-1.8c0-1-0.8-1.8-1.8-1.8h-6.4l7.2-7.9c0.6-0.5,1-1.3,1-2.1v-0.1c0,0,0-0.1,0-0.1
		c-0.1-1-1.1-1.8-2.1-1.6h-9.6c-1,0-1.8,0.8-1.8,1.8c0,0,0,0,0,0c0,1,0.8,1.8,1.8,1.7H66l-7.1,7.9c-0.6,0.5-1,1.3-1,2.1v0.1
		c0,0,0,0.1,0,0.1C58,32.7,59,33.4,60,33.3z"/>
	<path d="M75.5,25.1h9.8c1,0,1.8-0.8,1.8-1.8c0-1-0.8-1.8-1.8-1.8h-6.4l7.2-7.9c0.6-0.5,1-1.3,1-2.1v-0.1c0,0,0-0.1,0-0.1
		c-0.1-1-1.1-1.8-2.1-1.6h-9.6c-1,0-1.8,0.8-1.8,1.8c0,0,0,0,0,0c0,1,0.8,1.8,1.8,1.7h6.1l-7.1,7.9c-0.6,0.5-1,1.3-1,2.1v0.1
		c0,0,0,0.1,0,0.1C73.5,24.5,74.4,25.2,75.5,25.1z"/>
</g>
</svg>
