<svg id="Layer_1" data-name="Layer 1" xmlns="http://www.w3.org/2000/svg" viewBox="0 0 100 100"><defs><style>.cls-1{fill:#898484;}.cls-1,.cls-2,.cls-3,.cls-4{stroke:#000;stroke-miterlimit:10;stroke-width:4px;}.cls-2{fill:none;stroke-linecap:round;}.cls-4{fill:#fff;}</style></defs><line class="cls-1" x1="16.4" y1="37.36" x2="16.4" y2="51.81"/><line class="cls-2" x1="43.99" y1="48" x2="55.1" y2="48"/><line class="cls-2" x1="43.99" y1="55.01" x2="55.1" y2="55.01"/><path class="cls-3" d="M16.4,65A10.26,10.26,0,0,0,26.66,75.22h0A10.27,10.27,0,0,0,36.93,65V51.81H16.4Z"/><path class="cls-4" d="M27.1,27.09h-.44A10.27,10.27,0,0,1,36.93,37.36v-.22A9.94,9.94,0,0,0,27.1,27.09Z"/><path class="cls-4" d="M26.66,27.09h-.44A9.94,9.94,0,0,0,16.4,37.14v.22A10.26,10.26,0,0,1,26.66,27.09Z"/><path class="cls-3" d="M73.31,25.78h0A10.82,10.82,0,0,0,62.49,36.6V50.46H84.13V36.6A10.82,10.82,0,0,0,73.31,25.78Z"/><path class="cls-4" d="M73.31,76.53h0A10.82,10.82,0,0,1,62.49,65.7v.24A10.48,10.48,0,0,0,72.85,76.53h.92A10.47,10.47,0,0,0,84.13,65.94V65.7A10.82,10.82,0,0,1,73.31,76.53Z"/><line class="cls-1" x1="84.13" y1="65.7" x2="84.13" y2="50.46"/><line class="cls-1" x1="62.49" y1="65.94" x2="62.49" y2="50.46"/><line class="cls-1" x1="36.93" y1="51.81" x2="36.93" y2="37.36"/></svg>