<svg id="Layer_1" data-name="Layer 1" xmlns="http://www.w3.org/2000/svg" viewBox="0 0 100 100"><defs><style>.cls-1,.cls-2,.cls-3{fill:none;stroke:#000;stroke-miterlimit:10;}.cls-1,.cls-2{stroke-width:4px;}.cls-2{stroke-linecap:round;}.cls-3{stroke-width:3.48px;}</style></defs><path class="cls-1" d="M11.66,57.57h8a6,6,0,0,1,6,6V78a6,6,0,0,1-6,6h-8a0,0,0,0,1,0,0V57.57A0,0,0,0,1,11.66,57.57Z"/><path class="cls-2" d="M25.63,62.93c6.14-3,20.65-4.48,24.71,2.79a2.16,2.16,0,0,0,1.9,1.11h12A2.16,2.16,0,0,1,66.42,69v3.9a2.16,2.16,0,0,1-2.16,2.16H46"/><path class="cls-1" d="M25.63,80.07s21.53,8.27,29.68,8.3c6.64,0,23.21-7.89,31-12.45a5.27,5.27,0,0,0,2.11-6.78h0a5.29,5.29,0,0,0-6.56-2.76L66.42,71.81"/><circle cx="58.93" cy="61.52" r="4.55"/><circle cx="64.03" cy="51.71" r="4.55"/><path d="M89.48,23.34,72.4,14.14a2.1,2.1,0,0,0-2.83.85L61,31a6.16,6.16,0,0,0-.7,2.29l-.38,3.93h0l-2.18,4a2.13,2.13,0,0,0,.87,2.88l13.64,7.34a2.12,2.12,0,0,0,2.88-.86l2.18-4.05,3-2.6a5.92,5.92,0,0,0,1.38-1.72l8.64-16A2.08,2.08,0,0,0,89.48,23.34ZM85.32,29.2l-4.82,9a2.1,2.1,0,0,1-2.83.85L65.84,32.62A2.08,2.08,0,0,1,65,29.79l4.81-8.95A2.11,2.11,0,0,1,72.64,20l11.83,6.37A2.09,2.09,0,0,1,85.32,29.2Z"/><line class="cls-3" x1="79.3" y1="31.81" x2="70.99" y2="27.33"/><line class="cls-3" x1="77.38" y1="25.41" x2="72.91" y2="33.73"/></svg>