<svg id="Layer_1" data-name="Layer 1" xmlns="http://www.w3.org/2000/svg" viewBox="0 0 100 100"><defs><style>.cls-1,.cls-2{stroke:#000;stroke-miterlimit:10;stroke-width:4px;}.cls-2{fill:none;}</style></defs><path class="cls-1" d="M66.8,60.31H84.93a2.76,2.76,0,0,0,2.76-2.76h0a9.23,9.23,0,0,0-8.09-9.16c-.41-3-4.23-5.3-8.88-5.3s-8.4,2.29-8.86,5.23H56"/><path class="cls-2" d="M82.07,66.16A35,35,0,0,1,55.53,47.53a34.9,34.9,0,0,1,0-32,2,2,0,0,0-2.23-2.89A34.9,34.9,0,1,0,88,69.77a2,2,0,0,0-1.48-3.32A35.29,35.29,0,0,1,82.07,66.16Z"/><path class="cls-1" d="M54.09,70.09h-.42a8,8,0,0,0,.42-2.54c0-5.35-5.4-9.68-12.06-9.68a13,13,0,0,0-10.12,4.41,8.6,8.6,0,0,0-3.83-.89,8.7,8.7,0,0,0-8.69,8.7h0a8,8,0,0,0-7.88,8h0a8,8,0,0,0,8,8H54.09a8,8,0,0,0,8-8h0A8,8,0,0,0,54.09,70.09Z"/></svg>