<svg id="Layer_1" data-name="Layer 1" xmlns="http://www.w3.org/2000/svg" viewBox="0 0 100 100"><defs><style>.cls-1,.cls-2,.cls-3{fill:none;}.cls-2,.cls-3{stroke:#000;stroke-miterlimit:10;stroke-width:4px;}.cls-3{stroke-linecap:round;}</style></defs><g id="_254" data-name="254"><rect class="cls-1" x="8.24" y="12.5" width="80" height="80"/><circle class="cls-2" cx="26.67" cy="26.64" r="14.65"/><circle cx="26.67" cy="26.64" r="2.94"/><line class="cls-3" x1="26.67" y1="17.73" x2="26.67" y2="25.35"/><line class="cls-3" x1="27.97" y1="26.64" x2="33.13" y2="26.64"/><g id="_254-2" data-name="254"><rect class="cls-1" x="11.87" y="11.13" width="80" height="80"/><path class="cls-3" d="M80.56,50a10.66,10.66,0,0,0-9.06-5.86,10.63,10.63,0,0,0-15.9-6.92A10.62,10.62,0,0,0,36,42.34,10.65,10.65,0,0,0,26.48,50Z"/><path class="cls-2" d="M38.85,80v3a6,6,0,0,0,6,6H61.63a6,6,0,0,0,6-6v-3"/><path class="cls-2" d="M53.17,82.65c17.4,0,31.91-11.17,35.23-26a5.36,5.36,0,0,0-5.29-6.47H23.23a5.37,5.37,0,0,0-5.29,6.47C21.26,71.48,35.77,82.65,53.17,82.65Z"/></g></g></svg>