<?xml version="1.0" encoding="utf-8"?>
<!-- Generator: Adobe Illustrator 24.0.0, SVG Export Plug-In . SVG Version: 6.00 Build 0)  -->
<svg version="1.1" id="Layer_1" xmlns="http://www.w3.org/2000/svg" xmlns:xlink="http://www.w3.org/1999/xlink" x="0px" y="0px"
	 viewBox="0 0 100 100" style="enable-background:new 0 0 100 100;" xml:space="preserve">
<g>
	<g>
		<path d="M48.6,27.5h-7.8c-0.8,0-1.4,0.7-1.5,1.5c0,0,0,0,0,0c0,0.8,0.7,1.4,1.5,1.4h5l-5.8,6.5c-0.5,0.4-0.8,1.1-0.8,1.7v0.1
			c0,0,0,0.1,0,0.1c0.1,0.8,0.9,1.4,1.7,1.3h8c0.8,0,1.4-0.6,1.5-1.4c0-0.8-0.6-1.5-1.5-1.5h-5.2l5.9-6.5c0.5-0.4,0.8-1.1,0.8-1.7
			v-0.1c0,0,0-0.1,0-0.1C50.2,27.9,49.4,27.3,48.6,27.5z"/>
		<path d="M58.7,30.5h-4l4.5-5c0.4-0.3,0.6-0.8,0.6-1.3c0,0,0-0.1,0-0.1c-0.1-0.6-0.7-1.1-1.3-1h-6c-0.6,0-1.1,0.5-1.1,1.1v0
			c0,0.6,0.5,1.1,1.1,1.1h3.8l-4.5,5c-0.4,0.3-0.6,0.8-0.6,1.3v0c0,0.7,0.6,1.1,1.3,1h6.2c0.1,0,0.1,0,0.2,0c0.6-0.1,1.1-0.6,1-1.2
			C59.8,30.8,59.3,30.4,58.7,30.5z"/>
		<path d="M68.4,25.3h-4l4.5-5c0.4-0.3,0.6-0.8,0.6-1.3V19c0,0,0-0.1,0-0.1c-0.1-0.6-0.7-1.1-1.4-1h-6c-0.6,0-1.1,0.5-1.1,1.1
			c0,0,0,0,0,0c0,0.6,0.5,1.1,1.1,1.1H66l-4.5,5c-0.4,0.3-0.6,0.8-0.6,1.3c0,0,0,0,0,0.1c0.1,0.6,0.7,1.1,1.3,1h6.2c0,0,0,0,0,0
			c0.6,0,1.1-0.5,1.1-1.1C69.5,25.8,69,25.3,68.4,25.3z"/>
	</g>
	<path d="M87.8,61.9L73.4,47.1c-1.5-1.6-3.6-2.4-5.8-2.4H45.8c-3.7,0-6.8,2.5-7.7,5.9c-1.2-2.5-3.8-4.3-6.8-4.3
		c-4.2,0-7.5,3.4-7.5,7.5c0,3.5,1.6,6.5,5.3,7.3h-1.8c-2.2,0-4-1.8-4-4V42.2c0-3.7-3-6.7-6.7-6.7c-3.7,0-6.7,3-6.7,6.7v45.5h4v-9.8
		h74.5v9.8h4V69.1C92.2,66,90.4,63.3,87.8,61.9z M41.8,52.7c0-2.2,1.8-4,4-4c0,0,0,0,0,0h21.9c1.1,0,2.1,0.4,2.9,1.2l10.9,11.2H41.8
		V52.7z M88.3,73.9H13.8V42.2c0-1.5,1.2-2.7,2.7-2.7c1.5,0,2.7,1.2,2.7,2.7v14.9c0,4.4,3.6,8,8,8h14l44.5,0.3c1.5,0.6,2.5,2,2.5,3.7
		V73.9z"/>
</g>
</svg>
