<?xml version="1.0" encoding="utf-8"?>
<!-- Generator: Adobe Illustrator 24.2.3, SVG Export Plug-In . SVG Version: 6.00 Build 0)  -->
<svg version="1.1" id="Layer_1" xmlns="http://www.w3.org/2000/svg" xmlns:xlink="http://www.w3.org/1999/xlink" x="0px" y="0px"
	 viewBox="0 0 100 100" style="enable-background:new 0 0 100 100;" xml:space="preserve">
<g>
	<path d="M50,27.5c-12.7,0-23,10.3-23,22.9s10.3,23,23,23c12.7,0,23-10.3,23-23S62.7,27.5,50,27.5z M50,68.4c-9.9,0-18-8.1-18-18
		s8.1-17.9,18-17.9c9.9,0,18,8.1,18,17.9S59.9,68.4,50,68.4z"/>
	<path d="M50,22.1c1.5,0,2.7-1.2,2.7-2.6v-7.3c0-1.5-1.2-2.6-2.6-2.6c0,0,0,0,0,0c-0.7,0-1.4,0.3-1.9,0.8c-0.5,0.5-0.8,1.2-0.8,1.9
		v7.3C47.4,20.9,48.5,22.1,50,22.1z"/>
	<path d="M50,78.8C50,78.8,50,78.8,50,78.8c-0.7,0-1.4,0.3-1.9,0.8c-0.5,0.5-0.8,1.2-0.8,1.9v7.3c0,1.5,1.2,2.7,2.6,2.7
		c1.5,0,2.7-1.2,2.7-2.7v-7.3C52.6,80,51.5,78.8,50,78.8z"/>
	<path d="M71.9,31.1C71.9,31.1,72,31.1,71.9,31.1c0.8,0,1.4-0.3,1.9-0.8l5.2-5.2c0.5-0.5,0.8-1.2,0.8-1.9c0-0.7-0.3-1.4-0.8-1.9
		c-1-1-2.7-1-3.7,0l-5.2,5.2c-0.5,0.5-0.8,1.2-0.8,1.9C69.3,30,70.5,31.1,71.9,31.1z"/>
	<path d="M26.2,70.5L21,75.7c-0.5,0.5-0.7,1.1-0.8,1.8c0,1.5,1.1,2.7,2.6,2.7h0h0c0.7,0,1.4-0.3,1.9-0.8l5.2-5.2
		c0.1-0.1,0.1-0.1,0.2-0.2c0.5-0.5,0.7-1.2,0.7-1.9c0-0.7-0.3-1.4-0.9-1.8C28.8,69.3,27.1,69.4,26.2,70.5z"/>
	<path d="M88.3,47.8L88.3,47.8H81c-1.5,0-2.6,1.2-2.6,2.6c0,1.5,1.2,2.6,2.6,2.7h7.3c1.5,0,2.6-1.2,2.6-2.7
		C91,49,89.8,47.8,88.3,47.8z"/>
	<path d="M21.7,50.4c0-1.5-1.2-2.6-2.6-2.6c0,0,0,0,0,0h-7.4C10.2,47.8,9,49,9,50.4c0,1.5,1.2,2.6,2.6,2.7H19c0.7,0,1.4-0.3,1.9-0.8
		C21.4,51.8,21.7,51.1,21.7,50.4z"/>
	<path d="M73.8,70.4c-1-0.9-2.5-0.9-3.5,0c-0.5,0.5-0.8,1.1-0.9,1.8c0,0.7,0.2,1.4,0.7,2l5.2,5.2c0.5,0.5,1.1,0.8,1.8,0.8l0.1,0h0
		c0.7,0,1.3-0.3,1.8-0.8c1-1,1.1-2.7,0-3.8L73.8,70.4z"/>
	<path d="M26.2,30.4c0.5,0.5,1.2,0.8,1.9,0.8c0.7,0,1.4-0.3,1.9-0.8c1-1,1-2.7,0-3.7l-5.2-5.2c-1-1-2.7-1-3.7,0c-1,1-1,2.7,0,3.7
		L26.2,30.4z"/>
</g>
</svg>
