<svg id="Layer_1" data-name="Layer 1" xmlns="http://www.w3.org/2000/svg" viewBox="0 0 100 100"><defs><style>.cls-1{fill:none;stroke-width:4px;}.cls-1,.cls-2{stroke:#000;stroke-miterlimit:10;}</style></defs><path d="M74.41,43A15.88,15.88,0,1,1,90.29,27.14,15.9,15.9,0,0,1,74.41,43Zm0-30.24A14.37,14.37,0,1,0,88.77,27.14,14.37,14.37,0,0,0,74.41,12.78Z"/><path d="M74.49,12v5.59a9.53,9.53,0,0,1,0,19.05v5.59a15.12,15.12,0,0,0,0-30.23Z"/><path d="M67.43,30.15a.64.64,0,0,1-.23-.5.67.67,0,0,1,.67-.66.62.62,0,0,1,.46.18,2.42,2.42,0,0,0,1.81.76,1.25,1.25,0,0,0,1.37-1.21v0c0-.78-.72-1.22-1.83-1.22H69.4a.61.61,0,0,1-.6-.6.79.79,0,0,1,.29-.57l1.86-2H68.07a.61.61,0,1,1,0-1.21h4.06a.62.62,0,0,1,.69.61,1,1,0,0,1-.39.76l-1.87,1.94c1.2.15,2.33.76,2.33,2.23v0a2.54,2.54,0,0,1-2.78,2.52A3.68,3.68,0,0,1,67.43,30.15Z"/><path d="M74.24,27.1v0c0-2.27,1.39-4.1,3.47-4.1s3.45,1.81,3.45,4.08v0c0,2.27-1.38,4.11-3.47,4.11S74.24,29.37,74.24,27.1Zm5.48,0v0c0-1.56-.81-2.85-2-2.85s-2,1.25-2,2.83v0c0,1.57.8,2.85,2,2.85S79.72,28.66,79.72,27.1Z"/><circle class="cls-1" cx="25.94" cy="26.81" r="13.77"/><path d="M17.77,15.72a14.43,14.43,0,0,0-2.92,2.92L34.1,37.89A13.48,13.48,0,0,0,37,35Z"/><circle class="cls-2" cx="30" cy="54.08" r="5.53"/><path d="M30,50.55a3.53,3.53,0,0,1,3.53,3.53h4A7.53,7.53,0,0,0,30,46.55Zm-3.53,3.53A3.54,3.54,0,0,1,30,50.55v-4a7.53,7.53,0,0,0-7.53,7.53ZM30,57.61a3.54,3.54,0,0,1-3.53-3.53h-4c0,4.16,2.28,7.53,7.53,7.53Zm3.53-3.53A3.53,3.53,0,0,1,30,57.61v4c6.81,0,7.53,3,7.53-7.53Z"/><path d="M44.52,44.93a8,8,0,0,0-8,8h4a4,4,0,0,1,4-4Zm21.86,0H44.52v4H66.38Zm5.75,2.43a8,8,0,0,0-5.75-2.43v4a4,4,0,0,1,2.88,1.21ZM86.6,62.29,72.13,47.36l-2.87,2.78L83.73,65.07ZM38.51,65.37l46.64.31,0-4-46.64-.31Zm-2-12.44V63.37h4V52.93Zm8-6v0Zm26.17,1.82-1.43,1.39h0ZM85.16,63.68v2l4.77,0L86.6,62.29Zm-46.64-.31h-2v2h2Z"/><path d="M83,61.37H26a4,4,0,0,1-4-4V42.45a6.74,6.74,0,0,0-13.48,0V87.94h4V78.17H87v9.77h4V69.37A8,8,0,0,0,83,61.37ZM12.53,74.17V42.45a2.74,2.74,0,0,1,5.48,0V57.37a8,8,0,0,0,8,8H83a4,4,0,0,1,4,4v4.8Z"/></svg>