<?xml version="1.0" encoding="utf-8"?>
<!-- Generator: Adobe Illustrator 24.0.0, SVG Export Plug-In . SVG Version: 6.00 Build 0)  -->
<svg version="1.1" id="Layer_1" xmlns="http://www.w3.org/2000/svg" xmlns:xlink="http://www.w3.org/1999/xlink" x="0px" y="0px"
	 viewBox="0 0 100 100" style="enable-background:new 0 0 100 100;" xml:space="preserve">
<g>
	<g>
		<path d="M88,33.1h-5.5v-3.6c0-1.4-1.1-2.5-2.5-2.5c-1.4,0-2.5,1.1-2.5,2.5v3.6H64.8v-3.6c0-1.4-1.1-2.5-2.5-2.5s-2.5,1.1-2.5,2.5
			v3.6H47.2v-3.6c0-1.4-1.1-2.5-2.5-2.5c-1.4,0-2.5,1.1-2.5,2.5v3.6h-4.5c-0.1-0.1-0.1-0.2-0.2-0.4L24.9,10.9
			c-0.4-0.6-0.9-1.2-1.5-1.5C21.5,8.3,19,9,17.9,10.9L5.2,32.8c-0.3,0.6-0.5,1.3-0.5,2c0,2.2,1.8,4.1,4.1,4.1h21.3
			c0,0.3-0.1,0.6-0.1,0.9v9.6v22.5v11.7c0,3.7,3,6.6,6.6,6.6H88c3.7,0,6.6-3,6.6-6.6V71.9V49.4v-9.6C94.6,36.1,91.7,33.1,88,33.1z
			 M77.4,38v2.7c0,1.4,1.1,2.5,2.5,2.5c1.4,0,2.5-1.1,2.5-2.5V38c0.9,0.7,1.5,1.9,1.5,3.1c0,0,0,0,0,0c0,2.2-1.8,4-4,4.1h0
			c-2.2,0-4.1-1.8-4.1-4C75.9,39.9,76.5,38.8,77.4,38z M59.8,38v2.8c0,1.4,1.1,2.5,2.5,2.5s2.5-1.1,2.5-2.5v-2.7
			c0.9,0.7,1.5,1.8,1.5,3.1c0,0,0,0,0,0.1c0,2.2-1.8,4-4,4.1c-2.2,0-4.1-1.8-4.1-4C58.2,39.9,58.8,38.7,59.8,38z M42.2,38v2.7
			c0,1.4,1.1,2.5,2.5,2.5c1.4,0,2.5-1.1,2.5-2.5V38c0.9,0.7,1.5,1.9,1.5,3.2c0,2.2-1.8,4.1-4,4.1c0,0,0,0,0,0
			c-2.2,0-4.1-1.8-4.1-4.1C40.6,39.9,41.2,38.8,42.2,38z M8.8,35.9c-0.6,0-1.1-0.5-1.1-1.1c0-0.2,0-0.4,0.1-0.5l12.6-21.8l0,0
			c0.2-0.3,0.5-0.5,0.9-0.5c0.2,0,0.4,0,0.5,0.1c0.2,0.1,0.3,0.2,0.4,0.4l12.2,21.1c-1.3,0.4-2.4,1.3-3.2,2.3H8.8z M90.6,71.9v11.7
			c0,1.5-1.2,2.6-2.6,2.6H36.6c-1.5,0-2.6-1.2-2.6-2.6V71.9V53.4h56.6V71.9z"/>
		<rect x="75.9" y="56.7" width="8.1" height="6.3"/>
		<rect x="40.6" y="56.7" width="8.1" height="6.3"/>
		<rect x="58.3" y="66.8" width="8.1" height="6.3"/>
		<rect x="40.6" y="66.8" width="8.1" height="6.3"/>
		<rect x="58.3" y="76.8" width="8.1" height="6.3"/>
		<rect x="75.9" y="76.8" width="8.1" height="6.3"/>
	</g>
	<g>
		<path d="M19.5,16.9c-0.1-0.5,0.2-1,0.7-1.1c0.1,0,0.1,0,0.2,0h1.8c0.5,0,0.9,0.4,0.9,0.9c0,0.1,0,0.1,0,0.2l-0.9,10.4
			c0,0.5-0.4,0.9-1,0.9c-0.5,0-0.9-0.4-0.9-0.9c0,0,0,0,0,0L19.5,16.9z M21.3,30.1c1,0,1.8,0.7,1.8,1.7c0,0,0,0.1,0,0.1v0.3
			c0,1-0.8,1.7-1.7,1.8c0,0-0.1,0-0.1,0c-1,0-1.8-0.7-1.8-1.7c0,0,0,0,0-0.1v-0.3C19.5,30.9,20.3,30.1,21.3,30.1
			C21.3,30.1,21.3,30.1,21.3,30.1z"/>
	</g>
</g>
</svg>
