<?xml version="1.0" encoding="utf-8"?>
<!-- Generator: Adobe Illustrator 24.0.0, SVG Export Plug-In . SVG Version: 6.00 Build 0)  -->
<svg version="1.1" id="Layer_1" xmlns="http://www.w3.org/2000/svg" xmlns:xlink="http://www.w3.org/1999/xlink" x="0px" y="0px"
	 viewBox="0 0 100 100" style="enable-background:new 0 0 100 100;" xml:space="preserve">
<g>
	<path d="M90.2,68.3c-1.6-3.4-5.5-5.1-9-3.8L68.4,69v0c0-1.1-0.5-2.2-1.2-2.9c-0.8-0.8-1.9-1.2-2.9-1.2H62c0.9-0.8,1.4-2,1.4-3.3
		c0-2.5-2-4.6-4.5-4.6s-4.5,2-4.5,4.6c0,1.3,0.6,2.5,1.4,3.3h-3.6c0,0,0,0,0,0c-0.1,0-0.1,0-0.1-0.1c-4.4-7.8-17.7-7.1-25.2-4.5
		c-1.3-2.7-4-4.7-7.3-4.7h-10V86h10c2.8,0,5.2-1.4,6.6-3.5c5,1.8,21.7,7.9,29,7.9c7.3,0,24.4-8.3,32-12.7
		C90.6,75.7,91.8,71.7,90.2,68.3z M23.7,78c0,2.2-1.8,4-4,4h-6V59.6h6c2.2,0,4,1.8,4,4V78z M85.3,74.2c-8.7,5.1-24.3,12.2-30,12.2
		c-6.6,0-23-5.9-27.7-7.7c0-0.2,0-0.5,0-0.7V64.2c2.7-1,6.8-1.9,11-1.8c2.9,0.1,8,0.8,9.9,4.2c0.7,1.3,2.1,2.1,3.6,2.1c0,0,0,0,0,0
		h12c0,0,0,0,0,0c0.1,0,0.2,0.1,0.2,0.2v3.9c0,0.1-0.1,0.2-0.2,0.2H46c-1.1,0-2,0.9-2,2s0.9,2,2,2h18.3c2.2,0,4-1.7,4.1-3.8l14.1-5
		c1.6-0.6,3.4,0.2,4.1,1.7C87.3,71.5,86.8,73.3,85.3,74.2z"/>
	<path d="M58.6,44.1l5.7,3.1c-0.1,0-0.2,0-0.3,0c-2.5,0-4.6,2-4.6,4.6c0,2.5,2,4.5,4.6,4.5c2.5,0,4.5-2,4.5-4.5c0-1-0.4-2-1-2.8
		l4.6,2.5c1,0.6,2.3,0.2,2.9-0.9c0,0,0,0,0,0l2.2-4l3-2.6c0.6-0.5,1-1.1,1.4-1.7l8.6-16c0.6-1,0.2-2.3-0.8-2.8c0,0,0,0-0.1,0
		l-17.1-9.2c-1-0.5-2.3-0.2-2.8,0.8L61,31c-0.4,0.7-0.6,1.5-0.7,2.3l-0.4,3.9l-2.2,4C57.2,42.3,57.6,43.5,58.6,44.1z M65,29.8
		C65,29.8,65,29.8,65,29.8l4.8-9c0.6-1,1.8-1.4,2.8-0.8l11.8,6.4c1,0.5,1.4,1.8,0.8,2.8l-4.8,9c-0.6,1-1.8,1.4-2.8,0.8l-11.8-6.4
		C64.8,32.1,64.4,30.8,65,29.8z"/>
	<polygon points="71.4,32.9 74.4,34.6 75.9,31.9 78.5,33.3 80.1,30.3 77.5,28.9 78.9,26.2 75.8,24.6 74.4,27.2 71.8,25.8 70.2,28.9 
		72.8,30.3 	"/>
</g>
</svg>
