<svg id="Layer_1" data-name="Layer 1" xmlns="http://www.w3.org/2000/svg" viewBox="0 0 100 100"><defs><style>.cls-1,.cls-2{stroke:#000;stroke-miterlimit:10;stroke-width:4px;}.cls-2{fill:#fff;}</style></defs><path class="cls-1" d="M12.69,71.88h0a16,16,0,0,0,16,16H49.26V55.84H28.73A16,16,0,0,0,12.69,71.88Z"/><path class="cls-2" d="M71.85,87.92h.34a15.53,15.53,0,0,0,15.7-15.35v-.69A16,16,0,0,1,71.85,87.92Z"/><path class="cls-2" d="M72.19,55.84h-.34a16,16,0,0,1,16,16v-.69A15.53,15.53,0,0,0,72.19,55.84Z"/><line class="cls-2" x1="49.26" y1="87.92" x2="71.85" y2="87.92"/><path class="cls-1" d="M12.69,71.88h0a16,16,0,0,0,16,16H49.26V55.84H28.73A16,16,0,0,0,12.69,71.88Z"/><path class="cls-2" d="M71.85,87.92h.34a15.53,15.53,0,0,0,15.7-15.35v-.69A16,16,0,0,1,71.85,87.92Z"/><path class="cls-2" d="M72.19,55.84h-.34a16,16,0,0,1,16,16v-.69A15.53,15.53,0,0,0,72.19,55.84Z"/><line class="cls-2" x1="49.26" y1="87.92" x2="71.85" y2="87.92"/><path class="cls-1" d="M12.69,71.88h0a16,16,0,0,1,16-16H49.26V87.92H28.73A16,16,0,0,1,12.69,71.88Z"/><path class="cls-2" d="M71.85,55.84h.34a15.53,15.53,0,0,1,15.7,15.35v.69A16,16,0,0,0,71.85,55.84Z"/><path class="cls-2" d="M72.19,87.92h-.34a16,16,0,0,0,16-16v.69A15.53,15.53,0,0,1,72.19,87.92Z"/><line class="cls-2" x1="49.26" y1="55.84" x2="71.85" y2="55.84"/><path d="M38.66,42.64v-.11a3.71,3.71,0,0,1,1.27-2.77l9.3-10.27H41.31A2.29,2.29,0,0,1,39,27.21a2.33,2.33,0,0,1,2.31-2.32H53.75c1.61,0,2.77.93,2.77,2.28v.11a3.75,3.75,0,0,1-1.27,2.77L45.91,40.32H54.2a2.33,2.33,0,0,1,2.32,2.32,2.3,2.3,0,0,1-2.32,2.28H41.42C39.82,44.92,38.66,44,38.66,42.64Z"/><path d="M57.88,31.54v-.09a2.89,2.89,0,0,1,1-2.12L66,21.43H59.92a1.76,1.76,0,0,1-1.78-1.75,1.79,1.79,0,0,1,1.78-1.78h9.56a1.89,1.89,0,0,1,2.12,1.75v.09a2.89,2.89,0,0,1-1,2.13l-7.17,7.89h6.37a1.78,1.78,0,0,1,1.78,1.78,1.76,1.76,0,0,1-1.78,1.75H60A1.89,1.89,0,0,1,57.88,31.54Z"/><path d="M73.33,23.36v-.09a2.84,2.84,0,0,1,1-2.12l7.15-7.9H75.36a1.76,1.76,0,0,1-1.78-1.75,1.79,1.79,0,0,1,1.78-1.78h9.56a1.89,1.89,0,0,1,2.13,1.75v.09a2.87,2.87,0,0,1-1,2.12l-7.18,7.9h6.38a1.79,1.79,0,0,1,1.78,1.78,1.77,1.77,0,0,1-1.78,1.75H75.45A1.89,1.89,0,0,1,73.33,23.36Z"/></svg>