<svg id="Layer_1" data-name="Layer 1" xmlns="http://www.w3.org/2000/svg" viewBox="0 0 100 100"><defs><style>.cls-1,.cls-2{fill:none;}.cls-1,.cls-2,.cls-3,.cls-4{stroke:#000;stroke-miterlimit:10;stroke-width:4px;}.cls-2{stroke-linecap:round;}.cls-4{fill:#fff;}</style></defs><path class="cls-1" d="M45.35,72.25H18.67a6,6,0,0,1-6-6V16.82a6,6,0,0,1,6-6H54.26V27.06"/><path class="cls-1" d="M45.79,27.06H81.38a6,6,0,0,1,6,6V82.49a6,6,0,0,1-6,6H45.79a0,0,0,0,1,0,0V27.06A0,0,0,0,1,45.79,27.06Z"/><line class="cls-1" x1="53.53" y1="11.19" x2="45.57" y2="26.03"/><circle class="cls-1" cx="66.6" cy="47.78" r="14.98"/><line class="cls-2" x1="59.23" y1="47.33" x2="74.29" y2="47.33"/><line class="cls-2" x1="66.76" y1="54.86" x2="66.76" y2="39.81"/><line class="cls-2" x1="53.74" y1="69.26" x2="79.38" y2="69.26"/><line class="cls-2" x1="53.74" y1="75.26" x2="79.38" y2="75.26"/><line class="cls-2" x1="53.74" y1="81.26" x2="79.38" y2="81.26"/><line class="cls-2" x1="19.71" y1="53.17" x2="45.35" y2="53.17"/><line class="cls-2" x1="19.71" y1="59.17" x2="45.35" y2="59.17"/><line class="cls-2" x1="19.71" y1="65.17" x2="45.35" y2="65.17"/><path class="cls-3" d="M25.79,41.05a6.42,6.42,0,0,0,12.84,0V34.24H25.79Z"/><path class="cls-4" d="M32.21,17.39h-.28a6.21,6.21,0,0,0-6.14,6.28v.14A6.42,6.42,0,0,1,32.21,17.39Z"/><path class="cls-4" d="M32.48,17.39h-.27a6.42,6.42,0,0,1,6.42,6.42v-.14A6.21,6.21,0,0,0,32.48,17.39Z"/><line class="cls-4" x1="38.63" y1="32.25" x2="38.63" y2="23.67"/><line class="cls-4" x1="25.79" y1="32.25" x2="25.79" y2="23.67"/></svg>