<?xml version="1.0" encoding="utf-8"?>
<!-- Generator: Adobe Illustrator 24.0.0, SVG Export Plug-In . SVG Version: 6.00 Build 0)  -->
<svg version="1.1" id="Layer_1" xmlns="http://www.w3.org/2000/svg" xmlns:xlink="http://www.w3.org/1999/xlink" x="0px" y="0px"
	 viewBox="0 0 100 100" style="enable-background:new 0 0 100 100;" xml:space="preserve">
<g>
	<path d="M49.7,83.6c0.3,4.1,3.8,7.4,8,7.4c0,0,0,0,0,0h13.2c4.1,0,7.6-3.2,8-7.4l2.7-34.3H47L49.7,83.6z M77.2,53.4l-2.4,30
		c-0.2,2.1-1.9,3.7-4,3.7H57.7c0,0,0,0,0,0c-2.1,0-3.8-1.6-4-3.7l-2.4-30H77.2z"/>
	<path d="M64.3,84.8c1.1,0,2-0.9,2-2V59.5c0-1.1-0.9-2-2-2s-2,0.9-2,2v23.3C62.3,83.9,63.2,84.8,64.3,84.8z"/>
	<path d="M57.5,84.7c0.1,0,0.1,0,0.2,0c1.1-0.1,1.9-1.1,1.8-2.2l-2-23.2c-0.1-1.1-1-1.9-2.2-1.8c-1.1,0.1-1.9,1.1-1.8,2.2l2,23.2
		C55.6,83.9,56.5,84.7,57.5,84.7z"/>
	<path d="M70.9,84.7c0.1,0,0.1,0,0.2,0c1,0,1.9-0.8,2-1.8l2-23.2c0.1-1.1-0.7-2.1-1.8-2.2c-1.1-0.1-2.1,0.7-2.2,1.8l-2,23.2
		C69,83.6,69.8,84.6,70.9,84.7z"/>
	<path d="M86.5,25.5l-5-3.2c0.6-2-0.1-4.2-2-5.3c-1.1-0.7-2.3-0.9-3.5-0.6c-0.8,0.2-1.6,0.6-2.2,1.1l-5.1-3.3
		c-3-1.9-6.8-1.7-9.5,0.6l-3.1,2.6l32.4,20.7l1.3-3.5l0.1-0.2C90.9,31,89.5,27.4,86.5,25.5z M63.2,17.1c1.1-0.4,2.4-0.2,3.4,0.4
		l8.3,5.3l1.1-1.7l0.4-0.7c0.2-0.3,0.6-0.4,1-0.2c0.3,0.2,0.4,0.7,0.2,1l-1.5,2.3l8.2,5.3l0,0c1.1,0.7,1.7,1.8,1.9,3L63.2,17.1z"/>
	<path d="M62.8,41.2l-2.7-1.5c-1-0.5-2.2-0.2-2.7,0.8c-0.5,1-0.2,2.2,0.8,2.7l5.4,2.9c0.3,0.4,0.8,0.7,1.3,0.7l1.8,1l4.2-8.4
		c0.5-1,0.1-2.2-0.9-2.7c-1-0.5-2.2-0.1-2.7,0.9l-0.9,1.7c-0.8-3.6-2.8-8.2-7.2-11.9c-8-6.6-17.3-4.7-19-4.3
		c-1.1,0.3-1.7,1.4-1.5,2.4c0.3,1.1,1.4,1.7,2.4,1.5c0.9-0.2,8.9-2,15.5,3.5C60.7,33.9,62.2,38.2,62.8,41.2z"/>
	<path d="M33.4,17.7v-4.6c0-1.2-1-2.1-2.1-2.1c0,0,0,0,0,0H15.8c-1.2,0-2.1,1-2.1,2.1v4.6l-1.4,3.7c-0.3,0.7-0.4,1.4-0.4,2.2v18.2
		c0,1.2,0.9,2.1,2.1,2.1h19.4c1.2,0,2.1-0.9,2.1-2.1V23.7c0-0.8-0.2-1.6-0.5-2.4L33.4,17.7z M32.4,36.8c0,1.2-0.9,2.1-2.1,2.1H16.9
		c-1.2,0-2.1-0.9-2.1-2.1V26.6c0-1.2,0.9-2.1,2.1-2.1h13.4c1.2,0,2.1,0.9,2.1,2.1V36.8z"/>
	<polygon points="25.3,26.9 21.8,26.9 21.8,29.9 18.9,29.9 18.9,33.4 21.8,33.4 21.8,36.4 25.3,36.4 25.3,33.4 28.3,33.4 28.3,29.9 
		25.3,29.9 	"/>
</g>
</svg>
