<?xml version="1.0" encoding="utf-8"?>
<!-- Generator: Adobe Illustrator 24.0.0, SVG Export Plug-In . SVG Version: 6.00 Build 0)  -->
<svg version="1.1" id="Layer_1" xmlns="http://www.w3.org/2000/svg" xmlns:xlink="http://www.w3.org/1999/xlink" x="0px" y="0px"
	 viewBox="0 0 100 100" style="enable-background:new 0 0 100 100;" xml:space="preserve">
<g>
	<path d="M22.9,12.5c-4.8,0-8.2,2.1-8.2,5.1v29.3c0,0.8,0,2.4,5.9,7.1c1.3,1,3.1,1,4.5,0c5.9-4.7,5.9-6.3,5.9-7.1
		c0-1.6,0.2-25.1,0.2-28.6c0.1-0.3,0.1-0.5,0.1-0.6C31.1,14.7,27.6,12.5,22.9,12.5z M20.8,19.7L20.8,19.7c-0.7-0.6-1.4-1.3-1.9-2.1
		c0.3-0.2,0.6-0.4,0.9-0.5c1-0.4,2-0.6,3.1-0.6c1.4-0.1,2.9,0.3,4.1,1.1c-0.5,0.6-1,1.1-1.6,1.7c-0.2,0.2-0.3,0.3-0.5,0.5h0
		c-0.6,0.6-1.3,1.2-2,1.7C22.1,20.9,21.4,20.3,20.8,19.7z M18.7,46.7V23.1c0.6,0.5,1.2,1,2,1.6c0.1,0.1,0.2,0.1,0.2,0.1v0v24.2
		C20.1,48.4,19.4,47.6,18.7,46.7z M24.9,48.9v-24v-3.1h0v3.1c0.1,0,0.1-0.1,0.2-0.1c0.7-0.6,1.3-1.1,1.9-1.6
		C27,31,26.9,44.5,26.9,46.7C26.3,47.5,25.6,48.2,24.9,48.9z"/>
	<path d="M50,82.2c0.3,4.1,3.8,7.4,8,7.4c0,0,0,0,0,0h13.2c4.2,0,7.7-3.2,8-7.4l2.7-34.2H47.3L50,82.2z M77.6,51.9l-2.4,29.9
		c-0.2,2.1-1.9,3.7-4,3.7H58c0,0,0,0,0,0c-2.1,0-3.8-1.6-4-3.7l-2.4-29.9H77.6z"/>
	<path d="M64.6,83.3c1.1,0,2-0.9,2-2V58c0-1.1-0.9-2-2-2s-2,0.9-2,2v23.3C62.6,82.4,63.5,83.3,64.6,83.3z"/>
	<path d="M57.9,83.2c0.1,0,0.1,0,0.2,0c1.1-0.1,1.9-1.1,1.8-2.2l-2-23.2c-0.1-1.1-1.1-1.9-2.2-1.8c-1.1,0.1-1.9,1.1-1.8,2.2l2,23.2
		C56,82.5,56.9,83.2,57.9,83.2z"/>
	<path d="M71.3,83.2c0.1,0,0.1,0,0.2,0c1,0,1.9-0.8,2-1.8l2-23.2c0.1-1.1-0.7-2.1-1.8-2.2c-1.1-0.1-2.1,0.7-2.2,1.8l-2,23.2
		C69.3,82.2,70.2,83.1,71.3,83.2z"/>
	<path d="M86.8,24l-5-3.2c0.6-2-0.2-4.2-2-5.3c-1.1-0.7-2.3-0.9-3.5-0.6c-0.8,0.2-1.5,0.6-2.2,1.1l-5.1-3.3c-3-1.9-6.8-1.7-9.5,0.6
		l-3.1,2.6l32.7,20.9l1.1-3.8C91.2,29.5,89.8,25.9,86.8,24z M63.5,15.6c1.1-0.4,2.4-0.2,3.4,0.4l8.3,5.3l1.5-2.3
		c0.1-0.2,0.3-0.3,0.4-0.3c0.1,0,0.3,0,0.5,0.1c0.3,0.2,0.4,0.7,0.2,1l-1.5,2.3l8.2,5.3l0,0c1,0.7,1.7,1.7,1.8,2.9L63.5,15.6z"/>
	<path d="M63.1,39.7l-2.7-1.5c-1-0.5-2.2-0.2-2.7,0.8c-0.5,1-0.2,2.2,0.8,2.7l5.4,2.9c0.3,0.4,0.8,0.7,1.4,0.7l1.8,1l4.2-8.4
		c0.5-1,0.1-2.2-0.9-2.7c-1-0.5-2.2-0.1-2.7,0.9l-0.9,1.7c-0.8-3.6-2.8-8.2-7.2-11.9c-8-6.6-17.3-4.7-19-4.3
		c-1.1,0.3-1.7,1.4-1.5,2.4c0.3,1.1,1.4,1.7,2.4,1.5c0.9-0.2,8.9-2,15.5,3.5C61.1,32.5,62.6,36.7,63.1,39.7z"/>
</g>
</svg>
