<?xml version="1.0" encoding="utf-8"?>
<!-- Generator: Adobe Illustrator 24.0.0, SVG Export Plug-In . SVG Version: 6.00 Build 0)  -->
<svg version="1.1" id="Layer_1" xmlns="http://www.w3.org/2000/svg" xmlns:xlink="http://www.w3.org/1999/xlink" x="0px" y="0px"
	 viewBox="0 0 100 100" style="enable-background:new 0 0 100 100;" xml:space="preserve">
<g>
	<path d="M62.1,61.5c-0.1-0.1-0.3-0.1-0.4-0.1l-12-0.1l1.1-1.1c0.3-0.3,0.3-0.8,0-1.1c-0.3-0.3-0.8-0.3-1.1,0c0,0,0,0,0,0l-2.4,2.4
		L46.6,62l0.5,0.6l2.3,2.4c0.3,0.3,0.8,0.3,1.1,0c0.3-0.3,0.3-0.8,0-1.1v0l-1-1.1l12,0.1h0.2c0.2,0,0.4-0.2,0.5-0.3
		c0.1-0.1,0.1-0.3,0.1-0.4c0-0.1,0-0.1,0-0.2C62.4,61.8,62.3,61.6,62.1,61.5z"/>
	<path d="M42.8,52v-5.2c0-1.3-1.1-2.4-2.4-2.4H23.1c-1.3,0-2.4,1.1-2.4,2.4V52l-1.6,4.1c-0.3,0.8-0.5,1.6-0.5,2.4v20.3
		c0,1.3,1,2.3,2.3,2.3h21.6c1.3,0,2.3-1,2.3-2.3V58.6c0-0.9-0.2-1.8-0.5-2.6L42.8,52z M41.7,73.2c0,1.3-1,2.3-2.3,2.3h-15
		c-1.3,0-2.3-1-2.3-2.3c0,0,0,0,0,0V61.9c0-1.3,1-2.3,2.3-2.3c0,0,0,0,0,0h15c1.3,0,2.3,1,2.3,2.3V73.2z"/>
	<polygon points="33.8,62.2 29.9,62.2 29.9,65.5 26.6,65.5 26.6,69.4 29.9,69.4 29.9,72.7 33.8,72.7 33.8,69.4 37.1,69.4 37.1,65.5 
		33.8,65.5 	"/>
	<path d="M89.5,56l-1.7-4v-5.2c0-1.3-1.1-2.4-2.4-2.4H68.1c-1.3,0-2.4,1.1-2.4,2.4V52l-1.6,4.1c-0.3,0.8-0.5,1.6-0.5,2.4v20.3
		c0,1.3,1,2.3,2.3,2.3h21.6c1.3,0,2.3-1,2.3-2.3V58.6C90,57.7,89.8,56.8,89.5,56z M86.7,73.2c0,1.3-1,2.3-2.3,2.3h-15
		c-1.3,0-2.3-1-2.3-2.3c0,0,0,0,0,0V61.9c0-1.3,1-2.3,2.3-2.3c0,0,0,0,0,0h15c1.3,0,2.3,1,2.3,2.3V73.2z"/>
	<polygon points="78.8,62.2 74.9,62.2 74.9,65.5 71.6,65.5 71.6,69.4 74.9,69.4 74.9,72.7 78.8,72.7 78.8,69.4 82.1,69.4 82.1,65.5 
		78.8,65.5 	"/>
	<path d="M12.9,28.9c-1.3,0-2.4,1-2.4,2.4l-0.1,17.2c0,1.3,1.1,2.4,2.4,2.4c0,0,0,0,0,0h5.1l0.3,0.1l0.1-22.2L18,28.9H12.9z"/>
</g>
</svg>
