<?xml version="1.0" encoding="utf-8"?>
<!-- Generator: Adobe Illustrator 24.0.0, SVG Export Plug-In . SVG Version: 6.00 Build 0)  -->
<svg version="1.1" id="Layer_1" xmlns="http://www.w3.org/2000/svg" xmlns:xlink="http://www.w3.org/1999/xlink" x="0px" y="0px"
	 viewBox="0 0 100 100" style="enable-background:new 0 0 100 100;" xml:space="preserve">
<g>
	<path d="M26.5,26.6H26h-0.5c-6.5,0.1-11.8,5.5-11.8,12v0v0.2v12.5v2v13.1c0,6.8,5.5,12.3,12.3,12.3c0,0,0,0,0,0
		c6.8,0,12.3-5.5,12.3-12.3V53.3v-2V38.9c0,0,0,0,0,0v-0.2c0-3.2-1.2-6.2-3.4-8.5C32.6,27.9,29.7,26.6,26.5,26.6z M34.3,51.3H17.7
		V38.8c0-4.5,3.7-8.2,8.3-8.2c4.6,0,8.3,3.7,8.3,8.3V51.3z"/>
	<path d="M54.5,47.5H43.3c-1.1,0-2,0.9-2,2s0.9,2,2,2h11.1c1.1,0,2-0.9,2-2S55.6,47.5,54.5,47.5z"/>
	<path d="M54.5,54.5H43.3c-1.1,0-2,0.9-2,2s0.9,2,2,2h11.1c1.1,0,2-0.9,2-2S55.6,54.5,54.5,54.5z"/>
	<path d="M81.7,29.1c-2.4-2.4-5.6-3.8-9.1-3.8h0c-7.1,0-12.8,5.8-12.8,12.8V52v2v13.2v0v0.2v0h0c0,6.8,5.5,12.5,12.4,12.5h0.4
		c0,0,0,0,0,0c0,0,0,0,0,0c0,0,0,0,0,0c0,0,0,0,0,0c0,0,0,0,0,0h0.5c6.9-0.1,12.4-5.7,12.3-12.5v-0.2V54v-2V38.1
		C85.5,34.7,84.1,31.5,81.7,29.1z M72.7,79.3l0-1.3h0L72.7,79.3z M81.5,67.2c0,4.8-4,8.8-8.8,8.8l0,2c0,0,0,0,0,0l0-2h0c0,0,0,0,0,0
		h0c-4.8,0-8.8-3.9-8.8-8.8V54h17.6V67.2z"/>
</g>
</svg>
