<svg id="Layer_1" data-name="Layer 1" xmlns="http://www.w3.org/2000/svg" viewBox="0 0 100 100"><path d="M28.13,26.7a3.1,3.1,0,0,1,3.12,3.12v.83a25.18,25.18,0,0,1,8.68,2.88,4,4,0,0,1,2.15,3.59,4,4,0,0,1-4.07,4,4.31,4.31,0,0,1-2.09-.54,22.54,22.54,0,0,0-5-2v9.09c9.1,2.46,13,6.17,13,12.87s-5.15,11-12.69,11.86v3.17a3.12,3.12,0,0,1-6.23,0V72.32a30,30,0,0,1-11.79-4.19,4.06,4.06,0,0,1-2-3.6,4,4,0,0,1,4.13-4.07,4.36,4.36,0,0,1,2.34.78,22.82,22.82,0,0,0,7.66,3.36V55.08c-8.62-2.34-12.87-5.63-12.87-12.75,0-6.59,5-11,12.57-11.79v-.72A3.1,3.1,0,0,1,28.13,26.7ZM25.32,46.1V38c-2.87.42-4.13,1.85-4.13,3.77S22,44.9,25.32,46.1ZM31,56.57v8.32c2.81-.42,4.25-1.73,4.25-3.89C35.2,59,34.18,57.71,31,56.57Z"/><path d="M42.5,77.52l26-51.95a2,2,0,0,1,1.79-1.2,1.87,1.87,0,0,1,1.86,1.86,2.55,2.55,0,0,1-.24,1l-26.1,52a2,2,0,0,1-1.74,1.2,1.88,1.88,0,0,1-1.91-1.86A1.86,1.86,0,0,1,42.5,77.52Z"/><path d="M81.28,42a1.32,1.32,0,0,1,1.28,1.28v1.31a14,14,0,0,1,6.74,2.56,1.6,1.6,0,0,1,.8,1.31,1.45,1.45,0,0,1-1.51,1.44,1.34,1.34,0,0,1-.88-.28,12,12,0,0,0-5.27-2.31v9.85c6.07,1.36,8.62,3.71,8.62,7.74,0,4.27-3.51,7.23-8.5,7.55v2.83a1.28,1.28,0,1,1-2.55,0V72.36a15.88,15.88,0,0,1-8.66-3.55,1.49,1.49,0,0,1-.68-1.28,1.47,1.47,0,0,1,2.39-1.12,12.85,12.85,0,0,0,7.07,3.27v-10c-5.91-1.4-8.5-3.59-8.5-7.78S75.1,44.74,80,44.5V43.27A1.31,1.31,0,0,1,81.28,42Zm-1.15,14.6V47.18c-3.4.16-5.43,2.07-5.43,4.51S75.78,55.44,80.13,56.59Zm2.31,3.6V69.8c3.43-.2,5.55-2.07,5.55-4.71C88,62.74,86.79,61.3,82.44,60.19Z"/></svg>