<svg id="Layer_1" data-name="Layer 1" xmlns="http://www.w3.org/2000/svg" viewBox="0 0 100 100"><defs><style>.cls-1{fill:none;stroke:#000;stroke-miterlimit:10;stroke-width:4px;}</style></defs><rect x="10.12" y="79.65" width="80" height="11.5" rx="5.75"/><line class="cls-1" x1="50.01" y1="52.42" x2="50.01" y2="80.11"/><path d="M75.29,11.15H24.6a6,6,0,0,0-6,6v65H81.29v-65A6,6,0,0,0,75.29,11.15ZM63.72,79.64H36.29V54.36H63.72ZM49.92,49.4a17,17,0,1,1,17-17A17,17,0,0,1,49.92,49.4Z"/><path d="M49.92,19.44a13,13,0,1,0,13,13A13,13,0,0,0,49.92,19.44Zm7.69,15h-5v5h-5v-5h-5v-5h5v-5h5v5h5Z"/></svg>