<svg id="Layer_1" data-name="Layer 1" xmlns="http://www.w3.org/2000/svg" viewBox="0 0 100 100"><defs><style>.cls-1{fill:none;}.cls-1,.cls-2{stroke:#000;stroke-miterlimit:10;stroke-width:4px;}</style></defs><path d="M83.82,29.88A51.56,51.56,0,0,1,66.2,22.67a2.78,2.78,0,0,0-3,0,51.64,51.64,0,0,1-17.62,7.21c-1.34.28-5.28,4.42-5.28,5.75v9.63c0,11.23,5.66,23.52,15.14,29.54,3.84,2.44,14.7,2.44,18.47,0,9.55-6.07,15.21-18.36,15.21-29.59V35.63C89.09,34.3,85.16,30.16,83.82,29.88ZM81.9,42.3l-16,19.9a3.41,3.41,0,0,1-2.34,1.25l-.3,0A3.42,3.42,0,0,1,61,62.64L50.55,53.56a2,2,0,0,1,2.62-3l10,8.67L78.78,39.79A2,2,0,0,1,81.9,42.3Z"/><path d="M84.64,29a48.56,48.56,0,0,1-16.25-6.64,6.74,6.74,0,0,0-7.41,0A48.56,48.56,0,0,1,44.73,29a6.87,6.87,0,0,0-5.46,6.66v9.63a36.5,36.5,0,0,0,17.07,31,15.53,15.53,0,0,0,8.32,2.41,15.74,15.74,0,0,0,8.44-2.46,36.46,36.46,0,0,0,17-30.92V35.63A6.86,6.86,0,0,0,84.64,29Zm3.45,16.29A34.63,34.63,0,0,1,72,74.49l-.08.05a13.55,13.55,0,0,1-14.54,0l-.08-.05A34.63,34.63,0,0,1,41.27,45.26V35.63a4.82,4.82,0,0,1,3.87-4.7A50.17,50.17,0,0,0,62.07,24a4.76,4.76,0,0,1,5.22,0,50.15,50.15,0,0,0,16.94,6.93,4.81,4.81,0,0,1,3.86,4.7Z"/><rect class="cls-1" x="12.15" y="23.32" width="23.1" height="54.14" rx="11.55" transform="translate(-0.62 0.3) rotate(-0.71)"/><path class="cls-2" d="M21.34,77.08a11.23,11.23,0,0,1-9-11l-.18-14.34,15.71-.22.17,14.34C28.12,71.37,26.37,76,21.34,77.08Z"/></svg>