<svg id="Layer_1" data-name="Layer 1" xmlns="http://www.w3.org/2000/svg" viewBox="0 0 100 100"><path d="M75.56,25.17a2.81,2.81,0,0,1,2,.83,2.77,2.77,0,0,1,.16,3.94L70,37.57l1.63,1.48,9.29-9.4A2.62,2.62,0,0,1,85,30a2.67,2.67,0,0,1-.4,3.35L75,43.15l.57.93L66.14,33.45,73.57,26a2.81,2.81,0,0,1,2-.83M87.15,35.48a2.85,2.85,0,0,1,2,.84l.06.06a2.76,2.76,0,0,1,0,3.91l-8.88,8.84L82,50.69l3.78-3.78a3,3,0,0,1,2.07-.86,2.54,2.54,0,0,1,1.45.43,2.76,2.76,0,0,1,.45,4.25l-4.45,4.45L76.4,45.07l8.72-8.75a2.85,2.85,0,0,1,2-.84m-11.62,8.6.87,1-.17.17-.7-1.16m0-22.91a6.77,6.77,0,0,0-4.82,2L63.3,30.62a4,4,0,0,0-.16,5.47l9.15,10.37.51.85a4,4,0,0,0,1.52,1.45l8,9.06a4,4,0,0,0,2.88,1.36h.12A4,4,0,0,0,88.15,58l4.44-4.45a6.74,6.74,0,0,0-.77-10.21l.22-.23a6.75,6.75,0,0,0,0-9.56L92,33.49a6.76,6.76,0,0,0-2.61-1.64,6.47,6.47,0,0,0-1.08-4,6.64,6.64,0,0,0-5.51-2.94,6.83,6.83,0,0,0-1.11.09,7.14,7.14,0,0,0-1.32-1.79,6.73,6.73,0,0,0-4.81-2Z"/><path d="M79,59.45s7.62,3.41,7.62,7.62A7.62,7.62,0,0,1,79,74.68c-.23,0-.46,0-.69,0A7.61,7.61,0,0,1,64.9,81.75a9.73,9.73,0,0,1-7.47,3.48,7.13,7.13,0,0,1-3.6-.91L79,59.45m0-4a4,4,0,0,0-2.81,1.16L51,81.47a4,4,0,0,0,.63,6.2,11,11,0,0,0,5.78,1.56,13.8,13.8,0,0,0,7.17-2,11.48,11.48,0,0,0,6.81,2.21A11.63,11.63,0,0,0,83,78a11.64,11.64,0,0,0,7.62-10.9c0-6.47-8.32-10.52-10-11.27A4.1,4.1,0,0,0,79,55.45Z"/><path d="M44.62,6.35a5.5,5.5,0,1,1-5.5,5.5,5.49,5.49,0,0,1,5.5-5.5m0-4a9.5,9.5,0,1,0,9.49,9.5,9.51,9.51,0,0,0-9.49-9.5Z"/><path d="M67.19,11.7a3,3,0,1,1-3,3,3,3,0,0,1,3-3m0-3.47a6.43,6.43,0,1,0,6.44,6.43,6.44,6.44,0,0,0-6.44-6.43Z"/><path d="M83.17,47.78,63.32,27.92a12.13,12.13,0,0,0-17.11,0l-8.57,8.57a12.08,12.08,0,0,0-3.45,7.13h0a6.64,6.64,0,0,1,3.67,1.1c.08.06.15.13.23.18a8,8,0,0,1,2.36-5.58L49,30.75a8.1,8.1,0,0,1,11.45,0L80.34,50.6a8.1,8.1,0,0,1,0,11.45l-8.57,8.57a8.09,8.09,0,0,1-6.56,2.32l-3.3,3.3A12.07,12.07,0,0,0,74.6,73.45l8.57-8.57a12.1,12.1,0,0,0,0-17.1Z"/><path d="M74.45,60.2a6.72,6.72,0,0,0-2.72-4.77L72,55.2a6.76,6.76,0,0,0,0-9.56l0,0a6.87,6.87,0,0,0-2.62-1.66,6.54,6.54,0,0,0-1.09-4A6.64,6.64,0,0,0,62.72,37,7,7,0,0,0,61.6,37a7.1,7.1,0,0,0-1.31-1.79,6.81,6.81,0,0,0-9.64,0L39.58,46.34a6.93,6.93,0,0,0-1.47-1.44c-.08,0-.15-.12-.23-.18a6.64,6.64,0,0,0-3.67-1.1h0a6.92,6.92,0,0,0-4.88,2L18.56,56.4a34.91,34.91,0,0,0-3,3.43,22.31,22.31,0,0,0,.46,28c.85,1,1.73,2,2.62,2.87a20.39,20.39,0,0,0,28.85,0L61.91,76.24l3.3-3.3,7.3-7.3A6.74,6.74,0,0,0,74.45,60.2ZM69.9,62.54a2.88,2.88,0,0,1-.22.27l-8.52,8.53-2.85,2.84-1.14,1.14L44.66,87.84A16.41,16.41,0,0,1,43.41,89c-.43.35-.87.68-1.32,1a16.94,16.94,0,0,1-9,2.7,14.72,14.72,0,0,1-1.76-.11A16.07,16.07,0,0,1,24,89.94a16.4,16.4,0,0,1-2.57-2.1h0l-.4-.42c-.65-.68-1.32-1.4-2-2.19a18.29,18.29,0,0,1-.36-23,29.33,29.33,0,0,1,2.65-3L25,55.65l7.17-7.17h0a2.72,2.72,0,0,1,.42-.34l.15-.09.32-.17.18-.07a2.07,2.07,0,0,1,.33-.1l.19-.05a2,2,0,0,1,.35,0h.32l.3,0,.15,0,.29.09.13.05a2.48,2.48,0,0,1,.39.21h0a2.93,2.93,0,0,1,.5.42,2.74,2.74,0,0,1-.06,3.83L30.45,58a1,1,0,0,0-.24.35,1.12,1.12,0,0,0,.18,1.16,1.17,1.17,0,0,0,.38.29l.15,0a1.07,1.07,0,0,0,.3.06h0a.76.76,0,0,0,.26-.06l.15,0a1.19,1.19,0,0,0,.38-.25l14.3-14.34,7.15-7.16a1.56,1.56,0,0,1,.2-.16,2.86,2.86,0,0,1,.56-.37,2.82,2.82,0,0,1,1.23-.3,2.48,2.48,0,0,1,.54.06,2.54,2.54,0,0,1,.78.29,2.34,2.34,0,0,1,.27.15,3.19,3.19,0,0,1,.4.33,3,3,0,0,1,.83,1.48,2.64,2.64,0,0,1-.33,2,2.72,2.72,0,0,1-.34.42L41.2,58.32a1.15,1.15,0,0,0-.33,1,1.12,1.12,0,0,0,.56.87,1,1,0,0,0,.33.13h.1l.13,0,.08,0a1.59,1.59,0,0,0,.3-.06l.13,0a1.19,1.19,0,0,0,.38-.25l.54-.55,2.81-2.84,14.63-14.8a2.17,2.17,0,0,1,.44-.36l.16-.09a3.31,3.31,0,0,1,.33-.15l.2-.07.32-.07.22,0,.19,0h.1l.35,0,.24,0a2,2,0,0,1,.34.13l.22.09a2.62,2.62,0,0,1,.34.24l.17.12a2.93,2.93,0,0,1,.42.5,1.75,1.75,0,0,1,.22.4,2.72,2.72,0,0,1-.61,2.94L49.93,60.23l-2.81,2.84L47,63.2a1.16,1.16,0,0,0-.33.82,1.12,1.12,0,0,0,.34.81h0a1.08,1.08,0,0,0,.38.26l.14,0a1.07,1.07,0,0,0,.3.06h0a1.2,1.2,0,0,0,.32-.06l.11,0a1.4,1.4,0,0,0,.39-.26l.11-.12,2.83-2.83L65,48.46,65,48.4h0a2.84,2.84,0,0,1,1.47-.79h.17a2.33,2.33,0,0,1,.38,0h0l.31,0,.24,0,.3.09.23.07a3.72,3.72,0,0,1,.39.21l.11.05a3.16,3.16,0,0,1,.45.37l.06.06a2.8,2.8,0,0,1,.8,2,2.76,2.76,0,0,1-.81,1.95L51.9,69.52a1.15,1.15,0,0,0,0,1.64h0a1.16,1.16,0,0,0,1.64,0l.84-.84,2.83-2.83.39-.39L65.71,59a2.79,2.79,0,0,1,.43-.34l.14-.09a3.41,3.41,0,0,1,.33-.17l.18-.07a2,2,0,0,1,.32-.1l.19,0a1.47,1.47,0,0,1,.36,0H68l.3,0,.14,0a1.4,1.4,0,0,1,.29.09l.13.05a3,3,0,0,1,.4.21,3.37,3.37,0,0,1,.5.42l.09.12a2.53,2.53,0,0,1,.52.93,1.94,1.94,0,0,1,.12.58A2.72,2.72,0,0,1,69.9,62.54Z"/><path d="M26.41,26.25A3.71,3.71,0,1,1,22.7,30a3.71,3.71,0,0,1,3.71-3.71m0-3.15A6.86,6.86,0,1,0,33.27,30a6.87,6.87,0,0,0-6.86-6.86Z"/></svg>