<?xml version="1.0" encoding="utf-8"?>
<!-- Generator: Adobe Illustrator 24.0.0, SVG Export Plug-In . SVG Version: 6.00 Build 0)  -->
<svg version="1.1" id="Layer_1" xmlns="http://www.w3.org/2000/svg" xmlns:xlink="http://www.w3.org/1999/xlink" x="0px" y="0px"
	 viewBox="0 0 100 100" style="enable-background:new 0 0 100 100;" xml:space="preserve">
<g>
	<path d="M87.7,12.7c-1.4-1.4-3.4-2.2-5.4-2.2c0,0,0,0,0,0H49.5c-0.2,0-0.5,0-0.7,0c-2,0.2-3.9,1.2-5.2,2.7
		c-1.3,1.6-1.9,3.6-1.8,5.6L47.6,83c0.4,4,3.6,7,7.6,7h21.2c0,0,0,0,0,0c4,0,7.3-3,7.6-7l5.8-64.3c0-0.2,0-0.5,0-0.7
		C90,16,89.2,14.1,87.7,12.7z M46.7,15.7c0.6-0.8,1.5-1.2,2.5-1.3c0.1,0,0.2,0,0.3,0h32.8c0,0,0,0,0,0c1,0,1.9,0.4,2.6,1.1
		c0.7,0.7,1.1,1.6,1.1,2.6c0,0.1,0,0.2,0,0.3l-1.6,17.9l-36.9,0l-1.6-17.9C45.8,17.5,46.1,16.5,46.7,15.7z"/>
	<path d="M34.3,26.5c1.4-0.8,2.3-2.3,2.3-3.9v0c0-2.8-2.5-4.9-6.3-4.9s-6.2,2.2-6.2,4.9v0c-0.1,1.6,0.8,3.1,2.3,3.9
		c-1.8,0.6-3,2.4-2.9,4.3v0c0,3.1,2.9,5.1,6.9,5.1s6.9-1.9,6.9-5.2v0C37.2,28.6,36.1,27.5,34.3,26.5z M27.8,23
		c0-1.1,0.9-2.1,2.5-2.1c0,0,0.1,0,0.1,0c1.3-0.1,2.3,0.8,2.4,2.1v0c0,0.1,0,0.1,0,0.2c-0.2,1.2-1.3,2.1-2.5,1.9c-0.1,0-0.1,0-0.2,0
		C28.9,25.2,27.8,24.3,27.8,23L27.8,23z M33.4,30.6c0,1.2-1.2,2.2-3.1,2.2s-3.1-1-3.1-2.2v-0.1c0-1.4,1.3-2.2,3.1-2.2
		C32.1,28.3,33.4,29.1,33.4,30.6L33.4,30.6z"/>
	<path d="M18.1,27.4l2-2.3c0.2-0.2,0.3-0.5,0.3-0.8c0,0,0-0.1,0-0.1c0-0.6-0.5-1-1.1-0.9c-0.4,0-0.8,0.3-1,0.6l-1.5,2l-1.5-2
		c-0.2-0.4-0.6-0.6-1.1-0.6c0,0-0.1,0-0.1,0c-0.6,0-1,0.5-0.9,1.1c0,0.3,0.1,0.7,0.4,0.9l1.9,2.2l-2.1,2.5c-0.2,0.2-0.3,0.5-0.3,0.8
		c0,0,0,0.1,0,0.1c0,0.6,0.5,1,1.1,0.9c0.4,0,0.8-0.3,1-0.6l1.7-2.2l1.6,2.1c0.2,0.4,0.6,0.6,1.1,0.6c0,0,0.1,0,0.1,0
		c0.6,0,1-0.5,0.9-1.1c0-0.3-0.2-0.6-0.4-0.9L18.1,27.4z"/>
</g>
</svg>
