<?xml version="1.0" encoding="utf-8"?>
<!-- Generator: Adobe Illustrator 24.0.0, SVG Export Plug-In . SVG Version: 6.00 Build 0)  -->
<svg version="1.1" id="Layer_1" xmlns="http://www.w3.org/2000/svg" xmlns:xlink="http://www.w3.org/1999/xlink" x="0px" y="0px"
	 viewBox="0 0 100 100" style="enable-background:new 0 0 100 100;" xml:space="preserve">
<g>
	<path d="M36.9,57.9l-0.1-0.1c0,0,0,0,0,0l-0.1-0.1c0,0,0,0-0.1,0c-1.8-1.2-4-1.3-5.9-0.5c0.1-1.2-0.2-2.4-0.8-3.5
		c-0.2-0.3-0.4-0.6-0.6-0.9L25,46.1l0,0l-2.4-3.8l0-0.1c-1.9-3-5.9-3.9-9-2l-0.2,0.1l0,0l-0.2,0.1c-3,2-3.8,6-1.8,8.9l3.6,5.5l0,0
		l3.2,4.9c1.2,2.2,3.5,3.4,5.8,3.4c0.4,0,0.8-0.1,1.2-0.1l-1.2,1.9l0,0l0,0L20.8,70c-1,1.5-1.3,3.2-0.9,5c0.4,1.7,1.4,3.2,2.9,4.2
		c1.1,0.7,2.3,1.1,3.6,1.1c0.4,0,0.9,0,1.3-0.1c1.7-0.4,3.2-1.4,4.2-2.9l3.3-5l3.5-5.4C40.7,63.9,39.9,59.8,36.9,57.9z M31,61.8
		c0.4-0.6,1-1,1.6-1.1c0.6-0.1,1.3,0,1.8,0.3l0.2,0.1c1.2,0.8,1.5,2.4,0.7,3.6l-2.5,3.8l-4.4-2.8L31,61.8z M14.9,47.4
		c-0.4-0.6-0.5-1.3-0.4-2c0.1-0.7,0.5-1.2,1.1-1.6l0.1,0l0,0c0.6-0.4,1.3-0.5,1.9-0.4c0.7,0.1,1.3,0.5,1.6,1.1l0,0l0,0l2.5,3.8
		l-4.4,2.8L14.9,47.4z"/>
	<path d="M74.7,39.2c-1.5-0.7-3.1-1.3-4.7-1.7c-1.7-0.5-2.8-2-2.9-3.8l-0.3-4.8c1.8-2.5,2.3-5.6,1.5-8.5c-0.3-1.1-0.8-2.1-1.5-3
		c0.3,0.1,0.5,0.1,0.8,0.3c1,0.5,1.8,1.5,2,2.7c0.2,0.9,0.3,1.8,0.4,2.7c0.1,0.8,0.2,1.6,0.5,2.4c0.3,0.9,0.8,1.8,1.6,2.3
		c0.9,0.6,2.1,0.8,3.1,0.6c0.5-0.1,0.9-0.4,1.3-0.7c1.2-0.9,1.7-2.5,1.4-3.9c0-0.2-0.1-0.4-0.1-0.6c0,0.1,0,0.1,0,0.2
		c-0.1,0.9-0.8,1.6-1.7,1.7c0,0,0,0,0,0c-0.7,0.1-1.4-0.4-1.6-1.1c-0.1-0.5-0.2-1.1-0.2-1.6c0-1,0-1.9-0.1-2.9
		c-0.1-0.8-0.2-1.6-0.5-2.4c-0.8-2.3-2.7-4-5-4.8c-1.6-0.5-3.3-0.3-4.7,0.6c-0.5,0.3-0.8,0.6-1.2,1c-3.7-1.8-8.2-1.2-11.3,1.9
		c-2.6,2.6-3.7,6.4-2.7,9.9l-0.8,2.5c-0.1,0.3,0.1,0.7,0.4,0.8c0.1,0,0.2,0,0.3,0l1.7-0.2c1.7,2.3,4.2,3.8,7.1,4.1l-0.8,8.2
		c-0.2,1.8-1.2,3.5-2.7,4.5l-3,1.9c-2.5,1.6-3.5,4.8-2.2,7.6l1.5,3.3c0.5,1.2,0.2,2.6-0.8,3.5c-3.6,3.1-6,7.3-6.9,12
		c-0.2,0.9-0.2,1.7-0.2,2.6c0,3.3,0.7,6.6,2.1,9.5l2,4.2h27.1c0,0-0.3-14.4,0.7-15.3c3.7-3.3,12.3-11.5,13-14.8
		C88,56,76.4,40.1,74.7,39.2z M77.3,60.1L77.3,60.1l-5.7,6.8c-0.1,0.1-0.3,0.2-0.4,0c-0.1-0.1-0.1-0.2-0.1-0.3L72,51.8
		c0-0.2,0.2-0.3,0.3-0.3c0.1,0,0.2,0.1,0.2,0.1l4.8,6.7C77.8,58.9,77.7,59.6,77.3,60.1z"/>
</g>
</svg>
