<svg id="Layer_1" data-name="Layer 1" xmlns="http://www.w3.org/2000/svg" viewBox="0 0 100 100"><defs><style>.cls-1,.cls-3,.cls-4,.cls-5{fill:none;}.cls-1,.cls-2,.cls-3,.cls-4,.cls-5{stroke:#000;}.cls-1,.cls-2,.cls-3,.cls-5{stroke-miterlimit:10;}.cls-1,.cls-2,.cls-3{stroke-width:3px;}.cls-3,.cls-5{stroke-linecap:round;}.cls-4{stroke-linejoin:round;}.cls-4,.cls-5{stroke-width:4px;}</style></defs><rect class="cls-1" x="19.45" y="14.64" width="6.9" height="16.17" rx="3.45" transform="translate(45.73 45.52) rotate(-179.82)"/><path class="cls-2" d="M19.46,18v4.32l6.89,0,0-4.32a3.37,3.37,0,0,0-3.29-3.42h-.3A3.37,3.37,0,0,0,19.46,18Z"/><path class="cls-3" d="M35.76,22.72A12.88,12.88,0,1,1,22.88,9.83"/><polyline class="cls-3" points="31.69 24.12 35.91 21.95 39.42 25.48"/><path d="M88.73,37.84A14.22,14.22,0,0,1,90,43.75c0,8.36-2.17,16-8.12,22.15-1.4,1.45-2.89,2.88-5,3.36-2.78.65-5.17-.31-7.3-2-.9-.72-.89-1.2-.28-2.17q1.69-2.73,3.4-5.44c.57-.91,1-1.08,2-.72s1.92.8,2.89,1.19c1.31.51,1.71.48,2.53-.66A15.26,15.26,0,0,0,82,56.17,39,39,0,0,0,84.43,46c.15-1.33-.09-1.64-1.38-2-.93-.22-1.88-.38-2.81-.62-1.21-.31-1.47-.69-1.4-1.91.14-2.16.32-4.32.43-6.48a1.17,1.17,0,0,1,1.09-1.25,7.61,7.61,0,0,1,7.56,2.88C88.26,37.08,88.53,37.55,88.73,37.84Z"/><path class="cls-4" d="M70.42,48c0-12.15-8.58-22-19.16-22S32.1,35.88,32.1,48c0,8.35,4,16.17,10,20.24v0c0,5.09,4.13,11.79,9.22,11.79s9.22-6.7,9.22-11.79c0-.05,0-.1,0-.15C66.44,64,70.42,56.3,70.42,48Z"/><path class="cls-5" d="M16,87.18s.81-7.35,5.3-10.2,20.42-6.77,20.42-6.77"/><path class="cls-5" d="M87.2,87.18s-.82-7.35-5.31-10.2-20.42-6.77-20.42-6.77"/><path class="cls-4" d="M41.73,67.88v0c6.73,4.19,12.38,4.19,19.25,0"/></svg>