<?xml version="1.0" encoding="utf-8"?>
<!-- Generator: Adobe Illustrator 24.2.3, SVG Export Plug-In . SVG Version: 6.00 Build 0)  -->
<svg version="1.1" id="Layer_1" xmlns="http://www.w3.org/2000/svg" xmlns:xlink="http://www.w3.org/1999/xlink" x="0px" y="0px"
	 viewBox="0 0 100 100" style="enable-background:new 0 0 100 100;" xml:space="preserve">
<path d="M84.6,29c-5.8-1.2-11.3-3.5-16.2-6.6c-2.2-1.5-5.2-1.5-7.4,0c-5,3.2-10.5,5.4-16.2,6.6c-3.2,0.7-5.4,3.4-5.5,6.7v9.6
	c0,12.6,6.4,24.3,17.1,31c2.5,1.6,5.4,2.4,8.3,2.4c3,0,5.9-0.9,8.4-2.5c10.6-6.7,17-18.4,17-30.9v-9.7C90.1,32.4,87.8,29.7,84.6,29z
	 M61,62.6l-10.5-9.1c-0.8-0.8-0.7-2.1,0.1-2.8c0.7-0.7,1.8-0.7,2.6-0.2l10,8.7l15.6-19.4c0.7-0.9,2-1,2.8-0.3c0.9,0.7,1,2,0.3,2.8
	l-16,19.9c-0.6,0.7-1.4,1.2-2.3,1.2h-0.3C62.4,63.5,61.6,63.2,61,62.6z M63.5,76.6c0.7,0,1.5,0,2.2,0C65,76.7,64.3,76.7,63.5,76.6z"
	/>
<path d="M37.1,34.7c-0.1-7.4-6.2-13.4-13.5-13.4c-0.1,0-0.1,0-0.2,0C15.9,21.4,9.9,27.6,10,35l0.2,14.7l0,0l0.2,16.3
	c0,4.1,1.9,7.8,4.9,10.3c0.1,0,0.1,0.1,0.2,0.1c0.2,0.2,0.4,0.3,0.6,0.5c2.2,1.6,4.9,2.5,7.8,2.5c0.1,0,0.1,0,0.2,0
	c3.6,0,7-1.5,9.5-4.1s3.9-6,3.8-9.6L37.1,34.7z M30.7,72.6c-0.8,0.8-1.6,1.4-2.6,1.9c1.3-2.2,1.9-5.1,1.9-8.6l-0.2-16.3l-15.7,0.2
	L14,35c-0.1-5.3,4.2-9.6,9.4-9.7c0,0,0.1,0,0.1,0c5.2,0,9.5,4.2,9.5,9.4l0.4,31C33.5,68.3,32.5,70.8,30.7,72.6z"/>
</svg>
