<svg id="Layer_1" data-name="Layer 1" xmlns="http://www.w3.org/2000/svg" viewBox="0 0 100 100"><defs><style>.cls-1,.cls-3,.cls-4,.cls-5{fill:none;}.cls-1,.cls-2,.cls-3,.cls-4,.cls-5{stroke:#000;}.cls-1,.cls-2,.cls-3,.cls-5{stroke-miterlimit:10;}.cls-1,.cls-2,.cls-3{stroke-width:3px;}.cls-3,.cls-5{stroke-linecap:round;}.cls-4{stroke-linejoin:round;}.cls-4,.cls-5{stroke-width:4px;}</style></defs><rect class="cls-1" x="14.64" y="10.35" width="8.02" height="18.8" rx="4.01" transform="translate(37.23 39.56) rotate(-179.82)"/><path class="cls-2" d="M14.65,14.3l0,5,8,0,0-5a3.9,3.9,0,0,0-3.83-4H18.5A3.89,3.89,0,0,0,14.65,14.3Z"/><circle class="cls-3" cx="18.65" cy="19.75" r="14.35"/><path d="M95.19,37.33a16.41,16.41,0,0,1,1.48,6.87c0,9.72-2.52,18.57-9.44,25.75-1.63,1.7-3.37,3.35-5.77,3.91-3.23.75-6-.35-8.48-2.33-1.06-.84-1-1.39-.34-2.53q2-3.16,4-6.32c.67-1.06,1.1-1.26,2.29-.84s2.23.94,3.35,1.38c1.53.6,2,.56,3-.77a17.8,17.8,0,0,0,2.18-3.81,45.64,45.64,0,0,0,2.82-11.81c.17-1.55-.1-1.91-1.61-2.27-1.08-.27-2.18-.45-3.26-.73-1.41-.37-1.71-.8-1.62-2.22.16-2.52.37-5,.49-7.54a1.36,1.36,0,0,1,1.27-1.45A8.83,8.83,0,0,1,94.25,36,13.71,13.71,0,0,1,95.19,37.33Z"/><path class="cls-4" d="M73.9,49.17c0-14.12-10-25.57-22.28-25.57S29.34,35.05,29.34,49.17C29.34,58.89,34.06,68,41,72.71v0c0,5.92,4.8,13.72,10.72,13.72s10.71-7.8,10.71-13.72v-.17C69.28,67.79,73.9,58.79,73.9,49.17Z"/><path class="cls-5" d="M10.63,94.7s.95-8.54,6.17-11.86S40.54,75,40.54,75"/><path class="cls-5" d="M93.41,94.7s-1-8.54-6.17-11.86S63.5,75,63.5,75"/><path class="cls-4" d="M41.36,72.86s0,0,0,0c7.17,4.47,13.21,4.47,20.52,0"/></svg>