<?xml version="1.0" encoding="utf-8"?>
<!-- Generator: Adobe Illustrator 24.0.0, SVG Export Plug-In . SVG Version: 6.00 Build 0)  -->
<svg version="1.1" id="Layer_1" xmlns="http://www.w3.org/2000/svg" xmlns:xlink="http://www.w3.org/1999/xlink" x="0px" y="0px"
	 viewBox="0 0 100 100" style="enable-background:new 0 0 100 100;" xml:space="preserve">
<g>
	<path d="M24.1,25.2l0-4.4h0v-0.3l0-6.1c0-0.2,0-0.5-0.1-0.7c-0.1-1.2-0.6-2.3-1.4-3.2c-1-1-2.3-1.6-3.7-1.7l-0.4,0
		c-3,0-5.4,2.5-5.3,5.5v0.1c0,0,0,0,0,0l0,10.8c0,1.5,0.6,2.9,1.6,3.9c1,1,2.4,1.6,3.9,1.6c0,0,0,0,0,0
		C21.7,30.7,24.1,28.2,24.1,25.2z M18.6,27.7c-0.7,0-1.3-0.3-1.8-0.7s-0.7-1.1-0.7-1.8l0-4.3h5l0,4.3C21.1,26.5,20,27.6,18.6,27.7z"
		/>
	<path d="M34.5,19.8c0-8.7-7.1-15.9-15.9-15.9S2.8,11,2.8,19.8s7.1,15.9,15.9,15.9S34.5,28.5,34.5,19.8z M5.8,19.8
		c0-7.1,5.8-12.9,12.9-12.9s12.9,5.8,12.9,12.9s-5.8,12.9-12.9,12.9S5.8,26.8,5.8,19.8z"/>
	<path d="M73,71.5c2.5,2,5.2,3.1,8.5,2.3c2.4-0.6,4.1-2.2,5.8-3.9c6.9-7.2,9.4-16,9.4-25.8c0-2.4-0.5-4.7-1.5-6.9
		c-0.3-0.5-0.6-0.9-0.9-1.3c-2-2.7-5.4-4-8.7-3.4c0,0,0,0,0,0c-0.7,0.1-1.3,0.7-1.3,1.4c-0.1,2.5-0.3,5-0.5,7.5
		c-0.1,1.4,0.2,1.9,1.6,2.2c1.1,0.3,2.2,0.5,3.3,0.7c1.5,0.4,1.8,0.7,1.6,2.3c-0.4,4-1.4,8-2.8,11.8c-0.6,1.4-1.3,2.6-2.2,3.8
		c-1,1.3-1.5,1.4-3,0.8c-1.1-0.4-2.2-1-3.4-1.4c-1.2-0.4-1.6-0.2-2.3,0.8c-1.3,2.1-2.7,4.2-4,6.3C72,70.1,71.9,70.7,73,71.5z"/>
	<path d="M88.3,81.2c-4.8-3.1-19.8-7-23.5-7.9c6.8-5.4,11.1-14.6,11.1-24.1C75.9,34,65,21.6,51.6,21.6c-13.4,0-24.3,12.4-24.3,27.6
		c0,9.6,4.4,18.9,11.3,24.3c-4.5,1.2-18.3,4.8-22.9,7.7c-6,3.8-7,12.9-7.1,13.3c-0.1,1.1,0.7,2.1,1.8,2.2c0.1,0,0.2,0,0.2,0
		c1,0,1.9-0.8,2-1.8c0-0.1,0.9-7.6,5.3-10.4c3.7-2.4,16-5.8,21.8-7.3c1.7,5.8,6.4,11.2,12,11.2c5.6,0,10.4-5.5,12-11.3
		c5.6,1.4,18.6,4.9,22.4,7.4c4.3,2.8,5.3,10.3,5.3,10.4c0.1,1,1,1.8,2,1.8c0.1,0,0.2,0,0.2,0c1.1-0.1,1.9-1.1,1.8-2.2
		C95.4,94.1,94.2,84.9,88.3,81.2z M31.3,49.2c0-13,9.1-23.6,20.3-23.6s20.3,10.6,20.3,23.6c0,8.7-4.2,17.3-10.6,21.7
		c-0.1,0.1-0.3,0.2-0.4,0.4l-0.1-0.1c-6.7,4.1-11.9,4.1-18.4,0l-0.1,0.1c-0.1-0.1-0.1-0.1-0.2-0.2C35.6,66.6,31.3,58,31.3,49.2z
		 M51.7,84.4c-3.5,0-6.8-3.9-8.1-8.1c2.7,1.2,5.3,1.9,7.9,1.9c2.7,0,5.4-0.7,8.3-2C58.5,80.4,55.2,84.4,51.7,84.4z"/>
</g>
</svg>
