<?xml version="1.0" encoding="utf-8"?>
<!-- Generator: Adobe Illustrator 24.2.3, SVG Export Plug-In . SVG Version: 6.00 Build 0)  -->
<svg version="1.1" id="Layer_1" xmlns="http://www.w3.org/2000/svg" xmlns:xlink="http://www.w3.org/1999/xlink" x="0px" y="0px"
	 viewBox="0 0 100 100" style="enable-background:new 0 0 100 100;" xml:space="preserve">
<path d="M74,87.2c3.5-1,6.7-2.9,9.4-5.6c8.2-8.4,8-21.9-0.4-30L46,15.4c-4.1-4-9.4-6.1-15.1-6c-5.7,0.1-11,2.3-14.9,6.4
	c-4,4.1-6.1,9.4-6,15.1c0.1,5.7,2.3,11,6.4,14.9l21.2,20.6l15.9,15.6c4,4,9.3,6,14.6,6c1.5,0,3.1-0.2,4.6-0.5c0.1,0,0.2-0.1,0.3-0.1
	C73.3,87.4,73.6,87.3,74,87.2z M13.9,30.9c-0.1-4.6,1.7-9,4.9-12.3c3.2-3.3,7.5-5.1,12.1-5.2c0.1,0,0.1,0,0.2,0
	c4.5,0,8.8,1.7,12,4.9l37,36.1C86,60.1,87,68.8,83,75.5c0.8-6.3-1.4-12.9-6.2-17.5L58.3,40L37.7,61.1L19.1,43
	C15.8,39.8,14,35.5,13.9,30.9z"/>
</svg>
