<?xml version="1.0" encoding="utf-8"?>
<!-- Generator: Adobe Illustrator 24.2.3, SVG Export Plug-In . SVG Version: 6.00 Build 0)  -->
<svg version="1.1" id="Layer_1" xmlns="http://www.w3.org/2000/svg" xmlns:xlink="http://www.w3.org/1999/xlink" x="0px" y="0px"
	 viewBox="0 0 100 100" style="enable-background:new 0 0 100 100;" xml:space="preserve">
<g>
	<path d="M81.4,25.1H56.3V8.8H18.7c-4.4,0-8,3.6-8,8v49.4c0,4.4,3.6,8,8,8h25.1v16.2h37.6c4.4,0,8-3.6,8-8V33.1
		C89.4,28.6,85.8,25.1,81.4,25.1z M48.4,25.1l3.9-7.3v7.3H48.4z M18.7,70.2c-2.2,0-4-1.8-4-4V16.8c0-2.2,1.8-4,4-4h31.7l-6.6,12.2h0
		v26.1H19.7c-1.1,0-2,0.9-2,2s0.9,2,2,2h24.1v2H19.7c-1.1,0-2,0.9-2,2s0.9,2,2,2h24.1v2H19.7c-1.1,0-2,0.9-2,2s0.9,2,2,2h24.1v3.1
		H18.7z M85.4,82.5c0,2.2-1.8,4-4,4H47.8V29.1h33.6c2.2,0,4,1.8,4,4V82.5z"/>
	<path d="M66.6,30.8c-9.4,0-17,7.6-17,17s7.6,17,17,17c9.4,0,17-7.6,17-17S76,30.8,66.6,30.8z M66.6,60.8c-7.2,0-13-5.8-13-13
		c0-7.2,5.8-13,13-13s13,5.8,13,13C79.6,54.9,73.8,60.8,66.6,60.8z"/>
	<path d="M74.3,45.3h-5.5v-5.5c0-1.1-0.9-2-2-2s-2,0.9-2,2v5.5h-5.5c-1.1,0-2,0.9-2,2s0.9,2,2,2h5.5v5.5c0,1.1,0.9,2,2,2s2-0.9,2-2
		v-5.5h5.5c1.1,0,2-0.9,2-2S75.4,45.3,74.3,45.3z"/>
	<path d="M79.4,67.3H53.7c-1.1,0-2,0.9-2,2s0.9,2,2,2h25.6c1.1,0,2-0.9,2-2S80.5,67.3,79.4,67.3z"/>
	<path d="M79.4,73.3H53.7c-1.1,0-2,0.9-2,2s0.9,2,2,2h25.6c1.1,0,2-0.9,2-2S80.5,73.3,79.4,73.3z"/>
	<path d="M79.4,79.3H53.7c-1.1,0-2,0.9-2,2s0.9,2,2,2h25.6c1.1,0,2-0.9,2-2S80.5,79.3,79.4,79.3z"/>
	<path d="M32.2,49.5c4.6,0,8.4-3.8,8.4-8.4v-8.8v0v-8.4c0,0,0,0,0,0v-0.1v0h0c0-2.2-0.8-4.2-2.3-5.8c-1.5-1.6-3.6-2.4-5.8-2.5h-0.3
		h-0.3c-2.2,0-4.2,0.9-5.8,2.5c-1.5,1.6-2.4,3.6-2.3,5.8v0.1v8.4v0V41C23.8,45.7,27.6,49.5,32.2,49.5z M27.8,23.8
		c0-2.4,2-4.4,4.4-4.4s4.4,2,4.4,4.4v8.4h-8.8V23.8z"/>
</g>
</svg>
