<?xml version="1.0" encoding="utf-8"?>
<!-- Generator: Adobe Illustrator 24.0.0, SVG Export Plug-In . SVG Version: 6.00 Build 0)  -->
<svg version="1.1" id="Layer_1" xmlns="http://www.w3.org/2000/svg" xmlns:xlink="http://www.w3.org/1999/xlink" x="0px" y="0px"
	 viewBox="0 0 100 100" style="enable-background:new 0 0 100 100;" xml:space="preserve">
<g>
	<path d="M45,76c-0.1-2.3-2-4.2-4.3-4.2h-2c-2.4,0-4.4,2-4.3,4.4c0,0,0,0.1,0,0.1l0.5,12.1h0l0,1l1,0.1l0.1-1.1h0l-0.1,1.1l8.5,0.9
		l1.3,0.1l0-1.3L45,76z M38.6,74.1h2.1c1.1,0,2.1,0.9,2.1,2h0v0.1h-6.3C36.5,75,37.5,74.1,38.6,74.1z M37,87.4l-0.4-9h6.3l0.3,9.6
		L37,87.4z"/>
	<path d="M59,17.3c1.4,0.1,2.7,0.1,4.1,0c1.9,0,2.9-1,2.9-2.4c0-1.4-1.1-2.3-2.8-2.3c-1.7,0-3.5,0-5.2,0c-0.9,0.1-1.7-0.3-2.3-0.9
		c-1.6-1.7-4.4-2-6-0.5c-1.3,1.4-2.7,1.4-4.3,1.4c-1.2,0-2.5,0-3.8,0c-1.7,0-2.7,0.9-2.7,2.3s0.8,2.3,2.7,2.3s3.8,0,5.7,0
		c0.5,0,0.9,0.1,1.3,0.3c1.8,1,2.5,3.1,1.7,5l-2.9,0.2v2.7c-10.7-0.1-16.6,8.1-14.8,18.4h13.8c0.2-2,1-3.5,3-4
		c0.6-0.1,1.2-0.2,1.9-0.2h14.2V25.6h-7.9l-0.2-2.9h-3.1c0.2-1.3,0.1-2.7,0.7-3.6C55.7,17.7,57.3,17,59,17.3z"/>
	<path d="M29.8,51c0,0.2,0.1,0.3,0.2,0.5h18.6v-5.4H34.3C29.5,46.1,29.5,46.1,29.8,51z"/>
	<rect x="67.6" y="23.4" width="5.2" height="18.7"/>
	<path d="M37,66.5c1.4,0.9,3.2,0.9,4.5-0.1c1.4-0.9,2-2.7,1.4-4.3c-1-2.4-2.3-4.7-3.4-7.1h-0.6c-1.2,2.4-2.4,4.8-3.4,7.3
		C34.9,63.9,35.5,65.6,37,66.5z"/>
</g>
</svg>
