<?xml version="1.0" encoding="utf-8"?>
<!-- Generator: Adobe Illustrator 24.0.0, SVG Export Plug-In . SVG Version: 6.00 Build 0)  -->
<svg version="1.1" id="Layer_1" xmlns="http://www.w3.org/2000/svg" xmlns:xlink="http://www.w3.org/1999/xlink" x="0px" y="0px"
	 viewBox="0 0 100 100" style="enable-background:new 0 0 100 100;" xml:space="preserve">
<g>
	<path d="M23.1,13.1l-0.3,0c-2.7,0.1-4.8,2.3-4.8,4.9V20l0,7.4c0,1.3,0.5,2.6,1.4,3.5s2.2,1.5,3.5,1.5c0,0,0,0,0,0
		c2.7,0,4.9-2.2,5-4.9l0-3.6h0v-0.7l0-5c0-0.3,0-0.7-0.1-1C27.4,14.9,25.4,13.1,23.1,13.1z M24.8,27.4c0,1.1-0.9,1.9-2,1.9
		c0,0,0,0,0,0c-0.5,0-1-0.2-1.4-0.6c-0.4-0.4-0.6-0.9-0.6-1.4l0-3.5h3.9L24.8,27.4z"/>
	<path d="M22.9,37.1c3.8,0,7.4-1.5,10.2-4.2c2.1-2.1,3.5-4.8,4-7.7l1.3,1.3c0.3,0.3,0.7,0.4,1.1,0.4c0.4,0,0.8-0.1,1.1-0.4
		c0.6-0.6,0.6-1.5,0-2.1l-4.3-4.3L31,22.8c-0.7,0.4-1,1.3-0.6,2c0.4,0.7,1.3,1,2,0.6l1.7-0.9c-0.4,2.3-1.5,4.5-3.2,6.2
		c-2.1,2.1-5,3.3-8,3.3c0,0,0,0,0,0c-3,0-5.9-1.2-8-3.3c-2.1-2.2-3.3-5-3.3-8c0-6.3,5.1-11.4,11.4-11.4c0.8,0,1.5-0.7,1.5-1.5
		s-0.7-1.5-1.5-1.5C15,8.3,8.5,14.8,8.5,22.7c0,3.8,1.5,7.5,4.2,10.2C15.4,35.6,19,37.1,22.9,37.1C22.9,37.1,22.9,37.1,22.9,37.1z"
		/>
	<path d="M69.6,67.3c2.1,1.7,4.5,2.6,7.3,2c2.1-0.5,3.6-1.9,5-3.4c6-6.2,8.1-13.8,8.1-22.2c0-2-0.4-4.1-1.3-5.9
		c-0.2-0.3-0.5-0.8-0.8-1.2c-1.8-2.3-4.7-3.4-7.6-2.9c0,0,0,0,0,0c-0.6,0-1.1,0.6-1.1,1.2c-0.1,2.2-0.3,4.3-0.4,6.5
		c-0.1,1.2,0.2,1.6,1.4,1.9c0.9,0.2,1.9,0.4,2.8,0.6c1.3,0.4,1.5,0.7,1.4,2c-0.3,3.5-1.2,6.9-2.4,10.2c-0.5,1.2-1.1,2.3-1.9,3.3
		c-0.8,1.1-1.2,1.2-2.5,0.7c-1-0.4-1.9-0.8-2.9-1.2s-1.4-0.2-2,0.7c-1.1,1.8-2.3,3.6-3.4,5.4C68.7,66.1,68.7,66.5,69.6,67.3z"/>
	<path d="M83,75.3c-4-2.6-15.7-5.7-19.8-6.7c5.7-4.8,9.2-12.5,9.2-20.6c0-13.2-9.5-24-21.2-24c-11.7,0-21.2,10.8-21.2,24
		c0,8.1,3.6,16,9.3,20.7c-4.5,1.2-15.3,4.1-19.2,6.6C15,78.6,14,86.6,14,87c-0.1,1.1,0.7,2.1,1.8,2.2c0.1,0,0.1,0,0.2,0
		c1,0,1.9-0.8,2-1.8c0.2-1.8,1.4-6.8,4.4-8.7c3.1-2,13.3-4.9,18.4-6.2c1.6,5,5.7,9.5,10.5,9.5c4.9,0,9-4.6,10.6-9.7
		c4.9,1.2,15.7,4.2,18.9,6.3c3,1.9,4.2,7,4.4,8.7c0.1,1,1,1.8,2,1.8c0.1,0,0.1,0,0.2,0c1.1-0.1,1.9-1.1,1.8-2.2
		C89.2,86.6,88.2,78.6,83,75.3z M34.1,48c0-11,7.7-20,17.2-20s17.2,9,17.2,20c0,7.4-3.5,14.6-9,18.4c0,0-0.1,0.1-0.1,0.1
		c-5.9,3.4-10.6,3.3-16.5-0.4l0,0.1C37.5,62.4,34.1,55.3,34.1,48z M51.3,78c-2.8,0-5.4-3-6.6-6.3c2.2,0.9,4.4,1.4,6.6,1.4
		c2.2,0,4.3-0.5,6.6-1.4C56.7,75,54.1,78,51.3,78z"/>
</g>
</svg>
