<?xml version="1.0" encoding="utf-8"?>
<!-- Generator: Adobe Illustrator 24.0.0, SVG Export Plug-In . SVG Version: 6.00 Build 0)  -->
<svg version="1.1" id="Layer_1" xmlns="http://www.w3.org/2000/svg" xmlns:xlink="http://www.w3.org/1999/xlink" x="0px" y="0px"
	 viewBox="0 0 100 100" style="enable-background:new 0 0 100 100;" xml:space="preserve">
<g>
	<path d="M84.4,79.7h-3.1V17.2c0-3.3-2.7-6-6-6H24.6c-3.3,0-6,2.7-6,6v62.5h-2.7c-3.2,0-5.8,2.6-5.8,5.8c0,3.2,2.6,5.8,5.8,5.8h68.5
		c3.2,0,5.8-2.6,5.8-5.8C90.1,82.2,87.5,79.7,84.4,79.7z M52,54.4h11.7v25.3H52V54.4z M48,79.6H36.3V54.4H48V79.6z M49.9,15.4
		c9.4,0,17,7.6,17,17c0,9.4-7.6,17-17,17c-9.4,0-17-7.6-17-17C32.9,23,40.5,15.4,49.9,15.4z"/>
	<path d="M49.9,45.4c7.2,0,13-5.8,13-13s-5.8-13-13-13c-7.2,0-13,5.8-13,13S42.7,45.4,49.9,45.4z M42.6,29.4h5v-5h5v5h5v5h-5v5h-5
		v-5h-5V29.4z"/>
</g>
</svg>
