<svg id="Layer_1" data-name="Layer 1" xmlns="http://www.w3.org/2000/svg" viewBox="0 0 100 100"><defs><style>.cls-1,.cls-2,.cls-3{stroke:#000;stroke-miterlimit:10;stroke-width:4px;}.cls-2{fill:none;stroke-linecap:round;}.cls-3{fill:#fff;}</style></defs><path class="cls-1" d="M15.74,66.47A10.26,10.26,0,0,0,26,76.73h0A10.26,10.26,0,0,0,36.27,66.47V53.32H15.74Z"/><path class="cls-1" d="M26.44,28.6H26A10.27,10.27,0,0,1,36.27,38.87v-.22A9.94,9.94,0,0,0,26.44,28.6Z"/><path class="cls-1" d="M26,28.6h-.44a9.94,9.94,0,0,0-9.82,10v.22A10.26,10.26,0,0,1,26,28.6Z"/><line class="cls-2" x1="43.33" y1="49.51" x2="54.45" y2="49.51"/><line class="cls-2" x1="43.33" y1="56.52" x2="54.45" y2="56.52"/><line class="cls-3" x1="15.74" y1="53.32" x2="15.74" y2="38.65"/><line class="cls-3" x1="36.27" y1="53.32" x2="36.27" y2="38.87"/><path class="cls-1" d="M72.65,27.29h0A10.82,10.82,0,0,0,61.83,38.12V52H83.47V38.12A10.82,10.82,0,0,0,72.65,27.29Z"/><path class="cls-1" d="M61.83,67.22v.23A10.48,10.48,0,0,0,72.19,78h.46A10.81,10.81,0,0,1,61.83,67.22Z"/><path class="cls-1" d="M72.65,78h.46A10.47,10.47,0,0,0,83.47,67.45v-.23A10.81,10.81,0,0,1,72.65,78Z"/><line class="cls-3" x1="61.83" y1="67.45" x2="61.83" y2="51.98"/><line class="cls-3" x1="83.47" y1="67.45" x2="83.47" y2="51.98"/></svg>