<svg id="Layer_1" data-name="Layer 1" xmlns="http://www.w3.org/2000/svg" viewBox="0 0 100 100"><defs><style>.cls-1{fill:#fff;}.cls-1,.cls-2{stroke:#000;stroke-miterlimit:10;stroke-width:4px;}</style></defs><polygon class="cls-1" points="20.89 43.47 20.89 43.47 23.89 48.08 20.89 43.47"/><path class="cls-2" d="M27.66,53.84l-3.22-4.93-7.71,5L20,58.88a4.61,4.61,0,1,0,7.71-5Z"/><path class="cls-1" d="M20.89,43.47l-.05-.08A4.47,4.47,0,0,0,14.68,42l-.16.11A4.6,4.6,0,0,1,20.89,43.47Z"/><polygon class="cls-1" points="24.44 48.91 23.89 48.08 24.44 48.91 24.44 48.91"/><path class="cls-1" d="M14.52,42.14l-.17.1a4.47,4.47,0,0,0-1.23,6.19l3.61,5.51h0l-3.55-5.43A4.6,4.6,0,0,1,14.52,42.14Z"/><path class="cls-2" d="M22.52,71.12a4.59,4.59,0,0,0,1.33,6.37h0a4.6,4.6,0,0,0,6.38-1.33l3.22-4.94-7.71-5Z"/><path class="cls-1" d="M35.83,59.52l-.33-.21a4.45,4.45,0,0,0-6.16,1.36l-3.6,5.51h0l3.55-5.43a4.6,4.6,0,0,1,6.37-1.34h0A4.61,4.61,0,0,1,37,65.79l-3.55,5.43h0l3.61-5.51A4.46,4.46,0,0,0,35.83,59.52Z"/><path d="M74.72,39.15a28.68,28.68,0,0,0-4.7-1.7,4.11,4.11,0,0,1-2.91-3.79l-.3-4.82a10,10,0,0,0,1.51-8.5A10.69,10.69,0,0,0,65.84,16a10.07,10.07,0,0,0-16.93,9.69l-.85,2.55a.64.64,0,0,0,.69.84l1.66-.22A10.11,10.11,0,0,0,57.46,33l-.78,8.15a6,6,0,0,1-2.74,4.49l-3,1.89a6,6,0,0,0-2.23,7.56l1.52,3.31a3,3,0,0,1-.79,3.49,21.23,21.23,0,0,0-6.86,12,14.71,14.71,0,0,0-.22,2.61,21.74,21.74,0,0,0,2.07,9.55l2,4.25H73.56s-.31-14.41.65-15.29c3.67-3.32,12.31-11.45,13-14.8C88,56,76.38,40.09,74.72,39.15Zm2.61,21-5.65,6.74a.31.31,0,0,1-.55-.22L72,51.85a.31.31,0,0,1,.56-.16l4.81,6.69A1.41,1.41,0,0,1,77.33,60.11Z"/><path d="M61.8,16.32a5.05,5.05,0,0,1,2.33-3.43,5.46,5.46,0,0,1,4.65-.64,7.9,7.9,0,0,1,5,4.76,8.64,8.64,0,0,1,.5,2.36c.06,1,.08,1.92.11,2.88a7.36,7.36,0,0,0,.16,1.62A1.36,1.36,0,0,0,76.13,25a1.91,1.91,0,0,0,1.65-1.74,1.11,1.11,0,0,0,0-.19h0c.05.21.11.41.15.62a3.83,3.83,0,0,1-1.37,3.91,3.15,3.15,0,0,1-1.29.68,4,4,0,0,1-3.14-.6,4.12,4.12,0,0,1-1.64-2.32,13.34,13.34,0,0,1-.45-2.43,24,24,0,0,0-.4-2.68,3.89,3.89,0,0,0-2-2.67,2.68,2.68,0,0,0-2.16-.22l-.42.19A32.51,32.51,0,0,1,61.8,16.32Z"/></svg>