<svg id="Layer_1" data-name="Layer 1" xmlns="http://www.w3.org/2000/svg" viewBox="0 0 100 100"><defs><style>.cls-1{fill:none;stroke:#000;stroke-miterlimit:10;stroke-width:3.88px;}</style></defs><path d="M50.64,63.87l-1-1.06,12,.1h.16a.81.81,0,0,0,.5-.33.84.84,0,0,0,.13-.44.81.81,0,0,0,0-.16.76.76,0,0,0-.33-.5.74.74,0,0,0-.44-.14l-12-.1,1.08-1.07a.8.8,0,0,0,0-1.12.79.79,0,0,0-1.12,0l-2.44,2.4,0,0h0l0,0-.56.56.55.56,0,0h0l0,0L49.51,65a.79.79,0,1,0,1.13-1.11Z"/><path d="M44.47,56l-1.7-4h0V46.85a2.37,2.37,0,0,0-2.37-2.37H23.14a2.38,2.38,0,0,0-2.37,2.37V52L19.2,56.1a6.65,6.65,0,0,0-.45,2.41v20.3a2.33,2.33,0,0,0,2.33,2.33H42.67A2.33,2.33,0,0,0,45,78.81V58.63A6.74,6.74,0,0,0,44.47,56ZM41.69,73.2a2.33,2.33,0,0,1-2.33,2.33h-15a2.32,2.32,0,0,1-2.32-2.33V61.89a2.32,2.32,0,0,1,2.32-2.33h15a2.33,2.33,0,0,1,2.33,2.33Z"/><line class="cls-1" x1="26.59" y1="67.47" x2="37.1" y2="67.47"/><line class="cls-1" x1="31.84" y1="72.72" x2="31.84" y2="62.21"/><path d="M89.47,56l-1.7-4h0V46.85a2.37,2.37,0,0,0-2.37-2.37H68.14a2.38,2.38,0,0,0-2.37,2.37V52L64.2,56.1a6.65,6.65,0,0,0-.45,2.41v20.3a2.33,2.33,0,0,0,2.33,2.33H87.67A2.33,2.33,0,0,0,90,78.81V58.63A6.74,6.74,0,0,0,89.47,56ZM86.69,73.2a2.33,2.33,0,0,1-2.33,2.33h-15a2.32,2.32,0,0,1-2.32-2.33V61.89a2.32,2.32,0,0,1,2.32-2.33h15a2.33,2.33,0,0,1,2.33,2.33Z"/><line class="cls-1" x1="71.59" y1="67.47" x2="82.1" y2="67.47"/><line class="cls-1" x1="76.84" y1="72.72" x2="76.84" y2="62.21"/><path d="M18.23,28.79,18,28.9h0l-5.11,0a2.38,2.38,0,0,0-2.39,2.36l-.08,17.24a2.37,2.37,0,0,0,2.36,2.38l5.11,0,.27.1Z"/></svg>