<svg id="Layer_1" data-name="Layer 1" xmlns="http://www.w3.org/2000/svg" viewBox="0 0 100 100"><defs><style>.cls-1{fill:none;stroke:#000;stroke-miterlimit:10;stroke-width:4px;}</style></defs><path class="cls-1" d="M76.52,88H55.28a5.68,5.68,0,0,1-5.65-5.16L43.88,18.61a5.67,5.67,0,0,1,5.64-6.18H82.28a5.67,5.67,0,0,1,5.65,6.18L82.17,82.87A5.67,5.67,0,0,1,76.52,88Z"/><path d="M45.47,36.38l4.16,46.49A5.68,5.68,0,0,0,55.28,88H76.52a5.67,5.67,0,0,0,5.65-5.16l4.17-46.49Z"/><path d="M23.46,30.86v-.05a4.34,4.34,0,0,1,2.87-4.3,4.24,4.24,0,0,1-2.26-3.89v-.05c0-2.72,2.49-4.88,6.25-4.88s6.26,2.13,6.26,4.88v.05a4.24,4.24,0,0,1-2.26,3.89c1.8.94,2.87,2.09,2.87,4.2v.05c0,3.31-2.92,5.24-6.87,5.24S23.46,34,23.46,30.86Zm9.94-.3V30.5c0-1.37-1.3-2.18-3.08-2.18s-3.07.81-3.07,2.18v.06c0,1.22,1.14,2.21,3.07,2.21S33.4,31.8,33.4,30.56Zm-.53-7.51V23a2.27,2.27,0,0,0-2.55-2.08c-1.6,0-2.54,1-2.54,2.06V23a2.28,2.28,0,0,0,2.54,2.19A2.26,2.26,0,0,0,32.87,23.05Z"/><path d="M13.36,29.94l2.09-2.47-1.91-2.2a1.34,1.34,0,0,1-.38-.89,1,1,0,0,1,1.07-1.07,1.32,1.32,0,0,1,1.08.6l1.51,2,1.54-2a1.35,1.35,0,0,1,1-.6,1,1,0,0,1,1.08,1,1.22,1.22,0,0,1-.32.8l-2,2.31,2.05,2.35a1.39,1.39,0,0,1,.38.89,1,1,0,0,1-1.07,1.07,1.32,1.32,0,0,1-1.08-.6L16.78,29l-1.65,2.16a1.35,1.35,0,0,1-1,.6,1,1,0,0,1-1.08-1A1.15,1.15,0,0,1,13.36,29.94Z"/></svg>