<svg id="Layer_1" data-name="Layer 1" xmlns="http://www.w3.org/2000/svg" viewBox="0 0 100 100"><defs><style>.cls-1,.cls-2{fill:none;stroke:#000;stroke-width:4px;}.cls-1{stroke-linejoin:round;}.cls-2{stroke-linecap:round;stroke-miterlimit:10;}</style></defs><path class="cls-1" d="M73,38.23c0-13.32-9.4-24.11-21-24.11S31,24.91,31,38.23C31,47.39,35.42,56,42,60.42v0C42,66,46.5,73.55,52.08,73.55S62.19,66,62.19,60.44c0,0,0-.1,0-.16C68.63,55.79,73,47.3,73,38.23Z"/><path class="cls-2" d="M42.6,63.72s-16.92,4.15-21.68,7.19-5.64,10.83-5.64,10.83L13,94.39"/><path class="cls-2" d="M62.1,63.72S79,67.87,83.78,70.91s5.63,10.83,5.63,10.83l2,12.19"/><path d="M96,26.38a16.64,16.64,0,0,1,1.48,6.88C97.49,43,95,51.82,88.08,59c-1.63,1.69-3.37,3.35-5.77,3.91-3.23.75-6-.36-8.48-2.33-1.06-.85-1-1.4-.34-2.53q2-3.16,4-6.33c.67-1.06,1.1-1.25,2.29-.83s2.23.93,3.35,1.38c1.53.6,2,.56,3-.77a18,18,0,0,0,2.18-3.81A46,46,0,0,0,91,35.89c.17-1.55-.1-1.91-1.61-2.28-1.08-.26-2.18-.44-3.26-.72-1.41-.37-1.72-.81-1.62-2.23.16-2.51.37-5,.49-7.54a1.36,1.36,0,0,1,1.27-1.45A8.86,8.86,0,0,1,95.1,25,13.72,13.72,0,0,1,96,26.38Z"/><path class="cls-1" d="M41.42,60.34v0c7.18,4.48,13.21,4.48,20.53,0"/></svg>