<?xml version="1.0" encoding="utf-8"?>
<!-- Generator: Adobe Illustrator 24.0.0, SVG Export Plug-In . SVG Version: 6.00 Build 0)  -->
<svg version="1.1" id="Layer_1" xmlns="http://www.w3.org/2000/svg" xmlns:xlink="http://www.w3.org/1999/xlink" x="0px" y="0px"
	 viewBox="0 0 100 100" style="enable-background:new 0 0 100 100;" xml:space="preserve">
<g>
	<path d="M30.9,47.7v-9.1c1.7,0.5,3.4,1.1,5,2c0.6,0.4,1.4,0.5,2.1,0.5c0,0,0,0,0.1,0c2.2,0,4-1.8,4-4c0-1.5-0.8-2.9-2.2-3.6
		c-2.7-1.5-5.6-2.5-8.7-2.9v-0.8c0,0,0,0,0,0c0-1.7-1.4-3.1-3.1-3.1c0,0,0,0,0,0c-1.7,0-3.1,1.4-3.1,3.1v0.7
		c-7.6,0.8-12.6,5.2-12.6,11.8c0,7.1,4.2,10.4,12.9,12.8v9.5c-2.7-0.6-5.3-1.8-7.7-3.4c-0.7-0.5-1.5-0.8-2.3-0.8c-0.1,0-0.1,0-0.2,0
		c-2.2,0-4,1.9-3.9,4.1c0,1.5,0.7,2.9,2,3.6c3.6,2.2,7.6,3.6,11.8,4.2v3.2c0.1,1.6,1.4,2.8,2.9,2.9c1.7,0.1,3.2-1.2,3.3-2.9v-3.2
		c7.5-0.9,12.7-5.2,12.7-11.9S40,50.1,30.9,47.7z M25.3,46.1c-3.3-1.2-4.1-2.4-4.1-4.3c0-1.9,1.3-3.4,4.1-3.8V46.1z M31,64.9v-8.3
		c3.2,1.1,4.2,2.4,4.2,4.4C35.2,63.2,33.8,64.5,31,64.9z"/>
	<path d="M72.2,26.2c0-1-0.8-1.9-1.9-1.9c-0.8,0-1.5,0.5-1.8,1.2l-26,52c-0.2,0.3-0.3,0.7-0.3,1c0,0,0,0,0,0c0,1,0.9,1.9,1.9,1.8
		c0.8,0,1.4-0.5,1.7-1.2l26.1-52C72.1,26.9,72.1,26.6,72.2,26.2z"/>
	<path d="M82.4,57.2v-9.8c1.9,0.3,3.7,1.1,5.3,2.3c0.3,0.2,0.6,0.3,0.9,0.3c0,0,0,0,0.1,0c0.8,0,1.5-0.6,1.5-1.4
		c0-0.5-0.3-1-0.8-1.3c-2-1.4-4.3-2.3-6.7-2.6v-1.3c0-0.7-0.6-1.3-1.3-1.3c-0.7,0-1.3,0.6-1.3,1.3v1.2c-4.9,0.2-8.4,3.2-8.4,7.4
		c0,4.2,2.6,6.4,8.5,7.8v10c-2.6-0.3-5.1-1.5-7.1-3.3c-0.3-0.2-0.6-0.3-0.9-0.3c-0.8,0-1.5,0.6-1.5,1.4c0,0.5,0.2,1,0.7,1.3
		c2.5,2,5.5,3.3,8.7,3.5v2.9c0,0.1,0,0.2,0,0.2c0.1,0.7,0.7,1.2,1.4,1.2c0.7-0.1,1.2-0.7,1.2-1.4v-2.8c5-0.3,8.5-3.3,8.5-7.5
		C91.1,60.9,88.5,58.5,82.4,57.2z M80.1,56.6c-4.3-1.2-5.4-2.5-5.4-4.9s2-4.3,5.4-4.5V56.6z M82.4,69.8v-9.6v0
		c4.3,1.1,5.6,2.5,5.5,4.9C88,67.7,85.9,69.6,82.4,69.8z"/>
</g>
</svg>
