<svg id="Layer_1" data-name="Layer 1" xmlns="http://www.w3.org/2000/svg" viewBox="0 0 100 100"><defs><style>.cls-1{fill:#2c2628;}</style></defs><polygon class="cls-1" points="38.61 71.81 38.61 71.81 38.61 72.94 38.61 71.81"/><path class="cls-1" d="M45.56,89.19,45,76h0a4.35,4.35,0,0,0-4.35-4.18v0H38.61v0a4.36,4.36,0,0,0-4.34,4.52l1.08,0h0l-1.08,0h0l.49,12.09,1.12,0-.11,1.11,8.55.86.12-1.12h0l-.12,1.12,1.29.13ZM43.26,88,37,87.36l-.36-9,6.28,0ZM38.61,74.06h2.06a2.1,2.1,0,0,1,2.11,2l1.12,0h0l-1.1,0h0v.07l-6.27,0A2.09,2.09,0,0,1,38.61,74.06Z"/><polygon class="cls-1" points="34.76 88.42 34.8 89.4 35.77 89.49 35.88 88.38 34.76 88.42"/><path d="M57.34,25.6h7.93V39.71H51.12a7.28,7.28,0,0,0-1.87.17c-2,.55-2.84,2-3,4H32.47c-1.78-10.27,4.1-18.49,14.81-18.38V22.85l2.89-.17a4,4,0,0,0-1.72-5,2.43,2.43,0,0,0-1.29-.33c-1.89,0-3.77,0-5.66,0s-2.74-.9-2.74-2.34,1-2.3,2.73-2.33c1.26,0,2.52,0,3.77,0,1.63.05,3,0,4.35-1.4,1.56-1.59,4.41-1.24,6,.46a2.63,2.63,0,0,0,2.29.94c1.73,0,3.46,0,5.19,0s2.78.87,2.8,2.28-1,2.36-2.86,2.39a27.75,27.75,0,0,1-4.08,0,4,4,0,0,0-4.17,1.73c-.58.94-.48,2.31-.72,3.65h3.11Z"/><path d="M30,51.49a2.22,2.22,0,0,1-.16-.48c-.38-4.9-.38-4.9,4.46-4.9H48.58v5.38Z"/><path d="M72.81,42.07H67.6V23.4h5.21Z"/><path d="M39.49,55c1.14,2.36,2.39,4.68,3.4,7.1a3.57,3.57,0,0,1-1.37,4.28,4,4,0,0,1-4.54.11,3.56,3.56,0,0,1-1.56-4.23c1-2.49,2.28-4.85,3.44-7.26Z"/></svg>