<?xml version="1.0" encoding="utf-8"?>
<!-- Generator: Adobe Illustrator 24.0.0, SVG Export Plug-In . SVG Version: 6.00 Build 0)  -->
<svg version="1.1" id="Layer_1" xmlns="http://www.w3.org/2000/svg" xmlns:xlink="http://www.w3.org/1999/xlink" x="0px" y="0px"
	 viewBox="0 0 100 100" style="enable-background:new 0 0 100 100;" xml:space="preserve">
<g>
	<polygon points="35.9,48.5 32.4,48.5 32.4,58.7 22.3,58.7 22.3,62.2 32.4,62.2 32.4,72.3 35.9,72.3 35.9,62.2 46.1,62.2 46.1,58.7 
		35.9,58.7 	"/>
	<path d="M93,40.6c-5.8-1.2-11.3-3.5-16.3-6.6c-2.2-1.5-5.2-1.5-7.4,0c-1.9,1.2-3.8,2.2-5.8,3.2c-0.2-0.9-0.4-1.8-0.8-2.6l-3.8-9.2
		V13.8c0-3-2.4-5.4-5.3-5.4c0,0,0,0-0.1,0h-39c-3,0-5.3,2.4-5.3,5.4v11.5l-3.6,9.4c-0.7,1.7-1,3.6-1,5.5v45.9c0,2.9,2.4,5.3,5.3,5.3
		h48.8c2.5,0,4.6-1.8,5.1-4.1c0.3,0.2,0.6,0.4,0.9,0.6c2.5,1.6,5.4,2.4,8.3,2.4c3,0,5.9-0.9,8.5-2.5c10.6-6.7,17-18.4,17-30.9v-9.6
		C98.4,44,96.2,41.2,93,40.6z M17.3,78.7c-2.9,0-5.3-2.4-5.3-5.3V47.8c0-2.9,2.4-5.3,5.3-5.3c0,0,0,0,0,0h32.2
		c-1.2,1.2-1.9,2.9-1.9,4.7v9.6c0,7.6,2.3,14.8,6.5,20.9c-0.9,0.6-1.9,0.9-3,0.9H17.3z M94.5,56.8c0,11.2-5.7,21.6-15.2,27.5
		c-3.8,2.4-8.7,2.4-12.5,0c-9.5-6-15.2-16.4-15.2-27.5v-9.6c0-1.3,1-2.5,2.3-2.8c6.3-1.3,12.2-3.7,17.6-7.2c0.5-0.3,1-0.5,1.5-0.5
		h0.1c0.5,0,1.1,0.2,1.5,0.5c5.4,3.5,11.4,5.9,17.6,7.2c1.3,0.3,2.3,1.4,2.3,2.8V56.8z"/>
	<path d="M82.7,52.9c-0.8-0.8-2-0.8-2.8,0l-6.8,6.8l-6.8-6.8c-0.8-0.8-2-0.8-2.8,0s-0.8,2,0,2.8l6.8,6.8l-6.8,6.8
		c-0.8,0.7-0.9,2-0.1,2.8c0.7,0.8,2,0.9,2.8,0.1c0,0,0.1-0.1,0.1-0.1l6.8-6.8l6.8,6.8c0.4,0.4,0.9,0.6,1.4,0.6c1.1,0,2-0.9,2-2
		c0-0.5-0.2-1-0.6-1.4l-6.8-6.8l6.8-6.8C83.4,55,83.4,53.7,82.7,52.9z"/>
</g>
</svg>
