<svg id="Layer_1" data-name="Layer 1" xmlns="http://www.w3.org/2000/svg" viewBox="0 0 100 100"><defs><style>.cls-1{fill:none;stroke:#000;stroke-miterlimit:10;stroke-width:3.48px;}</style></defs><line class="cls-1" x1="22.3" y1="60.43" x2="46.06" y2="60.43"/><line class="cls-1" x1="34.18" y1="72.32" x2="34.18" y2="48.55"/><path d="M73,90.23a15.5,15.5,0,0,1-8.31-2.41,36.49,36.49,0,0,1-17.07-31V47.22a6.86,6.86,0,0,1,5.45-6.66,48.56,48.56,0,0,0,16.25-6.64,6.76,6.76,0,0,1,7.41,0h0A48.56,48.56,0,0,0,93,40.56a6.87,6.87,0,0,1,5.46,6.66v9.63a36.46,36.46,0,0,1-17,30.92A15.77,15.77,0,0,1,73,90.23Zm0-53.42a2.78,2.78,0,0,0-1.52.45,51.56,51.56,0,0,1-17.62,7.21,2.81,2.81,0,0,0-2.27,2.75v9.63A32.48,32.48,0,0,0,66.79,84.39a11.64,11.64,0,0,0,12.47,0A32.5,32.5,0,0,0,94.48,56.85V47.22a2.82,2.82,0,0,0-2.28-2.75,51.64,51.64,0,0,1-17.62-7.21A2.75,2.75,0,0,0,73.07,36.81Z"/><path d="M75.9,62.53l6.75-6.76a2,2,0,0,0-2.83-2.83L73.07,59.7l-6.76-6.76a2,2,0,0,0-2.83,2.83l6.76,6.76-6.76,6.76a2,2,0,1,0,2.83,2.82l6.76-6.75,6.75,6.75a2,2,0,0,0,1.42.59,2,2,0,0,0,1.41-3.41Z"/><path d="M55.84,75.75a5.23,5.23,0,0,1-4.68,2.91H17.34a5.27,5.27,0,0,1-5.27-5.26V47.82a5.26,5.26,0,0,1,5.27-5.26H51.16a5.17,5.17,0,0,1,1.54.23L63.85,39c0-.06,0-.12,0-.18,0-.25-.06-.5-.1-.75a15.45,15.45,0,0,0-1-3.57l-3.84-9.15h0V13.83A5.35,5.35,0,0,0,53.5,8.47h-39a5.36,5.36,0,0,0-5.35,5.36V25.38L5.59,34.74a15.19,15.19,0,0,0-1,5.46V86.08a5.27,5.27,0,0,0,5.26,5.26H58.65a5.26,5.26,0,0,0,5.26-5.26V83.61Z"/></svg>