<svg id="Layer_1" data-name="Layer 1" xmlns="http://www.w3.org/2000/svg" viewBox="0 0 100 100"><defs><style>.cls-1{fill:none;stroke:#000;stroke-miterlimit:10;stroke-width:4px;}</style></defs><path d="M88.79,49.89a6.76,6.76,0,0,0-2.72-4.77l.22-.22a6.74,6.74,0,0,0,2-4.78,6.67,6.67,0,0,0-2-4.79l0,0a6.89,6.89,0,0,0-2.63-1.65,6.45,6.45,0,0,0-1.08-4,6.63,6.63,0,0,0-5.51-2.95,5.88,5.88,0,0,0-1.11.1,7.41,7.41,0,0,0-1.31-1.8,6.82,6.82,0,0,0-9.6,0L53.69,35.74a7,7,0,0,0-1.48-1.33,6.59,6.59,0,0,0-3.67-1.1,7,7,0,0,0-4.9,2L32.9,46.1a34.79,34.79,0,0,0-3,3.42,22.31,22.31,0,0,0,.46,28c.84,1,1.72,2,2.62,2.88a20.45,20.45,0,0,0,21.9,4.56c.6-.24,1.18-.51,1.76-.8L54,80.94c-.19.08-.37.18-.56.25a16.42,16.42,0,0,1-17.61-3.66c-.78-.78-1.59-1.66-2.38-2.61a18.44,18.44,0,0,1-.35-23,30.3,30.3,0,0,1,2.65-3L46.47,38.18a3,3,0,0,1,2.07-.87,2.67,2.67,0,0,1,1.46.43A2.77,2.77,0,0,1,50.44,42l-5.66,4.7a2.81,2.81,0,0,0-.05,2.51v-1a1.1,1.1,0,0,0,.85.39,1.12,1.12,0,0,0,.79-.33l21.45-20.5a2.82,2.82,0,0,1,4,0A2.77,2.77,0,0,1,72,31.71L61.75,41.8A1.16,1.16,0,0,0,62,43.62a1,1,0,0,0,.56.16,1.29,1.29,0,0,0,.89-.38l11.76-12a2.62,2.62,0,0,1,4,.4,2.69,2.69,0,0,1-.39,3.35l-12,12.17a1.18,1.18,0,0,0,0,1.65h0a1.14,1.14,0,0,0,.82.34,1.16,1.16,0,0,0,.82-.34L79.37,38.09a2.86,2.86,0,0,1,4,0l.07.07a2.75,2.75,0,0,1,0,3.9L72.09,53.36a1.16,1.16,0,0,0,0,1.64h0a1.16,1.16,0,0,0,.83.34,1.13,1.13,0,0,0,.8-.33l6.32-6.32a3,3,0,0,1,2.07-.87,2.61,2.61,0,0,1,1.45.43A2.76,2.76,0,0,1,84,52.51L77.53,59l-.84.84,2.81,2.85.86-.86,6.49-6.48A6.77,6.77,0,0,0,88.79,49.89Z"/><circle class="cls-1" cx="23.77" cy="25.72" r="13.77"/><path d="M15.6,14.63a14.18,14.18,0,0,0-2.92,2.92L31.93,36.8a13.48,13.48,0,0,0,2.92-2.92Z"/><path d="M63.17,91.66l-.51,0a6.14,6.14,0,0,1-4.2-2.15l-23.77-28a6.18,6.18,0,0,1,.71-8.69L52.89,38a6.19,6.19,0,0,1,8.7.71l23.76,28a6.18,6.18,0,0,1-.7,8.7L67.15,90.19A6.08,6.08,0,0,1,63.17,91.66ZM56.89,40.5a2.16,2.16,0,0,0-1.4.51L38,55.89a2.16,2.16,0,0,0-.76,1.47,2.2,2.2,0,0,0,.51,1.58l23.77,28a2.11,2.11,0,0,0,1.47.75,2.06,2.06,0,0,0,1.58-.51l17.5-14.87h0a2.19,2.19,0,0,0,.76-1.48,2.23,2.23,0,0,0-.51-1.58L58.54,41.26A2.14,2.14,0,0,0,56.89,40.5Z"/><rect x="63.06" y="37.02" width="4.61" height="45.03" transform="translate(-23 56.52) rotate(-40.37)"/></svg>