<?xml version="1.0" encoding="utf-8"?>
<!-- Generator: Adobe Illustrator 24.0.0, SVG Export Plug-In . SVG Version: 6.00 Build 0)  -->
<svg version="1.1" id="Layer_1" xmlns="http://www.w3.org/2000/svg" xmlns:xlink="http://www.w3.org/1999/xlink" x="0px" y="0px"
	 viewBox="0 0 100 100" style="enable-background:new 0 0 100 100;" xml:space="preserve">
<g>
	<path d="M88.8,49.9c-0.2-1.9-1.2-3.6-2.7-4.8l0.2-0.2c1.3-1.3,2-3,2-4.8c0-1.8-0.7-3.5-2-4.8c-0.7-0.7-1.6-1.3-2.6-1.7
		c0.1-1.4-0.3-2.8-1.1-4c-1.2-1.8-3.3-2.9-5.5-3c-0.4,0-0.7,0-1.1,0.1c-0.3-0.7-0.8-1.3-1.3-1.8c-2.7-2.6-6.9-2.6-9.6,0L53.7,35.7
		c-0.4-0.5-0.9-1-1.5-1.3c-1.1-0.7-2.4-1.1-3.7-1.1c-1.8,0-3.6,0.7-4.9,2L32.9,46.1c-1.1,1.1-2.1,2.2-3,3.4
		c-6.5,8.3-6.3,19.9,0.5,28c0.8,1,1.7,2,2.6,2.9c5.7,5.7,14.2,7.5,21.7,4.6l3.8,4.5c1.1,1.2,2.6,2,4.2,2.1h0.5c1.5,0,2.9-0.5,4-1.5
		l17.5-14.8c2.6-2.2,2.9-6.1,0.7-8.7l-4.5-5.3l6-6C88.3,53.9,89,51.9,88.8,49.9z M83.4,38.1L83.4,38.1c1.1,1.1,1.2,2.9,0.1,4
		c0,0,0,0,0,0L73.1,52.3L69.5,48l9.9-9.9C80.5,37,82.3,37,83.4,38.1z M75.2,31.4c1-1,2.7-1,3.7,0c0.1,0.1,0.2,0.2,0.3,0.4
		c0.7,1.1,0.5,2.5-0.4,3.4l-10.9,11l-3.3-3.9L75.2,31.4z M67.8,27.8c1.1-1.1,2.9-1.1,4,0c0,0,0,0,0,0c1.1,1,1.2,2.8,0.2,3.9
		c0,0,0,0,0,0l-8.9,8.8l-1.5-1.8c-0.9-1-2-1.7-3.2-2L67.8,27.8z M35.8,77.5c-0.8-0.8-1.6-1.7-2.4-2.6c-5.5-6.6-5.6-16.2-0.4-23
		c0.8-1.1,1.7-2.1,2.7-3l10.7-10.7c0.6-0.5,1.3-0.9,2.1-0.9c0.5,0,1,0.1,1.5,0.4c0.6,0.4,1,1,1.2,1.7L35.4,52.8
		c-2.6,2.2-2.9,6.1-0.7,8.7l17.2,20.2C46.2,83.3,40.1,81.7,35.8,77.5z M64.6,87.2c-0.4,0.4-1,0.6-1.6,0.5c-0.6,0-1.1-0.3-1.5-0.8
		l-23.8-28c-0.4-0.4-0.6-1-0.5-1.6c0-0.6,0.3-1.1,0.8-1.5l12.3-10.5l26.6,31.3L64.6,87.2z M82.8,70.8c0,0.6-0.3,1.1-0.8,1.5
		l-1.6,1.4L53.8,42.4l1.7-1.4c0.4-0.3,0.9-0.5,1.4-0.5c0.6,0,1.2,0.3,1.6,0.8l23.8,28C82.7,69.7,82.9,70.3,82.8,70.8z M84.4,52.1
		c-0.1,0.2-0.2,0.3-0.4,0.4l-5.8,5.8l-3.6-4.2l5.4-5.4c0.6-0.5,1.3-0.9,2.1-0.9c0.5,0,1,0.1,1.5,0.4C84.8,49.1,85.2,50.8,84.4,52.1z
		"/>
	<path d="M39.5,25.7C39.5,17,32.5,10,23.8,10S8,17,8,25.7s7.1,15.8,15.8,15.8S39.5,34.4,39.5,25.7z M35.5,25.7
		c0,2.5-0.8,4.8-2.1,6.7L17,16.1c1.9-1.3,4.2-2.1,6.7-2.1C30.3,14,35.5,19.2,35.5,25.7z M12,25.7c0-2.5,0.8-4.8,2.1-6.7l16.4,16.4
		c-1.9,1.3-4.2,2.1-6.7,2.1C17.3,37.5,12,32.2,12,25.7z"/>
</g>
</svg>
