<svg id="Layer_1" data-name="Layer 1" xmlns="http://www.w3.org/2000/svg" viewBox="0 0 100 100"><defs><style>.cls-1{fill:none;stroke:#000;stroke-miterlimit:10;stroke-width:4px;}</style></defs><circle class="cls-1" cx="26.28" cy="24.46" r="13.77"/><path d="M18.11,13.37a14.18,14.18,0,0,0-2.92,2.92L34.44,35.54a13.48,13.48,0,0,0,2.92-2.92Z"/><path class="cls-1" d="M50.86,86.93c22,.53,37.57-21.14,37.57-21.14s-18.36-10-26.21-10-7.08,5.35-11.36,5.35h0c-4.28,0-3.57-5.35-11.42-5.35s-26.21,10-26.21,10S28.93,87.46,50.88,86.93Z"/><path class="cls-1" d="M88.43,65.79a150.2,150.2,0,0,1-19.31,3.48c-9.51,1-18.25,1.14-18.25,1.14s-8.81-.19-18.32-1.14a150.2,150.2,0,0,1-19.31-3.48"/></svg>