<svg id="Layer_1" data-name="Layer 1" xmlns="http://www.w3.org/2000/svg" viewBox="0 0 100 100"><defs><style>.cls-1,.cls-2{fill:none;stroke:#000;stroke-miterlimit:10;stroke-width:4px;}.cls-2{stroke-linecap:round;}</style></defs><g id="_4" data-name="4"><path class="cls-1" d="M30,33.39c5.3-13.86,14.8-24.47,28.81-22.56,12.92,1.77,20.67,18.06,17.45,30C74.57,47.18,69.48,51.3,65,55.76A29.72,29.72,0,0,0,56.8,69.33c-1.25,4.79-1.22,11.15-4.33,15.43-6.93,9.54-20.74,4.55-24.72-5.09C23.39,69.13,24,49.16,30,33.39Z"/><path d="M44.46,51.73l-3.8,15a7.72,7.72,0,1,0,3.8-15Z"/><path class="cls-2" d="M41.19,64.79c2-7.51,3.57-15.11,5.67-22.58,1.3-4.6,4.6-15,11.65-11.71,2.76,1.27,3.63,6.52,4.25,9.15"/></g></svg>