<svg id="Layer_1" data-name="Layer 1" xmlns="http://www.w3.org/2000/svg" viewBox="0 0 100 100"><defs><style>.cls-1,.cls-2,.cls-3{fill:none;stroke:#000;stroke-miterlimit:10;}.cls-1,.cls-3{stroke-linecap:round;}.cls-1{stroke-width:5.2px;}.cls-2,.cls-3{stroke-width:4px;}</style></defs><line class="cls-1" x1="47.4" y1="36.42" x2="37.19" y2="54.06"/><polyline class="cls-1" points="33.81 44.31 37.19 54.06 47.33 52.13"/><path class="cls-2" d="M70.94,32.49H82.12a.45.45,0,0,1,.45.45V58.68a0,0,0,0,1,0,0H70.49a0,0,0,0,1,0,0V32.94a.45.45,0,0,1,.45-.45Z" transform="translate(111.73 127.42) rotate(-144.05)"/><path class="cls-2" d="M65,53.42l7.53,5.45-4,3.1A.44.44,0,0,1,68,62l-4.55-3.29a.46.46,0,0,1-.16-.52Z"/><line class="cls-3" x1="91.4" y1="40.14" x2="77.22" y2="30.01"/><line class="cls-3" x1="59.67" y1="69.04" x2="65.1" y2="61.14"/><line class="cls-3" x1="80.79" y1="39.63" x2="86.53" y2="31.59"/><path class="cls-3" d="M85,25.53h8.42a.39.39,0,0,1,.39.39v4.89a0,0,0,0,1,0,0H84.64a0,0,0,0,1,0,0V25.92a.39.39,0,0,1,.39-.39Z" transform="translate(145.5 102.96) rotate(-144.47)"/><line class="cls-3" x1="84.9" y1="44.33" x2="75.07" y2="37.31"/><ellipse cx="72.24" cy="51.62" rx="1.49" ry="1.4"/><ellipse cx="77.17" cy="45.13" rx="1.49" ry="1.4"/><ellipse cx="74.78" cy="48.34" rx="1.49" ry="1.4"/><path class="cls-3" d="M88,68.53H47.67a1.93,1.93,0,0,0-1.65,1,6,6,0,0,1-10.4,0,1.9,1.9,0,0,0-1.65-1H29.31a1.9,1.9,0,0,0-1.64,1,6,6,0,0,1-10.4,0,1.93,1.93,0,0,0-1.65-1H11.67"/><line class="cls-3" x1="12.13" y1="79.24" x2="17.7" y2="79.24"/><line class="cls-3" x1="26.13" y1="79.24" x2="31.71" y2="79.24"/><line class="cls-3" x1="40.14" y1="79.24" x2="45.72" y2="79.24"/><line class="cls-3" x1="54.15" y1="79.24" x2="59.72" y2="79.24"/><line class="cls-3" x1="68.15" y1="79.24" x2="73.73" y2="79.24"/><line class="cls-3" x1="82.16" y1="79.24" x2="87.74" y2="79.24"/><line class="cls-3" x1="12.13" y1="86.44" x2="17.7" y2="86.44"/><line class="cls-3" x1="26.13" y1="86.44" x2="31.71" y2="86.44"/><line class="cls-3" x1="40.14" y1="86.44" x2="45.72" y2="86.44"/><line class="cls-3" x1="54.15" y1="86.44" x2="59.72" y2="86.44"/><line class="cls-3" x1="68.15" y1="86.44" x2="73.73" y2="86.44"/><line class="cls-3" x1="82.16" y1="86.44" x2="87.74" y2="86.44"/></svg>