<?xml version="1.0" encoding="utf-8"?>
<!-- Generator: Adobe Illustrator 24.0.0, SVG Export Plug-In . SVG Version: 6.00 Build 0)  -->
<svg version="1.1" id="Layer_1" xmlns="http://www.w3.org/2000/svg" xmlns:xlink="http://www.w3.org/1999/xlink" x="0px" y="0px"
	 viewBox="0 0 100 100" style="enable-background:new 0 0 100 100;" xml:space="preserve">
<path d="M88.2,46C87.4,45.5,69.3,35.7,61,35.7c-5.4,0-7.5,2.3-9,3.9c-1,1.1-1.4,1.4-2.3,1.4c-0.9,0-1.3-0.4-2.3-1.5
	c-1.6-1.6-3.7-3.9-9.1-3.9C30,35.7,11.8,45.5,11,46L9,47l1.3,1.8c0.7,0.9,16.2,22,38.5,22c0.3,0,0.5,0,0.8,0
	c22.8,0.5,38.5-21.1,39.2-22l1.3-1.8L88.2,46z M44.4,42.4c1.1,1.2,2.6,2.7,5.2,2.7c2.7,0,4.1-1.5,5.2-2.7c1.3-1.4,2.5-2.6,6.1-2.6
	c4.6,0,14,4.1,20.4,7.3c-4.5,1-9.1,1.7-13.7,2.2c-9.3,1-18,1.1-18,1.1c-0.1,0-8.8-0.2-18.1-1.1c-4.6-0.5-9.2-1.3-13.8-2.2
	c6.4-3.2,15.8-7.3,20.4-7.3C41.9,39.7,43.1,41,44.4,42.4z M50.4,66.9c-0.2,0-0.5,0-0.7,0l0,1.1l0-1.1l0,1.1l0-1.1
	C35.1,67.2,23.2,57.1,17.4,51c4.5,0.9,9.1,1.7,13.7,2.2c9.5,0.9,18.4,1.1,18.5,1.2c0.1,0,8.9-0.2,18.5-1.2c4.6-0.5,9.1-1.3,13.7-2.2
	C76.2,57,64.7,66.9,50.4,66.9z"/>
</svg>
