<?xml version="1.0" encoding="utf-8"?>
<!-- Generator: Adobe Illustrator 24.0.0, SVG Export Plug-In . SVG Version: 6.00 Build 0)  -->
<svg version="1.1" id="Layer_1" xmlns="http://www.w3.org/2000/svg" xmlns:xlink="http://www.w3.org/1999/xlink" x="0px" y="0px"
	 viewBox="0 0 100 100" style="enable-background:new 0 0 100 100;" xml:space="preserve">
<g>
	<path d="M75.9,33.4c0.1-0.2,0.2-0.3,0.3-0.5l3.9,2.8c0.4,0.3,0.9,0.5,1.5,0.5c0.2,0,0.3,0,0.5,0c0.7-0.1,1.3-0.5,1.6-1l5.4-7.6
		L74.5,17.1l-5.4,7.6c-0.8,1.2-0.6,2.8,0.6,3.6l3.3,2.4c-0.2,0.1-0.3,0.2-0.4,0.4l-2.4,3.4L63,29.3l-0.1,0.1l-1.5-1.1
		c-0.9-0.6-2.1-0.4-2.8,0.5c-0.6,0.9-0.4,2.1,0.5,2.8l1.5,1L39.2,62.1c-0.8,1.1-0.6,2.7,0.4,3.6l-2.1,5.7c-0.4,1.1,0,2.3,1,3.1
		l1.8,1.3l-7.9,11.5c-0.6,0.9-0.4,2.2,0.5,2.8c0.3,0.2,0.7,0.4,1.1,0.4c0.6,0,1.3-0.3,1.7-0.9l7.9-11.5l1.8,1.3
		c0.5,0.4,1,0.5,1.6,0.5c0.6,0,1.1-0.2,1.6-0.6l4.8-3.7l0.1,0.1c0.5,0.3,1,0.5,1.5,0.5c0.2,0,0.3,0,0.5,0c0.7-0.1,1.3-0.5,1.7-1.1
		l21.5-29.7l1.8,1.3c0.4,0.3,0.8,0.4,1.2,0.4c0.6,0,1.2-0.3,1.6-0.8c0.6-0.9,0.4-2.1-0.5-2.8l-7.6-5.4l-1.7-1.2L75.9,33.4z
		 M75.5,22.7l8,5.7l-2.3,3.2l-8-5.7L75.5,22.7z M67.9,37.8L64,43.2c0,0-0.1,0.1-0.1,0.1l-4.1-2.9l4-5.5L67.9,37.8z M46.8,75.6
		l-5.2-3.8l1.3-3.7l7,5.1L46.8,75.6z M54.6,71.7l-11.4-8.3l14.3-19.7L69,51.9L54.6,71.7z M75.3,43.2l-4,5.5l-4.2-3
		c0,0,0.1-0.1,0.1-0.1l3.8-5.4l1.7,1.2L75.3,43.2z"/>
	<path d="M52.8,60.2c-1.2,0-2.2,0.9-2.2,2.1c0,1.2,1,2.1,2.2,2.1c1.2,0,2.2-0.9,2.2-2.1C55,61.2,54.1,60.2,52.8,60.2z"/>
	<path d="M60.2,50.5c-1.2,0-2.2,0.9-2.2,2.1c0,1.2,1,2.1,2.2,2.1c1.2,0,2.2-0.9,2.2-2.1C62.4,51.4,61.4,50.5,60.2,50.5z"/>
	<path d="M56.6,55.3c-1.2,0-2.2,0.9-2.2,2.1c0,1.2,1,2.1,2.2,2.1s2.2-0.9,2.2-2.1C58.9,56.3,57.9,55.3,56.6,55.3z"/>
	<path d="M40.6,26.4c0-8.7-7.1-15.8-15.8-15.8S9,17.7,9,26.4s7.1,15.8,15.8,15.8S40.6,35.1,40.6,26.4z M36.6,26.4
		c0,2.5-0.8,4.8-2.1,6.7L18.1,16.7c1.9-1.3,4.2-2.1,6.7-2.1C31.3,14.6,36.6,19.9,36.6,26.4z M13,26.4c0-2.5,0.8-4.8,2.1-6.7L31.6,36
		c-1.9,1.3-4.2,2.1-6.7,2.1C18.3,38.1,13,32.9,13,26.4z"/>
</g>
</svg>
