<svg id="Layer_1" data-name="Layer 1" xmlns="http://www.w3.org/2000/svg" viewBox="0 0 100 100"><defs><style>.cls-1,.cls-2,.cls-3,.cls-4,.cls-5,.cls-6{fill:none;stroke:#000;}.cls-1,.cls-3,.cls-4,.cls-5,.cls-6{stroke-linejoin:round;}.cls-1,.cls-2{stroke-width:4px;}.cls-2,.cls-3,.cls-4,.cls-5,.cls-6{stroke-linecap:round;}.cls-2{stroke-miterlimit:10;}.cls-3,.cls-4,.cls-5,.cls-6{stroke-width:3px;}.cls-4{stroke-dasharray:9.25 9.25;}.cls-5{stroke-dasharray:8.2 8.2;}.cls-6{stroke-dasharray:9.58 9.58;}</style></defs><path class="cls-1" d="M72.38,45.2c0-14.41-10.18-26.1-22.74-26.1S26.89,30.79,26.89,45.2c0,9.92,4.82,19.2,11.92,24v0c0,6,4.89,13.52,10.94,13.52s10.94-7.48,10.94-13.52c0-.06,0-.12,0-.18C67.66,64.21,72.38,55,72.38,45.2Z"/><path class="cls-2" d="M9.05,91.31s.94-8.45,6.1-11.73S38.62,71.8,38.62,71.8"/><path class="cls-3" d="M2.22,90.45A28.09,28.09,0,0,1,3,86.53"/><path class="cls-4" d="M6.69,78.11a18.18,18.18,0,0,1,5.16-5.06,59.31,59.31,0,0,1,5.74-3.28"/><path class="cls-3" d="M21.86,68c1.24-.43,2.5-.78,3.84-1.11l-.19-.39q-1-1.48-1.83-3.06"/><path class="cls-5" d="M20.63,55.85A39,39,0,0,1,19.15,45.2c0-18.66,13.68-33.84,30.49-33.84S80.12,26.54,80.12,45.2a37.91,37.91,0,0,1-3.24,14.87"/><path class="cls-3" d="M75.08,63.75c-.59,1.09-1.23,2.13-1.89,3.13l-.07.33c1.33.38,2.61.75,3.84,1.13"/><path class="cls-6" d="M85.91,71.76a26.14,26.14,0,0,1,2.3,1.29,20,20,0,0,1,7.33,9"/><path class="cls-3" d="M97.1,86.53a28.61,28.61,0,0,1,.75,3.92"/><path class="cls-2" d="M90.16,91.31s-.94-8.45-6.1-11.73S60.59,71.8,60.59,71.8"/><path class="cls-1" d="M37.92,68.83s0,0,0,0C46.11,74,53,74,61.36,68.85"/></svg>