<?xml version="1.0" encoding="utf-8"?>
<!-- Generator: Adobe Illustrator 24.2.3, SVG Export Plug-In . SVG Version: 6.00 Build 0)  -->
<svg version="1.1" id="Layer_1" xmlns="http://www.w3.org/2000/svg" xmlns:xlink="http://www.w3.org/1999/xlink" x="0px" y="0px"
	 viewBox="0 0 100 100" style="enable-background:new 0 0 100 100;" xml:space="preserve">
<path d="M90,10.6H46.4c-4,0-7.3,3-7.9,6.8c-4.4,0-8,3.6-8,8v0.3c-4.1,0.4-7.3,3.8-7.3,8V62c0,4.4,3.6,8,8,8h7.1v14.5
	c0,2.2-1.8,4-4,4c-1.1,0-2,0.9-2,2s0.9,2,2,2c4.4,0,8-3.6,8-8V70h7.1c4.4,0,8-3.6,8-8v-5.2h-2h-6.4c-1.1,0-2-0.9-2-2
	c0-1.1,0.9-2,2-2h6.4h2v-10h-2h-6.4c-1.1,0-2-0.9-2-2c0-1.1,0.9-2,2-2h6.4h2v-5.2c0-4.2-3.2-7.6-7.3-8v-0.3c0-4.3-3.4-7.8-7.7-8
	c0.5-1.6,2-2.8,3.8-2.8h20.1v75.8c0,1.1,0.9,2,2,2s2-0.9,2-2V14.6H90c1.1,0,2-0.9,2-2S91.1,10.6,90,10.6z M46.2,25.4v0.2H34.5v-0.2
	c0-2.2,1.8-4,4-4h3.7C44.5,21.4,46.2,23.2,46.2,25.4z"/>
</svg>
