<?xml version="1.0" encoding="utf-8"?>
<!-- Generator: Adobe Illustrator 24.0.0, SVG Export Plug-In . SVG Version: 6.00 Build 0)  -->
<svg version="1.1" id="Layer_1" xmlns="http://www.w3.org/2000/svg" xmlns:xlink="http://www.w3.org/1999/xlink" x="0px" y="0px"
	 viewBox="0 0 100 100" style="enable-background:new 0 0 100 100;" xml:space="preserve">
<g>
	<path d="M95.6,86.7c-0.5-1.2-1.9-1.8-3.2-1.2l-1.8,0.8l-0.7-1.7l5.4-2.4l0-0.1l0.5-0.2c1-0.4,1.5-1.6,1-2.6c-0.4-1-1.6-1.5-2.6-1
		l-0.5,0.2l-2.1-4.7c0,0,0,0,0,0c0,0,0,0,0,0l-6.5-15c0.5-0.2,0.9-0.3,1.4-0.5c1-0.4,1.5-1.6,1.1-2.6c-0.4-1-1.6-1.5-2.6-1.1
		c-0.9,0.3-1.7,0.6-2.6,0.9c-0.3,0-0.5,0-0.8,0l-2.3-2.7c-0.7-0.9-1.9-1.2-2.9-0.8l-0.7,0.3l-2.8-6.3c2.4-2.8,4-7.1,4-11.9
		c0-8.7-4.9-15.5-11.2-15.5c-6.3,0-11.2,6.8-11.2,15.5c0,8.7,4.9,15.5,11.2,15.5c1.4,0,2.7-0.4,4-1l2.4,5.3l-0.7,0.3
		c-0.8,0.3-1.3,1-1.4,1.8c-12.6-2.4-22.1-13.5-22.1-26.8c0-7.8,3.5-14.6,8.5-19.8c2.3-2.4-0.9-5-2.8-2.8c-3.1,3.4-5.8,7.3-7.5,11.6
		c-1.5-4.2-3.9-8.1-7.1-11.4c-2.9-3-5.4,0.2-2.9,2.8c5,5.1,7.8,12,7.8,19.1c0,15.1-12.2,27.3-27.3,27.3c-3.5,0-6.9-0.7-10.1-1.9
		c-1-0.4-2.2,0.2-2.6,1.2c-0.4,1,0.1,2.1,1.1,2.5c3.7,1.5,7.7,2.2,11.6,2.2c11.8,0,22.1-6.6,27.5-16.3l-0.2,38.7c0,1.1,0.9,2,2,2
		c1.1,0,2-0.9,2-2l0.2-37.6c4.6,8.1,12.8,13.9,22.4,15.4l0,0.2L69,60.8l0.4,0.9c-0.1,0.5-0.1,1,0.1,1.5l9.5,21.8l-0.7,0.3
		c-1,0.4-1.5,1.6-1,2.6c0.3,0.7,1.1,1.2,1.8,1.2c0.3,0,0.5-0.1,0.8-0.2l5.6-2.5l0.7-0.3l0.7,1.7l-2.2,1c-0.6,0.3-1,0.7-1.3,1.3
		c-0.2,0.6-0.2,1.2,0,1.8l2.8,6.3L98.3,93L95.6,86.7z M65.7,45.5c-3.9,0-7.2-5.3-7.2-11.5c0-6.2,3.3-11.5,7.2-11.5
		c3.9,0,7.2,5.3,7.2,11.5c0,2.9-0.7,5.6-1.9,7.7l-3.4-7.4c-0.5-1-1.6-1.5-2.6-1c-1,0.5-1.5,1.6-1,2.6l4,8.9
		C67.3,45.3,66.5,45.5,65.7,45.5z M88.2,80.9L86.9,78l1.8-0.8l1.3,2.9L88.2,80.9z M75,58.1v-1.3l0,0L75,58.1L75,58.1z M77,56
		l0.2,0.3c-0.3,0-0.6,0-1,0.1L77,56z M74.1,62.9l7.1-3.1l6,13.7l-7.4,3.3l-6-13.8L74.1,62.9L74.1,62.9z M82.6,83.4l-1.3-2.9l1.9-0.9
		l1.3,2.9l-0.7,0.3L82.6,83.4z M88.3,93.1l-0.5-1.2l4.8-2.1l0.5,1.2L88.3,93.1z"/>
	<path d="M79.4,66.3c0.8,0,1.4-0.6,1.4-1.4s-0.6-1.4-1.4-1.4S78,64.2,78,64.9S78.6,66.3,79.4,66.3z"/>
	<path d="M81.2,72.3c0,0.8,0.6,1.4,1.4,1.4s1.4-0.6,1.4-1.4S83.3,71,82.6,71S81.2,71.6,81.2,72.3z"/>
	<path d="M79.6,68.8c0,0.8,0.6,1.4,1.4,1.4s1.4-0.6,1.4-1.4s-0.6-1.4-1.4-1.4S79.6,68,79.6,68.8z"/>
</g>
</svg>
