<?xml version="1.0" encoding="utf-8"?>
<!-- Generator: Adobe Illustrator 24.0.0, SVG Export Plug-In . SVG Version: 6.00 Build 0)  -->
<svg version="1.1" id="Layer_1" xmlns="http://www.w3.org/2000/svg" xmlns:xlink="http://www.w3.org/1999/xlink" x="0px" y="0px"
	 viewBox="0 0 100 100" style="enable-background:new 0 0 100 100;" xml:space="preserve">
<g>
	<path d="M71.7,49.4c3.9,0,7.1-3.2,7.1-7.1s-3.2-7.1-7.1-7.1s-7.1,3.2-7.1,7.1S67.8,49.4,71.7,49.4z"/>
	<path d="M71.9,29c1.1,0,2-0.9,2-2v-5.5c0-1.1-0.9-2-2-2s-2,0.9-2,2V27C69.9,28.1,70.8,29,71.9,29z"/>
	<path d="M77.6,30c0.2,0.1,0.4,0.1,0.7,0.1c0.8,0,1.6-0.5,1.9-1.3l1.8-5.2c0.4-1-0.2-2.2-1.2-2.5c-1.1-0.4-2.2,0.2-2.5,1.2l-1.8,5.2
		C76,28.5,76.6,29.6,77.6,30z"/>
	<path d="M82.8,31.8c0.4,0.3,0.8,0.4,1.2,0.4c0.6,0,1.2-0.3,1.6-0.8l3.4-4.4c0.7-0.9,0.5-2.1-0.3-2.8c-0.9-0.7-2.1-0.5-2.8,0.3
		L82.4,29C81.8,29.9,81.9,31.1,82.8,31.8z"/>
	<path d="M58.5,32.1c0.4,0.5,1,0.8,1.6,0.8c0.4,0,0.9-0.1,1.2-0.4c0.9-0.7,1-1.9,0.3-2.8l-3.4-4.4c-0.7-0.9-1.9-1-2.8-0.3
		c-0.9,0.7-1,1.9-0.3,2.8L58.5,32.1z"/>
	<path d="M63.9,28.7c0.3,0.8,1.1,1.3,1.9,1.3c0.2,0,0.4,0,0.7-0.1c1-0.4,1.6-1.5,1.2-2.5l-1.8-5.2c-0.4-1-1.5-1.6-2.5-1.2
		c-1,0.4-1.6,1.5-1.2,2.5L63.9,28.7z"/>
	<path d="M61.7,51.4c2.9,1.4,6.5,2.2,10.5,2.2c10,0,17.8-5.1,17.8-11.6s-7.8-11.6-17.8-11.6c-7.6,0-13.9,3-16.5,7.2
		c-0.3-0.2-0.7-0.4-1.1-0.6L53,40.7h0c1.1,0.5,1.6,1.7,1.2,2.8c0,0,0,0,0,0l-7.5,17.7c-0.2,0.5,0,1,0.5,1.2c0,0,0,0,0,0
		c0.1,0.1,0.2,0.1,0.4,0.1c0.4,0,0.7-0.2,0.8-0.6l5.3-12.5c0.3-0.8,1.1-1.4,2-1.4c0.1,0,0.3,0,0.4,0c1.2,0.2,2,1.4,1.7,2.6
		c0,0.2-0.1,0.3-0.1,0.4L46.8,76.8c-2.8,6.6-10.3,9.7-16.9,6.9c0,0,0,0-0.1,0c-0.8-0.3-1.7-0.7-2.5-1.2c-6-3.2-8.9-10.2-7.1-16.7
		c0.3-1,0.6-2,1-3l4.7-11c0.3-0.8,1.1-1.4,2-1.4c0.1,0,0.3,0,0.4,0c1.2,0.2,2,1.4,1.7,2.5c0,0.2-0.1,0.3-0.1,0.5l-2.5,5.9
		c-0.2,0.4,0,0.9,0.4,1.1c0.1,0.1,0.3,0.1,0.4,0.1c0.4,0,0.7-0.2,0.8-0.5l9.3-22.1c0.3-0.8,1.2-1.4,2-1.3l0.1,0
		c0.3,0,0.6,0.1,0.9,0.2c1.1,0.4,1.7,1.7,1.3,2.8c0,0,0,0,0,0l-7.2,16.8c-0.2,0.5,0,1,0.5,1.2c0.1,0,0.1,0.1,0.2,0.1h0.1
		c0.4,0,0.7-0.3,0.9-0.6L45,38.2c0.3-0.7,1.1-1.2,1.9-1.2c1.1,0,2.1,0.9,2.1,2.1c0,0.3-0.1,0.6-0.2,0.9l-7.6,18.1
		c-0.2,0.5,0,1,0.5,1.2c0.1,0,0.2,0.1,0.4,0.1c0.4,0,0.7-0.2,0.8-0.6L50,41.9c0.4-0.8,1.2-1.4,2.1-1.4c0.3,0,0.6,0.1,0.9,0.2h0
		l1.5-3.7c-0.7-0.3-1.4-0.5-2.2-0.5c-0.5-1-1.2-1.9-2.1-2.5c-1-0.7-2.2-1-3.4-1c-0.9,0-1.8,0.2-2.7,0.6c-0.4-0.3-0.8-0.5-1.2-0.7
		c-0.8-0.3-1.6-0.5-2.4-0.5l-0.2,0c-1.3,0-2.6,0.4-3.6,1.1c1.9-2.6,3.1-5.9,3.1-9.4c0-8.7-7.1-15.8-15.8-15.8S8.4,15.5,8.4,24.2
		S15.5,40,24.2,40c4.2,0,8-1.6,10.8-4.3c-0.1,0.2-0.2,0.3-0.3,0.5l-4.3,10.5c-0.4-0.2-0.8-0.3-1.1-0.4c-2.9-0.6-5.8,1-6.9,3.7
		l-4.7,11.1c-0.5,1.1-0.9,2.3-1.2,3.5C14,73,17.8,81.9,25.4,86c0.9,0.5,1.9,1,2.8,1.4c5.9,2.5,12.4,1.4,17.1-2.3
		c2.8,1.7,6,2.6,9.2,2.6c0.1,0,0.2,0,0.4,0c9.5,0,16-8.9,16.3-9.3l1.3-1.8l-2-1.1c-1.3-0.7-8-4.2-11.4-4.2c-2.7,0-3.8,1.2-4.5,1.9
		c0,0,0,0-0.1,0.1c0,0,0,0-0.1-0.1c-0.3-0.3-0.7-0.8-1.3-1.1l8.2-19.4C61.5,52.2,61.6,51.8,61.7,51.4z M35.9,24.2
		c0,2.5-0.8,4.8-2.1,6.7L17.4,14.6c1.9-1.3,4.2-2.1,6.7-2.1C30.7,12.5,35.9,17.7,35.9,24.2z M12.4,24.2c0-2.5,0.8-4.8,2.1-6.7
		l16.4,16.4C29,35.2,26.7,36,24.2,36C17.7,36,12.4,30.7,12.4,24.2z M54.6,83.7c-2.2,0-4.4-0.6-6.4-1.6c0.3-0.4,0.6-0.9,0.9-1.3
		c2.9,0.2,5.2,0.3,5.3,0.3l0.1,0l0.1,0c0.1,0,3.6-0.1,7.5-0.5c0.5-0.1,1-0.1,1.4-0.2C61.2,82.2,58.1,83.8,54.6,83.7z M57.5,75.9
		c0.5-0.5,0.6-0.7,1.6-0.7c0.9,0,2.4,0.5,4.1,1.2c-0.5,0.1-1,0.1-1.5,0.2c-2.1,0.2-4.2,0.3-5.6,0.4C56.7,76.7,57.2,76.3,57.5,75.9z
		 M51.6,75.9c0.3,0.3,0.7,0.8,1.4,1.1c-0.5,0-1.2-0.1-1.9-0.1L51.6,75.9C51.5,75.9,51.5,75.9,51.6,75.9z M72.2,34.4
		c7.5,0,13.8,3.5,13.8,7.6s-6.3,7.6-13.8,7.6S58.4,46.1,58.4,42S64.7,34.4,72.2,34.4z"/>
</g>
</svg>
