<svg id="Layer_1" data-name="Layer 1" xmlns="http://www.w3.org/2000/svg" viewBox="0 0 100 100"><defs><style>.cls-1,.cls-3{fill:none;}.cls-1,.cls-2,.cls-3{stroke:#000;stroke-miterlimit:10;stroke-width:4px;}.cls-1,.cls-2{stroke-linecap:round;}</style></defs><g id="_3" data-name="3"><ellipse class="cls-1" cx="72.2" cy="41.99" rx="15.8" ry="9.62"/><circle class="cls-2" cx="71.73" cy="42.25" r="5.12"/><line class="cls-1" x1="71.88" y1="21.46" x2="71.88" y2="26.98"/><line class="cls-1" x1="80.05" y1="22.85" x2="78.25" y2="28.07"/><line class="cls-1" x1="87.41" y1="25.88" x2="84.01" y2="30.23"/><line class="cls-1" x1="56.68" y1="26.54" x2="60.08" y2="30.89"/><line class="cls-1" x1="64.03" y1="22.85" x2="65.83" y2="28.07"/></g><circle class="cls-3" cx="24.17" cy="24.22" r="13.77"/><path d="M16,13.14a13.7,13.7,0,0,0-2.92,2.92L32.34,35.31a13.94,13.94,0,0,0,2.92-2.92Z"/><path class="cls-3" d="M44.89,82.44a16.29,16.29,0,0,0,9.67,3.28h0c8.78.21,15-8.46,15-8.46s-7.35-4-10.48-4-2.83,2.14-4.55,2.14h0c-1.71,0-1.42-2.14-4.56-2.14"/><path class="cls-3" d="M69.58,77.26a59.5,59.5,0,0,1-7.72,1.39c-3.81.38-7.31.46-7.31.46S51,79,47.23,78.65"/><path d="M40.53,36.4a2.25,2.25,0,0,1,.87.17h0a2.2,2.2,0,0,1,1.28,2.84L35.5,56.21a.92.92,0,0,0,.7,1.27h.14a1,1,0,0,0,.86-.61L45,38.24A2.07,2.07,0,0,1,46.87,37a2.07,2.07,0,0,1,1.88,2.94L41.19,58.06a.92.92,0,0,0,.49,1.2h0a.91.91,0,0,0,.35.07.92.92,0,0,0,.85-.56L50,41.88a2.27,2.27,0,0,1,2.09-1.38,2.31,2.31,0,0,1,.88.18l.06,0a2.17,2.17,0,0,1,1.15,2.86L46.65,61.24a.91.91,0,0,0,.48,1.2h0a.94.94,0,0,0,.36.08.92.92,0,0,0,.84-.56l5.3-12.52a2.26,2.26,0,0,1,2-1.41,1.9,1.9,0,0,1,.41,0,2.18,2.18,0,0,1,1.59,3L46.78,76.79a12.93,12.93,0,0,1-17,6.88h0c-.8-.34-1.65-.74-2.51-1.2a14.58,14.58,0,0,1-7.08-16.71,24.31,24.31,0,0,1,1-3l4.68-11a2.27,2.27,0,0,1,2-1.4,1.81,1.81,0,0,1,.4,0,2.17,2.17,0,0,1,1.59,3l-2.45,5.85a.87.87,0,0,0,.41,1.12h0a.82.82,0,0,0,.4.1.9.9,0,0,0,.82-.54l9.32-22.1a2.22,2.22,0,0,1,2.05-1.35m0-4h0a6.22,6.22,0,0,0-5.73,3.79L30.34,46.77a6.53,6.53,0,0,0-1.14-.35,6.19,6.19,0,0,0-6.94,3.72L17.58,61.2a28.41,28.41,0,0,0-1.22,3.5A18.46,18.46,0,0,0,25.41,86c.94.51,1.89,1,2.84,1.36a16.91,16.91,0,0,0,22.21-9l10.9-25.73a6.17,6.17,0,0,0-3.27-8.09,6.15,6.15,0,0,0-.18-4.12A6.07,6.07,0,0,0,54.6,37L53,40.68,54.53,37a6.18,6.18,0,0,0-2.15-.49,6,6,0,0,0-2.1-2.5,6.1,6.1,0,0,0-3.41-1,6,6,0,0,0-2.67.62A6.56,6.56,0,0,0,43,32.89a6.09,6.09,0,0,0-2.42-.49Z"/></svg>