<?xml version="1.0" encoding="utf-8"?>
<!-- Generator: Adobe Illustrator 24.0.0, SVG Export Plug-In . SVG Version: 6.00 Build 0)  -->
<svg version="1.1" id="Layer_1" xmlns="http://www.w3.org/2000/svg" xmlns:xlink="http://www.w3.org/1999/xlink" x="0px" y="0px"
	 viewBox="0 0 100 100" style="enable-background:new 0 0 100 100;" xml:space="preserve">
<g>
	<path d="M70.6,37.7L70.1,37c-2.6-4.2-4.4-8.9-5.3-13.8c-0.4-2.3-0.7-4.6-0.8-6.9c-0.1-1.1-0.9-1.9-2-1.9c0,0-0.1,0-0.1,0
		c-1.1,0.1-2,1-1.9,2.1c0.1,2.5,0.4,5,0.9,7.4c1,5.4,3,10.5,5.9,15.2l0.5,0.7c2.8,4.4,4.4,7.3,2.1,10.4c-1.8,2.4-4.5,3.8-7.5,4.2
		c0.9-1.4,1.6-2.7,2.2-3.8c0.5-1,0.1-2.2-0.9-2.7c-1-0.5-2.2-0.1-2.7,0.9c-3,6-6.7,9.6-9.8,9.6c-3.1,0-6.8-3.6-9.8-9.6
		c-0.5-1-1.7-1.4-2.7-0.9c-1,0.5-1.4,1.7-0.9,2.7c0.5,0.9,1.1,2,1.7,3.1c-2-0.1-5.3-0.8-7.3-3.5c-2.4-3.2-0.8-6.1,2-10.4l0.5-0.7
		c3.6-5.6,6.1-13.2,6.9-21.5c0.1-1.1-0.7-2.1-1.8-2.2c-1.1-0.1-2.1,0.7-2.2,1.8c-0.7,7.7-3,14.7-6.2,19.7l-0.5,0.7
		c-2.7,4.2-6.1,9.4-1.9,15c3.4,4.5,8.7,5.2,11.3,5.2c0.9,0,1.4-0.1,1.5-0.1c0.2,0,0.3-0.1,0.5-0.1c2.3,2.7,5.3,4.8,8.8,4.8
		c0.7,0,1.4-0.1,2.1-0.3v3.3h-0.9c-2.3,0-4.2,1.9-4.2,4.2v11v6.5c0,1.1,0.4,2.2,1.2,2.9s1.8,1.2,3,1.2H65c2.3,0,4.2-1.9,4.2-4.2
		v-6.5V69.6c0-2.3-1.9-4.2-4.2-4.2h-1v-6.8c0-0.2,0-0.3,0-0.5c3.3-0.8,6.3-2.6,8.5-5.4C76.6,47.1,73.3,41.9,70.6,37.7z M65,69.4
		c0.1,0,0.2,0.1,0.2,0.2v11.1H51.6v-11c0-0.1,0.1-0.2,0.2-0.2h4.9V61c0-0.2,0.1-0.3,0.2-0.5c0.8-0.7,2.1-0.7,2.9,0l0.2,0.2v8.7H65z"
		/>
	<path d="M37.1,67.6c0.2-1.4,2.6-4.3,3.8-5.7c0.2-0.3,0.6-0.3,0.9-0.1c0.1,0.1,0.1,0.1,0.2,0.2c0.8,1.7,2.2,5.1,2,6.6
		c-0.2,1.9-1.9,3.3-3.8,3.1c-1.9-0.2-3.3-1.9-3.1-3.8C37.1,67.8,37.1,67.7,37.1,67.6L37.1,67.6z"/>
	<path d="M35.4,79.8c0.2-1.4,2.6-4.3,3.8-5.7c0.2-0.3,0.7-0.3,0.9-0.1c0.1,0.1,0.1,0.1,0.2,0.2c0.8,1.7,2.2,5.1,2,6.6
		c-0.4,1.9-2.2,3.1-4.1,2.7C36.4,83.2,35.2,81.6,35.4,79.8L35.4,79.8z"/>
</g>
</svg>
