<svg id="Layer_1" data-name="Layer 1" xmlns="http://www.w3.org/2000/svg" viewBox="0 0 100 100"><defs><style>.cls-1{fill:none;stroke:#000;stroke-linecap:round;stroke-miterlimit:10;stroke-width:4px;}</style></defs><g id="_5" data-name="5"><path class="cls-1" d="M31.85,12.6c7.95,9,7.42,36.38-2.68,52C26,69.63,22,75,26.27,80.7,30.84,86.87,38,84.49,38,84.49"/><path class="cls-1" d="M63.2,84.49S70.4,86.87,75,80.7c4.24-5.74.31-11.07-2.91-16.06C62,49,62,23.72,69.44,12.07"/><path class="cls-1" d="M36.94,78.61c3.3,6.59,8.27,12.78,13.82,12.78S61.28,85.2,64.58,78.61"/></g><line class="cls-1" x1="85.47" y1="74.89" x2="97.13" y2="74.89"/><line class="cls-1" x1="85.47" y1="65.69" x2="97.13" y2="60.78"/><line class="cls-1" x1="97.13" y1="88.69" x2="85.47" y2="83.78"/><line class="cls-1" x1="15.84" y1="74.89" x2="4.18" y2="74.89"/><line class="cls-1" x1="15.84" y1="65.69" x2="4.18" y2="60.78"/><line class="cls-1" x1="4.18" y1="88.69" x2="15.84" y2="83.78"/></svg>