<?xml version="1.0" encoding="utf-8"?>
<!-- Generator: Adobe Illustrator 24.2.3, SVG Export Plug-In . SVG Version: 6.00 Build 0)  -->
<svg version="1.1" id="Layer_1" xmlns="http://www.w3.org/2000/svg" xmlns:xlink="http://www.w3.org/1999/xlink" x="0px" y="0px"
	 viewBox="0 0 100 100" style="enable-background:new 0 0 100 100;" xml:space="preserve">
<g>
	<path d="M3.4,85.1c-0.8-0.2-1.6,0.3-1.8,1c-0.4,1.4-0.6,2.7-0.8,4.1c-0.1,0.8,0.5,1.6,1.3,1.7c0.1,0,0.1,0,0.2,0
		c0.7,0,1.4-0.6,1.5-1.3c0.2-1.2,0.4-2.5,0.7-3.7C4.7,86.1,4.2,85.3,3.4,85.1z"/>
	<path d="M7.9,79c1.3-1.9,2.9-3.4,4.7-4.6c0.5-0.3,1.1-0.7,1.6-1c0.7-0.4,0.9-1.3,0.5-2.1c-0.4-0.7-1.3-0.9-2.1-0.5
		c-0.6,0.3-1.1,0.7-1.7,1.1c-2.2,1.4-4.1,3.3-5.6,5.5C5,78,5.2,78.9,5.8,79.4c0.3,0.2,0.6,0.3,0.8,0.3C7.2,79.6,7.6,79.4,7.9,79z"/>
	<path d="M22.4,64.1c0.3,0.6,0.7,1.2,1,1.8c-0.7,0.2-1.4,0.4-2,0.6c-0.8,0.3-1.2,1.1-0.9,1.9c0.2,0.6,0.8,1,1.4,1
		c0.2,0,0.3,0,0.5-0.1c1.1-0.4,2.3-0.7,3.7-1.1c0.4-0.1,0.8-0.4,1-0.8c0.2-0.4,0.2-0.9,0-1.3l-0.2-0.4c0-0.1-0.1-0.1-0.1-0.2
		c-0.6-0.9-1.2-1.9-1.7-2.9c-0.4-0.7-1.3-1-2-0.6C22.2,62.5,22,63.4,22.4,64.1z"/>
	<path d="M24.7,25.7c0.3,0.2,0.6,0.3,0.9,0.3c0.5,0,0.9-0.2,1.2-0.6c1.5-2.2,3.3-4.1,5.2-5.8c0.6-0.5,0.7-1.5,0.2-2.1
		c-0.5-0.6-1.5-0.7-2.1-0.2c-2.1,1.8-4.1,4-5.7,6.4C23.8,24.3,24,25.2,24.7,25.7z"/>
	<path d="M19.3,41.1c0.1,0,0.2,0,0.2,0c0.7,0,1.4-0.5,1.5-1.3c0.4-2.6,1.1-5.2,2-7.6c0.3-0.8-0.1-1.6-0.8-1.9
		c-0.8-0.3-1.6,0.1-1.9,0.8c-1,2.6-1.8,5.4-2.2,8.2C18,40.2,18.5,41,19.3,41.1z"/>
	<path d="M20.6,57.3c0.1,0,0.3,0,0.4-0.1c0.8-0.2,1.3-1.1,1-1.9c-0.7-2.5-1.2-5.1-1.3-7.8c-0.1-0.8-0.8-1.5-1.6-1.4
		c-0.8,0.1-1.5,0.8-1.4,1.6c0.2,2.8,0.7,5.6,1.4,8.4C19.4,56.9,20,57.3,20.6,57.3z"/>
	<path d="M37.9,15.5c0.2,0,0.4,0,0.6-0.1c2.4-1.1,4.9-1.8,7.4-2.2c0.8-0.1,1.4-0.9,1.3-1.7c-0.1-0.8-0.9-1.4-1.7-1.3
		c-2.8,0.4-5.6,1.2-8.2,2.5c-0.8,0.4-1.1,1.2-0.7,2C36.8,15.2,37.3,15.5,37.9,15.5z"/>
	<path d="M78.3,40.1c0.1,0.7,0.7,1.3,1.5,1.3c0.1,0,0.1,0,0.2,0c0.8-0.1,1.4-0.9,1.3-1.7c-0.4-2.8-1.1-5.6-2.1-8.2
		c-0.3-0.8-1.2-1.2-1.9-0.9c-0.8,0.3-1.2,1.2-0.9,1.9C77.2,35,77.9,37.5,78.3,40.1z"/>
	<path d="M80.1,46.6c-0.8-0.1-1.6,0.5-1.6,1.4c-0.2,2.6-0.7,5.2-1.5,7.7c-0.2,0.8,0.2,1.6,1,1.9c0.2,0,0.3,0.1,0.5,0.1
		c0.6,0,1.2-0.4,1.4-1c0.9-2.7,1.4-5.5,1.7-8.3C81.5,47.4,80.9,46.7,80.1,46.6z"/>
	<path d="M72.7,25.6c0.3,0.4,0.8,0.7,1.2,0.7c0.3,0,0.6-0.1,0.8-0.3c0.7-0.5,0.9-1.4,0.4-2.1c-1.6-2.4-3.5-4.5-5.7-6.4
		c-0.6-0.5-1.6-0.5-2.1,0.1c-0.5,0.6-0.5,1.6,0.1,2.1C69.4,21.4,71.2,23.4,72.7,25.6z"/>
	<path d="M53.6,13.2c2.5,0.4,5,1.2,7.4,2.3c0.2,0.1,0.4,0.1,0.6,0.1c0.6,0,1.1-0.3,1.4-0.9c0.4-0.7,0-1.6-0.7-2
		c-2.6-1.3-5.4-2.1-8.2-2.6c-0.8-0.1-1.6,0.4-1.7,1.3C52.3,12.3,52.8,13,53.6,13.2z"/>
	<path d="M73.8,63c-0.5,1-1.1,1.9-1.8,3c-0.1,0.2-0.2,0.3-0.2,0.5l-0.1,0.3c-0.2,0.8,0.3,1.5,1.1,1.8c1.3,0.4,2.6,0.7,3.8,1.1
		c0.1,0,0.3,0.1,0.4,0.1c0.6,0,1.2-0.4,1.4-1.1c0.2-0.8-0.2-1.6-1-1.9c-0.7-0.2-1.4-0.4-2.1-0.6c0.4-0.6,0.7-1.2,1.1-1.8
		c0.4-0.7,0.1-1.6-0.6-2C75.1,62,74.2,62.3,73.8,63z"/>
	<path d="M89,71.8c-0.8-0.5-1.6-1-2.4-1.4c-0.7-0.4-1.6-0.1-2,0.7c-0.4,0.7-0.1,1.6,0.7,2c0.7,0.4,1.5,0.8,2.1,1.2
		c1.8,1.2,3.3,2.7,4.6,4.4c0.3,0.4,0.8,0.6,1.2,0.6c0.3,0,0.6-0.1,0.9-0.3c0.7-0.5,0.8-1.4,0.3-2.1C92.9,74.9,91.1,73.2,89,71.8z"/>
	<path d="M99.3,90.3c-0.2-1.4-0.4-2.8-0.8-4.1c-0.2-0.8-1-1.3-1.8-1.1c-0.8,0.2-1.3,1-1.1,1.8c0.3,1.2,0.6,2.5,0.7,3.7
		c0.1,0.8,0.7,1.3,1.5,1.3c0.1,0,0.1,0,0.2,0C98.9,91.8,99.4,91.1,99.3,90.3z"/>
	<path d="M85.1,77.9c-4.5-2.9-17.9-6.4-22.5-7.6c0-0.1,0-0.1,0-0.2c7.1-5.4,11.7-15,11.7-24.9c0-15.5-11.1-28.1-24.7-28.1
		c-13.6,0-24.8,12.6-24.8,28.1c0,9.9,4.6,19.6,11.9,25c-4.4,1.1-18.1,4.8-22.7,7.7c-5.9,3.8-7,12.8-7,13.2c-0.1,1.1,0.7,2.1,1.8,2.2
		c0.1,0,0.2,0,0.2,0c1,0,1.9-0.8,2-1.8c0-0.1,0.9-7.5,5.2-10.3c3.7-2.3,15.6-5.7,21.4-7.2c1.9,5.5,6.5,10.6,12.1,10.6
		c4.8,0,10.2-4.3,12.2-10.5c5.9,1.5,17.5,4.8,21.1,7.1c4.3,2.7,5.2,10.2,5.2,10.3c0.1,1,1,1.8,2,1.8c0.1,0,0.1,0,0.2,0
		c1.1-0.1,1.9-1.1,1.8-2.2C92.1,90.7,91,81.6,85.1,77.9z M49.8,80.7c-3.6,0-6.9-3.7-8.3-7.7c2.7,1.2,5.4,1.8,8.1,1.8
		c2.8,0,5.6-0.6,8.5-1.9C56.7,76.9,53.4,80.7,49.8,80.7z M40.4,68c-0.1-0.2-0.3-0.3-0.4-0.4c-6.7-4.5-11-13.3-11-22.3
		c0-13.3,9.3-24.1,20.8-24.1c11.4,0,20.7,10.8,20.7,24.1c0,8.9-4.2,17.6-10.8,22.2c-0.2,0.1-0.4,0.3-0.5,0.5
		C52.4,71.6,46.9,71.7,40.4,68z"/>
</g>
</svg>
