<svg id="Layer_1" data-name="Layer 1" xmlns="http://www.w3.org/2000/svg" viewBox="0 0 100 100"><path d="M22.07,60.81a27.08,27.08,0,0,1-10.14-2l-1.49,3.72a31.23,31.23,0,0,0,11.63,2.23ZM49.38,33.5A27.31,27.31,0,0,1,22.07,60.81v4A31.31,31.31,0,0,0,53.38,33.5ZM41.57,14.38A27.24,27.24,0,0,1,49.38,33.5h4a31.17,31.17,0,0,0-8.92-21.88C41.52,8.61,39,11.77,41.57,14.38ZM11.93,58.86a2,2,0,0,0-1.49,3.72Z"/><path d="M53.39,34.1c0-7.81,3.54-14.59,8.54-19.83,2.32-2.43-.9-4.95-2.82-2.84-5.58,6.11-9.72,13.75-9.72,22.67ZM80.7,61.41A27.31,27.31,0,0,1,53.39,34.1h-4A31.31,31.31,0,0,0,80.7,65.41Zm9.91-1.85a27.15,27.15,0,0,1-9.91,1.85v4a31.18,31.18,0,0,0,11.37-2.13Zm1.46,3.72a2,2,0,1,0-1.46-3.72Z"/><path d="M49.57,44.58l-.26,42.67a2,2,0,0,0,2,2h0a2,2,0,0,0,2-2l.26-42.63Zm4,.07c0-1.9-.88-3.46-2-3.48s-2,1.51-2,3.41Z"/></svg>