<svg id="Layer_1" data-name="Layer 1" xmlns="http://www.w3.org/2000/svg" viewBox="0 0 100 100"><defs><style>.cls-1,.cls-2{fill:none;stroke:#000;stroke-miterlimit:10;stroke-width:4px;}.cls-2{stroke-linecap:round;}</style></defs><path d="M16.43,55.79A27.33,27.33,0,0,1,6.28,53.85L4.79,57.56a31.28,31.28,0,0,0,11.64,2.23ZM43.74,28.48A27.31,27.31,0,0,1,16.43,55.79v4A31.31,31.31,0,0,0,47.74,28.48ZM35.92,9.36a27.21,27.21,0,0,1,7.82,19.12h4A31.18,31.18,0,0,0,38.81,6.6C35.87,3.59,33.37,6.76,35.92,9.36ZM6.28,53.85a2,2,0,0,0-1.49,3.71Z"/><path d="M47.74,29.08c0-7.81,3.54-14.59,8.54-19.83,2.32-2.43-.89-4.95-2.82-2.83-5.57,6.1-9.72,13.74-9.72,22.66ZM75.05,56.39A27.31,27.31,0,0,1,47.74,29.08h-4A31.31,31.31,0,0,0,75.05,60.39ZM85,54.54a27.15,27.15,0,0,1-9.91,1.85v4a31.17,31.17,0,0,0,11.37-2.12Zm1.46,3.73A2,2,0,0,0,85,54.54Z"/><path d="M43.92,39.57l-.26,42.67a2,2,0,0,0,2,2h0a2,2,0,0,0,2-2l.26-42.62Zm4,.07c0-1.91-.87-3.46-2-3.48s-2,1.5-2,3.41Z"/><path class="cls-1" d="M76.29,58.54H87.47a.45.45,0,0,1,.45.45V84.73a0,0,0,0,1,0,0H75.84a0,0,0,0,1,0,0V59a.45.45,0,0,1,.45-.45Z" transform="translate(-21.78 38.61) rotate(-23.51)"/><path class="cls-1" d="M81,57.75l-8.52,3.7-.65-5a.45.45,0,0,1,.27-.47l5.15-2.24a.43.43,0,0,1,.52.13Z"/><line class="cls-2" x1="79.02" y1="87.21" x2="94.95" y2="80.14"/><line class="cls-2" x1="65.78" y1="35.1" x2="74.29" y2="53.88"/><line class="cls-2" x1="84.85" y1="78.33" x2="88.86" y2="87.36"/><path class="cls-2" d="M86.22,88.79h8.42a.39.39,0,0,1,.39.39v4.89a0,0,0,0,1,0,0H85.83a0,0,0,0,1,0,0V89.18A.39.39,0,0,1,86.22,88.79Z" transform="translate(-29.31 44.54) rotate(-23.93)"/><line class="cls-2" x1="78.71" y1="79.48" x2="89.75" y2="74.58"/><ellipse class="cls-1" cx="65.69" cy="34.01" rx="9.18" ry="13.48"/><circle cx="79.42" cy="64.94" r="1.4"/><circle cx="82.56" cy="72.35" r="1.4"/><circle cx="80.99" cy="68.79" r="1.4"/></svg>