<svg id="Layer_1" data-name="Layer 1" xmlns="http://www.w3.org/2000/svg" viewBox="0 0 100 100"><defs><style>.cls-1,.cls-2{fill:none;stroke:#000;stroke-miterlimit:10;stroke-width:4px;}.cls-2{stroke-linecap:round;}</style></defs><path class="cls-1" d="M50.88,33.64H67.65a.68.68,0,0,1,.68.68V72.92a0,0,0,0,1,0,0H50.2a0,0,0,0,1,0,0V34.32A.67.67,0,0,1,50.88,33.64Z" transform="translate(75.96 131.21) rotate(-144.05)"/><path class="cls-1" d="M42,65l11.28,8.19-6,4.65a.68.68,0,0,1-.81,0l-6.82-4.95a.69.69,0,0,1-.24-.78Z"/><line class="cls-2" x1="81.56" y1="45.11" x2="60.29" y2="29.92"/><line class="cls-2" x1="33.97" y1="88.47" x2="42.11" y2="76.62"/><line class="cls-2" x1="65.65" y1="44.34" x2="74.26" y2="32.28"/><path class="cls-2" d="M72,23.2H84.64a.58.58,0,0,1,.58.58v7.33a0,0,0,0,1,0,0H71.43a0,0,0,0,1,0,0V23.79A.58.58,0,0,1,72,23.2Z" transform="translate(126.28 94.77) rotate(-144.47)"/><line class="cls-2" x1="71.82" y1="51.4" x2="57.07" y2="40.87"/><ellipse cx="52.82" cy="62.33" rx="2.23" ry="2.09"/><ellipse cx="60.21" cy="52.59" rx="2.23" ry="2.09"/><ellipse cx="56.63" cy="57.41" rx="2.23" ry="2.09"/><circle class="cls-1" cx="24.82" cy="26.36" r="13.77"/><path d="M16.65,15.27a13.94,13.94,0,0,0-2.92,2.92L33,37.44a13.48,13.48,0,0,0,2.92-2.92Z"/></svg>