<svg id="Layer_1" data-name="Layer 1" xmlns="http://www.w3.org/2000/svg" viewBox="0 0 100 100"><defs><style>.cls-1{fill:#fff;}.cls-2{fill:none;stroke:#000;stroke-miterlimit:10;stroke-width:3px;}</style></defs><path class="cls-1" d="M76.37,80.06H66.46V68.48h9.91a5.17,5.17,0,0,1,5.16,5.16V74.9A5.15,5.15,0,0,1,76.37,80.06Z"/><path d="M79,74.9a3.43,3.43,0,0,1-3.44,3.44v3.44a6.87,6.87,0,0,0,6.88-6.88Zm0-1.26V74.9h3.44V73.64ZM75.51,70.2A3.45,3.45,0,0,1,79,73.64h3.44a6.89,6.89,0,0,0-6.88-6.88Zm-9.91,0h9.91V66.76H65.6Zm1.72,9.86V68.48H63.88V80.06Zm8.19-1.72H65.6v3.44h9.91ZM65.6,68.48V66.76H63.88v1.72Zm0,11.58H63.88v1.72H65.6Z"/><path d="M72.1,83H49.19V65.52H72.1a5.16,5.16,0,0,1,5.16,5.16v7.14A5.16,5.16,0,0,1,72.1,83Z"/><path d="M75.54,77.82a3.44,3.44,0,0,1-3.44,3.44V84.7A6.88,6.88,0,0,0,79,77.82Zm0-7.14v7.14H79V70.68ZM72.1,67.24a3.44,3.44,0,0,1,3.44,3.44H79A6.88,6.88,0,0,0,72.1,63.8Zm-22.91,0H72.1V63.8H49.19ZM50.91,83V65.52H47.47V83ZM72.1,81.26H49.19V84.7H72.1Zm5.16-3.44h0ZM49.19,65.52V63.8H47.47v1.72Zm0,17.46H47.47V84.7h1.72Z"/><polygon points="47.99 16.94 47.99 16.94 47.99 18.86 47.99 16.94"/><path d="M59.91,46.75,59,24.09h0a7.44,7.44,0,0,0-7.46-7.15v0H48v0a7.46,7.46,0,0,0-7.44,7.75l1.84-.07h0l-1.84.07h0l.84,20.75,1.92-.08-.19,1.91L57.8,48.74,58,46.82h0l-.19,1.92L60,49ZM56,44.69,45.16,43.61l-.62-15.36,10.77,0ZM48,20.78h3.54a3.62,3.62,0,0,1,3.62,3.47l1.92-.08h0l-1.88.08h0v.13l-10.76,0A3.61,3.61,0,0,1,48,20.78Z"/><polygon points="41.39 45.44 41.45 47.1 43.12 47.27 43.31 45.36 41.39 45.44"/><path d="M63.62,83.1h-18a5,5,0,0,1-4.95-4.66L38.32,38a5,5,0,0,1,8-4.23l12.31,9.4a5,5,0,0,1,1.93,3.52Z"/><path d="M58.79,46.82l3.12,36.42L65.33,83,62.22,46.53Zm-1.26-2.3a3.24,3.24,0,0,1,1.26,2.3l3.43-.29a6.69,6.69,0,0,0-2.59-4.74Zm-12.3-9.4,12.31,9.4,2.08-2.73-12.3-9.4ZM40,37.89a3.23,3.23,0,0,1,5.19-2.76l2.09-2.74a6.68,6.68,0,0,0-10.72,5.7Zm2.39,40.44L40,37.89l-3.44.2L39,78.54Zm3.23,3a3.23,3.23,0,0,1-3.23-3L39,78.54a6.68,6.68,0,0,0,6.67,6.28Zm18,0h-18v3.44h18Zm-3.11-34.7,1.71-.15h0Zm-1.93-3.52,1.05-1.37h0Zm-12.31-9.4,1-1.37h0Zm-8,4.23-1.72.1h0Zm2.39,40.45-1.72.1h0ZM63.62,83.1v1.72h1.87L65.33,83Z"/><path d="M87.84,76.29h6.4V72.85h-6.4Zm6.4,0a1.72,1.72,0,0,0,0-3.44Zm-6.4-3.44a1.72,1.72,0,1,0,0,3.44Z"/><path d="M84.83,81.07l5.54,3.2,1.72-3-5.54-3.2Zm5.54,3.2a1.72,1.72,0,0,0,1.72-3Zm-3.82-6.18a1.72,1.72,0,1,0-1.72,3Z"/><path d="M86.55,71.06l5.54-3.2-1.72-3-5.54,3.2Zm5.54-3.2a1.72,1.72,0,0,0-1.72-3Zm-7.26.22a1.72,1.72,0,0,0,1.72,3Z"/><path class="cls-2" d="M18.63,18.18a2.2,2.2,0,0,1,3.81,0l5.42,9.4L33.29,37a2.2,2.2,0,0,1-1.91,3.3H9.68A2.2,2.2,0,0,1,7.78,37l5.43-9.39Z"/><path d="M18.9,22.69a.8.8,0,0,1,.77-.94h1.58a.81.81,0,0,1,.8.94l-.77,9a.81.81,0,0,1-.82.79.78.78,0,0,1-.79-.79Zm1.56,11.37A1.5,1.5,0,0,1,22,35.58v.21a1.56,1.56,0,0,1-3.12,0v-.21A1.52,1.52,0,0,1,20.46,34.06Z"/></svg>