<?xml version="1.0" encoding="utf-8"?>
<!-- Generator: Adobe Illustrator 24.2.3, SVG Export Plug-In . SVG Version: 6.00 Build 0)  -->
<svg version="1.1" id="Layer_1" xmlns="http://www.w3.org/2000/svg" xmlns:xlink="http://www.w3.org/1999/xlink" x="0px" y="0px"
	 viewBox="0 0 100 100" style="enable-background:new 0 0 100 100;" xml:space="preserve">
<path d="M93.3,60.7c-0.4-1-1.5-1.6-2.5-1.2c-0.1,0-0.1,0-0.2,0.1c-3.2,1.2-6.5,1.9-9.9,1.8c-15.1,0-27.3-12.2-27.3-27.3
	c0-7.8,3.5-14.6,8.5-19.8c2.3-2.4-0.9-5-2.8-2.8c-3.1,3.4-5.8,7.3-7.5,11.6c-1.5-4.2-3.9-8.1-7.1-11.4c-2.9-3-5.5,0.2-2.9,2.8
	c5,5.1,7.8,12,7.8,19.1c0,15.1-12.2,27.3-27.3,27.3c-3.5,0-6.9-0.7-10.1-2l0,0c-1-0.4-2.2,0.1-2.6,1.1c-0.4,1,0.1,2.2,1.1,2.6l0,0
	c3.7,1.5,7.6,2.2,11.6,2.2v0c11.8,0,22.2-6.6,27.5-16.3l-0.2,38.7c0,1.1,0.9,2,2,2s2-0.9,2-2l0.2-37.6c5.4,9.4,15.5,15.7,27.2,15.7
	c3.9,0,7.7-0.7,11.4-2.1C93.1,62.9,93.7,61.8,93.3,60.7z"/>
</svg>
