<svg id="Layer_1" data-name="Layer 1" xmlns="http://www.w3.org/2000/svg" viewBox="0 0 100 100"><defs><style>.cls-1,.cls-2{fill:none;}.cls-1,.cls-2,.cls-3{stroke:#000;stroke-miterlimit:10;stroke-width:4px;}.cls-1{stroke-linecap:round;}</style></defs><path d="M37.13,67.57c.2-1.41,2.57-4.33,3.76-5.72A.66.66,0,0,1,42,62c.75,1.67,2.19,5.14,2,6.55a3.47,3.47,0,1,1-6.86-1Z"/><path d="M35.36,79.78c.21-1.42,2.58-4.33,3.77-5.73a.66.66,0,0,1,1.1.16c.75,1.68,2.2,5.14,2,6.56a3.47,3.47,0,0,1-6.86-1Z"/><g id="_5" data-name="5"><path class="cls-1" d="M39.16,17.37C38.45,24.73,36.29,32.31,32.6,38c-2.7,4.18-6,8.64-2.43,13.43C34,56.62,41.1,55.71,41.1,55.71"/><path class="cls-1" d="M61,56.51a12.89,12.89,0,0,0,9.85-5c3.55-4.79.26-9.25-2.43-13.43a41.69,41.69,0,0,1-5.59-14.5A53.32,53.32,0,0,1,62,16.44"/><path class="cls-1" d="M39.1,49.71C41.85,55.22,46,60.4,50.65,60.4s8.79-5.18,11.55-10.69"/></g><path class="cls-2" d="M65,67.39H62V58.64c0-.75-.32,0-.87-.52V59a4.18,4.18,0,0,0-5.54,0h0a2.59,2.59,0,0,0-.88,2v6.46H51.8a2.16,2.16,0,0,0-2.16,2.17V87.12a2.16,2.16,0,0,0,2.16,2.17H65a2.17,2.17,0,0,0,2.16-2.17V69.56A2.17,2.17,0,0,0,65,67.39Z"/><path class="cls-3" d="M49.64,82.65v4.47a2.16,2.16,0,0,0,2.16,2.17H65a2.17,2.17,0,0,0,2.16-2.17V82.65Z"/></svg>