<?xml version="1.0" encoding="utf-8"?>
<!-- Generator: Adobe Illustrator 24.2.3, SVG Export Plug-In . SVG Version: 6.00 Build 0)  -->
<svg version="1.1" id="Layer_1" xmlns="http://www.w3.org/2000/svg" xmlns:xlink="http://www.w3.org/1999/xlink" x="0px" y="0px"
	 viewBox="0 0 100 100" style="enable-background:new 0 0 100 100;" xml:space="preserve">
<g>
	<path d="M35.5,57l12.3-2.3c1.4-0.3,2.3-1.6,2.1-3c-0.3-1.4-1.6-2.3-3-2.1l-4.6,0.9l7.4-12.7c0.7-1.2,0.3-2.8-0.9-3.6
		c-1.2-0.7-2.8-0.3-3.6,0.9l-7.4,12.7l-1.5-4.4c-0.5-1.4-2-2.1-3.3-1.6c-1.4,0.5-2.1,2-1.6,3.3L35.5,57z"/>
	<path d="M92.6,38.5l-4.6-3.3l-1-0.7L88,33l2,1.4c0.4,0.3,0.9,0.4,1.4,0.4c0.7,0,1.5-0.3,1.9-1l4-5.6l-10.7-7.7l-4,5.6
		c-0.8,1.1-0.5,2.6,0.6,3.3l1.6,1.1l-1,1.5l-4.8-3.4l-0.5-0.3c-0.9-0.6-2.1-0.4-2.8,0.5c-0.6,0.9-0.4,2.1,0.5,2.8l0.4,0.3l-3,4.1
		c0,0,0,0-0.1,0.1c0,0,0,0,0,0.1L62.6,51.1C62,52,62,53.2,62.7,54l-1.3,3.5c-0.4,1,0,2.1,0.9,2.8l0.6,0.5L59,66.5H47.6
		c-1.4,0-2.7,0.8-3.3,2c-1.1,1.9-3.5,2.6-5.5,1.5c-0.6-0.4-1.1-0.9-1.4-1.4c-0.7-1.2-2-2-3.4-2.1h-4.7c-1.4,0-2.7,0.8-3.3,2
		c-1.1,1.9-3.6,2.6-5.5,1.5c-0.6-0.4-1.1-0.9-1.5-1.4c-0.7-1.2-2-2-3.4-2h-4c-1.1,0-2,0.9-2,2s0.9,2,2,2l3.9,0
		c0.7,1.2,1.7,2.2,2.9,2.9c3.8,2.2,8.7,0.9,10.9-2.9h4.5c0.7,1.2,1.7,2.2,2.9,2.9c1.3,0.7,2.6,1.1,4,1.1c2.8,0,5.4-1.4,6.9-4h10.7
		c0.1,0.1,0.1,0.1,0.2,0.2c0.3,0.2,0.7,0.4,1.1,0.4c0.5,0,1-0.2,1.3-0.5h27c1.1,0,2-0.9,2-2s-0.9-2-2-2H63.8l2.3-3.4l0.7,0.5
		c0.4,0.3,0.9,0.4,1.4,0.4c0.5,0,1.1-0.2,1.5-0.5l2.9-2.2c0.3,0.1,0.7,0.2,1,0.2c0.8,0,1.5-0.4,2-1l14-19.2l0.7,0.5
		c0.4,0.3,0.8,0.4,1.2,0.4c0.6,0,1.2-0.3,1.6-0.8C93.7,40.4,93.5,39.2,92.6,38.5z M79.8,34.3l1.6,1.1L79.5,38l-1.6-1.2L79.8,34.3z
		 M68.2,59.7l-2.6-1.9l0.4-1.2l3.2,2.3L68.2,59.7z M73.3,56.9l-6.5-4.7l8.8-12.1l6.6,4.7L73.3,56.9z M84.5,41.6l-1.7-1.2l1.9-2.6
		l1,0.7l0.7,0.5L84.5,41.6z M87.5,26.2l4.2,3l-0.7,1l-4.2-3L87.5,26.2z"/>
	<ellipse cx="72.2" cy="51.6" rx="1.5" ry="1.4"/>
	<ellipse cx="77.2" cy="45.1" rx="1.5" ry="1.4"/>
	<path d="M74.8,46.9c-0.8,0-1.5,0.6-1.5,1.4c0,0.8,0.7,1.4,1.5,1.4c0.8,0,1.5-0.6,1.5-1.4C76.3,47.6,75.6,46.9,74.8,46.9z"/>
	<path d="M17.7,77.2h-5.6c-1.1,0-2,0.9-2,2s0.9,2,2,2h5.6c1.1,0,2-0.9,2-2S18.8,77.2,17.7,77.2z"/>
	<path d="M31.7,77.2h-5.6c-1.1,0-2,0.9-2,2s0.9,2,2,2h5.6c1.1,0,2-0.9,2-2S32.8,77.2,31.7,77.2z"/>
	<path d="M45.7,77.2h-5.6c-1.1,0-2,0.9-2,2s0.9,2,2,2h5.6c1.1,0,2-0.9,2-2S46.8,77.2,45.7,77.2z"/>
	<path d="M59.7,77.2h-5.6c-1.1,0-2,0.9-2,2s0.9,2,2,2h5.6c1.1,0,2-0.9,2-2S60.8,77.2,59.7,77.2z"/>
	<path d="M73.7,77.2h-5.6c-1.1,0-2,0.9-2,2s0.9,2,2,2h5.6c1.1,0,2-0.9,2-2S74.8,77.2,73.7,77.2z"/>
	<path d="M87.7,77.2h-5.6c-1.1,0-2,0.9-2,2s0.9,2,2,2h5.6c1.1,0,2-0.9,2-2S88.8,77.2,87.7,77.2z"/>
	<path d="M17.7,84.4h-5.6c-1.1,0-2,0.9-2,2s0.9,2,2,2h5.6c1.1,0,2-0.9,2-2S18.8,84.4,17.7,84.4z"/>
	<path d="M31.7,84.4h-5.6c-1.1,0-2,0.9-2,2s0.9,2,2,2h5.6c1.1,0,2-0.9,2-2S32.8,84.4,31.7,84.4z"/>
	<path d="M45.7,84.4h-5.6c-1.1,0-2,0.9-2,2s0.9,2,2,2h5.6c1.1,0,2-0.9,2-2S46.8,84.4,45.7,84.4z"/>
	<path d="M59.7,84.4h-5.6c-1.1,0-2,0.9-2,2s0.9,2,2,2h5.6c1.1,0,2-0.9,2-2S60.8,84.4,59.7,84.4z"/>
	<path d="M73.7,84.4h-5.6c-1.1,0-2,0.9-2,2s0.9,2,2,2h5.6c1.1,0,2-0.9,2-2S74.8,84.4,73.7,84.4z"/>
	<path d="M87.7,84.4h-5.6c-1.1,0-2,0.9-2,2s0.9,2,2,2h5.6c1.1,0,2-0.9,2-2S88.8,84.4,87.7,84.4z"/>
</g>
</svg>
