<?xml version="1.0" encoding="utf-8"?>
<!-- Generator: Adobe Illustrator 24.2.3, SVG Export Plug-In . SVG Version: 6.00 Build 0)  -->
<svg version="1.1" id="Layer_1" xmlns="http://www.w3.org/2000/svg" xmlns:xlink="http://www.w3.org/1999/xlink" x="0px" y="0px"
	 viewBox="0 0 100 100" style="enable-background:new 0 0 100 100;" xml:space="preserve">
<g>
	<path d="M74.3,64.4l-0.5-0.8c-9.9-15.3-9.5-39.6-2.6-50.4c0.6-0.9,0.3-2.2-0.6-2.8c-0.9-0.6-2.2-0.3-2.8,0.6
		c-7.7,12-8.2,38,2.7,54.7l0.5,0.8c3.5,5.4,5.4,8.9,2.4,13c-2.9,3.9-7.1,3.6-8.8,3.3c0.7-1.2,1.3-2.3,1.8-3.3c0.5-1,0.1-2.2-0.9-2.7
		c-1-0.5-2.2-0.1-2.7,0.9c-3.7,7.3-8.2,11.7-12,11.7c-3.9,0-8.4-4.4-12-11.7c-0.5-1-1.7-1.4-2.7-0.9c-1,0.5-1.4,1.7-0.9,2.7
		c0.5,1,1.1,2.1,1.8,3.2c-1.5,0.3-6,0.9-9-3.2c-2.9-3.9-1.1-7.5,2.3-12.8l0.6-1C41,49.9,42.3,21.5,33.3,11.3c-0.7-0.8-2-0.9-2.8-0.2
		c-0.8,0.7-0.9,2-0.2,2.8c3.4,3.9,5.3,12.4,4.9,22.1c-0.4,10.5-3.3,20.5-7.8,27.5l-0.6,1c-3.1,4.9-7,10.9-2.2,17.3
		c2.9,3.9,7,5.1,10.2,5.1c1.5,0,2.8-0.2,3.8-0.6c0.2-0.1,0.4-0.2,0.6-0.3c2.9,3.8,6.8,7.3,11.6,7.3c4.7,0,8.6-3.4,11.5-7.2
		c0.1,0.1,0.2,0.1,0.3,0.2c0.9,0.3,2.3,0.6,3.8,0.6c3.2,0,7.3-1.1,10.2-5.1C81.4,75.3,77.5,69.3,74.3,64.4z"/>
	<path d="M97.1,76.9H85.5c-1.1,0-2-0.9-2-2s0.9-2,2-2h11.7c1.1,0,2,0.9,2,2S98.2,76.9,97.1,76.9z"/>
	<path d="M85.5,67.7c-0.8,0-1.5-0.5-1.8-1.2c-0.4-1,0-2.2,1.1-2.6l11.7-4.9c1-0.4,2.2,0,2.6,1.1c0.4,1,0,2.2-1.1,2.6l-11.7,4.9
		C86,67.6,85.7,67.7,85.5,67.7z"/>
	<path d="M97.1,90.7c-0.3,0-0.5-0.1-0.8-0.2l-11.7-4.9c-1-0.4-1.5-1.6-1.1-2.6c0.4-1,1.6-1.5,2.6-1.1l11.7,4.9
		c1,0.4,1.5,1.6,1.1,2.6C98.7,90.2,97.9,90.7,97.1,90.7z"/>
	<path d="M15.8,76.9H4.2c-1.1,0-2-0.9-2-2s0.9-2,2-2h11.7c1.1,0,2,0.9,2,2S16.9,76.9,15.8,76.9z"/>
	<path d="M15.8,67.7c-0.3,0-0.5-0.1-0.8-0.2L3.4,62.6c-1-0.4-1.5-1.6-1.1-2.6c0.4-1,1.6-1.5,2.6-1.1l11.7,4.9c1,0.4,1.5,1.6,1.1,2.6
		C17.4,67.2,16.6,67.7,15.8,67.7z"/>
	<path d="M4.2,90.7c-0.8,0-1.5-0.5-1.8-1.2c-0.4-1,0-2.2,1.1-2.6l11.7-4.9c1-0.4,2.2,0,2.6,1.1s0,2.2-1.1,2.6L5,90.5
		C4.7,90.6,4.4,90.7,4.2,90.7z"/>
</g>
</svg>
