<?xml version="1.0" encoding="utf-8"?>
<!-- Generator: Adobe Illustrator 24.0.0, SVG Export Plug-In . SVG Version: 6.00 Build 0)  -->
<svg version="1.1" id="Layer_1" xmlns="http://www.w3.org/2000/svg" xmlns:xlink="http://www.w3.org/1999/xlink" x="0px" y="0px"
	 viewBox="0 0 100 100" style="enable-background:new 0 0 100 100;" xml:space="preserve">
<g>
	<path d="M26.3,40.2C35,40.2,42,33.2,42,24.5S35,8.7,26.3,8.7s-15.8,7.1-15.8,15.8S17.6,40.2,26.3,40.2z M38,24.5
		c0,2.5-0.8,4.8-2.1,6.7L19.6,14.8c1.9-1.3,4.2-2.1,6.7-2.1C32.8,12.7,38,18,38,24.5z M16.6,17.7L33,34.1c-1.9,1.3-4.2,2.1-6.7,2.1
		c-6.5,0-11.8-5.3-11.8-11.8C14.5,22,15.3,19.6,16.6,17.7z"/>
	<path d="M89.4,64c-0.8-0.4-18.9-10.2-27.2-10.2c-5.4,0-7.5,2.3-9,3.9c-1,1.1-1.4,1.4-2.3,1.4c-0.9,0-1.3-0.4-2.3-1.5
		c-1.6-1.6-3.7-3.9-9.1-3.9c-8.3,0-26.4,9.8-27.2,10.2l-2,1.1l1.3,1.8c0.7,0.9,16.2,22,38.5,22c0.3,0,0.5,0,0.8,0c0.3,0,0.5,0,0.8,0
		c22.3,0,37.7-21.1,38.4-22l1.3-1.8L89.4,64z M45.6,60.4c1.1,1.2,2.6,2.7,5.2,2.7c2.7,0,4.1-1.5,5.2-2.7c1.3-1.4,2.5-2.6,6.1-2.6
		c4.6,0,14,4.1,20.4,7.3c-4.5,1-9.1,1.7-13.7,2.2c-9.3,1-18,1.1-18,1.1c-0.1,0-8.8-0.2-18.1-1.1c-4.6-0.5-9.2-1.3-13.7-2.2
		c6.4-3.2,15.8-7.3,20.4-7.3C43.1,57.8,44.3,59.1,45.6,60.4z M50.9,84.9l0,0.8L50.9,84.9l-0.1,0.8L50.9,84.9
		c-14.6,0.3-26.5-9.8-32.2-15.9c4.5,0.9,9.1,1.7,13.7,2.2c9.5,0.9,18.4,1.1,18.6,1.2c0.1,0,8.9-0.2,18.4-1.2
		c4.6-0.5,9.1-1.3,13.7-2.2C77.3,75.1,65.5,85.3,50.9,84.9z"/>
</g>
</svg>
