<?xml version="1.0" encoding="utf-8"?>
<!-- Generator: Adobe Illustrator 24.2.3, SVG Export Plug-In . SVG Version: 6.00 Build 0)  -->
<svg version="1.1" id="Layer_1" xmlns="http://www.w3.org/2000/svg" xmlns:xlink="http://www.w3.org/1999/xlink" x="0px" y="0px"
	 viewBox="0 0 100 100" style="enable-background:new 0 0 100 100;" xml:space="preserve">
<g>
	<path d="M42.6,91.9c-0.6,0-1.2,0-1.8-0.1c-6.4-0.8-12.4-5.3-14.9-11.3c-4.7-11.4-3.8-32,2.2-47.8l0,0C34.7,15.5,45.7,7,59.1,8.8
		c5.9,0.8,11.2,4.4,15,10.1c4.5,6.7,6.1,15.3,4.1,22.4c-1.6,6-5.8,10-9.8,13.9c-0.7,0.6-1.3,1.3-1.9,1.9c-3.7,3.5-6.3,7.9-7.7,12.7
		c-0.3,1.3-0.6,2.9-0.9,4.5c-0.6,3.8-1.3,8.2-3.8,11.5C51.3,89.8,47.2,91.9,42.6,91.9z M31.9,34.1c-5.6,14.7-6.6,34.4-2.3,44.8
		c1.9,4.7,6.7,8.3,11.6,8.9c3.9,0.5,7.3-1,9.6-4.2c1.9-2.6,2.5-6.3,3.1-9.8c0.3-1.7,0.5-3.4,1-4.9c1.6-5.6,4.6-10.6,8.8-14.5
		c0.6-0.6,1.3-1.3,1.9-1.9c3.8-3.7,7.5-7.2,8.8-12.1c1.6-5.9,0.2-13.5-3.6-19.2c-3.1-4.7-7.5-7.7-12.2-8.3
		C43.2,10.7,35.3,25.3,31.9,34.1L31.9,34.1z"/>
	<path d="M64.7,39.2c-0.1-0.3-0.1-0.6-0.2-0.9c-0.7-3.2-1.8-8.1-5.1-9.6c-2.2-1-4.4-1.1-6.4-0.2c-4.5,2-6.7,8.5-8.1,13.2
		c-1.2,4.2-2.2,8.4-3.2,12.6c-0.8,3.3-1.6,6.7-2.5,10c-0.3,1.1,0.3,2.2,1.4,2.4l0,0c4.1,1,8.4-1.5,9.4-5.6c0.9-3.5-0.8-7-3.8-8.7
		c0.8-3.2,1.6-6.5,2.5-9.7c1.7-6,3.7-9.6,5.9-10.6c0.6-0.3,1.5-0.5,3,0.2c1.6,0.7,2.5,4.9,2.9,6.8c0.1,0.3,0.1,0.7,0.2,1
		c0.3,1.1,1.3,1.7,2.4,1.5C64.3,41.3,65,40.3,64.7,39.2z"/>
</g>
</svg>
