<svg id="Layer_1" data-name="Layer 1" xmlns="http://www.w3.org/2000/svg" viewBox="0 0 100 100"><defs><style>.cls-1,.cls-2{fill:none;stroke:#000;stroke-miterlimit:10;stroke-width:4px;}.cls-2{stroke-linecap:round;}</style></defs><path class="cls-1" d="M38.54,19.4h3.71a6,6,0,0,1,6,6v2.22a0,0,0,0,1,0,0H32.54a0,0,0,0,1,0,0V25.4A6,6,0,0,1,38.54,19.4Z"/><path class="cls-2" d="M40.39,19.4v-.79a6,6,0,0,1,6-6H90"/><line class="cls-2" x1="68.51" y1="12.61" x2="68.51" y2="90.45"/><path d="M47.11,40.79a2,2,0,0,1,2-2h6.4V31.62a4,4,0,0,0-4-4H29.28a4,4,0,0,0-4,4V64a4,4,0,0,0,4,4H51.51a4,4,0,0,0,4-4V56.79h-6.4a2,2,0,0,1,0-4h6.4v-10h-6.4A2,2,0,0,1,47.11,40.79Z"/><path d="M55.51,62a6,6,0,0,1-6,6H31.28a6,6,0,0,1-6-6V33.62a6,6,0,0,1,6-6H49.51a6,6,0,0,1,6,6v5.17h2V33.62a8,8,0,0,0-8-8H31.28a8,8,0,0,0-8,8V62a8,8,0,0,0,8,8H49.51a8,8,0,0,0,8-8V56.79h-2Z"/><rect x="55.51" y="42.79" width="2" height="10"/><path class="cls-2" d="M40.39,68V84.45a6,6,0,0,1-6,6"/></svg>