<?xml version="1.0" encoding="utf-8"?>
<!-- Generator: Adobe Illustrator 24.2.3, SVG Export Plug-In . SVG Version: 6.00 Build 0)  -->
<svg version="1.1" id="Layer_1" xmlns="http://www.w3.org/2000/svg" xmlns:xlink="http://www.w3.org/1999/xlink" x="0px" y="0px"
	 viewBox="0 0 100 100" style="enable-background:new 0 0 100 100;" xml:space="preserve">
<polygon points="48.5,22.3 44.3,20.3 40.2,22.6 40.8,18 37.3,14.9 42,14 43.9,9.7 46.1,13.8 50.8,14.3 47.5,17.7 "/>
<polygon points="79.1,24 74.9,22 70.8,24.3 71.4,19.7 68,16.5 72.6,15.7 74.5,11.4 76.7,15.5 81.4,16 78.2,19.4 "/>
<path d="M11.3,34.7c0.3,0.2,0.7,0.3,1.1,0.3c0.7,0,1.3-0.3,1.7-0.9c0.6-0.9,0.3-2.2-0.6-2.8c-0.6-0.4-1-1-1.2-1.8
	c0.1-2.2,6.8-6.2,21.6-8.6c1.1-0.2,1.8-1.2,1.7-2.3c-0.2-1.1-1.2-1.8-2.3-1.7C25.6,18.2,8,21.9,8.3,29.7c0,0.1,0,0.1,0,0.2
	C8.5,31.9,9.6,33.6,11.3,34.7z"/>
<path d="M54.4,19.2c3.3-0.1,6.5,0,9.7,0.2c0,0,0.1,0,0.1,0c1,0,1.9-0.8,2-1.9c0.1-1.1-0.8-2.1-1.9-2.1c-3.3-0.2-6.7-0.3-10.1-0.2
	c-1.1,0-2,0.9-2,2C52.4,18.4,53.3,19.3,54.4,19.2z"/>
<path d="M47.1,45.4c-1,0.5-2.2,0.9-3.4,0.9c-1.1,0-2.1-0.3-3-0.9c-0.9-0.6-2.2-0.4-2.8,0.5c-0.6,0.9-0.4,2.2,0.5,2.8
	c1.5,1.1,3.4,1.6,5.2,1.6l0.1,0l0.1,0c1.8-0.1,3.5-0.5,5.1-1.4c1-0.5,1.4-1.7,0.9-2.7C49.3,45.2,48.1,44.9,47.1,45.4z"/>
<path d="M62.5,45c-1,0.5-2.2,0.9-3.4,0.9c-1.1,0-2.1-0.4-2.9-1c-0.9-0.6-2.2-0.4-2.8,0.5c-0.6,0.9-0.4,2.2,0.5,2.8
	c1.5,1.1,3.3,1.7,5.2,1.7l0.1,0l0.1,0c1.8-0.1,3.5-0.5,5.1-1.4c1-0.5,1.4-1.7,0.8-2.7C64.7,44.8,63.5,44.5,62.5,45z"/>
<path d="M96,96.1c0-0.4-1.2-9.7-7.2-13.5c-4.9-3.2-20.2-7.1-24-8.1c6.9-5.5,11.3-15,11.3-24.5c0-3.9-0.7-7.5-1.9-10.9
	c12.4-2.4,21.5-6.5,21.3-12.1c-0.1-3.5-3.7-6.4-10.8-8.5c-1.1-0.3-2.2,0.3-2.5,1.3c-0.3,1.1,0.3,2.2,1.3,2.5
	c5.8,1.7,7.9,3.7,7.9,4.8c0.1,2.2-6.4,5.9-19,8.2C68.1,27.4,60.3,22,51.4,22c-10.1,0-18.7,6.8-22.6,16.6l-0.4-2.1l3.2-3.4L27,32.7
	l-2.2-4.1l-1.9,4.3l-4.6,0.9l3.5,3.1l-0.6,4.6l4-2.3l3,1.4c-0.9,2.9-1.4,6.1-1.4,9.4c0,9.7,4.5,19.2,11.5,24.7
	c-4.6,1.2-18.6,4.9-23.3,7.9c-6,3.9-7.1,13.2-7.2,13.5c-0.1,1.1,0.7,2.1,1.8,2.2c0.1,0,0.2,0,0.2,0c1,0,1.9-0.8,2-1.8
	c0.2-2.2,1.7-8.3,5.4-10.6c3.8-2.4,16.3-5.9,22.3-7.4c1.7,4.9,6.3,8.6,11.8,8.7c0.1,0,0.3,0,0.4,0c5.7,0,10.6-3.7,12.3-8.9
	c5.7,1.4,18.9,5,22.9,7.6C91,88.8,92,96.5,92,96.6c0.1,1,1,1.8,2,1.8c0.1,0,0.2,0,0.2,0C95.3,98.2,96.1,97.2,96,96.1z M51.4,26
	c6.9,0,13.1,4,16.9,10.1c-4.7,0.7-10.1,1.2-16.1,1.4c-5.7,0.2-11.5,0-17.1-0.5c-0.4,0-0.8,0.1-1.1,0.2C37.6,30.5,44,26,51.4,26z
	 M61.3,72.2c-0.5,0.4-0.8,1-0.8,1.6l0,0.2c0,0.2,0,0.4,0,0.5c-0.1,4.9-4.3,8.8-9.2,8.6c-4.9-0.1-8.8-4.3-8.6-9.2
	c0-0.7-0.3-1.3-0.9-1.7C35,67.8,30.7,59,30.7,50c0-3.8,0.8-7.5,2.2-10.7c0.1,0.9,0.9,1.6,1.8,1.7c4.2,0.4,8.5,0.5,12.7,0.5
	c1.6,0,3.3,0,4.9-0.1c6.1-0.2,12.2-0.7,17.9-1.6c1.3,3.1,2,6.5,2,10.2C72.1,58.9,67.9,67.6,61.3,72.2z"/>
<path d="M86.7,57.3c-0.6,0-1.1-0.4-1.2-1l-0.2-1.5c-0.1-0.6,0.2-1.1,0.8-1.3c0.1,0,0.1,0,0.2,0c1.8-0.2,2.7-0.8,2.7-1.8l0,0
	c0-1-0.7-1.5-2-1.5c-0.9,0-1.8,0.3-2.5,0.8c-0.3,0.2-0.6,0.3-1,0.3c-0.8,0-1.5-0.7-1.5-1.5c0-0.4,0.2-0.9,0.6-1.2
	c1.2-1,2.8-1.6,4.4-1.5c3.1,0,5.2,1.6,5.2,4.4l0,0c0,2.7-1.9,3.8-4.2,4.3l-0.1,0.4c-0.1,0.6-0.6,1-1.2,1L86.7,57.3z M86.7,58.7
	c1,0,1.8,0.7,1.8,1.7c0,0,0,0.1,0,0.1l0,0c0,1-0.8,1.8-1.9,1.8c-1,0-1.8-0.8-1.8-1.8l0,0C84.8,59.5,85.6,58.7,86.7,58.7
	C86.6,58.7,86.7,58.7,86.7,58.7z"/>
<path d="M11,14.1c-0.6,0-1.1-0.5-1.1-1.1l-0.2-1.4c-0.2-0.5,0.1-1.1,0.7-1.2c0.1,0,0.2,0,0.3,0c1.9-0.2,2.7-0.8,2.7-1.9l0,0
	c0-1-0.7-1.5-2-1.5c-0.9,0-1.8,0.3-2.5,0.9C8.6,8,8.3,8.2,7.9,8.2c-0.8,0-1.5-0.7-1.4-1.5c0-0.4,0.2-0.9,0.5-1.2
	c1.2-1,2.8-1.6,4.4-1.5c3.1,0,5.1,1.6,5.1,4.4l0,0c0,2.7-1.9,3.8-4.2,4.3L12.3,13c-0.1,0.6-0.6,1-1.1,1.1L11,14.1z M11,15.5
	c1,0,1.8,0.7,1.8,1.7c0,0,0,0.1,0,0.1l0,0c0,1-0.7,1.8-1.7,1.9c0,0-0.1,0-0.1,0c-1,0-1.8-0.7-1.8-1.7c0,0,0-0.1,0-0.1l0,0
	c0-1,0.7-1.8,1.7-1.9C10.9,15.5,11,15.5,11,15.5z"/>
<path d="M11,68.6c-0.6,0-1.1-0.4-1.1-1l-0.2-1.4c-0.2-0.5,0.1-1.1,0.7-1.2c0.1,0,0.2,0,0.3,0c1.9-0.2,2.7-0.8,2.7-1.8l0,0
	c0-1-0.7-1.5-2-1.5c-0.9,0-1.8,0.3-2.5,0.9c-0.3,0.2-0.6,0.3-1,0.3c-0.8,0-1.5-0.7-1.5-1.5c0-0.5,0.2-0.9,0.6-1.2
	c1.2-1,2.8-1.6,4.4-1.5c3.1,0,5.1,1.6,5.1,4.4l0,0c0,2.7-1.9,3.8-4.2,4.3l-0.1,0.4c-0.1,0.6-0.6,1-1.1,1L11,68.6z M11,70
	c1,0,1.8,0.7,1.8,1.7c0,0,0,0.1,0,0.1l0,0c0,1-0.8,1.8-1.7,1.8c0,0-0.1,0-0.1,0c-1,0-1.8-0.7-1.8-1.7c0,0,0-0.1,0-0.1l0,0
	c0-1,0.8-1.8,1.7-1.8C10.9,70,11,70,11,70z"/>
</svg>
