<?xml version="1.0" encoding="utf-8"?>
<!-- Generator: Adobe Illustrator 24.0.0, SVG Export Plug-In . SVG Version: 6.00 Build 0)  -->
<svg version="1.1" id="Layer_1" xmlns="http://www.w3.org/2000/svg" xmlns:xlink="http://www.w3.org/1999/xlink" x="0px" y="0px"
	 viewBox="0 0 100 100" style="enable-background:new 0 0 100 100;" xml:space="preserve">
<g>
	<path d="M62.8,32.3c1.5,0,2.8-1.2,2.8-2.8c0-1.1-1.3-3.4-2.2-4.7c-0.1-0.1-0.1-0.2-0.2-0.2c-0.3-0.2-0.8-0.1-1,0.2
		c-0.8,1.3-2.2,3.6-2.2,4.7C60,31.1,61.2,32.3,62.8,32.3z"/>
	<path d="M33.6,46.4c-0.3-0.2-0.8-0.1-1,0.2c-0.8,1.3-2.2,3.6-2.2,4.7c0.1,1.4,1.2,2.5,2.6,2.6c1.5,0.1,2.9-1.1,3-2.6
		c0-1.1-1.4-3.4-2.2-4.7C33.7,46.5,33.7,46.4,33.6,46.4z"/>
	<path d="M86.7,74.5c-5.1-3.2-20.8-7.3-24.5-8.2c7-5.5,11.5-15.1,11.5-25c0-15.7-11.3-28.5-25.1-28.5S23.5,25.6,23.5,41.3
		c0,9.9,4.6,19.6,11.7,25.1c-4.6,1.2-19,5-23.8,8.1c-6.1,3.9-7.3,13.4-7.3,13.8c-0.1,1.1,0.7,2.1,1.8,2.2c0.1,0,0.2,0,0.2,0
		c1,0,1.9-0.8,2-1.8c0.2-2.2,1.7-8.4,5.5-10.8c3.9-2.5,16.9-6.1,22.8-7.6c0.6,1.7,1.7,3.3,3,4.7c2.5,2.5,5.8,3.8,9.3,3.8
		c0,0,0,0,0,0c5.7,0,10.5-3.6,12.3-8.7c5.7,1.4,19.4,5.2,23.4,7.8C89,80.7,90,88.6,90,88.7c0.1,1,1,1.8,2,1.8c0.1,0,0.2,0,0.2,0
		c1.1-0.1,1.9-1.1,1.8-2.2C93.9,87.8,92.8,78.4,86.7,74.5z M57.9,65.5v0.2c0,5-4.1,9.1-9.1,9.1c0,0,0,0,0,0c-2.4,0-4.7-0.9-6.4-2.7
		c-1.7-1.7-2.7-4-2.7-6.4c0-0.7-0.3-1.3-0.9-1.7C32,59.4,27.5,50.5,27.5,41.3c0-13.5,9.5-24.5,21.1-24.5c11.6,0,21.1,11,21.1,24.5
		c0,9.1-4.3,18-11,22.6C58.2,64.2,57.9,64.8,57.9,65.5z"/>
	<path d="M44.2,32.8l-6.2,3.6c-1,0.6-1.3,1.8-0.7,2.7c0.4,0.6,1,1,1.7,1c0.3,0,0.7-0.1,1-0.3l6.2-3.6c1-0.6,1.3-1.8,0.7-2.7
		C46.3,32.5,45.1,32.2,44.2,32.8z"/>
	<path d="M60.7,36.4l-6.2-3.6c-1-0.6-2.2-0.2-2.7,0.7c-0.6,1-0.2,2.2,0.7,2.7l6.2,3.6c0.3,0.2,0.7,0.3,1,0.3c0.7,0,1.4-0.4,1.7-1
		C61.9,38.1,61.6,36.9,60.7,36.4z"/>
	<path d="M74.5,62.1c1.2,2.9,3.4,5.1,6.3,6.3c1.4,0.6,2.9,0.9,4.4,0.9c1.5,0,3-0.3,4.5-0.9c5.9-2.5,8.7-9.3,6.3-15.2
		c-1.1-2.5-2.9-4.6-5.3-5.8l0-28.3c0.1-1.4-0.4-2.8-1.4-3.9c-1-1.1-2.3-1.7-3.7-1.8c-3-0.1-5.5,2.2-5.7,5.1c0,0.2,0,0.4,0,0.5v28.4
		C74.6,50.1,72.2,56.5,74.5,62.1z M82,49.7l0.9-0.4l0-30.4c0-0.1,0-0.2,0-0.3c0.1-1.3,1.1-2.3,2.4-2.3c0,0,0.1,0,0.1,0
		c0.6,0,1.2,0.3,1.7,0.8s0.7,1.1,0.6,1.8v30.4l0.9,0.4c2.1,0.9,3.8,2.5,4.7,4.7c0.9,2.1,0.9,4.5,0,6.6c-0.9,2.1-2.5,3.8-4.7,4.7
		c-2.1,0.9-4.5,0.9-6.6,0c-2.1-0.9-3.8-2.5-4.7-4.7C75.5,56.6,77.6,51.5,82,49.7z"/>
	<path d="M87.3,62.1c2.5-1.1,3.7-4,2.7-6.6c-0.5-1.2-1.5-2.2-2.7-2.7v0V26.7c-0.1-1.1-1-1.9-2.1-1.8c-1,0.1-1.7,0.8-1.8,1.8v26.2
		c-2.5,1.1-3.7,4-2.7,6.6C81.8,62,84.7,63.2,87.3,62.1z"/>
</g>
</svg>
