<?xml version="1.0" encoding="utf-8"?>
<!-- Generator: Adobe Illustrator 24.0.0, SVG Export Plug-In . SVG Version: 6.00 Build 0)  -->
<svg version="1.1" id="Layer_1" xmlns="http://www.w3.org/2000/svg" xmlns:xlink="http://www.w3.org/1999/xlink" x="0px" y="0px"
	 viewBox="0 0 100 100" style="enable-background:new 0 0 100 100;" xml:space="preserve">
<g>
	<path d="M93.5,58L78.6,40c-1.7-2.1-4-3.8-6.4-4.9l-9.1-4c5.2-6.6,4.2-16.2-2.3-21.5c-6.6-5.4-16.3-4.5-21.7,2.1
		c-2.6,3.2-3.8,7.2-3.4,11.3c0.3,3.1,1.5,5.9,3.4,8.2l-8.8,3.9c-2.5,1.1-4.7,2.8-6.4,4.9L8.8,58c-0.1,0.1-0.1,0.2-0.2,0.3
		c-2.9,3.8-2.2,9.1,1.6,12l20.7,15.9c1,2.8,1.8,4.9,1.9,5l0.3,0.7l0.7,0.3c0.4,0.2,8.8,4.3,17.5,4.3c8.4,0,17.1-4.1,17.5-4.3
		l0.7-0.3l0.3-0.7c0-0.1,0.8-2.1,1.8-5l20.7-15.9c0.1-0.1,0.2-0.1,0.2-0.2c1.8-1.5,2.8-3.5,3-5.8C95.7,62,95,59.8,93.5,58z
		 M51.2,92.5c-6.4,0-13-2.6-15-3.6c-0.1-0.3-0.3-0.7-0.4-1.1l0.7-0.2c1.5-0.4,2.7-1.3,3.4-2.5c2.1,4,6.3,6.7,11.1,6.7
		c4.9,0,9.2-2.9,11.2-7c0.7,1.4,2,2.5,3.6,2.9l0.8,0.2c-0.2,0.4-0.3,0.8-0.4,1.1C64.1,89.9,57.4,92.5,51.2,92.5z M42.5,79.2
		c0-4.7,3.8-8.5,8.5-8.5s8.5,3.8,8.5,8.5c0,4.7-3.8,8.5-8.5,8.5S42.5,83.9,42.5,79.2z M89.9,67.1L68.6,83.4c0,0,0,0,0,0L67.8,84
		l-0.9-0.3c-0.8-0.2-1.4-1-1.2-1.9l0.1-0.6l8.3-7.9c0,0,0,0,0,0l7.8-7.4c1.6-1.5,1.8-4,0.4-5.8l-8.4-8.9c-1.1-1.2-3-1.2-4.1-0.1
		c-0.7,0.6-1,1.6-0.9,2.5l0.3,2.2c0.6,4.8,1.5,11.9,1.5,15.2l-7.2,6.8c-0.7-6.3-6-11.2-12.4-11.2c-6.3,0-11.6,4.7-12.4,10.8
		l-6.8-6.4c0.2-3.4,0.8-9.5,1.8-17.4c0.1-0.8-0.1-1.5-0.6-2.2c-0.5-0.6-1.2-1-1.9-1.1c-0.9-0.1-1.9,0.2-2.5,0.9l-8.1,8.6
		c-0.8,0.8-1.2,1.9-1.2,3c0,1.1,0.5,2.1,1.2,2.8l7.8,7.5c0.1,0.1,0.2,0.2,0.3,0.2l8.2,7.7l0.1,0.6c0.1,0.9-0.4,1.7-1.3,1.9L34.6,84
		l-0.5-0.4c-0.2-0.2-0.3-0.3-0.5-0.4L12.6,67.2c-2-1.5-2.4-4.4-0.8-6.4l15-18.1c1.3-1.6,3.1-2.9,5-3.8l14.7-6.5c1-0.4,1.5-1.6,1-2.6
		c-0.4-1-1.6-1.5-2.6-1l-2.1,0.9c-1.8-1.9-3-4.3-3.2-6.9c-0.3-3,0.6-6,2.6-8.4c4-4.9,11.2-5.6,16.1-1.6c4.9,4,5.6,11.2,1.6,16.1
		c-0.2,0.2-0.4,0.4-0.6,0.6l-1.8-0.8c-1-0.4-2.2,0-2.6,1s0,2.2,1,2.6l14.7,6.5c1.9,0.9,3.6,2.2,5,3.8l14.9,18
		c0.8,0.9,1.2,2.1,1.1,3.3S90.8,66.3,89.9,67.1z M73.2,56.4l5.9,6.3c0.1,0.1,0.1,0.3,0,0.4l-4.7,4.4C74.1,64.2,73.6,60,73.2,56.4z
		 M29.2,56.4c-0.4,3.8-0.9,7.8-1.2,11.1l-4.6-4.4L23.3,63c-0.1,0-0.1-0.1-0.1-0.2s0-0.1,0.1-0.2L29.2,56.4z"/>
	<path d="M45.4,43.5c-1.1,0-2,0.9-2,2v4.9c0,2-0.9,4-2.4,5.3l-3,2.6c-0.8,0.7-0.9,2-0.2,2.8c0.4,0.5,1,0.7,1.5,0.7
		c0.5,0,0.9-0.2,1.3-0.5l3-2.6c2.4-2.1,3.8-5.1,3.8-8.3v-4.9C47.4,44.4,46.5,43.5,45.4,43.5z"/>
	<path d="M61.1,55.6c-1.5-1.3-2.4-3.3-2.4-5.3v-4.9c0-1.1-0.9-2-2-2s-2,0.9-2,2v4.9c0,3.2,1.4,6.2,3.8,8.3l3,2.5
		c0.4,0.3,0.8,0.5,1.3,0.5c0.6,0,1.1-0.2,1.5-0.7c0.7-0.8,0.6-2.1-0.2-2.8L61.1,55.6z"/>
	<path d="M55.7,77.9c-0.4-1.2-1.7-1.8-2.9-1.4l1.3-1.6c0.7-0.9,0.5-2.1-0.3-2.8c-0.9-0.7-2.1-0.5-2.8,0.3l-4.9,6.2
		c-0.8,1-0.6,2.5,0.5,3.3c0.6,0.5,1.4,0.6,2.1,0.4l-1.3,1.6c-0.7,0.9-0.5,2.1,0.3,2.8c0.4,0.3,0.8,0.4,1.2,0.4
		c0.6,0,1.2-0.3,1.6-0.8l4.9-6.2C55.8,79.5,56,78.6,55.7,77.9z"/>
</g>
</svg>
