<?xml version="1.0" encoding="utf-8"?>
<!-- Generator: Adobe Illustrator 24.0.0, SVG Export Plug-In . SVG Version: 6.00 Build 0)  -->
<svg version="1.1" id="Layer_1" xmlns="http://www.w3.org/2000/svg" xmlns:xlink="http://www.w3.org/1999/xlink" x="0px" y="0px"
	 viewBox="0 0 100 100" style="enable-background:new 0 0 100 100;" xml:space="preserve">
<g>
	<path d="M59,40.1c0.6,0,1.2-0.3,1.6-0.8c0.7-0.9,0.5-2.1-0.3-2.8l-2.7-2.2l2.6-0.8c1.1-0.3,1.7-1.4,1.3-2.5
		c-0.3-1.1-1.4-1.7-2.5-1.3l-9.9,3l8.7,6.9C58.1,39.9,58.6,40.1,59,40.1z"/>
	<path d="M35.2,29.7c-1.1-0.3-2.2,0.3-2.5,1.3c-0.3,1.1,0.3,2.2,1.3,2.5l2.6,0.8l-2.7,2.2c-0.9,0.7-1,1.9-0.3,2.8
		c0.4,0.5,1,0.8,1.6,0.8c0.4,0,0.9-0.1,1.2-0.4l8.7-6.9L35.2,29.7z"/>
	<path d="M85.6,67.3C80.6,64.2,65.9,60.3,61,59c0-0.1,0-0.3,0-0.4c7.8-5.9,12.7-16.4,12.7-27c0-16.8-12-30.4-26.8-30.4
		c-14.7,0-26.7,13.6-26.7,30.4c0,10.8,5.1,21.4,13,27.2c0,0,0,0.1,0,0.1c-4.5,1.1-19.9,5.2-24.9,8.4c-1.8,1.2-4.6,4.4-7.3,19.1
		c-1.4,7.8-2.2,15.2-2.2,15.3c-0.1,1.1,0.7,2.1,1.8,2.2c0.1,0,0.1,0,0.2,0c1,0,1.9-0.8,2-1.8c1.4-13.6,4.7-29.5,7.6-31.4
		c4.1-2.6,17.5-6.3,23.7-7.9c0.7,1.8,1.7,3.4,3.1,4.8c2.6,2.6,6.1,4.1,9.8,4.1c0,0,0,0,0,0c3.7,0,7.2-1.4,9.8-4.1
		c1.4-1.4,2.4-2.9,3.1-4.7c6.4,1.6,19.3,5.3,23.3,7.8c2.9,1.9,6.1,17.7,7.2,31.4c0.1,1,1,1.8,2,1.8c0.1,0,0.1,0,0.2,0
		c1.1-0.1,1.9-1.1,1.8-2.2c0-0.1-0.7-7.5-2-15.3C90.1,71.7,87.4,68.5,85.6,67.3z M47.2,67.6C47.2,67.6,47.2,67.6,47.2,67.6
		c-2.6,0-5.1-1-7-2.9c-1.9-1.9-2.9-4.4-2.9-7c0-0.7-0.3-1.3-0.9-1.7c-7.4-5-12.1-14.6-12.1-24.5C24.3,17,34.5,5.1,47,5.1
		c12.6,0,22.8,11.9,22.8,26.4c0,9.7-4.6,19.3-11.8,24.3c-0.5,0.4-0.9,1-0.9,1.6v0.2c0,2.6-1,5.1-2.9,7S49.8,67.6,47.2,67.6z"/>
	<path d="M77,78.9l1.4-1c-0.3-0.4-0.6-0.7-1-1c0.1-0.8-0.1-1.7-0.4-2.5c-0.7-1.6-2.2-2.8-4-3.2c-0.1-0.2-0.2-0.4-0.4-0.6
		c-1.1-1.5-2.7-2.4-4.6-2.4c-1.2,0-2.3,0.3-3.2,1l-6.3,4.5l-0.1-0.1c-1-1-2.4-1.5-3.8-1.5c-1.2,0-2.4,0.4-3.3,1.1L44,78.4
		c-0.8,0.6-1.5,1.2-2.3,1.8c-3.3,3-5,7.2-4.8,11.4L23,98.6c-1,0.5-1.4,1.7-0.9,2.7c0.4,0.7,1.1,1.1,1.8,1.1c0.3,0,0.6-0.1,0.9-0.2
		l12.8-6.4c0.3,1,0.7,2,1.3,2.9c0.4,0.7,0.9,1.4,1.3,2.1c4.4,6.2,12.9,7.6,19.1,3.2c0,0,0,0,0,0l17.1-12.1c2.3-1.6,3-4.6,1.8-7.1
		c0.6-0.8,1.1-1.7,1.2-2.7c0.2-1.5-0.1-3-1-4.2L77,78.9z M74.8,82.5L63,90.8c-0.3,0.2-0.4,0.7-0.2,1c0,0,0,0,0,0
		c0.1,0.2,0.3,0.3,0.6,0.3c0.1,0,0.3,0,0.4-0.1l8.3-6c0.3-0.2,0.6-0.3,1-0.3c0.4,0,0.8,0.1,1.1,0.4c0.7,0.6,0.7,1.7,0.1,2.3
		c-0.1,0.1-0.2,0.1-0.2,0.2L57,100.8c-1.6,1.2-3.6,1.8-5.6,1.8c-3.2,0-6.1-1.5-7.9-4.1c-0.4-0.5-0.8-1.1-1.1-1.8
		c-2.5-4.4-1.7-10,2.1-13.5c0.6-0.5,1.2-1,1.9-1.5l7.3-5.2c0.3-0.2,0.6-0.3,1-0.3c0.4,0,0.8,0.1,1.1,0.4c0.7,0.6,0.7,1.6,0.1,2.3
		c-0.1,0.1-0.2,0.2-0.3,0.2l-3.9,2.8c-0.3,0.2-0.4,0.6-0.2,0.9c0.1,0.2,0.3,0.3,0.6,0.3c0.1,0,0.3,0,0.4-0.1l14.7-10.4
		c0.3-0.2,0.6-0.3,1-0.3c0.5,0,1,0.3,1.3,0.7c0.6,0.7,0.4,1.7-0.3,2.3c0,0,0,0,0,0l-11.2,7.9c-0.3,0.2-0.4,0.7-0.1,1
		c0,0,0.1,0.1,0.1,0.1c0.1,0.1,0.3,0.2,0.4,0.2c0.2,0,0.3-0.1,0.4-0.1l12.3-8.8c0.7-0.5,1.6-0.4,2.2,0.3c0.1,0.1,0.1,0.2,0.2,0.3
		c0.3,0.7,0,1.5-0.6,1.9l-12,8.6c-0.3,0.2-0.4,0.6-0.2,1c0,0,0,0,0,0c0.2,0.3,0.7,0.4,1,0.2c0,0,0,0,0,0l11.2-8
		c0.8-0.5,1.8-0.4,2.4,0.4c0,0,0,0,0,0C75.7,80.9,75.6,81.9,74.8,82.5z"/>
	<path d="M47.3,44.9L47.3,44.9c-4.1,0-6.8,3.8-7.9,5.9c-0.2,0.3-0.1,0.7,0.2,0.8c0.1,0.1,0.2,0.1,0.3,0.1h0.2c0.7-0.2,1.3-0.3,2-0.2
		c1.6,0,3.5,0.3,5.2,0.3c1.7,0,3.7-0.3,5.2-0.3c0.7,0,1.3,0.1,2,0.2c0.1,0,0.1,0,0.2,0c0.3,0,0.6-0.3,0.6-0.6c0-0.1,0-0.2-0.1-0.3
		C54.2,48.8,51.5,44.9,47.3,44.9z M47.3,48.8c-0.7,0-1.5-0.1-2.2-0.1c0.6-0.5,1.4-0.7,2.2-0.7c0.8,0,1.6,0.3,2.3,0.7
		C48.8,48.7,48,48.8,47.3,48.8z"/>
	<path d="M75.8,47.3c0.1,0,0.2,0,0.3,0l6.9-1.2c1.1-0.2,1.8-1.2,1.6-2.3c-0.2-1.1-1.2-1.8-2.3-1.6l-6.9,1.2
		c-1.1,0.2-1.8,1.2-1.6,2.3C74,46.6,74.9,47.3,75.8,47.3z"/>
	<path d="M75.5,54l6.9,1.2c0.1,0,0.2,0,0.4,0c1,0,1.8-0.7,2-1.7c0.2-1.1-0.5-2.1-1.6-2.3l-6.9-1.2c-1.1-0.2-2.1,0.5-2.3,1.6
		C73.7,52.8,74.4,53.8,75.5,54z"/>
	<path d="M96,44.2c-0.7-1.5-1.9-2.9-3.3-3.8c0-2.9-1.9-5.6-4.8-6.4c-0.5-0.1-1.1-0.2-1.7-0.2c-0.4,0-0.9,0-1.4,0.1
		c-1.1,0.2-1.8,1.3-1.6,2.4c0.2,1.1,1.3,1.8,2.4,1.6c0.2,0,0.3,0,0.5,0c0.2,0,0.5,0,0.7,0.1c1.3,0.4,2.1,1.7,1.8,3.1l-0.4,1.6
		l1.5,0.7c1.2,0.6,2.1,1.5,2.7,2.7c0.6,1.4,0.7,2.9,0.2,4.3c-0.5,1.4-1.5,2.5-2.9,3.2l-1.5,0.7l0.4,1.6c0.1,0.2,0.1,0.4,0.1,0.6
		c0,1.4-1.2,2.6-2.5,2.6c-0.2,0-0.4,0-0.6-0.1c-1.1-0.2-2.1,0.5-2.3,1.6c-0.2,1.1,0.5,2.1,1.6,2.3c0.4,0.1,0.8,0.1,1.3,0.1
		c3.6,0,6.6-2.9,6.6-6.6c0,0,0,0,0,0c1.7-1.1,2.9-2.8,3.6-4.7C97.2,49.2,97.1,46.6,96,44.2z"/>
</g>
</svg>
