<?xml version="1.0" encoding="utf-8"?>
<!-- Generator: Adobe Illustrator 24.2.3, SVG Export Plug-In . SVG Version: 6.00 Build 0)  -->
<svg version="1.1" id="Layer_1" xmlns="http://www.w3.org/2000/svg" xmlns:xlink="http://www.w3.org/1999/xlink" x="0px" y="0px"
	 viewBox="0 0 100 100" style="enable-background:new 0 0 100 100;" xml:space="preserve">
<g>
	<path d="M50.8,73.5c-0.1-0.1-0.1-0.2-0.2-0.2c-0.3-0.2-0.7-0.1-0.9,0.2c-1,1.6-3,4.9-3,6.3h0.1c0,0.3,0,0.6,0,0.9
		c0.3,1.9,2,3.3,4,3c1.9-0.3,3.3-2,3-4C53.8,78.4,51.8,75.1,50.8,73.5z"/>
	<path d="M50.4,86.1c-0.1-0.1-0.1-0.2-0.2-0.2c-0.3-0.2-0.7-0.1-0.9,0.2c-0.9,1.6-2.9,4.8-2.9,6.3h0.1c0,0.2,0,0.5,0,0.7
		c0.2,1.9,1.9,3.3,3.9,3.1s3.3-1.9,3.1-3.9C53.4,91,51.4,87.7,50.4,86.1z"/>
	<path d="M98,14.4c-0.5-3.1-2.8-5.8-5.9-6.9c-4.1-1.4-9.3,0-14.4,1.4c-3.1,0.8-6.4,1.7-8.3,1.5c-1.5-0.2-3-1.3-4.8-2.7
		c-3-2.4-7.2-5.6-14.5-5.7l-0.2,0v0c-7.3,0.1-11.5,3.3-14.5,5.7c-1.8,1.4-3.2,2.5-4.7,2.7c-1.9,0.2-5.1-0.7-8.3-1.5
		C17.3,7.5,12,6.1,7.9,7.6C4.7,8.7,2.4,11.4,2,14.5c-0.3,1.9-0.1,5.6,4.6,9c3.7,2.5,7.8,4.3,12.2,5.1c0.9,0.3,1.9,0.5,3,0.5
		c4.1,0,7.4-2.4,7.4-5.5c0-3.1-3.2-5.5-7.4-5.5l0,0c-2.2-0.1-6.4-0.3-8-0.9c-1.7-0.6-2.5-1.1-2.6-1.7l-0.1-0.4
		c0-0.1,0.1-0.2,0.1-0.3s0.1-0.1,0.3-0.1l0.1,0l0.1,0c2.3-0.2,8.9,1.7,11.4,2.5c0.9,0.3,1.5,0.4,1.7,0.5C27,18,28.6,18,29.7,18
		c1.3,0,1.7,0,2.3,0.4c0.6,0.6,0.9,3.5,1.1,5.1c0.2,2.2,0.5,4.3,1.2,5.8c1.3,3,3.1,5.5,4.4,7.4c0.7,1,1.4,1.9,1.6,2.5
		c0.2,0.5,0.2,1.9,0.1,3c-0.1,1.7-0.1,3.7,0.5,5.4c0.4,1.2,1.2,2.7,2,4.1c0.8,1.4,1.7,3.2,1.9,3.9c0.4,1.9,0.4,11.6,0.3,17.2l4,0.1
		c0-1.5,0.2-15.2-0.4-18.1c-0.3-1.3-1.3-3.1-2.3-5c-0.7-1.3-1.4-2.6-1.8-3.5c-0.3-1-0.3-2.5-0.3-3.9c0.1-1.8,0.1-3.4-0.5-4.8
		c-0.4-0.9-1.1-1.9-2-3.1c-1.3-1.8-2.9-4-4-6.6c-0.4-1-0.6-2.9-0.8-4.7c-0.4-3.4-0.8-6.6-2.8-8c-0.7-0.5-1.4-0.7-2.1-0.9
		c2.2-0.5,3.9-1.9,5.7-3.3C40.7,8.6,44,6,50,6c6,0,9.2,2.6,12.1,4.8c1.9,1.5,3.7,2.9,6.1,3.4c-0.8,0.1-1.6,0.4-2.4,1
		c-2.1,1.3-2.4,4.6-2.8,8c-0.2,1.8-0.4,3.7-0.8,4.6c-1.1,2.5-2.7,4.8-4,6.6c-0.9,1.3-1.7,2.3-2.1,3.2c-0.6,1.3-0.6,3-0.5,4.8
		c0,1.4,0.1,2.9-0.3,3.9c-0.3,0.9-1.1,2.3-1.8,3.7c-1,1.9-1.9,3.6-2.2,4.9c-0.6,2.9-0.4,16.6-0.4,18.1l4-0.1
		c-0.1-5.7-0.1-15.4,0.3-17.2c0.2-0.7,1.1-2.4,1.8-3.8c0.8-1.5,1.6-3,2.1-4.2c0.6-1.7,0.6-3.6,0.5-5.4c0-1.1-0.1-2.5,0.2-3
		c0.3-0.6,0.9-1.5,1.7-2.6c1.4-1.9,3.1-4.3,4.4-7.3c0.7-1.5,0.9-3.6,1.2-5.8c0.2-1.6,0.5-4.5,1-5.1c0.6-0.4,1.1-0.4,2.3-0.4
		c1.1,0,2.7,0,4.9-0.5c0.2-0.1,0.7-0.2,1.3-0.4c2.3-0.7,9.4-2.8,11.8-2.6l0.2,0l0.1,0c0.1,0,0.2,0.1,0.2,0.2c0,0.1,0.1,0.2,0,0.3
		l0,0.3c-0.1,0.6-0.9,1.2-2.5,1.7c-1.6,0.5-5.4,0.8-7.3,0.9c-0.2,0-0.4,0-0.7,0c-4.1,0-7.4,2.4-7.4,5.5s3.2,5.5,7.4,5.5
		c1.1,0,2.1-0.2,3-0.5c4.4-0.8,8.5-2.5,12.2-5.1C98.1,20.1,98.3,16.4,98,14.4z M12.4,20.8c0.7,0.2,1.5,0.4,2.5,0.6
		c-0.3,0.6-0.5,1.2-0.5,1.8c-1.9-0.8-3.8-1.7-5.5-2.9c-2.2-1.6-3.2-3.4-3-5.2c0.2-1.5,1.4-2.9,2.9-3.6c-0.1,0.1-0.3,0.2-0.4,0.3
		c-0.8,0.8-1.3,1.9-1.3,3.1c0,0.3,0,0.6,0.1,0.9C7.6,19.2,11.1,20.4,12.4,20.8z M91.1,20.2c-1.7,1.2-3.6,2.2-5.5,2.9
		c0-0.6-0.2-1.2-0.5-1.7c0.9-0.1,1.8-0.3,2.4-0.5c1.3-0.5,4.9-1.7,5.2-5c0.2-1.1,0-2.2-0.6-3.2c-0.4-0.6-0.9-1-1.4-1.4
		c0,0,0.1,0,0.1,0c1.7,0.6,3,2.1,3.2,3.7C94.3,16.8,93.3,18.6,91.1,20.2z"/>
	<path d="M50,48.7L50,48.7c0,0,2.9,0,2.9-2.7c0-1.8-0.3-7.4,1.3-9.6c1.5-2.2,5.3-5.5,6-9.4s-0.5-11.2-1.5-13.4
		c-1.4-3.4-8.7-3.4-8.7-3.4s-7.2,0-8.7,3.4c-0.9,2.2-2.1,9.5-1.4,13.4c0.7,3.9,4.4,7.2,6,9.4c1.6,2.2,1.2,7.8,1.2,9.6
		C47.1,48.7,50,48.7,50,48.7z"/>
</g>
</svg>
