<?xml version="1.0" encoding="utf-8"?>
<!-- Generator: Adobe Illustrator 24.2.3, SVG Export Plug-In . SVG Version: 6.00 Build 0)  -->
<svg version="1.1" id="Layer_1" xmlns="http://www.w3.org/2000/svg" xmlns:xlink="http://www.w3.org/1999/xlink" x="0px" y="0px"
	 viewBox="0 0 100 100" style="enable-background:new 0 0 100 100;" xml:space="preserve">
<g>
	<path d="M62.6,40.1c0.6,0,1.2-0.3,1.6-0.8c0.7-0.9,0.5-2.1-0.3-2.8l-2.5-2l2.3-0.7c1.1-0.3,1.7-1.4,1.3-2.5
		c-0.3-1.1-1.4-1.7-2.5-1.3l-9.7,2.9l8.5,6.8C61.8,40,62.2,40.1,62.6,40.1z"/>
	<path d="M39.6,30c-1.1-0.3-2.2,0.3-2.5,1.3c-0.3,1.1,0.3,2.2,1.3,2.5l2.4,0.7l-2.5,2c-0.9,0.7-1,1.9-0.3,2.8c0.4,0.5,1,0.8,1.6,0.8
		c0.4,0,0.9-0.1,1.2-0.4l8.5-6.8L39.6,30z"/>
	<path d="M88.4,66.4c-4.8-3-19-6.8-23.8-8.1c0-0.1,0-0.2,0-0.3C72.2,52.3,77,42.1,77,31.8c0-4.9-1-9.4-2.9-13.5
		c1.2,0.4,2.7,0.6,4.4-0.2c2.2-1.1,2.7-3.1,3-4.4c0.3-1.2,0.4-1.5,1-1.8c1-0.5,1.4-1.7,0.9-2.7c-0.5-1-1.7-1.4-2.7-0.9
		c-2.3,1.1-2.7,3.1-3.1,4.4c-0.3,1.2-0.4,1.5-1,1.8c-0.5,0.3-0.9,0.2-2-0.3c-0.8-0.3-2-0.8-3.3-0.7c-0.3-0.4-0.6-0.8-0.9-1.2
		c0.5-0.1,1-0.2,1.6-0.5c2.2-1.1,2.7-3.1,3-4.4c0.3-1.2,0.4-1.5,1-1.8C77.1,5.2,77.5,4,77,3c-0.5-1-1.7-1.4-2.7-0.9
		c-2.2,1.1-2.7,3.1-3.1,4.4c-0.3,1.2-0.4,1.5-0.9,1.8c-0.5,0.3-0.9,0.2-2-0.3c-0.7-0.3-1.7-0.7-2.9-0.7c-4.1-3.1-9.1-5-14.4-5
		c-10.9,0-20.3,7.7-24.1,18.6l-4.5-7c-0.5-0.8-1.3-1.2-2.2-1.2c-1.4,0.1-2.4,1.2-2.4,2.5l0.1,2.7l-3.1-4.8c-0.6-0.9-1.8-1.2-2.8-0.6
		c-0.9,0.6-1.2,1.8-0.6,2.8l6,9.3c0.8,1.1,2.3,1.5,3.4,0.7c0.7-0.5,1.2-1.3,1.1-2.1l-0.1-2.6l3.1,4.8c0.2,0.2,0.4,0.4,0.6,0.6
		c-0.4,1.9-0.5,3.9-0.5,6c0,10.4,4.9,20.7,12.6,26.4c0,0,0,0,0,0.1c-4.5,1.2-19.2,5.1-24,8.2c-5.8,3.7-8.5,26.5-9.2,33.4
		c-0.1,1.1,0.7,2.1,1.8,2.2c0.1,0,0.1,0,0.2,0c1,0,1.9-0.8,2-1.8c1.3-13.2,4.5-28.6,7.4-30.4c3.9-2.5,16.6-6,22.7-7.6
		c1.9,5,6.6,8.7,12.3,8.9c0.1,0,0.3,0,0.4,0c5.8,0,10.7-3.6,12.7-8.8c6.2,1.6,18.6,5.1,22.5,7.5c2.8,1.8,5.8,17.2,7,30.4
		c0.1,1,1,1.8,2,1.8c0.1,0,0.1,0,0.2,0c1.1-0.1,1.9-1.1,1.8-2.2C96.6,92.9,94.2,70.1,88.4,66.4z M50.9,67c-5.3-0.2-9.4-4.6-9.3-9.8
		c0-0.7-0.3-1.3-0.9-1.7C33.6,50.7,29,41.4,29,31.8c0-14.1,9.9-25.5,22-25.5c3.7,0,7.1,1.1,10.2,2.9c-0.8,1-1.1,2.2-1.3,3
		c-0.3,1.2-0.4,1.5-0.9,1.8c-1,0.5-1.4,1.7-0.9,2.7c0.4,0.7,1.1,1.1,1.8,1.1c0.3,0,0.6-0.1,0.9-0.2c2.2-1.1,2.7-3.1,3-4.4
		c0.2-0.9,0.4-1.3,0.7-1.6c1.2,1.1,2.4,2.3,3.4,3.7c-0.9,1.1-1.3,2.3-1.5,3.2c-0.3,1.2-0.4,1.5-1,1.8c-1,0.5-1.4,1.7-0.9,2.7
		c0.4,0.7,1.1,1.1,1.8,1.1c0.3,0,0.6-0.1,0.9-0.2c2.2-1.1,2.7-3.1,3-4.4c0-0.1,0-0.1,0-0.1C72,23.1,73,27.3,73,31.8
		c0,9.4-4.5,18.7-11.5,23.5c-0.5,0.4-0.9,1-0.9,1.6l0,0.2c0,0.2,0,0.4,0,0.6C60.5,63,56.1,67.2,50.9,67z"/>
	<path d="M41.1,51.8h19.3c-2.1-1.4-6-2.1-9.8-2.1C46.8,49.7,43,50.4,41.1,51.8z"/>
</g>
</svg>
