<?xml version="1.0" encoding="utf-8"?>
<!-- Generator: Adobe Illustrator 24.2.3, SVG Export Plug-In . SVG Version: 6.00 Build 0)  -->
<svg version="1.1" id="Layer_1" xmlns="http://www.w3.org/2000/svg" xmlns:xlink="http://www.w3.org/1999/xlink" x="0px" y="0px"
	 viewBox="0 0 100 100" style="enable-background:new 0 0 100 100;" xml:space="preserve">
<g>
	<path d="M45.1,36.2c4,5.3,8.2,8.4,12.8,9.7c7,1.9,12.9,3.1,18.9,2.9c2.4-0.1,5-1.4,6.6-2.2c0.3-0.1,0.5-0.3,0.7-0.4
		c3-1.5,6.2-0.8,7.1,0.1c0,0.9-1.5,3.9-3.7,6.6c-4.1,5-14.8,11-23.4,15.8c-2.2,1.2-4.2,2.4-6,3.4c-2.2,1.3-3.8,2.8-5,4
		c-0.8,0.8-1.5,1.4-2.2,1.8l-0.3,0.2c-4.4,2.7-10.2,1.3-13-3.1L-0.2,17.3v7.3l34.5,52.6c2.5,4.1,6.9,6.4,11.4,6.4c2.4,0,4.8-0.6,7-2
		c0.1-0.1,0.2-0.2,0.4-0.2c0.9-0.6,1.8-1.4,2.7-2.3c1.2-1.1,2.5-2.4,4.3-3.4c1.8-1,3.8-2.2,5.9-3.4C75,67.3,86,61,90.6,55.5
		c2-2.4,6.4-8.3,3.9-11.5c-2.2-2.8-7.7-3.5-12-1.4c-0.2,0.1-0.5,0.3-0.8,0.4c-1.3,0.7-3.4,1.7-4.9,1.8c-5.5,0.2-11-1-17.7-2.8
		c-3.7-1-7.2-3.7-10.7-8.2C43.2,27.1,35,12.4,28.4,0h-4.5C30.6,12.9,39.5,28.9,45.1,36.2z"/>
	<path d="M60.3,38.4c-1,0-1.8-0.8-1.9-1.8c-0.2-3-2.8-5.4-5.8-5.2c-1,0-1.9-0.7-1.9-1.8c0-1,0.7-1.9,1.8-1.9
		c5.1-0.2,9.4,3.7,9.7,8.8C62.2,37.4,61.4,38.3,60.3,38.4C60.4,38.4,60.3,38.4,60.3,38.4z"/>
	<path d="M67.7,37.5c-1,0-1.8-0.8-1.9-1.8c-0.2-3.2-1.5-6.1-3.9-8.2c-2.4-2.1-5.4-3.2-8.6-3.1l-0.2-3.7c4.2-0.2,8.2,1.2,11.3,4
		c3.1,2.8,4.9,6.6,5.1,10.8C69.6,36.6,68.8,37.4,67.7,37.5C67.8,37.5,67.7,37.5,67.7,37.5z"/>
</g>
</svg>
