<?xml version="1.0" encoding="utf-8"?>
<!-- Generator: Adobe Illustrator 24.0.0, SVG Export Plug-In . SVG Version: 6.00 Build 0)  -->
<svg version="1.1" id="Layer_1" xmlns="http://www.w3.org/2000/svg" xmlns:xlink="http://www.w3.org/1999/xlink" x="0px" y="0px"
	 viewBox="0 0 100 100" style="enable-background:new 0 0 100 100;" xml:space="preserve">
<g>
	<polygon points="70.6,24.6 74.7,22.2 78.9,24.2 78,19.7 81.2,16.3 76.5,15.8 74.3,11.6 72.4,15.9 67.8,16.8 71.2,19.9 	"/>
	<path d="M8.1,30.1c0,0.1,0,0.1,0,0.2c0.2,1.9,1.3,3.7,3,4.7c0.3,0.2,0.7,0.3,1.1,0.3c0.7,0,1.3-0.3,1.7-0.9
		c0.6-0.9,0.3-2.2-0.6-2.8c-0.6-0.4-1-1-1.2-1.7c0.1-2.2,6.8-6.2,21.6-8.6c1.1-0.2,1.8-1.2,1.7-2.3s-1.2-1.8-2.3-1.7
		C25.4,18.5,7.8,22.2,8.1,30.1z"/>
	<path d="M54.2,19.5c3.3-0.1,6.5,0,9.7,0.2c0,0,0.1,0,0.1,0c1,0,1.9-0.8,2-1.9c0.1-1.1-0.8-2.1-1.9-2.1c-3.3-0.2-6.7-0.3-10.1-0.2
		c-1.1,0-2,0.9-2,2C52.2,18.7,53.1,19.5,54.2,19.5z"/>
	<path d="M46.8,45.6c-1,0.5-2.2,0.9-3.4,0.9c-1.1,0-2.1-0.4-3-1c-0.9-0.6-2.2-0.4-2.8,0.5c-0.6,0.9-0.4,2.2,0.5,2.8
		c1.5,1.1,3.3,1.6,5.2,1.7l0.1,0l0.1,0c1.8-0.1,3.5-0.5,5.1-1.4c1-0.5,1.4-1.7,0.8-2.7C49,45.5,47.8,45.1,46.8,45.6z"/>
	<path d="M65,46.1c-0.5-1-1.7-1.4-2.7-0.9c-1,0.5-2.2,0.9-3.4,0.9c-1.1,0-2.1-0.4-3-1c-0.9-0.6-2.2-0.4-2.8,0.5
		c-0.6,0.9-0.4,2.2,0.5,2.8c1.5,1.1,3.3,1.6,5.2,1.7l0.1,0l0.1,0c1.8-0.1,3.5-0.6,5.1-1.4C65.1,48.3,65.5,47.1,65,46.1z"/>
	<path d="M95.7,96.4c0-0.4-1.2-9.7-7.2-13.5c-4.9-3.1-20.2-7.1-24-8.1c6.9-5.5,11.3-15,11.3-24.5c0-3.8-0.7-7.5-1.9-10.8
		c2.9-0.6,5.5-1.2,7.9-1.9c9-2.7,13.5-6.1,13.4-10.2c-0.1-3.5-3.7-6.4-10.8-8.5c-1.1-0.3-2.2,0.3-2.5,1.3s0.3,2.2,1.3,2.5
		c5.8,1.7,7.9,3.6,7.9,4.8c0,1.1-2.1,3.7-10.5,6.2c-2.6,0.8-5.4,1.4-8.5,2c-4.3-8-12.2-13.4-21.1-13.4c-1,0-2,0.1-2.9,0.2l-1-4.4
		l3.2-3.4l-4.7-0.5L43.7,10l-1.9,4.3l-4.6,0.8l3.5,3.2L40,22.9l4.1-2.3l4,1.9c-8.7,1.2-16,7.6-19.4,16.4l-0.4-2l3.2-3.4L26.7,33
		l-2.2-4.1l-1.9,4.3L18,34l3.5,3.1l-0.6,4.6l4-2.3l3,1.4c-0.9,2.9-1.4,6.1-1.4,9.4c0,9.7,4.5,19.2,11.5,24.7
		c-4.6,1.2-18.7,4.9-23.3,7.9c-6,3.8-7.2,13.1-7.2,13.5c-0.1,1.1,0.7,2.1,1.8,2.2c0.1,0,0.2,0,0.2,0c1,0,1.9-0.8,2-1.8
		c0-0.1,1-7.8,5.4-10.6c3.8-2.4,16.4-5.9,22.3-7.4c1.7,4.9,6.3,8.5,11.8,8.7c0.1,0,0.3,0,0.4,0c5.7,0,10.5-3.7,12.2-8.8
		c5.7,1.4,18.9,5.1,22.8,7.6c4.4,2.8,5.4,10.5,5.4,10.6c0.1,1,1,1.8,2,1.8c0.1,0,0.2,0,0.2,0C95.1,98.5,95.9,97.5,95.7,96.4z
		 M51.2,26.2c7,0,13.1,4,16.9,10.1c-5,0.7-10.5,1.2-16.1,1.4c-5.7,0.2-11.5,0-17.1-0.5c-0.4,0-0.8,0.1-1.2,0.3
		C37.3,30.7,43.8,26.2,51.2,26.2z M60.2,74.1c0,0,0,0.1,0,0.1c0,0.2,0,0.4,0,0.5c-0.1,4.9-4.3,8.8-9.2,8.6c-4.9-0.1-8.8-4.3-8.6-9.2
		c0-0.7-0.3-1.3-0.9-1.7c-6.7-4.6-11-13.4-11-22.3c0-3.8,0.8-7.5,2.2-10.7c0.1,0.9,0.9,1.6,1.8,1.7c4.2,0.4,8.5,0.6,12.8,0.6
		c1.6,0,3.2,0,4.8-0.1c6.3-0.2,12.4-0.7,17.9-1.6c1.2,3.1,1.9,6.5,1.9,10.1c0,8.9-4.2,17.6-10.8,22.2C60.5,72.8,60.2,73.5,60.2,74.1
		z"/>
	<path d="M92,51.8c0-2.8-2-4.4-5.1-4.4c-1.6,0-3.2,0.5-4.4,1.5c-0.4,0.3-0.6,0.7-0.6,1.2c0,0.8,0.7,1.5,1.5,1.5c0.3,0,0.7-0.1,1-0.3
		c0.7-0.6,1.6-0.9,2.5-0.9c1.3,0,2,0.5,2,1.5c0,1-0.8,1.6-2.7,1.9c-0.1,0-0.1,0-0.2,0c-0.6,0.1-0.9,0.7-0.8,1.3l0.2,1.5
		c0.1,0.6,0.6,1,1.2,1l0.1-0.1c0.6,0,1.1-0.4,1.1-1l0.1-0.4C90.1,55.6,92,54.5,92,51.8z"/>
	<path d="M86.5,59L86.5,59C86.4,59,86.4,59,86.5,59c-1,0-1.8,0.8-1.9,1.8c0,1,0.8,1.8,1.8,1.8c1,0,1.9-0.8,1.9-1.8c0,0,0-0.1,0-0.1
		C88.3,59.7,87.4,58.9,86.5,59z"/>
	<path d="M9,17.6c0,1,0.8,1.8,1.8,1.8c0,0,0.1,0,0.1,0c1,0,1.8-0.8,1.8-1.8c0,0,0-0.1,0-0.1c0-1-0.9-1.8-1.8-1.7l0,0c0,0,0,0-0.1,0
		C9.8,15.8,9,16.6,9,17.6z"/>
	<path d="M7.7,8.3c0.4,0,0.7-0.1,1-0.3c0.7-0.5,1.6-0.8,2.5-0.8c1.3,0,2,0.5,2,1.5c0,1-0.9,1.6-2.7,1.9c-0.1,0-0.1,0-0.2,0
		c-0.6,0.1-0.9,0.7-0.8,1.3l0.2,1.4c0.1,0.6,0.6,1,1.2,1.1H11c0.6,0,1.1-0.5,1.1-1.1l0.1-0.4c2.3-0.5,4.2-1.6,4.2-4.3
		c0-2.8-2.1-4.4-5.2-4.4C9.6,4.1,8,4.7,6.8,5.7C6.5,6,6.3,6.4,6.2,6.9C6.3,7.7,6.9,8.3,7.7,8.3z"/>
	<path d="M8.7,62.6c0.7-0.6,1.6-0.9,2.5-0.8c1.3,0,2,0.5,2,1.5c0,1-0.9,1.6-2.7,1.8c-0.1,0-0.1,0-0.2,0c-0.6,0.1-0.9,0.7-0.8,1.3
		l0.2,1.4c0.1,0.6,0.6,1,1.2,1h0.1c0.6,0,1.1-0.4,1.2-1l0.1-0.4c2.3-0.5,4.2-1.6,4.2-4.3c0-2.8-2.1-4.4-5.2-4.4
		c-1.6,0-3.2,0.5-4.4,1.5c-0.4,0.3-0.6,0.7-0.6,1.2c0,0.8,0.7,1.5,1.5,1.5C8,62.9,8.4,62.8,8.7,62.6z"/>
	<path d="M9,72.1c0,1,0.8,1.7,1.8,1.7c0,0,0.1,0,0.1,0c1,0,1.8-0.8,1.8-1.8c0,0,0,0,0,0c0-1-0.9-1.8-1.8-1.7l0,0c0,0,0,0-0.1,0
		C9.8,70.3,9,71.1,9,72.1z"/>
</g>
</svg>
