<?xml version="1.0" encoding="utf-8"?>
<!-- Generator: Adobe Illustrator 24.0.0, SVG Export Plug-In . SVG Version: 6.00 Build 0)  -->
<svg version="1.1" id="Layer_1" xmlns="http://www.w3.org/2000/svg" xmlns:xlink="http://www.w3.org/1999/xlink" x="0px" y="0px"
	 viewBox="0 0 100 100" style="enable-background:new 0 0 100 100;" xml:space="preserve">
<g>
	<path d="M95.7,92.6c0-0.4-1.2-9.7-7.2-13.5c-4.9-3.1-20.1-7.1-23.9-8c7-5.6,11.3-14.8,11.3-24.6c0-15.4-11.1-28-24.7-28
		c-13.6,0-24.7,12.6-24.7,28c0,9.7,4.4,19.2,11.4,24.7c-4.6,1.2-18.6,4.9-23.3,7.9c-6,3.9-7.2,13.2-7.2,13.5
		c-0.1,1.1,0.7,2.1,1.8,2.2c0.1,0,0.2,0,0.2,0c1,0,1.9-0.8,2-1.8c0-0.1,1-7.8,5.4-10.6c3.8-2.4,16.3-5.9,22.3-7.4
		c1.7,4.9,6.3,8.6,11.8,8.7c0.1,0,0.3,0,0.4,0c5.7,0,10.6-3.7,12.3-8.9c5.7,1.4,18.9,5,22.8,7.6c4.4,2.8,5.4,10.5,5.4,10.6
		c0.1,1,1,1.8,2,1.8c0.1,0,0.2,0,0.2,0C95.1,94.7,95.9,93.7,95.7,92.6z M60.2,70.4c0,0,0,0.1,0,0.1c0,0.2,0,0.4,0,0.5
		c-0.1,4.9-4.3,8.8-9.2,8.6c-4.9-0.1-8.8-4.3-8.6-9.2c0-0.7-0.3-1.3-0.9-1.7c-6.7-4.6-11-13.4-11-22.4c0-13.3,9.3-24,20.7-24
		c11.4,0,20.7,10.8,20.7,24c0,8.9-4.2,17.6-10.8,22.2C60.5,69.1,60.2,69.8,60.2,70.4z"/>
	<path d="M86.4,55.2c-1,0-1.8,0.8-1.8,1.8c0,1,0.8,1.8,1.8,1.8c1,0,1.9-0.8,1.9-1.8c0,0,0,0,0,0C88.3,56,87.4,55.2,86.4,55.2
		L86.4,55.2C86.4,55.2,86.4,55.2,86.4,55.2z"/>
	<path d="M83.4,47.9c0.3,0,0.7-0.1,1-0.3c0.7-0.6,1.6-0.9,2.5-0.8c1.3,0,2,0.5,2,1.5c0,1-0.8,1.6-2.7,1.8c-0.1,0-0.1,0-0.2,0
		c-0.6,0.1-0.9,0.7-0.8,1.3l0.2,1.4c0.1,0.6,0.6,1,1.2,1h0.1c0.6,0,1.1-0.4,1.2-1l0.1-0.4c2.3-0.5,4.2-1.6,4.2-4.3
		c0-2.8-2.1-4.4-5.2-4.4c-1.6,0-3.2,0.5-4.4,1.5c-0.3,0.3-0.5,0.7-0.5,1.2C81.9,47.3,82.6,47.9,83.4,47.9z"/>
	<path d="M20.9,17.8C20.9,17.8,20.9,17.8,20.9,17.8c-1.1,0-1.9,0.8-1.9,1.8c0.1,0.9,0.8,1.7,1.7,1.7c1,0.1,1.9-0.7,2-1.7
		c0,0,0-0.1,0-0.1C22.8,18.5,21.9,17.7,20.9,17.8z"/>
	<path d="M17.8,10.5c0.4,0,0.7-0.1,1-0.3c0.7-0.6,1.6-0.9,2.5-0.9c1.3,0,2,0.5,2,1.5c0,1-0.9,1.6-2.7,1.9c-0.1,0-0.2,0-0.3,0
		c-0.5,0.1-0.8,0.7-0.7,1.2l0.2,1.5c0.1,0.6,0.6,1,1.2,1l0.2-0.1c0.6,0,1.1-0.4,1.2-1l0.1-0.4c2.3-0.5,4.2-1.6,4.2-4.3
		c0-2.8-2.1-4.4-5.2-4.4c-1.6,0-3.2,0.5-4.4,1.5c-0.4,0.3-0.6,0.7-0.6,1.2C16.3,9.7,17,10.4,17.8,10.5z"/>
	<path d="M8.7,58.8c0.7-0.6,1.6-0.9,2.5-0.9c1.3,0,2,0.5,2,1.5c0,1-0.9,1.6-2.7,1.9c-0.1,0-0.1,0-0.2,0c-0.6,0.1-0.9,0.7-0.8,1.3
		l0.2,1.5c0.1,0.6,0.6,1,1.2,1l0.1,0c0.6,0,1.1-0.4,1.2-1l0.1-0.4c2.3-0.5,4.2-1.6,4.2-4.3c0-2.8-2.1-4.4-5.2-4.4
		c-1.6,0-3.2,0.5-4.4,1.5c-0.4,0.3-0.6,0.7-0.6,1.1c0,0.8,0.7,1.5,1.5,1.5C8,59.2,8.4,59,8.7,58.8z"/>
	<path d="M9,68.3c0,1,0.8,1.8,1.8,1.8c0,0,0.1,0,0.1,0c1,0,1.8-0.8,1.8-1.8c0,0,0-0.1,0-0.1c0-1-0.9-1.8-1.8-1.7l0,0c0,0,0,0-0.1,0
		C9.8,66.5,9,67.3,9,68.3z"/>
	<path d="M43.2,36.8c-2.7,0-4.9,2.2-4.9,4.9s2.2,4.9,4.9,4.9s4.8-2.2,4.8-4.9S45.9,36.8,43.2,36.8z M40.4,41.6
		c0-1.6,1.3-2.9,2.9-2.9c1.3,0,2.4,0.9,2.7,2.1c-0.4-0.3-0.9-0.4-1.4-0.4c-1.4,0-2.5,1.1-2.5,2.5c0,0.5,0.2,1,0.4,1.4
		C41.3,44,40.4,42.9,40.4,41.6z"/>
	<path d="M58.7,36.8c-2.7,0-4.8,2.2-4.8,4.9s2.2,4.9,4.8,4.9s4.8-2.2,4.8-4.9S61.4,36.8,58.7,36.8z M58.9,44.5
		c0.3-0.4,0.5-0.9,0.5-1.5c0-1.3-1-2.3-2.3-2.3c-0.5,0-0.9,0.1-1.2,0.4c0.3-1.3,1.4-2.3,2.8-2.3c1.6,0,2.8,1.3,2.8,2.9
		C61.6,43.1,60.4,44.4,58.9,44.5z"/>
</g>
</svg>
