<?xml version="1.0" encoding="utf-8"?>
<!-- Generator: Adobe Illustrator 24.0.0, SVG Export Plug-In . SVG Version: 6.00 Build 0)  -->
<svg version="1.1" id="Layer_1" xmlns="http://www.w3.org/2000/svg" xmlns:xlink="http://www.w3.org/1999/xlink" x="0px" y="0px"
	 viewBox="0 0 100 100" style="enable-background:new 0 0 100 100;" xml:space="preserve">
<g>
	<path d="M61.3,39.8c0.6,0,1.2-0.3,1.6-0.8c0.7-0.9,0.5-2.1-0.3-2.8L59.9,34l2.6-0.8c1.1-0.3,1.7-1.4,1.3-2.5
		c-0.3-1.1-1.4-1.7-2.5-1.3l-9.9,3l8.7,6.9C60.5,39.6,60.9,39.8,61.3,39.8z"/>
	<path d="M37.5,29.4c-1.1-0.3-2.2,0.3-2.5,1.3c-0.3,1.1,0.3,2.2,1.3,2.5l2.6,0.8l-2.7,2.2c-0.9,0.7-1,1.9-0.3,2.8
		c0.4,0.5,1,0.8,1.6,0.8c0.4,0,0.9-0.1,1.2-0.4l8.7-6.9L37.5,29.4z"/>
	<path d="M87.9,67c-4.9-3.1-19.7-7.1-24.6-8.3c0-0.1,0-0.3,0-0.4c7.8-5.9,12.7-16.3,12.7-27c0-16.8-12-30.4-26.8-30.4
		c-14.8,0-26.8,13.6-26.8,30.4c0,10.8,5.1,21.4,13,27.2c0,0,0,0.1,0,0.1c-4.5,1.1-19.8,5.2-24.9,8.4c-1.8,1.2-4.6,4.4-7.3,19.1
		c-1.4,7.8-2.2,15.2-2.2,15.3c-0.1,1.1,0.7,2.1,1.8,2.2c0.1,0,0.1,0,0.2,0c1,0,1.9-0.8,2-1.8c1.4-13.6,4.7-29.5,7.6-31.4
		c4.1-2.6,17.4-6.3,23.7-7.9c2,5.2,7.1,8.8,12.9,8.8c0,0,0,0,0,0c5.9,0,10.9-3.6,12.9-8.8c6.4,1.6,19.3,5.3,23.4,7.8
		c3,1.9,6.1,17.8,7.2,31.4c0.1,1,1,1.8,2,1.8c0.1,0,0.1,0,0.2,0c1.1-0.1,1.9-1.1,1.8-2.2c0-0.1-0.7-7.5-2-15.3
		C92.5,71.4,89.7,68.1,87.9,67z M49.5,67.3C49.5,67.3,49.5,67.3,49.5,67.3c-5.5,0-9.9-4.4-9.9-9.9c0-0.7-0.3-1.3-0.9-1.7
		c-7.4-5-12.1-14.6-12.1-24.5c0-14.6,10.2-26.4,22.8-26.4s22.8,11.8,22.8,26.4c0,9.8-4.6,19.3-11.8,24.3c-0.6,0.4-0.9,1-0.9,1.7
		c0,0,0,0.1,0,0.1C59.4,62.9,55,67.3,49.5,67.3z"/>
	<path d="M80.8,77.6l-1.5,1L80.8,77.6c-0.3-0.4-0.7-0.7-1-1c0-0.8-0.1-1.6-0.5-2.4c-0.7-1.6-2.2-2.8-3.9-3.2
		c-0.1-0.2-0.2-0.4-0.4-0.6c-1-1.5-2.7-2.4-4.6-2.4l0,0c-1.2,0-2.3,0.3-3.3,1l-6.3,4.5l-0.1-0.1c-1-1-2.4-1.5-3.8-1.5
		c-1.2,0-2.4,0.4-3.3,1.1l-7.4,5.2c-0.8,0.6-1.6,1.2-2.3,1.9c-3.3,3-4.9,7.2-4.8,11.4l-13.9,6.9c-1,0.5-1.4,1.7-0.9,2.7
		c0.4,0.7,1.1,1.1,1.8,1.1c0.3,0,0.6-0.1,0.9-0.2l12.8-6.4c0.3,1,0.7,2,1.3,2.9c0.4,0.7,0.9,1.4,1.3,2.1c2.6,3.6,6.8,5.8,11.2,5.8
		c2.8,0,5.6-0.9,7.9-2.5l17.1-12.1c2.3-1.6,3-4.6,1.8-7.1C82.2,82.5,82.3,79.7,80.8,77.6z M77.1,82.1C77.1,82.1,77.1,82.1,77.1,82.1
		l-11.8,8.3c-0.3,0.2-0.4,0.6-0.2,1c0,0,0,0,0,0c0.1,0.2,0.3,0.3,0.6,0.3c0.1,0,0.3,0,0.4-0.1l8.3-5.9c0.3-0.2,0.6-0.3,1-0.3
		c0.4,0,0.8,0.1,1.1,0.4c0.7,0.6,0.7,1.7,0.1,2.3c-0.1,0.1-0.2,0.1-0.2,0.2l-17.1,12.1c-4.4,3.1-10.4,2.1-13.5-2.3
		c-0.4-0.5-0.8-1.1-1.1-1.8c-2.5-4.4-1.7-10,2.1-13.5c0.6-0.5,1.2-1,1.8-1.5l7.3-5.2c0.3-0.2,0.6-0.3,1-0.3c0.4,0,0.8,0.1,1.1,0.4
		c0.7,0.6,0.7,1.6,0.1,2.3c-0.1,0.1-0.2,0.2-0.3,0.2L54,81.6c-0.3,0.2-0.4,0.6-0.2,0.9c0.2,0.3,0.6,0.4,0.9,0.3c0,0,0.1,0,0.1-0.1
		l14.6-10.4c0.3-0.2,0.6-0.3,1-0.3l0,0c0.5,0,1.1,0.3,1.4,0.7c0.6,0.7,0.4,1.8-0.3,2.3c0,0,0,0,0,0l-11.2,7.8
		c-0.3,0.2-0.4,0.6-0.2,0.9c0,0.1,0.1,0.1,0.2,0.2c0.1,0.1,0.3,0.2,0.4,0.2c0.2,0,0.3-0.1,0.4-0.1l12.3-8.8c0.3-0.2,0.6-0.3,0.9-0.3
		c0.6,0,1.2,0.4,1.4,0.9c0.3,0.7,0.1,1.5-0.6,1.9l-12,8.6c-0.3,0.2-0.4,0.6-0.2,0.9c0,0,0,0,0,0c0.1,0.2,0.3,0.3,0.6,0.3
		c0.1,0,0.3,0,0.4-0.1l11.2-8c0.8-0.5,1.8-0.4,2.4,0.4c0,0,0,0,0,0C78,80.6,77.9,81.6,77.1,82.1z"/>
	<path d="M49.6,44.6L49.6,44.6c-4.1,0-6.7,3.8-7.9,5.9c-0.2,0.3-0.1,0.7,0.2,0.8c0.1,0.1,0.2,0.1,0.3,0.1c0.1,0,0.1,0,0.2,0
		c0.7-0.2,1.3-0.3,2-0.2c1.6,0,3.5,0.3,5.2,0.3c1.7,0,3.7-0.3,5.2-0.3c0.7,0,1.3,0.1,2,0.2c0.1,0,0.1,0,0.2,0c0.3,0,0.6-0.3,0.6-0.6
		c0-0.1,0-0.2-0.1-0.3C56.5,48.4,53.8,44.6,49.6,44.6z M49.7,48.4c-0.7,0-1.5,0-2.2-0.1c0.6-0.5,1.4-0.7,2.2-0.7v0
		c0.8,0,1.6,0.3,2.3,0.8C51.1,48.3,50.3,48.4,49.7,48.4z"/>
	<path d="M78.2,47c0.1,0,0.2,0,0.4,0l6.9-1.2c1.1-0.2,1.8-1.2,1.6-2.3c-0.2-1.1-1.2-1.8-2.3-1.6L77.8,43c-1.1,0.2-1.8,1.2-1.6,2.3
		C76.4,46.3,77.2,47,78.2,47z"/>
	<path d="M77.8,53.7l6.9,1.2c0.1,0,0.2,0,0.4,0c1,0,1.8-0.7,2-1.7c0.2-1.1-0.5-2.1-1.6-2.3l-6.9-1.2c-1.1-0.2-2.1,0.5-2.3,1.6
		C76,52.5,76.7,53.5,77.8,53.7z"/>
	<path d="M98.3,43.9c-0.7-1.5-1.9-2.8-3.2-3.8c0,0,0,0,0-0.1c0-3.6-3-6.5-6.6-6.5c-0.4,0-0.9,0-1.3,0.1c-1.1,0.2-1.8,1.3-1.6,2.4
		c0.2,1.1,1.3,1.8,2.4,1.6c0.2,0,0.3,0,0.5,0c0,0,0,0,0,0c1.4,0,2.6,1.2,2.6,2.5c0,0.2,0,0.5-0.1,0.7l-0.4,1.6l1.5,0.7
		c1.2,0.6,2.1,1.5,2.6,2.6c0.6,1.4,0.7,2.9,0.2,4.3c-0.5,1.4-1.5,2.5-2.9,3.2l-1.5,0.7l0.4,1.6c0.1,0.2,0.1,0.4,0.1,0.6
		c0,0.7-0.3,1.3-0.8,1.8s-1.1,0.8-1.8,0.8c-0.2,0-0.3,0-0.5,0c-1.1-0.2-2.1,0.5-2.4,1.6c-0.2,1.1,0.5,2.1,1.6,2.4
		c0.4,0.1,0.9,0.1,1.3,0.1c0,0,0,0,0,0c3.6,0,6.6-3,6.6-6.6c1.7-1.1,2.9-2.8,3.6-4.7C99.6,48.8,99.4,46.2,98.3,43.9z"/>
	<path d="M20.5,48c-5.5,0-10,4.5-10,9.9c0,1.1,0.9,2,2,2c0,0,0,0,0,0c1.1,0,2-0.9,2-2c0-3.3,2.7-6,6-6c1.1,0,2-0.9,2-2
		S21.6,48,20.5,48z"/>
	<path d="M7.1,56.8c0-7.1,5.7-12.8,12.8-12.8c1.1,0,2-0.9,2-2c0-1.1-0.9-2-2-2c0,0,0,0,0,0c-9.3,0-16.8,7.6-16.8,16.8h2L7.1,56.8z"
		/>
</g>
</svg>
