<?xml version="1.0" encoding="utf-8"?>
<!-- Generator: Adobe Illustrator 24.2.3, SVG Export Plug-In . SVG Version: 6.00 Build 0)  -->
<svg version="1.1" id="Layer_1" xmlns="http://www.w3.org/2000/svg" xmlns:xlink="http://www.w3.org/1999/xlink" x="0px" y="0px"
	 viewBox="0 0 100 100" style="enable-background:new 0 0 100 100;" xml:space="preserve">
<g>
	<path d="M39.2,40.5c-0.8-0.8-2-0.8-2.8-0.1c-1,0.9-2.2,1.6-3.5,2.1c-1.2,0.3-2.5,0.3-3.6-0.1c-1-0.4-2.2,0.2-2.5,1.2
		c-0.4,1,0.2,2.2,1.2,2.5c1.1,0.4,2.2,0.6,3.3,0.6c0.9,0,1.8-0.1,2.7-0.4l0.1,0c1.8-0.6,3.6-1.6,5-3C39.9,42.6,40,41.3,39.2,40.5z"
		/>
	<path d="M52.9,35.2c-1,0.9-2.2,1.6-3.5,2.1c-1.2,0.3-2.4,0.2-3.6-0.2c-1-0.4-2.2,0.2-2.5,1.2c-0.4,1,0.2,2.2,1.2,2.5
		c1.1,0.4,2.3,0.6,3.4,0.6c0.9,0,1.7-0.1,2.6-0.3l0.1,0c1.9-0.6,3.6-1.7,5-3c0.8-0.8,0.8-2,0.1-2.8C55,34.5,53.7,34.4,52.9,35.2z"/>
	<path d="M52.5,51.7c-2.1-1.2-4.7-1.4-7.2-0.7c-4.7,1.4-7.6,5.8-6.4,9.9c0.9,3,3.2,3.8,5.5,3.8c1.8,0,3.6-0.5,4.6-0.8
		c3.6-1,5.7-2.3,6.7-4c0.6-1.2,0.8-2.5,0.3-3.9C55.5,54.2,54.2,52.7,52.5,51.7z M53,58.5c-0.5,1-2.2,1.8-4.8,2.6
		c-5.3,1.4-6.1,0.3-6.4-1c-0.7-2.5,1.2-5.3,4.4-6.2c0.7-0.2,1.3-0.3,2-0.3c1.1,0,2.1,0.2,2.9,0.7c0.7,0.4,1.7,1.2,2.1,2.5l0,0
		C53.4,57.8,53.2,58.2,53,58.5z"/>
	<path d="M99,95.3c0-0.4-1.3-10.7-7.9-15c-5.4-3.5-22.1-7.8-26.6-9c0.2-1.6,0.1-3.3-0.2-4.9c6-8,8-19.8,5-30.3c0,0,0,0,0,0
		c-4.7-16.5-20.4-26.6-35-22.5c-14.6,4.2-22.5,21-17.8,37.6C19,60,24.8,67.7,32.2,72.1c-6.5,1.7-19.2,5.3-23.8,8.2
		c-6.7,4.3-7.9,14.6-8,15c-0.1,1.1,0.7,2.1,1.8,2.2c0.1,0,0.2,0,0.2,0c1,0,1.9-0.8,2-1.8c0-0.1,1.1-8.9,6.1-12.1
		c4.7-3,20.7-7.3,26.5-8.7c0,0,0.1,0,0.1,0c2.2,5.4,7.5,8.8,13.2,8.8c1.3,0,2.6-0.2,3.9-0.6c3.7-1,6.7-3.5,8.5-6.8
		c0.2-0.4,0.4-0.8,0.6-1.2c6.5,1.6,21.1,5.7,25.5,8.5c5,3.2,6.1,12,6.1,12.1c0.1,1,1,1.8,2,1.8c0.1,0,0.1,0,0.2,0
		C98.3,97.4,99.1,96.4,99,95.3z M59.3,74.5c-1.3,2.4-3.5,4.1-6.1,4.9c-5.4,1.6-11.1-1.6-12.7-7c-0.2-0.6-0.7-1.1-1.3-1.3
		c-8.7-2.9-16.1-11-18.9-20.8c-4.1-14.4,2.6-29.1,15.1-32.6c1.9-0.5,3.7-0.8,5.6-0.8c10.6,0,20.9,8.2,24.4,20.5
		c2.8,9.6,0.8,20.4-4.9,27.5c-0.5,0.6-0.6,1.4-0.3,2.1C60.9,69.4,60.6,72.1,59.3,74.5z"/>
	<path d="M72.8,28.7L72.8,28.7c0-0.6,0.3-1.2,0.7-1.5l5-5.5h-4.3c-0.7,0-1.2-0.5-1.2-1.2c0-0.7,0.6-1.2,1.2-1.2h6.7
		c0.7-0.1,1.4,0.4,1.5,1.1c0,0,0,0.1,0,0.1v0.1c0,0.6-0.3,1.1-0.7,1.5l-5,5.5h4.4c0.7,0,1.2,0.6,1.2,1.2c0,0.7-0.6,1.2-1.2,1.2
		c0,0,0,0,0,0h-6.8c-0.7,0.1-1.4-0.4-1.5-1.1C72.8,28.8,72.8,28.8,72.8,28.7z"/>
	<path d="M85,16L85,16c0-0.6,0.3-1.1,0.7-1.5l5-5.5h-4.3c-0.7,0-1.2-0.5-1.2-1.2c0,0,0,0,0,0c0-0.7,0.6-1.2,1.2-1.2H93
		c0.7-0.1,1.4,0.4,1.5,1.1c0,0,0,0.1,0,0.1v0.1c0,0.6-0.3,1.1-0.7,1.5l-5,5.5h4.4c0.7,0,1.2,0.5,1.3,1.2c0,0.7-0.6,1.2-1.2,1.2
		c0,0,0,0,0,0h-6.8C85.7,17.3,85.1,16.8,85,16C85,16,85,16,85,16z"/>
</g>
</svg>
