<?xml version="1.0" encoding="utf-8"?>
<!-- Generator: Adobe Illustrator 24.0.0, SVG Export Plug-In . SVG Version: 6.00 Build 0)  -->
<svg version="1.1" id="Layer_1" xmlns="http://www.w3.org/2000/svg" xmlns:xlink="http://www.w3.org/1999/xlink" x="0px" y="0px"
	 viewBox="0 0 100 100" style="enable-background:new 0 0 100 100;" xml:space="preserve">
<style type="text/css">
	.st0{fill:none;}
</style>
<g>
	<g>
		<g>
			<g>
				<path class="st0" d="M53.9,104.4c-3.8,0-7.4-1.9-9.6-5c-0.4-0.6-0.8-1.2-1.2-1.9c-3-5.2-2-11.9,2.4-15.9
					c0.7-0.6,1.3-1.1,2.1-1.6l7.4-5.3c0.6-0.4,1.4-0.7,2.2-0.7c0.9,0,1.8,0.4,2.5,1c0.4,0.4,0.7,0.9,0.9,1.4l7.9-5.6
					c0.6-0.4,1.4-0.7,2.1-0.7c1.2,0,2.3,0.6,3,1.6c0.3,0.4,0.5,0.8,0.6,1.3h0.3c1.4,0,2.7,0.8,3.2,2.1c0.4,0.8,0.4,1.7,0.1,2.5
					c0.6,0.3,1.1,0.7,1.5,1.2c0.6,0.8,0.8,1.8,0.7,2.8c-0.2,1-0.7,1.8-1.5,2.4L78,84.4l0.2,0.2c0.8,0.8,1.2,1.8,1.1,2.9
					c-0.1,1.1-0.6,2.1-1.5,2.7l-17.1,12.1C58.7,103.7,56.3,104.4,53.9,104.4z"/>
			</g>
			<g>
				<path d="M63.9,30.9c-0.3-1.1-1.4-1.7-2.5-1.3l-9.9,3l8.7,6.9c0.4,0.3,0.8,0.4,1.2,0.4c0.6,0,1.2-0.3,1.6-0.8
					c0.7-0.9,0.5-2.1-0.3-2.8l-2.7-2.2l2.6-0.8C63.7,33.1,64.3,32,63.9,30.9z"/>
				<path d="M37.7,29.6c-1.1-0.3-2.2,0.3-2.5,1.3c-0.3,1.1,0.3,2.2,1.3,2.5l2.6,0.8l-2.7,2.2c-0.9,0.7-1,1.9-0.3,2.8
					c0.4,0.5,1,0.8,1.6,0.8c0.4,0,0.9-0.1,1.2-0.4l8.7-6.9L37.7,29.6z"/>
				<path d="M88.1,67.1c-4.9-3.1-19.6-7.1-24.6-8.3c0-0.1,0-0.3,0-0.4c7.8-5.9,12.7-16.3,12.7-27C76.3,14.6,64.3,1,49.5,1
					S22.8,14.6,22.8,31.4c0,10.8,5.1,21.4,13,27.2c0,0,0,0.1,0,0.1c-4.5,1.2-19.8,5.2-24.9,8.4c-1.8,1.2-4.6,4.4-7.3,19.1
					c-1.4,7.8-2.2,15.2-2.2,15.3c-0.1,1.1,0.7,2.1,1.8,2.2c0.1,0,0.1,0,0.2,0c1,0,1.9-0.8,2-1.8c1.4-13.6,4.7-29.5,7.6-31.4
					c4.1-2.6,17.4-6.3,23.7-7.9c0.7,1.8,1.7,3.4,3.1,4.8c2.6,2.6,6.1,4.1,9.8,4.1c0,0,0,0,0,0c5.8,0,10.8-3.6,12.9-8.8
					c6.4,1.6,19.3,5.3,23.3,7.8c2.9,1.9,6.1,17.8,7.3,31.4c0.1,1,1,1.8,2,1.8c0.1,0,0.1,0,0.2,0c1.1-0.1,1.9-1.1,1.8-2.2
					c0-0.1-0.7-7.5-2-15.3C92.6,71.6,89.9,68.3,88.1,67.1z M60.4,55.7c-0.5,0.4-0.9,1-0.9,1.6v0.2c0,5.5-4.4,9.9-9.9,9.9
					c0,0,0,0,0,0c-2.6,0-5.1-1-7-2.9s-2.9-4.4-2.9-7c0-0.7-0.3-1.3-0.9-1.7c-7.4-5-12.1-14.6-12.1-24.5C26.8,16.8,37,5,49.5,5
					c12.6,0,22.8,11.8,22.8,26.4C72.3,41.2,67.6,50.7,60.4,55.7z"/>
				<path d="M81,77.7l-1.5,1L81,77.7c-0.3-0.4-0.7-0.7-1-1c0-0.8-0.1-1.6-0.5-2.4c-0.7-1.6-2.2-2.8-4-3.2c-0.1-0.2-0.2-0.4-0.4-0.6
					c-1.1-1.5-2.8-2.4-4.6-2.4l0.1-0.1c-1.2,0-2.3,0.3-3.3,1L61,73.6v-0.1c-1-1-2.4-1.5-3.8-1.5c-1.2,0-2.4,0.4-3.3,1.1l-7.4,5.2
					c-0.8,0.6-1.5,1.2-2.3,1.8c-3.3,3-4.9,7.2-4.8,11.3l-13.9,7c-1,0.5-1.4,1.7-0.9,2.7c0.4,0.7,1.1,1.1,1.8,1.1
					c0.3,0,0.6-0.1,0.9-0.2l12.9-6.4c0.3,1,0.7,2,1.3,2.9c0.4,0.7,0.9,1.4,1.3,2.1c4.4,6.2,12.9,7.6,19.1,3.3c0,0,0,0,0,0l17.1-12.1
					c2.3-1.6,3-4.6,1.8-7.1C82.4,82.7,82.5,79.8,81,77.7z M77.3,82.3l-11.8,8.4c-0.3,0.2-0.4,0.6-0.2,0.9c0,0,0,0,0,0.1
					c0.1,0.2,0.3,0.3,0.6,0.3c0.1,0,0.3,0,0.4-0.1l8.3-5.9c0.3-0.2,0.6-0.3,1-0.3c0.4,0,0.8,0.2,1.1,0.4c0.7,0.6,0.7,1.7,0.1,2.3
					c-0.1,0.1-0.2,0.1-0.2,0.2l-17.1,12.1c-4.4,3.1-10.4,2-13.5-2.3c-0.4-0.5-0.8-1.1-1.1-1.8c-2.5-4.4-1.7-10,2.1-13.5
					c0.6-0.5,1.2-1,1.8-1.5l7.3-5.2c0.3-0.2,0.6-0.3,1-0.3c0.4,0,0.8,0.1,1.1,0.4c0.6,0.6,0.7,1.7,0,2.3c-0.1,0.1-0.2,0.2-0.3,0.2
					l-3.9,2.8c-0.3,0.2-0.4,0.6-0.2,0.9c0.1,0.2,0.3,0.3,0.6,0.3c0.1,0,0.3,0,0.4-0.1l14.7-10.4c0.3-0.2,0.6-0.3,1-0.3
					c0.5,0,1,0.3,1.3,0.7c0.6,0.7,0.4,1.7-0.3,2.3c0,0,0,0,0,0L60.4,83c-0.3,0.2-0.4,0.7-0.1,1c0,0,0.1,0.1,0.1,0.1
					c0.1,0.1,0.3,0.2,0.4,0.2c0.2,0,0.3-0.1,0.4-0.1l12.3-8.8c0.3-0.2,0.6-0.3,0.9-0.3c0.6,0,1.2,0.4,1.4,0.9c0.3,0.7,0,1.5-0.6,1.9
					l-12,8.6c-0.3,0.2-0.4,0.6-0.2,1c0,0,0,0,0,0c0.1,0.2,0.3,0.3,0.6,0.3c0.1,0,0.3,0,0.4-0.1l11.2-8c0.8-0.5,1.8-0.4,2.4,0.4
					c0,0,0,0,0,0C78.2,80.7,78.1,81.8,77.3,82.3z"/>
				<path d="M49.8,44.8L49.8,44.8c-4,0-6.7,3.8-7.9,5.9c-0.2,0.3-0.1,0.7,0.2,0.8c0.1,0.1,0.2,0.1,0.3,0.1c0.1,0,0.1,0,0.2,0
					c0.7-0.2,1.3-0.3,2-0.2c1.6,0,3.5,0.3,5.2,0.3c1.7,0,3.7-0.3,5.2-0.3c0.7,0,1.3,0,2,0.2h0.2c0.3,0,0.6-0.3,0.6-0.6
					c0-0.1,0-0.2-0.1-0.3C56.7,48.6,54,44.8,49.8,44.8z M49.8,48.6c-0.7,0-1.5-0.1-2.2-0.1c0.6-0.5,1.4-0.7,2.2-0.7
					c0.8,0,1.6,0.3,2.3,0.7C51.3,48.6,50.5,48.6,49.8,48.6z"/>
				<path d="M78.3,47.1c0.1,0,0.2,0,0.3,0l6.9-1.2c1.1-0.2,1.8-1.2,1.6-2.3C87,42.5,86,41.8,84.9,42L78,43.2
					c-1.1,0.2-1.8,1.2-1.6,2.3C76.5,46.4,77.4,47.1,78.3,47.1z"/>
				<path d="M78,53.9l6.9,1.2c0.1,0,0.2,0,0.3,0c1,0,1.8-0.7,2-1.7c0.2-1.1-0.5-2.1-1.6-2.3l-6.9-1.2c-1.1-0.2-2.1,0.5-2.3,1.6
					C76.2,52.6,76.9,53.7,78,53.9z"/>
				<path d="M98.5,44.1c-0.7-1.5-1.9-2.8-3.3-3.8c0,0,0,0,0,0c0-1.8-0.7-3.4-1.9-4.6c-1.2-1.2-2.9-1.9-4.7-1.9c0,0,0,0,0,0
					c-0.4,0-0.9,0-1.3,0.1c-1.1,0.2-1.8,1.3-1.5,2.4c0.2,1.1,1.3,1.8,2.4,1.5c0.2,0,0.3,0,0.5,0c0.7,0,1.3,0.3,1.8,0.8
					c0.5,0.5,0.7,1.1,0.7,1.8c0,0.2,0,0.4-0.1,0.6l-0.4,1.6l1.5,0.7c1.2,0.6,2.1,1.5,2.7,2.7c0.6,1.4,0.7,2.9,0.2,4.3
					s-1.5,2.5-2.9,3.2L90.7,54l0.4,1.6c0.1,0.2,0.1,0.4,0.1,0.6c0,1.4-1.2,2.6-2.6,2.6c0,0,0,0,0,0c-0.1,0-0.3,0-0.5,0
					c-1.1-0.2-2.1,0.5-2.4,1.5c-0.2,1.1,0.5,2.1,1.5,2.4c0.4,0.1,0.8,0.1,1.3,0.1c0,0,0,0,0,0c3.6,0,6.6-2.9,6.6-6.6c0,0,0,0,0,0
					c1.7-1.1,2.9-2.8,3.6-4.7C99.7,49,99.6,46.4,98.5,44.1z"/>
			</g>
		</g>
	</g>
	<g>
		<path d="M12.7,60.1C12.7,60.1,12.7,60.1,12.7,60.1c-1.1,0-2-0.9-2-2c0-2.7,1-5.2,2.9-7c1.9-1.9,4.4-2.9,7-2.9c0,0,0,0,0,0
			c1.1,0,2,0.9,2,2c0,1.1-0.9,2-2,2c0,0,0,0,0,0c-1.6,0-3.1,0.6-4.2,1.7c-1.1,1.1-1.7,2.6-1.7,4.2C14.7,59.2,13.8,60.1,12.7,60.1z"
			/>
	</g>
	<g>
		<path d="M5.3,59C5.3,59,5.3,59,5.3,59c-1.1,0-2-0.9-2-2c0-4.5,1.8-8.7,4.9-11.9c3.2-3.2,7.4-4.9,11.9-4.9c0,0,0,0,0,0
			c1.1,0,2,0.9,2,2c0,1.1-0.9,2-2,2c0,0,0,0,0,0c-3.4,0-6.6,1.3-9,3.7c-2.4,2.4-3.8,5.6-3.8,9C7.3,58.1,6.4,59,5.3,59z"/>
	</g>
</g>
</svg>
