<?xml version="1.0" encoding="utf-8"?>
<!-- Generator: Adobe Illustrator 24.0.0, SVG Export Plug-In . SVG Version: 6.00 Build 0)  -->
<svg version="1.1" id="Layer_1" xmlns="http://www.w3.org/2000/svg" xmlns:xlink="http://www.w3.org/1999/xlink" x="0px" y="0px"
	 viewBox="0 0 100 100" style="enable-background:new 0 0 100 100;" xml:space="preserve">
<g>
	<path d="M37.1,28.9c1.5,0,2.8-1.3,2.8-2.8c0-1.1-1.4-3.4-2.2-4.7c-0.1-0.1-0.1-0.2-0.2-0.2c-0.3-0.2-0.8-0.1-1,0.2
		c-0.8,1.3-2.2,3.7-2.2,4.7C34.3,27.7,35.5,28.9,37.1,28.9z"/>
	<path d="M63.6,33.3c1.5,0,2.8-1.3,2.8-2.8c0-1.1-1.4-3.4-2.2-4.7c-0.1-0.1-0.1-0.2-0.2-0.2c-0.3-0.2-0.8-0.1-1,0.2
		c-0.8,1.3-2.2,3.7-2.2,4.7c0,0,0,0,0,0C60.8,32.1,62,33.3,63.6,33.3z"/>
	<path d="M86.9,71.9c-5.1-3.3-21-7.4-24.6-8.3C69.4,58,74,48.3,74,38.5C74,22.6,62.7,9.8,48.8,9.8c-13.9,0-25.3,12.9-25.3,28.7
		c0,10,4.6,19.7,11.8,25.3c-4.6,1.2-19.2,5.1-24,8.1C5.2,75.8,4.1,85.3,4,85.7c-0.1,1.1,0.7,2.1,1.8,2.2c0.1,0,0.2,0,0.2,0
		c1,0,1.9-0.8,2-1.8c0-0.1,1-8,5.5-10.9c3.9-2.5,17-6.1,23-7.7c0.7,1.8,1.7,3.4,3,4.7c2.5,2.5,5.8,3.9,9.3,3.9c0,0,0,0,0,0
		c5.7,0,10.6-3.7,12.4-8.7c5.7,1.4,19.5,5.2,23.6,7.8c4.5,2.9,5.5,10.8,5.5,10.9c0.1,1,1,1.8,2,1.8c0.1,0,0.2,0,0.2,0
		c1.1-0.1,1.9-1.1,1.8-2.2C94.2,85.3,93.1,75.8,86.9,71.9z M58,62.8V63c0,5.1-4.1,9.2-9.2,9.2c0,0,0,0,0,0c-2.5,0-4.8-1-6.5-2.7
		c-1.7-1.7-2.7-4-2.7-6.5c0-0.7-0.3-1.3-0.9-1.7c-6.9-4.7-11.3-13.7-11.3-22.9c0-13.6,9.6-24.7,21.3-24.7C60.5,13.8,70,24.8,70,38.5
		c0,9.1-4.4,18-11.1,22.7C58.3,61.6,58,62.2,58,62.8z"/>
	<path d="M42.4,35.2L35,39.5c-1.1,0.7-1.5,2.1-0.9,3.2c0.4,0.8,1.2,1.2,2,1.2c0.4,0,0.8-0.1,1.2-0.3l7.4-4.3
		c1.1-0.7,1.5-2.1,0.9-3.2C44.9,34.9,43.5,34.6,42.4,35.2z"/>
	<path d="M61.9,39.5l-7.4-4.3c-1.1-0.7-2.6-0.3-3.2,0.9c-0.7,1.1-0.3,2.6,0.9,3.2l7.4,4.3c0.4,0.2,0.8,0.3,1.2,0.3
		c0.8,0,1.6-0.4,2-1.2C63.4,41.6,63,40.1,61.9,39.5z"/>
	<path d="M96.4,50.4c-1.1-2.6-3-4.6-5.4-5.9l0-28.5c0.1-1.4-0.4-2.8-1.4-3.9c-1-1.1-2.3-1.7-3.8-1.8c-3-0.1-5.5,2.2-5.7,5.1
		c0,0.2,0,0.4,0,0.5v28.6c-5.3,2.8-7.7,9.2-5.4,14.9c1.2,2.9,3.5,5.1,6.3,6.3c1.4,0.6,3,0.9,4.5,0.9c1.5,0,3.1-0.3,4.5-0.9
		c2.9-1.2,5.1-3.5,6.3-6.3S97.6,53.3,96.4,50.4z M83.2,15.7c0.1-1.3,1.1-2.3,2.4-2.3c0,0,0.1,0,0.1,0c0.6,0,1.2,0.3,1.7,0.8
		c0.4,0.5,0.7,1.1,0.6,1.8v8.2h-4.9l0-8.2C83.2,15.8,83.2,15.8,83.2,15.7z M93.6,58.3c-0.9,2.2-2.6,3.8-4.7,4.7s-4.5,0.9-6.7,0
		c-2.2-0.9-3.8-2.6-4.7-4.7c-1.8-4.4,0.3-9.5,4.7-11.4l0.7-0.3v2c-3.5,1.5-5.2,5.5-3.7,9c1.5,3.5,5.5,5.2,9,3.7s5.2-5.5,3.7-9
		c-0.7-1.7-2-3-3.7-3.7v0v-2l0.7,0.3c2.1,0.9,3.8,2.6,4.7,4.7C94.5,53.7,94.5,56.1,93.6,58.3z"/>
	<path d="M59,81.2c0.8-0.8,0.8-2,0-2.8c-0.8-0.8-2.1-0.8-2.8,0c-3.8,3.8-10,3.8-13.7,0c-0.8-0.8-2-0.8-2.8,0c-0.8,0.8-0.8,2,0,2.8
		c2.7,2.7,6.2,4,9.7,4C52.8,85.2,56.3,83.9,59,81.2z"/>
	<path d="M63.3,83.9c-0.2,0.1-0.4,0.2-0.5,0.4C55,92,42.4,92,34.7,84.3c-0.8-0.8-2-0.8-2.8,0c-0.8,0.8-0.8,2,0,2.8
		c4.7,4.7,10.8,7,16.9,7c6.1,0,12.2-2.3,16.8-6.9c0.6-0.6,0.8-1.5,0.4-2.3C65.5,83.8,64.3,83.4,63.3,83.9z"/>
</g>
</svg>
