<?xml version="1.0" encoding="utf-8"?>
<!-- Generator: Adobe Illustrator 24.2.3, SVG Export Plug-In . SVG Version: 6.00 Build 0)  -->
<svg version="1.1" id="Layer_1" xmlns="http://www.w3.org/2000/svg" xmlns:xlink="http://www.w3.org/1999/xlink" x="0px" y="0px"
	 viewBox="0 0 100 100" style="enable-background:new 0 0 100 100;" xml:space="preserve">
<path d="M91.1,9.3c-0.8-0.8-2-0.8-2.8,0l-12,11.9c-0.4-0.7-0.8-1.4-1.2-2.1c-3.8-5.7-9.1-9.3-15-10.1c-13.4-1.8-24.4,6.6-30.9,23.8
	l0,0c-4.8,12.5-6.3,28.1-4.4,39.7L8.4,88.8c-0.8,0.8-0.8,2,0,2.8c0.4,0.4,0.9,0.6,1.4,0.6c0.5,0,1-0.2,1.4-0.6l14.5-14.4
	c0.3,1.2,0.7,2.4,1.2,3.4c2.5,6,8.5,10.6,14.9,11.3c0.6,0.1,1.2,0.1,1.8,0.1c4.6,0,8.7-2.1,11.5-5.9c2.4-3.3,3.1-7.7,3.8-11.5
	c0.3-1.6,0.5-3.2,0.9-4.5c1.4-4.8,4-9.2,7.7-12.7c0.6-0.6,1.3-1.2,1.9-1.9c4.1-3.9,8.3-8,9.9-14c1.4-5.1,0.9-11-1.1-16.5l13-13
	C91.9,11.4,91.9,10.1,91.1,9.3z M32.9,34.4c3.4-8.8,11.3-23.4,26.7-21.3c4.7,0.6,9.1,3.6,12.2,8.3c0.6,0.9,1.1,1.9,1.6,2.8l-9.3,9.2
	c-0.8-1.9-1.9-3.7-3.7-4.5c-2.2-1-4.4-1.1-6.4-0.1c-4.5,2.1-6.7,8.5-8,13.1c-1.2,4.2-2.2,8.5-3.2,12.7c0,0,0,0.1,0,0.1L28.3,69.1
	C27.2,58.6,28.8,45.1,32.9,34.4z M48.1,49.3c0.5-2.1,1.1-4.2,1.7-6.3c1.7-6,3.7-9.6,5.9-10.6c0.6-0.3,1.5-0.5,3,0.2
	c1,0.5,1.7,2.3,2.2,4L48.1,49.3z M75.3,40.6c-1.3,4.9-4.9,8.4-8.8,12.1c-0.7,0.6-1.3,1.3-1.9,1.9c-4.2,4-7.2,9-8.8,14.5
	c-0.4,1.6-0.7,3.3-1,4.9c-0.6,3.6-1.2,7.2-3.1,9.8c-2.3,3.2-5.7,4.7-9.6,4.2c-4.9-0.6-9.7-4.2-11.6-8.9c-0.6-1.5-1.1-3.3-1.6-5.2
	l11.8-11.8c-0.2,0.8-0.4,1.6-0.6,2.3c-0.3,1.1,0.3,2.2,1.4,2.4l0,0c4.1,1,8.4-1.5,9.4-5.6c0.7-2.7-0.2-5.5-2-7.4l13.1-13
	c0.5,0.7,1.3,1,2.1,0.8c1.1-0.3,1.7-1.3,1.5-2.4c-0.1-0.3-0.1-0.6-0.2-0.9c-0.1-0.2-0.1-0.5-0.2-0.7l9.6-9.5
	C76.1,32.4,76.3,36.8,75.3,40.6z"/>
</svg>
