<?xml version="1.0" encoding="utf-8"?>
<!-- Generator: Adobe Illustrator 24.0.0, SVG Export Plug-In . SVG Version: 6.00 Build 0)  -->
<svg version="1.1" id="Layer_1" xmlns="http://www.w3.org/2000/svg" xmlns:xlink="http://www.w3.org/1999/xlink" x="0px" y="0px"
	 viewBox="0 0 100 100" style="enable-background:new 0 0 100 100;" xml:space="preserve">
<g>
	<path d="M22.4,34.9c0.2-0.6,0.4-1.3,0.7-2.2c0.8-2.9,2.2-7.8,5.6-10.6c3.3-2.6,5.3-3.2,8.1-4c1.1-0.3,2.3-0.6,3.7-1.1
		c5.9-2.1,7.6-9.8,7.7-10.1c0.2-1.1-0.5-2.1-1.5-2.4c-1.1-0.2-2.1,0.5-2.4,1.5c0,0.1-1.4,5.9-5.1,7.2c-1.3,0.4-2.4,0.8-3.4,1.1
		c-3,0.8-5.6,1.6-9.5,4.7c-4.4,3.6-6,9.2-7,12.6c-0.2,0.8-0.4,1.4-0.5,1.8c-0.8,2-1.8,3.4-2.9,5c-0.8,1.2-1.7,2.4-2.4,3.8
		c-1.6,3.2-2.4,10.3-2.4,11.1c-0.1,1.1,0.7,2.1,1.8,2.2c0.1,0,0.1,0,0.2,0c1,0,1.9-0.8,2-1.8c0.2-2,0.9-7.5,2-9.7
		c0.5-1.1,1.3-2.1,2.1-3.2C20.1,39.2,21.4,37.4,22.4,34.9z"/>
	<path d="M29.5,40c-1.1,0.1-1.9,1-1.9,2.1c0,1.6-0.1,6.2-1.4,8.5c-2,3.5-7.4,6.1-7.5,6.1c-1,0.5-1.4,1.7-1,2.7c0.5,1,1.7,1.4,2.7,1
		c0.2-0.1,5.4-2.6,8.4-6.5c0.7,6.6,1.3,13.2,1.3,15.1c0,1.5-0.8,4.5-1.6,7.8c-1.2,4.7-2.6,10.6-2.8,15.6c0,1.1,0.8,2,1.9,2.1
		c0,0,0,0,0.1,0c1.1,0,2-0.9,2-1.9c0.1-4.6,1.6-10.2,2.7-14.7c0.9-3.8,1.7-6.8,1.7-8.8c0-4.1-2.4-26.2-2.5-27.1
		C31.5,40.7,30.6,39.9,29.5,40z"/>
	<path d="M92.1,53.2c-0.1-0.8-0.9-7.8-2.4-11c-0.7-1.4-1.6-2.7-2.5-3.9c-1.1-1.5-2.1-3-2.9-4.9c-0.2-0.4-0.3-1-0.5-1.8
		c-1-3.4-2.5-9.1-7-12.6c-3.9-3.1-6.5-3.9-9.5-4.7c-1.1-0.3-2.2-0.6-3.4-1.1C60,12,58.7,6.2,58.7,6.1c-0.2-1.1-1.3-1.8-2.4-1.5
		c-0.6,0.1-1,0.5-1.3,1c-0.2,0-0.4-0.1-0.5-0.1c-2.3,0-4.3,1.9-4.3,4.3c0,2.3,1.9,4.3,4.3,4.3c1.1,0,2.1-0.4,2.9-1.1
		c1.2,1.7,2.8,3.4,5.2,4.2c1.4,0.5,2.6,0.8,3.7,1.1c2.8,0.8,4.8,1.3,8.1,4c3.4,2.7,4.8,7.7,5.6,10.6c0.2,0.9,0.4,1.6,0.7,2.2
		c0.9,2.4,2.2,4.2,3.4,5.8c0.8,1.1,1.6,2.1,2.1,3.3c1,2.2,1.8,7.7,2,9.7c0.1,1,1,1.8,2,1.8c0.1,0,0.1,0,0.2,0
		C91.4,55.3,92.2,54.3,92.1,53.2z"/>
	<path d="M84.2,56.7c-1.5-0.7-5.8-3.2-7.5-6.1c-0.5-0.9-0.8-2.1-1-3.4c1.2-0.8,2-2.1,2-3.6c0-2.3-1.9-4.3-4.3-4.3s-4.3,1.9-4.3,4.3
		c0,1.4,0.6,2.5,1.6,3.3c-0.7,7-1.9,19.1-1.9,22c0,2,0.7,4.9,1.7,8.7c1.1,4.6,2.6,10.2,2.7,14.8c0,1.1,0.9,1.9,2,1.9c0,0,0,0,0.1,0
		c1.1,0,2-0.9,1.9-2.1c-0.1-5-1.6-10.9-2.8-15.7c-0.8-3.2-1.6-6.2-1.6-7.7c0-1.9,0.6-8.5,1.3-15.1c2.9,3.9,8.1,6.3,8.4,6.5
		c1,0.5,2.2,0,2.7-1C85.6,58.3,85.2,57.1,84.2,56.7z"/>
	<path d="M63.2,70.9L51.8,83.3c-0.1,0.1-0.3,0.2-0.4,0.1c-0.1,0-0.3,0-0.4-0.2l-9-9.6c1.2-0.8,2-2.1,2-3.6c0-2.3-1.9-4.3-4.3-4.3
		c-2.3,0-4.3,1.9-4.3,4.3c0,0.7,0.2,1.4,0.5,2c-0.1,0.6,0.1,1.2,0.5,1.6L48.1,86c0.8,0.9,2,1.4,3.2,1.4c0.1,0,0.1,0,0.2,0
		c1.2,0,2.3-0.4,3.1-1.2c0.1-0.1,0.2-0.1,0.2-0.2l11.3-12.3c0.7-0.8,0.7-2.1-0.1-2.8C65.2,70.1,63.9,70.1,63.2,70.9z"/>
</g>
</svg>
