<?xml version="1.0" encoding="utf-8"?>
<!-- Generator: Adobe Illustrator 24.0.0, SVG Export Plug-In . SVG Version: 6.00 Build 0)  -->
<svg version="1.1" id="Layer_1" xmlns="http://www.w3.org/2000/svg" xmlns:xlink="http://www.w3.org/1999/xlink" x="0px" y="0px"
	 viewBox="0 0 100 100" style="enable-background:new 0 0 100 100;" xml:space="preserve">
<g>
	<path d="M73.8,49.4c-1.5-0.5-3.2-0.9-4.8-0.9v0l0.1-24.9c0-4.1-3.3-7.4-7.3-7.4c0,0,0,0,0,0c-0.5,0-1,0-1.5,0.1
		c-0.2,0-0.4,0.1-0.7,0.2v-1.4c0-4.1-3.2-7.4-7.3-7.4c0,0,0,0,0,0h-0.1c-1.4,0-2.7,0.4-3.9,1.1c-1-1.5-2.6-2.5-4.4-2.8
		c-0.5-0.1-1-0.1-1.4-0.1c-1.9,0-3.7,0.8-5.1,2.1c-0.4,0.4-0.8,0.9-1.1,1.5c-0.9-0.4-2-0.6-3-0.6c-4.1,0-7.4,3.3-7.5,7.4l-0.1,20.2
		C25,36.1,24.3,36,23.6,36c-0.5,0-1,0.1-1.5,0.2c-3.5,0.7-5.9,3.8-5.9,7.3L16.2,62c0,1.8,0.1,3.6,0.3,5.4
		C18,79.8,27.8,89.4,40.1,90.6c1.6,0.2,3.1,0.2,4.7,0.2h0.1c6.5,0,12.7-2.6,17.2-7.3c0,0,0,0,0,0c9.4,3.2,19.6-1.8,22.9-11.2
		C88.2,62.9,83.2,52.7,73.8,49.4z M44.8,86.8c-1.3,0-2.8-0.1-4.3-0.2C30.1,85.5,21.8,77.4,20.5,67c-0.2-1.6-0.3-3.3-0.3-4.9
		l0.1-18.6c0-1.6,1.1-3.1,2.7-3.4c0.2,0,0.5-0.1,0.7-0.1c1.9,0,3.4,1.5,3.4,3.4v9.8c0,0.7,0.5,1.3,1.2,1.4h0.1
		c0.7,0,1.4-0.6,1.4-1.4l0.1-37.1c0-1.9,1.5-3.4,3.4-3.4c1.9-0.1,3.5,1.4,3.5,3.2c0,0,0,0,0,0.1l-0.2,28.3c0,0.8,0.6,1.4,1.4,1.4
		c0,0,0,0,0,0c0.8,0,1.4-0.6,1.4-1.4c0,0,0-0.1,0-0.1l-0.1-31.2c0-1.8,1.4-3.2,3.2-3.2c0,0,0,0,0,0c0.2,0,0.4,0,0.7,0.1
		c1.5,0.3,2.6,1.7,2.5,3.2l0.1,30.4c0,0.8,0.6,1.4,1.4,1.4c0.8,0,1.4-0.6,1.4-1.4V15.1c0-1.9,1.6-3.5,3.5-3.5c0,0,0,0,0,0h0.1
		c1.9,0,3.4,1.4,3.4,3.3c0,0,0,0,0,0.1l-0.2,29.7c0,0.8,0.6,1.4,1.4,1.4c0,0,0,0,0,0c0.8,0,1.4-0.6,1.4-1.4l0.1-21
		c0-1.6,1.1-3,2.7-3.4c0.2,0,0.5-0.1,0.7-0.1c1.9,0,3.4,1.5,3.4,3.4c0,0,0,0,0,0L65,48.7v0c-9.8,1.6-16.4,10.9-14.8,20.7
		c0.8,5,3.8,9.5,8,12.2C54.6,85,49.8,86.8,44.8,86.8L44.8,86.8z M68,81.5c-1.3,0-2.6-0.2-3.8-0.5c-1.3-0.3-2.6-0.9-3.8-1.6
		c0,0,0,0,0,0c-4.6-2.7-7.4-7.6-7.4-13c0-7.1,5-13.3,12-14.7v0c1-0.2,2-0.3,3-0.3c0.3,0,0.7,0,1,0v0.1c8.3,0.3,14.8,7.2,14.5,15.5
		C83.2,75.3,76.3,81.8,68,81.5z"/>
	<path d="M76.7,63.8c-0.4-0.8-0.8-1.5-1-2.3c-0.1-0.5-0.1-1,0-1.5l0.2-0.8l-0.8,0.2c-0.1,0-2.5,0.7-2.8,4.7c0,0.7-0.1,1-0.2,1.2
		c-0.5-0.7-1.3-2.8-1.8-4.9c-0.4-1.9-0.7-3.9-0.8-5.9l0-0.7L69,54.1c-2.1,1-3.7,2.7-4.6,4.9c-0.8,2.2-0.7,4.6-0.5,6.6
		c0.1,1.2,0.1,2.3,0,2.9c-0.6-0.4-1.6-2.8-2.2-5.4l-0.2-0.8l-0.6,0.5c-0.1,0.1-6,5.2-0.6,12.5c1.8,2.4,4.5,3.7,7.6,3.7
		c0.5,0,0.9,0,1.4-0.1c3.7-0.5,6.8-2.8,8.2-6.2c0.8-2,1-4.1,0.6-6.2C77.6,65.5,77.2,64.6,76.7,63.8z"/>
</g>
</svg>
