<?xml version="1.0" encoding="utf-8"?>
<!-- Generator: Adobe Illustrator 24.0.0, SVG Export Plug-In . SVG Version: 6.00 Build 0)  -->
<svg version="1.1" id="Layer_1" xmlns="http://www.w3.org/2000/svg" xmlns:xlink="http://www.w3.org/1999/xlink" x="0px" y="0px"
	 viewBox="0 0 100 100" style="enable-background:new 0 0 100 100;" xml:space="preserve">
<g>
	<path d="M36.5,30.5c1.5-0.1,2.7-1.4,2.6-2.9c0-1.1-1.3-3.4-2.2-4.7c-0.1-0.1-0.1-0.2-0.2-0.2c-0.3-0.2-0.8-0.1-1,0.2
		c-0.8,1.3-2.2,3.6-2.2,4.7c0,0.1,0,0.2,0,0.3C33.7,29.4,35,30.6,36.5,30.5z"/>
	<path d="M62.4,34.5c1.5,0.1,2.8-1.1,2.9-2.6c0-1.1-1.3-3.4-2.2-4.7C63.1,27.1,63,27,62.9,27c-0.3-0.2-0.8-0.1-1,0.2
		c-0.8,1.3-2.2,3.6-2.2,4.7C59.9,33.3,61,34.4,62.4,34.5z"/>
	<path d="M85.6,72.7c-5-3.2-20.5-7.2-24.3-8.2c7-5.6,11.5-15.1,11.5-24.8c0-15.6-11.2-28.4-25-28.4c-13.8,0-25,12.7-25,28.4
		c0,9.8,4.5,19.5,11.7,25c-4.7,1.2-18.8,5-23.6,8C4.8,76.6,3.7,86,3.6,86.4c-0.1,1.1,0.7,2.1,1.8,2.2c0.1,0,0.2,0,0.2,0
		c1,0,1.9-0.8,2-1.8c0.2-2.2,1.7-8.4,5.5-10.8c3.9-2.5,16.6-6,22.6-7.5c1.9,5,6.6,8.5,12.3,8.5c0,0,0,0,0,0c3.5,0,6.8-1.4,9.2-3.8
		c1.4-1.4,2.4-3.1,3.1-4.9c5.7,1.4,19.2,5.1,23.2,7.7c4.5,2.9,5.4,10.7,5.4,10.8c0.1,1,1,1.8,2,1.8c0.1,0,0.2,0,0.2,0
		c1.1-0.1,1.9-1.1,1.8-2.2C92.8,86,91.7,76.6,85.6,72.7z M57,63.8V64c0,2.4-1,4.7-2.7,6.4c-1.7,1.7-4,2.7-6.4,2.7c0,0,0,0,0,0
		c-5,0-9.1-4.1-9.1-9.1c0-0.7-0.3-1.3-0.9-1.7c-6.8-4.6-11.1-13.5-11.1-22.6c0-13.4,9.4-24.4,21-24.4s21,10.9,21,24.4
		c0,9-4.3,17.8-11,22.5C57.3,62.6,57,63.2,57,63.8z"/>
	<path d="M41.5,36.5l-7.3,4.2c-1.1,0.7-1.5,2.1-0.9,3.2c0.4,0.8,1.2,1.2,2,1.2c0.4,0,0.8-0.1,1.2-0.3l7.3-4.2
		c1.1-0.7,1.5-2.1,0.9-3.2C44.1,36.2,42.7,35.8,41.5,36.5z"/>
	<path d="M61.8,43.9c0.7-1.1,0.3-2.6-0.9-3.2l-7.3-4.2c-1.1-0.7-2.6-0.3-3.2,0.9c-0.7,1.1-0.3,2.6,0.9,3.2l7.3,4.2
		c0.4,0.2,0.8,0.3,1.2,0.3C60.5,45.1,61.3,44.7,61.8,43.9z"/>
	<path d="M73.6,60.5c1.2,2.9,3.4,5.1,6.3,6.3c1.4,0.6,2.9,0.9,4.4,0.9c1.5,0,3-0.3,4.5-0.9c5.9-2.5,8.7-9.3,6.2-15.2
		C93.9,49,92,47,89.7,45.7V17.5c0-3-2.4-5.4-5.4-5.4s-5.4,2.4-5.4,5.4v28.2c-2.4,1.3-4.3,3.3-5.3,5.9C72.4,54.5,72.4,57.6,73.6,60.5
		z M84.3,15.1c1.3,0,2.4,1.1,2.4,2.4v8.1h-4.8v-8.1C81.9,16.2,83,15.1,84.3,15.1z M76.3,52.7c0.9-2.1,2.5-3.8,4.6-4.7l0.7-0.3v2
		c-3.5,1.5-5.1,5.5-3.7,9s5.5,5.1,9,3.7c3.5-1.5,5.1-5.5,3.7-9c-0.7-1.7-2-3-3.7-3.7v0v-2l0.7,0.3c2.1,0.9,3.7,2.5,4.6,4.6
		c1.8,4.4-0.3,9.4-4.6,11.2c-4.4,1.8-9.4-0.3-11.2-4.6C75.5,57.2,75.5,54.9,76.3,52.7z"/>
</g>
</svg>
