<?xml version="1.0" encoding="utf-8"?>
<!-- Generator: Adobe Illustrator 24.0.0, SVG Export Plug-In . SVG Version: 6.00 Build 0)  -->
<svg version="1.1" id="Layer_1" xmlns="http://www.w3.org/2000/svg" xmlns:xlink="http://www.w3.org/1999/xlink" x="0px" y="0px"
	 viewBox="0 0 100 100" style="enable-background:new 0 0 100 100;" xml:space="preserve">
<g>
	<path d="M60.8,46.2c0.6,0,1.2-0.3,1.6-0.8c0.7-0.9,0.5-2.1-0.3-2.8l-2-1.6l1.7-0.5c1.1-0.3,1.7-1.4,1.3-2.5
		c-0.3-1.1-1.4-1.7-2.5-1.3l-9.1,2.7l8,6.4C59.9,46.1,60.3,46.2,60.8,46.2z"/>
	<path d="M40.1,36.7c-1.1-0.3-2.2,0.3-2.5,1.3c-0.3,1.1,0.3,2.2,1.3,2.5l1.7,0.5l-2,1.6c-0.9,0.7-1,1.9-0.3,2.8
		c0.4,0.5,1,0.8,1.6,0.8c0.4,0,0.9-0.1,1.2-0.4l8-6.4L40.1,36.7z"/>
	<path d="M86.8,73.2c0.4-0.2,0.8-0.5,1.2-0.8c1.7-1.6,1.7-3.4,1.7-4.7c0-1.1,0-1.3,0.4-1.6c0.8-0.7,0.9-2,0.1-2.8
		c-0.7-0.8-2-0.9-2.8-0.1c-1.7,1.6-1.7,3.5-1.7,4.7c0,1.1,0,1.3-0.3,1.6c-0.3,0.2-0.5,0.3-1.1,0.3c-0.1-0.1-0.1-0.1-0.2-0.2
		c-0.7-0.5-1.6-0.9-2.7-1.4c1.4-1.5,1.3-3.2,1.3-4.3c0-1.1,0-1.3,0.3-1.6c0.8-0.7,0.9-2,0.1-2.8c-0.7-0.8-2-0.9-2.8-0.1
		c-1.7,1.6-1.7,3.5-1.7,4.7c0,1.1,0,1.3-0.3,1.6c-0.3,0.3-0.6,0.3-1.6,0.2c-0.6-0.1-1.3-0.1-2-0.1c-4.6-1.5-9.4-2.8-11.9-3.4
		c0,0,0,0,0,0c6.8-5.2,11.1-14.3,11.1-23.6c0-10.7-5.6-19.9-13.6-24.2c0.1-0.2,0.2-0.5,0.3-0.7c0.6-2.3-0.4-3.8-1.1-4.9
		c-0.6-0.9-0.7-1.1-0.6-1.6c0.3-1.1-0.3-2.2-1.4-2.5c-1.1-0.3-2.2,0.3-2.5,1.4c-0.6,2.3,0.4,3.8,1.1,4.9c0.6,0.9,0.7,1.1,0.6,1.6
		c0,0.1-0.1,0.2-0.1,0.2c-1.3-0.4-2.6-0.7-4-0.8c-0.2-1.2-0.8-2.1-1.2-2.7c-0.6-0.9-0.7-1.1-0.6-1.6c0.3-1.1-0.3-2.2-1.4-2.5
		c-1.1-0.3-2.2,0.3-2.5,1.4c-0.6,2.3,0.4,3.8,1.1,4.8c0.1,0.2,0.2,0.3,0.3,0.5C36.3,13,26.8,24.6,26.8,38.6
		c0,9.3,4.3,18.5,11.1,23.7c-1.9,0.5-5.4,1.4-9.1,2.5c-0.8-2.1-2.4-2.8-3.5-3.2c-1-0.4-1.2-0.6-1.3-1c-0.3-1.1-1.5-1.6-2.5-1.3
		c-1.1,0.3-1.6,1.5-1.3,2.5c0.7,2.2,2.4,3,3.6,3.5c0.8,0.3,1.1,0.5,1.2,0.8c-1.5,0.5-2.9,1-4.1,1.5c-0.7-0.6-1.4-0.9-2-1.1
		c-1-0.4-1.2-0.6-1.3-1c-0.3-1.1-1.5-1.6-2.5-1.3c-1.1,0.3-1.6,1.5-1.3,2.5c0.6,1.7,1.7,2.5,2.7,3.1c-5.2,3.7-7.6,23.9-8.2,30
		c-0.1,1.1,0.7,2.1,1.8,2.2c0.1,0,0.1,0,0.2,0c1,0,1.9-0.8,2-1.8c1.1-11.2,3.1-19.9,4.8-24.3c0,0.5,0,1.1,0.2,1.7
		c0.7,2.2,2.4,3,3.6,3.5c1,0.4,1.2,0.5,1.3,1c0.3,0.8,1.1,1.4,1.9,1.4c0.2,0,0.4,0,0.6-0.1c1-0.3,1.6-1.5,1.3-2.5
		c-0.7-2.2-2.4-2.9-3.6-3.4c-1-0.4-1.2-0.6-1.3-1c-0.1-0.4-0.1-0.6,0.5-1.6c0.5-0.8,1.2-2,1.1-3.6c0.3-0.1,0.5-0.2,0.8-0.3
		c0,0.6,0,1.2,0.2,1.9c0.7,2.2,2.4,3,3.6,3.5c1,0.4,1.2,0.6,1.4,1c0.3,0.8,1.1,1.4,1.9,1.4c0.2,0,0.4,0,0.6-0.1
		c1-0.3,1.6-1.5,1.3-2.5c-0.7-2.2-2.4-3-3.6-3.4c-1-0.4-1.2-0.6-1.3-1c-0.1-0.4-0.1-0.6,0.5-1.6c0.1-0.2,0.3-0.5,0.5-0.8
		c3.8-1.2,7.9-2.3,10.5-3c0.6,1.5,1.5,2.9,2.7,4c2.3,2.3,5.4,3.6,8.7,3.6c0,0,0,0,0,0c5.1,0,9.5-3.1,11.4-7.6
		c2.3,0.6,5.5,1.5,8.8,2.4c-0.5,1.1-0.5,2.2-0.5,3c0,1.1,0,1.3-0.3,1.6c-0.8,0.7-0.9,2-0.1,2.8c0.4,0.4,0.9,0.7,1.5,0.7
		c0.5,0,1-0.2,1.3-0.5c1.7-1.6,1.7-3.4,1.6-4.7c0-1.1,0-1.3,0.4-1.6c0,0,0,0,0.1,0c1.4,0.5,2.7,0.9,3.9,1.4
		c-1.3,1.5-1.3,3.1-1.3,4.3c0,1.1,0,1.3-0.3,1.6c-0.8,0.7-0.9,2-0.1,2.8c0.4,0.4,0.9,0.7,1.5,0.7c0.5,0,1-0.2,1.3-0.5
		c1.7-1.6,1.7-3.4,1.6-4.7c0-1.1,0-1.3,0.4-1.6c0.2-0.2,0.4-0.3,0.9-0.3c1.9,2.7,4.4,12.8,5.6,26.5c0.1,1,1,1.8,2,1.8
		c0.1,0,0.1,0,0.2,0c1.1-0.1,1.9-1.1,1.8-2.2C91.6,94.6,90.1,80.3,86.8,73.2z M50.4,69.7C50.4,69.7,50.4,69.7,50.4,69.7
		c-2.2,0-4.3-0.9-5.9-2.4c-1.6-1.6-2.5-3.7-2.5-5.9c0-0.7-0.3-1.3-0.9-1.7c-6.3-4.3-10.4-12.6-10.4-21.1c0-10,5.6-18.6,13.4-21.6
		c-0.1,0.2-0.2,0.4-0.2,0.7c-0.6,2.2,0.4,3.8,1.1,4.8c0.6,0.9,0.7,1.1,0.6,1.6c-0.3,1.1,0.3,2.2,1.4,2.5c0.2,0.1,0.4,0.1,0.5,0.1
		c0.9,0,1.7-0.6,1.9-1.5c0.6-2.3-0.4-3.8-1.1-4.9c-0.6-0.9-0.7-1.1-0.6-1.6c0.1-0.4,0.3-0.6,1.3-1c0.8-0.4,1.8-0.8,2.5-1.8
		c0.3,0,0.6,0.1,0.9,0.1c-0.2,0.4-0.4,0.8-0.5,1.3c-0.6,2.2,0.4,3.8,1.1,4.8c0.6,0.9,0.7,1.1,0.6,1.6c-0.3,1.1,0.3,2.2,1.4,2.5
		c0.2,0.1,0.4,0.1,0.5,0.1c0.9,0,1.7-0.6,1.9-1.5c0.6-2.3-0.4-3.8-1.1-4.8c-0.6-0.9-0.7-1.1-0.6-1.6c0.1-0.4,0.3-0.6,1.3-1
		c7.5,3.2,12.8,11.6,12.8,21.3c0,8.4-4,16.6-10.2,21c-0.5,0.4-0.9,1-0.9,1.6v0.2C58.8,65.9,55.1,69.7,50.4,69.7z"/>
	<path d="M41.5,56.5h17.3c-1.9-1.2-5.3-1.9-8.8-1.9C46.5,54.6,43.2,55.2,41.5,56.5z"/>
</g>
</svg>
