<?xml version="1.0" encoding="utf-8"?>
<!-- Generator: Adobe Illustrator 24.0.0, SVG Export Plug-In . SVG Version: 6.00 Build 0)  -->
<svg version="1.1" id="Layer_1" xmlns="http://www.w3.org/2000/svg" xmlns:xlink="http://www.w3.org/1999/xlink" x="0px" y="0px"
	 viewBox="0 0 100 100" style="enable-background:new 0 0 100 100;" xml:space="preserve">
<g>
	<path d="M95.6,94.2c0-0.4-1.2-9.7-7.2-13.5c-4.9-3.2-20.3-7.1-24-8.1c6.9-5.5,11.4-14.9,11.4-24.6c0-15.4-11.1-28-24.7-28
		c-13.6,0-24.7,12.6-24.7,28c0,9.7,4.5,19.2,11.5,24.7c-4.6,1.2-18.7,4.9-23.4,7.9c-6,3.8-7.1,13.1-7.2,13.5
		c-0.1,1.1,0.7,2.1,1.8,2.2c0.1,0,0.2,0,0.2,0c1,0,1.9-0.8,2-1.8c0-0.1,1-7.8,5.4-10.6c3.8-2.4,16.2-5.9,22.2-7.4
		c0.5,1.7,1.4,3.3,2.6,4.6c2.3,2.6,5.4,4.1,8.9,4.3c0.3,0,0.5,0,0.8,0c3.2,0,6.2-1.1,8.5-3.2c1.8-1.6,3.1-3.6,3.8-5.9
		c5.7,1.4,18.9,5,22.8,7.5c4.4,2.8,5.4,10.5,5.4,10.6c0.1,1,1,1.8,2,1.8c0.1,0,0.2,0,0.2,0C94.9,96.2,95.7,95.3,95.6,94.2z M60,71.8
		V72c0,0,0,0.1,0,0.1c0,0.4,0,0.7,0,1.1c-0.3,4.9-4.5,8.7-9.4,8.4c-2.4-0.1-4.6-1.2-6.1-3c-1.6-1.8-2.4-4.1-2.2-6.5
		c0-0.7-0.3-1.4-0.9-1.8c-6.7-4.6-11-13.4-11-22.3c0-13.2,9.3-24,20.7-24c11.4,0,20.7,10.8,20.7,24c0,8.9-4.3,17.6-10.8,22.2
		C60.3,70.6,60,71.2,60,71.8z"/>
	<path d="M86.3,56.8C86.3,56.8,86.2,56.8,86.3,56.8c-1.1,0-1.9,0.8-1.9,1.8c0.1,0.9,0.8,1.7,1.7,1.7c1,0.1,1.9-0.7,2-1.7
		c0,0,0-0.1,0-0.1C88.1,57.5,87.3,56.7,86.3,56.8z"/>
	<path d="M83.2,49.5c0.4,0,0.7-0.1,1-0.3c0.7-0.6,1.6-0.9,2.5-0.8c1.2,0,2,0.5,2,1.5c0,1-0.8,1.6-2.7,1.9c-0.1,0-0.1,0-0.2,0
		c-0.6,0.1-0.9,0.7-0.8,1.3l0.2,1.5c0.1,0.6,0.6,1,1.1,1l0.2,0c0.6,0,1.1-0.4,1.1-1l0.1-0.4c2.3-0.5,4.2-1.6,4.2-4.3v0
		c0-2.8-2.1-4.4-5.2-4.4c-1.6,0-3.2,0.5-4.4,1.5c-0.3,0.3-0.5,0.7-0.5,1.1C81.7,48.8,82.4,49.5,83.2,49.5z"/>
	<path d="M20.8,19.3C20.7,19.3,20.7,19.3,20.8,19.3c-1.1,0-1.9,0.8-1.9,1.8c0,1,0.8,1.8,1.9,1.8s1.8-0.8,1.8-1.8c0,0,0-0.1,0-0.1
		C22.6,20.1,21.7,19.3,20.8,19.3z"/>
	<path d="M17.7,12c0.3,0,0.7-0.1,1-0.3c0.7-0.6,1.6-0.9,2.5-0.8c1.3,0,2,0.6,2,1.5v0.1c0,1-0.8,1.6-2.7,1.8c-0.1,0-0.2,0-0.3,0
		c-0.5,0.1-0.8,0.7-0.7,1.2l0.2,1.4c0.1,0.6,0.6,1,1.2,1l0.2,0c0.6,0,1.1-0.4,1.1-1l0.1-0.4c2.3-0.5,4.2-1.6,4.2-4.3
		c0-2.8-2.1-4.4-5.2-4.4c-1.6,0-3.2,0.5-4.4,1.5c-0.3,0.3-0.5,0.7-0.5,1.1C16.2,11.3,16.9,12,17.7,12z"/>
	<path d="M8.5,60.3c0.7-0.6,1.6-0.9,2.5-0.9c1.3,0,2,0.5,2,1.5c0,1-0.9,1.6-2.7,1.9c-0.1,0-0.1,0-0.2,0c-0.6,0.1-0.9,0.7-0.8,1.3
		l0.2,1.4c0.1,0.6,0.6,1,1.2,1l0.2-0.1c0.6,0,1.1-0.4,1.2-1l0.1-0.4c2.3-0.5,4.2-1.6,4.2-4.3c0-2.8-2.1-4.4-5.2-4.4
		c-1.6,0-3.2,0.5-4.4,1.5c-0.4,0.3-0.6,0.7-0.5,1.2c0,0.8,0.7,1.5,1.5,1.5C7.9,60.7,8.3,60.6,8.5,60.3z"/>
	<path d="M10.5,68c-1,0-1.8,0.9-1.7,1.8c0,0,0,0.1,0,0.1c0,1,0.9,1.8,1.8,1.7c0,0,0.1,0,0.1,0c1,0,1.8-0.8,1.8-1.8c0,0,0-0.1,0-0.1
		c0-1-0.9-1.8-1.8-1.7v0C10.6,68,10.6,68,10.5,68z"/>
	<path d="M43,38.3c-1.3,0-2.5,0.5-3.4,1.4s-1.4,2.1-1.4,3.4c0,1.3,0.5,2.5,1.4,3.4c0.9,0.9,2.1,1.4,3.4,1.4c0,0,0,0,0,0
		c2.7,0,4.9-2.2,4.8-4.9C47.9,40.5,45.7,38.3,43,38.3z M40.2,43.2c0-0.8,0.3-1.5,0.8-2c0.5-0.5,1.3-0.8,2-0.8c1.3,0,2.4,0.9,2.7,2.1
		c-0.4-0.3-0.9-0.4-1.4-0.4c0,0,0,0,0,0c-1.4,0-2.5,1.2-2.5,2.5c0,0.5,0.2,1,0.4,1.4c-0.5-0.1-0.9-0.4-1.2-0.7
		C40.5,44.7,40.2,44,40.2,43.2z"/>
	<path d="M58.5,38.3c-1.3,0-2.5,0.5-3.4,1.4c-0.9,0.9-1.4,2.1-1.4,3.4c0,1.3,0.5,2.5,1.4,3.4c0.9,0.9,2.1,1.4,3.4,1.4c0,0,0,0,0,0
		c1.3,0,2.5-0.5,3.4-1.4c0.9-0.9,1.4-2.1,1.4-3.4C63.4,40.5,61.2,38.3,58.5,38.3z M61.4,43.2c0,0.8-0.3,1.5-0.8,2
		c-0.5,0.5-1.2,0.8-1.9,0.8c0.4-0.4,0.6-0.9,0.6-1.5c0-1.3-1-2.3-2.3-2.3c-0.5,0-0.9,0.1-1.2,0.4c0.1-0.5,0.4-1,0.8-1.4
		c0.5-0.5,1.3-0.8,2-0.8C60.1,40.3,61.4,41.6,61.4,43.2L61.4,43.2z"/>
</g>
</svg>
