<?xml version="1.0" encoding="utf-8"?>
<!-- Generator: Adobe Illustrator 24.2.3, SVG Export Plug-In . SVG Version: 6.00 Build 0)  -->
<svg version="1.1" id="Layer_1" xmlns="http://www.w3.org/2000/svg" xmlns:xlink="http://www.w3.org/1999/xlink" x="0px" y="0px"
	 viewBox="0 0 100 100" style="enable-background:new 0 0 100 100;" xml:space="preserve">
<g>
	<path d="M59.7,50.9c-0.6,0-1.3,0-1.9-0.1c-3.7-0.5-7.2-2.5-9.5-5.4c-3.1,2-6.8,2.7-10.4,2.1c-3.9-0.7-7.4-2.8-9.7-6.1
		c-2.3-3.3-3.2-7.2-2.5-11.1c0.7-3.9,2.8-7.4,6.1-9.7c2.7-1.9,6-2.9,9.3-2.7c0.3-1.7,0.9-4.7,1.9-9.6c0.6-2.9,3.4-4.9,6.3-4.3l12,2
		C64,6.4,66,9.1,65.6,12c-0.6,4.1-1.1,7.7-1.4,9.7c6.8,2.1,11.2,8.9,10.3,16.2C73.5,45.4,67.1,50.9,59.7,50.9z M48.3,41.2
		c1,0,2.1,0.5,2.8,1.4c1.7,2.3,4.3,3.8,7.2,4.2c6,0.8,11.5-3.5,12.2-9.4c0.7-5.7-3.1-11-8.7-12.1h-0.7l-0.6-0.7
		c-0.7-0.8-0.7-0.8,1.1-13.1c0.1-0.8-0.4-1.5-1.2-1.6l-12-2c-0.8-0.1-1.6,0.4-1.7,1.1c-2.3,12.1-2.3,12.1-3.2,12.7l-0.7,0.4
		l-0.8-0.1c-2.9-0.5-5.8,0.2-8.2,1.9c-2.4,1.7-4,4.2-4.5,7.1c-0.5,2.9,0.2,5.8,1.9,8.2c1.7,2.4,4.2,4,7.1,4.5c2.8,0.5,5.6-0.1,8-1.7
		C47,41.4,47.7,41.2,48.3,41.2z M48.7,45.1C48.7,45.1,48.7,45.1,48.7,45.1C48.7,45.1,48.7,45.1,48.7,45.1z M47.9,44.9
		C47.9,45,47.9,45,47.9,44.9C47.9,45,47.9,45,47.9,44.9z"/>
	<path d="M44,95.8c-2.9,0-5.4-2.4-5.4-5.3l0-0.3c-0.1-2.5-0.2-7-0.2-9.5c-3.3-0.4-6.3-1.9-8.7-4.2c-2.8-2.8-4.4-6.5-4.4-10.5
		c0-4,1.5-7.7,4.3-10.6c2.8-2.8,6.5-4.4,10.5-4.4c3.7,0,7.3,1.3,10,3.8c6-5.3,15.2-5,20.7,0.8c2.8,2.9,4.2,6.7,4.1,10.6
		s-1.7,7.7-4.6,10.5c-2.3,2.2-5.3,3.6-8.4,4c-0.1,2.4-0.2,6.7-0.2,9.3l0,0.4c-0.1,2.9-2.5,5.3-5.4,5.3c0,0,0,0,0,0H44
		C44,95.8,44,95.8,44,95.8z M44,91.8h12.2h0c0.8,0,1.4-0.6,1.4-1.4l0-0.4c0.1-2.2,0.1-5,0.2-7.3c0-1.1,0.1-2.1,0.1-2.8
		c0-1.1,0.1-3,2.1-3h0c0,0,0,0,0,0c2.8,0,5.5-1.1,7.6-3c4.4-4.2,4.5-11.1,0.3-15.5S56.8,53.9,52.5,58c-1.3,1.3-3.5,1.3-4.8,0
		c-2-1.9-4.7-3-7.6-3c-2.9,0-5.7,1.2-7.7,3.2c-2.1,2.1-3.2,4.8-3.2,7.7c0,2.9,1.2,5.7,3.2,7.7c2.1,2,4.8,3.2,7.7,3.2
		c2,0,2.1,1.9,2.1,3.1c0,0.7,0.1,1.7,0.1,2.9c0.1,2.3,0.1,5.1,0.2,7.3l0,0.3C42.6,91.2,43.2,91.8,44,91.8C44,91.8,44,91.8,44,91.8z
		 M49.7,55.2C49.7,55.2,49.7,55.2,49.7,55.2C49.7,55.2,49.7,55.2,49.7,55.2z M50.4,55.1C50.4,55.1,50.4,55.2,50.4,55.1
		C50.4,55.2,50.4,55.1,50.4,55.1z"/>
	<path d="M80,55c-0.4,0-0.9-0.1-1.2-0.4c-0.9-0.7-1-1.9-0.3-2.8l4.4-5.6l-3.5,1.3c-0.8,0.3-1.8,0.2-2.5-0.4
		c-1.1-0.9-1.2-2.5-0.3-3.6l7.5-9.6c0.7-0.9,1.9-1,2.8-0.3s1,1.9,0.3,2.8l-4.4,5.6l3.5-1.3c1.3-0.5,2.8,0.2,3.3,1.5
		c0.3,0.8,0.2,1.7-0.4,2.4l-7.6,9.7C81.2,54.7,80.6,55,80,55z M79.6,45.9L79.6,45.9C79.6,46,79.6,45.9,79.6,45.9z M77.9,43.7
		C77.9,43.7,77.9,43.7,77.9,43.7L77.9,43.7z"/>
	<path d="M14.7,54c-0.7,0-1.3-0.3-1.7-1c-0.6-0.9-0.3-2.2,0.7-2.7l5.8-3.5L15,41.6c-0.7-0.8-0.6-2.1,0.2-2.8
		c0.8-0.7,2.1-0.6,2.8,0.2l7.7,8.8l-9.9,5.9C15.4,53.9,15.1,54,14.7,54z"/>
</g>
</svg>
