<?xml version="1.0" encoding="utf-8"?>
<!-- Generator: Adobe Illustrator 24.0.0, SVG Export Plug-In . SVG Version: 6.00 Build 0)  -->
<svg version="1.1" id="Layer_1" xmlns="http://www.w3.org/2000/svg" xmlns:xlink="http://www.w3.org/1999/xlink" x="0px" y="0px"
	 viewBox="0 0 100 100" style="enable-background:new 0 0 100 100;" xml:space="preserve">
<g>
	<path d="M96.3,91.4c0-0.4-1.2-10.3-7.6-14.3c-5-3.2-19.9-7.1-24.8-8.4c0-0.1,0-0.3,0-0.4c7.8-5.9,12.9-16.5,12.9-27.2
		c0-16.9-12.1-30.6-27-30.6C35,10.4,22.9,24.1,22.9,41c0,10.9,5.1,21.5,13.1,27.4c0,0,0,0.1,0,0.1c-4.5,1.2-20,5.2-25.1,8.5
		c-6.4,4.1-7.6,13.9-7.6,14.3c-0.1,1.1,0.7,2.1,1.8,2.2c0.1,0,0.1,0,0.2,0c1,0,1.9-0.8,2-1.8c0-0.1,1-8.4,5.8-11.4
		c4.1-2.6,17.6-6.4,23.9-8c2,5.2,7.1,8.9,13,8.9c5.9,0,10.9-3.7,13-8.8c6.4,1.6,19.5,5.3,23.6,7.9c4.8,3,5.8,11.3,5.8,11.4
		c0.1,1,1,1.8,2,1.8c0.1,0,0.1,0,0.2,0C95.7,93.5,96.4,92.5,96.3,91.4z M50,77.3c-5.5,0-10-4.5-10-10c0-0.7-0.3-1.3-0.9-1.7
		C31.7,60.7,26.9,51,26.9,41c0-14.7,10.3-26.6,22.9-26.6c12.7,0,23,12,23,26.6c0,9.8-4.7,19.5-12,24.5c-0.6,0.4-0.9,1.1-0.9,1.7
		c0,0,0,0.1,0,0.1C60,72.9,55.5,77.3,50,77.3z"/>
	<path d="M39.5,24.6C39.5,24.6,39.5,24.6,39.5,24.6c-1,0-1.7,0.8-1.7,1.8c0,1,0.8,1.7,1.8,1.7c1,0,1.7-0.8,1.7-1.8c0,0,0,0,0,0
		C41.2,25.4,40.4,24.6,39.5,24.6z"/>
	<path d="M55.3,35.3C55.3,35.3,55.3,35.3,55.3,35.3c0-1-0.8-1.7-1.7-1.7c0,0,0,0,0,0c-1,0-1.7,0.8-1.7,1.7c0,1,0.8,1.7,1.7,1.7
		C54.5,37,55.3,36.3,55.3,35.3z"/>
	<path d="M55.9,28c-0.9,0-1.7,0.8-1.7,1.7c0,1,0.7,1.7,1.7,1.8c1,0,1.7-0.7,1.8-1.7v0C57.7,28.8,56.9,28,55.9,28z"/>
	<path d="M37.5,37.8c-1,0-1.7,0.8-1.7,1.7s0.8,1.7,1.7,1.7s1.7-0.8,1.7-1.7c0,0,0,0,0,0C39.2,38.5,38.4,37.8,37.5,37.8z"/>
	<path d="M53.3,22.2c0-1-0.8-1.7-1.7-1.7c-1,0-1.7,0.8-1.7,1.7c0,1,0.8,1.7,1.7,1.7S53.3,23.2,53.3,22.2z"/>
	<path d="M45.7,33.4c1,0,1.7-0.8,1.7-1.7c0-1-0.8-1.7-1.7-1.7c0,0,0,0,0,0c-1,0-1.7,0.8-1.7,1.7C44,32.6,44.8,33.4,45.7,33.4z"/>
	<path d="M64,34.8c0,1,0.8,1.7,1.8,1.7c1,0,1.7-0.8,1.7-1.8c0-0.9-0.8-1.7-1.7-1.7c0,0,0,0-0.1,0C64.8,33,64,33.8,64,34.8z"/>
	<path d="M63.3,28.2c1,0,1.7-0.8,1.7-1.7c0-1-0.8-1.7-1.7-1.7s-1.7,0.8-1.7,1.7C61.5,27.4,62.3,28.2,63.3,28.2z"/>
	<path d="M45.9,44.3c-1,0-1.7,0.8-1.7,1.7c0,1,0.8,1.7,1.7,1.7c1,0,1.7-0.8,1.7-1.7C47.6,45,46.9,44.3,45.9,44.3z"/>
	<path d="M63,47.5c1,0,1.7-0.7,1.8-1.7v0c0,0,0,0,0,0c0-0.9-0.8-1.7-1.7-1.7c-0.9,0-1.7,0.8-1.7,1.7C61.3,46.6,62.1,47.4,63,47.5z"
		/>
	<path d="M54.8,45.1c-1,0-1.7,0.8-1.7,1.7s0.8,1.7,1.7,1.7c1,0,1.7-0.8,1.7-1.7c0,0,0,0,0,0C56.5,45.9,55.7,45.1,54.8,45.1z"/>
	<path d="M36.2,53c-0.9,0-1.7,0.8-1.7,1.7c0,1,0.8,1.7,1.7,1.7c1,0,1.7-0.8,1.7-1.7c0,0,0,0,0-0.1C38,53.7,37.2,53,36.2,53z"/>
	<path d="M45.3,17.9c0-1-0.8-1.7-1.7-1.7c0,0,0,0,0,0c-1,0-1.7,0.8-1.7,1.7c0,1,0.8,1.7,1.7,1.7C44.6,19.6,45.3,18.9,45.3,17.9z"/>
	<path d="M31.4,31.3c-1,0-1.7,0.8-1.7,1.7c0,1,0.8,1.7,1.7,1.7c1,0,1.7-0.8,1.7-1.7c0,0,0,0,0,0C33.1,32,32.3,31.3,31.4,31.3z"/>
</g>
</svg>
