<?xml version="1.0" encoding="utf-8"?>
<!-- Generator: Adobe Illustrator 24.2.3, SVG Export Plug-In . SVG Version: 6.00 Build 0)  -->
<svg version="1.1" id="Layer_1" xmlns="http://www.w3.org/2000/svg" xmlns:xlink="http://www.w3.org/1999/xlink" x="0px" y="0px"
	 viewBox="0 0 100 100" style="enable-background:new 0 0 100 100;" xml:space="preserve">
<g>
	<path d="M59,39.6c0.6,0,1.2-0.3,1.6-0.8c0.7-0.9,0.5-2.1-0.3-2.8l-2.7-2.2l2.6-0.8c1.1-0.3,1.7-1.4,1.3-2.5
		c-0.3-1.1-1.4-1.7-2.5-1.3l-9.9,3l8.7,6.9C58.1,39.5,58.6,39.6,59,39.6z"/>
	<path d="M35.2,29.3c-1.1-0.3-2.2,0.3-2.5,1.3c-0.3,1.1,0.3,2.2,1.3,2.5l2.6,0.8l-2.7,2.2c-0.9,0.7-1,1.9-0.3,2.8
		c0.4,0.5,1,0.8,1.6,0.8c0.4,0,0.9-0.1,1.2-0.4l8.7-6.9L35.2,29.3z"/>
	<path d="M92.6,86c-2.5-14.7-5.3-18-7.1-19.1c-4.9-3.1-19.6-7.1-24.6-8.3c0-0.1,0-0.3,0-0.4c7.8-5.9,12.7-16.4,12.7-27
		c0-16.8-12-30.4-26.8-30.4c-14.7,0-26.7,13.6-26.7,30.4c0,10.8,5.1,21.4,13,27.2c0,0,0,0.1,0,0.1c-4.5,1.1-19.9,5.2-24.9,8.4
		C6.6,68,3.8,71.3,1.1,86c-0.4,2.2-0.7,4.3-1,6.3v7.7h3c1.5-13.2,4.6-27.9,7.4-29.7c4.1-2.6,17.4-6.3,23.7-7.9c2,5.2,7.1,8.9,13,8.9
		c5.8,0,10.9-3.6,12.9-8.8c6.4,1.6,19.3,5.3,23.3,7.8c2.8,1.8,5.8,16.5,7.1,29.7h4C94.3,97.5,93.7,91.9,92.6,86z M57.9,55.5
		c-0.5,0.4-0.9,1-0.9,1.6v0.2c0,5.5-4.4,9.9-9.9,9.9c-5.5,0-9.9-4.4-9.9-9.9c0-0.7-0.3-1.3-0.9-1.7C29,50.6,24.3,41,24.3,31.1
		C24.3,16.6,34.5,4.7,47,4.7c12.6,0,22.8,11.9,22.8,26.4C69.8,40.9,65.1,50.4,57.9,55.5z"/>
	<path d="M78.2,84.4c0.6-0.8,1.1-1.7,1.2-2.7c0.2-1.5-0.1-3-1-4.2l-1.5,1l1.4-1c-0.3-0.4-0.6-0.7-1-1c0.1-0.8-0.1-1.7-0.4-2.5
		c-0.7-1.6-2.2-2.8-4-3.2c-0.1-0.2-0.2-0.4-0.4-0.6c-1.1-1.5-2.8-2.4-4.6-2.4l0.1,0c-1.2,0-2.3,0.4-3.3,1.1l-6.3,4.5l-0.1-0.1
		c-1-1-2.4-1.5-3.8-1.5c-1.2,0-2.4,0.4-3.3,1.1L44,78.1c-0.8,0.6-1.5,1.2-2.3,1.8c-3.3,3-4.9,7.2-4.8,11.3l-13.9,7
		c-0.7,0.4-1.1,1.1-1.1,1.8h6.5l9.3-4.6c0.3,1,0.7,2,1.3,2.9c0.3,0.6,0.7,1.2,1.1,1.7h5.3c-0.7-0.6-1.3-1.2-1.9-2
		c-0.4-0.5-0.8-1.1-1.1-1.8c-2.5-4.4-1.7-10,2.1-13.5c0.6-0.5,1.2-1,1.9-1.5l7.3-5.2c0.3-0.2,0.6-0.3,1-0.3c0.4,0,0.8,0.1,1.1,0.4
		c0.7,0.6,0.7,1.6,0.1,2.3c-0.1,0.1-0.2,0.2-0.3,0.2l-3.9,2.8c-0.3,0.2-0.4,0.6-0.2,0.9c0.1,0.2,0.3,0.3,0.6,0.3
		c0.1,0,0.3,0,0.4-0.1l14.7-10.4c0.3-0.2,0.6-0.3,1-0.3c0.5,0,1,0.3,1.3,0.7c0.6,0.7,0.4,1.7-0.3,2.3c0,0,0,0,0,0l-11.2,7.9
		c-0.3,0.2-0.4,0.7-0.1,1c0,0,0.1,0.1,0.1,0.1C58,84,58.2,84,58.3,84c0.2,0,0.3-0.1,0.4-0.1L71,75c0.7-0.5,1.7-0.3,2.2,0.4
		c0.1,0.1,0.1,0.2,0.2,0.3c0.3,0.7,0,1.5-0.6,1.9l-12,8.6c-0.3,0.2-0.4,0.6-0.2,1c0,0,0,0,0,0c0.1,0.2,0.3,0.3,0.6,0.3
		c0.1,0,0.3,0,0.4-0.1l11.2-8c0.8-0.5,1.8-0.4,2.4,0.4c0,0,0,0,0,0c0.5,0.7,0.3,1.8-0.4,2.3L63,90.4c-0.3,0.2-0.4,0.7-0.2,1
		c0,0,0,0,0,0c0.1,0.2,0.3,0.3,0.6,0.3c0.1,0,0.3,0,0.4-0.1l8.3-5.9c0.3-0.2,0.6-0.3,1-0.3c0.4,0,0.8,0.1,1.1,0.4
		c0.7,0.6,0.7,1.7,0.1,2.3c-0.1,0.1-0.2,0.1-0.2,0.2L57.5,100h6.9l12-8.5C78.7,89.9,79.4,86.9,78.2,84.4z"/>
	<path d="M47.3,44.5L47.3,44.5c-4.1,0-6.8,3.8-7.9,5.9c-0.2,0.3-0.1,0.7,0.2,0.8c0.1,0.1,0.2,0.1,0.3,0.1h0.2c0.7-0.2,1.3-0.3,2-0.2
		c1.6,0,3.5,0.3,5.2,0.3c1.7,0,3.7-0.3,5.2-0.3c0.7,0,1.3,0.1,2,0.2h0.2c0.3,0,0.6-0.3,0.6-0.6c0-0.1,0-0.2-0.1-0.3
		C54.2,48.3,51.5,44.5,47.3,44.5z M47.3,48.3c-0.7,0-1.5,0-2.2-0.1c0.6-0.5,1.4-0.7,2.2-0.7c0.8,0,1.6,0.3,2.3,0.7
		C48.8,48.3,48,48.3,47.3,48.3z"/>
	<path d="M75.8,46.9c0.1,0,0.2,0,0.3,0l6.9-1.2c1.1-0.2,1.8-1.2,1.6-2.3c-0.2-1.1-1.2-1.8-2.3-1.6l-6.9,1.2
		c-1.1,0.2-1.8,1.2-1.6,2.3C74,46.2,74.9,46.9,75.8,46.9z"/>
	<path d="M75.5,53.6l6.9,1.2c0.1,0,0.2,0,0.4,0c1,0,1.8-0.7,2-1.7c0.2-1.1-0.5-2.1-1.6-2.3l-6.9-1.2c-1.1-0.2-2.1,0.5-2.3,1.6
		C73.7,52.4,74.4,53.4,75.5,53.6z"/>
	<path d="M96,43.8c-0.7-1.5-1.9-2.9-3.3-3.8c0-2.9-1.9-5.6-4.8-6.4c-0.6-0.2-1.2-0.2-1.7-0.2c-0.4,0-0.9,0-1.3,0.1
		c-1.1,0.2-1.8,1.3-1.6,2.4c0.2,1.1,1.3,1.8,2.4,1.6c0.2,0,0.3,0,0.5,0c0,0,0,0,0,0c0.2,0,0.5,0,0.7,0.1c1.3,0.4,2.1,1.7,1.8,3.1
		l-0.4,1.6l1.5,0.7c1.2,0.6,2.1,1.5,2.7,2.7c0.6,1.4,0.7,2.9,0.2,4.3c-0.5,1.4-1.5,2.5-2.9,3.2l-1.5,0.7l0.4,1.6
		c0.1,0.2,0.1,0.4,0.1,0.6c0,1.4-1.2,2.6-2.5,2.6c-0.2,0-0.4,0-0.6-0.1c-1.1-0.2-2.1,0.5-2.3,1.6c-0.2,1.1,0.5,2.1,1.6,2.3
		c0.4,0.1,0.8,0.1,1.3,0.1c3.6,0,6.6-2.9,6.6-6.6c0,0,0,0,0,0c1.7-1.1,2.9-2.8,3.6-4.7C97.2,48.8,97.1,46.2,96,43.8z"/>
</g>
</svg>
