<?xml version="1.0" encoding="utf-8"?>
<!-- Generator: Adobe Illustrator 24.2.3, SVG Export Plug-In . SVG Version: 6.00 Build 0)  -->
<svg version="1.1" id="Layer_1" xmlns="http://www.w3.org/2000/svg" xmlns:xlink="http://www.w3.org/1999/xlink" x="0px" y="0px"
	 viewBox="0 0 100 100" style="enable-background:new 0 0 100 100;" xml:space="preserve">
<g>
	<path d="M45.3,36.2c4,5.3,8.2,8.4,12.8,9.7c7,1.9,13,3.1,18.9,2.9c2.5-0.1,5-1.4,6.6-2.2c0.3-0.1,0.5-0.3,0.7-0.4
		c3-1.4,6.2-0.7,7,0.1c0.1,0.9-1.5,3.9-3.7,6.6c-4.1,5-14.8,11-23.4,15.8c-2.2,1.2-4.2,2.4-6,3.4c-2.2,1.3-3.8,2.8-5.1,4
		c-0.8,0.8-1.5,1.4-2.2,1.8c-0.1,0.1-0.2,0.1-0.3,0.2c-2.1,1.3-4.7,1.7-7.1,1.1c-2.4-0.6-4.5-2.1-5.9-4.3L0,17.3v7.3l34.5,52.6
		c1.9,3.1,4.8,5.2,8.3,6c1,0.2,2.1,0.4,3.1,0.4c2.4,0,4.9-0.7,7-2c0.1-0.1,0.2-0.2,0.4-0.2c0.9-0.6,1.8-1.4,2.7-2.3
		c1.2-1.1,2.6-2.4,4.3-3.5c1.8-1,3.8-2.2,5.9-3.4c8.9-5,19.9-11.2,24.5-16.8c2-2.4,6.3-8.3,3.9-11.5c-2.2-2.8-7.7-3.5-12-1.4
		c-0.2,0.1-0.5,0.3-0.8,0.4c-1.3,0.7-3.4,1.7-5,1.8c-5.5,0.2-11-1-17.7-2.8c-3.7-1-7.2-3.7-10.7-8.2C43.3,27.1,35.1,12.4,28.5,0H24
		C30.8,12.9,39.7,28.9,45.3,36.2z"/>
	<path d="M60.5,38.4c-1,0-1.8-0.8-1.9-1.8c-0.2-3-2.8-5.4-5.8-5.2c-1,0-1.9-0.7-1.9-1.8c0-1,0.7-1.9,1.8-1.9
		c5.1-0.2,9.4,3.7,9.7,8.8c0.1,1-0.7,1.9-1.8,2C60.6,38.4,60.5,38.4,60.5,38.4z"/>
	<path d="M67.9,37.5c-1,0-1.8-0.8-1.9-1.8c-0.3-6.6-6-11.7-12.5-11.3c-1,0-1.9-0.7-1.9-1.8c0-1,0.7-1.9,1.8-1.9
		c8.6-0.4,16,6.2,16.4,14.9C69.8,36.6,69,37.4,67.9,37.5C67.9,37.5,67.9,37.5,67.9,37.5z"/>
</g>
</svg>
