<svg id="Layer_1" data-name="Layer 1" xmlns="http://www.w3.org/2000/svg" viewBox="0 0 100 100"><title>Side Effects Top 20</title><path d="M44.8,29.75c0-4.28,5.79-13.95,8.72-18.58a2,2,0,0,1,3.35,0c2.93,4.63,8.72,14.3,8.72,18.58a10.4,10.4,0,0,1-20.79,0Z"/><path d="M24,60.38c0-4.28,5.78-14,8.72-18.59a2,2,0,0,1,3.35,0C39,46.43,44.8,56.1,44.8,60.38a10.39,10.39,0,0,1-20.78,0Z"/><path d="M55.2,77.19c0-4,5-12.68,8.09-17.59a2.69,2.69,0,0,1,4.59,0C70.94,64.51,76,73.2,76,77.19a10.39,10.39,0,0,1-20.78,0Z"/></svg>