<?xml version="1.0" encoding="utf-8"?>
<!-- Generator: Adobe Illustrator 24.0.0, SVG Export Plug-In . SVG Version: 6.00 Build 0)  -->
<svg version="1.1" id="Layer_1" xmlns="http://www.w3.org/2000/svg" xmlns:xlink="http://www.w3.org/1999/xlink" x="0px" y="0px"
	 viewBox="0 0 100 100" style="enable-background:new 0 0 100 100;" xml:space="preserve">
<g>
	<path d="M56.1,43.2c0.6,0,1.2-0.3,1.6-0.8c0.7-0.9,0.5-2.1-0.3-2.8l-2.4-1.9l2.2-0.7c1.1-0.3,1.7-1.4,1.3-2.5
		c-0.3-1.1-1.4-1.7-2.5-1.3l-9.5,2.9l8.4,6.7C55.2,43.1,55.6,43.2,56.1,43.2z"/>
	<path d="M33.6,33.3c-1.1-0.3-2.2,0.3-2.5,1.3c-0.3,1.1,0.3,2.2,1.3,2.5l2.2,0.7l-2.4,1.9c-0.9,0.7-1,1.9-0.3,2.8
		c0.4,0.5,1,0.8,1.6,0.8c0.4,0,0.9-0.1,1.2-0.4l8.4-6.7L33.6,33.3z"/>
	<path d="M81.2,68.7c-4.6-3-18.4-6.6-23.1-7.9c0-0.1,0-0.2,0-0.3c7.3-5.6,12-15.5,12-25.5c0-15.9-11.4-28.8-25.4-28.8
		S19.4,19.2,19.4,35.1c0,10.2,4.8,20.2,12.2,25.7c-4.4,1.1-18.7,4.9-23.4,7.9c-1.7,1.1-4.3,4.2-6.9,18.1c-1.4,7.3-2.1,14.4-2.1,14.4
		c-0.1,1.1,0.7,2.1,1.8,2.2c0.1,0,0.1,0,0.2,0c1,0,1.9-0.8,2-1.8c1.3-12.9,4.4-27.8,7.2-29.6c3.8-2.4,16.1-5.9,22.1-7.4
		c0.6,1.6,1.5,3.2,2.8,4.5c2.4,2.6,5.7,4.1,9.2,4.2c0.1,0,0.3,0,0.4,0c5.6,0,10.5-3.5,12.4-8.6c6.1,1.6,18.1,4.9,21.8,7.3
		c2.8,1.8,5.7,16.7,6.8,29.6c0.1,1,1,1.8,2,1.8c0.1,0,0.1,0,0.2,0c1.1-0.1,1.9-1.1,1.8-2.2C89.2,94.6,86.9,72.4,81.2,68.7z
		 M44.6,69.4c-2.5-0.1-4.8-1.1-6.5-2.9s-2.6-4.1-2.5-6.6c0-0.7-0.3-1.3-0.9-1.7c-6.9-4.7-11.4-13.7-11.4-23
		c0-13.7,9.6-24.8,21.4-24.8c11.8,0,21.4,11.1,21.4,24.8c0,9.2-4.4,18.2-11.2,22.9c-0.5,0.4-0.9,1-0.9,1.6l0,0.2c0,0.2,0,0.4,0,0.5
		C53.9,65.5,49.7,69.5,44.6,69.4z"/>
	<path d="M74.5,78.8l-1.4,0.9L74.5,78.8c-0.3-0.4-0.6-0.7-1-1c0-0.8-0.1-1.5-0.5-2.2c-0.7-1.5-2.1-2.7-3.7-3
		c-0.1-0.2-0.2-0.4-0.3-0.6c-1-1.4-2.6-2.3-4.4-2.3l0,0c-1.1,0-2.2,0.3-3.1,1L55.6,75h-0.1c-1-0.9-2.3-1.4-3.6-1.4
		c-1.1,0-2.2,0.3-3.1,1l-7,4.9c-0.7,0.5-1.5,1.1-2.1,1.7c-3,2.8-4.6,6.6-4.5,10.5L22,98.3c-1,0.5-1.4,1.7-0.9,2.7
		c0.4,0.7,1.1,1.1,1.8,1.1c0.3,0,0.6-0.1,0.9-0.2l12.1-6c0.3,0.9,0.7,1.8,1.2,2.6c0.4,0.7,0.8,1.3,1.2,2c4.2,5.8,12.2,7.2,18.1,3.1
		l16.2-11.5c1.3-0.9,2.1-2.4,2.2-4c0.1-0.9-0.1-1.9-0.6-2.8C75.7,83.5,75.9,80.8,74.5,78.8z M71,83.1C71,83.1,71,83.2,71,83.1
		L59.9,91c-0.3,0.2-0.4,0.6-0.2,0.9c0,0,0,0,0,0c0.1,0.2,0.3,0.3,0.5,0.3c0.1,0,0.3,0,0.4-0.1l7.9-5.6c0.3-0.2,0.6-0.3,1-0.3
		c0.4,0,0.7,0.1,1,0.4c0.6,0.6,0.7,1.6,0.1,2.2c-0.1,0.1-0.2,0.2-0.3,0.2l-16.2,11.4c-4.1,2.9-9.8,2-12.8-2.1c0,0,0,0,0,0
		c-0.3-0.5-0.7-1.1-1.1-1.7c-2.4-4.2-1.5-9.5,2-12.7c0.5-0.5,1.1-1,1.7-1.4l6.9-4.9c0.3-0.2,0.6-0.3,1-0.3c0.4,0,0.7,0.1,1,0.4
		c0.6,0.6,0.6,1.6,0,2.2c-0.1,0.1-0.1,0.1-0.2,0.2l-3.7,2.6c-0.3,0.2-0.3,0.6-0.2,0.8c0.2,0.3,0.6,0.4,0.8,0.2c0,0,0,0,0.1,0
		l13.9-9.8c0.3-0.2,0.6-0.3,0.9-0.3c0.9,0,1.6,0.7,1.6,1.6c0,0.5-0.2,0.9-0.6,1.2L55,83.8c-0.3,0.2-0.3,0.6-0.1,0.9
		c0,0,0.1,0.1,0.1,0.1c0.1,0.1,0.3,0.2,0.4,0.1c0.1,0,0.3-0.1,0.4-0.1l11.6-8.4c0.3-0.2,0.6-0.3,0.9-0.3c0.6,0,1.1,0.3,1.3,0.9
		c0.3,0.7,0.1,1.4-0.5,1.8l-11.3,8.2c-0.3,0.2-0.4,0.6-0.2,0.9c0,0,0,0,0,0c0.1,0.2,0.3,0.3,0.5,0.3c0.1,0,0.3,0,0.4-0.1l10.6-7.5
		c0.3-0.2,0.6-0.3,0.9-0.3c0.5,0,1,0.3,1.3,0.7C71.9,81.7,71.7,82.6,71,83.1z"/>
	<path d="M45,47.7L45,47.7c-3.8,0-6.4,3.6-7.5,5.6c-0.2,0.3,0,0.6,0.2,0.8c0.1,0,0.2,0.1,0.3,0.1h0.2c0.6-0.2,1.2-0.2,1.9-0.2
		c1.5,0,3.3,0.2,5,0.2s3.4-0.2,5-0.2c0.6,0,1.3,0.1,1.9,0.2h0.2c0.3,0,0.6-0.3,0.6-0.6c0-0.1,0-0.2-0.1-0.3
		C51.5,51.3,49,47.7,45,47.7z M45.1,51.3c-0.6,0-1.4,0-2.1-0.1c0.6-0.4,1.3-0.7,2-0.7h0c0.8,0,1.5,0.3,2.2,0.7
		C46.5,51.3,45.7,51.3,45.1,51.3z"/>
	<path d="M70,48.4c0.2,1,1,1.7,2,1.7c0.1,0,0.2,0,0.4,0l6.5-1.1c1.1-0.2,1.8-1.2,1.6-2.3c-0.2-1.1-1.2-1.8-2.3-1.6l-6.5,1.1
		C70.5,46.3,69.8,47.3,70,48.4z"/>
	<path d="M78.8,53.6l-6.5-1.2c-1.1-0.2-2.1,0.5-2.3,1.6c-0.2,1.1,0.5,2.1,1.6,2.3l6.5,1.2c0.1,0,0.2,0,0.4,0c1,0,1.8-0.7,2-1.7
		C80.6,54.8,79.9,53.8,78.8,53.6z"/>
	<path d="M91.1,47c-0.7-1.5-1.8-2.7-3.1-3.6c0-1.7-0.7-3.2-1.8-4.4c-1.2-1.2-2.8-1.9-4.5-1.9c-0.4,0-0.8,0-1.2,0.1
		c-1.1,0.2-1.8,1.2-1.6,2.3c0.2,1.1,1.2,1.8,2.3,1.6c0.2,0,0.3,0,0.5,0c0.6,0,1.2,0.2,1.6,0.7c0.4,0.4,0.7,1,0.7,1.6
		c0,0.2,0,0.4-0.1,0.6l-0.4,1.6l1.5,0.7c1.1,0.5,2,1.4,2.5,2.5c0.6,1.3,0.7,2.7,0.2,4C87.2,54,86.3,55,85,55.6l-1.5,0.7l0.4,1.6
		c0,0.2,0.1,0.4,0.1,0.6c0,1.3-1,2.3-2.3,2.3c-0.2,0-0.3,0-0.5,0c-1.1-0.2-2.1,0.5-2.3,1.6c-0.2,1.1,0.5,2.1,1.6,2.3
		c0.4,0.1,0.8,0.1,1.2,0.1c3.5,0,6.3-2.8,6.3-6.3c1.6-1.1,2.8-2.6,3.4-4.5C92.3,51.7,92.1,49.2,91.1,47z"/>
</g>
</svg>
