<?xml version="1.0" encoding="utf-8"?>
<!-- Generator: Adobe Illustrator 24.0.0, SVG Export Plug-In . SVG Version: 6.00 Build 0)  -->
<svg version="1.1" id="Layer_1" xmlns="http://www.w3.org/2000/svg" xmlns:xlink="http://www.w3.org/1999/xlink" x="0px" y="0px"
	 viewBox="0 0 100 100" style="enable-background:new 0 0 100 100;" xml:space="preserve">
<g>
	<path d="M36.3,68.7l-3,1.1l3.9-5c0.7-0.9,0.5-2.1-0.3-2.8c-0.9-0.7-2.1-0.5-2.8,0.3l-7.2,9.2c-0.4,0.5-0.6,1.2-0.5,1.9
		c0.1,0.7,0.4,1.3,1,1.7c0.7,0.5,1.6,0.7,2.4,0.4l3-1.1l-3.9,5c-0.7,0.9-0.5,2.1,0.3,2.8c0.4,0.3,0.8,0.4,1.2,0.4
		c0.6,0,1.2-0.3,1.6-0.8l7.2-9.1c0.6-0.7,0.7-1.7,0.4-2.5C39,68.8,37.5,68.2,36.3,68.7z"/>
	<path d="M44.7,47c1.4,1.4,2.1,3.4,2.1,5.3c0,1.1,0.8,2,1.9,2.1c0,0,0.1,0,0.1,0c1.1,0,2-0.8,2-1.9c0.1-3.1-1-6.1-3.2-8.3
		c-1.9-1.9-4.5-2.9-7.2-3.1c-1.1-0.1-2,0.8-2.1,1.9c0,1.1,0.8,2,1.9,2.1C41.9,45.2,43.5,45.9,44.7,47z"/>
	<path d="M96.5,79.3L78.2,64.9c-1.1-0.9-2.2-1.8-3.1-2.9L39.5,21.5c-3-3.4-7.5-4.8-11.9-3.8L3.9,23.1c-1.1,0.2-1.7,1.3-1.5,2.4
		c0.2,1.1,1.3,1.8,2.4,1.5l23.7-5.5c2.9-0.7,6,0.3,8,2.6l35.6,40.5c1.1,1.2,2.3,2.4,3.6,3.4L94,82.4c0.1,0.4-0.3,1.2-0.7,1.4
		l-17.9-5.2c-1.1-0.3-2.3-0.4-3.4-0.3l-1,0.1c-1.5,0.2-3-0.3-4.2-1.2c-1.2-1-1.9-2.3-2.1-3.8c0-0.1,0-0.2,0-0.3l-0.2-3.1
		c-0.4-7.5-7.8-10.7-13.1-13.1l-0.2-0.1c-1.2-0.5-2.4-1-3.7-1.5c-5.9-2.4-11.4-4.6-14.2-10C31.1,41,29.3,36.6,28,32
		c-0.3-1.1-1.4-1.7-2.5-1.3c-1.1,0.3-1.7,1.4-1.3,2.5c0.8,2.8,1.9,5.7,3,8.4L5.4,48.3c-1.1,0.3-1.6,1.4-1.3,2.5
		c0.3,0.9,1.1,1.4,1.9,1.4c0.2,0,0.4,0,0.6-0.1l22.2-6.9c0.3,0.6,0.5,1.2,0.8,1.8c3.5,6.7,10,9.3,16.3,11.9c1.2,0.5,2.4,1,3.6,1.5
		l0.2,0.1c4.7,2,10.5,4.6,10.7,9.6l0.2,3.1c0,0.2,0,0.4,0,0.5c0.3,2.6,1.5,4.9,3.5,6.5c2,1.6,4.5,2.4,7.1,2.1l1-0.1
		c0.6-0.1,1.3,0,1.9,0.2l18.1,5.3l0.1,0c0.3,0.1,0.5,0.1,0.8,0.1c1.6,0,3.2-1.1,4.1-2.9C98.4,82.7,98,80.5,96.5,79.3z"/>
</g>
</svg>
