<?xml version="1.0" encoding="utf-8"?>
<!-- Generator: Adobe Illustrator 24.0.0, SVG Export Plug-In . SVG Version: 6.00 Build 0)  -->
<svg version="1.1" id="Layer_1" xmlns="http://www.w3.org/2000/svg" xmlns:xlink="http://www.w3.org/1999/xlink" x="0px" y="0px"
	 viewBox="0 0 100 100" style="enable-background:new 0 0 100 100;" xml:space="preserve">
<g>
	<path d="M33.4,26.2c0.1,1.5,1.4,2.7,3,2.6c1.5-0.1,2.7-1.4,2.6-3c0-1.1-1.4-3.4-2.2-4.7c-0.1-0.1-0.1-0.2-0.2-0.2
		c-0.3-0.2-0.8-0.1-1,0.2c-0.8,1.3-2.2,3.7-2.2,4.7h0C33.4,26,33.4,26.1,33.4,26.2z"/>
	<path d="M62.7,33.1c1.5,0,2.8-1.3,2.8-2.8c0-1.1-1.4-3.4-2.2-4.7c-0.1-0.1-0.1-0.2-0.2-0.2c-0.3-0.2-0.8-0.1-1,0.2
		c-0.8,1.3-2.2,3.7-2.2,4.7C59.9,31.8,61.2,33.1,62.7,33.1z"/>
	<path d="M86.1,71.7c-5.1-3.3-21-7.4-24.6-8.3c7.1-5.6,11.7-15.3,11.7-25.1c0-15.8-11.3-28.7-25.3-28.7c-13.9,0-25.2,12.9-25.2,28.7
		c0,10,4.6,19.7,11.8,25.3c-4.6,1.2-19.2,5-24,8.1c-6.2,3.9-7.3,13.4-7.3,13.8c-0.1,1.1,0.7,2.1,1.8,2.2c0.1,0,0.2,0,0.2,0
		c1,0,1.9-0.8,2-1.8c0-0.1,1-8,5.5-10.9c3.9-2.5,16.8-6.1,22.9-7.6c1.7,5,6.4,8.7,12.1,8.9c0.1,0,0.3,0,0.4,0c5.8,0,10.8-3.8,12.5-9
		c5.8,1.4,19.4,5.2,23.5,7.8c4.5,2.9,5.5,10.8,5.5,10.9c0.1,1,1,1.8,2,1.8c0.1,0,0.2,0,0.2,0c1.1-0.1,1.9-1.1,1.8-2.2
		C93.4,85.1,92.2,75.6,86.1,71.7z M57.1,62.6l0,0.2c0,0.2,0,0.4,0,0.6c-0.2,5.1-4.4,9.1-9.5,8.9c-5.1-0.2-9.1-4.4-8.9-9.5
		c0-0.7-0.3-1.3-0.9-1.7C31,56.5,26.6,47.5,26.6,38.2c0-13.6,9.5-24.7,21.2-24.7c11.7,0,21.3,11.1,21.3,24.7c0,9.1-4.4,18-11.1,22.7
		C57.4,61.3,57.1,61.9,57.1,62.6z"/>
	<path d="M41.5,35l-7.4,4.3c-1.1,0.7-1.5,2.1-0.9,3.2c0.4,0.8,1.2,1.2,2,1.2c0.4,0,0.8-0.1,1.2-0.3l7.4-4.3c1.1-0.7,1.5-2.1,0.9-3.2
		C44,34.7,42.6,34.3,41.5,35z"/>
	<path d="M61,39.3L53.6,35c-1.1-0.7-2.6-0.3-3.2,0.9c-0.7,1.1-0.3,2.6,0.9,3.2l7.4,4.3c0.4,0.2,0.8,0.3,1.2,0.3c0.8,0,1.6-0.4,2-1.2
		C62.5,41.4,62.1,39.9,61,39.3z"/>
	<path d="M95.5,50.2c-1.1-2.5-2.9-4.6-5.4-5.8V15.7c0-3-2.4-5.4-5.4-5.4s-5.4,2.4-5.4,5.4v28.6c-2.4,1.3-4.3,3.3-5.4,5.9
		c-1.2,2.9-1.2,6.1,0,8.9c1.9,4.5,6.2,7.2,10.8,7.2c1.5,0,3-0.3,4.5-0.9c2.9-1.2,5.1-3.5,6.3-6.3S96.7,53.1,95.5,50.2z M84.7,13.3
		c1.3,0,2.4,1.1,2.4,2.4v8.2h-4.9v-8.2C82.3,14.4,83.4,13.3,84.7,13.3z M88.1,62.7c-4.4,1.8-9.5-0.2-11.4-4.7
		c-0.9-2.1-0.9-4.5,0-6.7c0.9-2.1,2.5-3.8,4.7-4.7l0.7-0.3v2c-3.5,1.5-5.2,5.5-3.7,9.1c1.5,3.5,5.5,5.2,9.1,3.7
		c3.5-1.5,5.2-5.5,3.7-9.1c-0.7-1.7-2-3-3.7-3.7l0,0v-2l0.7,0.3c2.1,0.9,3.8,2.5,4.7,4.7C94.6,55.8,92.5,60.9,88.1,62.7z"/>
	<path d="M48.4,85c3.7,0,7.1-1.4,9.7-4c0.8-0.8,0.8-2,0-2.8c-0.8-0.8-2-0.8-2.8,0C53.5,80,51,81,48.4,81c0,0,0,0,0,0
		c-2.6,0-5-1-6.9-2.9c-0.8-0.8-2-0.8-2.8,0c-0.8,0.8-0.8,2,0,2.8C41.3,83.6,44.8,85,48.4,85C48.4,85,48.4,85,48.4,85z"/>
	<path d="M61.9,84.1c-3.7,3.7-8.7,5.8-14,5.8c0,0,0,0,0,0c-5.3,0-10.3-2.1-14-5.8c-0.8-0.8-2-0.8-2.8,0c-0.8,0.8-0.8,2,0,2.8
		c4.5,4.5,10.5,7,16.9,7c0,0,0,0,0,0c6.4,0,12.4-2.5,16.9-7c0.8-0.8,0.8-2,0-2.8C63.9,83.3,62.6,83.3,61.9,84.1z"/>
</g>
</svg>
