<?xml version="1.0" encoding="utf-8"?>
<!-- Generator: Adobe Illustrator 24.0.0, SVG Export Plug-In . SVG Version: 6.00 Build 0)  -->
<svg version="1.1" id="Layer_1" xmlns="http://www.w3.org/2000/svg" xmlns:xlink="http://www.w3.org/1999/xlink" x="0px" y="0px"
	 viewBox="0 0 100 100" style="enable-background:new 0 0 100 100;" xml:space="preserve">
<g>
	<path d="M39.9,39.9c-0.8-0.8-2-0.8-2.8-0.1c-1,0.9-2.1,1.6-3.3,2c-1.2,0.3-2.4,0.2-3.5-0.1c-1-0.4-2.2,0.2-2.5,1.3
		c-0.4,1,0.2,2.2,1.3,2.5c1.1,0.4,2.2,0.5,3.3,0.5c0.9,0,1.8-0.1,2.6-0.3l0.1,0c1.8-0.6,3.5-1.6,4.9-2.9
		C40.6,42,40.6,40.7,39.9,39.9z"/>
	<path d="M53.1,34.8c-1,0.9-2.1,1.6-3.3,2c-1.2,0.3-2.4,0.2-3.5-0.1c-1-0.4-2.2,0.2-2.5,1.3c-0.4,1,0.2,2.2,1.3,2.5
		c1.1,0.4,2.2,0.5,3.3,0.5c0.9,0,1.7-0.1,2.6-0.3l0.1,0c1.8-0.6,3.5-1.6,4.9-2.9c0.8-0.8,0.8-2,0.1-2.8C55.2,34.1,53.9,34,53.1,34.8
		z"/>
	<path d="M56.2,55.1c-1.2-4-5.9-6.3-10.5-4.9c-4.7,1.3-7.4,5.6-6.3,9.7c0.4,1.4,1.2,2.5,2.3,3.1c0.9,0.5,2,0.7,3.1,0.7
		c1.5,0,3.1-0.4,4.5-0.8C51.4,62.3,57.7,60.5,56.2,55.1L56.2,55.1z M48.5,60c-2.6,0.7-4.4,0.8-5.3,0.3c-0.3-0.2-0.7-0.5-0.9-1.3
		c-0.7-2.4,1.2-5.1,4.2-6c0.6-0.2,1.3-0.3,1.9-0.3c2.3,0,4.3,1.2,4.9,3.2C53.6,56.8,54,58.4,48.5,60z"/>
	<path d="M98.1,93.4c0-0.4-1.3-10.5-7.8-14.7c-5.2-3.3-21.2-7.5-25.8-8.7c0.2-1.6,0.1-3.2-0.2-4.8c6-7.9,7.8-19.1,4.8-29.5
		C64.5,19.6,49.2,9.8,35,13.8c-6.3,1.8-11.6,6.1-14.9,12.1c-4,7.2-4.9,16.1-2.5,24.5c2.5,8.5,8.2,16,15.2,20.3
		c-6.4,1.7-18.6,5.2-23.1,8C3.2,82.9,2.1,93,2,93.4c-0.1,1.1,0.7,2.1,1.8,2.2c0.1,0,0.1,0,0.2,0c1,0,1.9-0.8,2-1.8
		c0-0.1,1-8.6,5.9-11.7c5.5-3.5,25.6-8.5,25.8-8.5c0,0,0,0,0.1,0c1.2,2.9,3.2,5.3,6,6.9c2.1,1.2,4.5,1.8,6.9,1.8
		c1.2,0,2.5-0.2,3.7-0.5c3.6-1,6.6-3.3,8.4-6.5c0.3-0.4,0.5-0.9,0.7-1.4c6.4,1.6,20.4,5.5,24.7,8.2c4.9,3.1,6,11.7,6,11.7
		c0.1,1,1,1.8,2,1.8c0.1,0,0.2,0,0.2,0C97.4,95.5,98.2,94.5,98.1,93.4z M53.3,77.9c-2.6,0.7-5.2,0.4-7.5-0.9c-2.3-1.3-4-3.4-4.7-6
		c-0.2-0.6-0.7-1.2-1.3-1.4c-8.4-2.8-15.6-10.7-18.4-20.2c-2.1-7.4-1.4-15.2,2.1-21.5c2.8-5.1,7.3-8.7,12.5-10.2
		c1.8-0.5,3.6-0.8,5.4-0.8c10.3,0,20.3,8,23.7,19.9c0,0,0,0,0,0c2.7,9.4,0.9,19.9-4.7,26.7c-0.4,0.5-0.6,1.3-0.3,1.9l0.1,0.3
		C61.7,71,58.6,76.5,53.3,77.9z"/>
	<path d="M72.6,28.6c0.1,0.7,0.7,1.2,1.4,1.1h6.7h0c0.7,0,1.2-0.5,1.2-1.2c0-0.7-0.5-1.2-1.2-1.2h-4.3l4.9-5.4
		c0.4-0.4,0.7-0.9,0.7-1.4v-0.1c0,0,0,0,0-0.1c-0.1-0.7-0.7-1.2-1.4-1.1h-6.5c-0.7,0-1.2,0.5-1.2,1.2c0,0,0,0,0,0
		c0,0.7,0.6,1.2,1.2,1.2h4.1L73.2,27c-0.4,0.4-0.7,0.9-0.7,1.5L72.6,28.6L72.6,28.6C72.6,28.5,72.6,28.6,72.6,28.6z"/>
	<path d="M85.8,17.4h6.7c0,0,0,0,0,0c0.7,0,1.2-0.5,1.2-1.2c0-0.7-0.5-1.2-1.2-1.2h-4.3L93,9.6c0.4-0.4,0.7-0.9,0.7-1.5v0
		c0-0.7-0.6-1.2-1.5-1.2h-6.5c-0.7,0-1.2,0.5-1.2,1.2c0,0,0,0,0,0c0,0.7,0.5,1.2,1.2,1.2h4.1L85,14.7c-0.4,0.4-0.6,0.9-0.7,1.4v0.1
		v0c0,0,0,0.1,0,0.1C84.5,17,85.1,17.5,85.8,17.4z"/>
</g>
</svg>
