<?xml version="1.0" encoding="utf-8"?>
<!-- Generator: Adobe Illustrator 24.0.0, SVG Export Plug-In . SVG Version: 6.00 Build 0)  -->
<svg version="1.1" id="Layer_1" xmlns="http://www.w3.org/2000/svg" xmlns:xlink="http://www.w3.org/1999/xlink" x="0px" y="0px"
	 viewBox="0 0 100 100" style="enable-background:new 0 0 100 100;" xml:space="preserve">
<g>
	<path d="M40.3,39c-0.8-0.8-2-0.8-2.8-0.1c-1,0.9-2.1,1.6-3.4,2c-1.1,0.3-2.3,0.2-3.5-0.1c-1-0.4-2.2,0.2-2.5,1.3
		c-0.4,1,0.2,2.2,1.3,2.5c1.1,0.4,2.1,0.5,3.2,0.5c0.9,0,1.7-0.1,2.6-0.3l0.1,0c1.8-0.6,3.5-1.6,4.9-2.9C41,41.1,41,39.9,40.3,39z"
		/>
	<path d="M53.5,33.9c-1,0.9-2.1,1.6-3.3,2c-1.2,0.3-2.4,0.2-3.5-0.1c-1-0.4-2.2,0.2-2.5,1.3c-0.4,1,0.2,2.2,1.3,2.5
		c1.1,0.4,2.2,0.5,3.3,0.5c0.9,0,1.8-0.1,2.6-0.3l0.1,0c1.8-0.6,3.5-1.6,4.9-2.9c0.8-0.8,0.8-2,0.1-2.8S54.3,33.1,53.5,33.9z"/>
	<path d="M52.6,49.7c-1.9-0.9-4.2-1-6.4-0.4c-2.2,0.6-4.1,2-5.2,3.7c-1.2,1.9-1.6,4-1,6c0.6,2.1,2,3.3,4.2,3.7
		c0.4,0.1,0.8,0.1,1.2,0.1c1.3,0,2.7-0.3,4.5-0.8c2.1-0.6,8.4-2.4,6.8-7.8C56,52.2,54.6,50.6,52.6,49.7z M49,59.1
		c-2,0.6-3.4,0.8-4.5,0.6c-1-0.1-1.5-0.6-1.7-1.5c-0.3-1.1-0.1-2.4,0.6-3.5c0.8-1.2,2.1-2.1,3.6-2.5c0.6-0.2,1.3-0.3,1.9-0.3
		c0.9,0,1.7,0.2,2.4,0.5c1.2,0.5,2.1,1.5,2.4,2.6C54,55.9,54.5,57.5,49,59.1z"/>
	<path d="M98.5,92.5c0-0.4-1.2-10.5-7.8-14.7c-5.2-3.3-21.2-7.5-25.8-8.7c0.2-1.6,0.1-3.2-0.2-4.8c5.8-7.8,7.7-19.3,4.8-29.5
		c0,0,0,0,0,0c-2.2-7.8-7-14.3-13.4-18.5c-6.5-4.2-13.8-5.4-20.7-3.4c-6.3,1.8-11.6,6.1-15,12.2c-4,7.2-4.8,16.1-2.4,24.4
		c2.5,8.5,8.2,16,15.2,20.3c-6.4,1.7-18.6,5.2-23.1,8C3.7,82,2.5,92.1,2.4,92.5c-0.1,1.1,0.7,2.1,1.8,2.2c0.1,0,0.2,0,0.2,0
		c1,0,1.9-0.8,2-1.8c0-0.1,1-8.6,5.9-11.7c4.5-2.9,20.2-7.1,25.8-8.5c0,0,0.1,0,0.1,0c1.2,2.9,3.3,5.3,6.1,6.8
		c2.1,1.2,4.4,1.8,6.7,1.8c1.3,0,2.6-0.2,3.9-0.5c3.6-1,6.5-3.4,8.3-6.6c0.2-0.4,0.4-0.7,0.5-1.1c6.4,1.6,20.4,5.5,24.7,8.2
		c4.9,3.1,5.9,11.6,6,11.7c0.1,1,1,1.8,2,1.8c0.1,0,0.1,0,0.2,0C97.8,94.6,98.6,93.6,98.5,92.5z M53.9,76.9
		c-5.3,1.5-10.8-1.6-12.3-6.8c-0.2-0.6-0.7-1.1-1.3-1.3C31.9,65.9,24.7,58,21.9,48.4c-2.1-7.3-1.4-15.1,2.1-21.4
		c2.8-5.1,7.3-8.8,12.6-10.3c1.8-0.5,3.6-0.8,5.5-0.8c4.1,0,8.2,1.3,12,3.7c5.6,3.6,9.7,9.4,11.7,16.2c2.7,9.4,0.9,19.8-4.6,26.7
		c-0.3,0.4-0.4,0.8-0.4,1.3V64c0,0.2,0,0.4,0.1,0.6C62.2,69.8,59.1,75.4,53.9,76.9z"/>
	<path d="M74.4,28.8h6.7c0,0,0,0,0,0c0.7,0,1.2-0.5,1.2-1.2c0-0.7-0.5-1.2-1.2-1.2h-4.3l4.9-5.3c0.4-0.4,0.6-0.9,0.7-1.4v-0.1
		c0,0,0-0.1,0-0.1c-0.1-0.7-0.7-1.2-1.4-1.1h-6.5c-0.7,0-1.2,0.5-1.2,1.2c0,0,0,0,0,0c0,0.7,0.5,1.2,1.2,1.2h4.2l-4.9,5.4
		C73.3,26.5,73,27,73,27.5v0.1C73.1,28.3,73.7,28.8,74.4,28.8z"/>
	<path d="M84.8,15.3C84.8,15.3,84.8,15.3,84.8,15.3c0.1,0.8,0.7,1.3,1.4,1.2h6.7c0,0,0,0,0,0c0.7,0,1.2-0.5,1.2-1.2
		c0-0.7-0.5-1.2-1.2-1.2h-4.3l4.9-5.4c0.4-0.4,0.7-0.9,0.7-1.4V7.2c0,0,0,0,0,0C94,6.5,93.4,6,92.7,6.1h-6.5c-0.7,0-1.2,0.5-1.2,1.2
		c0,0.7,0.5,1.2,1.2,1.2h4.1l-4.9,5.3C85.1,14.2,84.8,14.7,84.8,15.3z"/>
</g>
</svg>
