<?xml version="1.0" encoding="utf-8"?>
<!-- Generator: Adobe Illustrator 24.0.0, SVG Export Plug-In . SVG Version: 6.00 Build 0)  -->
<svg version="1.1" id="Layer_1" xmlns="http://www.w3.org/2000/svg" xmlns:xlink="http://www.w3.org/1999/xlink" x="0px" y="0px"
	 viewBox="0 0 100 100" style="enable-background:new 0 0 100 100;" xml:space="preserve">
<g>
	<path d="M62,37.6c0.6,0,1.2-0.3,1.6-0.8c0.7-0.9,0.5-2.1-0.3-2.8l-2.2-1.7l2-0.6c1.1-0.3,1.7-1.4,1.3-2.5c-0.3-1.1-1.4-1.7-2.5-1.3
		l-9.3,2.8l8.2,6.5C61.2,37.4,61.6,37.6,62,37.6z"/>
	<path d="M40.6,27.9c-1.1-0.3-2.2,0.3-2.5,1.3c-0.3,1.1,0.3,2.2,1.3,2.5l2,0.6L39.2,34c-0.9,0.7-1,1.9-0.3,2.8
		c0.4,0.5,1,0.8,1.6,0.8c0.4,0,0.9-0.1,1.2-0.4l8.1-6.5L40.6,27.9z"/>
	<path d="M92.6,79.3c-2.3-13.4-4.8-16.4-6.5-17.4c-4.5-2.8-17.5-6.3-22-7.5c0,0,0-0.1,0-0.1c7-5.3,11.5-14.8,11.5-24.5
		C75.6,14.4,64.6,2,51.2,2C37.8,2,26.8,14.4,26.8,29.7c0,9.7,4.5,19.2,11.6,24.6C34,55.4,20.7,59,16.2,61.8c-1.7,1.1-4.2,4-6.7,17.4
		c-1.3,7-2,13.5-2,13.8c-0.1,1.1,0.7,2.1,1.8,2.2c0.1,0,0.1,0,0.2,0c1,0,1.9-0.8,2-1.8c1.2-12.3,4.2-26.6,6.8-28.2
		c3.6-2.3,15.4-5.6,21.1-7.1c1.9,4.7,6.5,7.9,11.8,7.9c5.3,0,9.9-3.3,11.8-7.9c5.7,1.5,17.2,4.7,20.9,7c2.6,1.7,5.4,15.9,6.5,28.2
		c0.1,1,1,1.8,2,1.8c0.1,0,0.1,0,0.2,0c1.1-0.1,1.9-1.1,1.8-2.2C94.4,92.8,93.8,86.3,92.6,79.3z M51.3,62.1c-4.8,0-8.8-3.9-8.8-8.8
		c0-0.7-0.3-1.3-0.9-1.7c-6.6-4.5-10.8-13.1-10.8-22C30.8,16.6,40,6,51.2,6c11.2,0,20.4,10.6,20.4,23.7c0,8.8-4.2,17.3-10.6,21.8
		c-0.5,0.4-0.9,1-0.9,1.6v0.2C60.1,58.2,56.1,62.1,51.3,62.1z"/>
	<path d="M29.6,85l6.3-8c0.6-0.7,0.8-1.7,0.4-2.5c-0.5-1.3-1.9-1.9-3.1-1.4l-1.8,0.7l3-3.7c0.7-0.9,0.5-2.1-0.3-2.8
		c-0.9-0.7-2.1-0.5-2.8,0.3l-6.4,8.1c-0.8,1.1-0.6,2.6,0.5,3.4c0.7,0.5,1.5,0.6,2.3,0.3l1.9-0.7l-3,3.8c-0.7,0.9-0.5,2.1,0.3,2.8
		c0.4,0.3,0.8,0.4,1.2,0.4C28.6,85.8,29.2,85.5,29.6,85z"/>
	<path d="M80,71.3c-0.2-0.3-0.5-0.6-0.8-0.9c0-2.5-1.7-4.6-4.1-5.2c-0.1-0.2-0.2-0.3-0.3-0.4c-1-1.5-2.7-2.3-4.5-2.3h0
		c-1.1,0-2.3,0.3-3.2,1l-5.4,3.9c-1-0.9-2.2-1.3-3.5-1.3c-1.2,0-2.3,0.3-3.2,1l-6.6,4.7c-0.7,0.5-1.4,1.1-2.1,1.7
		c-3,2.8-4.6,6.7-4.5,10.6l-12.3,6.1c-1,0.5-1.4,1.7-0.9,2.7c0.4,0.7,1.1,1.1,1.8,1.1c0.3,0,0.6-0.1,0.9-0.2l11.2-5.6
		c0.3,0.8,0.6,1.6,1.1,2.4c0.4,0.7,0.8,1.3,1.2,1.9c4.1,5.7,12.1,7.1,17.8,3L78,84.5c2.1-1.5,2.9-4.3,1.8-6.7
		C81.3,75.9,81.4,73.3,80,71.3z M76.3,75.7l-10.6,7.6c-0.3,0.2-0.3,0.6-0.1,0.9c0,0,0,0,0,0c0.1,0.2,0.3,0.3,0.5,0.3
		c0.1,0,0.3,0,0.4-0.1l7.5-5.3c0.3-0.2,0.6-0.3,0.9-0.3c0.4,0,0.7,0.1,1,0.4c0.6,0.5,0.6,1.5,0.1,2.1c-0.1,0.1-0.2,0.2-0.2,0.2
		l-15.5,11c-1.5,1.1-3.3,1.6-5.1,1.6c-2.8,0-5.5-1.4-7.2-3.7c-0.3-0.5-0.7-1-1-1.6c-2.3-4-1.5-9,1.8-12.2c0.5-0.5,1.1-1,1.7-1.4
		l6.6-4.7c0.3-0.2,0.6-0.3,0.9-0.3c0.4,0,0.7,0.1,1,0.4c0.6,0.5,0.6,1.5,0.1,2.1c-0.1,0.1-0.2,0.2-0.2,0.2l-3.5,2.5
		c-0.3,0.2-0.3,0.5-0.2,0.8c0.1,0.2,0.3,0.3,0.5,0.3c0.1,0,0.2,0,0.4-0.1l13.3-9.4c0.3-0.2,0.6-0.3,0.9-0.3c0.9,0,1.5,0.7,1.6,1.5
		c0,0.5-0.2,0.9-0.6,1.2L61,76.3c-0.3,0.2-0.3,0.6-0.1,0.9c0,0.1,0.1,0.1,0.1,0.1c0.1,0.1,0.2,0.1,0.4,0.1c0.1,0,0.3,0,0.4-0.1
		l11.1-8c0.6-0.5,1.5-0.3,2,0.3c0.1,0.1,0.1,0.2,0.1,0.2c0.3,0.6,0,1.4-0.5,1.7l-10.8,7.8c-0.3,0.2-0.3,0.6-0.1,0.9
		c0.1,0.2,0.3,0.3,0.5,0.3c0.1,0,0.2,0,0.3-0.1l10.1-7.2c0.7-0.5,1.6-0.3,2.1,0.4C77.1,74.3,76.9,75.2,76.3,75.7z"/>
	<path d="M58.1,46.3c-3.3-2.2-11.3-2.2-14.3,0.1c-0.9,0.7-1.1,1.9-0.4,2.8c0.7,0.9,1.9,1.1,2.8,0.4c1.7-1.2,7.8-1.2,9.7,0.1
		c0.3,0.2,0.7,0.3,1.1,0.3c0.6,0,1.3-0.3,1.7-0.9C59.2,48.2,59,47,58.1,46.3z"/>
</g>
</svg>
