<?xml version="1.0" encoding="utf-8"?>
<!-- Generator: Adobe Illustrator 24.2.3, SVG Export Plug-In . SVG Version: 6.00 Build 0)  -->
<svg version="1.1" id="Layer_1" xmlns="http://www.w3.org/2000/svg" xmlns:xlink="http://www.w3.org/1999/xlink" x="0px" y="0px"
	 viewBox="0 0 100 100" style="enable-background:new 0 0 100 100;" xml:space="preserve">
<path d="M32.2,25.7c0-1.1,1.5-3.6,2.3-5.1c0.2-0.4,0.7-0.5,1.1-0.2c0.1,0.1,0.2,0.1,0.2,0.2c0.9,1.4,2.3,3.9,2.3,5.1
	c0,1.7-1.3,3-3,3S32.2,27.4,32.2,25.7"/>
<path d="M60.6,30.4c0-1.1,1.5-3.6,2.3-5.1c0.2-0.4,0.7-0.5,1.1-0.2c0.1,0.1,0.2,0.1,0.2,0.2c0.9,1.4,2.3,3.9,2.3,5.1
	c0,1.7-1.3,3-3,3S60.6,32,60.6,30.4"/>
<g>
	<path d="M88.5,74.7c-5.6-3.5-23.1-8-26.5-8.9c7.8-6,12.6-16.2,12.6-26.9c0-16.8-12-30.5-26.8-30.5c-14.8,0-26.8,13.7-26.8,30.5
		c0,10.7,5,21.2,12.8,27.1c-4.6,1.2-20.6,5.4-25.8,8.7C1.2,78.9,0.1,89,0,89.4c-0.1,1.1,0.7,2.1,1.8,2.2c0.1,0,0.1,0,0.2,0
		c1,0,1.9-0.8,2-1.8c0-0.1,1-8.6,5.9-11.8c4.3-2.7,18.2-6.6,24.6-8.2c1.8,5.4,6.8,9.3,12.8,9.5c0.1,0,0.3,0,0.4,0
		c6.2,0,11.5-4.1,13.3-9.7c6.1,1.5,20.9,5.6,25.3,8.4c4.9,3.1,6,11.7,6,11.8c0.1,1,1,1.8,2,1.8c0.1,0,0.1,0,0.2,0
		c1.1-0.1,1.9-1.1,1.8-2.2C96.2,89,95,78.9,88.5,74.7z M57.7,65l0,0.2c0,0.2,0,0.4,0,0.6c-0.2,5.5-4.8,9.8-10.2,9.7
		c-5.5-0.2-9.8-4.8-9.7-10.2c0-0.7-0.3-1.3-0.9-1.7c-7.4-5-12.1-14.6-12.1-24.6c0-14.6,10.2-26.5,22.8-26.5
		c12.6,0,22.8,11.9,22.8,26.5c0,9.8-4.7,19.4-12,24.5C58,63.7,57.7,64.3,57.7,65z"/>
	<path d="M41,35.5L33,40.1c-1.1,0.7-1.5,2.1-0.9,3.2c0.4,0.8,1.2,1.2,2,1.2c0.4,0,0.8-0.1,1.2-0.3l7.9-4.6c1.1-0.7,1.5-2.1,0.9-3.2
		C43.5,35.3,42.1,34.9,41,35.5z"/>
	<path d="M61.7,40.1l-7.9-4.6c-1.1-0.7-2.6-0.3-3.2,0.9c-0.7,1.1-0.3,2.6,0.9,3.2l7.9,4.6c0.4,0.2,0.8,0.3,1.2,0.3
		c0.8,0,1.6-0.4,2-1.2C63.2,42.2,62.8,40.8,61.7,40.1z"/>
	<path d="M87.1,68.9c1.6,0,3.2-0.3,4.8-1c6.3-2.6,9.3-9.9,6.7-16.2c-1.1-2.7-3.2-4.9-5.8-6.3V14.8c0-3.1-2.6-5.7-5.7-5.7
		s-5.7,2.6-5.7,5.7v30.6c-5.7,2.9-8.3,9.8-5.8,15.8C77.6,66,82.2,68.9,87.1,68.9z M87.1,12.1c1.5,0,2.7,1.2,2.7,2.7v8.8h-5.4v-8.8
		C84.4,13.3,85.6,12.1,87.1,12.1z M83.5,47.8l0.8-0.3v2.3c-3.8,1.6-5.6,5.9-4,9.7c1.6,3.8,5.9,5.6,9.7,4c3.8-1.6,5.6-5.9,4-9.7
		c-0.8-1.8-2.2-3.2-4-4v0v-2.3l0.8,0.3c2.3,1,4.1,2.8,5.1,5.1c2,4.8-0.3,10.3-5.1,12.3c-4.8,2-10.3-0.3-12.3-5.1
		S78.7,49.8,83.5,47.8z"/>
</g>
</svg>
