<?xml version="1.0" encoding="utf-8"?>
<!-- Generator: Adobe Illustrator 24.0.0, SVG Export Plug-In . SVG Version: 6.00 Build 0)  -->
<svg version="1.1" id="Layer_1" xmlns="http://www.w3.org/2000/svg" xmlns:xlink="http://www.w3.org/1999/xlink" x="0px" y="0px"
	 viewBox="0 0 100 100" style="enable-background:new 0 0 100 100;" xml:space="preserve">
<g>
	<circle cx="48.5" cy="56.1" r="3.4"/>
	<path d="M83.2,7.7C83,7.1,82.8,6.5,82.7,6c-0.3-1.1-1.4-1.7-2.5-1.3c-1.1,0.3-1.7,1.4-1.3,2.5c0.2,0.5,0.3,1.1,0.5,1.8
		c2.2,7.1,6.1,20,4.6,37.2c0,0,0,0,0,0c-0.1,0.1-6,9.3-13.5,18.3C57.7,79.9,51.2,82.2,48.5,82.2c-2.7,0-9.1-2.3-21.9-17.8
		c-6.6-8-12-16.1-13.2-18c-2.2-18.6,2-32.4,4.3-39.8c0.2-0.6,0.4-1.2,0.5-1.8c0.3-1.1-0.3-2.2-1.3-2.5c-1.1-0.3-2.2,0.3-2.5,1.3
		c-0.2,0.5-0.3,1.1-0.5,1.7c-2.4,7.8-6.8,22.3-4.4,42c0.4,3,0.9,8.1,1.4,14c1,10.2,2.1,22.9,3.5,32.3c0.1,1,1,1.7,2,1.7
		c0.1,0,0.2,0,0.3,0c1.1-0.2,1.9-1.2,1.7-2.3c-1.3-9.3-2.5-21.9-3.4-32.1c-0.2-2.2-0.4-4.3-0.6-6.3c2.4,3.4,5.7,7.8,9.3,12.2
		c9.5,11.5,17,17.7,22.8,19v7.5c0,1.1,0.9,2,2,2s2-0.9,2-2V86c5.9-1.1,13.5-7.3,23.1-19c3.7-4.5,7.1-9,9.5-12.5
		c-0.3,2.6-0.5,5.5-0.8,8.8c-1,10.2-2.1,22.8-3.5,32.1c-0.2,1.1,0.6,2.1,1.7,2.3c0.1,0,0.2,0,0.3,0c1,0,1.8-0.7,2-1.7
		c1.3-9.4,2.5-22.1,3.5-32.3c0.5-5.9,1-11,1.4-14C90,30,85.6,15.5,83.2,7.7z"/>
	<path d="M51.4,29.8c4,0,7.2-3.2,7.2-7.2s-3.2-7.2-7.2-7.2c-4,0-7.2,3.2-7.2,7.2S47.4,29.8,51.4,29.8z M51.4,19.5
		c1.7,0,3.2,1.4,3.2,3.2s-1.4,3.2-3.2,3.2s-3.2-1.4-3.2-3.2S49.6,19.5,51.4,19.5z"/>
	<path d="M29.3,38.7c0,4.8,3.9,8.6,8.6,8.6s8.6-3.9,8.6-8.6s-3.9-8.6-8.6-8.6S29.3,33.9,29.3,38.7z M38,34.1c2.5,0,4.6,2.1,4.6,4.6
		s-2.1,4.6-4.6,4.6s-4.6-2.1-4.6-4.6S35.4,34.1,38,34.1z"/>
	<path d="M56,38.8c0,4.8,3.9,8.6,8.6,8.6s8.6-3.9,8.6-8.6s-3.9-8.6-8.6-8.6S56,34,56,38.8z M64.6,34.1c2.5,0,4.6,2.1,4.6,4.6
		s-2.1,4.6-4.6,4.6S60,41.3,60,38.8S62.1,34.1,64.6,34.1z"/>
	<path d="M33.6,18.4c0.2,0.9,1,1.6,2,1.6c0.1,0,0.3,0,0.4,0c1.1-0.2,1.8-1.3,1.6-2.4l-1.4-6.9c-0.2-1.1-1.3-1.8-2.4-1.6
		c-1.1,0.2-1.8,1.3-1.6,2.4L33.6,18.4z"/>
	<path d="M23.2,17.9l5.9,3.9c0.3,0.2,0.7,0.3,1.1,0.3c0.6,0,1.3-0.3,1.7-0.9c0.6-0.9,0.4-2.2-0.6-2.8l-5.9-3.9
		c-0.9-0.6-2.2-0.4-2.8,0.6C22,16.1,22.3,17.3,23.2,17.9z"/>
	<path d="M22.5,28.8c0.1,0,0.3,0,0.4,0l7-1.3c1.1-0.2,1.8-1.3,1.6-2.3c-0.2-1.1-1.3-1.8-2.3-1.6l-7,1.3c-1.1,0.2-1.8,1.3-1.6,2.3
		C20.7,28.2,21.5,28.8,22.5,28.8z"/>
</g>
</svg>
