<?xml version="1.0" encoding="utf-8"?>
<!-- Generator: Adobe Illustrator 24.2.3, SVG Export Plug-In . SVG Version: 6.00 Build 0)  -->
<svg version="1.1" id="Layer_1" xmlns="http://www.w3.org/2000/svg" xmlns:xlink="http://www.w3.org/1999/xlink" x="0px" y="0px"
	 viewBox="0 0 100 100" style="enable-background:new 0 0 100 100;" xml:space="preserve">
<path d="M84.8,33.7c-8.6-18.8-29-29.9-29.8-30.3c0,0,0,0,0,0c-1-1.2-2.5-2-4.2-2c0,0,0,0,0,0H38.5c0,0,0,0,0,0
	c-1.8,0-3.4,0.9-4.4,2.2c-1.7,0.9-9,5.2-16.4,12.3C6.8,26.4,0.9,38.3,0.9,50.1c0,12.3,5.8,24.4,16.9,35c8.3,7.9,16.4,12.1,16.7,12.3
	c0.2,0.1,0.5,0.2,0.7,0.2c0.9,0.7,2,1.1,3.2,1.1c0,0,0,0,0,0h12.2c0,0,0,0,0,0c1.2,0,2.3-0.4,3.2-1.1c0,0,0,0,0.1,0
	c0.3,0,0.6-0.1,0.9-0.2C55.9,96.9,77,85.8,85.3,66c7.6-1.4,13.4-8.1,13.4-16.1c0,0,0,0,0,0C98.6,41.7,92.6,34.9,84.8,33.7z
	 M80.3,33.6c-0.9,0.1-1.9,0.3-2.8,0.6c-2.3-4-5.1-7.6-8.5-10.8c-0.5-0.5-1.3-0.6-1.9-0.5c-2.4-3.6-6.3-6-10.7-6.5
	c-0.1-1.6-0.1-4.3-0.2-7.6C61.9,12.5,73.9,21.2,80.3,33.6z M74.3,64.2c-1.4,2.5-3,4.9-4.9,7c0.1-0.7,0.2-1.5,0.2-2.3
	c0.1-8.2-6.5-15-14.7-15.1c-3.8-0.1-7.5,1.2-10.3,3.8c-2.7-2.4-6.2-3.8-9.9-3.8c0,0,0,0,0,0c-4,0-7.7,1.6-10.5,4.4
	c-2.8,2.8-4.4,6.6-4.4,10.5c0,0.9,0.1,1.7,0.2,2.5c-4.5-5.1-8.6-12.2-8.6-21.1c0-8.4,4.1-15.3,8.5-20.4c0,0.5-0.1,1-0.1,1.5
	c0,4,1.6,7.7,4.4,10.5c2.8,2.8,6.6,4.4,10.5,4.4c0,0,0,0,0,0c3.7,0,7.1-1.3,9.9-3.8c2.7,2.4,6.3,3.8,9.9,3.8c0.1,0,0.3,0,0.4,0
	C63.2,46,69.8,39.3,69.7,31c0-0.4,0-0.8-0.1-1.3c1.6,1.9,3,3.9,4.3,6c-4.8,2.9-8,8.1-8,14.1C65.8,56,69.3,61.4,74.3,64.2z M38.5,5.3
	L38.5,5.3h12.2h0c0.8,0,1.4,0.6,1.4,1.4c0,2.2,0.1,5.1,0.2,7.5c0,1.2,0.1,2.2,0.1,3c0.1,1.2,0.1,3.1,2.1,3.1h0.1c0,0,0.1,0,0.1,0
	c6,0,10.8,4.8,10.9,10.8c0.1,6-4.8,11-10.8,11.1c-2.9,0.1-5.7-1-7.8-3l0,0c-1.3-1.3-3.5-1.3-4.8,0c-2,1.9-4.7,3-7.5,3c0,0,0,0,0,0
	c-2.9,0-5.7-1.1-7.7-3.2c-2.1-2.1-3.2-4.8-3.2-7.7c0-2.9,1.1-5.7,3.2-7.7c2.1-2.1,4.8-3.2,7.7-3.2c2,0,2-1.9,2.1-3.1
	c0-0.8,0.1-1.8,0.1-3c0.1-2.4,0.1-5.3,0.2-7.5C37.1,6,37.7,5.3,38.5,5.3z M4.9,50.1c0-20.8,20-35.9,28.1-41.2
	c-0.1,3.2-0.1,5.9-0.2,7.5c-3.3,0.4-6.3,1.9-8.7,4.3c-0.7,0.7-1.3,1.5-1.9,2.3c-0.7-0.2-1.4,0-1.9,0.5c-5.9,5.7-13,14.9-13,26.8
	c0,12.6,7.2,21.9,13.3,27.5c0.4,0.4,0.9,0.5,1.4,0.5c0.3,0,0.7-0.1,0.9-0.2c2.4,3,5.8,5.1,9.8,5.6c0.1,1.7,0.1,4.7,0.2,8.3
	C24.9,86.8,4.9,71.9,4.9,50.1z M50.7,94.7C50.7,94.7,50.7,94.7,50.7,94.7H38.5c0,0,0,0,0,0c-0.8,0-1.4-0.6-1.4-1.4
	c0-2.2-0.1-5.1-0.2-7.5c0-1.2-0.1-2.2-0.1-3c-0.1-1.2-0.1-3.1-2.1-3.1c-6,0-10.9-4.9-10.9-10.9c0-2.9,1.1-5.7,3.2-7.7
	c2.1-2.1,4.8-3.2,7.7-3.2c0,0,0,0,0,0c2.8,0,5.5,1.1,7.5,3c0.6,0.6,1.5,1,2.4,1c0,0,0,0,0,0c0.9,0,1.7-0.3,2.4-1l0,0
	c2.1-2,4.9-3.1,7.8-3c6,0.1,10.9,5,10.8,11.1c-0.1,6-5,10.8-10.9,10.8c0,0-0.1,0-0.1,0h0c-2,0-2,1.9-2.1,3.1c0,0.8-0.1,1.8-0.1,3
	c-0.1,2.4-0.1,5.3-0.2,7.5C52.2,94,51.5,94.7,50.7,94.7z M54.5,83.7v-2V83.7C54.5,83.7,54.5,83.7,54.5,83.7z M56.2,92
	c0.1-3.6,0.2-6.7,0.2-8.4c4-0.5,7.6-2.5,10-5.6c0.3,0.2,0.6,0.2,0.9,0.2c0.5,0,1-0.2,1.3-0.5c3.8-3.5,7-7.5,9.4-12
	c0.9,0.2,1.8,0.4,2.7,0.5C74.5,79.4,62,88.4,56.2,92z M88.1,50.6L88.1,50.6l-7.6,9.7c-0.4,0.5-1,0.8-1.6,0.8c-0.4,0-0.9-0.2-1.2-0.4
	c-0.9-0.7-1-1.9-0.3-2.8c0,0,0,0,0,0l4.4-5.6l-3.6,1.3c-1.3,0.5-2.8-0.2-3.3-1.5c-0.3-0.9-0.2-1.8,0.4-2.5l7.6-9.7
	c0.7-0.9,1.9-1,2.8-0.3c0.9,0.7,1,1.9,0.3,2.8l-4.4,5.6l3.6-1.3c1.3-0.5,2.8,0.1,3.3,1.4C88.9,48.9,88.7,49.9,88.1,50.6z"/>
</svg>
