<?xml version="1.0" encoding="utf-8"?>
<!-- Generator: Adobe Illustrator 24.2.3, SVG Export Plug-In . SVG Version: 6.00 Build 0)  -->
<svg version="1.1" id="Layer_1" xmlns="http://www.w3.org/2000/svg" xmlns:xlink="http://www.w3.org/1999/xlink" x="0px" y="0px"
	 viewBox="0 0 100 100" style="enable-background:new 0 0 100 100;" xml:space="preserve">
<g>
	<path d="M43.6,37.8c-1.2,0.6-2.6,1-4,1.1c-1.3,0-2.5-0.4-3.5-1.2c-0.9-0.6-2.2-0.4-2.8,0.5c-0.6,0.9-0.4,2.2,0.5,2.8
		c1.7,1.2,3.7,1.8,5.8,1.9l0.1,0l0.1,0c2-0.1,4-0.6,5.7-1.5c1-0.5,1.4-1.7,0.9-2.7S44.6,37.3,43.6,37.8z"/>
	<path d="M63.9,38.2c-0.5-1-1.7-1.4-2.7-0.9c-1.2,0.6-2.6,1-4,1.1c-1.3,0-2.5-0.4-3.5-1.2c-0.9-0.6-2.2-0.4-2.8,0.5
		c-0.6,0.9-0.4,2.2,0.5,2.8c1.7,1.2,3.7,1.8,5.8,1.9l0.1,0l0.1,0c2-0.1,4-0.6,5.7-1.5C64,40.4,64.4,39.2,63.9,38.2z"/>
	<path d="M69,50.6c0-1.2-1.5-3.8-2.4-5.3c-0.1-0.1-0.2-0.2-0.3-0.3c-0.4-0.2-0.9-0.1-1.1,0.3c-0.9,1.5-2.4,4.1-2.4,5.3
		c0,0.1,0,0.2,0,0.4c0.1,1.7,1.6,3,3.3,2.9C67.8,53.8,69.1,52.3,69,50.6z"/>
	<path d="M100.1,95.4c0-0.4-1.3-10.9-8.1-15.2c-5.9-3.8-24.8-8.6-27.8-9.3c8.1-6.1,13.2-17,13.2-28.1c0-17.5-12.5-31.7-27.9-31.7
		c-15.4,0-27.9,14.2-27.9,31.7c0,11.2,5.2,22.1,13.4,28.3c-4.5,1.1-21.5,5.6-27,9.1C1.3,84.5,0.1,95,0,95.4
		c-0.1,1.1,0.7,2.1,1.8,2.2c0.1,0,0.1,0,0.2,0c1,0,1.9-0.8,2-1.8c0.3-2.5,1.9-9.6,6.2-12.3c4.9-3.1,21.2-7.4,25.7-8.6
		c1.9,5.6,7.1,9.8,13.3,9.9c0.1,0,0.3,0,0.4,0c6.4,0,11.9-4.2,13.8-10.1c3.4,0.9,21.2,5.4,26.4,8.7c5.2,3.3,6.2,12.2,6.2,12.3
		c0.1,1,1,1.8,2,1.8c0.1,0,0.1,0,0.2,0C99.4,97.5,100.2,96.5,100.1,95.4z M60.1,69.9l0,0.3c0,0.2,0,0.4,0,0.6
		c-0.2,5.8-5,10.3-10.7,10.2c-5.8-0.2-10.3-5-10.1-10.7c0-0.7-0.3-1.3-0.9-1.7c-7.7-5.2-12.7-15.3-12.7-25.7
		c0-15.3,10.7-27.7,23.9-27.7c13.2,0,23.9,12.4,23.9,27.7C73.4,53,68.6,63,61,68.3C60.5,68.6,60.1,69.3,60.1,69.9z"/>
</g>
</svg>
