<?xml version="1.0" encoding="utf-8"?>
<!-- Generator: Adobe Illustrator 24.0.0, SVG Export Plug-In . SVG Version: 6.00 Build 0)  -->
<svg version="1.1" id="Layer_1" xmlns="http://www.w3.org/2000/svg" xmlns:xlink="http://www.w3.org/1999/xlink" x="0px" y="0px"
	 viewBox="0 0 100 100" style="enable-background:new 0 0 100 100;" xml:space="preserve">
<g>
	<path d="M75.2,26.7c0.8,0.4,1.7,0.3,2.5-0.2l3.2-2.1l-3.1,6.5c-0.5,1-0.1,2.2,0.9,2.7c0.3,0.1,0.6,0.2,0.9,0.2
		c0.7,0,1.5-0.4,1.8-1.1l5.3-11.1c0.4-0.8,0.3-1.8-0.2-2.5c-0.4-0.6-0.9-1-1.6-1.1c-0.7-0.1-1.3,0-1.9,0.4l-3.2,2.1l3.1-6.5
		c0.5-1,0.1-2.2-0.9-2.7c-1-0.5-2.2-0.1-2.7,0.9L74,23.3c-0.3,0.6-0.3,1.3-0.1,2C74.1,25.9,74.6,26.4,75.2,26.7z"/>
	<path d="M97,72.3l-3.1-12l-0.1-0.3c-0.3-0.6-0.7-1-1.3-1.3c-1.3-0.6-2.8,0-3.4,1.3L88,63.8l-1.8-7c-0.3-1.1-1.4-1.7-2.4-1.4
		c-1.1,0.3-1.7,1.4-1.4,2.4l3.1,12c0.2,0.7,0.6,1.2,1.2,1.5c0.6,0.3,1.3,0.4,1.9,0.2c0.9-0.2,1.5-0.9,1.8-1.7l1.1-3.6l1.8,6.9
		c0.2,0.9,1,1.5,1.9,1.5c0.2,0,0.3,0,0.5-0.1C96.6,74.4,97.3,73.3,97,72.3z"/>
	<path d="M8.9,53.6c0.7,0.4,1.6,0.4,2.4,0l3.4-1.8L11.1,58c-0.6,1-0.2,2.2,0.7,2.7c0.3,0.2,0.7,0.3,1,0.3c0.7,0,1.4-0.4,1.7-1
		l6.3-10.6c0.5-0.8,0.5-1.8,0-2.6c-0.3-0.6-0.9-1-1.5-1.2c-0.7-0.2-1.3-0.1-1.9,0.2l-3.3,1.8l3.7-6.2c0.6-0.9,0.3-2.2-0.7-2.7
		c-0.9-0.6-2.2-0.3-2.7,0.7L7.9,50.1C7.3,51.3,7.7,52.9,8.9,53.6z"/>
	<path d="M25.2,84c-1.1,0.1-1.9,1-1.8,2c0,1.8-0.2,6.9-1.6,9.4c-2.2,3.9-8.2,6.7-8.3,6.8c-1,0.5-1.4,1.7-1,2.7
		c0.3,0.7,1.1,1.2,1.8,1.2c0.3,0,0.6-0.1,0.8-0.2c0.3-0.1,6.5-3.1,9.6-7.6c0.1,0.9,0.1,1.8,0.1,2.5c0,1.1,0.9,2,2,2s2-0.9,2-2
		c0-4.6-1.5-14.6-1.5-15C27.2,84.6,26.2,83.9,25.2,84z"/>
	<path d="M88.4,82.2c-1.2-1.7-2.4-3.3-3.3-5.5c-0.2-0.4-0.4-1.2-0.6-2c-1-3.7-2.8-9.8-7.6-13.7c-4.3-3.4-7.1-4.2-10.4-5.1
		c-1.2-0.3-2.4-0.7-3.7-1.1c-1.1-0.4-2.1-1.1-2.9-2c0.6-1.2,0.9-2.6,1-4c6.2-4.8,10.2-13.3,10.2-21.8c0-13.7-9.8-24.8-21.8-24.8
		c-12,0-21.8,11.1-21.8,24.8c0,8.7,4.1,17.2,10.4,22c0.1,1.2,0.4,2.4,0.9,3.5c-0.8,1-1.9,1.8-3.1,2.3c-1.4,0.5-2.6,0.8-3.8,1.2
		c-3.3,0.9-6.1,1.7-10.4,5.1c-4.8,3.8-6.5,10-7.6,13.7c-0.2,0.9-0.5,1.6-0.6,2c-0.9,2.2-2.1,3.8-3.3,5.5c-0.9,1.3-1.9,2.6-2.6,4
		C5.8,89.8,5.1,97.5,5,98.4c-0.1,1.1,0.7,2.1,1.8,2.2c0.1,0,0.1,0,0.2,0c1,0,1.9-0.8,2-1.8c0.2-2.1,0.9-8.2,2.1-10.6
		c0.6-1.2,1.4-2.3,2.3-3.5c1.3-1.8,2.7-3.7,3.8-6.4c0.2-0.6,0.5-1.5,0.8-2.4c1-3.4,2.4-8.6,6.2-11.6c3.6-2.9,5.9-3.5,9-4.4
		c1.2-0.3,2.5-0.7,4.1-1.3c1.5-0.6,2.8-1.5,4-2.6c2.1,2.2,5,3.5,8.3,3.5c1.5,0,3.1-0.3,4.5-0.9l-0.3-0.6l0.3,0.6
		c1.4-0.6,2.6-1.4,3.6-2.4c1.1,1.1,2.4,1.9,3.9,2.5c1.5,0.5,2.9,0.9,4,1.2c3.1,0.9,5.3,1.5,9,4.4c3.8,3,5.2,8.2,6.2,11.6
		c0.3,1,0.5,1.8,0.8,2.4c1.1,2.7,2.5,4.6,3.8,6.4c0.9,1.2,1.7,2.3,2.3,3.5c1.2,2.4,2,8.5,2.2,10.6c0.1,1,1,1.8,2,1.8
		c0.1,0,0.1,0,0.2,0c1.1-0.1,1.9-1.1,1.8-2.2c-0.1-0.9-0.8-8.6-2.6-12.1C90.3,84.8,89.3,83.5,88.4,82.2z M52.4,54.8L52.4,54.8
		c-0.9,0.4-1.9,0.6-2.9,0.6c-4.2,0-7.5-3.4-7.5-7.5c0-0.7-0.3-1.3-0.9-1.7c-5.8-3.9-9.5-11.5-9.5-19.3c0-11.4,8-20.8,17.8-20.8
		c9.8,0,17.8,9.3,17.8,20.8c0,7.7-3.7,15.2-9.3,19.2c-0.5,0.4-0.9,1-0.9,1.6v0.2C57,50.9,55.2,53.6,52.4,54.8z"/>
	<path d="M85.1,102.2c-0.1,0-6.1-2.9-8.3-6.7c-1.4-2.6-1.6-7.7-1.6-9.4c0-1.1-0.8-1.9-1.8-2c-1.1-0.1-2,0.6-2.2,1.7
		c-0.1,0.4-1.5,9.7-1.5,14.3c0,1.1,0.9,2,2,2s2-0.9,2-2c0-0.5,0-1.1,0.1-1.8c3.1,4.5,9.2,7.4,9.5,7.6c0.3,0.1,0.6,0.2,0.8,0.2
		c0.8,0,1.5-0.4,1.8-1.2C86.5,103.9,86.1,102.7,85.1,102.2z"/>
</g>
</svg>
