<?xml version="1.0" encoding="utf-8"?>
<!-- Generator: Adobe Illustrator 24.0.0, SVG Export Plug-In . SVG Version: 6.00 Build 0)  -->
<svg version="1.1" id="Layer_1" xmlns="http://www.w3.org/2000/svg" xmlns:xlink="http://www.w3.org/1999/xlink" x="0px" y="0px"
	 viewBox="0 0 100 100" style="enable-background:new 0 0 100 100;" xml:space="preserve">
<g>
	<path d="M55.9,39.4l-2.4-1.9l2.2-0.7c1.1-0.3,1.7-1.4,1.3-2.5c-0.3-1.1-1.4-1.7-2.5-1.3l-9.5,2.9l8.4,6.7c0.4,0.3,0.8,0.4,1.2,0.4
		c0.6,0,1.2-0.3,1.6-0.8C57,41.3,56.8,40,55.9,39.4z"/>
	<path d="M32.2,32.9c-1.1-0.3-2.2,0.3-2.5,1.3c-0.3,1.1,0.3,2.2,1.3,2.5l2.2,0.7l-2.4,1.9c-0.9,0.7-1,1.9-0.3,2.8
		c0.4,0.5,1,0.8,1.6,0.8c0.4,0,0.9-0.1,1.2-0.4l8.4-6.7L32.2,32.9z"/>
	<path d="M79.8,68.4c-4.6-3-18.5-6.7-23.2-7.9c0-0.1,0-0.1,0-0.2c7.4-5.6,12.1-15.5,12.1-25.6C68.8,18.9,57.4,6,43.4,6
		C29.4,6,18,18.9,18,34.8c0,10.2,4.8,20.1,12.3,25.7c-4.4,1.1-18.7,4.9-23.4,7.9C1.2,72-1.5,94.3-2.1,101c-0.1,1.1,0.7,2.1,1.8,2.2
		c0.1,0,0.1,0,0.2,0c1,0,1.9-0.8,2-1.8C3.1,88.5,6.2,73.6,9,71.8c3.8-2.4,16.5-6,22.3-7.4c2,4.7,6.7,8,12.2,8c0.1,0,0.3,0,0.4,0
		c5.2-0.2,9.7-3.4,11.7-7.9c6,1.5,18.3,5,22.1,7.4c2.8,1.8,5.7,16.7,6.8,29.6c0.1,1,1,1.8,2,1.8c0.1,0,0.1,0,0.2,0
		c1.1-0.1,1.9-1.1,1.8-2.2C87.9,94.3,85.5,72.1,79.8,68.4z M53.6,57.6c-0.5,0.4-0.9,1-0.9,1.6l0,0.1c-0.1,4.9-4.1,8.8-9,9
		c-5.1,0.2-9.4-3.9-9.5-9c0-0.6-0.3-1.2-0.9-1.6C26.5,53.1,22,44,22,34.8C22,21.1,31.6,10,43.4,10c11.8,0,21.4,11.1,21.4,24.8
		C64.8,44,60.4,52.9,53.6,57.6z"/>
	<path d="M73.1,78.5L73.1,78.5c-0.3-0.3-0.6-0.7-1-0.9c0-0.8-0.1-1.5-0.5-2.2c-0.7-1.5-2.1-2.7-3.7-3c-0.1-0.2-0.2-0.4-0.4-0.6
		c-1-1.4-2.6-2.3-4.4-2.3l0.1,0c-1.1,0-2.2,0.3-3.1,1l-5.9,4.2l-0.1-0.1c-1-0.9-2.3-1.4-3.6-1.4c-1.1,0-2.2,0.3-3.1,1l-7,4.9
		c-0.7,0.5-1.5,1.1-2.1,1.7c-3,2.8-4.6,6.6-4.6,10.5L20.6,98c-1,0.5-1.4,1.7-0.9,2.7c0.4,0.7,1.1,1.1,1.8,1.1c0.3,0,0.6-0.1,0.9-0.2
		l12.1-6.1c0.3,0.9,0.7,1.8,1.2,2.7c0.4,0.7,0.8,1.3,1.2,2c4.2,5.8,12.2,7.1,18,3l16.1-11.5c2.2-1.5,2.9-4.4,1.7-6.8
		C74.4,83.1,74.5,80.5,73.1,78.5z M69.6,82.8C69.6,82.8,69.6,82.8,69.6,82.8l-11.1,7.9c-0.3,0.2-0.4,0.6-0.2,0.9
		c0.2,0.3,0.6,0.4,0.9,0.2c0,0,0,0,0,0l7.9-5.6c0.3-0.2,0.6-0.3,1-0.3c0.8,0,1.5,0.7,1.5,1.5c0,0.5-0.2,1-0.7,1.3l-16.2,11.5
		c-4.1,2.9-9.8,2-12.8-2.1c-0.3-0.5-0.7-1.1-1.1-1.7c-2.4-4.2-1.5-9.5,2-12.7c0.6-0.5,1.1-1,1.8-1.4l6.9-4.9c0.3-0.2,0.6-0.3,1-0.3
		c0.4,0,0.7,0.1,1,0.4c0.6,0.6,0.7,1.6,0.1,2.2c-0.1,0.1-0.1,0.1-0.2,0.2l-3.7,2.6c-0.3,0.2-0.4,0.6-0.2,0.9
		c0.1,0.2,0.3,0.3,0.5,0.3c0.1,0,0.3,0,0.4-0.1l13.9-9.8c0.3-0.2,0.6-0.3,0.9-0.3l-0.1,0c0.5,0,1,0.2,1.3,0.7
		c0.5,0.7,0.4,1.6-0.2,2.2c0,0,0,0,0,0l-10.6,7.5c-0.3,0.2-0.3,0.6-0.1,0.9c0,0,0.1,0.1,0.1,0.1c0.1,0.1,0.3,0.2,0.4,0.2
		c0.1,0,0.3,0,0.4-0.1l11.6-8.3c0.2-0.2,0.6-0.3,0.9-0.3c0.6,0,1.1,0.3,1.3,0.9c0.3,0.7,0.1,1.4-0.5,1.8l-11.4,8.2
		c-0.3,0.2-0.4,0.6-0.2,0.9c0,0,0,0,0,0c0.1,0.2,0.3,0.3,0.5,0.3c0.1,0,0.3,0,0.4-0.1l10.6-7.5c0.3-0.2,0.6-0.3,0.9-0.3
		c0.5,0,1,0.2,1.3,0.7C70.5,81.4,70.3,82.3,69.6,82.8z"/>
	<path d="M43.7,47.4l-0.1,0c-3.8,0-6.3,3.6-7.4,5.6c-0.2,0.3-0.1,0.6,0.2,0.8c0.1,0.1,0.2,0.1,0.3,0.1c0.1,0,0.1,0,0.2,0
		c0.6-0.2,1.2-0.2,1.9-0.2c1.5,0,3.3,0.2,5,0.2s3.4-0.2,5-0.2c0.6,0,1.3,0.1,1.9,0.2h0.2c0.3,0,0.6-0.3,0.6-0.6c0-0.1,0-0.2-0.1-0.3
		C50.2,51,47.6,47.4,43.7,47.4z M43.7,51c-0.6,0-1.4-0.1-2.1-0.1c0.6-0.4,1.3-0.7,2-0.7h0c0.8,0,1.5,0.3,2.2,0.7
		C45,50.9,44.3,51,43.7,51z"/>
	<path d="M68.6,48.1c0.2,1,1,1.7,2,1.7c0.1,0,0.2,0,0.4,0l6.5-1.2c1.1-0.2,1.8-1.2,1.6-2.3c-0.2-1.1-1.2-1.8-2.3-1.6l-6.5,1.2
		C69.2,46,68.4,47,68.6,48.1z"/>
	<path d="M77.4,53.3l-6.5-1.1c-1.1-0.2-2.1,0.5-2.3,1.6c-0.2,1.1,0.5,2.1,1.6,2.3l6.5,1.1c0.1,0,0.2,0,0.4,0c1,0,1.8-0.7,2-1.7
		C79.3,54.5,78.5,53.5,77.4,53.3z"/>
	<path d="M89.8,46.8c-0.7-1.5-1.8-2.7-3.1-3.6c0-3.5-2.9-6.3-6.4-6.3c-0.4,0-0.8,0.1-1.2,0.1c-1.1,0.2-1.8,1.3-1.6,2.4
		c0.2,1.1,1.3,1.8,2.4,1.6c0.2,0,0.3,0,0.4-0.1c1.3,0,2.3,1,2.3,2.3c0,0.2,0,0.4-0.1,0.5l-0.4,1.6l1.5,0.7c1.1,0.5,2,1.4,2.5,2.5
		c0.6,1.3,0.7,2.7,0.2,4c-0.5,1.3-1.4,2.4-2.7,2.9l-1.5,0.7l0.4,1.6c0,0.2,0.1,0.4,0.1,0.5c0,1.3-1,2.3-2.3,2.3c0,0,0,0,0,0
		c-0.2,0-0.3,0-0.5,0c-1.1-0.2-2.1,0.5-2.3,1.6c-0.2,1.1,0.5,2.1,1.6,2.3c0.4,0.1,0.8,0.1,1.2,0.1c0,0,0,0,0,0
		c3.4,0,6.2-2.8,6.3-6.2c1.6-1.1,2.8-2.6,3.4-4.5C90.9,51.5,90.8,49,89.8,46.8z"/>
</g>
</svg>
