<?xml version="1.0" encoding="utf-8"?>
<!-- Generator: Adobe Illustrator 24.0.0, SVG Export Plug-In . SVG Version: 6.00 Build 0)  -->
<svg version="1.1" id="Layer_1" xmlns="http://www.w3.org/2000/svg" xmlns:xlink="http://www.w3.org/1999/xlink" x="0px" y="0px"
	 viewBox="0 0 100 100" style="enable-background:new 0 0 100 100;" xml:space="preserve">
<g>
	<path d="M59.2,40.1c0.6,0,1.2-0.3,1.6-0.8c0.7-0.9,0.5-2.1-0.3-2.8l-2.7-2.2l2.6-0.8c1.1-0.3,1.7-1.4,1.3-2.5
		c-0.3-1.1-1.4-1.7-2.5-1.3l-9.9,3l8.7,6.9C58.3,40,58.8,40.1,59.2,40.1z"/>
	<path d="M35.4,29.8c-1.1-0.3-2.2,0.3-2.5,1.3c-0.3,1.1,0.3,2.2,1.3,2.5l2.6,0.8L34,36.6c-0.9,0.7-1,1.9-0.3,2.8
		c0.4,0.5,1,0.8,1.6,0.8c0.4,0,0.9-0.1,1.2-0.4l8.7-6.9L35.4,29.8z"/>
	<path d="M85.7,67.4c-4.9-3.1-19.6-7.1-24.6-8.3c0-0.1,0-0.3,0-0.4C69,52.7,74,42.3,74,31.6C74,14.9,62,1.2,47.2,1.2
		c-14.8,0-26.8,13.6-26.8,30.4c0,10.8,5.1,21.4,13,27.2c0,0,0,0.1,0,0.1c-4.5,1.1-19.8,5.2-24.9,8.4C6.8,68.5,4,71.8,1.3,86.5
		c-1.4,7.8-2.2,15.2-2.2,15.3c-0.1,1.1,0.7,2.1,1.8,2.2c0.1,0,0.1,0,0.2,0c1,0,1.9-0.8,2-1.8c1.3-13.7,4.6-29.6,7.6-31.4
		c4.1-2.6,17.4-6.3,23.7-7.9c0.7,1.8,1.7,3.4,3.1,4.8c2.6,2.6,6.1,4.1,9.8,4.1c5.8,0,10.9-3.6,12.9-8.8c6.4,1.6,19.3,5.3,23.3,7.8
		c3,1.9,6.1,17.8,7.2,31.4c0.1,1,1,1.8,2,1.8c0.1,0,0.1,0,0.2,0c1.1-0.1,1.9-1.1,1.8-2.2c0-0.1-0.7-7.5-2-15.3
		C90.3,71.8,87.6,68.6,85.7,67.4z M47.3,67.7c-2.6,0-5.1-1-7-2.9c-1.9-1.9-2.9-4.4-2.9-7c0-0.7-0.3-1.3-0.9-1.7
		c-7.4-5-12.1-14.6-12.1-24.5c0-14.6,10.2-26.4,22.8-26.4C59.8,5.2,70,17.1,70,31.6c0,9.7-4.7,19.3-11.9,24.3
		c-0.6,0.4-0.9,1-0.9,1.7c0,0,0,0.1,0,0.1C57.3,63.3,52.8,67.7,47.3,67.7z"/>
	<path d="M78.7,78l-1.5,1L78.7,78c-0.3-0.4-0.7-0.7-1-1c0-0.8-0.1-1.6-0.5-2.4c-0.7-1.6-2.2-2.8-4-3.2c-0.1-0.2-0.2-0.4-0.4-0.6
		c-1.1-1.5-2.8-2.4-4.6-2.4l0.1-0.1c-1.2,0-2.3,0.4-3.3,1.1l-6.3,4.5l-0.1-0.1c-1-1-2.4-1.5-3.8-1.5c-1.2,0-2.4,0.4-3.3,1.1
		l-7.3,5.2c-0.8,0.6-1.6,1.2-2.3,1.8c-3.3,3-5,7.2-4.8,11.4l-13.9,6.9c-1,0.5-1.4,1.7-0.9,2.7c0.4,0.7,1.1,1.1,1.8,1.1
		c0.3,0,0.6-0.1,0.9-0.2l12.8-6.4c0.3,1,0.7,2,1.3,2.9c0.4,0.7,0.9,1.4,1.3,2.1c4.4,6.2,12.9,7.6,19.1,3.3c0,0,0,0,0,0L76.6,92
		c2.3-1.6,3-4.6,1.8-7.1C80,82.9,80.2,80.1,78.7,78z M75,82.5C75,82.6,75,82.6,75,82.5l-11.8,8.3c-0.3,0.2-0.4,0.6-0.2,1
		c0,0,0,0,0,0c0.1,0.2,0.3,0.3,0.6,0.3c0.1,0,0.3-0.1,0.4-0.2l8.3-5.9c0.3-0.2,0.6-0.3,1-0.3c0.4,0,0.8,0.1,1.1,0.4
		c0.7,0.6,0.7,1.7,0.1,2.3c-0.1,0.1-0.2,0.1-0.2,0.2l-17.1,12.1c-4.4,3.1-10.4,2.1-13.5-2.3c-0.4-0.5-0.8-1.1-1.1-1.8
		c-2.5-4.4-1.7-10,2.1-13.5c0.6-0.5,1.2-1,1.8-1.5l7.4-5.2c0.3-0.2,0.6-0.3,1-0.3c0.4,0,0.8,0.1,1.1,0.4c0.7,0.6,0.7,1.6,0.1,2.3
		c-0.1,0.1-0.2,0.2-0.3,0.2L51.8,82c-0.3,0.2-0.4,0.6-0.2,0.9c0.2,0.3,0.6,0.4,0.9,0.3c0,0,0.1,0,0.1-0.1l14.6-10.4
		c0.3-0.2,0.6-0.3,1-0.3c0.5,0,1,0.3,1.3,0.7c0.6,0.7,0.4,1.7-0.3,2.3c0,0,0,0,0,0l-11.2,7.9c-0.3,0.2-0.4,0.6-0.2,0.9
		c0,0,0.1,0.1,0.1,0.1c0.1,0.1,0.3,0.2,0.4,0.2c0.2,0,0.3-0.1,0.4-0.1l12.3-8.8c0.3-0.2,0.6-0.3,0.9-0.3c0.6,0,1.2,0.4,1.4,0.9
		c0.3,0.7,0.1,1.5-0.6,1.9l-12,8.6c-0.3,0.2-0.4,0.6-0.2,1c0,0,0,0,0,0c0.1,0.2,0.3,0.3,0.6,0.3c0.1,0,0.3,0,0.4-0.1l11.2-8
		c0.8-0.5,1.8-0.4,2.4,0.4c0,0,0,0,0,0C75.9,81,75.8,82,75,82.5z"/>
	<path d="M47.5,45L47.5,45c-4.1,0-6.7,3.8-7.9,5.9c-0.2,0.3-0.1,0.7,0.2,0.8c0.1,0.1,0.2,0.1,0.3,0.1c0.1,0,0.1,0,0.2,0
		c0.7-0.2,1.3-0.3,2-0.2c1.6,0,3.5,0.3,5.2,0.3c1.7,0,3.7-0.3,5.2-0.3c0.7,0,1.3,0.1,2,0.2c0.1,0,0.1,0,0.2,0c0.3,0,0.6-0.3,0.6-0.6
		c0-0.1,0-0.2-0.1-0.3C54.3,48.8,51.7,45,47.5,45z M47.5,48.8c-0.7,0-1.5,0-2.2-0.1c0.6-0.5,1.4-0.7,2.2-0.7c0.8,0,1.6,0.3,2.3,0.7
		C49,48.8,48.2,48.8,47.5,48.8z"/>
	<path d="M76,47.4c0.1,0,0.2,0,0.3,0l6.9-1.2c1.1-0.2,1.8-1.2,1.6-2.3c-0.2-1.1-1.2-1.8-2.3-1.6l-6.9,1.2c-1.1,0.2-1.8,1.2-1.6,2.3
		C74.2,46.7,75.1,47.4,76,47.4z"/>
	<path d="M75.7,54.1l6.9,1.2c0.1,0,0.2,0,0.4,0c1,0,1.8-0.7,2-1.7c0.2-1.1-0.5-2.1-1.6-2.3l-6.9-1.2c-1.1-0.2-2.1,0.5-2.3,1.6
		C73.9,52.9,74.6,53.9,75.7,54.1z"/>
	<path d="M85.9,38c0.2,0,0.3,0,0.5,0c0,0,0,0,0,0c1.4,0,2.6,1.2,2.6,2.5c0,0.2,0,0.5-0.1,0.7l-0.4,1.6l1.5,0.7
		c1.2,0.6,2.1,1.5,2.6,2.6c1.3,2.8,0.2,6.1-2.6,7.5l-1.5,0.7l0.4,1.6c0.1,0.2,0.1,0.4,0.1,0.6c0,1.4-1.2,2.6-2.5,2.6
		c-0.2,0-0.4,0-0.5-0.1c-1.1-0.2-2.1,0.5-2.3,1.6c-0.2,1.1,0.5,2.1,1.6,2.3c0.4,0.1,0.8,0.1,1.3,0.1c3.6,0,6.6-3,6.6-6.6
		c0,0,0,0,0,0c3.8-2.6,5.3-7.7,3.2-12.1c-0.7-1.5-1.9-2.8-3.2-3.8c0,0,0,0,0-0.1c0-3.6-3-6.6-6.6-6.6c-0.4,0-0.9,0-1.3,0.1
		c-1.1,0.2-1.8,1.3-1.6,2.4C83.7,37.5,84.8,38.2,85.9,38z"/>
</g>
</svg>
