<?xml version="1.0" encoding="utf-8"?>
<!-- Generator: Adobe Illustrator 24.0.0, SVG Export Plug-In . SVG Version: 6.00 Build 0)  -->
<svg version="1.1" id="Layer_1" xmlns="http://www.w3.org/2000/svg" xmlns:xlink="http://www.w3.org/1999/xlink" x="0px" y="0px"
	 viewBox="0 0 100 100" style="enable-background:new 0 0 100 100;" xml:space="preserve">
<g>
	<path d="M39.5,39.4c-0.8-0.8-2-0.8-2.8-0.1c-1,0.9-2.2,1.7-3.5,2.1c-1.2,0.3-2.5,0.3-3.6-0.1c-1-0.4-2.2,0.2-2.5,1.3
		c-0.4,1,0.2,2.2,1.3,2.5c1.1,0.4,2.2,0.6,3.3,0.6c0.9,0,1.8-0.1,2.7-0.4l0.1,0c1.9-0.6,3.6-1.7,5-3C40.2,41.5,40.2,40.2,39.5,39.4z
		"/>
	<path d="M53.2,34.2c-1,0.9-2.2,1.6-3.5,2.1c-1.2,0.3-2.5,0.3-3.6-0.1c-1-0.4-2.2,0.2-2.5,1.3c-0.4,1,0.2,2.2,1.3,2.5
		c1.1,0.4,2.2,0.6,3.3,0.6c0.9,0,1.8-0.1,2.7-0.4l0.1,0c1.9-0.6,3.6-1.6,5-3c0.8-0.8,0.8-2,0.1-2.8C55.3,33.4,54,33.4,53.2,34.2z"/>
	<path d="M52.8,50.7c-2.1-1.2-4.7-1.4-7.2-0.7c-4.7,1.4-7.6,5.8-6.4,9.9c0.9,3,3.2,3.8,5.5,3.8c1.8,0,3.6-0.5,4.6-0.8
		c3.6-1,5.7-2.3,6.7-4c0.6-1.2,0.8-2.5,0.3-3.9C55.8,53.2,54.5,51.7,52.8,50.7z M53.3,57.5c-0.5,1-2.2,1.8-4.8,2.6
		c-5.3,1.4-6.1,0.3-6.4-1c-0.7-2.5,1.2-5.3,4.4-6.2c0.7-0.2,1.3-0.3,2-0.3c1.1,0,2.1,0.2,2.9,0.7c0.7,0.4,1.7,1.2,2.1,2.5l0,0
		C53.7,56.7,53.5,57.2,53.3,57.5z"/>
	<path d="M99.3,94.3c0-0.4-1.3-10.7-7.9-15c-5.4-3.5-22-7.8-26.6-9c0.2-1.6,0.2-3.3-0.2-4.9c6-8,8-19.8,5-30.3c0,0,0,0,0,0
		c-2.3-8-7.1-14.7-13.7-18.9c-6.6-4.3-14.2-5.5-21.3-3.5C20,16.8,12,33.7,16.7,50.2C19.3,59,25.1,66.6,32.4,71
		c-6.5,1.7-19.2,5.3-23.8,8.3c-6.6,4.3-7.9,14.6-7.9,15c-0.1,1.1,0.7,2.1,1.8,2.2c0.1,0,0.1,0,0.2,0c1,0,1.9-0.8,2-1.8
		c0.3-2.4,1.9-9.4,6.1-12.1c4.6-3,20.7-7.3,26.5-8.7c0.1,0,0.1,0,0.2-0.1c2.2,5.4,7.5,8.9,13.2,8.9c1.3,0,2.6-0.2,3.9-0.5
		c4.2-1.2,7.5-4.2,9.1-8c6.5,1.6,21.1,5.7,25.5,8.5c5,3.2,6.1,12,6.1,12.1c0.1,1,1,1.8,2,1.8c0.1,0,0.1,0,0.2,0
		C98.6,96.4,99.4,95.4,99.3,94.3z M53.5,78.3c-5.4,1.5-11.1-1.6-12.7-7c-0.2-0.6-0.7-1.1-1.3-1.4c-8.7-2.9-16.1-11-18.9-20.8
		C16.5,34.7,23.2,20,35.6,16.5c1.9-0.5,3.7-0.8,5.6-0.8c4.2,0,8.5,1.3,12.4,3.8c5.7,3.7,10,9.6,12,16.7c2.8,9.7,0.9,20.4-4.9,27.5
		c-0.5,0.6-0.6,1.3-0.3,2C62,71.1,58.9,76.8,53.5,78.3z"/>
	<path d="M74.6,28.9h6.9h0c0.7,0,1.2-0.5,1.2-1.2c0-0.7-0.6-1.2-1.2-1.2H77l5-5.5c0.4-0.4,0.7-0.9,0.7-1.5v-0.1c0,0,0-0.1,0-0.1
		c-0.1-0.7-0.8-1.2-1.5-1.1h-6.7c-0.7,0-1.2,0.6-1.2,1.2c0,0,0,0,0,0c0,0.7,0.6,1.2,1.2,1.2h4.3l-5,5.5c-0.4,0.4-0.7,0.9-0.7,1.5
		v0.1c0,0,0,0.1,0,0.1C73.2,28.5,73.9,29,74.6,28.9z"/>
	<path d="M86.7,16.2h6.9h0c0.7,0,1.2-0.5,1.2-1.2c0-0.7-0.6-1.2-1.2-1.2h-4.4l5-5.5c0.4-0.4,0.7-0.9,0.7-1.5V6.7c0,0,0-0.1,0-0.1
		c-0.1-0.7-0.8-1.2-1.5-1.1h-6.7c-0.7,0-1.2,0.6-1.2,1.2c0,0,0,0,0,0C85.5,7.4,86,8,86.7,8h4.3l-5,5.5c-0.4,0.4-0.7,0.9-0.7,1.5V15
		c0,0,0,0.1,0,0.1C85.4,15.8,86,16.3,86.7,16.2z"/>
</g>
</svg>
