<?xml version="1.0" encoding="utf-8"?>
<!-- Generator: Adobe Illustrator 24.0.0, SVG Export Plug-In . SVG Version: 6.00 Build 0)  -->
<svg version="1.1" id="Layer_1" xmlns="http://www.w3.org/2000/svg" xmlns:xlink="http://www.w3.org/1999/xlink" x="0px" y="0px"
	 viewBox="0 0 100 100" style="enable-background:new 0 0 100 100;" xml:space="preserve">
<g>
	<path d="M98.3,91.8c0-0.4-1.2-10.5-7.8-14.7c-5.1-3.3-20.5-7.4-25.5-8.6c0-0.2,0-0.3,0-0.5c8.2-6.1,13.2-16.7,13.2-27.9
		c0-17.3-12.4-31.4-27.6-31.4S23,22.7,23,40.1c0,11.2,5.2,22.1,13.4,28.1c0,0.1,0,0.2,0,0.2c-4.7,1.2-20.6,5.4-25.8,8.7
		c-6.6,4.2-7.7,14.3-7.8,14.7c-0.1,1.1,0.7,2.1,1.8,2.2c0.1,0,0.1,0,0.2,0c1,0,1.9-0.8,2-1.8c0.3-2.4,1.9-9.1,6-11.8
		c4.2-2.7,18-6.5,24.5-8.2c1.9,5.4,7,9.3,13.1,9.5c0.1,0,0.3,0,0.4,0c3.7,0,7.2-1.4,9.8-3.9c1.6-1.6,2.9-3.4,3.6-5.5
		c6.6,1.7,20,5.4,24.1,8.1c4.9,3.1,5.9,11.7,6,11.8c0.1,1,1,1.8,2,1.8c0.1,0,0.1,0,0.2,0C97.6,93.9,98.4,92.9,98.3,91.8z M57.9,75
		c-2,1.9-4.6,2.9-7.4,2.8c-5.7-0.2-10.2-4.9-10-10.6c0-0.7-0.3-1.3-0.9-1.7C31.9,60.3,27,50.3,27,40.1C27,25,37.6,12.6,50.6,12.6
		c13,0,23.6,12.3,23.6,27.4c0,10.2-4.8,20.1-12.3,25.3c-0.5,0.4-0.9,1-0.9,1.6l0,0.2c0,0.2,0,0.4,0,0.6C61,70.6,59.9,73.1,57.9,75z"
		/>
	<path d="M40,23.3C40,23.3,40,23.3,40,23.3c-1,0-1.8,0.8-1.8,1.8c0,1,0.8,1.8,1.8,1.8c1,0,1.8-0.8,1.8-1.8h0.1
		C41.8,24.1,41,23.3,40,23.3z"/>
	<path d="M56.2,34.2c0-1-0.8-1.8-1.8-1.8c-1,0-1.8,0.8-1.8,1.8c0,1,0.8,1.8,1.8,1.8C55.4,36,56.2,35.2,56.2,34.2z"/>
	<path d="M56.8,30.3c1,0,1.8-0.8,1.8-1.8c0-1-0.8-1.8-1.8-1.8c0,0,0,0,0,0c-1,0-1.8,0.8-1.8,1.8C55,29.5,55.8,30.3,56.8,30.3z"/>
	<path d="M37.8,36.8C37.8,36.8,37.8,36.8,37.8,36.8c-1,0-1.8,0.8-1.8,1.8c0,1,0.8,1.8,1.8,1.8c1,0,1.8-0.8,1.8-1.8c0,0,0,0,0,0
		C39.6,37.6,38.8,36.8,37.8,36.8z"/>
	<path d="M54.2,20.8c0-1-0.8-1.8-1.8-1.8c-1,0-1.8,0.8-1.8,1.8c0,1,0.8,1.8,1.8,1.8C53.4,22.6,54.2,21.8,54.2,20.8z"/>
	<path d="M46.5,26.7c-2,0-3.6,1.6-3.6,3.7c0,2,1.6,3.6,3.6,3.6c2,0,3.7-1.6,3.7-3.6c0,0,0,0,0,0C50.2,28.3,48.6,26.7,46.5,26.7z"/>
	<path d="M65.2,33.6c0,1,0.8,1.8,1.8,1.8c1,0,1.8-0.8,1.8-1.8h0c0-1-0.8-1.8-1.8-1.8c0,0,0,0,0,0C66,31.8,65.2,32.6,65.2,33.6z"/>
	<path d="M64.4,26.9c1,0,1.8-0.8,1.8-1.8c0-1-0.8-1.8-1.8-1.8c-1,0-1.8,0.8-1.8,1.8C62.6,26.1,63.4,26.9,64.4,26.9z"/>
	<path d="M46.5,43.4c-1,0-1.8,0.8-1.8,1.8c0,1,0.8,1.8,1.8,1.8c1,0,1.8-0.8,1.8-1.8C48.3,44.2,47.5,43.4,46.5,43.4z"/>
	<path d="M64.2,46.8c1,0,1.8-0.8,1.8-1.8s-0.8-1.8-1.8-1.8c-1,0-1.8,0.8-1.8,1.8S63.2,46.8,64.2,46.8z"/>
	<circle cx="56.9" cy="44.9" r="3"/>
	<path d="M36.6,52.4C36.6,52.4,36.6,52.4,36.6,52.4c-1,0-1.8,0.8-1.8,1.8c0,1,0.8,1.8,1.8,1.8c1,0,1.8-0.8,1.8-1.8
		C38.4,53.2,37.6,52.4,36.6,52.4z"/>
	<path d="M44.2,18.1c1,0,1.8-0.8,1.8-1.8c0-1-0.8-1.8-1.8-1.8c-1,0-1.8,0.8-1.8,1.8C42.4,17.3,43.2,18.1,44.2,18.1z"/>
	<path d="M31.6,30c-1,0-1.8,0.8-1.8,1.8c0,1,0.8,1.8,1.7,1.8c1,0,1.8-0.8,1.8-1.7v0v0C33.4,30.8,32.6,30,31.6,30z"/>
</g>
</svg>
