<?xml version="1.0" encoding="utf-8"?>
<!-- Generator: Adobe Illustrator 24.0.0, SVG Export Plug-In . SVG Version: 6.00 Build 0)  -->
<svg version="1.1" id="Layer_1" xmlns="http://www.w3.org/2000/svg" xmlns:xlink="http://www.w3.org/1999/xlink" x="0px" y="0px"
	 viewBox="0 0 100 100" style="enable-background:new 0 0 100 100;" xml:space="preserve">
<g>
	<path d="M95.7,93.1c0-0.4-1.2-9.7-7.2-13.5c-4.9-3.1-20.1-7.1-23.9-8c7-5.6,11.3-14.8,11.3-24.6c0-15.4-11.1-28-24.7-28
		c-13.6,0-24.7,12.6-24.7,28.1c0,9.7,4.5,19.2,11.4,24.7c-4.6,1.2-18.6,4.9-23.3,7.9c-6,3.8-7.2,13.1-7.2,13.5
		c-0.1,1.1,0.7,2.1,1.8,2.2c0.1,0,0.2,0,0.2,0c1,0,1.9-0.8,2-1.8c0-0.1,1-7.8,5.4-10.6c3.8-2.5,16.6-6,22.5-7.5
		c0.7,1.7,1.8,3.3,3.2,4.6c2.4,2.3,5.5,3.5,8.8,3.5c0.1,0,0.3,0,0.4,0c5.3-0.2,9.8-3.5,11.7-8.3c5.6,1.4,19.1,5.1,23,7.6
		c4.4,2.8,5.4,10.5,5.4,10.6c0.1,1,1,1.8,2,1.8c0.1,0,0.2,0,0.2,0C95.1,95.2,95.9,94.2,95.7,93.1z M60.2,70.9
		C60.2,70.9,60.2,70.9,60.2,70.9c-0.1,4.7-3.9,8.5-8.6,8.7c-2.4,0.1-4.6-0.8-6.4-2.4c-1.7-1.6-2.7-3.8-2.8-6.2
		c0-0.6-0.3-1.2-0.9-1.6c-6.7-4.6-11-13.3-11-22.3c0-13.3,9.3-24.1,20.7-24.1c11.4,0,20.7,10.8,20.7,24c0,8.9-4.2,17.6-10.8,22.2
		C60.5,69.6,60.2,70.2,60.2,70.9z"/>
	<path d="M86.5,55.7C86.4,55.7,86.4,55.7,86.5,55.7c-1.1,0-1.9,0.8-1.9,1.8c0,1,0.8,1.8,1.8,1.8c1,0,1.9-0.8,1.9-1.8
		c0,0,0-0.1,0-0.1C88.3,56.4,87.4,55.7,86.5,55.7z"/>
	<path d="M83.4,48.3c0.3,0,0.7-0.1,1-0.3c0.7-0.6,1.6-0.9,2.5-0.9c1.3,0,2,0.5,2,1.5c0,1-0.8,1.6-2.7,1.9c-0.1,0-0.2,0-0.3,0
		c-0.5,0.1-0.8,0.7-0.7,1.2l0.2,1.5c0.1,0.6,0.6,1,1.2,1l0.1-0.1c0.6,0,1.1-0.4,1.1-1l0.1-0.4c2.3-0.5,4.2-1.6,4.2-4.3
		c0-2.8-2-4.4-5.1-4.4c-1.6,0-3.2,0.5-4.4,1.5c-0.3,0.3-0.5,0.7-0.5,1.1C81.9,47.7,82.6,48.3,83.4,48.3z"/>
	<path d="M20.9,18.2C20.9,18.2,20.9,18.2,20.9,18.2c-1.1,0-1.9,0.8-1.9,1.8c0.1,0.9,0.8,1.7,1.7,1.7c1,0.1,1.9-0.7,2-1.7
		c0,0,0-0.1,0-0.1C22.8,19,21.9,18.2,20.9,18.2z"/>
	<path d="M17.8,10.9c0.4,0,0.7-0.1,1-0.3c0.7-0.6,1.6-0.9,2.5-0.8c1.3,0,2,0.5,2,1.5c0,1-0.9,1.6-2.7,1.9c-0.1,0-0.1,0-0.2,0
		c-0.6,0.1-0.9,0.7-0.8,1.3l0.2,1.4c0.1,0.6,0.6,1,1.2,1.1H21c0.6,0,1.1-0.5,1.2-1.1l0.1-0.4c2.3-0.5,4.2-1.6,4.2-4.3
		c0-2.8-2.1-4.4-5.2-4.4c-1.6,0-3.2,0.5-4.4,1.5c-0.4,0.3-0.6,0.7-0.6,1.1C16.3,10.2,17,10.9,17.8,10.9z"/>
	<path d="M8.7,59.3c0.7-0.6,1.6-0.9,2.5-0.8c1.3,0,2,0.5,2,1.5c0,1-0.9,1.6-2.7,1.8c-0.1,0-0.1,0-0.2,0c-0.6,0.1-0.9,0.7-0.8,1.3
		l0.2,1.5c0.1,0.6,0.6,1,1.2,1l0.1,0c0.6,0,1.1-0.4,1.2-1l0.1-0.4c2.3-0.5,4.2-1.6,4.2-4.3v0c0-2.8-2.1-4.4-5.2-4.4
		C9.6,55.4,8,56,6.8,57c-0.4,0.3-0.6,0.7-0.6,1.1c0,0.8,0.7,1.5,1.5,1.5C8,59.7,8.4,59.5,8.7,59.3z"/>
	<path d="M10.8,67L10.8,67C10.8,67,10.8,67,10.8,67C9.8,67,9,67.8,9,68.8c0,1,0.8,1.8,1.8,1.8c0,0,0,0,0.1,0c1,0,1.8-0.8,1.8-1.8
		c0,0,0-0.1,0-0.1C12.6,67.7,11.8,66.9,10.8,67z"/>
	<path d="M43.2,37.2c-2.7,0-4.8,2.2-4.9,4.8c0,2.7,2.2,4.9,4.8,4.9c0,0,0,0,0,0c2.7,0,4.8-2.2,4.9-4.8v0
		C48.1,39.4,45.9,37.2,43.2,37.2z M40.4,42.1c0-1.6,1.3-2.8,2.9-2.8c1.3,0,2.4,0.9,2.7,2.1c-0.4-0.3-0.9-0.4-1.4-0.4
		c-1.4,0-2.5,1.1-2.5,2.5c0,0.5,0.2,1,0.4,1.4C41.3,44.5,40.4,43.4,40.4,42.1z"/>
	<path d="M63.6,42.1c0-2.7-2.2-4.9-4.8-4.9c-2.7,0-4.8,2.2-4.8,4.8c0,1.3,0.5,2.5,1.4,3.4s2.1,1.4,3.4,1.4c0,0,0,0,0,0
		c1.3,0,2.5-0.5,3.4-1.4C63,44.6,63.6,43.4,63.6,42.1L63.6,42.1z M61.6,42.1c0,0.8-0.3,1.5-0.8,2c-0.5,0.5-1.2,0.8-1.9,0.8
		c0.4-0.4,0.6-0.9,0.6-1.5c0-1.3-1-2.3-2.3-2.3c-0.5,0-0.9,0.1-1.2,0.4c0.3-1.3,1.4-2.3,2.8-2.3C60.3,39.2,61.6,40.5,61.6,42.1
		L61.6,42.1z"/>
</g>
</svg>
