<?xml version="1.0" encoding="utf-8"?>
<!-- Generator: Adobe Illustrator 24.0.0, SVG Export Plug-In . SVG Version: 6.00 Build 0)  -->
<svg version="1.1" id="Layer_1" xmlns="http://www.w3.org/2000/svg" xmlns:xlink="http://www.w3.org/1999/xlink" x="0px" y="0px"
	 viewBox="0 0 100 100" style="enable-background:new 0 0 100 100;" xml:space="preserve">
<g>
	<path d="M96.2,95c0-0.4-1.2-10.3-7.6-14.3c-5-3.2-20-7.2-24.8-8.4c0-0.1,0-0.3,0-0.4c7.9-5.9,12.9-16.4,12.9-27.2
		c0-16.9-12.1-30.7-27-30.7c-14.9,0-27,13.7-27,30.6c0,10.9,5.1,21.5,13.1,27.4c0,0.1,0,0.1,0,0.2c-4.6,1.2-19.9,5.2-25,8.5
		C4.5,84.8,3.3,94.6,3.3,95C3.2,96.1,4,97.1,5,97.2c0.1,0,0.1,0,0.2,0c1,0,1.9-0.8,2-1.8c0-0.1,1-8.4,5.8-11.4
		c4.1-2.6,17.5-6.4,23.8-8c2.1,5.2,7.1,8.9,13,8.9c5.9,0,10.9-3.7,13-8.8c6.4,1.6,19.6,5.3,23.6,7.9c4.8,3,5.8,11.3,5.8,11.4
		c0.1,1,1,1.8,2,1.8c0.1,0,0.1,0,0.2,0C95.6,97.1,96.4,96.1,96.2,95z M49.9,81c-5.5,0-10-4.5-10-10c0-0.7-0.3-1.3-0.9-1.7
		c-7.4-5-12.2-14.7-12.2-24.7c0-14.7,10.3-26.6,23-26.6c12.7,0,23,12,23,26.7c0,9.9-4.7,19.5-12,24.5c-0.5,0.4-0.9,1-0.9,1.6V71
		C59.9,76.5,55.4,81,49.9,81z"/>
	<path d="M39.4,28.3c-1,0-1.7,0.8-1.7,1.7s0.8,1.7,1.7,1.7c1,0,1.7-0.8,1.7-1.7S40.4,28.3,39.4,28.3z"/>
	<path d="M55.2,39c0-1-0.8-1.7-1.7-1.7S51.8,38,51.8,39s0.8,1.7,1.7,1.7S55.2,40,55.2,39z"/>
	<path d="M55.8,31.7C55.8,31.7,55.8,31.7,55.8,31.7c-1,0-1.8,0.8-1.7,1.8c0,1,0.8,1.7,1.7,1.7c1,0,1.7-0.8,1.7-1.7
		C57.6,32.5,56.8,31.7,55.8,31.7z"/>
	<path d="M37.4,41.5C37.4,41.5,37.3,41.5,37.4,41.5c-1,0-1.8,0.8-1.7,1.7c0,1,0.8,1.7,1.7,1.7c1,0,1.7-0.8,1.7-1.7
		C39.1,42.2,38.3,41.5,37.4,41.5z"/>
	<path d="M53.2,25.9C53.3,25.9,53.3,25.9,53.2,25.9c0-1-0.8-1.7-1.7-1.7c-1,0-1.7,0.8-1.7,1.7s0.8,1.7,1.7,1.7S53.2,26.8,53.2,25.9z
		"/>
	<path d="M45.6,37.1c1,0,1.7-0.8,1.7-1.7c0,0,0,0,0,0c0-0.9-0.8-1.7-1.7-1.7c-1,0-1.7,0.8-1.7,1.7S44.7,37.1,45.6,37.1z"/>
	<path d="M64,38.3c0,1,0.8,1.7,1.7,1.7c1,0,1.7-0.8,1.7-1.7c0,0,0,0,0,0c0-1-0.8-1.7-1.7-1.7C64.7,36.6,64,37.4,64,38.3z"/>
	<path d="M63.2,31.9c1,0,1.7-0.8,1.7-1.7s-0.8-1.7-1.7-1.7c-1,0-1.7,0.8-1.7,1.7S62.2,31.9,63.2,31.9z"/>
	<path d="M45.8,47.9c-1,0-1.7,0.8-1.7,1.7s0.8,1.7,1.7,1.7s1.7-0.8,1.7-1.7c0,0,0,0,0,0C47.5,48.7,46.8,47.9,45.8,47.9z"/>
	<path d="M63,51.2c1,0,1.7-0.8,1.7-1.7h0c0-1-0.8-1.7-1.7-1.7c0,0,0,0,0,0c-1,0-1.7,0.8-1.7,1.7C61.2,50.4,62,51.2,63,51.2z"/>
	<circle cx="54.7" cy="50.5" r="1.7"/>
	<path d="M36.1,56.7C36.1,56.7,36.1,56.7,36.1,56.7c-1,0-1.7,0.8-1.7,1.8c0,1,0.8,1.7,1.7,1.7c1,0,1.7-0.8,1.7-1.8
		C37.9,57.5,37.1,56.7,36.1,56.7z"/>
	<path d="M45.2,21.6C45.2,21.6,45.2,21.6,45.2,21.6c0-1-0.8-1.7-1.7-1.7c-1,0-1.7,0.8-1.7,1.7c0,1,0.8,1.7,1.7,1.7
		C44.4,23.3,45.2,22.5,45.2,21.6z"/>
	<path d="M31.3,34.9C31.3,34.9,31.3,34.9,31.3,34.9c-1,0-1.7,0.8-1.7,1.8c0,1,0.8,1.7,1.7,1.7c1,0,1.7-0.8,1.7-1.8c0,0,0,0,0,0
		C33,35.7,32.2,34.9,31.3,34.9z"/>
</g>
</svg>
