<?xml version="1.0" encoding="utf-8"?>
<!-- Generator: Adobe Illustrator 24.0.0, SVG Export Plug-In . SVG Version: 6.00 Build 0)  -->
<svg version="1.1" id="Layer_1" xmlns="http://www.w3.org/2000/svg" xmlns:xlink="http://www.w3.org/1999/xlink" x="0px" y="0px"
	 viewBox="0 0 100 100" style="enable-background:new 0 0 100 100;" xml:space="preserve">
<g>
	<path d="M35.9,33.9c1.6-0.1,2.8-1.5,2.8-3.1c0-1.1-1.4-3.6-2.3-5c-0.1-0.1-0.1-0.2-0.2-0.2c-0.4-0.2-0.8-0.1-1,0.2
		c-0.9,1.4-2.3,3.8-2.3,5c0,0.1,0,0.2,0,0.3C32.9,32.7,34.3,34,35.9,33.9z"/>
	<path d="M63.4,38.3c1.6,0,2.9-1.3,2.9-2.9c0-1.2-1.4-3.6-2.3-5c-0.1-0.1-0.1-0.2-0.2-0.2c-0.4-0.2-0.8-0.1-1.1,0.2
		c-0.9,1.4-2.3,3.9-2.3,5c0,0,0,0,0,0C60.5,37,61.8,38.3,63.4,38.3z"/>
	<path d="M87.8,78.7c-5.4-3.4-22.4-7.8-25.9-8.7c7.5-5.8,12.3-15.9,12.3-26.3c0-16.5-11.8-29.9-26.3-29.9S21.6,27.2,21.6,43.6
		c0,10.5,4.9,20.7,12.5,26.5c-4.6,1.2-20.1,5.3-25.2,8.5c-6.5,4.1-7.6,14-7.6,14.4c-0.1,1.1,0.7,2.1,1.8,2.2c0.1,0,0.1,0,0.2,0
		c1,0,1.9-0.8,2-1.8c0-0.1,1-8.4,5.8-11.5c4.2-2.7,17.9-6.5,24.2-8c1.9,5.2,6.9,9,12.8,9c0,0,0,0,0,0c3.7,0,7.1-1.4,9.7-4
		c1.5-1.5,2.6-3.2,3.2-5.1c5.9,1.5,20.4,5.5,24.7,8.2c4.8,3,5.8,11.3,5.8,11.5c0.1,1,1,1.8,2,1.8c0.1,0,0.1,0,0.2,0
		c1.1-0.1,1.9-1.1,1.8-2.2C95.4,92.6,94.3,82.7,87.8,78.7z M57.7,69.1v0.2c0,2.6-1,5-2.8,6.8C53,78,50.6,79,48,79c0,0,0,0,0,0
		c-5.3,0-9.7-4.3-9.7-9.7c0-0.7-0.3-1.3-0.9-1.7c-7.2-4.9-11.9-14.3-11.9-24c0-14.3,10-25.9,22.3-25.9s22.3,11.6,22.3,25.9
		c0,9.6-4.6,19-11.6,23.8C58,67.9,57.7,68.5,57.7,69.1z"/>
	<path d="M41.3,40.4l-7.7,4.5c-1.1,0.7-1.5,2.1-0.9,3.2c0.4,0.8,1.2,1.2,2,1.2c0.4,0,0.8-0.1,1.2-0.3l7.7-4.5
		c1.1-0.7,1.5-2.1,0.9-3.2C43.9,40.1,42.4,39.7,41.3,40.4z"/>
	<path d="M61.6,44.8l-7.7-4.5c-1.1-0.7-2.6-0.3-3.2,0.9c-0.7,1.1-0.3,2.6,0.9,3.2l7.7,4.5c0.4,0.2,0.8,0.3,1.2,0.3
		c0.8,0,1.6-0.4,2-1.2C63.1,46.9,62.7,45.5,61.6,44.8z"/>
	<path d="M97.6,56.2c-1.1-2.7-3.1-4.8-5.6-6.1l0-29.8c0.2-3.1-2.2-5.7-5.3-5.9c-1.5-0.1-2.9,0.4-4,1.4c-1.1,1-1.8,2.4-1.8,3.9
		c0,0.2,0,0.4,0,0.5V50c-5.6,2.9-8.1,9.6-5.6,15.5c1.9,4.7,6.5,7.5,11.2,7.5c1.6,0,3.1-0.3,4.7-0.9c3-1.3,5.3-3.6,6.6-6.6
		C98.9,62.5,98.9,59.2,97.6,56.2z M83.8,19.8c0-0.7,0.3-1.3,0.9-1.8c0.5-0.4,1.1-0.7,1.8-0.7c0,0,0.1,0,0.1,0
		c1.4,0.1,2.5,1.3,2.5,2.8v8.6h-5.2l0-8.6C83.8,20,83.8,19.9,83.8,19.8z M94.9,64.3c-0.9,2.3-2.7,4-4.9,5c-4.7,1.9-10-0.3-12-4.9
		c-1.9-4.7,0.3-10,4.9-12l0.8-0.3v2.2c-3.7,1.5-5.4,5.8-3.9,9.5c1.5,3.7,5.8,5.4,9.5,3.9c3.7-1.5,5.4-5.8,3.9-9.5
		c-0.7-1.8-2.1-3.2-3.9-3.9v0v-2.2l0.7,0.3c2.2,0.9,4,2.7,4.9,4.9C95.8,59.6,95.8,62.1,94.9,64.3z"/>
</g>
</svg>
