<?xml version="1.0" encoding="utf-8"?>
<!-- Generator: Adobe Illustrator 24.2.3, SVG Export Plug-In . SVG Version: 6.00 Build 0)  -->
<svg version="1.1" id="Layer_1" xmlns="http://www.w3.org/2000/svg" xmlns:xlink="http://www.w3.org/1999/xlink" x="0px" y="0px"
	 viewBox="0 0 100 100" style="enable-background:new 0 0 100 100;" xml:space="preserve">
<style type="text/css">
	.st0{fill:none;}
</style>
<path class="st0" d="M45.8,67.8c-5.1,0-9.9-2.2-13.3-6h-0.1c-3.8-1.2-7.4-2.3-11-2c-6.9,0.5-8.7,8.7-9.1,11.2
	c-0.4,2.2,0.1,13.2,1.1,16.2H18c-1.1-4.2-2.2-9-1.3-13.5c0.5-2.5,2.1-5.7,5-6.6c1.1-0.3,3.3-0.5,5.5,1.7c1.9,2,3.7,4.2,5.4,6.5
	c1.8,2.7,4,5.1,6.4,7.3c4,3.3,8.6,4.2,12.5,4.5c1.1,0.1,2.4-0.6,3.7-1.3c1.2-0.7,2.6-1.3,4-1.7c1.6-0.2,3.2-0.2,4.8,0.1
	c1.5,0.2,3.3,0.4,4.2,0c9.3-4.3,16.1-12.6,18.7-22.5c0.5-1.9-0.3-3.7-1.1-5.5c-0.7-1.4-1.2-2.8-1.3-4.4c0-2.1,0.6-4.2,1.7-6
	c0.8-1.5,1.4-2.6,1-4.6c-1.3-6.7-4.7-11.9-9.6-14.7c-2.4-1.4-5.1-1.7-8-2.1c-2.6-0.3-5.2-0.9-7.7-1.8c-3.8-1.5-7-4.8-9.5-9.6l-4.1,1
	c0,0,0,0.1,0,0.1c2.6,3.9,5,7.9,7.2,12c2.2,4.1,3.7,8.5,4.5,13.1c6,7.8,4.5,18.9-3.3,24.9C53.6,66.5,49.8,67.8,45.8,67.8z"/>
<path class="st0" d="M41.8,54.5l4.6-1.7l-5.5,6.9l-0.3,0.3c-0.9,1.1-0.7,2.7,0.4,3.6l0.2,0.1c0.4,0.3,0.9,0.4,1.4,0.4
	c0.8,0,1.5-0.4,2-1l3.4-4.2l6.5-8.2c1.1-1.4,0.9-3.5-0.5-4.6c-0.9-0.7-2.1-0.9-3.2-0.5l-4.6,1.7l5.8-7.3c0.7-1.2,0.4-2.8-0.8-3.6
	c-1-0.6-2.3-0.5-3.2,0.4l-9.9,12.5c-1.1,1.4-0.9,3.5,0.6,4.6C39.6,54.7,40.8,54.9,41.8,54.5L41.8,54.5z"/>
<path d="M88.4,51.6c0-1.4,0.4-2.8,1.2-4c1.4-2.1,1.9-4.7,1.4-7.3c-1.6-7.9-5.7-14-11.6-17.4c-3.1-1.7-6.3-2.2-9.4-2.6
	c-2.3-0.2-4.6-0.7-6.7-1.5c-2.9-1.2-5.4-3.8-7.5-7.9c-0.8-1.6-2.5-2.4-4.2-2l-4.4,1.1c-1.3,0.3-2.3,1.3-2.8,2.6
	c-0.5,1.3-0.3,2.7,0.5,3.8c2.5,3.7,4.8,7.5,6.9,11.5c1.1,2.1,2.1,4.3,2.8,6.6c-2.7-1.6-5.8-2.4-8.9-2.4c-9.8,0-17.8,8-17.8,17.8
	c0,2.4,0.5,4.6,1.3,6.6c-2.7-0.7-5.4-1.1-8.2-0.9c-6.6,0.5-11.4,6-12.7,14.5c-0.3,1.6-0.3,17,2.1,19.9c0.5,0.6,1.2,0.9,1.9,0.9h6
	c1.1,0,2.2-0.5,2.9-1.4c0.7-0.9,0.9-2.1,0.6-3.3c-1.1-3.8-2.1-8.2-1.4-12c0.4-1.9,1.5-3.3,2.2-3.5c0.4-0.1,1,0.1,1.6,0.7
	c1.8,1.9,3.5,3.9,5,6c2,2.9,4.4,5.6,7,8c4.8,4,10.1,5,14.7,5.4c2.3,0.2,4.2-0.8,6-1.7c0.9-0.6,1.9-1,3-1.3c1.1-0.1,2.3-0.1,3.4,0.2
	c2.1,0.3,4.5,0.6,6.4-0.4c10.4-4.8,18-14.1,20.8-25.2c0.8-3.2-0.4-5.9-1.3-8.1C89,53.6,88.6,52.6,88.4,51.6z M38,49.4l9.9-12.5
	c1-1,2.7-1,3.6,0c0.8,0.8,1,2.2,0.4,3.2l-5.7,7.3l4.6-1.7c1.7-0.6,3.6,0.2,4.2,1.9c0.4,1.1,0.2,2.3-0.5,3.2L48.1,59l-3.4,4.3
	c-0.5,0.6-1.2,1-2,1c-0.5,0-1-0.2-1.4-0.5l-0.2-0.1c-1.1-0.9-1.3-2.5-0.4-3.6l0.3-0.3l5.5-6.9l-4.6,1.7c-1.7,0.6-3.6-0.3-4.2-2
	C37.2,51.5,37.4,50.3,38,49.4L38,49.4z M85.8,56.1c0.8,1.9,1.6,3.6,1.1,5.5c-2.5,9.9-9.4,18.2-18.7,22.5c-0.9,0.4-2.6,0.2-4.2,0
	c-1.6-0.3-3.2-0.3-4.8-0.1c-1.4,0.4-2.8,0.9-4,1.7c-1.4,0.7-2.6,1.4-3.7,1.3c-4-0.4-8.5-1.2-12.5-4.5c-2.4-2.2-4.5-4.6-6.3-7.3
	c-1.6-2.3-3.4-4.5-5.4-6.5c-2.3-2.2-4.5-2-5.5-1.7c-2.9,0.9-4.5,4.1-5,6.6c-0.9,4.5,0.2,9.3,1.3,13.5h-4.6c-1-3-1.4-14-1.1-16.2
	c0.4-2.5,2.2-10.6,9.1-11.2c3.6-0.3,7.2,0.8,11,2h0c3.3,3.7,8,6,13.3,6c9.8,0,17.8-8,17.7-17.8c0-4.7-1.9-9.2-5.1-12.4
	c0.5,0.5,1.1,1.1,1.5,1.7c-0.8-4.6-2.3-9-4.5-13.1c-2.2-4.1-4.6-8.1-7.2-12c0,0,0-0.1,0-0.1l4.1-1c2.5,4.9,5.7,8.1,9.5,9.7
	c2.5,0.9,5.1,1.5,7.7,1.8c2.9,0.4,5.7,0.8,8,2.1c4.9,2.7,8.3,8,9.6,14.7c0.4,2-0.2,3.1-1,4.6c-1.1,1.8-1.7,3.9-1.7,6
	C84.6,53.3,85,54.8,85.8,56.1z M57.5,36.6c0.2,0.1,0.3,0.3,0.5,0.5C57.8,36.9,57.7,36.8,57.5,36.6z"/>
</svg>
