<?xml version="1.0" encoding="utf-8"?>
<!-- Generator: Adobe Illustrator 24.0.0, SVG Export Plug-In . SVG Version: 6.00 Build 0)  -->
<svg version="1.1" id="Layer_1" xmlns="http://www.w3.org/2000/svg" xmlns:xlink="http://www.w3.org/1999/xlink" x="0px" y="0px"
	 viewBox="0 0 100 100" style="enable-background:new 0 0 100 100;" xml:space="preserve">
<g>
	<path d="M43.7,34.7c0.7,0.5,1.5,0.7,2.4,0.4l2.1-0.8l-3.2,4c-0.7,0.9-0.5,2.1,0.3,2.8c0.4,0.3,0.8,0.4,1.2,0.4
		c0.6,0,1.2-0.3,1.6-0.8l6.6-8.3c0.5-0.7,0.7-1.5,0.4-2.3c-0.5-1.3-1.9-1.9-3.2-1.5l-2.1,0.8l3.2-4c0.7-0.9,0.5-2.1-0.3-2.8
		c-0.9-0.7-2.1-0.5-2.8,0.3l-6.6,8.3C42.4,32.3,42.6,33.9,43.7,34.7z"/>
	<path d="M96,24.8C96,24.8,96,24.8,96,24.8c-0.4-0.6-0.8-1.1-1.3-1.7c-3.8-4.6-10.3-5.9-15.6-3.2c-0.8,0.4-1.5,0.8-2.2,1.3l-6.4,4.4
		c-0.8,0.6-1.5,1.4-1.8,2.4c-0.4,1.1-0.4,2.4,0.1,3.5v0.1l-5,3.4c0.2-1,0.3-2.1,0.3-3.2c0-8.6-7-15.5-15.5-15.5
		c-8.6,0-15.5,7-15.5,15.5c0,0.5,0,1.1,0.1,1.6l-2.7-1.9v-0.1c0.5-1.1,0.5-2.3,0.1-3.5c-0.4-1-1-1.8-1.8-2.4l-6.4-4.4
		c-0.7-0.5-1.4-0.9-2.1-1.3C15,17.2,8.4,18.5,4.6,23.1c-0.5,0.5-0.9,1.1-1.3,1.7c-3.7,5.3-2.3,12.7,3,16.3l8.2,5.6
		c-0.1,0.5-0.3,1-0.4,1.6c-0.4,1.6-0.7,3.2-0.8,4.8l-0.1,0l-0.1,2.4c-0.3,7.5,2.3,27.6,4.5,43.2l0.2,1.7h29.6l3.1-7.8l3.4,7.8h27.7
		l0.2-1.7c0.1-1,0.3-2,0.4-3c2-14.6,4.2-32,4.1-39.4c0-0.3,0-0.5,0-0.8l-0.1-2.4l0,0c-0.2-2.3-0.5-4.5-0.9-6.8l7.6-5.2
		C98.3,37.4,99.7,30.1,96,24.8z M48.6,20.3c6.4,0,11.5,5.2,11.5,11.5S55,43.3,48.6,43.3s-11.5-5.2-11.5-11.5S42.3,20.3,48.6,20.3z
		 M6.2,26.7c0.3-0.5,0.7-0.9,1.1-1.4c2.8-3.3,7.6-4.3,11.5-2.3c0.6,0.3,1.2,0.6,1.8,1l6.4,4.4c0.3,0.2,0.5,0.4,0.6,0.7
		c0.1,0.3,0.1,0.7,0,1c-0.3,0.7-1.1,1-1.9,0.7c-0.1,0-0.2-0.1-0.2-0.1l-3.4-2.3c-0.2-0.2-0.6-0.1-0.8,0.1c-0.1,0.2-0.2,0.4-0.1,0.5
		c0,0.1,0.1,0.2,0.2,0.3L34,38.1c0.2,0.2,0.4,0.4,0.5,0.7h0c0.3,0.8-0.1,1.6-0.9,1.9c-0.4,0.1-0.9,0.1-1.2-0.1l-9.7-6.7
		c-0.3-0.2-0.6-0.1-0.8,0.2c0,0,0,0.1-0.1,0.1c0,0.1,0,0.3,0,0.4c0,0.1,0.1,0.2,0.2,0.3l10.7,7.3c0.2,0.2,0.4,0.4,0.5,0.6
		c0.2,0.5,0.1,1.1-0.3,1.4c-0.5,0.4-1.2,0.5-1.7,0.1l-10.5-7.1c-0.3-0.2-0.6-0.1-0.8,0.2c-0.1,0.2-0.1,0.4-0.1,0.5
		c0,0.1,0.1,0.2,0.2,0.3l9.7,6.7c0.2,0.2,0.4,0.4,0.5,0.7c0.2,0.4,0.1,0.9-0.2,1.3c-0.4,0.6-1.3,0.8-1.9,0.4c0,0,0,0,0,0l-10.2-7
		c-0.3-0.2-0.6-0.1-0.8,0.1c0,0,0,0,0,0c-0.1,0.2-0.1,0.4-0.1,0.5c0,0.1,0.1,0.2,0.2,0.3l7.2,5c0.3,0.2,0.5,0.4,0.6,0.7
		c0.1,0.3,0.1,0.7,0,1c-0.3,0.7-1.1,1.1-1.8,0.8c-0.1,0-0.2-0.1-0.3-0.1l-4.7-3.3c-0.3-0.5-0.7-0.8-1.2-0.9c0,0-0.1,0-0.1,0l-8.7-6
		C4.5,35.7,3.6,30.5,6.2,26.7z M82.4,54c-5.4,1.2-23,4.7-32.9,4.7c-9.9,0-26.9-3.5-32.2-4.7c0.1-1.6,0.3-3.2,0.7-4.6
		c0-0.1,0-0.2,0.1-0.2l3.2,2.2c2,1.3,4.6,1.1,6.3-0.7c2.1,0.8,4.4,0,5.6-1.8L31.8,48h0l1.2,0.8c0.2-0.3,0.4-0.7,0.6-1.1
		c0.7-0.2,1.3-0.6,1.8-1.1c1.1-1.1,1.6-2.6,1.4-4.1c0.1-0.1,0.2-0.3,0.3-0.4c2.8,3.2,7,5.2,11.5,5.2c5.3,0,10-2.7,12.8-6.8
		c0.1,0.5,0.4,1,0.7,1.5c0.1,0.2,0.2,0.3,0.4,0.5c-0.2,1.5,0.3,3,1.4,4.1c0.5,0.5,1.1,0.9,1.8,1.1c0.1,0.4,0.3,0.8,0.6,1.1l1.2-0.8
		l-1.2,0.9c1.2,1.8,3.6,2.6,5.6,1.8c0.6,0.6,1.4,1.1,2.2,1.3c1.4,0.4,2.9,0.2,4.1-0.7l3.7-2.5C82.1,50.5,82.3,52.3,82.4,54z
		 M91,38.3L76.2,48.5c-0.6,0.4-1.5,0.3-1.9-0.4c-0.1-0.1-0.1-0.2-0.1-0.3c-0.1-0.3-0.1-0.7,0-1c0.1-0.3,0.3-0.6,0.6-0.7l7.2-5
		c0.1-0.1,0.2-0.2,0.2-0.3c0.1-0.2,0-0.4-0.1-0.5c-0.2-0.3-0.5-0.3-0.8-0.2c0,0,0,0,0,0L71,47.3c-0.6,0.5-1.5,0.3-2-0.3
		c0,0,0,0,0-0.1c-0.3-0.4-0.3-0.9-0.2-1.3c0.1-0.3,0.3-0.5,0.5-0.7l9.7-6.7c0.1-0.1,0.2-0.2,0.2-0.3c0.1-0.2,0-0.4-0.1-0.5
		c-0.2-0.3-0.5-0.3-0.8-0.2c0,0,0,0,0,0L68,44.3c-0.5,0.4-1.2,0.3-1.7-0.1c-0.4-0.4-0.5-0.9-0.3-1.4c0.1-0.3,0.3-0.5,0.5-0.6
		l10.8-7.3c0.1-0.1,0.2-0.2,0.2-0.3c0-0.1,0-0.3,0-0.4c-0.1-0.3-0.5-0.5-0.8-0.3c0,0-0.1,0-0.1,0.1l-9.7,6.7c-0.6,0.4-1.5,0.3-2-0.4
		c0,0,0,0,0-0.1c-0.3-0.4-0.3-0.9-0.2-1.3h0c0.1-0.3,0.3-0.5,0.5-0.7L78,29.4c0.3-0.2,0.3-0.5,0.2-0.8c0,0,0,0,0-0.1
		c-0.2-0.2-0.5-0.3-0.8-0.1L74,30.7c-0.7,0.4-1.5,0.2-1.9-0.5c0,0-0.1-0.1-0.1-0.1c-0.1-0.3-0.1-0.7,0-1c0.1-0.3,0.3-0.5,0.6-0.7
		l6.3-4.4c0.6-0.4,1.2-0.7,1.8-1c3.9-2,8.6-1,11.4,2.3c0.4,0.5,0.8,1,1.1,1.4C95.7,30.5,94.8,35.7,91,38.3z"/>
</g>
</svg>
