<?xml version="1.0" encoding="utf-8"?>
<!-- Generator: Adobe Illustrator 24.0.0, SVG Export Plug-In . SVG Version: 6.00 Build 0)  -->
<svg version="1.1" id="Layer_1" xmlns="http://www.w3.org/2000/svg" xmlns:xlink="http://www.w3.org/1999/xlink" x="0px" y="0px"
	 viewBox="0 0 100 100" style="enable-background:new 0 0 100 100;" xml:space="preserve">
<g>
	<path d="M62,39.7c0.6,0,1.2-0.3,1.6-0.8c0.7-0.9,0.5-2.1-0.3-2.8L60.5,34l2.6-0.8c1.1-0.3,1.7-1.4,1.3-2.5
		c-0.3-1.1-1.4-1.7-2.5-1.3l-9.9,3l8.7,6.9C61.1,39.6,61.6,39.7,62,39.7z"/>
	<path d="M38.2,29.4c-1.1-0.3-2.2,0.3-2.5,1.3c-0.3,1.1,0.3,2.2,1.3,2.5l2.6,0.8l-2.7,2.2c-0.9,0.7-1,1.9-0.3,2.8
		c0.4,0.5,1,0.8,1.6,0.8c0.4,0,0.9-0.1,1.2-0.4l8.7-6.9L38.2,29.4z"/>
	<path d="M88.6,67c-4.9-3.1-19.6-7.1-24.6-8.3c0-0.1,0-0.3,0-0.4c7.8-5.9,12.7-16.3,12.7-27c0-16.8-12-30.4-26.8-30.4
		c-14.7,0-26.7,13.6-26.7,30.4c0,10.8,5.1,21.4,13,27.2c0,0,0,0.1,0,0.1c-4.5,1.1-19.9,5.2-24.9,8.4c-1.8,1.2-4.6,4.4-7.3,19.1
		c-1.4,7.8-2.2,15.2-2.2,15.3c-0.1,1.1,0.7,2.1,1.8,2.2c0.1,0,0.1,0,0.2,0c1,0,1.9-0.8,2-1.8c1.4-13.6,4.7-29.5,7.6-31.4
		c4.1-2.6,17.5-6.3,23.7-7.9c0.7,1.8,1.7,3.4,3.1,4.8c2.6,2.6,6.1,4.1,9.8,4.1c0,0,0,0,0,0c5.8,0,10.8-3.6,12.9-8.8
		c6.4,1.6,19.3,5.3,23.3,7.8c2.9,1.9,6.1,17.8,7.3,31.4c0.1,1,1,1.8,2,1.8c0.1,0,0.1,0,0.2,0c1.1-0.1,1.9-1.1,1.8-2.2
		c0-0.1-0.7-7.5-2-15.3C93.1,71.4,90.4,68.1,88.6,67z M50.2,67.3C50.2,67.3,50.2,67.3,50.2,67.3c-2.6,0-5.1-1-7-2.9s-2.9-4.4-2.9-7
		c0-0.7-0.3-1.3-0.9-1.7c-7.4-5-12.1-14.6-12.1-24.5C27.3,16.7,37.5,4.8,50,4.8c12.6,0,22.8,11.8,22.8,26.4
		c0,9.8-4.6,19.3-11.8,24.3c-0.5,0.4-0.9,1-0.9,1.6v0.2C60.1,62.8,55.6,67.3,50.2,67.3z"/>
	<path d="M81.5,77.6l-1.5,1L81.5,77.6c-0.3-0.4-0.7-0.8-1-1.1c0-0.8-0.1-1.6-0.4-2.4c-0.7-1.6-2.2-2.8-4-3.2
		c-0.1-0.2-0.2-0.4-0.4-0.6c-1.1-1.5-2.7-2.4-4.6-2.4c-1.2,0-2.3,0.3-3.2,1l-6.3,4.5l-0.1-0.1c-1-1-2.4-1.5-3.8-1.5
		c-1.2,0-2.4,0.4-3.3,1.1L47,78.1c-0.8,0.6-1.6,1.2-2.3,1.9c-3.3,3-4.9,7.2-4.8,11.3l-13.9,7c-1,0.5-1.4,1.7-0.9,2.7
		c0.4,0.7,1.1,1.1,1.8,1.1c0.3,0,0.6-0.1,0.9-0.2l12.8-6.4c0.3,1,0.7,2,1.3,2.9c0.4,0.7,0.9,1.4,1.3,2.1c4.4,6.2,12.9,7.6,19.1,3.3
		c0,0,0,0,0,0l17.1-12.1c2.3-1.6,3-4.6,1.8-7.1C82.8,82.5,83,79.7,81.5,77.6z M77.8,82.1l-11.8,8.3c-0.3,0.2-0.4,0.7-0.2,1
		c0,0,0,0,0,0c0.1,0.2,0.3,0.3,0.6,0.3c0.1,0,0.3,0,0.4-0.1l8.3-5.9c0.3-0.2,0.6-0.3,1-0.3c0.4,0,0.8,0.2,1.1,0.4
		c0.7,0.6,0.7,1.7,0.1,2.3c-0.1,0.1-0.2,0.1-0.2,0.2L60,100.4c-4.4,3.1-10.4,2.1-13.5-2.3c0,0,0,0,0,0c-0.4-0.5-0.8-1.1-1.1-1.8
		c-2.5-4.4-1.7-10,2.1-13.5c0.6-0.5,1.2-1,1.9-1.5l7.3-5.2c0.3-0.2,0.6-0.3,1-0.3c0.4,0,0.8,0.1,1.1,0.4c0.7,0.6,0.7,1.6,0.1,2.3
		c-0.1,0.1-0.2,0.2-0.3,0.2l-3.9,2.8c-0.3,0.2-0.4,0.6-0.2,0.9c0.1,0.2,0.3,0.3,0.6,0.3c0.1,0,0.3,0,0.4-0.1l14.7-10.4
		c0.3-0.2,0.6-0.3,1-0.3c0.5,0,1,0.3,1.3,0.7c0.6,0.7,0.4,1.8-0.3,2.3c0,0,0,0,0,0l-11.2,7.9c-0.3,0.2-0.4,0.7-0.1,1
		c0,0,0.1,0.1,0.1,0.1c0.1,0.1,0.3,0.2,0.4,0.2c0.2,0,0.3-0.1,0.4-0.1l12.3-8.8c0.3-0.2,0.6-0.3,0.9-0.3c0.6,0,1.2,0.4,1.4,0.9
		c0.3,0.7,0,1.5-0.6,1.9l-12,8.6c-0.3,0.2-0.4,0.6-0.2,1c0,0,0,0,0,0c0.1,0.2,0.3,0.3,0.6,0.3c0.1,0,0.3,0,0.4-0.1l11.2-8
		c0.3-0.2,0.6-0.3,1-0.3c0.6,0,1.1,0.3,1.4,0.7C78.8,80.6,78.6,81.6,77.8,82.1z"/>
	<path d="M50.3,44.6L50.3,44.6c-4.1,0-6.8,3.8-7.9,5.9c-0.2,0.3-0.1,0.7,0.2,0.8c0.1,0.1,0.2,0.1,0.3,0.1c0.1,0,0.1,0,0.2,0
		c0.7-0.2,1.3-0.3,2-0.2c1.6,0,3.5,0.3,5.2,0.3c1.7,0,3.7-0.3,5.2-0.3c0.7,0,1.3,0,2,0.2h0.2c0.3,0,0.6-0.3,0.6-0.6
		c0-0.1,0-0.2-0.1-0.3C57.2,48.4,54.5,44.6,50.3,44.6z M50.3,48.4c-0.7,0-1.5-0.1-2.2-0.1c0.6-0.5,1.4-0.7,2.2-0.7
		c0.8,0,1.6,0.3,2.3,0.7C51.8,48.4,51,48.4,50.3,48.4z"/>
	<path d="M78.8,47c0.1,0,0.2,0,0.3,0l6.9-1.2c1.1-0.2,1.8-1.2,1.6-2.3c-0.2-1.1-1.2-1.8-2.3-1.6L78.5,43c-1.1,0.2-1.8,1.2-1.6,2.3
		C77,46.3,77.9,47,78.8,47z"/>
	<path d="M78.5,53.7l6.9,1.2c0.1,0,0.2,0,0.3,0c1,0,1.8-0.7,2-1.7c0.2-1.1-0.5-2.1-1.6-2.3l-6.9-1.2c-1.1-0.2-2.1,0.5-2.3,1.6
		C76.7,52.5,77.4,53.5,78.5,53.7z"/>
	<path d="M88.7,37.5c0.2,0,0.3-0.1,0.5,0c1.4,0,2.6,1.2,2.6,2.5c0,0.2,0,0.4-0.1,0.6l-0.4,1.6l1.5,0.7c1.2,0.6,2.1,1.5,2.7,2.7
		c1.3,2.8,0.1,6.1-2.7,7.5l-1.5,0.7l0.4,1.6c0.1,0.2,0.1,0.4,0.1,0.6c0,1.4-1.2,2.6-2.6,2.6c-0.2,0-0.3,0-0.5,0
		c-1.1-0.2-2.1,0.5-2.4,1.6s0.5,2.1,1.6,2.4c0.4,0.1,0.9,0.1,1.3,0.1c0,0,0,0,0,0c3.6,0,6.6-2.9,6.6-6.6c0,0,0,0,0,0
		c3.8-2.6,5.3-7.7,3.3-12.1c-0.7-1.5-1.9-2.8-3.3-3.8c0,0,0,0,0,0c0-3.6-2.9-6.6-6.6-6.6c-0.4,0-0.9,0-1.3,0.1
		c-1.1,0.2-1.8,1.3-1.6,2.4C86.5,37.1,87.6,37.8,88.7,37.5z"/>
	<path d="M21.1,48C21.1,48,21.1,48,21.1,48c-2.7,0-5.2,1-7,2.9c-1.9,1.9-2.9,4.4-2.9,7.1c0,1.1,0.9,2,2,2c0,0,0,0,0,0
		c1.1,0,2-0.9,2-2c0-1.6,0.6-3.1,1.7-4.2c1.1-1.1,2.6-1.7,4.2-1.7c0,0,0,0,0,0c1.1,0,2-0.9,2-2C23.1,48.9,22.2,48,21.1,48z"/>
	<path d="M5.8,58.8C5.8,58.8,5.8,58.8,5.8,58.8c1.1,0,2-0.9,2-2c0-7.1,5.7-12.8,12.8-12.8c0,0,0,0,0,0c1.1,0,2-0.9,2-2
		c0-1.1-0.9-2-2-2c0,0,0,0,0,0c-9.3,0-16.8,7.5-16.8,16.8C3.8,57.9,4.7,58.8,5.8,58.8z"/>
</g>
</svg>
