<?xml version="1.0" encoding="utf-8"?>
<!-- Generator: Adobe Illustrator 24.0.0, SVG Export Plug-In . SVG Version: 6.00 Build 0)  -->
<svg version="1.1" id="Layer_1" xmlns="http://www.w3.org/2000/svg" xmlns:xlink="http://www.w3.org/1999/xlink" x="0px" y="0px"
	 viewBox="0 0 100 100" style="enable-background:new 0 0 100 100;" xml:space="preserve">
<g>
	<path d="M61.7,40.6c0.6,0,1.2-0.3,1.6-0.8c0.7-0.9,0.5-2.1-0.3-2.8l-2.7-2.2l2.6-0.8c1.1-0.3,1.7-1.4,1.3-2.5
		c-0.3-1.1-1.4-1.7-2.5-1.3l-9.9,3l8.7,6.9C60.8,40.4,61.2,40.6,61.7,40.6z"/>
	<path d="M37.8,30.2c-1.1-0.3-2.2,0.3-2.5,1.3c-0.3,1.1,0.3,2.2,1.3,2.5l2.6,0.8L36.5,37c-0.9,0.7-1,1.9-0.3,2.8
		c0.4,0.5,1,0.8,1.6,0.8c0.4,0,0.9-0.1,1.2-0.4l8.7-6.9L37.8,30.2z"/>
	<path d="M88.2,67.8c-4.9-3.1-19.6-7.1-24.6-8.3c0-0.1,0-0.3,0-0.4c7.8-5.9,12.7-16.4,12.7-27c0-16.8-12-30.4-26.8-30.4
		S22.9,15.3,22.9,32.1c0,10.8,5.1,21.4,13,27.2c0,0,0,0.1,0,0.1c-4.5,1.1-19.8,5.2-24.9,8.4C9.2,69,6.5,72.2,3.8,86.9
		c-1.4,7.8-2.2,15.2-2.2,15.3c-0.1,1.1,0.7,2.1,1.8,2.2c0.1,0,0.1,0,0.2,0c1,0,1.9-0.8,2-1.8c1.4-13.6,4.7-29.5,7.6-31.4
		c4.1-2.6,17.4-6.3,23.7-7.9c2,5.2,7.1,8.9,13,8.9c0,0,0,0,0,0c3.7,0,7.2-1.4,9.8-4.1c1.4-1.4,2.4-3,3.1-4.7
		c6.4,1.6,19.3,5.3,23.3,7.8c2.9,1.9,6.1,17.8,7.3,31.4c0.1,1,1,1.8,2,1.8c0.1,0,0.1,0,0.2,0c1.1-0.1,1.9-1.1,1.8-2.2
		c0-0.1-0.7-7.5-2-15.3C92.8,72.2,90,69,88.2,67.8z M49.8,68.1C49.8,68.1,49.8,68.1,49.8,68.1c-5.5,0-9.9-4.4-9.9-9.9
		c0-0.7-0.3-1.3-0.9-1.7c-7.4-5-12.1-14.6-12.1-24.5c0-14.6,10.2-26.4,22.8-26.4c12.5,0,22.8,11.9,22.8,26.4
		c0,9.7-4.6,19.3-11.8,24.3c-0.5,0.4-0.9,1-0.9,1.6v0.2c0,2.6-1,5.1-2.9,7C54.9,67.1,52.5,68.1,49.8,68.1z"/>
	<path d="M80.1,77.4c0-0.8-0.1-1.6-0.5-2.4c-0.7-1.6-2.2-2.8-4-3.2c-0.1-0.2-0.2-0.4-0.4-0.6c-1.1-1.5-2.8-2.4-4.6-2.4l0.2-0.1
		c-1.2,0-2.3,0.3-3.3,1l-6.3,4.5l-0.1-0.1c-1-1-2.4-1.5-3.8-1.5c-1.2,0-2.4,0.4-3.3,1.1L46.6,79c-0.8,0.6-1.5,1.2-2.3,1.8
		c-3.3,3-4.9,7.2-4.8,11.3l-13.9,7c-1,0.5-1.4,1.7-0.9,2.7c0.4,0.7,1.1,1.1,1.8,1.1c0.3,0,0.6-0.1,0.9-0.2l12.8-6.4
		c0.3,1,0.7,2,1.3,2.9c0.4,0.7,0.9,1.4,1.3,2.1c4.4,6.2,12.9,7.7,19.1,3.3c0,0,0.1,0,0.1-0.1l17.1-12.1c2.3-1.6,3-4.6,1.8-7.1
		c0.6-0.8,1.1-1.7,1.2-2.7c0.2-1.5-0.1-3-1-4.2C80.8,78,80.5,77.7,80.1,77.4z M77.5,83l-11.8,8.3c-0.3,0.2-0.4,0.6-0.2,1
		c0,0,0,0,0,0c0.1,0.2,0.3,0.3,0.6,0.3c0.1,0,0.3,0,0.4-0.1l8.3-5.9c0.3-0.2,0.6-0.3,1-0.3c0.4,0,0.8,0.1,1.1,0.4
		c0.7,0.6,0.7,1.7,0.1,2.3c-0.1,0.1-0.2,0.1-0.2,0.2l-17.1,12.1c-1.6,1.2-3.6,1.8-5.6,1.8c-3.1,0-6.1-1.5-7.9-4.1
		c-0.4-0.5-0.8-1.1-1.1-1.8c-2.6-4.4-1.7-10,2-13.5c0.6-0.5,1.2-1,1.9-1.5l7.4-5.2c0.3-0.2,0.6-0.3,1-0.3c0.4,0,0.8,0.1,1.1,0.4
		c0.7,0.6,0.7,1.6,0.1,2.3c-0.1,0.1-0.2,0.2-0.3,0.2l-3.9,2.8c-0.3,0.2-0.4,0.6-0.2,0.9c0.1,0.2,0.3,0.3,0.6,0.3
		c0.1,0,0.3,0,0.4-0.1l14.7-10.4c0.3-0.2,0.6-0.3,1-0.3c0.5,0,1,0.3,1.3,0.7c0.6,0.7,0.4,1.7-0.3,2.3c0,0,0,0,0,0l-11.2,7.9
		c-0.3,0.2-0.4,0.7-0.1,1c0,0,0.1,0.1,0.1,0.1c0.1,0.1,0.3,0.2,0.4,0.2c0.2,0,0.3-0.1,0.4-0.1L73.7,76c0.7-0.5,1.6-0.4,2.2,0.3
		c0.1,0.1,0.1,0.2,0.2,0.3c0.3,0.7,0,1.5-0.6,1.9l-12,8.6c-0.3,0.2-0.4,0.6-0.2,1c0,0,0,0,0,0c0.2,0.3,0.7,0.4,1,0.2c0,0,0,0,0,0
		l11.2-8c0.8-0.5,1.8-0.4,2.4,0.4c0,0,0,0,0,0C78.4,81.5,78.2,82.5,77.5,83z"/>
	<path d="M50,45.4L50,45.4c-4.1,0-6.7,3.9-7.9,6c-0.2,0.3-0.1,0.7,0.2,0.8c0.1,0.1,0.2,0.1,0.3,0.1h0.2c0.7-0.2,1.3-0.3,2-0.2
		c1.6,0,3.5,0.3,5.2,0.3c1.7,0,3.6-0.3,5.2-0.3c0.7,0,1.3,0.1,2,0.2c0.1,0,0.1,0,0.2,0c0.3,0,0.6-0.3,0.6-0.6c0-0.1,0-0.2-0.1-0.3
		C56.8,49.2,54.1,45.4,50,45.4z M50,49.3c-0.7,0-1.5-0.1-2.2-0.1c0.6-0.5,1.4-0.7,2.2-0.7c0.8,0,1.6,0.3,2.3,0.7
		C51.4,49.2,50.7,49.3,50,49.3z"/>
	<path d="M78.5,47.8c0.1,0,0.2,0,0.3,0l6.9-1.2c1.1-0.2,1.8-1.2,1.6-2.3c-0.2-1.1-1.2-1.8-2.3-1.6l-6.9,1.2C77,44,76.3,45,76.5,46.1
		C76.7,47.1,77.5,47.8,78.5,47.8z"/>
	<path d="M78.1,54.5l6.9,1.2c0.1,0,0.2,0,0.4,0c1,0,1.8-0.7,2-1.7c0.2-1.1-0.5-2.1-1.6-2.3l-6.9-1.2c-1.1-0.2-2.1,0.5-2.3,1.6
		C76.3,53.3,77,54.3,78.1,54.5z"/>
	<path d="M88.3,38.4c0.2,0,0.3,0,0.5,0c0,0,0,0,0,0c0.2,0,0.5,0,0.7,0.1c1.3,0.4,2.1,1.7,1.8,3.1l-0.4,1.6l1.5,0.7
		c1.2,0.6,2.1,1.5,2.7,2.7c1.3,2.8,0.1,6.1-2.7,7.5l-1.5,0.7l0.4,1.6c0.1,0.2,0.1,0.4,0.1,0.6c0,1.4-1.2,2.6-2.6,2.6c0,0,0,0,0,0
		c-0.2,0-0.4,0-0.6,0c-1.1-0.2-2.1,0.5-2.3,1.6c-0.2,1.1,0.5,2.1,1.6,2.3c0.4,0.1,0.8,0.1,1.2,0.1c0,0,0,0,0,0
		c3.6,0,6.6-2.9,6.6-6.6c0,0,0,0,0,0c3.8-2.6,5.3-7.7,3.3-12c-0.7-1.5-1.9-2.9-3.3-3.8c0-2.9-1.9-5.6-4.8-6.4
		c-0.6-0.2-1.2-0.2-1.7-0.2c-0.4,0-0.9,0-1.3,0.1c-1.1,0.2-1.8,1.3-1.6,2.4C86.2,37.9,87.2,38.6,88.3,38.4z"/>
	<path d="M43.1,13.6C43.1,13.6,43.1,13.6,43.1,13.6c-0.8,0-1.4,0.6-1.4,1.4c0,0.8,0.6,1.4,1.4,1.4c0.8,0,1.4-0.6,1.4-1.4
		C44.5,14.2,43.9,13.6,43.1,13.6z"/>
	<path d="M48.2,19.2c0.8,0,1.4-0.6,1.4-1.4c0-0.8-0.6-1.4-1.4-1.4c0,0,0,0,0,0c-0.8,0-1.4,0.6-1.4,1.4
		C46.8,18.6,47.4,19.2,48.2,19.2z"/>
	<path d="M48.6,14.3c0.8,0,1.4-0.6,1.4-1.4c0-0.8-0.6-1.4-1.4-1.4c0,0,0,0,0,0c-0.8,0-1.4,0.6-1.4,1.4
		C47.2,13.7,47.8,14.3,48.6,14.3z"/>
	<path d="M42.8,22c0.8,0,1.4-0.6,1.4-1.4c0,0,0,0,0,0c0-0.8-0.6-1.4-1.4-1.4c-0.8,0-1.4,0.6-1.4,1.4C41.4,21.3,42,22,42.8,22z"/>
	<path d="M37.7,18.3c0.8,0,1.4-0.6,1.4-1.4c0-0.8-0.6-1.4-1.4-1.4c0,0,0,0,0,0c-0.8,0-1.4,0.6-1.4,1.4
		C36.2,17.7,36.9,18.4,37.7,18.3z"/>
	<path d="M42.8,11.5c0.8,0,1.4-0.6,1.4-1.4c0,0,0,0,0,0c0-0.8-0.6-1.4-1.4-1.4c-0.8,0-1.4,0.6-1.4,1.4C41.4,10.8,42,11.5,42.8,11.5z
		"/>
</g>
</svg>
