<?xml version="1.0" encoding="utf-8"?>
<!-- Generator: Adobe Illustrator 24.0.0, SVG Export Plug-In . SVG Version: 6.00 Build 0)  -->
<svg version="1.1" id="Layer_1" xmlns="http://www.w3.org/2000/svg" xmlns:xlink="http://www.w3.org/1999/xlink" x="0px" y="0px"
	 viewBox="0 0 100 100" style="enable-background:new 0 0 100 100;" xml:space="preserve">
<g>
	<path d="M36.2,29.3c1.6-0.1,2.8-1.5,2.8-3.1c0-1.1-1.4-3.6-2.3-5c-0.1-0.1-0.1-0.2-0.2-0.2c-0.4-0.2-0.8-0.1-1,0.2
		c-0.9,1.4-2.3,3.8-2.3,5h0c0,0.1,0,0.2,0,0.3C33.2,28.2,34.6,29.4,36.2,29.3z"/>
	<path d="M63.6,33.6c1.6,0.1,3-1.1,3.1-2.8c0-1.2-1.4-3.6-2.3-5c-0.1-0.1-0.1-0.2-0.2-0.2c-0.4-0.2-0.8-0.1-1,0.2
		c-0.9,1.4-2.3,3.9-2.3,5C61,32.3,62.1,33.5,63.6,33.6z"/>
	<path d="M88.1,74.1c-5.4-3.4-22.4-7.8-25.9-8.7c7.5-5.8,12.3-16,12.3-26.3c0-16.5-11.8-29.9-26.3-29.9C33.8,9.2,22,22.7,22,39.1
		c0,10.5,4.9,20.7,12.5,26.5c-4.5,1.2-20.1,5.3-25.2,8.5c-6.5,4.1-7.6,14-7.6,14.4c-0.1,1.1,0.7,2.1,1.8,2.2c0.1,0,0.1,0,0.2,0
		c1,0,1.9-0.8,2-1.8c0-0.1,1-8.4,5.8-11.5c4.2-2.6,17.8-6.4,24.1-8c0.6,1.9,1.6,3.6,3,5c2.5,2.7,5.9,4.2,9.6,4.3c0.1,0,0.3,0,0.4,0
		c6,0,11.2-4,13-9.5c6,1.5,20.3,5.4,24.6,8.2c4.8,3.1,5.8,11.4,5.8,11.5c0.1,1,1,1.8,2,1.8c0.1,0,0.1,0,0.2,0
		c1.1-0.1,1.9-1.1,1.8-2.2C95.7,88.1,94.6,78.2,88.1,74.1z M58.1,64.6l0,0.2c0,0.2,0,0.4,0,0.6c-0.2,5.3-4.6,9.5-10,9.4
		c-2.6-0.1-5-1.2-6.8-3s-2.7-4.3-2.6-6.9c0-0.7-0.3-1.3-0.9-1.7C30.6,58.2,26,48.8,26,39.1c0-14.3,10-25.9,22.2-25.9
		c12.3,0,22.3,11.6,22.3,25.9C70.5,48.7,66,58,58.9,63C58.4,63.3,58.1,63.9,58.1,64.6z"/>
	<path d="M41.7,35.8l-7.7,4.5c-1.1,0.7-1.5,2.1-0.9,3.2c0.4,0.8,1.2,1.2,2,1.2c0.4,0,0.8-0.1,1.2-0.3l7.7-4.5
		c1.1-0.7,1.5-2.1,0.9-3.2C44.2,35.6,42.8,35.2,41.7,35.8z"/>
	<path d="M62,40.3l-7.7-4.5c-1.1-0.6-2.6-0.3-3.2,0.9c-0.7,1.1-0.3,2.6,0.9,3.2l7.7,4.5c0.4,0.2,0.8,0.3,1.2,0.3
		c0.8,0,1.6-0.4,2-1.2C63.5,42.4,63.1,40.9,62,40.3z"/>
	<path d="M98,51.7c-1.1-2.7-3.1-4.8-5.6-6.1V15.6c0-3.1-2.5-5.6-5.6-5.6c-3.1,0-5.6,2.5-5.6,5.6v29.9c-2.6,1.3-4.5,3.5-5.6,6.2
		c-1.2,3-1.2,6.3,0,9.3c1.3,3,3.6,5.3,6.6,6.6c1.5,0.6,3.1,0.9,4.6,0.9c1.6,0,3.2-0.3,4.7-0.9c3-1.3,5.3-3.6,6.6-6.6
		S99.3,54.7,98,51.7z M86.8,13c1.4,0,2.6,1.2,2.6,2.6v8.6h-5.2v-8.6C84.2,14.2,85.3,13,86.8,13z M95.3,59.8c-0.9,2.3-2.7,4-5,5
		c-4.7,1.9-10-0.3-12-4.9c-0.9-2.3-1-4.8,0-7c0.9-2.3,2.7-4,5-5l0.8-0.3v2.2c-3.7,1.5-5.4,5.8-3.9,9.5c1.5,3.7,5.8,5.4,9.5,3.9
		c3.7-1.5,5.4-5.8,3.9-9.5c-0.7-1.8-2.1-3.2-3.9-3.9l0,0v-2.2l0.7,0.3c2.2,0.9,4,2.7,4.9,4.9C96.2,55.1,96.2,57.6,95.3,59.8z"/>
</g>
</svg>
