<?xml version="1.0" encoding="utf-8"?>
<!-- Generator: Adobe Illustrator 24.0.0, SVG Export Plug-In . SVG Version: 6.00 Build 0)  -->
<svg version="1.1" id="Layer_1" xmlns="http://www.w3.org/2000/svg" xmlns:xlink="http://www.w3.org/1999/xlink" x="0px" y="0px"
	 viewBox="0 0 100 100" style="enable-background:new 0 0 100 100;" xml:space="preserve">
<g>
	<path d="M65.8,32.7c0-4.3-5.8-14-8.7-18.6c-0.1-0.2-0.3-0.4-0.6-0.6c-0.9-0.6-2.2-0.4-2.8,0.6c-2.9,4.6-8.7,14.3-8.7,18.6
		c0,0,0,0,0,0c0,5.7,4.7,10.4,10.4,10.4S65.9,38.4,65.8,32.7z"/>
	<path d="M35.8,44.2c-0.9-0.6-2.2-0.4-2.8,0.6c-2.9,4.6-8.7,14.3-8.7,18.6c0,0,0,0,0,0c0,5.7,4.7,10.4,10.4,10.4
		c5.7,0,10.4-4.7,10.4-10.4c0-4.3-5.8-14-8.7-18.6C36.2,44.5,36,44.3,35.8,44.2z"/>
	<path d="M68.2,62.5c-0.2-0.4-0.5-0.7-0.9-0.9c-1.3-0.8-2.9-0.4-3.7,0.9c-3.1,4.9-8.1,13.6-8.1,17.6c0.2,5.5,4.6,9.9,10.1,10.1
		c5.7,0.2,10.5-4.3,10.7-10.1C76.2,76.2,71.2,67.5,68.2,62.5z"/>
	<path d="M27,21.6C27,21.6,27,21.6,27,21.6c-1.1,0-1.9,0.8-1.9,1.8c0.1,0.9,0.8,1.7,1.7,1.7c1,0.1,1.9-0.7,2-1.7c0,0,0-0.1,0-0.1
		C28.8,22.3,28,21.5,27,21.6z"/>
	<path d="M27.3,13.1c1.3,0,2,0.5,2,1.5c0,1-0.9,1.6-2.7,1.8c-0.1,0-0.2,0-0.3,0c-0.5,0.1-0.8,0.7-0.7,1.2l0.2,1.5
		c0.1,0.6,0.6,1,1.2,1l0.1-0.1c0.6,0,1.1-0.4,1.2-1l0.1-0.4c2.3-0.5,4.2-1.6,4.2-4.3c0-2.8-2.1-4.4-5.2-4.4c-1.6,0-3.2,0.5-4.4,1.5
		c-0.4,0.3-0.6,0.7-0.6,1.2c0,0.8,0.7,1.5,1.5,1.5c0.4,0,0.7-0.1,1-0.3C25.6,13.4,26.4,13.1,27.3,13.1z"/>
</g>
</svg>
