<?xml version="1.0" encoding="utf-8"?>
<!-- Generator: Adobe Illustrator 24.2.3, SVG Export Plug-In . SVG Version: 6.00 Build 0)  -->
<svg version="1.1" id="Layer_1" xmlns="http://www.w3.org/2000/svg" xmlns:xlink="http://www.w3.org/1999/xlink" x="0px" y="0px"
	 viewBox="0 0 100 100" style="enable-background:new 0 0 100 100;" xml:space="preserve">
<path d="M81.1,11.1H18.9c-3.7,0-6.7,3-6.7,6.7v4.8c0,3,2,5.6,4.7,6.4v22.4h0V83c0,2.2,1.1,4.2,2.8,5.5c0.1,0,0.1,0.1,0.2,0.1
	c0,0,0,0,0,0c1.3,1,3,1.7,4.8,1.7H25h50.3h0.4c2,0,3.9-0.8,5.3-2.1c0,0,0.1-0.1,0.1-0.1c0,0,0.1-0.1,0.1-0.1c1.4-1.3,2.2-3.1,2.2-5
	v-0.3V51.5V29c2.6-0.9,4.5-3.4,4.5-6.3v-4.8C87.8,14.2,84.8,11.1,81.1,11.1z M24.8,22.1v-7.7h7.1v7.6c-0.1,2-1.8,3.5-3.7,3.4
	C26.4,25.3,24.9,23.9,24.8,22.1z M39.3,22.1v-7.7h7.1v7.6c-0.1,2-1.8,3.5-3.7,3.4C40.9,25.3,39.4,23.9,39.3,22.1z M53.8,22.1v-7.7
	h7.1v7.7c0,0.9-0.4,1.8-1,2.5c-0.7,0.7-1.6,1-2.5,1c0,0,0,0,0,0C55.4,25.6,53.8,24,53.8,22.1z M68.3,22.1v-7.7h7.1v7.7
	c0,2-1.6,3.5-3.5,3.5S68.3,24,68.3,22.1z M60.6,60.4H39.2V46.1h21.4V60.4z M63.6,51.5v-8.4H36.2v8.4H20.9V30.9h58.4v20.6H63.6z"/>
</svg>
