<?xml version="1.0" encoding="utf-8"?>
<!-- Generator: Adobe Illustrator 24.2.3, SVG Export Plug-In . SVG Version: 6.00 Build 0)  -->
<svg version="1.1" id="Layer_1" xmlns="http://www.w3.org/2000/svg" xmlns:xlink="http://www.w3.org/1999/xlink" x="0px" y="0px"
	 viewBox="0 0 100 100" style="enable-background:new 0 0 100 100;" xml:space="preserve">
<g>
	<path d="M85,59.2H71c-1.7,0-3.2-1-3.8-2.6l-5.8-15.2L47.8,68.1c-0.5,1-1.5,1.6-2.7,1.6h-0.3c-1.2-0.1-2.3-1-2.6-2.1l-4.1-14
		l-2.7,7.2c-0.6,1.6-2.1,2.6-3.8,2.6h-6.6l28.1,31.8L82,62.5L85,59.2z"/>
	<line x1="21.5" y1="59.4" x2="21.6" y2="59.4"/>
	<path d="M88.4,55.2L88.4,55.2c6.9-9.1,6.6-22.8-1-31.4c-8-9-20.9-9-28.9,0l-5.4,6.1l-5.4-6.1c-8-9-20.9-9-28.9,0
		c-8,9-8,23.7,0,32.7l2.6,3h10.2l3.7-10.1c0.4-1.2,1.6-2,2.9-2c1.3,0,2.4,0.9,2.8,2.2l4.3,14.5l13.5-26.5c0.8-1.5,2.6-2.1,4-1.3
		c0.7,0.3,1.2,0.9,1.4,1.6L71,55.2h15.7H88.4z"/>
	<path d="M14,22.8c1.1,0,2-0.9,2-2c0-1.6,0.6-3.1,1.8-4.2c1.1-1.1,2.6-1.7,4.2-1.7c1.1,0,2-0.9,2-2c0-1.1-0.9-2-2-2c0,0-0.1,0-0.1,0
		c-2.6,0-5.1,1-7,2.8c-1.9,1.9-2.9,4.3-3,7c0,0,0,0.1,0,0.1C12,21.9,12.9,22.8,14,22.8C14,22.8,14,22.8,14,22.8z"/>
	<path d="M21.4,6.9C21.4,6.9,21.4,6.9,21.4,6.9c1.1,0,2-0.9,2-2c0-1.1-0.9-2-2-2c-4.5,0-8.7,1.7-11.9,4.9C6.4,11,4.6,15.2,4.6,19.7
		c0,1.1,0.9,2,2,2c0,0,0,0,0,0c1.1,0,2-0.9,2-2c0-3.4,1.3-6.6,3.8-9C14.8,8.2,18,6.9,21.4,6.9z"/>
	<path d="M84.9,77.4c0-1.1-0.9-2-2-2s-2,0.9-2,2c0,3.3-2.7,5.9-6,5.9c-1.1,0-2,0.9-2,2s0.9,2,2,2C80.4,87.3,84.9,82.9,84.9,77.4z"/>
	<path d="M90.9,75.9c-1.1,0-2,0.9-2,2c0,7.1-5.7,12.8-12.8,12.8c-1.1,0-2,0.9-2,2s0.9,2,2,2h0c9.3,0,16.8-7.5,16.8-16.8
		C92.9,76.8,92,75.9,90.9,75.9z"/>
</g>
</svg>
