<?xml version="1.0" encoding="utf-8"?>
<!-- Generator: Adobe Illustrator 24.0.0, SVG Export Plug-In . SVG Version: 6.00 Build 0)  -->
<svg version="1.1" id="Layer_1" xmlns="http://www.w3.org/2000/svg" xmlns:xlink="http://www.w3.org/1999/xlink" x="0px" y="0px"
	 viewBox="0 0 100 100" style="enable-background:new 0 0 100 100;" xml:space="preserve">
<g>
	<path d="M95.9,72.3c-2.5-14.7-5.3-18-7.1-19.2c-2.1-1.3-6.2-3-12.2-4.8c1.1-3,1.6-6.2,1.6-9.5c0-15.7-12.8-28.6-28.6-28.6
		S21.1,23.1,21.1,38.8v0c0,3.4,0.6,6.7,1.7,9.8c-5.5,1.8-9.2,3.2-11.2,4.5c-1.8,1.2-4.6,4.4-7.3,19.1C2.9,80,2.2,87.5,2.1,87.6
		c-0.1,1.1,0.7,2.1,1.8,2.2c0.1,0,0.1,0,0.2,0c1,0,1.9-0.8,2-1.8c1.4-13.6,4.7-29.5,7.6-31.4c1.2-0.8,4.1-2.1,10.7-4.2
		c4.8,9,14.3,15.1,25.2,15.1c11,0,20.5-6.2,25.3-15.4c7.3,2.2,10.4,3.7,11.7,4.5c3,1.9,6.1,17.8,7.3,31.4c0.1,1,1,1.8,2,1.8
		c0.1,0,0.1,0,0.2,0c1.1-0.1,1.9-1.1,1.8-2.2C97.8,87.5,97.2,80.1,95.9,72.3z M49.6,63.4c-9.7,0-18.2-5.7-22.1-14l5.9-5.7l1,1.4
		c3.2,4.7,8.4,7.7,14.1,8.1h1c1.2,0,2.3-0.1,3.5-0.3c4.6-0.7,8.9-3.1,12-6.6l2.4-2.7l4.5,5.4C68,57.5,59.5,63.4,49.6,63.4z"/>
	<path d="M30.8,70.1c-1.1-0.3-2.2,0.3-2.5,1.4L24,87.2c-0.3,1.1,0.3,2.2,1.4,2.5c0.2,0,0.4,0.1,0.5,0.1c0.9,0,1.7-0.6,1.9-1.5
		l4.3-15.8C32.5,71.4,31.9,70.3,30.8,70.1z"/>
	<path d="M70.9,71.5c-0.3-1.1-1.4-1.7-2.5-1.4c-1.1,0.3-1.7,1.4-1.4,2.5l4.3,15.8c0.2,0.9,1,1.5,1.9,1.5c0.2,0,0.4,0,0.5-0.1
		c1.1-0.3,1.7-1.4,1.4-2.5L70.9,71.5z"/>
</g>
</svg>
