<?xml version="1.0" encoding="utf-8"?>
<!-- Generator: Adobe Illustrator 24.0.0, SVG Export Plug-In . SVG Version: 6.00 Build 0)  -->
<svg version="1.1" id="Layer_1" xmlns="http://www.w3.org/2000/svg" xmlns:xlink="http://www.w3.org/1999/xlink" x="0px" y="0px"
	 viewBox="0 0 100 100" style="enable-background:new 0 0 100 100;" xml:space="preserve">
<path d="M98.3,86.9c0-0.4-1.2-10.5-7.8-14.6c-5-3.1-19.7-7.1-25-8.5c-0.2-0.3-0.5-0.6-0.8-0.9c7.3-5.9,11.9-16,11.9-26.2
	c0-16.7-12-30.3-26.6-30.3C35.4,6.4,23.4,20,23.4,36.7c0,10.7,5,21.1,12.7,26.9c-4.5,1.1-20.4,5.3-25.7,8.7
	c-6.6,4.1-7.7,14.2-7.8,14.6C2.6,88,3.4,89,4.5,89.1c0.1,0,0.1,0,0.2,0c1,0,1.9-0.8,2-1.8c0.2-2.4,1.8-9.1,5.9-11.6
	c4.3-2.7,18.3-6.6,24.6-8.2c1.9,5.3,7,9.1,13,9.1c1.8,0,3.5-0.3,5.1-1c1.2,0.7,2.5,1.1,4,1.1c4.4,0,8-3.6,8-8c0-0.1,0-0.2,0-0.3
	c7,1.9,17.6,5,21.2,7.3c4.9,3.1,5.9,11.5,5.9,11.6c0.1,1,1,1.8,2,1.8c0.1,0,0.1,0,0.2,0C97.6,88.9,98.4,88,98.3,86.9z M40.3,62.7
	c0-0.7-0.3-1.3-0.9-1.7c-7.3-4.9-12-14.5-12-24.3c0-14.5,10.2-26.3,22.7-26.3c12.5,0,22.6,11.8,22.6,26.3c0,9.7-4.6,19.2-11.8,24.2
	c-0.5-0.1-1.1-0.2-1.7-0.2c-4.4,0-8,3.6-8,8c0,1.3,0.3,2.6,0.9,3.7c-0.6,0.1-1.3,0.2-2,0.2C44.7,72.6,40.3,68.1,40.3,62.7z"/>
</svg>
