<?xml version="1.0" encoding="utf-8"?>
<!-- Generator: Adobe Illustrator 24.2.3, SVG Export Plug-In . SVG Version: 6.00 Build 0)  -->
<svg version="1.1" id="Layer_1" xmlns="http://www.w3.org/2000/svg" xmlns:xlink="http://www.w3.org/1999/xlink" x="0px" y="0px"
	 viewBox="0 0 100 100" style="enable-background:new 0 0 100 100;" xml:space="preserve">
<g>
	<path d="M45.3,39.5c-0.5-1.3-1.9-2-3.3-1.6l-3.4,1.3l4.3-5.5c0.7-0.9,0.5-2.1-0.3-2.8c-0.9-0.7-2.1-0.5-2.8,0.3l-7.5,9.5
		c-0.4,0.5-0.6,1.2-0.5,1.9c0.1,0.7,0.4,1.3,1,1.7c0.7,0.5,1.6,0.7,2.4,0.4l3.4-1.3L34.2,49c-0.7,0.9-0.5,2.1,0.3,2.8
		c0.4,0.3,0.8,0.4,1.2,0.4c0.6,0,1.2-0.3,1.6-0.8l7.6-9.6C45.4,41.2,45.6,40.3,45.3,39.5z"/>
	<path d="M99.6,91.1c0-0.4-1.3-10.8-8-15c-5.8-3.7-24.2-8.4-27.3-9.1c7.9-6.1,13-16.8,13-27.7C77.3,22,65,8,49.8,8
		C34.7,8,22.3,22,22.3,39.3c0,11,5.2,21.8,13.2,27.8c-4.6,1.2-21.2,5.5-26.6,9c-6.7,4.3-7.9,14.6-8,15c-0.1,1.1,0.7,2.1,1.8,2.2
		c0.1,0,0.1,0,0.2,0c1,0,1.9-0.8,2-1.8c0.3-2.5,1.9-9.4,6.2-12.1c4.9-3.1,21.1-7.4,25.5-8.5c2,5.5,7.2,9.5,13.4,9.5
		c6.2,0,11.5-4,13.5-9.6c6.2,1.5,21.5,5.7,26.1,8.6c5.1,3.2,6.1,12,6.1,12.1c0.1,1,1,1.8,2,1.8c0.1,0,0.1,0,0.2,0
		C99,93.2,99.8,92.2,99.6,91.1z M39.7,66.2c0-0.7-0.3-1.3-0.9-1.7c-7.6-5.2-12.5-15.1-12.5-25.3c0-14.8,10.3-26.9,23-27.2v64.4
		C44,76.1,39.7,71.6,39.7,66.2z"/>
</g>
</svg>
