<?xml version="1.0" encoding="utf-8"?>
<!-- Generator: Adobe Illustrator 24.0.0, SVG Export Plug-In . SVG Version: 6.00 Build 0)  -->
<svg version="1.1" id="Layer_1" xmlns="http://www.w3.org/2000/svg" xmlns:xlink="http://www.w3.org/1999/xlink" x="0px" y="0px"
	 viewBox="0 0 100 100" style="enable-background:new 0 0 100 100;" xml:space="preserve">
<g>
	<path d="M60.5,38.1c0.6,0,1.2-0.3,1.6-0.8c0.7-0.9,0.5-2.1-0.3-2.8l-2.1-1.7l1.9-0.6c1.1-0.3,1.7-1.4,1.3-2.5
		c-0.3-1.1-1.4-1.7-2.5-1.3l-9.2,2.8l8.1,6.4C59.6,37.9,60.1,38.1,60.5,38.1z"/>
	<path d="M39.2,28.4c-1.1-0.3-2.2,0.3-2.5,1.3s0.3,2.2,1.3,2.5l1.9,0.6l-2.1,1.7c-0.9,0.7-1,1.9-0.3,2.8c0.4,0.5,1,0.8,1.6,0.8
		c0.4,0,0.9-0.1,1.2-0.4l8.1-6.4L39.2,28.4z"/>
	<path d="M90.9,79.4c-2.3-13.3-4.8-16.2-6.4-17.3C80,59.2,67,55.8,62.5,54.6c0,0,0-0.1,0-0.1c7-5.3,11.5-14.7,11.5-24.3
		C74,15.1,63.1,2.8,49.8,2.8c-13.3,0-24.2,12.3-24.2,27.5c0,9.6,4.5,19,11.5,24.4c-4.4,1.1-17.6,4.6-22,7.5c-1.7,1.1-4.2,4-6.6,17.3
		c-1.3,7-1.9,13.4-2,13.7c-0.1,1.1,0.7,2.1,1.8,2.2c0.1,0,0.1,0,0.2,0c1,0,1.9-0.8,2-1.8c1.2-12.2,4.1-26.3,6.8-28
		c3.6-2.3,15.3-5.6,20.9-7c1.9,4.6,6.4,7.9,11.7,7.9c5.3,0,9.8-3.2,11.7-7.8c5.7,1.5,17.2,4.7,20.7,6.9c2.6,1.7,5.3,15.8,6.4,28
		c0.1,1,1,1.8,2,1.8c0.1,0,0.1,0,0.2,0c1.1-0.1,1.9-1.1,1.8-2.2C92.6,92.8,92.1,86.3,90.9,79.4z M49.9,62.3c-4.8,0-8.7-3.9-8.7-8.7
		c0-0.7-0.3-1.3-0.9-1.7c-6.5-4.4-10.7-13-10.7-21.8c0-12.9,9.1-23.5,20.2-23.5C60.9,6.8,70,17.3,70,30.2c0,8.7-4.2,17.1-10.6,21.6
		c-0.5,0.4-0.9,1-0.9,1.6v0.2C58.5,58.5,54.7,62.3,49.9,62.3z"/>
	<path d="M28.3,85.1l6.4-8.1c0.5-0.6,0.6-1.5,0.3-2.2c-0.4-1.3-1.8-2-3.2-1.5L30,73.9l2.9-3.7c0.7-0.9,0.5-2.1-0.3-2.8
		c-0.9-0.7-2.1-0.5-2.8,0.3l-6.3,7.9c-0.9,1-0.8,2.6,0.3,3.5c0.7,0.6,1.7,0.7,2.4,0.4l1.8-0.7l-2.9,3.7c-0.7,0.9-0.5,2.1,0.3,2.8
		c0.4,0.3,0.8,0.4,1.2,0.4C27.3,85.8,27.9,85.6,28.3,85.1z"/>
	<path d="M77.5,70.6c0-0.7-0.2-1.5-0.5-2.1c-0.7-1.5-2-2.6-3.7-3c-0.1-0.1-0.2-0.3-0.3-0.4c-1-1.5-2.7-2.3-4.5-2.3l0,0
		c-1.1,0-2.2,0.3-3.2,1l-5.4,3.8c-1-0.8-2.2-1.3-3.5-1.3c-1.2,0-2.3,0.3-3.2,1l-6.6,4.7c-0.7,0.5-1.4,1.1-2.1,1.7
		c-3,2.8-4.5,6.6-4.4,10.5l-12.1,6.1c-1,0.5-1.4,1.7-0.9,2.7c0.4,0.7,1.1,1.1,1.8,1.1c0.3,0,0.6-0.1,0.9-0.2L41,88.2
		c0.3,0.8,0.6,1.6,1.1,2.4c0.4,0.7,0.8,1.3,1.2,1.9c4.1,5.7,12,7.1,17.7,3l15.3-10.8c2.1-1.5,2.9-4.3,1.8-6.6c0.5-0.7,0.9-1.5,1-2.4
		c0.3-1.4-0.1-2.9-0.9-4.1C78,71.2,77.8,70.9,77.5,70.6z M64,84.2c0.1,0.2,0.3,0.3,0.5,0.3c0.1,0,0.2,0,0.4-0.1l7.5-5.3
		c0.3-0.2,0.6-0.3,0.9-0.3c0.4,0,0.7,0.1,1,0.4c0.6,0.6,0.6,1.5,0.1,2.1c-0.1,0.1-0.2,0.2-0.3,0.2L58.7,92.2
		c-3.9,2.8-9.4,1.8-12.1-2.1c-0.3-0.5-0.7-1-1-1.6c-2.3-4-1.5-9,1.9-12.1c0.5-0.5,1.1-0.9,1.7-1.3l6.6-4.7c0.3-0.2,0.6-0.3,0.9-0.3
		c0.4,0,0.7,0.1,1,0.4c0.6,0.6,0.6,1.5,0.1,2.1c-0.1,0.1-0.1,0.1-0.2,0.2L54,75.4c-0.3,0.2-0.3,0.6-0.1,0.8c0.1,0.2,0.3,0.2,0.5,0.2
		c0.1,0,0.2,0,0.3-0.1L67.8,67c0.3-0.2,0.6-0.3,0.9-0.3v0c0.5,0,0.9,0.2,1.2,0.6c0.5,0.6,0.4,1.6-0.2,2.1c0,0,0,0,0,0l-10,7.1
		c-0.3,0.2-0.3,0.6-0.2,0.8c0,0.1,0.1,0.1,0.2,0.2c0.1,0.1,0.2,0.1,0.4,0.1c0.1,0,0.3,0,0.4-0.1l11-7.9c0.6-0.4,1.5-0.3,1.9,0.3
		c0.1,0.1,0.1,0.2,0.1,0.2c0.3,0.6,0.1,1.3-0.5,1.7l-10.8,7.7c-0.3,0.2-0.3,0.6-0.2,0.8c0,0,0,0,0,0c0.1,0.2,0.3,0.3,0.5,0.3
		c0.1,0,0.3,0,0.4-0.1l10-7.1c0.3-0.2,0.6-0.3,0.9-0.3c0.5,0,1,0.2,1.2,0.6c0.4,0.7,0.3,1.5-0.4,2l-10.5,7.5
		C63.9,83.5,63.8,83.9,64,84.2z"/>
	<path d="M56.6,46.7c-3.3-2.2-11.2-2.2-14.2,0.1c-0.9,0.7-1.1,1.9-0.4,2.8c0.7,0.9,1.9,1.1,2.8,0.4c1.5-1.1,7.6-1.3,9.6,0.1
		c0.3,0.2,0.7,0.3,1.1,0.3c0.6,0,1.3-0.3,1.7-0.9C57.8,48.6,57.5,47.3,56.6,46.7z"/>
</g>
</svg>
