<?xml version="1.0" encoding="utf-8"?>
<!-- Generator: Adobe Illustrator 24.0.0, SVG Export Plug-In . SVG Version: 6.00 Build 0)  -->
<svg version="1.1" id="Layer_1" xmlns="http://www.w3.org/2000/svg" xmlns:xlink="http://www.w3.org/1999/xlink" x="0px" y="0px"
	 viewBox="0 0 100 100" style="enable-background:new 0 0 100 100;" xml:space="preserve">
<g>
	<path d="M58.7,40.1c0.6,0,1.2-0.3,1.6-0.8c0.7-0.9,0.5-2.1-0.3-2.8l-2.7-2.2l2.6-0.8c1.1-0.3,1.7-1.4,1.3-2.5
		c-0.3-1.1-1.4-1.7-2.5-1.3l-9.9,3l8.7,6.9C57.8,40,58.2,40.1,58.7,40.1z"/>
	<path d="M34.8,29.8c-1.1-0.3-2.2,0.3-2.5,1.3c-0.3,1.1,0.3,2.2,1.3,2.5l2.6,0.8l-2.7,2.2c-0.9,0.7-1,1.9-0.3,2.8
		c0.4,0.5,1,0.8,1.6,0.8c0.4,0,0.9-0.1,1.2-0.4l8.7-6.9L34.8,29.8z"/>
	<path d="M85.2,67.4c-4.9-3.1-19.6-7.1-24.6-8.3c0-0.1,0-0.3,0-0.4c7.8-5.9,12.7-16.4,12.7-27c0-16.8-12-30.4-26.8-30.4
		S19.9,14.9,19.9,31.6c0,10.8,5.1,21.4,13,27.2c0,0,0,0.1,0,0.1c-4.5,1.1-19.8,5.2-24.9,8.4c-1.8,1.2-4.6,4.4-7.3,19.1
		c-1.4,7.8-2.2,15.2-2.2,15.3c-0.1,1.1,0.7,2.1,1.8,2.2c0.1,0,0.1,0,0.2,0c1,0,1.9-0.8,2-1.8c1.4-13.7,4.7-29.6,7.6-31.4
		c4.1-2.6,17.4-6.3,23.7-7.9c2,5.2,7.1,8.8,12.9,8.8c5.8,0,10.9-3.6,12.9-8.8c6.4,1.6,19.3,5.3,23.3,7.8c2.9,1.9,6.1,17.8,7.3,31.4
		c0.1,1,1,1.8,2,1.8c0.1,0,0.1,0,0.2,0c1.1-0.1,1.9-1.1,1.8-2.2c0-0.1-0.7-7.5-2-15.3C89.8,71.8,87,68.6,85.2,67.4z M46.8,67.7
		c-5.5,0-9.9-4.4-9.9-9.9c0-0.7-0.3-1.3-0.9-1.7c-7.4-5-12.1-14.6-12.1-24.5c0-14.6,10.2-26.4,22.8-26.4c12.5,0,22.8,11.9,22.8,26.4
		c0,9.7-4.6,19.3-11.8,24.3c-0.5,0.4-0.9,1-0.9,1.6v0.2C56.7,63.3,52.3,67.7,46.8,67.7z"/>
	<path d="M78.1,78l-1.5,1L78.1,78c-0.3-0.4-0.7-0.7-1-1c0-0.8-0.1-1.6-0.5-2.4c-0.7-1.6-2.2-2.8-4-3.2c-0.1-0.2-0.2-0.4-0.4-0.6
		c-1.1-1.5-2.8-2.4-4.6-2.4l0.1-0.1c-1.2,0-2.3,0.4-3.3,1.1l-6.3,4.5l-0.1-0.1c-1-1-2.4-1.5-3.8-1.5c-1.2,0-2.4,0.4-3.3,1.1
		l-7.4,5.2c-0.8,0.6-1.5,1.2-2.3,1.8c-3.3,3-4.9,7.2-4.8,11.4l-13.9,7c-1,0.5-1.4,1.7-0.9,2.7c0.4,0.7,1.1,1.1,1.8,1.1
		c0.3,0,0.6-0.1,0.9-0.2l12.8-6.4c0.3,1,0.7,2,1.3,2.9c0.4,0.7,0.9,1.4,1.3,2.1c4.4,6.2,12.9,7.7,19.1,3.3c0,0,0.1,0,0.1-0.1
		L76.1,92c2.3-1.6,3-4.6,1.8-7.1C79.5,82.9,79.6,80.1,78.1,78z M74.5,82.5l-11.8,8.3c-0.3,0.2-0.4,0.6-0.2,1c0,0,0,0,0,0
		c0.1,0.2,0.3,0.3,0.6,0.3c0.1,0,0.3,0,0.4-0.1l8.3-5.9c0.3-0.2,0.6-0.3,1-0.3c0.4,0,0.8,0.1,1.1,0.4c0.7,0.6,0.7,1.7,0.1,2.3
		c-0.1,0.1-0.2,0.1-0.2,0.2l-17.1,12.1c-4.4,3.1-10.5,2.1-13.6-2.3c-0.4-0.5-0.8-1.1-1.1-1.8c-2.5-4.4-1.7-10,2-13.5
		c0.6-0.5,1.2-1,1.8-1.5l7.4-5.2c0.3-0.2,0.6-0.3,1-0.3c0.4,0,0.8,0.1,1.1,0.4c0.7,0.6,0.7,1.6,0.1,2.3c-0.1,0.1-0.2,0.2-0.3,0.2
		L51.3,82c-0.3,0.2-0.4,0.6-0.2,0.9c0.1,0.2,0.3,0.3,0.6,0.3c0.1,0,0.3,0,0.4-0.1l14.7-10.4c0.3-0.2,0.6-0.3,1-0.3
		c0.5,0,1,0.3,1.3,0.7c0.6,0.7,0.4,1.7-0.3,2.3c0,0,0,0,0,0l-11.2,7.9c-0.3,0.2-0.4,0.7-0.1,1c0,0,0.1,0.1,0.1,0.1
		c0.1,0.1,0.3,0.2,0.4,0.2c0.2,0,0.3-0.1,0.4-0.1l12.3-8.8c0.7-0.5,1.7-0.3,2.2,0.4c0.1,0.1,0.1,0.2,0.2,0.3c0.3,0.7,0,1.5-0.6,1.9
		l-12,8.6c-0.3,0.2-0.4,0.6-0.2,1c0,0,0,0,0,0c0.1,0.2,0.3,0.3,0.6,0.3c0.1,0,0.3-0.1,0.4-0.1l11.2-8c0.8-0.5,1.8-0.4,2.4,0.4
		c0,0,0,0,0,0C75.4,81,75.2,82,74.5,82.5z"/>
	<path d="M47,45L47,45c-4.1,0-6.7,3.8-7.9,5.9c-0.2,0.3-0.1,0.7,0.2,0.8c0.1,0.1,0.2,0.1,0.3,0.1h0.2c0.7-0.2,1.3-0.3,2-0.2
		c1.6,0,3.5,0.3,5.2,0.3c1.7,0,3.7-0.3,5.2-0.3c0.7,0,1.3,0.1,2,0.2h0.2c0.3,0,0.6-0.3,0.6-0.6c0-0.1,0-0.2-0.1-0.3
		C53.8,48.8,51.1,45,47,45z M47,48.8c-0.7,0-1.5,0-2.2-0.1c0.6-0.5,1.4-0.7,2.2-0.7c0.8,0,1.6,0.3,2.3,0.7
		C48.4,48.8,47.7,48.8,47,48.8z"/>
	<path d="M75.5,47.4c0.1,0,0.2,0,0.3,0l6.9-1.2c1.1-0.2,1.8-1.2,1.6-2.3c-0.2-1.1-1.2-1.8-2.3-1.6l-6.9,1.2
		c-1.1,0.2-1.8,1.2-1.6,2.3C73.7,46.7,74.5,47.4,75.5,47.4z"/>
	<path d="M75.1,54.1l6.9,1.2c0.1,0,0.2,0,0.4,0c1,0,1.8-0.7,2-1.7c0.2-1.1-0.5-2.1-1.6-2.3l-6.9-1.2c-1.1-0.2-2.1,0.5-2.3,1.6
		C73.3,52.9,74,53.9,75.1,54.1z"/>
	<path d="M85.3,38c0.2,0,0.3,0,0.5,0c0.3,0,0.5,0,0.7,0.1c1.3,0.4,2.1,1.7,1.8,3.1l-0.4,1.6l1.5,0.7c1.2,0.6,2.1,1.5,2.7,2.7
		c1.3,2.8,0.1,6.1-2.7,7.5l-1.5,0.7l0.4,1.6c0.1,0.2,0.1,0.4,0.1,0.6c0,1.4-1.2,2.6-2.5,2.6c-0.2,0-0.4,0-0.5-0.1
		c-1.1-0.2-2.1,0.5-2.3,1.6c-0.2,1.1,0.5,2.1,1.6,2.3C85,63,85.4,63,85.8,63c3.6,0,6.6-2.9,6.6-6.6c0,0,0,0,0,0
		c3.8-2.6,5.3-7.7,3.3-12c-0.7-1.5-1.9-2.9-3.3-3.8c0-2.9-1.9-5.6-4.8-6.4c-0.6-0.2-1.2-0.2-1.7-0.2c-0.4,0-0.9,0-1.3,0.1
		c-1.1,0.2-1.8,1.3-1.5,2.4C83.2,37.5,84.3,38.2,85.3,38z"/>
</g>
</svg>
