<svg id="Layer_1" data-name="Layer 1" xmlns="http://www.w3.org/2000/svg" viewBox="0 0 100 100"><path d="M22.85,52.18c7.43,17.38,46.4,17.38,56.4,1.45,9.58,2.94,12.48,15.72,4.87,23-12,11.55-40,11.17-52.73,7.41C21.18,81.07,4.31,71.25,14.93,59,17.07,56.51,19.93,54.65,22.85,52.18Z"/><path d="M52.16,17.54a15.11,15.11,0,0,1,7.7,20.51c-1.48,2.84-4.66,5.12-9.9,6.35-2.31.54-5.1,2-2.26,3.79a5.36,5.36,0,0,0,2.78.65A16.52,16.52,0,0,0,64.1,40.21c.21-.36.43-.76.82-.89a1.57,1.57,0,0,1,.83,0,13.83,13.83,0,0,1,7.7,4.82c3.09,4.11,2.52,9.74-3,13-10.88,6.39-29.47,6.27-39.64-1-4.76-3.38-5.47-9.34-2-14a18.21,18.21,0,0,1,3.53-3.54,49.65,49.65,0,0,1,6.42-4.17C45.7,30.88,51.51,26.42,52.16,17.54Z"/></svg>