<?xml version="1.0" encoding="utf-8"?>
<!-- Generator: Adobe Illustrator 24.0.0, SVG Export Plug-In . SVG Version: 6.00 Build 0)  -->
<svg version="1.1" id="Layer_1" xmlns="http://www.w3.org/2000/svg" xmlns:xlink="http://www.w3.org/1999/xlink" x="0px" y="0px"
	 viewBox="0 0 100 100" style="enable-background:new 0 0 100 100;" xml:space="preserve">
<g>
	<path d="M62.1,51.7c1.8-1,3-3,3-5.2c0-2.9-2.1-5.4-4.9-5.9c0.3-0.1,0.5-0.3,0.8-0.4c7.1-4.1,9.6-13.2,5.5-20.4c-2-3.5-5.2-5.9-9-7
		C54.3,12,51,12.2,48,13.5c-1.4-2.4-4.2-7.4-6.8-11.9c-3.8-6.5-7.6-13.3-8.7-15.2c-1.5-2.5-4.8-3.4-7.4-1.9L14.4-9.5
		C11.9-8,11-4.7,12.4-2.1C13-0.9,15,2.6,17.2,6.7c3.4,6.2,8.3,15,10.2,18.5c-2.5,1.9-4.4,4.6-5.3,7.7c-1.1,3.8-0.7,7.9,1.2,11.4
		s5.1,6.1,8.9,7.2c1.1,0.3,2.2,0.5,3.3,0.6C29,53.9,24.3,59.9,24.6,67c0.3,7.3,5.8,13.2,12.9,14.2c0,3.2,0.1,10.2,0.2,16
		c0.1,6.1,0.1,11.9,0.1,13.8c0.1,2.9,2.5,5.3,5.4,5.3c0,0,0,0,0,0h12.2c0,0,0,0,0,0c2.9,0,5.4-2.4,5.4-5.3c0-1.8,0.1-7.6,0.1-13.7
		c0.1-5.9,0.1-12.9,0.2-16.1c3.2-0.4,6.3-1.9,8.6-4.2c2.8-2.8,4.4-6.6,4.4-10.6c0-4-1.5-7.7-4.4-10.6C67.7,53.7,65,52.3,62.1,51.7z
		 M61.1,46.5c0,1.1-0.9,2-2,2s-2-0.9-2-2s0.9-2,2-2S61.1,45.4,61.1,46.5z M56.2,51.8c-2.5,0.5-4.9,1.7-6.9,3.5
		c-2.5-2.2-5.6-3.5-8.9-3.7c4.6-1.3,8.5-4.8,10.2-9.6c1.5,0.3,3,0.4,4.5,0.2c-1.2,1.1-1.9,2.7-1.9,4.4
		C53.1,48.8,54.4,50.8,56.2,51.8z M26.8,42.3c-1.4-2.6-1.7-5.5-0.9-8.3c0.8-2.7,2.6-5,5.1-6.4l0.5-0.3l0.3-0.5c0.6-1,0.6-1-3.7-8.8
		c-2.2-4-4.9-9-7.3-13.3c-2.3-4.1-4.2-7.6-4.9-8.8c-0.4-0.7-0.1-1.6,0.6-1.9L27-12.1c0.2-0.1,0.5-0.2,0.7-0.2c0.5,0,1,0.3,1.3,0.7
		c1.1,1.8,5,8.6,8.7,15.1c2,3.5,3.9,6.8,5.4,9.4c0.7,1.3,1.3,2.3,1.8,3c0.7,1.3,1.6,2.8,3.4,1.8c2.5-1.5,5.5-1.8,8.3-1.1
		c2.8,0.8,5.2,2.6,6.6,5.1c3,5.2,1.2,11.9-4,14.9c-2.5,1.4-5.3,1.8-8.1,1.1c-1.8-0.5-3.7,0.6-4.1,2.4c-1.7,5.8-7.8,9.1-13.6,7.4
		C30.5,46.8,28.2,44.9,26.8,42.3z M67,74.1c-2.1,2.1-4.8,3.2-7.7,3.2c0,0,0,0,0,0c-2,0-2,1.7-2,3.6c0,1,0,2.4-0.1,4.2
		c0,3.4-0.1,7.9-0.1,12.2c-0.1,6.1-0.1,11.9-0.1,13.7c0,0.8-0.7,1.4-1.4,1.4c0,0,0,0,0,0H43.2c0,0,0,0,0,0c-0.8,0-1.4-0.6-1.4-1.4
		c0-1.8-0.1-7.6-0.1-13.7c0-4.3-0.1-8.8-0.1-12.2c0-1.7,0-3.1-0.1-4.1c0-1.8-0.1-3.5-2-3.5v2l0-2c-5.8-0.1-10.6-4.7-10.8-10.5
		c-0.2-6,4.5-11.1,10.5-11.3c2.9-0.1,5.7,1,7.8,3c1.3,1.3,3.5,1.3,4.8,0c2-2,4.7-3,7.6-3c0,0,0,0,0,0c2.9,0,5.7,1.1,7.7,3.2
		c2.1,2.1,3.2,4.8,3.2,7.7C70.2,69.3,69,72.1,67,74.1z"/>
	<path d="M98.9,37.9L97,25.7l-0.1-0.3c-0.2-0.6-0.6-1.1-1.1-1.5c-1.2-0.7-2.8-0.3-3.5,0.9l-1.6,3.8l-1.1-7.1
		c-0.2-1.1-1.2-1.8-2.3-1.7c-1.1,0.2-1.8,1.2-1.7,2.3l1.9,12.2l0,0.2c0.3,1.4,1.7,2.2,3.1,1.9c0.7-0.2,1.3-0.6,1.6-1.3l1.6-3.7
		l1.1,7.1c0.2,1,1,1.7,2,1.7c0.1,0,0.2,0,0.3,0C98.3,40.1,99.1,39,98.9,37.9z"/>
	<path d="M31.7,98.3c-0.1,0-6.8-4.3-11.7-16.1c-3.4-8.2-2-18.5-0.9-24c0.7-3.5-0.3-7.1-2.6-9.7L1.1,31.3c-0.7-0.8-2-0.9-2.8-0.2
		c-0.8,0.7-0.9,2-0.2,2.8l15.3,17.2c1.5,1.7,2.2,4,1.7,6.3c-1.2,5.9-2.6,17.2,1.2,26.3c5.4,13,13,17.8,13.3,17.9
		c0.3,0.2,0.7,0.3,1,0.3c0.7,0,1.3-0.3,1.7-1C32.9,100.1,32.6,98.9,31.7,98.3z"/>
	<path d="M56.7-1.2c-0.7-0.9-1.9-1-2.8-0.4c-0.9,0.7-1,1.9-0.4,2.8c0.2,0.2,17.3,22.5,29.2,39c4.7,6.6,2,18.2-0.9,24.4
		c-1.7,3.5-2.6,7.5-2.6,11.4v24c0,1.1,0.9,2,2,2s2-0.9,2-2V76c0-3.3,0.8-6.7,2.2-9.7c2.9-6.1,6.8-19.9,0.6-28.5
		C74,21.4,56.9-1,56.7-1.2z"/>
</g>
</svg>
