<?xml version="1.0" encoding="utf-8"?>
<!-- Generator: Adobe Illustrator 24.0.0, SVG Export Plug-In . SVG Version: 6.00 Build 0)  -->
<svg version="1.1" id="Layer_1" xmlns="http://www.w3.org/2000/svg" xmlns:xlink="http://www.w3.org/1999/xlink" x="0px" y="0px"
	 viewBox="0 0 100 100" style="enable-background:new 0 0 100 100;" xml:space="preserve">
<g>
	<path d="M35.7,33.2c1.6-0.1,2.8-1.5,2.8-3.1c0-1.1-1.4-3.6-2.3-5c-0.1-0.1-0.1-0.2-0.2-0.2c-0.4-0.2-0.8-0.1-1,0.2
		c-0.9,1.4-2.3,3.8-2.3,5c0,0.1,0,0.2,0,0.3C32.7,32,34,33.3,35.7,33.2z"/>
	<path d="M63.2,37.6c1.6,0,2.9-1.3,2.9-2.9c0-1.1-1.4-3.6-2.3-5c-0.1-0.1-0.1-0.2-0.2-0.2c-0.4-0.2-0.8-0.1-1.1,0.2
		c-0.9,1.4-2.3,3.8-2.3,5c0,0,0,0,0,0C60.3,36.3,61.6,37.6,63.2,37.6z"/>
	<path d="M87.5,78c-5.4-3.4-22.3-7.8-25.8-8.7c7.5-5.9,12.2-16,12.2-26.3c0-16.5-11.8-29.9-26.3-29.9c-14.5,0-26.3,13.4-26.3,29.9
		c0,10.4,4.8,20.7,12.4,26.5c-4.7,1.2-20,5.3-25.1,8.5C2.2,82,1.1,91.9,1,92.4c-0.1,1.1,0.7,2.1,1.8,2.2c0.1,0,0.1,0,0.2,0
		c1,0,1.9-0.8,2-1.8c0-0.1,1-8.4,5.8-11.5c4.2-2.6,17.8-6.4,24.1-8c1.9,5.3,6.9,9,12.9,9c0,0,0,0,0,0c6,0,11-3.8,12.9-9.2
		c5.9,1.5,20.4,5.5,24.7,8.2c4.8,3,5.8,11.3,5.8,11.5c0.1,1,1,1.8,2,1.8c0.1,0,0.1,0,0.2,0c1.1-0.1,1.9-1.1,1.8-2.2
		C95.1,91.9,94,82,87.5,78z M57.4,68.5v0.2c0,5.3-4.3,9.7-9.7,9.7c0,0,0,0,0,0c-5.3,0-9.7-4.3-9.7-9.7c0-0.7-0.3-1.3-0.9-1.7
		C30,62.1,25.3,52.7,25.3,43c0-14.3,10-25.9,22.3-25.9c12.3,0,22.3,11.6,22.3,25.9c0,9.5-4.6,18.9-11.6,23.8
		C57.7,67.2,57.4,67.8,57.4,68.5z"/>
	<path d="M41,39.7l-7.7,4.5c-1.1,0.7-1.5,2.1-0.9,3.2c0.4,0.8,1.2,1.2,2,1.2c0.4,0,0.8-0.1,1.2-0.3l7.7-4.5c1.1-0.7,1.5-2.1,0.9-3.2
		S42.2,39,41,39.7z"/>
	<path d="M61.4,44.1l-7.7-4.5c-1.1-0.7-2.6-0.3-3.2,0.9c-0.7,1.1-0.3,2.6,0.9,3.2l7.7,4.5c0.4,0.2,0.8,0.3,1.2,0.3
		c0.8,0,1.6-0.4,2-1.2C62.9,46.2,62.5,44.8,61.4,44.1z"/>
	<path d="M81.5,71.4c1.5,0.6,3.1,0.9,4.6,0.9c1.6,0,3.2-0.3,4.7-0.9c6.2-2.6,9.1-9.7,6.5-15.9c-1.1-2.7-3.1-4.8-5.6-6.1l0-30
		c-0.1-1.5-0.7-2.9-1.8-3.9c-1.1-1-2.5-1.5-4-1.4c-2.9,0.1-5.2,2.4-5.3,5.4v29.9c-2.6,1.3-4.5,3.5-5.6,6.2c-1.2,3-1.2,6.3,0,9.3
		C76.2,67.8,78.5,70.2,81.5,71.4z M86,17c0,0,0.1,0,0.1,0c0.6,0,1.3,0.2,1.8,0.7c0.5,0.5,0.8,1.1,0.9,1.7V28h-5.2l0-8.5
		C83.6,18.2,84.7,17.1,86,17z M77.7,56.7c0.9-2.3,2.7-4,4.9-5l0.8-0.3v2.2c-3.7,1.5-5.4,5.8-3.9,9.5c1.5,3.7,5.8,5.4,9.5,3.9
		c3.7-1.5,5.4-5.8,3.9-9.5c-0.7-1.8-2.1-3.2-3.9-3.9l0,0v-2.2l0.7,0.3c2.2,0.9,4,2.7,4.9,4.9c1.9,4.7-0.3,10-4.9,12
		c-2.3,0.9-4.7,0.9-7,0c-2.3-0.9-4-2.7-5-4.9C76.8,61.4,76.8,58.9,77.7,56.7z"/>
</g>
</svg>
