<?xml version="1.0" encoding="utf-8"?>
<!-- Generator: Adobe Illustrator 24.2.3, SVG Export Plug-In . SVG Version: 6.00 Build 0)  -->
<svg version="1.1" id="Layer_1" xmlns="http://www.w3.org/2000/svg" xmlns:xlink="http://www.w3.org/1999/xlink" x="0px" y="0px"
	 viewBox="0 0 100 100" style="enable-background:new 0 0 100 100;" xml:space="preserve">
<path d="M99.8,92.4c0-0.4-1.3-11-8.1-15.3C86.3,73.7,70,69.3,65,68c0-0.2,0.1-0.4,0.1-0.6c8.4-6.3,13.8-17.7,13.8-29.2
	C78.9,20.1,65.9,5.4,50,5.4c-15.9,0-28.8,14.7-28.8,32.8c0,11.7,5.5,23.1,14.1,29.4c0,0.1,0,0.2,0,0.3c-4.7,1.2-21.5,5.7-27.1,9.1
	c-6.8,4.3-8.1,14.9-8.1,15.3c-0.1,1.1,0.7,2.1,1.8,2.2c0.1,0,0.2,0,0.2,0c1,0,1.9-0.8,2-1.8c0-0.1,1.1-9.1,6.3-12.4
	c4.9-3.1,21.2-7.4,25.8-8.6c2.1,5.6,7.6,9.6,13.9,9.6c6.3,0,11.7-4,13.9-9.5c5,1.3,20.7,5.5,25.5,8.5c5.2,3.3,6.3,12.3,6.3,12.4
	c0.1,1,1,1.8,2,1.8c0.1,0,0.1,0,0.2,0C99.1,94.4,99.9,93.5,99.8,92.4z M50.2,77.4c-6,0-10.9-4.9-10.9-10.9c0-0.7-0.3-1.3-0.9-1.7
	c-8-5.5-13.2-15.9-13.2-26.7C25.2,22.3,36.4,9.4,50,9.4c13.7,0,24.8,12.9,24.8,28.8c0,10.6-5.1,21-12.9,26.5c-0.5,0.4-0.9,1-0.9,1.6
	v0.2C61.1,72.6,56.2,77.4,50.2,77.4z"/>
<circle cx="38.9" cy="22.5" r="1.9"/>
<circle cx="54" cy="32.1" r="1.9"/>
<circle cx="56.5" cy="26.1" r="1.9"/>
<circle cx="36.7" cy="36.6" r="1.9"/>
<circle cx="51.9" cy="18" r="1.9"/>
<circle cx="45.5" cy="28.2" r="1.9"/>
<circle cx="67.1" cy="31.4" r="1.9"/>
<circle cx="64.4" cy="22.6" r="1.9"/>
<circle cx="45.8" cy="43.5" r="1.9"/>
<circle cx="64.2" cy="43.3" r="1.9"/>
<circle cx="55.3" cy="44.5" r="1.9"/>
<circle cx="35.4" cy="53" r="1.9"/>
<circle cx="43.3" cy="13.4" r="1.9"/>
<circle cx="30.1" cy="29.5" r="1.9"/>
</svg>
