<?xml version="1.0" encoding="utf-8"?>
<!-- Generator: Adobe Illustrator 24.0.0, SVG Export Plug-In . SVG Version: 6.00 Build 0)  -->
<svg version="1.1" id="Layer_1" xmlns="http://www.w3.org/2000/svg" xmlns:xlink="http://www.w3.org/1999/xlink" x="0px" y="0px"
	 viewBox="0 0 100 100" style="enable-background:new 0 0 100 100;" xml:space="preserve">
<g>
	<path d="M69.4,29.1c0-4.3-5.8-14-8.7-18.6c-0.1-0.2-0.3-0.4-0.6-0.6c-0.9-0.6-2.2-0.4-2.8,0.6c-2.9,4.6-8.7,14.3-8.7,18.6
		c0,5.7,4.7,10.4,10.4,10.4C64.8,39.5,69.4,34.8,69.4,29.1z"/>
	<path d="M39.3,40.6c-0.9-0.6-2.2-0.3-2.8,0.6c-2.9,4.6-8.7,14.3-8.7,18.6c0.2,5.5,4.6,9.9,10.1,10.1c5.7,0.2,10.5-4.3,10.7-10.1
		c0-4.3-5.8-13.9-8.7-18.6C39.8,40.9,39.6,40.7,39.3,40.6z"/>
	<path d="M71.7,59c-0.2-0.4-0.5-0.7-0.9-0.9c-1.3-0.8-2.9-0.4-3.7,0.9C64,63.9,59,72.5,59,76.5c0,0,0,0,0,0
		c0,5.7,4.7,10.4,10.4,10.4c5.7,0,10.4-4.7,10.4-10.4C79.8,72.5,74.7,63.9,71.7,59z"/>
</g>
</svg>
