<?xml version="1.0" encoding="utf-8"?>
<!-- Generator: Adobe Illustrator 24.0.0, SVG Export Plug-In . SVG Version: 6.00 Build 0)  -->
<svg version="1.1" id="Layer_1" xmlns="http://www.w3.org/2000/svg" xmlns:xlink="http://www.w3.org/1999/xlink" x="0px" y="0px"
	 viewBox="0 0 100 100" style="enable-background:new 0 0 100 100;" xml:space="preserve">
<g>
	<path d="M79.2,50.6c-10,15.9-49,15.9-56.4-1.5c-2.9,2.5-5.8,4.3-7.9,6.8C4.3,68.3,21.2,78.1,31.4,81c12.7,3.8,40.7,4.1,52.7-7.4
		C91.7,66.4,88.8,53.6,79.2,50.6z"/>
	<path d="M30.8,53.2c10.2,7.3,28.8,7.4,39.6,1c5.5-3.3,6.1-8.9,3-13c-2-2.4-4.7-4.1-7.7-4.8c-0.3-0.1-0.6-0.1-0.8,0
		c-0.4,0.2-0.7,0.5-0.8,0.9c-2.7,5-7.9,8.3-13.6,8.6c-1,0-1.9-0.2-2.8-0.6c-2.8-1.8,0-3.2,2.3-3.8c5.2-1.2,8.4-3.5,9.9-6.3
		c0.1-0.2,0.2-0.5,0.3-0.7c3.3-7.7-0.3-16.6-8-19.8l0-0.1c-0.6,8.9-6.5,13.4-13.3,17c-2.2,1.2-4.4,2.6-6.4,4.2
		c-1.3,1-2.5,2.2-3.5,3.5C25.3,43.9,26,49.8,30.8,53.2z"/>
</g>
</svg>
