<?xml version="1.0" encoding="utf-8"?>
<!-- Generator: Adobe Illustrator 24.0.0, SVG Export Plug-In . SVG Version: 6.00 Build 0)  -->
<svg version="1.1" id="Layer_1" xmlns="http://www.w3.org/2000/svg" xmlns:xlink="http://www.w3.org/1999/xlink" x="0px" y="0px"
	 viewBox="0 0 100 100" style="enable-background:new 0 0 100 100;" xml:space="preserve">
<g>
	<path d="M54.8,41.5c0.1,0,0.3,0,0.4,0c3.2,0,6.3-1.2,8.7-3.4c2.5-2.3,3.9-5.4,4-8.9c0-4.5-4.9-13.3-9.1-19.8
		c-0.3-0.5-0.7-0.9-1.2-1.2c-2-1.3-4.6-0.7-5.9,1.3c-6,9.5-9.1,16.2-9.1,19.8l0,0.1C42.8,35.9,48.1,41.3,54.8,41.5z M55.2,12.2
		c5,8,8.1,14.5,8.1,16.9c-0.1,2.2-1,4.2-2.6,5.7c-1.6,1.5-3.7,2.3-5.8,2.2c-4.3-0.1-7.7-3.6-7.9-7.9C47.1,26.6,50.2,20.1,55.2,12.2z
		"/>
	<path d="M36.7,38.8c-1-0.6-2.1-0.8-3.2-0.6c-1.1,0.2-2.1,0.9-2.7,1.9c-3.4,5.3-9.1,14.9-9.1,19.8h0c0,7,5.7,12.6,12.6,12.6
		c0,0,0,0,0,0c7,0,12.6-5.7,12.6-12.6C47,56.2,44,49.6,38,40C37.6,39.5,37.2,39.1,36.7,38.8z M40.2,65.6c-1.5,1.5-3.6,2.4-5.8,2.4
		c0,0,0,0,0,0c-4.5,0-8.1-3.7-8.1-8.1h0c0-2.5,3.3-9.4,8.1-17c5.1,8.1,8.2,14.5,8.2,17C42.5,62,41.7,64.1,40.2,65.6z"/>
	<path d="M69.8,57.9c-0.4-0.6-1-1.2-1.6-1.6c-1.1-0.7-2.5-0.9-3.7-0.6c-1.3,0.3-2.4,1.1-3.1,2.2C57.5,64,53,72.2,53,76.7h2.3l-2.2,0
		c0,7,5.7,12.6,12.6,12.6c0,0,0,0,0,0c7,0,12.6-5.7,12.6-12.6C78.2,73.2,75.5,67.1,69.8,57.9z M65.6,84.8
		C65.6,84.8,65.6,84.8,65.6,84.8c-4.5,0-8.1-3.7-8.1-8.1h0c0-2.5,3-8.9,7.8-16.4c0.1-0.1,0.2-0.2,0.3-0.2c0.1,0,0.2,0,0.3,0.1
		c0.1,0,0.1,0.1,0.1,0.1c7,11.4,7.8,15.3,7.8,16.4C73.7,81.1,70.1,84.8,65.6,84.8z"/>
</g>
</svg>
