<?xml version="1.0" encoding="utf-8"?>
<!-- Generator: Adobe Illustrator 24.0.0, SVG Export Plug-In . SVG Version: 6.00 Build 0)  -->
<svg version="1.1" id="Layer_1" xmlns="http://www.w3.org/2000/svg" xmlns:xlink="http://www.w3.org/1999/xlink" x="0px" y="0px"
	 viewBox="0 0 100 100" style="enable-background:new 0 0 100 100;" xml:space="preserve">
<g>
	<path d="M39.6,39.9c-0.8-0.8-2-0.8-2.8-0.1c-1,0.9-2.1,1.6-3.4,2c-1.2,0.3-2.4,0.2-3.5-0.1c-1-0.4-2.2,0.2-2.5,1.2s0.2,2.2,1.2,2.5
		c1.1,0.4,2.2,0.5,3.3,0.5c0.9,0,1.7-0.1,2.6-0.3l0.1,0c1.8-0.6,3.5-1.6,4.9-2.9C40.3,42,40.4,40.7,39.6,39.9z"/>
	<path d="M52.9,34.8c-0.9,0.9-2.1,1.6-3.3,2c-1.2,0.3-2.4,0.2-3.5-0.1c-1-0.4-2.2,0.2-2.5,1.3c-0.4,1,0.2,2.2,1.3,2.5
		c1.1,0.4,2.2,0.5,3.3,0.5c0.9,0,1.7-0.1,2.6-0.3l0.1,0c1.8-0.6,3.5-1.6,4.9-2.9c0.8-0.8,0.8-2,0.1-2.8C55,34.1,53.7,34,52.9,34.8z"
		/>
	<path d="M45.5,50.2c-4.7,1.3-7.4,5.6-6.3,9.7c0.4,1.4,1.2,2.5,2.3,3.1c0.8,0.5,1.8,0.7,3,0.7c1.3,0,2.7-0.3,4.5-0.8
		c2.1-0.6,8.4-2.4,6.8-7.8C54.8,51.1,50.1,48.9,45.5,50.2z M48.3,60c-2.6,0.7-4.4,0.9-5.3,0.3c-0.3-0.2-0.7-0.5-0.9-1.3
		c-0.7-2.4,1.2-5.1,4.2-6c0.6-0.2,1.3-0.3,1.9-0.3c2.3,0,4.3,1.2,4.9,3.2C53.3,56.8,53.8,58.4,48.3,60z"/>
	<path d="M97.9,93.4c0-0.4-1.2-10.5-7.8-14.7c-5.2-3.3-21-7.5-25.7-8.7c0.2-1.6,0.1-3.2-0.3-4.8c5.8-7.8,7.8-19.3,4.9-29.5
		c0,0,0,0,0,0c-4.7-16.1-20-25.9-34.2-21.9c-14.2,4-22,20.5-17.4,36.7c2.5,8.5,8.2,16,15.2,20.3c-6.4,1.7-18.6,5.2-23.1,8
		C3,82.9,1.8,93,1.8,93.4c-0.1,1.1,0.7,2.1,1.8,2.2c0.1,0,0.2,0,0.2,0c1,0,1.9-0.8,2-1.8c0-0.1,1-8.6,5.9-11.7
		c4.5-2.9,20.2-7.1,25.8-8.5c0,0,0,0,0,0c2.1,5.4,7.3,8.9,13,8.9c1.1,0,2.3-0.1,3.4-0.4c3.6-0.9,6.6-3.2,8.5-6.4
		c0.3-0.6,0.6-1.2,0.9-1.8c6.4,1.6,20.3,5.5,24.5,8.2c4.9,3.1,5.9,11.7,6,11.7c0.1,1,1,1.8,2,1.8c0.1,0,0.1,0,0.2,0
		C97.2,95.5,98,94.5,97.9,93.4z M59.1,73.7c-1.4,2.3-3.5,3.9-6.1,4.5c-5.3,1.3-10.7-1.9-12-7.2c-0.2-0.7-0.7-1.2-1.3-1.4
		C31.2,66.8,24,58.9,21.2,49.4c-4-14.1,2.6-28.3,14.6-31.7c1.8-0.5,3.6-0.8,5.4-0.8c10.3,0,20.4,8,23.8,19.9
		c2.7,9.4,0.8,19.9-4.8,26.7c-0.4,0.5-0.6,1.3-0.3,1.9c0,0.1,0,0.1,0,0.2c0.1,0.2,0.1,0.4,0.2,0.6C60.8,68.7,60.4,71.4,59.1,73.7z"
		/>
	<path d="M73.8,29.7h6.7c0,0,0,0,0,0c0.7,0,1.2-0.5,1.2-1.2c0-0.7-0.5-1.2-1.2-1.2h-4.3l4.9-5.4c0.4-0.4,0.6-0.9,0.6-1.5v-0.1
		c0,0,0-0.1,0-0.1c-0.1-0.7-0.7-1.2-1.4-1.1h-6.5c-0.7,0-1.2,0.5-1.2,1.2v0c0,0.7,0.5,1.2,1.2,1.2h4.1L73,27
		c-0.4,0.4-0.7,0.9-0.7,1.5v0.1c0,0,0,0,0,0.1C72.4,29.3,73.1,29.8,73.8,29.7z"/>
	<path d="M85.6,17.4h6.7h0c0.7,0,1.2-0.5,1.2-1.2c0-0.7-0.5-1.2-1.2-1.2h-4.3l4.8-5.4c0.4-0.4,0.7-0.9,0.7-1.5v0c0,0,0-0.1,0-0.1
		c-0.1-0.7-0.7-1.2-1.4-1.1h-6.5c-0.7,0-1.2,0.5-1.2,1.2c0,0,0,0,0,0c0,0.7,0.6,1.2,1.2,1.2h4.1l-4.8,5.4c-0.4,0.4-0.7,0.9-0.7,1.4
		v0.1l0,0c0,0,0,0.1,0,0.1C84.3,17,84.9,17.5,85.6,17.4z"/>
</g>
</svg>
