<?xml version="1.0" encoding="utf-8"?>
<!-- Generator: Adobe Illustrator 24.0.0, SVG Export Plug-In . SVG Version: 6.00 Build 0)  -->
<svg version="1.1" id="Layer_1" xmlns="http://www.w3.org/2000/svg" xmlns:xlink="http://www.w3.org/1999/xlink" x="0px" y="0px"
	 viewBox="0 0 100 100" style="enable-background:new 0 0 100 100;" xml:space="preserve">
<g>
	<path d="M64.2,42.4c-0.3-1.1-1.4-1.7-2.5-1.3l-9.9,3l8.7,6.9c0.4,0.3,0.8,0.4,1.2,0.4c0.6,0,1.2-0.3,1.6-0.8
		c0.7-0.9,0.5-2.1-0.3-2.8l-2.7-2.2l2.6-0.8C63.9,44.6,64.5,43.4,64.2,42.4z"/>
	<path d="M37.9,41c-1.1-0.3-2.2,0.3-2.5,1.3c-0.3,1.1,0.3,2.2,1.3,2.5l2.6,0.8l-2.7,2.2c-0.9,0.7-1,1.9-0.3,2.8
		c0.4,0.5,1,0.8,1.6,0.8c0.4,0,0.9-0.1,1.2-0.4l8.7-6.9L37.9,41z"/>
	<path d="M88.3,78.6c-4.9-3.1-19.7-7.1-24.6-8.3c0-0.1,0-0.3,0-0.4c7.8-5.9,12.8-16.4,12.8-27c0-16.8-12-30.4-26.8-30.4
		C35,12.4,23,26.1,23,42.9c0,10.8,5.1,21.3,13,27.2c0,0,0,0.1,0,0.1c-4.5,1.2-19.8,5.2-24.9,8.4C9.3,79.8,6.6,83,3.9,97.7
		c-1.4,7.8-2.2,15.2-2.2,15.3c-0.1,1.1,0.7,2.1,1.8,2.2c0.1,0,0.1,0,0.2,0c1,0,1.9-0.8,2-1.8c1.4-13.6,4.7-29.5,7.6-31.4
		c4.1-2.6,17.4-6.3,23.6-7.9c0.7,1.7,1.7,3.3,3,4.6c-0.1,0-0.2,0-0.3,0c-1.2,0.3-2.2,0.9-3,1.8l-5.9,6.8c-0.6,0.7-1.2,1.5-1.8,2.3
		c-3.8,5.8-3.1,13.5,1.7,18.5c0.6,0.6,1.2,1.2,1.8,1.7c5.7,5,14.4,4.3,19.4-1.4c0,0,0-0.1,0.1-0.1l13.6-15.9c1.8-2.1,1.8-5.2,0-7.3
		c0.4-0.9,0.6-1.9,0.6-2.9c-0.1-1.5-0.8-2.9-1.9-3.9l-1.2,1.3v0l1.1-1.3c-0.4-0.3-0.8-0.6-1.2-0.8c-0.2-0.7-0.5-1.4-0.9-2
		c0.3-0.5,0.5-1,0.7-1.5c6.4,1.6,19.3,5.3,23.4,7.8c3,1.9,6.1,17.8,7.2,31.4c0.1,1,1,1.8,2,1.8c0.1,0,0.1,0,0.2,0
		c1.1-0.1,1.9-1.1,1.8-2.2c0-0.1-0.7-7.5-2-15.3C92.9,83,90.2,79.8,88.3,78.6z M61.8,83.8C61.8,83.8,61.8,83.8,61.8,83.8l-9.4,10.9
		c-0.3,0.3-0.2,0.7,0,1c0,0,0,0,0,0c0.2,0.1,0.4,0.2,0.6,0.2c0.1,0,0.3-0.1,0.4-0.2l6.6-7.7c0.2-0.3,0.6-0.5,0.9-0.6
		c0.9-0.2,1.8,0.3,2,1.1c0.1,0.5,0,1.1-0.4,1.5l-13.7,15.9c-3.5,4.1-9.6,4.5-13.7,1c0,0,0,0,0,0c-0.5-0.4-1-0.9-1.5-1.4
		c-3.5-3.7-4-9.3-1.2-13.6c0.4-0.7,0.9-1.3,1.4-1.9l5.9-6.8c0.2-0.3,0.6-0.5,0.9-0.6c0.9-0.2,1.7,0.3,2,1.2c0.1,0.5,0,1.1-0.4,1.5
		l-3.1,3.6c-0.2,0.3-0.2,0.6,0,0.9c0.2,0.2,0.4,0.2,0.6,0.2c0.1,0,0.3-0.1,0.3-0.2l11.8-13.7c0.2-0.3,0.5-0.4,0.9-0.5
		c0.9-0.2,1.8,0.4,2.1,1.3c0.1,0.5,0,1-0.3,1.4l-9,10.4c-0.2,0.3-0.2,0.7,0.1,1c0,0,0.1,0.1,0.1,0.1c0.1,0.1,0.3,0.1,0.5,0
		c0.2,0,0.3-0.1,0.4-0.2l9.8-11.5c0.2-0.3,0.5-0.4,0.8-0.5c0.6-0.2,1.2,0.1,1.6,0.5c0.4,0.6,0.4,1.4-0.1,2l-9.5,11.3
		c-0.3,0.3-0.2,0.7,0.1,1c0,0,0,0,0,0c0.2,0.1,0.4,0.2,0.6,0.1c0.1,0,0.3-0.1,0.3-0.2l9-10.5c0.2-0.3,0.5-0.5,0.9-0.5
		c0.5-0.1,1.1,0,1.5,0.4C62.3,82.1,62.4,83.1,61.8,83.8z M60.6,67.2c-0.5,0.4-0.9,1-0.9,1.6v0.2c0,1.5-0.4,3-1,4.4
		c-0.4-0.1-0.9-0.1-1.4-0.1c-0.2-0.2-0.3-0.3-0.5-0.5c-1.4-1.2-3.3-1.6-5.1-1.2h0c-1.1,0.3-2.2,0.9-2.9,1.8l-3.6,4.3
		C42,76,40,72.7,40,69c0-0.7-0.3-1.3-0.9-1.7C31.8,62.4,27,52.8,27,42.9c0-14.6,10.2-26.4,22.8-26.4c12.5,0,22.8,11.9,22.8,26.4
		C72.5,52.6,67.8,62.2,60.6,67.2z"/>
	<path d="M50.1,56.3L50.1,56.3c-4.1,0-6.8,3.8-7.9,5.9c-0.2,0.3-0.1,0.7,0.2,0.8c0.1,0.1,0.2,0.1,0.3,0.1c0.1,0,0.1,0,0.2,0
		c0.7-0.2,1.3-0.3,2-0.2c1.6,0,3.5,0.3,5.2,0.3c1.7,0,3.7-0.3,5.2-0.3c0.7,0,1.3,0.1,2,0.2c0.3,0.1,0.7-0.1,0.8-0.5
		c0-0.1,0-0.3,0-0.4C56.9,60.1,54.2,56.3,50.1,56.3z M50.1,60.1c-0.7,0-1.5-0.1-2.2-0.1c0.6-0.5,1.4-0.7,2.1-0.8
		c0.8,0,1.6,0.3,2.3,0.7C51.5,60,50.8,60.1,50.1,60.1z"/>
	<path d="M76,59c0.2,0.9,1,1.5,1.9,1.5c0.2,0,0.4,0,0.5-0.1l6.8-1.8c1.1-0.3,1.7-1.4,1.4-2.5s-1.4-1.7-2.5-1.4l-6.8,1.8
		C76.4,56.9,75.7,58,76,59z"/>
	<path d="M87.5,66c0.1-1.1-0.7-2.1-1.8-2.2l-7-0.6c-1.1-0.1-2.1,0.7-2.2,1.8s0.7,2.1,1.8,2.2l7,0.6c0.1,0,0.1,0,0.2,0
		C86.6,67.8,87.4,67,87.5,66z"/>
	<path d="M87,50.2c0.1,0,0.3-0.1,0.5-0.1c0.7-0.1,1.4,0.1,1.9,0.6c0.5,0.4,0.9,1.1,0.9,1.8c0,0.2,0,0.4,0,0.6l-0.2,1.6l1.5,0.6
		c1.2,0.4,2.2,1.3,2.8,2.4c1.6,2.6,0.7,6.1-1.9,7.7l-1.4,0.8l0.5,1.5c0.1,0.2,0.1,0.4,0.1,0.6c0.1,0.7-0.1,1.4-0.6,1.9
		c-0.4,0.5-1.1,0.9-1.8,0.9c-0.2,0-0.3,0-0.5,0c-1.1-0.1-2.1,0.7-2.2,1.8s0.7,2.1,1.8,2.2c0.2,0,0.4,0,0.7,0c0.2,0,0.4,0,0.6,0
		c1.7-0.2,3.3-1,4.5-2.3s1.7-3.1,1.5-4.8l0-0.1c0,0,0,0,0,0c3.6-3,4.5-8.2,2.1-12.3c-0.9-1.4-2.1-2.6-3.6-3.4c0,0,0,0,0,0
		c-0.2-1.7-1-3.3-2.3-4.5c-1.3-1.1-3.1-1.7-4.8-1.5c-0.5,0-0.9,0.1-1.3,0.3c-1.1,0.3-1.6,1.5-1.3,2.5C84.9,50,86,50.6,87,50.2z"/>
	<path d="M11.2,73.2c0,1.1,0.9,2,2,2s2-0.9,2-2c0-3.3,2.7-6,6-6c1.1,0,2-0.9,2-2s-0.9-2-2-2C15.7,63.2,11.2,67.7,11.2,73.2z"/>
	<path d="M5.9,74.1c1.1,0,2-0.9,2-2c0-7.1,5.7-12.8,12.8-12.8c1.1,0,2-0.9,2-2s-0.9-2-2-2c0,0,0,0,0,0c-9.3,0-16.8,7.5-16.8,16.8
		C3.9,73.2,4.8,74.1,5.9,74.1z"/>
</g>
</svg>
