<?xml version="1.0" encoding="utf-8"?>
<!-- Generator: Adobe Illustrator 24.2.3, SVG Export Plug-In . SVG Version: 6.00 Build 0)  -->
<svg version="1.1" id="Layer_1" xmlns="http://www.w3.org/2000/svg" xmlns:xlink="http://www.w3.org/1999/xlink" x="0px" y="0px"
	 viewBox="0 0 100 100" style="enable-background:new 0 0 100 100;" xml:space="preserve">
<g>
	<path d="M50.8,38.8c-22.9,0-41.5,11.7-41.5,26s18.6,26,41.5,26c22.9,0,41.5-11.7,41.5-26S73.7,38.8,50.8,38.8z M50.8,86.8
		c-20.7,0-37.5-9.9-37.5-22s16.8-22,37.5-22s37.5,9.9,37.5,22S71.5,86.8,50.8,86.8z"/>
	<path d="M54.4,50.7c-1.2,0-2.5,0.2-3.6,0.5c-1.2-0.3-2.4-0.5-3.6-0.5c-8.2,0-14.8,6.6-14.8,14.8S39,80.2,47.2,80.2
		c1.2,0,2.5-0.2,3.6-0.5c1.2,0.3,2.4,0.5,3.6,0.5c8.2,0,14.8-6.6,14.8-14.8S62.6,50.7,54.4,50.7z M50.8,75.6
		c-4.2-1.5-7.2-5.5-7.2-10.2s3-8.7,7.2-10.2C55,56.8,58,60.8,58,65.5S55,74.1,50.8,75.6z M36.4,65.5c0-4.7,3.1-8.8,7.3-10.2
		c-2.5,2.7-4.1,6.3-4.1,10.2s1.6,7.6,4.1,10.2C39.5,74.2,36.4,70.2,36.4,65.5z M57.9,75.7C60.4,73,62,69.4,62,65.5
		s-1.6-7.6-4.1-10.2c4.3,1.4,7.3,5.5,7.3,10.2S62.1,74.2,57.9,75.7z"/>
	<path d="M50,29.3c1.1,0,2-0.9,2-2V13.5c0-1.1-0.9-2-2-2s-2,0.9-2,2v13.8C48,28.4,48.9,29.3,50,29.3z"/>
	<path d="M65.3,31.9c0.2,0.1,0.4,0.1,0.7,0.1c0.8,0,1.6-0.5,1.9-1.4l4.5-13.1c0.4-1-0.2-2.2-1.2-2.5c-1-0.4-2.2,0.2-2.5,1.2L64,29.3
		C63.7,30.4,64.2,31.5,65.3,31.9z"/>
	<path d="M79.1,37c0.4,0.3,0.8,0.4,1.2,0.4c0.6,0,1.2-0.3,1.6-0.8l8.5-10.9c0.7-0.9,0.5-2.1-0.3-2.8c-0.9-0.7-2.1-0.5-2.8,0.3
		l-8.5,10.9C78.1,35,78.2,36.3,79.1,37z"/>
	<path d="M18.9,38.3c0.4,0.5,1,0.8,1.6,0.8c0.4,0,0.9-0.1,1.2-0.4c0.9-0.7,1-1.9,0.3-2.8l-8.5-10.9c-0.7-0.9-1.9-1-2.8-0.3
		c-0.9,0.7-1,1.9-0.3,2.8L18.9,38.3z"/>
	<path d="M33,30.6c0.3,0.8,1.1,1.3,1.9,1.3c0.2,0,0.4,0,0.7-0.1c1-0.4,1.6-1.5,1.2-2.5l-4.5-13.1c-0.4-1-1.5-1.6-2.5-1.2
		c-1,0.4-1.6,1.5-1.2,2.5L33,30.6z"/>
	<path d="M50.8,59.2c-3.1,0-5.6,2.5-5.6,5.6c0,3.1,2.5,5.6,5.6,5.6c3.1,0,5.6-2.5,5.6-5.6C56.4,61.7,53.9,59.2,50.8,59.2z"/>
</g>
</svg>
