<?xml version="1.0" encoding="utf-8"?>
<!-- Generator: Adobe Illustrator 24.2.3, SVG Export Plug-In . SVG Version: 6.00 Build 0)  -->
<svg version="1.1" id="Layer_1" xmlns="http://www.w3.org/2000/svg" xmlns:xlink="http://www.w3.org/1999/xlink" x="0px" y="0px"
	 viewBox="0 0 100 100" style="enable-background:new 0 0 100 100;" xml:space="preserve">
<g>
	<path d="M86.1,63.3v-0.4c0-2.9-2.3-5.3-5.1-5.5v-10c0-3.3-2-6.1-4.8-7.3l1.2-1.4c5.5-6.6,5.5-16.2,0-22.8
		c-4.6-5.6-12.9-6.3-18.4-1.7c-0.6,0.5-1.2,1.1-1.7,1.7l-3.7,4.2l-3.7-4.2c-4.6-5.6-12.9-6.3-18.4-1.7c-0.6,0.5-1.2,1.1-1.7,1.7
		c-5.6,6.6-5.6,16.2,0,22.8l3.1,3.5c-0.9-0.1-1.9-0.2-2.8-0.2C18.6,42,9.5,51.1,9.5,62.3s9.1,20.3,20.3,20.3s20.3-9.1,20.3-20.3
		c0-0.1,0-0.2,0-0.3l3.3,3.8l19.7-22.4c2.1,0.1,3.8,1.8,3.8,4v10c-2.9,0.2-5.2,2.6-5.2,5.5v0.4c-2.8,3-4.4,7.5-4.4,12.4
		c0,8.9,5.1,15.8,11.5,15.8c6.5,0,11.5-6.9,11.5-15.8C90.5,70.8,88.8,66.2,86.1,63.3z M29.8,78.6c-9,0-16.3-7.3-16.3-16.3
		S20.8,46,29.8,46s16.3,7.3,16.3,16.3S38.8,78.6,29.8,78.6z M78.9,87.5c-4.1,0-7.5-5.4-7.5-11.8c0-4.2,1.4-8,3.7-10.1l0.6-0.6v-2.1
		c0-0.8,0.7-1.5,1.5-1.5h3.4c0.8,0,1.5,0.7,1.5,1.5V65l0.6,0.6c2.3,2.2,3.7,6,3.7,10.1C86.5,82.1,83,87.5,78.9,87.5z"/>
	<path d="M29.8,48.6c-7.6,0-13.7,6.2-13.7,13.7c0,1.1,0.9,2,2,2s2-0.9,2-2c0-1.1,0.2-2.2,0.5-3.2l5.6,3.9c0.3,1.6,1.8,2.8,3.5,2.8
		c2,0,3.6-1.6,3.6-3.6c0-2-1.6-3.6-3.6-3.6c-0.8,0-1.5,0.3-2.1,0.7l-6.9-0.8c1.4-3.5,4.9-6,9-6c5.4,0,9.7,4.4,9.7,9.7
		c0,1.1,0.9,2,2,2s2-0.9,2-2C43.5,54.7,37.4,48.6,29.8,48.6z"/>
</g>
</svg>
