<?xml version="1.0" encoding="utf-8"?>
<!-- Generator: Adobe Illustrator 24.0.0, SVG Export Plug-In . SVG Version: 6.00 Build 0)  -->
<svg version="1.1" id="Layer_1" xmlns="http://www.w3.org/2000/svg" xmlns:xlink="http://www.w3.org/1999/xlink" x="0px" y="0px"
	 viewBox="0 0 100 100" style="enable-background:new 0 0 100 100;" xml:space="preserve">
<g>
	<path d="M62,51.3c0.6,0,1.2-0.3,1.6-0.8c0.7-0.9,0.5-2.1-0.3-2.8l-2.7-2.2l2.6-0.8c1.1-0.3,1.7-1.4,1.3-2.5
		c-0.3-1.1-1.4-1.7-2.5-1.3l-9.9,3l8.7,6.9C61.1,51.2,61.6,51.3,62,51.3z"/>
	<path d="M38.2,41c-1.1-0.3-2.2,0.3-2.5,1.3c-0.3,1.1,0.3,2.2,1.3,2.5l2.6,0.8l-2.7,2.2c-0.9,0.7-1,1.9-0.3,2.8
		c0.4,0.5,1,0.8,1.6,0.8c0.4,0,0.9-0.1,1.2-0.4l8.7-6.9L38.2,41z"/>
	<path d="M88.6,78.5c-4.9-3.2-19.8-7.1-24.6-8.3c0-0.1,0-0.2,0-0.3c7.8-5.9,12.8-16.4,12.8-27c0-16.8-12-30.4-26.8-30.4
		c-14.7,0-26.7,13.6-26.7,30.4c0,10.8,5.1,21.4,13.1,27.2c0,0,0,0.1,0,0.1c-4.4,1.1-19.8,5.2-24.9,8.4c-1.8,1.2-4.6,4.4-7.3,19.1
		c-1.4,7.8-2.2,15.2-2.2,15.3c-0.1,1.1,0.7,2.1,1.8,2.2c0.1,0,0.1,0,0.2,0c1,0,1.9-0.8,2-1.8c1.4-13.6,4.7-29.5,7.6-31.4
		c4.1-2.6,17.8-6.4,23.9-8c0.8,1.7,1.9,3.3,3.2,4.7c-0.3,0-0.5,0.1-0.8,0.1c-1.2,0.3-2.2,0.9-3,1.8L31,87.4
		c-0.6,0.7-1.2,1.5-1.8,2.3c-3.8,5.8-3.1,13.5,1.7,18.5c0.6,0.6,1.2,1.2,1.8,1.7c3.4,2.9,8,4,12.3,2.9c2.8-0.7,5.2-2.2,7.1-4.4
		l13.7-16c1.8-2.1,1.8-5.2,0-7.3c0.4-0.9,0.6-1.9,0.6-2.9c-0.1-1.5-0.8-2.9-2-3.9l0,0c-0.4-0.3-0.8-0.6-1.2-0.8
		c-0.2-0.7-0.5-1.4-0.9-2c0.3-0.5,0.5-1,0.7-1.5c6.4,1.6,19.4,5.3,23.4,7.8c3,1.9,6.1,17.8,7.2,31.4c0.1,1,1,1.8,2,1.8
		c0.1,0,0.1,0,0.2,0c1.1-0.1,1.9-1.1,1.8-2.2c0-0.1-0.7-7.5-2-15.3C93.1,83,90.4,79.7,88.6,78.5z M39.4,67.3
		c-7.4-5-12.1-14.6-12.1-24.5c0-14.6,10.2-26.4,22.7-26.4c12.6,0,22.8,11.8,22.8,26.4c0,9.8-4.7,19.3-11.9,24.4
		c-0.5,0.4-0.9,1-0.9,1.6V69c0,1.5-0.4,3.1-1,4.4c-0.4-0.1-0.9-0.1-1.3-0.1c-0.2-0.2-0.3-0.3-0.5-0.5c-1.4-1.2-3.3-1.7-5.1-1.2h0
		c-1.1,0.3-2.2,0.9-2.9,1.8l-3.6,4.2c-2.7-1.9-5.2-5.3-5.2-8.6C40.3,68.3,39.9,67.7,39.4,67.3z M52.6,95.6
		C52.7,95.6,52.7,95.6,52.6,95.6c0.2,0.2,0.4,0.2,0.7,0.2c0.1,0,0.3-0.1,0.4-0.2l6.6-7.7c0.2-0.3,0.5-0.5,0.9-0.6
		c0.4-0.1,0.8-0.1,1.2,0.1c0.8,0.4,1.1,1.4,0.6,2.2c-0.1,0.1-0.1,0.2-0.2,0.3l-13.7,15.9c-3.5,4.1-9.6,4.5-13.7,1c0,0,0,0,0,0
		c-0.5-0.4-1-0.9-1.5-1.4c-3.5-3.7-4-9.3-1.2-13.6c0.4-0.7,0.9-1.3,1.4-1.9l5.9-6.8c0.2-0.3,0.5-0.5,0.9-0.6
		c0.4-0.1,0.8-0.1,1.2,0.1c0.8,0.4,1.1,1.4,0.6,2.2c-0.1,0.1-0.1,0.2-0.2,0.3l-3.1,3.6c-0.2,0.3-0.2,0.7,0.1,0.9
		c0.2,0.1,0.4,0.2,0.6,0.1c0.1,0,0.3-0.1,0.3-0.2L52.1,76c0.2-0.3,0.5-0.4,0.9-0.5h0c0.9-0.2,1.8,0.3,2.1,1.2c0.1,0.5,0,1-0.3,1.4
		l-9,10.4c-0.2,0.3-0.2,0.7,0.1,1c0,0,0.1,0.1,0.1,0.1c0.1,0,0.3,0,0.5,0c0.2,0,0.3-0.1,0.4-0.2l9.8-11.6c0.6-0.7,1.5-0.7,2.2-0.2
		c0.1,0.1,0.2,0.2,0.2,0.2c0.5,0.6,0.4,1.4-0.1,2l-9.6,11.3c-0.3,0.3-0.2,0.7,0,1c0,0,0,0,0,0c0.3,0.3,0.7,0.2,1-0.1c0,0,0,0,0,0
		l8.9-10.5c0.2-0.3,0.5-0.5,0.8-0.6c0.5-0.1,1.1,0,1.5,0.4c0.7,0.6,0.8,1.6,0.3,2.3c0,0,0,0.1-0.1,0.1l-9.4,10.9
		C52.4,94.9,52.4,95.4,52.6,95.6z"/>
	<path d="M50.4,63c1.7,0,3.7-0.3,5.2-0.3c0.7,0,1.3,0.1,2,0.2h0.2c0.3,0,0.6-0.3,0.6-0.6c0-0.1,0-0.2-0.1-0.3
		c-1.2-2.1-3.9-5.9-8-5.9h-0.1c-4,0-6.7,3.8-7.9,5.9c-0.2,0.3-0.1,0.7,0.2,0.8c0.1,0,0.2,0.1,0.3,0.1c0.1,0,0.1,0,0.2,0
		c0.7-0.2,1.3-0.3,2-0.2C46.7,62.8,48.7,63,50.4,63z M50.2,59.2c0.8,0,1.6,0.3,2.3,0.8C51.8,60,51,60,50.3,60c-0.7,0-1.5,0-2.2-0.1
		C48.7,59.4,49.5,59.2,50.2,59.2z"/>
	<path d="M79.2,60.4c0.2,0,0.4,0,0.5-0.1l6.8-1.8c1.1-0.3,1.7-1.4,1.4-2.5c-0.3-1.1-1.4-1.7-2.5-1.4l-6.8,1.8
		c-1.1,0.3-1.7,1.4-1.4,2.5C77.5,59.9,78.3,60.4,79.2,60.4z"/>
	<path d="M80,63.2c-1.1-0.1-2.1,0.7-2.2,1.8s0.7,2.1,1.8,2.2l7,0.6c0.1,0,0.1,0,0.2,0c1,0,1.9-0.8,2-1.8c0.1-1.1-0.7-2.1-1.8-2.2
		L80,63.2z"/>
	<path d="M99.1,55.5c-0.9-1.5-2.1-2.7-3.6-3.5c0,0,0,0,0,0c-0.3-3.6-3.5-6.3-7.2-5.9c-0.4,0-0.8,0.1-1.2,0.2
		c-1.1,0.3-1.7,1.4-1.4,2.5c0.3,1.1,1.4,1.7,2.5,1.4c0.2,0,0.3-0.1,0.5-0.1c1.4-0.1,2.7,0.9,2.8,2.4c0,0.2,0,0.4,0,0.6l-0.2,1.6
		l1.5,0.6c1.2,0.4,2.2,1.3,2.9,2.4c1.6,2.7,0.7,6.1-2,7.7l-1.4,0.9l0.6,1.6c0.1,0.2,0.1,0.4,0.1,0.5c0.1,1.4-0.9,2.7-2.4,2.8
		c-0.1,0-0.3,0-0.4,0c-1.1-0.1-2.1,0.7-2.2,1.8c-0.1,1.1,0.7,2.1,1.8,2.2c0.2,0,0.5,0,0.7,0c0.2,0,0.4,0,0.6,0
		c3.6-0.3,6.3-3.5,5.9-7.1C100.6,64.9,101.6,59.7,99.1,55.5z"/>
	<path d="M11.5,73.2c0,1.1,0.9,2,2,2s2-0.9,2-2c0-3.3,2.7-5.9,5.9-5.9c1.1,0,2-0.9,2-2s-0.9-2-2-2C16,63.2,11.5,67.6,11.5,73.2z"/>
	<path d="M6.1,74c1.1,0,2-0.9,2-2c0-7.1,5.7-12.8,12.8-12.8c1.1,0,2-0.9,2-2s-0.9-2-2-2c-9.3,0-16.8,7.5-16.8,16.8
		C4.1,73.1,5,74,6.1,74z"/>
</g>
</svg>
