<?xml version="1.0" encoding="utf-8"?>
<!-- Generator: Adobe Illustrator 24.0.0, SVG Export Plug-In . SVG Version: 6.00 Build 0)  -->
<svg version="1.1" id="Layer_1" xmlns="http://www.w3.org/2000/svg" xmlns:xlink="http://www.w3.org/1999/xlink" x="0px" y="0px"
	 viewBox="0 0 100 100" style="enable-background:new 0 0 100 100;" xml:space="preserve">
<g>
	<path d="M55.6,66.7c-0.6-0.3-1.3-0.3-2-0.1L50,67.9l4.4-5.6c0.7-0.9,0.5-2.1-0.3-2.8c-0.9-0.7-2.1-0.5-2.8,0.3l-7.7,9.7
		c-0.8,1.1-0.6,2.7,0.5,3.6c0.7,0.5,1.6,0.6,2.4,0.4l3.6-1.3l-4.4,5.6c-0.7,0.9-0.5,2.1,0.3,2.8c0.4,0.3,0.8,0.4,1.2,0.4
		c0.6,0,1.2-0.3,1.6-0.8l7.7-9.7c0.5-0.7,0.7-1.6,0.4-2.4C56.7,67.5,56.2,67,55.6,66.7z"/>
	<path d="M44.7,1.1c-1.1-0.2-2.1,0.5-2.4,1.5c0,0.1-1.5,6.5-5.7,8c-1.4,0.5-2.6,0.8-3.8,1.2c-3.3,0.9-6.1,1.7-10.4,5.2
		c-4.7,3.8-6.5,9.9-7.6,13.5c-0.3,0.9-0.5,1.6-0.7,2.1c-0.9,2.2-2,3.8-3.3,5.5c-0.9,1.3-1.9,2.6-2.6,4c-1.8,3.5-2.5,11.2-2.6,12.1
		c-0.1,1.1,0.7,2.1,1.8,2.2c0.1,0,0.1,0,0.2,0c1,0,1.9-0.8,2-1.8c0.2-2.1,0.9-8.2,2.1-10.6c0.6-1.2,1.4-2.3,2.3-3.5
		c1.3-1.8,2.7-3.8,3.8-6.4c0.3-0.7,0.5-1.5,0.8-2.5c1-3.4,2.5-8.5,6.2-11.5c3.6-2.9,5.9-3.6,9-4.4c1.2-0.3,2.5-0.7,4-1.2
		c6.4-2.2,8.2-10.6,8.3-10.9C46.4,2.4,45.7,1.4,44.7,1.1z"/>
	<path d="M25.9,40c-1.1,0.1-1.9,1-1.9,2c0,1.8-0.2,6.9-1.6,9.4c-2.2,3.9-8.2,6.7-8.3,6.8c-1,0.5-1.4,1.7-1,2.7c0.5,1,1.7,1.4,2.7,1
		c0.3-0.1,6.3-3,9.4-7.4c0.7,7,1.4,14.8,1.4,17.1c0,1.7-0.8,5-1.7,8.5c-1.3,5.2-2.9,11.6-3.1,17.1c0,1.1,0.8,2,1.9,2c0,0,0,0,0.1,0
		c1.1,0,2-0.9,2-2c0.1-5,1.7-11.3,2.9-16.2c1-4.1,1.8-7.3,1.8-9.5c0-4.5-2.6-28.7-2.7-29.7C27.9,40.7,27,39.9,25.9,40z"/>
	<path d="M91.8,42.3c-0.8-1.5-1.7-2.8-2.6-4c-1.3-1.7-2.4-3.3-3.3-5.6c-0.2-0.5-0.4-1.2-0.7-2.1c-1.1-3.6-2.8-9.7-7.6-13.5
		c-4.3-3.5-7.1-4.2-10.4-5.2c-1.2-0.3-2.4-0.7-3.8-1.2c-4.2-1.5-5.7-8-5.7-8c-0.2-1.1-1.3-1.8-2.4-1.5c-1.1,0.2-1.8,1.3-1.5,2.4
		c0.1,0.4,1.9,8.7,8.3,10.9c1.5,0.5,2.9,0.9,4,1.2c3.1,0.9,5.3,1.5,9,4.4c3.8,3.1,5.3,8.2,6.2,11.5c0.3,1,0.5,1.8,0.8,2.5
		c1.1,2.7,2.5,4.7,3.8,6.4c0.9,1.2,1.7,2.3,2.3,3.5c1.2,2.4,2,8.5,2.2,10.6c0.1,1,1,1.8,2,1.8c0.1,0,0.1,0,0.2,0
		c1.1-0.1,1.9-1.1,1.8-2.2C94.3,53.5,93.6,45.7,91.8,42.3z"/>
	<path d="M85.8,58.2c-0.1,0-6.1-2.9-8.3-6.7c-1.4-2.6-1.6-7.7-1.6-9.4c0-1.1-0.8-2-1.9-2c-1.1-0.1-2,0.7-2.1,1.8
		c-0.1,1-2.7,25.2-2.7,29.7c0,2.2,0.8,5.4,1.8,9.5c1.2,5,2.8,11.2,2.9,16.2c0,1.1,0.9,1.9,2,1.9c0,0,0,0,0.1,0c1.1,0,2-0.9,1.9-2
		c-0.1-5.5-1.8-11.9-3.1-17.1c-0.9-3.5-1.7-6.9-1.7-8.5c0-2.3,0.7-10.1,1.4-17.1c3.1,4.4,9.1,7.3,9.4,7.4c1,0.5,2.2,0,2.7-1
		C87.2,59.9,86.8,58.7,85.8,58.2z"/>
</g>
</svg>
