<?xml version="1.0" encoding="utf-8"?>
<!-- Generator: Adobe Illustrator 24.0.0, SVG Export Plug-In . SVG Version: 6.00 Build 0)  -->
<svg version="1.1" id="Layer_1" xmlns="http://www.w3.org/2000/svg" xmlns:xlink="http://www.w3.org/1999/xlink" x="0px" y="0px"
	 viewBox="0 0 100 100" style="enable-background:new 0 0 100 100;" xml:space="preserve">
<g>
	<path d="M98.6,90.9c0-0.4-1.3-10.6-7.9-14.8c-5.3-3.3-20.9-7.5-25.8-8.7c0-0.2,0.1-0.3,0.1-0.5c8.3-6.2,13.4-16.9,13.4-28.3
		c0-17.5-12.5-31.8-27.9-31.8C35,6.8,22.5,21.1,22.5,38.6c0,11.3,5.3,22.4,13.7,28.5c0,0.1,0,0.1,0,0.2c-4.6,1.2-20.8,5.4-26.1,8.8
		c-6.7,4.2-7.9,14.4-7.9,14.8C2,92,2.8,93,3.9,93.1c0.1,0,0.1,0,0.2,0c1,0,1.9-0.8,2-1.8C6.4,89,8,82.1,12.2,79.5
		c4.8-3,20.6-7.2,25-8.3c2.2,5.2,7.4,8.8,13.3,8.8c0.2,0,0.4,0,0.6,0c5.7-0.2,10.5-3.8,12.7-8.7c4.7,1.2,20,5.3,24.7,8.3
		c5,3.2,6.1,11.8,6.1,11.9c0.1,1,1,1.8,2,1.8c0.1,0,0.1,0,0.2,0C97.9,93,98.7,92,98.6,90.9z M51,76c-5.8,0.2-10.6-4.3-10.9-10
		c0-0.6-0.3-1.2-0.9-1.6C31.5,59.1,26.5,49,26.5,38.6c0-15.3,10.7-27.8,23.9-27.8c13.2,0,23.9,12.5,23.9,27.8
		c0,10.3-4.9,20.3-12.5,25.6c-0.5,0.4-0.9,1-0.9,1.6l0,0.1C60.8,71.3,56.4,75.7,51,76z"/>
	<path d="M39.6,21.6c-1,0-1.8,0.8-1.8,1.8c0,1,0.8,1.8,1.8,1.8c1,0,1.8-0.8,1.8-1.8C41.4,22.4,40.6,21.6,39.6,21.6z"/>
	<path d="M56,32.7c0-1-0.8-1.8-1.8-1.8c-1,0-1.8,0.8-1.8,1.8c0,1,0.8,1.8,1.8,1.8S56,33.7,56,32.7z"/>
	<circle cx="56.7" cy="26.9" r="1.8"/>
	<circle cx="37.5" cy="37" r="1.8"/>
	<circle cx="52.2" cy="19.1" r="1.8"/>
	<circle cx="46.1" cy="28.9" r="1.8"/>
	<circle cx="66.9" cy="32" r="1.8"/>
	<circle cx="64.3" cy="23.5" r="1.8"/>
	<path d="M46.3,42C46.3,42,46.3,42,46.3,42c-1.1,0-1.8,0.9-1.8,1.8c0,1,0.9,1.8,1.8,1.7c1,0,1.8-0.8,1.7-1.8
		C48.1,42.8,47.3,42,46.3,42z"/>
	<path d="M64.1,45.4c1,0,1.8-0.8,1.8-1.8c0-1-0.8-1.8-1.8-1.8c-1,0-1.8,0.8-1.8,1.8C62.3,44.6,63.1,45.4,64.1,45.4z"/>
	<circle cx="55.5" cy="44.7" r="1.8"/>
	<circle cx="36.2" cy="52.9" r="1.8"/>
	<path d="M45.7,14.6c0-1-0.8-1.8-1.8-1.8s-1.8,0.8-1.8,1.8c0,1,0.8,1.8,1.8,1.8C44.9,16.4,45.7,15.6,45.7,14.6z"/>
	<path d="M31.2,28.4c-1,0-1.8,0.8-1.8,1.8c0,1,0.8,1.8,1.8,1.8c1,0,1.8-0.8,1.8-1.8C33,29.2,32.2,28.4,31.2,28.4z"/>
</g>
</svg>
