<?xml version="1.0" encoding="utf-8"?>
<!-- Generator: Adobe Illustrator 24.0.0, SVG Export Plug-In . SVG Version: 6.00 Build 0)  -->
<svg version="1.1" id="Layer_1" xmlns="http://www.w3.org/2000/svg" xmlns:xlink="http://www.w3.org/1999/xlink" x="0px" y="0px"
	 viewBox="0 0 100 100" style="enable-background:new 0 0 100 100;" xml:space="preserve">
<g>
	<path d="M91,48.2L77.9,35.1V21.4c0-3.5-2.9-6.4-6.4-6.4c-3.5,0-6.4,2.9-6.4,6.4v0.9l-9-9c-3.1-3-8-3-11.1,0L26.6,31.7L10.2,48.2
		c-0.8,0.8-0.8,2,0,2.8c0.8,0.8,2,0.8,2.8,0l6.3-6.3l-0.1,38.5c0,4.3,3.5,7.8,7.9,7.8H74c4.3,0,7.9-3.5,7.9-7.9l-0.1-38.5l6.3,6.3
		c0.4,0.4,0.9,0.6,1.4,0.6s1-0.2,1.4-0.6C91.8,50.2,91.8,48.9,91,48.2z M69.2,21.4c0-1.3,1.1-2.4,2.4-2.4c1.3,0,2.4,1.1,2.4,2.4v9.7
		l-0.7-0.7l-4.1-4.1V21.4z M74,87H27.1c-2.1,0-3.9-1.7-3.9-3.8l0.1-42.5l6.1-6.1l18.5-18.5c1.5-1.5,3.9-1.5,5.4,0L65.2,28v0
		l10.6,10.6l2,2.1l0.1,42.5C77.9,85.3,76.2,87,74,87z"/>
	<path d="M42.2,44.4C42.2,44.4,42.2,44.4,42.2,44.4H31.7c-2.5,0-4.5,2-4.5,4.5v27c0,2.5,2,4.5,4.5,4.5h10.4c2.5,0,4.5-2,4.5-4.5
		c0,0,0,0,0,0v-27C46.7,46.4,44.7,44.4,42.2,44.4z M40.6,72.6c-0.8,1.3-2.1,2.1-3.6,2.1v0.1c-2.4,0-4.3-1.9-4.3-4.3
		c0-1.7,1-3.2,2.5-3.9V51.9c0-1.1,0.9-2,2-2c1.1,0,2,0.9,2,2v14.8C41.1,67.9,41.8,70.5,40.6,72.6z"/>
	<path d="M63.5,47.8c-7.7,0-14,6.3-14,14s6.3,14,14,14s14-6.3,14-14S71.3,47.8,63.5,47.8z M53.5,61.9c0-2.1,0.7-4.1,1.8-5.7l4.3,4.3
		c-0.6,1.3-1,2.5-1,3.3c0,0.2,0,0.3,0,0.5c0.1,2.8,2.5,5,5.4,4.9c1.2-0.1,2.2-0.5,3.1-1.2l2.2,2.2c-1.6,1.1-3.6,1.8-5.7,1.8
		C58,71.9,53.5,67.4,53.5,61.9z M71.8,67.6l-3-3c0-0.3,0.1-0.5,0-0.8c0-2.1-2.8-6.9-4.3-9.2c-0.1-0.1-0.2-0.2-0.3-0.3
		c-0.5-0.3-1.1-0.2-1.4,0.3c-0.4,0.7-1,1.6-1.5,2.5l-3.6-3.6c1.6-1.1,3.6-1.8,5.7-1.8c5.5,0,10,4.5,10,10
		C73.6,64,72.9,65.9,71.8,67.6z"/>
</g>
</svg>
