<?xml version="1.0" encoding="utf-8"?>
<!-- Generator: Adobe Illustrator 24.2.3, SVG Export Plug-In . SVG Version: 6.00 Build 0)  -->
<svg version="1.1" id="Layer_1" xmlns="http://www.w3.org/2000/svg" xmlns:xlink="http://www.w3.org/1999/xlink" x="0px" y="0px"
	 viewBox="0 0 100 100" style="enable-background:new 0 0 100 100;" xml:space="preserve">
<g>
	<path d="M48.8,83.7c0.3,4.1,3.8,7.4,8,7.4c0,0,0,0,0,0H70c0,0,0,0,0,0c4.1,0,7.6-3.2,8-7.4l2.7-34.3H46.1L48.8,83.7z M76.4,53.5
		L74,83.4c-0.2,2.1-1.9,3.7-4,3.7c0,0,0,0,0,0h0H56.8c0,0,0,0,0,0c-2.1,0-3.8-1.6-4-3.7l-2.4-29.9H76.4z"/>
	<path d="M63.4,84.9c1.1,0,2-0.9,2-2V59.6c0-1.1-0.9-2-2-2s-2,0.9-2,2v23.3C61.4,84,62.3,84.9,63.4,84.9z"/>
	<path d="M56.7,84.8c0.1,0,0.1,0,0.2,0c1.1-0.1,1.9-1.1,1.8-2.2l-2-23.2c-0.1-1.1-1-1.9-2.2-1.8c-1.1,0.1-1.9,1.1-1.8,2.2l2,23.2
		C54.8,84,55.7,84.8,56.7,84.8z"/>
	<path d="M70.1,84.8c0.1,0,0.1,0,0.2,0c1,0,1.9-0.8,2-1.8l2-23.2c0.1-1.1-0.7-2.1-1.8-2.2c-1.1-0.1-2.1,0.7-2.2,1.8l-2,23.2
		C68.1,83.8,69,84.7,70.1,84.8z"/>
	<path d="M85.6,25.6l-5-3.2c0.6-2-0.1-4.2-2-5.3c-1.8-1.2-4.2-0.9-5.7,0.5l-5.1-3.2c-3-1.9-6.8-1.7-9.5,0.6l-3.1,2.6l32.5,20.8
		l1.3-3.8C90,31.2,88.6,27.5,85.6,25.6z M62.3,17.3c1.1-0.4,2.4-0.2,3.4,0.4l8.3,5.2l1.4-2.2l0.1-0.1c0.2-0.3,0.6-0.3,0.9-0.1
		c0.3,0.2,0.4,0.6,0.2,1l-1.5,2.3l8.2,5.3l0,0c1.1,0.7,1.7,1.8,1.8,3L62.3,17.3z"/>
	<path d="M61.9,41.3l-2.7-1.5c-1-0.5-2.2-0.2-2.7,0.8c-0.5,1-0.2,2.2,0.8,2.7l5.4,2.9c0.3,0.4,0.8,0.7,1.4,0.8l1.8,1l4.2-8.4
		c0.5-1,0.1-2.2-0.9-2.7c-1-0.5-2.2-0.1-2.7,0.9l-0.9,1.7c-0.8-3.6-2.8-8.2-7.2-11.9c-8-6.6-17.3-4.7-19-4.3
		c-1.1,0.3-1.7,1.4-1.5,2.4c0.3,1.1,1.4,1.7,2.4,1.5c0.9-0.2,8.9-2,15.5,3.5C59.9,34,61.4,38.3,61.9,41.3z"/>
	<path d="M32.5,17.8v-4.6c0-1.2-1-2.1-2.1-2.1H14.9c-1.2,0-2.1,1-2.1,2.1v4.6l-1.4,3.7C11.1,22.2,11,23,11,23.7V42c0,1.1,1,2,2.1,2
		h19.4c1.1,0,2-0.9,2.1-2V23.8c0-0.8-0.2-1.6-0.5-2.4L32.5,17.8z M31.6,36.9c0,1.2-0.9,2.1-2.1,2.1H16c-1.2,0-2.1-0.9-2.1-2.1V26.8
		c0-1.2,0.9-2.1,2.1-2.1h13.5c1.2,0,2.1,0.9,2.1,2.1V36.9z"/>
	<polygon points="24.5,27 21,27 21,30 18,30 18,33.5 21,33.5 21,36.5 24.5,36.5 24.5,33.5 27.5,33.5 27.5,30 24.5,30 	"/>
</g>
</svg>
