<?xml version="1.0" encoding="utf-8"?>
<!-- Generator: Adobe Illustrator 24.0.0, SVG Export Plug-In . SVG Version: 6.00 Build 0)  -->
<svg version="1.1" id="Layer_1" xmlns="http://www.w3.org/2000/svg" xmlns:xlink="http://www.w3.org/1999/xlink" x="0px" y="0px"
	 viewBox="0 0 100 100" style="enable-background:new 0 0 100 100;" xml:space="preserve">
<g>
	<path d="M55.2,20.5c-1.1,0.3-1.7,1.4-1.4,2.4c0.2,0.9,1,1.5,1.9,1.5c0.2,0,0.3,0,0.5-0.1l5.9-1.5c0.5,0.1,1.1,0,1.6-0.4l2-0.5
		l-2.6-9c-0.3-1.1-1.4-1.7-2.5-1.4c-1.1,0.3-1.7,1.4-1.4,2.5l0.5,1.9c-3-2.1-7.6-4.2-13.4-3.9c-10.7,0.6-16.3,8.8-16.9,9.7
		c-0.6,0.9-0.3,2.2,0.6,2.8c0.3,0.2,0.7,0.3,1.1,0.3c0.7,0,1.3-0.3,1.7-0.9c0.2-0.3,4.9-7.4,13.8-7.9c5.2-0.3,9.2,1.9,11.6,3.7
		L55.2,20.5z"/>
	<path d="M84.2,35.9c0-3.4-2.8-6.2-6.2-6.2h-1.8H61.3h-1.8c-3.4,0-6.2,2.8-6.2,6.2v1.8v17V76c0,2.3,1,4.4,2.6,5.8v0.4
		c0,2.6,2.1,4.8,4.8,4.8h0h0c2,0,3.7-1.3,4.4-3h7.3c0.7,1.8,2.4,3,4.4,3h0h0c2.6,0,4.8-2.2,4.8-4.8l0-0.4c1.6-1.5,2.5-3.5,2.5-5.8
		V54.8h0V35.9z M76.2,33.7c2.2,0,4,1.8,4,4v13H57.3v-13c0-2.2,1.8-4,4-4H76.2z M80.2,76c0,2.2-1.8,4-4,4H61.3c-2.2,0-4-1.8-4-4V54.8
		h22.9V76z"/>
	<path d="M58,40.3v5c0,1.1,0.9,2,2,2s2-0.9,2-2v-5c0-1.1-0.9-2-2-2S58,39.2,58,40.3z"/>
	<path d="M60,66.7c1.1,0,2-0.9,2-2v-5c0-1.1-0.9-2-2-2s-2,0.9-2,2v5C58,65.8,58.9,66.7,60,66.7z"/>
	<path d="M39.5,37.5v-4.6c0-1.2-1-2.1-2.1-2.1H21.8c-1.2,0-2.1,1-2.1,2.1v4.6l-1.4,3.7c-0.3,0.7-0.4,1.4-0.4,2.2v18.2
		c0,1.2,0.9,2.1,2.1,2.1h19.4c1.2,0,2.1-0.9,2.1-2.1V43.5c0-0.8-0.1-1.6-0.4-2.4L39.5,37.5z M38.4,56.5c0,1.2-0.9,2.1-2.1,2.1H22.9
		c-1.2,0-2.1-0.9-2.1-2.1V46.4c0-1.2,0.9-2.1,2.1-2.1h13.4c1.2,0,2.1,0.9,2.1,2.1V56.5z"/>
	<polygon points="31.3,46.7 27.9,46.7 27.9,49.6 24.9,49.6 24.9,53.1 27.9,53.1 27.9,56.1 31.3,56.1 31.3,53.1 34.3,53.1 34.3,49.6 
		31.3,49.6 	"/>
</g>
</svg>
