<svg id="Layer_1" data-name="Layer 1" xmlns="http://www.w3.org/2000/svg" viewBox="0 0 100 100"><defs><style>.cls-1,.cls-2{fill:none;stroke:#000;stroke-miterlimit:10;stroke-width:4px;}.cls-2{stroke-linecap:round;}</style></defs><path d="M58.63,63.81c0-2.11,2.85-6.88,4.3-9.17a1,1,0,0,1,1.65,0c1.45,2.29,4.3,7.06,4.3,9.17a5.13,5.13,0,1,1-10.25,0Z"/><g id="Store_at_room_temperature" data-name="Store at room temperature"><path class="cls-1" d="M79.84,39.83l.06,43.32A5.85,5.85,0,0,1,74.05,89H27.15a5.85,5.85,0,0,1-5.85-5.85l.06-43.32L46.48,14.69a5.85,5.85,0,0,1,8.25,0Z"/><path class="cls-2" d="M11.61,49.57,46.47,14.72a5.85,5.85,0,0,1,8.27,0L89.59,49.57"/><path class="cls-2" d="M75.94,35.93V21.38A4.39,4.39,0,0,0,71.55,17h0a4.4,4.4,0,0,0-4.4,4.4v5.76Z"/><path d="M42.16,44.39H31.71a4.5,4.5,0,0,0-4.5,4.5v27a4.5,4.5,0,0,0,4.5,4.5H42.16a4.5,4.5,0,0,0,4.51-4.5v-27A4.5,4.5,0,0,0,42.16,44.39ZM36.94,74.71a4.32,4.32,0,0,1-1.84-8.23V51.89a2,2,0,0,1,4,0V66.66a4.31,4.31,0,0,1-2.16,8Z"/></g><circle class="cls-1" cx="63.55" cy="61.86" r="12.04"/><path d="M56.42,52.17a12.14,12.14,0,0,0-2.56,2.55L70.69,71.55A11.9,11.9,0,0,0,73.25,69Z"/></svg>