<?xml version="1.0" encoding="utf-8"?>
<!-- Generator: Adobe Illustrator 24.0.0, SVG Export Plug-In . SVG Version: 6.00 Build 0)  -->
<svg version="1.1" id="Layer_1" xmlns="http://www.w3.org/2000/svg" xmlns:xlink="http://www.w3.org/1999/xlink" x="0px" y="0px"
	 viewBox="0 0 100 100" style="enable-background:new 0 0 100 100;" xml:space="preserve">
<g>
	<path d="M50,35.2l9.5-8.2c1.1-0.9,1.2-2.6,0.3-3.7c-0.9-1.1-2.6-1.2-3.7-0.3l-3.5,3V11.4c0-1.4-1.2-2.6-2.6-2.6
		c-1.4,0-2.6,1.2-2.6,2.6v14.7l-3.5-3c-1.1-0.9-2.7-0.8-3.7,0.3c-0.9,1.1-0.8,2.7,0.3,3.7L50,35.2z"/>
	<path d="M69,53.5l-2.5-5.9v-7.5c0-1.9-1.6-3.5-3.5-3.5c0,0,0,0-0.1,0H37.8c-1.9,0-3.5,1.5-3.5,3.5c0,0,0,0,0,0v7.5l-2.3,6
		c-0.4,1.1-0.7,2.3-0.7,3.5v29.7c0,1.9,1.5,3.4,3.4,3.4h31.6c1.9,0,3.4-1.5,3.4-3.4V57.3C69.8,56,69.5,54.7,69,53.5z M64.9,78.7
		c0,1.9-1.5,3.4-3.4,3.4H39.6c-1.9,0-3.4-1.5-3.4-3.4V62.1c0-1.9,1.5-3.4,3.4-3.4h21.9c1.9,0,3.4,1.5,3.4,3.4V78.7z"/>
	<polygon points="52.8,62.6 48.2,62.6 48.2,68 42.8,68 42.8,72.5 48.2,72.5 48.2,78 52.8,78 52.8,72.5 58.2,72.5 58.2,68 52.8,68 	
		"/>
</g>
</svg>
