<svg id="Layer_1" data-name="Layer 1" xmlns="http://www.w3.org/2000/svg" viewBox="0 0 100 100"><defs><style>.cls-1,.cls-2{fill:none;stroke:#000;stroke-miterlimit:10;}.cls-1{stroke-linecap:round;stroke-width:3.03px;}.cls-2{stroke-width:3.59px;}</style></defs><path class="cls-1" d="M30.31,24a15.47,15.47,0,0,1,13.06,2.93,15.45,15.45,0,0,1,5.38,12"/><polyline class="cls-1" points="44.23 36.34 49.33 39.07 51.8 34.14"/><rect class="cls-2" x="47.08" y="61.65" width="44.55" height="6.11" rx="2.72"/><path class="cls-2" d="M51.53,67.76H87.19a0,0,0,0,1,0,0V70.3A14.73,14.73,0,0,1,72.46,85h-6.2A14.73,14.73,0,0,1,51.53,70.3V67.76A0,0,0,0,1,51.53,67.76Z"/><path class="cls-2" d="M82.08,89.9H56.78a9,9,0,0,1,8-4.87h9.27a9,9,0,0,1,8,4.87Z"/><path class="cls-2" d="M79.29,61.65A21.57,21.57,0,0,0,84.83,46.8c0-10.67-6.89-19.33-15.4-19.33S54,36.13,54,46.8a21.57,21.57,0,0,0,5.54,14.85Z"/><ellipse class="cls-2" cx="69.43" cy="46.8" rx="10.69" ry="13.41"/><path d="M22.63,13.42,10.2,13.26a2.15,2.15,0,0,0-1.43.58,2,2,0,0,0-.59,1.42V44.53c0,.83,0,2.39,5.86,7.1a3.86,3.86,0,0,0,4.46,0c5.86-4.71,5.86-6.27,5.86-7.1,0-1.68.24-28.82.24-29.1A2,2,0,0,0,22.63,13.42ZM20.36,44.31a20.38,20.38,0,0,1-4.09,4,19.77,19.77,0,0,1-4.09-4v-27l2.14,0a16.62,16.62,0,0,1-2-2.09,6.73,6.73,0,0,1,4.07-1.06,6.73,6.73,0,0,1,4.07,1.06,15.59,15.59,0,0,1-2.08,2.14l2.22,0C20.53,23.54,20.37,41.72,20.36,44.31Z"/><path d="M16.37,10.17c-4.75,0-8.19,2.14-8.19,5.09,0,.85,0,2.41,6,7.11a1.45,1.45,0,0,0,.26.17V19.38h4V22.5a1.48,1.48,0,0,0,.21-.13c6-4.7,6-6.26,6-7.11C24.57,12.31,21.12,10.17,16.37,10.17Zm0,8.87a24,24,0,0,1-4.07-3.81,6.73,6.73,0,0,1,4.07-1.06,6.73,6.73,0,0,1,4.07,1.06A23.59,23.59,0,0,1,16.37,19Z"/><polygon points="18.4 19.38 14.4 19.38 14.4 22.54 14.4 49.7 18.4 49.7 18.4 22.5 18.4 19.38"/></svg>