<?xml version="1.0" encoding="utf-8"?>
<!-- Generator: Adobe Illustrator 24.0.0, SVG Export Plug-In . SVG Version: 6.00 Build 0)  -->
<svg version="1.1" id="Layer_1" xmlns="http://www.w3.org/2000/svg" xmlns:xlink="http://www.w3.org/1999/xlink" x="0px" y="0px"
	 viewBox="0 0 100 100" style="enable-background:new 0 0 100 100;" xml:space="preserve">
<g>
	<path d="M24.7,9.9C16,9.9,9,17,9,25.7S16,41.4,24.7,41.4s15.8-7.1,15.8-15.8S33.4,9.9,24.7,9.9z M13,25.7c0-2.5,0.8-4.8,2.1-6.7
		l16.4,16.4c-1.9,1.3-4.2,2.1-6.7,2.1C18.2,37.4,13,32.2,13,25.7z M34.4,32.4L18,16c1.9-1.3,4.2-2.1,6.7-2.1
		c6.5,0,11.8,5.3,11.8,11.8C36.5,28.2,35.7,30.5,34.4,32.4z"/>
	<path d="M79.7,10.4H53.3c-4.4,0-8,3.6-8,8v0v26v33.7c0,2.8,1.4,5.3,3.6,6.7c0.2,3.2,2.8,5.7,6,5.7h0h0c2.7,0,5-1.9,5.7-4.4h11.7
		c0.7,2.5,3,4.4,5.8,4.4h0h0c3.2,0,5.7-2.6,5.9-5.7c2.2-1.4,3.7-3.9,3.7-6.7V44.5v-26v0C87.7,14,84.1,10.4,79.7,10.4z M49.3,18.5
		c0-2.2,1.8-4,4-4h26.4c2.2,0,4,1.8,4,4v22H49.3V18.5z M83.7,78.2c0,2.2-1.8,4-4,4H53.3c-2.2,0-4-1.8-4-4V44.5h34.4V78.2z"/>
	<path d="M54,22.7c-1.1,0-2,0.9-2,2v7.2c0,1.1,0.9,2,2,2s2-0.9,2-2v-7.2C56,23.6,55.1,22.7,54,22.7z"/>
	<path d="M54,61.6c1.1,0,2-0.9,2-2v-7.2c0-1.1-0.9-2-2-2s-2,0.9-2,2v7.2C52,60.7,52.9,61.6,54,61.6z"/>
</g>
</svg>
