<?xml version="1.0" encoding="utf-8"?>
<!-- Generator: Adobe Illustrator 24.2.3, SVG Export Plug-In . SVG Version: 6.00 Build 0)  -->
<svg version="1.1" id="Layer_1" xmlns="http://www.w3.org/2000/svg" xmlns:xlink="http://www.w3.org/1999/xlink" x="0px" y="0px"
	 viewBox="0 0 100 100" style="enable-background:new 0 0 100 100;" xml:space="preserve">
<g>
	<polygon points="47.4,47.6 54.1,47.6 54.1,43.2 58.6,43.2 58.6,36.4 54.1,36.4 54.1,31.9 47.4,31.9 47.4,36.4 42.9,36.4 42.9,43.2 
		47.4,43.2 	"/>
	<path d="M70.9,54.5c-0.2-0.1-0.3-0.1-0.5-0.1V26.6c0-1.3-0.3-2.7-0.8-3.9l-2.5-6.1V9c0-2-1.5-3.6-3.5-3.6c0,0,0,0-0.1,0H37.7
		c-2,0-3.6,1.6-3.6,3.5c0,0,0,0,0,0.1v7.6l-2.4,6.2c-0.4,1.2-0.7,2.4-0.7,3.6v27.9c-2,0.6-3.5,2.5-3.5,4.7c0,0.5,0.1,1.1,0.3,1.6
		l4.8,14.1c0.8,2.5,3.1,4.1,5.7,4.2h0.1c2.6,0,4.9-1.6,5.7-4l1-2.7h0.3l2.6,9.8c0.7,2.6,3,4.4,5.6,4.5h0.3c2.6,0,4.9-1.6,5.8-4
		l3.2-8.6c0.3,0.1,0.6,0.1,0.9,0.1h0.2c2.5,0,4.8-1.5,5.7-3.9l3.6-9.2C74.7,58.4,73.4,55.5,70.9,54.5z M36.1,31.4
		c0-1.9,1.6-3.4,3.5-3.4H62c1.9,0,3.5,1.6,3.5,3.5l0,16.9c0,1.9-1.5,3.5-3.5,3.5H39.6c-1.9,0-3.5-1.6-3.5-3.5V31.4z M70,59.5
		l-3.6,9.3c-0.3,0.9-1.2,1.5-2.1,1.5h-0.1c-1,0-1.8-0.7-2.1-1.6L61.7,67l-5.3,14.3c-0.3,0.9-1.2,1.5-2.1,1.5h-0.1
		c-1,0-1.8-0.7-2.1-1.7l-3.9-14.4l-0.5,0.7c-0.4,0.6-1.1,1-1.9,1h-0.1c-0.8,0-1.5-0.4-1.9-1.1l-0.5-0.8l-2.7,7.1
		c-0.3,0.9-1.2,1.5-2.1,1.5c-1,0-1.8-0.6-2.1-1.5l-4.8-14c-0.1-0.3-0.1-0.6,0.1-0.9c0.6,1,1.7,1.6,2.9,1.6c0,0,0,0,0,0h32.3
		c1.3,0,2.4-0.7,3-1.7C70.1,58.8,70.2,59.2,70,59.5z"/>
	<path d="M70.4,79.3c-0.8-1.9-1.8-3.6-3.8-3.6s-3,1.8-3.8,3.6c-0.5,1.2-0.9,2.4-1,3.7l0,0.2c0,2.6,2.1,4.8,4.8,4.8s4.8-2.1,4.8-4.8
		l0-0.2C71.2,81.7,70.9,80.5,70.4,79.3z M66.6,84.5c-0.7,0-1.3-0.5-1.3-1.2c0.1-0.9,0.4-1.8,0.7-2.6c0.2-0.6,0.4-0.9,0.6-1.2
		c0.1,0.2,0.3,0.6,0.6,1.2c0.4,0.8,0.6,1.7,0.7,2.6C67.9,84,67.3,84.5,66.6,84.5z"/>
	<path d="M41.8,84.9c-0.8-2-1.9-3.8-4-3.8c-2.1,0-3.2,1.9-4,3.8c-0.5,1.2-0.9,2.5-1.1,3.9l0,0.2l0,0.2c0.1,1.4,0.7,2.6,1.7,3.5
		c0.9,0.8,2.1,1.3,3.4,1.3c0.1,0,0.2,0,0.3,0c2.6-0.1,4.7-2.2,4.8-4.8l0-0.2l0-0.2C42.7,87.4,42.3,86.1,41.8,84.9z M37.8,90.2
		c-0.4,0-0.7-0.1-1-0.4c-0.2-0.2-0.4-0.5-0.4-0.8c0.1-0.9,0.4-1.8,0.8-2.7c0.3-0.6,0.5-1,0.6-1.3c0.1,0.3,0.4,0.6,0.6,1.2
		c0.4,0.9,0.6,1.8,0.8,2.7C39,89.7,38.5,90.2,37.8,90.2z"/>
	<path d="M57.2,91.4c-0.7-1.6-1.5-3.2-3.3-3.2c-1.8,0-2.6,1.6-3.3,3.2c-0.5,1-0.8,2.1-0.9,3.2l0,0.2c0,2.3,1.9,4.2,4.2,4.2
		c2.3,0,4.2-1.9,4.2-4.2l0-0.2C58,93.5,57.7,92.4,57.2,91.4z M53.9,95.9c-0.6,0-1.1-0.5-1.2-1.1c0.1-0.8,0.3-1.5,0.7-2.3
		c0.2-0.5,0.4-0.8,0.5-1c0.1,0.2,0.3,0.6,0.5,1.1c0.3,0.7,0.5,1.5,0.6,2.3C55,95.5,54.5,95.9,53.9,95.9z"/>
</g>
</svg>
