<?xml version="1.0" encoding="utf-8"?>
<!-- Generator: Adobe Illustrator 24.0.0, SVG Export Plug-In . SVG Version: 6.00 Build 0)  -->
<svg version="1.1" id="Layer_1" xmlns="http://www.w3.org/2000/svg" xmlns:xlink="http://www.w3.org/1999/xlink" x="0px" y="0px"
	 viewBox="0 0 100 100" style="enable-background:new 0 0 100 100;" xml:space="preserve">
<g>
	<path d="M82.7,34.5h-1.8H66h-1.8c-3.4,0-6.2,2.8-6.2,6.2l0,18.8h0v21.2c0,2.3,1,4.4,2.5,5.8v0.9c0,2.6,2.1,4.8,4.8,4.8h0h0
		c2.2,0,4-1.5,4.6-3.5H77c0.6,2,2.4,3.5,4.6,3.5c2.6,0,4.8-2.1,4.8-4.8v-0.9c1.6-1.5,2.5-3.5,2.5-5.8V59.5v-17v-1.8
		C88.9,37.2,86.1,34.5,82.7,34.5z M80.9,38.5c2.2,0,4,1.8,4,4v13H62v-13c0-2.2,1.8-4,4-4H80.9z M84.9,80.7c0,2.2-1.8,4-4,4h-4.1
		h-6.7H66c-2.2,0-4-1.8-4-4V59.5h22.9V80.7z"/>
	<path d="M62.7,45v5c0,1.1,0.9,2,2,2s2-0.9,2-2v-5c0-1.1-0.9-2-2-2S62.7,43.9,62.7,45z"/>
	<path d="M64.7,71.5c1.1,0,2-0.9,2-2v-5c0-1.1-0.9-2-2-2s-2,0.9-2,2v5C62.7,70.6,63.6,71.5,64.7,71.5z"/>
	<path d="M52,39.3c-0.4-0.8-1.4-1-2.1-0.6c-0.8,0.4-1,1.4-0.6,2.1l0.8,1.5c-3.5-1.1-7.4-1-10.9,0.5C31.4,46,28.6,53.6,28.4,54.5
		c-0.3,0.8,0.2,1.7,1,2c0.2,0.1,0.3,0.1,0.5,0.1c0.7,0,1.3-0.4,1.5-1.1c0.2-0.7,2.5-7.2,9.1-9.8c3-1.2,6.2-1.3,9.2-0.2l-2.3,1.5
		c-0.7,0.5-0.9,1.4-0.5,2.2c0.3,0.5,0.8,0.7,1.3,0.7c0.3,0,0.6-0.1,0.9-0.3l4.2-2.8c0.3-0.1,0.7-0.3,0.9-0.6l1.3-0.9L52,39.3z"/>
	<path d="M38.2,65.8v-4.6c0-1.2-0.9-2.1-2.1-2.1c0,0,0,0,0,0H20.6c-1.2,0-2.1,0.9-2.1,2.1c0,0,0,0,0,0v4.6L17,69.5
		c-0.3,0.7-0.4,1.4-0.4,2.2V90c0,1.1,1,2,2.1,2h19.4c1.1,0,2-0.9,2.1-2V71.8c0-0.8-0.2-1.6-0.5-2.4L38.2,65.8z M37.2,84.9
		c0,1.2-0.9,2.1-2.1,2.1H21.7c-1.2,0-2.1-0.9-2.1-2.1V74.7c0-1.2,0.9-2.1,2.1-2.1h13.4c1.2,0,2.1,0.9,2.1,2.1V84.9z"/>
	<polygon points="30.1,75 26.6,75 26.6,78 23.7,78 23.7,81.5 26.6,81.5 26.6,84.5 30.1,84.5 30.1,81.5 33.1,81.5 33.1,78 30.1,78 	
		"/>
	<path d="M16.4,45.1h-4.6c-1.2,0-2.1,0.9-2.1,2.1L9.6,62.7c0,1.2,0.9,2.1,2.1,2.1c0,0,0,0,0,0h4.6l0.2,0.1l0.1-20L16.4,45.1z"/>
	<path d="M23.9,40.8c8.7,0,15.8-7.1,15.8-15.8c0-8.7-7.1-15.8-15.8-15.8S8.2,16.3,8.2,25C8.2,33.7,15.2,40.8,23.9,40.8z M35.7,25
		c0,2.5-0.8,4.8-2.1,6.7L17.2,15.4c1.9-1.3,4.2-2.1,6.7-2.1C30.4,13.2,35.7,18.5,35.7,25z M14.3,18.3l16.4,16.4
		c-1.9,1.3-4.2,2.1-6.7,2.1c-6.5,0-11.8-5.3-11.8-11.8C12.2,22.5,13,20.2,14.3,18.3z"/>
</g>
</svg>
