<svg id="Layer_1" data-name="Layer 1" xmlns="http://www.w3.org/2000/svg" viewBox="0 0 100 100"><defs><style>.cls-1,.cls-2,.cls-3{fill:none;stroke:#000;stroke-miterlimit:10;}.cls-1,.cls-2{stroke-width:4px;}.cls-2{stroke-linecap:round;}.cls-3{stroke-width:3.48px;}</style></defs><path class="cls-1" d="M70,89.12H56.8a6,6,0,0,1-6-5.53l-2.56-32.1H78.54L76,83.59A6,6,0,0,1,70,89.12Z"/><line class="cls-2" x1="63.4" y1="59.6" x2="63.4" y2="82.88"/><line class="cls-2" x1="54.66" y1="59.64" x2="56.69" y2="82.83"/><line class="cls-2" x1="72.26" y1="59.64" x2="70.23" y2="82.83"/><path class="cls-1" d="M84.55,27.3,78,23.11l.4-.63a2.69,2.69,0,0,0-.82-3.73h0a2.7,2.7,0,0,0-3.74.82l-.4.62L66.81,16a6,6,0,0,0-7.13.49l-1,.82,28,17.94L87.1,34A6,6,0,0,0,84.55,27.3Z"/><path class="cls-2" d="M39.86,25.31c.92-.23,9.79-2.3,17.28,3.87,7.29,6,7.14,14.81,7.1,15.83"/><polyline class="cls-2" points="58.27 41.62 65.02 45.23 68.28 38.71"/><path d="M34.07,21.47l-1.53-3.64h0V13.24a2.13,2.13,0,0,0-2.13-2.13H14.91a2.13,2.13,0,0,0-2.12,2.13v4.59l-1.42,3.72a6,6,0,0,0-.4,2.17V42A2.08,2.08,0,0,0,13.06,44H32.45A2.08,2.08,0,0,0,34.54,42V23.82A6.16,6.16,0,0,0,34.07,21.47Zm-2.5,15.44A2.09,2.09,0,0,1,29.48,39H16a2.09,2.09,0,0,1-2.09-2.09V26.75A2.09,2.09,0,0,1,16,24.66H29.48a2.09,2.09,0,0,1,2.09,2.09Z"/><line class="cls-3" x1="18.01" y1="31.76" x2="27.45" y2="31.76"/><line class="cls-3" x1="22.73" y1="36.48" x2="22.73" y2="27.04"/></svg>