<svg id="Layer_1" data-name="Layer 1" xmlns="http://www.w3.org/2000/svg" viewBox="0 0 100 100"><defs><style>.cls-1,.cls-2{fill:none;stroke:#000;stroke-miterlimit:10;stroke-width:4px;}.cls-2{stroke-linecap:round;}</style></defs><path class="cls-1" d="M69.37,87.53H56.18a6,6,0,0,1-6-5.52L47.64,49.9H77.91L75.35,82A6,6,0,0,1,69.37,87.53Z"/><line class="cls-2" x1="62.78" y1="58.01" x2="62.78" y2="81.29"/><line class="cls-2" x1="54.04" y1="58.05" x2="56.07" y2="81.24"/><line class="cls-2" x1="71.64" y1="58.05" x2="69.61" y2="81.24"/><path class="cls-1" d="M83.93,25.71l-6.55-4.19.4-.62A2.71,2.71,0,0,0,77,17.16h0a2.7,2.7,0,0,0-3.74.82l-.4.63-6.63-4.25a6,6,0,0,0-7.13.49l-1,.82,28,17.94.34-1.22A6,6,0,0,0,83.93,25.71Z"/><path class="cls-2" d="M39.24,23.72c.92-.23,9.79-2.3,17.27,3.88,7.3,6,7.14,14.8,7.11,15.82"/><polyline class="cls-2" points="57.65 40.03 64.39 43.64 67.66 37.12"/><path d="M28.32,15.72,15.9,15.57a2.09,2.09,0,0,0-1.43.57,2,2,0,0,0-.59,1.43V46.83c0,.84,0,2.4,5.85,7.1a3.87,3.87,0,0,0,4.47,0c5.86-4.7,5.86-6.26,5.86-7.1,0-1.68.24-28.82.24-29.09A2,2,0,0,0,28.32,15.72ZM26.06,46.61a20,20,0,0,1-4.1,4,19.87,19.87,0,0,1-4.08-4v-27l2.14,0a15.26,15.26,0,0,1-2-2.09,6.73,6.73,0,0,1,4.07-1.06,6.73,6.73,0,0,1,4.07,1.06,15.64,15.64,0,0,1-2.08,2.14l2.22,0C26.23,25.85,26.07,44,26.06,46.61Z"/><path d="M22.07,12.47c-4.75,0-8.19,2.14-8.19,5.1,0,.84,0,2.41,5.95,7.11l.27.17V21.68h4v3.13l.21-.13c6-4.7,6-6.27,6-7.11C30.26,14.61,26.82,12.47,22.07,12.47Zm0,8.87A23.59,23.59,0,0,1,18,17.53a6.73,6.73,0,0,1,4.07-1.06,6.73,6.73,0,0,1,4.07,1.06A23.59,23.59,0,0,1,22.07,21.34Z"/><polygon points="24.1 21.68 20.1 21.68 20.1 24.85 20.1 52.01 24.1 52.01 24.1 24.81 24.1 21.68"/></svg>