<?xml version="1.0" encoding="utf-8"?>
<!-- Generator: Adobe Illustrator 24.0.0, SVG Export Plug-In . SVG Version: 6.00 Build 0)  -->
<svg version="1.1" id="Layer_1" xmlns="http://www.w3.org/2000/svg" xmlns:xlink="http://www.w3.org/1999/xlink" x="0px" y="0px"
	 viewBox="0 0 100 100" style="enable-background:new 0 0 100 100;" xml:space="preserve">
<g>
	<path d="M91.4,47.6l-9.6-9.6L78,34.2V20.1c0-3.6-2.9-6.5-6.5-6.5c-3.6,0-6.5,2.9-6.5,6.5v1.1l-9.4-9.4c-3.1-3.1-8.2-3.1-11.3,0
		L18.2,38.1l-9.6,9.6c-0.8,0.8-0.8,2,0,2.8c0.8,0.8,2,0.8,2.8,0l6.6-6.6l-0.1,39.6c0,4.4,3.6,8,8,8h48.1c4.4,0,8-3.6,8-8L82,43.9
		l6.6,6.6c0.4,0.4,0.9,0.6,1.4,0.6c0.5,0,1-0.2,1.4-0.6C92.2,49.7,92.2,48.4,91.4,47.6z M69,20.1c0-1.4,1.1-2.5,2.5-2.5
		c1.4,0,2.5,1.1,2.5,2.5v10.1l-5-5V20.1z M74.1,87.5H25.9c-2.2,0-4-1.8-4-4L22,39.9l0.2-0.2l25-25c1.6-1.6,4.1-1.6,5.7,0l21.7,21.7
		l3.5,3.5v0l0,0l0.1,43.6C78.1,85.7,76.3,87.5,74.1,87.5z"/>
	<path d="M58.4,38.9H41.6c-3.3,0-6,2.7-6,6v31.2c0,3.3,2.7,6,6,6h16.7c3.3,0,6-2.7,6-6V44.9C64.4,41.6,61.7,38.9,58.4,38.9z
		 M54.7,72.3c-0.9,1.8-2.7,3-4.7,3c-2.9-0.1-5.1-2.4-5.1-5.3c0-2.1,1.3-4,3.3-4.7V48c0-1.1,0.9-2,2-2s2,0.9,2,2v17.5
		C54.8,66.7,55.9,69.8,54.7,72.3z M60.4,55.7h-4.2c-1.1,0-2-0.9-2-2s0.9-2,2-2h4.2c1.1,0,2,0.9,2,2S61.5,55.7,60.4,55.7z M60.4,49.7
		h-4.2c-1.1,0-2-0.9-2-2s0.9-2,2-2h4.2c1.1,0,2,0.9,2,2S61.5,49.7,60.4,49.7z"/>
</g>
</svg>
