<?xml version="1.0" encoding="utf-8"?>
<!-- Generator: Adobe Illustrator 24.0.0, SVG Export Plug-In . SVG Version: 6.00 Build 0)  -->
<svg version="1.1" id="Layer_1" xmlns="http://www.w3.org/2000/svg" xmlns:xlink="http://www.w3.org/1999/xlink" x="0px" y="0px"
	 viewBox="0 0 100 100" style="enable-background:new 0 0 100 100;" xml:space="preserve">
<g>
	<path d="M23.9,44.6c8.7,0,15.8-7.1,15.8-15.8s-7.1-15.8-15.8-15.8S8.2,20.2,8.2,28.9S15.2,44.6,23.9,44.6z M35.7,28.9
		c0,2.5-0.8,4.8-2.1,6.7L17.2,19.2c1.9-1.3,4.2-2.1,6.7-2.1C30.4,17.1,35.7,22.4,35.7,28.9z M14.3,22.2l16.4,16.4
		c-1.9,1.3-4.2,2.1-6.7,2.1c-6.5,0-11.8-5.3-11.8-11.8C12.2,26.4,13,24.1,14.3,22.2z"/>
	<path d="M16.2,64.4c-4.4,0-8,3.6-8,8v2.9c0,4.4,3.6,8,8,8h75.7V64.4H16.2z M39.6,68.4h34.2v10.9H39.6V68.4z M77.8,68.4h3v10.9h-3
		V68.4z M87.8,79.3h-3V68.4h3V79.3z"/>
	<path d="M68.7,36.8h9.8c0.7,0,1.2,0.5,1.2,1.2c0,0.7-0.5,1.2-1.2,1.2h-4c0,0,0,0,0,0c-1.5,0-2.9,0.6-4,1.6c-1.1,1.1-1.7,2.5-1.7,4
		c0,3.1,2.5,5.7,5.7,5.7h7.3c0.6,0,1,0.4,1,1v3c0,1.1,0.9,2,2,2s2-0.9,2-2v-3c0-2.8-2.2-5-5-5h-7.3c-0.9,0-1.7-0.7-1.7-1.7
		c0-0.4,0.2-0.9,0.5-1.2c0.3-0.3,0.7-0.5,1.2-0.5h4c2.9,0,5.2-2.3,5.2-5.3c0-2.9-2.3-5.2-5.2-5.2h-9.8c-1.1,0-2.1-0.9-2.1-2.1
		c0-1.1,0.9-2.1,2.1-2.1h3.2c1.1,0,2-0.9,2-2s-0.9-2-2-2h-3.2c-3.3,0-6.1,2.7-6.1,6.1C62.7,34,65.4,36.8,68.7,36.8z"/>
	<path d="M41.5,48.3c2,2.7,5.1,4.2,8.6,4.2c0.5,0,1,0,1.5-0.1c4.2-0.5,7.8-3.2,9.2-7c0.9-2.2,1.1-4.7,0.6-7
		c-0.2-1.2-0.8-2.2-1.2-3.2c-0.4-0.9-0.9-1.7-1.1-2.6c-0.1-0.6-0.1-1.2,0-1.8l0.2-0.8l-0.8,0.2c-0.1,0-2.8,0.8-3.1,5.3
		c-0.1,0.9-0.2,1.4-0.2,1.6c-0.5-0.6-1.6-3.2-2.1-5.6c-0.5-2.2-0.8-4.5-0.9-6.7l0-0.7l-0.7,0.3c-2.4,1.1-4.2,3.1-5.2,5.6
		c-0.9,2.5-0.8,5.3-0.6,7.5c0.1,1.4,0.2,2.7-0.1,3.4c-0.7-0.4-1.9-3.1-2.6-6.3l-0.2-0.8l-0.6,0.5C42.2,34.3,35.4,40.1,41.5,48.3z"/>
</g>
</svg>
