<svg id="Layer_1" data-name="Layer 1" xmlns="http://www.w3.org/2000/svg" viewBox="0 0 100 100"><defs><style>.cls-1{fill:none;stroke-width:4px;}.cls-1,.cls-2{stroke:#000;stroke-miterlimit:10;}.cls-2{stroke-width:2px;}</style></defs><circle class="cls-1" cx="55.61" cy="56.53" r="17.18"/><path class="cls-2" d="M55.61,31.86a1.38,1.38,0,0,1-1.38-1.38V24.31a1.39,1.39,0,0,1,2.77,0v6.17A1.38,1.38,0,0,1,55.61,31.86Z"/><path class="cls-2" d="M55.61,90.13a1.38,1.38,0,0,1-1.38-1.39V82.57a1.39,1.39,0,0,1,2.77,0v6.17A1.39,1.39,0,0,1,55.61,90.13Z"/><path class="cls-2" d="M74,39.49a1.38,1.38,0,0,1-1-2.36l4.36-4.36a1.39,1.39,0,0,1,2,2L75,39.09A1.37,1.37,0,0,1,74,39.49Z"/><path class="cls-2" d="M32.84,80.69a1.34,1.34,0,0,1-1-.41,1.36,1.36,0,0,1,0-2L36.22,74a1.38,1.38,0,1,1,2,2l-4.35,4.36A1.37,1.37,0,0,1,32.84,80.69Z"/><path class="cls-2" d="M87.83,57.91H81.66a1.39,1.39,0,0,1,0-2.77h6.17a1.39,1.39,0,0,1,0,2.77Z"/><path class="cls-2" d="M29.57,57.91H23.4a1.39,1.39,0,1,1,0-2.77h6.17a1.39,1.39,0,0,1,0,2.77Z"/><path class="cls-2" d="M78.39,80.69a1.35,1.35,0,0,1-1-.41l-4.36-4.36a1.38,1.38,0,1,1,2-2l4.36,4.36a1.38,1.38,0,0,1,0,2A1.34,1.34,0,0,1,78.39,80.69Z"/><circle class="cls-1" cx="27.26" cy="28.36" r="13.77"/><path d="M19.1,17.27a13.7,13.7,0,0,0-2.92,2.92L35.43,39.44a13.7,13.7,0,0,0,2.92-2.92Z"/></svg>