<svg id="Layer_1" data-name="Layer 1" xmlns="http://www.w3.org/2000/svg" viewBox="0 0 100 100"><defs><style>.cls-1,.cls-2{fill:none;stroke:#000;stroke-miterlimit:10;stroke-width:4px;}.cls-2{stroke-linecap:round;}</style></defs><g id="_309" data-name="309"><path d="M50.55,22.79a2.49,2.49,0,0,1,.46.05,2.36,2.36,0,0,1,1.84,2.33L53,47.07a1,1,0,0,0,1,1h0a1,1,0,0,0,1-1l0-20.4a2.52,2.52,0,0,1,2.52-2.52h.08A2.42,2.42,0,0,1,60,26.57L60,48a1,1,0,0,0,1,1h0a1,1,0,0,0,1-1V32.82a2.48,2.48,0,0,1,1.92-2.46,2.92,2.92,0,0,1,.5-.05,2.42,2.42,0,0,1,2.42,2.42V63.85A14.42,14.42,0,0,1,52.42,78.27h0c-1,0-2,0-3.09-.15A16.22,16.22,0,0,1,34.82,64.06a27.78,27.78,0,0,1-.23-3.53V47.17a2.47,2.47,0,0,1,1.92-2.46,2.18,2.18,0,0,1,.5-.05,2.42,2.42,0,0,1,2.42,2.42l0,7.06a1,1,0,0,0,.9,1h.08a1,1,0,0,0,1-1l0-26.71A2.48,2.48,0,0,1,43.87,25h0a2.43,2.43,0,0,1,2.54,2.35l-.07,20.35a1,1,0,0,0,1,1l.26,0a1.07,1.07,0,0,0,.76-1l-.13-22.48a2.3,2.3,0,0,1,2.3-2.32m0-3.52A5.76,5.76,0,0,0,46.42,21a6.32,6.32,0,0,0-.63.74,6.38,6.38,0,0,0-1.92-.3,6,6,0,0,0-6,6l0,13.78a6.4,6.4,0,0,0-.88-.06,5.93,5.93,0,0,0-1.19.12,6,6,0,0,0-4.75,5.91V60.53a29.64,29.64,0,0,0,.27,4A19.61,19.61,0,0,0,49,81.63c1.15.1,2.3.16,3.41.16A18,18,0,0,0,70.36,63.85V32.73a6,6,0,0,0-5.94-5.94,6.54,6.54,0,0,0-.89.07v-.28a5.94,5.94,0,0,0-5.94-6h-.08a6.08,6.08,0,0,0-2.64.6,5.77,5.77,0,0,0-3.18-1.84,6.29,6.29,0,0,0-1.14-.11Z"/><circle class="cls-1" cx="51.61" cy="50.17" r="38"/><line class="cls-2" x1="24.58" y1="23.47" x2="78.31" y2="77.2"/></g></svg>