<?xml version="1.0" encoding="utf-8"?>
<!-- Generator: Adobe Illustrator 24.0.0, SVG Export Plug-In . SVG Version: 6.00 Build 0)  -->
<svg version="1.1" id="Layer_1" xmlns="http://www.w3.org/2000/svg" xmlns:xlink="http://www.w3.org/1999/xlink" x="0px" y="0px"
	 viewBox="0 0 100 100" style="enable-background:new 0 0 100 100;" xml:space="preserve">
<path d="M66.5,36.5l5.9-19.9l-43.6-0.2l6.4,22.6c0.2,0.5,0.4,1,0.8,1.5L39,87.9c0.2,3,2.7,5.4,5.8,5.4c0,0,0,0,0,0h12.4c0,0,0,0,0,0
	c3,0,5.6-2.4,5.8-5.4L65.6,51l0,0l1-14.5H66.5z M59.4,87.7c-0.1,1.1-1,2-2.2,2c0,0,0,0,0,0H44.8c0,0,0,0,0,0c-1.2,0-2.1-0.9-2.2-2.1
	l-3-45.9l9.5,0v39.1c0,1.1,0.9,2,2,2s2-0.9,2-2V41.8l8.8,0c0.2,0,0.4,0,0.7-0.1l-0.6,9h0L59.4,87.7z"/>
</svg>
