<svg id="Layer_1" data-name="Layer 1" xmlns="http://www.w3.org/2000/svg" viewBox="0 0 100 100"><defs><style>.cls-1,.cls-2,.cls-3{stroke:#000;stroke-miterlimit:10;stroke-width:4px;}.cls-2,.cls-3{fill:none;}.cls-3{stroke-linecap:round;}</style></defs><path class="cls-1" d="M14.73,72.45h0A2.77,2.77,0,0,1,12,69.67h5.56A2.78,2.78,0,0,1,14.73,72.45Z"/><path class="cls-1" d="M31,72.45h0a2.78,2.78,0,0,1-2.78-2.78h5.57A2.78,2.78,0,0,1,31,72.45Z"/><rect class="cls-2" x="9.39" y="19.15" width="26.89" height="50.22" rx="6"/><path class="cls-2" d="M9.39,40.17h26.9V23.35a4.2,4.2,0,0,0-4.2-4.2H13.59a4.2,4.2,0,0,0-4.2,4.2Z"/><line class="cls-3" x1="14.1" y1="27.7" x2="14.1" y2="32.74"/><line class="cls-3" x1="14.1" y1="47.1" x2="14.1" y2="52.14"/><g id="_110" data-name="110"><path d="M76.43,28.47l4.78,2.26a2.69,2.69,0,0,1,1.29,3.53l-1.93,4.23L71,33.93l1.89-4.15A2.69,2.69,0,0,1,76.43,28.47Z"/><path class="cls-1" d="M80.16,39.05l-9.35-4.43a6.24,6.24,0,0,0-8.32,3L49.8,64.37a6.25,6.25,0,0,0,3,8.32l9.35,4.43a6.26,6.26,0,0,0,8.32-3L83.13,47.37A6.25,6.25,0,0,0,80.16,39.05ZM70.6,71.9,51.43,62.82,62.61,39.23l19.17,9.09Z"/></g><path class="cls-3" d="M52.77,30.3a8,8,0,0,1,9.37-6.22"/><path class="cls-3" d="M45.05,28.18A14.8,14.8,0,0,1,62.49,16.6"/><path class="cls-3" d="M81.13,73.15a7.94,7.94,0,0,1-6.37,9.26"/><path class="cls-3" d="M89.09,72.24A14.8,14.8,0,0,1,77.22,89.48"/></svg>