<svg id="Layer_1" data-name="Layer 1" xmlns="http://www.w3.org/2000/svg" viewBox="0 0 100 100"><defs><style>.cls-1,.cls-2,.cls-3{stroke:#000;stroke-miterlimit:10;stroke-width:4px;}.cls-2,.cls-3{fill:none;}.cls-3{stroke-linecap:round;}</style></defs><g id="_177" data-name="177"><path class="cls-1" d="M43.85,84.13a4,4,0,0,1-4,4h0a4,4,0,0,1-4-4"/><path class="cls-1" d="M67,84.13a4,4,0,0,1-4,4h0a4,4,0,0,1-4-4"/><rect class="cls-2" x="32.26" y="11.95" width="38.42" height="71.74" rx="6"/><path class="cls-2" d="M32.26,42H70.68V18a6,6,0,0,0-6-6H38.26a6,6,0,0,0-6,6Z"/><line class="cls-3" x1="38.98" y1="24.17" x2="38.98" y2="31.37"/><line class="cls-3" x1="38.98" y1="51.89" x2="38.98" y2="59.08"/></g></svg>