<?xml version="1.0" encoding="utf-8"?>
<!-- Generator: Adobe Illustrator 24.0.0, SVG Export Plug-In . SVG Version: 6.00 Build 0)  -->
<svg version="1.1" id="Layer_1" xmlns="http://www.w3.org/2000/svg" xmlns:xlink="http://www.w3.org/1999/xlink" x="0px" y="0px"
	 viewBox="0 0 100 100" style="enable-background:new 0 0 100 100;" xml:space="preserve">
<g>
	<path d="M63.8,11.6H37.4c-4.4,0-8,3.6-8,8v0v26v33.7c0,2.8,1.4,5.2,3.6,6.7c0.1,3.2,2.8,5.8,6,5.8c2.8,0,5.1-1.9,5.8-4.4h11.6
		c0.7,2.6,3,4.4,5.8,4.4c3.2,0,5.8-2.5,6-5.7c2.2-1.4,3.7-3.9,3.7-6.7V45.6v-26v0C71.8,15.2,68.2,11.6,63.8,11.6z M33.4,19.6
		c0-2.2,1.8-4,4-4h26.4c2.2,0,4,1.8,4,4v22H33.4V19.6z M67.8,79.3c0,2.2-1.8,4-4,4H37.4c-2.2,0-4-1.8-4-4V45.6h34.4V79.3z"/>
	<path d="M38.1,23.8c-1.1,0-2,0.9-2,2V33c0,1.1,0.9,2,2,2s2-0.9,2-2v-7.2C40.1,24.7,39.2,23.8,38.1,23.8z"/>
	<path d="M38.1,62.7c1.1,0,2-0.9,2-2v-7.2c0-1.1-0.9-2-2-2s-2,0.9-2,2v7.2C36.1,61.8,37,62.7,38.1,62.7z"/>
</g>
</svg>
