<?xml version="1.0" encoding="utf-8"?>
<!-- Generator: Adobe Illustrator 24.0.0, SVG Export Plug-In . SVG Version: 6.00 Build 0)  -->
<svg version="1.1" id="Layer_1" xmlns="http://www.w3.org/2000/svg" xmlns:xlink="http://www.w3.org/1999/xlink" x="0px" y="0px"
	 viewBox="0 0 100 100" style="enable-background:new 0 0 100 100;" xml:space="preserve">
<g>
	<path d="M38.9,17.4H14.6h0c0,0,0,0,0,0c-4.1,0-7.4,3.3-7.4,7.4v24h0v31.1c0,2.6,1.3,4.8,3.3,6.2c0.1,2.9,2.5,5.3,5.5,5.3
		c2.5,0,4.7-1.7,5.3-4.1h10.8c0.6,2.3,2.8,4.1,5.3,4.1c2.9,0,5.4-2.3,5.5-5.2c2-1.3,3.4-3.6,3.4-6.2V48.8v-24v0c0,0,0-0.1,0-0.1
		C46.2,20.7,42.9,17.4,38.9,17.4z M38.9,21.1c2,0,3.7,1.7,3.7,3.7v20.3H10.9V24.8c0-2,1.7-3.7,3.7-3.7H38.9z M42.6,79.8
		c0,2-1.7,3.7-3.7,3.7H14.6c-2,0-3.7-1.7-3.7-3.7V48.8h31.7V79.8z"/>
	<path d="M13.4,30.5v6.6c0,1,0.8,1.8,1.8,1.8s1.8-0.8,1.8-1.8v-6.6c0-1-0.8-1.8-1.8-1.8S13.4,29.5,13.4,30.5z"/>
	<path d="M15.2,64.5c1,0,1.8-0.8,1.8-1.8V56c0-1-0.8-1.8-1.8-1.8S13.4,55,13.4,56v6.6C13.4,63.7,14.2,64.5,15.2,64.5z"/>
	<path d="M59.8,40.6C59.8,40.6,59.8,40.6,59.8,40.6c-3.4,0-6.1,2.7-6.1,6.1c0,0.7,0.5,1.2,1.2,1.2c0,0,0,0,0,0
		c0.7,0,1.2-0.5,1.2-1.2c0-2,1.6-3.6,3.7-3.7c0.7,0,1.2-0.6,1.2-1.2C61,41.1,60.4,40.6,59.8,40.6z"/>
	<path d="M50.3,47.2L50.3,47.2c0.7,0,1.2-0.6,1.2-1.2c0-4.3,3.5-7.9,7.9-7.9c0,0,0,0,0,0h0c0.7,0,1.2-0.5,1.2-1.2
		c0-0.7-0.5-1.2-1.2-1.2c0,0,0,0,0,0c-5.7,0-10.3,4.6-10.3,10.3C49.1,46.7,49.7,47.2,50.3,47.2z"/>
	<path d="M83.7,80c0-0.7-0.6-1.2-1.2-1.2s-1.2,0.6-1.2,1.2c0,2-1.6,3.6-3.6,3.6c-0.7,0-1.2,0.6-1.2,1.2s0.6,1.2,1.2,1.2
		C81,86.1,83.7,83.4,83.7,80z"/>
	<path d="M87.4,79.1L87.4,79.1c-0.7,0-1.2,0.5-1.2,1.2c0,4.3-3.5,7.9-7.9,7.9c-0.7,0-1.2,0.6-1.2,1.2s0.6,1.2,1.2,1.2
		c5.7,0,10.3-4.6,10.3-10.3C88.6,79.7,88.1,79.2,87.4,79.1z"/>
	<path d="M88.5,44l2-3.3c0.8-1.4,0.4-3.1-0.9-4l-4.9-3.1c0,0,0,0-0.1,0c-1.4-0.8-3.2-0.4-4,1l-2,3.2c-4.1-2.4-9.4-1.2-12,2.9
		L49.3,68c-1.3,2-1.7,4.4-1.2,6.7c0.5,2.3,1.9,4.2,3.8,5.5l9.6,6.1c1.5,0.9,3.1,1.4,4.7,1.4c2.9,0,5.8-1.5,7.5-4.1l17.4-27.4
		C93.7,52,92.5,46.6,88.5,44z M85.1,56.5L72,77.2L55.8,67l13.1-20.7L85.1,56.5z"/>
</g>
</svg>
