<svg id="Layer_1" data-name="Layer 1" xmlns="http://www.w3.org/2000/svg" viewBox="0 0 100 100"><defs><style>.cls-1,.cls-2{fill:none;stroke:#000;stroke-miterlimit:10;stroke-width:4px;}.cls-2{stroke-linecap:round;}</style></defs><path d="M58.63,62.84c0-2.11,2.85-6.88,4.3-9.16a1,1,0,0,1,1.65,0c1.45,2.28,4.3,7,4.3,9.16a5.13,5.13,0,1,1-10.25,0Z"/><g id="Store_at_room_temperature" data-name="Store at room temperature"><path class="cls-1" d="M79.84,38.86l.06,43.33A5.84,5.84,0,0,1,74.05,88H27.15a5.84,5.84,0,0,1-5.85-5.84l.06-43.33L46.48,13.73a5.85,5.85,0,0,1,8.25,0Z"/><path class="cls-2" d="M11.61,48.61,46.47,13.76a5.84,5.84,0,0,1,8.27,0L89.59,48.61"/><path class="cls-2" d="M75.94,35V20.41A4.39,4.39,0,0,0,71.55,16h0a4.4,4.4,0,0,0-4.4,4.4v5.76Z"/><path d="M42.16,43.42H31.71a4.51,4.51,0,0,0-4.5,4.5v27a4.51,4.51,0,0,0,4.5,4.51H42.16a4.51,4.51,0,0,0,4.51-4.51v-27A4.51,4.51,0,0,0,42.16,43.42ZM36.94,73.74a4.31,4.31,0,0,1-1.84-8.22V50.92a2,2,0,0,1,4,0V65.7a4.28,4.28,0,0,1,2.16,3.72A4.32,4.32,0,0,1,36.94,73.74Z"/></g><circle class="cls-1" cx="63.55" cy="60.89" r="12.04"/><path d="M56.42,51.2a12,12,0,0,0-2.56,2.56L70.69,70.59A12,12,0,0,0,73.25,68Z"/></svg>