<?xml version="1.0" encoding="utf-8"?>
<!-- Generator: Adobe Illustrator 24.0.0, SVG Export Plug-In . SVG Version: 6.00 Build 0)  -->
<svg version="1.1" id="Layer_1" xmlns="http://www.w3.org/2000/svg" xmlns:xlink="http://www.w3.org/1999/xlink" x="0px" y="0px"
	 viewBox="0 0 100 100" style="enable-background:new 0 0 100 100;" xml:space="preserve">
<g>
	<path d="M35.1,13.2c-5.4,0-9.9,4.5-9.9,9.9c0,1.1,0.9,2,2,2c0,0,0,0,0,0c1.1,0,2-0.9,2-2c0-3.3,2.7-5.9,6-6c1.1,0,2-0.9,2-2
		S36.1,13.2,35.1,13.2z"/>
	<path d="M19.7,24C19.7,24,19.7,24,19.7,24c1.1,0,2-0.9,2-2c0-7,5.8-12.8,12.8-12.8c1.1,0,2-0.9,2-2s-0.9-2-2-2
		c-9.3,0-16.8,7.5-16.8,16.8C17.7,23.1,18.6,24,19.7,24z"/>
	<path d="M74.1,77.4c0-1.1-0.9-2-2-2c0,0,0,0,0,0c-1.1,0-2,0.9-2,2c0,3.3-2.7,6-6,6c-1.1,0-2,0.9-2,2s0.9,2,2,2
		C69.6,87.4,74,82.9,74.1,77.4z"/>
	<path d="M80.1,76C80.1,76,80.1,76,80.1,76c-1.1,0-2,0.9-2,2c0,7.1-5.8,12.8-12.8,12.8c-1.1,0-2,0.9-2,2s0.9,2,2,2
		c9.3,0,16.8-7.5,16.8-16.8C82.1,76.9,81.2,76,80.1,76z"/>
	<path d="M75,26.4l3.6-5.8c1.3-2.1,0.6-4.8-1.4-6.1l-7.4-4.7c-2.1-1.3-4.8-0.6-6.1,1.4L60.1,17c-5.7-3.4-13.1-1.7-16.7,3.9
		L17.1,62.5c-1.8,2.8-2.3,6.1-1.6,9.3s2.7,6,5.4,7.7l14.5,9.2c2,1.3,4.3,1.9,6.6,1.9c4.1,0,8.1-2,10.4-5.7l26.2-41.6
		C82.3,37.6,80.6,30.1,75,26.4z M71.9,44.2l-21,33.1L24.6,60.7l21-33.2L71.9,44.2z"/>
</g>
</svg>
