<svg id="Layer_1" data-name="Layer 1" xmlns="http://www.w3.org/2000/svg" viewBox="0 0 100 100"><defs><style>.cls-1,.cls-2,.cls-3{stroke:#000;stroke-miterlimit:10;stroke-width:4px;}.cls-2,.cls-3{fill:none;}.cls-3{stroke-linecap:round;}</style></defs><g id="_177" data-name="177"><path class="cls-1" d="M42.81,86.76a4,4,0,0,1-4,4h0a4,4,0,0,1-4-4"/><path class="cls-1" d="M66,86.76a4,4,0,0,1-4,4h0a4,4,0,0,1-4-4"/><rect class="cls-2" x="31.22" y="14.59" width="38.42" height="71.74" rx="6"/><path class="cls-2" d="M31.22,44.63H69.64v-24a6,6,0,0,0-6-6H37.22a6,6,0,0,0-6,6Z"/><line class="cls-3" x1="37.95" y1="26.81" x2="37.95" y2="34"/><line class="cls-3" x1="37.95" y1="54.53" x2="37.95" y2="61.72"/></g></svg>