<svg id="Layer_1" data-name="Layer 1" xmlns="http://www.w3.org/2000/svg" viewBox="0 0 100 100"><defs><style>.cls-1{fill:none;stroke-width:4px;}.cls-1,.cls-2{stroke:#000;stroke-miterlimit:10;}.cls-2{stroke-width:2px;}</style></defs><circle class="cls-1" cx="52.78" cy="53.11" r="17.18"/><path class="cls-2" d="M52.78,28.45a1.38,1.38,0,0,1-1.38-1.39V20.9a1.39,1.39,0,1,1,2.77,0v6.16A1.39,1.39,0,0,1,52.78,28.45Z"/><path class="cls-2" d="M52.78,86.71a1.38,1.38,0,0,1-1.38-1.39V79.16a1.39,1.39,0,1,1,2.77,0v6.16A1.39,1.39,0,0,1,52.78,86.71Z"/><path class="cls-2" d="M71.2,36.08a1.39,1.39,0,0,1-1-2.37l4.36-4.36a1.39,1.39,0,1,1,2,2l-4.36,4.36A1.38,1.38,0,0,1,71.2,36.08Z"/><path class="cls-2" d="M30,77.27a1.38,1.38,0,0,1-1-2.36l4.36-4.36a1.39,1.39,0,1,1,2,2L31,76.87A1.4,1.4,0,0,1,30,77.27Z"/><path class="cls-2" d="M85,54.5H78.83a1.39,1.39,0,0,1,0-2.78H85a1.39,1.39,0,0,1,0,2.78Z"/><path class="cls-2" d="M26.74,54.5H20.57a1.39,1.39,0,0,1,0-2.78h6.17a1.39,1.39,0,0,1,0,2.78Z"/><path class="cls-2" d="M75.56,77.27a1.38,1.38,0,0,1-1-.4l-4.36-4.36a1.39,1.39,0,0,1,2-2l4.36,4.36a1.39,1.39,0,0,1,0,2A1.37,1.37,0,0,1,75.56,77.27Z"/><circle class="cls-1" cx="24.43" cy="24.94" r="13.77"/><path d="M16.27,13.86a13.48,13.48,0,0,0-2.92,2.92L32.6,36a13.94,13.94,0,0,0,2.92-2.92Z"/></svg>