<?xml version="1.0" encoding="utf-8"?>
<!-- Generator: Adobe Illustrator 24.0.0, SVG Export Plug-In . SVG Version: 6.00 Build 0)  -->
<svg version="1.1" id="Layer_1" xmlns="http://www.w3.org/2000/svg" xmlns:xlink="http://www.w3.org/1999/xlink" x="0px" y="0px"
	 viewBox="0 0 100 100" style="enable-background:new 0 0 100 100;" xml:space="preserve">
<g>
	<path d="M49.5,89.2c0.3,4.1,3.8,7.4,8,7.4c0,0,0,0,0,0h13.2c4.2,0,7.7-3.2,8-7.4l2.7-34.2H46.7L49.5,89.2z M77,58.9l-2.4,29.9
		c-0.2,2.1-1.9,3.7-4,3.7H57.4c0,0,0,0,0,0c-2.1,0-3.8-1.6-4-3.7l-2.4-30H77z"/>
	<path d="M64,90.3c1.1,0,2-0.9,2-2V65c0-1.1-0.9-2-2-2s-2,0.9-2,2v23.3C62,89.4,62.9,90.3,64,90.3z"/>
	<path d="M57.3,90.3c0.1,0,0.1,0,0.2,0c1.1-0.1,1.9-1.1,1.8-2.2l-2-23.2c-0.1-1.1-1.1-1.9-2.2-1.8c-1.1,0.1-1.9,1.1-1.8,2.2l2,23.2
		C55.4,89.5,56.3,90.3,57.3,90.3z"/>
	<path d="M70.7,90.3c0.1,0,0.1,0,0.2,0c1,0,1.9-0.8,2-1.8l2-23.2c0.1-1.1-0.7-2.1-1.8-2.2C72,63,71,63.8,70.9,64.9l-2,23.2
		C68.8,89.2,69.6,90.2,70.7,90.3z"/>
	<path d="M86.3,31.1l-5-3.2c0.6-2-0.1-4.2-2-5.4c-1.8-1.2-4.1-0.9-5.7,0.5l-5.1-3.3c-3-1.9-6.8-1.6-9.5,0.6l-3.1,2.6l32.6,20.9
		l1.1-3.8C90.6,36.6,89.2,33,86.3,31.1z M63,22.6c1.1-0.4,2.4-0.2,3.4,0.4l8.3,5.3l1.5-2.3c0.2-0.3,0.6-0.4,1-0.2
		c0.3,0.2,0.4,0.7,0.2,1l-1.5,2.3l8.2,5.3c1,0.7,1.7,1.7,1.8,2.9L63,22.6z"/>
	<path d="M62.6,46.7l-2.7-1.5c-1-0.5-2.2-0.2-2.7,0.8c-0.5,1-0.2,2.2,0.8,2.7l5.4,2.9c0.3,0.4,0.8,0.7,1.3,0.7l1.8,1l4.2-8.4
		c0.5-1,0.1-2.2-0.9-2.7c-1-0.5-2.2-0.1-2.7,0.9l-0.9,1.7c-0.8-3.6-2.8-8.2-7.2-11.9c-8-6.6-17.3-4.7-19-4.3
		c-1.1,0.3-1.7,1.4-1.5,2.4c0.3,1.1,1.4,1.7,2.4,1.5c0.9-0.2,8.9-2,15.5,3.5C60.5,39.5,62,43.7,62.6,46.7z"/>
	<path d="M33.2,23.3v-4.6c0-1.2-1-2.1-2.1-2.1H15.6c-1.2,0-2.1,1-2.1,2.1v4.6L12,27c-0.3,0.7-0.4,1.4-0.4,2.2v18.2
		c0,1.2,0.9,2.1,2.1,2.1h19.4c1.2,0,2.1-0.9,2.1-2.1V29.2c0-0.8-0.2-1.6-0.5-2.3L33.2,23.3z M32.2,42.3c0,1.2-0.9,2.1-2.1,2.1H16.7
		c-1.2,0-2.1-0.9-2.1-2.1V32.2c0-1.2,0.9-2.1,2.1-2.1h13.4c1.2,0,2.1,0.9,2.1,2.1V42.3z"/>
	<polygon points="25.1,32.5 21.6,32.5 21.6,35.4 18.6,35.4 18.6,38.9 21.6,38.9 21.6,41.9 25.1,41.9 25.1,38.9 28.1,38.9 28.1,35.4 
		25.1,35.4 	"/>
</g>
</svg>
