<svg id="Layer_1" data-name="Layer 1" xmlns="http://www.w3.org/2000/svg" viewBox="0 0 100 100"><defs><style>.cls-1,.cls-3,.cls-4{fill:none;}.cls-1,.cls-2,.cls-3,.cls-4{stroke:#000;stroke-miterlimit:10;}.cls-1{stroke-linecap:round;}.cls-1,.cls-2,.cls-3{stroke-width:4px;}.cls-4{stroke-width:3.48px;}</style></defs><path class="cls-1" d="M31.07,22.81C31.59,22,36.73,14.5,46.42,14c9.44-.5,15.27,6.08,15.93,6.86"/><polyline class="cls-1" points="55.65 22.39 63.07 20.49 61.07 13.48"/><path class="cls-2" d="M60.67,85h0a2.78,2.78,0,0,1-2.78-2.78h5.56A2.79,2.79,0,0,1,60.67,85Z"/><path class="cls-2" d="M76.9,85h0a2.79,2.79,0,0,1-2.79-2.78h5.57A2.79,2.79,0,0,1,76.9,85Z"/><rect class="cls-3" x="55.33" y="31.73" width="26.89" height="50.22" rx="6"/><path class="cls-3" d="M55.33,52.75h26.9V35.93a4.2,4.2,0,0,0-4.2-4.2H59.53a4.2,4.2,0,0,0-4.2,4.2Z"/><line class="cls-1" x1="60.04" y1="40.28" x2="60.04" y2="45.32"/><line class="cls-1" x1="60.04" y1="59.68" x2="60.04" y2="64.72"/><path d="M41,41.1l-1.53-3.64h0V32.87a2.13,2.13,0,0,0-2.13-2.13H21.79a2.13,2.13,0,0,0-2.13,2.13v4.59l-1.42,3.72a6.18,6.18,0,0,0-.4,2.17V61.58a2.1,2.1,0,0,0,2.09,2.09h19.4a2.1,2.1,0,0,0,2.09-2.09V43.45A6.09,6.09,0,0,0,41,41.1ZM38.44,56.54a2.09,2.09,0,0,1-2.09,2.09H22.91a2.1,2.1,0,0,1-2.09-2.09V46.37a2.1,2.1,0,0,1,2.09-2.09H36.35a2.09,2.09,0,0,1,2.09,2.09Z"/><line class="cls-4" x1="24.88" y1="51.39" x2="34.32" y2="51.39"/><line class="cls-4" x1="29.6" y1="56.11" x2="29.6" y2="46.67"/></svg>