<svg id="Layer_1" data-name="Layer 1" xmlns="http://www.w3.org/2000/svg" viewBox="0 0 100 100"><path d="M50.45,62.51A11.52,11.52,0,1,1,62,51,11.53,11.53,0,0,1,50.45,62.51Zm0-19A7.52,7.52,0,1,0,58,51,7.52,7.52,0,0,0,50.45,43.48Z"/><path d="M50.45,79.94a30,30,0,0,1-4-.28,2,2,0,0,1-1.7-2.26A2,2,0,0,1,47,75.7a25.59,25.59,0,0,0,7.1,0,2,2,0,0,1,.58,4A29.57,29.57,0,0,1,50.45,79.94ZM39.33,77.55a2,2,0,0,1-.82-.18,29,29,0,0,1-6.94-4.44,2,2,0,1,1,2.61-3,24.91,24.91,0,0,0,6,3.82,2,2,0,0,1-.83,3.83Zm22.38-.07a2,2,0,0,1-.84-3.82,24.75,24.75,0,0,0,6-3.86,2,2,0,0,1,2.63,3,28.76,28.76,0,0,1-6.92,4.47A1.9,1.9,0,0,1,61.71,77.48ZM27.84,67.64a2,2,0,0,1-1.68-.91,28.73,28.73,0,0,1-3.46-7.48,2,2,0,0,1,3.84-1.13,24.39,24.39,0,0,0,3,6.43,2,2,0,0,1-.59,2.77A1.94,1.94,0,0,1,27.84,67.64Zm45.31-.13a2,2,0,0,1-1.08-.32,2,2,0,0,1-.6-2.76A24.93,24.93,0,0,0,74.4,58a2,2,0,1,1,3.84,1.12,28.69,28.69,0,0,1-3.41,7.5A2,2,0,0,1,73.15,67.51ZM23.51,53.1a2,2,0,0,1-2-2V51a29,29,0,0,1,1.16-8.17A2,2,0,0,1,26.51,44a24.78,24.78,0,0,0-1,7v.1A2,2,0,0,1,23.51,53.1Zm53.88-.16a2,2,0,0,1-2-2,25.15,25.15,0,0,0-1-7,2,2,0,0,1,3.84-1.13,29.1,29.1,0,0,1,1.18,8.15,2,2,0,0,1-2,2ZM27.77,38.44a2.05,2.05,0,0,1-1.08-.32,2,2,0,0,1-.6-2.77,29.34,29.34,0,0,1,5.39-6.22,2,2,0,1,1,2.62,3,25.05,25.05,0,0,0-4.64,5.37A2,2,0,0,1,27.77,38.44Zm45.32,0a2,2,0,0,1-1.68-.91,25.09,25.09,0,0,0-4.66-5.36,2,2,0,1,1,2.62-3,28.85,28.85,0,0,1,5.4,6.21,2,2,0,0,1-1.68,3.08Zm-33.85-9.9a2,2,0,0,1-.84-3.82,28.71,28.71,0,0,1,7.9-2.32,2,2,0,1,1,.57,4,24.86,24.86,0,0,0-6.8,2A2,2,0,0,1,39.24,28.49Zm22.37,0a2,2,0,0,1-.83-.18,24.46,24.46,0,0,0-6.81-2,2,2,0,1,1,.56-4,28.66,28.66,0,0,1,7.91,2.31,2,2,0,0,1-.83,3.82Z"/><path d="M50.45,35.67a15.29,15.29,0,0,1,5.38,1c3-6.42,6-14.17,6-18.64,0-4.12-5.66-6.58-11.4-6.58-5.58,0-11.4,2.48-11.4,6.58,0,4.49,3.06,12.23,6,18.65A15.09,15.09,0,0,1,50.45,35.67Z"/><path d="M50.45,66.32a15.21,15.21,0,0,1-5.38-1c-3,6.42-6,14.17-6,18.63,0,4.13,5.66,6.59,11.4,6.59,5.58,0,11.4-2.48,11.4-6.59,0-4.48-3.06-12.22-6-18.64A15.09,15.09,0,0,1,50.45,66.32Z"/><path d="M83.42,39.6c-4.49,0-12.22,3.06-18.64,6a15.17,15.17,0,0,1,0,10.78c6.42,2.94,14.17,6,18.64,6C87.54,62.4,90,56.74,90,51,90,45.41,87.52,39.6,83.42,39.6Z"/><path d="M35.13,51a15.29,15.29,0,0,1,1-5.38c-6.43-2.94-14.17-6-18.64-6-4.13,0-6.58,5.65-6.58,11.39,0,5.59,2.47,11.4,6.58,11.4,4.48,0,12.22-3.06,18.64-6A15.26,15.26,0,0,1,35.13,51Z"/></svg>