<?xml version="1.0" encoding="utf-8"?>
<!-- Generator: Adobe Illustrator 24.0.0, SVG Export Plug-In . SVG Version: 6.00 Build 0)  -->
<svg version="1.1" id="Layer_1" xmlns="http://www.w3.org/2000/svg" xmlns:xlink="http://www.w3.org/1999/xlink" x="0px" y="0px"
	 viewBox="0 0 100 100" style="enable-background:new 0 0 100 100;" xml:space="preserve">
<g>
	<path d="M50.5,39.5C44.1,39.5,39,44.6,39,51c0,6.4,5.1,11.5,11.5,11.5C56.8,62.5,62,57.4,62,51C62,44.6,56.9,39.5,50.5,39.5z
		 M50.5,58.5c-4.2,0-7.5-3.3-7.5-7.5s3.3-7.5,7.5-7.5v0c0,0,0,0,0,0c4.2,0,7.5,3.4,7.5,7.5C58,55.2,54.7,58.5,50.5,58.5z"/>
	<path d="M66.8,32.2c1.8,1.6,3.4,3.4,4.7,5.4c0.4,0.6,1,0.9,1.7,0.9v0c0.4,0,0.8-0.1,1.1-0.3c0.9-0.6,1.2-1.8,0.6-2.8
		c-1.5-2.3-3.3-4.4-5.4-6.2c-0.1-0.1-0.2-0.2-0.3-0.2c-0.9-0.6-2.1-0.4-2.8,0.4S65.9,31.5,66.8,32.2z"/>
	<path d="M39.2,28.5L39.2,28.5c0.3,0,0.6-0.1,0.8-0.1c0.4-0.2,0.9-0.4,1.3-0.5c1.1,2.9,2.4,6,3.7,8.8c1.7-0.7,3.6-1,5.4-1
		c1.8,0,3.7,0.3,5.4,1c1.3-2.8,2.6-5.9,3.7-8.8c0.4,0.2,0.8,0.3,1.3,0.5c0.3,0.1,0.5,0.2,0.8,0.2v0c0.8,0,1.5-0.5,1.8-1.2
		c0.5-1,0-2.2-1-2.6c-0.5-0.2-1.1-0.5-1.7-0.7c0.6-2.3,1-4.3,1-6c0-4.1-5.7-6.6-11.4-6.6C44.8,11.5,39,13.9,39,18
		c0,1.6,0.4,3.7,1.1,6c-0.6,0.2-1.1,0.4-1.7,0.7c-0.7,0.3-1.2,1-1.2,1.8C37.2,27.7,38.1,28.5,39.2,28.5z"/>
	<path d="M66.9,69.8c-1.8,1.6-3.8,2.9-6,3.9c-0.5,0.2-0.9,0.7-1.1,1.2c-1.1-3.2-2.5-6.5-3.9-9.6c-1.7,0.7-3.6,1-5.4,1
		c-1.8,0-3.7-0.3-5.4-1c-1.4,3-2.8,6.3-3.9,9.4c-0.2-0.4-0.5-0.8-1-1c-2.2-1-4.2-2.3-6-3.8c-0.1-0.1-0.2-0.2-0.3-0.3
		c-0.9-0.6-2.2-0.4-2.8,0.5s-0.4,2.2,0.5,2.8c2.1,1.8,4.4,3.3,6.9,4.4c0.3,0.1,0.5,0.2,0.8,0.2l0,0c0.3,0,0.7-0.1,1-0.3
		c-0.8,2.5-1.2,4.8-1.2,6.6c0,4.1,5.7,6.6,11.4,6.6c5.6,0,11.4-2.5,11.4-6.6c0-1.8-0.5-4.2-1.3-6.8c0.3,0.2,0.7,0.4,1.2,0.4
		c0.3,0,0.6-0.1,0.9-0.2c2.5-1.2,4.8-2.7,6.9-4.5c0.7-0.7,0.8-1.8,0.2-2.6C69,69.3,67.8,69.1,66.9,69.8z"/>
	<path d="M26.7,38.1c0.3,0.2,0.7,0.3,1.1,0.3c0.7,0,1.3-0.4,1.7-0.9c1.3-2,2.8-3.8,4.6-5.4c0.1-0.1,0.2-0.2,0.3-0.2
		c0.8-0.8,0.7-2.1-0.1-2.8c-0.8-0.8-2.1-0.7-2.8,0.1c-2.1,1.8-3.9,3.9-5.4,6.2c0,0,0,0,0,0C25.5,36.3,25.8,37.5,26.7,38.1z"/>
	<path d="M27.2,60.1c3-1.1,6.1-2.4,8.9-3.7c-0.7-1.7-1-3.6-1-5.4c0-1.8,0.3-3.7,1-5.4c-6.4-2.9-14.2-6-18.6-6
		c-4.1,0-6.6,5.7-6.6,11.4c0,5.6,2.5,11.4,6.6,11.4c1.6,0,3.7-0.4,5.9-1.1c0.7,1.9,1.6,3.7,2.7,5.4c0.4,0.6,1,0.9,1.7,0.9
		c0.4,0,0.8-0.1,1.1-0.3c0,0,0,0,0,0c0.9-0.6,1.2-1.8,0.6-2.8C28.6,63.2,27.9,61.7,27.2,60.1z"/>
	<path d="M83.4,39.6c-4.5,0-12.2,3.1-18.6,6c1.3,3.5,1.3,7.3,0,10.8c2.8,1.3,5.9,2.6,8.9,3.7c-0.6,1.5-1.3,3-2.2,4.4
		c-0.6,0.9-0.3,2.2,0.6,2.8c0.3,0.2,0.7,0.3,1.1,0.3c0.7,0,1.3-0.3,1.7-0.9c1.1-1.7,2-3.4,2.7-5.3c2.3,0.7,4.3,1.1,5.9,1.1
		c4.1,0,6.6-5.6,6.6-11.4C90,45.4,87.5,39.6,83.4,39.6z"/>
</g>
</svg>
