<svg id="Layer_1" data-name="Layer 1" xmlns="http://www.w3.org/2000/svg" viewBox="0 0 100 100"><defs><style>.cls-1,.cls-2,.cls-3{fill:none;stroke:#000;stroke-miterlimit:10;}.cls-1,.cls-2{stroke-width:4px;}.cls-2{stroke-linecap:round;}.cls-3{stroke-width:3.48px;}</style></defs><path class="cls-1" d="M70.64,94.54H57.45a6,6,0,0,1-6-5.52L48.91,56.91H79.18L76.62,89A6,6,0,0,1,70.64,94.54Z"/><line class="cls-2" x1="64.05" y1="65.02" x2="64.05" y2="88.3"/><line class="cls-2" x1="55.31" y1="65.07" x2="57.34" y2="88.26"/><line class="cls-2" x1="72.9" y1="65.07" x2="70.88" y2="88.26"/><path class="cls-1" d="M85.2,32.73l-6.55-4.19.4-.63a2.71,2.71,0,0,0-.82-3.74h0a2.71,2.71,0,0,0-3.74.82l-.4.63-6.63-4.24a6,6,0,0,0-7.13.49l-1,.82,28,17.93.34-1.22A6,6,0,0,0,85.2,32.73Z"/><path class="cls-2" d="M40.51,30.73c.92-.23,9.79-2.3,17.27,3.88,7.3,6,7.14,14.81,7.11,15.82"/><polyline class="cls-2" points="58.91 47.04 65.66 50.66 68.92 44.13"/><path d="M34.72,26.9l-1.53-3.64h0V18.67a2.13,2.13,0,0,0-2.13-2.13H15.56a2.13,2.13,0,0,0-2.13,2.13v4.59L12,27a6.18,6.18,0,0,0-.4,2.17V47.38a2.1,2.1,0,0,0,2.1,2.09H33.1a2.09,2.09,0,0,0,2.09-2.09V29.25A6.09,6.09,0,0,0,34.72,26.9ZM32.21,42.34a2.09,2.09,0,0,1-2.09,2.09H16.68a2.1,2.1,0,0,1-2.09-2.09V32.17a2.1,2.1,0,0,1,2.09-2.09H30.12a2.09,2.09,0,0,1,2.09,2.09Z"/><line class="cls-3" x1="18.65" y1="37.19" x2="28.1" y2="37.19"/><line class="cls-3" x1="23.37" y1="41.91" x2="23.37" y2="32.47"/></svg>