<?xml version="1.0" encoding="utf-8"?>
<!-- Generator: Adobe Illustrator 24.0.0, SVG Export Plug-In . SVG Version: 6.00 Build 0)  -->
<svg version="1.1" id="Layer_1" xmlns="http://www.w3.org/2000/svg" xmlns:xlink="http://www.w3.org/1999/xlink" x="0px" y="0px"
	 viewBox="0 0 100 100" style="enable-background:new 0 0 100 100;" xml:space="preserve">
<g>
	<path d="M48.2,82.2c0.3,4.1,3.8,7.4,8,7.4c0,0,0,0,0,0h13.2c4.1,0,7.6-3.2,8-7.4l2.7-34.3H45.5L48.2,82.2z M75.7,51.9l-2.4,29.9
		c-0.2,2.1-1.9,3.7-4,3.7H56.2c0,0,0,0,0,0c-2.1,0-3.8-1.6-4-3.7l-2.4-30H75.7z"/>
	<path d="M62.8,83.3c1.1,0,2-0.9,2-2V58c0-1.1-0.9-2-2-2s-2,0.9-2,2v23.3C60.8,82.4,61.7,83.3,62.8,83.3z"/>
	<path d="M56.1,83.2c0.1,0,0.1,0,0.2,0c1.1-0.1,1.9-1.1,1.8-2.2l-2-23.2c-0.1-1.1-1.1-1.9-2.2-1.8c-1.1,0.1-1.9,1.1-1.8,2.2l2,23.2
		C54.2,82.5,55,83.2,56.1,83.2z"/>
	<path d="M69.4,83.2c0.1,0,0.1,0,0.2,0c1,0,1.9-0.8,2-1.8l2-23.2c0.1-1.1-0.7-2.1-1.8-2.2c-1.1-0.1-2.1,0.7-2.2,1.8l-2,23.2
		C67.5,82.2,68.3,83.1,69.4,83.2z"/>
	<path d="M85,24l-5-3.2c0.6-2-0.1-4.2-1.9-5.3c-1.8-1.2-4.2-0.9-5.7,0.5l-5.1-3.3c-3-1.9-6.8-1.6-9.5,0.6l-3.1,2.6l32.6,20.9
		l1.1-3.8C89.3,29.5,88,26,85,24z M61.7,15.6c1.1-0.4,2.4-0.2,3.4,0.4l8.3,5.3l1.4-2.3L75,19c0.2-0.3,0.6-0.3,0.9-0.1
		c0.3,0.2,0.4,0.7,0.2,1l-1.5,2.3l8.2,5.3c1,0.7,1.7,1.7,1.8,2.9L61.7,15.6z"/>
	<path d="M61.3,39.7l-2.7-1.5c-1-0.5-2.2-0.2-2.7,0.8c-0.5,1-0.2,2.2,0.8,2.7l5.4,2.9c0.3,0.4,0.8,0.7,1.4,0.7l1.8,1l4.2-8.4
		c0.5-1,0.1-2.2-0.9-2.7c-1-0.5-2.2-0.1-2.7,0.9L65,37.9c-0.8-3.6-2.8-8.2-7.2-11.9c-8-6.6-17.3-4.7-19-4.3
		c-1.1,0.3-1.7,1.4-1.5,2.4c0.3,1.1,1.4,1.7,2.4,1.5c0.9-0.2,8.9-2,15.5,3.5C59.2,32.4,60.8,36.7,61.3,39.7z"/>
	<path d="M22.1,12.5c-4.8,0-8.2,2.1-8.2,5.1v29.3c0,0.8,0,2.4,5.8,7.1c1.3,0.9,3.1,0.9,4.5,0c5.9-4.7,5.9-6.3,5.9-7.1
		c0-1.6,0.2-26.7,0.2-28.9c0-0.1,0-0.2,0-0.3C30.3,14.6,26.8,12.5,22.1,12.5z M22.1,21.3c-0.7-0.5-1.4-1.1-2.1-1.7h0
		c-0.3-0.3-0.7-0.6-1-1c0,0,0,0-0.1-0.1c-0.3-0.3-0.6-0.7-0.9-1.1c0.3-0.2,0.6-0.4,0.9-0.5c1-0.4,2-0.6,3.1-0.6
		c1.4-0.1,2.9,0.3,4.1,1.1c-0.5,0.6-1,1.1-1.5,1.6c-0.2,0.2-0.4,0.4-0.6,0.5h0C23.5,20.3,22.8,20.8,22.1,21.3z M17.9,46.6V23.1
		c0.6,0.5,1.2,1,2,1.6l0.3,0.2v24.2C19.3,48.3,18.5,47.5,17.9,46.6z M24.1,48.8v-24l0.2-0.1c0.7-0.6,1.4-1.1,2-1.6
		c-0.1,7.8-0.2,21.3-0.2,23.5C25.5,47.4,24.8,48.1,24.1,48.8z"/>
</g>
</svg>
