<svg id="Layer_1" data-name="Layer 1" xmlns="http://www.w3.org/2000/svg" viewBox="0 0 100 100"><defs><style>.cls-1,.cls-2,.cls-3{stroke:#000;stroke-miterlimit:10;stroke-width:4px;}.cls-2,.cls-3{fill:none;}.cls-3{stroke-linecap:round;}</style></defs><g id="_177" data-name="177"><path class="cls-1" d="M35.06,85.34H43a0,0,0,0,1,0,0v.43a4,4,0,0,1-4,4h0a4,4,0,0,1-4-4v-.43a0,0,0,0,1,0,0Z"/><path class="cls-1" d="M58.24,85.34h7.94a0,0,0,0,1,0,0v.43a4,4,0,0,1-4,4h0a4,4,0,0,1-4-4v-.43A0,0,0,0,1,58.24,85.34Z"/><rect class="cls-2" x="31.41" y="13.59" width="38.42" height="71.74" rx="6"/><path class="cls-2" d="M31.41,43.63H69.83v-24a6,6,0,0,0-6-6H37.41a6,6,0,0,0-6,6Z"/><line class="cls-3" x1="38.13" y1="25.82" x2="38.13" y2="33.01"/><line class="cls-3" x1="38.13" y1="53.53" x2="38.13" y2="60.72"/></g></svg>