<svg id="Layer_1" data-name="Layer 1" xmlns="http://www.w3.org/2000/svg" viewBox="0 0 100 100"><defs><style>.cls-1,.cls-2{fill:none;stroke-width:4px;}.cls-1,.cls-2,.cls-3{stroke:#000;stroke-miterlimit:10;}.cls-2{stroke-linecap:round;}</style></defs><circle class="cls-1" cx="23.94" cy="28.88" r="13.77"/><path d="M15.78,17.8a13.7,13.7,0,0,0-2.92,2.92L32.11,40A13.94,13.94,0,0,0,35,37.05Z"/><path class="cls-1" d="M16.17,66.4H89.83a0,0,0,0,1,0,0V81.29a0,0,0,0,1,0,0H16.17a6,6,0,0,1-6-6V72.4A6,6,0,0,1,16.17,66.4Z"/><path d="M16.17,66.4a6,6,0,0,0-6,6v2.89a6,6,0,0,0,6,6H39.59V66.4Z"/><line class="cls-1" x1="82.83" y1="66.4" x2="82.83" y2="81.29"/><line class="cls-1" x1="75.83" y1="66.4" x2="75.83" y2="81.29"/><path class="cls-2" d="M71.94,26.61H68.73a4.07,4.07,0,0,0-4.07,4.07h0a4.07,4.07,0,0,0,4.07,4.07h9.83A3.22,3.22,0,0,1,81.78,38h0a3.22,3.22,0,0,1-3.22,3.22h-4a3.66,3.66,0,0,0-3.67,3.66h0a3.67,3.67,0,0,0,3.67,3.67h7.31a3,3,0,0,1,3,3v2.95"/><path class="cls-3" d="M42.55,34.6S36,40.11,41.93,48c4.88,6.57,15.54,4.66,18.49-2.74A11.81,11.81,0,0,0,61,38.54c-.44-2.1-1.83-3.74-2.34-5.78a4.55,4.55,0,0,1,0-2s-2.47.64-2.71,4.81c-.32,5.45-2.63-.88-3.31-4a44.92,44.92,0,0,1-.88-6.81,9.72,9.72,0,0,0-4.93,5.3c-1.6,4.29.2,9.49-.86,11.21C44.16,41.65,42.55,34.6,42.55,34.6Z"/></svg>