<svg id="Layer_1" data-name="Layer 1" xmlns="http://www.w3.org/2000/svg" viewBox="0 0 100 100"><defs><style>.cls-1,.cls-2,.cls-3{stroke:#000;stroke-miterlimit:10;stroke-width:4px;}.cls-2,.cls-3{fill:none;}.cls-3{stroke-linecap:round;}</style></defs><path class="cls-1" d="M59.84,83.12a3.35,3.35,0,0,1-3.35,3.35h0a3.35,3.35,0,0,1-3.34-3.35v-2"/><path class="cls-1" d="M79.35,81.08v2A3.35,3.35,0,0,1,76,86.47h0a3.35,3.35,0,0,1-3.35-3.35"/><rect class="cls-2" x="50.08" y="22.38" width="32.33" height="60.38" rx="5.05"/><path class="cls-2" d="M50.08,47.66H82.42V27.43a5,5,0,0,0-5-5.05H55.13a5,5,0,0,0-5.05,5.05Z"/><line class="cls-3" x1="55.74" y1="32.66" x2="55.74" y2="38.72"/><line class="cls-3" x1="55.74" y1="55.99" x2="55.74" y2="62.04"/><path d="M22.76,32.79V21.35a.65.65,0,0,1,.18-.46,29.65,29.65,0,0,0,4.61-6.14,25.84,25.84,0,0,0,1.71-4.38,1.83,1.83,0,0,1,1.33-1.28A2.87,2.87,0,0,1,31.44,9a1.89,1.89,0,0,1,1.76,1.34,7,7,0,0,1-.39,4.73c-.65,1.56-1.67,3.38-1.45,4.18s5.59.66,7.33.57a2.17,2.17,0,0,1,1.76.73,2.12,2.12,0,0,1,.5,1.3,2.54,2.54,0,0,1-1.62,2.33,2.63,2.63,0,0,1,.7,1.94A2.14,2.14,0,0,1,38.31,28a2.06,2.06,0,0,1,.62,2,2.29,2.29,0,0,1-1.58,1.8,3.61,3.61,0,0,1,0,1.41,2.13,2.13,0,0,1-1.76,1.49c-.58.08-6.29,0-8.27,0a3.81,3.81,0,0,1-1.29-.23l-2.87-1A.68.68,0,0,1,22.76,32.79Z"/><path d="M18.84,20.7h-3.5A2.35,2.35,0,0,0,13,23v9.17a2.36,2.36,0,0,0,2.35,2.35h3.5a2.35,2.35,0,0,0,2.34-2.35V23A2.34,2.34,0,0,0,18.84,20.7Zm-.12,11.91A1.32,1.32,0,1,1,20,31.29,1.32,1.32,0,0,1,18.72,32.61Z"/></svg>