<svg id="Layer_1" data-name="Layer 1" xmlns="http://www.w3.org/2000/svg" viewBox="0 0 100 100"><defs><style>.cls-1,.cls-2{fill:none;stroke:#000;stroke-miterlimit:10;}.cls-1{stroke-linecap:round;stroke-width:5.2px;}.cls-2{stroke-width:4.53px;}</style></defs><line class="cls-1" x1="50.04" y1="11.38" x2="50.04" y2="31.76"/><polyline class="cls-1" points="42.23 25.01 50.04 31.76 57.84 25.01"/><path d="M69,53.51l-2.48-5.93h0V40.11A3.47,3.47,0,0,0,63,36.64H37.77a3.46,3.46,0,0,0-3.46,3.47v7.48l-2.31,6a9.75,9.75,0,0,0-.66,3.54V86.87a3.41,3.41,0,0,0,3.41,3.4H66.34a3.4,3.4,0,0,0,3.4-3.4V57.34A9.89,9.89,0,0,0,69,53.51ZM64.9,78.66a3.41,3.41,0,0,1-3.41,3.41H39.6a3.41,3.41,0,0,1-3.41-3.41V62.11A3.41,3.41,0,0,1,39.6,58.7H61.49a3.41,3.41,0,0,1,3.41,3.41Z"/><line class="cls-2" x1="42.81" y1="70.27" x2="58.19" y2="70.27"/><line class="cls-2" x1="50.5" y1="77.96" x2="50.5" y2="62.58"/></svg>