<svg id="Layer_1" data-name="Layer 1" xmlns="http://www.w3.org/2000/svg" viewBox="0 0 100 100"><defs><style>.cls-1,.cls-2{fill:none;stroke:#000;stroke-miterlimit:10;stroke-width:4px;}.cls-2{stroke-linecap:round;}</style></defs><g id="Store_at_room_temperature" data-name="Store at room temperature"><path class="cls-1" d="M80.29,38.46l.06,44.45a6,6,0,0,1-6,6H26.23a6,6,0,0,1-6-6l.06-44.45L46.06,12.67a6,6,0,0,1,8.46,0Z"/><path class="cls-2" d="M10.29,48.46,46,12.7a6,6,0,0,1,8.49,0L90.29,48.46"/><path class="cls-2" d="M76.29,34.46V19.52A4.5,4.5,0,0,0,71.78,15h0a4.5,4.5,0,0,0-4.51,4.5v5.92Z"/><path d="M58.66,38.34H41.92a6,6,0,0,0-6,6V75.53a6,6,0,0,0,6,6H58.66a6,6,0,0,0,6-6V44.34A6,6,0,0,0,58.66,38.34ZM50.29,74.75a5.19,5.19,0,0,1-1.8-10V47.35a2,2,0,0,1,4,0V64.87a5.18,5.18,0,0,1-2.2,9.88ZM60.71,55.13H56.54a2,2,0,0,1,0-4h4.17a2,2,0,0,1,0,4Zm0-6H56.54a2,2,0,0,1,0-4h4.17a2,2,0,0,1,0,4Z"/></g></svg>