<?xml version="1.0" encoding="utf-8"?>
<!-- Generator: Adobe Illustrator 24.2.3, SVG Export Plug-In . SVG Version: 6.00 Build 0)  -->
<svg version="1.1" id="Layer_1" xmlns="http://www.w3.org/2000/svg" xmlns:xlink="http://www.w3.org/1999/xlink" x="0px" y="0px"
	 viewBox="0 0 100 100" style="enable-background:new 0 0 100 100;" xml:space="preserve">
<g>
	<path d="M91.7,47l-9.4-9.4v0l-4-4V19.5c0-3.6-2.9-6.5-6.5-6.5c0,0,0,0,0,0c-3.6,0-6.5,2.9-6.5,6.5v1.1l-9.3-9.3
		c-1.8-1.8-4.2-2.5-6.5-2.3c-0.1,0-0.3,0-0.4,0.1c-0.1,0-0.2,0-0.3,0c-1.6,0.3-3,1.1-4.2,2.2L8.9,47c-0.8,0.8-0.8,2,0,2.8
		c0.8,0.8,2,0.8,2.8,0l6.6-6.6l-0.1,39.6c0,4.4,3.6,8,8,8h48.1c4.4,0,8-3.6,8-8l-0.1-39.6l6.6,6.6c0.4,0.4,0.9,0.6,1.4,0.6
		s1-0.2,1.4-0.6C92.5,49.1,92.5,47.8,91.7,47z M69.3,19.5c0-1.4,1.1-2.5,2.5-2.5c0,0,0,0,0,0c1.4,0,2.5,1.1,2.5,2.5v10.1l-5-5V19.5z
		 M78.3,82.9c0,2.2-1.8,4-4,4H26.2c-2.2,0-4-1.8-4-4l0.1-43.6l25.2-25.2c0.4-0.4,0.8-0.7,1.3-0.9c0,0,0.1,0,0.1,0
		c0.2-0.1,0.4-0.1,0.6-0.2c0.2,0,0.5-0.1,0.8-0.1c0,0,0,0,0,0c1.1,0,2.1,0.4,2.8,1.2l25.2,25.2L78.3,82.9z"/>
	<path d="M35.9,44.3v31.2c0,3.3,2.7,6,6,6h16.7c3.3,0,6-2.7,6-6c0,0,0,0,0,0V44.3c0-3.3-2.7-6-6-6h0H41.9
		C38.6,38.3,35.9,41,35.9,44.3z M56.5,45.1h4.2c1.1,0,2,0.9,2,2s-0.9,2-2,2h-4.2c-1.1,0-2-0.9-2-2S55.4,45.1,56.5,45.1z M56.5,51.1
		h4.2c1.1,0,2,0.9,2,2s-0.9,2-2,2h-4.2c-1.1,0-2-0.9-2-2S55.4,51.1,56.5,51.1z M48.5,64.8V47.3c0-1.1,0.9-2,2-2s2,0.9,2,2v17.5
		c2.6,1.2,3.7,4.3,2.5,6.9c-0.9,1.8-2.7,3-4.7,3c-2.9-0.1-5.1-2.5-5-5.3C45.3,67.4,46.6,65.5,48.5,64.8z"/>
</g>
</svg>
