<svg id="Layer_1" data-name="Layer 1" xmlns="http://www.w3.org/2000/svg" viewBox="0 0 100 100"><defs><style>.cls-1,.cls-2{fill:none;stroke:#000;stroke-miterlimit:10;stroke-width:4px;}.cls-2{stroke-linecap:round;}</style></defs><g id="Store_at_room_temperature" data-name="Store at room temperature"><path class="cls-1" d="M80,39.06l.06,44.45a6,6,0,0,1-6,6H25.94a6,6,0,0,1-6-6L20,39.06,45.77,13.27a6,6,0,0,1,8.46,0Z"/><path class="cls-2" d="M10,49.06,45.76,13.3a6,6,0,0,1,8.48,0L90,49.06"/><path class="cls-2" d="M76,35.06V20.13a4.51,4.51,0,0,0-4.51-4.51h0A4.51,4.51,0,0,0,67,20.13V26Z"/><path d="M58.37,38.94H41.63a6,6,0,0,0-6,6V76.13a6,6,0,0,0,6,6H58.37a6,6,0,0,0,6-6V44.94A6,6,0,0,0,58.37,38.94ZM50,75.35a5.18,5.18,0,0,1-1.8-10V48a2,2,0,0,1,4,0V65.47A5.18,5.18,0,0,1,50,75.35ZM60.42,55.74H56.26a2,2,0,0,1,0-4h4.16a2,2,0,0,1,0,4Zm0-6H56.26a2,2,0,0,1,0-4h4.16a2,2,0,0,1,0,4Z"/></g></svg>