<?xml version="1.0" encoding="utf-8"?>
<!-- Generator: Adobe Illustrator 24.2.3, SVG Export Plug-In . SVG Version: 6.00 Build 0)  -->
<svg version="1.1" id="Layer_1" xmlns="http://www.w3.org/2000/svg" xmlns:xlink="http://www.w3.org/1999/xlink" x="0px" y="0px"
	 viewBox="0 0 100 100" style="enable-background:new 0 0 100 100;" xml:space="preserve">
<g>
	<path d="M32.1,45.7c0.2,0.9,1,1.5,1.9,1.5c0.2,0,0.3,0,0.5-0.1l6.6-1.7l4.5,2.6l-4.5,2.6L34.5,49c-1.1-0.3-2.2,0.4-2.4,1.4
		c-0.3,1.1,0.4,2.2,1.4,2.4l5.4,1.4c0,0,0,0,0,0c0,0,0,0,0,0l-1.5,5.4c-0.3,1.1,0.3,2.2,1.4,2.5c0.2,0.1,0.4,0.1,0.5,0.1
		c0.9,0,1.7-0.6,1.9-1.5l1.8-6.6l4.5-2.6v5.2l-4.8,4.9c-0.8,0.8-0.8,2.1,0,2.8c0.8,0.8,2.1,0.8,2.8,0l3.9-4c0,0,0,0,0,0s0,0,0,0
		l3.9,4c0.4,0.4,0.9,0.6,1.4,0.6c0.5,0,1-0.2,1.4-0.6c0.8-0.8,0.8-2,0-2.8l-4.8-4.9v-5.2l4.5,2.6l1.8,6.6c0.2,0.9,1.1,1.5,1.9,1.5
		c0.2,0,0.4,0,0.5-0.1c1.1-0.3,1.7-1.4,1.4-2.5l-1.5-5.4c0,0,0,0,0,0c0,0,0,0,0,0l5.4-1.4c1.1-0.3,1.7-1.4,1.4-2.4
		c-0.3-1.1-1.4-1.7-2.4-1.4l-6.6,1.7l-4.5-2.6l4.5-2.6l6.6,1.7c0.2,0,0.3,0.1,0.5,0.1c0.9,0,1.7-0.6,1.9-1.5
		c0.3-1.1-0.4-2.2-1.4-2.4l-5.3-1.4c0,0,0-0.1,0-0.1c0,0,0-0.1-0.1-0.1l1.5-5.3c0.3-1.1-0.3-2.2-1.4-2.5c-1.1-0.3-2.2,0.3-2.5,1.4
		L56.1,42l-4.5,2.6v-5.2l4.8-4.9c0.8-0.8,0.8-2.1,0-2.8c-0.8-0.8-2.1-0.8-2.8,0l-3.8,3.9c0,0-0.1,0-0.1,0s-0.1,0-0.1,0l-3.8-3.9
		c-0.8-0.8-2-0.8-2.8,0c-0.8,0.8-0.8,2,0,2.8l4.8,4.9v5.2L43.1,42l-1.9-6.6c-0.3-1.1-1.4-1.7-2.5-1.4c-1.1,0.3-1.7,1.4-1.4,2.5
		l1.5,5.3c0,0,0,0.1-0.1,0.1c0,0,0,0.1,0,0.1l-5.3,1.4C32.4,43.6,31.8,44.7,32.1,45.7z"/>
	<path d="M66.4,10.5H32.3c-4.4,0-8,3.6-8,8v4.3v2v47v2v4.4c0,4.3,3.4,7.8,7.6,8c0.7,2.6,3,4.4,5.8,4.4c2.8,0,5.1-1.9,5.8-4.4h11.6
		c0.7,2.5,3,4.4,5.8,4.4c2.8,0,5.1-1.9,5.8-4.4c4.3-0.2,7.7-3.7,7.7-8v-4.4v-2v-47v-2v-4.3C74.4,14.1,70.8,10.5,66.4,10.5z
		 M70.4,71.8H28.3v-47h42.1V71.8z"/>
</g>
</svg>
