<?xml version="1.0" encoding="utf-8"?>
<!-- Generator: Adobe Illustrator 24.0.0, SVG Export Plug-In . SVG Version: 6.00 Build 0)  -->
<svg version="1.1" id="Layer_1" xmlns="http://www.w3.org/2000/svg" xmlns:xlink="http://www.w3.org/1999/xlink" x="0px" y="0px"
	 viewBox="0 0 100 100" style="enable-background:new 0 0 100 100;" xml:space="preserve">
<g>
	<path d="M64.7,10H38.3c-4.4,0-8,3.6-8,8v0v26v33.7c0,2.8,1.4,5.2,3.6,6.7c0.1,3.2,2.8,5.8,6,5.8c2.8,0,5.1-1.9,5.8-4.4h11.6
		c0.7,2.6,3,4.4,5.8,4.4c3.2,0,5.8-2.5,6-5.7c2.2-1.4,3.7-3.9,3.7-6.7V44V18v0C72.7,13.5,69.1,10,64.7,10z M34.3,18c0-2.2,1.8-4,4-4
		h26.4c2.2,0,4,1.8,4,4v22H34.3V18z M68.7,77.7c0,2.2-1.8,4-4,4H38.3c-2.2,0-4-1.8-4-4V44h34.4V77.7z"/>
	<path d="M39,22.2c-1.1,0-2,0.9-2,2v7.2c0,1.1,0.9,2,2,2s2-0.9,2-2v-7.2C41,23.1,40.1,22.2,39,22.2z"/>
	<path d="M39,61.1c1.1,0,2-0.9,2-2v-7.2c0-1.1-0.9-2-2-2s-2,0.9-2,2v7.2C37,60.2,37.9,61.1,39,61.1z"/>
</g>
</svg>
