<svg id="Layer_1" data-name="Layer 1" xmlns="http://www.w3.org/2000/svg" viewBox="0 0 100 100"><defs><style>.cls-1,.cls-2,.cls-3{fill:none;stroke:#000;stroke-miterlimit:10;}.cls-1,.cls-2{stroke-width:4px;}.cls-2{stroke-linecap:round;}.cls-3{stroke-width:3.48px;}</style></defs><path class="cls-1" d="M70.85,89H57.66a6,6,0,0,1-6-5.52L49.12,51.37H79.39L76.83,83.48A6,6,0,0,1,70.85,89Z"/><line class="cls-2" x1="64.26" y1="59.48" x2="64.26" y2="82.76"/><line class="cls-2" x1="55.52" y1="59.52" x2="57.55" y2="82.71"/><line class="cls-2" x1="73.11" y1="59.52" x2="71.08" y2="82.71"/><path class="cls-1" d="M85.41,27.19,78.86,23l.4-.62a2.71,2.71,0,0,0-.82-3.74h0a2.7,2.7,0,0,0-3.74.82l-.4.63-6.64-4.24a6,6,0,0,0-7.12.48l-1,.83,28,17.93L88,33.86A6,6,0,0,0,85.41,27.19Z"/><path class="cls-2" d="M40.72,25.19c.92-.23,9.79-2.3,17.27,3.88,7.3,6,7.14,14.8,7.11,15.82"/><polyline class="cls-2" points="59.12 41.5 65.87 45.11 69.13 38.59"/><path d="M34.93,21.35,33.4,17.72h0V13.13A2.13,2.13,0,0,0,31.26,11H15.77a2.13,2.13,0,0,0-2.13,2.13v4.59l-1.42,3.72a6.14,6.14,0,0,0-.4,2.17V41.84a2.1,2.1,0,0,0,2.09,2.09h19.4a2.1,2.1,0,0,0,2.09-2.09V23.71A6.17,6.17,0,0,0,34.93,21.35ZM32.42,36.8a2.09,2.09,0,0,1-2.09,2.09H16.89A2.1,2.1,0,0,1,14.8,36.8V26.63a2.1,2.1,0,0,1,2.09-2.09H30.33a2.09,2.09,0,0,1,2.09,2.09Z"/><line class="cls-3" x1="18.86" y1="31.65" x2="28.3" y2="31.65"/><line class="cls-3" x1="23.58" y1="36.37" x2="23.58" y2="26.92"/></svg>