<?xml version="1.0" encoding="utf-8"?>
<!-- Generator: Adobe Illustrator 24.0.0, SVG Export Plug-In . SVG Version: 6.00 Build 0)  -->
<svg version="1.1" id="Layer_1" xmlns="http://www.w3.org/2000/svg" xmlns:xlink="http://www.w3.org/1999/xlink" x="0px" y="0px"
	 viewBox="0 0 100 100" style="enable-background:new 0 0 100 100;" xml:space="preserve">
<g>
	<path d="M52.8,33.9c-10.6,0-19.2,8.6-19.2,19.2s8.6,19.2,19.2,19.2S72,63.7,72,53.1S63.4,33.9,52.8,33.9z M52.8,68.3
		c-8.4,0-15.2-6.8-15.2-15.2c0-8.4,6.8-15.2,15.2-15.2c8.4,0,15.2,6.8,15.2,15.2C68,61.5,61.2,68.3,52.8,68.3z"/>
	<path d="M52.8,29.5c1.3,0,2.4-1.1,2.4-2.4l0-6.1c0-0.1,0-0.3,0-0.4c-0.1-1.3-1.3-2.3-2.6-2.2c-1.3,0.1-2.3,1.3-2.2,2.5v6.2
		C50.4,28.4,51.5,29.5,52.8,29.5z"/>
	<path d="M55.2,78.8c-0.1-0.6-0.4-1.2-0.8-1.6c-0.5-0.4-1.1-0.6-1.7-0.6c-1.3,0.1-2.3,1.3-2.2,2.5v6.2c0,1.3,1.1,2.4,2.4,2.4
		c1.3,0,2.4-1.1,2.4-2.4l0-6.1C55.2,79.1,55.2,79,55.2,78.8z"/>
	<path d="M71.3,37.1c0.6,0,1.2-0.2,1.7-0.7l4.4-4.4c0.5-0.5,0.7-1.1,0.7-1.7s-0.3-1.3-0.7-1.7c-0.9-0.9-2.5-0.9-3.4,0L69.5,33
		c-0.4,0.5-0.7,1.1-0.7,1.7c0,0.6,0.3,1.2,0.7,1.7C70,36.9,70.6,37.1,71.3,37.1z"/>
	<path d="M32.7,69.8l-4.4,4.4c-0.5,0.5-0.7,1.1-0.7,1.7c0,0.6,0.3,1.2,0.7,1.7c0.4,0.4,1,0.7,1.6,0.7c0,0,0,0,0,0
		c0.6,0,1.2-0.2,1.7-0.7l4.4-4.3c0.5-0.5,0.7-1.1,0.7-1.7c0-0.6-0.3-1.3-0.7-1.7C35.1,68.9,33.6,68.9,32.7,69.8z"/>
	<path d="M86.7,51.4c-0.5-0.5-1.1-0.7-1.7-0.7h-6.2c-1.3,0-2.4,1.1-2.4,2.4c0,0.6,0.2,1.2,0.7,1.7s1.1,0.7,1.7,0.7H85h0
		c1.3,0,2.4-1.1,2.4-2.4C87.4,52.5,87.1,51.9,86.7,51.4z"/>
	<path d="M29.1,53.1c0-1.3-1.1-2.4-2.4-2.4h-6.2c-1.3,0-2.4,1.1-2.4,2.4c0,1.3,1.1,2.4,2.4,2.4h6.2h0C28.1,55.5,29.1,54.4,29.1,53.1
		z"/>
	<path d="M72.9,69.8c-0.9-0.9-2.5-0.9-3.4,0c-0.5,0.5-0.7,1.1-0.7,1.7c0,0.6,0.3,1.3,0.7,1.7l4.4,4.4c0.4,0.4,1.1,0.7,1.7,0.7
		c0,0,0,0,0.1,0c0.6,0,1.2-0.3,1.7-0.7c0.4-0.5,0.7-1.1,0.7-1.7c0-0.6-0.3-1.2-0.7-1.7L72.9,69.8z"/>
	<path d="M40.2,24.9c0-8.7-7.1-15.8-15.8-15.8S8.7,16.2,8.7,24.9s7.1,15.8,15.8,15.8S40.2,33.6,40.2,24.9z M36.2,24.9
		c0,2.5-0.8,4.8-2.1,6.7L17.7,15.3c1.9-1.3,4.2-2.1,6.7-2.1C30.9,13.2,36.2,18.4,36.2,24.9z M12.7,24.9c0-2.5,0.8-4.8,2.1-6.7
		l16.4,16.4c-1.9,1.3-4.2,2.1-6.7,2.1C17.9,36.7,12.7,31.4,12.7,24.9z"/>
</g>
</svg>
