<svg id="Layer_1" data-name="Layer 1" xmlns="http://www.w3.org/2000/svg" viewBox="0 0 100 100"><defs><style>.cls-1,.cls-2,.cls-3{stroke:#000;stroke-miterlimit:10;stroke-width:4px;}.cls-2,.cls-3{fill:none;}.cls-3{stroke-linecap:round;}</style></defs><g id="_177" data-name="177"><path class="cls-1" d="M40,89.59h0a4,4,0,0,1-4-4H44A4,4,0,0,1,40,89.59Z"/><path class="cls-1" d="M63.18,89.59h0a4,4,0,0,1-4-4h8A4,4,0,0,1,63.18,89.59Z"/><rect class="cls-2" x="32.37" y="13.44" width="38.42" height="71.74" rx="6"/><path class="cls-2" d="M32.37,43.48H70.79v-24a6,6,0,0,0-6-6H38.37a6,6,0,0,0-6,6Z"/><line class="cls-3" x1="39.1" y1="25.66" x2="39.1" y2="32.86"/><line class="cls-3" x1="39.1" y1="53.38" x2="39.1" y2="60.57"/></g></svg>