<?xml version="1.0" encoding="utf-8"?>
<!-- Generator: Adobe Illustrator 24.0.0, SVG Export Plug-In . SVG Version: 6.00 Build 0)  -->
<svg version="1.1" id="Layer_1" xmlns="http://www.w3.org/2000/svg" xmlns:xlink="http://www.w3.org/1999/xlink" x="0px" y="0px"
	 viewBox="0 0 100 100" style="enable-background:new 0 0 100 100;" xml:space="preserve">
<g>
	<path d="M84.4,27.5c0-3.9-3.1-7-6.9-7.1h-0.1c0,0,0,0,0,0H55.1c-0.4,0-0.7,0-1.1,0.1c-0.1,0-0.2,0-0.3,0c-0.1,0-0.1,0-0.2,0
		c-1.3,0.3-2.4,0.9-3.4,1.8c-1.3,1.3-2.1,3.1-2.1,4.9v0.1v22.2v28c0,2.4,1.2,4.6,3.1,5.8c0.2,2.7,2.5,4.9,5.3,4.9
		c2.4,0,4.4-1.6,5.1-3.7h9.4c0.7,2.1,2.7,3.7,5.1,3.7c1.4,0,2.8-0.6,3.8-1.6c0.9-0.9,1.4-2.1,1.5-3.3c1.9-1.3,3.1-3.4,3.1-5.8v-28h0
		V27.5z M54.4,24.5c0.1,0,0.1,0,0.2,0c0.2,0,0.4-0.1,0.6-0.1l22.2,0c1.7,0,3,1.4,3,3v18.2H52.1V27.4C52.1,26,53.1,24.8,54.4,24.5z
		 M80.4,77.7c0,1.7-1.4,3-3,3H55.1c-1.7,0-3-1.4-3-3v-28h28.3V77.7z"/>
	<path d="M55.7,40.7c1.1,0,2-0.9,2-2v-6.1c0-1.1-0.9-2-2-2s-2,0.9-2,2v6.1C53.7,39.8,54.6,40.7,55.7,40.7z"/>
	<path d="M55.7,64c1.1,0,2-0.9,2-2v-6c0-1.1-0.9-2-2-2s-2,0.9-2,2v6C53.7,63.1,54.6,64,55.7,64z"/>
	<path d="M38.7,19.8c-1.7,0.1-7.1,0.2-7.3-0.6c-0.2-0.8,0.8-2.6,1.5-4.2c0.7-1.5,0.8-3.2,0.4-4.7C33,9.6,32.3,9,31.4,9
		c-0.3,0-0.6,0-0.8,0.1c-0.6,0.2-1.2,0.6-1.3,1.3c-0.4,1.5-1,3-1.7,4.4c-1.3,2.2-2.8,4.3-4.6,6.1c-0.1,0.1-0.2,0.3-0.2,0.5v11.4
		c0,0.3,0.1,0.6,0.4,0.7l2.9,1c0.4,0.2,0.8,0.2,1.3,0.2c2,0,7.7,0.1,8.3,0c0.8-0.1,1.5-0.7,1.8-1.5c0.1-0.5,0.1-0.9,0-1.4
		c0.8-0.3,1.4-1,1.6-1.8c0.2-0.7-0.1-1.5-0.6-2c0.9-0.2,1.6-0.9,1.7-1.9c0-0.7-0.2-1.4-0.7-1.9c1-0.4,1.6-1.3,1.6-2.3
		c0-0.5-0.2-0.9-0.5-1.3C40,20,39.4,19.8,38.7,19.8z"/>
	<path d="M18.8,20.7h-3.5c-1.3,0-2.3,1-2.3,2.3v9.2c0,1.3,1.1,2.3,2.3,2.4h3.5c1.3,0,2.3-1.1,2.3-2.4V23
		C21.2,21.7,20.1,20.7,18.8,20.7z M18.7,32.6c-0.7,0-1.3-0.6-1.4-1.3c0-0.7,0.6-1.3,1.3-1.4s1.3,0.6,1.4,1.3c0,0,0,0,0,0
		C20,32,19.4,32.6,18.7,32.6z"/>
</g>
</svg>
