<svg id="Layer_1" data-name="Layer 1" xmlns="http://www.w3.org/2000/svg" viewBox="0 0 100 100"><defs><style>.cls-1,.cls-2,.cls-3,.cls-4{fill:none;stroke:#000;stroke-miterlimit:10;}.cls-1{stroke-width:6.75px;}.cls-2{stroke-width:3.48px;}.cls-3{stroke-width:3.7px;}.cls-4{stroke-width:3.07px;}</style></defs><path d="M69.62,22.65l-2.54-6.06h0V9A3.55,3.55,0,0,0,63.51,5.4H37.72A3.55,3.55,0,0,0,34.17,9v7.64l-2.36,6.19a10.18,10.18,0,0,0-.66,3.62V56.75a3.48,3.48,0,0,0,3.48,3.49h32.3a3.48,3.48,0,0,0,3.48-3.49V26.57A10.13,10.13,0,0,0,69.62,22.65ZM65.45,48.36A3.48,3.48,0,0,1,62,51.84H39.58a3.48,3.48,0,0,1-3.48-3.48V31.44A3.48,3.48,0,0,1,39.58,28H62a3.48,3.48,0,0,1,3.48,3.48Z"/><line class="cls-1" x1="42.87" y1="39.79" x2="58.59" y2="39.79"/><line class="cls-1" x1="50.73" y1="47.65" x2="50.73" y2="31.92"/><path d="M69,58a1.12,1.12,0,0,1,.93.49,1.15,1.15,0,0,1,.12,1l-3.61,9.29a2.24,2.24,0,0,1-2.11,1.45h-.09a2.22,2.22,0,0,1-2.08-1.61L61.66,67,56.31,81.33a2.26,2.26,0,0,1-2.12,1.47h-.11A2.26,2.26,0,0,1,52,81.12L48.14,66.7l-.49.74a2.19,2.19,0,0,1-1.88,1h-.05a2.23,2.23,0,0,1-1.9-1.11l-.48-.8-2.69,7.09a2.24,2.24,0,0,1-2.12,1.45h0a2.21,2.21,0,0,1-2.1-1.53L31.6,59.51A1.13,1.13,0,0,1,32.67,58H69m0-3.87H32.67a5,5,0,0,0-4.73,6.61l4.79,14.07A6.16,6.16,0,0,0,38.43,79h.1a6.09,6.09,0,0,0,5.74-4l1-2.7.34,0h0l2.62,9.79a6.14,6.14,0,0,0,5.64,4.54h.29a6.16,6.16,0,0,0,5.75-4l3.22-8.63a5.63,5.63,0,0,0,.92.1h.25a6.11,6.11,0,0,0,5.72-3.91L73.66,61A5,5,0,0,0,69,54.14Z"/><path class="cls-2" d="M66.62,77.43c-.66,0-1.28.44-2.17,2.57a11.16,11.16,0,0,0-.88,3.19,3.05,3.05,0,1,0,6.1,0A11.16,11.16,0,0,0,68.79,80C67.9,77.87,67.28,77.43,66.62,77.43Z"/><path class="cls-3" d="M37.77,82.92c-.7,0-1.36.46-2.31,2.73A12.22,12.22,0,0,0,34.53,89,3.24,3.24,0,0,0,41,89a12.22,12.22,0,0,0-.93-3.39C39.13,83.38,38.47,82.92,37.77,82.92Z"/><path class="cls-4" d="M53.89,89.7c-.58,0-1.13.39-1.91,2.28a9.8,9.8,0,0,0-.78,2.8,2.69,2.69,0,1,0,5.38,0,9.84,9.84,0,0,0-.77-2.8C55,90.09,54.47,89.7,53.89,89.7Z"/></svg>