<svg id="Layer_1" data-name="Layer 1" xmlns="http://www.w3.org/2000/svg" viewBox="0 0 100 100"><defs><style>.cls-1,.cls-2,.cls-3,.cls-4,.cls-5{stroke:#000;stroke-miterlimit:10;}.cls-1,.cls-2,.cls-3{stroke-width:4px;}.cls-2,.cls-3,.cls-4,.cls-5{fill:none;}.cls-3,.cls-4{stroke-linecap:round;}.cls-4{stroke-width:3.14px;}.cls-5{stroke-width:3.48px;}</style></defs><path class="cls-1" d="M65.37,90.16h0a2.78,2.78,0,0,1-2.78-2.78v-.7h5.56v.7A2.77,2.77,0,0,1,65.37,90.16Z"/><path class="cls-1" d="M78.82,86.68h5.56a0,0,0,0,1,0,0v.7a2.78,2.78,0,0,1-2.78,2.78h0a2.78,2.78,0,0,1-2.78-2.78v-.7A0,0,0,0,1,78.82,86.68Z"/><rect class="cls-2" x="60.04" y="36.46" width="26.89" height="50.22" rx="6"/><path class="cls-2" d="M60,57.49H86.93V40.66a4.2,4.2,0,0,0-4.2-4.2H64.24a4.2,4.2,0,0,0-4.2,4.2Z"/><line class="cls-3" x1="64.74" y1="45.02" x2="64.74" y2="50.05"/><line class="cls-3" x1="64.74" y1="64.42" x2="64.74" y2="69.45"/><path class="cls-4" d="M29.84,55c.25-.75,2.78-7.84,9.94-10.78a14.3,14.3,0,0,1,13.09,1.07"/><polyline class="cls-4" points="48.14 48.26 53.35 44.86 50.63 40.03"/><path d="M39.73,69.46l-1.52-3.63h0V61.24a2.12,2.12,0,0,0-2.12-2.13H20.57a2.12,2.12,0,0,0-2.12,2.13v4.59L17,69.54a6,6,0,0,0-.4,2.17V90A2.09,2.09,0,0,0,18.72,92H38.11A2.09,2.09,0,0,0,40.2,90V71.82A6.17,6.17,0,0,0,39.73,69.46Zm-2.5,15.45A2.1,2.1,0,0,1,35.14,87H21.7a2.09,2.09,0,0,1-2.09-2.09V74.74a2.09,2.09,0,0,1,2.09-2.09H35.14a2.1,2.1,0,0,1,2.09,2.09Z"/><line class="cls-5" x1="23.67" y1="79.75" x2="33.11" y2="79.75"/><line class="cls-5" x1="28.39" y1="84.48" x2="28.39" y2="75.03"/><path d="M16.6,45l-.24.1h0l-4.59,0a2.13,2.13,0,0,0-2.14,2.11L9.56,62.71a2.12,2.12,0,0,0,2.12,2.14l4.59,0,.24.1Z"/><circle class="cls-2" cx="23.94" cy="25.01" r="13.77"/><path d="M15.78,13.93a13.48,13.48,0,0,0-2.92,2.92L32.11,36.1A13.94,13.94,0,0,0,35,33.18Z"/></svg>