<svg id="Layer_1" data-name="Layer 1" xmlns="http://www.w3.org/2000/svg" viewBox="0 0 100 100"><defs><style>.cls-1,.cls-2,.cls-3,.cls-4,.cls-5{stroke:#000;stroke-miterlimit:10;}.cls-1,.cls-2,.cls-3{stroke-width:3.68px;}.cls-2,.cls-3,.cls-4{fill:none;}.cls-3,.cls-4{stroke-linecap:round;}.cls-4{stroke-width:2.46px;}.cls-5{stroke-width:4px;}</style></defs><path class="cls-1" d="M19.7,85.75A3.66,3.66,0,0,1,16,89.41h0a3.66,3.66,0,0,1-3.66-3.66"/><path class="cls-1" d="M41.06,85.75a3.66,3.66,0,0,1-3.66,3.66h0a3.66,3.66,0,0,1-3.66-3.66"/><rect class="cls-2" x="9.03" y="19.26" width="35.39" height="66.09" rx="5.53"/><path class="cls-2" d="M9,46.93H44.42V24.79a5.54,5.54,0,0,0-5.53-5.53H14.55A5.53,5.53,0,0,0,9,24.79Z"/><line class="cls-3" x1="15.22" y1="30.52" x2="15.22" y2="37.15"/><line class="cls-3" x1="15.22" y1="56.05" x2="15.22" y2="62.68"/><path class="cls-4" d="M59.77,41.82a4.89,4.89,0,0,0-4.88,4.88"/><path class="cls-4" d="M59.44,36.91a9.09,9.09,0,0,0-9.1,9.1"/><path class="cls-4" d="M82.5,80a4.88,4.88,0,0,1-4.88,4.88"/><path class="cls-4" d="M87.41,80.38a9.1,9.1,0,0,1-9.1,9.09"/><g id="_110" data-name="110"><path d="M84.68,33.6l4.89,3.09a2.92,2.92,0,0,1,.93,4L87.85,45,78,38.81l2.61-4.26A2.92,2.92,0,0,1,84.68,33.6Z"/><path class="cls-5" d="M87.33,45.58l-9.56-6a6.83,6.83,0,0,0-9.42,2.13L51,69.07a6.82,6.82,0,0,0,2.12,9.42l9.57,6a6.83,6.83,0,0,0,9.42-2.12L89.46,55A6.84,6.84,0,0,0,87.33,45.58ZM72.63,80,53,67.6,68.26,43.47,87.87,55.86Z"/></g></svg>