<svg id="Layer_1" data-name="Layer 1" xmlns="http://www.w3.org/2000/svg" viewBox="0 0 100 100"><defs><style>.cls-1,.cls-3{fill:none;}.cls-1,.cls-2,.cls-3{stroke:#000;stroke-miterlimit:10;stroke-width:4px;}.cls-3{stroke-linecap:round;}</style></defs><g id="_177" data-name="177"><circle class="cls-1" cx="24.73" cy="25.66" r="13.77"/><path d="M16.56,14.58a13.7,13.7,0,0,0-2.92,2.92L32.89,36.75a13.7,13.7,0,0,0,2.92-2.92Z"/><path class="cls-2" d="M54.92,88.59h0a4,4,0,0,1-4-4h7.94A4,4,0,0,1,54.92,88.59Z"/><path class="cls-2" d="M78.1,88.59h0a4,4,0,0,1-4-4h7.94A4,4,0,0,1,78.1,88.59Z"/><rect class="cls-1" x="47.3" y="12.44" width="38.42" height="71.74" rx="6"/><path class="cls-1" d="M47.3,42.48H85.72v-24a6,6,0,0,0-6-6H53.3a6,6,0,0,0-6,6Z"/><line class="cls-3" x1="54.02" y1="24.66" x2="54.02" y2="31.86"/><line class="cls-3" x1="54.02" y1="52.38" x2="54.02" y2="59.57"/></g></svg>