<svg id="Layer_1" data-name="Layer 1" xmlns="http://www.w3.org/2000/svg" viewBox="0 0 100 100"><defs><style>.cls-1,.cls-2,.cls-3,.cls-4{stroke:#000;stroke-miterlimit:10;stroke-width:4px;}.cls-2{fill:none;}.cls-2,.cls-3,.cls-4{stroke-linecap:round;}.cls-4{fill:#fff;}</style></defs><g id="_343" data-name="343"><path class="cls-1" d="M33.77,82.26h7.94a0,0,0,0,1,0,0v2.43a4,4,0,0,1-4,4h0a4,4,0,0,1-4-4V82.26A0,0,0,0,1,33.77,82.26Z"/><path class="cls-1" d="M57,82.26H64.9a0,0,0,0,1,0,0v2.43a4,4,0,0,1-4,4h0a4,4,0,0,1-4-4V82.26A0,0,0,0,1,57,82.26Z"/><line class="cls-2" x1="49.62" y1="37.65" x2="49.62" y2="58.39"/><polyline class="cls-2" points="44.26 33.13 49.62 38.62 54.98 33.13"/><polyline class="cls-2" points="44.26 63 49.62 57.51 54.98 63"/><line class="cls-2" x1="40.6" y1="42.86" x2="58.56" y2="53.23"/><polyline class="cls-2" points="34.01 45.24 41.44 43.34 39.37 35.96"/><polyline class="cls-2" points="59.87 60.17 57.8 52.79 65.23 50.89"/><line class="cls-2" x1="58.64" y1="42.86" x2="40.68" y2="53.23"/><polyline class="cls-2" points="59.87 35.96 57.8 43.34 65.23 45.24"/><polyline class="cls-2" points="34.01 50.89 41.44 52.79 39.37 60.17"/><path class="cls-3" d="M26.28,78.26a6,6,0,0,0,6,6H66.39a6,6,0,0,0,6-6V73.84H26.28Z"/><path class="cls-3" d="M66.39,12.52H32.28a6,6,0,0,0-6,6v4.27H72.39V18.52A6,6,0,0,0,66.39,12.52Z"/><line class="cls-4" x1="72.39" y1="22.79" x2="72.39" y2="73.84"/><line class="cls-4" x1="26.28" y1="22.79" x2="26.28" y2="73.84"/></g></svg>