<?xml version="1.0" encoding="utf-8"?>
<!-- Generator: Adobe Illustrator 24.0.0, SVG Export Plug-In . SVG Version: 6.00 Build 0)  -->
<svg version="1.1" id="Layer_1" xmlns="http://www.w3.org/2000/svg" xmlns:xlink="http://www.w3.org/1999/xlink" x="0px" y="0px"
	 viewBox="0 0 100 100" style="enable-background:new 0 0 100 100;" xml:space="preserve">
<path d="M91.6,50.2c0-22.1-17.9-40-40-40c-11.1,0-21.1,4.5-28.3,11.8c0,0-0.1,0.1-0.1,0.1c-0.1,0.1-0.1,0.1-0.1,0.2
	C16,29.4,11.6,39.3,11.6,50.2c0,22.1,17.9,40,40,40c10.9,0,20.7-4.4,27.9-11.4c0.1,0,0.1-0.1,0.2-0.1c0,0,0.1-0.1,0.1-0.1
	C87.1,71.3,91.6,61.2,91.6,50.2z M87.6,50.2c0,9.3-3.5,17.8-9.3,24.2l-8.1-8.1c0.1-0.8,0.2-1.6,0.2-2.4V32.7c0-3.3-2.7-5.9-5.9-5.9
	c-0.3,0-0.6,0-0.9,0.1v-0.3c0-3.3-2.6-6-5.9-6c0,0,0,0-0.1,0h-0.1c-0.9,0-1.8,0.2-2.6,0.6c-0.8-0.9-1.9-1.6-3.2-1.8
	c-0.4-0.1-0.8-0.1-1.1-0.1l0,0.2c-1.5,0-3,0.6-4.1,1.6c-0.2,0.2-0.4,0.5-0.6,0.7c-0.6-0.2-1.3-0.3-1.9-0.3c-3.3,0-6,2.7-6,6v6.5
	L27.4,23.5c6.4-5.8,14.9-9.3,24.2-9.3C71.5,14.2,87.6,30.3,87.6,50.2z M39.4,47.1v7.1c0,0.5,0.4,0.9,0.9,1h0.1c0.6,0,1-0.4,1-1v-11
	l5.1,5.1c0.1,0.1,0.2,0.2,0.3,0.3L66.2,68c-1.8,6-7.3,10.3-13.8,10.3c-1,0-2,0-3.1-0.2c-7.5-0.7-13.5-6.6-14.5-14.1
	c-0.2-1.2-0.2-2.3-0.2-3.5V47.2c0-1.2,0.8-2.2,1.9-2.5c0.2,0,0.3-0.1,0.5-0.1C38.3,44.7,39.4,45.7,39.4,47.1z M46.4,42.4l-4.9-4.9
	v-10c0-1.3,1.1-2.4,2.5-2.4c1.3-0.1,2.5,1,2.5,2.3c0,0,0,0,0,0L46.4,42.4z M48.3,44.4l-0.1-19.2c0-1.3,1-2.3,2.3-2.3c0,0,0,0,0,0
	l0-0.1c0.2,0,0.3,0,0.5,0.1c1.1,0.2,1.9,1.2,1.8,2.3L53,47.1c0,0.6,0.4,1,1,1s1-0.4,1-1V26.7c0-1.4,1.1-2.5,2.5-2.5h0.1
	c1.3,0,2.4,1.1,2.4,2.4V48c0,0.6,0.4,1,1,1s1-0.4,1-1V32.8c0-1.2,0.8-2.2,1.9-2.5c0.2,0,0.3,0,0.5,0c1.3,0,2.4,1.1,2.4,2.4v30.2
	L48.3,44.4z M15.6,50.2c0-9.1,3.4-17.5,9-23.8l13.2,13.2v1.6c-0.3,0-0.6-0.1-0.9-0.1c-0.4,0-0.8,0-1.2,0.1C33,41.9,31,44.3,31,47.2
	v13.3c0,1.3,0.1,2.7,0.3,4c1.1,9.1,8.5,16.3,17.7,17.1c1.2,0.1,2.3,0.2,3.4,0.2c7.5,0,13.9-4.6,16.6-11.1l6.4,6.4
	c-6.4,5.6-14.7,9-23.8,9C31.8,86.2,15.6,70,15.6,50.2z"/>
</svg>
