<svg id="Layer_1" data-name="Layer 1" xmlns="http://www.w3.org/2000/svg" viewBox="0 0 100 100"><defs><style>.cls-1,.cls-2,.cls-3{stroke:#000;stroke-miterlimit:10;stroke-width:4px;}.cls-2,.cls-3{fill:none;}.cls-3{stroke-linecap:round;}</style></defs><g id="_177" data-name="177"><path class="cls-1" d="M34.94,84.68h7.94a0,0,0,0,1,0,0v.43a4,4,0,0,1-4,4h0a4,4,0,0,1-4-4v-.43A0,0,0,0,1,34.94,84.68Z"/><path class="cls-1" d="M58.12,84.68h7.94a0,0,0,0,1,0,0v.43a4,4,0,0,1-4,4h0a4,4,0,0,1-4-4v-.43A0,0,0,0,1,58.12,84.68Z"/><rect class="cls-2" x="31.29" y="12.94" width="38.42" height="71.74" rx="6"/><path class="cls-2" d="M31.29,43H69.71v-24a6,6,0,0,0-6-6H37.29a6,6,0,0,0-6,6Z"/><line class="cls-3" x1="38.01" y1="25.16" x2="38.01" y2="32.35"/><line class="cls-3" x1="38.01" y1="52.87" x2="38.01" y2="60.07"/></g></svg>