<?xml version="1.0" encoding="utf-8"?>
<!-- Generator: Adobe Illustrator 24.0.0, SVG Export Plug-In . SVG Version: 6.00 Build 0)  -->
<svg version="1.1" id="Layer_1" xmlns="http://www.w3.org/2000/svg" xmlns:xlink="http://www.w3.org/1999/xlink" x="0px" y="0px"
	 viewBox="0 0 100 100" style="enable-background:new 0 0 100 100;" xml:space="preserve">
<g>
	<path d="M48,80.2c0.1,0.9,0.5,1.7,1.2,2.4c0.8,0.8,1.8,1.2,3,1.2c0,0,0,0,0,0c1.1,0,2.2-0.4,3-1.2c0.4-0.4,0.6-0.8,0.8-1.2h5.3
		c0.2,0.5,0.5,0.9,0.9,1.2c0.8,0.8,1.8,1.2,3,1.2c0,0,0,0,0,0c1.1,0,2.2-0.4,3-1.2c0.6-0.6,1-1.5,1.2-2.4c1.3-1,2.1-2.5,2.1-4.2V58
		V42.5v0c0,0,0-0.1,0-0.1c0-0.3,0-0.7-0.1-1c0,0,0,0,0,0c-0.2-1-0.7-1.9-1.4-2.7c-0.7-0.7-1.5-1.1-2.4-1.4c-0.1,0-0.2-0.1-0.3-0.1
		c-0.1,0-0.3,0-0.4,0c-0.2,0-0.4-0.1-0.7-0.1h0H51.2c-3,0-5.4,2.4-5.4,5.4V58v18C45.9,77.7,46.7,79.2,48,80.2z M49.9,42.5
		c0-0.8,0.6-1.4,1.4-1.4H66c0,0,0,0,0,0c0.2,0,0.3,0,0.5,0.1c0,0,0,0,0.1,0c0.1,0.1,0.3,0.1,0.4,0.2c0,0,0,0,0.1,0.1
		c0.1,0.1,0.2,0.2,0.2,0.4c0,0,0,0,0,0.1c0.1,0.2,0.1,0.3,0.1,0.5V54H49.9V42.5z M67.4,58v18c0,0.8-0.6,1.4-1.4,1.4H51.2
		c-0.8,0-1.4-0.6-1.4-1.4V58H67.4z"/>
	<path d="M51.6,44.5c-0.8,0-1.5,0.7-1.5,1.5v4c0,0.8,0.7,1.5,1.5,1.5c0.8,0,1.5-0.7,1.5-1.5v-4C53.1,45.2,52.5,44.5,51.6,44.5z"/>
	<path d="M51.6,67.1c0.8,0,1.5-0.7,1.5-1.5v-4c0-0.8-0.7-1.5-1.5-1.5c-0.8,0-1.5,0.7-1.5,1.5v4C50.1,66.4,50.8,67.1,51.6,67.1z"/>
	<path d="M73.2,14.2H40.4c-0.5,0-1,0.1-1.4,0.3v-0.3L38,15c0,0-0.1,0-0.1,0.1L24.4,26.3l-1.6,1.3h0.5c-0.3,0.6-0.5,1.2-0.5,1.9v56
		c0,2.2,1.8,4,4,4h46.4c2.2,0,4-1.8,4-4V18.2C77.2,16,75.4,14.2,73.2,14.2z M73.2,85.4H26.8v-56l2.3-1.9H39v-8.2l1.4-1.2h32.8V85.4z
		"/>
	<path d="M33.5,34c-1.4,0-2.6,1.1-2.6,2.5c0,1.4,1.1,2.6,2.5,2.6c1.4,0,2.6-1.1,2.6-2.5c0,0,0,0,0-0.1C36,35.1,34.9,34,33.5,34z"/>
	<path d="M33.5,47C33.5,47,33.5,47,33.5,47c-1.4,0-2.6,1.1-2.6,2.5s1.1,2.6,2.5,2.6c1.4,0,2.6-1.1,2.6-2.5C36,48.2,34.9,47,33.5,47z
		"/>
	<path d="M33.4,60.1c-1.4,0-2.6,1.1-2.6,2.5c0,1.4,1.1,2.6,2.5,2.6c1.4,0,2.6-1.1,2.6-2.5c0,0,0,0,0,0C36,61.2,34.9,60.1,33.4,60.1z
		"/>
	<path d="M33.4,73.1c-1.4,0-2.6,1.1-2.6,2.5c0,1.4,1.1,2.6,2.5,2.6c1.4,0,2.6-1.1,2.6-2.5c0,0,0,0,0,0C36,74.3,34.9,73.1,33.4,73.1z
		"/>
</g>
</svg>
