<?xml version="1.0" encoding="utf-8"?>
<!-- Generator: Adobe Illustrator 24.0.0, SVG Export Plug-In . SVG Version: 6.00 Build 0)  -->
<svg version="1.1" id="Layer_1" xmlns="http://www.w3.org/2000/svg" xmlns:xlink="http://www.w3.org/1999/xlink" x="0px" y="0px"
	 viewBox="0 0 100 100" style="enable-background:new 0 0 100 100;" xml:space="preserve">
<g>
	<path d="M91,47.2l-9.3-9.3l-3.7-3.7V20.4c0-3.5-2.8-6.4-6.4-6.4c-3.5,0-6.4,2.9-6.4,6.4v0.9l-9-9c-3.1-3-8-3-11.1,0L19.4,38l0,0
		l-9.2,9.2c-0.8,0.8-0.8,2,0,2.8c0.8,0.8,2,0.8,2.8,0l6.3-6.3l-0.1,38.5c0,2.1,0.8,4.1,2.3,5.5c1.5,1.5,3.4,2.3,5.5,2.3c0,0,0,0,0,0
		H74c0,0,0,0,0,0c4.3,0,7.8-3.5,7.8-7.8l-0.1-38.5l6.3,6.3c0.4,0.4,0.9,0.6,1.4,0.6s1-0.2,1.4-0.6C91.8,49.2,91.8,48,91,47.2z
		 M69.2,20.4c0-1.3,1.1-2.4,2.4-2.4c1.3,0,2.4,1.1,2.4,2.4v9.7l-4.8-4.8V20.4z M74.1,86C74.1,86,74.1,86,74.1,86H27.1c0,0,0,0,0,0
		c-1,0-2-0.4-2.7-1.1c-0.7-0.7-1.1-1.7-1.1-2.7l0.1-42.5l24.5-24.5c0.7-0.7,1.7-1.1,2.7-1.1c0,0,0,0,0,0c1,0,2,0.4,2.7,1.1
		l14.2,14.2l10.3,10.4l0.1,42.4C77.9,84.3,76.2,86,74.1,86z"/>
	<path d="M42.2,43.4H31.7c-2.5,0-4.5,2-4.5,4.5v27c0,2.5,2,4.5,4.5,4.5h10.4c2.5,0,4.5-2,4.5-4.5v-27C46.7,45.4,44.6,43.4,42.2,43.4
		z M36.9,73.7c-2.4,0-4.3-1.9-4.3-4.3c0-1.7,1-3.2,2.5-3.9V50.9c0-1.1,0.9-2,2-2c1.1,0,2,0.9,2,2v14.8c1.3,0.8,2.2,2.2,2.2,3.7
		C41.3,71.8,39.3,73.7,36.9,73.7z"/>
	<path d="M63.5,46.9c-7.7,0-14,6.3-14,14c0,7.7,6.3,14,14,14s14-6.3,14-14C77.6,53.1,71.3,46.9,63.5,46.9z M53.5,60.9
		c0-2.1,0.7-4.1,1.8-5.7l4.4,4.4c-0.6,1.3-1,2.5-1,3.3c0,0.2,0,0.3,0,0.5c0.1,2.8,2.5,5,5.4,4.9c1.2-0.1,2.2-0.5,3.1-1.2l2.2,2.2
		c-1.6,1.1-3.6,1.8-5.7,1.8C58,70.9,53.5,66.4,53.5,60.9z M71.8,66.6l-3-3c0-0.2,0.1-0.5,0-0.8c0-2.2-2.8-6.9-4.3-9.2
		c-0.1-0.1-0.2-0.2-0.3-0.3c-0.5-0.3-1.1-0.2-1.4,0.3c-0.4,0.7-1,1.5-1.5,2.5l-3.6-3.6c1.6-1.1,3.6-1.8,5.7-1.8c5.5,0,10,4.5,10,10
		C73.6,63,72.9,65,71.8,66.6z"/>
</g>
</svg>
