<?xml version="1.0" encoding="utf-8"?>
<!-- Generator: Adobe Illustrator 24.0.0, SVG Export Plug-In . SVG Version: 6.00 Build 0)  -->
<svg version="1.1" id="Layer_1" xmlns="http://www.w3.org/2000/svg" xmlns:xlink="http://www.w3.org/1999/xlink" x="0px" y="0px"
	 viewBox="0 0 100 100" style="enable-background:new 0 0 100 100;" xml:space="preserve">
<g>
	<path d="M32.1,17.1h-1.8H15.4h-1.8c-3.4,0-6.2,2.8-6.2,6.2v1.8v17v21.2c0,2.3,1,4.4,2.6,5.9l0,0.4c0,2.6,2.1,4.7,4.7,4.8h0.1
		c2,0,3.8-1.3,4.5-3.1h7.3c0.7,1.8,2.4,3.1,4.5,3.1h0c2.6,0,4.8-2.1,4.8-4.8v-0.5c1.5-1.5,2.5-3.5,2.5-5.8V42.2h0V23.4
		C38.3,19.9,35.5,17.1,32.1,17.1z M30.3,21.1c2.2,0,4,1.8,4,4v13H11.4v-13c0-2.2,1.8-4,4-4H30.3z M34.3,63.4c0,2.2-1.8,4-4,4H15.4
		c-2.2,0-4-1.8-4-4V42.2h22.9V63.4z"/>
	<path d="M12.1,27.7v5c0,1.1,0.9,2,2,2s2-0.9,2-2v-5c0-1.1-0.9-2-2-2S12.1,26.6,12.1,27.7z"/>
	<path d="M14.1,54.1c1.1,0,2-0.9,2-2v-5c0-1.1-0.9-2-2-2s-2,0.9-2,2v5C12.1,53.2,13,54.1,14.1,54.1z"/>
	<path d="M81.1,37.3l1.4-3c0.6-1.3,0-2.9-1.3-3.5l-4.8-2.3c-1.3-0.6-2.9,0-3.5,1.3l-1.4,3c-2-0.9-4.1-1-6.2-0.3
		c-2.1,0.7-3.7,2.2-4.7,4.3L48,63.5c-0.9,2-1,4.2-0.3,6.3c0.7,1.9,2.1,3.5,3.9,4.5l9.7,4.6c1.1,0.5,2.3,0.8,3.5,0.8
		c3.1,0,6.1-1.8,7.5-4.7l12.7-26.8C86.9,44.2,85.1,39.3,81.1,37.3z M79.1,49.3l-9.5,20l-15.6-7.4l9.5-20L79.1,49.3z"/>
	<path d="M50.8,29.9c-0.2,1.1,0.5,2.1,1.5,2.4c0.1,0,0.3,0,0.4,0c0.9,0,1.8-0.6,2-1.6c0.7-3.2,3.8-5.3,7-4.7
		c1.1,0.2,2.1-0.5,2.3-1.6c0.2-1.1-0.5-2.1-1.6-2.3C57.2,21.1,51.9,24.6,50.8,29.9z"/>
	<path d="M62,18.5l0.5-1.9l0.4-2c-9.1-1.8-18,4.1-19.8,13.1c-0.2,1.1,0.5,2.1,1.6,2.4c0.1,0,0.3,0,0.4,0c0.9,0,1.8-0.7,2-1.6
		C48.4,21.7,55.2,17.2,62,18.5z"/>
	<path d="M81.5,80.2c1.5-2.2,2.1-4.8,1.6-7.4c-0.2-1.1-1.2-1.8-2.3-1.6c-1.1,0.2-1.8,1.2-1.6,2.3c0.3,1.6,0,3.1-0.9,4.4
		c-0.9,1.3-2.3,2.2-3.9,2.5c-1.1,0.2-1.8,1.3-1.6,2.3c0.2,1,1,1.6,2,1.6c0.1,0,0.2,0,0.4,0C77.8,83.9,80,82.4,81.5,80.2z"/>
	<path d="M91.1,71.9c-0.2-1.1-1.2-1.8-2.3-1.6c-1.1,0.2-1.8,1.2-1.6,2.3c0.6,3.4-0.1,6.8-2,9.6c-1.9,2.8-4.9,4.7-8.2,5.3l0.7,3.9
		c4.4-0.8,8.2-3.3,10.8-7C90.9,80.8,91.9,76.3,91.1,71.9z"/>
</g>
</svg>
