<?xml version="1.0" encoding="utf-8"?>
<!-- Generator: Adobe Illustrator 24.2.3, SVG Export Plug-In . SVG Version: 6.00 Build 0)  -->
<svg version="1.1" id="Layer_1" xmlns="http://www.w3.org/2000/svg" xmlns:xlink="http://www.w3.org/1999/xlink" x="0px" y="0px"
	 viewBox="0 0 100 100" style="enable-background:new 0 0 100 100;" xml:space="preserve">
<g>
	<path d="M57.6,91c-4.1,0-7.6-3.2-8-7.4L47,49.4h34.6l-2.7,34.3c-0.3,4.1-3.8,7.4-8,7.4H57.6C57.7,91,57.6,91,57.6,91z M51.3,53.4
		l2.4,30c0.2,2.1,1.9,3.7,4,3.7c0,0,0,0,0,0h13.2c2.1,0,3.8-1.6,4-3.7l2.4-30H51.3z"/>
	<path d="M64.3,84.8c-1.1,0-2-0.9-2-2V59.5c0-1.1,0.9-2,2-2s2,0.9,2,2v23.3C66.3,83.9,65.4,84.8,64.3,84.8z"/>
	<path d="M57.5,84.7c-1,0-1.9-0.8-2-1.8l-2-23.2c-0.1-1.1,0.7-2.1,1.8-2.2c1.1-0.1,2.1,0.7,2.2,1.8l2,23.2c0.1,1.1-0.7,2.1-1.8,2.2
		C57.7,84.7,57.6,84.7,57.5,84.7z"/>
	<path d="M71.1,84.7c-0.1,0-0.1,0-0.2,0c-1.1-0.1-1.9-1.1-1.8-2.2l2-23.2c0.1-1.1,1.1-1.9,2.2-1.8c1.1,0.1,1.9,1.1,1.8,2.2l-2,23.2
		C73,83.9,72.1,84.7,71.1,84.7z"/>
	<path d="M88.5,38.1L56.2,17.4l3.1-2.6c2.7-2.3,6.5-2.5,9.5-0.6l5.1,3.3c0.6-0.5,1.3-0.9,2.2-1.1c1.2-0.3,2.5,0,3.5,0.6
		c1.8,1.2,2.6,3.4,2,5.3l5,3.2c3,1.9,4.4,5.5,3.4,8.9l-0.1,0.2L88.5,38.1z M63.2,17.1l23,14.8c-0.1-1.2-0.8-2.3-1.9-3l0,0l-8.2-5.3
		l1.5-2.3c0.2-0.3,0.1-0.8-0.2-1c-0.3-0.2-0.7-0.1-1,0.2L76,21.2l-1.1,1.7l-8.3-5.3C65.5,16.9,64.3,16.7,63.2,17.1z"/>
	<path d="M70,36.8c-1-0.5-2.2-0.1-2.7,0.9l-0.9,1.7c-0.8-3.6-2.8-8.2-7.2-11.9c-8-6.6-17.3-4.7-19-4.3c-1.1,0.3-1.7,1.4-1.5,2.4
		c0.3,1.1,1.4,1.7,2.4,1.5c0.9-0.2,8.9-2,15.5,3.5c4,3.3,5.5,7.5,6.1,10.6l-2.7-1.5c-1-0.5-2.2-0.2-2.7,0.8c-0.5,1-0.2,2.2,0.8,2.7
		l5.4,2.9l1.4,0.7l1.8,1l4.2-8.4C71.4,38.5,71,37.3,70,36.8z"/>
	<path d="M34.9,21.3l-1.5-3.6v-4.6c0-1.2-1-2.1-2.1-2.1c0,0,0,0,0,0H15.8c-1.2,0-2.1,1-2.1,2.1v4.6l-1.4,3.7
		c-0.3,0.7-0.4,1.4-0.4,2.2v18.2c0,1.2,0.9,2.1,2.1,2.1h19.4c1.2,0,2.1-0.9,2.1-2.1V23.7C35.4,22.9,35.2,22.1,34.9,21.3z M32.4,36.8
		c0,1.2-0.9,2.1-2.1,2.1H16.9c-1.2,0-2.1-0.9-2.1-2.1V26.6c0-1.2,0.9-2.1,2.1-2.1h13.4c1.2,0,2.1,0.9,2.1,2.1V36.8z"/>
	<polygon points="25.3,26.9 21.8,26.9 21.8,29.9 18.9,29.9 18.9,33.4 21.8,33.4 21.8,36.4 25.3,36.4 25.3,33.4 28.3,33.4 28.3,29.9 
		25.3,29.9 	"/>
</g>
</svg>
