<?xml version="1.0" encoding="utf-8"?>
<!-- Generator: Adobe Illustrator 24.0.0, SVG Export Plug-In . SVG Version: 6.00 Build 0)  -->
<svg version="1.1" id="Layer_1" xmlns="http://www.w3.org/2000/svg" xmlns:xlink="http://www.w3.org/1999/xlink" x="0px" y="0px"
	 viewBox="0 0 100 100" style="enable-background:new 0 0 100 100;" xml:space="preserve">
<g>
	<path d="M91.4,45.6L82,36.2v0l-4-4V18.1c0-3.6-2.9-6.5-6.5-6.5c-3.6,0-6.5,2.9-6.5,6.5v1.1l-9.4-9.4c-3.1-3.1-8.2-3.1-11.3,0
		L18,36.2v0l-9.4,9.4c-0.8,0.8-0.8,2,0,2.8c0.8,0.8,2,0.8,2.8,0l6.6-6.6l-0.1,39.6c0,4.4,3.6,8,8,8h48.1c4.4,0,8-3.6,8-8L82,41.8
		l6.6,6.6C89,48.8,89.5,49,90,49s1-0.2,1.4-0.6C92.2,47.6,92.2,46.4,91.4,45.6z M69,18.1c0-1.4,1.1-2.5,2.5-2.5
		c1.4,0,2.5,1.1,2.5,2.5v10.1l-5-5V18.1z M78.1,81.5c0,2.2-1.8,4-4,4H25.9c-2.2,0-4-1.8-4-4L22,37.8l25.2-25.2
		c1.6-1.6,4.1-1.6,5.7,0L78,37.8L78.1,81.5z"/>
	<path d="M35.6,42.9v31.2c0,3.3,2.7,6,6,6h16.7c3.3,0,6-2.7,6-6V42.9c0-3.3-2.7-6-6-6H41.6C38.3,36.9,35.6,39.6,35.6,42.9z
		 M56.3,43.7h4.2c1.1,0,2,0.9,2,2c0,1.1-0.9,2-2,2h-4.2c-1.1,0-2-0.9-2-2C54.3,44.6,55.2,43.7,56.3,43.7z M56.3,49.7h4.2
		c1.1,0,2,0.9,2,2c0,1.1-0.9,2-2,2h-4.2c-1.1,0-2-0.9-2-2C54.3,50.6,55.2,49.7,56.3,49.7z M48.2,63.3V45.9c0-1.1,0.9-2,2-2
		s2,0.9,2,2v17.5c2.6,1.2,3.7,4.3,2.5,6.9c-0.9,1.8-2.7,3-4.7,3c-2.9-0.1-5.1-2.4-5.1-5.3C45,66,46.3,64.1,48.2,63.3z"/>
</g>
</svg>
