<?xml version="1.0" encoding="utf-8"?>
<!-- Generator: Adobe Illustrator 24.0.0, SVG Export Plug-In . SVG Version: 6.00 Build 0)  -->
<svg version="1.1" id="Layer_1" xmlns="http://www.w3.org/2000/svg" xmlns:xlink="http://www.w3.org/1999/xlink" x="0px" y="0px"
	 viewBox="0 0 100 100" style="enable-background:new 0 0 100 100;" xml:space="preserve">
<g>
	<path d="M62.9,10.9H36.5c-4.4,0-8,3.6-8,8V19v26v33.7c0,2.8,1.4,5.2,3.6,6.7c0.1,3.2,2.8,5.8,6,5.8c2.8,0,5.1-1.9,5.8-4.4h11.6
		c0.7,2.6,3,4.4,5.8,4.4c3.2,0,5.8-2.5,6-5.7c2.2-1.4,3.7-3.9,3.7-6.7V45V19v-0.1C70.9,14.5,67.3,10.9,62.9,10.9z M32.5,19
		c0-2.2,1.8-4,4-4h26.4c2.2,0,4,1.8,4,4v22H32.5V19z M66.9,78.7c0,2.2-1.8,4-4,4H36.5c-2.2,0-4-1.8-4-4V45h34.4V78.7z"/>
	<path d="M37.2,23.1c-1.1,0-2,0.9-2,2v7.2c0,1.1,0.9,2,2,2s2-0.9,2-2v-7.2C39.2,24,38.3,23.1,37.2,23.1z"/>
	<path d="M37.2,62c1.1,0,2-0.9,2-2v-7.2c0-1.1-0.9-2-2-2s-2,0.9-2,2V60C35.2,61.2,36.1,62,37.2,62z"/>
</g>
</svg>
