<svg id="Layer_1" data-name="Layer 1" xmlns="http://www.w3.org/2000/svg" viewBox="0 0 100 100"><defs><style>.cls-1,.cls-2{fill:none;stroke:#000;stroke-miterlimit:10;stroke-width:4px;}.cls-2{stroke-linecap:round;}</style></defs><g id="Store_at_room_temperature" data-name="Store at room temperature"><path class="cls-1" d="M80,37l.06,44.45a6,6,0,0,1-6,6H25.94a6,6,0,0,1-6-6L20,37,45.77,11.24a6,6,0,0,1,8.46,0Z"/><path class="cls-2" d="M10,47,45.76,11.27a6,6,0,0,1,8.48,0L90,47"/><path class="cls-2" d="M76,33V18.1a4.51,4.51,0,0,0-4.51-4.51h0A4.51,4.51,0,0,0,67,18.1V24Z"/><path d="M58.37,36.91H41.63a6,6,0,0,0-6,6V74.1a6,6,0,0,0,6,6H58.37a6,6,0,0,0,6-6V42.91A6,6,0,0,0,58.37,36.91ZM50,73.32a5.18,5.18,0,0,1-1.8-10V45.92a2,2,0,0,1,4,0V63.44A5.18,5.18,0,0,1,50,73.32ZM60.42,53.71H56.26a2,2,0,0,1,0-4h4.16a2,2,0,0,1,0,4Zm0-6H56.26a2,2,0,0,1,0-4h4.16a2,2,0,0,1,0,4Z"/></g></svg>