<?xml version="1.0" encoding="utf-8"?>
<!-- Generator: Adobe Illustrator 24.0.0, SVG Export Plug-In . SVG Version: 6.00 Build 0)  -->
<svg version="1.1" id="Layer_1" xmlns="http://www.w3.org/2000/svg" xmlns:xlink="http://www.w3.org/1999/xlink" x="0px" y="0px"
	 viewBox="0 0 100 100" style="enable-background:new 0 0 100 100;" xml:space="preserve">
<g>
	<path d="M64.8,11.4H38.4c-4.4,0-8,3.6-8,8v0v26v33.7c0,2.8,1.5,5.3,3.6,6.7c0.2,3.2,2.8,5.7,6,5.7c2.8,0,5.1-1.9,5.8-4.4h11.6
		c0.7,2.5,3,4.4,5.8,4.4c3.2,0,5.8-2.5,6-5.7c2.2-1.4,3.6-3.9,3.6-6.7V45.5v-26v0C72.8,15,69.2,11.4,64.8,11.4z M34.4,19.5
		c0-2.2,1.8-4,4-4h26.4c2.2,0,4,1.8,4,4v22H34.4V19.5z M68.8,79.2c0,2.2-1.8,4-4,4H38.4c-2.2,0-4-1.8-4-4V45.5h34.4V79.2z"/>
	<path d="M39.1,23.7c-1.1,0-2,0.9-2,2v7.2c0,1.1,0.9,2,2,2s2-0.9,2-2v-7.2C41.1,24.6,40.2,23.7,39.1,23.7z"/>
	<path d="M39.1,62.6c1.1,0,2-0.9,2-2v-7.2c0-1.1-0.9-2-2-2s-2,0.9-2,2v7.2C37.1,61.7,38,62.6,39.1,62.6z"/>
</g>
</svg>
