<?xml version="1.0" encoding="utf-8"?>
<!-- Generator: Adobe Illustrator 24.2.3, SVG Export Plug-In . SVG Version: 6.00 Build 0)  -->
<svg version="1.1" id="Layer_1" xmlns="http://www.w3.org/2000/svg" xmlns:xlink="http://www.w3.org/1999/xlink" x="0px" y="0px"
	 viewBox="0 0 100 100" style="enable-background:new 0 0 100 100;" xml:space="preserve">
<g>
	<path d="M51.6,43.9c-1.8-0.9-4-0.2-5,1.6l-7.5,13.8c0,0-0.1,0.1-0.2,0.1c-0.9-5.6-5.7-9.9-11.6-9.9c-6.5,0-11.7,5.2-11.7,11.7
		c0,5.9,4.4,10.8,10.2,11.6c0,0.1-0.1,0.1-0.1,0.2c-0.7,1.7-4.6,2.9-7.3,5.5c-2.7,2.6-3.9,11.2-3.9,11.2h26.3l2.7-15.5
		c0.1-0.5,0.2-1,0.4-1.5l9.4-24.1C54.1,46.8,53.3,44.8,51.6,43.9z"/>
	<path d="M85.5,28.6H57.4c0.1-0.2,0.2-0.4,0.2-0.6V17.5c0-0.5-0.1-0.9-0.3-1.4l-0.9-2.1v-2.6c0-0.7-0.5-1.2-1.2-1.2h-8.9
		c-0.7,0-1.2,0.5-1.2,1.2c0,0,0,0,0,0v2.6l-0.8,2.1c-0.2,0.4-0.2,0.8-0.2,1.2v10.5c0,0.2,0.1,0.5,0.2,0.6H14.5c-1.1,0-2,0.9-2,2
		s0.9,2,2,2h71c1.1,0,2-0.9,2-2S86.6,28.6,85.5,28.6z M45.8,19.2c0-0.7,0.5-1.2,1.2-1.2h7.7c0.7,0,1.2,0.5,1.2,1.2V25
		c0,0.7-0.5,1.2-1.2,1.2H47c-0.7,0-1.2-0.5-1.2-1.2V19.2z"/>
	<polygon points="49.8,24.8 51.8,24.8 51.8,23.1 53.5,23.1 53.5,21.1 51.8,21.1 51.8,19.4 49.8,19.4 49.8,21.1 48.1,21.1 48.1,23.1 
		49.8,23.1 	"/>
</g>
</svg>
