<svg id="Layer_1" data-name="Layer 1" xmlns="http://www.w3.org/2000/svg" viewBox="0 0 100 100"><defs><style>.cls-1{fill:none;stroke:#000;stroke-miterlimit:10;stroke-width:3px;}</style></defs><path d="M52.25,33.13c0-4.28,5.79-14,8.72-18.59a2,2,0,0,1,3.35,0C67.26,19.18,73,28.85,73,33.13a10.4,10.4,0,0,1-20.79,0Z"/><path d="M31.47,63.75c0-4.28,5.78-14,8.72-18.58a2,2,0,0,1,3.35,0c2.94,4.63,8.71,14.3,8.71,18.58a10.39,10.39,0,0,1-20.78,0Z"/><path d="M62.65,80.56c0-4,5-12.68,8.09-17.59a2.7,2.7,0,0,1,4.59,0c3.06,4.91,8.1,13.6,8.1,17.59a10.39,10.39,0,1,1-20.78,0Z"/><path class="cls-1" d="M24,12.34a2.56,2.56,0,0,1,4.43,0l6.31,10.93,6.3,10.92A2.56,2.56,0,0,1,38.86,38H13.63a2.56,2.56,0,0,1-2.22-3.84l6.31-10.92Z"/><path d="M24.35,17.59a.92.92,0,0,1,.89-1.1h1.84a.94.94,0,0,1,.92,1.1L27.11,28a1,1,0,0,1-.95.92.92.92,0,0,1-.92-.92Zm1.81,13.22A1.74,1.74,0,0,1,28,32.57v.25a1.75,1.75,0,0,1-1.81,1.77,1.76,1.76,0,0,1-1.81-1.77v-.25A1.76,1.76,0,0,1,26.16,30.81Z"/></svg>