<svg id="Layer_1" data-name="Layer 1" xmlns="http://www.w3.org/2000/svg" viewBox="0 0 100 100"><defs><style>.cls-1{fill:none;stroke:#000;stroke-miterlimit:10;stroke-width:3px;}</style></defs><g id="_193" data-name="193"><path class="cls-1" d="M25.1,13.85a2.55,2.55,0,0,1,4.43,0l6.31,10.92L42.15,35.7a2.56,2.56,0,0,1-2.22,3.83H14.7a2.55,2.55,0,0,1-2.21-3.83l6.3-10.93Z"/><path d="M25.42,19.1a.92.92,0,0,1,.89-1.1h1.84a.94.94,0,0,1,.92,1.1l-.89,10.42a.94.94,0,0,1-.95.92.91.91,0,0,1-.92-.92Zm1.81,13.21a1.75,1.75,0,0,1,1.82,1.76v.26a1.82,1.82,0,0,1-3.63,0v-.26A1.76,1.76,0,0,1,27.23,32.31Z"/></g><path d="M79.68,41.38a28.68,28.68,0,0,0-4.7-1.7,4.08,4.08,0,0,1-2.9-3.79l-.3-4.82a10,10,0,0,0,1.5-8.5,10.46,10.46,0,0,0-2.48-4.34,10.07,10.07,0,0,0-16.93,9.69L53,30.47a.64.64,0,0,0,.7.84l1.66-.22a10.09,10.09,0,0,0,7,4.16l-.78,8.15a6,6,0,0,1-2.74,4.49l-3,1.89a6,6,0,0,0-2.22,7.56l1.51,3.31a3,3,0,0,1-.79,3.5,21.23,21.23,0,0,0-6.86,12,15.72,15.72,0,0,0-.22,2.61,22,22,0,0,0,2.07,9.55l2,4.25H78.53s-.32-14.41.64-15.28c3.67-3.33,12.32-11.46,13-14.81C93,58.22,81.34,42.33,79.68,41.38Zm2.61,21-5.64,6.74a.32.32,0,0,1-.56-.22L77,54.08a.31.31,0,0,1,.57-.16l4.8,6.69A1.41,1.41,0,0,1,82.29,62.34Z"/><path d="M66.76,18.55a5.08,5.08,0,0,1,2.33-3.43,5.48,5.48,0,0,1,4.66-.64,7.61,7.61,0,0,1,2.65,1.44,7.49,7.49,0,0,1,2.36,3.32,8.79,8.79,0,0,1,.5,2.37c.06.95.08,1.91.11,2.87a7.36,7.36,0,0,0,.16,1.62,1.36,1.36,0,0,0,1.56,1.1,1.92,1.92,0,0,0,1.66-1.74c0-.06,0-.12,0-.19h0c0,.21.11.42.15.63a3.83,3.83,0,0,1-1.36,3.9,3.25,3.25,0,0,1-1.3.68,3.94,3.94,0,0,1-3.14-.6,4.16,4.16,0,0,1-1.64-2.32,13.39,13.39,0,0,1-.45-2.42,22.08,22.08,0,0,0-.4-2.69,3.83,3.83,0,0,0-2-2.66,2.65,2.65,0,0,0-2.15-.23c-.14.05-.26.12-.43.19A32.51,32.51,0,0,1,66.76,18.55Z"/></svg>