<?xml version="1.0" encoding="utf-8"?>
<!-- Generator: Adobe Illustrator 24.0.0, SVG Export Plug-In . SVG Version: 6.00 Build 0)  -->
<svg version="1.1" id="Layer_1" xmlns="http://www.w3.org/2000/svg" xmlns:xlink="http://www.w3.org/1999/xlink" x="0px" y="0px"
	 viewBox="0 0 100 100" style="enable-background:new 0 0 100 100;" xml:space="preserve">
<g>
	<path d="M90.5,51.1c-5.6-7.8-15.5-10.6-24.1-7.8c-6.3-2.3-12.8-3.5-19.5-3.4c-20.7,0-37.5,10.6-37.5,23.6c0,13,16.8,23.6,37.5,23.6
		c0.2,0,0.3,0,0.5,0c6.5,0,12.9-1.1,19-3.4c1.1,0.4,2.2,0.7,3.4,0.8c1.2,0.2,2.3,0.3,3.5,0.3c4.4,0,8.8-1.4,12.4-4
		C95.2,74,97.4,60.6,90.5,51.1z M46.9,83.2c-18.5,0-33.5-8.8-33.5-19.6c0-10.8,15-19.6,33.6-19.6c4.9,0,9.7,0.6,14.3,1.9
		c-0.2,0.1-0.4,0.2-0.6,0.4c-1.6,1.2-3,2.5-4.2,4c-3.1-1.8-6.6-2.6-10.2-2.2c-4.3,0.5-8.1,2.7-10.8,6.1c-5.5,7-4.3,17.2,2.8,22.7
		c2.9,2.3,6.5,3.4,10,3.4c3.1,0,6.2-0.9,8.9-2.7c1.2,1.4,2.6,2.6,4.1,3.6C56.6,82.6,51.8,83.2,46.9,83.2z M83.3,77.6
		c-0.3,0.2-0.7,0.4-1,0.7c1-1,1.6-2.3,1.6-3.8c0-2.9-2.4-5.2-5.2-5.2s-5.2,2.4-5.2,5.2s2.4,5.2,5.2,5.2c0.3,0,0.6,0,0.8-0.1
		c-2.9,1.1-6,1.5-9.1,1c-1.1-0.2-2.2-0.5-3.3-0.9c0,0,0,0,0,0c-3.2-1.2-5.9-3.3-8-6.1c0-0.1-0.1-0.1-0.1-0.2
		c-4.1-5.8-4.2-13.5-0.3-19.4l0,0c0,0,0,0,0,0c1.2-1.8,2.7-3.4,4.4-4.6c7.8-5.6,18.6-3.8,24.2,3.9c1,1.3,1.7,2.8,2.2,4.3
		c-0.9-0.8-2.1-1.3-3.4-1.3c-2.9,0-5.2,2.4-5.2,5.2s2.4,5.2,5.2,5.2c1.8,0,3.5-1,4.4-2.4C90.2,69.5,87.7,74.4,83.3,77.6z"/>
	<path d="M47.2,31.4c1.1,0,2-0.9,2-2V17c0-1.1-0.9-2-2-2s-2,0.9-2,2v12.4C45.2,30.5,46.1,31.4,47.2,31.4z"/>
	<path d="M60.9,33.7c0.2,0.1,0.4,0.1,0.7,0.1c0.8,0,1.6-0.5,1.9-1.3l4-11.8c0.4-1-0.2-2.2-1.2-2.5c-1-0.4-2.2,0.2-2.5,1.2l-4,11.8
		C59.3,32.2,59.8,33.4,60.9,33.7z"/>
	<path d="M73.3,38.3c0.4,0.3,0.8,0.4,1.2,0.4c0.6,0,1.2-0.3,1.6-0.8l7.7-9.8c0.7-0.9,0.5-2.1-0.3-2.8c-0.9-0.7-2.1-0.5-2.8,0.3
		l-7.7,9.8C72.2,36.3,72.4,37.6,73.3,38.3z"/>
	<path d="M19.1,39.4c0.4,0.5,1,0.8,1.6,0.8c0.4,0,0.9-0.1,1.2-0.4c0.9-0.7,1-1.9,0.3-2.8l-7.6-9.8c-0.7-0.9-1.9-1-2.8-0.3
		c-0.9,0.7-1,1.9-0.3,2.8L19.1,39.4z"/>
	<path d="M31.7,32.5c0.3,0.8,1.1,1.4,1.9,1.4c0.2,0,0.4,0,0.7-0.1c1-0.4,1.6-1.5,1.2-2.5l-4-11.8c-0.4-1-1.5-1.6-2.5-1.2
		c-1,0.4-1.6,1.5-1.2,2.5L31.7,32.5z"/>
	<circle cx="71.1" cy="55.2" r="5.2"/>
	<circle cx="62.2" cy="68.4" r="5.2"/>
</g>
</svg>
