<svg id="Layer_1" data-name="Layer 1" xmlns="http://www.w3.org/2000/svg" viewBox="0 0 100 100"><defs><style>.cls-1{fill:none;}</style></defs><g id="_161" data-name="161"><rect class="cls-1" x="13.07" y="12.25" width="80" height="80"/><path d="M75.34,19h0a12.91,12.91,0,0,0-19.86,0L51.8,23.13,48.11,19a12.9,12.9,0,0,0-19.85,0h0a17.47,17.47,0,0,0,0,22.51l3.68,4.18L51.8,68.15,71.65,45.64l-.46.52-24.72.34,2.6-2.93L31.73,45.4,29.3,42.64l27.16-2.86-3.23,3.63,20.64-.28,1.47-1.67A17.47,17.47,0,0,0,75.34,19Z"/><polygon points="73.87 43.13 73.87 43.13 71.65 45.64 73.87 43.13"/></g><path d="M33,79.76v0a6.42,6.42,0,0,1,6.58-6.52,6.68,6.68,0,0,1,4.21,1.28,1.38,1.38,0,0,1,.54,1.1A1.35,1.35,0,0,1,43,76.93a1.43,1.43,0,0,1-.83-.27,4.16,4.16,0,0,0-2.57-.9,3.73,3.73,0,0,0-3.66,3.93v0a3.75,3.75,0,0,0,3.66,4,4.07,4.07,0,0,0,2.74-1,1.27,1.27,0,0,1,.82-.3,1.29,1.29,0,0,1,1.3,1.28,1.32,1.32,0,0,1-.47,1,6.65,6.65,0,0,1-11-4.9Z"/><path d="M46.89,74.81a1.37,1.37,0,0,1,1.38-1.39H52c3,0,4.82,1.78,4.82,4.36v0c0,2.92-2.27,4.43-5.09,4.43H49.66v2.51a1.39,1.39,0,0,1-2.77,0Zm5,5a2,2,0,0,0,2.19-1.91v0c0-1.24-.86-1.91-2.25-1.91H49.66v3.86Z"/><path d="M58.91,74.81a1.37,1.37,0,0,1,1.39-1.39h4.37a5,5,0,0,1,3.67,1.28,3.92,3.92,0,0,1,1.09,2.88v0a3.85,3.85,0,0,1-2.53,3.83l1.93,2.34a1.61,1.61,0,0,1,.45,1.06A1.29,1.29,0,0,1,68,86.13a1.64,1.64,0,0,1-1.37-.72L63.9,82H61.68v2.76a1.39,1.39,0,0,1-2.77,0Zm5.58,4.73c1.35,0,2.13-.72,2.13-1.78v0c0-1.19-.83-1.8-2.18-1.8H61.68v3.62Z"/></svg>