<?xml version="1.0" encoding="utf-8"?>
<!-- Generator: Adobe Illustrator 24.0.0, SVG Export Plug-In . SVG Version: 6.00 Build 0)  -->
<svg version="1.1" id="Layer_1" xmlns="http://www.w3.org/2000/svg" xmlns:xlink="http://www.w3.org/1999/xlink" x="0px" y="0px"
	 viewBox="0 0 100 100" style="enable-background:new 0 0 100 100;" xml:space="preserve">
<g>
	<path d="M34.1,35.5c0.9-0.5,1.6-1.4,1.9-2.5c0.3-1,0.1-2.1-0.4-3.1L23,8.1c-0.4-0.6-0.9-1.1-1.5-1.5c-0.9-0.5-2-0.7-3.1-0.4
		c-1,0.3-1.9,0.9-2.5,1.9L9.7,19L3.4,29.9c-0.4,0.6-0.5,1.3-0.5,2c0,2.2,1.8,4.1,4.1,4.1c0,0,0,0,0,0h25.2
		C32.8,36,33.5,35.8,34.1,35.5z M6.9,33C6.9,33,6.9,33,6.9,33c-0.6,0-1.1-0.5-1.1-1.1c0-0.2,0-0.4,0.1-0.5l6.3-10.9l6.3-10.9
		c0.1-0.2,0.4-0.4,0.6-0.5c0.3-0.1,0.6,0,0.8,0.1c0.2,0.1,0.3,0.2,0.4,0.4L33,31.5c0.1,0.2,0.2,0.5,0.1,0.8s-0.2,0.5-0.5,0.6
		C32.5,33,32.3,33,32.1,33H6.9z"/>
	<path d="M20.3,13h-1.8c-0.1,0-0.1,0-0.2,0c-0.5,0.1-0.8,0.6-0.7,1.1l0.9,10.4c0,0.5,0.4,0.9,0.9,0.9c0,0,0,0,0,0
		c0.5,0,0.9-0.4,0.9-0.9l0.9-10.4c0-0.1,0-0.1,0-0.2C21.3,13.4,20.8,13,20.3,13z"/>
	<path d="M19.4,27.3C19.4,27.3,19.4,27.3,19.4,27.3c-1,0-1.8,0.8-1.8,1.8v0.2c0,0,0,0,0,0.1c0,1,0.8,1.7,1.8,1.7c0,0,0.1,0,0.1,0
		c1,0,1.7-0.8,1.7-1.8v-0.2c0,0,0-0.1,0-0.1C21.2,28,20.4,27.3,19.4,27.3z"/>
	<path d="M85.6,49.2c-0.2,0-0.4,0-0.5,0c-1.1-2.9-2.6-5.6-4.5-8c-0.7-0.9-1.9-1-2.8-0.4c-0.9,0.7-1,1.9-0.4,2.8
		c1.9,2.5,3.4,5.3,4.4,8.3l0.5,1.6l1.7-0.2c0.3,0,0.6-0.1,1-0.1c0.2,0,0.3,0,0.5,0c3.9,0.1,7,3.4,6.9,7.4c-0.1,1.9-0.9,3.7-2.3,5
		s-3.2,2-5.2,1.9c-0.3,0-0.7,0-1-0.1l-1.7-0.2l-0.5,1.6c-2.7,8.4-9.3,15-17.7,17.7c-7,2.2-14.4,1.6-20.9-1.7
		c-6.5-3.3-11.3-9-13.6-16l-0.5-1.6l-1.7,0.3c-0.4,0.1-0.7,0.1-1.1,0.1c-0.2,0-0.3,0-0.5,0c-1.9-0.1-3.7-0.9-5-2.3s-2-3.2-1.9-5.1
		s0.9-3.7,2.3-5c1.4-1.3,3.2-2,5.2-1.9c0.3,0,0.7,0,1,0.1l1.7,0.3l0.5-1.6c0.1-0.3,0.2-0.6,0.3-0.9c2.5-6.9,7.5-12.4,14.1-15.5
		c6.6-3.1,14.1-3.5,21-1c0.6,0.2,1.1,0.4,1.7,0.7c1,0.4,2.2,0,2.6-1c0.4-1,0-2.2-1-2.6c-0.7-0.3-1.4-0.6-1.9-0.8
		c-7.9-2.8-16.4-2.4-24,1.1c-7.4,3.5-13.1,9.6-16,17.3c-2.9-0.1-5.7,1-7.9,3c-2.2,2-3.4,4.8-3.5,7.8c-0.1,3,1,5.8,3,8
		c2,2.2,4.8,3.4,7.8,3.5c0.2,0,0.4,0,0.6,0c2.8,7.3,8,13.2,15,16.8c4.5,2.3,9.4,3.5,14.3,3.5c3.2,0,6.5-0.5,9.6-1.5
		c9.1-2.9,16.4-9.9,19.8-18.8c2.9,0,5.6-1,7.8-3c2.2-2,3.4-4.8,3.5-7.8C96.6,54.6,91.7,49.4,85.6,49.2z"/>
	<path d="M42.4,58.5c2.1,0,3.9-1.7,3.9-3.9s-1.7-3.9-3.9-3.9s-3.9,1.7-3.9,3.9S40.3,58.5,42.4,58.5z"/>
	<path d="M72.8,54.6c0-2.1-1.7-3.9-3.9-3.9c-2.1,0-3.9,1.7-3.9,3.9s1.7,3.9,3.9,3.9C71.1,58.5,72.8,56.8,72.8,54.6z"/>
	<path d="M38.3,72c3.4,5.3,10,8.5,17.3,8.5c7.3,0,13.9-3.3,17.3-8.5c0.6-0.9,0.3-2.2-0.6-2.8c-0.9-0.6-2.2-0.3-2.8,0.6
		c-2.7,4.1-8,6.7-14,6.7c-5.9,0-11.3-2.6-14-6.7c-0.6-0.9-1.8-1.2-2.8-0.6C38,69.8,37.7,71.1,38.3,72z"/>
	<path d="M66.9,25.7c3.7-0.9,7.4,1.3,8.4,5c0.5,1.8,0.2,3.6-0.8,5.2S72,38.6,70.3,39c-2.8,0.7-5.7-0.4-7.3-2.7
		c-0.6-0.9-1.9-1.1-2.8-0.5c-0.9,0.6-1.1,1.9-0.5,2.8c2.1,2.9,5.4,4.6,8.9,4.6c0.9,0,1.8-0.1,2.6-0.3c2.8-0.7,5.2-2.5,6.7-5
		c1.5-2.5,1.9-5.4,1.2-8.3c-1.5-5.8-7.4-9.4-13.2-7.9c-1.1,0.3-1.7,1.4-1.4,2.4C64.7,25.3,65.8,25.9,66.9,25.7z"/>
</g>
</svg>
