<svg id="Layer_1" data-name="Layer 1" xmlns="http://www.w3.org/2000/svg" viewBox="0 0 100 100"><defs><style>.cls-1,.cls-2{fill:none;stroke:#000;stroke-miterlimit:10;}.cls-1{stroke-linecap:round;stroke-width:4px;}.cls-2{stroke-width:3px;}</style></defs><path d="M64.55,55.58c0-2.6,3.5-8.46,5.28-11.27a1.21,1.21,0,0,1,2,0c1.78,2.81,5.28,8.67,5.28,11.27a6.3,6.3,0,1,1-12.59,0Z"/><path d="M52,74.14c0-2.59,3.5-8.45,5.28-11.26a1.2,1.2,0,0,1,2,0c1.78,2.81,5.29,8.67,5.29,11.26a6.3,6.3,0,0,1-12.6,0Z"/><path d="M66.84,84.33c0-2.42,3.06-7.69,4.91-10.67a1.64,1.64,0,0,1,2.78,0c1.86,3,4.91,8.25,4.91,10.67a6.3,6.3,0,0,1-12.6,0Z"/><path class="cls-1" d="M47.92,12.47a2.08,2.08,0,0,0-1.13,3.24,122.68,122.68,0,0,1,7,11.72c2.75,5.31,4.8,11.23,4.69,17.33C58.37,52,55.11,59.32,48,61.58c-9,2.86-17.46-4.16-26.53-3.44-6.6.52-9.93,6.73-10.92,12.85-.37,2.27.07,18.47,2.09,18.47h6a1.67,1.67,0,0,0,1.57-2.15c-1.16-4.15-2.25-8.77-1.39-12.92.75-3.65,3.82-7.17,7.19-3.83,4.32,4.28,7.15,10,11.84,13.9C57,100.4,86.16,80.69,89.81,59c1.9-11.26-.15-27.67-11.08-33.82-4.93-2.78-10.8-1.91-15.94-4-3.92-1.6-6.62-5.11-8.55-8.87a1.73,1.73,0,0,0-2-.92Z"/><path class="cls-2" d="M21.74,12a2.55,2.55,0,0,1,4.42,0l6.31,10.93,6.31,10.92a2.56,2.56,0,0,1-2.21,3.84H11.33a2.56,2.56,0,0,1-2.21-3.84l6.31-10.92Z"/><path d="M22.05,17.23a.93.93,0,0,1,.9-1.1h1.84a.94.94,0,0,1,.92,1.1l-.9,10.43a.93.93,0,0,1-.94.92.92.92,0,0,1-.92-.92Zm1.82,13.21a1.75,1.75,0,0,1,1.81,1.77v.25a1.82,1.82,0,0,1-3.63,0v-.25A1.77,1.77,0,0,1,23.87,30.44Z"/></svg>