<svg id="Layer_1" data-name="Layer 1" xmlns="http://www.w3.org/2000/svg" viewBox="0 0 100 100"><defs><style>.cls-1,.cls-2{fill:none;stroke:#000;stroke-miterlimit:10;stroke-width:4px;}.cls-2{stroke-linecap:round;}</style></defs><path d="M55.48,89.77a26.64,26.64,0,0,1-11-2.46C30.25,80.72,19,71.12,13.16,56.16c-1.38-3.52-2.63-7.17-1.83-11.07,1.08-5.22,4.57-8.54,9.13-10.82,1.94-1,2.73-.58,3.92,1.21,2.2,3.34,4.4,6.69,6.57,10,1.1,1.7,1.09,2.47-.31,3.92s-2.87,2.63-4.28,4c-1.91,1.82-2.16,2.54-.87,4.83A29.64,29.64,0,0,0,29.6,64,73.57,73.57,0,0,0,45,76.06c2.15,1.3,2.86,1.14,4.41-.82,1.11-1.4,2.12-2.89,3.25-4.27,1.5-1.82,2.33-2,4.35-.88C60.54,72,64.06,74,67.66,75.88a2.19,2.19,0,0,1,1.26,2.84c-1.49,5.69-5.26,9.06-10.82,10.59A21.8,21.8,0,0,1,55.48,89.77Z"/><circle class="cls-1" cx="73.05" cy="26.88" r="14.98"/><line class="cls-2" x1="65.68" y1="26.43" x2="80.73" y2="26.43"/><line class="cls-2" x1="73.21" y1="33.95" x2="73.21" y2="18.9"/><path class="cls-2" d="M43.08,48.51A8,8,0,0,1,51,56.45"/><path class="cls-2" d="M43.62,40.52a14.79,14.79,0,0,1,14.8,14.8"/></svg>