<svg id="Layer_1" data-name="Layer 1" xmlns="http://www.w3.org/2000/svg" viewBox="0 0 100 100"><defs><style>.cls-1{fill:none;}.cls-1,.cls-2{stroke:#000;stroke-linecap:round;stroke-miterlimit:10;stroke-width:4px;}</style></defs><g id="_308" data-name="308"><g id="_3" data-name="3"><path class="cls-1" d="M66.34,81.66a53,53,0,0,1-19.42,3.51c-19.62,0-35.54-9.69-35.54-21.64S27.3,41.9,46.92,41.9a53,53,0,0,1,19.42,3.51"/><path class="cls-2" d="M56.93,53a14.19,14.19,0,1,0,.52,21.91A19.29,19.29,0,0,1,56.93,53Z"/><path class="cls-1" d="M57.45,74.86A19.35,19.35,0,1,0,56.93,53"/><line class="cls-1" x1="47.2" y1="16.95" x2="47.2" y2="29.37"/><line class="cls-1" x1="65.58" y1="20.07" x2="61.53" y2="31.82"/><line class="cls-1" x1="82.15" y1="26.89" x2="74.5" y2="36.68"/><line class="cls-1" x1="12.99" y1="28.38" x2="20.64" y2="38.17"/><line class="cls-1" x1="29.55" y1="20.07" x2="33.59" y2="31.82"/><circle class="cls-2" cx="71.09" cy="55.23" r="3.25"/><circle class="cls-2" cx="86.06" cy="61.64" r="3.25"/><circle class="cls-2" cx="62.22" cy="68.39" r="3.25"/><circle class="cls-2" cx="78.62" cy="74.53" r="3.25"/></g></g></svg>