<?xml version="1.0" encoding="utf-8"?>
<!-- Generator: Adobe Illustrator 24.0.0, SVG Export Plug-In . SVG Version: 6.00 Build 0)  -->
<svg version="1.1" id="Layer_1" xmlns="http://www.w3.org/2000/svg" xmlns:xlink="http://www.w3.org/1999/xlink" x="0px" y="0px"
	 viewBox="0 0 100 100" style="enable-background:new 0 0 100 100;" xml:space="preserve">
<g>
	<path d="M70.9,59l-0.5,0c-3,0.1-5.3,2.5-5.3,5.5v2.2l0,8.6c0,3,2.5,5.5,5.5,5.5c0,0,0,0,0,0c1.5,0,2.8-0.6,3.9-1.6
		c1-1,1.6-2.4,1.6-3.9l0-10.8c0-0.3,0-0.6-0.1-1c-0.2-1.1-0.6-2.1-1.4-2.9C73.7,59.6,72.3,59,70.9,59z M72.4,77.1
		c-0.5,0.5-1.1,0.7-1.8,0.7c-1.4,0-2.5-1.1-2.5-2.5l0-4.3h5l0,4.4C73.1,76,72.8,76.6,72.4,77.1z"/>
	<path d="M90.9,72L86,67.2l-5.9,3c-0.7,0.4-1,1.3-0.6,2c0.4,0.7,1.3,1,2,0.6l2.4-1.2c-0.9,6.6-6.5,11.8-13.4,11.8
		c-7.4,0-13.5-6.1-13.5-13.5s6.1-13.5,13.5-13.5c0.8,0,1.5-0.7,1.5-1.5s-0.7-1.5-1.5-1.5c-9.1,0-16.5,7.4-16.5,16.5
		s7.4,16.5,16.5,16.5c8.3,0,15.2-6.2,16.3-14.1l1.9,1.9c0.3,0.3,0.7,0.4,1.1,0.4c0.4,0,0.8-0.1,1.1-0.4C91.5,73.6,91.5,72.6,90.9,72
		z"/>
	<path d="M37.8,25H19.8c-4,0-7.3,3.3-7.3,7.3v47.8c0,4,3.3,7.3,7.3,7.3h18.1c4,0,7.3-3.3,7.3-7.3V32.3C45.2,28.3,41.9,25,37.8,25z
		 M41.2,80.1c0,1.8-1.5,3.3-3.3,3.3H19.8c-1.8,0-3.3-1.5-3.3-3.3V32.3c0-1.8,1.5-3.3,3.3-3.3h18.1c1.8,0,3.3,1.5,3.3,3.3V80.1z"/>
	<path d="M28.9,37.8c0-1.1-0.3-2.1-1.1-2.9c-1-0.9-2.4-1.4-3.7-1.3h-4.4c0,0,0,0,0,0c-0.8,0-1.4,0.6-1.4,1.4l0,10.1
		c0.1,0.7,0.6,1.2,1.3,1.3c0.8,0.1,1.5-0.5,1.5-1.3v-2.8h2.3l2.7,3.5c0.3,0.5,0.8,0.7,1.4,0.7c0,0,0,0,0,0c0.7,0,1.3-0.6,1.3-1.3
		c0-0.4-0.2-0.8-0.5-1.1l-2-2.4C27.9,41,29,39.5,28.9,37.8z M23.9,39.7l-2.9,0v-3.7h2.8c1.4,0,2.2,0.6,2.2,1.8
		C26,39,25.2,39.7,23.9,39.7z"/>
	<path d="M36.7,41.3l2.4-2.8c0.2-0.3,0.4-0.6,0.4-0.9c0,0,0,0,0-0.1c0-0.7-0.6-1.2-1.3-1.2c-0.5,0-0.9,0.3-1.2,0.7l-1.9,2.4
		l-1.8-2.4c-0.3-0.4-0.8-0.7-1.3-0.7c0,0,0,0-0.1,0c-0.7,0-1.2,0.6-1.2,1.3c0,0.4,0.2,0.8,0.4,1.1l2.3,2.6L31,44.3
		c-0.3,0.2-0.4,0.6-0.5,1c0,0,0,0,0,0c0,0.7,0.6,1.2,1.3,1.2c0.5,0,0.9-0.3,1.2-0.7l2-2.6l2,2.6c0.3,0.4,0.8,0.7,1.3,0.7
		c0,0,0.1,0,0.1,0c0.7,0,1.2-0.6,1.2-1.3c0-0.4-0.2-0.8-0.5-1.1L36.7,41.3z"/>
</g>
</svg>
