<?xml version="1.0" encoding="utf-8"?>
<!-- Generator: Adobe Illustrator 24.0.0, SVG Export Plug-In . SVG Version: 6.00 Build 0)  -->
<svg version="1.1" id="Layer_1" xmlns="http://www.w3.org/2000/svg" xmlns:xlink="http://www.w3.org/1999/xlink" x="0px" y="0px"
	 viewBox="0 0 100 100" style="enable-background:new 0 0 100 100;" xml:space="preserve">
<g>
	<path d="M46.2,61.5c-1-0.6-2.2-0.2-2.7,0.7l-1.3,2.3c-0.7-2.7-1-6.8,0.6-11.6c0.4-1-0.2-2.2-1.2-2.5c-1-0.4-2.2,0.2-2.5,1.2
		c-1.9,5.6-1.6,10.6-0.7,14l-2-1.3c-0.9-0.6-2.2-0.3-2.8,0.6S33.1,67,34,67.6l7.9,5l4.9-8.4C47.4,63.3,47.1,62,46.2,61.5z"/>
	<path d="M24,40.4c8.7,0,15.8-7.1,15.8-15.8S32.7,8.8,24,8.8S8.2,15.9,8.2,24.6S15.3,40.4,24,40.4z M35.8,24.6
		c0,2.5-0.8,4.8-2.1,6.7L17.3,14.9c1.9-1.3,4.2-2.1,6.7-2.1C30.5,12.8,35.8,18.1,35.8,24.6z M14.4,17.9l16.4,16.4
		c-1.9,1.3-4.2,2.1-6.7,2.1c-6.5,0-11.8-5.3-11.8-11.8C12.2,22.1,13,19.8,14.4,17.9z"/>
	<path d="M27.9,68.6v-3.9c0-1-0.8-1.8-1.8-1.8h-13c-1,0-1.8,0.8-1.8,1.8v3.8l-1.2,3.1c-0.2,0.6-0.3,1.2-0.3,1.8v15.3
		c0,1,0.8,1.8,1.7,1.8c0,0,0,0,0,0h16.2c1,0,1.8-0.8,1.8-1.8V73.6c0-0.7-0.1-1.3-0.4-2L27.9,68.6z M27.1,84.5c0,1-0.8,1.8-1.8,1.8
		H14.1c-1,0-1.8-0.8-1.8-1.8V76c0-1,0.8-1.8,1.8-1.8h11.3c1,0,1.8,0.8,1.8,1.8V84.5z"/>
	<polygon points="21.6,76.3 17.7,76.3 17.7,78.3 15.7,78.3 15.7,82.2 17.7,82.2 17.7,84.2 21.6,84.2 21.6,82.2 23.6,82.2 23.6,78.3 
		21.6,78.3 	"/>
	<path d="M46.6,49.5c0.1,0,0.2,0,0.2,0c1,0,1.9-0.8,2-1.8c0.1-0.9,0.7-3.5,2.1-4.4c1.4-0.9,6-2.3,9.5-3.2c1.1,3.3,3.5,6.8,6.8,6.8
		c3.3,0,5.7-3.4,6.8-6.7c3.4,0.9,7.9,2.3,9.3,3.2c1.4,0.9,2,3.6,2.1,4.4c0.1,1,1,1.8,2,1.8c0.1,0,0.1,0,0.2,0
		c1.1-0.1,1.9-1.1,1.8-2.2c-0.1-0.5-0.7-5.3-4-7.3c-2-1.3-6.9-2.7-9.9-3.5c3.2-3.2,5-7.5,5-12c0-8.3-6-15.1-13.4-15.1
		c-7.4,0-13.4,6.8-13.4,15.1c0,4.5,1.8,8.9,5,12c-3,0.8-8,2.3-10,3.5c-3.3,2.1-3.9,6.8-4,7.3C44.7,48.4,45.5,49.4,46.6,49.5z
		 M67.3,42.9c-0.7,0-1.7-1.2-2.4-2.6c0.8,0.2,1.5,0.3,2.3,0.3c0.8,0,1.7-0.1,2.6-0.4C69,41.7,68,42.9,67.3,42.9z M57.8,24.4
		c0-6.1,4.2-11.1,9.4-11.1s9.4,5,9.4,11.1c0,0,0,0,0,0c0,4-1.9,7.9-5.1,10.3c-0.2,0.2-0.4,0.4-0.5,0.6l0,0c-2.8,1.7-4.9,1.7-7.6,0.1
		c-0.1-0.2-0.3-0.4-0.5-0.6C59.7,32.4,57.7,28.5,57.8,24.4z"/>
	<path d="M85.5,80.9c-2-1.3-6.8-2.7-9.9-3.5c3.2-3.2,5-7.5,4.9-12.1c0-8.3-6-15.1-13.4-15.1c-7.4,0-13.4,6.8-13.4,15.1
		c-0.1,4.5,1.8,8.9,4.9,12.1c-3,0.8-7.9,2.3-9.9,3.5c-3.3,2.1-3.9,6.8-4,7.3c-0.1,1.1,0.7,2.1,1.8,2.2c0.1,0,0.2,0,0.2,0
		c1,0,1.9-0.8,2-1.8c0.1-0.9,0.7-3.5,2.1-4.4c1.4-0.9,6-2.3,9.5-3.2c1.1,3.3,3.5,6.8,6.8,6.8c3.3,0,5.7-3.4,6.8-6.8
		c3.4,0.9,7.9,2.3,9.3,3.2c1.4,0.9,2,3.6,2.1,4.4c0.1,1,1,1.8,2,1.8c0.1,0,0.1,0,0.2,0c1.1-0.1,1.9-1.1,1.8-2.2
		C89.4,87.7,88.8,83,85.5,80.9z M57.8,65.4c0-6.1,4.2-11.1,9.4-11.1s9.4,5,9.4,11.1c0,0,0,0,0,0c0.1,4-1.8,7.9-5.1,10.3
		c-0.2,0.1-0.3,0.3-0.5,0.5l0-0.1c-2.8,1.7-4.9,1.7-7.7,0c-0.1-0.2-0.2-0.3-0.4-0.4C59.7,73.4,57.7,69.5,57.8,65.4z M67.3,83.9
		c-0.8,0-1.7-1.2-2.5-2.7c0.8,0.2,1.6,0.3,2.4,0.3c0.9,0,1.7-0.1,2.6-0.4C69,82.7,68,83.9,67.3,83.9z"/>
</g>
</svg>
