<?xml version="1.0" encoding="utf-8"?>
<!-- Generator: Adobe Illustrator 24.0.0, SVG Export Plug-In . SVG Version: 6.00 Build 0)  -->
<svg version="1.1" id="Layer_1" xmlns="http://www.w3.org/2000/svg" xmlns:xlink="http://www.w3.org/1999/xlink" x="0px" y="0px"
	 viewBox="0 0 100 100" style="enable-background:new 0 0 100 100;" xml:space="preserve">
<g>
	<path d="M25.2,40.9c0,3.4,2.8,6.1,6.2,6.1c0,0,0,0,0,0l36.7-0.2c3.4,0,6.2-2.8,6.1-6.2l-0.1-23c0-3.4-2.8-6.1-6.2-6.1c0,0,0,0,0,0
		l-36.7,0.2c-1.6,0-3.2,0.7-4.4,1.8c-1.2,1.2-1.8,2.7-1.8,4.4L25.2,40.9L25.2,40.9z M29.8,16.4c0.4-0.4,1-0.6,1.5-0.6L68,15.6
		c0,0,0,0,0,0c1.2,0,2.2,1,2.2,2.2l0.1,23c0,1.2-1,2.2-2.2,2.2L31.4,43c-1.2,0-2.2-1-2.2-2.2c0,0,0,0,0,0l-0.1-23
		C29.1,17.3,29.4,16.8,29.8,16.4z"/>
	<path d="M77.4,70c0-8-11.7-14.3-26.6-14.3C36,55.7,24.3,62,24.3,70c0,4.9,4.4,9.4,11.9,12c0.9,4.3,4.8,7.6,9.4,7.6h10.6
		c4.6,0,8.5-3.3,9.4-7.7C73.1,79.3,77.4,75,77.4,70z M56.2,85.7H45.6c-3.1,0-5.6-2.5-5.6-5.6c0-3.1,2.5-5.6,5.6-5.6h10.6
		c3.1,0,5.6,2.5,5.6,5.6C61.8,83.2,59.2,85.7,56.2,85.7z M65.5,77.8c-1-4.2-4.8-7.3-9.3-7.3H45.6c-4.5,0-8.3,3.1-9.3,7.3
		c-5-2-8-4.9-8-7.8c0-6.1,11.9-10.3,22.5-10.3c10.7,0,22.6,4.2,22.6,10.3C73.4,72.9,70.4,75.8,65.5,77.8z"/>
	<polygon points="36.5,32.9 41.7,32.9 41.7,28.5 46.2,28.5 46.2,23.3 41.7,23.3 41.7,18.8 36.5,18.8 36.5,23.3 32.1,23.3 32.1,28.5 
		36.5,28.5 	"/>
	<polygon points="52.6,75.5 49.2,75.5 49.2,78.4 46.3,78.4 46.3,81.8 49.2,81.8 49.2,84.7 52.6,84.7 52.6,81.8 55.5,81.8 55.5,78.4 
		52.6,78.4 	"/>
</g>
</svg>
