<svg id="Layer_1" data-name="Layer 1" xmlns="http://www.w3.org/2000/svg" viewBox="0 0 100 100"><defs><style>.cls-1,.cls-4{fill:none;}.cls-1,.cls-2,.cls-3,.cls-4,.cls-5{stroke:#000;stroke-miterlimit:10;}.cls-1{stroke-width:4px;}.cls-3,.cls-4,.cls-5{stroke-width:2px;}.cls-5{fill:#fff;}</style></defs><circle class="cls-1" cx="24.14" cy="25.79" r="13.77"/><path d="M16,14.71a13.7,13.7,0,0,0-2.92,2.92L32.31,36.88A13.94,13.94,0,0,0,35.23,34Z"/><circle class="cls-2" cx="68.13" cy="15.2" r="4.93"/><path class="cls-3" d="M88,77.78s4.1-17.88-.83-23.48-18.84-5.83-19.06-5.83-1.35-4.26,1.57-7.4,5.38-6.73,3.81-14.58S65.91,14.83,58.28,15.73a12.65,12.65,0,0,0-11.21,11c-.23,3.59,2.69,7.85,2.69,7.85s1.79,7.63,3.81,10.32a19.32,19.32,0,0,0,5.16,4.48s-2.24,2.25-9,2.47S43,56.32,43,59a44,44,0,0,0,.48,4.65.67.67,0,0,1,.55.58,11.44,11.44,0,0,0,.77,3.07A6.84,6.84,0,0,1,45,72.1l1.23.69c1.6.3,4.62.69,10.21,1.15,14.89,1.24,20.8,10.22,20.8,10.22"/><path class="cls-4" d="M46.22,72.79a9.37,9.37,0,0,1-1.37-.34c0-.11.09-.23.14-.35L44.83,72S44,67.5,43.51,63.66a.67.67,0,0,0-.2,0,2.18,2.18,0,0,1-1.65-.42c-.95-.76-1-2.19-2.42-4.11-2.92-4.06-12.42-3.91-13.66,3.45C23.67,73.8,35.35,77,35.35,77"/><path class="cls-2" d="M88.55,77s-2.24,15.69-4.48,19.51S50,91,46.17,88.12,36.75,83.67,35.63,83c-.81-.48-4.07-5.18-5.82-7.75a.46.46,0,0,1,.61-.65,106.4,106.4,0,0,0,9.47,5,16.64,16.64,0,0,0,4.49,1s-.58-2.68-.83-4.63a4.88,4.88,0,0,1,.51-2.64,1,1,0,0,1,1.64-.19A22.8,22.8,0,0,1,48.08,77a53.48,53.48,0,0,1,1.66,5.48c.51,1.52,2.72,2.26,2.72,2.26l23.25,1.39,1.7-10.39Z"/><line class="cls-5" x1="35.66" y1="77.25" x2="45.15" y2="72.75"/><line class="cls-4" x1="88.55" y1="76.95" x2="77.23" y2="84.16"/></svg>