<svg id="Layer_1" data-name="Layer 1" xmlns="http://www.w3.org/2000/svg" viewBox="0 0 100 100"><defs><style>.cls-1{fill:none;stroke:#000;stroke-miterlimit:10;stroke-width:4px;}</style></defs><circle class="cls-1" cx="24.45" cy="27.06" r="13.77"/><path d="M16.28,16a14.18,14.18,0,0,0-2.92,2.92L32.61,38.14a13.48,13.48,0,0,0,2.92-2.92Z"/><path d="M74.54,41.27a29.84,29.84,0,0,0-4.69-1.7,4.07,4.07,0,0,1-2.91-3.79L66.64,31a10.05,10.05,0,0,0,1.5-8.51,10.6,10.6,0,0,0-2.47-4.33,10.07,10.07,0,0,0-16.93,9.68l-.86,2.56a.65.65,0,0,0,.7.84L50.24,31a10.08,10.08,0,0,0,7,4.17l-.78,8.15a6,6,0,0,1-2.75,4.49l-3,1.89a6,6,0,0,0-2.23,7.56l1.52,3.3A3,3,0,0,1,49.3,64a21.25,21.25,0,0,0-6.87,12,17,17,0,0,0-.22,2.62,21.93,21.93,0,0,0,2.08,9.55l2,4.24H73.39s-.31-14.41.65-15.28c3.66-3.32,12.31-11.45,13-14.8C87.83,58.12,76.2,42.22,74.54,41.27Zm2.61,21L71.51,69a.31.31,0,0,1-.55-.22L71.84,54a.32.32,0,0,1,.57-.17l4.81,6.7A1.43,1.43,0,0,1,77.15,62.24Z"/><path d="M61.62,18.45A5.14,5.14,0,0,1,64,15a5.48,5.48,0,0,1,4.66-.63,7.88,7.88,0,0,1,5,4.75,8.79,8.79,0,0,1,.5,2.37c.06,1,.08,1.92.11,2.88A8.09,8.09,0,0,0,74.39,26,1.37,1.37,0,0,0,76,27.1a1.92,1.92,0,0,0,1.66-1.74,1.23,1.23,0,0,1,0-.19h0c0,.2.11.41.15.62a3.8,3.8,0,0,1-1.36,3.9,3,3,0,0,1-1.29.68A3.93,3.93,0,0,1,72,29.78a4.16,4.16,0,0,1-1.65-2.33A12.42,12.42,0,0,1,69.94,25a24.61,24.61,0,0,0-.41-2.69,3.85,3.85,0,0,0-2-2.66,2.61,2.61,0,0,0-2.15-.22,2.51,2.51,0,0,0-.42.19A34.28,34.28,0,0,1,61.62,18.45Z"/></svg>