<?xml version="1.0" encoding="utf-8"?>
<!-- Generator: Adobe Illustrator 24.0.0, SVG Export Plug-In . SVG Version: 6.00 Build 0)  -->
<svg version="1.1" id="Layer_1" xmlns="http://www.w3.org/2000/svg" xmlns:xlink="http://www.w3.org/1999/xlink" x="0px" y="0px"
	 viewBox="0 0 100 100" style="enable-background:new 0 0 100 100;" xml:space="preserve">
<g>
	<path d="M50.4,9.3C27.4,9.3,8.7,28,8.7,51s18.7,41.7,41.7,41.7C73.4,92.6,92,73.9,92,51S73.4,9.3,50.4,9.3z M23.5,24.6
		c0.1,1.6,1.4,2.9,3.1,2.9c1.7,0,3.1-1.4,3.1-3.1c0,0,0,0,0,0c0-1.5-1.1-2.8-2.6-3c2.2-1.7,4.6-3.2,7.2-4.4c0.5,0.4,1.1,0.6,1.8,0.6
		c1.5,0,2.8-1.1,3-2.5c1.1-0.3,2.2-0.6,3.4-0.9c0,0.1,0,0.2,0,0.3c0,1.7,1.4,3.1,3.1,3.1c1.7,0,3.1-1.4,3.1-3.1c0,0,0,0,0,0
		c0-0.4-0.1-0.7-0.2-1c0.6,0,1.2,0,1.9,0c0.6,0,1.2,0,1.8,0c-0.1,0.3-0.2,0.7-0.2,1c0,1.7,1.4,3.1,3.1,3.1c1.7,0,3.1-1.4,3.1-3.1
		c0,0,0,0,0,0c0-0.1,0-0.2,0-0.3c1.2,0.2,2.3,0.5,3.4,0.9c0.3,1.4,1.5,2.5,3,2.5c0.7,0,1.3-0.2,1.8-0.6c2.6,1.2,5,2.7,7.2,4.4
		c-1.5,0.2-2.6,1.5-2.6,3c0,1.7,1.4,3.1,3.1,3.1c1.7,0,3-1.3,3.1-2.9c2.1,2.1,3.9,4.4,5.4,6.9c-1.2,0.4-2.1,1.6-2.1,2.9
		c0,1.7,1.4,3.1,3.1,3.1c0.6,0,1.2-0.2,1.7-0.5c1.7,4.3,2.7,9,2.7,14c0,1,0,1.9-0.1,2.9c-0.4,0.5-0.9,1-1.4,1.6
		c0.1-0.3,0.2-0.7,0.2-1c0,0,0,0,0,0c0-1.7-1.4-3.1-3.1-3.1c-1.7,0-3.1,1.4-3.1,3.1s1.4,3.1,3.1,3.1c0.4,0,0.7-0.1,1-0.2
		c-2.1,2-4.9,3.9-8.2,5.1c-0.6-0.7-1.4-1.1-2.3-1.1c-1.4,0-2.5,0.9-2.9,2.2c-0.3,0-0.7,0-1,0c-0.9,0-1.8-0.2-2.7-0.4
		c-0.5-1.1-1.6-1.8-2.8-1.8c-0.4,0-0.7,0.1-1,0.2c-2.1-1.2-4.3-2.8-6.6-4.6c0.7-0.6,1.2-1.4,1.2-2.4c0,0,0,0,0,0
		c0-1.7-1.4-3.1-3.1-3.1c-1.2,0-2.2,0.6-2.7,1.6c-2-1.8-4.1-3.7-6.1-5.5c1.4-0.3,2.4-1.5,2.4-3c0,0,0,0,0,0c0-1.7-1.4-3.1-3.1-3.1
		c-1.6,0-3,1.3-3.1,2.9c-4.2-3.4-8.3-5.8-12.1-5.8c-4.4,0-8.2,1.6-11.2,3.7c-0.5-0.5-1.3-0.8-2.1-0.8c-1.7,0-3.1,1.4-3.1,3.1
		c0,0.6,0.2,1.2,0.5,1.7c-0.6,0.7-1.2,1.3-1.7,1.9c0.3-3.9,1.2-7.6,2.6-11.1c0.5,0.3,1.1,0.5,1.7,0.5c1.7,0,3.1-1.4,3.1-3.1
		c0,0,0,0,0,0c0-1.3-0.9-2.5-2.1-2.9C19.7,29,21.5,26.7,23.5,24.6z"/>
	<path d="M36.1,27.5c1.7,0,3.1-1.4,3.1-3.1c0,0,0,0,0,0c0-1.7-1.4-3.1-3.1-3.1c-1.7,0-3.1,1.4-3.1,3.1S34.4,27.5,36.1,27.5z"/>
	<path d="M45.6,27.5c1.7,0,3.1-1.4,3.1-3.1c0,0,0,0,0,0c0-1.7-1.4-3.1-3.1-3.1c-1.7,0-3.1,1.4-3.1,3.1S43.9,27.5,45.6,27.5z"/>
	<path d="M55.1,27.5c1.7,0,3.1-1.4,3.1-3.1c0,0,0,0,0,0c0-1.7-1.4-3.1-3.1-3.1c-1.7,0-3.1,1.4-3.1,3.1S53.4,27.5,55.1,27.5z"/>
	<path d="M64.6,27.5c1.7,0,3.1-1.4,3.1-3.1c0,0,0,0,0,0c0-1.7-1.4-3.1-3.1-3.1c-1.7,0-3.1,1.4-3.1,3.1S62.9,27.5,64.6,27.5z"/>
	<path d="M26.6,37.5c1.7,0,3.1-1.4,3.1-3.1c0,0,0,0,0,0c0-1.7-1.4-3.1-3.1-3.1c-1.7,0-3.1,1.4-3.1,3.1S24.9,37.5,26.6,37.5z"/>
	<path d="M36.1,37.5c1.7,0,3.1-1.4,3.1-3.1c0,0,0,0,0,0c0-1.7-1.4-3.1-3.1-3.1c-1.7,0-3.1,1.4-3.1,3.1S34.4,37.5,36.1,37.5z"/>
	<path d="M45.6,37.5c1.7,0,3.1-1.4,3.1-3.1c0,0,0,0,0,0c0-1.7-1.4-3.1-3.1-3.1c-1.7,0-3.1,1.4-3.1,3.1S43.9,37.5,45.6,37.5z"/>
	<path d="M55.1,37.5c1.7,0,3.1-1.4,3.1-3.1c0,0,0,0,0,0c0-1.7-1.4-3.1-3.1-3.1c-1.7,0-3.1,1.4-3.1,3.1S53.4,37.5,55.1,37.5z"/>
	<path d="M64.6,37.5c1.7,0,3.1-1.4,3.1-3.1c0,0,0,0,0,0c0-1.7-1.4-3.1-3.1-3.1c-1.7,0-3.1,1.4-3.1,3.1S62.9,37.5,64.6,37.5z"/>
	<path d="M74.1,37.5c1.7,0,3.1-1.4,3.1-3.1c0,0,0,0,0,0c0-1.7-1.4-3.1-3.1-3.1c-1.7,0-3.1,1.4-3.1,3.1S72.4,37.5,74.1,37.5z"/>
	<path d="M55.1,47.5c1.7,0,3.1-1.4,3.1-3.1c0,0,0,0,0,0c0-1.7-1.4-3.1-3.1-3.1c-1.7,0-3.1,1.4-3.1,3.1S53.4,47.5,55.1,47.5z"/>
	<path d="M64.6,47.5c1.7,0,3.1-1.4,3.1-3.1c0,0,0,0,0,0c0-1.7-1.4-3.1-3.1-3.1c-1.7,0-3.1,1.4-3.1,3.1S62.9,47.5,64.6,47.5z"/>
	<path d="M74.1,47.5c1.7,0,3.1-1.4,3.1-3.1c0,0,0,0,0,0c0-1.7-1.4-3.1-3.1-3.1c-1.7,0-3.1,1.4-3.1,3.1S72.4,47.5,74.1,47.5z"/>
	<path d="M83.6,47.5c1.7,0,3.1-1.4,3.1-3.1c0,0,0,0,0,0c0-1.7-1.4-3.1-3.1-3.1c-1.7,0-3.1,1.4-3.1,3.1S81.9,47.5,83.6,47.5z"/>
	<path d="M64.6,57.5c1.7,0,3.1-1.4,3.1-3.1c0,0,0,0,0,0c0-1.7-1.4-3.1-3.1-3.1c-1.7,0-3.1,1.4-3.1,3.1S62.9,57.5,64.6,57.5z"/>
	<path d="M74.1,57.5c1.7,0,3.1-1.4,3.1-3.1c0,0,0,0,0,0c0-1.7-1.4-3.1-3.1-3.1c-1.7,0-3.1,1.4-3.1,3.1S72.4,57.5,74.1,57.5z"/>
</g>
</svg>
