<?xml version="1.0" encoding="utf-8"?>
<!-- Generator: Adobe Illustrator 24.0.0, SVG Export Plug-In . SVG Version: 6.00 Build 0)  -->
<svg version="1.1" id="Layer_1" xmlns="http://www.w3.org/2000/svg" xmlns:xlink="http://www.w3.org/1999/xlink" x="0px" y="0px"
	 viewBox="0 0 100 100" style="enable-background:new 0 0 100 100;" xml:space="preserve">
<g>
	<path d="M69.5,48.6c0.3,0,0.5-0.1,0.8-0.2l6-2.7c1-0.4,1.5-1.6,1-2.6c-0.5-1-1.6-1.5-2.6-1l-6,2.7c-1,0.4-1.5,1.6-1,2.6
		C68,48.2,68.7,48.6,69.5,48.6z"/>
	<path d="M69,52.9c0.1,1.1,1,1.9,2,1.9c0,0,0.1,0,0.1,0l6.6-0.5c1.1-0.1,1.9-1,1.9-2.1s-1-1.9-2.1-1.9l-6.6,0.5
		C69.8,50.9,68.9,51.8,69,52.9z"/>
	<path d="M87.7,40.9c-1-1.2-2.3-2.2-3.8-2.7c-0.9-3.3-4.3-5.4-7.5-4.6l-0.1,0c-0.4,0.1-0.8,0.2-1.2,0.4c-1,0.5-1.4,1.7-0.9,2.7
		c0.5,1,1.7,1.4,2.7,0.9c0.1-0.1,0.3-0.1,0.3-0.1l0.1,0c1.2-0.3,2.5,0.5,2.8,1.7c0,0.2,0.1,0.3,0.1,0.5l0,1.6l1.6,0.3
		c1.1,0.2,2.2,0.9,2.9,1.8c0.9,1.1,1.3,2.4,1.2,3.8c-0.1,1.4-0.8,2.6-1.8,3.5l-1.3,1l0.8,1.4c0.1,0.2,0.2,0.4,0.2,0.5
		c0.3,1.2-0.4,2.5-1.6,2.8c-0.2,0-0.4,0.1-0.6,0.1c-1.1,0.1-1.9,1-1.8,2.1c0.1,1,1,1.8,2,1.8c0.1,0,0.1,0,0.2,0
		c0.4,0,0.7-0.1,1.2-0.2c3.4-0.8,5.4-4.3,4.6-7.7c1.3-1.4,2-3.2,2.2-5.2C90,45.2,89.3,42.8,87.7,40.9z"/>
	<path d="M77.6,80.6c-3.8-2.4-14.6-5.3-18.8-6.4c0-0.7,0-1.5-0.1-2.3c6.3-5.7,7.5-11.1,7.4-14.7c0-0.6-0.3-1.1-0.7-1.5
		c-0.4-0.4-1-0.5-1.6-0.4c-5.5,1-7.6,0.3-8,0c0.1-0.4,0.9-2.7,8.1-8.3c0.7-0.6,1-1.5,0.6-2.3c-0.6-1.6-1.5-3-2.4-4.4l1.2-2.7
		c0.4-0.8,0.4-1.8,0.1-2.6c-0.3-0.9-0.9-1.5-1.8-1.9c-0.5-0.2-1-0.3-1.6-0.3L53.9,33c-4.8-2.7-10.4-3.6-15.9-2.6
		c0.8-1.8,1.2-3.9,1.2-6c0-8.7-7.1-15.8-15.8-15.8S7.7,15.7,7.7,24.4s7.1,15.8,15.8,15.8c0.5,0,1,0,1.5-0.1
		c-0.2,0.3-0.4,0.6-0.5,0.9c-2.9,5.4-3.6,11.7-2.1,17.9c1.6,6.8,5.8,12.8,11.3,16.4c-4.9,1.3-12.2,3.4-15.3,5.4
		c-5.1,3.2-6,11-6,11.3C12.2,93,12.9,94,14,94.1c0.1,0,0.2,0,0.2,0c1,0,1.9-0.8,2-1.8c0.2-1.7,1.3-6.6,4.2-8.4
		c3-1.9,12.2-4.4,17-5.6c0.9,1.9,2.2,3.6,4.1,4.8c1.8,1.2,4,1.8,6.1,1.8c0.8,0,1.5-0.1,2.3-0.2c2.9-0.6,5.4-2.3,7.1-4.8
		c0.4-0.6,0.7-1.2,1-1.8c5,1.3,14.5,4,17.5,5.9c2.9,1.8,4,6.7,4.2,8.4c0.1,1,1,1.8,2,1.8c0.1,0,0.1,0,0.2,0c1.1-0.1,1.9-1.1,1.8-2.2
		C83.6,91.6,82.7,83.8,77.6,80.6z M35.2,24.4c0,2.5-0.8,4.8-2.1,6.7L16.7,14.8c1.9-1.3,4.2-2.1,6.7-2.1C30,12.7,35.2,17.9,35.2,24.4
		z M11.7,24.4c0-2.5,0.8-4.8,2.1-6.7l16.4,16.4c-0.1,0.1-0.1,0.1-0.2,0.2c-1.9,1.2-4.1,2-6.5,2C17,36.2,11.7,30.9,11.7,24.4z
		 M49.1,80.8c-1.9,0.4-3.8,0-5.4-1c-1.6-1.1-2.7-2.7-3.1-4.6c-0.1-0.7-0.6-1.2-1.3-1.5c-6.3-2.4-11.5-8.6-13.2-15.9
		c-1.2-5.2-0.6-10.5,1.8-15c2.3-4.4,6.1-7.4,10.5-8.5c0,0,0,0,0,0l0.1,0c4.7-0.9,9.6-0.1,13.8,2.4c0.3,0.2,0.7,0.3,1.1,0.3l5.7-0.2
		l-1.3,3c-0.3,0.7-0.2,1.5,0.2,2c0.8,1,1.4,2,2,3.1c-8.4,6.7-8.8,9.7-8.3,11.6c0.9,2.8,4.1,3.9,10,3.2c-0.6,3.3-2.7,6.5-6.3,9.7
		c-0.3,0.2-0.4,0.4-0.5,0.5c-0.3,0.4-0.5,0.9-0.5,1.4c0,0.2,0,0.4,0.1,0.6c0,0.1,0.1,0.3,0.1,0.5c0.4,1.9,0,3.8-1,5.4
		C52.6,79.4,51,80.5,49.1,80.8z"/>
</g>
</svg>
