<svg id="Layer_1" data-name="Layer 1" xmlns="http://www.w3.org/2000/svg" viewBox="0 0 100 100"><defs><style>.cls-1,.cls-2,.cls-3{fill:none;stroke:#000;stroke-width:4px;}.cls-1,.cls-2{stroke-linecap:round;}.cls-1,.cls-3{stroke-linejoin:round;}.cls-2{stroke-miterlimit:10;}</style></defs><polygon points="50.29 19.24 46.32 17.35 42.5 19.55 43.08 15.18 39.8 12.22 44.13 11.42 45.93 7.39 48.03 11.28 52.42 11.74 49.38 14.94 50.29 19.24"/><polygon points="32.3 36.97 28.32 35.07 24.51 37.27 25.07 32.91 21.81 29.95 26.14 29.15 27.94 25.12 30.03 29 34.41 29.46 31.39 32.65 32.3 36.97"/><polygon points="79.08 20.82 75.1 18.92 71.29 21.12 71.85 16.76 68.58 13.8 72.92 13 74.72 8.97 76.81 12.85 81.19 13.31 78.17 16.5 79.08 20.82"/><path class="cls-1" d="M16.31,29.31a4.28,4.28,0,0,1-2-3.13c-.13-4.12,8.8-8,21.85-10.06"/><path class="cls-1" d="M83.76,17.5c5.43,1.62,8.71,3.78,8.79,6.24.18,5.74-17.18,10.94-38.78,11.62a136.51,136.51,0,0,1-16.34-.44"/><path class="cls-1" d="M55.78,14.48c3.22-.07,6.34,0,9.28.2"/><path class="cls-2" d="M49.8,42.59a9.73,9.73,0,0,1-4,1.07,6.86,6.86,0,0,1-3.87-1.25"/><path class="cls-2" d="M64.32,42.21a9.69,9.69,0,0,1-4,1.07A7.06,7.06,0,0,1,56.43,42"/><path class="cls-3" d="M74.35,45.24c0-13.52-9.56-24.49-21.34-24.49s-21.34,11-21.34,24.49c0,9.3,4.52,18,11.18,22.53v0c0,5.67,4.59,13.27,10.26,13.27s10.26-7.6,10.26-13.27v-.16C69.91,63.07,74.35,54.45,74.35,45.24Z"/><path class="cls-2" d="M13.76,88.83s.91-8.18,5.91-11.36S42.4,69.93,42.4,69.93"/><path class="cls-2" d="M93,88.83s-.91-8.18-5.91-11.36-22.73-7.54-22.73-7.54"/><path class="cls-3" d="M42.75,67.65s0,0,0,0c7.17,4.47,13.2,4.47,20.52,0"/></svg>