<?xml version="1.0" encoding="utf-8"?>
<!-- Generator: Adobe Illustrator 24.0.0, SVG Export Plug-In . SVG Version: 6.00 Build 0)  -->
<svg version="1.1" id="Layer_1" xmlns="http://www.w3.org/2000/svg" xmlns:xlink="http://www.w3.org/1999/xlink" x="0px" y="0px"
	 viewBox="0 0 100 100" style="enable-background:new 0 0 100 100;" xml:space="preserve">
<g>
	<path d="M64.4,21.7H35.6c-4.4,0-8,3.6-8,8v40.1c0,4.4,3.6,8,8,8h28.8c4.4,0,8-3.6,8-8V29.7C72.4,25.3,68.8,21.7,64.4,21.7z
		 M68.4,69.9c0,2.2-1.8,4-4,4H35.6c-2.2,0-4-1.8-4-4V29.7c0-2.2,1.8-4,4-4h28.8c2.2,0,4,1.8,4,4V69.9z"/>
	<path d="M49.2,36c0.1-1.6-0.5-3.2-1.6-4.4c-1.5-1.4-3.5-2.1-5.5-1.9h-6.6c0,0,0,0,0,0c-1.1,0-2.1,0.9-2.1,2.1v15c0.1,1,0.9,1.9,2,2
		c1.2,0.1,2.2-0.8,2.2-2v-4.2h3.3l4.1,5.2c0.5,0.7,1.2,1.1,2,1.1c1.1,0,2-0.9,2-1.9c0-0.6-0.3-1.2-0.7-1.6l-2.9-3.5
		C47.8,40.9,49.4,38.6,49.2,36z M45,36.2c0,1.6-1.2,2.7-3.2,2.7h-4.2v-5.5h4.2C43.8,33.5,45,34.4,45,36.2L45,36.2z"/>
	<path d="M60.9,41.2l3.5-4.1c0.4-0.4,0.6-0.9,0.6-1.4c0,0,0,0,0,0c0-1-0.9-1.8-1.9-1.7c-0.7,0.1-1.4,0.5-1.8,1.1l-2.7,3.6L55.9,35
		c-0.4-0.7-1.1-1.1-1.9-1.1c0,0-0.1,0-0.1,0c-1,0-1.8,0.9-1.8,1.9c0,0.6,0.3,1.2,0.7,1.6l3.4,3.9l-3.7,4.4c-0.4,0.4-0.6,0.9-0.6,1.4
		c0,0,0,0,0,0.1c0.1,1,0.9,1.8,1.9,1.7c0.7-0.1,1.4-0.5,1.8-1.1l2.9-3.9l2.9,3.8c0.4,0.7,1.2,1,1.9,1.1c0,0,0.1,0,0.1,0
		c1,0,1.8-0.9,1.8-1.9c0-0.6-0.3-1.2-0.7-1.6L60.9,41.2z"/>
</g>
</svg>
