<svg id="Layer_1" data-name="Layer 1" xmlns="http://www.w3.org/2000/svg" viewBox="0 0 100 100"><defs><style>.cls-1,.cls-2,.cls-3,.cls-4{stroke:#000;stroke-miterlimit:10;stroke-width:4px;}.cls-2{fill:#fff;}.cls-3{fill:none;}.cls-4{fill:#898484;}</style></defs><path class="cls-1" d="M10,75.83a7.7,7.7,0,0,0,15.4,0V66H10Z"/><path class="cls-1" d="M18.07,47.43h-.33a7.7,7.7,0,0,1,7.7,7.7V55A7.45,7.45,0,0,0,18.07,47.43Z"/><path class="cls-1" d="M10,55v.17a7.7,7.7,0,0,1,7.7-7.7h-.33A7.45,7.45,0,0,0,10,55Z"/><path class="cls-1" d="M30.44,75.83a7.7,7.7,0,0,0,15.4,0V66H30.44Z"/><path class="cls-2" d="M38.47,47.43h-.33a7.7,7.7,0,0,1,7.7,7.7V55A7.45,7.45,0,0,0,38.47,47.43Z"/><path class="cls-2" d="M30.44,55v.17a7.7,7.7,0,0,1,7.7-7.7h-.33A7.45,7.45,0,0,0,30.44,55Z"/><circle class="cls-3" cx="25.44" cy="24.97" r="13.77"/><path d="M17.27,13.88a13.94,13.94,0,0,0-2.92,2.92L33.6,36.05a13.94,13.94,0,0,0,2.92-2.92Z"/><path class="cls-1" d="M60,77.19a5.62,5.62,0,1,0,11.23,0V70H60Z"/><path class="cls-2" d="M60,62v.12a5.61,5.61,0,0,1,5.61-5.61h-.24A5.44,5.44,0,0,0,60,62Z"/><path class="cls-2" d="M65.89,56.49h-.24a5.62,5.62,0,0,1,5.62,5.61V62A5.44,5.44,0,0,0,65.89,56.49Z"/><rect class="cls-3" x="50.85" y="36.75" width="40.84" height="52.15" rx="6"/><path d="M54.65,43.63a.92.92,0,0,1,.92-.93h2.92a3.31,3.31,0,0,1,2.44.86,2.59,2.59,0,0,1,.72,1.91v0A2.56,2.56,0,0,1,60,48.05l1.29,1.56a1.08,1.08,0,0,1,.3.71.86.86,0,0,1-.88.85,1.1,1.1,0,0,1-.91-.48L58,48.41H56.5v1.84a.93.93,0,0,1-1.85,0Zm3.72,3.15c.9,0,1.41-.48,1.41-1.19v0c0-.79-.55-1.2-1.45-1.2H56.5v2.41Z"/><path d="M63.05,49.78l1.64-1.94-1.5-1.73a1.08,1.08,0,0,1-.3-.7.82.82,0,0,1,.84-.84,1,1,0,0,1,.85.47l1.19,1.59L67,45a1.08,1.08,0,0,1,.79-.47.82.82,0,0,1,.86.8.94.94,0,0,1-.26.62l-1.56,1.82,1.61,1.85a1,1,0,0,1,.3.7.81.81,0,0,1-.84.83,1,1,0,0,1-.85-.46L65.74,49l-1.3,1.71a1.06,1.06,0,0,1-.79.46.8.8,0,0,1-.85-.79A.89.89,0,0,1,63.05,49.78Z"/><path d="M75.57,70.82l1.64-1.95-1.5-1.72a1.1,1.1,0,0,1-.3-.7.81.81,0,0,1,.84-.84,1,1,0,0,1,.85.47l1.19,1.58,1.21-1.58a1,1,0,0,1,.79-.47.81.81,0,0,1,.85.79,1,1,0,0,1-.25.63l-1.56,1.82,1.61,1.84a1.1,1.1,0,0,1,.3.7.81.81,0,0,1-.84.84,1,1,0,0,1-.85-.47l-1.3-1.7L77,71.76a1,1,0,0,1-.79.47.82.82,0,0,1-.86-.79A.88.88,0,0,1,75.57,70.82Z"/><path d="M83.86,65.49l-.65.17a1.92,1.92,0,0,1-.32,0,.81.81,0,0,1-.81-.8.82.82,0,0,1,.61-.79l1.19-.34a3.17,3.17,0,0,1,.86-.16h0a.91.91,0,0,1,.91.91v6.76a.91.91,0,1,1-1.82,0Z"/><line class="cls-2" x1="10.04" y1="54.96" x2="10.04" y2="65.97"/><line class="cls-2" x1="25.44" y1="54.96" x2="25.44" y2="65.97"/><line class="cls-2" x1="30.44" y1="65.97" x2="30.44" y2="54.96"/><line class="cls-2" x1="45.84" y1="65.97" x2="45.84" y2="54.96"/><line class="cls-2" x1="60.04" y1="70.01" x2="60.04" y2="61.98"/><line class="cls-4" x1="71.27" y1="70.01" x2="71.27" y2="61.98"/></svg>