<svg id="Layer_1" data-name="Layer 1" xmlns="http://www.w3.org/2000/svg" viewBox="0 0 100 100"><defs><style>.cls-1,.cls-2,.cls-3{fill:none;stroke:#000;}.cls-1{stroke-linecap:round;}.cls-1,.cls-3{stroke-miterlimit:10;}.cls-1,.cls-2{stroke-width:4px;}.cls-2{stroke-linejoin:round;}.cls-3{stroke-width:3px;}</style></defs><path class="cls-1" d="M48.16,46.06a8.74,8.74,0,0,1-3.61,1,6.31,6.31,0,0,1-3.47-1.12"/><path class="cls-1" d="M61.21,45.72a8.62,8.62,0,0,1-3.62,1,6.25,6.25,0,0,1-3.47-1.12"/><path d="M61.69,54.22c0-.89,1.11-2.82,1.79-3.91a.6.6,0,0,1,1,0c.68,1.09,1.8,3,1.8,3.91a2.31,2.31,0,0,1-4.61,0Z"/><path d="M89.38,38.25a14.22,14.22,0,0,1,1.27,5.91c0,8.36-2.17,16-8.12,22.15a10.42,10.42,0,0,1-5,3.37,8.31,8.31,0,0,1-7.29-2c-.9-.73-.89-1.2-.29-2.18,1.13-1.81,2.26-3.63,3.41-5.43.57-.92,1-1.08,2-.73s1.92.81,2.88,1.19c1.31.52,1.72.48,2.54-.66a15.44,15.44,0,0,0,1.87-3.28,38.94,38.94,0,0,0,2.42-10.15c.15-1.34-.08-1.64-1.38-2-.93-.23-1.87-.38-2.8-.62-1.22-.32-1.48-.69-1.4-1.92.14-2.16.32-4.32.42-6.48A1.17,1.17,0,0,1,81,34.2a7.62,7.62,0,0,1,7.56,2.89C88.91,37.49,89.17,38,89.38,38.25Z"/><path class="cls-2" d="M71.07,48.44c0-12.15-8.58-22-19.16-22s-19.17,9.84-19.17,22c0,8.36,4.06,16.18,10,20.24v0c0,5.09,4.13,11.8,9.22,11.8s9.21-6.71,9.21-11.8v-.15C67.09,64.45,71.07,56.71,71.07,48.44Z"/><path class="cls-1" d="M16.65,87.59s.82-7.34,5.31-10.2,20.42-6.77,20.42-6.77"/><path class="cls-1" d="M87.84,87.59s-.81-7.34-5.3-10.2-20.42-6.77-20.42-6.77"/><path class="cls-3" d="M20.5,12.48a2.2,2.2,0,0,1,3.8,0l5.43,9.4,5.43,9.4a2.2,2.2,0,0,1-1.91,3.29H11.55a2.19,2.19,0,0,1-1.9-3.29l5.42-9.4Z"/><path d="M20.77,17a.79.79,0,0,1,.77-.95h1.58a.81.81,0,0,1,.79.95l-.77,9a.8.8,0,0,1-.81.79.78.78,0,0,1-.79-.79Zm1.56,11.36a1.5,1.5,0,0,1,1.56,1.52v.22a1.56,1.56,0,0,1-3.12,0v-.22A1.52,1.52,0,0,1,22.33,28.36Z"/><path class="cls-2" d="M43.08,69.17v0c6.17,3.84,11.36,3.84,17.65,0"/></svg>