<svg id="Layer_1" data-name="Layer 1" xmlns="http://www.w3.org/2000/svg" viewBox="0 0 100 100"><defs><style>.cls-1{fill:none;stroke:#000;stroke-miterlimit:10;stroke-width:4px;}</style></defs><path d="M21.34,63.33l-.41-8.73A9,9,0,0,0,19.1,72.05c2,.71,5,.76,5.93,0,.14-.11,1.15-3.49,1.15-3.49Z"/><path d="M24.93,61.69s.27-6.19.29-6.2,2.64-3.21,2.72-3.21a7,7,0,0,1,2.6.69A9,9,0,0,1,35,64.91a8.75,8.75,0,0,1-3,3.62C31.82,68.69,24.93,61.69,24.93,61.69Z"/><rect x="29.56" y="72.57" width="1.93" height="1.93" transform="translate(60.93 -0.04) rotate(45)"/><rect x="29.11" y="80.72" width="1.34" height="1.34" transform="translate(66.27 2.78) rotate(45)"/><rect x="24.37" y="74.49" width="2.89" height="2.89" transform="translate(61.26 3.99) rotate(45)"/><circle class="cls-1" cx="24.45" cy="24.83" r="13.77"/><path d="M16.28,13.75a13.94,13.94,0,0,0-2.92,2.92L32.61,35.92A13.7,13.7,0,0,0,35.53,33Z"/><path d="M74.54,39.05a28.86,28.86,0,0,0-4.69-1.7,4.08,4.08,0,0,1-2.91-3.79l-.3-4.82a10,10,0,0,0,1.5-8.5,10.58,10.58,0,0,0-2.47-4.34,10.07,10.07,0,0,0-16.93,9.69l-.86,2.55a.65.65,0,0,0,.7.84l1.66-.22a10.11,10.11,0,0,0,7,4.16l-.78,8.15a6,6,0,0,1-2.75,4.49l-3,1.89A6,6,0,0,0,48.57,55l1.52,3.31a3,3,0,0,1-.79,3.49,21.25,21.25,0,0,0-6.87,12,16.87,16.87,0,0,0-.22,2.61A21.89,21.89,0,0,0,44.29,86l2,4.25H73.39S73.08,75.84,74,75c3.66-3.33,12.31-11.46,13-14.81C87.83,55.89,76.2,40,74.54,39.05Zm2.61,21-5.64,6.74a.31.31,0,0,1-.55-.22l.88-14.78a.32.32,0,0,1,.57-.16l4.81,6.69A1.43,1.43,0,0,1,77.15,60Z"/><path d="M61.62,16.22A5.12,5.12,0,0,1,64,12.79a5.48,5.48,0,0,1,4.66-.64,7.53,7.53,0,0,1,2.65,1.44,7.42,7.42,0,0,1,2.36,3.32,8.71,8.71,0,0,1,.5,2.37c.06.95.08,1.91.11,2.87a8,8,0,0,0,.16,1.62A1.37,1.37,0,0,0,76,24.87a1.92,1.92,0,0,0,1.66-1.74,1.37,1.37,0,0,1,0-.19h0c0,.21.11.42.15.63a3.82,3.82,0,0,1-1.36,3.9,3.21,3.21,0,0,1-1.29.68,3.93,3.93,0,0,1-3.14-.6,4.13,4.13,0,0,1-1.65-2.32,12.56,12.56,0,0,1-.44-2.42,24.25,24.25,0,0,0-.41-2.69,3.83,3.83,0,0,0-2-2.66,2.61,2.61,0,0,0-2.15-.23c-.14.05-.26.12-.42.19A31.8,31.8,0,0,1,61.62,16.22Z"/></svg>