<svg id="Layer_1" data-name="Layer 1" xmlns="http://www.w3.org/2000/svg" viewBox="0 0 100 100"><defs><style>.cls-1,.cls-2{fill:none;stroke-width:4px;}.cls-1,.cls-2,.cls-3{stroke:#000;}.cls-1{stroke-linejoin:round;}.cls-2{stroke-linecap:round;}.cls-2,.cls-3{stroke-miterlimit:10;}</style></defs><path class="cls-1" d="M74.64,36.88c0-15.59-11-28.23-24.6-28.23s-24.6,12.64-24.6,28.23c0,10.72,5.21,20.76,12.88,26v0c0,6.54,5.3,14.83,11.84,14.83S62,69.42,62,62.88c0-.06,0-.12,0-.18C69.53,57.43,74.64,47.49,74.64,36.88Z"/><path class="cls-2" d="M6.14,86.74s1-9.13,6.59-12.68,25.39-8.42,25.39-8.42"/><path class="cls-2" d="M93.86,86.74s-1-9.13-6.59-12.68-25.39-8.42-25.39-8.42"/><path class="cls-3" d="M64.19,78.89s-3.87,3.28-.37,8c2.91,3.91,9.26,2.77,11-1.64a7,7,0,0,0,.37-4C74.94,80,74.1,79,73.8,77.79a2.64,2.64,0,0,1,0-1.17s-1.47.38-1.61,2.86c-.19,3.25-1.57-.52-2-2.4A26.86,26.86,0,0,1,69.69,73a5.79,5.79,0,0,0-2.93,3.16c-1,2.56.12,5.65-.52,6.67C65.15,83.09,64.19,78.89,64.19,78.89Z"/><path class="cls-1" d="M38.12,63.07v0c8.31,5.18,15.29,5.18,23.76,0"/></svg>