<?xml version="1.0" encoding="utf-8"?>
<!-- Generator: Adobe Illustrator 24.0.0, SVG Export Plug-In . SVG Version: 6.00 Build 0)  -->
<svg version="1.1" id="Layer_1" xmlns="http://www.w3.org/2000/svg" xmlns:xlink="http://www.w3.org/1999/xlink" x="0px" y="0px"
	 viewBox="0 0 100 100" style="enable-background:new 0 0 100 100;" xml:space="preserve">
<g>
	<path d="M40.2,23.9c0-8.7-7.1-15.8-15.8-15.8S8.6,15.2,8.6,23.9s7.1,15.8,15.8,15.8S40.2,32.6,40.2,23.9z M36.2,23.9
		c0,2.5-0.8,4.8-2.1,6.7L17.7,14.2c1.9-1.3,4.2-2.1,6.7-2.1C30.9,12.1,36.2,17.4,36.2,23.9z M12.6,23.9c0-2.5,0.8-4.8,2.1-6.7
		l16.4,16.4c-1.9,1.3-4.2,2.1-6.7,2.1C17.9,35.6,12.6,30.4,12.6,23.9z"/>
	<path d="M87.1,38.8h-5v-3.3c0-1.2-1-2.2-2.2-2.2h-0.2c-1.2,0-2.2,1-2.2,2.2v3.3H65.7v-3.3c0-1.2-1-2.2-2.2-2.2h-0.2
		c-1.2,0-2.2,1-2.2,2.2v3.3H49.5v-3.3c0-1.2-1-2.2-2.2-2.2h-0.2c-1.2,0-2.2,1-2.2,2.2v3.3h-5.1c-1.7,0-3.2,0.7-4.4,1.8
		s-1.8,2.8-1.8,4.4v8.7v20.9v10.7c0,3.5,2.8,6.3,6.3,6.3h47.3c3.5,0,6.3-2.8,6.3-6.3V74.7V53.8v-8.7C93.3,41.6,90.5,38.8,87.1,38.8z
		 M77.4,43.5v2.6c0,1.2,1,2.2,2.2,2.2h0.2c1.2,0,2.2-1,2.2-2.2v-2.6c0.9,0.7,1.4,1.7,1.4,2.9c0,0,0,0,0,0c0,2.1-1.7,3.7-3.7,3.7
		c0,0,0,0,0,0c-2.1,0-3.7-1.7-3.7-3.7C76,45.2,76.5,44.2,77.4,43.5z M61.1,43.5v2.6c0,1.2,1,2.2,2.2,2.2h0.2c1.2,0,2.2-1,2.2-2.2
		v-2.6c0.9,0.7,1.4,1.7,1.4,2.9c0,0,0,0,0,0c0,2.1-1.7,3.7-3.7,3.7c0,0,0,0,0,0c-2.1,0-3.7-1.7-3.7-3.7
		C59.7,45.2,60.2,44.2,61.1,43.5z M44.8,43.5v2.6c0,1.2,1,2.2,2.2,2.2h0.2c1.2,0,2.2-1,2.2-2.2v-2.6c0.9,0.7,1.4,1.7,1.4,2.9
		c0,0,0,0,0,0c0,2.1-1.7,3.7-3.7,3.7c0,0,0,0,0,0c-2.1,0-3.7-1.7-3.7-3.7C43.4,45.2,44,44.2,44.8,43.5z M89.3,74.7v10.7
		c0,1.3-1,2.3-2.3,2.3H39.8c-1.3,0-2.3-1-2.3-2.3V74.7V57.8h51.8V74.7z"/>
	<rect x="76" y="60.7" width="7.5" height="5.8"/>
	<rect x="43.4" y="60.7" width="7.5" height="5.8"/>
	<rect x="59.7" y="70" width="7.5" height="5.8"/>
	<rect x="43.4" y="70" width="7.5" height="5.8"/>
	<rect x="59.7" y="79.2" width="7.5" height="5.8"/>
	<rect x="76" y="79.2" width="7.5" height="5.8"/>
</g>
</svg>
