<svg id="Layer_1" data-name="Layer 1" xmlns="http://www.w3.org/2000/svg" viewBox="0 0 100 100"><defs><style>.cls-1,.cls-3,.cls-4{fill:none;}.cls-1,.cls-2,.cls-3,.cls-4{stroke:#000;stroke-miterlimit:10;}.cls-1,.cls-2,.cls-3{stroke-width:4px;}.cls-3,.cls-4{stroke-linecap:round;}.cls-4{stroke-width:3px;}</style></defs><circle class="cls-1" cx="24.79" cy="25.05" r="13.77"/><path d="M16.63,14a13.75,13.75,0,0,0-2.92,2.93L33,36.14a14.23,14.23,0,0,0,2.92-2.93Z"/><rect class="cls-1" x="44.38" y="43.98" width="14.65" height="34.33" rx="7.32" transform="matrix(-1, 0, 0, -1, 103.21, 122.46)"/><path class="cls-2" d="M44.4,51.19l0,9.19,14.64,0,0-9.19a7.12,7.12,0,0,0-7-7.24h-.63A7.11,7.11,0,0,0,44.4,51.19Z"/><path class="cls-3" d="M79,61.13A27.36,27.36,0,1,1,51.65,33.77"/><polyline class="cls-4" points="70.37 64.11 79.33 59.51 86.78 66.99"/></svg>