<?xml version="1.0" encoding="utf-8"?>
<!-- Generator: Adobe Illustrator 24.0.0, SVG Export Plug-In . SVG Version: 6.00 Build 0)  -->
<svg version="1.1" id="Layer_1" xmlns="http://www.w3.org/2000/svg" xmlns:xlink="http://www.w3.org/1999/xlink" x="0px" y="0px"
	 viewBox="0 0 100 100" style="enable-background:new 0 0 100 100;" xml:space="preserve">
<g>
	<path d="M67.7,75.5c-3.6-1.9-7.1-3.9-10.7-5.8c-2-1.1-2.9-1-4.4,0.9c-1.1,1.4-2.1,2.9-3.2,4.3c-1.5,1.9-2.3,2.1-4.4,0.8
		c-5.6-3.3-10.8-7.4-15.3-12.1c-1.6-1.7-3-3.7-4.1-5.8c-1.3-2.3-1-3,0.9-4.8c1.4-1.4,2.9-2.5,4.3-4s1.4-2.2,0.3-3.9
		c-2.2-3.3-4.4-6.7-6.6-10c-1.2-1.8-2-2.2-3.9-1.2c-4.5,2.3-8,5.6-9.1,10.8c-0.8,3.9,0.5,7.5,1.8,11.1c5.8,15,17.1,24.6,31.3,31.2
		c3.5,1.6,7.2,2.4,11,2.5c0.7-0.1,1.7-0.2,2.6-0.5c5.6-1.5,9.3-4.9,10.8-10.6c0,0,0,0,0,0C69.4,77.1,68.8,75.9,67.7,75.5z"/>
	<path d="M73.1,9.5c-9.4,0-17,7.6-17,17s7.6,17,17,17c9.4,0,17-7.6,17-17S82.5,9.5,73.1,9.5z M73.1,39.4c-7.2,0-13-5.8-13-13
		s5.8-13,13-13s13,5.8,13,13S80.3,39.4,73.1,39.4z"/>
	<path d="M80.8,24h-5.5v-5.5c0-1.1-0.9-2-2-2s-2,0.9-2,2V24h-5.5c-1.1,0-2,0.9-2,2s0.9,2,2,2h5.5v5.5c0,1.1,0.9,2,2,2s2-0.9,2-2V28
		h5.5c1.1,0,2-0.9,2-2S81.9,24,80.8,24z"/>
	<path d="M43.1,50.1c3.3,0,5.9,2.7,6,5.9c0,1.1,0.9,2,2,2c0,0,0,0,0,0c1.1,0,2-0.9,2-2c-0.1-5.4-4.5-9.9-9.9-9.9c0,0,0,0,0,0
		c-1.1,0-2,0.9-2,2C41.1,49.2,42,50.1,43.1,50.1z"/>
	<path d="M43.7,42.1c7.1,0,12.8,5.8,12.8,12.8c0,1.1,0.9,2,2,2s2-0.9,2-2c0-9.3-7.5-16.8-16.8-16.8c0,0,0,0,0,0c-1.1,0-2,0.9-2,2
		C41.7,41.2,42.6,42.1,43.7,42.1z"/>
</g>
</svg>
