<svg id="Layer_1" data-name="Layer 1" xmlns="http://www.w3.org/2000/svg" viewBox="0 0 100 100"><defs><style>.cls-1,.cls-2,.cls-3{stroke:#000;stroke-miterlimit:10;stroke-width:4px;}.cls-2{fill:none;}.cls-3{fill:#898484;}</style></defs><path class="cls-1" d="M69.3,65.82a7.7,7.7,0,0,0,15.4,0V56H69.3Z"/><path class="cls-1" d="M77.33,37.42h-.66A7.46,7.46,0,0,0,69.3,45v.16a7.7,7.7,0,1,1,15.4,0V45A7.46,7.46,0,0,0,77.33,37.42Z"/><path class="cls-1" d="M24.5,64.18a5.61,5.61,0,1,0,11.22,0V57H24.5Z"/><path class="cls-1" d="M30.35,43.47h-.24a5.62,5.62,0,0,1,5.61,5.62V49A5.43,5.43,0,0,0,30.35,43.47Z"/><path class="cls-1" d="M24.5,49v.12a5.62,5.62,0,0,1,5.61-5.62h-.24A5.43,5.43,0,0,0,24.5,49Z"/><rect class="cls-2" x="15.3" y="23.74" width="40.84" height="52.15" rx="6"/><path d="M19.1,30.61a.92.92,0,0,1,.93-.92h2.91a3.35,3.35,0,0,1,2.45.85,2.64,2.64,0,0,1,.72,1.92v0A2.57,2.57,0,0,1,24.43,35l1.28,1.56a1.08,1.08,0,0,1,.3.71.86.86,0,0,1-.87.85,1.14,1.14,0,0,1-.92-.48L22.43,35.4H21v1.83a.93.93,0,1,1-1.85,0Zm3.72,3.16c.9,0,1.42-.48,1.42-1.19v0c0-.8-.56-1.2-1.45-1.2H21v2.41Z"/><path d="M27.5,36.77l1.65-2-1.5-1.72a1,1,0,0,1-.3-.7.81.81,0,0,1,.84-.84A1,1,0,0,1,29,32l1.19,1.58L31.44,32a1,1,0,0,1,.79-.47.81.81,0,0,1,.85.79,1,1,0,0,1-.25.63L31.27,34.8l1.61,1.85a1.06,1.06,0,0,1,.3.69.81.81,0,0,1-.84.84,1,1,0,0,1-.85-.47L30.19,36l-1.3,1.7a1,1,0,0,1-.79.47.81.81,0,0,1-.85-.79A.93.93,0,0,1,27.5,36.77Z"/><path d="M40,57.8l1.64-1.94-1.5-1.73a1.08,1.08,0,0,1-.3-.69.81.81,0,0,1,.84-.84,1,1,0,0,1,.86.46l1.18,1.59L44,53.06a1.06,1.06,0,0,1,.8-.46.8.8,0,0,1,.85.79,1,1,0,0,1-.25.62l-1.56,1.82,1.6,1.85a1,1,0,0,1,.3.7.81.81,0,0,1-.84.84,1,1,0,0,1-.85-.47L42.71,57l-1.3,1.71a1.06,1.06,0,0,1-.79.47.81.81,0,0,1-.85-.8A.89.89,0,0,1,40,57.8Z"/><path d="M48.31,52.48l-.65.16a1.13,1.13,0,0,1-.32,0,.81.81,0,0,1-.8-.79.82.82,0,0,1,.61-.79l1.19-.35a3.53,3.53,0,0,1,.86-.16h0a.91.91,0,0,1,.91.92v6.76a.91.91,0,0,1-1.82,0Z"/><line class="cls-1" x1="35.72" y1="56.99" x2="35.72" y2="48.97"/><line class="cls-1" x1="24.5" y1="56.99" x2="24.5" y2="48.97"/><line class="cls-3" x1="84.7" y1="55.96" x2="84.7" y2="44.96"/><line class="cls-3" x1="69.3" y1="55.96" x2="69.3" y2="43.47"/></svg>