<?xml version="1.0" encoding="utf-8"?>
<!-- Generator: Adobe Illustrator 24.0.0, SVG Export Plug-In . SVG Version: 6.00 Build 0)  -->
<svg version="1.1" id="Layer_1" xmlns="http://www.w3.org/2000/svg" xmlns:xlink="http://www.w3.org/1999/xlink" x="0px" y="0px"
	 viewBox="0 0 100 100" style="enable-background:new 0 0 100 100;" xml:space="preserve">
<g>
	<path d="M36,41.1c0.5,0,1-0.1,1.5-0.2c3-0.7,5.4-3,6.1-6c0.2-0.6-0.1-1.3-0.7-1.6c-2-1.1-4-2.2-6-3.2c-1.1-0.6-1.6-0.5-2.5,0.5
		c-0.6,0.8-1.2,1.6-1.8,2.4c-0.9,1.1-1.3,1.2-2.5,0.5c-3.2-1.9-6.1-4.1-8.6-6.8c-0.9-1-1.7-2.1-2.3-3.2c-0.7-1.3-0.6-1.7,0.5-2.7
		c0.8-0.8,1.6-1.4,2.4-2.2c0.8-0.8,0.8-1.2,0.2-2.2c-1.2-1.9-2.5-3.8-3.7-5.6c-0.7-1-1.1-1.2-2.2-0.7c-2.5,1.3-4.5,3.1-5.1,6.1
		c-0.5,2.2,0.2,4.2,1,6.2c3.3,8.4,9.6,13.8,17.6,17.5C31.7,40.6,33.9,41.1,36,41.1z"/>
	<path d="M73.9,8.4c-9.4,0-17,7.6-17,17s7.6,17,17,17c9.4,0,17-7.6,17-17S83.3,8.4,73.9,8.4z M73.9,38.3c-7.2,0-13-5.8-13-13
		s5.8-13,13-13s13,5.8,13,13S81.1,38.3,73.9,38.3z"/>
	<path d="M81.6,22.9h-5.5v-5.5c0-1.1-0.9-2-2-2s-2,0.9-2,2v5.5h-5.5c-1.1,0-2,0.9-2,2s0.9,2,2,2h5.5v5.5c0,1.1,0.9,2,2,2s2-0.9,2-2
		v-5.5h5.5c1.1,0,2-0.9,2-2S82.7,22.9,81.6,22.9z"/>
	<path d="M51.2,58.8c-13.4,0-23.8,6.7-23.8,15.3c0,6.3,5.7,11.6,14,14c0.1,0,0.1,0,0.2,0.1c2.9,0.8,6.2,1.3,9.7,1.3
		c13.4,0,23.8-6.7,23.8-15.3C75,65.5,64.5,58.8,51.2,58.8z M31.3,74.1c0-6.1,9.1-11.3,19.8-11.3c1.9,0,3.8,0.2,5.5,0.5l-1.8,2.4
		c-1.1-0.5-2.4-0.8-3.7-0.8c-5,0-9.1,4.1-9.1,9.1c0,2.2,0.8,4.3,2.2,5.9l-3,4C35.4,81.9,31.3,78.2,31.3,74.1z M51.2,85.4
		c-2,0-3.9-0.2-5.7-0.5l2-2.7c1.1,0.5,2.4,0.8,3.7,0.8c5,0,9.1-4.1,9.1-9.1c0-2.3-0.8-4.3-2.2-5.9l2.8-3.8c6,2,10.1,5.7,10.1,9.8
		C71,80.2,61.9,85.4,51.2,85.4z"/>
	<path d="M50.7,55.3c1.1,0,2-0.9,2-2v-7.6c0-1.1-0.9-2-2-2s-2,0.9-2,2v7.6C48.7,54.5,49.6,55.3,50.7,55.3z"/>
	<path d="M59.5,56.9c0.8,0,1.6-0.5,1.9-1.4l2.5-7.2c0.4-1-0.2-2.2-1.2-2.5c-1-0.4-2.2,0.2-2.5,1.2l-2.5,7.2c-0.4,1,0.2,2.2,1.2,2.5
		C59.1,56.8,59.3,56.9,59.5,56.9z"/>
	<path d="M67.5,59.8c0.6,0,1.2-0.3,1.6-0.8l4.7-6c0.7-0.9,0.5-2.1-0.3-2.8c-0.9-0.7-2.1-0.5-2.8,0.3l-4.7,6
		c-0.7,0.9-0.5,2.1,0.3,2.8C66.6,59.7,67,59.8,67.5,59.8z"/>
	<path d="M31.3,51.5c-0.7-0.9-1.9-1-2.8-0.3c-0.9,0.7-1,1.9-0.3,2.8l4.7,6c0.4,0.5,1,0.8,1.6,0.8c0.4,0,0.9-0.1,1.2-0.4
		c0.9-0.7,1-1.9,0.3-2.8L31.3,51.5z"/>
	<path d="M39.2,45.7c-1,0.4-1.6,1.5-1.2,2.5l2.5,7.2c0.3,0.8,1.1,1.3,1.9,1.3c0.2,0,0.4,0,0.7-0.1c1-0.4,1.6-1.5,1.2-2.5L41.7,47
		C41.4,45.9,40.2,45.4,39.2,45.7z"/>
</g>
</svg>
