<?xml version="1.0" encoding="utf-8"?>
<!-- Generator: Adobe Illustrator 24.0.0, SVG Export Plug-In . SVG Version: 6.00 Build 0)  -->
<svg version="1.1" id="Layer_1" xmlns="http://www.w3.org/2000/svg" xmlns:xlink="http://www.w3.org/1999/xlink" x="0px" y="0px"
	 viewBox="0 0 100 100" style="enable-background:new 0 0 100 100;" xml:space="preserve">
<g>
	<path d="M40,44.7L40,44.7c1.8-0.1,3.6-0.5,5.1-1.3c1-0.5,1.4-1.7,0.9-2.7c-0.5-1-1.7-1.4-2.7-0.9c-1,0.5-2.2,0.8-3.3,0.9
		c-1,0-2-0.4-2.8-0.9c-0.9-0.6-2.2-0.4-2.8,0.5c-0.6,0.9-0.4,2.2,0.5,2.8C36.4,44.1,38.1,44.6,40,44.7L40,44.7z"/>
	<path d="M50,42.6c1.5,1,3.3,1.6,5.1,1.7l0.1,0l0.1,0c1.8-0.1,3.4-0.5,5-1.3c1-0.5,1.4-1.7,0.9-2.7c-0.5-1-1.7-1.4-2.7-0.9
		c-1,0.5-2.2,0.8-3.3,0.9c-1,0-2-0.4-2.8-0.9c-0.9-0.6-2.2-0.4-2.8,0.5C48.9,40.7,49.1,42,50,42.6z"/>
	<path d="M62.5,53.5c1.5,0.1,2.8-1,2.8-2.5c0-1-1.3-3.2-2.1-4.5c-0.1-0.1-0.1-0.2-0.2-0.2c-0.3-0.2-0.8-0.1-1,0.2
		c-0.8,1.3-2.1,3.5-2.1,4.5C60,52.4,61.1,53.4,62.5,53.5z"/>
	<path d="M69.9,66.7c2.5,2,5.2,3.1,8.5,2.3c2.4-0.5,4.1-2.2,5.8-3.9c6.9-7.2,9.4-16,9.4-25.8c0-2.4-0.5-4.7-1.5-6.9
		c-0.3-0.5-0.6-0.9-0.9-1.3c-2-2.7-5.5-4-8.8-3.4c0,0,0,0,0,0c-0.7,0.1-1.3,0.7-1.3,1.4c-0.1,2.5-0.3,5-0.5,7.5
		c-0.1,1.4,0.2,1.9,1.6,2.2c1.1,0.3,2.2,0.5,3.3,0.7c1.5,0.4,1.8,0.7,1.6,2.3c-0.4,4-1.3,8-2.8,11.8c-0.6,1.4-1.3,2.6-2.2,3.8
		c-0.9,1.3-1.4,1.4-2.9,0.8c-1.1-0.4-2.2-1-3.4-1.4c-1.2-0.4-1.6-0.2-2.3,0.8c-1.4,2.1-2.7,4.2-4,6.3C68.9,65.3,68.9,65.8,69.9,66.7
		z"/>
	<path d="M85.3,76.3c-4.8-3.1-19.6-6.9-23.4-7.9c6.7-5.4,11-14.7,11-24.1c0-15.2-10.9-27.6-24.3-27.6c-13.4,0-24.3,12.4-24.3,27.6
		c0,9.5,4.4,18.8,11.3,24.2c-4.5,1.2-18.3,4.8-22.9,7.8c-6,3.8-7,12.9-7.1,13.3c-0.1,1.1,0.7,2.1,1.8,2.2c0.1,0,0.2,0,0.2,0
		c1,0,1.9-0.8,2-1.8c0-0.1,0.9-7.6,5.3-10.4c3.8-2.4,16.1-5.8,21.9-7.3c1.7,5.8,6.4,11.2,12,11.2c5.6,0,10.4-5.5,12.1-11.3
		c5.6,1.4,18.5,5,22.3,7.4c4.3,2.7,5.2,10.3,5.3,10.4c0.1,1,1,1.8,2,1.8c0.1,0,0.1,0,0.2,0c1.1-0.1,1.9-1.1,1.8-2.2
		C92.3,89.2,91.2,80.1,85.3,76.3z M28.3,44.3c0-13,9.1-23.6,20.3-23.6c11.2,0,20.3,10.6,20.3,23.6c0,8.7-4.1,17.2-10.6,21.7
		c-0.2,0.1-0.3,0.3-0.4,0.4l-0.1-0.1c-6.7,4.1-11.9,4.1-18.4,0l0,0c-0.1-0.1-0.1-0.1-0.2-0.2C32.5,61.8,28.3,53.2,28.3,44.3z
		 M48.7,79.6c-3.4,0-6.7-3.9-8.1-8c2.7,1.2,5.3,1.8,7.9,1.8c2.7,0,5.5-0.7,8.3-2C55.5,75.6,52.2,79.6,48.7,79.6z"/>
</g>
</svg>
