<svg id="Layer_1" data-name="Layer 1" xmlns="http://www.w3.org/2000/svg" viewBox="0 0 100 100"><defs><style>.cls-1{stroke:#000;stroke-linecap:round;stroke-linejoin:round;stroke-width:4px;}</style></defs><path d="M49.88,11.91a2.94,2.94,0,0,1,.65.07,3.27,3.27,0,0,1,2.54,3.24l.07,30.43a1.43,1.43,0,0,0,1.41,1.41h0A1.42,1.42,0,0,0,56,45.64L56,17.3a3.5,3.5,0,0,1,3.5-3.48h.13A3.36,3.36,0,0,1,63,17.21l-.18,29.71a1.42,1.42,0,0,0,1.41,1.42h0a1.42,1.42,0,0,0,1.42-1.41l.08-21a3.44,3.44,0,0,1,2.68-3.4,3.21,3.21,0,0,1,.68-.07,3.36,3.36,0,0,1,3.36,3.37L72.31,69a20,20,0,0,1-20,20h-.07c-1.35,0-2.8-.08-4.3-.22a22.52,22.52,0,0,1-20.07-19.6,36.68,36.68,0,0,1-.31-4.91l.07-18.56a3.44,3.44,0,0,1,2.68-3.41A4,4,0,0,1,31,42.2a3.37,3.37,0,0,1,3.36,3.38v9.8a1.36,1.36,0,0,0,1.25,1.36h.12a1.37,1.37,0,0,0,1.36-1.36l.1-37.09a3.44,3.44,0,0,1,3.44-3.43h0a3.39,3.39,0,0,1,3.53,3.28l-.21,28.26a1.42,1.42,0,0,0,1.41,1.42,1.39,1.39,0,0,0,.35,0,1.45,1.45,0,0,0,1.07-1.44l-.07-31.24a3.2,3.2,0,0,1,3.2-3.2m0-4h0A7.16,7.16,0,0,0,44.78,10a7.58,7.58,0,0,0-1.13,1.47,7.76,7.76,0,0,0-3-.62,7.46,7.46,0,0,0-7.46,7.41l0,20.24A7.35,7.35,0,0,0,31,38.2a7.14,7.14,0,0,0-1.45.15,7.43,7.43,0,0,0-5.91,7.31l-.07,18.57a41.13,41.13,0,0,0,.34,5.43A26.36,26.36,0,0,0,47.53,92.73c1.57.15,3.14.23,4.66.24h.09A24.08,24.08,0,0,0,76.31,69l.16-43.21a7.34,7.34,0,0,0-7.36-7.39,7.91,7.91,0,0,0-1.45.14c-.22,0-.44.1-.66.16V17.24a7.36,7.36,0,0,0-7.32-7.42h-.15a7.46,7.46,0,0,0-3.86,1.07,7.1,7.1,0,0,0-4.36-2.84,7.81,7.81,0,0,0-1.44-.14Z"/><circle class="cls-1" cx="63.25" cy="61.37" r="5.14"/><circle class="cls-1" cx="41.23" cy="72.09" r="5.14"/><circle class="cls-1" cx="45.74" cy="56.29" r="4.12"/></svg>