<svg id="Layer_1" data-name="Layer 1" xmlns="http://www.w3.org/2000/svg" viewBox="0 0 100 100"><defs><style>.cls-1,.cls-2{fill:none;stroke-width:4px;}.cls-1,.cls-2,.cls-3{stroke:#000;stroke-miterlimit:10;}.cls-2{stroke-linecap:round;}</style></defs><path class="cls-1" d="M30.44,43.11a15.5,15.5,0,1,0,24.94,0,3.19,3.19,0,0,0-2.55-1.27H33A3.21,3.21,0,0,0,30.44,43.11Z"/><line class="cls-2" x1="35.43" y1="88.12" x2="50.41" y2="88.12"/><line class="cls-1" x1="42.92" y1="54.82" x2="42.92" y2="88.12"/><path d="M27.51,54A15.5,15.5,0,0,0,58.42,52.3a16,16,0,0,0-.1-1.71H27.52A15.81,15.81,0,0,0,27.51,54Z"/><path class="cls-3" d="M80.35,32.85V16.56a2.41,2.41,0,0,0-2.41-2.41H74.87a2.4,2.4,0,0,0-2.4,2.41V32.85c0,7.95-6.78,7.52-6.78,16V83.64a4.49,4.49,0,0,0,4.48,4.48H82.64a4.48,4.48,0,0,0,4.48-4.48V48.87C87.12,40.37,80.35,40.8,80.35,32.85Zm4.7,35.23a2.58,2.58,0,0,1-2.57,2.58H70.64a2.58,2.58,0,0,1-2.57-2.58V57.39a2.57,2.57,0,0,1,2.57-2.57H82.48a2.57,2.57,0,0,1,2.57,2.57Z"/><circle class="cls-1" cx="25.61" cy="26.49" r="13.77"/><path d="M17.45,15.41a13.48,13.48,0,0,0-2.92,2.92L33.78,37.58a13.94,13.94,0,0,0,2.92-2.92Z"/></svg>