<?xml version="1.0" encoding="utf-8"?>
<!-- Generator: Adobe Illustrator 24.0.0, SVG Export Plug-In . SVG Version: 6.00 Build 0)  -->
<svg version="1.1" id="Layer_1" xmlns="http://www.w3.org/2000/svg" xmlns:xlink="http://www.w3.org/1999/xlink" x="0px" y="0px"
	 viewBox="0 0 100 100" style="enable-background:new 0 0 100 100;" xml:space="preserve">
<g>
	<path d="M23.4,40.7c8.7,0,15.8-7.1,15.8-15.8S32.1,9.1,23.4,9.1S7.6,16.2,7.6,24.9S14.7,40.7,23.4,40.7z M35.1,24.9
		c0,2.5-0.8,4.8-2.1,6.7L16.7,15.3c1.9-1.3,4.2-2.1,6.7-2.1C29.9,13.1,35.1,18.4,35.1,24.9z M13.7,18.2l16.4,16.4
		c-1.9,1.3-4.2,2.1-6.7,2.1c-6.5,0-11.8-5.3-11.8-11.8C11.6,22.4,12.4,20.1,13.7,18.2z"/>
	<path d="M15.6,60.4c-4.4,0-8,3.6-8,8v2.9c0,4.4,3.6,8,8,8h75.6V60.4H15.6z M39,64.4h34.3v10.9H39V64.4z M77.3,64.4h3v10.9h-3V64.4z
		 M87.3,75.3h-3V64.4h3V75.3z"/>
	<path d="M68.2,32.8H78c0.7,0,1.2,0.5,1.2,1.2s-0.5,1.2-1.2,1.2h-4c-3.1,0-5.7,2.5-5.7,5.7c0,3.1,2.5,5.7,5.7,5.7h7.3
		c0.6,0,1,0.4,1,1v3c0,1.1,0.9,2,2,2s2-0.9,2-2v-3c0-2.8-2.2-5-5-5H74c-0.9,0-1.7-0.7-1.7-1.7c0-0.9,0.7-1.7,1.7-1.7h4
		c2.9,0,5.2-2.3,5.2-5.2s-2.3-5.2-5.2-5.2h-9.8c-1.1,0-2.1-0.9-2.1-2.1c0-1.1,0.9-2.1,2.1-2.1h3.2c1.1,0,2-0.9,2-2s-0.9-2-2-2h-3.2
		c-3.3,0-6.1,2.7-6.1,6.1C62.1,30.1,64.8,32.8,68.2,32.8z"/>
</g>
</svg>
