<svg id="Layer_1" data-name="Layer 1" xmlns="http://www.w3.org/2000/svg" viewBox="0 0 100 100"><defs><style>.cls-1,.cls-2{fill:none;}.cls-1,.cls-2,.cls-3{stroke:#000;stroke-miterlimit:10;}.cls-1{stroke-width:3px;}.cls-2{stroke-linecap:round;}.cls-2,.cls-3{stroke-width:4px;}</style></defs><g id="_193" data-name="193"><path class="cls-1" d="M17.28,8.85a2.56,2.56,0,0,1,4.43,0L28,19.78,34.32,30.7a2.56,2.56,0,0,1-2.21,3.84H6.88A2.56,2.56,0,0,1,4.66,30.7L11,19.78Z"/><path d="M17.59,14.1a.93.93,0,0,1,.9-1.1h1.84a.94.94,0,0,1,.92,1.1l-.9,10.43a.93.93,0,0,1-.94.92.92.92,0,0,1-.92-.92Zm1.82,13.21a1.75,1.75,0,0,1,1.81,1.77v.25a1.75,1.75,0,0,1-1.81,1.77,1.77,1.77,0,0,1-1.82-1.77v-.25A1.77,1.77,0,0,1,19.41,27.31Z"/></g><path class="cls-2" d="M67.51,33.42c-.6-.26-1.21-.51-1.83-.73a29.45,29.45,0,0,0-38,18.64,8.55,8.55,0,0,0-1.34-.11,9.14,9.14,0,1,0,0,18.27,10,10,0,0,0,1.34-.11,29.41,29.41,0,0,0,56,0,10.19,10.19,0,0,0,1.24.09,9.14,9.14,0,1,0,0-18.27,8.52,8.52,0,0,0-1.24.09A29.15,29.15,0,0,0,79,42.4"/><circle class="cls-3" cx="42.41" cy="54.63" r="1.86"/><circle class="cls-3" cx="68.95" cy="54.63" r="1.86"/><path class="cls-2" d="M40,70.93c2.91,4.51,8.81,7.61,15.64,7.61s12.74-3.1,15.65-7.61"/><path class="cls-2" d="M66.38,23.73a8.9,8.9,0,1,1-5.09,13.76"/></svg>