<?xml version="1.0" encoding="utf-8"?>
<!-- Generator: Adobe Illustrator 24.2.3, SVG Export Plug-In . SVG Version: 6.00 Build 0)  -->
<svg version="1.1" id="Layer_1" xmlns="http://www.w3.org/2000/svg" xmlns:xlink="http://www.w3.org/1999/xlink" x="0px" y="0px"
	 viewBox="0 0 100 100" style="enable-background:new 0 0 100 100;" xml:space="preserve">
<g>
	<path d="M24.9,28.5L24.9,28.5C24.9,28.5,24.9,28.5,24.9,28.5c-0.9,0-1.6,0.7-1.6,1.6v0.2c0.1,0.8,0.7,1.5,1.5,1.5
		c0.9,0.1,1.7-0.6,1.8-1.5v-0.2c0,0,0,0,0-0.1C26.5,29.2,25.8,28.5,24.9,28.5z"/>
	<path d="M25.8,15.5h-1.7c-0.1,0-0.1,0-0.2,0c-0.4,0.1-0.7,0.5-0.6,1l0.8,9.5c0,0,0,0,0,0c0,0.5,0.4,0.8,0.8,0.8c0,0,0,0,0,0
		c0.5,0,0.9-0.4,0.9-0.8l0.8-9.5c0,0,0-0.1,0-0.1C26.6,15.9,26.2,15.5,25.8,15.5z"/>
	<path d="M85.2,78.7L85.2,78.7c-0.6-2.3-2.9-3.7-5.3-3.1c-1,0.2-1.8,0.8-2.4,1.6c-0.3,0.5-1,0.7-1.6,0.5l-14.5-5.1l14.3-5
		c0.6-0.2,1.3-0.1,1.8,0.4c1.5,1.9,4.2,2.1,6.1,0.6c1.9-1.5,2.1-4.2,0.6-6.1c-0.5-0.6-1.2-1.1-2-1.4c1.5-1.9,1.2-4.6-0.7-6.1
		c-1.9-1.5-4.6-1.2-6.1,0.7c-0.6,0.8-1,1.7-0.9,2.7c0,0.8-0.4,1.5-1.1,1.7l-5.7,2c1.2-1.4,1.9-3.3,1.9-5.2l-0.2-11.9
		c-1.2-8.6-9.5-15.4-19.4-15.4c-3.6,0-7,0.9-10,2.5c-0.1-0.5-0.2-1-0.5-1.4L28.3,11c-0.3-0.6-0.8-1-1.4-1.4C26.1,9.1,25,9,24,9.2
		c-1,0.3-1.8,0.9-2.3,1.8L10.2,30.8c-0.3,0.6-0.5,1.2-0.5,1.9c0,2.1,1.7,3.8,3.8,3.8h21.2c-2.1,2.4-3.5,5.4-4,8.5l-0.2,11.8
		c0,2.1,0.8,4.1,2.3,5.6l-6.8-2.4c-0.7-0.3-1.1-1-1.1-1.7c0-2.4-1.9-4.4-4.3-4.4s-4.4,1.9-4.4,4.3c0,1,0.3,2,1,2.8
		c-2.3,0.7-3.6,3.2-2.8,5.5s3.2,3.6,5.5,2.8c0.8-0.3,1.5-0.7,2-1.4c0.5-0.5,1.2-0.7,1.8-0.4l14.3,5l-14.5,5.1
		c-0.6,0.2-1.2,0-1.6-0.5c-1.5-1.9-4.2-2.3-6.1-0.8c-1.9,1.5-2.3,4.2-0.8,6.1c0.5,0.7,1.3,1.2,2.1,1.5c-1.5,1.9-1.1,4.6,0.8,6.1
		c1.9,1.5,4.6,1.1,6.1-0.8c0.6-0.8,0.9-1.7,0.9-2.6c0-0.7,0.4-1.3,1.1-1.6l23.7-8.3L73.5,85c0.7,0.2,1.1,0.9,1.1,1.6
		c0,2.4,1.9,4.3,4.3,4.4c0,0,0,0,0,0c0.3,0,0.7,0,1-0.1c2.3-0.6,3.8-2.9,3.2-5.2c-0.1-0.6-0.4-1.2-0.8-1.7
		C84.5,83.2,85.8,80.9,85.2,78.7z M13,33.3c-0.2-0.2-0.2-0.4-0.2-0.6c0-0.1,0-0.3,0.1-0.4l11.5-19.8c0.2-0.4,0.7-0.5,1.1-0.3
		c0.1,0.1,0.2,0.2,0.3,0.3l11.4,19.8c0.1,0.2,0.1,0.4,0.1,0.6c-0.1,0.2-0.2,0.4-0.4,0.5c-0.1,0.1-0.3,0.1-0.4,0.1H13.5
		C13.3,33.5,13.1,33.5,13,33.3z M57.9,65.6c0,1.6-1,3.1-2.5,3.7v-3.8c0-1.1-0.9-2-2-2s-2,0.9-2,2v4.1h-2.6v-4.1c0-1.1-0.9-2-2-2
		c-1.1,0-2,0.9-2,2v3.7c-1.4-0.7-2.3-2.1-2.3-3.6v-4.7h-3.9c-2.2,0-4-1.8-4-4v-9.8c0.1-7.4,7.1-13.4,15.5-13.4s15.4,6,15.5,13.4v9.8
		c0,2.2-1.8,4-4,4h-3.8V65.6z"/>
	<circle cx="43.4" cy="50.5" r="4.6"/>
	<circle cx="56.9" cy="50.4" r="4.5"/>
	<polygon points="50.2,56.2 47.9,59.6 52.4,59.6 	"/>
</g>
</svg>
