<svg id="Layer_1" data-name="Layer 1" xmlns="http://www.w3.org/2000/svg" viewBox="0 0 100 100"><defs><style>.cls-1,.cls-2,.cls-3{fill:none;stroke:#000;stroke-width:4px;}.cls-1,.cls-2{stroke-miterlimit:10;}.cls-2,.cls-3{stroke-linecap:round;}.cls-3{stroke-linejoin:round;}</style></defs><circle class="cls-1" cx="23.47" cy="24.44" r="13.77"/><path d="M15.3,13.36a14.18,14.18,0,0,0-2.92,2.92L31.63,35.53a13.7,13.7,0,0,0,2.92-2.92Z"/><line class="cls-2" x1="69.47" y1="46.6" x2="75.49" y2="43.92"/><line class="cls-2" x1="71.01" y1="52.78" x2="77.59" y2="52.32"/><path class="cls-2" d="M81.65,58.66a6.15,6.15,0,0,0,.83-.12,4.32,4.32,0,0,0,3.14-5.23,4.66,4.66,0,0,0-.39-1A7.17,7.17,0,0,0,82.1,39.77a4.15,4.15,0,0,0-.12-1,4.3,4.3,0,0,0-5.22-3.14,4.11,4.11,0,0,0-.79.28"/><path class="cls-3" d="M38.5,76.06S23.72,79.54,19.38,82.3s-5.12,9.85-5.12,9.85"/><path class="cls-3" d="M81.66,92.15s-.79-7.09-5.12-9.85-19.71-6.54-19.71-6.54"/><path class="cls-3" d="M38,32.47C27.72,34.94,21.41,46.61,24.24,58.38c1.94,8.1,7.7,14.73,14.44,17.28v0a9.19,9.19,0,1,0,17.86-4.3,1,1,0,0,0,0-.14c.46-.51,7.84-6,7.53-13.88-3.78.66-9.47,1.19-10.26-1.42S59.42,48,62.64,45.5a21.63,21.63,0,0,0-2.87-4.94l1.7-3.83a1.41,1.41,0,0,0-1.35-2L53.44,35A21.84,21.84,0,0,0,38.2,32.42Z"/></svg>