<?xml version="1.0" encoding="utf-8"?>
<!-- Generator: Adobe Illustrator 24.2.3, SVG Export Plug-In . SVG Version: 6.00 Build 0)  -->
<svg version="1.1" id="Layer_1" xmlns="http://www.w3.org/2000/svg" xmlns:xlink="http://www.w3.org/1999/xlink" x="0px" y="0px"
	 viewBox="0 0 100 100" style="enable-background:new 0 0 100 100;" xml:space="preserve">
<path d="M57,41.9c-1-1.3-2.5-2.1-4.1-2.1c0,0,0,0,0,0H33c0,0,0,0,0,0c-1.6,0-3.2,0.8-4.2,2.1l0,0c-5.7,7.8-4.1,18.7,3.7,24.5
	c2.5,1.8,5.4,3,8.4,3.3v16.4h-5.5c-1.1,0-2,0.9-2,2s0.9,2,2,2h15c1.1,0,2-0.9,2-2s-0.9-2-2-2h-5.5V69.7c0.2,0,0.4,0,0.6-0.1
	c4.6-0.7,8.7-3.2,11.5-6.9C61.6,56.5,61.6,48.1,57,41.9z M29.5,50.6c0.3-2.2,1.1-4.4,2.5-6.3c0.2-0.3,0.6-0.5,1-0.5h0h19.8
	c0,0,0,0,0,0c0.4,0,0.7,0.2,0.9,0.5c1.4,1.9,2.2,4.1,2.5,6.3H29.5z"/>
<path d="M84,40.2c-1.6-1.9-3.2-3.7-3.2-7.4V16.6c0-1.6-1.3-2.9-2.9-2.9h-3.1c-1.6,0-2.9,1.3-2.9,2.9v16.3c0,3.7-1.5,5.5-3.2,7.4
	c-1.8,2-3.6,4.1-3.6,8.6v34.8c0,2.7,2.2,5,5,5h12.5c2.7,0,5-2.2,5-5V48.9C87.6,44.4,85.8,42.3,84,40.2z M68.6,57.4
	c0-1.1,0.9-2.1,2.1-2.1h11.8c1.1,0,2.1,0.9,2.1,2.1v10.7c0,1.1-0.9,2.1-2.1,2.1H70.6c-1.1,0-2.1-0.9-2.1-2.1V57.4z"/>
<path d="M25.6,10.7c-8.7,0-15.8,7.1-15.8,15.8c0,8.7,7.1,15.8,15.8,15.8s15.8-7.1,15.8-15.8C41.4,17.8,34.3,10.7,25.6,10.7z
	 M13.8,26.5c0-2.5,0.8-4.8,2.1-6.7l16.4,16.4c-1.9,1.3-4.2,2.1-6.7,2.1C19.1,38.3,13.8,33,13.8,26.5z M35.3,33.2L18.9,16.8
	c1.9-1.3,4.2-2.1,6.7-2.1c6.5,0,11.8,5.3,11.8,11.8C37.4,29,36.6,31.3,35.3,33.2z"/>
</svg>
