<svg id="Layer_1" data-name="Layer 1" xmlns="http://www.w3.org/2000/svg" viewBox="0 0 100 100"><defs><style>.cls-1{fill:none;stroke:#000;stroke-miterlimit:10;stroke-width:3px;}</style></defs><path class="cls-1" d="M23,11.75a2.32,2.32,0,0,1,4,0l5.72,9.91,5.72,9.91a2.32,2.32,0,0,1-2,3.48H13.54a2.32,2.32,0,0,1-2-3.48l5.73-9.91Z"/><path d="M23.27,16.51a.83.83,0,0,1,.81-1h1.67a.85.85,0,0,1,.83,1L25.77,26a.85.85,0,0,1-.86.84.83.83,0,0,1-.83-.84Zm1.64,12a1.59,1.59,0,0,1,1.65,1.6v.23a1.65,1.65,0,0,1-3.29,0V30.1A1.59,1.59,0,0,1,24.91,28.5Z"/><path d="M85.2,78.66a4.34,4.34,0,0,0-7.66-1.56,1.39,1.39,0,0,1-1.56.54L61.52,72.56l14.31-5a1.6,1.6,0,0,1,1.79.43,4.34,4.34,0,1,0,4.71-6.87,4.35,4.35,0,1,0-7.75-2.69,1.75,1.75,0,0,1-1.13,1.72l-5.65,2a7.93,7.93,0,0,0,1.91-5.17V45.09h-.16C68.31,36.46,60,29.73,50.17,29.73S32,36.46,30.8,45.09h-.16V56.94a8,8,0,0,0,2.27,5.58L26.1,60.13A1.75,1.75,0,0,1,25,58.4a4.36,4.36,0,1,0-7.76,2.7A4.35,4.35,0,1,0,21.93,68a1.62,1.62,0,0,1,1.8-.43l14.31,5L23.57,77.64A1.39,1.39,0,0,1,22,77.1a4.34,4.34,0,1,0-4.79,6.77A4.35,4.35,0,1,0,25,86.56,1.64,1.64,0,0,1,26.08,85l23.7-8.32L73.47,85a1.67,1.67,0,0,1,1.11,1.58,4.34,4.34,0,0,0,4.36,4.35,4.4,4.4,0,0,0,1-.11,4.35,4.35,0,0,0,2.38-6.95,4.34,4.34,0,0,0,2.87-5.21Zm-42.64-13V60.94H38.64a4,4,0,0,1-4-4V47.12c.13-7.38,7.09-13.39,15.53-13.39s15.41,6,15.54,13.39v9.82a4,4,0,0,1-4,4H57.92v4.68a4,4,0,0,1-2.49,3.71V65.56a2,2,0,0,0-4,0v4.06H48.85V65.56a2,2,0,0,0-4,0v3.66A4,4,0,0,1,42.56,65.62Z"/><circle cx="43.31" cy="50.37" r="4.55" transform="matrix(0.99, -0.16, 0.16, 0.99, -7.51, 7.59)"/><circle cx="56.93" cy="50.37" r="4.55"/><polygon points="50.19 56.18 47.88 59.57 52.39 59.57 50.19 56.18"/></svg>