<?xml version="1.0" encoding="utf-8"?>
<!-- Generator: Adobe Illustrator 24.0.0, SVG Export Plug-In . SVG Version: 6.00 Build 0)  -->
<svg version="1.1" id="Layer_1" xmlns="http://www.w3.org/2000/svg" xmlns:xlink="http://www.w3.org/1999/xlink" x="0px" y="0px"
	 viewBox="0 0 100 100" style="enable-background:new 0 0 100 100;" xml:space="preserve">
<g>
	<polygon points="69.8,23 73.6,20.8 77.6,22.7 76.6,18.4 79.7,15.2 75.3,14.7 73.2,10.9 71.4,14.9 67.1,15.7 70.3,18.7 	"/>
	<path d="M13.7,32.9c0.3,0.2,0.7,0.3,1.1,0.3c0.7,0,1.3-0.3,1.7-0.9c0.6-0.9,0.3-2.2-0.6-2.8c-0.6-0.4-0.9-0.9-1.1-1.6
		c0.1-1.6,5.1-5.6,20.2-7.9c1.1-0.2,1.8-1.2,1.7-2.3c-0.2-1.1-1.2-1.8-2.3-1.7c-7.2,1.1-23.8,4.6-23.5,12.1c0,0.1,0,0.1,0,0.2
		C11,30.2,12.1,31.9,13.7,32.9z"/>
	<path d="M54.3,18.4c3.1-0.1,6.2,0,9.1,0.2c0,0,0.1,0,0.1,0c1,0,1.9-0.8,2-1.9c0.1-1.1-0.8-2.1-1.9-2.1c-3-0.2-6.2-0.3-9.5-0.2
		c-1.1,0-2,0.9-2,2C52.3,17.5,53.2,18.4,54.3,18.4z"/>
	<path d="M44.2,47.5L44.2,47.5l0.1,0c1.7-0.1,3.3-0.5,4.8-1.3c1-0.5,1.4-1.7,0.9-2.7c-0.5-1-1.7-1.4-2.7-0.9c-1,0.5-2,0.8-3.1,0.8
		c-1,0-1.9-0.3-2.7-0.9c-0.9-0.6-2.2-0.4-2.8,0.5c-0.6,0.9-0.4,2.2,0.5,2.8C40.7,47,42.4,47.5,44.2,47.5z"/>
	<path d="M53.8,45.6c1.5,1,3.2,1.6,5,1.6l0.1,0l0.1,0c1.7-0.1,3.3-0.5,4.8-1.3c1-0.5,1.4-1.7,0.9-2.7s-1.7-1.4-2.7-0.9
		c-1,0.5-2,0.8-3.1,0.8c-1,0-1.9-0.3-2.7-0.9c-0.9-0.6-2.2-0.4-2.8,0.5S52.9,44.9,53.8,45.6z"/>
	<path d="M93.5,90.5c0-0.4-1.1-9.2-6.8-12.8c-4.6-2.9-18.4-6.6-22.3-7.5c6.4-5.2,10.5-14,10.5-23c0-3.6-0.6-7-1.8-10.1
		c2.6-0.5,5.1-1.1,7.3-1.8c8.5-2.5,12.8-5.8,12.6-9.6c0-3.4-3.4-6.2-10.2-8.2c-1.1-0.3-2.2,0.3-2.5,1.3c-0.3,1.1,0.3,2.2,1.3,2.5
		c5.8,1.7,7.3,3.6,7.3,4.4c0,1-2,3.4-9.8,5.7c-2.4,0.7-5,1.3-7.8,1.9c-4.1-7.6-11.5-12.6-19.9-12.6c-0.9,0-1.9,0.1-2.8,0.2l-0.9-4
		l3-3.2l-4.4-0.5l-2.1-3.9l-1.8,4l-4.3,0.8l3.3,3L41,21.4l3.8-2.2l3.5,1.7c-6.3,1-11.9,4.9-15.5,10.4l-4.3-0.4L26.4,27l-1.8,4
		l-4.3,0.8l3.3,3L23,39.2l3.8-2.2l2.7,1.3c-0.9,2.8-1.4,5.8-1.4,8.9c0,9.1,4.1,18,10.7,23.1c-4.5,1.2-17.4,4.6-21.7,7.4
		c-5.7,3.7-6.8,12.5-6.8,12.8c-0.1,1.1,0.7,2.1,1.8,2.2c0.1,0,0.2,0,0.2,0c1,0,1.9-0.8,2-1.8c0-0.1,0.9-7.3,5-9.9
		c3.6-2.3,15.2-5.5,20.8-6.9c1.7,5.6,6.2,10.8,11.6,10.8c5.4,0,10-5.3,11.6-11c5.4,1.4,17.6,4.7,21.3,7.1c4.1,2.6,5,9.8,5,9.9
		c0.1,1,1,1.8,2,1.8c0.1,0,0.1,0,0.2,0C92.8,92.6,93.6,91.6,93.5,90.5z M51.5,24.6c6.4,0,12.2,3.7,15.7,9.3c-4.7,0.7-9.7,1.1-15,1.3
		c-5.3,0.2-10.8,0-16.1-0.4c-0.3,0-0.6,0-0.8,0.1C38.7,28.7,44.7,24.6,51.5,24.6z M29.9,34.5l2.6-2.8c-0.9,1.4-1.6,2.9-2.3,4.5
		L29.9,34.5z M32.1,47.1c0-3.4,0.7-6.7,1.9-9.6c0.3,0.7,0.9,1.2,1.7,1.3c3.9,0.3,7.9,0.5,11.9,0.5c1.6,0,3.1,0,4.7-0.1
		c5.9-0.2,11.6-0.7,16.8-1.5c1.1,2.9,1.8,6,1.8,9.4c0,8.4-4,16.5-10.1,20.7c0,0,0,0,0,0c-6.7,4-11.9,4-18.4,0l0,0
		C36.1,63.6,32.1,55.5,32.1,47.1z M51.6,80.9c-3.3,0-6.4-3.7-7.7-7.7c2.6,1.1,5,1.7,7.5,1.7c2.6,0,5.1-0.6,7.8-1.8
		C58,77.1,54.9,80.9,51.6,80.9z"/>
</g>
</svg>
