<?xml version="1.0" encoding="utf-8"?>
<!-- Generator: Adobe Illustrator 24.0.0, SVG Export Plug-In . SVG Version: 6.00 Build 0)  -->
<svg version="1.1" id="Layer_1" xmlns="http://www.w3.org/2000/svg" xmlns:xlink="http://www.w3.org/1999/xlink" x="0px" y="0px"
	 viewBox="0 0 100 100" style="enable-background:new 0 0 100 100;" xml:space="preserve">
<g>
	<path d="M91.2,85.6c0-0.3-1-8.4-6.3-11.8c-4-2.6-15.7-5.7-19.9-6.8c5.7-4.8,9.3-12.7,9.3-20.7c0-3.5-0.6-6.8-1.8-9.7
		c1.4-0.3,2.7-0.7,3.9-1c8.5-2.6,12.8-5.8,12.6-9.7c-0.2-3.4-3.6-6.1-10.3-8.1c-1.1-0.3-2.2,0.3-2.5,1.3c-0.3,1.1,0.3,2.2,1.3,2.5
		C83,23.2,85,25,85,26.1c0,1-2,3.4-9.8,5.7c-1.4,0.4-2.9,0.8-4.5,1.2c-3.8-6.5-10.4-10.8-17.8-10.8c0,0-0.1,0-0.1,0
		c-3.1,0.2-6.2,1.1-8.9,2.6C36.3,25.2,29.8,30,26.2,37l-0.4-2.1l3-3.2l-4.4-0.5l-2.1-3.9l-1.8,4l-4.3,0.8l3.3,3l-0.6,4.4l3.8-2.2
		l2.8,1.3c-1.3,3.2-2.1,6.7-2.1,10.4c0,8.2,3.7,16.2,9.5,20.9c-4.5,1.2-15.5,4.2-19.4,6.6C8.2,79.9,7.2,88,7.2,88.3
		c-0.1,1.1,0.7,2.1,1.8,2.2c0.1,0,0.2,0,0.2,0c1,0,1.9-0.8,2-1.8c0.2-1.8,1.4-6.9,4.4-8.8c3.2-2,13.5-4.9,18.6-6.2
		c0.5,1.7,1.3,3.4,2.4,4.9c2.3,3.3,5.2,5.1,8.2,5.1s6-1.8,8.2-5.1c1.1-1.5,1.9-3.3,2.4-5c5,1.3,15.8,4.3,19.1,6.3
		c3,1.9,4.2,7,4.4,8.8c0.1,1,1,1.8,2,1.8c0.1,0,0.1,0,0.2,0c1.1-0.1,1.9-1.1,1.8-2.2c0-0.3-1-8.4-6.3-11.8c-2.6-1.7-8.5-3.6-13.4-5
		c0.1-0.2,0.2-0.5,0.3-0.7c4.9,1.2,15.9,4.3,19.2,6.4c3,1.9,4.2,7,4.4,8.8c0.1,1,1,1.8,2,1.8c0.1,0,0.1,0,0.2,0
		C90.5,87.7,91.3,86.7,91.2,85.6z M70.3,46.4c0,7.5-3.6,14.8-9.1,18.6c0,0-0.1,0.1-0.1,0.1c3.2-4.5,5.1-10.3,5.1-16.2
		c0-3.8-0.8-7.5-2.2-10.7c1.6-0.2,3.1-0.5,4.6-0.8C69.6,40.2,70.3,43.2,70.3,46.4z M53,26.2c5.5,0,10.3,3,13.5,7.6
		c-1.5,0.3-3,0.5-4.6,0.7c-2.5-3.7-5.8-6.6-9.7-8.2C52.4,26.2,52.7,26.2,53,26.2z M44.8,28.8c4.9,0,9.4,2.4,12.5,6.3
		c-2.9,0.3-6,0.5-9.1,0.6c-5.3,0.2-10.7,0-16-0.4C35.3,31.3,39.8,28.8,44.8,28.8z M27.4,49c0-4,1-7.7,2.7-10.8c0.3,0.6,0.9,1,1.6,1
		c4,0.3,8,0.5,11.9,0.5c1.5,0,3.1,0,4.6-0.1c3.9-0.1,7.8-0.4,11.4-0.8c1.5,3,2.4,6.5,2.4,10.2c0,7.4-3.5,14.6-8.8,18.4
		c-6.1,3.5-11.1,3.5-17.1,0C30.8,63.5,27.4,56.4,27.4,49z M44.8,79.7c-2.8,0-5.5-3.4-6.7-6.9c2.2,0.9,4.4,1.3,6.6,1.3
		c2.3,0,4.5-0.5,6.9-1.4C50.4,76.3,47.7,79.7,44.8,79.7z M56.7,69.8c1.3-1.1,2.6-2.4,3.7-3.8c-0.1,0.3-0.2,0.5-0.2,0.8
		c0,0,0,0,0,0.1c0,0.5-0.1,1.1-0.2,1.5c-0.2,0.7-0.4,1.4-0.7,2.2C58.4,70.2,57.4,70,56.7,69.8z"/>
	<path d="M38.2,49.6L38.2,49.6c1.6-0.1,3.2-0.5,4.6-1.2c1-0.5,1.4-1.7,0.8-2.7c-0.5-1-1.7-1.4-2.7-0.8c-0.8,0.4-1.8,0.7-2.7,0.8
		c-0.8,0-1.7-0.3-2.4-0.8c-0.9-0.6-2.2-0.4-2.8,0.5c-0.6,0.9-0.4,2.2,0.5,2.8C34.9,49.1,36.5,49.6,38.2,49.6L38.2,49.6z"/>
	<path d="M46.7,47.8c1.4,1,3,1.5,4.6,1.5l0.1,0l0.1,0c1.6-0.1,3.1-0.5,4.5-1.2c1-0.5,1.4-1.7,0.8-2.7c-0.5-1-1.7-1.4-2.7-0.8
		c-0.8,0.4-1.8,0.7-2.8,0.8c-0.8,0-1.6-0.3-2.3-0.8c-0.9-0.6-2.2-0.4-2.8,0.5C45.6,45.9,45.8,47.2,46.7,47.8z"/>
	<polygon points="36.9,21.8 40.7,19.6 44.7,21.5 43.8,17.2 46.8,14 42.4,13.5 40.3,9.6 38.5,13.7 34.2,14.5 37.5,17.4 	"/>
	<polygon points="65.7,23.3 69.5,21.2 73.5,23 72.6,18.7 75.6,15.5 71.2,15.1 69.1,11.2 67.3,15.2 63,16 66.3,19 	"/>
	<path d="M9.7,33.2c0.3,0.2,0.7,0.3,1.1,0.3c0.7,0,1.3-0.3,1.7-0.9c0.6-0.9,0.3-2.2-0.6-2.8c-0.6-0.4-0.9-0.9-1.1-1.6
		c0.1-1.6,5.1-5.6,20.2-8c1.1-0.2,1.8-1.2,1.7-2.3c-0.2-1.1-1.2-1.8-2.3-1.7C23.1,17.5,6.5,21,6.7,28.5c0,0.1,0,0.1,0,0.2
		C7,30.6,8,32.2,9.7,33.2z"/>
	<path d="M50.2,18.7c3.1-0.1,6.2,0,9.1,0.2c0,0,0.1,0,0.1,0c1,0,1.9-0.8,2-1.9c0.1-1.1-0.8-2.1-1.9-2.1c-3-0.2-6.2-0.3-9.4-0.2
		c-1.1,0-2,0.9-2,2C48.2,17.9,49.1,18.8,50.2,18.7z"/>
</g>
</svg>
