<svg id="Layer_1" data-name="Layer 1" xmlns="http://www.w3.org/2000/svg" viewBox="0 0 100 100"><defs><style>.cls-1{fill:none;}.cls-1,.cls-2,.cls-3{stroke:#000;stroke-miterlimit:10;stroke-width:4px;}.cls-3{fill:#fff;}</style></defs><circle class="cls-1" cx="24.91" cy="24.4" r="13.77"/><path d="M16.75,13.31a13.7,13.7,0,0,0-2.92,2.92L33.08,35.48A14.18,14.18,0,0,0,36,32.56Z"/><path class="cls-2" d="M27.83,63.25,24.07,57.5l.54.81-7.72,5-.54-.83,3.77,5.77a4.61,4.61,0,0,0,7.71-5Z"/><path class="cls-2" d="M14.68,51.54a4.61,4.61,0,0,1,6.38,1.34l3,4.62L21,52.8a4.46,4.46,0,0,0-6.16-1.37l-.33.22a4.45,4.45,0,0,0-1.23,6.18l3.06,4.69-3-4.6A4.6,4.6,0,0,1,14.68,51.54Z"/><path class="cls-2" d="M25.91,75.59l-3.23,4.93A4.61,4.61,0,0,0,24,86.9h0a4.61,4.61,0,0,0,6.38-1.34l3.77-5.77-.55.83Z"/><path class="cls-3" d="M36,68.93l-.33-.22a4.47,4.47,0,0,0-6.16,1.36l-3.6,5.52h0l3.55-5.43a4.6,4.6,0,1,1,7.71,5l-3,4.6,3-4.68A4.45,4.45,0,0,0,36,68.93Z"/><path d="M75,38.49a29.64,29.64,0,0,0-4.7-1.7A4.09,4.09,0,0,1,67.41,33l-.14-4.83-.16,0a10,10,0,0,0,1.51-8.5,9.92,9.92,0,0,1,2.27,1.64,10.68,10.68,0,0,1,1.88,12.09,1,1,0,0,0,1.63,1.13,13.14,13.14,0,0,0,2.26-2.48c2.82-4,3-9.22.49-12.84a10.21,10.21,0,0,0-11-3.88A10.07,10.07,0,0,0,49.21,25l-.85,2.55a.64.64,0,0,0,.69.84l1.66-.23a10.08,10.08,0,0,0,7,4.17L57,40.52A6,6,0,0,1,54.24,45l-3,1.89A6,6,0,0,0,49,54.46l1.52,3.3a3,3,0,0,1-.79,3.5,21.24,21.24,0,0,0-6.86,12,14.83,14.83,0,0,0-.22,2.62,21.77,21.77,0,0,0,2.07,9.55l2,4.24H73.86s-.31-14.41.65-15.28c3.67-3.32,12.31-11.45,13-14.8C88.31,55.34,76.68,39.44,75,38.49Zm2.61,21L72,66.19a.31.31,0,0,1-.55-.22l.89-14.77a.31.31,0,0,1,.56-.17l4.81,6.7A1.41,1.41,0,0,1,77.63,59.46Z"/></svg>