<svg id="Layer_1" data-name="Layer 1" xmlns="http://www.w3.org/2000/svg" viewBox="0 0 100 100"><defs><style>.cls-1,.cls-2{fill:none;stroke:#000;stroke-linecap:round;stroke-width:4px;}.cls-1{stroke-miterlimit:10;}.cls-2{stroke-linejoin:round;}</style></defs><line class="cls-1" x1="73.8" y1="40.85" x2="81.22" y2="39.54"/><line class="cls-1" x1="73.8" y1="48.12" x2="81.22" y2="49.43"/><path class="cls-1" d="M84,57.57a5,5,0,0,0,1,.09,4.92,4.92,0,0,0,4.92-4.92,5.25,5.25,0,0,0-.16-1.19,8.18,8.18,0,0,0,0-14.78,5.1,5.1,0,0,0,.16-1.19,4.92,4.92,0,0,0-4.92-4.92,5,5,0,0,0-1,.1"/><path class="cls-2" d="M33,67.31s-16.87,4-21.82,7.12S5.32,85.68,5.32,85.68"/><path class="cls-2" d="M82.25,85.68s-.9-8.1-5.84-11.25S53.9,67,53.9,67"/><path class="cls-2" d="M43.77,16.38c-12.05,0-22.17,11.27-22.17,25.09,0,9.51,4.62,18.41,11.42,23v0a10.49,10.49,0,0,0,21,0c0-.06,0-.11,0-.17.65-.45,10.31-4.58,12.06-13.4-4.37-.27-10.83-1.2-11-4.31s8.38-7.3,12.62-9.23a25.08,25.08,0,0,0-1.87-6.25l2.91-3.79a1.62,1.62,0,0,0-1-2.56l-7.48-1.5A25,25,0,0,0,44,16.38Z"/></svg>