<svg id="Layer_1" data-name="Layer 1" xmlns="http://www.w3.org/2000/svg" viewBox="0 0 100 100"><defs><style>.cls-1,.cls-2{fill:none;}.cls-2{stroke:#000;stroke-miterlimit:10;stroke-width:3px;}</style></defs><g id="_161" data-name="161"><rect class="cls-1" x="34.49" y="33.2" width="55.23" height="55.23"/><path d="M85.87,38.47h0a13,13,0,0,0-19.93,0l-3.69,4.19-3.7-4.19a13,13,0,0,0-19.93,0h0a17.53,17.53,0,0,0,0,22.59l3.7,4.2L62.25,87.85,82.18,65.26l3.69-4.2A17.5,17.5,0,0,0,85.87,38.47ZM63.32,71.67a2,2,0,0,1-2.76.65,2,2,0,0,1-.65-2.75l4.63-7.5H52.61l8.41-13a2,2,0,0,1,3.36,2.17L60,58.07H71.71Z"/></g><g id="_193" data-name="193"><path class="cls-2" d="M22.41,11a2.55,2.55,0,0,1,4.42,0l6.31,10.92,6.31,10.93a2.55,2.55,0,0,1-2.21,3.83H12a2.56,2.56,0,0,1-2.21-3.83L16.1,21.91Z"/><path d="M22.72,16.24a.92.92,0,0,1,.9-1.1h1.84a.94.94,0,0,1,.92,1.1l-.9,10.42a.93.93,0,0,1-.94.92.91.91,0,0,1-.92-.92Zm1.82,13.21a1.74,1.74,0,0,1,1.81,1.76v.26a1.74,1.74,0,0,1-1.81,1.76,1.76,1.76,0,0,1-1.82-1.76v-.26A1.76,1.76,0,0,1,24.54,29.45Z"/></g></svg>