<svg id="Layer_1" data-name="Layer 1" xmlns="http://www.w3.org/2000/svg" viewBox="0 0 100 100"><defs><style>.cls-1{fill:none;stroke:#000;stroke-miterlimit:10;stroke-width:4px;}</style></defs><circle class="cls-1" cx="23.99" cy="25.32" r="13.77"/><path d="M15.83,14.23a13.7,13.7,0,0,0-2.92,2.92L32.16,36.4a13.7,13.7,0,0,0,2.92-2.92Z"/><path d="M74.09,39.53a30.41,30.41,0,0,0-4.7-1.7A4.07,4.07,0,0,1,66.48,34l-.3-4.81a10.09,10.09,0,0,0,1.51-8.51,10.7,10.7,0,0,0-2.48-4.33,10.07,10.07,0,0,0-16.93,9.68l-.85,2.56a.64.64,0,0,0,.69.84l1.66-.23a10.12,10.12,0,0,0,7,4.17l-.78,8.15A6,6,0,0,1,53.3,46l-3,1.9a6,6,0,0,0-2.23,7.55l1.52,3.31a3,3,0,0,1-.79,3.5,21.31,21.31,0,0,0-6.87,12A17,17,0,0,0,41.75,77a21.93,21.93,0,0,0,2.08,9.55l2,4.24H72.93s-.31-14.41.65-15.28c3.67-3.32,12.31-11.45,13-14.81C87.37,56.38,75.75,40.48,74.09,39.53Zm2.6,21-5.64,6.73A.31.31,0,0,1,70.5,67l.88-14.78a.32.32,0,0,1,.57-.16l4.81,6.7A1.41,1.41,0,0,1,76.69,60.5Z"/><path d="M61.16,16.71a5.14,5.14,0,0,1,2.33-3.44,5.48,5.48,0,0,1,4.66-.64,7.46,7.46,0,0,1,2.65,1.45,7.33,7.33,0,0,1,2.36,3.31,8.81,8.81,0,0,1,.51,2.37c.06,1,.08,1.92.11,2.87a7.29,7.29,0,0,0,.15,1.62,1.38,1.38,0,0,0,1.56,1.11,1.91,1.91,0,0,0,1.66-1.74c0-.07,0-.13,0-.19h0c0,.21.11.42.14.63A3.8,3.8,0,0,1,76,28a3,3,0,0,1-1.29.68A3.93,3.93,0,0,1,71.57,28a4.24,4.24,0,0,1-1.65-2.33,13.21,13.21,0,0,1-.44-2.42,22.41,22.41,0,0,0-.41-2.69,3.85,3.85,0,0,0-2-2.66,2.61,2.61,0,0,0-2.15-.22,4.4,4.4,0,0,0-.42.18A31.67,31.67,0,0,1,61.16,16.71Z"/></svg>