<svg id="Layer_1" data-name="Layer 1" xmlns="http://www.w3.org/2000/svg" viewBox="0 0 100 100"><defs><style>.cls-1,.cls-2,.cls-3,.cls-4{fill:none;stroke:#000;}.cls-1,.cls-2,.cls-4{stroke-miterlimit:10;}.cls-1,.cls-3,.cls-4{stroke-width:4px;}.cls-2{stroke-width:3.88px;}.cls-3{stroke-linejoin:round;}.cls-4{stroke-linecap:round;}</style></defs><circle class="cls-1" cx="24.7" cy="24.85" r="13.77"/><path d="M16.54,13.76a13.94,13.94,0,0,0-2.92,2.92L32.87,35.93A13.94,13.94,0,0,0,35.79,33Z"/><path d="M29.88,56.14l-1.28-3h0V49.24a1.78,1.78,0,0,0-1.78-1.78h-13A1.78,1.78,0,0,0,12,49.24v3.85l-1.19,3.12A5.1,5.1,0,0,0,10.52,58V73.31a1.75,1.75,0,0,0,1.75,1.75H28.53a1.76,1.76,0,0,0,1.75-1.75V58.11A5.1,5.1,0,0,0,29.88,56.14Zm-2.1,12.94A1.75,1.75,0,0,1,26,70.83H14.76A1.75,1.75,0,0,1,13,69.08V60.56a1.76,1.76,0,0,1,1.75-1.75H26a1.75,1.75,0,0,1,1.75,1.75Z"/><line class="cls-2" x1="16.42" y1="64.76" x2="24.33" y2="64.76"/><line class="cls-2" x1="20.37" y1="68.72" x2="20.37" y2="60.81"/><path class="cls-3" d="M79.31,24.68c0-7.24-5.11-13.1-11.42-13.1s-11.41,5.86-11.41,13.1a14.75,14.75,0,0,0,6,12h0c0,3,2.46,8.49,5.49,8.49s5.49-5.46,5.49-8.49a.28.28,0,0,0,0-.09A14.75,14.75,0,0,0,79.31,24.68Z"/><path class="cls-4" d="M47.53,47.81s.47-4.24,3.06-5.88S62.36,38,62.36,38"/><path class="cls-4" d="M88.22,47.81s-.47-4.24-3.06-5.88S73.39,38,73.39,38"/><path class="cls-3" d="M79.31,65.63c0-7.23-5.11-13.09-11.42-13.09S56.48,58.4,56.48,65.63a14.77,14.77,0,0,0,6,12.06h0c0,3,2.46,8.49,5.49,8.49s5.49-5.46,5.49-8.49a.28.28,0,0,0,0-.09A14.75,14.75,0,0,0,79.31,65.63Z"/><path class="cls-4" d="M47.53,88.77s.47-4.24,3.06-5.89S62.36,79,62.36,79"/><path class="cls-4" d="M88.22,88.77s-.47-4.24-3.06-5.89S73.39,79,73.39,79"/><polyline class="cls-4" points="42.85 50.81 34.09 59.29 42.85 67.77"/><path class="cls-3" d="M63,37h0c3.42,2.13,6.3,2.13,9.78,0"/><path class="cls-3" d="M63,78.18c3.42,2.13,6.3,2.13,9.78,0"/></svg>