<svg id="Layer_1" data-name="Layer 1" xmlns="http://www.w3.org/2000/svg" viewBox="0 0 100 100"><defs><style>.cls-1{fill:none;stroke:#000;stroke-miterlimit:10;stroke-width:4px;}</style></defs><path d="M87.25,55.19l-2.11-5h0V43.82a2.94,2.94,0,0,0-2.94-3H60.76a3,3,0,0,0-2.95,3v6.35l-2,5.14a8.48,8.48,0,0,0-.55,3V83.52a2.9,2.9,0,0,0,2.89,2.89H85a2.9,2.9,0,0,0,2.9-2.89V58.45A8.48,8.48,0,0,0,87.25,55.19ZM83.79,76.55a2.89,2.89,0,0,1-2.89,2.89H62.31a2.89,2.89,0,0,1-2.89-2.89V62.49a2.89,2.89,0,0,1,2.89-2.89H80.9a2.9,2.9,0,0,1,2.89,2.89Z"/><rect x="66.22" y="67.95" width="10.99" height="4.05"/><rect x="69.68" y="64.48" width="4.05" height="10.99"/><path d="M36.48,69.9l-1.14-2.71h0V63.77a1.59,1.59,0,0,0-1.58-1.59H22.2a1.59,1.59,0,0,0-1.59,1.59v3.42L19.56,70a4.51,4.51,0,0,0-.3,1.62V85.17a1.56,1.56,0,0,0,1.56,1.56H35.27a1.56,1.56,0,0,0,1.56-1.56V71.66A4.61,4.61,0,0,0,36.48,69.9ZM34.61,81.41A1.56,1.56,0,0,1,33.05,83H23a1.56,1.56,0,0,1-1.56-1.56V73.84A1.56,1.56,0,0,1,23,72.28h10a1.56,1.56,0,0,1,1.56,1.56Z"/><rect x="25.14" y="76.78" width="5.92" height="2.19"/><rect x="27.01" y="74.91" width="2.19" height="5.92"/><path d="M45,81.48H42.4a1.53,1.53,0,1,1,0-3.06H45V75.87a1.58,1.58,0,1,1,3.15,0v2.55h2.62a1.53,1.53,0,1,1,0,3.06H48.17V84A1.58,1.58,0,0,1,45,84Z"/><circle class="cls-1" cx="31.36" cy="29.73" r="4.16"/><circle class="cls-1" cx="48.64" cy="42.31" r="3.42"/><circle class="cls-1" cx="68.76" cy="24.55" r="3.42"/><circle class="cls-1" cx="47.42" cy="13.73" r="3.18"/></svg>