<?xml version="1.0" encoding="utf-8"?>
<!-- Generator: Adobe Illustrator 24.2.3, SVG Export Plug-In . SVG Version: 6.00 Build 0)  -->
<svg version="1.1" id="Layer_1" xmlns="http://www.w3.org/2000/svg" xmlns:xlink="http://www.w3.org/1999/xlink" x="0px" y="0px"
	 viewBox="0 0 100 100" style="enable-background:new 0 0 100 100;" xml:space="preserve">
<g>
	<path d="M76.2,48.6c0.1,0,0.2,0,0.3,0l7.6-1.4c1.1-0.2,1.8-1.2,1.6-2.3c-0.2-1.1-1.2-1.8-2.3-1.6l-7.6,1.4
		c-1.1,0.2-1.8,1.2-1.6,2.3C74.4,47.9,75.2,48.6,76.2,48.6z"/>
	<path d="M75.8,56.1l7.6,1.4c0.1,0,0.2,0,0.3,0c1,0,1.8-0.7,2-1.7c0.2-1.1-0.5-2.1-1.6-2.3l-7.6-1.4c-1.1-0.2-2.1,0.5-2.3,1.6
		C74,54.9,74.7,55.9,75.8,56.1z"/>
	<path d="M98.4,45.6c-0.8-1.7-2.1-3.2-3.6-4.2c0.1-3.2-2-6.1-5.2-7c-0.6-0.2-1.3-0.2-1.9-0.2c-0.5,0-1,0-1.4,0.1
		c-1.1,0.2-1.8,1.3-1.5,2.4c0.2,1.1,1.3,1.8,2.4,1.5c0.2,0,0.4-0.1,0.6-0.1c0.3,0,0.6,0,0.8,0.1c1.6,0.4,2.5,2.1,2.1,3.7l-0.4,1.6
		l1.5,0.7c1.3,0.6,2.4,1.7,3,3c1.5,3.2,0.2,7.1-3,8.6l-1.5,0.7l0.4,1.6c0.1,0.2,0.1,0.5,0.1,0.7c0,1.7-1.4,3.1-3.1,3.1
		c-0.2,0-0.4,0-0.6-0.1c-1.1-0.2-2.1,0.5-2.3,1.6c-0.2,1.1,0.5,2.1,1.6,2.3c0.5,0.1,0.9,0.1,1.4,0.1c3.9,0,7.1-3.2,7.1-7.1
		c0,0,0-0.1,0-0.1C99,55.9,100.6,50.3,98.4,45.6z"/>
	<path d="M80,79.6c-4.4-2.8-17.6-6.4-22.2-7.5c7.1-3.8,11.2-8.7,12.4-14.6c0.1-0.6,0-1.2-0.4-1.6c-0.4-0.5-0.9-0.7-1.5-0.8
		c-7.8-0.5-9.5-2.2-9.5-2.5c0,0,0.5-2.4,11.8-7.6c0.8-0.4,1.3-1.2,1.1-2.1c-0.3-2-0.9-4-1.6-5.8l2.3-3c1.2-1.6,0.9-3.9-0.7-5.1
		c-0.4-0.3-1-0.6-1.5-0.7l-7.1-1.4c-4.8-4.4-11-7-17.7-7.3h-0.3c-4.6,0-8.9,1.4-12.7,3.9c0.3-1.1,0.4-2.3,0.4-3.5
		C33,11.1,25.9,4,17.2,4S1.4,11.1,1.4,19.8c0,8.7,7.1,15.8,15.8,15.8c2.1,0,4.1-0.4,6-1.2c-1.8,3.9-2.8,8.3-2.8,12.9
		c0,9.9,4.6,19.5,11.9,24.8c0,0.1,0,0.1,0,0.2c-4.3,1.1-17.2,4.4-21.7,7.3c-5.8,3.7-6.9,12.7-6.9,13.1c-0.1,1.1,0.7,2.1,1.8,2.2
		c0.1,0,0.1,0,0.2,0c1,0,1.9-0.8,2-1.8c0-0.1,0.9-7.4,5.1-10.1c3.7-2.3,15.2-5.5,20.7-6.8c0.7,1.4,1.6,2.8,2.8,3.9
		c2.4,2.3,5.5,3.5,8.8,3.5c0.1,0,0.3,0,0.4,0c5.1-0.2,9.4-3.2,11.3-7.6c5.8,1.5,17.6,4.8,21.2,7.1c4.2,2.7,5.1,10.1,5.1,10.1
		c0.1,1,1,1.8,2,1.8c0.1,0,0.1,0,0.2,0c1.1-0.1,1.9-1.1,1.8-2.2C86.8,92.3,85.8,83.3,80,79.6z M29,19.8c0,2.5-0.8,4.8-2.1,6.7
		L10.5,10.1C12.4,8.8,14.7,8,17.2,8C23.7,8,29,13.3,29,19.8z M5.4,19.8c0-2.5,0.8-4.8,2.1-6.7l16.4,16.4c-1.9,1.3-4.2,2.1-6.7,2.1
		C10.7,31.5,5.4,26.2,5.4,19.8z M45.2,79.5c-2.4,0.1-4.6-0.8-6.3-2.4c-1.7-1.6-2.7-3.8-2.8-6.2c0-0.6-0.3-1.2-0.9-1.6
		c-6.6-4.5-10.9-13.2-10.9-22.1c0-12.9,9.6-23.9,20.9-23.9l0.2,0c5.8,0.2,11.3,2.6,15.4,6.6c0.3,0.3,0.6,0.4,1,0.5l7.2,1.4l-2.7,3.5
		c-0.4,0.6-0.5,1.4-0.2,2c0.7,1.4,1.2,2.9,1.5,4.5c-11.5,5.4-12.9,8.6-12.7,10.8C55,56,58.6,58,65.6,58.8c-1.5,3.8-5,7.2-10.3,10
		c-0.4,0.2-0.6,0.3-0.7,0.4c-0.5,0.4-0.9,1-0.9,1.6l0,0.1C53.6,75.6,49.9,79.4,45.2,79.5z"/>
</g>
</svg>
