<?xml version="1.0" encoding="utf-8"?>
<!-- Generator: Adobe Illustrator 24.2.3, SVG Export Plug-In . SVG Version: 6.00 Build 0)  -->
<svg version="1.1" id="Layer_1" xmlns="http://www.w3.org/2000/svg" xmlns:xlink="http://www.w3.org/1999/xlink" x="0px" y="0px"
	 viewBox="0 0 100 100" style="enable-background:new 0 0 100 100;" xml:space="preserve">
<g id="_193">
	<path d="M14.7,41c-1.1,0-2.1-0.4-2.9-1.2c-0.8-0.8-1.2-1.8-1.2-2.9c0-0.7,0.2-1.4,0.5-2l12.6-21.8c1.1-1.9,3.6-2.6,5.5-1.5
		c0.6,0.4,1.2,0.9,1.5,1.5L43.4,35c0.5,0.9,0.7,2,0.4,3.1c-0.3,1-1,1.9-1.9,2.5c-0.6,0.3-1.3,0.5-2,0.5H14.7
		C14.7,41,14.7,41,14.7,41z M27.3,14.1c-0.4,0-0.7,0.2-0.9,0.5l0,0L13.8,36.4c-0.1,0.2-0.1,0.3-0.1,0.5c0,0.3,0.1,0.5,0.3,0.7
		c0.2,0.2,0.5,0.3,0.7,0.3c0,0,0,0,0,0h25.2c0.2,0,0.4,0,0.5-0.1c0.2-0.1,0.4-0.4,0.5-0.6c0.1-0.3,0-0.6-0.1-0.8L28.2,14.6
		c-0.1-0.2-0.2-0.3-0.4-0.4C27.7,14.1,27.5,14.1,27.3,14.1z"/>
	<path d="M25.4,19.1c-0.1-0.5,0.2-1,0.7-1.1c0.1,0,0.1,0,0.2,0h1.8c0.5,0,0.9,0.4,0.9,0.9c0,0.1,0,0.1,0,0.2l-0.9,10.4
		c0,0.5-0.4,0.9-1,0.9c-0.5,0-0.9-0.4-0.9-0.9c0,0,0,0,0,0L25.4,19.1z M27.2,32.3c1,0,1.8,0.7,1.8,1.7c0,0,0,0.1,0,0.1v0.3
		c-0.1,1-0.9,1.8-1.9,1.7c-0.9-0.1-1.6-0.8-1.7-1.7v-0.3C25.4,33.1,26.2,32.3,27.2,32.3C27.2,32.3,27.2,32.3,27.2,32.3z"/>
	<path d="M79.7,41.4c-1.5-0.7-3.1-1.3-4.7-1.7c-1.7-0.5-2.8-2-2.9-3.8l-0.3-4.8c1.8-2.5,2.3-5.6,1.5-8.5c-0.3-1.1-0.8-2.1-1.5-3.1
		c0.3,0.1,0.5,0.1,0.8,0.3c1,0.5,1.8,1.5,2,2.7c0.2,0.9,0.3,1.8,0.4,2.7c0.1,0.8,0.2,1.6,0.5,2.4c0.3,0.9,0.8,1.8,1.6,2.3
		c0.9,0.6,2.1,0.9,3.1,0.6c0.5-0.1,0.9-0.4,1.3-0.7c1.2-0.9,1.7-2.4,1.4-3.9c0-0.2-0.2-0.4-0.2-0.6c0,0.1,0,0.1,0,0.2
		c-0.1,0.9-0.8,1.6-1.7,1.7c-0.7,0.1-1.4-0.4-1.6-1.1c-0.1-0.5-0.2-1.1-0.2-1.6c0-1,0-1.9-0.1-2.9c-0.1-0.8-0.2-1.6-0.5-2.4
		c-0.5-1.3-1.3-2.5-2.4-3.3c-0.8-0.7-1.7-1.1-2.7-1.4c-1.6-0.5-3.3-0.3-4.7,0.6c-0.5,0.3-0.8,0.6-1.2,1c-3.7-1.8-8.2-1.2-11.4,1.9
		c-2.6,2.6-3.7,6.4-2.7,9.9L53,30.5c-0.1,0.3,0.1,0.7,0.4,0.8c0.1,0,0.2,0,0.3,0l1.7-0.2c1.6,2.3,4.2,3.8,7,4.2l-0.8,8.2
		c-0.2,1.8-1.2,3.5-2.7,4.5l-3,1.9c-2.5,1.6-3.5,4.8-2.2,7.6l1.5,3.3c0.5,1.2,0.2,2.6-0.8,3.5c-3.6,3.1-6,7.3-6.9,12
		c-0.1,0.9-0.2,1.7-0.2,2.6c0,3.3,0.7,6.6,2.1,9.5l2,4.2h27.2c0,0-0.3-14.4,0.6-15.3c3.7-3.3,12.3-11.5,13-14.8
		C93,58.2,81.3,42.3,79.7,41.4z M82.3,62.3L82.3,62.3l-5.6,6.8c-0.1,0.1-0.3,0.1-0.5,0c-0.1-0.1-0.1-0.2-0.1-0.2L77,54.1
		c0-0.2,0.1-0.3,0.3-0.3c0.1,0,0.2,0.1,0.3,0.1l4.8,6.7C82.7,61.1,82.7,61.8,82.3,62.3z"/>
</g>
</svg>
