<svg id="Layer_1" data-name="Layer 1" xmlns="http://www.w3.org/2000/svg" viewBox="0 0 100 100"><defs><style>.cls-1,.cls-2{fill:none;stroke:#000;stroke-miterlimit:10;stroke-width:4px;}.cls-2{stroke-linecap:round;}</style></defs><path d="M55.93,86.75a26.76,26.76,0,0,1-11-2.46C30.7,77.7,19.45,68.09,13.6,53.14,12.23,49.62,11,46,11.78,42.07c1.07-5.23,4.57-8.54,9.12-10.82,1.94-1,2.74-.59,3.92,1.21q3.3,5,6.58,10c1.1,1.69,1.09,2.46-.32,3.91s-2.87,2.63-4.28,4c-1.9,1.82-2.15,2.53-.86,4.82A28.64,28.64,0,0,0,30.05,61,72.73,72.73,0,0,0,45.41,73c2.15,1.31,2.86,1.14,4.41-.81,1.11-1.4,2.11-2.89,3.25-4.28,1.49-1.82,2.33-2,4.35-.87C61,69,64.51,71,68.11,72.86a2.19,2.19,0,0,1,1.26,2.84c-1.49,5.68-5.27,9.06-10.82,10.59C57.59,86.55,56.59,86.63,55.93,86.75Z"/><circle class="cls-1" cx="73.5" cy="23.85" r="14.98"/><line class="cls-2" x1="66.13" y1="23.4" x2="81.18" y2="23.4"/><line class="cls-2" x1="73.65" y1="30.93" x2="73.65" y2="15.88"/><path class="cls-2" d="M43.52,45.48a8,8,0,0,1,7.95,8"/><path class="cls-2" d="M44.07,37.49A14.81,14.81,0,0,1,58.87,52.3"/></svg>