<?xml version="1.0" encoding="utf-8"?>
<!-- Generator: Adobe Illustrator 24.0.0, SVG Export Plug-In . SVG Version: 6.00 Build 0)  -->
<svg version="1.1" id="Layer_1" xmlns="http://www.w3.org/2000/svg" xmlns:xlink="http://www.w3.org/1999/xlink" x="0px" y="0px"
	 viewBox="0 0 100 100" style="enable-background:new 0 0 100 100;" xml:space="preserve">
<g>
	<path d="M85.9,38.5c-4.6-5.5-12.8-6.2-18.3-1.6c-0.6,0.5-1.1,1-1.6,1.6l-3.7,4.2l-3.7-4.2c-4.6-5.5-12.8-6.2-18.3-1.6
		c0,0-0.1,0.1-0.1,0.1c1.3-1.3,1.6-3.3,0.6-4.9L28.1,10.3c-0.4-0.6-0.9-1.1-1.5-1.5c-1.9-1.1-4.4-0.4-5.5,1.5L8.5,32.1
		c-0.3,0.6-0.5,1.3-0.5,2c0,2.2,1.8,4.1,4,4.1h25.2c0,0,0,0,0,0c0.7,0,1.4-0.2,2-0.5c0.2-0.1,0.4-0.2,0.5-0.4
		c-0.4,0.4-0.8,0.8-1.2,1.2c-5.5,6.5-5.5,16.1,0,22.6l3.7,4.2l19.9,22.6l19.9-22.6l3.7-4.2C91.4,54.5,91.4,45,85.9,38.5z M37.8,35
		c-0.2,0.1-0.3,0.1-0.5,0.1c0,0,0,0,0,0H12c-0.6,0-1.1-0.5-1.1-1.1c0-0.2,0-0.4,0.1-0.5l12.6-21.8l0,0c0.2-0.3,0.5-0.5,0.9-0.5
		c0.2,0,0.4,0,0.5,0.1c0.2,0.1,0.3,0.2,0.4,0.4l12.6,21.9C38.4,34.1,38.3,34.7,37.8,35z M63.3,71.7c-0.6,0.9-1.8,1.2-2.8,0.7
		c0,0,0,0,0,0c-0.9-0.6-1.2-1.8-0.7-2.8l4.6-7.5H52.6l8.4-13c0.6-0.9,1.8-1.2,2.8-0.6c0.9,0.6,1.2,1.8,0.6,2.7L60,58.1h11.7
		L63.3,71.7z"/>
	<path d="M24.5,29.5C24.5,29.4,24.5,29.4,24.5,29.5c-1,0-1.8,0.8-1.8,1.8v0.3c0,0,0,0,0,0.1c0,1,0.8,1.7,1.8,1.7c0,0,0.1,0,0.1,0
		c1,0,1.7-0.8,1.7-1.8v-0.3c0,0,0-0.1,0-0.1C26.3,30.2,25.5,29.4,24.5,29.5z"/>
	<path d="M25.5,15.1h-1.8c-0.1,0-0.1,0-0.2,0c-0.5,0.1-0.8,0.6-0.7,1.1l0.9,10.4c0,0,0,0,0,0c0,0.5,0.4,0.9,0.9,0.9c0,0,0,0,0,0
		c0.5,0,0.9-0.4,0.9-0.9l0.9-10.4c0-0.1,0-0.1,0-0.2C26.4,15.6,26,15.1,25.5,15.1z"/>
</g>
</svg>
