<?xml version="1.0" encoding="utf-8"?>
<!-- Generator: Adobe Illustrator 24.0.0, SVG Export Plug-In . SVG Version: 6.00 Build 0)  -->
<svg version="1.1" id="Layer_1" xmlns="http://www.w3.org/2000/svg" xmlns:xlink="http://www.w3.org/1999/xlink" x="0px" y="0px"
	 viewBox="0 0 100 100" style="enable-background:new 0 0 100 100;" xml:space="preserve">
<g>
	<path d="M42.2,44.3L42.2,44.3c1.8-0.1,3.5-0.5,5.1-1.3c1-0.5,1.4-1.7,0.9-2.7c-0.5-1-1.7-1.4-2.7-0.9c-1,0.5-2.1,0.8-3.3,0.9
		c-1,0-2-0.4-2.8-0.9c-0.9-0.6-2.2-0.4-2.8,0.5c-0.6,0.9-0.4,2.2,0.5,2.8C38.5,43.7,40.3,44.2,42.2,44.3L42.2,44.3z"/>
	<path d="M52.2,42.2c1.5,1,3.3,1.6,5.1,1.7l0.1,0l0.1,0c1.8-0.1,3.5-0.5,5-1.3c1-0.5,1.4-1.7,0.9-2.7c-0.5-1-1.7-1.4-2.7-0.9
		c-1,0.5-2.1,0.8-3.3,0.9c-1,0-2-0.4-2.8-1c-0.9-0.6-2.2-0.4-2.8,0.5C51.1,40.3,51.3,41.6,52.2,42.2z"/>
	<path d="M64.6,53.2c1.5,0.1,2.8-1,2.8-2.5c0-1-1.3-3.3-2.1-4.5c-0.1-0.1-0.1-0.2-0.2-0.2c-0.3-0.2-0.8-0.1-1,0.2
		c-0.8,1.3-2.1,3.5-2.1,4.5C62.2,52,63.3,53.1,64.6,53.2z"/>
	<path d="M72.1,66.3c2.5,2,5.2,3.1,8.5,2.3c2.4-0.6,4.1-2.2,5.8-3.9c6.9-7.2,9.4-16,9.4-25.8c0-2.4-0.5-4.7-1.5-6.9
		c-0.3-0.5-0.6-0.9-0.9-1.4c-2-2.7-5.5-4-8.8-3.3c0,0,0,0,0,0c-0.7,0.1-1.3,0.7-1.3,1.4c-0.1,2.5-0.3,5-0.5,7.5
		c-0.1,1.4,0.2,1.9,1.6,2.2c1.1,0.3,2.2,0.5,3.3,0.7c1.5,0.4,1.8,0.7,1.6,2.3c-0.4,4.1-1.3,8-2.7,11.9c-0.6,1.4-1.3,2.6-2.2,3.8
		c-1,1.3-1.5,1.4-3,0.8c-1.1-0.4-2.2-1-3.4-1.4s-1.6-0.2-2.3,0.8c-1.3,2.1-2.7,4.2-4,6.3C71.1,64.9,71,65.5,72.1,66.3z"/>
	<path d="M87.4,75.9c-4.8-3.1-19.7-7-23.5-7.9C70.7,62.6,75,53.3,75,43.9c0-15.2-10.9-27.6-24.3-27.6c-6.4,0.1-12.5,2.9-16.8,7.6
		L25.7,9.7c-0.3-0.6-0.8-1-1.4-1.4c-1.8-1.1-4.2-0.5-5.2,1.4L7.7,29.5c-0.3,0.6-0.5,1.2-0.5,1.9c0,2.1,1.7,3.8,3.8,3.8h16.7
		c-0.8,2.8-1.2,5.7-1.2,8.6c0,9.5,4.4,18.8,11.2,24.2c-4.6,1.2-18.3,4.8-22.9,7.8c-6,3.8-7,12.9-7.1,13.3c-0.1,1.1,0.7,2.1,1.8,2.2
		c0.1,0,0.2,0,0.2,0c1,0,1.9-0.8,2-1.8c0-0.1,0.9-7.6,5.3-10.4c3.7-2.4,16-5.8,21.8-7.3c1.7,5.8,6.4,11.2,12,11.2
		c5.6,0,10.4-5.5,12-11.3c5.6,1.4,18.6,5,22.4,7.4c4.3,2.8,5.3,10.3,5.3,10.4c0.1,1,1,1.8,2,1.8c0.1,0,0.2,0,0.2,0
		c1.1-0.1,1.9-1.1,1.8-2.2C94.5,88.8,93.3,79.7,87.4,75.9z M10.4,32c-0.2-0.2-0.2-0.4-0.2-0.6c0-0.1,0-0.3,0.1-0.4l11.4-19.8
		c0.1-0.2,0.3-0.3,0.5-0.4c0.2-0.1,0.4,0,0.6,0.1c0.1,0.1,0.2,0.2,0.3,0.3L34.6,31c0.2,0.4,0.1,0.9-0.3,1.1
		c-0.1,0.1-0.3,0.1-0.4,0.1H11C10.8,32.3,10.6,32.2,10.4,32z M30.5,43.9c0-3,0.5-5.8,1.4-8.6h2c0.7,0,1.3-0.2,1.9-0.5
		c1.8-1.1,2.5-3.4,1.4-5.2l-1.1-1.9c3.5-4.5,9-7.2,14.7-7.3C61.9,20.4,71,30.9,71,43.9c0,8.7-4.2,17.3-10.6,21.7
		c-0.3,0.2-0.5,0.5-0.7,0.8l0,0c-6.4,3.9-11.5,4.1-17.7,0.4c-0.1-0.4-0.4-0.8-0.8-1.1C34.7,61.3,30.5,52.8,30.5,43.9z M50.8,79.2
		c-3.2,0-6.3-3.5-7.8-7.3c2.5,1.1,5,1.6,7.4,1.6c2.7,0,5.5-0.7,8.4-2C57.4,75.5,54.2,79.2,50.8,79.2z"/>
	<path d="M23.2,14.2h-1.7c-0.1,0-0.1,0-0.2,0c-0.4,0.1-0.7,0.5-0.6,1l0.8,9.5c0,0,0,0,0,0c0,0.5,0.4,0.8,0.8,0.8c0,0,0,0,0,0
		c0.5,0,0.9-0.4,0.9-0.8l0.8-9.5c0,0,0-0.1,0-0.1C24,14.6,23.7,14.2,23.2,14.2z"/>
	<path d="M22.4,27.2L22.4,27.2C22.3,27.2,22.3,27.2,22.4,27.2c-0.9,0-1.7,0.7-1.6,1.6V29c0.1,0.8,0.7,1.5,1.5,1.5
		c0.9,0.1,1.7-0.6,1.8-1.5v-0.2c0,0,0,0,0-0.1C24,27.9,23.2,27.2,22.4,27.2z"/>
</g>
</svg>
