<svg id="Layer_1" data-name="Layer 1" xmlns="http://www.w3.org/2000/svg" viewBox="0 0 100 100"><defs><style>.cls-1,.cls-2{fill:none;stroke:#000;stroke-width:4px;}.cls-1{stroke-linejoin:round;}.cls-2{stroke-linecap:round;stroke-miterlimit:10;}</style></defs><line class="cls-1" x1="41.11" y1="66.17" x2="41.11" y2="81.79"/><circle class="cls-1" cx="41.11" cy="85.71" r="4.54"/><path class="cls-1" d="M67.42,88.85h1.41a1.37,1.37,0,0,0,1.37-1.37V84.86a7.11,7.11,0,0,0-3.67-6.21l-3.55-2v-9h0v9l-3.55,2a7.11,7.11,0,0,0-3.67,6.21v2.62a1.37,1.37,0,0,0,1.37,1.37h1.4"/><path class="cls-1" d="M73,39.52c0-13.31-9.4-24.11-21-24.11S31,26.21,31,39.52c0,9.16,4.45,17.73,11,22.19v0c0,5.58,4.52,13.11,10.1,13.11s10.11-7.53,10.11-13.11c0,0,0-.1,0-.16C68.63,57.08,73,48.59,73,39.52Z"/><path class="cls-2" d="M42.6,65S25.68,69.16,20.92,72.2,15.28,83,15.28,83L13,95.68"/><path class="cls-2" d="M62.1,65S79,69.16,83.78,72.2,89.41,83,89.41,83l2,12.19"/><path d="M96,27.68a16.56,16.56,0,0,1,1.48,6.87c0,9.72-2.52,18.57-9.44,25.75-1.63,1.69-3.37,3.35-5.77,3.91-3.23.75-6-.36-8.48-2.33-1.06-.85-1-1.4-.34-2.53q2-3.16,4-6.32c.67-1.07,1.1-1.26,2.29-.84s2.23.93,3.35,1.38c1.53.6,2,.56,3-.77A17.8,17.8,0,0,0,88.22,49,46,46,0,0,0,91,37.18c.17-1.55-.1-1.91-1.61-2.28-1.08-.26-2.18-.44-3.26-.72-1.41-.37-1.72-.8-1.62-2.23.16-2.51.37-5,.49-7.53A1.36,1.36,0,0,1,86.31,23a8.86,8.86,0,0,1,8.79,3.36A12.64,12.64,0,0,1,96,27.68Z"/><path class="cls-1" d="M41.72,61.63v0c7.17,4.48,13.21,4.48,20.52,0"/></svg>