<svg id="Layer_1" data-name="Layer 1" xmlns="http://www.w3.org/2000/svg" viewBox="0 0 100 100"><defs><style>.cls-1,.cls-2{fill:none;stroke:#000;stroke-miterlimit:10;stroke-width:4px;}.cls-2{stroke-linecap:round;}</style></defs><path class="cls-1" d="M14.37,52.71A12.36,12.36,0,0,0,12,61.47a12.42,12.42,0,0,0,24.77-1.39,12.34,12.34,0,0,0-2.43-7.38,2.56,2.56,0,0,0-2-1H16.42A2.54,2.54,0,0,0,14.37,52.71Z"/><line class="cls-2" x1="18.37" y1="88.79" x2="30.37" y2="88.79"/><line class="cls-1" x1="24.37" y1="62.1" x2="24.37" y2="88.79"/><path d="M12,61.47a12.42,12.42,0,1,0,24.69-2.76H12A12.12,12.12,0,0,0,12,61.47Z"/><circle class="cls-1" cx="24.03" cy="24.04" r="13.77"/><path d="M15.86,13a14.18,14.18,0,0,0-2.92,2.92L32.19,35.12a13.7,13.7,0,0,0,2.92-2.92Z"/><path d="M87.92,53.37l-2.5-6h0V39.86a3.49,3.49,0,0,0-3.49-3.49H56.48A3.5,3.5,0,0,0,53,39.86V47.4l-2.32,6.1A9.89,9.89,0,0,0,50,57.06V87a3.44,3.44,0,0,0,3.43,3.43H85.27A3.44,3.44,0,0,0,88.7,87V57.23A9.86,9.86,0,0,0,87.92,53.37ZM83.81,78.72a3.43,3.43,0,0,1-3.43,3.43H58.32a3.43,3.43,0,0,1-3.43-3.43V62a3.43,3.43,0,0,1,3.43-3.43H80.38A3.43,3.43,0,0,1,83.81,62Z"/><path d="M56.51,71.73v0A4.35,4.35,0,0,1,61,67.36a4.29,4.29,0,0,1,4.44,4.32v0a4.46,4.46,0,0,1-8.92,0Zm7,0v0A2.55,2.55,0,0,0,61,69.07a2.51,2.51,0,0,0-2.52,2.61v0A2.55,2.55,0,0,0,61,74.34,2.5,2.5,0,0,0,63.5,71.73Z"/><path d="M68.68,69.21H66.9a.85.85,0,1,1,0-1.7h5.4a.85.85,0,0,1,0,1.7H70.53v5.84a.93.93,0,1,1-1.85,0Z"/><path d="M73.77,71.73v0a4.27,4.27,0,0,1,4.38-4.35,4.41,4.41,0,0,1,2.8.86.91.91,0,0,1-.55,1.63,1,1,0,0,1-.55-.18,2.75,2.75,0,0,0-1.72-.6,2.48,2.48,0,0,0-2.43,2.61v0a2.49,2.49,0,0,0,2.43,2.63A2.72,2.72,0,0,0,80,73.68a.84.84,0,0,1,.55-.2A.85.85,0,0,1,81.06,75a4.42,4.42,0,0,1-7.29-3.26Z"/></svg>