<svg id="Layer_1" data-name="Layer 1" xmlns="http://www.w3.org/2000/svg" viewBox="0 0 100 100"><defs><style>.cls-1,.cls-2,.cls-3{fill:none;stroke:#000;stroke-width:4px;}.cls-1,.cls-2{stroke-linecap:round;}.cls-1,.cls-3{stroke-linejoin:round;}.cls-2{stroke-miterlimit:10;}</style></defs><polygon points="47.88 19.59 43.91 17.7 40.09 19.89 40.67 15.53 37.39 12.57 41.72 11.77 43.52 7.74 45.63 11.63 50.01 12.09 46.97 15.29 47.88 19.59"/><polygon points="29.89 37.31 25.91 35.42 22.1 37.62 22.66 33.26 19.4 30.3 23.73 29.5 25.53 25.47 27.62 29.35 32 29.81 28.98 33 29.89 37.31"/><polygon points="76.67 21.17 72.69 19.27 68.88 21.47 69.44 17.11 66.18 14.15 70.51 13.35 72.31 9.32 74.4 13.2 78.78 13.66 75.76 16.85 76.67 21.17"/><path class="cls-1" d="M13.9,29.66a4.31,4.31,0,0,1-2-3.13c-.13-4.12,8.8-8,21.85-10.06"/><path class="cls-1" d="M81.35,17.85c5.43,1.62,8.71,3.78,8.79,6.24C90.32,29.83,73,35,51.36,35.71A136.28,136.28,0,0,1,35,35.27"/><path class="cls-1" d="M53.37,14.83c3.22-.07,6.34,0,9.28.2"/><path class="cls-2" d="M47.39,42.94a9.69,9.69,0,0,1-4,1.07,7,7,0,0,1-3.87-1.25"/><path class="cls-2" d="M61.91,42.56a9.69,9.69,0,0,1-4,1.07A7.06,7.06,0,0,1,54,42.38"/><path class="cls-3" d="M71.94,45.59c0-13.53-9.56-24.49-21.34-24.49s-21.34,11-21.34,24.49c0,9.3,4.52,18,11.18,22.53v0C40.44,73.81,45,81.4,50.7,81.4S61,73.81,61,68.14V68C67.51,63.41,71.94,54.8,71.94,45.59Z"/><path class="cls-2" d="M11.35,89.18s.91-8.18,5.91-11.36S40,70.28,40,70.28"/><path class="cls-2" d="M90.61,89.18S89.7,81,84.7,77.82,62,70.28,62,70.28"/><path class="cls-3" d="M40.34,68s0,0,0,0c7.17,4.48,13.21,4.48,20.52,0"/></svg>