<svg id="Layer_1" data-name="Layer 1" xmlns="http://www.w3.org/2000/svg" viewBox="0 0 100 100"><defs><style>.cls-1,.cls-3,.cls-4{fill:none;}.cls-1,.cls-2,.cls-3,.cls-4{stroke:#000;stroke-miterlimit:10;}.cls-1,.cls-2,.cls-3{stroke-width:3px;}.cls-3{stroke-linecap:round;}.cls-4{stroke-width:4px;}</style></defs><rect class="cls-1" x="66.61" y="59.34" width="8.02" height="18.8" rx="4.01" transform="translate(141.02 137.7) rotate(-179.82)"/><path class="cls-2" d="M66.62,63.29l0,5,8,0,0-5a3.91,3.91,0,0,0-3.83-4h-.34A3.91,3.91,0,0,0,66.62,63.29Z"/><path class="cls-3" d="M85.57,68.73a15,15,0,1,1-15-15"/><polyline class="cls-3" points="80.84 70.36 85.74 67.84 89.83 71.94"/><rect class="cls-4" x="14.43" y="25.82" width="28.74" height="58.45" rx="5.33"/><path d="M18.23,33.73a1.34,1.34,0,0,1,1.35-1.35h4.26a4.89,4.89,0,0,1,3.58,1.24,3.86,3.86,0,0,1,1,2.8v0A3.74,3.74,0,0,1,26,40.19l1.88,2.28a1.6,1.6,0,0,1,.44,1,1.25,1.25,0,0,1-1.28,1.24,1.6,1.6,0,0,1-1.33-.7l-2.63-3.33H20.93V43.4a1.35,1.35,0,0,1-2.7,0Zm5.44,4.61c1.31,0,2.06-.71,2.06-1.74v0c0-1.15-.8-1.75-2.12-1.75H20.93v3.53Z"/><path d="M30.51,42.72l2.4-2.84-2.19-2.53a1.51,1.51,0,0,1-.44-1,1.19,1.19,0,0,1,1.23-1.23,1.54,1.54,0,0,1,1.24.68l1.74,2.32,1.77-2.32a1.53,1.53,0,0,1,1.15-.68,1.18,1.18,0,0,1,1.25,1.16,1.43,1.43,0,0,1-.37.91L36,39.84l2.35,2.7a1.54,1.54,0,0,1,.44,1,1.18,1.18,0,0,1-1.23,1.22,1.51,1.51,0,0,1-1.24-.68l-1.9-2.49L32.54,44.1a1.5,1.5,0,0,1-1.16.68,1.17,1.17,0,0,1-1.24-1.15A1.31,1.31,0,0,1,30.51,42.72Z"/></svg>