<?xml version="1.0" encoding="utf-8"?>
<!-- Generator: Adobe Illustrator 24.0.0, SVG Export Plug-In . SVG Version: 6.00 Build 0)  -->
<svg version="1.1" id="Layer_1" xmlns="http://www.w3.org/2000/svg" xmlns:xlink="http://www.w3.org/1999/xlink" x="0px" y="0px"
	 viewBox="0 0 100 100" style="enable-background:new 0 0 100 100;" xml:space="preserve">
<g>
	<path d="M50.2,37.8c-22.9,0-41.5,11.7-41.5,26s18.6,26,41.5,26s41.5-11.7,41.5-26S73.1,37.8,50.2,37.8z M50.2,85.8
		c-20.7,0-37.5-9.9-37.5-22s16.8-22,37.5-22c20.7,0,37.5,9.9,37.5,22S70.9,85.8,50.2,85.8z"/>
	<path d="M53.9,49.7c-1.2,0-2.5,0.2-3.6,0.5c-1.2-0.3-2.4-0.5-3.6-0.5c-8.2,0-14.8,6.6-14.8,14.8s6.6,14.8,14.8,14.8
		c1.2,0,2.5-0.2,3.6-0.5c1.2,0.3,2.4,0.5,3.6,0.5c8.2,0,14.8-6.6,14.8-14.8S62,49.7,53.9,49.7z M35.8,64.5c0-4.8,3.1-8.8,7.4-10.2
		c-2.6,2.7-4.1,6.3-4.1,10.2s1.6,7.6,4.1,10.2C38.9,73.2,35.8,69.2,35.8,64.5z M50.2,74.6c-4.2-1.5-7.2-5.5-7.2-10.2s3-8.7,7.2-10.2
		c4.2,1.5,7.2,5.5,7.2,10.2S54.4,73.1,50.2,74.6z M57.3,74.7c2.6-2.7,4.1-6.3,4.1-10.2s-1.6-7.6-4.1-10.2c4.3,1.4,7.4,5.5,7.4,10.2
		S61.6,73.2,57.3,74.7z"/>
	<path d="M49.4,28.3c1.1,0,2-0.9,2-2V12.5c0-1.1-0.9-2-2-2s-2,0.9-2,2v13.8C47.4,27.4,48.3,28.3,49.4,28.3z"/>
	<path d="M64.7,30.9c0.2,0.1,0.4,0.1,0.7,0.1c0.8,0,1.6-0.5,1.9-1.3l4.5-13.1c0.4-1-0.2-2.2-1.2-2.5c-1-0.4-2.2,0.2-2.5,1.2
		l-4.5,13.1C63.1,29.4,63.7,30.5,64.7,30.9z"/>
	<path d="M78.5,36c0.4,0.3,0.8,0.4,1.2,0.4c0.6,0,1.2-0.3,1.6-0.8l8.5-10.9c0.7-0.9,0.5-2.1-0.3-2.8c-0.9-0.7-2.1-0.5-2.8,0.3
		l-8.5,10.9C77.5,34,77.7,35.3,78.5,36z"/>
	<path d="M18.4,37.3c0.4,0.5,1,0.8,1.6,0.8c0.4,0,0.9-0.1,1.2-0.4c0.9-0.7,1-1.9,0.3-2.8L13,23.9c-0.7-0.9-1.9-1-2.8-0.3
		c-0.9,0.7-1,1.9-0.3,2.8L18.4,37.3z"/>
	<path d="M32.4,29.6c0.3,0.8,1.1,1.3,1.9,1.3c0.2,0,0.4,0,0.7-0.1c1-0.4,1.6-1.5,1.2-2.5l-4.5-13.1c-0.4-1-1.5-1.6-2.5-1.2
		c-1,0.4-1.6,1.5-1.2,2.5L32.4,29.6z"/>
	<path d="M50.2,58.2c-3.1,0-5.6,2.5-5.6,5.6c0,3.1,2.5,5.6,5.6,5.6c3.1,0,5.6-2.5,5.6-5.6C55.8,60.7,53.3,58.2,50.2,58.2z"/>
</g>
</svg>
