<svg id="Layer_1" data-name="Layer 1" xmlns="http://www.w3.org/2000/svg" viewBox="0 0 100 100"><defs><style>.cls-1{fill:none;stroke:#000;stroke-miterlimit:10;stroke-width:3px;}</style></defs><g id="_193" data-name="193"><path class="cls-1" d="M24.9,13.89a2.55,2.55,0,0,1,4.42,0l6.31,10.93,6.31,10.92a2.56,2.56,0,0,1-2.21,3.84H14.49a2.56,2.56,0,0,1-2.21-3.84l6.31-10.92Z"/><path d="M25.21,19.14a.93.93,0,0,1,.9-1.1H28a1,1,0,0,1,.92,1.1L28,29.57a.93.93,0,0,1-.94.92.91.91,0,0,1-.92-.92ZM27,32.36a1.74,1.74,0,0,1,1.81,1.76v.25a1.82,1.82,0,0,1-3.63,0v-.25A1.76,1.76,0,0,1,27,32.36Z"/></g><path d="M79.47,41.42a29.84,29.84,0,0,0-4.69-1.7,4.07,4.07,0,0,1-2.91-3.79l-.3-4.81a10,10,0,0,0,1.5-8.5,10.58,10.58,0,0,0-2.47-4.34A10.07,10.07,0,0,0,53.67,28l-.86,2.56a.65.65,0,0,0,.7.84l1.66-.23a10.08,10.08,0,0,0,7,4.17l-.78,8.15a6,6,0,0,1-2.75,4.49l-3,1.89a6,6,0,0,0-2.23,7.56L55,60.69a3,3,0,0,1-.79,3.5,21.25,21.25,0,0,0-6.87,12,17.13,17.13,0,0,0-.22,2.62,21.93,21.93,0,0,0,2.08,9.55l2,4.24H78.32S78,78.21,79,77.34c3.66-3.32,12.31-11.45,13-14.8C92.76,58.27,81.14,42.37,79.47,41.42Zm2.61,21-5.64,6.73a.31.31,0,0,1-.55-.22l.88-14.77a.32.32,0,0,1,.57-.17l4.81,6.7A1.43,1.43,0,0,1,82.08,62.39Z"/><path d="M66.55,18.6a5.09,5.09,0,0,1,2.33-3.43,5.45,5.45,0,0,1,4.66-.64,7.88,7.88,0,0,1,5,4.75,8.79,8.79,0,0,1,.5,2.37c.06,1,.08,1.92.11,2.88a8.09,8.09,0,0,0,.16,1.62,1.37,1.37,0,0,0,1.56,1.1,1.91,1.91,0,0,0,1.66-1.74,1.23,1.23,0,0,1,0-.19h0c.05.2.11.41.15.62a3.83,3.83,0,0,1-1.36,3.91,3.07,3.07,0,0,1-1.29.67A3.93,3.93,0,0,1,77,29.93a4.16,4.16,0,0,1-1.65-2.33,12.28,12.28,0,0,1-.44-2.42,24.61,24.61,0,0,0-.41-2.69,3.85,3.85,0,0,0-2-2.66,2.65,2.65,0,0,0-2.15-.22,2.93,2.93,0,0,0-.42.19A34.28,34.28,0,0,1,66.55,18.6Z"/></svg>