<?xml version="1.0" encoding="utf-8"?>
<!-- Generator: Adobe Illustrator 24.0.0, SVG Export Plug-In . SVG Version: 6.00 Build 0)  -->
<svg version="1.1" id="Layer_1" xmlns="http://www.w3.org/2000/svg" xmlns:xlink="http://www.w3.org/1999/xlink" x="0px" y="0px"
	 viewBox="0 0 100 100" style="enable-background:new 0 0 100 100;" xml:space="preserve">
<g>
	<path d="M91.6,89.7c0-0.4-1.1-9.2-6.8-12.8c-4.6-2.9-18.4-6.6-22.3-7.6c6.4-5.2,10.4-14,10.4-23c0-6.6-2.2-12.7-5.7-17.3l3.9-5.4
		c0.4-0.5,0.5-1.3,0.3-1.9s-0.8-1.1-1.5-1.2l-4.6-1l3.6-4.5c0.7-0.9,0.6-2.1-0.3-2.8c-0.9-0.7-2.1-0.6-2.8,0.3l-5.7,7
		c-0.4,0.5-0.6,1.3-0.3,1.9c0.2,0.7,0.8,1.1,1.5,1.3l4.8,1L64.5,26c-2.8-2.6-6.2-4.6-9.8-5.5l0.8-1.7c0.3-0.6,0.2-1.3-0.1-1.9
		s-1-0.9-1.7-0.9h-4.7l2.6-5.1c0.5-1,0.1-2.2-0.9-2.7c-1-0.5-2.2-0.1-2.7,0.9l-4.1,8c-0.3,0.6-0.3,1.4,0.1,2c0.4,0.6,1,1,1.7,1h2
		c-3.1,0.3-6,1.3-8.6,2.8l-0.3-3.2c-0.1-0.7-0.5-1.3-1.1-1.6c-0.6-0.3-1.3-0.3-1.9,0l-4.1,2.4l-0.3-5.7c-0.1-1.1-1-2-2.1-1.9
		c-1.1,0.1-2,1-1.9,2.1l0.4,9c0,0.7,0.4,1.3,1,1.7c0.6,0.3,1.4,0.3,2,0l4.3-2.5l0.2,2.5c-5.5,4.9-9,12.4-9,20.9
		c0,9.1,4.1,17.9,10.7,23.1c-4.5,1.2-17.4,4.6-21.7,7.4c-5.7,3.7-6.8,12.5-6.8,12.8c-0.1,1.1,0.7,2.1,1.8,2.2c0.1,0,0.2,0,0.2,0
		c1,0,1.9-0.8,2-1.8c0-0.1,0.9-7.3,5-9.9c3.6-2.3,15.2-5.5,20.8-7c1.7,5.6,6.2,10.8,11.6,10.8c5.4,0,10-5.3,11.7-11
		c5.4,1.4,17.6,4.8,21.3,7.1c4.1,2.6,5,9.8,5,9.9c0.1,1,1,1.8,2,1.8c0.1,0,0.1,0,0.2,0C90.9,91.8,91.7,90.8,91.6,89.7z M30.3,46.3
		c0-6.3,2.2-12,5.8-16.1c0.4,0.5,0.9,0.8,1.6,0.8c0.1,0,0.1,0,0.2,0c1.1-0.1,1.9-1.1,1.8-2.2l-0.2-1.7c2.7-1.9,5.9-3.1,9.2-3.3
		l-0.8,1.8c-0.5,1,0,2.2,1,2.6c0.3,0.1,0.6,0.2,0.8,0.2c0.8,0,1.5-0.4,1.8-1.2l1.4-3.1c3.5,0.7,6.6,2.5,9.2,5.1
		c-0.3,0.8-0.1,1.8,0.7,2.4c0.4,0.3,0.8,0.4,1.2,0.4c0.2,0,0.3,0,0.5-0.1c2.8,3.9,4.5,8.9,4.5,14.4c0,8.3-4,16.4-10.1,20.8
		c-0.1,0-0.1,0.1-0.1,0.1c-6.5,4-11.6,4-18,0.1c0,0-0.1-0.1-0.1-0.1C34.3,62.9,30.3,54.8,30.3,46.3z M49.7,80.1
		c-3.2,0-6.3-3.7-7.6-7.6c2.5,1.1,5,1.7,7.5,1.7c2.6,0,5.2-0.6,7.8-1.8C56.1,76.4,53,80.1,49.7,80.1z"/>
	<path d="M38,40.8l1.6,1L39.2,42c-1,0.4-1.5,1.6-1.1,2.6c0.3,0.8,1.1,1.3,1.9,1.3c0.2,0,0.5,0,0.7-0.1l4.2-1.7
		c0.7-0.3,1.2-0.9,1.2-1.7c0.1-0.8-0.3-1.5-1-1.9l-5.1-3c-0.9-0.6-2.2-0.3-2.7,0.7C36.7,39,37,40.2,38,40.8z"/>
	<path d="M54.4,44l4.2,1.7c0.2,0.1,0.5,0.1,0.7,0.1c0.8,0,1.5-0.5,1.9-1.3c0.4-1-0.1-2.2-1.1-2.6l-0.4-0.2l1.6-1
		c0.9-0.6,1.3-1.8,0.7-2.7c-0.6-0.9-1.8-1.3-2.7-0.7l-5.1,3c-0.7,0.4-1,1.1-1,1.9C53.2,43.1,53.7,43.7,54.4,44z"/>
	<path d="M42.2,60.7c0.3,0.8,1.1,1.2,1.8,1.2c0.3,0,0.5-0.1,0.8-0.2c1.5-0.7,3.1-1,4.8-0.9c1.6,0,3.2,0.3,4.7,0.9
		c1,0.4,2.2,0,2.6-1.1c0.4-1,0-2.2-1.1-2.6c-2-0.9-4.1-1.3-6.3-1.2c-2.2,0-4.4,0.4-6.4,1.3C42.2,58.5,41.8,59.7,42.2,60.7z"/>
</g>
</svg>
