<?xml version="1.0" encoding="utf-8"?>
<!-- Generator: Adobe Illustrator 24.0.0, SVG Export Plug-In . SVG Version: 6.00 Build 0)  -->
<svg version="1.1" id="Layer_1" xmlns="http://www.w3.org/2000/svg" xmlns:xlink="http://www.w3.org/1999/xlink" x="0px" y="0px"
	 viewBox="0 0 100 100" style="enable-background:new 0 0 100 100;" xml:space="preserve">
<g>
	<path d="M73,33.1c0-4.3-5.7-14-8.7-18.6c-0.2-0.2-0.3-0.4-0.6-0.6c-0.9-0.6-2.2-0.3-2.8,0.6c-2.9,4.6-8.7,14.3-8.7,18.6h0
		c0.2,5.5,4.6,9.9,10.1,10.1C68,43.4,72.8,38.9,73,33.1z"/>
	<path d="M43,44.6c-0.9-0.6-2.2-0.3-2.8,0.6c-2.9,4.6-8.7,14.3-8.7,18.6c0,5.7,4.7,10.4,10.4,10.4c5.7,0,10.4-4.7,10.4-10.4
		c0-4.3-5.8-14-8.7-18.6C43.4,44.9,43.2,44.7,43,44.6z"/>
	<path d="M75.3,63c-0.2-0.4-0.5-0.7-0.9-0.9c-1.3-0.8-2.9-0.4-3.7,0.9c-3.1,4.9-8.1,13.6-8.1,17.6c0,0,0,0,0,0
		C62.7,86.3,67.3,91,73,91c5.7,0,10.4-4.7,10.4-10.4C83.4,76.6,78.4,67.9,75.3,63z"/>
	<path d="M40.8,39c2-1.1,2.7-3.6,1.6-5.5L29.7,11.6c-0.4-0.6-0.9-1.1-1.5-1.5c-0.9-0.5-2-0.7-3.1-0.4c-1,0.3-1.9,0.9-2.5,1.9
		L10.1,33.4c-0.4,0.6-0.5,1.3-0.5,2c0,2.2,1.8,4.1,4.1,4.1c0,0,0,0,0,0l25.3,0C39.6,39.5,40.2,39.3,40.8,39z M13.6,36.5
		C13.6,36.5,13.6,36.5,13.6,36.5c-0.6,0-1.1-0.5-1.1-1.1c0-0.2,0-0.4,0.1-0.5l12.6-21.8c0.1-0.2,0.4-0.4,0.6-0.5
		c0.3-0.1,0.6,0,0.8,0.1c0.2,0.1,0.3,0.2,0.4,0.4l12.6,21.8c0.3,0.5,0.1,1.2-0.4,1.4c-0.2,0.1-0.3,0.1-0.5,0.1H13.6z"/>
	<path d="M27.1,16.5h-1.8c-0.1,0-0.1,0-0.2,0c-0.5,0.1-0.8,0.6-0.7,1.1L25.2,28c0,0.5,0.4,0.9,0.9,0.9c0.5,0,0.9-0.4,1-0.9L28,17.6
		c0-0.1,0-0.1,0-0.2C28,16.9,27.6,16.5,27.1,16.5z"/>
	<path d="M26.2,30.8C26.2,30.8,26.1,30.8,26.2,30.8c-1,0-1.8,0.8-1.8,1.8v0.2c0,0,0,0,0,0.1c0,1,0.8,1.7,1.8,1.7c0,0,0.1,0,0.1,0
		c1,0,1.7-0.8,1.7-1.8v-0.2c0,0,0-0.1,0-0.1C27.9,31.5,27.1,30.8,26.2,30.8z"/>
</g>
</svg>
