<?xml version="1.0" encoding="utf-8"?>
<!-- Generator: Adobe Illustrator 24.2.3, SVG Export Plug-In . SVG Version: 6.00 Build 0)  -->
<svg version="1.1" id="Layer_1" xmlns="http://www.w3.org/2000/svg" xmlns:xlink="http://www.w3.org/1999/xlink" x="0px" y="0px"
	 viewBox="0 0 100 100" style="enable-background:new 0 0 100 100;" xml:space="preserve">
<g>
	<path d="M36.4,13.2c-5.4,0-9.9,4.5-9.9,9.9c0,1.1,0.9,2,2,2c0,0,0,0,0,0c1.1,0,2-0.9,2-2c0-3.3,2.7-5.9,6-6c1.1,0,2-0.9,2-2
		S37.5,13.2,36.4,13.2z"/>
	<path d="M21.1,24C21.1,24,21.1,24,21.1,24c1.1,0,2-0.9,2-2c0-7,5.8-12.8,12.8-12.8c1.1,0,2-0.9,2-2s-0.9-2-2-2
		c-9.3,0-16.8,7.5-16.8,16.8C19.1,23.1,20,24,21.1,24z"/>
	<path d="M75.4,77.4c0-1.1-0.9-2-2-2c0,0,0,0,0,0c-1.1,0-2,0.9-2,2c0,3.3-2.7,6-6,6c-1.1,0-2,0.9-2,2s0.9,2,2,2
		C70.9,87.4,75.4,82.9,75.4,77.4z"/>
	<path d="M81.4,76C81.4,76,81.4,76,81.4,76c-1.1,0-2,0.9-2,2c0,7.1-5.8,12.8-12.8,12.8c-1.1,0-2,0.9-2,2s0.9,2,2,2
		c9.3,0,16.8-7.5,16.8-16.8C83.4,76.9,82.5,76,81.4,76z"/>
	<path d="M76.4,26.4l3.6-5.8c1.3-2.1,0.6-4.8-1.4-6.1l-7.4-4.7C69,8.6,66.3,9.2,65,11.3L61.5,17c-5.7-3.4-13.1-1.7-16.7,3.9
		L18.5,62.5c-1.8,2.8-2.3,6.1-1.6,9.3s2.7,6,5.4,7.7l14.5,9.2c2,1.3,4.3,1.9,6.6,1.9c4.1,0,8.1-2,10.4-5.7L80,43.3
		C83.6,37.6,82,30.1,76.4,26.4z M52.3,77.3L25.9,60.7l21-33.2l26.3,16.6L52.3,77.3z"/>
</g>
</svg>
