<svg id="Layer_1" data-name="Layer 1" xmlns="http://www.w3.org/2000/svg" viewBox="0 0 100 100"><defs><style>.cls-1,.cls-2,.cls-3{fill:none;stroke:#000;stroke-width:4px;}.cls-1,.cls-2{stroke-linecap:round;}.cls-1,.cls-3{stroke-linejoin:round;}.cls-2{stroke-miterlimit:10;}</style></defs><polygon points="48.55 20.42 44.57 18.53 40.75 20.73 41.33 16.36 38.05 13.41 42.38 12.61 44.18 8.58 46.29 12.46 50.67 12.92 47.63 16.12 48.55 20.42"/><polygon points="30.56 38.15 26.57 36.25 22.76 38.45 23.33 34.09 20.06 31.13 24.39 30.33 26.19 26.3 28.28 30.19 32.67 30.64 29.64 33.83 30.56 38.15"/><polygon points="77.33 22 73.35 20.11 69.54 22.3 70.1 17.94 66.84 14.98 71.17 14.18 72.97 10.15 75.06 14.04 79.44 14.5 76.42 17.68 77.33 22"/><path class="cls-1" d="M14.56,30.49a4.28,4.28,0,0,1-2-3.12c-.13-4.13,8.8-8,21.85-10.07"/><path class="cls-1" d="M82,18.69c5.43,1.61,8.72,3.77,8.79,6.23C91,30.66,73.62,35.86,52,36.54a134.23,134.23,0,0,1-16.33-.44"/><path class="cls-1" d="M54,15.67c3.23-.08,6.34,0,9.28.2"/><path class="cls-2" d="M48.05,43.77a9.55,9.55,0,0,1-4,1.08,7.06,7.06,0,0,1-3.87-1.25"/><path class="cls-2" d="M62.57,43.39a9.69,9.69,0,0,1-4,1.07,6.91,6.91,0,0,1-3.87-1.25"/><path class="cls-3" d="M72.6,46.42c0-13.52-9.55-24.49-21.34-24.49s-21.33,11-21.33,24.49c0,9.3,4.52,18,11.17,22.54v0c0,5.66,4.6,13.26,10.26,13.26S61.63,74.64,61.63,69c0-.06,0-.11,0-.17C68.17,64.25,72.6,55.63,72.6,46.42Z"/><path class="cls-2" d="M12,90s.91-8.18,5.91-11.36,22.73-7.53,22.73-7.53"/><path class="cls-2" d="M91.27,90s-.91-8.18-5.9-11.36-22.74-7.53-22.74-7.53"/><path class="cls-3" d="M41,69v0c7.17,4.47,13.21,4.47,20.52,0"/></svg>