<?xml version="1.0" encoding="utf-8"?>
<!-- Generator: Adobe Illustrator 24.2.3, SVG Export Plug-In . SVG Version: 6.00 Build 0)  -->
<svg version="1.1" id="Layer_1" xmlns="http://www.w3.org/2000/svg" xmlns:xlink="http://www.w3.org/1999/xlink" x="0px" y="0px"
	 viewBox="0 0 100 100" style="enable-background:new 0 0 100 100;" xml:space="preserve">
<g>
	<path d="M30.4,61.5c-0.8-1.1-2-1.7-3.3-1.7H14.3c-1.3,0-2.5,0.6-3.3,1.6c-1.9,2.6-2.7,5.8-2.2,9c0.5,3.2,2.2,6,4.8,7.9
		c1.6,1.2,3.3,1.9,5.2,2.2V90h-2.9c-1.1,0-2,0.9-2,2s0.9,2,2,2h9.7c1.1,0,2-0.9,2-2s-0.9-2-2-2h-2.9v-9.3c3.1-0.5,5.8-2.2,7.7-4.7
		C33.6,71.6,33.6,65.8,30.4,61.5z M12.7,67.6c0.2-1.3,0.7-2.6,1.5-3.7l0.1,0l12.9,0c0.8,1.1,1.3,2.4,1.5,3.7H12.7z"/>
	<path d="M16.9,2C8.2,2,1.1,9,1.1,17.7s7.1,15.8,15.8,15.8s15.8-7.1,15.8-15.8S25.6,2,16.9,2z M5.1,17.7c0-2.5,0.8-4.8,2.1-6.7
		l16.4,16.4c-1.9,1.3-4.2,2.1-6.7,2.1C10.4,29.5,5.1,24.2,5.1,17.7z M26.5,24.5L10.1,8.1C12,6.7,14.4,6,16.9,6
		c6.5,0,11.8,5.3,11.8,11.8C28.6,20.2,27.8,22.5,26.5,24.5z"/>
	<path d="M98.6,50.7c-2-9.2-13.3-16.3-27.9-17.6c-0.1,0-0.2,0-0.3,0C70,33,69.6,33,69.2,33c-0.2,0-0.5,0-0.7,0c-0.3,0-0.6,0-0.8,0
		c-0.5,0-1.1,0-1.6,0c-0.5,0-1.1,0-1.6,0c-0.3,0-0.6,0-0.9,0c-0.2,0-0.4,0-0.7,0c-0.4,0-0.8,0.1-1.2,0.1c-0.1,0-0.1,0-0.2,0
		C47,34.3,35.7,41.4,33.7,50.6l-0.3,2.3c0,0.2,0,0.5,0,0.8c0,11.6,14.4,20.8,32.8,20.8s32.8-9.1,32.8-20.8c0-0.3,0-0.5,0-0.8
		L98.6,50.7z M38.6,48.9c3-5.7,11.3-10.3,21.5-11.6c0.3,0,0.5-0.1,0.8-0.1c0.3,0,0.6-0.1,0.9-0.1c0.6-0.1,1.2-0.1,1.8-0.1
		c0.2,0,0.4,0,0.5,0c0.7,0,1.4-0.1,2.1-0.1c0.7,0,1.4,0,2.1,0.1c0.2,0,0.4,0,0.5,0c0.6,0,1.2,0.1,1.8,0.1c0.3,0,0.6,0.1,1,0.1
		c0.2,0,0.5,0.1,0.7,0.1c10.1,1.3,18.5,5.9,21.5,11.6H38.6z M94.9,53.7c0,9.1-13.2,16.8-28.8,16.8s-28.8-7.7-28.8-16.8
		c0-0.3,0-0.5,0-0.8h16.3c1.5,5,6.1,8.6,11.5,8.6c5.4,0,10-3.6,11.5-8.6h18.2C94.9,53.1,94.9,53.4,94.9,53.7z"/>
	<path d="M65.5,26.4c-1.1,0-2-0.9-2-2V13.6c0-1.1,0.9-2,2-2s2,0.9,2,2v10.8C67.5,25.5,66.6,26.4,65.5,26.4z"/>
	<path d="M77.9,28.5c-0.2,0-0.4,0-0.7-0.1c-1-0.4-1.6-1.5-1.2-2.5l3.5-10.2c0.4-1,1.5-1.6,2.5-1.2c1,0.4,1.6,1.5,1.2,2.5l-3.5,10.2
		C79.5,28,78.8,28.5,77.9,28.5z"/>
	<path d="M89.1,32.7c-0.4,0-0.9-0.1-1.2-0.4c-0.9-0.7-1-1.9-0.3-2.8l6.6-8.5c0.7-0.9,1.9-1,2.8-0.3c0.9,0.7,1,1.9,0.3,2.8L90.7,32
		C90.3,32.5,89.7,32.7,89.1,32.7z"/>
	<path d="M42.5,34c-0.6,0-1.2-0.3-1.6-0.8l-6.6-8.5c-0.7-0.9-0.5-2.1,0.3-2.8c0.9-0.7,2.1-0.5,2.8,0.3l6.6,8.5
		c0.7,0.9,0.5,2.1-0.3,2.8C43.3,33.9,42.9,34,42.5,34z"/>
	<path d="M53.7,28.5c-0.8,0-1.6-0.5-1.9-1.4L48.3,17c-0.4-1,0.2-2.2,1.2-2.5c1-0.4,2.2,0.2,2.5,1.2l3.5,10.2c0.4,1-0.2,2.2-1.2,2.5
		C54.1,28.5,53.9,28.5,53.7,28.5z"/>
</g>
</svg>
