<svg id="Layer_1" data-name="Layer 1" xmlns="http://www.w3.org/2000/svg" viewBox="0 0 100 100"><defs><style>.cls-1,.cls-2,.cls-3{fill:none;stroke:#000;}.cls-1,.cls-2{stroke-miterlimit:10;}.cls-1{stroke-width:3px;}.cls-2,.cls-3{stroke-linecap:round;stroke-width:4px;}.cls-3{stroke-linejoin:round;}</style></defs><g id="_193" data-name="193"><path class="cls-1" d="M22.65,11a2.55,2.55,0,0,1,4.42,0l6.31,10.92,6.31,10.93a2.56,2.56,0,0,1-2.21,3.83H12.24A2.55,2.55,0,0,1,10,32.85l6.31-10.93Z"/><path d="M23,16.25a.92.92,0,0,1,.9-1.1H25.7a.94.94,0,0,1,.92,1.1l-.9,10.42a.93.93,0,0,1-.94.92.9.9,0,0,1-.92-.92Zm1.82,13.21a1.75,1.75,0,0,1,1.81,1.76v.26a1.82,1.82,0,0,1-3.63,0v-.26A1.76,1.76,0,0,1,24.78,29.46Z"/></g><line class="cls-2" x1="73.37" y1="48.07" x2="78.72" y2="45.69"/><line class="cls-2" x1="74.73" y1="53.56" x2="80.58" y2="53.16"/><path class="cls-2" d="M84.19,58.78A3.79,3.79,0,0,0,87.72,54a4,4,0,0,0-.35-.87A6.37,6.37,0,0,0,84.59,42a4.2,4.2,0,0,0-.1-.93,3.84,3.84,0,0,0-4.64-2.79,4,4,0,0,0-.71.25"/><path class="cls-3" d="M45.85,74.24s-13.13,3.1-17,5.55-4.55,8.75-4.55,8.75"/><path class="cls-3" d="M84.2,88.54s-.7-6.3-4.55-8.75S62.14,74,62.14,74"/><path class="cls-3" d="M45.39,35.52c-9.11,2.19-14.72,12.56-12.21,23C34.91,65.73,40,71.63,46,73.89v0a8.16,8.16,0,0,0,15.87-3.82l0-.12c.41-.46,7-5.35,6.68-12.34-3.35.59-8.41,1.06-9.11-1.26s5-7,7.87-9.28a19.15,19.15,0,0,0-2.55-4.39l1.51-3.39a1.25,1.25,0,0,0-1.19-1.76l-5.94.22a19.47,19.47,0,0,0-13.54-2.3Z"/></svg>