<svg id="Layer_1" data-name="Layer 1" xmlns="http://www.w3.org/2000/svg" viewBox="0 0 100 100"><defs><style>.cls-1,.cls-2{fill:none;stroke:#000;stroke-miterlimit:10;}.cls-1{stroke-linecap:round;stroke-width:4px;}.cls-2{stroke-width:2px;}</style></defs><circle cx="27.41" cy="61.23" r="11.72"/><path d="M14.51,89.77s1.22-8.67,3.93-11.25S25.09,74.7,25.77,73,39.13,59.27,39.13,59.27L46.6,45.46a3.76,3.76,0,0,1,5-1.56h0a3.75,3.75,0,0,1,1.8,4.72L44,72.75a8.31,8.31,0,0,0-.44,1.55l-2.7,15.47Z"/><line class="cls-1" x1="14.51" y1="30.57" x2="85.49" y2="30.57"/><path d="M57.33,16.17l-.87-2.09h0V11.45a1.22,1.22,0,0,0-1.22-1.22H46.34a1.21,1.21,0,0,0-1.22,1.22v2.63l-.82,2.14a3.49,3.49,0,0,0-.23,1.24V27.93a1.2,1.2,0,0,0,1.2,1.2H56.41a1.2,1.2,0,0,0,1.2-1.2V17.52A3.51,3.51,0,0,0,57.33,16.17ZM55.9,25a1.2,1.2,0,0,1-1.2,1.2H47a1.2,1.2,0,0,1-1.2-1.2V19.2A1.2,1.2,0,0,1,47,18H54.7a1.2,1.2,0,0,1,1.2,1.2Z"/><line class="cls-2" x1="48.11" y1="22.08" x2="53.53" y2="22.08"/><line class="cls-2" x1="50.82" y1="24.79" x2="50.82" y2="19.37"/></svg>