<svg id="Layer_1" data-name="Layer 1" xmlns="http://www.w3.org/2000/svg" viewBox="0 0 100 100"><defs><style>.cls-1,.cls-2,.cls-3{fill:none;stroke:#000;stroke-width:4px;}.cls-1,.cls-3{stroke-linejoin:round;}.cls-2,.cls-3{stroke-linecap:round;}.cls-2{stroke-miterlimit:10;}</style></defs><path class="cls-1" d="M70.94,46.33c0-13.53-9.56-24.49-21.34-24.49s-21.34,11-21.34,24.49c0,9.3,4.52,18,11.18,22.53v0c0,5.67,4.59,13.26,10.26,13.26S60,74.55,60,68.88v-.16C66.5,64.15,70.94,55.53,70.94,46.33Z"/><path class="cls-2" d="M10.35,89.92s.91-8.18,5.91-11.36S39,71,39,71"/><path class="cls-2" d="M89.61,89.92s-.91-8.18-5.91-11.36S61,71,61,71"/><polyline class="cls-3" points="38.99 39.1 44.08 42.15 39.9 43.83"/><polyline class="cls-3" points="60.23 39.1 55.14 42.15 59.32 43.83"/><path class="cls-3" d="M44.06,59.87a13.33,13.33,0,0,1,5.57-1.1,13.41,13.41,0,0,1,5.51,1.07"/><polyline class="cls-3" points="49.72 9.92 45.6 17.94 53.62 17.94 49.72 26.5"/><polyline class="cls-3" points="29.37 14.66 29.81 23.67 36.76 19.66 37.66 29.02"/><polyline class="cls-3" points="67.39 13.8 61.72 20.82 69.57 22.45 64.01 30.03"/><path class="cls-1" d="M39.35,68.85s0,0,0,0c7.17,4.47,13.21,4.47,20.52,0"/></svg>