<svg id="Layer_1" data-name="Layer 1" xmlns="http://www.w3.org/2000/svg" viewBox="0 0 100 100"><defs><style>.cls-1,.cls-2{fill:none;}.cls-1,.cls-2,.cls-3{stroke:#000;stroke-miterlimit:10;stroke-width:4px;}.cls-2,.cls-3{stroke-linecap:round;}</style></defs><path d="M36,41.07a15.15,15.15,0,0,1-6.2-1.38c-8-3.7-14.28-9.1-17.56-17.49-.78-2-1.48-4-1-6.22.6-2.93,2.57-4.79,5.12-6.08,1.09-.54,1.54-.32,2.2.69q1.86,2.81,3.7,5.63c.62,1,.61,1.39-.18,2.2s-1.61,1.48-2.4,2.23c-1.07,1-1.22,1.43-.49,2.71a16.5,16.5,0,0,0,2.31,3.23,41,41,0,0,0,8.62,6.78c1.21.73,1.61.64,2.48-.46.62-.79,1.19-1.62,1.82-2.4.84-1,1.31-1.1,2.45-.49,2,1.08,4,2.2,6,3.25a1.24,1.24,0,0,1,.71,1.59,8,8,0,0,1-6.08,6A12.49,12.49,0,0,1,36,41.07Z"/><circle class="cls-1" cx="73.93" cy="25.34" r="14.98"/><line class="cls-2" x1="66.57" y1="24.89" x2="81.62" y2="24.89"/><line class="cls-2" x1="74.09" y1="32.42" x2="74.09" y2="17.37"/><ellipse class="cls-2" cx="51.15" cy="74.11" rx="21.84" ry="13.3"/><circle class="cls-3" cx="51.2" cy="73.98" r="7.08"/><line class="cls-2" x1="50.7" y1="45.72" x2="50.7" y2="53.35"/><line class="cls-2" x1="61.99" y1="47.64" x2="59.51" y2="54.86"/><line class="cls-2" x1="72.18" y1="51.83" x2="67.48" y2="57.85"/><line class="cls-2" x1="29.68" y1="52.74" x2="34.38" y2="58.76"/><line class="cls-2" x1="39.85" y1="47.64" x2="42.34" y2="54.86"/><line class="cls-2" x1="60.13" y1="62.04" x2="41.98" y2="86.22"/></svg>