<?xml version="1.0" encoding="utf-8"?>
<!-- Generator: Adobe Illustrator 24.2.3, SVG Export Plug-In . SVG Version: 6.00 Build 0)  -->
<svg version="1.1" id="Layer_1" xmlns="http://www.w3.org/2000/svg" xmlns:xlink="http://www.w3.org/1999/xlink" x="0px" y="0px"
	 viewBox="0 0 100 100" style="enable-background:new 0 0 100 100;" xml:space="preserve">
<path d="M29.3,42.6l27.2-2.9l-3.2,3.6l20.6-0.3l1.5-1.7c5.5-6.5,5.5-16,0-22.5l0,0c-4.6-5.5-12.7-6.2-18.2-1.7
	c-0.6,0.5-1.2,1.1-1.7,1.7l-3.7,4.1L48.1,19c-4.6-5.5-12.7-6.2-18.2-1.7c-0.6,0.5-1.2,1.1-1.7,1.7l0,0c-5.5,6.5-5.5,16,0,22.5
	l3.7,4.2l19.9,22.5l19.4-22l-24.7,0.3l2.6-2.9l-17.3,1.8"/>
<path d="M33,79.8L33,79.8c-0.1-3.5,2.8-6.5,6.3-6.5c0.1,0,0.2,0,0.3,0c1.5-0.1,3,0.4,4.2,1.3c0.3,0.3,0.5,0.7,0.5,1.1
	c0,0.7-0.6,1.3-1.3,1.3c-0.3,0-0.6-0.1-0.8-0.3c-0.7-0.6-1.6-0.9-2.6-0.9c-2.1,0-3.7,1.7-3.7,3.8c0,0,0,0.1,0,0.1l0,0
	c-0.1,2.1,1.4,3.9,3.5,4c0.1,0,0.1,0,0.2,0c1,0,2-0.3,2.7-1c0.2-0.2,0.5-0.3,0.8-0.3c0.7,0,1.3,0.6,1.3,1.3c0,0,0,0,0,0
	c0,0.4-0.2,0.8-0.5,1c-2.8,2.4-7,2.1-9.4-0.7C33.6,82.8,33,81.3,33,79.8L33,79.8z"/>
<path d="M46.9,74.8c0-0.8,0.6-1.4,1.3-1.4c0,0,0,0,0,0H52c3,0,4.8,1.8,4.8,4.4l0,0c0,2.9-2.3,4.4-5.1,4.4h-2.1v2.5
	c-0.1,0.8-0.7,1.3-1.5,1.3c-0.7-0.1-1.2-0.6-1.3-1.3V74.8z M51.9,79.8c1.1,0.1,2.1-0.7,2.2-1.8c0,0,0-0.1,0-0.1l0,0
	c0-1.2-0.9-1.9-2.2-1.9h-2.2v3.9L51.9,79.8z"/>
<path d="M58.9,74.8c0-0.8,0.6-1.4,1.3-1.4c0,0,0,0,0,0h4.4c1.3-0.1,2.7,0.4,3.7,1.3c0.7,0.8,1.1,1.8,1.1,2.9l0,0
	c0.1,1.7-0.9,3.3-2.5,3.8l1.9,2.3c0.3,0.3,0.4,0.7,0.4,1.1c0,0.7-0.5,1.3-1.3,1.3c0,0,0,0,0,0c-0.5,0-1.1-0.3-1.4-0.7L63.9,82h-2.2
	v2.8c-0.1,0.8-0.7,1.3-1.5,1.3c-0.7-0.1-1.2-0.6-1.3-1.3V74.8z M64.5,79.5c1.3,0,2.1-0.7,2.1-1.8l0,0c0-1.2-0.8-1.8-2.2-1.8h-2.8
	v3.6L64.5,79.5z"/>
<path d="M28.2,42.8"/>
</svg>
