<?xml version="1.0" encoding="utf-8"?>
<!-- Generator: Adobe Illustrator 24.2.3, SVG Export Plug-In . SVG Version: 6.00 Build 0)  -->
<svg version="1.1" id="Layer_1" xmlns="http://www.w3.org/2000/svg" xmlns:xlink="http://www.w3.org/1999/xlink" x="0px" y="0px"
	 viewBox="0 0 100 100" style="enable-background:new 0 0 100 100;" xml:space="preserve">
<path d="M23.9,8.5c-8.7,0-15.8,7.1-15.8,15.8s7.1,15.8,15.8,15.8S39.7,33,39.7,24.3S32.6,8.5,23.9,8.5z M12.1,24.3
	c0-2.5,0.8-4.8,2.1-6.8L30.6,34c-1.9,1.3-4.2,2.1-6.8,2.1C17.4,36.1,12.1,30.8,12.1,24.3z M33.6,31L17.1,14.6
	c1.9-1.3,4.2-2.1,6.7-2.1c6.5,0,11.8,5.3,11.8,11.8C35.7,26.8,34.9,29.1,33.6,31z"/>
<path d="M16.1,59.9l-2,0v0.3c-3.4,0.9-6,4-6,7.7v2.9c0,4.4,3.6,8,8,8h75.8V59.9H16.1z M80.9,63.9v10.9h-3V63.9H80.9z M39.6,63.9
	h34.3v10.9H39.6V63.9z M87.9,74.8h-3V63.9h3V74.8z"/>
<g>
	<path d="M84.9,52c-1.1,0-2-0.9-2-2v-3c0-0.6-0.4-1-1-1h-7.3c-1.6,0-3-0.6-4.1-1.7c-1.1-1.1-1.6-2.5-1.6-4c0-3.1,2.5-5.7,5.7-5.7
		h4.1c0.7,0,1.2-0.6,1.2-1.2c0-0.7-0.6-1.2-1.2-1.2h-9.9c-3.4,0-6.1-2.7-6.1-6.1s2.7-6.1,6.1-6.1H72c1.1,0,2,0.9,2,2s-0.9,2-2,2
		h-3.2c-1.1,0-2.1,0.9-2.1,2.1s0.9,2.1,2.1,2.1h9.9c2.9,0,5.2,2.3,5.2,5.2c0,2.9-2.4,5.2-5.2,5.2h-4.1c-0.9,0-1.7,0.7-1.7,1.7
		c0,0.5,0.2,0.9,0.5,1.2c0.3,0.3,0.7,0.5,1.2,0.5h7.3c2.8,0,5,2.2,5,5v3C86.9,51.1,86,52,84.9,52z"/>
</g>
</svg>
