<svg id="Layer_1" data-name="Layer 1" xmlns="http://www.w3.org/2000/svg" viewBox="0 0 100 100"><defs><style>.cls-1{fill:none;stroke:#000;stroke-miterlimit:10;stroke-width:3px;}</style></defs><path class="cls-1" d="M24.22,11.4a2.33,2.33,0,0,1,4,0L34,21.31l5.72,9.92a2.32,2.32,0,0,1-2,3.48H14.78a2.32,2.32,0,0,1-2-3.48l5.73-9.92Z"/><path d="M24.51,16.16a.83.83,0,0,1,.81-1H27a.85.85,0,0,1,.83,1L27,25.62a.85.85,0,0,1-.86.84.83.83,0,0,1-.83-.84Zm1.64,12a1.59,1.59,0,0,1,1.65,1.6V30a1.65,1.65,0,0,1-3.29,0v-.23A1.6,1.6,0,0,1,26.15,28.15Z"/><path d="M86.44,78.31a4.34,4.34,0,0,0-7.66-1.56,1.39,1.39,0,0,1-1.56.54L62.76,72.21l14.31-5a1.6,1.6,0,0,1,1.79.43,4.34,4.34,0,0,0,6.91-5.26,4.38,4.38,0,0,0-2.2-1.61,4.35,4.35,0,1,0-7.75-2.68,1.75,1.75,0,0,1-1.13,1.71l-5.65,2A8,8,0,0,0,71,56.59V44.74h-.16c-1.24-8.63-9.51-15.36-19.38-15.36S33.27,36.11,32,44.74h-.16V56.59a8,8,0,0,0,2.27,5.58l-6.81-2.39a1.75,1.75,0,0,1-1.12-1.73,4.35,4.35,0,0,0-1.64-3.41,4.41,4.41,0,0,0-3.73-.83,4.34,4.34,0,0,0-2.39,6.94,4.42,4.42,0,0,0-2.2,1.61,4.34,4.34,0,0,0,6.91,5.26,1.62,1.62,0,0,1,1.8-.43l14.31,5L24.81,77.29a1.39,1.39,0,0,1-1.56-.54,4.35,4.35,0,0,0-7,5.17,4.42,4.42,0,0,0,2.2,1.61,4.34,4.34,0,0,0,2.38,6.94,4.38,4.38,0,0,0,3.74-.83,4.36,4.36,0,0,0,1.64-3.42,1.64,1.64,0,0,1,1.1-1.57L51,76.33l23.69,8.32a1.67,1.67,0,0,1,1.11,1.58,4.36,4.36,0,0,0,4.36,4.36,4.42,4.42,0,0,0,1-.12,4.34,4.34,0,0,0,2.38-6.94,4.38,4.38,0,0,0,2.2-1.61A4.31,4.31,0,0,0,86.44,78.31Zm-42.64-13V60.59H39.88a4,4,0,0,1-4-4V46.78C36,39.39,43,33.38,51.41,33.38s15.41,6,15.54,13.4v9.81a4,4,0,0,1-4,4H59.16v4.69A4,4,0,0,1,56.67,69V65.22a2,2,0,0,0-4,0v4.06H50.09V65.22a2,2,0,0,0-4,0v3.65A4,4,0,0,1,43.8,65.28Z"/><circle cx="44.55" cy="50.02" r="4.55" transform="translate(-7.44 7.78) rotate(-9.22)"/><circle cx="58.17" cy="50.02" r="4.55"/><polygon points="51.43 55.83 49.12 59.23 53.63 59.23 51.43 55.83"/></svg>