<svg id="Layer_1" data-name="Layer 1" xmlns="http://www.w3.org/2000/svg" viewBox="0 0 100 100"><defs><style>.cls-1,.cls-2{fill:none;}.cls-1{stroke:#000;stroke-miterlimit:10;stroke-width:4px;}</style></defs><circle class="cls-1" cx="24.42" cy="23.87" r="13.77"/><path d="M16.26,12.79a13.7,13.7,0,0,0-2.92,2.92L32.59,35A14.18,14.18,0,0,0,35.51,32Z"/><rect x="61.1" y="33.3" width="4.64" height="15.01" rx="2.22"/><rect x="44.84" y="33.3" width="4.64" height="15.01" rx="2.22"/><rect x="77.37" y="33.3" width="4.64" height="15.01" rx="2.22"/><path class="cls-1" d="M35.51,74.69V45.09a4.27,4.27,0,0,1,4.28-4.28H87.06a4.28,4.28,0,0,1,4.28,4.28v29.6"/><circle class="cls-2" cx="63.42" cy="46.41" r="3.74"/><circle class="cls-2" cx="47.15" cy="46.41" r="3.74"/><circle class="cls-2" cx="79.69" cy="46.41" r="3.74"/><polygon points="41.04 89.71 85.81 89.71 85.81 89.71 41.04 89.71 41.04 89.71"/><path d="M91.34,47.91a5.53,5.53,0,0,0-5.53-5.53H41a5.52,5.52,0,0,0-5.53,5.53v7.91H91.34V84.18h0ZM47.15,50.14a3.74,3.74,0,1,1,3.74-3.73A3.73,3.73,0,0,1,47.15,50.14Zm16.27,0a3.74,3.74,0,1,1,3.74-3.73A3.73,3.73,0,0,1,63.42,50.14Zm16.27,0a3.74,3.74,0,1,1,3.74-3.73A3.73,3.73,0,0,1,79.69,50.14Z"/><path class="cls-1" d="M35.51,55.82h0V85.43a4.28,4.28,0,0,0,4.28,4.28H87.06a4.28,4.28,0,0,0,4.28-4.28V55.82Z"/><rect x="75.96" y="60.68" width="7.47" height="5.78"/><rect x="43.42" y="60.68" width="7.47" height="5.78"/><rect x="59.69" y="69.96" width="7.47" height="5.78"/><rect x="43.42" y="69.96" width="7.47" height="5.78"/><rect x="59.69" y="79.23" width="7.47" height="5.78"/><rect x="75.96" y="79.23" width="7.47" height="5.78"/></svg>