<svg id="Layer_1" data-name="Layer 1" xmlns="http://www.w3.org/2000/svg" viewBox="0 0 100 100"><defs><style>.cls-1,.cls-2{fill:none;stroke:#000;stroke-linecap:round;stroke-width:4px;}.cls-1{stroke-miterlimit:10;}.cls-2{stroke-linejoin:round;}</style></defs><line class="cls-1" x1="74.9" y1="39.19" x2="82.32" y2="37.89"/><line class="cls-1" x1="74.9" y1="46.47" x2="82.32" y2="47.77"/><path class="cls-1" d="M85.07,55.91a4.85,4.85,0,0,0,1,.1,4.92,4.92,0,0,0,4.92-4.92,5.1,5.1,0,0,0-.16-1.19,8.19,8.19,0,0,0,0-14.78,5.25,5.25,0,0,0,.16-1.19A4.92,4.92,0,0,0,86,29a4.86,4.86,0,0,0-1,.09"/><path class="cls-2" d="M34.08,65.65s-16.87,4-21.82,7.13S6.41,84,6.41,84"/><path class="cls-2" d="M83.35,84s-.9-8.09-5.85-11.24S55,65.32,55,65.32"/><path class="cls-2" d="M44.86,14.72c-12,0-22.16,11.28-22.16,25.1,0,9.5,4.62,18.4,11.42,23v0a10.49,10.49,0,0,0,21,0c0-.06,0-.11,0-.17.65-.45,10.3-4.58,12.06-13.39C62.78,49,56.32,48.1,56.14,45s8.37-7.3,12.62-9.23a25.08,25.08,0,0,0-1.87-6.25l2.9-3.79a1.61,1.61,0,0,0-1-2.56l-7.48-1.49a25,25,0,0,0-16.23-7Z"/></svg>