<?xml version="1.0" encoding="utf-8"?>
<!-- Generator: Adobe Illustrator 24.0.0, SVG Export Plug-In . SVG Version: 6.00 Build 0)  -->
<svg version="1.1" id="Layer_1" xmlns="http://www.w3.org/2000/svg" xmlns:xlink="http://www.w3.org/1999/xlink" x="0px" y="0px"
	 viewBox="0 0 100 100" style="enable-background:new 0 0 100 100;" xml:space="preserve">
<g>
	<path d="M35,20.4c-14.6,0-26.7,10.7-26.9,23.9v14c0,5.8,4.7,10.5,10.5,10.5h0.7v1.8c0,5.8,4.7,10.5,10.5,10.5h10.5c0,0,0,0,0,0
		c2.8,0,5.4-1.1,7.4-3.1c2-2,3.1-4.6,3.1-7.5v-1.8h0.5c0,0,0,0,0,0c5.8,0,10.5-4.7,10.5-10.5v-14C61.8,31.1,49.6,20.4,35,20.4z
		 M58,58.3c0,3.6-2.9,6.5-6.5,6.5c0,0,0,0,0,0h-4.5v5.8c0,1.7-0.7,3.4-1.9,4.6c-0.9,0.9-2.1,1.5-3.3,1.8v-6.5c0-1.1-0.9-2-2-2
		s-2,0.9-2,2v6.6h-5.4v-6.6c0-1.1-0.9-2-2-2s-2,0.9-2,2V77c-2.8-0.7-4.9-3.3-4.9-6.3v-5.8h-4.7c-3.6,0-6.5-2.9-6.5-6.5l0-14
		c0.2-11,10.5-19.9,22.9-19.9c12.5,0,22.8,8.9,23,19.9V58.3z"/>
	<ellipse transform="matrix(0.9732 -0.2298 0.2298 0.9732 -10.5701 7.1176)" cx="25.3" cy="48.9" rx="6.5" ry="6.5"/>
	<ellipse transform="matrix(0.9732 -0.2298 0.2298 0.9732 -10.0519 11.5679)" cx="44.7" cy="48.9" rx="6.5" ry="6.5"/>
	<polygon points="31.8,62 38.2,62 35.1,57.2 	"/>
	<path d="M89,50.9L89,50.9c-3.5-3-8.8-2.5-11.8,1L72,58l0,0l-0.3,0.4l-1,1.1l0,0l-4.5,5.3c0,0.1-0.1,0.1-0.1,0.2
		c-2.9,3.3-2.5,8.4,0.8,11.3c0.1,0.1,0.2,0.2,0.3,0.3l0.2-0.3l-0.2,0.3c0.1,0.1,0.2,0.1,0.2,0.2c1.5,1.2,3.3,1.8,5.2,1.8
		c2.3,0,4.7-1,6.2-2.9l4.6-5.4l0,0l1.1-1.3l0.2-0.2l0,0l5.3-6.2C92.9,59.1,92.5,53.9,89,50.9z M69.7,73.6l-0.2-0.2
		c-1.6-1.5-1.8-4.1-0.4-5.8c0,0,0,0,0,0l4.6-5.4l6.6,5.6L75.8,73c-1.5,1.8-4.1,2-6,0.6L69.7,73.6z"/>
</g>
</svg>
