<?xml version="1.0" encoding="utf-8"?>
<!-- Generator: Adobe Illustrator 24.0.0, SVG Export Plug-In . SVG Version: 6.00 Build 0)  -->
<svg version="1.1" id="Layer_1" xmlns="http://www.w3.org/2000/svg" xmlns:xlink="http://www.w3.org/1999/xlink" x="0px" y="0px"
	 viewBox="0 0 100 100" style="enable-background:new 0 0 100 100;" xml:space="preserve">
<path d="M91,42.7c-0.1-0.3-0.2-0.6-0.3-0.9c0,0,0,0,0,0c0,0,0,0,0,0c-0.4-0.8-1.2-1.5-2.2-1.7c0,0,0,0,0,0c0,0,0,0,0,0c0,0,0,0,0,0
	c-0.3-0.1-0.8-0.2-1.2-0.3c0,0-0.1,0-0.1,0c-0.4-0.1-0.8-0.2-1.2-0.2c-0.1,0-0.3,0-0.4-0.1c-0.3,0-0.5-0.1-0.8-0.1
	c-0.2,0-0.3,0-0.5-0.1c-0.3,0-0.6-0.1-0.9-0.1c-0.1,0-0.1,0-0.2,0l-2.5-0.2l0,0.1c-4.3,0-9.4,0.9-13.7,4.3
	c-6.4,5.1-7.9,8.4-8.9,10.6c-0.3,0.7-0.5,1.2-0.9,1.6c0,0-0.1,0.1-0.1,0.1c0-0.1,0.1-0.2,0.1-0.3c0.9-2.2,2.3-5.6,1.5-13.8
	c-1-10.1-10-16.1-12.7-17.7c-0.7-0.4-1.5-0.6-2.3-0.5c-0.1,0-0.3,0-0.4,0.1c0,0,0,0-0.1,0c-0.3,0.1-0.6,0.2-0.9,0.4
	c0,0-0.1,0.1-0.1,0.1c-0.5,0.3-1.3,0.8-2.2,1.4l0,0c-0.3,0.2-0.7,0.5-1.1,0.8c0.2-0.9,0.3-1.9,0.3-2.9c0-8.7-7.1-15.8-15.8-15.8
	S7.8,14.6,7.8,23.3s7.1,15.8,15.8,15.8c2.6,0,5-0.6,7.1-1.7c-0.5,1.3-0.8,2.8-1,4.3c-0.8,8.2,0.5,11.6,1.5,13.8
	c0.3,0.7,0.5,1.2,0.5,1.7c0,0.4-0.2,1.4-0.5,2.4c-0.9,3.3-2.3,8.7-0.5,17.5c1,4.5,3.5,8.6,7,11.5l-0.1,0.1l1.4,0.9
	c1.1,0.8,2.3,1.5,3.5,2l0,0c0.6,0.3,1.2,0.4,1.8,0.4c0,0,0,0,0,0c0,0,0,0,0,0c0.6,0,1.2-0.1,1.8-0.4c0.4-0.2,0.7-0.3,1-0.5
	c1,0.1,2,0.2,2.9,0.2c3.9,0,7.7-1.1,11.1-3.2c7.5-4.8,10.4-9.7,12.1-12.6c0.5-0.9,1.1-1.8,1.4-2.1c0.4-0.3,0.9-0.5,1.6-0.8
	c2.2-0.9,5.6-2.3,10.9-8.6c1.6-1.9,2.7-4,3.4-6.2c0.9-2.7,1.2-5.4,1.2-7.8C91.8,46.8,91.3,44,91,42.7z M60.2,58.3
	c0.7-0.8,1.1-1.7,1.5-2.6c0.9-1.9,2-4.6,7.7-9.1c3.6-2.9,8.1-3.6,11.7-3.5c0.3,4.1-0.2,9.4-3.7,13.5C72.7,62,70,63.1,68.1,64
	c-0.9,0.4-1.8,0.8-2.7,1.5c-0.9,0.7-1.5,1.8-2.2,3.1c-1.1,1.8-2.5,4.1-5.1,6.7c1.2-7.1,0.1-11.9-0.7-15C58.6,59.6,59.5,59,60.2,58.3
	z M35.3,23.3c0,2.5-0.8,4.8-2.1,6.7L16.8,13.7c1.9-1.3,4.2-2.1,6.7-2.1C30.1,11.5,35.3,16.8,35.3,23.3z M11.8,23.3
	c0-2.5,0.8-4.8,2.1-6.7l16.4,16.4c-1.9,1.3-4.2,2.1-6.7,2.1C17.1,35.1,11.8,29.8,11.8,23.3z M34.6,76.3c-1.6-7.8-0.3-12.5,0.5-15.7
	c0.4-1.5,0.7-2.6,0.6-3.8c-0.1-1.1-0.4-2-0.8-2.9c-0.8-2-1.9-4.7-1.2-11.9c0.5-4.6,3.1-8.2,5.7-10.8c3.2,2.7,6.5,6.7,7.1,12.1
	c0.7,7.2-0.4,9.9-1.2,11.9c-0.4,0.9-0.7,1.8-0.8,2.9c-0.1,1.1,0.2,2.3,0.6,3.8c0.8,3.1,2.1,7.8,0.5,15.7c-0.7,3.3-2.3,6.2-4.7,8.5
	C37.7,83.7,35.5,80.2,34.6,76.3z"/>
</svg>
