<?xml version="1.0" encoding="utf-8"?>
<!-- Generator: Adobe Illustrator 24.0.0, SVG Export Plug-In . SVG Version: 6.00 Build 0)  -->
<svg version="1.1" id="Layer_1" xmlns="http://www.w3.org/2000/svg" xmlns:xlink="http://www.w3.org/1999/xlink" x="0px" y="0px"
	 viewBox="0 0 100 100" style="enable-background:new 0 0 100 100;" xml:space="preserve">
<g>
	<path d="M24.7,40.6c8.7,0,15.8-7.1,15.8-15.8S33.4,9.1,24.7,9.1S8.9,16.2,8.9,24.9S16,40.6,24.7,40.6z M36.5,24.9
		c0,2.5-0.8,4.8-2.1,6.7L18,15.2c1.9-1.3,4.2-2.1,6.7-2.1C31.2,13.1,36.5,18.4,36.5,24.9z M15.1,18.1l16.4,16.4
		c-1.9,1.3-4.2,2.1-6.7,2.1c-6.5,0-11.8-5.3-11.8-11.8C12.9,22.3,13.7,20,15.1,18.1z"/>
	<path d="M28.6,53.1v-3.9c0-1-0.8-1.8-1.8-1.8h-13c-1,0-1.8,0.8-1.8,1.7c0,0,0,0,0,0v3.9l-1.2,3.1c-0.2,0.6-0.3,1.2-0.3,1.8v15.3
		c0,1,0.8,1.8,1.8,1.8h16.3c1,0,1.7-0.8,1.8-1.8V58.1c0-0.7-0.1-1.3-0.4-2L28.6,53.1z M26,70.8C26,70.8,26,70.8,26,70.8l-11.3,0
		c-1,0-1.8-0.8-1.8-1.7c0,0,0,0,0,0v-8.5c0-1,0.8-1.7,1.8-1.8H26c1,0,1.8,0.8,1.8,1.8l0,8.5C27.8,70,27,70.8,26,70.8z"/>
	<polygon points="22.3,60.8 18.4,60.8 18.4,62.8 16.4,62.8 16.4,66.7 18.4,66.7 18.4,68.7 22.3,68.7 22.3,66.7 24.3,66.7 24.3,62.8 
		22.3,62.8 	"/>
	<path d="M47.3,49.8c0.1,0,0.2,0,0.2,0c1,0,1.9-0.8,2-1.8c0.1-0.9,0.7-3.5,2.1-4.4c1.4-0.9,6.1-2.3,9.5-3.2c1.1,3.3,3.5,6.8,6.8,6.8
		c3.3,0,5.7-3.4,6.8-6.7c3.4,0.9,7.9,2.3,9.3,3.2c1.4,0.9,2,3.6,2.1,4.4c0.1,1,1,1.8,2,1.8c0.1,0,0.1,0,0.2,0
		c1.1-0.1,1.9-1.1,1.8-2.2c-0.1-0.5-0.7-5.3-4-7.3c-2-1.2-6.9-2.7-9.9-3.5c3.2-3.2,5-7.5,5-12c0-8.3-6-15.1-13.4-15.1
		c-7.4,0-13.4,6.8-13.4,15.1c0,4.5,1.8,8.9,5,12c-3,0.8-8,2.3-9.9,3.5c-3.3,2.1-3.9,6.8-4,7.3C45.4,48.7,46.2,49.7,47.3,49.8z
		 M68,43.2c-0.8,0-1.8-1.3-2.5-2.9c0.8,0.2,1.6,0.3,2.4,0.3c0.9,0,1.8-0.1,2.7-0.4C69.8,41.8,68.8,43.2,68,43.2z M58.5,24.7
		c0-6.1,4.2-11.1,9.4-11.1c5.2,0,9.4,5,9.4,11.1c0,0,0,0,0,0c0,4-1.8,7.9-5.1,10.3c-0.2,0.1-0.3,0.3-0.4,0.5l-0.1-0.2
		c-2.8,1.7-4.9,1.7-7.7,0L64,35.4c-0.1-0.1-0.2-0.2-0.3-0.3C60.4,32.7,58.4,28.8,58.5,24.7z"/>
	<path d="M86.2,81.2c-2-1.3-6.8-2.7-9.9-3.5c3.2-3.2,5-7.5,5-12.1c0-8.3-6-15.1-13.4-15.1c-7.4,0-13.4,6.8-13.4,15.1
		c-0.1,4.6,1.8,8.9,5,12.1c-3,0.8-7.9,2.2-9.9,3.5c-3.3,2.1-3.9,6.8-4,7.4c-0.1,1.1,0.7,2.1,1.8,2.2c0.1,0,0.2,0,0.2,0
		c1,0,1.9-0.8,2-1.8c0.1-0.9,0.7-3.5,2.1-4.4c1.4-0.9,6.1-2.3,9.5-3.2c1.1,3.3,3.5,6.8,6.8,6.8c3.3,0,5.7-3.4,6.8-6.8
		c3.4,0.9,7.9,2.3,9.3,3.2c1.4,0.9,2,3.6,2.1,4.4c0.1,1,1,1.8,2,1.8c0.1,0,0.1,0,0.2,0c1.1-0.1,1.9-1.1,1.8-2.2
		C90.1,88,89.5,83.3,86.2,81.2z M58.5,65.6c0-6.1,4.2-11.1,9.4-11.1c5.2,0,9.4,5,9.4,11.1c0,0,0,0,0,0c0.1,4-1.8,7.9-5.1,10.3
		c-0.2,0.1-0.3,0.3-0.5,0.5l0-0.1c-2.8,1.7-4.9,1.7-7.7,0c-0.1-0.2-0.2-0.3-0.4-0.4C60.4,73.6,58.4,69.8,58.5,65.6z M68,84.2
		c-0.7,0-1.7-1.2-2.4-2.7c0.8,0.2,1.6,0.3,2.3,0.3c0.9,0,1.7-0.1,2.6-0.4C69.7,82.9,68.7,84.2,68,84.2z"/>
	<path d="M44.3,49.4c-0.8-0.8-2-0.8-2.8,0l-10.2,9.9l10.2,9.9c0.4,0.4,0.9,0.6,1.4,0.6c0.5,0,1-0.2,1.4-0.6c0.8-0.8,0.7-2.1,0-2.8
		l-7.3-7l7.3-7C45,51.5,45.1,50.2,44.3,49.4z"/>
</g>
</svg>
