<svg id="Layer_1" data-name="Layer 1" xmlns="http://www.w3.org/2000/svg" viewBox="0 0 100 100"><defs><style>.cls-1,.cls-2,.cls-3{fill:none;stroke:#000;stroke-width:4px;}.cls-1,.cls-2{stroke-linecap:round;}.cls-1,.cls-3{stroke-linejoin:round;}.cls-2{stroke-miterlimit:10;}</style></defs><polygon points="48.77 21.13 44.8 19.24 40.98 21.43 41.55 17.07 38.27 14.11 42.61 13.31 44.4 9.28 46.51 13.17 50.89 13.63 47.85 16.83 48.77 21.13"/><polygon points="30.78 38.85 26.79 36.96 22.98 39.16 23.55 34.8 20.28 31.84 24.62 31.04 26.41 27.01 28.5 30.89 32.89 31.35 29.87 34.54 30.78 38.85"/><polygon points="77.56 22.71 73.57 20.81 69.76 23.01 70.33 18.65 67.06 15.69 71.39 14.89 73.19 10.86 75.28 14.74 79.67 15.2 76.64 18.39 77.56 22.71"/><path class="cls-1" d="M14.78,31.2a4.34,4.34,0,0,1-2-3.13c-.13-4.12,8.8-8,21.85-10.06"/><path class="cls-1" d="M82.23,19.39C87.66,21,91,23.17,91,25.63c.18,5.74-17.18,10.94-38.78,11.61a134.32,134.32,0,0,1-16.33-.43"/><path class="cls-1" d="M54.26,16.37c3.22-.07,6.33,0,9.27.2"/><path class="cls-2" d="M48.27,44.48a9.69,9.69,0,0,1-4,1.07,7.06,7.06,0,0,1-3.87-1.25"/><path class="cls-2" d="M62.79,44.1a9.65,9.65,0,0,1-4,1.07,7,7,0,0,1-3.86-1.25"/><path class="cls-3" d="M72.82,47.13c0-13.53-9.55-24.49-21.34-24.49s-21.33,11-21.33,24.49c0,9.3,4.52,18,11.17,22.53v0c0,5.67,4.6,13.26,10.27,13.26s10.26-7.59,10.26-13.26c0-.05,0-.11,0-.16C68.39,65,72.82,56.33,72.82,47.13Z"/><path class="cls-2" d="M12.24,90.72s.91-8.18,5.9-11.36,22.74-7.54,22.74-7.54"/><path class="cls-2" d="M91.49,90.72s-.9-8.18-5.9-11.36-22.74-7.54-22.74-7.54"/><path class="cls-3" d="M41.22,69.55v0C48.4,74,54.43,74,61.75,69.57"/></svg>