<svg id="Layer_1" data-name="Layer 1" xmlns="http://www.w3.org/2000/svg" viewBox="0 0 100 100"><defs><style>.cls-1,.cls-2{fill:none;stroke:#000;stroke-miterlimit:10;stroke-width:4px;}.cls-2{stroke-linecap:round;}</style></defs><path class="cls-1" d="M52,36A50.06,50.06,0,0,0,68.9,42.92a4.82,4.82,0,0,1,3.86,4.71v9.63A34.61,34.61,0,0,1,56.7,86.48l-.08.06a13.59,13.59,0,0,1-14.54,0L42,86.48A34.6,34.6,0,0,1,26,57.26V47.63a4.82,4.82,0,0,1,3.86-4.71A50,50,0,0,0,46.74,36,4.76,4.76,0,0,1,52,36Z"/><line class="cls-2" x1="57.52" y1="54.76" x2="41.18" y2="71.1"/><line class="cls-2" x1="41.18" y1="54.76" x2="57.52" y2="71.1"/><path d="M27.69,26.55a1.74,1.74,0,0,1-.7-1.4,1.7,1.7,0,0,1,1.73-1.7,1.74,1.74,0,0,1,1.05.34,7.16,7.16,0,0,0,4.3,1.51c1.51,0,2.43-.6,2.43-1.59v0c0-.94-.58-1.42-3.39-2.14-3.38-.86-5.57-1.8-5.57-5.14v0c0-3.05,2.45-5.07,5.88-5.07a9.76,9.76,0,0,1,5.33,1.49,1.68,1.68,0,0,1,.82,1.46,1.71,1.71,0,0,1-1.73,1.71,1.78,1.78,0,0,1-.94-.27,7,7,0,0,0-3.53-1.13c-1.41,0-2.16.65-2.16,1.47v0c0,1.1.72,1.46,3.63,2.21,3.41.88,5.33,2.11,5.33,5v0c0,3.34-2.55,5.21-6.17,5.21A10.85,10.85,0,0,1,27.69,26.55Z"/><path d="M46.93,14.93H43.38a1.71,1.71,0,0,1,0-3.41h10.8a1.71,1.71,0,1,1,0,3.41H50.63V26.62a1.85,1.85,0,1,1-3.7,0Z"/><path d="M58.57,13.37a1.84,1.84,0,0,1,1.85-1.85h4.71c5.28,0,8.92,3.63,8.92,8.35v.05c0,4.73-3.64,8.4-8.92,8.4H60.42a1.83,1.83,0,0,1-1.85-1.85ZM65.13,25a4.79,4.79,0,0,0,5.06-5v0a4.82,4.82,0,0,0-5.06-5.06H62.27V25Z"/></svg>