<svg id="Layer_1" data-name="Layer 1" xmlns="http://www.w3.org/2000/svg" viewBox="0 0 100 100"><defs><style>.cls-1,.cls-2{fill:none;stroke:#000;stroke-miterlimit:10;stroke-width:4px;}.cls-2{stroke-linecap:round;}</style></defs><path d="M55.93,89.58a26.76,26.76,0,0,1-11-2.46C30.7,80.53,19.45,70.92,13.6,56,12.23,52.45,11,48.79,11.78,44.9c1.07-5.22,4.57-8.54,9.12-10.82,1.94-1,2.74-.58,3.92,1.21q3.3,5,6.58,10c1.1,1.69,1.09,2.46-.32,3.92s-2.87,2.63-4.28,4c-1.9,1.82-2.15,2.53-.86,4.83a29.22,29.22,0,0,0,4.11,5.75A73.06,73.06,0,0,0,45.41,75.87c2.15,1.3,2.86,1.14,4.41-.82,1.11-1.4,2.11-2.89,3.25-4.27,1.49-1.82,2.33-2,4.35-.88,3.56,1.93,7.09,3.93,10.69,5.79a2.19,2.19,0,0,1,1.26,2.84c-1.49,5.69-5.27,9.06-10.82,10.59A24.42,24.42,0,0,1,55.93,89.58Z"/><circle class="cls-1" cx="73.5" cy="26.69" r="14.98"/><line class="cls-2" x1="66.13" y1="26.24" x2="81.18" y2="26.24"/><line class="cls-2" x1="73.65" y1="33.76" x2="73.65" y2="18.71"/><path class="cls-2" d="M43.52,48.31a8,8,0,0,1,7.95,7.95"/><path class="cls-2" d="M44.07,40.32a14.81,14.81,0,0,1,14.8,14.81"/></svg>