<?xml version="1.0" encoding="utf-8"?>
<!-- Generator: Adobe Illustrator 24.0.0, SVG Export Plug-In . SVG Version: 6.00 Build 0)  -->
<svg version="1.1" id="Layer_1" xmlns="http://www.w3.org/2000/svg" xmlns:xlink="http://www.w3.org/1999/xlink" x="0px" y="0px"
	 viewBox="0 0 100 100" style="enable-background:new 0 0 100 100;" xml:space="preserve">
<g>
	<path d="M47.3,61.5c-1-0.6-2.2-0.2-2.7,0.7l-1.3,2.3c-0.7-2.7-1-6.8,0.6-11.6c0.4-1-0.2-2.2-1.2-2.5c-1-0.4-2.2,0.2-2.5,1.2
		c-1.9,5.6-1.6,10.5-0.8,14l-2-1.3c-0.9-0.6-2.2-0.3-2.8,0.6c-0.6,0.9-0.3,2.2,0.6,2.8l7.9,5l4.9-8.4C48.5,63.3,48.2,62,47.3,61.5z"
		/>
	<path d="M25.1,40.3c8.7,0,15.8-7.1,15.8-15.8S33.8,8.8,25.1,8.8S9.3,15.9,9.3,24.6S16.4,40.3,25.1,40.3z M36.9,24.6
		c0,2.5-0.8,4.8-2.1,6.7L18.4,14.9c1.9-1.3,4.2-2.1,6.7-2.1C31.6,12.8,36.9,18.1,36.9,24.6z M15.5,17.9l16.4,16.4
		c-1.9,1.3-4.2,2.1-6.7,2.1c-6.5,0-11.8-5.3-11.8-11.8C13.3,22.1,14.1,19.8,15.5,17.9z"/>
	<path d="M30.7,73.6c0-0.7-0.1-1.3-0.4-2l-1.3-3v-3.9c0-1-0.8-1.8-1.8-1.8h-13c-1,0-1.8,0.8-1.8,1.8v3.8l-1.2,3.1
		c-0.2,0.6-0.3,1.2-0.3,1.8v15.3c0,1,0.8,1.8,1.8,1.8h16.2c1,0,1.8-0.8,1.8-1.8c0,0,0,0,0,0V73.6z M28.2,84.5c0,1-0.8,1.8-1.8,1.8
		H15.2c-1,0-1.8-0.8-1.8-1.8V76c0-1,0.8-1.8,1.8-1.8h11.3c1,0,1.8,0.8,1.8,1.8V84.5z"/>
	<polygon points="22.7,76.3 18.8,76.3 18.8,78.3 16.8,78.3 16.8,82.2 18.8,82.2 18.8,84.2 22.7,84.2 22.7,82.2 24.7,82.2 24.7,78.3 
		22.7,78.3 	"/>
	<path d="M47.7,49.5c0.1,0,0.1,0,0.2,0c1,0,1.9-0.8,2-1.8c0.1-0.7,0.7-3.5,2.1-4.4c1.4-0.9,6-2.3,9.5-3.2c1.1,3.3,3.5,6.8,6.8,6.8
		c3.3,0,5.7-3.4,6.8-6.8c3.4,0.9,7.9,2.3,9.3,3.2c1.4,0.9,2,3.6,2.1,4.4c0.1,1,1,1.8,2,1.8c0.1,0,0.1,0,0.2,0
		c1.1-0.1,1.9-1.1,1.8-2.2c-0.1-0.5-0.7-5.3-4-7.4c-2-1.3-6.8-2.7-9.9-3.5c3.2-3.2,5-7.5,4.9-12.1c0-8.3-6-15.1-13.4-15.1
		c-7.4,0-13.4,6.8-13.4,15.1c-0.1,4.5,1.8,8.9,4.9,12.1c-3,0.8-7.9,2.3-9.9,3.5c-3.3,2.1-3.9,6.8-4,7.4
		C45.8,48.4,46.6,49.4,47.7,49.5z M68.4,43c-0.7,0-1.7-1.2-2.4-2.7c0.8,0.2,1.6,0.3,2.3,0.3c0.9,0,1.7-0.1,2.6-0.4
		C70.1,41.7,69.1,43,68.4,43z M58.9,24.4c0-6.1,4.2-11.1,9.4-11.1s9.4,5,9.4,11.1c0,0,0,0,0,0c0.1,4-1.8,7.9-5.1,10.3
		c-0.2,0.1-0.3,0.3-0.5,0.6l0,0c-2.8,1.7-4.9,1.7-7.6,0c-0.1-0.2-0.3-0.4-0.5-0.5C60.8,32.4,58.8,28.5,58.9,24.4z"/>
	<path d="M86.6,80.9c-2-1.3-6.8-2.7-9.9-3.5c3.2-3.2,5-7.5,4.9-12.1c0-8.3-6-15.1-13.4-15.1c-7.4,0-13.4,6.8-13.4,15.1
		c-0.1,4.5,1.8,8.9,4.9,12.1c-3,0.8-7.9,2.3-9.9,3.5c-3.3,2.1-3.9,6.8-4,7.3c-0.1,1.1,0.7,2.1,1.8,2.2c0.1,0,0.1,0,0.2,0
		c1,0,1.9-0.8,2-1.8c0.1-0.7,0.7-3.5,2.1-4.4c1.4-0.9,6-2.3,9.5-3.2c1.1,3.3,3.5,6.8,6.8,6.8c3.3,0,5.7-3.4,6.8-6.8
		c3.4,0.9,7.9,2.3,9.3,3.2c1.4,0.9,2,3.6,2.1,4.4c0.1,1,1,1.8,2,1.8c0.1,0,0.1,0,0.2,0c1.1-0.1,1.9-1.1,1.8-2.2
		C90.6,87.7,89.9,83,86.6,80.9z M58.9,65.4c0-6.1,4.2-11.1,9.4-11.1s9.4,5,9.4,11.1c0,0,0,0,0,0c0.1,4-1.8,7.9-5.1,10.3
		c-0.2,0.1-0.3,0.3-0.5,0.5l0-0.1c-2.8,1.7-4.9,1.7-7.7,0c-0.1-0.2-0.2-0.3-0.4-0.4C60.8,73.4,58.8,69.5,58.9,65.4z M68.4,83.9
		c-0.8,0-1.7-1.2-2.5-2.7c0.8,0.2,1.6,0.3,2.4,0.3c0.9,0,1.7-0.1,2.6-0.4C70.1,82.7,69.1,83.9,68.4,83.9z"/>
</g>
</svg>
