<?xml version="1.0" encoding="utf-8"?>
<!-- Generator: Adobe Illustrator 24.0.0, SVG Export Plug-In . SVG Version: 6.00 Build 0)  -->
<svg version="1.1" id="Layer_1" xmlns="http://www.w3.org/2000/svg" xmlns:xlink="http://www.w3.org/1999/xlink" x="0px" y="0px"
	 viewBox="0 0 100 100" style="enable-background:new 0 0 100 100;" xml:space="preserve">
<g>
	<path d="M24.5,11.3c-8.7,0-15.8,7.1-15.8,15.8s7.1,15.8,15.8,15.8s15.8-7.1,15.8-15.8S33.1,11.3,24.5,11.3z M12.7,27.1
		c0-2.5,0.8-4.8,2.1-6.7l16.4,16.4c-1.9,1.3-4.2,2.1-6.7,2.1C18,38.8,12.7,33.6,12.7,27.1z M34.1,33.8L17.7,17.4
		c1.9-1.3,4.2-2.1,6.7-2.1c6.5,0,11.8,5.3,11.8,11.8C36.2,29.6,35.4,31.9,34.1,33.8z"/>
	<path d="M74.5,41.3c-1.5-0.7-3.1-1.3-4.7-1.7c-1.7-0.5-2.9-2-2.9-3.8L66.6,31c1.8-2.5,2.3-5.6,1.5-8.5c-0.3-1.1-0.9-2.2-1.5-3.2
		c0.3,0,0.6,0.1,0.9,0.3c1,0.5,1.8,1.5,2,2.7c0.2,0.9,0.3,1.8,0.4,2.7c0.1,0.8,0.2,1.6,0.4,2.5c0.3,0.9,0.8,1.8,1.7,2.3
		c0.9,0.6,2.1,0.9,3.2,0.6c0.5-0.1,0.9-0.4,1.3-0.7c1.2-0.9,1.7-2.4,1.4-3.9c0-0.2-0.1-0.4-0.1-0.6c0,0.1,0,0.1,0,0.2
		c-0.1,0.9-0.8,1.6-1.7,1.7c0,0,0,0,0,0c-0.7,0.1-1.5-0.4-1.6-1.1c-0.1-0.5-0.1-1.1-0.1-1.6c0-1,0-1.9-0.1-2.9
		c-0.1-0.8-0.2-1.6-0.5-2.4c-0.8-2.3-2.7-4-5-4.8c-1.6-0.5-3.3-0.3-4.7,0.6c-0.5,0.3-0.9,0.7-1.2,1.1c-3.7-1.8-8.2-1.1-11.3,1.9
		c-2.6,2.6-3.7,6.3-2.7,9.9l-0.9,2.6c-0.1,0.3,0.1,0.7,0.4,0.8c0.1,0,0.2,0,0.3,0l1.7-0.2c1.6,2.3,4.2,3.8,7,4.2l-0.8,8.2
		c-0.2,1.8-1.2,3.5-2.8,4.5l-3,1.9c-2.5,1.6-3.5,4.8-2.2,7.6l1.5,3.3c0.5,1.2,0.2,2.6-0.7,3.4c-3.6,3.1-6,7.3-6.9,12
		c-0.1,0.9-0.2,1.7-0.2,2.6c0,3.3,0.7,6.6,2.1,9.5l2,4.2h27.1c0,0-0.3-14.4,0.6-15.3c3.7-3.3,12.3-11.5,13-14.8
		C87.8,58.1,76.2,42.2,74.5,41.3z M77.2,62.2L77.2,62.2L71.5,69c-0.1,0.1-0.3,0.2-0.4,0C71,69,71,68.9,71,68.8L71.8,54
		c0-0.2,0.2-0.3,0.3-0.3c0.1,0,0.2,0.1,0.2,0.1l4.8,6.7C77.6,61.1,77.5,61.7,77.2,62.2z"/>
</g>
</svg>
