<?xml version="1.0" encoding="utf-8"?>
<!-- Generator: Adobe Illustrator 24.0.0, SVG Export Plug-In . SVG Version: 6.00 Build 0)  -->
<svg version="1.1" id="Layer_1" xmlns="http://www.w3.org/2000/svg" xmlns:xlink="http://www.w3.org/1999/xlink" x="0px" y="0px"
	 viewBox="0 0 100 100" style="enable-background:new 0 0 100 100;" xml:space="preserve">
<g>
	<path d="M87.3,80.1c-0.1-0.8-1.2-8.9-6.5-12.3c-4.2-2.7-16.6-6-20.9-7.1c0-0.3,0.1-0.6,0.1-0.8c6.6-5,10.9-14,10.9-23.1
		c0-14.4-10.3-26.1-23-26.1s-23,11.7-23,26.1c0,9.2,4.3,18.2,11,23.2c0,0.3,0.1,0.5,0.1,0.8c-4.7,1.2-16.3,4.4-20.3,6.9
		C10.4,71.2,9.3,79.1,9.2,80L6.9,92.7c-0.2,1.1,0.5,2.1,1.6,2.3c0.1,0,0.2,0,0.4,0c1,0,1.8-0.7,2-1.7l2.2-12.7l0-0.1
		c0.2-1.9,1.5-7.3,4.7-9.4c2.9-1.8,11.4-4.4,17.1-5.9v11.5c-2.6,0.8-4.5,3.3-4.5,6.2c0,3.6,2.9,6.5,6.5,6.5s6.5-2.9,6.5-6.5
		c0-2.9-1.9-5.4-4.5-6.2v-8.2c2.2,3.2,5.4,5.6,9,5.6c3.5,0,6.7-2.3,8.9-5.5v4.1l-2.5,1.4c-2.9,1.6-4.7,4.7-4.7,8v2.6
		c0,1.9,1.5,3.4,3.4,3.4h1.4v-4h-0.8v-2c0-1.9,1-3.6,2.6-4.5l2.6-1.5l2.6,1.5c1.6,0.9,2.6,2.6,2.6,4.5v2h-0.8v4h1.4c0,0,0,0,0,0
		c0.9,0,1.7-0.3,2.4-1c0.6-0.6,1-1.5,1-2.4v-2.6c0-3.3-1.8-6.4-4.7-8l-2.5-1.4v-7.7c5.7,1.5,14.8,4.2,17.8,6.1
		c3.9,2.5,4.7,9.3,4.7,9.4l2,12.3c0.2,1,1,1.7,2,1.7c0.1,0,0.2,0,0.3,0c1.1-0.2,1.8-1.2,1.6-2.3L87.3,80.1z M28.9,36.8
		c0-12.2,8.5-22.1,19-22.1c10.5,0,19,9.9,19,22.1c0,8.2-3.9,16.2-10,20.4c-0.2,0.1-0.3,0.2-0.4,0.4c-6.2,3.6-11.1,3.6-17.2,0
		c-0.1-0.1-0.2-0.2-0.3-0.2C32.8,53.2,28.9,45.1,28.9,36.8z M37,85.5c-1.4,0-2.5-1.1-2.5-2.5s1.1-2.5,2.5-2.5s2.5,1.1,2.5,2.5
		S38.4,85.5,37,85.5z M48,70.1c-3.2,0-6.2-3.6-7.5-7.4c2.5,1,4.9,1.6,7.3,1.6c2.5,0,5-0.6,7.6-1.7C54.1,66.5,51.1,70.1,48,70.1z"/>
	<path d="M69.7,59.2c2.5,2,5.2,3.1,8.5,2.3c2.4-0.6,4.1-2.2,5.8-3.9c6.9-7.2,9.5-16,9.5-25.8c0-2.4-0.5-4.7-1.5-6.9
		c-0.3-0.5-0.6-0.9-0.9-1.4c-2-2.7-5.4-4-8.8-3.3c0,0,0,0,0,0c-0.7,0.1-1.3,0.7-1.3,1.4c-0.1,2.5-0.3,5-0.5,7.5
		c-0.1,1.4,0.2,1.9,1.6,2.2c1.1,0.3,2.2,0.5,3.2,0.7c1.5,0.4,1.8,0.7,1.6,2.3c-0.4,4-1.4,8-2.8,11.8c-0.6,1.4-1.3,2.6-2.2,3.8
		c-1,1.3-1.5,1.4-3,0.8c-1.1-0.4-2.2-1-3.4-1.4c-1.2-0.4-1.6-0.2-2.3,0.8c-1.4,2.1-2.7,4.2-4,6.3C68.7,57.8,68.6,58.4,69.7,59.2z"/>
</g>
</svg>
