<?xml version="1.0" encoding="utf-8"?>
<!-- Generator: Adobe Illustrator 24.0.0, SVG Export Plug-In . SVG Version: 6.00 Build 0)  -->
<svg version="1.1" id="Layer_1" xmlns="http://www.w3.org/2000/svg" xmlns:xlink="http://www.w3.org/1999/xlink" x="0px" y="0px"
	 viewBox="0 0 100 100" style="enable-background:new 0 0 100 100;" xml:space="preserve">
<g>
	<path d="M84.3,58l-0.5-2.1C81.6,45.6,68.1,38,51.2,38c-16.9,0-30.4,7.7-32.5,17.9L18.2,58h0.2c0,0.2,0,0.5,0,0.7
		c0,11.6,14.4,20.8,32.8,20.8S84,70.4,84,58.7c0-0.2,0-0.5,0-0.7H84.3z M60.1,54C60.1,54,60.1,54,60.1,54H23.7c0,0,0-0.1,0.1-0.1
		c0.2-0.3,0.4-0.6,0.5-0.9c0.1-0.2,0.3-0.4,0.4-0.6c0-0.1,0.1-0.1,0.1-0.2c2.7-3.6,7.5-6.6,13.5-8.3c0.5-0.1,0.9-0.3,1.4-0.4
		c0.1,0,0.1,0,0.2-0.1c3.5-0.9,7.3-1.4,11.3-1.4c4,0,7.8,0.5,11.3,1.4c0.1,0,0.2,0.1,0.4,0.1c0.4,0.1,0.8,0.2,1.2,0.3
		c6.5,1.9,11.6,5.2,14.2,9.2c0.2,0.3,0.4,0.6,0.5,0.9c0,0,0,0.1,0.1,0.2H60.1z M80,58.7c0,9.1-13.2,16.8-28.8,16.8
		s-28.8-7.7-28.8-16.8c0-0.2,0-0.5,0-0.7h16.4c1.3,4.4,5,7.6,9.7,8.3c0.6,0.1,1.2,0.1,1.8,0.1c5.2,0,9.9-3.5,11.5-8.5H80
		C80,58.2,80,58.5,80,58.7z"/>
	<path d="M50.6,31.5c1.1,0,2-0.9,2-2V18.7c0-1.1-0.9-2-2-2s-2,0.9-2,2v10.8C48.6,30.6,49.5,31.5,50.6,31.5z"/>
	<path d="M62.4,33.5c0.2,0.1,0.4,0.1,0.7,0.1c0.8,0,1.6-0.5,1.9-1.3L68.4,22c0.4-1-0.2-2.2-1.2-2.5c-1-0.4-2.2,0.2-2.5,1.2
		l-3.5,10.2C60.8,32,61.3,33.1,62.4,33.5z"/>
	<path d="M73,37.4c0.4,0.3,0.8,0.4,1.2,0.4c0.6,0,1.2-0.3,1.6-0.8l6.6-8.5c0.7-0.9,0.5-2.1-0.3-2.8c-0.9-0.7-2.1-0.5-2.8,0.3
		l-6.6,8.5C72,35.4,72.2,36.7,73,37.4z"/>
	<path d="M26,38.3c0.4,0.5,1,0.8,1.6,0.8c0.4,0,0.9-0.1,1.2-0.4c0.9-0.7,1-1.9,0.3-2.8l-6.6-8.5c-0.7-0.9-1.9-1-2.8-0.3
		c-0.9,0.7-1,1.9-0.3,2.8L26,38.3z"/>
	<path d="M36.9,32.2c0.3,0.8,1.1,1.3,1.9,1.3c0.2,0,0.4,0,0.7-0.1c1-0.4,1.6-1.5,1.2-2.5l-3.5-10.2c-0.4-1-1.5-1.6-2.5-1.2
		c-1,0.4-1.6,1.5-1.2,2.5L36.9,32.2z"/>
</g>
</svg>
