<?xml version="1.0" encoding="utf-8"?>
<!-- Generator: Adobe Illustrator 24.0.0, SVG Export Plug-In . SVG Version: 6.00 Build 0)  -->
<svg version="1.1" id="Layer_1" xmlns="http://www.w3.org/2000/svg" xmlns:xlink="http://www.w3.org/1999/xlink" x="0px" y="0px"
	 viewBox="0 0 100 100" style="enable-background:new 0 0 100 100;" xml:space="preserve">
<g>
	<path d="M28.1,40.5c8.7,0,15.8-7.1,15.8-15.8S36.8,8.9,28.1,8.9S12.4,16,12.4,24.7S19.4,40.5,28.1,40.5z M28.1,12.9
		c6.5,0,11.8,5.3,11.8,11.8c0,2.5-0.8,4.8-2.1,6.7L21.4,15C23.3,13.7,25.6,12.9,28.1,12.9z M18.5,18l16.4,16.4
		c-1.9,1.3-4.2,2.1-6.7,2.1c-6.5,0-11.8-5.3-11.8-11.8C16.4,22.2,17.1,19.9,18.5,18z"/>
	<path d="M86.8,61.2c-0.7-1.7-1.6-3.3-2.7-4.8c-0.5-0.6-1.2-0.8-1.9-0.7c0.1-0.1,0.2-0.3,0.3-0.4c1-1.7,1.3-3.8,0.8-5.7
		c-1-4-5.1-6.5-9.2-5.5c-1.1,0.3-1.7,1.4-1.4,2.4c0.3,1.1,1.4,1.7,2.4,1.4c1.9-0.5,3.8,0.7,4.3,2.6c0.2,0.9,0.1,1.9-0.4,2.7
		c-0.5,0.8-1.3,1.4-2.2,1.6c-1.4,0.4-2.9-0.2-3.8-1.4c0,0-0.1-0.1-0.1-0.1c0.2,0.1,0.3,0.1,0.5,0.2c0.3,0.1,0.7,0.3,1,0.4
		c1,0.4,2.2,0,2.6-1c0.4-1,0-2.2-1-2.6c-0.4-0.2-0.8-0.3-1.2-0.5c-2.2-0.8-4.5-1.2-6.9-1.2c-8.3,0-15.7,5-18.8,12.7
		c-4,0.3-7.2,3.6-7.2,7.7c0,4.1,3.2,7.4,7.2,7.7C51,81,54.3,84.7,58.7,87c2.9,1.5,6.1,2.2,9.3,2.2c2.1,0,4.2-0.3,6.3-1
		C80,86.4,84.6,82,86.8,76.5c4-0.3,7.1-3.6,7.1-7.7C93.9,64.8,90.8,61.5,86.8,61.2z M86.2,72.5c-0.2,0-0.3,0-0.5,0l-1.7-0.3
		l-0.5,1.6c-1.6,5-5.5,8.9-10.5,10.5c-8.6,2.8-17.8-2-20.6-10.5l-0.5-1.6l-1.7,0.3c-0.2,0-0.4,0-0.5,0c-2,0-3.7-1.7-3.7-3.7
		s1.7-3.7,3.7-3.7c0.2,0,0.4,0,0.6,0l1.7,0.3l0.5-1.6c2.2-6.8,8.4-11.3,15.6-11.3c0.9,0,1.8,0.1,2.7,0.2c-0.1,0.1-0.2,0.1-0.4,0.2
		c-0.9,0.6-1.1,1.9-0.5,2.8c1.4,2,3.8,3.2,6.2,3.2c0.6,0,1.2-0.1,1.8-0.2c1-0.2,1.9-0.7,2.6-1.3c0,0.5,0.1,1,0.4,1.4
		c1.2,1.5,2,3.1,2.6,4.9l0.5,1.6l1.7-0.2c0.2,0,0.4,0,0.5,0c2,0,3.7,1.7,3.7,3.7S88.3,72.5,86.2,72.5z"/>
	<path d="M61.9,76.6c-0.8,0.8-0.8,2,0,2.8c0.8,0.8,2,0.8,2.8,0c1.8-1.8,4.7-1.8,6.5,0c0.4,0.4,0.9,0.6,1.4,0.6c0.5,0,1-0.2,1.4-0.6
		c0.8-0.8,0.8-2.1,0-2.8C70.7,73.3,65.2,73.3,61.9,76.6z"/>
	<path d="M63.7,62.6c-0.7-0.9-2-1-2.8-0.3l-3.9,3.1c-0.9,0.7-1,1.9-0.3,2.8c0.4,0.5,1,0.8,1.6,0.8c0.4,0,0.9-0.1,1.2-0.4l3.9-3.1
		C64.3,64.8,64.4,63.5,63.7,62.6z"/>
	<path d="M79.4,65.4l-3.9-3.1c-0.9-0.7-2.1-0.6-2.8,0.3c-0.7,0.9-0.6,2.1,0.3,2.8l3.9,3.1c0.4,0.3,0.8,0.4,1.2,0.4
		c0.6,0,1.2-0.3,1.6-0.8C80.4,67.4,80.3,66.1,79.4,65.4z"/>
	<path d="M38.7,57.9v-5.5c0-1.4-1.1-2.5-2.5-2.5H17.5c-1.4,0-2.5,1.1-2.5,2.5v5.5l-1.7,4.5c-0.3,0.8-0.5,1.7-0.5,2.6v21.9
		c0,1.4,1.1,2.5,2.5,2.5c0,0,0,0,0,0h23.2c1.4,0,2.5-1.1,2.5-2.5c0,0,0,0,0,0V65c0-1-0.2-1.9-0.6-2.8L38.7,57.9z M35,83.2
		C35,83.2,35,83.2,35,83.2H18.9c-1.4,0-2.5-1.1-2.5-2.5V68.5c0-1.4,1.1-2.5,2.5-2.5H35c1.4,0,2.5,1.1,2.5,2.5l0,12.2
		C37.5,82.1,36.4,83.2,35,83.2z"/>
	<polygon points="29.8,67.2 24.4,67.2 24.4,71.9 19.8,71.9 19.8,77.3 24.4,77.3 24.4,81.9 29.8,81.9 29.8,77.3 34.4,77.4 34.4,72 
		29.8,71.9 	"/>
</g>
</svg>
