<?xml version="1.0" encoding="utf-8"?>
<!-- Generator: Adobe Illustrator 24.0.0, SVG Export Plug-In . SVG Version: 6.00 Build 0)  -->
<svg version="1.1" id="Layer_1" xmlns="http://www.w3.org/2000/svg" xmlns:xlink="http://www.w3.org/1999/xlink" x="0px" y="0px"
	 viewBox="0 0 100 100" style="enable-background:new 0 0 100 100;" xml:space="preserve">
<g>
	<path d="M95.5,47.9l-3.7-2.7c-0.3-0.2-7.3-5.2-15.5-6.6C71,37.7,66.3,37.9,62.6,38c-1.8,0.1-3.4,0.1-4.6,0c-0.5,0-1.5-0.3-2.7-0.5
		c-3.9-0.9-10.9-2.4-17.8-1c1-1.3,1.1-3,0.3-4.5L25.1,10.2c-0.4-0.6-0.9-1.1-1.5-1.5c-1.9-1.1-4.4-0.4-5.5,1.5L5.5,32
		c-0.4,0.6-0.5,1.3-0.5,2c0,2.2,1.8,4,4,4c0,0,0,0,0,0h23.4c-3.3,1.5-6.4,3.9-8.9,7.6c-8.2,12.2-4.1,32.5-1.1,40.5c0,0,0,0.1,0,0.1
		c0.1,0.3,0.3,0.7,0.4,1c0,0.1,0.1,0.1,0.1,0.2c0.1,0.1,0.1,0.2,0.2,0.4c0,0.1,0.1,0.1,0.1,0.2c0,0,0,0.1,0,0.1
		c0,0.1,0.1,0.1,0.1,0.2c0.3,0.5,0.5,1.1,0.9,1.5c0,0.1,0.1,0.1,0.1,0.2c0,0.1,0.1,0.1,0.1,0.2c0.6,0.7,1.2,1,1.8,1.1c0,0,0,0,0,0
		c0,0,0,0,0,0c0.2,0,0.3,0,0.4,0c0.2,0,0.4,0,0.5,0c0.1,0,0.2,0,0.3-0.1c0.1,0,0.2,0,0.2-0.1c0.1,0,0.2-0.1,0.4-0.1
		c0,0,0.1,0,0.1-0.1c0.1-0.1,0.2-0.1,0.4-0.2c0,0,0.1,0,0.1-0.1c0.1-0.1,0.2-0.2,0.4-0.2c0,0,0.1,0,0.1-0.1c0.1-0.1,0.2-0.2,0.3-0.3
		c0,0,0.1-0.1,0.1-0.1c0.1-0.1,0.2-0.2,0.3-0.2c0.1-0.1,0.1-0.1,0.2-0.2c0.1-0.1,0.1-0.1,0.2-0.2c0.1-0.1,0.2-0.2,0.3-0.3
		c0,0,0,0,0-0.1c1.2-1.3,2.4-3.1,3.6-4.9c1.4-2.1,2.8-4.3,4-5.2c1.6-1.3,3.3-1.9,5-2.5c1.3-0.5,2.8-1,4.2-1.8v12.4
		c0,3.1,2.5,5.6,5.6,5.6c0,0,0,0,0,0c1.5,0,2.9-0.6,4-1.6c1.1-1.1,1.6-2.5,1.7-4V66.5c1.2-0.1,2.4-0.3,3.5-0.8
		c0.5-0.2,1-0.4,1.5-0.6c3.3-1.5,5.7-3.9,8-6.2c1.7-1.6,3.4-3.3,5.5-4.7c2-1.3,4.4-2.4,6.7-3.2c3.8-1.4,7.2-2.1,7.2-2.1L95.5,47.9z
		 M9,35.1C9,35.1,9,35.1,9,35.1c-0.6,0-1.1-0.5-1.1-1c0-0.2,0-0.4,0.1-0.5l12.6-21.9l0,0c0.3-0.5,0.9-0.7,1.4-0.4
		c0.2,0.1,0.3,0.2,0.4,0.4l12.6,21.9c0.3,0.5,0.1,1.2-0.4,1.4c-0.2,0.1-0.3,0.1-0.5,0.1H9z M32.2,62.8c0.3-0.7,0.9-1.4,2.8-1.2
		c0.2,0,0.4,0.1,0.5,0.1l0,0c1.3,0.5,2.9,2,4.6,3.7l0.8,0.8c1,1,2.1,1.9,3.2,2.7c-3.1-0.5-7.3-1.3-10.1-2.5l-0.1,0
		c-0.7-0.3-1.4-0.8-1.7-1.5l0,0l0,0C32,64.3,32,63.5,32.2,62.8z M62.7,42c3.6-0.1,8.1-0.3,13,0.5c3,0.5,5.8,1.6,8.2,2.7
		c-4.9,0.3-11.6,0.7-17.2,0.9l-0.1,0c-0.9,0.1-1.8,0.3-2.6,0.7l-0.1,0.1c-2.1,1.2-3.6,2.5-4.9,3.7c-2,1.8-3.7,3.3-7.2,4.3
		C51.6,55,51.4,55,51.2,55c0-0.1-0.1-0.1-0.1-0.2c2-3,6.2-10.1,7.8-12.8C60,42.1,61.3,42.1,62.7,42z M26.8,48c4.3-6.3,10.6-8,16.5-8
		c4.3,0,8.3,0.9,11.1,1.5c0.1,0,0.2,0,0.2,0.1c-2,3.3-5.4,9.1-7,11.4c-0.5,0.7-0.6,1.5-0.4,2.6c-0.4,0-0.8,0-1.3,0
		c-2.7,0-5.4-0.1-8.1,1.3c-0.6,0.3-1.3,0.7-1.9,1.1c-0.1,0-0.3-0.1-0.4-0.1c-4.4-0.5-6.2,1.9-6.9,3.5c-0.6,1.4-0.7,3-0.2,4.5
		c-2.1,3.4-3.6,7.1-4.6,10.5C22.2,67.3,21.8,55.4,26.8,48z M54.6,87.1c0,0.4-0.2,0.8-0.5,1.1c-0.3,0.3-0.7,0.5-1.2,0.5c0,0,0,0,0,0
		c-0.9,0-1.6-0.7-1.6-1.6V71.2c0.9-1,1.7-2.1,2.5-3.2c0,0,0,0,0,0c0.1-0.1,0.1-0.2,0.2-0.2h0.6V87.1z"/>
	<path d="M21.5,29.4C21.5,29.4,21.5,29.4,21.5,29.4c-1,0-1.8,0.8-1.8,1.8v0.3c0.1,0.9,0.8,1.6,1.7,1.7c1,0.1,1.9-0.7,1.9-1.7v-0.3
		c0,0,0,0,0-0.1C23.3,30.1,22.5,29.4,21.5,29.4z"/>
	<path d="M22.4,15.1h-1.8c-0.1,0-0.1,0-0.2,0c-0.5,0.1-0.8,0.6-0.7,1.1l0.9,10.4c0,0,0,0,0,0c0,0.5,0.4,0.9,0.9,0.9h0
		c0.5,0,0.9-0.4,0.9-0.9l0.9-10.4c0,0,0,0,0,0C23.4,15.6,23,15.1,22.4,15.1z"/>
</g>
</svg>
