<svg id="Layer_1" data-name="Layer 1" xmlns="http://www.w3.org/2000/svg" viewBox="0 0 100 100"><defs><style>.cls-1{fill:none;stroke:#000;stroke-miterlimit:10;stroke-width:4px;}</style></defs><circle class="cls-1" cx="24.93" cy="24.95" r="13.77"/><path d="M16.77,13.87a13.7,13.7,0,0,0-2.92,2.92L33.1,36A14.18,14.18,0,0,0,36,33.12Z"/><path d="M58.09,48.65l-.92-19.41A20.05,20.05,0,0,0,53.1,68.05c4.44,1.56,11.12,1.68,13.19,0,.31-.25,2.56-7.75,2.56-7.75Z"/><path d="M66.08,45s.6-13.75.65-13.78,5.86-7.13,6-7.13a15.12,15.12,0,0,1,5.77,1.51,20.1,20.1,0,0,1,10,26.56,19.32,19.32,0,0,1-6.64,8C81.38,60.57,66.08,45,66.08,45Z"/><rect x="76.36" y="69.19" width="4.29" height="4.29" transform="translate(73.43 -34.62) rotate(45)"/><rect x="75.36" y="87.31" width="2.97" height="2.97" transform="translate(85.3 -28.33) rotate(45)"/><rect x="64.83" y="73.47" width="6.43" height="6.43" transform="translate(74.16 -25.65) rotate(45)"/></svg>