<svg id="Layer_1" data-name="Layer 1" xmlns="http://www.w3.org/2000/svg" viewBox="0 0 100 100"><defs><style>.cls-1{fill:none;stroke:#000;stroke-miterlimit:10;stroke-width:4px;}</style></defs><rect class="cls-1" x="29.58" y="23.72" width="40.84" height="52.15" rx="6"/><path d="M33.38,31.76a2.08,2.08,0,0,1,2.09-2.09h6.61a7.59,7.59,0,0,1,5.54,1.93A6,6,0,0,1,49.25,36v0a5.81,5.81,0,0,1-3.81,5.79l2.91,3.53a2.43,2.43,0,0,1,.68,1.6,2,2,0,0,1-2,1.93A2.51,2.51,0,0,1,45,47.76L40.91,42.6H37.57v4.16a2.1,2.1,0,0,1-4.19,0Zm8.42,7.15c2,0,3.21-1.09,3.21-2.69v-.06c0-1.79-1.25-2.71-3.29-2.71H37.57v5.46Z"/><path d="M52.41,45.7l3.72-4.4-3.39-3.91a2.37,2.37,0,0,1-.68-1.58,1.84,1.84,0,0,1,1.9-1.9A2.37,2.37,0,0,1,55.89,35l2.69,3.59L61.32,35a2.38,2.38,0,0,1,1.79-1.06A1.82,1.82,0,0,1,65,35.7a2.15,2.15,0,0,1-.57,1.41l-3.53,4.14,3.64,4.18A2.38,2.38,0,0,1,65.26,47a1.84,1.84,0,0,1-1.9,1.9,2.35,2.35,0,0,1-1.93-1.06L58.5,44l-2.94,3.86a2.41,2.41,0,0,1-1.79,1.06,1.83,1.83,0,0,1-1.93-1.8A2.08,2.08,0,0,1,52.41,45.7Z"/></svg>