<svg id="Layer_1" data-name="Layer 1" xmlns="http://www.w3.org/2000/svg" viewBox="0 0 100 100"><defs><style>.cls-1,.cls-3,.cls-4{fill:none;}.cls-1,.cls-2,.cls-3,.cls-4{stroke:#000;stroke-width:4px;}.cls-1,.cls-2,.cls-3{stroke-linecap:round;}.cls-1,.cls-2,.cls-4{stroke-miterlimit:10;}.cls-3{stroke-linejoin:round;}</style></defs><g id="_3" data-name="3"><ellipse class="cls-1" cx="48.88" cy="38.13" rx="11.25" ry="18.48" transform="translate(10.24 86.62) rotate(-89.41)"/><path class="cls-2" d="M54.22,36.48a5.87,5.87,0,0,1-5.84,5.14,6.12,6.12,0,0,1-6-5.15"/><path class="cls-3" d="M67.13,36.48c-1.41-5.43-9.17-9.6-18.45-9.6s-16.89,4.17-18.11,9.6Z"/><line class="cls-1" x1="48.08" y1="14.11" x2="48.2" y2="20.57"/><line class="cls-1" x1="57.67" y1="15.73" x2="55.67" y2="21.84"/><line class="cls-1" x1="66.34" y1="19.28" x2="62.45" y2="24.37"/><line class="cls-1" x1="30.4" y1="20.05" x2="34.46" y2="25.14"/><line class="cls-1" x1="38.93" y1="15.73" x2="41.14" y2="21.84"/></g><path class="cls-4" d="M49.5,85.86c18.44.45,31.25-17.75,31.25-17.75s-15.57-8.39-22.16-8.39-5.87,4.5-9.47,4.5h0c-3.59,0-3.07-4.5-9.66-4.5s-21.87,8.39-21.87,8.39,13.49,18.2,31.92,17.75Z"/><path class="cls-4" d="M80.75,68.11A123.2,123.2,0,0,1,64.58,71c-8,.8-15.32,1-15.32,1s-7.4-.16-15.4-1a125.41,125.41,0,0,1-16.27-2.91"/><line class="cls-1" x1="35.7" y1="70.05" x2="41.94" y2="67.22"/><line class="cls-1" x1="56.53" y1="66.67" x2="64.58" y2="71.02"/><line class="cls-1" x1="42.03" y1="84.42" x2="37.5" y2="77.02"/><line class="cls-1" x1="58.63" y1="84.55" x2="62.81" y2="76.59"/></svg>