<?xml version="1.0" encoding="utf-8"?>
<!-- Generator: Adobe Illustrator 24.0.0, SVG Export Plug-In . SVG Version: 6.00 Build 0)  -->
<svg version="1.1" id="Layer_1" xmlns="http://www.w3.org/2000/svg" xmlns:xlink="http://www.w3.org/1999/xlink" x="0px" y="0px"
	 viewBox="0 0 100 100" style="enable-background:new 0 0 100 100;" xml:space="preserve">
<g>
	<path d="M40.1,25.3c0-8.7-7.1-15.8-15.8-15.8S8.6,16.6,8.6,25.3S15.7,41,24.4,41S40.1,34,40.1,25.3z M36.1,25.3
		c0,2.5-0.8,4.8-2.1,6.7L17.7,15.6c1.9-1.3,4.2-2.1,6.7-2.1C30.9,13.5,36.1,18.8,36.1,25.3z M12.6,25.3c0-2.5,0.8-4.8,2.1-6.7
		l16.4,16.4c-1.9,1.3-4.2,2.1-6.7,2.1C17.9,37,12.6,31.8,12.6,25.3z"/>
	<path d="M89.3,77.2c0.5-2.3,3.8-18.5-1.1-24.1c-4.6-5.2-16.1-6-19.1-6.1c-0.2-1.1-0.3-3.7,1.6-5.7c2.8-3,5.7-6.9,4-15.4
		c-0.5-2.7-1.6-5-3.1-6.8c1.3-1,2.1-2.5,2.1-4.3c0-3-2.4-5.4-5.4-5.4c-2.8,0-5.2,2.2-5.4,5c-1.4-0.2-2.9-0.2-4.5,0
		c-6.3,0.7-11.3,5.6-12.1,11.9c-0.2,3.5,2.2,7.4,2.8,8.3c0.3,1.2,2,7.9,4,10.5c1.2,1.5,2.6,2.8,4.1,3.9c-1.2,0.6-3.5,1.3-7.2,1.5
		c-7.7,0.3-7.7,5.6-7.7,8.2c0.1,1.1,0.2,2.3,0.3,3.4c0,0-0.1,0-0.1,0c-0.3-0.2-0.5-0.6-0.8-1.3C41.4,59.9,41,59,40.3,58
		c-1.8-2.5-5.6-3.6-9.1-2.8c-3.4,0.8-5.7,3.2-6.3,6.7c-1,6.1,1.7,10,4.6,12.4c-0.1,0.2,0,0.5,0.1,0.7l0.2,0.2
		c3.2,4.5,5.1,7.2,5.9,7.7c0.4,0.2,1.1,0.5,2,0.8c2.3,0.9,5.8,2.2,8.5,4.2c3.2,2.4,26.1,9.3,34.9,9.3c0.8,0,1.4,0,1.9-0.2
		c0.9-0.2,1.5-0.5,1.7-1c2-3.3,3.9-15.2,4.4-18.7l0.1,0C89.3,77.5,89.3,77.4,89.3,77.2L89.3,77.2L89.3,77.2z M35.6,76.2l0.1,0.2
		c0,0-0.1,0-0.1-0.1L35.6,76.2z M75.8,83.2L75.5,85l-22.7-1.4c-0.3-0.1-2-0.8-2.3-1.9c-0.5-1.9-1.1-3.7-1.8-5.6
		c-0.5-1-1.1-1.9-1.7-2.8c2.1,0.3,5.3,0.7,9.6,1C67.9,75.3,73.8,80.9,75.8,83.2z M43.2,75.5c0.2,1.4,0.5,3.1,0.7,4
		c-1.3-0.2-2.5-0.5-3.7-0.9c-1-0.5-2-1-3-1.5l6-2.8C43.2,74.7,43.2,75.1,43.2,75.5z M26.8,62.2c0.6-3.6,3.3-4.7,4.8-5.1
		c2.7-0.6,5.8,0.2,7.1,2c0.6,0.8,0.9,1.6,1.2,2.2c0.3,0.8,0.7,1.5,1.4,2.1c0.5,0.3,1,0.6,1.6,0.6c0.5,3.6,1.2,7.5,1.2,7.5l0,0l0,0
		l-8.3,3.9l0-0.2C35.4,75.4,25.1,72.4,26.8,62.2z"/>
</g>
</svg>
