<svg id="Layer_1" data-name="Layer 1" xmlns="http://www.w3.org/2000/svg" viewBox="0 0 100 100"><defs><style>.cls-1,.cls-2{stroke:#000;stroke-miterlimit:10;stroke-width:4px;}.cls-2{fill:none;}</style></defs><path class="cls-1" d="M21.43,66.72a5.9,5.9,0,0,0,11.8,0V59.16H21.43Z"/><path class="cls-1" d="M27.58,45h-.51a5.71,5.71,0,0,0-5.64,5.77v.13a5.9,5.9,0,0,1,11.8,0v-.13A5.71,5.71,0,0,0,27.58,45Z"/><rect class="cls-2" x="11.77" y="24.22" width="42.92" height="54.81" rx="6.31"/><path d="M15.76,31.44a1,1,0,0,1,1-1H19.8a3.56,3.56,0,0,1,2.57.89,2.8,2.8,0,0,1,.75,2v0a2.69,2.69,0,0,1-1.76,2.68l1.35,1.64a1.12,1.12,0,0,1,.31.74.9.9,0,0,1-.92.9,1.18,1.18,0,0,1-1-.51l-1.89-2.39H17.7V38.4a1,1,0,1,1-1.94,0Zm3.91,3.32c.94,0,1.49-.51,1.49-1.25v0c0-.83-.58-1.26-1.53-1.26H17.7v2.54Z"/><path d="M24.59,37.91l1.73-2-1.58-1.81a1.11,1.11,0,0,1-.31-.73.85.85,0,0,1,.88-.88,1.07,1.07,0,0,1,.89.49l1.25,1.66,1.27-1.66a1.11,1.11,0,0,1,.84-.49.84.84,0,0,1,.89.83,1,1,0,0,1-.26.65l-1.64,1.92,1.69,1.94a1.11,1.11,0,0,1,.31.73.85.85,0,0,1-.88.88,1.1,1.1,0,0,1-.9-.49l-1.36-1.79L26.05,38.9a1.1,1.1,0,0,1-.83.49.84.84,0,0,1-.89-.83A1,1,0,0,1,24.59,37.91Z"/><path d="M37.74,60l1.73-2L37.9,56.16a1.1,1.1,0,0,1-.32-.73.85.85,0,0,1,.88-.89,1.11,1.11,0,0,1,.9.49l1.25,1.67L41.88,55a1.13,1.13,0,0,1,.83-.49.86.86,0,0,1,.9.84,1,1,0,0,1-.27.65L41.7,58l1.69,1.94a1.08,1.08,0,0,1,.32.73.86.86,0,0,1-.89.88,1.11,1.11,0,0,1-.89-.49l-1.36-1.79L39.21,61a1.1,1.1,0,0,1-.84.49.84.84,0,0,1-.89-.83A1,1,0,0,1,37.74,60Z"/><path d="M46.46,54.42l-.68.17a1.33,1.33,0,0,1-.34,0,.84.84,0,0,1-.2-1.66l1.24-.37a3.56,3.56,0,0,1,.91-.16h0a1,1,0,0,1,.95,1v7.11a1,1,0,1,1-1.91,0Z"/><path class="cls-1" d="M62.14,66.72a5.9,5.9,0,0,0,11.8,0V59.16H62.14Z"/><path class="cls-1" d="M68.29,45h-.51a5.7,5.7,0,0,0-5.64,5.77v.13a5.9,5.9,0,1,1,11.8,0v-.13A5.71,5.71,0,0,0,68.29,45Z"/><path d="M78.45,60l1.73-2L78.6,56.16a1.13,1.13,0,0,1-.31-.73.85.85,0,0,1,.88-.89,1.12,1.12,0,0,1,.9.49l1.24,1.67L82.59,55a1.11,1.11,0,0,1,.83-.49.85.85,0,0,1,.89.84,1,1,0,0,1-.26.65L82.41,58l1.69,1.94a1.11,1.11,0,0,1,.31.73.85.85,0,0,1-.88.88,1.09,1.09,0,0,1-.89-.49l-1.36-1.79L79.92,61a1.11,1.11,0,0,1-.84.49.84.84,0,0,1-.89-.83A1,1,0,0,1,78.45,60Z"/><path d="M87.17,54.42l-.68.17a1.33,1.33,0,0,1-.34,0A.84.84,0,0,1,85.94,53l1.25-.37a3.49,3.49,0,0,1,.91-.16h0a1,1,0,0,1,1,1v7.11a1,1,0,1,1-1.91,0Z"/><line class="cls-1" x1="21.43" y1="59.16" x2="21.43" y2="50.73"/><line class="cls-1" x1="33.23" y1="59.16" x2="33.23" y2="50.73"/><line class="cls-1" x1="62.14" y1="59.16" x2="62.14" y2="50.73"/><line class="cls-1" x1="73.94" y1="59.16" x2="73.94" y2="50.86"/></svg>