<svg id="Layer_1" data-name="Layer 1" xmlns="http://www.w3.org/2000/svg" viewBox="0 0 100 100"><defs><style>.cls-1,.cls-2{fill:none;stroke:#000;stroke-width:4px;}.cls-1{stroke-linecap:round;stroke-miterlimit:10;}.cls-2{stroke-linejoin:round;}</style></defs><path class="cls-1" d="M40.31,57.43S23.4,61.58,18.63,64.61,13,75.45,13,75.45L10.76,88.1"/><path class="cls-1" d="M59.81,57.43s16.92,4.15,21.68,7.18,5.64,10.84,5.64,10.84l2,12.19"/><path class="cls-2" d="M70.71,31.94c0-13.32-9.41-24.11-21-24.11s-21,10.79-21,24.11c0,9.16,4.45,17.73,11,22.19v0c0,5.58,4.53,13.11,10.11,13.11s10.1-7.53,10.1-13.11V54C66.35,49.49,70.71,41,70.71,31.94Z"/><path d="M64.3,14.62h0l-.46-.48-.21-.23q-.42-.44-.87-.84l-.18-.15c-.24-.22-.49-.43-.74-.64l-.11-.09h0a18.76,18.76,0,0,0-23.4-.5c-.39.28-.77.59-1.14.9l-.47.41c-.33.31-.66.62-1,.95l-.24.23h0a25.76,25.76,0,0,0-6.82,17.77c0,.65,0,1.29.07,1.93,3.94-.46,8.05-4.18,10.11-9.62a18.37,18.37,0,0,0,1.21-6.61,22.94,22.94,0,0,0,10,2.17,22.66,22.66,0,0,0,10.44-2.39,18.24,18.24,0,0,0,1.21,6.83c1.85,4.89,5.36,8.39,8.91,9.38,0-.56,0-1.12,0-1.69A25.84,25.84,0,0,0,64.3,14.62Z"/><circle cx="42.51" cy="22.04" r="1.51"/><circle cx="43.26" cy="27.38" r="1.51"/><circle cx="39.34" cy="31.45" r="1.51"/><circle cx="57.34" cy="21.53" r="1.57"/><circle cx="58.33" cy="29.01" r="1.57"/><path class="cls-2" d="M39.44,54.05s0,0,0,0c7.17,4.47,13.2,4.47,20.52,0"/></svg>