<?xml version="1.0" encoding="utf-8"?>
<!-- Generator: Adobe Illustrator 24.0.0, SVG Export Plug-In . SVG Version: 6.00 Build 0)  -->
<svg version="1.1" id="Layer_1" xmlns="http://www.w3.org/2000/svg" xmlns:xlink="http://www.w3.org/1999/xlink" x="0px" y="0px"
	 viewBox="0 0 100 100" style="enable-background:new 0 0 100 100;" xml:space="preserve">
<g>
	<path d="M68.6,31.7c0-4.5-4.9-13.2-9-19.7c-0.3-0.5-0.7-0.8-1.1-1.1c-1.8-1.2-4.3-0.7-5.6,1.2c-4.1,6.5-9,15.2-9,19.7v0
		c0,0.9,0.1,1.7,0.3,2.5l0,0l0.2,0.6c0,0,0,0.1,0,0.1c0.3,1.2,0.8,2.3,1.4,3.3l0,0.1l0,0c2.2,3.5,6.1,5.8,10.5,5.8c0,0,0,0,0,0
		C63,44.1,68.6,38.6,68.6,31.7z M63.1,36.5C63.1,36.5,63.1,36.5,63.1,36.5c0-2.2-1.8-4-4-4s-4,1.8-4,4c0,1.5,0.9,2.9,2.2,3.5
		c-0.3,0-0.7,0.1-1,0.1c0,0,0,0,0,0c-2.1,0-4.1-0.8-5.5-2.1c0.8-0.7,1.4-1.8,1.4-3c0-2.2-1.7-4-3.9-4.1c-0.1,0-0.2,0-0.3,0
		c0.1-0.7,0.4-1.6,0.8-2.7c0.6,0.4,1.4,0.6,2.2,0.6c2.2,0,4-1.8,4-4c0-1.8-1.2-3.2-2.7-3.8c1.2-2.1,2.5-4.4,4.1-6.9
		c1.5,2.4,2.9,4.7,4,6.8c-1.8,0.4-3.1,2-3.1,3.9c0,2.2,1.8,4,4,4c1,0,1.8-0.4,2.5-0.9c0.6,1.6,1,2.9,1,3.8
		C64.6,33.5,64,35.2,63.1,36.5z"/>
	<path d="M32.9,43.3c-1.8-1.2-4.3-0.7-5.6,1.2c-3,4.6-7.7,12.5-8.8,17.7h-0.3l0,2c0,6.8,5.6,12.4,12.4,12.4c0,0,0,0,0,0
		c3.3,0,6.4-1.3,8.8-3.6c2.3-2.3,3.6-5.5,3.6-8.8c0-4.5-4.9-13.2-9-19.7C33.7,44,33.3,43.6,32.9,43.3z M37.5,68.9c0-2.2-1.8-4-4-4
		c-2.2,0-4,1.8-4,4c0,1.5,0.9,2.9,2.2,3.5c-0.3,0-0.7,0.1-1.1,0.1c0,0,0,0,0,0c-2.1,0-4-0.8-5.5-2.1c0.9-0.7,1.4-1.8,1.4-3
		c0-2.2-1.7-4-3.9-4.1c-0.1,0-0.2,0-0.3,0c0.1-0.7,0.4-1.6,0.8-2.7c0.6,0.4,1.4,0.6,2.2,0.6c2.2,0,4-1.8,4-4c0-1.8-1.2-3.3-2.8-3.8
		c1.2-2.1,2.5-4.5,4.1-6.9c1.5,2.4,2.9,4.7,4,6.8c-1.8,0.4-3.1,2-3.1,3.9c0,2.2,1.8,4,4,4c1,0,1.8-0.3,2.5-0.9c0.6,1.6,1,2.9,1,3.7
		C39,65.9,38.5,67.6,37.5,68.9z"/>
	<path d="M72.8,58.3c-0.3-0.5-0.7-0.8-1.1-1.1c-1.8-1.2-4.3-0.7-5.6,1.2c-4.1,6.5-9,15.2-9,19.7v0c0,0.9,0.1,1.7,0.3,2.5l0,0
		l0.2,0.6c0,0,0,0.1,0,0.1c0.3,1.1,0.8,2.2,1.4,3.2l0.1,0.1l0,0c2.2,3.5,6.1,5.8,10.5,5.9c0,0,0,0,0,0c6.8,0,12.4-5.6,12.4-12.4
		C81.9,73.5,76.9,64.8,72.8,58.3z M76.3,82.7C76.3,82.7,76.3,82.7,76.3,82.7c0-2.2-1.8-4-4-4s-4,1.8-4,4c0,1.5,0.9,2.9,2.2,3.5
		c-0.3,0-0.7,0.1-1,0.1c0,0,0,0,0,0c-2.1,0-4.1-0.8-5.5-2.1c0.1-0.1,0.2-0.1,0.2-0.2c0.7-0.8,1.2-1.7,1.2-2.8c0-2.2-1.7-4-3.9-4.1
		c-0.1,0-0.2,0-0.3,0c0.1-0.7,0.4-1.6,0.8-2.7c0.6,0.4,1.4,0.6,2.2,0.6c2.2,0,4-1.8,4-4c0-1.8-1.2-3.2-2.7-3.8
		c1.2-2.1,2.5-4.4,4.1-6.9c1.5,2.4,2.9,4.7,4,6.8c-1.8,0.4-3.1,2-3.1,3.9c0,2.2,1.8,4,4,4c1,0,1.8-0.4,2.5-0.9c0.6,1.6,1,2.9,1,3.8
		C77.9,79.7,77.3,81.4,76.3,82.7z"/>
</g>
</svg>
