<svg id="Layer_1" data-name="Layer 1" xmlns="http://www.w3.org/2000/svg" viewBox="0 0 100 100"><defs><style>.cls-1,.cls-2{fill:none;stroke:#000;stroke-miterlimit:10;}.cls-1{stroke-linecap:round;stroke-width:4px;}.cls-2{stroke-width:2px;}</style></defs><circle cx="27.78" cy="61.9" r="11.72"/><path d="M14.88,90.45s1.22-8.68,3.93-11.26,6.64-3.81,7.32-5.57S39.5,59.94,39.5,59.94L47,46.13a3.76,3.76,0,0,1,5-1.56h0a3.77,3.77,0,0,1,1.8,4.72L44.32,73.42A8.28,8.28,0,0,0,43.89,75L41.18,90.45Z"/><line class="cls-1" x1="14.88" y1="31.24" x2="85.86" y2="31.24"/><path d="M57.7,16.84l-.87-2.09h0V12.12A1.22,1.22,0,0,0,55.6,10.9H46.7a1.22,1.22,0,0,0-1.22,1.22v2.64l-.81,2.13a3.54,3.54,0,0,0-.23,1.24V28.6a1.2,1.2,0,0,0,1.2,1.2H56.77A1.2,1.2,0,0,0,58,28.6V18.19A3.5,3.5,0,0,0,57.7,16.84Zm-1.44,8.87a1.2,1.2,0,0,1-1.2,1.2H47.35a1.2,1.2,0,0,1-1.2-1.2V19.87a1.2,1.2,0,0,1,1.2-1.2h7.71a1.2,1.2,0,0,1,1.2,1.2Z"/><line class="cls-2" x1="48.48" y1="22.75" x2="53.9" y2="22.75"/><line class="cls-2" x1="51.19" y1="25.46" x2="51.19" y2="20.04"/></svg>