<svg id="Layer_1" data-name="Layer 1" xmlns="http://www.w3.org/2000/svg" viewBox="0 0 100 100"><defs><style>.cls-1,.cls-2{fill:none;stroke:#000;stroke-miterlimit:10;stroke-width:4px;}.cls-2{stroke-linecap:round;}</style></defs><circle class="cls-1" cx="23.87" cy="24.29" r="13.81"/><path d="M15.68,13.17a14,14,0,0,0-2.92,2.93l19.3,19.3A14,14,0,0,0,35,32.47Z"/><path class="cls-1" d="M16.08,61.91H89.93a0,0,0,0,1,0,0V76.83a0,0,0,0,1,0,0H16.08a6,6,0,0,1-6-6V67.93a6,6,0,0,1,6-6Z"/><path d="M16.08,61.91a6,6,0,0,0-6,6v2.89a6,6,0,0,0,6,6H39.57V61.91Z"/><line class="cls-1" x1="82.92" y1="61.91" x2="82.92" y2="76.83"/><line class="cls-1" x1="75.9" y1="61.91" x2="75.9" y2="76.83"/><path class="cls-2" d="M72,22H68.78a4.08,4.08,0,0,0-4.08,4.08h0a4.08,4.08,0,0,0,4.08,4.08h9.86a3.23,3.23,0,0,1,3.23,3.23h0a3.23,3.23,0,0,1-3.23,3.22H74.58a3.67,3.67,0,0,0-3.67,3.68h0A3.67,3.67,0,0,0,74.58,44h7.33a3,3,0,0,1,3,3v3"/></svg>