<svg id="Layer_1" data-name="Layer 1" xmlns="http://www.w3.org/2000/svg" viewBox="0 0 100 100"><defs><style>.cls-1,.cls-2{fill:none;stroke:#000;stroke-miterlimit:10;stroke-width:4px;}.cls-2{stroke-linecap:round;}</style></defs><circle class="cls-1" cx="28.12" cy="24.7" r="13.77"/><path d="M20,13.61A13.94,13.94,0,0,0,17,16.53L36.28,35.78a13.94,13.94,0,0,0,2.92-2.92Z"/><path class="cls-2" d="M75.37,52.05q-.56-.24-1.14-.45A18.09,18.09,0,0,0,68,50.51,18.35,18.35,0,0,0,50.54,63.22a5.83,5.83,0,0,0-.84-.07,5.7,5.7,0,0,0,0,11.4,5.83,5.83,0,0,0,.84-.07,18.34,18.34,0,0,0,34.91,0,4.9,4.9,0,0,0,.77.06,5.7,5.7,0,1,0,0-11.4,6.48,6.48,0,0,0-.77.06,18.06,18.06,0,0,0-2.93-5.56"/><path class="cls-2" d="M63.29,78a6.68,6.68,0,0,1,9.35,0"/><path class="cls-2" d="M74.67,46a5.55,5.55,0,1,1-3.17,8.58"/><line class="cls-2" x1="58.32" y1="66.98" x2="62.18" y2="63.89"/><line class="cls-2" x1="58.32" y1="66.98" x2="62.18" y2="63.89"/><line class="cls-2" x1="78.16" y1="66.98" x2="74.3" y2="63.89"/><path d="M40.51,62.23l-1.82-4.36h0v-5.5a2.55,2.55,0,0,0-2.55-2.55H17.55A2.55,2.55,0,0,0,15,52.37v5.5l-1.7,4.45a7.47,7.47,0,0,0-.47,2.6V86.77a2.5,2.5,0,0,0,2.5,2.51H38.58a2.5,2.5,0,0,0,2.5-2.51V65.05A7.18,7.18,0,0,0,40.51,62.23Zm-3,18.5A2.5,2.5,0,0,1,35,83.24H18.9a2.51,2.51,0,0,1-2.51-2.51V68.55a2.51,2.51,0,0,1,2.51-2.5H35a2.5,2.5,0,0,1,2.5,2.5Z"/><rect x="19.8" y="71.94" width="14.63" height="5.4" transform="matrix(0, -1, 1, 0, -47.56, 101.68)"/><rect x="24.42" y="67.33" width="5.4" height="14.63" transform="translate(-47.56 101.66) rotate(-89.92)"/></svg>