<svg id="Layer_1" data-name="Layer 1" xmlns="http://www.w3.org/2000/svg" viewBox="0 0 100 100"><defs><style>.cls-1{fill:none;stroke-width:4px;}.cls-1,.cls-2{stroke:#000;stroke-miterlimit:10;}</style></defs><rect class="cls-1" x="29.08" y="23.13" width="41.94" height="4.53" rx="2.05"/><path class="cls-1" d="M27.63,72.22a4.54,4.54,0,0,0,4.54,4.54h0a4.53,4.53,0,0,0,4.53-4.54V65.14H27.63Z"/><path class="cls-1" d="M63.27,72.22a4.54,4.54,0,0,0,9.08,0V65.14H63.27Z"/><path class="cls-1" d="M84.18,60.21H15.82a1.94,1.94,0,0,0-1.93,1.93v1.07a1.94,1.94,0,0,0,1.93,1.93H84.18a1.94,1.94,0,0,0,1.93-1.93V62.14A1.94,1.94,0,0,0,84.18,60.21Z"/><line class="cls-1" x1="31.13" y1="26.93" x2="25.96" y2="47.32"/><line class="cls-1" x1="68.97" y1="26.93" x2="74.15" y2="47.32"/><circle class="cls-1" cx="61.17" cy="44.49" r="6.22"/><path class="cls-2" d="M80.21,50.82a6.67,6.67,0,0,0-6.46-4.32H26.37a6.69,6.69,0,0,0-6.47,4.32l-3.08,9.39H83.29Zm-50,6.56a3.62,3.62,0,1,1,3.61-3.61A3.62,3.62,0,0,1,30.17,57.38Zm39.64,0a3.62,3.62,0,1,1,3.62-3.61A3.61,3.61,0,0,1,69.81,57.38Z"/></svg>