<?xml version="1.0" encoding="utf-8"?>
<!-- Generator: Adobe Illustrator 24.0.0, SVG Export Plug-In . SVG Version: 6.00 Build 0)  -->
<svg version="1.1" id="Layer_1" xmlns="http://www.w3.org/2000/svg" xmlns:xlink="http://www.w3.org/1999/xlink" x="0px" y="0px"
	 viewBox="0 0 100 100" style="enable-background:new 0 0 100 100;" xml:space="preserve">
<g>
	<path d="M70.4,76.7c-3.6-1.9-7.1-3.9-10.7-5.8c-2-1.1-2.8-0.9-4.3,0.9c-1.1,1.4-2.1,2.9-3.2,4.3c-1.5,2-2.3,2.1-4.4,0.8
		c-5.6-3.3-10.8-7.4-15.4-12c-1.6-1.7-3-3.7-4.1-5.8c-1.3-2.3-1.1-3,0.9-4.8c1.4-1.4,2.9-2.5,4.3-4c1.4-1.4,1.4-2.2,0.3-3.9
		c-1.3-2-2.6-3.9-3.8-5.9h8.4c0.7,0,1.4-0.2,2-0.5c0.9-0.5,1.6-1.4,1.9-2.4c0.3-1,0.2-2.1-0.4-3.1L29.1,12.6
		c-0.4-0.6-0.9-1.1-1.5-1.5c-1.9-1.1-4.4-0.5-5.5,1.5L9.5,34.4c-0.3,0.6-0.5,1.3-0.5,2c0,2.2,1.8,4.1,4.1,4.1h3.4
		c-1.2,1.6-2,3.5-2.4,5.5c-0.8,3.8,0.5,7.5,1.9,11C21.7,72,33,81.6,47.2,88.2c3.4,1.6,7.2,2.4,11,2.5c0.9-0.1,1.8-0.3,2.6-0.5
		c5.5-1.5,9.3-4.9,10.8-10.6c0,0,0,0,0,0C72.1,78.4,71.5,77.2,70.4,76.7z M11.9,36.4c0-0.2,0-0.4,0.1-0.5l12.6-21.8
		c0.3-0.5,0.9-0.7,1.4-0.4c0.2,0.1,0.3,0.2,0.4,0.4l12.6,21.8c0.1,0.2,0.2,0.5,0.1,0.8s-0.3,0.5-0.5,0.6c-0.2,0.1-0.3,0.1-0.5,0.1
		H13C12.4,37.5,11.9,37,11.9,36.4z"/>
	<path d="M75.8,10.8c-9.4,0-17,7.6-17,17s7.6,17,17,17c9.4,0,17-7.6,17-17S85.1,10.8,75.8,10.8z M75.8,40.7c-7.2,0-13-5.8-13-13
		s5.8-13,13-13s13,5.8,13,13S82.9,40.7,75.8,40.7z"/>
	<path d="M83.5,25.3h-5.5v-5.5c0-1.1-0.9-2-2-2s-2,0.9-2,2v5.5h-5.5c-1.1,0-2,0.9-2,2s0.9,2,2,2h5.5v5.5c0,1.1,0.9,2,2,2s2-0.9,2-2
		v-5.5h5.5c1.1,0,2-0.9,2-2S84.6,25.3,83.5,25.3z"/>
	<path d="M45.8,51.4c3.3,0,6,2.7,6,6c0,1.1,0.9,2,2,2s2-0.9,2-2c0-5.5-4.5-10-10-10c-1.1,0-2,0.9-2,2S44.7,51.4,45.8,51.4z"/>
	<path d="M46.3,43.4c7.1,0,12.8,5.7,12.8,12.8c0,1.1,0.9,2,2,2h0c1.1,0,2-0.9,2-2c0-9.3-7.5-16.8-16.8-16.8c-1.1,0-2,0.9-2,2
		S45.2,43.4,46.3,43.4z"/>
	<path d="M25.5,31.8C25.5,31.8,25.5,31.8,25.5,31.8c-1,0-1.8,0.8-1.8,1.8v0.3c0,0,0,0,0,0c0,1,0.8,1.7,1.8,1.7c0,0,0.1,0,0.1,0
		c1,0,1.7-0.8,1.7-1.8v-0.3c0,0,0-0.1,0-0.1C27.3,32.5,26.5,31.8,25.5,31.8z"/>
	<path d="M26.5,17.5h-1.8c-0.1,0-0.1,0-0.2,0c-0.5,0.1-0.8,0.6-0.7,1.1L24.6,29c0,0.5,0.4,0.9,0.9,0.9h0c0.5,0,0.9-0.4,0.9-0.9
		l0.9-10.4c0-0.1,0-0.1,0-0.2C27.4,17.9,27,17.5,26.5,17.5z"/>
</g>
</svg>
