<svg id="Layer_1" data-name="Layer 1" xmlns="http://www.w3.org/2000/svg" viewBox="0 0 100 100"><defs><style>.cls-1,.cls-2{fill:none;stroke:#000;stroke-width:4px;}.cls-1{stroke-linejoin:round;}.cls-2{stroke-linecap:round;stroke-miterlimit:10;}</style></defs><line class="cls-1" x1="41.11" y1="65.95" x2="41.11" y2="81.57"/><circle class="cls-1" cx="41.11" cy="85.48" r="4.54"/><path class="cls-1" d="M67.42,88.62h1.41a1.37,1.37,0,0,0,1.37-1.36V84.63a7.11,7.11,0,0,0-3.67-6.21l-3.55-2v-9h0v9l-3.55,2a7.11,7.11,0,0,0-3.67,6.21v2.63a1.36,1.36,0,0,0,1.37,1.36h1.4"/><path class="cls-1" d="M73,39.3C73,26,63.59,15.18,52,15.18S31,26,31,39.3C31,48.46,35.42,57,42,61.49v0c0,5.58,4.52,13.1,10.1,13.1s10.11-7.52,10.11-13.1c0-.06,0-.11,0-.16C68.63,56.85,73,48.36,73,39.3Z"/><path class="cls-2" d="M42.6,64.78S25.68,68.94,20.92,72,15.28,82.8,15.28,82.8L13,95.46"/><path class="cls-2" d="M62.1,64.78S79,68.94,83.78,72,89.41,82.8,89.41,82.8l2,12.2"/><path d="M96,27.45a16.6,16.6,0,0,1,1.48,6.87c0,9.72-2.52,18.57-9.44,25.76-1.63,1.69-3.37,3.35-5.77,3.91-3.23.75-6-.36-8.48-2.34-1.06-.84-1-1.39-.34-2.53q2-3.16,4-6.32c.67-1.06,1.1-1.25,2.29-.84s2.23.94,3.35,1.38c1.53.6,2,.56,3-.77a17.8,17.8,0,0,0,2.18-3.81A46,46,0,0,0,91,37c.17-1.55-.1-1.91-1.61-2.27-1.08-.27-2.18-.44-3.26-.73-1.41-.37-1.72-.8-1.62-2.22.16-2.52.37-5,.49-7.54a1.36,1.36,0,0,1,1.27-1.45,8.83,8.83,0,0,1,8.79,3.35A13.71,13.71,0,0,1,96,27.45Z"/><path class="cls-1" d="M41.72,61.41v0c7.17,4.47,13.21,4.47,20.52,0"/></svg>