<?xml version="1.0" encoding="utf-8"?>
<!-- Generator: Adobe Illustrator 24.0.0, SVG Export Plug-In . SVG Version: 6.00 Build 0)  -->
<svg version="1.1" id="Layer_1" xmlns="http://www.w3.org/2000/svg" xmlns:xlink="http://www.w3.org/1999/xlink" x="0px" y="0px"
	 viewBox="0 0 100 100" style="enable-background:new 0 0 100 100;" xml:space="preserve">
<g>
	<path d="M35.6,43.7c-1.4-1.4-3.2-2.2-5.2-2.3l-0.3,0l0,1.3l0-1.3h0c0,0,0,0,0,0h-0.3c-2,0-3.8,0.8-5.2,2.2
		c-1.4,1.4-2.1,3.3-2.1,5.2h0v0v0.1V55v2v7.2c0,4.2,3.4,7.6,7.6,7.6s7.6-3.4,7.6-7.6V57v-2v-5.9c0,0,0,0,0-0.1V49h0
		C37.7,47,37,45.2,35.6,43.7z M26.5,55v-5.9c0-2,1.6-3.6,3.6-3.6v0c2,0,3.6,1.6,3.6,3.6V55H26.5z"/>
	<path d="M50.1,21.7H21.3c-4.4,0-8,3.6-8,8v40.1c0,4.4,3.6,8,8,8h28.8c4.4,0,8-3.6,8-8V29.7C58.1,25.3,54.6,21.7,50.1,21.7z
		 M54.1,69.9c0,2.2-1.8,4-4,4H21.3c-2.2,0-4-1.8-4-4V29.7c0-2.2,1.8-4,4-4h28.8c2.2,0,4,1.8,4,4V69.9z"/>
	<path d="M25.1,38.1C25.1,38.1,25.1,38.1,25.1,38.1c0.5,0,0.9-0.4,0.9-0.8c0-0.3-0.1-0.5-0.3-0.7L24.4,35c1.1-0.4,1.7-1.4,1.7-2.5
		c0-0.7-0.2-1.4-0.7-1.9c-0.7-0.6-1.6-0.9-2.5-0.8H20c0,0,0,0,0,0c-0.5,0-0.9,0.4-0.9,0.9l0.1,6.6c0,0.1,0,0.1,0,0.2
		c0.1,0.5,0.5,0.9,1,0.8c0.5-0.1,0.9-0.5,0.8-1v-1.8h1.4l1.8,2.2C24.4,37.9,24.8,38.1,25.1,38.1z M22.8,33.8l-1.8,0v-2.4h1.8
		c0.9,0,1.5,0.4,1.5,1.2C24.2,33.3,23.7,33.8,22.8,33.8z"/>
	<path d="M27.2,37.4C27.3,37.4,27.3,37.4,27.2,37.4c0,0.5,0.4,0.8,0.8,0.8c0.3,0,0.6-0.2,0.8-0.5l1.3-1.7l1.3,1.7
		c0.2,0.3,0.5,0.5,0.9,0.5c0,0,0,0,0.1,0c0.4,0,0.8-0.4,0.8-0.8c0-0.3-0.1-0.5-0.3-0.7l-1.6-1.9l1.6-1.8c0.2-0.2,0.2-0.4,0.2-0.6
		c0,0,0,0,0,0c0-0.4-0.4-0.8-0.8-0.8c-0.3,0-0.6,0.2-0.8,0.5l-1.2,1.6L29,32c-0.2-0.3-0.5-0.5-0.8-0.5c0,0,0,0-0.1,0
		c-0.4,0-0.8,0.4-0.8,0.8c0,0.3,0.1,0.5,0.3,0.7l1.5,1.7l-1.7,2C27.3,36.9,27.3,37.2,27.2,37.4z"/>
	<path d="M43.8,55.8l1.6-1.8c0.2-0.2,0.2-0.4,0.2-0.6c0,0,0,0,0,0c0-0.4-0.4-0.8-0.8-0.7c-0.3,0-0.6,0.2-0.8,0.5l-1.3,1.6l-1.2-1.6
		c-0.2-0.3-0.5-0.5-0.9-0.5c0,0,0,0-0.1,0c-0.4,0-0.8,0.4-0.8,0.8c0,0.3,0.1,0.5,0.3,0.7l1.5,1.7L40,57.8c-0.1,0.2-0.2,0.4-0.2,0.6
		c0,0,0,0,0,0c0,0.4,0.4,0.8,0.8,0.8c0.3,0,0.6-0.2,0.8-0.5l1.3-1.7l1.3,1.8c0.2,0.3,0.5,0.5,0.9,0.5c0,0,0,0,0.1,0
		c0.4,0,0.8-0.4,0.8-0.8c0-0.3-0.1-0.5-0.3-0.7L43.8,55.8z"/>
	<path d="M49.2,50.5c-0.3,0-0.6,0.1-0.9,0.2l-1.2,0.3c-0.4,0.1-0.6,0.4-0.6,0.8c0,0.4,0.4,0.8,0.8,0.8c0.1,0,0.2,0,0.3,0l0.7-0.2
		l0,5.8c0,0.5,0.4,0.9,0.9,0.9c0.5,0,0.9-0.4,0.9-0.9v-6.8c0,0,0,0,0,0C50.1,51,49.7,50.5,49.2,50.5z"/>
	<path d="M86.7,45c0-2.5-0.9-4.9-2.7-6.7c-1.8-1.8-4.1-2.8-6.6-2.9l-0.7,0c-2.5,0-4.9,1-6.7,2.9c-1.4,1.4-2.3,3.2-2.6,5.2h-0.1V45
		v0.2V54v2v9.9c0,5.3,4.4,9.7,9.7,9.7s9.7-4.4,9.7-9.7V56v-2v-8.8c0,0,0,0,0,0L86.7,45L86.7,45L86.7,45z M82.7,54H71.3v-8.8
		c0-3.1,2.6-5.7,5.7-5.7s5.7,2.6,5.7,5.7V54z"/>
</g>
</svg>
