<svg id="Layer_1" data-name="Layer 1" xmlns="http://www.w3.org/2000/svg" viewBox="0 0 100 100"><defs><style>.cls-1,.cls-2{fill:none;stroke:#000;stroke-miterlimit:10;stroke-width:4px;}.cls-2{stroke-linecap:round;}</style></defs><path d="M55.54,89.36a26.76,26.76,0,0,1-11-2.46C30.31,80.31,19.06,70.7,13.22,55.75c-1.38-3.52-2.63-7.18-1.83-11.07,1.08-5.23,4.57-8.54,9.12-10.82,1.94-1,2.74-.59,3.92,1.21q3.32,5,6.58,10c1.1,1.69,1.09,2.46-.32,3.91s-2.87,2.63-4.27,4c-1.91,1.82-2.16,2.53-.87,4.82a28.64,28.64,0,0,0,4.11,5.75A73,73,0,0,0,45,75.64c2.15,1.31,2.86,1.14,4.41-.81,1.11-1.4,2.11-2.89,3.25-4.28,1.49-1.82,2.33-2,4.35-.87,3.56,1.92,7.09,3.92,10.69,5.79A2.19,2.19,0,0,1,69,78.31C67.49,84,63.71,87.37,58.16,88.9,57.2,89.16,56.2,89.24,55.54,89.36Z"/><circle class="cls-1" cx="73.11" cy="26.46" r="14.98"/><line class="cls-2" x1="65.74" y1="26.01" x2="80.79" y2="26.01"/><line class="cls-2" x1="73.27" y1="33.54" x2="73.27" y2="18.49"/><path class="cls-2" d="M43.13,48.09A8,8,0,0,1,51.08,56"/><path class="cls-2" d="M43.68,40.1a14.81,14.81,0,0,1,14.8,14.81"/></svg>