<?xml version="1.0" encoding="utf-8"?>
<!-- Generator: Adobe Illustrator 24.0.0, SVG Export Plug-In . SVG Version: 6.00 Build 0)  -->
<svg version="1.1" id="Layer_1" xmlns="http://www.w3.org/2000/svg" xmlns:xlink="http://www.w3.org/1999/xlink" x="0px" y="0px"
	 viewBox="0 0 100 100" style="enable-background:new 0 0 100 100;" xml:space="preserve">
<g>
	<path d="M67.7,75.9C64.1,74,60.5,72,57,70.1c-2-1.1-2.9-0.9-4.4,0.9c-1.1,1.4-2.1,2.9-3.2,4.3c-1.5,2-2.3,2.1-4.4,0.8
		c-5.6-3.3-10.8-7.4-15.4-12.1c-1.6-1.8-3-3.7-4.1-5.8c-1.3-2.3-1-3,0.9-4.8c1.4-1.4,2.9-2.6,4.3-4C32,48,32,47.2,31,45.5
		c-2.2-3.3-4.4-6.7-6.6-10c-1.2-1.8-2-2.2-3.9-1.2c-4.6,2.3-8.1,5.6-9.1,10.8c-0.8,3.9,0.5,7.5,1.8,11.1c5.8,15,17.1,24.6,31.3,31.2
		c3.4,1.6,7.2,2.4,11,2.5c0.9-0.1,1.8-0.3,2.6-0.5c5.6-1.5,9.3-4.9,10.8-10.6c0,0,0,0,0,0C69.4,77.6,68.8,76.3,67.7,75.9z"/>
	<path d="M73,9.9c-9.4,0-17,7.6-17,17s7.6,17,17,17c9.4,0,17-7.6,17-17S82.4,9.9,73,9.9z M73,39.9c-7.2,0-13-5.8-13-13s5.8-13,13-13
		s13,5.8,13,13S80.2,39.9,73,39.9z"/>
	<path d="M80.7,24.4h-5.5v-5.5c0-1.1-0.9-2-2-2s-2,0.9-2,2v5.5h-5.5c-1.1,0-2,0.9-2,2s0.9,2,2,2h5.5V34c0,1.1,0.9,2,2,2s2-0.9,2-2
		v-5.5h5.5c1.1,0,2-0.9,2-2S81.8,24.4,80.7,24.4z"/>
	<path d="M43.1,50.5c3.3,0,5.9,2.7,5.9,6c0,1.1,0.9,2,2,2c0,0,0,0,0,0c1.1,0,2-0.9,2-2c0-5.4-4.5-9.9-9.9-9.9c0,0,0,0,0,0
		c-1.1,0-2,0.9-2,2C41.1,49.6,42,50.5,43.1,50.5z"/>
	<path d="M43.6,42.5C43.6,42.5,43.6,42.5,43.6,42.5c7.1,0,12.8,5.7,12.8,12.8h2l2,0c0-9.3-7.5-16.8-16.8-16.8c-1.2,0-2,0.9-2,2
		C41.6,41.6,42.5,42.5,43.6,42.5z"/>
</g>
</svg>
