<?xml version="1.0" encoding="utf-8"?>
<!-- Generator: Adobe Illustrator 24.0.0, SVG Export Plug-In . SVG Version: 6.00 Build 0)  -->
<svg version="1.1" id="Layer_1" xmlns="http://www.w3.org/2000/svg" xmlns:xlink="http://www.w3.org/1999/xlink" x="0px" y="0px"
	 viewBox="0 0 100 100" style="enable-background:new 0 0 100 100;" xml:space="preserve">
<path d="M71.8,19.8v-4.1c0-0.1,0-0.2,0-0.4c0-4.4-11.1-7-21.7-7c-10.7,0-21.8,2.6-21.8,7c0,0.1,0,0.3,0,0.4v4c0,0.1,0,0.3,0,0.4
	s0,0.3,0,0.4v0.1h0c0.2,1,1,2,2.3,2.8l3.5,60.2c0,0.2-0.1,0.3-0.1,0.5c0,0.3,0.1,0.7,0.2,1l0,0.2h0.1c1.4,3.7,9.3,5.1,16.1,5.1
	c7.5,0,16.4-1.6,16.4-6.2c0-0.4-0.1-0.8-0.2-1.1l3.5-60.1c0.9-0.7,1.4-1.4,1.6-2.2h0v-0.1c0-0.1,0-0.2,0-0.4S71.8,19.9,71.8,19.8z
	 M62.8,79.8c-3.3-1.3-8-1.9-12.3-1.9c-4.4,0-9.2,0.6-12.5,1.9l-3.2-54.7c2.5,0.8,5.5,1.3,8.6,1.6l1.9,2.8H56l2-3c3-0.4,5.7-1,8-1.7
	L62.8,79.8z"/>
</svg>
