<?xml version="1.0" encoding="utf-8"?>
<!-- Generator: Adobe Illustrator 24.0.0, SVG Export Plug-In . SVG Version: 6.00 Build 0)  -->
<svg version="1.1" id="Layer_1" xmlns="http://www.w3.org/2000/svg" xmlns:xlink="http://www.w3.org/1999/xlink" x="0px" y="0px"
	 viewBox="0 0 100 100" style="enable-background:new 0 0 100 100;" xml:space="preserve">
<g>
	<path d="M39.9,25.8c0-8.7-7.1-15.8-15.8-15.8S8.4,17.1,8.4,25.8s7.1,15.8,15.8,15.8S39.9,34.5,39.9,25.8z M35.9,25.8
		c0,2.5-0.8,4.8-2.1,6.7L17.4,16.1c1.9-1.3,4.2-2.1,6.7-2.1C30.6,14,35.9,19.3,35.9,25.8z M12.4,25.8c0-2.5,0.8-4.8,2.1-6.7
		l16.4,16.4c-1.9,1.3-4.2,2.1-6.7,2.1C17.6,37.6,12.4,32.3,12.4,25.8z"/>
	<path d="M89,77.7c0.5-2.4,3.8-18.5-1.1-24.1c-4.6-5.2-16.1-6-19.1-6.1c-0.2-1.1-0.3-3.7,1.6-5.7c3-3.2,5.7-7,4.1-15.5
		c-0.5-2.7-1.6-5-3.1-6.8c1.3-1,2.1-2.6,2.1-4.3c0-3-2.4-5.4-5.4-5.4c-2.8,0-5.2,2.2-5.4,5c-1.4-0.2-2.9-0.2-4.5,0
		c-6.3,0.7-11.3,5.6-12.1,11.9c-0.2,3.5,2.2,7.5,2.8,8.3c0.3,1.2,2,7.9,4,10.5c1.2,1.5,2.6,2.8,4.1,3.8c-1.2,0.6-3.5,1.4-7.2,1.5
		C42,51.1,42,56.4,42,59c0.1,1.1,0.2,2.3,0.3,3.4c0,0,0,0,0,0c-0.3-0.2-0.5-0.7-0.8-1.3c-0.3-0.7-0.7-1.6-1.5-2.6
		c-1.8-2.5-5.6-3.6-9.1-2.8c-3.4,0.8-5.7,3.2-6.3,6.7c-1,6.1,1.7,10.1,4.7,12.4c0,0.2,0,0.5,0.1,0.7c5,7.3,5.7,7.8,6,7.9
		c0.4,0.2,1.1,0.5,2,0.9c2.3,0.9,5.8,2.2,8.5,4.2c3.3,2.5,26.1,9.4,35,9.4c0.7,0,1.4,0,1.9-0.2c0.9-0.2,1.5-0.5,1.7-1
		c2-3.4,3.9-15.3,4.4-18.8l0.1,0c0,0,0-0.1,0-0.2L89,77.7L89,77.7z M35.4,76.7l0.1,0.1C35.4,76.8,35.4,76.8,35.4,76.7L35.4,76.7z
		 M75.6,83.7l-0.3,1.9l-22.7-1.4c-0.3-0.1-2-0.8-2.3-1.9c-0.5-1.9-1-3.7-1.7-5.6c-0.5-1-1.1-1.9-1.7-2.9c2.1,0.3,5.3,0.7,9.5,1
		C67.6,75.9,73.6,81.4,75.6,83.7z M43.1,76c0.2,1.4,0.5,3.1,0.7,4c-1.3-0.2-2.5-0.5-3.6-0.9c-1-0.5-2-1-3-1.5l6-2.8
		C43,75.2,43,75.6,43.1,76z M26.6,62.7c0.6-3.6,3.3-4.7,4.8-5.1c2.7-0.6,5.8,0.2,7.1,2.1c0.6,0.9,1,1.6,1.3,2.3
		c0.3,0.8,0.7,1.5,1.4,2.1c0.5,0.4,1,0.6,1.6,0.6c0.5,3.6,1.2,7.5,1.2,7.5l0,0.1l-8.3,3.9l0-0.1C35.2,75.9,24.8,72.9,26.6,62.7z"/>
</g>
</svg>
