<?xml version="1.0" encoding="utf-8"?>
<!-- Generator: Adobe Illustrator 24.0.0, SVG Export Plug-In . SVG Version: 6.00 Build 0)  -->
<svg version="1.1" id="Layer_1" xmlns="http://www.w3.org/2000/svg" xmlns:xlink="http://www.w3.org/1999/xlink" x="0px" y="0px"
	 viewBox="0 0 100 100" style="enable-background:new 0 0 100 100;" xml:space="preserve">
<g>
	<path d="M48.7,51.4c0.1,0,0.2,0,0.3,0c11.3,0,20.2-5.7,20.3-13c0-0.7-0.1-1.4-0.2-2.1c0-0.1,0-0.2,0-0.3c0-0.1,0-0.1-0.1-0.2
		c0-0.2-0.1-0.3-0.2-0.5c-0.1-0.2-0.2-0.5-0.3-0.7c-0.1-0.2-0.2-0.4-0.3-0.6c-0.1-0.2-0.2-0.4-0.3-0.5c-0.1-0.2-0.3-0.5-0.4-0.7
		c-0.1-0.1-0.2-0.3-0.3-0.4c-0.2-0.3-0.4-0.5-0.6-0.7c-0.1-0.1-0.1-0.2-0.2-0.2c-0.3-0.3-0.5-0.6-0.8-0.8c0,0,0,0,0,0
		c-2-1.9-4.7-3.3-7.9-4.3c-0.1,0-0.1,0-0.2-0.1c-0.4-0.1-0.9-0.2-1.3-0.3c-0.2,0-0.4-0.1-0.6-0.1c-0.4-0.1-0.7-0.2-1.1-0.2
		c-0.3-0.1-0.6-0.1-0.9-0.2c-0.3,0-0.6-0.1-0.8-0.1c-0.4-0.1-0.9-0.1-1.3-0.1c-0.2,0-0.4,0-0.6-0.1c-0.6,0-1.1-0.1-1.7-0.1
		c-0.1,0-0.2,0-0.3,0c0,0,0,0-0.1,0c-0.1,0-0.2,0-0.3,0c-0.6,0-1.1,0-1.7,0c-0.1,0-0.1,0-0.2,0c-0.6,0-1.3,0.1-1.9,0.2
		c-7.9,0.9-14,4.7-15.9,9.6c0,0.1,0,0.1-0.1,0.2c-0.1,0.3-0.2,0.6-0.3,0.9c0,0.1-0.1,0.2-0.1,0.2c0,0,0,0.1,0,0.1
		c-0.1,0.6-0.2,1.2-0.2,1.8C28.3,45.4,37.3,51.3,48.7,51.4z M41.9,29.8c0.3-0.1,0.6-0.2,0.9-0.2c0.2,0,0.3-0.1,0.5-0.1
		c0.3-0.1,0.6-0.1,0.9-0.2c0.4-0.1,0.7-0.1,1.1-0.2c0.1,0,0.3,0,0.4,0c0.4,0,0.8-0.1,1.2-0.1c0.1,0,0.1,0,0.2,0c0.5,0,1,0,1.6,0
		c0.1,0,0.2,0,0.3,0c0,0,0,0,0.1,0c0.5,0,1,0,1.5,0.1c0.1,0,0.1,0,0.2,0c0.5,0,1,0.1,1.5,0.1c0,0,0,0,0,0c0.5,0.1,0.9,0.1,1.3,0.2
		c0.2,0,0.4,0.1,0.6,0.1c0.2,0,0.4,0.1,0.7,0.1c0.2,0.1,0.5,0.1,0.7,0.2c0.1,0,0.2,0.1,0.3,0.1c0.6,0.2,1.2,0.4,1.8,0.6
		c0,0,0,0,0.1,0c0.3,0.1,0.6,0.2,0.9,0.4c0.1,0,0.1,0,0.2,0.1c0.9,0.4,1.6,0.8,2.4,1.3c0.1,0,0.1,0.1,0.2,0.1
		c0.2,0.1,0.4,0.3,0.6,0.4c0.1,0.1,0.2,0.2,0.3,0.2c0.2,0.1,0.3,0.2,0.5,0.4c0.2,0.2,0.4,0.3,0.5,0.5c0.1,0.1,0.2,0.2,0.3,0.4
		c0.1,0.1,0.2,0.2,0.3,0.4H42.5c-0.1,0-0.1,0-0.2,0h-8.6c1.6-2,4.4-3.7,7.9-4.7C41.7,29.8,41.8,29.8,41.9,29.8z M48.8,47.4
		c-8.6-0.1-15.9-4.1-16.3-8.9h8.4c1.2,3,4.1,5.1,7.5,5.1c0,0,0,0,0,0c3.3,0,6.3-2.1,7.4-5.1h9.6C65.1,43.4,57.6,47.5,48.8,47.4z"/>
	<path d="M48.2,22.6C48.2,22.6,48.2,22.6,48.2,22.6c1.1,0,2-0.9,2-2l-0.1-6.5c0-1.1-0.9-2-2-2c-1.1,0-2,0.9-2,2l0.1,6.5
		C46.2,21.7,47.1,22.6,48.2,22.6z"/>
	<path d="M55,23.7c0.2,0.1,0.4,0.1,0.6,0.1c0.8,0,1.6-0.5,1.9-1.4l2-6.1c0.3-1-0.2-2.2-1.3-2.5c-1-0.3-2.2,0.2-2.5,1.3l-2,6.1
		C53.4,22.3,54,23.4,55,23.7z"/>
	<path d="M61.2,26c0.4,0.3,0.8,0.4,1.2,0.4c0.6,0,1.2-0.3,1.6-0.8l3.9-5.1c0.7-0.9,0.5-2.1-0.4-2.8c-0.9-0.7-2.1-0.5-2.8,0.4
		l-3.9,5.1C60.2,24,60.4,25.3,61.2,26z"/>
	<path d="M32.9,26.4c0.4,0.5,1,0.8,1.6,0.8c0.4,0,0.9-0.1,1.2-0.4c0.9-0.7,1-1.9,0.3-2.8L32,18.8c-0.7-0.9-1.9-1-2.8-0.3
		c-0.9,0.7-1,1.9-0.3,2.8L32.9,26.4z"/>
	<path d="M39.3,22.5c0.3,0.8,1.1,1.3,1.9,1.3c0.2,0,0.5,0,0.7-0.1c1-0.4,1.6-1.5,1.2-2.6L40.8,15c-0.4-1-1.5-1.6-2.6-1.2
		c-1,0.4-1.6,1.5-1.2,2.6L39.3,22.5z"/>
	<path d="M81.7,66.3c-1.6-0.9-16.2-8.6-23.1-8.6c-4.7,0-6.6,2-7.8,3.4c-0.8,0.9-1.1,1.1-1.7,1.1c-0.6,0-0.9-0.2-1.8-1.1
		c-1.3-1.3-3.2-3.4-7.9-3.4c-6.9,0-21.2,7.8-22.8,8.6l-2,1.1l1.4,1.8c0.1,0.2,3.6,4.8,9.4,9.4c7.8,6.2,16.1,9.3,24.1,9.1
		c0.2,0,0.5,0,0.7,0c18.9,0,31.7-17.8,32.2-18.6l1.3-1.8L81.7,66.3z M44.5,63.9c1,1,2.3,2.4,4.6,2.4c2.4,0,3.7-1.4,4.6-2.4
		c1-1.1,1.9-2.1,4.9-2.1c3.6,0,10.9,3.1,16.3,5.6c-3.3,0.7-6.6,1.2-9.9,1.6l-7.5-4c-1-0.5-2.2-0.2-2.7,0.8c-0.5,1-0.2,2.2,0.8,2.7
		l2.1,1.1c-4.8,0.3-8.4,0.4-8.4,0.4c0,0-3.3-0.1-7.8-0.4l1.3-0.6c1-0.5,1.5-1.6,1-2.6c-0.5-1-1.6-1.5-2.6-1l-6.2,2.8
		c-0.4,0.2-0.7,0.4-0.9,0.8c-3.5-0.4-7-1-10.5-1.7c5.3-2.6,12.4-5.6,16-5.6C42.4,61.7,43.4,62.7,44.5,63.9z M62.9,80.7l1.7-3.2
		c0.5-1,0.1-2.2-0.8-2.7c-1-0.5-2.2-0.1-2.7,0.8l-3.8,7.2c-2.4,0.7-5,1-7.7,1l0,1.1l0-1.1l0,1.1l0-1.1c-2,0-3.9-0.2-5.7-0.5L39.2,76
		c-0.6-0.9-1.8-1.2-2.7-0.7c-0.9,0.6-1.2,1.8-0.7,2.8l2.1,3.5c-6.3-2.6-11.5-6.9-14.8-10.2c3.5,0.7,7,1.2,10.5,1.6
		c8,0.8,15.5,1,15.7,1c0.1,0,7.3-0.2,15.2-1c0,0,0,0,0,0c0.2,0,0.4,0,0.5-0.1c3.4-0.4,6.9-0.9,10.3-1.6
		C72.5,74.3,68.2,78.1,62.9,80.7z"/>
</g>
</svg>
