<svg id="Layer_1" data-name="Layer 1" xmlns="http://www.w3.org/2000/svg" viewBox="0 0 100 100"><defs><style>.cls-1,.cls-2,.cls-3{fill:none;stroke:#000;stroke-width:4px;}.cls-1,.cls-2{stroke-miterlimit:10;}.cls-2,.cls-3{stroke-linecap:round;}.cls-3{stroke-linejoin:round;}</style></defs><circle class="cls-1" cx="17.19" cy="19.76" r="13.77"/><path d="M9,8.67A13.94,13.94,0,0,0,6.1,11.59L25.35,30.84a13.94,13.94,0,0,0,2.92-2.92Z"/><line class="cls-2" x1="76.18" y1="46.63" x2="83.82" y2="45.28"/><line class="cls-2" x1="76.18" y1="54.13" x2="83.82" y2="55.48"/><path class="cls-2" d="M86.66,63.87a5.34,5.34,0,0,0,1,.1,5.07,5.07,0,0,0,5.07-5.08,4.92,4.92,0,0,0-.16-1.22,8.44,8.44,0,0,0,0-15.24,5,5,0,0,0-4.91-6.3,4.59,4.59,0,0,0-1,.1"/><path class="cls-3" d="M34.08,73.91S16.68,78,11.58,81.26s-6,11.6-6,11.6"/><path class="cls-3" d="M84.89,92.86s-.93-8.35-6-11.6-23.2-7.69-23.2-7.69"/><path class="cls-3" d="M45.2,21.4C32.78,21.4,22.34,33,22.34,47.27c0,9.81,4.77,19,11.78,23.75v0a10.82,10.82,0,0,0,21.63,0v-.18c.66-.46,10.62-4.72,12.43-13.81-4.5-.29-11.16-1.25-11.35-4.45s8.64-7.53,13-9.52a24.85,24.85,0,0,0-1.93-6.44l3-3.91a1.66,1.66,0,0,0-1-2.64L62.2,28.56A25.69,25.69,0,0,0,45.47,21.4Z"/></svg>