<?xml version="1.0" encoding="utf-8"?>
<!-- Generator: Adobe Illustrator 24.0.0, SVG Export Plug-In . SVG Version: 6.00 Build 0)  -->
<svg version="1.1" id="Layer_1" xmlns="http://www.w3.org/2000/svg" xmlns:xlink="http://www.w3.org/1999/xlink" x="0px" y="0px"
	 viewBox="0 0 100 100" style="enable-background:new 0 0 100 100;" xml:space="preserve">
<g>
	<path d="M24.8,85.4C24.8,85.4,24.8,85.4,24.8,85.4c1.5,0,2.9-0.6,3.9-1.6c1-1,1.6-2.4,1.6-3.9l0-10.8c0-0.1,0-0.2,0-0.3
		c-0.1-2.9-2.4-5.2-5.3-5.3h-0.4c-1.4,0-2.8,0.6-3.8,1.6c-1,1-1.5,2.4-1.5,3.8l0,0.7l0,10.2C19.3,82.9,21.7,85.4,24.8,85.4z
		 M26.6,81.7c-0.5,0.5-1.1,0.7-1.8,0.7c0,0,0,0,0,0h0c-1.4,0-2.5-1.1-2.5-2.5l0-4.3h5l0,4.3C27.3,80.6,27,81.2,26.6,81.7z"/>
	<path d="M40.3,71.2l-6.2,3.2c-1,0.5-1.4,1.7-0.9,2.7c0.5,1,1.7,1.4,2.7,0.9l1.6-0.8c-1.2,5.9-6.5,10.4-12.7,10.4
		c-7.2,0-13-5.8-13-13s5.8-13,13-13c1.1,0,2-0.9,2-2s-0.9-2-2-2c-9.4,0-17,7.6-17,17s7.6,17,17,17c8.2,0,15.1-5.8,16.7-13.6l1.2,1.2
		c0.4,0.4,0.9,0.6,1.4,0.6c0.5,0,1-0.2,1.4-0.6c0.8-0.8,0.8-2,0-2.8L40.3,71.2z"/>
	<path d="M89.1,55.7c-1-1.1-2.6-1.1-3.7-0.2c-1.1,1-1.1,2.6-0.2,3.7l3.1,3.4l-7.1,0.2V35.6c0-4-3.3-7.3-7.3-7.3H55.9
		c-4,0-7.3,3.3-7.3,7.3v47.8c0,4,3.3,7.3,7.3,7.3H74c4,0,7.3-3.3,7.3-7.3V68l7.2-0.2l-2.9,3.6c-0.9,1.1-0.8,2.7,0.4,3.7
		c0.5,0.4,1.1,0.6,1.6,0.6c0.8,0,1.5-0.3,2-0.9l8-9.7L89.1,55.7z M77.3,83.4c0,1.8-1.5,3.3-3.3,3.3H55.9c-1.8,0-3.3-1.5-3.3-3.3
		V35.6c0-1.8,1.5-3.3,3.3-3.3H74c1.8,0,3.3,1.5,3.3,3.3v27.3L73.7,63c-1.4,0-2.6,1.2-2.5,2.7c0,1.4,1.2,2.5,2.6,2.5c0,0,0,0,0.1,0
		l3.5-0.1V83.4z"/>
	<path d="M23.5,38.9c8.7,0,15.8-7.1,15.8-15.8S32.2,7.3,23.5,7.3c-8.7,0-15.8,7.1-15.8,15.8S14.8,38.9,23.5,38.9z M35.3,23.1
		c0,2.5-0.8,4.8-2.1,6.7L16.8,13.4c1.9-1.3,4.2-2.1,6.7-2.1C30,11.3,35.3,16.6,35.3,23.1z M13.9,16.4l16.4,16.4
		c-1.9,1.3-4.2,2.1-6.7,2.1c-6.5,0-11.8-5.3-11.8-11.8C11.7,20.6,12.5,18.3,13.9,16.4z"/>
	<path d="M64.8,41c0.1-1.1-0.3-2.1-1.1-2.9c-1-0.9-2.3-1.4-3.6-1.3h-4.3c0,0,0,0,0,0c-0.8,0-1.4,0.6-1.4,1.4V48
		c0.1,0.7,0.6,1.2,1.3,1.3c0.8,0.1,1.4-0.5,1.5-1.3v-2.7h2.2l2.7,3.4c0.3,0.4,0.8,0.7,1.3,0.7c0,0,0,0,0,0c0.7,0,1.3-0.6,1.3-1.3
		c0-0.4-0.2-0.7-0.4-1l-1.9-2.3C63.9,44.2,64.9,42.7,64.8,41z M59.9,42.9h-2.8v-3.5h2.7c1.3,0,2.2,0.6,2.2,1.8
		C62,42.2,61.2,42.9,59.9,42.9z"/>
	<path d="M74,49.5c0,0,0.1,0,0.1,0c0.7,0,1.2-0.6,1.1-1.3c0-0.4-0.2-0.7-0.4-1l-2.4-2.7l2.3-2.7c0.2-0.3,0.4-0.6,0.4-0.9
		c0,0,0,0,0,0c0-0.7-0.6-1.2-1.3-1.1c-0.5,0-0.9,0.3-1.2,0.7l-1.8,2.4l-1.8-2.4c-0.3-0.4-0.8-0.7-1.3-0.7c0,0,0,0-0.1,0
		c-0.7,0-1.2,0.6-1.2,1.2c0,0.4,0.2,0.7,0.4,1l2.2,2.6l-2.4,2.9c-0.2,0.2-0.4,0.6-0.4,0.9c0,0,0,0,0,0.1c0,0.7,0.6,1.2,1.3,1.1
		c0.5,0,0.9-0.3,1.2-0.7l1.9-2.5l1.9,2.5C73,49.2,73.5,49.4,74,49.5z"/>
</g>
</svg>
