<?xml version="1.0" encoding="utf-8"?>
<!-- Generator: Adobe Illustrator 24.0.0, SVG Export Plug-In . SVG Version: 6.00 Build 0)  -->
<svg version="1.1" id="Layer_1" xmlns="http://www.w3.org/2000/svg" xmlns:xlink="http://www.w3.org/1999/xlink" x="0px" y="0px"
	 viewBox="0 0 100 100" style="enable-background:new 0 0 100 100;" xml:space="preserve">
<g>
	<path d="M95.8,86.5c0-0.4-1.2-10.1-7.5-14.2c-4.9-3.1-19.5-7-24.4-8.3c0-0.1,0-0.2,0-0.4c7.7-5.9,12.7-16.3,12.7-26.9
		C76.6,20.2,64.7,6.6,50,6.6c-14.7,0-26.6,13.6-26.6,30.2c0,10.7,5,21.2,12.9,27.1c0,0,0,0.1,0,0.1c-4.5,1.2-19.7,5.2-24.7,8.4
		c-6.3,4-7.5,13.7-7.5,14.2c-0.1,1.1,0.7,2.1,1.8,2.2c0.1,0,0.1,0,0.2,0c1,0,1.9-0.8,2-1.8c0-0.1,1-8.2,5.7-11.2
		c4-2.5,17.1-6.2,23.3-7.8c1.9,6.1,7,11.8,13,11.8c6,0,11.1-5.6,13-11.7c6.4,1.6,19.1,5.2,23,7.7c4.7,3,5.7,11.1,5.7,11.2
		c0.1,1,1,1.8,2,1.8c0.1,0,0.1,0,0.2,0C95.2,88.6,96,87.6,95.8,86.5z M27.4,36.9c0-14.5,10.1-26.2,22.6-26.2s22.6,11.8,22.6,26.2
		c0,9.7-4.6,19.2-11.8,24.2c-0.2,0.2-0.4,0.4-0.6,0.6C53,66,47.2,66.1,40,61.9c-0.1-0.3-0.3-0.5-0.6-0.7
		C32.2,56.2,27.4,46.7,27.4,36.9z M50.2,75.7c-4,0-7.7-4.3-9.2-8.8c3,1.4,6,2.1,8.9,2.1c3.1,0,6.2-0.8,9.4-2.3
		C57.9,71.3,54.2,75.7,50.2,75.7z"/>
	<path d="M74.9,79.2c-0.3-0.5-0.5-1-0.6-1.5c-0.1-0.3-0.1-0.6,0-0.9l0.2-0.8l-0.8,0.2c-0.1,0-1.8,0.5-2,3.3c0,0.2,0,0.3,0,0.4
		c-0.3-0.6-0.7-1.8-1-2.9c-0.3-1.3-0.4-2.7-0.5-4l0-0.8l-0.7,0.3c-1.5,0.7-2.6,1.9-3.2,3.4c-0.6,1.5-0.5,3.2-0.4,4.6
		c0,0.6,0.1,1.2,0,1.6c-0.4-0.5-0.9-1.9-1.3-3.4L64.5,78l-0.6,0.5c0,0-4.2,3.6-0.4,8.7c1.2,1.7,3.2,2.6,5.3,2.6c0.3,0,0.6,0,1-0.1
		c2.6-0.3,4.7-2,5.6-4.3c0.5-1.4,0.7-2.8,0.4-4.3C75.5,80.4,75.2,79.8,74.9,79.2z"/>
</g>
</svg>
