<svg id="Layer_1" data-name="Layer 1" xmlns="http://www.w3.org/2000/svg" viewBox="0 0 100 100"><defs><style>.cls-1,.cls-3,.cls-4{fill:none;}.cls-1,.cls-2,.cls-3,.cls-4{stroke:#000;stroke-miterlimit:10;}.cls-1,.cls-2,.cls-3{stroke-width:4px;}.cls-3,.cls-4{stroke-linecap:round;}.cls-4{stroke-width:3px;}</style></defs><circle class="cls-1" cx="23.65" cy="23.48" r="13.77"/><path d="M15.49,12.4a13.48,13.48,0,0,0-2.92,2.92L31.82,34.57a13.94,13.94,0,0,0,2.92-2.92Z"/><rect class="cls-1" x="25.89" y="50.23" width="11.9" height="27.9" rx="5.95" transform="translate(63.48 128.45) rotate(-179.82)"/><path class="cls-2" d="M25.91,56.08l0,7.47,11.9,0,0-7.46a5.79,5.79,0,0,0-5.68-5.89h-.51A5.78,5.78,0,0,0,25.91,56.08Z"/><path class="cls-3" d="M54,64.16A22.23,22.23,0,1,1,31.8,41.93"/><polyline class="cls-4" points="47.01 66.58 54.29 62.84 60.34 68.92"/><path d="M61,55.69l3.45-4.08L61.34,48a2.18,2.18,0,0,1-.63-1.46,1.7,1.7,0,0,1,1.76-1.76,2.17,2.17,0,0,1,1.79,1l2.49,3.33,2.55-3.33a2.21,2.21,0,0,1,1.66-1,1.69,1.69,0,0,1,1.79,1.66,2.05,2.05,0,0,1-.53,1.31L69,51.56l3.37,3.88A2.2,2.2,0,0,1,73,56.9a1.7,1.7,0,0,1-1.76,1.77,2.19,2.19,0,0,1-1.79-1l-2.72-3.57L64,57.68a2.21,2.21,0,0,1-1.67,1A1.69,1.69,0,0,1,60.51,57,1.91,1.91,0,0,1,61,55.69Z"/><path d="M76.23,57.1a1.77,1.77,0,0,1-.78-1.48,1.87,1.87,0,0,1,1.84-1.87,1.59,1.59,0,0,1,1,.36,5.46,5.46,0,0,0,3.35,1.13c1.64,0,2.85-.88,2.85-2.44v0c0-1.52-1.28-2.4-3.12-2.4a14.3,14.3,0,0,0-2.67.45A3,3,0,0,1,77,50a1.63,1.63,0,0,1-.7-1.56l.35-6a1.72,1.72,0,0,1,1.71-1.66H86a1.7,1.7,0,1,1,0,3.4H80.06l-.2,3.05a8.41,8.41,0,0,1,2.31-.3c3.48,0,6.18,1.66,6.18,5.64v.05c0,3.73-2.7,6.1-6.58,6.1A9,9,0,0,1,76.23,57.1Z"/></svg>