<?xml version="1.0" encoding="utf-8"?>
<!-- Generator: Adobe Illustrator 24.0.0, SVG Export Plug-In . SVG Version: 6.00 Build 0)  -->
<svg version="1.1" id="Layer_1" xmlns="http://www.w3.org/2000/svg" xmlns:xlink="http://www.w3.org/1999/xlink" x="0px" y="0px"
	 viewBox="0 0 100 100" style="enable-background:new 0 0 100 100;" xml:space="preserve">
<g>
	<path d="M26.2,68.6l-4.8-5.2l-0.4-8.7c-4.9,0.6-8.4,5.1-7.9,10c0.4,3.4,2.8,6.3,6,7.4c2,0.7,5,0.8,5.9,0
		C25.2,71.9,26.2,68.6,26.2,68.6z"/>
	<path d="M30.5,53c-0.8-0.4-1.7-0.6-2.6-0.7c-0.1,0-2.7,3.2-2.7,3.2c0,0-0.3,6.2-0.3,6.2s6.9,7,7.1,6.8c1.3-0.9,2.3-2.2,3-3.6
		c0,0,0,0,0,0C37.1,60.4,35.1,55,30.5,53z"/>
	<rect x="29.6" y="72.6" transform="matrix(0.7071 -0.7071 0.7071 0.7071 -43.0627 43.1172)" width="1.9" height="1.9"/>
	<rect x="29.1" y="80.7" transform="matrix(0.7071 -0.7071 0.7071 0.7071 -48.8295 44.8933)" width="1.3" height="1.3"/>
	<rect x="24.4" y="74.5" transform="matrix(0.7071 -0.7071 0.7071 0.7071 -46.1344 40.5002)" width="2.9" height="2.9"/>
	<path d="M24.5,9.1c-8.7,0-15.8,7.1-15.8,15.8s7.1,15.8,15.8,15.8s15.8-7.1,15.8-15.8S33.1,9.1,24.5,9.1z M12.7,24.8
		c0-2.5,0.8-4.8,2.1-6.7l16.4,16.4c-1.9,1.3-4.2,2.1-6.7,2.1C18,36.6,12.7,31.3,12.7,24.8z M34.1,31.6L17.7,15.2
		c1.9-1.3,4.2-2.1,6.7-2.1c6.5,0,11.8,5.3,11.8,11.8C36.2,27.3,35.4,29.7,34.1,31.6z"/>
	<path d="M74.5,39c-1.5-0.7-3.1-1.3-4.7-1.7c-1.7-0.5-2.9-2-2.9-3.8l-0.3-4.8c1.8-2.5,2.3-5.6,1.5-8.5c-0.3-1.1-0.8-2.1-1.5-3.1
		c0.3,0.1,0.6,0.1,0.9,0.3c1,0.5,1.8,1.5,2,2.7c0.2,0.9,0.3,1.8,0.4,2.7c0.1,0.8,0.2,1.6,0.4,2.4c0.3,0.9,0.8,1.8,1.7,2.3
		c0.9,0.6,2.1,0.9,3.1,0.6c0.5-0.1,0.9-0.4,1.3-0.7c1.2-0.9,1.7-2.4,1.4-3.9c0-0.2-0.1-0.4-0.1-0.6c0,0.1,0,0.1,0,0.2
		c-0.1,0.9-0.8,1.6-1.7,1.7c-0.7,0.1-1.4-0.4-1.6-1.1c-0.1-0.5-0.2-1.1-0.2-1.6c0-1-0.1-1.9-0.1-2.9c-0.1-0.8-0.2-1.6-0.5-2.4
		c-0.5-1.3-1.3-2.5-2.4-3.3c-0.8-0.7-1.7-1.1-2.6-1.4c-1.6-0.5-3.3-0.3-4.7,0.6c-0.5,0.3-0.9,0.7-1.2,1.1c-3.7-1.8-8.3-1.2-11.4,1.9
		c-2.6,2.6-3.7,6.4-2.7,9.9l-0.9,2.6c-0.1,0.3,0.1,0.7,0.4,0.8c0.1,0,0.2,0,0.3,0l1.7-0.2c1.6,2.3,4.2,3.8,7,4.2l-0.8,8.2
		c-0.2,1.8-1.2,3.5-2.8,4.5l-3,1.9c-2.5,1.6-3.4,4.9-2.1,7.5l1.5,3.3c0.5,1.2,0.2,2.6-0.8,3.5c-3.6,3.1-6,7.3-6.9,12
		c-0.1,0.9-0.2,1.7-0.2,2.6c0,3.3,0.7,6.6,2.1,9.6l2,4.2h27.1c0,0-0.3-14.4,0.6-15.2c3.7-3.3,12.3-11.5,13-14.8
		C87.8,55.9,76.2,40,74.5,39z M77.2,60L77.2,60l-5.6,6.8c-0.1,0.1-0.3,0.2-0.4,0C71,66.8,71,66.7,71,66.6l0.9-14.8
		c0-0.2,0.2-0.3,0.4-0.3c0.1,0,0.2,0.1,0.2,0.1l4.8,6.7C77.6,58.8,77.5,59.5,77.2,60z"/>
</g>
</svg>
