<?xml version="1.0" encoding="utf-8"?>
<!-- Generator: Adobe Illustrator 24.0.0, SVG Export Plug-In . SVG Version: 6.00 Build 0)  -->
<svg version="1.1" id="Layer_1" xmlns="http://www.w3.org/2000/svg" xmlns:xlink="http://www.w3.org/1999/xlink" x="0px" y="0px"
	 viewBox="0 0 100 100" style="enable-background:new 0 0 100 100;" xml:space="preserve">
<g>
	<path d="M67.7,76.8C64.1,75,60.6,73,57,71c-2-1.1-2.9-0.9-4.4,0.9c-1.1,1.4-2.1,2.9-3.2,4.3c-1.5,2-2.3,2.1-4.4,0.8
		c-5.6-3.3-10.8-7.4-15.3-12.1c-1.6-1.7-3-3.7-4.1-5.8c-1.3-2.3-1-3,0.9-4.8c1.4-1.4,2.9-2.5,4.3-4s1.4-2.2,0.3-3.9
		c-2.2-3.3-4.4-6.7-6.6-10c-1.2-1.8-2-2.2-3.9-1.2c-4.5,2.3-8,5.6-9.1,10.8c-0.8,3.9,0.5,7.6,1.8,11.1C19.1,72,30.3,81.6,44.5,88.2
		c3.5,1.6,7.2,2.4,11,2.5c0.9-0.1,1.8-0.3,2.6-0.5c5.5-1.5,9.3-4.9,10.8-10.6c0,0,0,0,0,0C69.4,78.5,68.8,77.2,67.7,76.8z"/>
	<path d="M73.1,10.8c-9.4,0-17,7.6-17,17s7.6,17,17,17c9.4,0,17-7.6,17-17S82.5,10.8,73.1,10.8z M73.1,40.8c-7.2,0-13-5.8-13-13
		s5.8-13,13-13s13,5.8,13,13S80.3,40.8,73.1,40.8z"/>
	<path d="M80.8,25.4h-5.5v-5.5c0-1.1-0.9-2-2-2s-2,0.9-2,2v5.5h-5.5c-1.1,0-2,0.9-2,2s0.9,2,2,2h5.5v5.5c0,1.1,0.9,2,2,2s2-0.9,2-2
		v-5.5h5.5c1.1,0,2-0.9,2-2S81.9,25.4,80.8,25.4z"/>
	<path d="M43.1,51.4C43.1,51.4,43.1,51.4,43.1,51.4c1.6,0,3.1,0.6,4.2,1.7c1.1,1.1,1.7,2.6,1.7,4.2h2l2,0c0-2.7-1-5.2-2.9-7
		c-1.9-1.9-4.4-2.9-7-2.9c0,0,0,0,0,0c-1.1,0-2,0.9-2,2C41.1,50.5,42,51.4,43.1,51.4z"/>
	<path d="M43.7,43.4c7.1,0,12.8,5.7,12.8,12.8c0,1.1,0.9,2,2,2s2-0.9,2-2c0-9.3-7.5-16.8-16.8-16.8c-1.1,0-2,0.9-2,2
		S42.6,43.4,43.7,43.4z"/>
</g>
</svg>
