<?xml version="1.0" encoding="utf-8"?>
<!-- Generator: Adobe Illustrator 24.0.0, SVG Export Plug-In . SVG Version: 6.00 Build 0)  -->
<svg version="1.1" id="Layer_1" xmlns="http://www.w3.org/2000/svg" xmlns:xlink="http://www.w3.org/1999/xlink" x="0px" y="0px"
	 viewBox="0 0 100 100" style="enable-background:new 0 0 100 100;" xml:space="preserve">
<g>
	<path d="M30.6,13.1c-0.4-0.6-0.9-1.1-1.5-1.5c-0.9-0.5-2-0.7-3.1-0.4c-1,0.3-1.9,1-2.5,1.9L11,35c-0.4,0.6-0.5,1.3-0.5,2
		c0,1.1,0.4,2.1,1.2,2.9c0.8,0.8,1.8,1.2,2.9,1.2h25.2c0.7,0,1.4-0.2,2-0.5c0.9-0.5,1.6-1.4,1.9-2.5c0.3-1,0.1-2.1-0.4-3.1
		L30.6,13.1z M40.7,37.3c-0.1,0.3-0.2,0.5-0.5,0.6c-0.2,0.1-0.3,0.1-0.5,0.1H14.5c-0.3,0-0.5-0.1-0.7-0.3s-0.3-0.5-0.3-0.7
		c0-0.2,0-0.4,0.1-0.5l12.6-21.9l0,0c0.1-0.2,0.4-0.4,0.6-0.5c0.1,0,0.2,0,0.3,0c0.2,0,0.4,0,0.5,0.1c0.2,0.1,0.3,0.2,0.4,0.4
		l12.6,21.9C40.8,36.7,40.8,37,40.7,37.3z"/>
	<path d="M28,18h-1.9c-0.1,0-0.1,0-0.2,0c-0.5,0.1-0.8,0.6-0.7,1.1l0.9,10.4c0,0,0,0,0,0c0,0.5,0.4,0.9,0.9,0.9c0,0,0,0,0,0
		c0.5,0,0.9-0.4,0.9-0.9l0.9-10.4c0,0,0,0,0,0C29,18.6,28.6,18.1,28,18z"/>
	<path d="M27,32.4C27,32.4,27,32.4,27,32.4c-1,0-1.8,0.8-1.8,1.8v0.2c0.1,0.9,0.8,1.6,1.7,1.7c1,0.1,1.9-0.7,1.9-1.7v-0.2
		c0,0,0-0.1,0-0.1C28.8,33.1,28,32.3,27,32.4z"/>
	<path d="M79.5,41.4c-1.5-0.7-3.1-1.3-4.7-1.7c-1.7-0.5-2.9-2-2.9-3.8l-0.3-4.8c1.8-2.5,2.3-5.6,1.5-8.5c-0.3-1.1-0.8-2.2-1.5-3.1
		c0.3,0,0.6,0.1,0.9,0.3c1,0.5,1.8,1.5,2,2.7c0.2,0.9,0.3,1.8,0.4,2.7c0.1,0.8,0.2,1.6,0.4,2.4c0.3,0.9,0.8,1.8,1.7,2.3
		c0.9,0.6,2,0.8,3,0.6c0.5-0.1,0.9-0.3,1.3-0.7c1.2-0.9,1.7-2.5,1.4-3.9c0-0.2-0.1-0.4-0.1-0.6c0,0.1,0,0.1,0,0.2
		c-0.1,0.9-0.8,1.6-1.7,1.7c-0.7,0.1-1.4-0.4-1.6-1.1c-0.1-0.5-0.2-1.1-0.2-1.6c0-1,0-1.9-0.1-2.9c-0.1-0.8-0.2-1.6-0.5-2.4
		c-0.8-2.3-2.7-4-5-4.7c-1.6-0.5-3.3-0.3-4.7,0.6c-0.5,0.3-0.8,0.6-1.2,1c-3.7-1.8-8.2-1.2-11.3,1.8c-2.7,2.6-3.7,6.4-2.7,9.9
		l-0.9,2.6c-0.1,0.3,0.1,0.7,0.4,0.8c0.1,0,0.2,0,0.3,0l1.7-0.2c1.6,2.3,4.2,3.8,7,4.2l-0.8,8.1c-0.2,1.8-1.2,3.5-2.8,4.5l-3,1.9
		c-2.5,1.6-3.5,4.8-2.2,7.6l1.6,3.3c0.5,1.2,0.2,2.6-0.8,3.5c-3.6,3.1-6,7.3-6.9,12c-0.1,0.9-0.2,1.7-0.2,2.6c0,3.3,0.7,6.6,2.1,9.5
		l2,4.2h27.1c0,0-0.3-14.4,0.7-15.3c3.7-3.3,12.3-11.4,13-14.8C92.8,58.3,81.1,42.4,79.5,41.4z M82.1,62.4L82.1,62.4l-5.6,6.8
		c-0.1,0.1-0.3,0.2-0.4,0c-0.1-0.1-0.1-0.2-0.1-0.3l0.9-14.8c0-0.2,0.2-0.3,0.3-0.3c0.1,0,0.2,0.1,0.2,0.1l4.8,6.7
		C82.5,61.2,82.5,61.9,82.1,62.4z"/>
</g>
</svg>
