<?xml version="1.0" encoding="utf-8"?>
<!-- Generator: Adobe Illustrator 24.0.0, SVG Export Plug-In . SVG Version: 6.00 Build 0)  -->
<svg version="1.1" id="Layer_1" xmlns="http://www.w3.org/2000/svg" xmlns:xlink="http://www.w3.org/1999/xlink" x="0px" y="0px"
	 viewBox="0 0 100 100" style="enable-background:new 0 0 100 100;" xml:space="preserve">
<g>
	<path d="M74.9,41.2c0.1,0,0.2,0,0.3,0l7.4-1.3c1.1-0.2,1.8-1.2,1.6-2.3c-0.2-1.1-1.2-1.8-2.3-1.6l-7.4,1.3
		c-1.1,0.2-1.8,1.2-1.6,2.3C73.1,40.5,73.9,41.2,74.9,41.2z"/>
	<path d="M74.6,48.4l7.4,1.3c0.1,0,0.2,0,0.3,0c1,0,1.8-0.7,2-1.7c0.2-1.1-0.5-2.1-1.6-2.3l-7.4-1.3c-1.1-0.2-2.1,0.5-2.3,1.6
		C72.7,47.2,73.5,48.2,74.6,48.4z"/>
	<path d="M96.5,38.1c-0.8-1.6-2-3-3.5-4.1c0,0,0-0.1,0-0.1c0-1.8-0.7-3.6-2-4.9c-1.3-1.3-3-2-4.9-2c-0.5,0-0.9,0-1.4,0.1
		c-1.1,0.2-1.8,1.3-1.6,2.3c0.2,1.1,1.3,1.8,2.3,1.6c0.2,0,0.4-0.1,0.6-0.1l0.1,0c0.8,0,1.5,0.3,2.1,0.9c0.5,0.6,0.9,1.3,0.9,2
		c0,0.2,0,0.5-0.1,0.7l-0.4,1.6l1.5,0.7c1.3,0.6,2.3,1.6,2.9,2.9c0.7,1.5,0.8,3.2,0.3,4.7c-0.6,1.6-1.7,2.8-3.2,3.5l-1.5,0.7
		l0.4,1.6c0.1,0.2,0.1,0.5,0.1,0.7c0,1.6-1.3,2.9-2.9,2.9c-0.2,0-0.4,0-0.6-0.1c-1.1-0.2-2.1,0.5-2.4,1.6c-0.2,1.1,0.5,2.1,1.6,2.4
		C85.1,58,85.6,58,86,58c0,0,0,0,0,0c3.8,0,6.9-3.1,6.9-7c0,0,0-0.1,0-0.1c1.8-1.2,3.2-3,3.9-5.1C97.8,43.3,97.7,40.6,96.5,38.1z"/>
	<path d="M78.6,71.1c-4.3-2.7-16.8-6.1-21.4-7.3c6.8-3.7,10.8-8.5,12-14.2c0.1-0.6,0-1.2-0.4-1.6s-0.9-0.7-1.5-0.8
		c-7.4-0.4-9.1-2-9.2-2.3c0,0,0.5-2.4,11.5-7.3c0.8-0.4,1.3-1.2,1.1-2.1c-0.3-1.9-0.8-3.8-1.6-5.6l2.2-2.9c1.2-1.6,0.9-3.9-0.7-5.1
		c-0.5-0.3-1-0.6-1.5-0.7l-6.9-1.4c-4.7-4.3-10.7-6.9-17.1-7.1c-0.2,0-0.3,0-0.4,0l0,0c-13.2,0.1-24,12.2-24,27.1
		c0,9.5,4.5,18.9,11.5,24.1c0,0.1,0,0.1,0,0.2c-4.3,1.1-16.6,4.3-21,7c-5.7,3.6-6.7,12.3-6.8,12.7c-0.1,1.1,0.7,2.1,1.8,2.2
		c0.1,0,0.1,0,0.2,0c1,0,1.9-0.8,2-1.8c0.2-2,1.5-7.6,4.9-9.8c3.5-2.2,14.5-5.2,19.9-6.6c2,4.4,6.3,7.4,11.4,7.4
		c5.2,0,9.6-3.2,11.5-7.7c5.7,1.4,16.8,4.6,20.3,6.8c4.1,2.6,4.9,9.7,4.9,9.8c0.1,1,1,1.8,2,1.8c0.1,0,0.1,0,0.2,0
		c1.1-0.1,1.9-1.1,1.8-2.2C85.3,83.4,84.3,74.7,78.6,71.1z M44.6,71.3c-4.7,0-8.5-3.8-8.5-8.5c0-0.7-0.3-1.3-0.9-1.7
		c-6.4-4.3-10.5-12.7-10.5-21.3c0-12.5,9.2-23.1,20.2-23.1c0.1,0,0.2,0,0.4,0c5.5,0.3,10.7,2.6,14.7,6.4c0.3,0.3,0.6,0.4,1,0.5
		l6.9,1.4l-2.5,3.3c-0.4,0.6-0.5,1.4-0.2,2c0.6,1.4,1.1,2.8,1.4,4.3C55.4,39.9,54,43,54.1,45.1c0.2,3.3,3.6,5.2,10.4,5.9
		c-1.5,3.7-4.8,6.9-9.9,9.6c-0.4,0.2-0.6,0.3-0.7,0.4c-0.5,0.4-0.9,1-0.9,1.6v0.2C53.1,67.5,49.3,71.3,44.6,71.3z"/>
</g>
</svg>
