<?xml version="1.0" encoding="utf-8"?>
<!-- Generator: Adobe Illustrator 24.0.0, SVG Export Plug-In . SVG Version: 6.00 Build 0)  -->
<svg version="1.1" id="Layer_1" xmlns="http://www.w3.org/2000/svg" xmlns:xlink="http://www.w3.org/1999/xlink" x="0px" y="0px"
	 viewBox="0 0 100 100" style="enable-background:new 0 0 100 100;" xml:space="preserve">
<g>
	<path d="M24.9,9.2C16.2,9.2,9.2,16.3,9.2,25s7.1,15.8,15.8,15.8S40.7,33.6,40.7,25S33.6,9.2,24.9,9.2z M13.2,25
		c0-2.5,0.8-4.8,2.1-6.7l16.4,16.4c-1.9,1.3-4.2,2.1-6.7,2.1C18.4,36.7,13.2,31.4,13.2,25z M34.6,31.7L18.2,15.3
		c1.9-1.3,4.2-2.1,6.7-2.1c6.5,0,11.8,5.3,11.8,11.8C36.7,27.5,35.9,29.8,34.6,31.7z"/>
	<path d="M68.8,60.3L58.1,48.7l-0.9-19.4c-11,1.4-18.7,11.5-17.3,22.4c1,7.5,6.1,13.9,13.3,16.4c4.4,1.6,11.1,1.7,13.2,0
		C66.6,67.8,68.8,60.3,68.8,60.3z"/>
	<path d="M78.5,25.6c-1.8-0.9-3.8-1.4-5.8-1.5c-0.1,0-5.9,7.1-6,7.1c0,0-0.6,13.8-0.6,13.8s15.3,15.6,15.8,15.2c2.9-2,5.2-4.8,6.6-8
		C93.1,42.1,88.6,30.2,78.5,25.6z"/>
	<rect x="76.4" y="69.2" transform="matrix(0.7071 -0.7071 0.7071 0.7071 -27.4479 76.3997)" width="4.3" height="4.3"/>
	<rect x="75.4" y="87.3" transform="matrix(0.7071 -0.7071 0.7071 0.7071 -40.2788 80.3487)" width="3" height="3"/>
	<rect x="64.8" y="73.5" transform="matrix(0.7071 -0.7071 0.7071 0.7071 -34.2962 70.5809)" width="6.4" height="6.4"/>
</g>
</svg>
