<svg id="Layer_1" data-name="Layer 1" xmlns="http://www.w3.org/2000/svg" viewBox="0 0 100 100"><defs><style>.cls-1,.cls-2{fill:none;stroke:#000;stroke-miterlimit:10;stroke-width:4px;}.cls-2{stroke-linecap:round;}</style></defs><circle class="cls-1" cx="23.38" cy="24.92" r="13.77"/><path d="M15.21,13.83a13.94,13.94,0,0,0-2.92,2.92L31.54,36a13.48,13.48,0,0,0,2.92-2.92Z"/><path class="cls-1" d="M15.61,62.44H89.26a0,0,0,0,1,0,0V77.32a0,0,0,0,1,0,0H15.61a6,6,0,0,1-6-6V68.44a6,6,0,0,1,6-6Z"/><path d="M15.61,62.44a6,6,0,0,0-6,6v2.88a6,6,0,0,0,6,6H39V62.44Z"/><line class="cls-1" x1="82.26" y1="62.44" x2="82.26" y2="77.32"/><line class="cls-1" x1="75.26" y1="62.44" x2="75.26" y2="77.32"/><path class="cls-2" d="M71.38,22.65H68.16a4.07,4.07,0,0,0-4.07,4.07h0a4.07,4.07,0,0,0,4.07,4.06H78A3.22,3.22,0,0,1,81.22,34h0A3.22,3.22,0,0,1,78,37.22H74a3.66,3.66,0,0,0-3.66,3.67h0A3.66,3.66,0,0,0,74,44.55h7.31a3,3,0,0,1,3,3v3"/></svg>