<svg id="Layer_1" data-name="Layer 1" xmlns="http://www.w3.org/2000/svg" viewBox="0 0 100 100"><defs><style>.cls-1,.cls-2{fill:none;stroke:#000;stroke-width:4px;}.cls-1{stroke-linejoin:round;}.cls-2{stroke-linecap:round;stroke-miterlimit:10;}</style></defs><line class="cls-1" x1="36.96" y1="63.47" x2="36.96" y2="79.09"/><circle class="cls-1" cx="36.96" cy="83" r="4.54"/><path class="cls-1" d="M63.28,86.14h1.4a1.36,1.36,0,0,0,1.37-1.36V82.15a7.1,7.1,0,0,0-3.66-6.21l-3.56-2v-9h0v9l-3.56,2a7.1,7.1,0,0,0-3.66,6.21v2.63a1.36,1.36,0,0,0,1.36,1.36h1.41"/><path class="cls-1" d="M68.85,36.82c0-13.32-9.41-24.12-21-24.12s-21,10.8-21,24.12c0,9.16,4.46,17.73,11,22.19v0c0,5.58,4.52,13.1,10.11,13.1S58,64.61,58,59v-.16C64.48,54.37,68.85,45.88,68.85,36.82Z"/><path class="cls-2" d="M38.45,62.3s-16.91,4.16-21.68,7.19-5.63,10.84-5.63,10.84L8.9,93"/><path class="cls-2" d="M58,62.3s16.91,4.16,21.68,7.19,5.63,10.84,5.63,10.84l2,12.19"/><path d="M91.89,25a16.61,16.61,0,0,1,1.49,6.87c0,9.72-2.53,18.57-9.45,25.76-1.63,1.69-3.37,3.35-5.77,3.91-3.23.75-6-.36-8.48-2.34-1.05-.84-1-1.39-.34-2.53,1.32-2.11,2.63-4.22,4-6.32.67-1.06,1.11-1.25,2.29-.84s2.23.94,3.36,1.38c1.52.61,2,.56,3-.76a18.52,18.52,0,0,0,2.17-3.82,45.23,45.23,0,0,0,2.82-11.81c.18-1.55-.1-1.91-1.61-2.27-1.08-.27-2.18-.44-3.25-.72-1.42-.37-1.72-.81-1.63-2.23.16-2.51.37-5,.49-7.54a1.36,1.36,0,0,1,1.27-1.45A8.84,8.84,0,0,1,91,23.61,13.71,13.71,0,0,1,91.89,25Z"/><path class="cls-1" d="M37.58,58.93v0c7.18,4.47,13.21,4.47,20.53,0"/></svg>