<svg id="Layer_1" data-name="Layer 1" xmlns="http://www.w3.org/2000/svg" viewBox="0 0 100 100"><defs><style>.cls-1,.cls-3,.cls-4{fill:none;}.cls-1,.cls-2,.cls-3,.cls-4{stroke:#000;stroke-miterlimit:10;}.cls-1,.cls-2,.cls-3{stroke-width:3px;}.cls-3{stroke-linecap:round;}.cls-4{stroke-width:4px;}</style></defs><rect class="cls-1" x="66.61" y="60.5" width="8.02" height="18.8" rx="4.01" transform="translate(141.02 140.03) rotate(-179.82)"/><path class="cls-2" d="M66.62,64.45l0,5,8,0,0-5a3.89,3.89,0,0,0-3.83-4h-.34A3.9,3.9,0,0,0,66.62,64.45Z"/><path class="cls-3" d="M85.57,69.89a15,15,0,1,1-15-15"/><polyline class="cls-3" points="80.84 71.53 85.74 69 89.83 73.1"/><rect class="cls-4" x="14.43" y="26.98" width="28.74" height="58.45" rx="5.33"/><path d="M18.23,34.94a1.39,1.39,0,0,1,1.4-1.4h4.43a5.09,5.09,0,0,1,3.72,1.29,4,4,0,0,1,1.09,2.92v0a3.9,3.9,0,0,1-2.55,3.88L28.27,44a1.58,1.58,0,0,1,.46,1.07A1.31,1.31,0,0,1,27.4,46.4,1.69,1.69,0,0,1,26,45.67l-2.73-3.46H21V45a1.41,1.41,0,0,1-2.81,0Zm5.65,4.8c1.37,0,2.15-.73,2.15-1.81v0c0-1.2-.84-1.82-2.2-1.82H21v3.67Z"/><path d="M31,44.29l2.5-2.95-2.28-2.63a1.57,1.57,0,0,1-.45-1.05A1.23,1.23,0,0,1,32,36.38a1.61,1.61,0,0,1,1.3.71l1.8,2.41L37,37.09a1.6,1.6,0,0,1,1.2-.71,1.23,1.23,0,0,1,1.3,1.21,1.5,1.5,0,0,1-.38.94L36.72,41.3l2.44,2.81a1.57,1.57,0,0,1,.45,1.06,1.23,1.23,0,0,1-1.27,1.27,1.58,1.58,0,0,1-1.3-.71l-2-2.59-2,2.59a1.6,1.6,0,0,1-1.2.71,1.23,1.23,0,0,1-1.3-1.2A1.42,1.42,0,0,1,31,44.29Z"/></svg>