<svg id="Layer_1" data-name="Layer 1" xmlns="http://www.w3.org/2000/svg" viewBox="0 0 100 100"><defs><style>.cls-1,.cls-2,.cls-3{fill:none;stroke:#000;stroke-miterlimit:10;}.cls-1,.cls-2{stroke-width:4px;}.cls-2{stroke-linecap:round;}.cls-3{stroke-width:3px;}</style></defs><path d="M28.53,38.52q2.58,3.91,5.14,7.86c1.1,1.69,1.08,2.46-.32,3.91s-2.87,2.63-4.28,4c-1.91,1.82-2.16,2.53-.86,4.82a29,29,0,0,0,4.1,5.75A73,73,0,0,0,47.68,76.91c2.14,1.3,2.85,1.14,4.4-.81,1.12-1.4,2.12-2.89,3.25-4.28,1.5-1.82,2.34-2,4.35-.88,3.57,1.93,7.1,3.93,10.69,5.8a2.19,2.19,0,0,1,1.26,2.84c-1.49,5.68-5.26,9.06-10.81,10.59a24.51,24.51,0,0,1-2.62.45,26.41,26.41,0,0,1-11-2.46C33,81.58,21.72,72,15.87,57,14.5,53.49,13.24,49.84,14,46A13.85,13.85,0,0,1,17.68,39"/><circle class="cls-1" cx="75.76" cy="27.73" r="14.98"/><line class="cls-2" x1="68.4" y1="27.28" x2="83.45" y2="27.28"/><line class="cls-2" x1="75.92" y1="34.81" x2="75.92" y2="19.76"/><path class="cls-2" d="M45.79,49.36a8,8,0,0,1,8,8"/><path class="cls-2" d="M46.33,41.37a14.81,14.81,0,0,1,14.81,14.8"/><g id="_193" data-name="193"><path class="cls-3" d="M23.4,13.34a2.56,2.56,0,0,1,4.43,0l6.3,10.93L40.44,35.2A2.55,2.55,0,0,1,38.23,39H13a2.56,2.56,0,0,1-2.22-3.83l6.31-10.93Z"/><path d="M23.71,18.59a.93.93,0,0,1,.9-1.1h1.84a.94.94,0,0,1,.92,1.1L26.47,29a.93.93,0,0,1-.94.92.92.92,0,0,1-.92-.92Zm1.82,13.22a1.74,1.74,0,0,1,1.81,1.76v.26a1.74,1.74,0,0,1-1.81,1.76,1.77,1.77,0,0,1-1.82-1.76v-.26A1.76,1.76,0,0,1,25.53,31.81Z"/></g></svg>