<svg id="Layer_1" data-name="Layer 1" xmlns="http://www.w3.org/2000/svg" viewBox="0 0 100 100"><defs><style>.cls-1,.cls-3,.cls-4,.cls-5{fill:none;}.cls-1,.cls-2,.cls-3,.cls-4,.cls-5{stroke:#000;stroke-miterlimit:10;}.cls-1,.cls-2{stroke-width:3px;}.cls-3,.cls-4{stroke-linecap:round;}.cls-3,.cls-5{stroke-width:4px;}.cls-4{stroke-width:5.2px;}</style></defs><rect class="cls-1" x="20.79" y="65.14" width="8.02" height="18.8" rx="4.01" transform="translate(49.37 149.15) rotate(-179.82)"/><path class="cls-2" d="M20.81,69.08l0,5,8,0,0-5a3.91,3.91,0,0,0-3.83-4h-.34A3.89,3.89,0,0,0,20.81,69.08Z"/><path class="cls-3" d="M39.76,74.53a15,15,0,1,1-15-15"/><polyline class="cls-3" points="35.03 76.16 39.93 73.64 44.01 77.74"/><line class="cls-4" x1="73.76" y1="65.63" x2="94.13" y2="65.1"/><polyline class="cls-4" points="87.59 73.08 94.14 65.11 87.19 57.47"/><circle class="cls-5" cx="23.51" cy="23.08" r="13.77"/><path d="M15.35,12a13.7,13.7,0,0,0-2.92,2.92L31.68,34.16a13.94,13.94,0,0,0,2.92-2.92Z"/><rect class="cls-5" x="50.58" y="30.29" width="28.74" height="58.45" rx="5.33"/><path d="M54.38,38.22a1.37,1.37,0,0,1,1.38-1.38h4.32a5,5,0,0,1,3.64,1.27A3.92,3.92,0,0,1,64.79,41v0a3.82,3.82,0,0,1-2.5,3.8L64.2,47.1a1.6,1.6,0,0,1,.44,1,1.28,1.28,0,0,1-1.3,1.27A1.64,1.64,0,0,1,62,48.71l-2.67-3.39H57.13v2.73a1.38,1.38,0,0,1-2.75,0Zm5.53,4.68c1.33,0,2.1-.71,2.1-1.76v0c0-1.17-.82-1.78-2.16-1.78H57.13V42.9Z"/><path d="M66.86,47.35l2.44-2.88L67.07,41.9a1.54,1.54,0,0,1-.44-1,1.21,1.21,0,0,1,1.24-1.25,1.55,1.55,0,0,1,1.27.7l1.76,2.35,1.8-2.35a1.58,1.58,0,0,1,1.18-.7,1.2,1.2,0,0,1,1.26,1.18,1.43,1.43,0,0,1-.37.92l-2.32,2.71,2.39,2.74a1.58,1.58,0,0,1,.44,1A1.2,1.2,0,0,1,74,49.45a1.56,1.56,0,0,1-1.27-.69l-1.92-2.53-1.92,2.53a1.59,1.59,0,0,1-1.18.69,1.19,1.19,0,0,1-1.26-1.17A1.38,1.38,0,0,1,66.86,47.35Z"/></svg>