<svg id="Layer_1" data-name="Layer 1" xmlns="http://www.w3.org/2000/svg" viewBox="0 0 100 100"><defs><style>.cls-1,.cls-2{fill:none;stroke:#000;stroke-width:4px;}.cls-1{stroke-linejoin:round;}.cls-2{stroke-linecap:round;stroke-miterlimit:10;}</style></defs><line class="cls-1" x1="35.83" y1="60.63" x2="35.83" y2="76.25"/><circle class="cls-1" cx="35.83" cy="80.16" r="4.54"/><path class="cls-1" d="M62.14,83.3h1.41a1.36,1.36,0,0,0,1.36-1.36V79.31a7.1,7.1,0,0,0-3.66-6.21l-3.56-2v-9h0v9l-3.56,2a7.1,7.1,0,0,0-3.66,6.21v2.63a1.36,1.36,0,0,0,1.37,1.36h1.4"/><path class="cls-1" d="M36.44,56.09s0,0,0,0c7.17,4.47,13.2,4.47,20.52,0"/><path class="cls-1" d="M67.71,34c0-13.32-9.41-24.12-21-24.12s-21,10.8-21,24.12c0,9.16,4.45,17.73,11,22.19v0c0,5.58,4.53,13.1,10.11,13.1s10.1-7.52,10.1-13.1V56C63.35,51.53,67.71,43,67.71,34Z"/><path class="cls-2" d="M37.31,59.46S20.4,63.62,15.63,66.65,10,77.48,10,77.48L7.76,90.14"/><path class="cls-2" d="M56.81,59.46s16.92,4.16,21.69,7.19,5.63,10.83,5.63,10.83l2,12.2"/><path d="M90.76,22.13A16.6,16.6,0,0,1,92.24,29c0,9.72-2.53,18.57-9.45,25.76-1.62,1.69-3.36,3.35-5.77,3.91-3.22.75-6-.36-8.48-2.34-1.05-.84-1-1.39-.33-2.53q2-3.16,4-6.32c.67-1.06,1.11-1.25,2.3-.84s2.23.94,3.35,1.38c1.53.6,2,.56,3-.77a18.24,18.24,0,0,0,2.18-3.81,45.62,45.62,0,0,0,2.81-11.81c.18-1.55-.1-1.91-1.6-2.27-1.08-.27-2.18-.44-3.26-.73-1.42-.37-1.72-.8-1.63-2.22.16-2.52.38-5,.49-7.54A1.37,1.37,0,0,1,81,17.42a8.84,8.84,0,0,1,8.79,3.35C90.21,21.24,90.52,21.79,90.76,22.13Z"/></svg>