<?xml version="1.0" encoding="utf-8"?>
<!-- Generator: Adobe Illustrator 24.0.0, SVG Export Plug-In . SVG Version: 6.00 Build 0)  -->
<svg version="1.1" id="Layer_1" xmlns="http://www.w3.org/2000/svg" xmlns:xlink="http://www.w3.org/1999/xlink" x="0px" y="0px"
	 viewBox="0 0 100 100" style="enable-background:new 0 0 100 100;" xml:space="preserve">
<g>
	<path d="M87.2,55.2l-2.1-5v-6.4c0-1.6-1.3-3-2.9-3c0,0,0,0-0.1,0H60.8c-1.6,0-3,1.4-3,3v6.3l-2,5.1c-0.4,1-0.5,2-0.5,3v25.2
		c0,1.6,1.3,2.9,2.9,2.9H85c1.6,0,2.9-1.3,2.9-2.9V58.5C87.9,57.3,87.7,56.2,87.2,55.2z M83.8,76.5c0,1.6-1.3,2.9-2.9,2.9H62.3
		c-1.6,0-2.9-1.3-2.9-2.9V62.5c0-1.6,1.3-2.9,2.9-2.9h18.6c1.6,0,2.9,1.3,2.9,2.9V76.5z"/>
	<polygon points="73.7,64.5 69.7,64.5 69.7,68 66.2,68 66.2,72 69.7,72 69.7,75.5 73.7,75.5 73.7,72 77.2,72 77.2,68 73.7,68 	"/>
	<path d="M35.3,67.2v-3.4c0-0.9-0.7-1.6-1.6-1.6H22.2c-0.9,0-1.6,0.7-1.6,1.6v3.4l-1,2.8c-0.2,0.5-0.3,1.1-0.3,1.6v13.5
		c0,0.9,0.7,1.6,1.6,1.6h14.5c0.9,0,1.6-0.7,1.6-1.6V71.7c0-0.6-0.1-1.2-0.4-1.8L35.3,67.2z M33.1,83C33.1,83,33.1,83,33.1,83L23,83
		c-0.9,0-1.6-0.7-1.6-1.6v-7.6c0-0.9,0.7-1.6,1.6-1.6h10c0.9,0,1.6,0.7,1.6,1.6l0,7.6C34.6,82.3,33.9,83,33.1,83z"/>
	<polygon points="29.2,74.9 27,74.9 27,76.8 25.1,76.8 25.1,79 27,79 27,80.8 29.2,80.8 29.2,79 31.1,79 31.1,76.8 29.2,76.8 	"/>
	<path d="M50.8,78.4h-2.6v-2.5c0-0.1,0-0.2,0-0.3c-0.1-0.9-0.8-1.5-1.7-1.4c-0.9,0.1-1.5,0.8-1.4,1.7v2.5h-2.6c0,0,0,0,0,0
		c-0.8,0-1.5,0.7-1.5,1.5c0,0.8,0.7,1.5,1.5,1.5H45V84c0,0.9,0.7,1.6,1.6,1.6s1.6-0.7,1.6-1.6v-2.5h2.6c0,0,0,0,0,0
		c0.8,0,1.5-0.7,1.5-1.5C52.3,79.1,51.6,78.4,50.8,78.4z"/>
	<path d="M31.4,23.6c-3.4,0-6.2,2.8-6.2,6.2s2.8,6.2,6.2,6.2s6.2-2.8,6.2-6.2S34.8,23.6,31.4,23.6z M31.4,31.9c-1.2,0-2.2-1-2.2-2.2
		s1-2.2,2.2-2.2s2.2,1,2.2,2.2S32.6,31.9,31.4,31.9z"/>
	<path d="M48.6,36.9c-3,0-5.4,2.4-5.4,5.4s2.4,5.4,5.4,5.4s5.4-2.4,5.4-5.4S51.6,36.9,48.6,36.9z M48.6,43.7c-0.8,0-1.4-0.6-1.4-1.4
		s0.6-1.4,1.4-1.4s1.4,0.6,1.4,1.4S49.4,43.7,48.6,43.7z"/>
	<path d="M68.8,30c3,0,5.4-2.4,5.4-5.4s-2.4-5.4-5.4-5.4s-5.4,2.4-5.4,5.4S65.8,30,68.8,30z M68.8,23.1c0.8,0,1.4,0.6,1.4,1.4
		c0,0.8-0.6,1.4-1.4,1.4s-1.4-0.6-1.4-1.4C67.3,23.8,68,23.1,68.8,23.1z"/>
	<path d="M47.4,18.9c2.9,0,5.2-2.3,5.2-5.2s-2.3-5.2-5.2-5.2c-2.9,0-5.2,2.3-5.2,5.2S44.6,18.9,47.4,18.9z M47.4,12.5
		c0.7,0,1.2,0.5,1.2,1.2s-0.5,1.2-1.2,1.2c-0.7,0-1.2-0.5-1.2-1.2S46.8,12.5,47.4,12.5z"/>
</g>
</svg>
