<?xml version="1.0" encoding="utf-8"?>
<!-- Generator: Adobe Illustrator 24.0.0, SVG Export Plug-In . SVG Version: 6.00 Build 0)  -->
<svg version="1.1" id="Layer_1" xmlns="http://www.w3.org/2000/svg" xmlns:xlink="http://www.w3.org/1999/xlink" x="0px" y="0px"
	 viewBox="0 0 100 100" style="enable-background:new 0 0 100 100;" xml:space="preserve">
<g>
	<path d="M27,15.2h-1.7c-0.1,0-0.1,0-0.2,0c-0.4,0.1-0.7,0.5-0.6,1l0.8,9.5c0,0,0,0,0,0c0,0.5,0.4,0.8,0.8,0.8c0,0,0,0,0,0
		c0.5,0,0.9-0.4,0.9-0.8l0.8-9.5c0,0,0-0.1,0-0.1C27.8,15.5,27.5,15.2,27,15.2z"/>
	<path d="M26.2,28.2L26.2,28.2C26.1,28.1,26.1,28.1,26.2,28.2c-0.9,0-1.7,0.7-1.6,1.6V30c0.1,0.8,0.7,1.5,1.5,1.5
		c0.9,0.1,1.7-0.6,1.8-1.5v-0.2c0,0,0,0,0-0.1C27.8,28.8,27,28.1,26.2,28.2z"/>
	<path d="M81.2,75.2c-1,0.2-1.8,0.8-2.4,1.6c-0.3,0.5-1,0.7-1.6,0.5l-14.5-5.1l14.3-5c0.6-0.2,1.3-0.1,1.8,0.4
		c1.5,1.9,4.2,2.3,6.1,0.8c1.9-1.5,2.3-4.2,0.8-6.1c-0.5-0.8-1.3-1.3-2.2-1.6c1.5-1.9,1.2-4.6-0.7-6.1c-1.9-1.5-4.6-1.2-6.1,0.7
		c-0.6,0.8-1,1.7-0.9,2.7c0,0.8-0.4,1.4-1.1,1.7l-5.6,2c1.3-1.4,2-3.3,2-5.2V44.7h-0.2c-1.2-8.6-9.5-15.4-19.4-15.4
		c-3.6,0-7,0.9-10,2.5c-0.1-0.5-0.2-0.9-0.5-1.4l-5.7-9.9l-5.8-9.9c-0.3-0.5-0.8-1-1.3-1.3c-0.9-0.5-1.9-0.7-2.9-0.4
		c-1,0.2-1.8,0.9-2.4,1.7L11.5,30.5c-0.3,0.6-0.5,1.2-0.5,1.9c0,2.1,1.7,3.8,3.8,3.8H36c-2.1,2.4-3.5,5.3-4,8.5h-0.2v11.9
		c0,2.1,0.8,4.1,2.3,5.6l-6.8-2.4c-0.7-0.3-1.2-1-1.1-1.7c0-1.3-0.6-2.6-1.6-3.4c-1.1-0.8-2.4-1.1-3.7-0.8c-2.3,0.5-3.8,2.9-3.2,5.2
		c0.1,0.6,0.4,1.2,0.8,1.7c-0.9,0.3-1.7,0.9-2.2,1.6c-1.5,1.9-1.1,4.6,0.8,6.1s4.6,1.1,6.1-0.8c0.5-0.5,1.2-0.7,1.8-0.4l14.3,5
		l-14.4,5.1c-0.6,0.2-1.2,0-1.6-0.5c-1.4-1.9-4.2-2.3-6.1-0.9c-1.9,1.4-2.3,4.2-0.9,6.1c0.5,0.8,1.3,1.3,2.2,1.6
		c-1.5,1.9-1.2,4.6,0.7,6.1c0.5,0.4,1.1,0.7,1.7,0.8c1.3,0.3,2.7,0,3.7-0.8c1-0.8,1.6-2.1,1.6-3.4c0-0.7,0.4-1.3,1.1-1.6L51,76.3
		l23.7,8.3c0.7,0.2,1.1,0.9,1.1,1.6c0,2.4,2,4.4,4.4,4.4c0.3,0,0.7,0,1-0.1c2.3-0.6,3.8-2.9,3.2-5.2c-0.1-0.6-0.4-1.2-0.8-1.7
		c0.9-0.3,1.7-0.9,2.2-1.6c0.8-1,1-2.4,0.7-3.6C85.8,76,83.5,74.6,81.2,75.2z M14.2,33c-0.2-0.2-0.2-0.4-0.2-0.6
		c0-0.1,0-0.3,0.1-0.4l11.4-19.8c0.1-0.2,0.3-0.3,0.5-0.4c0.2-0.1,0.4,0,0.6,0.1c0.1,0.1,0.2,0.2,0.3,0.3l5.8,9.9l5.7,9.9
		c0.2,0.4,0.1,0.9-0.3,1.1c-0.1,0.1-0.3,0.1-0.4,0.1H14.8C14.6,33.2,14.4,33.1,14.2,33z M59.2,65.3c0,1.6-1,3.1-2.5,3.7v-3.8
		c0-1.1-0.9-2-2-2c-1.1,0-2,0.9-2,2v4.1h-2.6v-4.1c0-1.1-0.9-2-2-2c-1.1,0-2,0.9-2,2v3.7c-1.4-0.7-2.3-2.1-2.3-3.6v-4.7h-3.9
		c-2.2,0-4-1.8-4-4v-9.8C36,39.4,43,33.4,51.4,33.4c8.4,0,15.4,6,15.5,13.4v9.8c0,2.2-1.8,4-4,4h-3.8V65.3z"/>
	<path d="M43.8,45.5c-2.5,0.4-4.2,2.7-3.8,5.2c0.4,2.5,2.7,4.2,5.2,3.8c2.5-0.4,4.2-2.7,3.8-5.2C48.6,46.8,46.3,45.1,43.8,45.5z"/>
	<circle cx="58.2" cy="50" r="4.5"/>
	<polygon points="49.1,59.2 53.6,59.2 51.4,55.8 	"/>
</g>
</svg>
