<?xml version="1.0" encoding="utf-8"?>
<!-- Generator: Adobe Illustrator 24.0.0, SVG Export Plug-In . SVG Version: 6.00 Build 0)  -->
<svg version="1.1" id="Layer_1" xmlns="http://www.w3.org/2000/svg" xmlns:xlink="http://www.w3.org/1999/xlink" x="0px" y="0px"
	 viewBox="0 0 100 100" style="enable-background:new 0 0 100 100;" xml:space="preserve">
<g>
	<path d="M52,44.6c-1.8-0.9-4-0.2-5,1.6l-7.5,13.8c0,0-0.1,0.1-0.2,0.1c-0.9-5.6-5.7-9.9-11.6-9.9c-6.5,0-11.7,5.2-11.7,11.7
		c0,5.9,4.4,10.8,10.1,11.6c0,0,0,0.1-0.1,0.1c-0.7,1.8-4.6,3-7.3,5.6s-3.9,11.3-3.9,11.3h26.3L43.9,75c0.1-0.5,0.2-1.1,0.4-1.6
		l9.5-24.1C54.5,47.5,53.7,45.4,52,44.6z"/>
	<path d="M85.9,29.2H57.8c0.1-0.2,0.2-0.4,0.2-0.6c0,0,0,0,0,0V18.2c0-0.5-0.1-0.9-0.3-1.3l-0.9-2.1v-2.6c0-0.7-0.5-1.2-1.2-1.2
		c0,0,0,0,0,0h-8.9c-0.7,0-1.2,0.5-1.2,1.2v2.6l-0.8,2.1c-0.2,0.4-0.2,0.8-0.2,1.2v10.5c0,0.2,0.1,0.5,0.2,0.6H14.9
		c-1.1,0-2,0.9-2,2s0.9,2,2,2h71c1.1,0,2-0.9,2-2S87,29.2,85.9,29.2z M46.2,19.9c0-0.7,0.5-1.2,1.2-1.2h7.7c0.7,0,1.2,0.5,1.2,1.2
		v5.8c0,0.7-0.5,1.2-1.2,1.2h-7.7c-0.7,0-1.2-0.5-1.2-1.2V19.9z"/>
	<polygon points="50.2,25.5 52.2,25.5 52.2,23.8 53.9,23.8 53.9,21.8 52.2,21.8 52.2,20 50.2,20 50.2,21.8 48.5,21.8 48.5,23.8 
		50.2,23.8 	"/>
</g>
</svg>
