<svg id="Layer_1" data-name="Layer 1" xmlns="http://www.w3.org/2000/svg" viewBox="0 0 100 100"><defs><style>.cls-1,.cls-2{fill:none;stroke:#000;stroke-miterlimit:10;stroke-width:4px;}.cls-2{stroke-linecap:round;}</style></defs><path class="cls-1" d="M50.82,35.47A18.11,18.11,0,0,0,47.38,48.3a18.21,18.21,0,0,0,36.31-2,18.12,18.12,0,0,0-3.57-10.82,3.75,3.75,0,0,0-3-1.5H53.83A3.77,3.77,0,0,0,50.82,35.47Z"/><line class="cls-2" x1="56.68" y1="88.34" x2="74.28" y2="88.34"/><line class="cls-1" x1="65.48" y1="49.23" x2="65.48" y2="88.34"/><path d="M47.38,48.3a18.21,18.21,0,0,0,36.31-2,19,19,0,0,0-.12-2H47.39A18.8,18.8,0,0,0,47.38,48.3Z"/><circle class="cls-1" cx="23.49" cy="26.45" r="13.77"/><path d="M15.32,15.37a13.7,13.7,0,0,0-2.92,2.92L31.65,37.54a13.7,13.7,0,0,0,2.92-2.92Z"/></svg>