<?xml version="1.0" encoding="utf-8"?>
<!-- Generator: Adobe Illustrator 24.2.3, SVG Export Plug-In . SVG Version: 6.00 Build 0)  -->
<svg version="1.1" id="Layer_1" xmlns="http://www.w3.org/2000/svg" xmlns:xlink="http://www.w3.org/1999/xlink" x="0px" y="0px"
	 viewBox="0 0 100 100" style="enable-background:new 0 0 100 100;" xml:space="preserve">
<g>
	<path d="M88.1,89.4l-2-12.2c-0.1-0.8-1.2-8.8-6.5-12.2c-4.2-2.6-16.4-5.9-20.8-7.1c0-0.3,0.1-0.6,0.1-0.9c6.6-5,10.8-14,10.8-23
		c0-14.4-10.3-26.1-23-26.1c-12.7,0-23,11.7-23,26.1c0,9.2,4.3,18.2,11,23.2c0,0.3,0.1,0.5,0.1,0.8c-4.7,1.2-16.3,4.4-20.3,6.9
		C9.2,68.3,8.1,76.3,8,77.2L5.8,89.8c-0.2,1.1,0.5,2.1,1.6,2.3c0.1,0,0.2,0,0.4,0c1,0,1.8-0.7,2-1.7L12,77.8l0-0.1
		c0-0.1,0.8-6.9,4.7-9.4c2.9-1.8,11.4-4.4,17.1-5.9v11.5c-2.6,0.8-4.5,3.3-4.5,6.2c0,3.6,2.9,6.5,6.5,6.5s6.5-2.9,6.5-6.5
		c0-2.9-1.9-5.4-4.5-6.2v-8.2c2.2,3.2,5.4,5.6,9,5.6c3.5,0,6.7-2.3,8.9-5.4v4.1l-2.5,1.4c-2.9,1.6-4.7,4.7-4.7,8v2.6
		c0,1.9,1.5,3.4,3.4,3.4h1.4v-4h-0.8v-2c0-1.9,1-3.6,2.6-4.5l2.6-1.5l2.6,1.5c1.6,0.9,2.6,2.6,2.6,4.5v2h-0.8v4h1.4
		c1.9,0,3.4-1.5,3.4-3.4v-2.6c0-3.3-1.8-6.4-4.7-8l-2.5-1.4v-7.7c5.7,1.5,14.7,4.2,17.7,6.1c3.9,2.5,4.7,9.3,4.7,9.4l2,12.3
		c0.2,1,1,1.7,2,1.7c0.1,0,0.2,0,0.3,0C87.5,91.5,88.3,90.4,88.1,89.4z M38.4,80.2c0,1.4-1.1,2.5-2.5,2.5s-2.5-1.1-2.5-2.5
		s1.1-2.5,2.5-2.5S38.4,78.8,38.4,80.2z M46.8,67.3c-3.2,0-6.2-3.6-7.5-7.4c2.5,1.1,4.9,1.6,7.3,1.6c2.5,0,5-0.6,7.7-1.7
		C53.1,63.6,50,67.3,46.8,67.3z M38,54.7c-0.1-0.1-0.1-0.1-0.2-0.2C31.7,50.3,27.7,42.3,27.7,34c0-12.2,8.5-22.1,19-22.1
		s19,9.9,19,22.1c0,8.2-3.9,16.2-9.9,20.4c-0.1,0.1-0.2,0.2-0.3,0.3C49.1,58.4,44.2,58.4,38,54.7z"/>
	<path d="M90.8,22.1c1,2.2,1.5,4.5,1.5,6.9c0,9.7-2.5,18.6-9.4,25.8c-1.6,1.7-3.4,3.3-5.8,3.9c-3.2,0.8-6-0.4-8.5-2.3
		c-1.1-0.8-1-1.4-0.3-2.5c1.3-2.1,2.7-4.2,4-6.3c0.7-1.1,1.1-1.2,2.3-0.8s2.2,0.9,3.3,1.4c1.5,0.6,2,0.6,3-0.8
		c0.9-1.2,1.6-2.5,2.2-3.8c1.5-3.8,2.4-7.8,2.8-11.8c0.2-1.5-0.1-1.9-1.6-2.3c-1.1-0.3-2.2-0.4-3.3-0.7c-1.4-0.4-1.7-0.8-1.6-2.2
		c0.2-2.5,0.4-5,0.5-7.5c-0.1-0.7,0.4-1.3,1.1-1.5c3.3-0.7,6.7,0.6,8.8,3.4C90.2,21.2,90.5,21.8,90.8,22.1z"/>
</g>
</svg>
