<?xml version="1.0" encoding="utf-8"?>
<!-- Generator: Adobe Illustrator 24.0.0, SVG Export Plug-In . SVG Version: 6.00 Build 0)  -->
<svg version="1.1" id="Layer_1" xmlns="http://www.w3.org/2000/svg" xmlns:xlink="http://www.w3.org/1999/xlink" x="0px" y="0px"
	 viewBox="0 0 100 100" style="enable-background:new 0 0 100 100;" xml:space="preserve">
<g>
	<polygon points="69.5,22.3 73.3,20.1 77.3,22 76.4,17.7 79.4,14.5 75.1,14 73,10.2 71.2,14.2 66.8,15 70.1,17.9 	"/>
	<path d="M13.5,32.2c0.3,0.2,0.7,0.3,1,0.3c0.7,0,1.3-0.3,1.7-1c0.6-0.9,0.3-2.2-0.7-2.8c-0.6-0.3-0.9-0.9-1-1.6
		c0.1-1.6,5.1-5.6,20.2-8c1.1-0.2,1.8-1.2,1.7-2.3c-0.2-1.1-1.2-1.8-2.3-1.7c-7.2,1.1-23.8,4.6-23.5,12.1c0,0.1,0,0.1,0,0.2
		C10.8,29.5,11.9,31.2,13.5,32.2z"/>
	<path d="M54,17.7c3-0.1,6.1,0,9.1,0.2c0,0,0.1,0,0.1,0c1,0,1.9-0.8,2-1.9c0.1-1.1-0.8-2.1-1.9-2.1c-3.1-0.2-6.3-0.3-9.5-0.2
		c-1.1,0-2,0.9-1.9,2C52,16.8,52.9,17.7,54,17.7z"/>
	<path d="M44,46.8L44,46.8l0.1,0c1.7-0.1,3.4-0.5,4.8-1.3c1-0.5,1.4-1.7,0.8-2.7c-0.5-1-1.7-1.4-2.7-0.8c-1,0.5-2,0.8-3.1,0.9
		c-1,0-1.9-0.3-2.7-0.9c-0.9-0.6-2.2-0.4-2.8,0.5c-0.6,0.9-0.4,2.2,0.5,2.8C40.5,46.3,42.2,46.8,44,46.8z"/>
	<path d="M53.6,44.8c1.5,1,3.2,1.6,5,1.6l0.1,0l0.1,0c1.7-0.1,3.3-0.5,4.8-1.3c1-0.5,1.4-1.7,0.9-2.7s-1.7-1.4-2.7-0.9
		c-1,0.5-2,0.8-3.1,0.8c-1,0-1.9-0.3-2.7-0.9c-0.9-0.6-2.2-0.4-2.8,0.5C52.4,43,52.6,44.2,53.6,44.8z"/>
	<path d="M93.3,89.8c0-0.4-1.1-9.2-6.8-12.8c-4.5-2.9-18.4-6.5-22.3-7.5c6.4-5.2,10.5-14,10.5-23c0-3.6-0.6-7-1.8-10.1
		C81.6,34.6,88.2,32,91,29c1.2-1.3,1.8-2.7,1.7-4.1c-0.1-3.4-3.5-6.1-10.2-8.1c-1.1-0.3-2.2,0.3-2.5,1.3c-0.3,1.1,0.3,2.2,1.3,2.5
		c5.8,1.7,7.3,3.6,7.4,4.4c0,0.4-0.4,0.9-0.7,1.3c-2.1,2.3-8.1,4.7-17,6.3C67,25,59.7,19.9,51.3,19.9c-0.9,0-1.9,0.1-2.8,0.2l-0.9-4
		l3-3.2l-4.4-0.5l-2.1-3.9l-1.8,4L38,13.4l3.3,3l-0.6,4.4l3.8-2.2l3.5,1.7c-6.3,1-11.9,4.9-15.5,10.4l-4.3-0.4l-2.1-3.9l-1.8,4
		l-4.3,0.8l3.3,3l-0.6,4.4l3.8-2.2l2.7,1.3c-0.9,2.8-1.4,5.8-1.4,8.9c0,9.1,4.1,17.9,10.7,23.1c-4.5,1.2-17.4,4.6-21.7,7.4
		c-5.7,3.7-6.8,12.5-6.8,12.8c-0.1,1.1,0.7,2.1,1.8,2.2c0.1,0,0.1,0,0.2,0c1,0,1.9-0.8,2-1.8c0.2-2,1.6-7.7,5-9.9
		c3.6-2.3,15.2-5.5,20.8-6.9C41.5,79,46,84.2,51.4,84.2c5.4,0,10-5.3,11.6-11c5.4,1.4,17.6,4.7,21.3,7.1c4.1,2.6,5,9.8,5,9.9
		c0.1,1,1,1.8,2,1.8c0.1,0,0.1,0,0.2,0C92.6,91.9,93.4,90.9,93.3,89.8z M51.3,23.9c6.4,0,12.2,3.7,15.7,9.3c-4.5,0.6-9.5,1.1-15,1.3
		c-5.3,0.2-10.8,0-16.1-0.4c-0.3,0-0.5,0-0.8,0.1C38.5,28,44.5,23.9,51.3,23.9z M29.6,33.8l2.6-2.8c-0.9,1.4-1.6,2.9-2.3,4.5
		L29.6,33.8z M31.9,46.4c0-3.4,0.7-6.7,1.9-9.6c0.3,0.7,0.9,1.2,1.7,1.3c4,0.3,8,0.5,12,0.5c1.5,0,3.1,0,4.6-0.1
		c6-0.2,11.7-0.7,16.8-1.5c1.1,2.9,1.8,6,1.8,9.4c0,8.3-4,16.5-10.1,20.8c-0.1,0.1-0.2,0.2-0.3,0.3c-6.4,3.8-11.4,3.8-17.6,0.1
		c-0.1-0.1-0.2-0.2-0.3-0.3C36,63,31.9,54.8,31.9,46.4z M51.4,80.2c-3.2,0-6.3-3.6-7.6-7.5c2.5,1.1,5,1.7,7.4,1.7
		c2.6,0,5.1-0.6,7.8-1.8C57.7,76.5,54.6,80.2,51.4,80.2z"/>
</g>
</svg>
