<svg id="Layer_1" data-name="Layer 1" xmlns="http://www.w3.org/2000/svg" viewBox="0 0 100 100"><defs><style>.cls-1,.cls-2{fill:none;stroke:#000;stroke-miterlimit:10;stroke-width:4px;}.cls-2{stroke-linecap:round;}</style></defs><path d="M54.93,89.77a26.6,26.6,0,0,1-11-2.46C29.7,80.73,18.45,71.12,12.6,56.16,11.23,52.64,10,49,10.78,45.1c1.07-5.23,4.57-8.54,9.12-10.83,1.94-1,2.74-.58,3.92,1.22q3.3,5,6.58,10c1.1,1.7,1.09,2.47-.32,3.92s-2.87,2.63-4.28,4c-1.9,1.82-2.15,2.53-.86,4.82A29.22,29.22,0,0,0,29.05,64,73.06,73.06,0,0,0,44.41,76.06c2.15,1.3,2.86,1.14,4.41-.81,1.11-1.41,2.11-2.9,3.25-4.28,1.49-1.82,2.33-2,4.35-.88C60,72,63.51,74,67.11,75.89a2.18,2.18,0,0,1,1.26,2.83c-1.49,5.69-5.27,9.07-10.82,10.6A24.09,24.09,0,0,1,54.93,89.77Z"/><circle class="cls-1" cx="72.5" cy="26.88" r="14.98"/><line class="cls-2" x1="65.13" y1="26.43" x2="80.18" y2="26.43"/><line class="cls-2" x1="72.65" y1="33.96" x2="72.65" y2="18.9"/><path class="cls-2" d="M42.52,48.51a8,8,0,0,1,7.95,8"/><path class="cls-2" d="M43.07,40.52a14.8,14.8,0,0,1,14.8,14.8"/></svg>