<svg id="Layer_1" data-name="Layer 1" xmlns="http://www.w3.org/2000/svg" viewBox="0 0 100 100"><defs><style>.cls-1,.cls-2,.cls-3,.cls-4{fill:none;stroke:#000;}.cls-1{stroke-linecap:round;}.cls-1,.cls-2,.cls-3{stroke-miterlimit:10;}.cls-1,.cls-2,.cls-4{stroke-width:4px;}.cls-3{stroke-width:3.88px;}.cls-4{stroke-linejoin:round;}</style></defs><path class="cls-1" d="M41.94,52.18c-3.1,8.93.18,15.79.74,16.64"/><polyline class="cls-1" points="46.26 63.2 42.38 69.8 36.2 65.93"/><circle class="cls-2" cx="25.11" cy="24.57" r="13.77"/><path d="M17,13.49A13.7,13.7,0,0,0,14,16.41L33.28,35.66a13.94,13.94,0,0,0,2.92-2.92Z"/><path d="M30.29,71.59l-1.28-3h0V64.69a1.78,1.78,0,0,0-1.78-1.78h-13a1.78,1.78,0,0,0-1.78,1.78v3.85l-1.19,3.12a5.1,5.1,0,0,0-.34,1.81V88.75a1.76,1.76,0,0,0,1.76,1.76H28.93a1.75,1.75,0,0,0,1.75-1.76V73.56A5.09,5.09,0,0,0,30.29,71.59Zm-2.1,12.94a1.75,1.75,0,0,1-1.75,1.75H15.17a1.75,1.75,0,0,1-1.75-1.75V76a1.75,1.75,0,0,1,1.75-1.75H26.44A1.75,1.75,0,0,1,28.19,76Z"/><line class="cls-3" x1="16.82" y1="80.21" x2="24.74" y2="80.21"/><line class="cls-3" x1="20.78" y1="84.17" x2="20.78" y2="76.26"/><path class="cls-4" d="M79.71,24.41c0-7.24-5.11-13.1-11.41-13.1s-11.41,5.86-11.41,13.1a14.75,14.75,0,0,0,6,12.05h0c0,3,2.45,8.49,5.49,8.49s5.48-5.46,5.48-8.49v-.09A14.77,14.77,0,0,0,79.71,24.41Z"/><path class="cls-1" d="M47.94,47.54s.47-4.24,3.06-5.89,11.77-3.9,11.77-3.9"/><path class="cls-1" d="M88.63,47.54s-.47-4.24-3.06-5.89-11.78-3.9-11.78-3.9"/><path class="cls-4" d="M79.71,65.36c0-7.23-5.11-13.1-11.41-13.1s-11.41,5.87-11.41,13.1a14.77,14.77,0,0,0,6,12.06h0c0,3,2.45,8.48,5.49,8.48s5.48-5.45,5.48-8.48v-.09A14.77,14.77,0,0,0,79.71,65.36Z"/><path class="cls-1" d="M47.94,88.49s.47-4.23,3.06-5.88,11.77-3.9,11.77-3.9"/><path class="cls-1" d="M88.63,88.49s-.47-4.23-3.06-5.88-11.78-3.9-11.78-3.9"/><path class="cls-4" d="M63.41,37c3.42,2.13,6.29,2.13,9.78,0"/><path class="cls-4" d="M63.41,77.91c3.42,2.13,6.29,2.13,9.78,0"/></svg>