<?xml version="1.0" encoding="utf-8"?>
<!-- Generator: Adobe Illustrator 24.0.0, SVG Export Plug-In . SVG Version: 6.00 Build 0)  -->
<svg version="1.1" id="Layer_1" xmlns="http://www.w3.org/2000/svg" xmlns:xlink="http://www.w3.org/1999/xlink" x="0px" y="0px"
	 viewBox="0 0 100 100" style="enable-background:new 0 0 100 100;" xml:space="preserve">
<path d="M84.2,58.2h-1l-2.5-7.5l0,0c-0.8-2.2-2.6-3.7-4.7-4.4l-4.5-17.5c0.9-0.7,1.5-1.9,1.5-3.1v-0.4c0-2.2-1.8-4.1-4-4.1H31.1
	c-2.2,0-4,1.8-4,4.1v0.4c0,1.3,0.6,2.4,1.5,3.1l-4.4,17.5c-2.1,0.6-3.9,2.2-4.7,4.4l-2.5,7.5h-1.1c-2.1,0-3.9,1.8-3.9,3.9v1.1
	c0,2.2,1.8,3.9,3.9,3.9h9.8v5.1c0,3.6,2.9,6.5,6.5,6.5c3.6,0,6.5-2.9,6.5-6.5v-5.1h22.6v5.1c0,1.7,0.7,3.4,1.9,4.6
	c1.2,1.2,2.9,1.9,4.6,1.9c0,0,0,0,0,0c3.6,0,6.5-2.9,6.5-6.5v-5.1h9.8c2.2,0,3.9-1.8,3.9-3.9v-1.1C88.1,60,86.3,58.2,84.2,58.2z
	 M67.6,29.7L71.8,46l-2.5,0c0.1-0.5,0.1-1,0.1-1.5c0-4.5-3.7-8.2-8.2-8.2S53,40,53,44.5c0,0.5,0.1,1,0.1,1.5l-24.7,0l4.1-16.3H67.6z
	 M57,44.5c0-2.3,1.9-4.2,4.2-4.2s4.2,1.9,4.2,4.2c0,0.5-0.1,1-0.3,1.5l-7.9,0C57.1,45.5,57,45,57,44.5z M73,53.8
	c0,1.7-1.4,3.1-3.1,3.1c-1.7,0-3.1-1.4-3.1-3.1c0-1.7,1.4-3.1,3.1-3.1C71.6,50.6,73,52,73,53.8z M28,51.6c0.6-0.6,1.4-0.9,2.2-0.9
	c0,0,0,0,0,0c0.8,0,1.6,0.3,2.2,0.9c0.6,0.6,0.9,1.4,0.9,2.2c0,0.8-0.3,1.6-0.9,2.2c-0.6,0.6-1.4,0.9-2.2,0.9
	c-0.8,0-1.6-0.3-2.2-0.9c-0.6-0.6-0.9-1.4-0.9-2.2C27.1,52.9,27.4,52.2,28,51.6z M31.1,25.2C31.1,25.2,31.1,25.1,31.1,25.2H69l0,0.5
	l-37.9-0.1V25.2z M34.7,72.2c0,1.4-1.1,2.5-2.5,2.5c-1.4,0-2.5-1.1-2.5-2.5v-5.1h5.1V72.2z M70.3,72.2c0,1.4-1.1,2.5-2.5,2.5
	c0,0,0,0,0,0c-0.7,0-1.3-0.3-1.8-0.7c-0.5-0.5-0.7-1.1-0.7-1.8v-5.1h5.1V72.2z M74.3,63.1L74.3,63.1l-13.1,0v0l-22.6,0v0H25.6v0.1
	l-9.7,0l-0.1-1h68.3l0.1,0.9L74.3,63.1z"/>
</svg>
