<svg id="Layer_1" data-name="Layer 1" xmlns="http://www.w3.org/2000/svg" viewBox="0 0 100 100"><defs><style>.cls-1,.cls-2,.cls-3,.cls-4{fill:none;stroke:#000;}.cls-1,.cls-2,.cls-4{stroke-miterlimit:10;}.cls-1,.cls-3,.cls-4{stroke-width:4px;}.cls-2{stroke-width:3.88px;}.cls-3{stroke-linejoin:round;}.cls-4{stroke-linecap:round;}</style></defs><circle class="cls-1" cx="24.7" cy="25.48" r="13.77"/><path d="M16.54,14.39a14.18,14.18,0,0,0-2.92,2.92L32.87,36.56a13.7,13.7,0,0,0,2.92-2.92Z"/><path d="M29.88,56.77,28.6,53.72h0V49.88a1.79,1.79,0,0,0-1.78-1.79h-13A1.79,1.79,0,0,0,12,49.88v3.85l-1.19,3.11a5.14,5.14,0,0,0-.33,1.82V73.94a1.75,1.75,0,0,0,1.75,1.75H28.53a1.75,1.75,0,0,0,1.75-1.75V58.75A5.19,5.19,0,0,0,29.88,56.77Zm-2.1,12.95A1.75,1.75,0,0,1,26,71.47H14.76A1.76,1.76,0,0,1,13,69.72V61.2a1.75,1.75,0,0,1,1.75-1.75H26a1.75,1.75,0,0,1,1.75,1.75Z"/><line class="cls-2" x1="16.42" y1="65.4" x2="24.33" y2="65.4"/><line class="cls-2" x1="20.37" y1="69.36" x2="20.37" y2="61.44"/><path class="cls-3" d="M79.31,25.31c0-7.23-5.11-13.1-11.42-13.1s-11.41,5.87-11.41,13.1a14.73,14.73,0,0,0,6,12.05h0c0,3,2.46,8.49,5.49,8.49s5.49-5.45,5.49-8.49a.25.25,0,0,0,0-.08A14.75,14.75,0,0,0,79.31,25.31Z"/><path class="cls-4" d="M47.53,48.44s.47-4.23,3.06-5.88,11.77-3.9,11.77-3.9"/><path class="cls-4" d="M88.22,48.44s-.47-4.23-3.06-5.88-11.77-3.9-11.77-3.9"/><path class="cls-3" d="M79.31,66.27c0-7.24-5.11-13.1-11.42-13.1S56.48,59,56.48,66.27a14.75,14.75,0,0,0,6,12h0c0,3,2.46,8.49,5.49,8.49s5.49-5.46,5.49-8.49a.28.28,0,0,0,0-.09A14.75,14.75,0,0,0,79.31,66.27Z"/><path class="cls-4" d="M47.53,89.4s.47-4.24,3.06-5.89,11.77-3.9,11.77-3.9"/><path class="cls-4" d="M88.22,89.4s-.47-4.24-3.06-5.89-11.77-3.9-11.77-3.9"/><polyline class="cls-4" points="42.85 51.44 34.09 59.93 42.85 68.41"/><path class="cls-3" d="M63,37.86c3.42,2.13,6.3,2.13,9.78,0"/><path class="cls-3" d="M63,78.81c3.42,2.13,6.3,2.13,9.78,0"/></svg>