<?xml version="1.0" encoding="utf-8"?>
<!-- Generator: Adobe Illustrator 24.0.0, SVG Export Plug-In . SVG Version: 6.00 Build 0)  -->
<svg version="1.1" id="Layer_1" xmlns="http://www.w3.org/2000/svg" xmlns:xlink="http://www.w3.org/1999/xlink" x="0px" y="0px"
	 viewBox="0 0 100 100" style="enable-background:new 0 0 100 100;" xml:space="preserve">
<g>
	<path d="M70.8,57.8h-0.4c-1.4,0-2.8,0.6-3.8,1.7s-1.5,2.4-1.5,3.8v1l0,9.9c0,3,2.5,5.5,5.5,5.5c0,0,0,0,0,0c1.5,0,2.8-0.6,3.9-1.6
		c1-1,1.6-2.4,1.6-3.9l0-10.8c0-0.1,0-0.2,0-0.3C76,60.2,73.7,57.9,70.8,57.8z M72.4,75.9c-0.5,0.5-1.1,0.7-1.8,0.7c0,0,0,0,0,0
		c-1.4,0-2.5-1.1-2.5-2.5l0-4.3h5l0,4.3C73.1,74.8,72.8,75.4,72.4,75.9z"/>
	<path d="M90.9,70.9L86,66l-5.9,3c-0.7,0.4-1,1.3-0.6,2c0.4,0.7,1.3,1,2,0.6l2.4-1.2c-0.8,6.6-6.5,11.8-13.4,11.8
		c-7.4,0-13.5-6.1-13.5-13.5s6.1-13.5,13.5-13.5c0.8,0,1.5-0.7,1.5-1.5s-0.7-1.5-1.5-1.5c-9.1,0-16.5,7.4-16.5,16.5
		s7.4,16.5,16.5,16.5c8.3,0,15.2-6.2,16.3-14.1l1.9,1.9c0.3,0.3,0.7,0.4,1.1,0.4c0.4,0,0.8-0.1,1.1-0.4
		C91.5,72.4,91.5,71.5,90.9,70.9z"/>
	<path d="M37.8,23.8H19.8c-4,0-7.3,3.3-7.3,7.3v47.8c0,4,3.3,7.3,7.3,7.3h18.1c4,0,7.3-3.3,7.3-7.3V31.1
		C45.2,27.1,41.9,23.8,37.8,23.8z M41.2,78.9c0,1.8-1.5,3.3-3.3,3.3H19.8c-1.8,0-3.3-1.5-3.3-3.3V31.1c0-1.8,1.5-3.3,3.3-3.3h18.1
		c1.8,0,3.3,1.5,3.3,3.3V78.9z"/>
	<path d="M28.4,36.4c0.1-1-0.3-2-1-2.8c-1-0.9-2.3-1.3-3.6-1.2h-4.3c0,0,0,0,0,0c-0.7,0-1.3,0.6-1.3,1.3v9.7c0,0.7,0.6,1.3,1.4,1.3
		c0.7,0,1.3-0.6,1.3-1.3v-2.7h2.2l2.6,3.3c0.3,0.4,0.8,0.7,1.3,0.7c0,0,0,0,0,0c0.7,0,1.3-0.5,1.3-1.2c0-0.4-0.2-0.7-0.4-1L26,40.2
		C27.6,39.6,28.5,38.1,28.4,36.4z M23.7,38.3l-2.7,0v-3.5h2.7c1.3,0,2.1,0.6,2.1,1.8C25.7,37.6,25,38.3,23.7,38.3z"/>
	<path d="M36,39.8l2.3-2.7c0.2-0.3,0.4-0.6,0.4-0.9c0,0,0,0,0-0.1c0-0.7-0.6-1.1-1.2-1.1c-0.5,0-0.9,0.3-1.2,0.7l-1.8,2.3l-1.7-2.3
		c-0.3-0.4-0.7-0.7-1.2-0.7c0,0-0.1,0-0.1,0c-0.7,0-1.2,0.6-1.1,1.2c0,0.4,0.2,0.7,0.4,1l2.2,2.5l-2.4,2.8c-0.2,0.2-0.4,0.6-0.4,0.9
		c0,0,0,0,0,0.1c0,0.6,0.6,1.1,1.2,1.1c0.5,0,0.9-0.3,1.2-0.7l1.9-2.5l1.9,2.5c0.3,0.4,0.7,0.7,1.2,0.7c0,0,0.1,0,0.1,0
		c0.7,0,1.2-0.6,1.1-1.2c0-0.4-0.2-0.7-0.4-1L36,39.8z"/>
</g>
</svg>
