<?xml version="1.0" encoding="utf-8"?>
<!-- Generator: Adobe Illustrator 24.0.0, SVG Export Plug-In . SVG Version: 6.00 Build 0)  -->
<svg version="1.1" id="Layer_1" xmlns="http://www.w3.org/2000/svg" xmlns:xlink="http://www.w3.org/1999/xlink" x="0px" y="0px"
	 viewBox="0 0 100 100" style="enable-background:new 0 0 100 100;" xml:space="preserve">
<g>
	<path d="M51.4,42c-2.4,0-4.7,1-6.4,2.8c-0.5,0.5-1,1.1-1.3,1.7c-0.9,1.4-1.5,3.2-1.5,5v19.7c0,5.1,4.2,9.3,9.3,9.3h0
		c5.1,0,9.3-4.2,9.3-9.3v-8.8H61V51.2c0.1-5-3.9-9.2-9-9.3H51.4z M56.8,71.2c0,2.9-2.4,5.3-5.3,5.3h0c-2.9,0-5.3-2.4-5.3-5.3v-8.8
		h10.6V71.2z"/>
	<path d="M87.8,65.9l-8.2-8.3l-9.9,5.1c-0.7,0.4-1,1.3-0.6,2c0.4,0.7,1.3,1,2,0.6l5.9-3c-0.7,13.4-11.8,24.1-25.3,24.1
		c-14,0-25.4-11.4-25.4-25.4s11.4-25.4,25.4-25.4c1.1,0,2-0.9,2-2s-0.9-2-2-2c-6,0-11.6,1.8-16.2,4.9c3.2-2.9,5.2-7,5.2-11.6
		c0-8.7-7.1-15.8-15.8-15.8S9,16.4,9,25s7.1,15.8,15.8,15.8c3,0,5.7-0.8,8.1-2.3c-6.5,5.4-10.6,13.5-10.6,22.6
		c0,16.2,13.2,29.4,29.4,29.4c15.5,0,28.2-12,29.3-27.3l4.8,4.8c0.3,0.3,0.7,0.4,1.1,0.4c0.4,0,0.8-0.1,1.1-0.4
		C88.4,67.5,88.4,66.5,87.8,65.9z M36.6,25c0,2.5-0.8,4.8-2.1,6.7L18.1,15.4c1.9-1.3,4.2-2.1,6.7-2.1C31.3,13.3,36.6,18.6,36.6,25z
		 M13,25c0-2.5,0.8-4.8,2.1-6.7l16.4,16.3c-1.9,1.3-4.2,2.1-6.7,2.1C18.3,36.8,13,31.5,13,25z"/>
</g>
</svg>
