<?xml version="1.0" encoding="utf-8"?>
<!-- Generator: Adobe Illustrator 24.0.0, SVG Export Plug-In . SVG Version: 6.00 Build 0)  -->
<svg version="1.1" id="Layer_1" xmlns="http://www.w3.org/2000/svg" xmlns:xlink="http://www.w3.org/1999/xlink" x="0px" y="0px"
	 viewBox="0 0 100 100" style="enable-background:new 0 0 100 100;" xml:space="preserve">
<g>
	<path d="M25.5,9.7c-8.7,0-15.8,7.1-15.8,15.8s7.1,15.8,15.8,15.8c8.7,0,15.8-7.1,15.8-15.8S34.2,9.7,25.5,9.7z M13.7,25.5
		c0-2.5,0.8-4.8,2.1-6.7l16.4,16.4c-1.9,1.3-4.2,2.1-6.7,2.1C19,37.3,13.7,32,13.7,25.5z M35.2,32.2L18.8,15.9
		c1.9-1.3,4.2-2.1,6.7-2.1c6.5,0,11.8,5.3,11.8,11.8C37.3,28,36.5,30.3,35.2,32.2z"/>
	<path d="M80.6,23.1C80.6,23.1,80.6,23.1,80.6,23.1c-0.5,0-1,0-1.4,0.1l-0.3,0.1v-1.1c0-4-3.2-7.2-7.1-7.2h-0.1
		c-1.3,0-2.5,0.3-3.6,1c-1-1.3-2.5-2.3-4.1-2.6c-0.5-0.1-0.9-0.1-1.4-0.1l0,0c-1.9,0-3.7,0.7-5,2.1c-0.4,0.4-0.7,0.8-1,1.2
		c-0.9-0.3-1.8-0.5-2.7-0.5c-4,0-7.2,3.2-7.2,7.2L46.5,42c-0.6-0.1-1.2-0.2-1.8-0.2c-0.5,0-1,0-1.4,0.1c-3.4,0.7-5.8,3.7-5.8,7.1
		l-0.1,17.5c0,1.7,0.1,3.4,0.3,5.1c1.4,11.7,10.8,20.8,22.5,21.9c1.5,0.1,3,0.2,4.4,0.2h0.1c12.6,0,22.8-10.2,22.9-22.8l0.2-40.7
		C87.7,26.3,84.5,23.1,80.6,23.1z M83.7,30.3L83.6,71c-0.1,10.4-8.5,18.8-18.9,18.8h-0.1c-1.3,0-2.6-0.1-4-0.2
		c-9.8-1-17.7-8.7-18.9-18.5c-0.2-1.5-0.3-3.1-0.3-4.6l0-17.5c0-1.5,1-2.9,2.5-3.2c0.2,0,0.4-0.1,0.7-0.1c1.7,0,3.2,1.4,3.2,3.2
		c0,0,0,0,0,0v9.2c0,0.7,0.5,1.2,1.2,1.3h0.1c0.7,0,1.3-0.6,1.3-1.3l0.1-34.9c0-1.8,1.4-3.2,3.2-3.2c1.8-0.1,3.2,1.3,3.3,3.1
		l-0.2,26.6c0,0.7,0.6,1.3,1.3,1.3c0,0,0,0,0,0c0.1,0,0.2,0,0.3,0c0.6-0.2,1-0.7,1-1.4l-0.1-29.4c0-1.7,1.3-3,3-3l0,0
		c0.2,0,0.4,0,0.6,0.1c1.4,0.3,2.4,1.6,2.4,3.1L65.5,49c0,0.7,0.6,1.3,1.3,1.3c0.7,0,1.3-0.6,1.4-1.3c0,0,0,0,0,0l0-26.7
		c0-1.8,1.5-3.3,3.3-3.3c0,0,0,0,0,0h0.1c1.8,0,3.2,1.4,3.2,3.2l-0.2,28c0,0.7,0.6,1.3,1.4,1.3c0.7,0,1.3-0.6,1.3-1.3l0.1-19.8
		c0-1.5,1-2.9,2.5-3.2c0.2,0,0.4-0.1,0.6-0.1C82.3,27.1,83.7,28.5,83.7,30.3C83.7,30.3,83.7,30.3,83.7,30.3z"/>
	<path d="M81.1,65c-0.3-0.5-0.6-1-0.7-1.5c-0.1-0.3-0.1-0.7,0-1l0.2-0.8l-0.8,0.2c-0.1,0-1.9,0.6-2,3.5c0,0.2,0,0.3,0,0.5
		c-0.3-0.6-0.8-1.9-1.1-3c-0.3-1.4-0.5-2.8-0.6-4.1L76,57.9l-0.7,0.3c-1.5,0.8-2.7,2.1-3.2,3.7c-0.6,1.6-0.4,3.4-0.3,4.8
		c0.1,0.7,0.1,1.3,0.1,1.8c-0.4-0.5-1.1-2-1.4-3.5l-0.2-0.8l-0.6,0.5c0,0-4.3,3.9-0.2,9c1.3,1.6,3.2,2.6,5.3,2.6
		c0.4,0,0.8,0,1.2-0.1c2.7-0.4,4.9-2.2,5.8-4.6c0.5-1.4,0.6-3,0.3-4.5C81.8,66.3,81.4,65.7,81.1,65z"/>
	<path d="M54.3,67c-3.8,0-6.8,3.1-6.8,6.8c0,3.8,3.1,6.8,6.8,6.8c3.8,0,6.8-3.1,6.8-6.8C61.2,70.1,58.1,67,54.3,67z"/>
	<path d="M58.6,53.1c-3.2,0-5.9,2.6-5.9,5.9s2.6,5.9,5.9,5.9c3.2,0,5.9-2.6,5.9-5.9S61.8,53.1,58.6,53.1z"/>
</g>
</svg>
