<svg id="Layer_1" data-name="Layer 1" xmlns="http://www.w3.org/2000/svg" viewBox="0 0 100 100"><defs><style>.cls-1,.cls-3{fill:none;stroke-width:4px;}.cls-1,.cls-2,.cls-3{stroke:#000;stroke-miterlimit:10;}.cls-3{stroke-linecap:round;}</style></defs><path class="cls-1" d="M25.6,58.05V44.65a2.94,2.94,0,0,0-2.94-2.94H14.54a2.93,2.93,0,0,0-2.94,2.94V86.83a2.94,2.94,0,0,0,2.94,2.94H45.35a2.93,2.93,0,0,0,2.9-2.46L50.34,74.7l3.58-1.11a9.89,9.89,0,0,0,7-9.45V62H29.58A4,4,0,0,1,25.6,58.05Z"/><path d="M64.59,24.8c-2.87-2.41-8.46-5.17-18.87,5.07S31.14,52.55,36.24,57.59s12.8,4,12.8,4l10.48.07a2.94,2.94,0,0,1,2.91,2.66L64.5,86.24a5.85,5.85,0,0,0,6.16,5.29h0a5.85,5.85,0,0,0,5.5-6.29L73.64,52.87a2.94,2.94,0,0,0-2.89-2.71l-18.65-.3S61.74,39.2,65.37,35.59C69.28,31.7,65.9,25.89,64.59,24.8Z"/><circle class="cls-2" cx="70.72" cy="22.7" r="8.67"/><path d="M57.83,53c-.18-1.12-2.23-5.67-2.26-5.89-.56-3.58-1-7.7.17-11.19a55.39,55.39,0,0,1,2.62-6.15,3.7,3.7,0,1,1,6.88,2.7s-2.62,5.17-2.84,7.06c-.25,2.2,1.78,9.43,2.11,12Z"/><path class="cls-3" d="M36.56,18.81a8,8,0,0,0-8,8"/><path class="cls-3" d="M36,10.82a14.81,14.81,0,0,0-14.81,14.8"/></svg>