<svg id="Layer_1" data-name="Layer 1" xmlns="http://www.w3.org/2000/svg" viewBox="0 0 100 100"><defs><style>.cls-1,.cls-2{fill:none;stroke:#000;stroke-miterlimit:10;stroke-width:4px;}.cls-2{stroke-linecap:round;}</style></defs><circle class="cls-1" cx="23.94" cy="26.89" r="13.77"/><path d="M15.78,15.81a13.48,13.48,0,0,0-2.92,2.92L32.11,38A13.94,13.94,0,0,0,35,35.06Z"/><path class="cls-1" d="M16.17,64.41H89.83a0,0,0,0,1,0,0V79.3a0,0,0,0,1,0,0H16.17a6,6,0,0,1-6-6V70.41A6,6,0,0,1,16.17,64.41Z"/><path d="M16.17,64.41a6,6,0,0,0-6,6V73.3a6,6,0,0,0,6,6H39.59V64.41Z"/><line class="cls-1" x1="82.83" y1="64.41" x2="82.83" y2="79.3"/><line class="cls-1" x1="75.83" y1="64.41" x2="75.83" y2="79.3"/><path class="cls-2" d="M71.94,24.62H68.73a4.07,4.07,0,0,0-4.07,4.07h0a4.07,4.07,0,0,0,4.07,4.07h9.83A3.22,3.22,0,0,1,81.78,36h0a3.22,3.22,0,0,1-3.22,3.22h-4a3.66,3.66,0,0,0-3.67,3.66h0a3.67,3.67,0,0,0,3.67,3.67h7.31a3,3,0,0,1,3,3v2.94"/></svg>