<?xml version="1.0" encoding="utf-8"?>
<!-- Generator: Adobe Illustrator 24.0.0, SVG Export Plug-In . SVG Version: 6.00 Build 0)  -->
<svg version="1.1" id="Layer_1" xmlns="http://www.w3.org/2000/svg" xmlns:xlink="http://www.w3.org/1999/xlink" x="0px" y="0px"
	 viewBox="0 0 100 100" style="enable-background:new 0 0 100 100;" xml:space="preserve">
<g>
	<path d="M62.7,38.4c1-1.1,2-2.1,2.7-2.8c1.3-1.3,1.8-2.9,1.8-4.4c1.1,0.5,2.3,0.7,3.5,0.7c5.1,0,9.2-4.1,9.2-9.2
		c0-5.1-4.1-9.2-9.2-9.2s-9.2,4.1-9.2,9.2c0,0.1,0,0.2,0,0.3c-3.3-1.2-8.3-0.6-15.8,6.9c-10.4,10.2-14.6,22.7-9.5,27.7
		c1.1,1,2.2,1.8,3.4,2.4H29.6c-1.1,0-2-0.9-2-2V44.6c0-2.7-2.2-4.9-4.9-4.9h-8.1c-1.3,0-2.6,0.5-3.5,1.4c-0.9,0.9-1.5,2.2-1.5,3.5
		v42.2c0,2.7,2.2,4.9,4.9,4.9h30.8c0,0,0,0,0,0c2.4,0,4.5-1.7,4.9-4.1l1.9-11.4l2.4-0.7c4.2-1.3,7.3-4.7,8.1-8.9l1.9,19.6
		c0.3,3.1,3,5.5,6.2,5.3c3.2-0.2,5.7-2.9,5.5-6.2c0,0,0-0.1,0-0.1l-2.5-32.4c-0.1-1.5-1.4-2.7-2.9-2.7l-6.5-0.1
		c-0.6-3.2-2.1-8.7-1.9-10.5C62.4,39.2,62.5,38.8,62.7,38.4z M58.9,64.1c0,3.5-2.2,6.5-5.6,7.5l-4.8,1.5L46.3,87
		c-0.1,0.5-0.5,0.8-0.9,0.8c0,0,0,0,0,0H14.5c-0.5,0-0.9-0.4-0.9-0.9V44.6c0-0.3,0.2-0.6,0.3-0.7c0.1-0.1,0.3-0.3,0.7-0.3
		c0,0,0,0,0,0h8.1c0.5,0,0.9,0.4,0.9,0.9v13.4c0,3.3,2.7,5.9,6,5.9h29.3V64.1z M52.1,49.9c0,0,1.4-1.5,3.3-3.7
		c0,0.3,0.1,0.6,0.1,0.9c0,0.1,0.6,1.4,1.2,2.8L52.1,49.9z"/>
	<path d="M36.6,16.8c-5.5,0-10,4.5-10,10c0,1.1,0.9,2,2,2s2-0.9,2-2c0-3.3,2.7-6,6-6c1.1,0,2-0.9,2-2S37.7,16.8,36.6,16.8z"/>
	<path d="M21.2,27.6C21.2,27.6,21.2,27.6,21.2,27.6c1.1,0,2-0.9,2-2c0-7.1,5.8-12.8,12.8-12.8c1.1,0,2-0.9,2-2s-0.9-2-2-2
		c-9.3,0-16.8,7.5-16.8,16.8C19.2,26.7,20.1,27.6,21.2,27.6z"/>
</g>
</svg>
