<svg id="Layer_1" data-name="Layer 1" xmlns="http://www.w3.org/2000/svg" viewBox="0 0 100 100"><defs><style>.cls-1,.cls-2{fill:none;stroke:#000;stroke-miterlimit:10;stroke-width:4px;}.cls-2{stroke-linecap:round;}</style></defs><path class="cls-1" d="M12.62,62.7a10.08,10.08,0,1,0,16.2,0,2,2,0,0,0-1.65-.83H14.28A2,2,0,0,0,12.62,62.7Z"/><line class="cls-2" x1="15.86" y1="91.95" x2="25.59" y2="91.95"/><line class="cls-1" x1="20.72" y1="70.31" x2="20.72" y2="91.95"/><path d="M10.71,69.8a10.07,10.07,0,1,0,20-2.24h-20A9.86,9.86,0,0,0,10.71,69.8Z"/><circle class="cls-1" cx="16.86" cy="17.72" r="13.77"/><path d="M8.69,6.63A13.94,13.94,0,0,0,5.77,9.55L25,28.8a13.94,13.94,0,0,0,2.92-2.92Z"/><g id="_3" data-name="3"><ellipse class="cls-2" cx="66.12" cy="53.65" rx="30.8" ry="18.75"/><path d="M75.18,49.48a10,10,0,1,1-20,0"/><path d="M77.18,49.48a12,12,0,1,1-24,0m4,0a8,8,0,1,0,16,0"/><path class="cls-2" d="M96.59,50.9c-2.19-9-15-16-30.47-16s-28.27,7-30.47,16Z"/><line class="cls-2" x1="65.5" y1="13.61" x2="65.5" y2="24.38"/><line class="cls-2" x1="81.42" y1="16.32" x2="77.92" y2="26.5"/><line class="cls-2" x1="95.78" y1="22.23" x2="89.15" y2="30.72"/><line class="cls-2" x1="35.85" y1="23.52" x2="42.48" y2="32"/><line class="cls-2" x1="50.2" y1="16.32" x2="53.7" y2="26.5"/></g></svg>