<?xml version="1.0" encoding="utf-8"?>
<!-- Generator: Adobe Illustrator 24.0.0, SVG Export Plug-In . SVG Version: 6.00 Build 0)  -->
<svg version="1.1" id="Layer_1" xmlns="http://www.w3.org/2000/svg" xmlns:xlink="http://www.w3.org/1999/xlink" x="0px" y="0px"
	 viewBox="0 0 100 100" style="enable-background:new 0 0 100 100;" xml:space="preserve">
<g>
	<path d="M50.1,34.2c1.1,0,2-0.9,2-2V21.5c0-1.1-0.9-2-2-2c-1.1,0-2,0.9-2,2v10.8C48.1,33.3,49,34.2,50.1,34.2z"/>
	<path d="M61.9,36.3c0.2,0.1,0.4,0.1,0.7,0.1c0.8,0,1.6-0.5,1.9-1.3l3.5-10.2c0.4-1-0.2-2.2-1.2-2.5c-1-0.4-2.2,0.2-2.5,1.2
		l-3.5,10.2C60.3,34.8,60.8,35.9,61.9,36.3z"/>
	<path d="M72.5,40.2c0.4,0.3,0.8,0.4,1.2,0.4c0.6,0,1.2-0.3,1.6-0.8l6.6-8.5c0.7-0.9,0.5-2.1-0.3-2.8c-0.9-0.7-2.1-0.5-2.8,0.3
		l-6.6,8.5C71.5,38.2,71.7,39.5,72.5,40.2z"/>
	<path d="M25.5,41.1c0.4,0.5,1,0.8,1.6,0.8c0.4,0,0.9-0.1,1.2-0.4c0.9-0.7,1-1.9,0.3-2.8L22,30.1c-0.7-0.9-1.9-1-2.8-0.3
		c-0.9,0.7-1,1.9-0.3,2.8L25.5,41.1z"/>
	<path d="M36.4,35c0.3,0.8,1.1,1.3,1.9,1.3c0.2,0,0.4,0,0.7-0.1c1-0.4,1.6-1.5,1.2-2.5l-3.5-10.2c-0.4-1-1.5-1.6-2.5-1.2
		c-1,0.4-1.6,1.5-1.2,2.5L36.4,35z"/>
	<path d="M83.7,60.8l-0.6-2.3c-1.8-8.3-11.1-14.8-23.6-17c0,0-0.1,0-0.1,0c-0.3-0.1-0.7-0.1-1-0.2c-0.2,0-0.5-0.1-0.7-0.1
		c-0.2,0-0.4-0.1-0.6-0.1c-0.4-0.1-0.9-0.1-1.3-0.1c0,0-0.1,0-0.1,0c-1.6-0.2-3.3-0.2-5-0.2c-1.7,0-3.4,0.1-5,0.2c0,0-0.1,0-0.1,0
		c-0.4,0-0.9,0.1-1.3,0.1c-0.2,0-0.4,0-0.6,0.1c-0.2,0-0.5,0.1-0.7,0.1c-0.3,0.1-0.7,0.1-1,0.2c0,0-0.1,0-0.1,0
		c-12.4,2.1-21.7,8.7-23.5,16.9l-0.6,2.3H18c0,0.3,0,0.5,0,0.8c0,11.6,14.4,20.8,32.8,20.8c18.4,0,32.8-9.1,32.8-20.8
		c0-0.3,0-0.5,0-0.8H83.7z M23.2,56.8c3.5-6.6,13.8-11.5,25.9-12c0.2,0,0.4,0,0.5,0c0.4,0,0.7,0,1.1,0s0.7,0,1.1,0
		c0.2,0,0.4,0,0.5,0c12.1,0.4,22.5,5.4,25.9,12H23.2z M79.5,61.5c0,9.1-13.2,16.8-28.8,16.8c-15.6,0-28.8-7.7-28.8-16.8
		c0-0.3,0-0.5,0-0.8h16.4c1.3,4.4,5,7.7,9.7,8.4c0.6,0.1,1.2,0.1,1.8,0.1c5.3,0,9.9-3.5,11.5-8.5h18.2C79.5,61,79.5,61.3,79.5,61.5z
		"/>
</g>
</svg>
