<?xml version="1.0" encoding="utf-8"?>
<!-- Generator: Adobe Illustrator 24.0.0, SVG Export Plug-In . SVG Version: 6.00 Build 0)  -->
<svg version="1.1" id="Layer_1" xmlns="http://www.w3.org/2000/svg" xmlns:xlink="http://www.w3.org/1999/xlink" x="0px" y="0px"
	 viewBox="0 0 100 100" style="enable-background:new 0 0 100 100;" xml:space="preserve">
<g>
	<path d="M69.3,41c-5.8-1.2-11.2-3.4-16.2-6.6c-2.3-1.5-5.2-1.5-7.4,0c-5,3.2-10.4,5.4-16.2,6.6c-3.2,0.6-5.5,3.4-5.5,6.7v9.6
		c0,12.6,6.3,24.1,16.9,30.9l0.1,0.1c2.5,1.6,5.4,2.4,8.3,2.4c2.9,0,5.8-0.8,8.3-2.4l0.1-0.1c10.6-6.8,16.9-18.3,16.9-30.9v-9.6
		C74.8,44.4,72.5,41.6,69.3,41z M70.8,57.3c0,11.2-5.7,21.5-15.1,27.5l-0.1,0.1c-3.8,2.3-8.6,2.3-12.3,0l-0.1-0.1
		C33.6,78.8,28,68.5,28,57.3v-9.6c0-1.3,1-2.5,2.3-2.8c6.3-1.3,12.2-3.7,17.6-7.2c0.5-0.3,1-0.5,1.5-0.5c0.5,0,1.1,0.2,1.5,0.5l0,0
		c5.4,3.5,11.3,5.9,17.6,7.2c1.3,0.3,2.3,1.4,2.3,2.8V57.3z"/>
	<path d="M58.9,53.3c-0.8-0.8-2-0.8-2.8,0l-6.8,6.8l-6.8-6.8c-0.8-0.8-2-0.8-2.8,0c-0.8,0.8-0.8,2,0,2.8l6.8,6.8l-6.8,6.8
		c-0.8,0.8-0.8,2,0,2.8c0.4,0.4,0.9,0.6,1.4,0.6s1-0.2,1.4-0.6l6.8-6.8l6.8,6.8c0.4,0.4,0.9,0.6,1.4,0.6s1-0.2,1.4-0.6
		c0.8-0.8,0.8-2,0-2.8l-6.8-6.8l6.8-6.8C59.7,55.4,59.7,54.1,58.9,53.3z"/>
	<path d="M27.7,26.5c1.8,1.3,4.1,2,6.3,2c3.6,0,6.2-1.9,6.2-5.2c0-2.9-1.9-4.1-5.3-5c-2.9-0.8-3.6-1.1-3.6-2.2
		c0-0.8,0.8-1.5,2.2-1.5c1.3,0.1,2.5,0.4,3.5,1.1c0.3,0.2,0.6,0.3,0.9,0.3c0,0,0,0,0,0c0.9,0,1.7-0.8,1.7-1.7c0-0.6-0.3-1.2-0.8-1.5
		c-1.6-1-3.4-1.5-5.3-1.5c-3.4,0-5.9,2-5.9,5.1c0,3.3,2.2,4.3,5.6,5.1c2.8,0.7,3.4,1.2,3.4,2.1c0,1-0.9,1.6-2.4,1.6
		c-1.6,0-3.1-0.6-4.3-1.5c-0.3-0.2-0.7-0.3-1.1-0.3c0,0,0,0,0,0c-0.9,0-1.7,0.8-1.7,1.7C27,25.7,27.2,26.2,27.7,26.5z"/>
	<path d="M43.4,14.9h3.5v11.7c0,1,0.8,1.8,1.9,1.8s1.8-0.8,1.8-1.8V14.9h3.5c0.1,0,0.2,0,0.3,0c0.9-0.1,1.6-0.9,1.6-1.8
		c-0.1-0.9-0.9-1.6-1.8-1.6H43.4c-0.8,0.1-1.5,0.7-1.6,1.6C41.7,14,42.4,14.9,43.4,14.9z"/>
	<path d="M60.4,28.3h4.7c5.3,0,8.9-3.7,8.9-8.4v0c0-4.7-3.6-8.3-8.9-8.3h-4.7c0,0,0,0,0,0c-1,0-1.8,0.8-1.8,1.8v13.1c0,0,0,0,0,0
		C58.6,27.5,59.4,28.3,60.4,28.3z M62.3,14.9h2.9c0.2,0,0.3,0,0.5,0c2.7,0.1,4.7,2.4,4.6,5.1c0,0.2,0,0.3,0,0.5
		c-0.2,2.6-2.4,4.7-5.1,4.5h-2.9V14.9z"/>
</g>
</svg>
