<svg id="Layer_1" data-name="Layer 1" xmlns="http://www.w3.org/2000/svg" viewBox="0 0 100 100"><defs><style>.cls-1{fill:none;stroke-linecap:round;}.cls-1,.cls-2{stroke:#000;stroke-miterlimit:10;stroke-width:4px;}</style></defs><path class="cls-1" d="M35.07,15.21a8,8,0,0,0-7.94,7.94"/><path class="cls-1" d="M34.53,7.22A14.8,14.8,0,0,0,19.73,22"/><path class="cls-1" d="M72.08,77.43a8,8,0,0,1-8,7.95"/><path class="cls-1" d="M80.07,78a14.81,14.81,0,0,1-14.81,14.8"/><g id="_110" data-name="110"><path d="M69.78,9.84l7.4,4.68a4.43,4.43,0,0,1,1.42,6.06l-4,6.57L59.68,17.73l4-6.45A4.44,4.44,0,0,1,69.78,9.84Z"/><path class="cls-2" d="M73.8,28,59.32,18.84a10.34,10.34,0,0,0-14.27,3.22L18.84,63.54a10.34,10.34,0,0,0,3.22,14.27L36.54,87a10.34,10.34,0,0,0,14.27-3.22L77,42.26A10.34,10.34,0,0,0,73.8,28ZM51.53,80.08,21.83,61.32,44.92,24.78l29.7,18.77Z"/></g></svg>