<svg id="Layer_1" data-name="Layer 1" xmlns="http://www.w3.org/2000/svg" viewBox="0 0 100 100"><defs><style>.cls-1{fill:none;}.cls-1,.cls-2{stroke:#000;stroke-miterlimit:10;stroke-width:4px;}</style></defs><path class="cls-1" d="M45.83,31.73c0-4.28,5.78-13.95,8.72-18.59a2,2,0,0,1,3.34,0c2.94,4.64,8.72,14.31,8.72,18.59a10.39,10.39,0,0,1-20.78,0Z"/><circle class="cls-2" cx="61.09" cy="24.89" r="2.01"/><path class="cls-2" d="M50.07,35a2,2,0,0,0-3.9-.67,10.26,10.26,0,0,0,1,2.45,1.9,1.9,0,0,0,.92.23A2,2,0,0,0,50.07,35Z"/><circle class="cls-2" cx="59.08" cy="36.51" r="2.01"/><circle class="cls-2" cx="50.85" cy="24.89" r="2.01"/><path class="cls-1" d="M20.26,64.17c0-4.28,5.78-14,8.72-18.59a2,2,0,0,1,3.34,0C35.26,50.22,41,59.89,41,64.17a10.39,10.39,0,0,1-20.78,0Z"/><circle class="cls-2" cx="35.53" cy="57.33" r="2.01"/><path class="cls-2" d="M24.5,67.44a2,2,0,0,0-3.9-.67,10.29,10.29,0,0,0,1,2.45,2,2,0,0,0,.91.23A2,2,0,0,0,24.5,67.44Z"/><circle class="cls-2" cx="33.52" cy="68.95" r="2.01"/><circle class="cls-2" cx="25.28" cy="57.33" r="2.01"/><path class="cls-1" d="M59.08,77.94c0-4.28,5.78-13.95,8.72-18.59a2,2,0,0,1,3.34,0c2.94,4.64,8.72,14.31,8.72,18.59a10.39,10.39,0,0,1-20.78,0Z"/><circle class="cls-2" cx="74.35" cy="71.1" r="2.01"/><path class="cls-2" d="M63.32,81.21a2,2,0,0,0-3.9-.67,10.29,10.29,0,0,0,1,2.45,1.86,1.86,0,0,0,.91.23A2,2,0,0,0,63.32,81.21Z"/><circle class="cls-2" cx="72.34" cy="82.72" r="2.01"/><circle class="cls-2" cx="64.1" cy="71.1" r="2.01"/></svg>