<svg id="Layer_1" data-name="Layer 1" xmlns="http://www.w3.org/2000/svg" viewBox="0 0 100 100"><defs><style>.cls-1,.cls-2{fill:none;stroke:#000;stroke-width:4px;}.cls-1{stroke-linecap:round;stroke-miterlimit:10;}.cls-2{stroke-linejoin:round;}</style></defs><path class="cls-1" d="M44.21,41.56A10.09,10.09,0,0,1,40,42.68a7.3,7.3,0,0,1-4-1.31"/><path class="cls-1" d="M59.38,41.16a10.25,10.25,0,0,1-4.2,1.12,7.3,7.3,0,0,1-4-1.31"/><path d="M59.93,51c0-1,1.3-3.28,2.09-4.55a.7.7,0,0,1,1.19,0C64,47.76,65.3,50,65.3,51a2.69,2.69,0,0,1-5.37,0Z"/><path d="M92.13,32.48a16.41,16.41,0,0,1,1.48,6.87c0,9.72-2.52,18.57-9.44,25.76C82.54,66.8,80.8,68.46,78.4,69c-3.23.76-6-.35-8.48-2.33-1.06-.84-1-1.39-.34-2.53,1.32-2.11,2.63-4.22,4-6.32.67-1.06,1.11-1.26,2.29-.84s2.23.94,3.36,1.38c1.52.6,2,.56,2.94-.77a17.8,17.8,0,0,0,2.18-3.81A45.23,45.23,0,0,0,87.13,42c.17-1.55-.1-1.91-1.61-2.27-1.08-.27-2.18-.45-3.26-.73-1.41-.37-1.71-.8-1.62-2.22.16-2.52.37-5,.49-7.54a1.36,1.36,0,0,1,1.27-1.45,8.82,8.82,0,0,1,8.79,3.35A13.71,13.71,0,0,1,92.13,32.48Z"/><path class="cls-2" d="M70.85,44.32c0-14.12-10-25.57-22.29-25.57S26.28,30.2,26.28,44.32C26.28,54,31,63.13,38,67.86v0c0,5.92,4.8,13.72,10.72,13.72s10.72-7.8,10.72-13.72c0-.06,0-.11,0-.17C66.22,62.94,70.85,53.94,70.85,44.32Z"/><path class="cls-1" d="M7.57,89.85S8.52,81.31,13.74,78s23.74-7.88,23.74-7.88"/><path class="cls-1" d="M90.35,89.85S89.4,81.31,84.18,78s-23.74-7.88-23.74-7.88"/><path class="cls-2" d="M38.3,68.05v0c7.18,4.47,13.21,4.47,20.53,0"/></svg>