<?xml version="1.0" encoding="utf-8"?>
<!-- Generator: Adobe Illustrator 24.0.0, SVG Export Plug-In . SVG Version: 6.00 Build 0)  -->
<svg version="1.1" id="Layer_1" xmlns="http://www.w3.org/2000/svg" xmlns:xlink="http://www.w3.org/1999/xlink" x="0px" y="0px"
	 viewBox="0 0 100 100" style="enable-background:new 0 0 100 100;" xml:space="preserve">
<g>
	<path d="M24.9,8.6c-8.7,0-15.8,7.1-15.8,15.8s7.1,15.8,15.8,15.8s15.8-7.1,15.8-15.8S33.6,8.6,24.9,8.6z M13.1,24.4
		c0-2.5,0.8-4.8,2.1-6.7L31.6,34c-1.9,1.3-4.2,2.1-6.7,2.1C18.4,36.2,13.1,30.9,13.1,24.4z M34.6,31.1L18.2,14.8
		c1.9-1.3,4.2-2.1,6.7-2.1c6.5,0,11.8,5.3,11.8,11.8C36.7,26.9,35.9,29.2,34.6,31.1z"/>
	<path d="M36.8,66.8c-2.1-1.2-4.5-1.2-6.5-0.1c0.3-1.5,0.1-3-0.7-4.4l-2.2-3.4l0,0l-1.7-2.5l0,0l-3-4.6c-0.1-0.1-0.1-0.2-0.2-0.3
		c-0.9-1.3-2.3-2.3-3.9-2.6c-1.5-0.3-3-0.1-4.3,0.5L13.4,50c-1.4,1-2.4,2.4-2.7,4.1c-0.3,1.6,0,3.3,0.9,4.7l3.1,4.8l0,0l1.6,2.5l0,0
		l2.1,3.3l0.1,0.1c1.3,1.7,3.3,2.6,5.2,2.6c0.8,0,1.6-0.2,2.4-0.5l-1.9,2.9l0,0L21,79.4c-2,3-1.1,7.1,1.9,9.2
		c1.1,0.7,2.4,1.1,3.6,1.1c2.2,0,4.3-1.1,5.5-3l3.8-5.8l-1.7-1.1l0,0l1.7,1.1l2.9-4.5c0.1-0.2,0.2-0.3,0.3-0.5
		C41,72.6,39.9,68.6,36.8,66.8z M31.1,71.3L31.1,71.3c0.1-0.1,0.1-0.2,0.1-0.2c0.8-1.1,2.2-1.4,3.3-0.7l0.3,0.2
		c1.1,0.8,1.4,2.3,0.6,3.4L33,77.8L28.7,75L31.1,71.3z M15,56.8C15,56.8,15,56.8,15,56.8L15,56.8c-0.7-1.1-0.5-2.6,0.6-3.5l0.3-0.2
		c1.1-0.7,2.6-0.4,3.4,0.6c0,0,0,0.1,0.1,0.1l2.5,3.8l-4.4,2.8L15,56.8z"/>
	<path d="M75,38.5c-1.5-0.7-3.1-1.3-4.7-1.7c-1.7-0.5-2.8-2-2.9-3.8l-0.1-4.8h-0.2c1.8-2.5,2.3-5.6,1.5-8.5c0.8,0.4,1.6,1,2.3,1.6
		c3.1,3.2,3.9,8.1,1.9,12.1c-0.3,0.5-0.1,1.1,0.4,1.3c0.4,0.2,0.9,0.1,1.2-0.2c0.9-0.7,1.6-1.6,2.3-2.5c2.8-4,3-9.2,0.5-12.8
		c-2.5-3.5-6.9-5-11-3.9c-3.9-4-10.2-4.1-14.2-0.2c-2.6,2.6-3.7,6.3-2.7,9.9l-0.9,2.5c-0.1,0.3,0.1,0.7,0.4,0.8c0.1,0,0.2,0,0.3,0
		l1.7-0.2c1.6,2.3,4.2,3.8,7,4.2L57,40.5c-0.2,1.8-1.2,3.5-2.8,4.5l-3,1.9c-2.5,1.6-3.5,4.8-2.2,7.6l1.5,3.3
		c0.5,1.2,0.2,2.6-0.8,3.5c-3.6,3.1-6,7.3-6.9,12c-0.2,0.9-0.2,1.7-0.2,2.6c0,3.3,0.7,6.6,2.1,9.5l2,4.2h27.1c0,0-0.3-14.4,0.7-15.3
		c3.7-3.3,12.3-11.5,13-14.8C88.3,55.3,76.7,39.4,75,38.5z M77.6,59.5L77.6,59.5L72,66.2c-0.1,0.1-0.3,0.2-0.4,0
		c-0.1-0.1-0.1-0.2-0.1-0.3l0.9-14.8c0-0.2,0.2-0.3,0.3-0.3c0.1,0,0.2,0.1,0.2,0.1l4.8,6.7C78.1,58.3,78,59,77.6,59.5z"/>
</g>
</svg>
