<?xml version="1.0" encoding="utf-8"?>
<!-- Generator: Adobe Illustrator 24.0.0, SVG Export Plug-In . SVG Version: 6.00 Build 0)  -->
<svg version="1.1" id="Layer_1" xmlns="http://www.w3.org/2000/svg" xmlns:xlink="http://www.w3.org/1999/xlink" x="0px" y="0px"
	 viewBox="0 0 100 100" style="enable-background:new 0 0 100 100;" xml:space="preserve">
<g>
	<path d="M44.6,49.1L44.6,49.1c1.6-0.1,3.1-0.5,4.5-1.2c1-0.5,1.3-1.7,0.8-2.7c-0.5-1-1.7-1.4-2.7-0.8c-0.8,0.4-1.8,0.7-2.7,0.8
		c-0.8,0-1.6-0.3-2.3-0.8c-0.9-0.6-2.2-0.4-2.8,0.5c-0.6,0.9-0.4,2.2,0.5,2.8C41.3,48.5,42.9,49,44.6,49.1L44.6,49.1z"/>
	<path d="M53,47.2c1.3,0.9,2.9,1.5,4.6,1.5l0.1,0l0.1,0c1.5-0.1,3.1-0.5,4.5-1.2c1-0.5,1.3-1.7,0.8-2.7c-0.5-1-1.7-1.3-2.7-0.8
		c-0.8,0.4-1.8,0.7-2.7,0.8c-0.8,0-1.6-0.3-2.3-0.8c-0.9-0.6-2.2-0.4-2.8,0.5C51.8,45.4,52.1,46.6,53,47.2z"/>
	<path d="M61.7,54.2c0.1,1.2,1,2.1,2.2,2.2c1.3,0.1,2.4-0.9,2.5-2.2c0-0.9-1.1-2.8-1.8-3.9c0-0.1-0.1-0.1-0.2-0.2
		C64,50,63.7,50,63.5,50.3C62.8,51.4,61.7,53.3,61.7,54.2L61.7,54.2z"/>
	<path d="M70.2,67.7c2,1.8,4.7,2.5,7.3,2c2-0.6,3.7-1.8,5-3.4c6-6.2,8.1-13.8,8.1-22.2c0-2-0.4-4.1-1.3-5.9
		c-0.2-0.2-0.5-0.8-0.8-1.2c-1.8-2.3-4.7-3.5-7.6-2.9c-0.6,0-1.1,0.6-1.1,1.2c-0.1,2.2-0.3,4.3-0.4,6.5c-0.1,1.2,0.2,1.6,1.4,1.9
		c0.9,0.2,1.9,0.4,2.8,0.6c1.3,0.4,1.5,0.7,1.4,2c-0.3,3.5-1.2,6.9-2.4,10.2c-0.5,1.2-1.1,2.3-1.9,3.3C80,61,79.5,61,78.2,60.5
		c-1-0.4-1.9-0.8-2.9-1.2c-1-0.4-1.4-0.2-2,0.7c-1.1,1.8-2.3,3.6-3.4,5.4C69.3,66.5,69.3,67,70.2,67.7z"/>
	<path d="M83.6,75.7c-4-2.6-15.7-5.7-19.8-6.7c5.7-4.7,9.2-12.6,9.2-20.6c0-13.2-9.5-24-21.2-24c-5.9,0-11.2,2.7-15.1,7.2
		c-0.1-0.4-0.2-0.7-0.4-1.1L25.6,11.7c-0.3-0.5-0.8-1-1.3-1.3c-1.8-1-4-0.4-5.1,1.3L8.4,30.5c-0.3,0.6-0.5,1.2-0.5,1.9
		c0,2,1.7,3.7,3.7,3.7c0,0,0,0,0,0h21.7c0.2,0,0.4,0,0.5,0c-1.9,3.6-3.1,7.9-3.1,12.4c0,8.1,3.6,16,9.3,20.7
		c-4.5,1.2-15.3,4.1-19.2,6.6C15.6,79,14.7,87,14.7,87.4c-0.1,1.1,0.7,2.1,1.8,2.2c0.1,0,0.2,0,0.2,0c1,0,1.9-0.8,2-1.8
		C18.8,86,20,81,23,79.1c3.1-2,13.3-4.8,18.4-6.2c1.6,5,5.7,9.6,10.5,9.6c4.9,0,9-4.7,10.6-9.7c4.9,1.2,15.7,4.2,19,6.3
		c3,1.9,4.2,7,4.4,8.7c0.1,1,1,1.8,2,1.8c0.1,0,0.1,0,0.2,0c1.1-0.1,1.9-1.1,1.8-2.2C89.8,87,88.9,79,83.6,75.7z M33.2,33.1H11.5
		c0,0,0,0,0,0c-0.4,0-0.7-0.3-0.7-0.7c0-0.1,0-0.2,0.1-0.4l10.8-18.8c0.2-0.3,0.6-0.4,1-0.3c0.1,0.1,0.2,0.1,0.2,0.2L33.9,32
		c0.1,0.2,0.1,0.4,0.1,0.5c0,0.1-0.1,0.3-0.3,0.4C33.5,33,33.4,33.1,33.2,33.1z M34.7,48.4c0-11,7.7-20,17.2-20
		c9.5,0,17.2,9,17.2,20c0,7.4-3.5,14.7-9,18.4c-0.3,0.2-0.5,0.5-0.7,0.8c-5.4,3.2-9.7,3.2-14.9,0c-0.1-0.2-0.3-0.5-0.6-0.6
		C38.3,63.2,34.7,55.9,34.7,48.4z M52,78.5c-2.6,0-5.1-2.7-6.3-5.8c2.1,0.9,4.2,1.3,6.2,1.3c2.1,0,4.3-0.5,6.5-1.4
		C57.1,75.8,54.6,78.5,52,78.5z"/>
	<path d="M23.1,16h-1.6c-0.1,0-0.1,0-0.2,0c-0.4,0.1-0.7,0.5-0.6,0.9l0.8,9c0,0,0,0,0,0c0,0.4,0.4,0.8,0.8,0.8c0,0,0,0,0,0
		c0.4,0,0.8-0.3,0.8-0.8l0.8-9c0,0,0-0.1,0-0.1C23.9,16.4,23.6,16.1,23.1,16z"/>
	<path d="M22.3,28.4C22.3,28.4,22.3,28.4,22.3,28.4c-0.9,0-1.6,0.7-1.6,1.5v0.2c0,0.9,0.7,1.6,1.6,1.6c0.9,0,1.6-0.7,1.6-1.6v-0.2
		c0,0,0-0.1,0-0.1C23.9,29,23.2,28.3,22.3,28.4z"/>
</g>
</svg>
