<svg id="Layer_1" data-name="Layer 1" xmlns="http://www.w3.org/2000/svg" viewBox="0 0 100 100"><defs><style>.cls-1{fill:none;}.cls-1,.cls-2{stroke:#000;stroke-miterlimit:10;stroke-width:4px;}</style></defs><circle class="cls-1" cx="23.57" cy="23.3" r="13.77"/><path d="M15.41,12.22a14,14,0,0,0-2.93,2.92L31.73,34.39a13.7,13.7,0,0,0,2.92-2.92Z"/><path class="cls-1" d="M43.15,88.1A18.84,18.84,0,0,0,60,86.52C70,80.08,71.26,73.75,73.33,72s5.25-.83,12.25-9.18c5.9-7,4.11-16.8,3.41-19.69A1.47,1.47,0,0,0,87.93,42c-2.87-.78-12.59-2.8-19.77,2.93-8.51,6.8-7.66,10-9.47,12-1,1.16-3.58,2-6.82,4.4"/><path class="cls-2" d="M41.84,86.77a2.21,2.21,0,0,0,1.31,1.33A18.84,18.84,0,0,0,60,86.52C70,80.08,71.26,73.75,73.33,72s5.25-.83,12.25-9.18c5.9-7,4.11-16.8,3.41-19.69A1.47,1.47,0,0,0,87.93,42a28.71,28.71,0,0,0-5-.87c.56,4.27.56,11.25-4,16.65-7,8.34-10.18,7.41-12.25,9.17s-3.3,8.09-13.33,14.54"/><path class="cls-1" d="M43.25,89.85a2.26,2.26,0,0,0,1.87,0A18.91,18.91,0,0,0,55.75,76.69C58.14,65,54.48,59.71,54.66,57s3.07-4.34,2-15.18c-.91-9.14-9.15-14.69-11.71-16.2a1.46,1.46,0,0,0-1.51,0c-2.56,1.51-10.8,7.06-11.71,16.2-1.09,10.84,1.8,12.47,2,15.18s-3.48,8-1.08,19.69A18.86,18.86,0,0,0,43.25,89.85Z"/><path class="cls-2" d="M56.65,41.82c-.91-9.14-9.15-14.69-11.71-16.2a1.46,1.46,0,0,0-1.51,0,29.94,29.94,0,0,0-4.13,3c3.45,2.59,8.44,7.47,9.14,14.48,1.09,10.84-1.81,12.46-2,15.17s3.48,8,1.09,19.7A18.12,18.12,0,0,1,41,88.58a21.19,21.19,0,0,0,2.29,1.27,2.26,2.26,0,0,0,1.87,0A18.91,18.91,0,0,0,55.75,76.69C58.14,65,54.48,59.71,54.66,57S57.73,52.66,56.65,41.82Z"/></svg>