<?xml version="1.0" encoding="utf-8"?>
<!-- Generator: Adobe Illustrator 24.0.0, SVG Export Plug-In . SVG Version: 6.00 Build 0)  -->
<svg version="1.1" id="Layer_1" xmlns="http://www.w3.org/2000/svg" xmlns:xlink="http://www.w3.org/1999/xlink" x="0px" y="0px"
	 viewBox="0 0 100 100" style="enable-background:new 0 0 100 100;" xml:space="preserve">
<g>
	<polygon points="68.9,21.5 72.7,19.3 76.7,21.2 75.8,16.8 78.8,13.7 74.4,13.2 72.3,9.3 70.5,13.3 66.2,14.2 69.4,17.1 	"/>
	<path d="M12.8,31.4c0.3,0.2,0.7,0.3,1.1,0.3c0.7,0,1.3-0.3,1.7-0.9c0.6-0.9,0.3-2.2-0.6-2.8c-0.6-0.4-0.9-0.9-1.1-1.6
		c0.1-1.6,5.1-5.6,20.2-7.9c1.1-0.2,1.8-1.2,1.7-2.3c-0.2-1.1-1.2-1.8-2.3-1.7c-7.2,1.1-23.8,4.6-23.5,12.1c0,0.1,0,0.1,0,0.2
		C10.2,28.7,11.2,30.3,12.8,31.4z"/>
	<path d="M53.4,16.8c3.1-0.1,6.2,0,9.1,0.2c0,0,0.1,0,0.1,0c1,0,1.9-0.8,2-1.9c0.1-1.1-0.8-2.1-1.9-2.1c-3-0.2-6.2-0.3-9.5-0.2
		c-1.1,0-2,0.9-2,2C51.4,16,52.3,16.9,53.4,16.8z"/>
	<path d="M43.4,46L43.4,46l0.1,0c1.7-0.1,3.3-0.5,4.8-1.3c1-0.5,1.4-1.7,0.9-2.7c-0.5-1-1.7-1.4-2.7-0.9c-1,0.5-2,0.8-3.1,0.8
		c-1,0-1.9-0.3-2.7-0.9c-0.9-0.6-2.2-0.4-2.8,0.5c-0.6,0.9-0.4,2.2,0.5,2.8C39.8,45.4,41.6,46,43.4,46z"/>
	<path d="M52.9,44c1.5,1,3.2,1.6,5,1.6l0.1,0l0.1,0c1.7-0.1,3.3-0.5,4.8-1.3c1-0.5,1.4-1.7,0.9-2.7c-0.5-1-1.7-1.4-2.7-0.9
		c-1,0.5-2,0.8-3.1,0.8c-1,0-1.9-0.3-2.7-0.9c-0.9-0.6-2.2-0.4-2.8,0.5C51.7,42.2,52,43.4,52.9,44z"/>
	<path d="M92.6,89c0-0.4-1.1-9.2-6.8-12.8c-4.6-2.9-18.4-6.5-22.3-7.5c6.5-5.3,10.4-13.9,10.4-23c0-3.6-0.6-7-1.8-10.1
		c2.6-0.5,5.1-1.1,7.3-1.8c8.5-2.5,12.8-5.8,12.6-9.7c-0.1-3.4-3.5-6.1-10.2-8.1c-1.1-0.3-2.2,0.3-2.5,1.3c-0.3,1.1,0.3,2.2,1.3,2.5
		c5.8,1.7,7.3,3.6,7.4,4.4c0.1,2-5.9,5.4-17.6,7.6C66.4,24.2,59,19.1,50.6,19.1c-0.9,0-1.9,0.1-2.8,0.2l-0.8-4l3-3.2l-4.4-0.5
		l-2.1-3.9l-1.8,4l-4.3,0.8l3.3,3l-0.6,4.4l3.8-2.2l3.5,1.7c-6.3,1-11.9,4.9-15.5,10.4l-4.3-0.4l-2.1-3.9l-1.8,4l-4.3,0.8l3.3,3
		l-0.6,4.4l3.8-2.2l2.7,1.3c-0.9,2.8-1.4,5.8-1.4,8.9c0,9.1,4.1,18,10.7,23.1c-4.5,1.2-17.4,4.6-21.7,7.4C10.4,79.8,9.4,88.6,9.4,89
		c-0.1,1.1,0.7,2.1,1.8,2.2c0.1,0,0.1,0,0.2,0c1,0,1.9-0.8,2-1.8c0.2-2,1.6-7.7,5-9.9c3.6-2.3,15.2-5.5,20.8-6.9
		c1.7,5.6,6.2,10.8,11.6,10.8c5.4,0,10-5.3,11.6-11c5.4,1.4,17.6,4.7,21.3,7.1c4.1,2.6,5,9.8,5,9.9c0.1,1,1,1.8,2,1.8
		c0.1,0,0.1,0,0.2,0C91.9,91,92.7,90.1,92.6,89z M50.6,23.1c6.4,0,12.2,3.7,15.7,9.3c-4.4,0.6-9.4,1.1-15,1.3
		c-5.4,0.2-10.8,0-16.1-0.4c-0.3,0-0.5,0-0.8,0.1C37.8,27.2,43.8,23.1,50.6,23.1z M29,33l2.6-2.8c-0.9,1.4-1.6,2.9-2.3,4.5L29,33z
		 M31.3,45.6c0-3.4,0.7-6.7,1.9-9.6c0.3,0.7,0.9,1.2,1.7,1.3c4,0.3,8,0.5,12,0.5c1.5,0,3,0,4.6-0.1c5.9-0.2,11.6-0.7,16.7-1.5
		c1.1,2.9,1.8,6,1.8,9.4c0,8.3-4,16.4-10.1,20.8l0-0.1c-6.7,4.1-11.9,4.1-18.4,0l0,0C35.2,62,31.3,53.9,31.3,45.6z M50.7,79.4
		c-3.3,0-6.4-3.7-7.6-7.7c2.5,1.1,5,1.7,7.5,1.7c2.6,0,5.2-0.6,7.9-1.8C57.2,75.6,54,79.4,50.7,79.4z"/>
</g>
</svg>
