<svg id="Layer_1" data-name="Layer 1" xmlns="http://www.w3.org/2000/svg" viewBox="0 0 100 100"><defs><style>.cls-1,.cls-2{stroke:#000;stroke-miterlimit:10;}.cls-1{stroke-width:0.75px;}.cls-2{fill:none;stroke-linecap:round;stroke-width:4px;}</style></defs><path class="cls-1" d="M73.6,44.83a7,7,0,0,0-4.11-6.35,8.54,8.54,0,0,0-7.67-7.17A6.45,6.45,0,0,0,56,27.69h0c-.32,0-.63.07-.94.07H55A5.23,5.23,0,0,0,54,28a7.11,7.11,0,0,0-4.42-1.62,6.39,6.39,0,0,0-3.68,1.12,9,9,0,0,0-3.68-.75,8.83,8.83,0,0,0-6.67,3A7.46,7.46,0,0,0,34,29.56a6.38,6.38,0,0,0-5.48,3.06h-.56c-.13,0-.25.06-.38.06s-.18.06-.31.06a.91.91,0,0,0-.37.13c-.13,0-.19.06-.31.06s-.25.06-.31.12-.25.07-.32.13-.18.06-.24.12l-.38.19h0a7.54,7.54,0,0,0-3.86,6.11v.06A10,10,0,0,0,18.32,47a10.14,10.14,0,0,0,10.1,10.1,14.55,14.55,0,0,0,1.74-.13,9.83,9.83,0,0,0,2.37.44,9.36,9.36,0,0,0,9.29,6.11c4.23,0,9.35,4.3,9.35,9.35v.93h7.1L57.46,68A10.15,10.15,0,0,0,68.3,60.35a12.19,12.19,0,0,0,.32-2.55,7.56,7.56,0,0,0,5-7,7.06,7.06,0,0,0-.62-3A8,8,0,0,0,73.6,44.83ZM70.92,48.2a5.12,5.12,0,0,1,.62,2.55,5.41,5.41,0,0,1-3.17,4.93A10.16,10.16,0,0,0,61,48.07a1,1,0,0,0-.5,2,8,8,0,0,1,6.05,7,8.55,8.55,0,0,1-.19,2.8,8.06,8.06,0,0,1-9.85,5.86l-1.43-.37L56,71.69H53.1c-.63-5.85-6.48-10.4-11.35-10.4q-5,0-7.1-4.12a.22.22,0,0,0-.06-.18,4.43,4.43,0,0,1,2.12-5.92,1.06,1.06,0,0,0,.49-1.38,1,1,0,0,0-1.37-.49,6.5,6.5,0,0,0-3.67,5.92,7,7,0,0,1-1.62-.38l-.25-.12-.25.06a6.54,6.54,0,0,1-1.62.19,8.12,8.12,0,0,1-8.1-8.1,7.82,7.82,0,0,1,1.43-4.55,7.41,7.41,0,0,0,5.17,4.86,2.78,2.78,0,0,0-.37.93,4.19,4.19,0,0,0,.5,3.24,1,1,0,0,0,.87.5,1.23,1.23,0,0,0,.5-.12,1,1,0,0,0,.37-1.37,2.32,2.32,0,0,1-.25-1.69,2.23,2.23,0,0,1,1-1.37,1,1,0,0,0-.75-1.81A5.49,5.49,0,0,1,23.43,40a5.42,5.42,0,0,1,5.42-5.42H29l.81.06L30.1,34a4.4,4.4,0,0,1,4-2.49,4.89,4.89,0,0,1,1.62.31l.68.25.44-.63a6.93,6.93,0,0,1,5.55-2.74,7.58,7.58,0,0,1,3.3.81l.62.31.5-.43a4.39,4.39,0,0,1,2.87-1.06,4.16,4.16,0,0,1,2.43.75,6.41,6.41,0,0,0-2.49,5,1,1,0,1,0,2,0,4.47,4.47,0,0,1,2.24-3.86l.32-.12A5.05,5.05,0,0,1,56,29.69a4.49,4.49,0,0,1,4.17,2.93l.25.68h.69a6.51,6.51,0,0,1,6.42,6l.06.68.62.19a5,5,0,0,1,3.37,4.67A4.46,4.46,0,0,1,71,47.2l-.25.5ZM49.48,53.37A5.64,5.64,0,0,0,47,48.7h0A8.65,8.65,0,0,1,42.07,42a.83.83,0,0,1,.68-.94.85.85,0,0,1,.94.69,7.11,7.11,0,0,0,4.73,5.79,7.26,7.26,0,0,0,5.49-.31,6.93,6.93,0,0,0,3.61-4.11.83.83,0,1,1,1.56.56,8.47,8.47,0,0,1-4.49,5,8.92,8.92,0,0,1-3.8.87,4,4,0,0,1-.81-.06,7.33,7.33,0,0,1,1.12,3.86.82.82,0,0,1-.81.81A.78.78,0,0,1,49.48,53.37ZM64.88,44a.81.81,0,0,1-1.62,0,6.69,6.69,0,0,0-6.67-6.67.81.81,0,0,1,0-1.62A8.33,8.33,0,0,1,64.88,44ZM43.44,35.67a.83.83,0,0,1,.81-.81,6.48,6.48,0,0,1,6.48,6.48.81.81,0,0,1-1.62,0,4.87,4.87,0,0,0-4.86-4.86A.82.82,0,0,1,43.44,35.67ZM41.51,54.18a.8.8,0,0,1-.69.38,1.23,1.23,0,0,1-.44-.13.81.81,0,0,1-.25-1.12,4.65,4.65,0,0,0-1.49-6.42.81.81,0,0,1,.87-1.37A6.34,6.34,0,0,1,41.51,54.18Zm-.75-14.33a4.78,4.78,0,0,1-3.24-1.37,7.55,7.55,0,0,1-9.91,2.18.88.88,0,0,1-.31-1.12.89.89,0,0,1,1.12-.32A5.94,5.94,0,0,0,36.52,37a5.31,5.31,0,0,1-.5-2.18.81.81,0,0,1,1.62,0,3.26,3.26,0,0,0,3.12,3.31.83.83,0,0,1,.81.81.8.8,0,0,1-.81.87Zm19,15.83A.8.8,0,0,1,60,56.8a8.06,8.06,0,0,1-6.6,3.49,8,8,0,0,1-4.49-1.37.8.8,0,0,1-.19-1.12.79.79,0,0,1,1.12-.19,6.58,6.58,0,0,0,4.8,1,6.37,6.37,0,0,0,4.12-2.68A.72.72,0,0,1,59.77,55.68Z"/><path class="cls-2" d="M88.23,50A40.53,40.53,0,1,1,47.7,9.45"/><polyline class="cls-2" points="81.39 55.07 88.23 48.31 95.14 55.07"/></svg>