<svg id="Layer_1" data-name="Layer 1" xmlns="http://www.w3.org/2000/svg" viewBox="0 0 100 100"><defs><style>.cls-1,.cls-2,.cls-3{fill:none;stroke:#000;}.cls-1{stroke-linecap:round;}.cls-1,.cls-3{stroke-miterlimit:10;}.cls-1,.cls-2{stroke-width:4px;}.cls-2{stroke-linejoin:round;}.cls-3{stroke-width:3px;}</style></defs><path class="cls-1" d="M46.38,41.16a10.25,10.25,0,0,1-4.2,1.12,7.3,7.3,0,0,1-4-1.31"/><path class="cls-1" d="M61.54,40.76a10.17,10.17,0,0,1-4.2,1.12,7.33,7.33,0,0,1-4-1.31"/><path d="M62.1,50.64c0-1,1.3-3.28,2.09-4.55a.7.7,0,0,1,1.19,0c.79,1.27,2.09,3.52,2.09,4.55a2.69,2.69,0,0,1-5.37,0Z"/><path d="M94.3,32.08A16.56,16.56,0,0,1,95.78,39c0,9.72-2.52,18.57-9.44,25.75-1.63,1.7-3.37,3.35-5.77,3.91-3.23.75-6-.35-8.48-2.33-1.06-.84-1-1.39-.34-2.53q2-3.16,4-6.32c.67-1.06,1.1-1.26,2.29-.84s2.23.94,3.35,1.38c1.53.6,2,.56,3-.77a17.8,17.8,0,0,0,2.18-3.81A46,46,0,0,0,89.3,41.58c.17-1.55-.1-1.91-1.61-2.27-1.08-.27-2.18-.45-3.26-.73-1.41-.37-1.72-.8-1.62-2.22.16-2.52.37-5,.49-7.54a1.36,1.36,0,0,1,1.27-1.45,8.83,8.83,0,0,1,8.79,3.35A13.71,13.71,0,0,1,94.3,32.08Z"/><path class="cls-2" d="M30.27,33.77a28.89,28.89,0,0,0-1.82,10.15c0,9.72,4.72,18.81,11.67,23.54v0c0,5.92,4.8,13.72,10.72,13.72s10.71-7.8,10.71-13.72v-.17C68.39,62.54,73,53.54,73,43.92,73,29.8,63,18.35,50.73,18.35A21.16,21.16,0,0,0,34,27"/><path class="cls-1" d="M9.74,89.45s.95-8.54,6.17-11.86,23.74-7.88,23.74-7.88"/><path class="cls-1" d="M92.52,89.45s-1-8.54-6.17-11.86-23.74-7.88-23.74-7.88"/><path class="cls-3" d="M20.43,10.47a2.32,2.32,0,0,1,4,0l5.72,9.91,5.72,9.92a2.32,2.32,0,0,1-2,3.48H11A2.32,2.32,0,0,1,9,30.3l5.73-9.92Z"/><path d="M20.72,15.23a.83.83,0,0,1,.81-1H23.2a.85.85,0,0,1,.83,1l-.81,9.46a.85.85,0,0,1-.86.84.83.83,0,0,1-.83-.84Zm1.64,12A1.59,1.59,0,0,1,24,28.82v.23a1.65,1.65,0,0,1-3.29,0v-.23A1.6,1.6,0,0,1,22.36,27.22Z"/><path class="cls-2" d="M40.23,68.16v0c7.18,4.47,13.21,4.47,20.53,0"/></svg>