<svg id="Layer_1" data-name="Layer 1" xmlns="http://www.w3.org/2000/svg" viewBox="0 0 100 100"><defs><style>.cls-1{fill:none;stroke:#000;stroke-miterlimit:10;stroke-width:4px;}</style></defs><circle class="cls-1" cx="26.97" cy="24.83" r="13.77"/><path d="M18.81,13.75a13.48,13.48,0,0,0-2.92,2.92L35.14,35.92A14,14,0,0,0,38.06,33Z"/><path d="M77.07,39a30.41,30.41,0,0,0-4.7-1.7,4.07,4.07,0,0,1-2.91-3.79l-.3-4.81a10,10,0,0,0,1.5-8.5,10.58,10.58,0,0,0-2.47-4.34,10.07,10.07,0,0,0-16.93,9.69l-.86,2.55a.65.65,0,0,0,.7.84l1.66-.23a10.08,10.08,0,0,0,7.05,4.17L59,41.07a6,6,0,0,1-2.75,4.49l-3,1.89A6,6,0,0,0,51.09,55l1.52,3.3a3,3,0,0,1-.79,3.5,21.3,21.3,0,0,0-6.87,12,16.87,16.87,0,0,0-.22,2.61A21.89,21.89,0,0,0,46.81,86l2,4.24H75.91S75.6,75.83,76.56,75c3.67-3.32,12.31-11.45,13-14.8C90.35,55.89,78.73,40,77.07,39Zm2.6,21L74,66.74a.31.31,0,0,1-.55-.22l.88-14.77a.32.32,0,0,1,.57-.17l4.81,6.7A1.41,1.41,0,0,1,79.67,60Z"/><path d="M64.14,16.22a5.12,5.12,0,0,1,2.33-3.43,5.45,5.45,0,0,1,4.66-.64,7.29,7.29,0,0,1,2.65,1.44,7.44,7.44,0,0,1,2.36,3.31,8.81,8.81,0,0,1,.51,2.37c.06,1,.08,1.92.11,2.88a7.35,7.35,0,0,0,.15,1.62,1.37,1.37,0,0,0,1.56,1.1,1.91,1.91,0,0,0,1.66-1.74c0-.06,0-.13,0-.19h0c0,.21.11.41.14.62A3.81,3.81,0,0,1,79,27.47a3,3,0,0,1-1.29.67,3.93,3.93,0,0,1-3.14-.59,4.18,4.18,0,0,1-1.65-2.32,13.32,13.32,0,0,1-.44-2.43,21.94,21.94,0,0,0-.41-2.68,3.85,3.85,0,0,0-2-2.67,2.65,2.65,0,0,0-2.15-.22,2.93,2.93,0,0,0-.42.19A34.28,34.28,0,0,1,64.14,16.22Z"/></svg>