<svg id="Layer_1" data-name="Layer 1" xmlns="http://www.w3.org/2000/svg" viewBox="0 0 100 100"><defs><style>.cls-1,.cls-2{fill:none;stroke:#000;stroke-width:4px;}.cls-1{stroke-linejoin:round;}.cls-2{stroke-linecap:round;stroke-miterlimit:10;}</style></defs><line class="cls-1" x1="38.34" y1="65.42" x2="38.34" y2="81.04"/><circle class="cls-1" cx="38.34" cy="84.96" r="4.54"/><path class="cls-1" d="M64.66,88.1h1.41a1.36,1.36,0,0,0,1.36-1.37V84.11a7.1,7.1,0,0,0-3.66-6.21l-3.56-2v-9h0v9l-3.56,2A7.1,7.1,0,0,0,53,84.11v2.62a1.36,1.36,0,0,0,1.36,1.37h1.41"/><path class="cls-1" d="M70.23,38.77c0-13.31-9.41-24.11-21-24.11s-21,10.8-21,24.11c0,9.16,4.45,17.74,11,22.2v0c0,5.58,4.53,13.1,10.11,13.1s10.1-7.52,10.1-13.1v-.17C65.86,56.33,70.23,47.84,70.23,38.77Z"/><path class="cls-2" d="M39.83,64.26s-16.91,4.15-21.68,7.19-5.63,10.83-5.63,10.83L10.28,94.93"/><path class="cls-2" d="M59.33,64.26S76.25,68.41,81,71.45s5.64,10.83,5.64,10.83l2,12.19"/><path d="M93.27,26.93a16.58,16.58,0,0,1,1.49,6.87c0,9.72-2.53,18.57-9.45,25.75-1.63,1.7-3.36,3.35-5.77,3.91-3.23.75-6-.36-8.48-2.33-1-.84-1-1.4-.33-2.53,1.31-2.11,2.62-4.22,4-6.32.67-1.06,1.11-1.26,2.29-.84s2.23.93,3.36,1.38c1.52.6,2,.56,3-.77a17.76,17.76,0,0,0,2.17-3.81,45.23,45.23,0,0,0,2.82-11.81c.18-1.55-.1-1.91-1.6-2.28-1.08-.26-2.19-.44-3.26-.72-1.42-.37-1.72-.8-1.63-2.23.16-2.51.37-5,.49-7.53a1.36,1.36,0,0,1,1.27-1.45,8.85,8.85,0,0,1,8.8,3.35A15.3,15.3,0,0,1,93.27,26.93Z"/><path class="cls-1" d="M39,60.89a0,0,0,0,0,0,0c7.17,4.47,13.2,4.47,20.52,0"/></svg>