<?xml version="1.0" encoding="utf-8"?>
<!-- Generator: Adobe Illustrator 24.0.0, SVG Export Plug-In . SVG Version: 6.00 Build 0)  -->
<svg version="1.1" id="Layer_1" xmlns="http://www.w3.org/2000/svg" xmlns:xlink="http://www.w3.org/1999/xlink" x="0px" y="0px"
	 viewBox="0 0 100 100" style="enable-background:new 0 0 100 100;" xml:space="preserve">
<g>
	<path d="M23.6,39.2c8.7,0,15.8-7.1,15.8-15.8S32.3,7.7,23.6,7.7S7.9,14.8,7.9,23.5S15,39.2,23.6,39.2z M35.4,23.5
		c0,2.5-0.8,4.8-2.1,6.7L16.9,13.8c1.9-1.3,4.2-2.1,6.7-2.1C30.1,11.7,35.4,17,35.4,23.5z M14,16.8l16.4,16.4
		c-1.9,1.3-4.2,2.1-6.7,2.1c-6.5,0-11.8-5.3-11.8-11.8C11.9,21,12.7,18.7,14,16.8z"/>
	<path d="M39.8,55.8c-0.1-4.1-3.5-7.5-7.7-7.6h-0.5c-4.3,0.1-7.7,3.6-7.7,7.8l0,2.4l0,13.7c0,2.1,0.8,4.1,2.3,5.6
		c1.5,1.5,3.5,2.3,5.6,2.3h0c0,0,0,0,0,0c4.4,0,7.9-3.6,8-7.9l0-6.6h0l0-7.1l0-2.3C39.8,56.1,39.8,55.9,39.8,55.8z M35.8,72.2
		c0,2.2-1.8,3.9-4,3.9c0,0,0,0,0,0c-1.1,0-2-0.4-2.8-1.2s-1.2-1.7-1.1-2.8l0-6.6h7.9L35.8,72.2z"/>
	<path d="M54.6,61l-8.3,4.2c-0.7,0.4-1,1.3-0.6,2c0.4,0.7,1.3,1,2,0.6l4.2-2.2c-0.8,10.4-9.5,18.6-20.1,18.6
		c-11.2,0-20.2-9.1-20.2-20.2c0-11.2,9.1-20.2,20.3-20.2c1.1,0,2-0.9,2-2s-0.9-2-2-2c-13.4,0-24.2,10.9-24.2,24.2
		s10.9,24.2,24.2,24.2c12.5,0,22.9-9.6,24.1-21.8l3.4,3.4c0.3,0.3,0.7,0.4,1.1,0.4c0.4,0,0.8-0.1,1.1-0.4c0.6-0.6,0.6-1.5,0-2.1
		L54.6,61z"/>
	<path d="M69,51.6l3.2-3.8c0.3-0.4,0.5-0.8,0.5-1.3c0,0,0,0,0-0.1c-0.1-0.9-0.9-1.6-1.8-1.6c-0.7,0.1-1.3,0.4-1.7,1l-2.5,3.3
		l-2.5-3.3c-0.4-0.6-1.1-1-1.8-1c0,0-0.1,0-0.1,0c-0.9,0-1.7,0.8-1.6,1.8c0,0.5,0.2,1.1,0.6,1.5l3.1,3.6L61,55.7
		c-0.3,0.4-0.5,0.8-0.5,1.3c0,0,0,0.1,0,0.1c0.1,0.9,0.9,1.6,1.8,1.6c0.7-0.1,1.3-0.4,1.7-1l2.7-3.6l2.7,3.6c0.4,0.6,1.1,1,1.8,1
		c0,0,0.1,0,0.1,0c0.9,0,1.7-0.8,1.6-1.8c0-0.5-0.2-1.1-0.6-1.5L69,51.6z"/>
	<path d="M82.2,46.9c-0.8,0-1.6,0.1-2.3,0.3l0.2-3H86c0.9,0,1.7-0.8,1.7-1.7c0-0.9-0.8-1.7-1.7-1.7h-7.6c-0.9,0-1.7,0.7-1.7,1.7
		l-0.4,6c-0.1,0.6,0.2,1.2,0.7,1.6c0.5,0.5,1.1,0.8,1.7,0.8c0.9-0.2,1.8-0.4,2.7-0.4c1.8,0,3.1,0.9,3.1,2.4c0,1.6-1.2,2.4-2.8,2.4
		c-1.2,0-2.4-0.4-3.4-1.1c-0.3-0.2-0.6-0.4-1-0.4c-1,0-1.8,0.8-1.8,1.9c0,0.6,0.3,1.1,0.8,1.5c1.6,1.1,3.6,1.7,5.5,1.6
		c3.9,0,6.6-2.4,6.6-6.1v0C88.3,48.6,85.7,46.9,82.2,46.9z"/>
</g>
</svg>
