<?xml version="1.0" encoding="utf-8"?>
<!-- Generator: Adobe Illustrator 24.0.0, SVG Export Plug-In . SVG Version: 6.00 Build 0)  -->
<svg version="1.1" id="Layer_1" xmlns="http://www.w3.org/2000/svg" xmlns:xlink="http://www.w3.org/1999/xlink" x="0px" y="0px"
	 viewBox="0 0 100 100" style="enable-background:new 0 0 100 100;" xml:space="preserve">
<g>
	<path d="M33,45.3c-1.4-1.5-3.4-2.3-5.4-2.3H27c-4.2,0.1-7.6,3.5-7.6,7.7h0v0v0.1v6.3v2v7.6c0,2.1,0.8,4.1,2.3,5.6
		c1.5,1.5,3.5,2.3,5.6,2.3c0,0,0,0,0,0c4.4,0,7.9-3.5,7.9-7.9v-7.6v-2v-6.3v0c0,0,0,0,0,0v-0.1v-0.1h0C35.2,48.7,34.5,46.8,33,45.3z
		 M31.2,57.2h-7.8v-6.3c0-1,0.4-2,1.1-2.8c0.7-0.7,1.7-1.1,2.8-1.1c0,0,0,0,0,0c2.1,0,3.9,1.8,3.9,3.9V57.2z"/>
	<path d="M48.4,22.2H18.1c-4.6,0-8.3,3.7-8.3,8.3v42.2c0,4.6,3.7,8.3,8.3,8.3h30.3c4.6,0,8.3-3.7,8.3-8.3V30.5
		C56.7,25.9,53,22.2,48.4,22.2z M52.7,72.7c0,2.4-1.9,4.3-4.3,4.3H18.1c-2.4,0-4.3-1.9-4.3-4.3V30.5c0-2.4,1.9-4.3,4.3-4.3h30.3
		c2.4,0,4.3,1.9,4.3,4.3V72.7z"/>
	<path d="M22.1,39.3C22.1,39.3,22.1,39.3,22.1,39.3c0.5,0,0.9-0.4,0.9-0.9c0-0.3-0.1-0.5-0.3-0.7L21.4,36c1.1-0.4,1.8-1.5,1.8-2.7
		c0-0.7-0.2-1.5-0.8-2c-0.7-0.6-1.6-0.9-2.6-0.9h-3c-0.6,0-1,0.4-1,1v7c0,0.2,0,0.3,0,0.5c0.1,0.5,0.7,0.9,1.2,0.7
		c0.5-0.1,0.9-0.7,0.7-1.2v-2h1.5l1.9,2.4C21.3,39.1,21.7,39.3,22.1,39.3z M19.7,34.8l-2,0v-2.5h1.9c1,0,1.5,0.4,1.5,1.3
		C21.2,34.2,20.6,34.8,19.7,34.8z"/>
	<path d="M24.3,38.6C24.3,38.6,24.3,38.6,24.3,38.6c0,0.5,0.4,0.9,0.9,0.8c0.3,0,0.6-0.2,0.8-0.5l1.4-1.7l1.4,1.8
		c0.2,0.3,0.5,0.5,0.9,0.5c0,0,0,0,0.1,0c0.5,0,0.8-0.4,0.8-0.9c0-0.3-0.1-0.5-0.3-0.7l-1.7-1.9l1.6-1.9c0.2-0.2,0.3-0.4,0.3-0.6
		c0,0,0,0,0,0c0-0.5-0.4-0.8-0.9-0.8c-0.3,0-0.7,0.2-0.8,0.5l-1.3,1.7L26.2,33c-0.2-0.3-0.5-0.5-0.9-0.5c0,0,0,0-0.1,0
		c-0.5,0-0.8,0.4-0.8,0.9c0,0.3,0.1,0.5,0.3,0.7l1.6,1.8l-1.7,2C24.4,38.1,24.3,38.3,24.3,38.6z"/>
	<path d="M41.7,58l1.6-2c0.2-0.2,0.3-0.4,0.3-0.7c0,0,0,0,0,0c0-0.5-0.4-0.8-0.9-0.8c-0.3,0-0.6,0.2-0.8,0.5l-1.3,1.7L39.4,55
		c-0.2-0.3-0.5-0.5-0.9-0.5c0,0,0,0-0.1,0c-0.5,0-0.8,0.4-0.8,0.9c0,0.3,0.1,0.5,0.3,0.7l1.6,1.8l-1.7,2c-0.2,0.2-0.3,0.4-0.3,0.7
		c0,0,0,0,0,0c0,0.5,0.4,0.8,0.9,0.8c0.3,0,0.7-0.2,0.8-0.5l1.4-1.7l1.4,1.8c0.2,0.3,0.5,0.5,0.9,0.5c0,0,0,0,0.1,0
		c0.5,0,0.9-0.4,0.8-0.9c0-0.3-0.1-0.5-0.3-0.7L41.7,58z"/>
	<path d="M48.3,53.4c0-0.5-0.4-1-1-1c-0.3,0-0.6,0.1-0.9,0.2l-1.2,0.4c-0.4,0.1-0.7,0.4-0.7,0.8c0,0.5,0.4,0.8,0.9,0.8
		c0.1,0,0.2,0,0.3,0l0.7-0.2l0,6.1c-0.1,0.2-0.1,0.4,0,0.6c0.2,0.5,0.7,0.8,1.3,0.7c0.5-0.2,0.8-0.7,0.7-1.3V53.4z"/>
	<path d="M68.3,43h-0.2c0,0,0,0-0.1,0h-0.2c-4.2,0-7.6,3.5-7.6,7.7h0v0v0.1v6.3v2v7.6c0,4.4,3.5,7.9,7.9,7.9s7.9-3.5,7.9-7.9v-7.6
		v-2v-6.3c0,0,0,0,0,0v0v-0.1c0-2.1-0.8-4-2.2-5.5C72.3,43.8,70.4,43,68.3,43z M64.1,57.2v-6.3c0-2.2,1.8-3.9,3.9-3.9
		s3.9,1.7,3.9,3.9v6.3H64.1z"/>
	<path d="M82.4,58l1.6-2c0.2-0.2,0.3-0.4,0.3-0.7c0,0,0,0,0,0c0-0.5-0.4-0.8-0.9-0.8c-0.3,0-0.6,0.2-0.8,0.5l-1.3,1.7L80.1,55
		c-0.2-0.3-0.5-0.5-0.9-0.5c0,0,0,0-0.1,0c-0.5,0-0.8,0.4-0.8,0.9c0,0.3,0.1,0.5,0.3,0.7l1.6,1.8l-1.7,2c-0.2,0.2-0.3,0.4-0.3,0.7
		c0,0,0,0,0,0c0,0.5,0.4,0.8,0.9,0.8c0.3,0,0.7-0.2,0.8-0.5l1.4-1.7l1.4,1.8c0.2,0.3,0.5,0.5,0.9,0.5c0,0,0,0,0.1,0
		c0.5,0,0.8-0.4,0.8-0.9c0-0.3-0.1-0.5-0.3-0.7L82.4,58z"/>
	<path d="M89.1,60.6v-7.1c0-0.6-0.4-1-1-1c-0.3,0-0.6,0.1-0.9,0.2L85.9,53c-0.3,0.1-0.4,0.3-0.5,0.6c-0.1,0.5,0.2,0.9,0.7,1
		c0.1,0,0.2,0,0.3,0l0.7-0.2l0,6.2c-0.1,0.2-0.1,0.4,0,0.6c0.2,0.5,0.7,0.8,1.3,0.7C89,61.7,89.3,61.1,89.1,60.6z"/>
</g>
</svg>
