<?xml version="1.0" encoding="utf-8"?>
<!-- Generator: Adobe Illustrator 24.0.0, SVG Export Plug-In . SVG Version: 6.00 Build 0)  -->
<svg version="1.1" id="Layer_1" xmlns="http://www.w3.org/2000/svg" xmlns:xlink="http://www.w3.org/1999/xlink" x="0px" y="0px"
	 viewBox="0 0 100 100" style="enable-background:new 0 0 100 100;" xml:space="preserve">
<g>
	<path d="M91.4,82.5c-0.1-0.8-1.2-8.8-6.5-12.2c-4.2-2.7-16.4-6-20.8-7.1c0-0.3,0.1-0.6,0.1-0.9c6.6-5.1,10.8-14,10.8-23.1
		c0-14.4-10.3-26.1-23-26.1c-12.7,0-23,11.7-23,26.1c0,9.3,4.2,18.1,11,23.2c0,0.3,0.1,0.5,0.1,0.8c-4.7,1.2-16.3,4.4-20.3,7
		c-5.3,3.4-6.4,11.3-6.5,12.2L11,95.1c-0.2,1.1,0.5,2.1,1.6,2.3c0.1,0,0.2,0,0.4,0c0.9,0,1.8-0.7,2-1.6l2.3-12.7l0-0.1
		c0.2-1.9,1.5-7.3,4.7-9.3c2.9-1.9,11.4-4.4,17.1-5.9v11.5c-2.6,0.8-4.5,3.3-4.5,6.2c0,3.6,2.9,6.5,6.5,6.5s6.5-2.9,6.5-6.5
		c0-2.9-1.9-5.4-4.5-6.2V71c2.2,3.2,5.4,5.6,9,5.6c3.5,0,6.7-2.3,8.9-5.4v4.1l-2.5,1.4c-2.9,1.6-4.7,4.6-4.7,8v2.6
		c0,1.9,1.5,3.4,3.4,3.4h1.4v-4h-0.8v-2c0-1.9,1-3.6,2.7-4.5l2.6-1.4l2.6,1.5c1.6,0.9,2.6,2.6,2.6,4.5v2h-0.8v4h1.4
		c1.8,0,3.4-1.5,3.4-3.4v-2.6c0-3.3-1.8-6.4-4.7-7.9L65,75.3v-7.7c5.7,1.5,14.7,4.2,17.7,6.1c3.9,2.5,4.7,9.3,4.7,9.3l2,12.3
		c0.2,1,1,1.7,2,1.7c0.1,0,0.2,0,0.3,0c1.1-0.2,1.8-1.2,1.7-2.3L91.4,82.5z M33,39.3c0-12.2,8.5-22.1,19-22.1s19,9.9,19,22.1
		c0,8.2-3.9,16.2-9.9,20.4c-0.1,0.1-0.2,0.2-0.3,0.3c-6.3,3.7-11.2,3.8-17.4,0.1c-0.1-0.1-0.2-0.2-0.3-0.2C37,55.6,33,47.6,33,39.3z
		 M41.1,88c-1.4,0-2.5-1.1-2.5-2.5s1.1-2.5,2.5-2.5s2.5,1.1,2.5,2.5S42.5,88,41.1,88z M52.1,72.6c-3.1,0-6.2-3.6-7.4-7.4
		c2.5,1,4.9,1.6,7.3,1.6c2.5,0,5-0.6,7.7-1.7C58.3,68.9,55.3,72.6,52.1,72.6z"/>
	<path d="M73.8,61.7c2.5,2,5.2,3.1,8.5,2.3c2.4-0.6,4.1-2.2,5.8-3.9c6.9-7.2,9.4-16,9.4-25.8c0-2.4-0.5-4.7-1.5-6.9
		c-0.3-0.5-0.6-0.9-0.9-1.3c-2-2.7-5.5-4-8.8-3.4c0,0,0,0,0,0c-0.7,0.1-1.3,0.7-1.3,1.4c-0.1,2.5-0.3,5-0.5,7.5
		c-0.1,1.4,0.2,1.8,1.6,2.2c1.1,0.3,2.2,0.5,3.3,0.7c1.5,0.4,1.8,0.7,1.6,2.3c-0.4,4-1.3,8-2.7,11.8c-0.6,1.4-1.3,2.6-2.2,3.8
		c-1,1.3-1.5,1.4-3,0.8c-1.1-0.4-2.2-1-3.4-1.4c-1.2-0.4-1.6-0.2-2.3,0.8c-1.3,2.1-2.7,4.2-4,6.3C72.8,60.3,72.7,60.8,73.8,61.7z"/>
</g>
</svg>
