<?xml version="1.0" encoding="utf-8"?>
<!-- Generator: Adobe Illustrator 24.0.0, SVG Export Plug-In . SVG Version: 6.00 Build 0)  -->
<svg version="1.1" id="Layer_1" xmlns="http://www.w3.org/2000/svg" xmlns:xlink="http://www.w3.org/1999/xlink" x="0px" y="0px"
	 viewBox="0 0 100 100" style="enable-background:new 0 0 100 100;" xml:space="preserve">
<g>
	<polygon points="71.3,21.1 75.1,18.9 79.1,20.8 78.2,16.5 81.2,13.3 76.8,12.8 74.7,9 72.9,13 68.6,13.8 71.8,16.8 	"/>
	<path d="M15.3,31c0.3,0.2,0.7,0.3,1,0.3c0.7,0,1.3-0.3,1.7-0.9c0.6-0.9,0.3-2.2-0.7-2.8c-0.6-0.3-0.9-0.9-1.1-1.6
		c0.1-1.6,5-5.6,20.2-7.9c1.1-0.2,1.8-1.2,1.7-2.3c-0.2-1.1-1.2-1.8-2.3-1.7c-7.2,1.1-23.8,4.6-23.5,12.1c0,0.1,0,0.1,0,0.2
		C12.6,28.3,13.6,30,15.3,31z"/>
	<path d="M55.8,16.5c3.1-0.1,6.2,0,9.1,0.2c0,0,0.1,0,0.1,0c1,0,1.9-0.8,2-1.9c0.1-1.1-0.8-2.1-1.9-2.1c-3-0.2-6.2-0.3-9.5-0.2
		c-1.1,0-2,0.9-2,2C53.8,15.6,54.7,16.5,55.8,16.5z"/>
	<path d="M45.8,45.7L45.8,45.7l0.1,0c1.7-0.1,3.3-0.5,4.8-1.3c1-0.5,1.4-1.7,0.9-2.7c-0.5-1-1.7-1.4-2.7-0.9c-1,0.5-2,0.8-3.1,0.8
		c-1,0-1.9-0.3-2.7-0.9c-0.9-0.6-2.2-0.4-2.8,0.5c-0.6,0.9-0.4,2.2,0.5,2.8C42.2,45.1,44,45.6,45.8,45.7z"/>
	<path d="M55.3,43.6c1.5,1,3.2,1.6,5,1.6l0.1,0l0.1,0c1.7-0.1,3.3-0.5,4.8-1.3c1-0.5,1.4-1.7,0.9-2.7c-0.5-1-1.7-1.4-2.7-0.9
		c-1,0.5-2,0.8-3.1,0.8c-1,0-1.9-0.4-2.7-0.9c-0.9-0.6-2.2-0.4-2.8,0.5C54.2,41.8,54.4,43,55.3,43.6z"/>
	<path d="M95,88.6c0-0.4-1.1-9.2-6.8-12.8c-4.6-2.9-18.4-6.6-22.3-7.5c6.4-5.2,10.5-14,10.5-23c0-3.6-0.6-7-1.8-10.1
		c2.6-0.5,5.1-1.1,7.3-1.8c8.5-2.6,12.8-5.8,12.6-9.7c-0.1-3.4-3.5-6.1-10.2-8.1c-1.1-0.3-2.2,0.3-2.5,1.3c-0.3,1.1,0.3,2.2,1.3,2.5
		c5.8,1.7,7.3,3.6,7.4,4.4c0,1-2,3.4-9.8,5.7c-2.4,0.7-5,1.3-7.9,1.9C68.8,23.8,61.4,18.8,53,18.8c-0.9,0-1.9,0.1-2.8,0.2l-0.8-4
		l3-3.2L48,11.3l-2.1-3.9l-1.8,4l-4.3,0.8l3.3,3l-0.6,4.4l3.8-2.2l3.5,1.7c-6.3,1-11.9,4.9-15.5,10.4L30,29l-2.1-3.9l-1.8,4L21.8,30
		l3.3,3l-0.6,4.4l3.8-2.2l2.7,1.3c-0.9,2.8-1.4,5.8-1.4,8.9c0,9.1,4.1,18,10.7,23.1C35.8,69.6,23,73,18.6,75.8
		c-5.7,3.7-6.8,12.5-6.8,12.8c-0.1,1.1,0.7,2.1,1.8,2.2c0.1,0,0.1,0,0.2,0c1,0,1.9-0.8,2-1.8c0.2-2,1.6-7.7,5-9.9
		c3.6-2.3,15.2-5.5,20.8-6.9C43.2,77.8,47.7,83,53.1,83c5.4,0,10-5.3,11.6-11c5.4,1.4,17.6,4.7,21.3,7.1c4.1,2.6,5,9.8,5,9.9
		c0.1,1,1,1.8,2,1.8c0.1,0,0.1,0,0.2,0C94.3,90.7,95.1,89.7,95,88.6z M53,22.8c6.4,0,12.2,3.7,15.7,9.3c-4.7,0.7-9.7,1.1-15,1.3
		c-5.3,0.2-10.8,0-16.1-0.4c-0.3,0-0.6,0-0.8,0.1C40.2,26.8,46.2,22.8,53,22.8z M31.4,32.7l2.6-2.8c-0.9,1.4-1.6,2.9-2.3,4.5
		L31.4,32.7z M33.7,45.2c0-3.5,0.7-6.7,1.9-9.7c0.3,0.7,0.9,1.3,1.7,1.3c4,0.3,8,0.5,12,0.5c1.5,0,3,0,4.5-0.1
		c5.9-0.2,11.6-0.7,16.7-1.5c1.1,2.9,1.8,6,1.8,9.4c0,8.3-4,16.5-10.1,20.7l0,0C55.5,70,50.4,70,43.8,66l0,0
		C37.6,61.7,33.7,53.6,33.7,45.2z M53.1,79c-3.3,0-6.4-3.7-7.6-7.7c2.5,1.1,5,1.7,7.5,1.7c2.6,0,5.2-0.6,7.8-1.8
		C59.6,75.2,56.4,79,53.1,79z"/>
</g>
</svg>
