<svg id="Layer_1" data-name="Layer 1" xmlns="http://www.w3.org/2000/svg" viewBox="0 0 100 100"><defs><style>.cls-1{fill:none;}.cls-1,.cls-2,.cls-3{stroke:#000;}.cls-1,.cls-2{stroke-miterlimit:10;}.cls-1,.cls-3{stroke-width:4px;}.cls-3{stroke-linecap:round;stroke-linejoin:round;}</style></defs><circle class="cls-1" cx="25.51" cy="25.5" r="13.77"/><path d="M17.35,14.41a13.94,13.94,0,0,0-2.92,2.92L33.68,36.58a13.94,13.94,0,0,0,2.92-2.92Z"/><path d="M62.45,17.19a3.34,3.34,0,0,1,.62.06,3.1,3.1,0,0,1,2.39,3.06L65.52,49a1.34,1.34,0,0,0,1.33,1.33h0A1.34,1.34,0,0,0,68.21,49l.05-26.69A3.29,3.29,0,0,1,71.55,19h.12a3.18,3.18,0,0,1,3.15,3.2l-.18,28A1.34,1.34,0,0,0,76,51.49h0a1.33,1.33,0,0,0,1.33-1.33l.07-19.8a3.23,3.23,0,0,1,2.53-3.2,2.79,2.79,0,0,1,.64-.07,3.16,3.16,0,0,1,3.16,3.18L83.57,71A18.86,18.86,0,0,1,64.71,89.75h-.07c-1.26,0-2.63-.07-4-.21a21.21,21.21,0,0,1-18.9-18.46,37.46,37.46,0,0,1-.29-4.62L41.47,49A3.24,3.24,0,0,1,44,45.78a2.94,2.94,0,0,1,.65-.07,3.16,3.16,0,0,1,3.16,3.18v9.23A1.28,1.28,0,0,0,49,59.4h.11a1.28,1.28,0,0,0,1.28-1.28l.1-34.93A3.23,3.23,0,0,1,53.7,20h0A3.19,3.19,0,0,1,57,23.06l-.2,26.61A1.33,1.33,0,0,0,58.17,51a1.24,1.24,0,0,0,.33,0,1.35,1.35,0,0,0,1-1.36L59.44,20.2a3,3,0,0,1,3-3m0-4h0a6.93,6.93,0,0,0-5,2.06,6.61,6.61,0,0,0-1,1.25A7.52,7.52,0,0,0,53.73,16h0a7.24,7.24,0,0,0-7.21,7.21l-.06,18.74a7.46,7.46,0,0,0-1.77-.22,7.59,7.59,0,0,0-1.42.14A7.24,7.24,0,0,0,37.47,49L37.4,66.45a40.36,40.36,0,0,0,.33,5.15A25,25,0,0,0,60.21,93.52c1.5.15,3,.22,4.42.23h.08A22.91,22.91,0,0,0,87.57,71l.15-40.7a7.17,7.17,0,0,0-7.16-7.19,7.41,7.41,0,0,0-1.41.14l-.34.07V22.21A7.19,7.19,0,0,0,71.69,15h-.1a7.3,7.3,0,0,0-3.61.95,6.89,6.89,0,0,0-4.13-2.6,7.3,7.3,0,0,0-1.4-.14Z"/><path class="cls-2" d="M69.91,65s-4,3.52-.17,8.36c3.13,4,9.73,2.64,11.45-2a7.38,7.38,0,0,0,.27-4.21c-.3-1.3-1.2-2.3-1.55-3.56a3,3,0,0,1,0-1.22s-1.52.43-1.61,3c-.11,3.39-1.64-.51-2.12-2.46a27.73,27.73,0,0,1-.65-4.22,6.06,6.06,0,0,0-3,3.37c-.93,2.7.27,5.91-.36,7C71,69.34,69.91,65,69.91,65Z"/><circle class="cls-3" cx="54.31" cy="73.86" r="4.84"/><circle class="cls-3" cx="58.56" cy="58.97" r="3.88"/></svg>