<?xml version="1.0" encoding="utf-8"?>
<!-- Generator: Adobe Illustrator 24.0.0, SVG Export Plug-In . SVG Version: 6.00 Build 0)  -->
<svg version="1.1" id="Layer_1" xmlns="http://www.w3.org/2000/svg" xmlns:xlink="http://www.w3.org/1999/xlink" x="0px" y="0px"
	 viewBox="0 0 100 100" style="enable-background:new 0 0 100 100;" xml:space="preserve">
<g>
	<path d="M24,9.5c-8.7,0-15.8,7.1-15.8,15.8S15.3,41.1,24,41.1c8.7,0,15.8-7.1,15.8-15.8S32.7,9.5,24,9.5z M12.2,25.3
		c0-2.5,0.8-4.8,2.1-6.7L30.7,35c-1.9,1.3-4.2,2.1-6.7,2.1C17.5,37.1,12.2,31.8,12.2,25.3z M33.6,32L17.3,15.7
		c1.9-1.3,4.2-2.1,6.7-2.1c6.5,0,11.8,5.3,11.8,11.8C35.8,27.8,35,30.1,33.6,32z"/>
	<path d="M74.1,39.5c-1.5-0.7-3.1-1.3-4.7-1.7c-1.7-0.5-2.9-2.1-2.9-3.8l-0.3-4.8c1.8-2.5,2.3-5.6,1.5-8.5c-0.3-1.1-0.8-2.1-1.5-3.1
		c0.3,0.1,0.6,0.1,0.9,0.3c1,0.5,1.8,1.5,2,2.7c0.2,0.9,0.3,1.8,0.4,2.7c0.1,0.8,0.2,1.6,0.4,2.4c0.3,0.9,0.8,1.8,1.7,2.3
		c0.9,0.7,2,0.9,3.1,0.7c0.5-0.1,0.9-0.4,1.3-0.7c1.2-0.9,1.7-2.5,1.3-3.9c0-0.2-0.1-0.4-0.1-0.6c0,0.1,0,0.1,0,0.2
		c-0.1,0.9-0.8,1.6-1.7,1.7c-0.7,0.1-1.4-0.4-1.6-1.1c-0.1-0.5-0.2-1.1-0.1-1.6c0-1-0.1-1.9-0.1-2.9c-0.1-0.8-0.2-1.6-0.5-2.4
		c-0.5-1.3-1.3-2.5-2.4-3.3c-0.8-0.7-1.7-1.2-2.6-1.5c-1.6-0.5-3.3-0.3-4.7,0.6c-0.4,0.3-0.8,0.6-1.2,1c-3.7-1.8-8.3-1.2-11.4,1.9
		c-2.6,2.6-3.7,6.3-2.7,9.9l-0.9,2.6c-0.1,0.3,0.1,0.7,0.4,0.8c0.1,0,0.2,0,0.3,0l1.7-0.2c1.6,2.3,4.2,3.8,7,4.2L56,41.5
		c-0.2,1.8-1.2,3.5-2.7,4.5l-3,1.9c-2.5,1.6-3.5,4.8-2.2,7.5l1.5,3.3c0.5,1.2,0.2,2.6-0.8,3.5c-3.6,3.1-6,7.3-6.9,12
		c-0.1,0.9-0.2,1.8-0.2,2.7c0,3.3,0.7,6.6,2.1,9.5l2,4.2h27.1c0,0-0.3-14.4,0.7-15.3c3.7-3.3,12.3-11.5,13-14.8
		C87.4,56.4,75.8,40.5,74.1,39.5z M76.7,60.5L76.7,60.5L71,67.3c-0.1,0.1-0.3,0.2-0.4,0.1c-0.1-0.1-0.1-0.2-0.1-0.3l0.9-14.8
		c0-0.2,0.2-0.3,0.4-0.3c0.1,0,0.2,0.1,0.2,0.1l4.8,6.7C77.1,59.3,77.1,60,76.7,60.5z"/>
</g>
</svg>
