<svg id="Layer_1" data-name="Layer 1" xmlns="http://www.w3.org/2000/svg" viewBox="0 0 100 100"><defs><style>.cls-1{fill:none;stroke-linecap:round;}.cls-1,.cls-2{stroke:#000;stroke-miterlimit:10;stroke-width:4px;}</style></defs><path class="cls-1" d="M60,44.29h0C59.77,32.19,48.68,22.44,35,22.44S10.31,32.19,10.1,44.29h0v14a8.53,8.53,0,0,0,8.53,8.53h2.74v3.82a8.53,8.53,0,0,0,8.54,8.53H40.37a8.53,8.53,0,0,0,8.54-8.53V66.83h2.54A8.53,8.53,0,0,0,60,58.3Z"/><circle cx="25.28" cy="48.95" r="6.48"/><circle cx="44.65" cy="48.95" r="6.48"/><polygon points="38.19 62.04 31.78 62.04 35.06 57.22 38.19 62.04"/><line class="cls-1" x1="30.31" y1="70.56" x2="30.31" y2="78.22"/><line class="cls-1" x1="39.67" y1="70.56" x2="39.67" y2="78.22"/><path class="cls-2" d="M87.67,52.42h0a6.35,6.35,0,0,0-8.94.73l-5.25,6.18,9.66,8.21,5.25-6.19A6.34,6.34,0,0,0,87.67,52.42Z"/><path class="cls-2" d="M67.71,66.13l5.77-6.8h0l-5.86,6.91a6.12,6.12,0,0,0,.61,8.65l.2.18h0A6.35,6.35,0,0,1,67.71,66.13Z"/><path class="cls-2" d="M68.43,75.07l.21.17a6.14,6.14,0,0,0,8.64-.8l5.86-6.9h0l-5.78,6.8A6.35,6.35,0,0,1,68.43,75.07Z"/></svg>