<svg id="Layer_1" data-name="Layer 1" xmlns="http://www.w3.org/2000/svg" viewBox="0 0 100 100"><defs><style>.cls-1,.cls-2,.cls-3{fill:none;stroke:#000;stroke-width:4px;}.cls-1,.cls-3{stroke-linejoin:round;}.cls-2,.cls-3{stroke-linecap:round;}.cls-2{stroke-miterlimit:10;}</style></defs><path class="cls-1" d="M61.05,71.84a24.85,24.85,0,0,0,1-3,9.64,9.64,0,0,0,.22-2,.76.76,0,0,0,0-.15c5.94-4.13,10-12,10-20.29,0-12.26-8.66-22.2-19.35-22.2a18.68,18.68,0,0,0-8.67,2.72"/><path class="cls-2" d="M89.17,85.83s-.82-7.42-5.35-10.3S63.21,68.7,63.21,68.7"/><path class="cls-1" d="M64.09,49c0-12.26-8.66-22.2-19.34-22.2S25.41,36.78,25.41,49c0,8.43,4.09,16.32,10.13,20.42v0c0,5.14,4.16,12.3,9.3,12.3s9.3-7.16,9.3-12.3v-.15C60.07,65.19,64.09,57.38,64.09,49Z"/><path class="cls-2" d="M41.84,46.64a8.77,8.77,0,0,1-3.65,1,6.47,6.47,0,0,1-3.51-1.13"/><path class="cls-2" d="M55,46.29a8.77,8.77,0,0,1-3.65,1,6.26,6.26,0,0,1-3.5-1.13"/><path class="cls-2" d="M9.17,88.55s.83-7.42,5.36-10.3,20.6-6.83,20.6-6.83"/><path class="cls-2" d="M81,88.55s-.82-7.42-5.35-10.3-20.61-6.83-20.61-6.83"/><polygon points="44.7 21.46 40.73 19.57 36.91 21.77 37.48 17.41 34.2 14.45 38.54 13.65 40.33 9.62 42.44 13.5 46.82 13.96 43.78 17.16 44.7 21.46"/><polygon points="26.71 39.19 22.72 37.3 18.91 39.49 19.48 35.13 16.21 32.17 20.55 31.37 22.34 27.34 24.43 31.23 28.82 31.69 25.8 34.88 26.71 39.19"/><polygon points="73.49 23.04 69.5 21.15 65.69 23.35 66.26 18.98 62.99 16.03 67.33 15.22 69.12 11.2 71.21 15.08 75.6 15.54 72.58 18.73 73.49 23.04"/><path class="cls-3" d="M10.71,31.53a4.31,4.31,0,0,1-2-3.12c-.13-4.13,8.8-8,21.85-10.07"/><path class="cls-3" d="M78.16,19.73C83.59,21.34,86.88,23.5,87,26c.18,5.74-17.18,10.95-38.78,11.62a136.38,136.38,0,0,1-16.33-.43"/><path class="cls-3" d="M50.19,16.71c3.22-.07,6.33,0,9.27.2"/><path class="cls-1" d="M34.49,68.73s0,0,0,0c7.17,4.47,13.2,4.47,20.52,0"/></svg>