<?xml version="1.0" encoding="utf-8"?>
<!-- Generator: Adobe Illustrator 24.0.0, SVG Export Plug-In . SVG Version: 6.00 Build 0)  -->
<svg version="1.1" id="Layer_1" xmlns="http://www.w3.org/2000/svg" xmlns:xlink="http://www.w3.org/1999/xlink" x="0px" y="0px"
	 viewBox="0 0 100 100" style="enable-background:new 0 0 100 100;" xml:space="preserve">
<g>
	<path d="M87.3,17c-2.9-3.6-8.2-4.1-11.8-1.2c-0.4,0.3-0.8,0.7-1.2,1.2L72,19.7L69.5,17c-3-3.6-8.3-4.1-11.8-1.1
		c-0.4,0.3-0.8,0.7-1.1,1.1c-3.6,4.2-3.6,10.4,0,14.7l1.2,1.3h4.6l1.7-4.5c0.3-0.7,1-1.1,1.7-0.8c0.4,0.1,0.7,0.5,0.8,0.9l1.9,6.5
		l6.1-11.9c0.3-0.7,1.1-0.9,1.8-0.6c0.3,0.2,0.5,0.4,0.6,0.7l3,7.8h7.8c-0.1,0.2-0.3,0.4-0.5,0.6l-1.1,1.2h-6.3
		c-0.7,0-1.4-0.5-1.7-1.2l-2.6-6.8l-6.1,12c-0.2,0.4-0.7,0.7-1.2,0.7h-0.1c-0.6-0.1-1-0.5-1.2-1l-1.8-6.3L64,33.6
		c-0.3,0.7-0.9,1.2-1.7,1.2h-3L72,49.1l13-14.7l2.4-2.7C90.9,27.4,90.9,21.2,87.3,17z"/>
	<polygon points="57.8,33 57.8,33 59,34.4 59.3,34.8 59.4,34.8 59,34.4 	"/>
	<path d="M65.5,58.6l-3.6,1.3c-0.8,0.3-1.2,1.2-0.9,1.9c0.2,0.6,0.8,1,1.4,1c0.2,0,0.4,0,0.5-0.1l3.6-1.3c0.8-0.3,1.2-1.2,0.9-1.9
		C67.1,58.7,66.2,58.3,65.5,58.6z"/>
	<path d="M63,63.5c-0.8,0-1.5,0.7-1.5,1.5c0,0.8,0.7,1.5,1.5,1.5c0,0,0,0,0,0l3.9,0c0.8,0,1.5-0.7,1.5-1.5s-0.7-1.5-1.5-1.5L63,63.5
		z"/>
	<path d="M73.6,58.6c-0.6-0.8-1.3-1.4-2.2-1.9c-0.5-2.1-2.5-3.4-4.6-3.1c-0.3,0-0.6,0.1-0.8,0.2c-0.8,0.3-1.1,1.2-0.8,2
		c0.3,0.8,1.2,1.1,2,0.8c0.1,0,0.1,0,0.2-0.1c0.5-0.1,1.1,0.3,1.1,0.7c0,0.1,0,0.2,0,0.2l-0.2,1.3l1.3,0.3c0.6,0.2,1.2,0.5,1.5,1.1
		c0.9,1.2,0.6,2.9-0.7,3.7l-1,0.7l0.5,1.1c0,0.1,0.1,0.2,0.1,0.3c0.1,0.5-0.2,1-0.8,1.2c0,0-0.1,0-0.1,0c-0.8-0.1-1.6,0.5-1.7,1.3
		c-0.1,0.8,0.5,1.6,1.3,1.7c0.1,0,0.3,0,0.4,0s0.3,0,0.4,0l0.1,0c2.1-0.4,3.5-2.4,3.2-4.5C74.9,63.9,75.2,60.9,73.6,58.6z"/>
	<path d="M66.8,81.1c-2.2-1.4-8.3-3.1-10.9-3.7c0-0.4,0-0.8-0.1-1.2c3.5-3.6,4.1-6.8,3.9-8.9c0-0.4-0.3-0.8-0.6-1.1
		c-0.3-0.3-0.8-0.3-1.2-0.3c-2.4,0.5-3.6,0.5-4.1,0.3c0.3-0.7,1.5-2.2,4.3-4.6c0.5-0.4,0.7-1.2,0.4-1.8c-0.4-0.9-0.9-1.7-1.5-2.4
		l0.6-1.5c0.5-1.2-0.1-2.5-1.3-3c-0.3-0.1-0.7-0.2-1-0.2L51.8,53c-3-1.5-6.4-1.8-9.7-1c-0.2,0-0.4,0.1-0.5,0.2
		c-2.9,0.9-5.3,3-6.9,5.9c-1.9,3.4-2.3,7.5-1.1,11.3c1,3.6,3.2,6.7,6.1,8.8c-2.8,0.8-6.4,1.9-8,2.9c-3,2-3.6,6.4-3.7,6.8
		c-0.1,0.8,0.5,1.6,1.3,1.7c0.1,0,0.1,0,0.2,0c0.8,0,1.4-0.6,1.5-1.3c0.1-0.9,0.7-3.6,2.3-4.7c1.7-1.1,6.8-2.5,9.6-3.2
		c0.6,1.2,1.6,2.2,2.8,2.8c1,0.6,2.2,0.9,3.3,0.9c0.6,0,1.3-0.1,1.9-0.3c1.8-0.5,3.2-1.7,4.1-3.3c0.1-0.1,0.1-0.2,0.1-0.3
		c2.9,0.8,8.3,2.3,10,3.4c1.6,1,2.2,3.7,2.3,4.7c0.1,0.8,0.7,1.3,1.5,1.3c0.1,0,0.1,0,0.2,0c0.8-0.1,1.4-0.8,1.3-1.7
		C70.4,87.4,69.9,83,66.8,81.1z M50.1,80.9c-1,0.3-2,0.2-3-0.3s-1.6-1.3-1.9-2.3c-0.1-0.5-0.5-0.8-0.9-1c-3.9-1.5-6.9-4.7-8-8.7
		c-0.9-3.1-0.6-6.4,0.9-9.1c1.2-2.3,3.2-3.9,5.4-4.5c0.1,0,0.3-0.1,0.4-0.2c2.6-0.5,5.3-0.2,7.6,1.1c0.3,0.1,0.5,0.2,0.8,0.2
		l2.8-0.2l-0.5,1.3c-0.2,0.5-0.1,1.1,0.3,1.5c0.4,0.5,0.8,1,1.1,1.5c-4.6,4.1-4.9,5.9-4.4,7.1c0.7,2.2,3.7,2.2,5.8,1.9
		c-0.3,1.7-1.4,3.5-3.2,5.2c-0.2,0.2-0.3,0.3-0.3,0.3c-0.2,0.2-0.3,0.4-0.3,0.7c0,0.2,0,0.4,0,0.6c0,0,0,0.1,0,0.1
		C53.4,78.2,52.2,80.3,50.1,80.9z"/>
	<path d="M31.5,23.4c0.7-0.4,1-1.3,0.6-2c-0.4-0.7-1.3-1-2-0.6c-0.5,0.3-1.1,0.4-1.6,0.5c-0.5,0-1-0.2-1.4-0.4
		c-0.7-0.5-1.6-0.3-2.1,0.4c-0.5,0.7-0.3,1.6,0.4,2.1c0.9,0.6,2,0.9,3.1,1C29.5,24.2,30.6,23.9,31.5,23.4z"/>
	<path d="M33.8,23c0.9,0.6,2,1,3.1,1c1,0,2-0.3,3-0.8c0.7-0.4,1-1.3,0.6-2c-0.4-0.7-1.3-1-2-0.6C38,20.8,37.4,21,36.9,21
		c-0.5,0-1-0.2-1.4-0.5c-0.7-0.5-1.6-0.3-2.1,0.4C32.9,21.6,33.1,22.5,33.8,23z"/>
	<path d="M33.2,47c3.5,0,6-4,7-7.5c3.2,0.8,9.9,2.7,11.9,4c1.9,1.2,2.6,4.3,2.7,5.5c0.1,0.8,0.7,1.3,1.5,1.3c0.1,0,0.1,0,0.2,0
		c0.8-0.1,1.4-0.8,1.3-1.7c0-0.2-0.6-5.5-4.1-7.7c-2.5-1.6-9.6-3.5-12.5-4.3c3.7-3.3,5.8-8.1,5.8-13.1C47,15,40.8,8,33.2,8
		c-7.6,0-13.8,7-13.8,15.6c0,5.1,2.1,9.9,5.9,13.2c-3.1,0.8-9.7,2.6-12.1,4.2C9.6,43.2,9,48.4,9,48.7c-0.1,0.8,0.5,1.6,1.3,1.7
		c0.1,0,0.1,0,0.2,0c0.8,0,1.4-0.6,1.5-1.3c0.1-1.1,0.9-4.3,2.7-5.5c2-1.2,8.2-3,11.6-3.9C27.3,43.1,29.8,47,33.2,47z M22.4,23.6
		c0-7,4.9-12.7,10.8-12.7S44,16.6,44,23.6c0,0,0,0,0,0c0,4.6-2.1,8.9-5.7,11.7c-0.4,0.3-0.6,0.7-0.6,1.2v0.1c0,2.9-2.4,7.4-4.4,7.4
		s-4.4-4.6-4.4-7.4c0-0.5-0.2-0.9-0.6-1.2C24.5,32.6,22.3,28.2,22.4,23.6z"/>
</g>
</svg>
