<svg id="Layer_1" data-name="Layer 1" xmlns="http://www.w3.org/2000/svg" viewBox="0 0 100 100"><defs><style>.cls-1,.cls-2,.cls-3,.cls-4{fill:none;}.cls-2,.cls-3,.cls-4{stroke:#000;stroke-width:3px;}.cls-2,.cls-3{stroke-linecap:round;}.cls-2{stroke-miterlimit:10;}.cls-3,.cls-4{stroke-linejoin:round;}</style></defs><g id="_161" data-name="161"><rect class="cls-1" x="53.92" y="13.55" width="35.89" height="35.89"/><path d="M87.3,17h0a8.41,8.41,0,0,0-13,0L72,19.7,69.55,17A8.41,8.41,0,0,0,56.6,17h0a11.4,11.4,0,0,0,0,14.68L59,34.38,72,49.06l13-14.68,2.4-2.72A11.38,11.38,0,0,0,87.3,17ZM86.23,32.87H79.94a1.8,1.8,0,0,1-1.68-1.16l-2.59-6.84-6.12,12a1.34,1.34,0,0,1-1.19.73h-.13a1.34,1.34,0,0,1-1.17-1l-1.85-6.29L64,33.6a1.82,1.82,0,0,1-1.69,1.18h-3l-.35-.4L57.77,33h4.56L64,28.46a1.34,1.34,0,0,1,2.55.09l1.92,6.51,6.07-11.91a1.34,1.34,0,0,1,2.45.14l3,7.78h7.82a6.26,6.26,0,0,1-.46.59Z"/></g><line class="cls-2" x1="62.36" y1="61.33" x2="65.98" y2="59.98"/><line class="cls-2" x1="63.04" y1="64.99" x2="66.9" y2="64.96"/><path class="cls-2" d="M69.05,68.8a2.09,2.09,0,0,0,.49,0,2.51,2.51,0,0,0,2-2.93,2.91,2.91,0,0,0-.19-.59A4.19,4.19,0,0,0,70,57.79a2.5,2.5,0,0,0,0-.61,2.5,2.5,0,0,0-3.41-1.88"/><path class="cls-3" d="M43.71,78.69s-8.64,2-11.17,3.65-3,5.76-3,5.76"/><path class="cls-3" d="M69,88.1s-.46-4.15-3-5.76-11.52-3.82-11.52-3.82"/><path class="cls-3" d="M42.36,53.55C36.43,55.25,33,62.23,35,69a14.43,14.43,0,0,0,8.88,9.72h0a5.37,5.37,0,1,0,10.33-3,.24.24,0,0,1,0-.08c.25-.31,4.42-3.71,4-8.3-2.19.48-5.5.94-6-.57s3.09-4.78,4.91-6.33a12.73,12.73,0,0,0-1.81-2.81l.9-2.27a.83.83,0,0,0-.83-1.13l-3.9.32a12.81,12.81,0,0,0-9-1.12Z"/><path class="cls-2" d="M30.78,22.08a5.61,5.61,0,0,1-2.33.62A4.08,4.08,0,0,1,26.22,22"/><path class="cls-2" d="M39.18,21.86a5.61,5.61,0,0,1-2.33.62,4.1,4.1,0,0,1-2.23-.72"/><path class="cls-4" d="M45.53,23.61c0-7.82-5.52-14.16-12.34-14.16S20.85,15.79,20.85,23.61a16,16,0,0,0,6.46,13h0c0,3.28,2.66,8.93,5.94,8.93s5.94-5.65,5.94-8.93c0,0,0-.06,0-.1A16,16,0,0,0,45.53,23.61Z"/><path class="cls-2" d="M10.49,48.83s.53-4.74,3.42-6.57S27.06,37.9,27.06,37.9"/><path class="cls-2" d="M56.34,48.83s-.53-4.74-3.42-6.57S39.77,37.9,39.77,37.9"/></svg>