<?xml version="1.0" encoding="utf-8"?>
<!-- Generator: Adobe Illustrator 24.0.0, SVG Export Plug-In . SVG Version: 6.00 Build 0)  -->
<svg version="1.1" id="Layer_1" xmlns="http://www.w3.org/2000/svg" xmlns:xlink="http://www.w3.org/1999/xlink" x="0px" y="0px"
	 viewBox="0 0 100 100" style="enable-background:new 0 0 100 100;" xml:space="preserve">
<g>
	<path d="M24.7,41.2c8.7,0,15.8-7.1,15.8-15.8S33.4,9.7,24.7,9.7S8.9,16.8,8.9,25.5S16,41.2,24.7,41.2z M36.5,25.5
		c0,2.5-0.8,4.8-2.1,6.7L18,15.8c1.9-1.3,4.2-2.1,6.7-2.1C31.2,13.7,36.5,19,36.5,25.5z M15.1,18.7l16.4,16.4
		c-1.9,1.3-4.2,2.1-6.7,2.1c-6.5,0-11.8-5.3-11.8-11.8C12.9,23,13.7,20.7,15.1,18.7z"/>
	<path d="M28.6,53.7v-3.8c0-1-0.8-1.8-1.8-1.8h-13c-1,0-1.8,0.8-1.8,1.8c0,0,0,0,0,0v3.8l-1.2,3.1c-0.2,0.6-0.3,1.2-0.3,1.8v15.3
		c0,1,0.8,1.8,1.8,1.8h16.3c1,0,1.8-0.8,1.8-1.8V58.8c0-0.7-0.1-1.4-0.4-2L28.6,53.7z M26,71.5C26,71.5,26,71.5,26,71.5l-11.3,0
		c-1,0-1.8-0.8-1.8-1.8v-8.5c0-1,0.8-1.8,1.8-1.8H26c1,0,1.8,0.8,1.8,1.8l0,8.5C27.8,70.7,27,71.5,26,71.5z"/>
	<polygon points="22.3,61.4 18.4,61.4 18.4,63.5 16.4,63.5 16.4,67.3 18.4,67.3 18.4,69.4 22.3,69.4 22.3,67.3 24.3,67.3 24.3,63.5 
		22.3,63.5 	"/>
	<path d="M47.3,50.4c0.1,0,0.2,0,0.2,0c1,0,1.9-0.8,2-1.8c0.1-0.9,0.7-3.5,2.1-4.4c1.4-0.9,6.1-2.3,9.5-3.2c1.1,3.3,3.5,6.8,6.8,6.8
		c3.3,0,5.7-3.4,6.8-6.8c3.4,0.9,7.9,2.3,9.3,3.2c1.4,0.9,2,3.6,2.1,4.4c0.1,1,1,1.8,2,1.8c0.1,0,0.1,0,0.2,0
		c1.1-0.1,1.9-1.1,1.8-2.2c-0.1-0.5-0.7-5.2-4-7.3c-2-1.3-6.8-2.7-9.9-3.5c3.2-3.2,5-7.5,4.9-12.1c0-8.3-6-15.1-13.4-15.1
		c-7.4,0-13.4,6.8-13.4,15.1c-0.1,4.6,1.8,8.9,5,12.1c-3,0.8-7.9,2.3-9.9,3.5c-3.3,2.1-3.9,6.8-4,7.3C45.4,49.3,46.2,50.3,47.3,50.4
		z M68,43.9c-0.7,0-1.7-1.2-2.4-2.7c0.8,0.2,1.6,0.3,2.3,0.3c0.9,0,1.7-0.1,2.6-0.4C69.7,42.6,68.7,43.9,68,43.9z M58.5,25.3
		c0-6.1,4.2-11.1,9.4-11.1c5.2,0,9.4,5,9.4,11.1c0,0,0,0,0,0c0.1,4-1.8,7.9-5.1,10.3c-0.2,0.1-0.3,0.3-0.5,0.5l0-0.1
		c-2.8,1.7-4.9,1.7-7.7,0c-0.1-0.2-0.2-0.3-0.4-0.4C60.4,33.3,58.4,29.4,58.5,25.3z"/>
	<path d="M90.2,89.2c-0.1-0.5-0.7-5.3-4-7.4c-2-1.3-6.9-2.7-9.9-3.5c3.2-3.2,5-7.5,5-12c0-8.3-6-15.1-13.4-15.1
		c-7.4,0-13.4,6.8-13.4,15.1c0,4.5,1.8,8.9,5,12c-3,0.8-8,2.3-10,3.5c-3.3,2.1-3.9,6.8-4,7.4c-0.1,1.1,0.7,2.1,1.8,2.2
		c0.1,0,0.1,0,0.2,0c1,0,1.9-0.8,2-1.8c0.1-0.7,0.7-3.5,2.1-4.4c1.4-0.9,6.1-2.3,9.5-3.2c1.1,3.3,3.5,6.8,6.8,6.8
		c3.3,0,5.7-3.4,6.8-6.7c3.4,0.9,7.9,2.3,9.3,3.2c1.4,0.9,2,3.6,2.1,4.4c0.1,1,1,1.8,2,1.8c0.1,0,0.1,0,0.2,0
		C89.5,91.3,90.3,90.3,90.2,89.2z M58.5,66.3c0-6.1,4.2-11.1,9.4-11.1c5.2,0,9.4,5,9.4,11.1c0,0,0,0,0,0c0,4-1.8,7.9-5.1,10.3
		c-0.2,0.2-0.4,0.4-0.5,0.6l0,0c-2.8,1.7-4.9,1.7-7.6,0c-0.1-0.2-0.3-0.4-0.5-0.5C60.4,74.2,58.4,70.4,58.5,66.3z M68,84.8
		c-0.7,0-1.7-1.2-2.4-2.6c0.8,0.2,1.5,0.3,2.3,0.3c0.9,0,1.7-0.1,2.6-0.4C69.7,83.5,68.7,84.8,68,84.8z"/>
	<path d="M44.3,50c-0.8-0.8-2-0.8-2.8,0l-10.2,9.9l10.2,9.9c0.4,0.4,0.9,0.6,1.4,0.6c0.5,0,1-0.2,1.4-0.6c0.8-0.8,0.7-2.1,0-2.8
		l-7.3-7l7.3-7.1C45,52.1,45.1,50.8,44.3,50z"/>
</g>
</svg>
