<?xml version="1.0" encoding="utf-8"?>
<!-- Generator: Adobe Illustrator 24.0.0, SVG Export Plug-In . SVG Version: 6.00 Build 0)  -->
<svg version="1.1" id="Layer_1" xmlns="http://www.w3.org/2000/svg" xmlns:xlink="http://www.w3.org/1999/xlink" x="0px" y="0px"
	 viewBox="0 0 100 100" style="enable-background:new 0 0 100 100;" xml:space="preserve">
<g>
	<path d="M68.1,72.9C64.5,71,61,69,57.4,67c-2-1.1-2.9-0.9-4.3,0.9c-1.1,1.4-2.1,2.9-3.2,4.3c-1.5,2-2.3,2.1-4.4,0.8
		c-5.6-3.3-10.8-7.3-15.4-12c-1.6-1.8-3-3.7-4.1-5.8c-1.3-2.3-1-3,0.9-4.8c1.4-1.4,2.9-2.5,4.3-4c1.4-1.5,1.4-2.2,0.3-3.9
		c-2.2-3.3-4.4-6.7-6.6-10c-1.2-1.8-2-2.2-3.9-1.2c-4.6,2.3-8.1,5.6-9.1,10.8c-0.8,3.9,0.4,7.5,1.8,11.1
		c5.9,14.9,17.1,24.6,31.3,31.1c3.5,1.6,7.2,2.4,11,2.5c0.7-0.1,1.7-0.2,2.6-0.5c5.6-1.5,9.3-4.9,10.8-10.6c0,0,0,0,0,0
		C69.8,74.6,69.2,73.3,68.1,72.9z"/>
	<path d="M73.5,6.9c-9.4,0-17,7.6-17,17s7.6,17,17,17s17-7.6,17-17S82.9,6.9,73.5,6.9z M73.5,36.8c-7.2,0-13-5.8-13-13s5.8-13,13-13
		s13,5.8,13,13S80.7,36.8,73.5,36.8z"/>
	<path d="M81.2,21.4h-5.5v-5.5c0-1.1-0.9-2-2-2s-2,0.9-2,2v5.5h-5.5c-1.1,0-2,0.9-2,2s0.9,2,2,2h5.5v5.5c0,1.1,0.9,2,2,2s2-0.9,2-2
		v-5.5h5.5c1.1,0,2-0.9,2-2S82.3,21.4,81.2,21.4z"/>
	<path d="M43.5,47.5c3.3,0,6,2.7,6,6c0,1.1,0.9,2,2,2s2-0.9,2-2c0-5.5-4.5-10-9.9-10c0,0,0,0,0,0c-1.1,0-2,0.9-2,2
		C41.5,46.6,42.4,47.5,43.5,47.5z"/>
	<path d="M44.1,39.5c7.1,0,12.8,5.8,12.8,12.8c0,1.1,0.9,2,2,2s2-0.9,2-2c0-9.3-7.5-16.8-16.8-16.8c0,0,0,0,0,0c-1.1,0-2,0.9-2,2
		C42.1,38.6,43,39.5,44.1,39.5z"/>
</g>
</svg>
