<?xml version="1.0" encoding="utf-8"?>
<!-- Generator: Adobe Illustrator 24.0.0, SVG Export Plug-In . SVG Version: 6.00 Build 0)  -->
<svg version="1.1" id="Layer_1" xmlns="http://www.w3.org/2000/svg" xmlns:xlink="http://www.w3.org/1999/xlink" x="0px" y="0px"
	 viewBox="0 0 100 100" style="enable-background:new 0 0 100 100;" xml:space="preserve">
<g>
	<path d="M24.8,48.3c-1.8-1.8-4.1-2.8-6.6-2.9l-0.4,0v2h0c0,0,0,0,0,0v2c3.1,0,5.7,2.6,5.7,5.7V64H12v-9h0c0.1-3,2.6-5.5,5.7-5.5v-4
		h-0.4C12.1,45.5,8,49.8,8,55v0.2h0V64h0v11.8c0,5.3,4.4,9.7,9.7,9.7c5.3,0,9.7-4.4,9.7-9.7V66h0V55.1c0,0,0,0,0-0.1V55h0
		C27.5,52.5,26.5,50.1,24.8,48.3z"/>
	<path d="M45.2,48.3c-1.8-1.8-4.1-2.8-6.6-2.9l-0.4,0v0h-0.4c-5.2,0.1-9.4,4.3-9.3,9.5h0V55v0.2V64v2v9.9c0,5.3,4.4,9.7,9.7,9.7
		c5.3,0,9.7-4.4,9.7-9.7V66v-2v-8.9c0,0,0,0,0-0.1V55h0C47.9,52.5,46.9,50.1,45.2,48.3z M32.4,64v-8.8c0-3.1,2.6-5.7,5.7-5.7v0
		c3.1,0,5.7,2.6,5.7,5.7V64H32.4z"/>
	<path d="M25.4,40.7c8.7,0,15.8-7.1,15.8-15.8S34.1,9.2,25.4,9.2S9.7,16.3,9.7,25S16.7,40.7,25.4,40.7z M37.2,25
		c0,2.5-0.8,4.8-2.1,6.7L18.7,15.3c1.9-1.3,4.2-2.1,6.7-2.1C31.9,13.2,37.2,18.5,37.2,25z M15.8,18.2l16.4,16.4
		c-1.9,1.3-4.2,2.1-6.7,2.1c-6.5,0-11.8-5.3-11.8-11.8C13.7,22.5,14.5,20.2,15.8,18.2z"/>
	<path d="M71.2,56.7c-1.4-1.4-3.2-2.2-5.3-2.2h-0.2v2h0c0,0,0,0,0,0v2c2,0,3.6,1.6,3.6,3.6V68H62v-6h0c0.1-1.9,1.7-3.5,3.6-3.5v-4
		c0,0,0,0,0,0h-0.3C61.3,54.6,58,57.9,58,62v0.1h0V68h0v9.2c-0.1,2,0.6,3.9,2,5.4c1.4,1.5,3.3,2.4,5.3,2.5c0.1,0,0.2,0,0.3,0
		c4.1,0,7.4-3.2,7.6-7.3c0-0.2,0-0.4,0-0.5V70h0v-7.9c0,0,0,0,0-0.1v0h0C73.3,60,72.5,58.2,71.2,56.7z"/>
	<path d="M85.7,34.8H56.8c-4.4,0-8,3.6-8,8v40.2c0,4.4,3.6,8,8,8h28.8c4.4,0,8-3.6,8-8V42.8C93.7,38.3,90.1,34.8,85.7,34.8z
		 M89.7,82.9c0,2.2-1.8,4-4,4H56.8c-2.2,0-4-1.8-4-4V42.8c0-2.2,1.8-4,4-4h28.8c2.2,0,4,1.8,4,4V82.9z"/>
	<path d="M59.8,50.7c0.2,0.3,0.5,0.5,0.9,0.5c0,0,0,0,0,0c0.5,0,0.9-0.4,0.9-0.9c0-0.3-0.1-0.5-0.3-0.7L60,48
		c1.1-0.4,1.7-1.4,1.7-2.6c0-0.7-0.2-1.4-0.7-1.9c-0.7-0.6-1.5-0.9-2.4-0.9h-2.9c0,0,0,0,0,0c-0.5,0-0.9,0.4-0.9,0.9v6.6
		c0,0.4,0.4,0.8,0.8,0.8c0.5,0.1,1-0.3,1-0.8v-1.8H58L59.8,50.7z M56.5,44.4h1.8c0.9,0,1.5,0.4,1.5,1.2c0,0.7-0.5,1.2-1.4,1.2
		l-1.9,0V44.4z"/>
	<path d="M62.8,50.4C62.8,50.4,62.8,50.4,62.8,50.4c0,0.5,0.4,0.8,0.9,0.8c0.3,0,0.6-0.2,0.8-0.5l1.3-1.7l1.3,1.7
		c0.2,0.3,0.5,0.5,0.9,0.5c0,0,0,0,0.1,0c0.4,0,0.8-0.4,0.8-0.8c0-0.3-0.1-0.5-0.3-0.7l-1.6-1.8l1.6-1.8c0.2-0.2,0.3-0.4,0.3-0.6
		c0,0,0,0,0,0c0-0.5-0.4-0.8-0.9-0.8c-0.3,0-0.6,0.2-0.8,0.5l-1.2,1.6L64.6,45c-0.2-0.3-0.5-0.5-0.9-0.5c0,0,0,0,0,0
		c-0.5,0-0.8,0.4-0.8,0.8c0,0.3,0.1,0.5,0.3,0.7l1.5,1.7L63,49.8C62.9,49.9,62.8,50.2,62.8,50.4z"/>
	<path d="M79.3,68.8l1.6-1.8c0.2-0.2,0.2-0.4,0.2-0.6c0,0,0,0,0,0c0-0.4-0.4-0.8-0.8-0.8c-0.3,0-0.6,0.2-0.8,0.5l-1.2,1.6l-1.2-1.6
		c-0.2-0.3-0.5-0.5-0.8-0.5c0,0,0,0-0.1,0c-0.4,0-0.8,0.4-0.8,0.8c0,0.3,0.1,0.5,0.3,0.7l1.5,1.7l-1.6,2c-0.2,0.2-0.2,0.4-0.2,0.6
		c0,0,0,0,0,0c0,0.5,0.4,0.8,0.9,0.8c0.3,0,0.6-0.2,0.8-0.5l1.2-1.7l1.3,1.7c0.2,0.3,0.5,0.5,0.9,0.5c0,0,0,0,0.1,0
		c0.4,0,0.8-0.4,0.8-0.8c0-0.3-0.1-0.5-0.3-0.7L79.3,68.8z"/>
	<path d="M84.7,63.6c-0.3,0-0.6,0.1-0.9,0.2l-1.2,0.3c-0.4,0.1-0.6,0.4-0.6,0.8c0,0.4,0.4,0.8,0.8,0.8c0.1,0,0.2,0,0.3,0l0.6-0.2
		l0,5.8c0,0,0,0,0,0c0,0.5,0.4,0.9,0.9,0.9c0.5,0,0.9-0.4,0.9-0.9v-6.8C85.7,64,85.2,63.6,84.7,63.6z"/>
</g>
</svg>
