<?xml version="1.0" encoding="utf-8"?>
<!-- Generator: Adobe Illustrator 24.0.0, SVG Export Plug-In . SVG Version: 6.00 Build 0)  -->
<svg version="1.1" id="Layer_1" xmlns="http://www.w3.org/2000/svg" xmlns:xlink="http://www.w3.org/1999/xlink" x="0px" y="0px"
	 viewBox="0 0 100 100" style="enable-background:new 0 0 100 100;" xml:space="preserve">
<g>
	<path d="M25.7,15.2h-1.8c-0.1,0-0.1,0-0.2,0c-0.5,0.1-0.8,0.6-0.7,1.1l0.9,10.4c0,0,0,0,0,0c0,0.5,0.4,0.9,0.9,0.9h0
		c0.5,0,0.9-0.4,0.9-0.9l0.9-10.4c0-0.1,0-0.1,0-0.2C26.6,15.6,26.2,15.2,25.7,15.2z"/>
	<path d="M24.8,29.5L24.8,29.5C24.8,29.5,24.8,29.5,24.8,29.5c-1,0-1.8,0.8-1.8,1.8v0.3c0.1,0.9,0.8,1.6,1.7,1.7
		c1,0.1,1.9-0.7,1.9-1.7v-0.3c0,0,0,0,0-0.1C26.6,30.2,25.8,29.4,24.8,29.5z"/>
	<path d="M73.4,50.1c0.3,0,0.5-0.1,0.8-0.2l5.3-2.4c1-0.4,1.5-1.6,1-2.6c-0.4-1-1.6-1.5-2.6-1l-5.3,2.4c-1,0.4-1.5,1.6-1,2.6
		C71.9,49.6,72.6,50.1,73.4,50.1z"/>
	<path d="M72.7,53.7c0.1,1.1,1,1.9,2,1.9c0,0,0.1,0,0.1,0l5.8-0.4c1.1-0.1,1.9-1,1.9-2.1s-1-1.9-2.1-1.9l-5.8,0.4
		C73.5,51.6,72.7,52.6,72.7,53.7z"/>
	<path d="M89.7,42.9c-0.9-1.1-2-1.9-3.3-2.4c-0.8-3-4-4.9-7-4.1c-0.4,0.1-0.7,0.2-1.1,0.4c-1,0.5-1.4,1.7-1,2.7c0.5,1,1.6,1.4,2.7,1
		c0.1-0.1,0.2-0.1,0.3-0.1c1-0.2,2,0.4,2.2,1.3c0,0.2,0.1,0.3,0.1,0.5l0,1.6l1.6,0.3c1,0.2,1.8,0.7,2.5,1.5c1.5,1.9,1.3,4.6-0.6,6.2
		l-1.3,1.1l0.8,1.4c0.1,0.1,0.1,0.3,0.2,0.4c0,0.1,0.1,0.3,0.1,0.4c0,0.5-0.2,0.9-0.5,1.3c-0.3,0.3-0.8,0.6-1.2,0.6
		c-1.1,0-2,1-1.9,2.1c0,1.1,0.9,1.9,2,1.9c0,0,0,0,0.1,0c3.2-0.1,5.7-2.8,5.6-6c0-0.4-0.1-0.8-0.2-1.2C92.3,50.6,92.4,46,89.7,42.9z
		"/>
	<path d="M80.7,78.1c-3.4-2.1-12.8-4.7-16.6-5.7c0-0.6,0-1.1-0.1-1.7c4.5-4.1,6.7-8.6,6.5-13.2c0-0.6-0.3-1.1-0.7-1.5
		c-0.4-0.4-1-0.5-1.6-0.4c-4.3,0.8-6.2,0.4-6.8,0.1c0.2-0.6,1.3-2.5,7.1-7.1c0.7-0.6,0.9-1.5,0.6-2.3c-0.6-1.4-1.3-2.7-2.1-3.9
		l1-2.3c0.4-0.8,0.4-1.7,0.1-2.5c-0.3-0.8-0.9-1.5-1.7-1.8c-0.5-0.2-1-0.3-1.4-0.3l-5.4,0.2c-4.4-2.4-9.5-3.2-14.4-2.2
		c-0.1,0-0.2,0-0.2,0.1l-0.1,0c-1.2,0.3-2.3,0.7-3.4,1.2c0.2-0.9,0-1.9-0.5-2.7L28.4,10.3c-0.4-0.6-0.9-1.1-1.5-1.5
		c-1.9-1.1-4.4-0.4-5.5,1.5L8.7,32.1c-0.4,0.6-0.6,1.4-0.5,2.1c0,1.1,0.4,2.1,1.2,2.8c0.8,0.7,1.8,1.1,2.8,1.1c0,0,0,0,0.1,0h24.5
		c-1.4,1.4-2.6,3-3.6,4.8c-2.6,4.8-3.3,10.5-1.9,16c1.4,5.9,5,11.2,9.7,14.4c-4.3,1.2-10.5,3-13.1,4.7c-4.6,2.9-5.4,9.9-5.5,10.2
		c-0.1,1.1,0.7,2.1,1.8,2.2c0.1,0,0.1,0,0.2,0c1,0,1.9-0.8,2-1.8c0-0.1,0.7-5.4,3.6-7.3c2.6-1.6,10.7-3.9,14.9-4.9
		c0.8,1.7,2.1,3.1,3.8,4.1c1.6,1,3.4,1.5,5.3,1.5c0.8,0,1.6-0.1,2.4-0.3c2.6-0.6,4.9-2.3,6.3-4.6c0.2-0.3,0.4-0.6,0.5-1
		c4.4,1.1,12.8,3.5,15.5,5.2c2.5,1.6,3.5,5.8,3.6,7.3c0.1,1,1,1.8,2,1.8c0.1,0,0.1,0,0.2,0c1.1-0.1,1.9-1.1,1.8-2.2
		C86.2,88,85.3,81,80.7,78.1z M12.2,35.2c-0.3,0-0.5-0.1-0.7-0.3s-0.3-0.5-0.3-0.7c0-0.2,0-0.4,0.1-0.5l12.6-21.8l0,0
		c0.1-0.2,0.4-0.4,0.6-0.5c0.1,0,0.2,0,0.3,0c0.2,0,0.4,0,0.5,0.1c0.2,0.1,0.3,0.2,0.4,0.4l12.6,21.8c0.1,0.2,0.2,0.5,0.1,0.8
		c-0.1,0.3-0.3,0.5-0.5,0.6c-0.2,0.1-0.3,0.1-0.5,0.1H12.2z M59.2,75.2c-0.9,1.4-2.2,2.4-3.8,2.8c-1.6,0.4-3.3,0.1-4.7-0.7
		c-1.4-0.9-2.4-2.2-2.8-3.8c-0.2-0.6-0.6-1.2-1.2-1.4c-5.5-2.1-10-7.6-11.6-14c-1.1-4.6-0.5-9.2,1.6-13.2c2.1-3.8,5.3-6.5,9.2-7.4
		c0.1,0,0.1,0,0.2,0l0.1,0c4.1-0.8,8.4,0,12,2.1c0.3,0.2,0.7,0.3,1.1,0.3l4.7-0.2l-1,2.3c-0.3,0.7-0.2,1.5,0.2,2
		c0.6,0.8,1.2,1.7,1.7,2.6c-6,4.9-8.1,7.9-7.3,10.4c0.8,2.6,3.7,3.6,8.8,3c-0.6,2.8-2.4,5.5-5.5,8.2c-0.3,0.2-0.4,0.4-0.5,0.5
		c-0.3,0.4-0.5,0.8-0.5,1.3v0.1c0,0.2,0,0.3,0.1,0.5C60.3,72.1,60,73.8,59.2,75.2z"/>
</g>
</svg>
