<?xml version="1.0" encoding="utf-8"?>
<!-- Generator: Adobe Illustrator 24.0.0, SVG Export Plug-In . SVG Version: 6.00 Build 0)  -->
<svg version="1.1" id="Layer_1" xmlns="http://www.w3.org/2000/svg" xmlns:xlink="http://www.w3.org/1999/xlink" x="0px" y="0px"
	 viewBox="0 0 100 100" style="enable-background:new 0 0 100 100;" xml:space="preserve">
<g>
	<path d="M32.3,49.7H16.4c-1.4,0-2.8,0.7-3.7,1.8l0,0c-2.2,2.9-3.2,6.5-2.8,10.2c0.7,6.7,6,11.9,12.4,12.7v12.4h-4c-1.1,0-2,0.9-2,2
		s0.9,2,2,2h12c1.1,0,2-0.9,2-2s-0.9-2-2-2h-4V74.4c7.1-1,12.4-7.1,12.4-14.3c0-3.1-1-6.1-2.8-8.6C35.1,50.4,33.8,49.7,32.3,49.7z
		 M16.4,53.7h15.9c0.2,0,0.3,0.1,0.4,0.2c1,1.4,1.7,3.1,1.9,4.8H14c0.2-1.7,0.9-3.4,1.9-4.8C16.1,53.8,16.2,53.7,16.4,53.7z"/>
	<path d="M24,8.3C15.3,8.3,8.3,15.3,8.3,24S15.3,39.8,24,39.8S39.8,32.7,39.8,24S32.7,8.3,24,8.3z M12.3,24c0-2.5,0.8-4.8,2.1-6.7
		l16.4,16.3c-1.9,1.3-4.2,2.1-6.7,2.1C17.5,35.8,12.3,30.5,12.3,24z M33.7,30.8L17.3,14.4c1.9-1.3,4.2-2.1,6.8-2.1
		c6.5,0,11.8,5.3,11.8,11.8C35.8,26.5,35,28.9,33.7,30.8z"/>
	<path d="M87.9,53.4l-2.5-6v-7.5c0-1.9-1.6-3.5-3.5-3.5H56.5c-1.9,0-3.5,1.6-3.5,3.5v7.5l-2.3,6.1c-0.4,1.1-0.7,2.3-0.7,3.6V87
		c0,1.9,1.5,3.4,3.4,3.4h31.8c1.9,0,3.4-1.5,3.4-3.4V57.2C88.7,55.9,88.4,54.6,87.9,53.4z M83.8,78.7c0,1.9-1.5,3.4-3.4,3.4H58.3
		c-1.9,0-3.4-1.5-3.4-3.4V62c0-1.9,1.5-3.4,3.4-3.4h22.1c1.9,0,3.4,1.5,3.4,3.4V78.7z"/>
	<path d="M61,67.4c-0.1,0-0.1,0-0.2,0c-2.4,0-4.3,2-4.3,4.4l0,0c0,2.5,2,4.5,4.5,4.5c2.5,0,4.5-2,4.5-4.5c0-0.1,0-0.1,0-0.2
		C65.4,69.1,63.4,67.3,61,67.4z M63.5,71.8c0,1.4-1.1,2.5-2.5,2.5c0,0-0.1,0-0.1,0c-1.4-0.1-2.5-1.3-2.4-2.7c0,0,0-0.1,0-0.1
		c0-1.4,1.1-2.5,2.5-2.5c0,0,0,0,0.1,0c1.4,0.1,2.5,1.3,2.4,2.7h0C63.5,71.8,63.5,71.8,63.5,71.8z"/>
	<path d="M72.3,67.5h-5.4c0,0,0,0,0,0c-0.5,0-0.8,0.4-0.8,0.9c0,0.5,0.4,0.8,0.9,0.8h1.8V75c0,0.1,0,0.1,0,0.2
		c0.1,0.5,0.5,0.9,1,0.8c0.5-0.1,0.9-0.5,0.8-1v-5.8h1.8c0.5,0,0.8-0.4,0.8-0.8C73.1,67.9,72.8,67.5,72.3,67.5z"/>
	<path d="M80.5,73.5c-0.2,0-0.4,0.1-0.5,0.2c-0.5,0.4-1.2,0.7-1.9,0.7c0,0-0.1,0-0.1,0c-1.4-0.1-2.4-1.3-2.3-2.6c0,0,0-0.1,0-0.1
		c0-1.4,1.1-2.5,2.4-2.5c0.6,0,1.2,0.2,1.7,0.6c0.2,0.1,0.4,0.2,0.6,0.2c0.3,0,0.5-0.1,0.7-0.4c0.3-0.4,0.2-1-0.2-1.3
		c-0.8-0.6-1.8-0.9-2.8-0.9c-0.1,0-0.1,0-0.2,0c-2.4,0-4.2,2-4.2,4.4v0c0,1,0.4,2,1.1,2.8c1.6,1.9,4.4,2.1,6.2,0.5
		c0.2-0.2,0.3-0.4,0.3-0.7C81.4,73.9,81,73.5,80.5,73.5z"/>
</g>
</svg>
