<svg id="Layer_1" data-name="Layer 1" xmlns="http://www.w3.org/2000/svg" viewBox="0 0 100 100"><defs><style>.cls-1,.cls-3{fill:none;}.cls-1,.cls-2,.cls-3{stroke:#000;stroke-miterlimit:10;}.cls-1,.cls-2{stroke-width:4px;}.cls-3{stroke-width:3px;}</style></defs><g id="_193" data-name="193"><path class="cls-1" d="M49.43,65.77h7.21a0,0,0,0,1,0,0v21.3A3.61,3.61,0,0,1,53,90.67h0a3.61,3.61,0,0,1-3.61-3.61V65.77A0,0,0,0,1,49.43,65.77Z"/><path class="cls-1" d="M26.41,89.27C24.08,89,15.53,61.19,25.18,46.84s28.48-7.1,32.6-6.78c3.83.29,10.45-.79,18.28.52s14.61,6.26,14.61,6.26-9,1.83-14.68,5.67c-5.54,3.74-8.42,9.1-14.56,11.31a9,9,0,0,1-6,.3,1.59,1.59,0,0,0-1.85.7,29.9,29.9,0,0,1-5.57,6.92c-3.65,3.13-7.22,2.56-11.11,5.65C33.47,80.15,29.54,89.65,26.41,89.27Z"/><path class="cls-1" d="M57.78,40.06S51.63,50.66,49.3,54c-1.47,2.11,6.17,10.12,6.17,10.12"/><path class="cls-2" d="M33.37,68.39a5.3,5.3,0,0,1-2.79-2.49c-5.67,8.37-6.49,19.26-6.31,19.73.84,2.23,1.64,3.58,2.14,3.64,3.13.38,7.06-9.12,10.53-11.88,3.89-3.09,7.46-2.52,11.11-5.65C48.3,71.52,38.76,70.67,33.37,68.39Z"/><path class="cls-2" d="M66.8,48.13a5,5,0,0,0-1.87.5C60,51.48,58.7,55,52.4,56.82c-4.88,1.42-9.52-.46-13.67,1.64a20.37,20.37,0,0,0-2.43,1.47c2,.69,3.81,2.67,6.16,5a27.89,27.89,0,0,0,7.3,5.12,34.29,34.29,0,0,0,3.86-5.25,1.59,1.59,0,0,1,1.85-.7,9,9,0,0,0,6-.3c6.14-2.21,9-7.57,14.56-11.31,5.71-3.84,14.68-5.67,14.68-5.67S77,47.72,66.8,48.13Z"/><path class="cls-1" d="M36.3,59.93a4.45,4.45,0,0,0-1-.24c-2.48-.29-4.06.59-4.87,2.29a4.57,4.57,0,0,0,.17,3.92"/><path class="cls-3" d="M19.39,10.92a2.55,2.55,0,0,1,4.42,0l6.31,10.93,6.31,10.93a2.56,2.56,0,0,1-2.21,3.83H9a2.55,2.55,0,0,1-2.21-3.83l6.31-10.93Z"/><path d="M19.7,16.17a.93.93,0,0,1,.9-1.1h1.84a1,1,0,0,1,.92,1.1l-.9,10.43a.93.93,0,0,1-.94.92.91.91,0,0,1-.92-.92Zm1.82,13.22a1.75,1.75,0,0,1,1.81,1.76v.26a1.82,1.82,0,0,1-3.63,0v-.26A1.76,1.76,0,0,1,21.52,29.39Z"/></g></svg>