<?xml version="1.0" encoding="utf-8"?>
<!-- Generator: Adobe Illustrator 24.0.0, SVG Export Plug-In . SVG Version: 6.00 Build 0)  -->
<svg version="1.1" id="Layer_1" xmlns="http://www.w3.org/2000/svg" xmlns:xlink="http://www.w3.org/1999/xlink" x="0px" y="0px"
	 viewBox="0 0 100 100" style="enable-background:new 0 0 100 100;" xml:space="preserve">
<g>
	<path d="M39.7,45.2C39.4,45,39.1,45,38.8,45c-0.3,0.1-0.6,0.3-0.7,0.5c-0.4,0.6-0.2,1.3,0.4,1.6c1,0.6,1.6,1.6,1.9,2.7
		c0.3,1.1,0.1,2.3-0.5,3.2c-0.3,0.6-0.2,1.3,0.4,1.7c0.2,0.1,0.4,0.2,0.6,0.2c0,0,0,0,0,0c0.4,0,0.8-0.2,1-0.6h0
		C43.7,51.3,42.8,47.2,39.7,45.2z"/>
	<path d="M41.1,40.2L41.1,40.2c0.2-0.1,0.4-0.3,0.5-0.4c0.2-0.2,0.3-0.5,0.3-0.8c0-0.6-0.5-1.2-1.2-1.2c-1.6-0.1-2.8-1.4-2.8-2.9
		c0-0.7-0.5-1.2-1.2-1.2c0,0,0,0,0,0c-0.3,0-0.6,0.1-0.8,0.3c-0.2,0.2-0.3,0.5-0.3,0.8c0,0.7,0.2,1.5,0.5,2.2
		c-1.6,2.5-4.9,3.4-7.5,1.9c-0.6-0.3-1.3-0.1-1.6,0.5c-0.3,0.6-0.1,1.3,0.5,1.6c1.2,0.7,2.6,1.1,4,1.1c2.4,0,4.7-1.1,6.2-3
		c0.9,0.7,2,1.2,3.2,1.2L41.1,40.2z"/>
	<path d="M58.5,55.3l0.2,0.1c-0.1,0.1-0.2,0.2-0.2,0.3c-0.9,1.3-2.3,2.2-3.9,2.5c-1.6,0.3-3.2-0.1-4.5-1c-0.3-0.2-0.6-0.2-0.9-0.2
		c-0.3,0.1-0.6,0.2-0.7,0.5c-0.2,0.3-0.3,0.6-0.2,0.9c0.1,0.3,0.2,0.6,0.5,0.8c1.4,0.9,3,1.4,4.7,1.4c0,0,0,0,0,0
		c2.8,0,5.3-1.4,6.9-3.7c0.2-0.3,0.2-0.6,0.1-0.9l0.7,0l-1.2-0.7c-0.3-0.2-0.7-0.2-1,0H58.5z"/>
	<path d="M44.2,36.9c2.5,0,4.5,2,4.5,4.5c0,0.7,0.5,1.2,1.2,1.2c0,0,0,0,0,0c0.7,0,1.2-0.5,1.2-1.2c0-3.8-3.1-6.9-6.9-6.9
		c-0.6,0-1.2,0.5-1.2,1.2v0C43.1,36.3,43.6,36.8,44.2,36.9z"/>
	<path d="M45.9,27.1c-1.1-0.5-2.3-0.7-3.6-0.7c0,0-0.1,0-0.1,0c-2.6,0-5,1.1-6.8,3c-0.5-0.1-0.9-0.1-1.4-0.2c-2.3,0-4.4,1.2-5.7,3.1
		H28c-0.1,0-0.2,0-0.3,0c0,0-0.1,0-0.1,0c-0.1,0-0.2,0-0.4,0.1c-0.2,0-0.3,0.1-0.4,0.1c-0.1,0-0.1,0-0.2,0.1c-0.2,0-0.4,0.1-0.6,0.2
		c-0.1,0-0.2,0.1-0.3,0.1c-0.1,0-0.1,0-0.2,0.1l-0.4,0.2c-2.3,1.3-3.8,3.6-4,6.3c-2,2-3.2,4.7-3.2,7.5c0,5.8,4.7,10.5,10.5,10.5
		c0.6,0,1.1,0,1.7-0.1c0.7,0.2,1.4,0.4,2.1,0.4c1.5,3.9,5.4,6.4,9.6,6.1c4,0,9,4.1,9,9v1.3h7.9l-0.8-5.8c5,0.3,9.6-3.1,10.8-8
		c0.2-0.8,0.3-1.6,0.3-2.4c3-1.2,5-4.1,5-7.3c0-1-0.2-2.1-0.6-3c0.4-0.9,0.6-1.9,0.6-3v0c0-2.8-1.6-5.4-4.1-6.6
		c-0.7-3.9-3.9-6.8-7.8-7.3c-1.2-2.2-3.5-3.6-6-3.6c-0.2,0-0.4,0-0.5,0c-0.1,0-0.3,0-0.4,0l-0.1,0c-0.3,0-0.6,0.1-0.9,0.2
		c-1.3-1-2.9-1.6-4.5-1.6C48.2,26,47,26.4,45.9,27.1z M70.6,48.3L70.6,48.3c0.4,0.8,0.6,1.6,0.6,2.4c0,1.8-1,3.5-2.5,4.4
		c-1-3.6-3.8-6.5-7.5-7.4c-0.8-0.2-1.5,0.3-1.7,1c-0.1,0.4,0,0.7,0.2,1.1c0.2,0.3,0.5,0.5,0.9,0.6c3.1,0.8,5.5,3.5,5.8,6.7
		c0.1,0.9,0,1.8-0.2,2.7c-1,4.1-5.2,6.6-9.4,5.6l-2-0.5l0.9,6.5h-2.1c-0.8-6-6.8-10.4-11.7-10.4c-3.2,0-5.4-1.3-6.7-3.8
		c0-0.1-0.1-0.2-0.1-0.3c-0.4-1-0.5-2.1-0.1-3.1c0.4-1,1.1-1.8,2.1-2.3c0.7-0.3,1-1.2,0.7-1.9c-0.3-0.7-1.1-1-1.9-0.7
		c-2.3,1.1-3.7,3.3-3.9,5.8c-0.4-0.1-0.8-0.2-1.1-0.3l-0.4-0.2L30,54.3c-0.5,0.1-1,0.2-1.5,0.2c-4.2,0-7.7-3.5-7.7-7.7
		c0-1.3,0.3-2.6,1-3.7c0.9,2,2.6,3.6,4.7,4.3c-0.1,0.2-0.1,0.4-0.2,0.6c-0.3,1.2-0.1,2.5,0.5,3.5c0.2,0.4,0.7,0.7,1.2,0.7
		c0,0,0,0,0,0c0.2,0,0.4-0.1,0.7-0.2c0.3-0.2,0.5-0.5,0.6-0.8c0.1-0.4,0.1-0.7-0.1-1.1c-0.2-0.4-0.3-0.9-0.2-1.4
		c0.1-0.5,0.4-0.9,0.8-1.1c0.3-0.2,0.5-0.5,0.6-0.9c0.1-0.4,0-0.7-0.2-1c-0.3-0.5-0.9-0.7-1.3-0.6c-2.8-0.1-4.9-2.3-5-5
		c0-2.8,2.3-5,5-5l0.1,0L30,35l0.4-0.9c0.7-1.4,2.1-2.3,3.7-2.3c0.5,0,1,0.1,1.5,0.3l1,0.3l0.6-0.9c1.2-1.6,3.2-2.6,5.2-2.6
		c0,0,0,0,0,0c1.1,0,2.2,0.3,3.1,0.8l0.8,0.4l0.7-0.6c0.7-0.6,1.7-1,2.6-1c0,0,0,0,0,0c0.6,0,1.2,0.1,1.8,0.4c-1.4,1.3-2.2,3-2.2,5
		c0,0.8,0.6,1.4,1.4,1.4c0.8,0,1.4-0.6,1.4-1.4c0-1.5,0.8-2.8,2-3.5l0.3-0.1c0.5-0.2,1.1-0.4,1.7-0.4c1.7,0,3.2,1.1,3.8,2.7l0.3,0.9
		h0.9c3.2,0,5.8,2.5,6,5.7l0.1,0.9l0.8,0.3c1.8,0.6,3.1,2.4,3.1,4.3c0,0.8-0.2,1.5-0.5,2.2l-0.3,0.6L70.6,48.3z"/>
	<path d="M56.6,35.3c-0.7,0-1.2,0.5-1.2,1.2c0,0.3,0.1,0.6,0.3,0.8c0.2,0.2,0.5,0.3,0.8,0.3c3.5,0,6.3,2.8,6.3,6.3
		c0,0.7,0.5,1.2,1.2,1.2c0,0,0,0,0,0c0.3,0,0.6-0.1,0.8-0.3c0.2-0.2,0.3-0.5,0.3-0.8v0C65.2,39.2,61.3,35.4,56.6,35.3z"/>
	<path d="M58.7,42.2C58,42,57.3,42.4,57.2,43c-0.6,1.7-1.8,3.1-3.4,3.9c-1.6,0.8-3.5,0.9-5.2,0.3c-2.4-0.8-4.1-2.9-4.5-5.5
		c-0.1-0.6-0.7-1.1-1.4-1c-0.6,0.1-1.1,0.7-1,1.4c0.4,3.1,2.3,5.7,5.1,7c1.4,1,2.3,2.6,2.3,4.4l0,0.1c0,0.3,0.1,0.6,0.4,0.8
		c0.2,0.2,0.5,0.3,0.8,0.3c0,0,0,0,0,0c0.7,0,1.2-0.5,1.2-1.2c0-1.2-0.3-2.4-0.8-3.4c0,0,0.1,0,0.1,0c1.4,0,2.7-0.3,4-0.9
		c2.2-1,3.9-2.9,4.7-5.2l0-0.1C59.7,43.1,59.3,42.4,58.7,42.2z M49.5,53.4L49.5,53.4L49.5,53.4L49.5,53.4z"/>
	<path d="M96.5,53.6l-8.3-8.1L80,53.6c-0.8,0.8-0.8,2,0,2.8c0.4,0.4,0.9,0.6,1.4,0.6c0.5,0,1-0.2,1.4-0.6l3.3-3.2
		C84.4,73,67.8,88.5,47.7,88.5c0,0,0,0,0,0c-10.3,0-20-4-27.2-11.3C13.2,69.9,9.2,60.3,9.2,50c0-21.2,17.3-38.5,38.5-38.5
		c1.1,0,2-0.9,2-2s-0.9-2-2-2C24.3,7.5,5.2,26.5,5.2,50c0,11.4,4.4,22,12.4,30.1c8,8,18.7,12.5,30.1,12.5c0,0,0,0,0,0
		C70.1,92.5,88.6,75,90.1,53l3.6,3.5c0.8,0.8,2.1,0.8,2.8,0C97.3,55.7,97.3,54.4,96.5,53.6z"/>
</g>
</svg>
