<?xml version="1.0" encoding="utf-8"?>
<!-- Generator: Adobe Illustrator 24.0.0, SVG Export Plug-In . SVG Version: 6.00 Build 0)  -->
<svg version="1.1" id="Layer_1" xmlns="http://www.w3.org/2000/svg" xmlns:xlink="http://www.w3.org/1999/xlink" x="0px" y="0px"
	 viewBox="0 0 100 100" style="enable-background:new 0 0 100 100;" xml:space="preserve">
<g>
	<path d="M67.7,66.4c10.3-1.1,18-9.8,18-20.1c0-4.3-1.4-8.6-4-12c-1.1-1.4-2.8-2.3-4.6-2.3H53.8c0,0,0,0,0,0c-1.8,0-3.5,0.9-4.6,2.3
		l0,0c-3,4.1-4.4,9.2-3.8,14.2c1.1,9.6,8.8,17,18.1,17.9v19.9h-6.8c-1.1,0-2,0.9-2,2s0.9,2,2,2h17.6c1.1,0,2-0.9,2-2s-0.9-2-2-2
		h-6.8V66.4C67.6,66.4,67.6,66.4,67.7,66.4z M52.4,36.7c0.3-0.4,0.9-0.7,1.4-0.7c0,0,0,0,0,0h23.3c0.5,0,1.1,0.3,1.4,0.7
		c1.7,2.2,2.7,4.9,3,7.6H49.4C49.7,41.6,50.7,38.9,52.4,36.7z"/>
	<path d="M23.5,10.7c-8.7,0-15.8,7.1-15.8,15.8s7.1,15.8,15.8,15.8c8.7,0,15.8-7.1,15.8-15.8S32.2,10.7,23.5,10.7z M11.7,26.5
		c0-2.5,0.8-4.8,2.1-6.7l16.4,16.4c-1.9,1.3-4.2,2.1-6.7,2.1C17,38.2,11.7,32.9,11.7,26.5z M33.1,33.2L16.8,16.8
		c1.9-1.3,4.2-2.1,6.7-2.1c6.5,0,11.8,5.3,11.8,11.8C35.3,29,34.5,31.3,33.1,33.2z"/>
</g>
</svg>
