<svg id="Layer_1" data-name="Layer 1" xmlns="http://www.w3.org/2000/svg" xmlns:xlink="http://www.w3.org/1999/xlink" viewBox="0 0 100 100"><defs><style>.cls-1,.cls-2{fill:none;}.cls-2{stroke:#000;stroke-miterlimit:10;stroke-width:4px;}.cls-3{clip-path:url(#clip-path);}</style><clipPath id="clip-path"><circle class="cls-1" cx="50.39" cy="50.95" r="39.66"/></clipPath></defs><circle class="cls-2" cx="50.39" cy="50.95" r="39.66"/><g class="cls-3"><path d="M7.64,11.29a3.1,3.1,0,1,0,3.09,3.09A3.1,3.1,0,0,0,7.64,11.29Z"/><path d="M17.14,11.29a3.1,3.1,0,1,0,3.09,3.09A3.1,3.1,0,0,0,17.14,11.29Z"/><path d="M26.64,11.29a3.1,3.1,0,1,0,3.09,3.09A3.1,3.1,0,0,0,26.64,11.29Z"/><path d="M36.14,11.29a3.1,3.1,0,1,0,3.09,3.09A3.1,3.1,0,0,0,36.14,11.29Z"/><path d="M45.64,11.29a3.1,3.1,0,1,0,3.09,3.09A3.1,3.1,0,0,0,45.64,11.29Z"/><path d="M55.14,11.29a3.1,3.1,0,1,0,3.09,3.09A3.1,3.1,0,0,0,55.14,11.29Z"/><path d="M64.63,11.29a3.1,3.1,0,1,0,3.1,3.09A3.1,3.1,0,0,0,64.63,11.29Z"/><path d="M74.13,11.29a3.1,3.1,0,1,0,3.1,3.09A3.1,3.1,0,0,0,74.13,11.29Z"/><path d="M83.63,11.29a3.1,3.1,0,1,0,3.1,3.09A3.1,3.1,0,0,0,83.63,11.29Z"/><path d="M93.13,17.48A3.1,3.1,0,1,0,90,14.38,3.1,3.1,0,0,0,93.13,17.48Z"/><path d="M7.64,21.29a3.1,3.1,0,1,0,3.09,3.09A3.1,3.1,0,0,0,7.64,21.29Z"/><path d="M17.14,21.29a3.1,3.1,0,1,0,3.09,3.09A3.1,3.1,0,0,0,17.14,21.29Z"/><path d="M26.64,21.29a3.1,3.1,0,1,0,3.09,3.09A3.1,3.1,0,0,0,26.64,21.29Z"/><path d="M36.14,21.29a3.1,3.1,0,1,0,3.09,3.09A3.1,3.1,0,0,0,36.14,21.29Z"/><path d="M45.64,21.29a3.1,3.1,0,1,0,3.09,3.09A3.1,3.1,0,0,0,45.64,21.29Z"/><path d="M55.14,21.29a3.1,3.1,0,1,0,3.09,3.09A3.1,3.1,0,0,0,55.14,21.29Z"/><path d="M64.63,21.29a3.1,3.1,0,1,0,3.1,3.09A3.1,3.1,0,0,0,64.63,21.29Z"/><path d="M74.13,21.29a3.1,3.1,0,1,0,3.1,3.09A3.1,3.1,0,0,0,74.13,21.29Z"/><path d="M83.63,21.29a3.1,3.1,0,1,0,3.1,3.09A3.1,3.1,0,0,0,83.63,21.29Z"/><path d="M93.13,21.29a3.1,3.1,0,1,0,3.1,3.09A3.1,3.1,0,0,0,93.13,21.29Z"/><path d="M7.64,31.29a3.1,3.1,0,1,0,3.09,3.09A3.1,3.1,0,0,0,7.64,31.29Z"/><path d="M17.14,31.29a3.1,3.1,0,1,0,3.09,3.09A3.1,3.1,0,0,0,17.14,31.29Z"/><path d="M26.64,31.29a3.1,3.1,0,1,0,3.09,3.09A3.1,3.1,0,0,0,26.64,31.29Z"/><path d="M36.14,31.29a3.1,3.1,0,1,0,3.09,3.09A3.1,3.1,0,0,0,36.14,31.29Z"/><path d="M45.64,31.29a3.1,3.1,0,1,0,3.09,3.09A3.1,3.1,0,0,0,45.64,31.29Z"/><path d="M55.14,31.29a3.1,3.1,0,1,0,3.09,3.09A3.1,3.1,0,0,0,55.14,31.29Z"/><path d="M64.63,31.29a3.1,3.1,0,1,0,3.1,3.09A3.1,3.1,0,0,0,64.63,31.29Z"/><path d="M74.13,31.29a3.1,3.1,0,1,0,3.1,3.09A3.1,3.1,0,0,0,74.13,31.29Z"/><path d="M83.63,31.29a3.1,3.1,0,1,0,3.1,3.09A3.1,3.1,0,0,0,83.63,31.29Z"/><path d="M93.13,31.29a3.1,3.1,0,1,0,3.1,3.09A3.1,3.1,0,0,0,93.13,31.29Z"/><path d="M7.64,41.29a3.1,3.1,0,1,0,3.09,3.09A3.1,3.1,0,0,0,7.64,41.29Z"/><path d="M17.14,41.29a3.1,3.1,0,1,0,3.09,3.09A3.1,3.1,0,0,0,17.14,41.29Z"/><path d="M26.64,41.29a3.1,3.1,0,1,0,3.09,3.09A3.1,3.1,0,0,0,26.64,41.29Z"/><path d="M36.14,41.29a3.1,3.1,0,1,0,3.09,3.09A3.1,3.1,0,0,0,36.14,41.29Z"/><path d="M45.64,41.29a3.1,3.1,0,1,0,3.09,3.09A3.1,3.1,0,0,0,45.64,41.29Z"/><path d="M55.14,41.29a3.1,3.1,0,1,0,3.09,3.09A3.1,3.1,0,0,0,55.14,41.29Z"/><path d="M64.63,41.29a3.1,3.1,0,1,0,3.1,3.09A3.1,3.1,0,0,0,64.63,41.29Z"/><path d="M74.13,41.29a3.1,3.1,0,1,0,3.1,3.09A3.1,3.1,0,0,0,74.13,41.29Z"/><path d="M83.63,41.29a3.1,3.1,0,1,0,3.1,3.09A3.1,3.1,0,0,0,83.63,41.29Z"/><path d="M93.13,41.29a3.1,3.1,0,1,0,3.1,3.09A3.1,3.1,0,0,0,93.13,41.29Z"/><path d="M7.64,51.29a3.1,3.1,0,1,0,3.09,3.09A3.1,3.1,0,0,0,7.64,51.29Z"/><path d="M17.14,51.29a3.1,3.1,0,1,0,3.09,3.09A3.1,3.1,0,0,0,17.14,51.29Z"/><path d="M26.64,51.29a3.1,3.1,0,1,0,3.09,3.09A3.1,3.1,0,0,0,26.64,51.29Z"/><path d="M36.14,51.29a3.1,3.1,0,1,0,3.09,3.09A3.1,3.1,0,0,0,36.14,51.29Z"/><path d="M45.64,51.29a3.1,3.1,0,1,0,3.09,3.09A3.1,3.1,0,0,0,45.64,51.29Z"/><path d="M55.14,51.29a3.1,3.1,0,1,0,3.09,3.09A3.1,3.1,0,0,0,55.14,51.29Z"/><path d="M64.63,51.29a3.1,3.1,0,1,0,3.1,3.09A3.1,3.1,0,0,0,64.63,51.29Z"/><path d="M74.13,51.29a3.1,3.1,0,1,0,3.1,3.09A3.1,3.1,0,0,0,74.13,51.29Z"/><path d="M83.63,51.29a3.1,3.1,0,1,0,3.1,3.09A3.1,3.1,0,0,0,83.63,51.29Z"/><path d="M93.13,51.29a3.1,3.1,0,1,0,3.1,3.09A3.1,3.1,0,0,0,93.13,51.29Z"/><path d="M7.64,61.29a3.1,3.1,0,1,0,3.09,3.09A3.1,3.1,0,0,0,7.64,61.29Z"/><path d="M17.14,61.29a3.1,3.1,0,1,0,3.09,3.09A3.1,3.1,0,0,0,17.14,61.29Z"/><path d="M26.64,61.29a3.1,3.1,0,1,0,3.09,3.09A3.1,3.1,0,0,0,26.64,61.29Z"/><path d="M36.14,61.29a3.1,3.1,0,1,0,3.09,3.09A3.1,3.1,0,0,0,36.14,61.29Z"/><path d="M45.64,61.29a3.1,3.1,0,1,0,3.09,3.09A3.1,3.1,0,0,0,45.64,61.29Z"/><path d="M55.14,61.29a3.1,3.1,0,1,0,3.09,3.09A3.1,3.1,0,0,0,55.14,61.29Z"/><path d="M64.63,61.29a3.1,3.1,0,1,0,3.1,3.09A3.1,3.1,0,0,0,64.63,61.29Z"/><path d="M74.13,61.29a3.1,3.1,0,1,0,3.1,3.09A3.1,3.1,0,0,0,74.13,61.29Z"/><path d="M83.63,61.29a3.1,3.1,0,1,0,3.1,3.09A3.1,3.1,0,0,0,83.63,61.29Z"/><path d="M93.13,61.29a3.1,3.1,0,1,0,3.1,3.09A3.1,3.1,0,0,0,93.13,61.29Z"/><path d="M50.39,90.6A39.65,39.65,0,0,0,90,51S82.48,63.5,70.15,63.5c-12,0-27.67-25.11-39.69-25.11C18.19,38.39,10.73,51,10.73,51A39.65,39.65,0,0,0,50.39,90.6Z"/></g></svg>