<svg id="Layer_1" data-name="Layer 1" xmlns="http://www.w3.org/2000/svg" viewBox="0 0 100 100"><defs><style>.cls-1,.cls-2,.cls-3,.cls-4{fill:none;stroke:#000;}.cls-1{stroke-linecap:round;}.cls-1,.cls-2,.cls-3{stroke-miterlimit:10;}.cls-1,.cls-2,.cls-4{stroke-width:4px;}.cls-3{stroke-width:3.88px;}.cls-4{stroke-linejoin:round;}</style></defs><path class="cls-1" d="M40.83,52.19c-3.09,8.93.19,15.79.75,16.64"/><polyline class="cls-1" points="45.15 63.21 41.27 69.81 35.09 65.94"/><circle class="cls-2" cx="24" cy="24.58" r="13.77"/><path d="M15.84,13.5a13.7,13.7,0,0,0-2.92,2.92L32.17,35.67a13.94,13.94,0,0,0,2.92-2.92Z"/><path d="M29.18,71.6l-1.28-3h0V64.7a1.78,1.78,0,0,0-1.78-1.78h-13a1.78,1.78,0,0,0-1.78,1.78v3.85l-1.19,3.11a5.18,5.18,0,0,0-.33,1.82V88.76a1.75,1.75,0,0,0,1.75,1.76H27.82a1.76,1.76,0,0,0,1.76-1.76V73.57A5.1,5.1,0,0,0,29.18,71.6Zm-2.1,12.94a1.75,1.75,0,0,1-1.75,1.75H14.06a1.75,1.75,0,0,1-1.75-1.75V76a1.75,1.75,0,0,1,1.75-1.75H25.33A1.75,1.75,0,0,1,27.08,76Z"/><line class="cls-3" x1="15.71" y1="80.22" x2="23.63" y2="80.22"/><line class="cls-3" x1="19.67" y1="84.18" x2="19.67" y2="76.27"/><path class="cls-4" d="M78.6,24.42c0-7.24-5.11-13.1-11.41-13.1s-11.41,5.86-11.41,13.1a14.75,14.75,0,0,0,6,12h0c0,3,2.45,8.49,5.49,8.49s5.48-5.46,5.48-8.49v-.09A14.77,14.77,0,0,0,78.6,24.42Z"/><path class="cls-1" d="M46.83,47.55s.47-4.24,3.06-5.88,11.77-3.91,11.77-3.91"/><path class="cls-1" d="M87.52,47.55s-.47-4.24-3.06-5.88-11.77-3.91-11.77-3.91"/><path class="cls-4" d="M78.6,65.37c0-7.23-5.11-13.1-11.41-13.1s-11.41,5.87-11.41,13.1a14.77,14.77,0,0,0,6,12.06h0c0,3,2.45,8.48,5.49,8.48s5.48-5.45,5.48-8.48v-.09A14.77,14.77,0,0,0,78.6,65.37Z"/><path class="cls-1" d="M46.83,88.5s.47-4.23,3.06-5.88,11.77-3.9,11.77-3.9"/><path class="cls-1" d="M87.52,88.5s-.47-4.23-3.06-5.88-11.77-3.9-11.77-3.9"/><path class="cls-4" d="M62.3,37c3.42,2.13,6.29,2.13,9.78,0"/><path class="cls-4" d="M62.3,77.92c3.42,2.13,6.29,2.13,9.78,0"/></svg>