<svg id="Layer_1" data-name="Layer 1" xmlns="http://www.w3.org/2000/svg" viewBox="0 0 100 100"><defs><style>.cls-1,.cls-4{fill:none;}.cls-1,.cls-2,.cls-3,.cls-4,.cls-5{stroke:#000;stroke-miterlimit:10;}.cls-1{stroke-width:4px;}.cls-3,.cls-4,.cls-5{stroke-width:2px;}.cls-5{fill:#fff;}</style></defs><circle class="cls-1" cx="24.38" cy="25.27" r="13.77"/><path d="M16.21,14.18a13.94,13.94,0,0,0-2.92,2.92L32.54,36.35a13.7,13.7,0,0,0,2.92-2.92Z"/><circle class="cls-2" cx="68.36" cy="14.68" r="4.93"/><path class="cls-3" d="M88.27,77.26s4.1-17.88-.83-23.49S68.6,47.94,68.38,47.94,67,43.68,70,40.54,75.33,33.81,73.76,26,66.14,14.3,58.51,15.2a12.66,12.66,0,0,0-11.21,11C47.08,29.78,50,34,50,34s1.8,7.62,3.81,10.31A19.46,19.46,0,0,0,59,48.84s-2.24,2.24-9,2.46-6.73,4.49-6.73,7.18a44.13,44.13,0,0,0,.48,4.66.67.67,0,0,1,.56.58,11,11,0,0,0,.76,3.06,6.87,6.87,0,0,1,.16,4.8l1.23.69c1.6.3,4.62.69,10.22,1.15,14.88,1.23,20.79,10.22,20.79,10.22"/><path class="cls-4" d="M46.45,72.27a9,9,0,0,1-1.37-.35c.05-.11.09-.23.14-.34l-.16-.09s-.79-4.52-1.32-8.35a.65.65,0,0,0-.2,0,2.17,2.17,0,0,1-1.65-.41c-1-.76-1-2.2-2.42-4.12-2.92-4.05-12.42-3.9-13.66,3.45-1.9,11.24,9.77,14.38,9.77,14.38"/><path class="cls-2" d="M88.79,76.42s-2.25,15.7-4.49,19.51-34.08-5.46-37.9-8.34S37,83.15,35.86,82.48C35.05,82,31.79,77.3,30,74.73a.46.46,0,0,1,.61-.66,101.4,101.4,0,0,0,9.47,5,16.19,16.19,0,0,0,4.49,1s-.58-2.68-.83-4.63a5,5,0,0,1,.51-2.64,1,1,0,0,1,1.64-.18,22.08,22.08,0,0,1,2.38,3.79A53.48,53.48,0,0,1,50,81.9c.51,1.53,2.72,2.26,2.72,2.26l23.25,1.39,1.7-10.39Z"/><line class="cls-5" x1="35.89" y1="76.72" x2="45.39" y2="72.22"/><line class="cls-4" x1="88.79" y1="76.42" x2="77.46" y2="83.64"/></svg>