<?xml version="1.0" encoding="utf-8"?>
<!-- Generator: Adobe Illustrator 24.2.3, SVG Export Plug-In . SVG Version: 6.00 Build 0)  -->
<svg version="1.1" id="Layer_1" xmlns="http://www.w3.org/2000/svg" xmlns:xlink="http://www.w3.org/1999/xlink" x="0px" y="0px"
	 viewBox="0 0 100 100" style="enable-background:new 0 0 100 100;" xml:space="preserve">
<g>
	<path d="M52.1,36.8c-22.9,0-41.5,11.7-41.5,26s18.6,26,41.5,26c22.9,0,41.5-11.7,41.5-26S75,36.8,52.1,36.8z M52.1,84.9
		c-20.7,0-37.5-9.9-37.5-22c0-12.2,16.8-22,37.5-22s37.5,9.9,37.5,22C89.6,75,72.8,84.9,52.1,84.9z"/>
	<path d="M55.7,48.7c-1.2,0-2.5,0.2-3.6,0.5c-1.2-0.3-2.4-0.5-3.6-0.5c-8.2,0-14.8,6.6-14.8,14.8s6.6,14.8,14.8,14.8
		c1.2,0,2.5-0.2,3.6-0.5c1.2,0.3,2.4,0.5,3.6,0.5c8.2,0,14.8-6.6,14.8-14.8S63.9,48.7,55.7,48.7z M52.1,73.7
		c-4.2-1.5-7.2-5.5-7.2-10.2s3-8.7,7.2-10.2c4.2,1.5,7.2,5.5,7.2,10.2S56.3,72.2,52.1,73.7z M37.7,63.5c0-4.8,3.1-8.8,7.4-10.2
		c-2.6,2.7-4.1,6.3-4.1,10.2s1.6,7.6,4.1,10.2C40.8,72.3,37.7,68.3,37.7,63.5z M59.2,73.7c2.6-2.7,4.1-6.3,4.1-10.2
		s-1.6-7.6-4.1-10.2c4.3,1.4,7.4,5.5,7.4,10.2S63.4,72.3,59.2,73.7z"/>
	<path d="M51.3,27.3c1.1,0,2-0.9,2-2V11.5c0-1.1-0.9-2-2-2s-2,0.9-2,2v13.8C49.3,26.4,50.2,27.3,51.3,27.3z"/>
	<path d="M66.6,29.9C66.8,30,67,30,67.2,30c0.8,0,1.6-0.5,1.9-1.3l4.5-13.1c0.4-1-0.2-2.2-1.2-2.5c-1-0.4-2.2,0.2-2.5,1.2l-4.5,13.1
		C65,28.4,65.5,29.6,66.6,29.9z"/>
	<path d="M80.4,35c0.4,0.3,0.8,0.4,1.2,0.4c0.6,0,1.2-0.3,1.6-0.8l8.5-10.9c0.7-0.9,0.5-2.1-0.3-2.8c-0.9-0.7-2.1-0.5-2.8,0.3
		l-8.5,10.9C79.4,33.1,79.5,34.3,80.4,35z"/>
	<path d="M20.2,36.3c0.4,0.5,1,0.8,1.6,0.8c0.4,0,0.9-0.1,1.2-0.4c0.9-0.7,1-1.9,0.3-2.8L14.9,23c-0.7-0.9-1.9-1-2.8-0.3
		c-0.9,0.7-1,1.9-0.3,2.8L20.2,36.3z"/>
	<path d="M34.3,28.7c0.3,0.8,1.1,1.3,1.9,1.3c0.2,0,0.4,0,0.7-0.1c1-0.4,1.6-1.5,1.2-2.5l-4.5-13.1c-0.4-1-1.5-1.6-2.5-1.2
		c-1,0.4-1.6,1.5-1.2,2.5L34.3,28.7z"/>
	<path d="M52.1,57.2c-3.1,0-5.6,2.5-5.6,5.6c0,3.1,2.5,5.6,5.6,5.6c3.1,0,5.6-2.5,5.6-5.6C57.7,59.8,55.2,57.2,52.1,57.2z"/>
</g>
</svg>
