<?xml version="1.0" encoding="utf-8"?>
<!-- Generator: Adobe Illustrator 24.0.0, SVG Export Plug-In . SVG Version: 6.00 Build 0)  -->
<svg version="1.1" id="Layer_1" xmlns="http://www.w3.org/2000/svg" xmlns:xlink="http://www.w3.org/1999/xlink" x="0px" y="0px"
	 viewBox="0 0 100 100" style="enable-background:new 0 0 100 100;" xml:space="preserve">
<g>
	<path d="M83.9,59.8l-0.5-2.1c-1.7-8.4-11-15-23.5-17.2c-0.1,0-0.2,0-0.3,0c-0.3-0.1-0.6-0.1-0.9-0.1c-0.3,0-0.6-0.1-0.8-0.1
		c-0.2,0-0.3,0-0.5-0.1c-0.5-0.1-0.9-0.1-1.4-0.2c0,0,0,0,0,0c-1.6-0.2-3.3-0.2-5.1-0.2c-2.2,0-4.4,0.1-6.5,0.4
		c-0.1,0-0.3,0-0.4,0.1c-0.3,0-0.6,0.1-0.9,0.1c-0.3,0-0.6,0.1-0.8,0.1c-0.1,0-0.2,0-0.4,0.1c-12.4,2.2-21.6,8.7-23.4,16.9l-0.5,2.3
		h0.2c0,0.3,0,0.5,0,0.8c0,11.6,14.4,20.8,32.8,20.8c18.4,0,32.8-9.1,32.8-20.8c0-0.3,0-0.5,0-0.8H83.9z M59.8,55.8
		C59.7,55.8,59.7,55.8,59.8,55.8H23.3c3.5-6.6,13.9-11.6,26-12c0.2,0,0.3,0,0.5,0c0.4,0,0.8,0,1.1,0c0.4,0,0.8,0,1.1,0
		c0.2,0,0.3,0,0.5,0c12.1,0.4,22.5,5.4,26,12H59.8z M79.7,60.6c0,9.1-13.2,16.8-28.8,16.8c-15.6,0-28.8-7.7-28.8-16.8
		c0-0.3,0-0.5,0-0.8h16.4c1.3,4.4,5,7.6,9.7,8.3c0.6,0.1,1.2,0.1,1.8,0.1c2.5,0,5-0.8,7.1-2.3c2.1-1.5,3.6-3.7,4.4-6.2h18.2
		C79.7,60.1,79.7,60.3,79.7,60.6z"/>
	<path d="M50.3,33.3c1.1,0,2-0.9,2-2V20.6c0-1.1-0.9-2-2-2s-2,0.9-2,2v10.8C48.3,32.4,49.2,33.3,50.3,33.3z"/>
	<path d="M62,35.3c0.2,0.1,0.4,0.1,0.7,0.1c0.8,0,1.6-0.5,1.9-1.4l3.5-10.2c0.4-1-0.2-2.2-1.2-2.5c-1-0.4-2.2,0.2-2.5,1.2l-3.5,10.2
		C60.4,33.8,61,35,62,35.3z"/>
	<path d="M72.7,39.2c0.4,0.3,0.8,0.4,1.2,0.4c0.6,0,1.2-0.3,1.6-0.8l6.6-8.5c0.7-0.9,0.5-2.1-0.3-2.8c-0.9-0.7-2.1-0.5-2.8,0.3
		l-6.6,8.5C71.7,37.3,71.8,38.6,72.7,39.2z"/>
	<path d="M25.7,40.2c0.4,0.5,1,0.8,1.6,0.8c0.4,0,0.9-0.1,1.2-0.4c0.9-0.7,1-1.9,0.3-2.8l-6.6-8.5c-0.7-0.9-1.9-1-2.8-0.3
		c-0.9,0.7-1,1.9-0.3,2.8L25.7,40.2z"/>
	<path d="M36.6,34.1c0.3,0.8,1.1,1.3,1.9,1.3c0.2,0,0.4,0,0.7-0.1c1-0.4,1.6-1.5,1.2-2.5l-3.5-10.2c-0.4-1-1.5-1.6-2.5-1.2
		c-1,0.4-1.6,1.5-1.2,2.5L36.6,34.1z"/>
</g>
</svg>
