<svg width="24" height="24" viewBox="0 0 24 24" fill="none" xmlns="http://www.w3.org/2000/svg">
<g id="device_hub_24px">
<path id="icon/hardware/device_hub_24px" d="M17 16.0011L13 12.0011V8.82108C14.35 8.33108 15.26 6.93108 14.93 5.36108C14.68 4.18108 13.7 3.24108 12.51 3.04108C10.63 2.73108 9 4.17108 9 6.00108C9 7.30108 9.84 8.40108 11 8.82108V12.0011L7 16.0011H4C3.45 16.0011 3 16.4511 3 17.0011V20.0011C3 20.5511 3.45 21.0011 4 21.0011H7C7.55 21.0011 8 20.5511 8 20.0011V17.9511L12 13.7511L16 17.9511V20.0011C16 20.5511 16.45 21.0011 17 21.0011H20C20.55 21.0011 21 20.5511 21 20.0011V17.0011C21 16.4511 20.55 16.0011 20 16.0011H17Z" fill="black" fill-opacity="0.54"/>
</g>
</svg>
