<svg width="24" height="24" viewBox="0 0 24 24" fill="none" xmlns="http://www.w3.org/2000/svg">
<g id="headset_24px">
<path id="icon/hardware/headset_24px" d="M11.4 2.51975C6.62 2.82975 3 7.01975 3 11.8097V18.4997C3 20.1597 4.34 21.4997 6 21.4997H7C8.1 21.4997 9 20.5997 9 19.4997V15.4997C9 14.3997 8.1 13.4997 7 13.4997H5V11.7897C5 7.94975 7.96 4.60975 11.79 4.49975C15.76 4.38975 19 7.55975 19 11.4997V13.4997H17C15.9 13.4997 15 14.3997 15 15.4997V19.4997C15 20.5997 15.9 21.4997 17 21.4997H18C19.66 21.4997 21 20.1597 21 18.4997V11.4997C21 6.32975 16.64 2.17975 11.4 2.51975Z" fill="black" fill-opacity="0.54"/>
</g>
</svg>
