<svg width="24" height="24" viewBox="0 0 24 24" fill="none" xmlns="http://www.w3.org/2000/svg">
<g id="keyboard_return_24px">
<path id="icon/hardware/keyboard_return_24px" d="M19.2912 7.99499V10.995H6.12124L9.00124 8.11499C9.39124 7.72499 9.39124 7.09499 9.00124 6.70499C8.81441 6.51774 8.56076 6.41251 8.29624 6.41251C8.03172 6.41251 7.77807 6.51774 7.59124 6.70499L3.00124 11.295C2.61124 11.685 2.61124 12.315 3.00124 12.705L7.59124 17.295C7.98124 17.685 8.61124 17.685 9.00124 17.295C9.39124 16.905 9.39124 16.275 9.00124 15.885L6.12124 12.995H20.2912C20.8412 12.995 21.2912 12.545 21.2912 11.995V7.99499C21.2912 7.44499 20.8412 6.99499 20.2912 6.99499C19.7412 6.99499 19.2912 7.44499 19.2912 7.99499Z" fill="black" fill-opacity="0.54"/>
</g>
</svg>
