<svg width="24" height="24" viewBox="0 0 24 24" fill="none" xmlns="http://www.w3.org/2000/svg">
<g id="keyboard_voice_24px">
<path id="icon/hardware/keyboard_voice_24px" fill-rule="evenodd" clip-rule="evenodd" d="M14.99 11.5C14.99 13.16 13.66 14.5 12 14.5C10.34 14.5 8.99998 13.16 8.99998 11.5V5.5C8.99998 3.84 10.34 2.5 12 2.5C13.66 2.5 15 3.84 15 5.5L14.99 11.5ZM17.25 12.21C17.31 11.8 17.66 11.5 18.08 11.5C18.6 11.5 19 11.96 18.93 12.47C18.47 15.44 15.96 17.79 13 18.22V20.5C13 21.05 12.55 21.5 12 21.5C11.45 21.5 11 21.05 11 20.5V18.22C8.02998 17.77 5.52998 15.44 5.06998 12.47C4.99998 11.96 5.39998 11.5 5.91998 11.5C6.32998 11.5 6.68998 11.8 6.74998 12.21C7.11998 14.83 9.46998 16.6 12 16.6C14.53 16.6 16.88 14.82 17.25 12.21Z" fill="black" fill-opacity="0.54"/>
</g>
</svg>
