<svg width="24" height="24" viewBox="0 0 24 24" fill="none" xmlns="http://www.w3.org/2000/svg">
<g id="keyboard_hide_24px">
<path id="icon/hardware/keyboard_hide_24px" fill-rule="evenodd" clip-rule="evenodd" d="M20 2.10374H4C2.9 2.10374 2.01 3.00374 2.01 4.10374L2 14.1037C2 15.2037 2.9 16.1037 4 16.1037H20C21.1 16.1037 22 15.2037 22 14.1037V4.10374C22 3.00374 21.1 2.10374 20 2.10374ZM11 5.10374H13V7.10374H11V5.10374ZM13 8.10374H11V10.1037H13V8.10374ZM8 5.10374H10V7.10374H8V5.10374ZM10 8.10374H8V10.1037H10V8.10374ZM7 10.1037H5V8.10374H7V10.1037ZM5 7.10374H7V5.10374H5V7.10374ZM15 14.1037H9C8.45 14.1037 8 13.6537 8 13.1037C8 12.5537 8.45 12.1037 9 12.1037H15C15.55 12.1037 16 12.5537 16 13.1037C16 13.6537 15.55 14.1037 15 14.1037ZM14 10.1037H16V8.10374H14V10.1037ZM16 7.10374H14V5.10374H16V7.10374ZM17 10.1037H19V8.10374H17V10.1037ZM19 7.10374H17V5.10374H19V7.10374ZM15.14 18.9637L12.35 21.7537C12.16 21.9437 11.84 21.9437 11.65 21.7537L8.86 18.9637C8.54 18.6537 8.76 18.1137 9.21 18.1137H14.79C15.23 18.1137 15.45 18.6537 15.14 18.9637Z" fill="black" fill-opacity="0.54"/>
</g>
</svg>
