<svg width="24" height="24" viewBox="0 0 24 24" fill="none" xmlns="http://www.w3.org/2000/svg">
<g id="keyboard_tab_24px">
<path id="icon/hardware/keyboard_tab_24px" fill-rule="evenodd" clip-rule="evenodd" d="M21.5 18C20.95 18 20.5 17.55 20.5 17V7C20.5 6.45 20.95 6 21.5 6C22.05 6 22.5 6.45 22.5 7V17C22.5 17.55 22.05 18 21.5 18ZM15.67 11L12.79 8.12C12.4 7.73 12.41 7.09 12.79 6.7C12.9768 6.51275 13.2305 6.40751 13.495 6.40751C13.7595 6.40751 14.0132 6.51275 14.2 6.7L18.79 11.29C19.18 11.68 19.18 12.31 18.79 12.7L14.2 17.29C13.81 17.68 13.18 17.68 12.79 17.29C12.4 16.9 12.4 16.27 12.79 15.88L15.67 13H2.5C1.95 13 1.5 12.55 1.5 12C1.5 11.45 1.95 11 2.5 11H15.67Z" fill="black" fill-opacity="0.54"/>
</g>
</svg>
