<svg width="24" height="24" viewBox="0 0 24 24" fill="none" xmlns="http://www.w3.org/2000/svg">
<g id="keyboard_backspace_24px">
<path id="icon/hardware/keyboard_backspace_24px" d="M19.7912 10.995H6.62124L9.50124 8.11499C9.89124 7.72499 9.89124 7.09499 9.50124 6.70499C9.31441 6.51774 9.06076 6.41251 8.79624 6.41251C8.53172 6.41251 8.27807 6.51774 8.09124 6.70499L3.50124 11.295C3.11124 11.685 3.11124 12.315 3.50124 12.705L8.09124 17.295C8.48124 17.685 9.11124 17.685 9.50124 17.295C9.89124 16.905 9.89124 16.275 9.50124 15.885L6.62124 12.995H19.7912C20.3412 12.995 20.7912 12.545 20.7912 11.995C20.7912 11.445 20.3412 10.995 19.7912 10.995Z" fill="black" fill-opacity="0.54"/>
</g>
</svg>
