<svg width="24" height="24" viewBox="0 0 24 24" fill="none" xmlns="http://www.w3.org/2000/svg">
<g id="laptop_chromebook_24px">
<path id="icon/hardware/laptop_chromebook_24px" fill-rule="evenodd" clip-rule="evenodd" d="M23 18.5H22V5.5C22 4.4 21.1 3.5 20 3.5H4C2.9 3.5 2 4.4 2 5.5V18.5H1C0.45 18.5 0 18.95 0 19.5C0 20.05 0.45 20.5 1 20.5H23C23.55 20.5 24 20.05 24 19.5C24 18.95 23.55 18.5 23 18.5ZM13.5 18.5H10.5C10.22 18.5 10 18.28 10 18C10 17.72 10.22 17.5 10.5 17.5H13.5C13.78 17.5 14 17.72 14 18C14 18.28 13.78 18.5 13.5 18.5ZM4 15.5H20V6.5C20 5.95 19.55 5.5 19 5.5H5C4.45 5.5 4 5.95 4 6.5V15.5Z" fill="black" fill-opacity="0.54"/>
</g>
</svg>
