<svg width="24" height="24" viewBox="0 0 24 24" fill="none" xmlns="http://www.w3.org/2000/svg">
<g id="laptop_windows_24px">
<path id="icon/hardware/laptop_windows_24px" fill-rule="evenodd" clip-rule="evenodd" d="M20 17.5V18.5H23C23.55 18.5 24 18.95 24 19.5C24 20.05 23.55 20.5 23 20.5H1C0.45 20.5 0 20.05 0 19.5C0 18.95 0.45 18.5 1 18.5H4V17.5C2.9 17.5 2 16.6 2 15.5V5.5C2 4.4 2.9 3.5 4 3.5H20C21.1 3.5 22 4.4 22 5.5L21.99 15.5C21.99 16.6 21.1 17.5 20 17.5ZM19 5.5H5C4.45 5.5 4 5.95 4 6.5V14.5C4 15.05 4.45 15.5 5 15.5H19C19.55 15.5 20 15.05 20 14.5V6.5C20 5.95 19.55 5.5 19 5.5Z" fill="black" fill-opacity="0.54"/>
</g>
</svg>
