<svg width="24" height="24" viewBox="0 0 24 24" fill="none" xmlns="http://www.w3.org/2000/svg">
<g id="phonelink_off_24px">
<path id="icon/hardware/phonelink_off_24px" fill-rule="evenodd" clip-rule="evenodd" d="M1.36 2.28499C0.97 2.67499 0.97 3.30499 1.36 3.69499L2.47 4.80499C2.18 5.15499 2 5.59499 2 6.07499V17.075H1.5C0.67 17.075 0 17.745 0 18.575C0 19.405 0.67 20.075 1.5 20.075H17.73L19.37 21.715C19.76 22.105 20.39 22.105 20.78 21.715C21.17 21.325 21.17 20.695 20.78 20.305L2.77 2.28499C2.58317 2.09774 2.32952 1.99251 2.065 1.99251C1.80048 1.99251 1.54683 2.09774 1.36 2.28499ZM22 5.07499C22 5.62499 21.55 6.07499 21 6.07499H9.39L7.39 4.07499H21C21.55 4.07499 22 4.52499 22 5.07499ZM24 9.07499V19.075C24 19.515 23.71 19.875 23.32 20.005L20.39 17.075H22V10.075H18V14.685L16 12.685V9.07499C16 8.52499 16.45 8.07499 17 8.07499H23C23.55 8.07499 24 8.52499 24 9.07499ZM4 6.34499V17.075H14.73L4 6.34499Z" fill="black" fill-opacity="0.54"/>
</g>
</svg>
