<svg width="24" height="24" viewBox="0 0 24 24" fill="none" xmlns="http://www.w3.org/2000/svg">
<g id="scanner_24px">
<path id="icon/hardware/scanner_24px" fill-rule="evenodd" clip-rule="evenodd" d="M19.8 10.0554L5.15 4.70543C4.63 4.51543 4.05 4.78543 3.85 5.30543C3.66 5.83543 3.93 6.41543 4.45 6.60543L17.6 11.3554H5C3.9 11.3554 3 12.2554 3 13.3554V17.3554C3 18.4554 3.9 19.3554 5 19.3554H19C20.1 19.3554 21 18.4554 21 17.3554V11.8554C21 11.0554 20.5 10.2554 19.8 10.0554ZM7 16.3554H5V14.3554H7V16.3554ZM10 16.3554H18C18.55 16.3554 19 15.9054 19 15.3554C19 14.8054 18.55 14.3554 18 14.3554H10C9.45 14.3554 9 14.8054 9 15.3554C9 15.9054 9.45 16.3554 10 16.3554Z" fill="black" fill-opacity="0.54"/>
</g>
</svg>
