<svg width="24" height="24" viewBox="0 0 24 24" fill="none" xmlns="http://www.w3.org/2000/svg">
<g id="speaker_group_24px">
<path id="icon/hardware/speaker_group_24px" fill-rule="evenodd" clip-rule="evenodd" d="M18.2 1H9.8C8.81 1 8 1.81 8 2.8V17.2C8 18.19 8.81 18.99 9.8 18.99L18.2 19C19.19 19 20 18.19 20 17.2V2.8C20 1.81 19.19 1 18.2 1ZM14 3C15.1 3 16 3.89 16 5C16 6.11 15.1 7 14 7C12.9 7 12 6.11 12 5C12 3.89 12.9 3 14 3ZM10 12.5C10 14.71 11.79 16.5 14 16.5C16.21 16.5 18 14.71 18 12.5C18 10.29 16.21 8.5 14 8.5C11.79 8.5 10 10.29 10 12.5ZM14 10C12.6193 10 11.5 11.1193 11.5 12.5C11.5 13.8807 12.6193 15 14 15C15.3807 15 16.5 13.8807 16.5 12.5C16.5 11.1193 15.3807 10 14 10ZM4 6C4 5.45 4.45 5 5 5C5.55 5 6 5.45 6 6V20C6 20.55 6.45 21 7 21H15C15.55 21 16 21.45 16 22C16 22.55 15.55 23 15 23H6C4.89 23 4 22.1 4 21V6Z" fill="black" fill-opacity="0.54"/>
</g>
</svg>
