<svg width="24" height="24" viewBox="0 0 24 24" fill="none" xmlns="http://www.w3.org/2000/svg">
<g id="add_a_photo_24px">
<path id="icon/image/add_a_photo_24px" fill-rule="evenodd" clip-rule="evenodd" d="M4.5 9.5C3.95 9.5 3.5 9.05 3.5 8.5V6.5H1.5C0.95 6.5 0.5 6.05 0.5 5.5C0.5 4.95 0.95 4.5 1.5 4.5H3.5V2.5C3.5 1.95 3.95 1.5 4.5 1.5C5.05 1.5 5.5 1.95 5.5 2.5V4.5H7.5C8.05 4.5 8.5 4.95 8.5 5.5C8.5 6.05 8.05 6.5 7.5 6.5H5.5V8.5C5.5 9.05 5.05 9.5 4.5 9.5ZM10.9019 13C11.4378 12.0718 12.4282 11.5 13.5 11.5C14.5718 11.5 15.5622 12.0718 16.0981 13C16.634 13.9282 16.634 15.0718 16.0981 16C15.5622 16.9282 14.5718 17.5 13.5 17.5C12.4282 17.5 11.4378 16.9282 10.9019 16C10.366 15.0718 10.366 13.9282 10.9019 13ZM21.5 6.5H18.33L17.09 5.15C16.72 4.74 16.18 4.5 15.62 4.5H9.22C9.39 4.8 9.5 5.13 9.5 5.5C9.5 6.6 8.6 7.5 7.5 7.5H6.5V8.5C6.5 9.6 5.6 10.5 4.5 10.5C4.13 10.5 3.8 10.39 3.5 10.22V20.5C3.5 21.6 4.4 22.5 5.5 22.5H21.5C22.6 22.5 23.5 21.6 23.5 20.5V8.5C23.5 7.4 22.6 6.5 21.5 6.5ZM8.5 14.5C8.5 17.26 10.74 19.5 13.5 19.5C16.26 19.5 18.5 17.26 18.5 14.5C18.5 11.74 16.26 9.5 13.5 9.5C10.74 9.5 8.5 11.74 8.5 14.5Z" fill="black" fill-opacity="0.54"/>
</g>
</svg>
