<svg width="24" height="24" viewBox="0 0 24 24" fill="none" xmlns="http://www.w3.org/2000/svg">
<g id="add_photo_alternate_24px">
<path id="icon/image/add_photo_alternate_24px" fill-rule="evenodd" clip-rule="evenodd" d="M20.52 5.5H18.5V3.48C18.5 2.94 18.06 2.5 17.52 2.5H17.49C16.94 2.5 16.5 2.94 16.5 3.48V5.5H14.49C13.95 5.5 13.51 5.94 13.5 6.48V6.51C13.5 7.06 13.94 7.5 14.49 7.5H16.5V9.51C16.5 10.05 16.94 10.5 17.49 10.49H17.52C18.06 10.49 18.5 10.05 18.5 9.51V7.5H20.52C21.06 7.5 21.5 7.06 21.5 6.52V6.48C21.5 5.94 21.06 5.5 20.52 5.5ZM15.5 9.51V8.5H14.49C13.96 8.5 13.46 8.29 13.08 7.92C12.71 7.54 12.5 7.04 12.5 6.48C12.5 6.12 12.6 5.79 12.77 5.5H4.5C3.4 5.5 2.5 6.4 2.5 7.5V19.5C2.5 20.6 3.4 21.5 4.5 21.5H16.5C17.6 21.5 18.5 20.6 18.5 19.5V11.22C18.2 11.39 17.86 11.5 17.48 11.5C16.39 11.49 15.5 10.6 15.5 9.51ZM5.5 19.5H15.46C15.88 19.5 16.11 19.02 15.85 18.69L12.9 15.01C12.7 14.75 12.31 14.76 12.11 15.02L9.5 18.5L7.9 16.09C7.7 15.81 7.29 15.79 7.08 16.07L5.1 18.7C4.85 19.03 5.09 19.5 5.5 19.5Z" fill="black" fill-opacity="0.54"/>
</g>
</svg>
