<svg width="24" height="24" viewBox="0 0 24 24" fill="none" xmlns="http://www.w3.org/2000/svg">
<g id="assistant_24px">
<path id="icon/image/assistant_24px" fill-rule="evenodd" clip-rule="evenodd" d="M5 1.70874H19C20.1 1.70874 21 2.60874 21 3.70874V17.7087C21 18.8087 20.1 19.7087 19 19.7087H15L12.7 21.9987C12.31 22.3887 11.68 22.3887 11.29 21.9987L9 19.7087H5C3.9 19.7087 3 18.8087 3 17.7087V3.70874C3 2.60874 3.9 1.70874 5 1.70874ZM12 16.7087L13.88 12.5887L18 10.7087L13.88 8.82874L12 4.70874L10.12 8.82874L6 10.7087L10.12 12.5887L12 16.7087Z" fill="black" fill-opacity="0.54"/>
</g>
</svg>
