<svg width="24" height="24" viewBox="0 0 24 24" fill="none" xmlns="http://www.w3.org/2000/svg">
<g id="brightness_7_24px">
<path id="icon/image/brightness_7_24px" fill-rule="evenodd" clip-rule="evenodd" d="M19.9999 8.68997V4.99997C19.9999 4.44997 19.5499 3.99997 18.9999 3.99997H15.3099L12.7099 1.39997C12.5231 1.21272 12.2694 1.10748 12.0049 1.10748C11.7404 1.10748 11.4868 1.21272 11.2999 1.39997L8.68992 3.99997H4.99992C4.44992 3.99997 3.99992 4.44997 3.99992 4.99997V8.68997L1.39992 11.29C1.00992 11.68 1.00992 12.31 1.39992 12.7L3.99992 15.3V19C3.99992 19.55 4.44992 20 4.99992 20H8.68992L11.2899 22.6C11.6799 22.99 12.3099 22.99 12.6999 22.6L15.2999 20H18.9999C19.5499 20 19.9999 19.55 19.9999 19V15.31L22.5999 12.71C22.9899 12.32 22.9899 11.69 22.5999 11.3L19.9999 8.68997ZM11.9999 18C8.68992 18 5.99992 15.31 5.99992 12C5.99992 8.68997 8.68992 5.99997 11.9999 5.99997C15.3099 5.99997 17.9999 8.68997 17.9999 12C17.9999 15.31 15.3099 18 11.9999 18ZM7.99992 12C7.99992 9.78997 9.78992 7.99997 11.9999 7.99997C14.2099 7.99997 15.9999 9.78997 15.9999 12C15.9999 14.21 14.2099 16 11.9999 16C9.78992 16 7.99992 14.21 7.99992 12Z" fill="black" fill-opacity="0.54"/>
</g>
</svg>
