<svg width="24" height="24" viewBox="0 0 24 24" fill="none" xmlns="http://www.w3.org/2000/svg">
<g id="brightness_4_24px">
<path id="icon/image/brightness_4_24px" fill-rule="evenodd" clip-rule="evenodd" d="M19.9999 8.68997L22.5999 11.29C22.9899 11.68 22.9899 12.32 22.5999 12.71L19.9999 15.31V19C19.9999 19.55 19.5499 20 18.9999 20H15.2999L12.6999 22.6C12.3099 22.99 11.6799 22.99 11.2899 22.6L8.68992 20H4.99992C4.44992 20 3.99992 19.55 3.99992 19V15.3L1.39992 12.7C1.00992 12.31 1.00992 11.68 1.39992 11.29L3.99992 8.68997V4.99997C3.99992 4.44997 4.44992 3.99997 4.99992 3.99997H8.68992L11.2999 1.39997C11.4868 1.21272 11.7404 1.10748 12.0049 1.10748C12.2694 1.10748 12.5231 1.21272 12.7099 1.39997L15.3099 3.99997H18.9999C19.5499 3.99997 19.9999 4.44997 19.9999 4.99997V8.68997ZM14.0399 17.64C16.0699 16.92 17.5799 15.1 17.9199 12.98C17.9699 12.65 17.9899 12.32 17.9999 12C17.9999 11.68 17.9799 11.35 17.9299 11.02C17.5899 8.89997 16.0699 7.07997 14.0499 6.35997C12.8399 5.92997 11.6399 5.90997 10.5499 6.17997C10.1299 6.28997 10.0699 6.83997 10.4199 7.07997C11.9799 8.15997 12.9999 9.95997 12.9999 12C12.9999 14.04 11.9799 15.84 10.4099 16.92C10.0599 17.17 10.1299 17.72 10.5399 17.82C11.6299 18.09 12.8299 18.07 14.0399 17.64Z" fill="black" fill-opacity="0.54"/>
</g>
</svg>
