<svg width="24" height="24" viewBox="0 0 24 24" fill="none" xmlns="http://www.w3.org/2000/svg">
<g id="brightness_3_24px">
<path id="icon/image/brightness_3_24px" d="M17.7928 10.37C17.0428 5.61 12.7928 2.02 7.97275 2C7.48275 2 7.00275 2.03 6.53275 2.1C6.03275 2.17 5.93275 2.83 6.39275 3.06C9.67275 4.69 11.9228 8.08 11.9228 12C11.9228 15.92 9.67275 19.31 6.39275 20.95C5.94275 21.18 6.03275 21.84 6.53275 21.91C7.00275 21.97 7.48275 22 7.97275 22C12.7928 21.98 17.0428 18.39 17.7928 13.63C17.8828 13.08 17.9028 12.54 17.9028 12C17.9028 11.46 17.8828 10.92 17.7928 10.37Z" fill="black" fill-opacity="0.54"/>
</g>
</svg>
