<svg width="24" height="24" viewBox="0 0 24 24" fill="none" xmlns="http://www.w3.org/2000/svg">
<g id="brightness_5_24px">
<path id="icon/image/brightness_5_24px" fill-rule="evenodd" clip-rule="evenodd" d="M22.5999 12.71L19.9999 15.31V19C19.9999 19.55 19.5499 20 18.9999 20H15.2999L12.6999 22.6C12.3099 22.99 11.6799 22.99 11.2899 22.6L8.68992 20H4.99992C4.44992 20 3.99992 19.55 3.99992 19V15.3L1.39992 12.7C1.00992 12.31 1.00992 11.68 1.39992 11.29L3.99992 8.68997V4.99997C3.99992 4.44997 4.44992 3.99997 4.99992 3.99997H8.68992L11.2999 1.39997C11.4868 1.21272 11.7404 1.10748 12.0049 1.10748C12.2694 1.10748 12.5231 1.21272 12.7099 1.39997L15.3099 3.99997H18.9999C19.5499 3.99997 19.9999 4.44997 19.9999 4.99997V8.68997L22.5999 11.3C22.9899 11.69 22.9899 12.32 22.5999 12.71ZM5.99992 12C5.99992 15.31 8.68992 18 11.9999 18C15.3099 18 17.9999 15.31 17.9999 12C17.9999 8.68997 15.3099 5.99997 11.9999 5.99997C8.68992 5.99997 5.99992 8.68997 5.99992 12Z" fill="black" fill-opacity="0.54"/>
</g>
</svg>
