<svg width="24" height="24" viewBox="0 0 24 24" fill="none" xmlns="http://www.w3.org/2000/svg">
<g id="brush_24px">
<path id="icon/image/brush_24px" fill-rule="evenodd" clip-rule="evenodd" d="M19.8688 3.29126L21.2088 4.63126C21.5988 5.02127 21.5988 5.65127 21.2088 6.04127L12.2488 15.0013L9.49878 12.2513L18.4588 3.29126C18.6456 3.10401 18.8993 2.99878 19.1638 2.99878C19.4283 2.99878 19.6819 3.10401 19.8688 3.29126ZM4.49878 17.0013C4.49878 15.3413 5.83878 14.0013 7.49878 14.0013C9.15878 14.0013 10.4988 15.3413 10.4988 17.0013C10.4988 19.2113 8.70878 21.0013 6.49878 21.0013C4.98878 21.0013 3.41878 20.2213 2.49878 19.0013C3.33878 19.0013 4.49878 18.3113 4.49878 17.0013Z" fill="black" fill-opacity="0.54"/>
</g>
</svg>
