<svg width="24" height="24" viewBox="0 0 24 24" fill="none" xmlns="http://www.w3.org/2000/svg">
<g id="camera_rear_24px">
<path id="icon/image/camera_rear_24px" fill-rule="evenodd" clip-rule="evenodd" d="M17 0.354248H7C5.9 0.354248 5 1.25425 5 2.35425V16.3542C5 17.4542 5.9 18.3542 7 18.3542H17C18.1 18.3542 19 17.4542 19 16.3542V2.35425C19 1.25425 18.1 0.354248 17 0.354248ZM10 19.5642C10 19.1142 10.54 18.8942 10.85 19.2042L12.64 20.9942C12.84 21.1942 12.84 21.5042 12.64 21.7042L10.85 23.4942C10.54 23.8142 10 23.5942 10 23.1442V22.3542H6C5.45 22.3542 5 21.9042 5 21.3542C5 20.8042 5.45 20.3542 6 20.3542H10V19.5642ZM15 20.3542H18C18.55 20.3542 19 20.8042 19 21.3542C19 21.9042 18.55 22.3542 18 22.3542H15C14.45 22.3542 14 21.9042 14 21.3542C14 20.8042 14.45 20.3542 15 20.3542ZM10 4.35425C10 5.45425 10.89 6.35425 12 6.35425C13.1 6.35425 14 5.45425 13.99 4.35425C13.99 3.25425 13.09 2.35425 11.99 2.35425C10.89 2.35425 10 3.25425 10 4.35425Z" fill="black" fill-opacity="0.54"/>
</g>
</svg>
