<svg width="24" height="24" viewBox="0 0 24 24" fill="none" xmlns="http://www.w3.org/2000/svg">
<g id="camera_24px">
<path id="icon/image/camera_24px" fill-rule="evenodd" clip-rule="evenodd" d="M13.4595 2.115C13.8095 2.155 13.9795 2.555 13.8095 2.855L9.7795 9.845C9.5795 10.175 9.0995 10.175 8.9095 9.845L5.8995 4.625C5.7695 4.405 5.8295 4.125 6.0195 3.975C8.1595 2.395 10.8395 1.745 13.4595 2.115ZM15.9495 2.825C18.3795 3.865 20.3195 5.855 21.2995 8.325C21.4295 8.645 21.1795 8.995 20.8295 8.995H12.7495C12.3595 8.995 12.1195 8.575 12.3095 8.255L15.3195 3.045C15.4495 2.825 15.7195 2.725 15.9495 2.825ZM21.3695 9.995H15.1695C14.7895 9.995 14.5395 10.415 14.7395 10.745L18.9995 18.135C19.1695 18.435 19.5995 18.485 19.8195 18.215C21.5595 16.035 22.2995 13.185 21.8695 10.425C21.8395 10.175 21.6195 9.995 21.3695 9.995ZM2.1295 13.575C1.6995 10.805 2.4495 7.975 4.1795 5.785C4.3895 5.515 4.8195 5.565 4.9995 5.865L9.2595 13.245C9.4595 13.575 9.2095 13.995 8.8295 13.995H2.6295C2.3795 13.995 2.1595 13.815 2.1295 13.575ZM2.6995 15.665C3.6795 18.135 5.6195 20.125 8.0495 21.165C8.2795 21.265 8.5495 21.165 8.6795 20.945L11.6895 15.735C11.8795 15.405 11.6395 14.985 11.2595 14.985H3.1695C2.8195 14.995 2.5695 15.345 2.6995 15.665ZM17.9695 20.025C15.8295 21.605 13.1495 22.255 10.5295 21.885C10.1895 21.835 10.0095 21.435 10.1795 21.135L14.2195 14.145C14.4195 13.815 14.8995 13.815 15.0895 14.145L18.0995 19.365C18.2295 19.585 18.1695 19.875 17.9695 20.025Z" fill="black" fill-opacity="0.54"/>
</g>
</svg>
