<svg width="24" height="24" viewBox="0 0 24 24" fill="none" xmlns="http://www.w3.org/2000/svg">
<g id="camera_roll_24px">
<path id="icon/image/camera_roll_24px" fill-rule="evenodd" clip-rule="evenodd" d="M14 5.5C14 4.4 13.1 3.5 12 3.5H11V2.5C11 1.95 10.55 1.5 10 1.5H6C5.45 1.5 5 1.95 5 2.5V3.5H4C2.9 3.5 2 4.4 2 5.5V20.5C2 21.6 2.9 22.5 4 22.5H12C13.1 22.5 14 21.6 14 20.5H20C21.1 20.5 22 19.6 22 18.5V7.5C22 6.4 21.1 5.5 20 5.5H14ZM10 18.5V16.5H12V18.5H10ZM10 7.5V9.5H12V7.5H10ZM16 18.5H14V16.5H16V18.5ZM14 9.5H16V7.5H14V9.5ZM20 18.5H18V16.5H20V18.5ZM18 9.5H20V7.5H18V9.5Z" fill="black" fill-opacity="0.54"/>
</g>
</svg>
