<svg width="24" height="24" viewBox="0 0 24 24" fill="none" xmlns="http://www.w3.org/2000/svg">
<g id="colorize_24px">
<path id="icon/image/colorize_24px" fill-rule="evenodd" clip-rule="evenodd" d="M18.37 3.29126L20.71 5.63126C21.1 6.02127 21.1 6.65126 20.69 7.05126L17.57 10.1713L18.79 11.3913C19.18 11.7813 19.18 12.4113 18.79 12.8013C18.4 13.1913 17.77 13.1913 17.38 12.8013L16.66 12.0813L7.89 20.8513C7.8 20.9513 7.67 21.0013 7.54 21.0013H3.5C3.22 21.0013 3 20.7813 3 20.5013V16.4613C3 16.3213 3.05 16.2013 3.15 16.1013L11.92 7.33126L11.2 6.61126C10.81 6.22126 10.81 5.59126 11.2 5.20126C11.59 4.82126 12.22 4.81126 12.61 5.20126L13.84 6.41126L16.96 3.29126C17.1468 3.10401 17.4005 2.99878 17.665 2.99878C17.9295 2.99878 18.1832 3.10401 18.37 3.29126ZM5 17.0813L6.92 19.0013L14.98 10.9413L13.06 9.02127L5 17.0813Z" fill="black" fill-opacity="0.54"/>
</g>
</svg>
