<svg width="24" height="24" viewBox="0 0 24 24" fill="none" xmlns="http://www.w3.org/2000/svg">
<g id="crop_rotate_24px">
<path id="icon/image/crop_rotate_24px" fill-rule="evenodd" clip-rule="evenodd" d="M17.6601 1.39105C15.9901 0.501141 13.8301 -0.118797 11.3901 0.0311879L15.2001 3.84081L16.5301 2.51094C19.6201 3.97079 21.8701 6.8805 22.4201 10.3702C22.4801 10.7801 22.8601 11.0601 23.2801 10.9901C23.6901 10.9301 23.9701 10.5401 23.9001 10.1302C23.3001 6.33056 20.9401 3.13088 17.6601 1.39105ZM9.00009 15.9896H19.0001C19.5501 15.9896 20.0001 16.4395 20.0001 16.9895C20.0001 17.5394 19.5501 17.9894 19.0001 17.9894H18.0001V18.9893C18.0001 19.5392 17.5501 19.9892 17.0001 19.9892C16.4501 19.9892 16.0001 19.5392 16.0001 18.9893V17.9894H8.00009C6.90009 17.9894 6.00009 17.0895 6.00009 15.9896V7.99039H5.00009C4.45009 7.99039 4.00009 7.54044 4.00009 6.99049C4.00009 6.44055 4.45009 5.99059 5.00009 5.99059H6.00009V4.99069C6.00009 4.44075 6.45009 3.99079 7.00009 3.99079C7.55009 3.99079 8.00009 4.44075 8.00009 4.99069V14.9897C8.00009 15.5396 8.45009 15.9896 9.00009 15.9896ZM16.0001 13.9898V8.99029C16.0001 8.44035 15.5501 7.99039 15.0001 7.99039H10.0001V5.99059H16.0001C17.1001 5.99059 18.0001 6.8905 18.0001 7.99039V13.9898H16.0001ZM1.58009 13.6198C2.13009 17.1095 4.38009 20.0192 7.47009 21.479L8.80009 20.1492L12.6101 23.9688C10.1701 24.1188 8.01009 23.4988 6.34009 22.6089C3.06009 20.8691 0.700087 17.6694 0.100087 13.8598C0.0300865 13.4498 0.310087 13.0599 0.720087 12.9999C1.14009 12.9299 1.52009 13.2099 1.58009 13.6198Z" fill="black" fill-opacity="0.54"/>
</g>
</svg>
