<svg width="24" height="24" viewBox="0 0 24 24" fill="none" xmlns="http://www.w3.org/2000/svg">
<g id="exposure_plus_1_24px">
<path id="icon/image/exposure_plus_1_24px" fill-rule="evenodd" clip-rule="evenodd" d="M18 18.5H20V5.5H19.7L15 7.2V8.9L18 7.88V18.5ZM8 8.5C8 7.95 8.45 7.5 9 7.5C9.55 7.5 10 7.95 10 8.5V11.5H13C13.55 11.5 14 11.95 14 12.5C14 13.05 13.55 13.5 13 13.5H10V16.5C10 17.05 9.55 17.5 9 17.5C8.45 17.5 8 17.05 8 16.5V13.5H5C4.45 13.5 4 13.05 4 12.5C4 11.95 4.45 11.5 5 11.5H8V8.5Z" fill="black" fill-opacity="0.54"/>
</g>
</svg>
