<svg width="24" height="24" viewBox="0 0 24 24" fill="none" xmlns="http://www.w3.org/2000/svg">
<g id="exposure_zero_24px">
<path id="icon/image/exposure_zero_24px" fill-rule="evenodd" clip-rule="evenodd" d="M15.835 15.55C16.035 14.85 16.135 14 16.135 13H16.145V10.96C16.145 9.95 16.045 9.11 15.845 8.41C15.645 7.71 15.365 7.15 15.005 6.72C14.645 6.29 14.205 5.98 13.695 5.79C13.185 5.6 12.625 5.5 11.995 5.5C11.375 5.5 10.805 5.6 10.305 5.79C9.79498 5.98 9.35498 6.29 8.99498 6.72C8.63498 7.15 8.35498 7.71 8.15498 8.41C7.95498 9.11 7.85498 9.96 7.85498 10.96V13C7.85498 14 7.95498 14.85 8.15498 15.55C8.35498 16.24 8.64498 16.81 9.00498 17.25C9.36498 17.69 9.80498 18 10.315 18.2C10.825 18.4 11.385 18.5 12.005 18.5C12.635 18.5 13.195 18.4 13.705 18.2C14.215 18 14.645 17.69 15.005 17.25C15.355 16.82 15.635 16.25 15.835 15.55ZM13.895 9.02C13.975 9.46 14.025 10 14.025 10.64H14.035V13.3C14.035 13.93 13.995 14.47 13.905 14.92C13.815 15.37 13.685 15.73 13.515 16.01C13.345 16.29 13.135 16.49 12.885 16.62C12.635 16.75 12.345 16.81 12.015 16.81C11.685 16.81 11.395 16.75 11.145 16.62C10.895 16.49 10.675 16.29 10.505 16.01C10.335 15.73 10.195 15.37 10.105 14.92C10.015 14.48 9.96498 13.94 9.96498 13.3V10.63C9.96498 9.99 10.005 9.45 10.095 9.01C10.185 8.57 10.325 8.22 10.495 7.95C10.665 7.68 10.885 7.49 11.135 7.37C11.385 7.25 11.675 7.19 11.995 7.19C12.315 7.19 12.605 7.25 12.855 7.38C13.105 7.5 13.325 7.69 13.495 7.96C13.675 8.23 13.805 8.58 13.895 9.02Z" fill="black" fill-opacity="0.54"/>
</g>
</svg>
