<svg width="24" height="24" viewBox="0 0 24 24" fill="none" xmlns="http://www.w3.org/2000/svg">
<g id="exposure_neg_2_24px">
<path id="icon/image/exposure_neg_2_24px" fill-rule="evenodd" clip-rule="evenodd" d="M18.41 13.72L15.55 16.79H21.5V18.5H12.87V17.01L17.04 12.46C17.4 12.08 17.69 11.73 17.92 11.43C18.16 11.13 18.34 10.85 18.48 10.6C18.62 10.35 18.71 10.12 18.77 9.9C18.82 9.68 18.85 9.47 18.85 9.25C18.85 8.96 18.8 8.69 18.72 8.44C18.63 8.19 18.51 7.97 18.35 7.79C18.19 7.61 17.99 7.46 17.76 7.36C17.53 7.26 17.26 7.21 16.95 7.21C16.59 7.21 16.26 7.27 15.99 7.39C15.72 7.51 15.49 7.67 15.31 7.88C15.14 8.09 15 8.34 14.91 8.63C14.83 8.9 14.79 9.19 14.78 9.5H12.64C12.65 8.97 12.74 8.47 12.92 8C13.11 7.5 13.39 7.07 13.76 6.7C14.12 6.33 14.58 6.03 15.12 5.82C15.66 5.61 16.28 5.5 16.97 5.5C17.61 5.5 18.18 5.58 18.69 5.74C19.18 5.91 19.61 6.14 19.95 6.45C20.29 6.75 20.55 7.12 20.73 7.56C20.91 8 21 8.49 21 9.02C21 9.41 20.94 9.81 20.81 10.2C20.68 10.59 20.5 10.98 20.27 11.37C20.04 11.76 19.77 12.15 19.45 12.54C19.13 12.93 18.79 13.33 18.41 13.72ZM3.5 13.5C2.95 13.5 2.5 13.05 2.5 12.5C2.5 11.95 2.95 11.5 3.5 11.5H9.5C10.05 11.5 10.5 11.95 10.5 12.5C10.5 13.05 10.05 13.5 9.5 13.5H3.5Z" fill="black" fill-opacity="0.54"/>
</g>
</svg>
