<svg width="24" height="24" viewBox="0 0 24 24" fill="none" xmlns="http://www.w3.org/2000/svg">
<g id="filter_frames_24px">
<path id="icon/image/filter_frames_24px" fill-rule="evenodd" clip-rule="evenodd" d="M20 4.79123H16L12.71 1.50123C12.5232 1.31397 12.2695 1.20874 12.005 1.20874C11.7405 1.20874 11.4868 1.31397 11.3 1.50123L8 4.79123H4C2.9 4.79123 2 5.69123 2 6.79123V20.7912C2 21.8912 2.9 22.7912 4 22.7912H20C21.1 22.7912 22 21.8912 22 20.7912V6.79123C22 5.69123 21.1 4.79123 20 4.79123ZM19 20.7912H5C4.45 20.7912 4 20.3412 4 19.7912V7.79123C4 7.24123 4.45 6.79123 5 6.79123H8.52L12.04 3.29123L15.52 6.79123H19C19.55 6.79123 20 7.24123 20 7.79123V19.7912C20 20.3412 19.55 20.7912 19 20.7912ZM7 8.79123H17C17.55 8.79123 18 9.24123 18 9.79123V17.7912C18 18.3412 17.55 18.7912 17 18.7912H7C6.45 18.7912 6 18.3412 6 17.7912V9.79123C6 9.24123 6.45 8.79123 7 8.79123Z" fill="black" fill-opacity="0.54"/>
</g>
</svg>
