<svg width="24" height="24" viewBox="0 0 24 24" fill="none" xmlns="http://www.w3.org/2000/svg">
<g id="filter_vintage_24px">
<path id="icon/image/filter_vintage_24px" fill-rule="evenodd" clip-rule="evenodd" d="M17.84 12C18.13 12.11 18.42 12.24 18.7 12.4C20.62 13.51 21.69 15.52 21.7 17.59C19.9 18.62 17.62 18.7 15.7 17.59C15.42 17.43 15.16 17.25 14.92 17.05C14.97 17.36 15 17.68 15 18C15 20.22 13.79 22.15 12 23.19C10.21 22.15 9.00005 20.22 9.00005 18C9.00005 17.68 9.03005 17.36 9.08005 17.04C8.84005 17.23 8.58005 17.42 8.30005 17.58C6.37005 18.69 4.09005 18.61 2.30005 17.58C2.31005 15.51 3.38005 13.5 5.30005 12.39C5.58005 12.23 5.87005 12.1 6.16005 11.99C5.87005 11.88 5.58005 11.75 5.30005 11.59C3.37005 10.48 2.30005 8.47 2.30005 6.4C4.10005 5.37 6.38005 5.29 8.30005 6.4C8.58005 6.56 8.84005 6.75 9.08005 6.95C9.03005 6.64 9.00005 6.32 9.00005 6C9.00005 3.78 10.21 1.85 12 0.809998C13.79 1.85 15 3.78 15 6C15 6.32 14.97 6.64 14.92 6.95C15.16 6.76 15.42 6.57 15.7 6.41C17.63 5.3 19.91 5.38 21.7 6.41C21.69 8.48 20.62 10.49 18.7 11.6C18.42 11.76 18.13 11.89 17.84 12ZM8.00005 12C8.00005 14.21 9.79005 16 12 16C14.21 16 16 14.21 16 12C16 9.79 14.21 8 12 8C9.79005 8 8.00005 9.79 8.00005 12Z" fill="black" fill-opacity="0.54"/>
</g>
</svg>
