<svg width="24" height="24" viewBox="0 0 24 24" fill="none" xmlns="http://www.w3.org/2000/svg">
<g id="filter_center_focus_24px">
<path id="icon/image/filter_center_focus_24px" fill-rule="evenodd" clip-rule="evenodd" d="M5 6C5 5.45 5.45 5 6 5H8C8.55 5 9 4.55 9 4C9 3.45 8.55 3 8 3H5C3.9 3 3 3.9 3 5V8C3 8.55 3.45 9 4 9C4.55 9 5 8.55 5 8V6ZM4 15C3.45 15 3 15.45 3 16V19C3 20.1 3.9 21 5 21H8C8.55 21 9 20.55 9 20C9 19.45 8.55 19 8 19H6C5.45 19 5 18.55 5 18V16C5 15.45 4.55 15 4 15ZM16 3H19C20.1 3 21 3.9 21 5V8C21 8.55 20.55 9 20 9C19.45 9 19 8.55 19 8V6C19 5.45 18.55 5 18 5H16C15.45 5 15 4.55 15 4C15 3.45 15.45 3 16 3ZM19 18C19 18.55 18.55 19 18 19H16C15.45 19 15 19.45 15 20C15 20.55 15.45 21 16 21H19C20.1 21 21 20.1 21 19V16C21 15.45 20.55 15 20 15C19.45 15 19 15.45 19 16V18ZM9 12C9 10.34 10.34 9 12 9C13.66 9 15 10.34 15 12C15 13.66 13.66 15 12 15C10.34 15 9 13.66 9 12Z" fill="black" fill-opacity="0.54"/>
</g>
</svg>
