<svg width="24" height="24" viewBox="0 0 24 24" fill="none" xmlns="http://www.w3.org/2000/svg">
<g id="flash_off_24px">
<path id="icon/image/flash_off_24px" fill-rule="evenodd" clip-rule="evenodd" d="M17.7055 4.12548C18.0355 3.45548 17.5555 2.67548 16.8055 2.67548H9.42552C8.87552 2.67548 8.42552 3.12548 8.42552 3.67548V4.28548L14.5555 10.4155L17.7055 4.12548ZM17.5455 12.1755C17.9355 11.5055 17.4555 10.6755 16.6855 10.6755H14.8155L17.0955 12.9555L17.5455 12.1755ZM5.54552 4.23548L19.8655 18.5555C20.2555 18.9455 20.2555 19.5755 19.8555 19.9655C19.4655 20.3555 18.8355 20.3555 18.4455 19.9655L15.0055 16.5255L12.3555 21.0755C12.0955 21.5155 11.4255 21.3355 11.4255 20.8255V13.6755H9.42552C8.87552 13.6755 8.42552 13.2255 8.42552 12.6755V9.94548L4.13552 5.64548C3.74552 5.25548 3.74552 4.62548 4.13552 4.23548C4.32235 4.04822 4.576 3.94299 4.84052 3.94299C5.10504 3.94299 5.35869 4.04822 5.54552 4.23548Z" fill="black" fill-opacity="0.54"/>
</g>
</svg>
