<svg width="24" height="24" viewBox="0 0 24 24" fill="none" xmlns="http://www.w3.org/2000/svg">
<g id="flash_auto_24px">
<path id="icon/image/flash_auto_24px" fill-rule="evenodd" clip-rule="evenodd" d="M2.58813 3.17548V13.1755C2.58813 13.7255 3.03813 14.1755 3.58813 14.1755H5.58813V21.3255C5.58813 21.8355 6.25813 22.0155 6.51813 21.5755L11.7081 12.6755C12.0981 12.0055 11.6181 11.1755 10.8481 11.1755H8.58813L11.9681 3.58548C12.2581 2.91548 11.7681 2.17548 11.0481 2.17548H3.58813C3.03813 2.17548 2.58813 2.62548 2.58813 3.17548ZM17.5881 2.17548C16.9881 2.17548 16.4581 2.55548 16.2481 3.11548L13.8081 9.97548C13.6081 10.5655 14.0381 11.1755 14.6581 11.1755C15.0381 11.1755 15.3781 10.9355 15.4981 10.5755L15.9881 9.17548H19.1881L19.6781 10.5755C19.8081 10.9355 20.1381 11.1755 20.5181 11.1755C21.1381 11.1755 21.5681 10.5655 21.3581 9.98548L18.9181 3.12548C18.7181 2.55548 18.1881 2.17548 17.5881 2.17548ZM17.5881 4.17548L16.4381 7.82548H18.7381L17.5881 4.17548Z" fill="black" fill-opacity="0.54"/>
</g>
</svg>
