<svg width="24" height="24" viewBox="0 0 24 24" fill="none" xmlns="http://www.w3.org/2000/svg">
<g id="grid_off_24px">
<path id="icon/image/grid_off_24px" fill-rule="evenodd" clip-rule="evenodd" d="M2.68492 1.26996L22.7249 21.31C23.1149 21.7 23.1149 22.34 22.7249 22.73C22.3349 23.12 21.7049 23.12 21.3149 22.73L20.0149 21.43H4.56492C3.46492 21.43 2.56492 20.53 2.56492 19.43V3.97996L1.27492 2.67996C0.884922 2.28996 0.884922 1.65996 1.27492 1.26996C1.46175 1.08271 1.7154 0.977478 1.97992 0.977478C2.24444 0.977478 2.49809 1.08271 2.68492 1.26996ZM8.56492 3.42996V4.31996L10.5649 6.31996V3.42996H14.5649V7.42996H11.6749L13.6749 9.42996H14.5649V10.32L16.5649 12.32V9.42996H20.5649V13.43H17.6749L19.6749 15.43H20.5649V16.32L22.5649 18.32V3.42996C22.5649 2.32996 21.6649 1.42996 20.5649 1.42996H5.67492L7.67492 3.42996H8.56492ZM16.5649 3.42996H19.5649C20.1149 3.42996 20.5649 3.87996 20.5649 4.42996V7.42996H16.5649V3.42996ZM10.5649 11.98L12.0149 13.43H10.5649V11.98ZM6.01492 7.42996L4.56492 5.97996V7.42996H6.01492ZM8.56492 19.43H5.56492C5.01492 19.43 4.56492 18.98 4.56492 18.43V15.43H8.56492V19.43ZM4.56492 13.43H8.56492V9.97996L8.01492 9.42996H4.56492V13.43ZM14.5649 19.43H10.5649V15.43H14.0149L14.5649 15.98V19.43ZM16.5649 17.98V19.43H18.0149L16.5649 17.98Z" fill="black" fill-opacity="0.54"/>
</g>
</svg>
