<svg width="24" height="24" viewBox="0 0 24 24" fill="none" xmlns="http://www.w3.org/2000/svg">
<g id="hdr_off_24px">
<path id="icon/image/hdr_off_24px" fill-rule="evenodd" clip-rule="evenodd" d="M3.52946 2.48001L21.5295 20.48C21.8095 20.77 21.8095 21.24 21.5195 21.52C21.2295 21.81 20.7595 21.81 20.4695 21.52L13.3595 14.41C13.2395 14.44 13.1195 14.45 12.9995 14.45H10.4995C10.2195 14.45 9.99946 14.23 9.99946 13.95V11.05L8.49946 9.55001V13.7C8.49946 14.11 8.15946 14.45 7.74946 14.45C7.33946 14.45 6.99946 14.11 6.99946 13.7V11.95H4.99946V13.7C4.99946 14.11 4.65946 14.45 4.24946 14.45C3.83946 14.45 3.49946 14.11 3.49946 13.7V9.20001C3.49946 8.79001 3.83946 8.45001 4.24946 8.45001C4.65946 8.45001 4.99946 8.79001 4.99946 9.20001V10.45H6.99946V9.20001C6.99946 8.89001 7.18946 8.62001 7.45946 8.51001L2.47946 3.53001C2.18946 3.24001 2.18946 2.77001 2.47946 2.48001C2.76946 2.19001 3.23946 2.19001 3.52946 2.48001ZM13.4995 9.95001V10.35L14.9995 11.85V9.95001C14.9995 9.13001 14.3195 8.45001 13.4995 8.45001H11.5995L13.0995 9.95001H13.4995ZM17.9995 12.45V13.7C17.9995 14.01 17.8095 14.28 17.5395 14.39L16.4995 13.35V9.45001C16.4995 8.90001 16.9495 8.45001 17.4995 8.45001H19.9995C20.8295 8.45001 21.4995 9.12001 21.4995 9.95001V10.95C21.4995 11.55 21.0995 12.05 20.5995 12.35L21.0895 13.49C21.2795 13.94 20.9495 14.45 20.4495 14.45C20.1795 14.45 19.9295 14.29 19.8195 14.04L19.0995 12.45H17.9995ZM19.9995 9.95001H17.9995V10.95H19.9995V9.95001Z" fill="black" fill-opacity="0.54"/>
</g>
</svg>
