<svg width="24" height="24" viewBox="0 0 24 24" fill="none" xmlns="http://www.w3.org/2000/svg">
<g id="healing_24px">
<path id="icon/image/healing_24px" fill-rule="evenodd" clip-rule="evenodd" d="M17.7449 12L21.7249 8.01996C22.1149 7.62996 22.1149 6.99996 21.7249 6.60996L17.3849 2.26996C17.1981 2.08271 16.9444 1.97748 16.6799 1.97748C16.4154 1.97748 16.1617 2.08271 15.9749 2.26996L11.9949 6.24996L8.01491 2.26996C7.81491 2.07996 7.56491 1.97996 7.30491 1.97996C7.05491 1.97996 6.79491 2.07996 6.60491 2.26996L2.26491 6.60996C1.87491 6.99996 1.87491 7.62996 2.26491 8.01996L6.24491 12L2.26491 15.98C1.87491 16.37 1.87491 17 2.26491 17.39L6.60491 21.73C6.99491 22.12 7.62491 22.12 8.01491 21.73L11.9949 17.75L15.9749 21.73C16.1749 21.93 16.4249 22.02 16.6849 22.02C16.9449 22.02 17.1949 21.92 17.3949 21.73L21.7349 17.39C22.1249 17 22.1249 16.37 21.7349 15.98L17.7449 12ZM12.0149 8.97996C12.5649 8.97996 13.0149 9.42996 13.0149 9.97996C13.0149 10.53 12.5649 10.98 12.0149 10.98C11.4649 10.98 11.0149 10.53 11.0149 9.97996C11.0149 9.42996 11.4649 8.97996 12.0149 8.97996ZM3.67491 7.31996L7.30491 10.94L10.9249 7.30996L7.30491 3.68996L3.67491 7.31996ZM10.0149 12.98C9.46491 12.98 9.01491 12.53 9.01491 11.98C9.01491 11.43 9.46491 10.98 10.0149 10.98C10.5649 10.98 11.0149 11.43 11.0149 11.98C11.0149 12.53 10.5649 12.98 10.0149 12.98ZM11.0149 13.98C11.0149 14.53 11.4649 14.98 12.0149 14.98C12.5649 14.98 13.0149 14.53 13.0149 13.98C13.0149 13.43 12.5649 12.98 12.0149 12.98C11.4649 12.98 11.0149 13.43 11.0149 13.98ZM14.0149 10.98C14.5649 10.98 15.0149 11.43 15.0149 11.98C15.0149 12.53 14.5649 12.98 14.0149 12.98C13.4649 12.98 13.0149 12.53 13.0149 11.98C13.0149 11.43 13.4649 10.98 14.0149 10.98ZM13.0449 16.7L16.6749 20.32L20.2949 16.69L16.6749 13.07L13.0449 16.7Z" fill="black" fill-opacity="0.54"/>
</g>
</svg>
