<svg width="24" height="24" viewBox="0 0 24 24" fill="none" xmlns="http://www.w3.org/2000/svg">
<g id="leak_remove_24px">
<path id="icon/image/leak_remove_24px" fill-rule="evenodd" clip-rule="evenodd" d="M9.91489 4.14C10.0149 3.54 9.52489 3 8.91489 3C8.50489 3 8.16489 3.26 8.01489 3.62L9.63489 5.24C9.76489 4.89 9.85489 4.52 9.91489 4.14ZM12.9549 3.01C13.5549 3.01 14.0149 3.53 13.9549 4.12C13.8049 5.61 13.3449 7.01 12.6549 8.27L11.1749 6.79C11.5849 5.89 11.8649 4.91 11.9649 3.88C12.0149 3.38 12.4549 3.01 12.9549 3.01ZM20.1049 12.02C20.6049 11.97 20.9849 11.54 20.9849 11.03C20.9849 10.44 20.4749 9.97 19.8849 10.03C18.3849 10.18 16.9849 10.64 15.7249 11.33L17.2049 12.81C18.1049 12.4 19.0749 12.12 20.1049 12.02ZM20.9849 15.07C20.9849 14.46 20.4449 13.98 19.8449 14.07C19.4649 14.13 19.0949 14.23 18.7349 14.35L20.3549 15.97C20.7249 15.82 20.9849 15.48 20.9849 15.07ZM5.10489 3.54L20.4249 18.86C20.8149 19.25 20.8149 19.88 20.4349 20.29C20.0449 20.68 19.4149 20.68 19.0249 20.29L16.8949 18.16C16.4949 18.75 16.1949 19.42 16.0749 20.15C15.9949 20.64 15.5849 21 15.0949 21C14.4849 21 13.9949 20.46 14.0949 19.86C14.2849 18.69 14.7749 17.63 15.4649 16.73L14.0349 15.3C12.9449 16.64 12.2249 18.3 12.0449 20.12C11.9949 20.62 11.5549 20.99 11.0549 20.99C10.4549 20.99 9.99489 20.47 10.0549 19.88C10.2849 17.6 11.2149 15.53 12.6149 13.88L10.1349 11.4C8.48489 12.81 6.40489 13.73 4.12489 13.96C3.53489 14.02 3.02489 13.55 3.02489 12.96C3.02489 12.45 3.40489 12.02 3.90489 11.97C5.71489 11.8 7.37489 11.08 8.71489 9.98L7.28489 8.55C6.38489 9.24 5.32489 9.73 4.15489 9.92C3.55489 10.01 3.01489 9.53 3.01489 8.92C3.01489 8.42 3.37489 8.02 3.85489 7.92C4.58489 7.8 5.25489 7.51 5.84489 7.1L3.69489 4.95C3.30489 4.56 3.30489 3.93 3.69489 3.54C3.88172 3.35275 4.13537 3.24751 4.39989 3.24751C4.66441 3.24751 4.91806 3.35275 5.10489 3.54Z" fill="black" fill-opacity="0.54"/>
</g>
</svg>
