<svg width="24" height="24" viewBox="0 0 24 24" fill="none" xmlns="http://www.w3.org/2000/svg">
<g id="leak_add_24px">
<path id="icon/image/leak_add_24px" fill-rule="evenodd" clip-rule="evenodd" d="M11.97 3.88001C12.02 3.38001 12.46 3.01001 12.96 3.01001C13.56 3.01001 14.02 3.54001 13.95 4.12001C13.43 9.30001 9.30001 13.43 4.11001 13.95C3.52001 14.01 3.01001 13.54 3.01001 12.95C3.01001 12.44 3.39001 12.01 3.89001 11.96C8.16001 11.55 11.56 8.15001 11.97 3.88001ZM12.03 20.12C11.98 20.62 11.54 20.99 11.04 20.99C10.45 20.99 9.99001 20.47 10.05 19.88C10.57 14.7 14.7 10.57 19.89 10.05C20.48 9.99001 20.99 10.46 20.99 11.05C20.99 11.56 20.61 11.99 20.11 12.04C15.84 12.45 12.44 15.85 12.03 20.12ZM20.99 20.99H17.99C17.99 19.33 19.33 17.99 20.99 17.99V20.99ZM15.08 20.99C15.57 20.99 15.98 20.63 16.06 20.14C16.42 18.06 18.06 16.42 20.14 16.06C20.63 15.98 20.99 15.57 20.99 15.08C20.99 14.47 20.45 13.99 19.85 14.08C16.89 14.56 14.56 16.89 14.08 19.85C13.98 20.45 14.47 20.99 15.08 20.99ZM6.02001 3.01001H3.02001V6.01001C4.68001 6.01001 6.02001 4.67001 6.02001 3.01001ZM7.95001 3.86001C8.03001 3.37001 8.44001 3.01001 8.93001 3.01001C9.53001 3.01001 10.02 3.55001 9.93001 4.16001C9.45001 7.12001 7.12001 9.45001 4.16001 9.93001C3.56001 10.02 3.02001 9.54001 3.02001 8.93001C3.02001 8.43001 3.38001 8.03001 3.87001 7.94001C5.95001 7.58001 7.59001 5.94001 7.95001 3.86001Z" fill="black" fill-opacity="0.54"/>
</g>
</svg>
