<svg width="24" height="24" viewBox="0 0 24 24" fill="none" xmlns="http://www.w3.org/2000/svg">
<g id="linked_camera_24px">
<path id="icon/image/linked_camera_24px" fill-rule="evenodd" clip-rule="evenodd" d="M16.6 3.34759C18.7 3.61759 20.37 5.27759 20.63 7.37759C20.67 7.71759 20.95 7.97759 21.29 7.97759C21.68 7.97759 22 7.63759 21.95 7.24759C21.62 4.52759 19.45 2.35759 16.73 2.02759C16.34 1.97759 16 2.29759 16 2.68759C16 3.02759 16.26 3.30759 16.6 3.34759ZM12 10.9776C10.9282 10.9776 9.93782 11.5494 9.40192 12.4776C8.86603 13.4058 8.86603 14.5494 9.40192 15.4776C9.93782 16.4058 10.9282 16.9776 12 16.9776C13.0718 16.9776 14.0622 16.4058 14.5981 15.4776C15.134 14.5494 15.134 13.4058 14.5981 12.4776C14.0622 11.5494 13.0718 10.9776 12 10.9776ZM16.81 4.74759C18.0003 5.0479 18.9297 5.97731 19.23 7.16759C19.33 7.57759 19.01 7.97759 18.58 7.97759C18.28 7.97759 18.01 7.78759 17.94 7.49759C17.77 6.77759 17.2 6.21759 16.48 6.03759C16.19 5.96759 16 5.68759 16 5.39759C16 4.96759 16.4 4.64759 16.81 4.74759ZM17 8.97759C17 7.87759 16.1 6.97759 15 6.97759V4.97759C15 4.42759 14.55 3.97759 14 3.97759H9.88C9.32 3.97759 8.78 4.21759 8.4 4.62759L7.17 5.97759H4C2.9 5.97759 2 6.87759 2 7.97759V19.9776C2 21.0776 2.9 21.9776 4 21.9776H20C21.1 21.9776 22 21.0776 22 19.9776V10.9776C22 9.87759 21.1 8.97759 20 8.97759H17ZM7 13.9776C7 16.7376 9.24 18.9776 12 18.9776C14.76 18.9776 17 16.7376 17 13.9776C17 11.2176 14.76 8.97759 12 8.97759C9.24 8.97759 7 11.2176 7 13.9776Z" fill="black" fill-opacity="0.54"/>
</g>
</svg>
