<svg width="24" height="24" viewBox="0 0 24 24" fill="none" xmlns="http://www.w3.org/2000/svg">
<g id="looks_4_24px">
<path id="icon/image/looks_4_24px" fill-rule="evenodd" clip-rule="evenodd" d="M5 3H19C20.1 3 21 3.9 21 5V19C21 20.1 20.1 21 19 21H5C3.9 21 3 20.1 3 19V5C3 3.9 3.9 3 5 3ZM13 16C13 16.55 13.45 17 14 17C14.55 17 15 16.55 15 16V8C15 7.45 14.55 7 14 7C13.45 7 13 7.45 13 8V11H11V8C11 7.45 10.55 7 10 7C9.45 7 9 7.45 9 8V12C9 12.55 9.45 13 10 13H13V16Z" fill="black" fill-opacity="0.54"/>
</g>
</svg>
