<svg width="24" height="24" viewBox="0 0 24 24" fill="none" xmlns="http://www.w3.org/2000/svg">
<g id="looks_24px">
<path id="icon/image/looks_24px" fill-rule="evenodd" clip-rule="evenodd" d="M1.04938 16.4C1.60938 10.84 6.29938 6.5 11.9994 6.5C17.6994 6.5 22.3894 10.84 22.9494 16.4C23.0094 16.99 22.5394 17.5 21.9494 17.5C21.4394 17.5 21.0094 17.12 20.9594 16.62C20.5094 12.07 16.6594 8.5 11.9994 8.5C7.33938 8.5 3.48938 12.07 3.04938 16.62C2.99938 17.12 2.56938 17.5 2.05938 17.5C1.45938 17.5 0.999376 16.99 1.04938 16.4ZM5.08938 16.36C5.63938 13.04 8.52938 10.5 11.9994 10.5C15.4694 10.5 18.3594 13.04 18.8994 16.36C18.9994 16.96 18.5194 17.5 17.9094 17.5C17.4194 17.5 17.0094 17.14 16.9294 16.65C16.5194 14.29 14.4694 12.5 11.9994 12.5C9.52938 12.5 7.47938 14.29 7.06938 16.65C6.98938 17.14 6.57938 17.5 6.08938 17.5C5.47938 17.5 4.98938 16.96 5.08938 16.36Z" fill="black" fill-opacity="0.54"/>
</g>
</svg>
