<svg width="24" height="24" viewBox="0 0 24 24" fill="none" xmlns="http://www.w3.org/2000/svg">
<g id="looks_3_24px">
<path id="icon/image/looks_3_24px" fill-rule="evenodd" clip-rule="evenodd" d="M5.00488 3H18.9949C20.0949 3 20.9949 3.9 20.9949 5V19C20.9949 20.1 20.0949 21 18.9949 21H5.00488C3.90488 21 3.00488 20.1 3.00488 19V5C3.00488 3.9 3.90488 3 5.00488 3ZM13.5049 12C14.3349 12 15.0049 11.33 15.0049 10.5V9C15.0049 7.9 14.1049 7 13.0049 7H9.99488C9.44488 7 9.00488 7.45 9.00488 8C9.00488 8.55 9.44488 9 9.99488 9H13.0049L12.9949 11H11.9949C11.4449 11 10.9949 11.45 10.9949 12C10.9949 12.55 11.4449 13 11.9949 13H12.9949L13.0049 15H9.99488C9.44488 15 8.99488 15.45 8.99488 16C8.99488 16.55 9.44488 17 9.99488 17H13.0049C14.1049 17 15.0049 16.11 15.0049 15V13.5C15.0049 12.67 14.3349 12 13.5049 12Z" fill="black" fill-opacity="0.54"/>
</g>
</svg>
