<svg width="24" height="24" viewBox="0 0 24 24" fill="none" xmlns="http://www.w3.org/2000/svg">
<g id="music_off_24px">
<path id="icon/image/music_off_24px" fill-rule="evenodd" clip-rule="evenodd" d="M13.9299 6.99939V9.60939L11.9299 7.60939V3.99939C11.9299 3.44939 12.3799 2.99939 12.9299 2.99939H15.9299C17.0299 2.99939 17.9299 3.89939 17.9299 4.99939C17.9299 6.09939 17.0299 6.99939 15.9299 6.99939H13.9299ZM4.34491 3.2669C4.60943 3.2669 4.86308 3.37214 5.04991 3.55939L20.3599 18.8794C20.7499 19.2694 20.7499 19.8994 20.3599 20.2894C19.9699 20.6794 19.3399 20.6794 18.9499 20.2894L13.9299 15.2694V16.8494C13.9299 18.8394 12.5399 20.6394 10.5799 20.9494C7.84991 21.3794 5.52991 19.0394 5.98991 16.2994C6.22991 14.8994 7.25991 13.7094 8.59991 13.2294C9.82991 12.7994 10.9899 13.0094 11.9299 13.5494V13.2694L3.63991 4.96939C3.24991 4.57939 3.24991 3.94939 3.63991 3.55939C3.82674 3.37214 4.08039 3.2669 4.34491 3.2669Z" fill="black" fill-opacity="0.54"/>
</g>
</svg>
