<svg width="24" height="24" viewBox="0 0 24 24" fill="none" xmlns="http://www.w3.org/2000/svg">
<g id="nature_people_24px">
<path id="icon/image/nature_people_24px" fill-rule="evenodd" clip-rule="evenodd" d="M14.975 2.08541C18.895 2.02541 22.085 5.17541 22.085 9.08541C22.085 12.6754 19.385 15.6254 15.915 16.0354V19.9154H17.915C18.465 19.9154 18.915 20.3654 18.915 20.9154C18.915 21.4654 18.465 21.9154 17.915 21.9154H3.91504C3.36504 21.9154 2.91504 21.4654 2.91504 20.9154V16.9154H2.41504C2.13504 16.9154 1.91504 16.6954 1.91504 16.4154V12.9154C1.91504 12.3654 2.36504 11.9154 2.91504 11.9154H5.91504C6.46504 11.9154 6.91504 12.3654 6.91504 12.9154V16.4154C6.91504 16.6954 6.69504 16.9154 6.41504 16.9154H5.91504V19.9154H13.925V15.9754C10.675 15.4354 8.18504 12.6554 8.09504 9.27541C7.98504 5.45541 11.145 2.14541 14.975 2.08541ZM2.91504 9.41541C2.91504 8.58698 3.58661 7.91541 4.41504 7.91541C5.24347 7.91541 5.91504 8.58698 5.91504 9.41541C5.91504 10.2438 5.24347 10.9154 4.41504 10.9154C3.58661 10.9154 2.91504 10.2438 2.91504 9.41541Z" fill="black" fill-opacity="0.54"/>
</g>
</svg>
