<svg width="24" height="24" viewBox="0 0 24 24" fill="none" xmlns="http://www.w3.org/2000/svg">
<g id="panorama_vertical_24px">
<path id="icon/image/panorama_vertical_24px" fill-rule="evenodd" clip-rule="evenodd" d="M18.2951 12C18.2951 15.09 18.8351 18.18 19.9351 21.12C19.9751 21.23 19.9951 21.33 20.0051 21.43C20.0051 21.76 19.7651 22 19.3751 22H4.62512C4.22512 22 3.99512 21.76 3.99512 21.43C3.99512 21.34 4.01512 21.23 4.06512 21.12C5.15512 18.18 5.70512 15.09 5.70512 12C5.70512 8.91 5.15512 5.82 4.05512 2.88C4.01512 2.77 3.99512 2.67 3.99512 2.57C3.99512 2.23 4.22512 2 4.62512 2H19.3651C19.7651 2 19.9951 2.23 19.9951 2.57C19.9951 2.66 19.9751 2.77 19.9351 2.88C18.8451 5.82 18.2951 8.91 18.2951 12ZM7.69512 12C7.69512 14.72 7.30512 17.4 6.53512 20H17.4451C16.6751 17.4 16.2851 14.72 16.2851 12C16.2851 9.28 16.6751 6.6 17.4451 4H6.53512C7.30512 6.6 7.69512 9.28 7.69512 12Z" fill="black" fill-opacity="0.54"/>
</g>
</svg>
