<svg width="24" height="24" viewBox="0 0 24 24" fill="none" xmlns="http://www.w3.org/2000/svg">
<g id="rotate_left_24px">
<path id="icon/image/rotate_left_24px" fill-rule="evenodd" clip-rule="evenodd" d="M12.8553 4.34846V5.00846C16.8053 5.49846 19.8553 8.85846 19.8553 12.9385C19.8553 16.5785 17.4253 19.6485 14.0853 20.6085C13.4653 20.7885 12.8553 20.2985 12.8553 19.6485V19.6285C12.8553 19.1985 13.1253 18.8085 13.5353 18.6885C16.0353 17.9585 17.8553 15.6685 17.8553 12.9385C17.8553 9.96846 15.6953 7.50846 12.8553 7.02846V8.55846C12.8553 9.44846 11.7853 9.89846 11.1553 9.27846L9.02531 7.19846C8.62531 6.80846 8.62531 6.16846 9.02531 5.76846L11.1453 3.63846C11.7753 3.00846 12.8553 3.45846 12.8553 4.34846ZM4.85531 9.10846C5.16531 8.53846 5.95531 8.45846 6.41531 8.91846C6.72531 9.22846 6.79531 9.69846 6.57531 10.0685C6.37531 10.4485 6.21531 10.8385 6.09531 11.2385C5.97531 11.6585 5.58531 11.9385 5.15531 11.9385H5.14531C4.49531 11.9385 3.99531 11.3185 4.18531 10.6885C4.35531 10.1385 4.57531 9.61846 4.85531 9.10846ZM4.18531 15.1885C3.99531 14.5585 4.49531 13.9385 5.14531 13.9385H5.16531C5.59531 13.9385 5.98531 14.2185 6.10531 14.6585C6.22531 15.0585 6.38531 15.4485 6.58531 15.8185C6.79531 16.1985 6.71531 16.6585 6.41531 16.9685C5.95531 17.4285 5.15531 17.3385 4.84531 16.7685C4.56531 16.2585 4.34531 15.7285 4.18531 15.1885ZM8.01531 19.9585C8.52531 20.2385 9.05531 20.4585 9.60531 20.6185C10.2253 20.7985 10.8453 20.2985 10.8453 19.6585V19.6285C10.8453 19.1985 10.5653 18.8085 10.1453 18.6885C9.74531 18.5685 9.36531 18.4085 8.99531 18.2085C8.61531 17.9985 8.13531 18.0685 7.83531 18.3785L7.80531 18.4085C7.35531 18.8585 7.44531 19.6485 8.01531 19.9585Z" fill="black" fill-opacity="0.54"/>
</g>
</svg>
