<svg width="24" height="24" viewBox="0 0 24 24" fill="none" xmlns="http://www.w3.org/2000/svg">
<g id="rotate_90_degrees_ccw_24px">
<path id="icon/image/rotate_90_degrees_ccw_24px" fill-rule="evenodd" clip-rule="evenodd" d="M13.1524 3.91702C15.4524 3.91702 17.7624 4.79702 19.5124 6.55702C23.0324 10.067 23.0324 15.767 19.5124 19.277C17.7624 21.037 15.4524 21.917 13.1524 21.917C12.1424 21.917 11.1424 21.747 10.1824 21.407C9.50241 21.177 9.34241 20.287 9.84241 19.787C10.1124 19.517 10.5024 19.407 10.8624 19.527C11.6024 19.787 12.3724 19.917 13.1524 19.917C15.1724 19.917 17.1824 19.057 18.6024 17.317C20.6524 14.797 20.6524 11.047 18.6024 8.52702C17.1824 6.77702 15.1724 5.91702 13.1524 5.91702V6.74702C13.1524 7.63702 12.0724 8.07702 11.4524 7.44702L9.62241 5.61702C9.23241 5.22702 9.23241 4.59702 9.62241 4.20702L11.4424 2.37702C12.0724 1.74702 13.1524 2.19702 13.1524 3.08702V3.91702ZM6.08241 7.74702L2.43241 11.407C1.65241 12.187 1.65241 13.457 2.43241 14.237L6.09241 17.897C6.87241 18.677 8.14241 18.677 8.92241 17.897L12.5824 14.247C13.3624 13.467 13.3624 12.197 12.5824 11.417L8.91241 7.73702C8.12241 6.95702 6.86241 6.95702 6.08241 7.74702ZM4.55241 12.107L6.80241 9.85702C7.19241 9.46702 7.82241 9.46702 8.22241 9.85702L10.4624 12.097C10.8524 12.487 10.8524 13.117 10.4624 13.507L8.21241 15.757C7.82241 16.147 7.19241 16.147 6.79241 15.757L4.55241 13.527C4.16241 13.137 4.16241 12.497 4.55241 12.107Z" fill="black" fill-opacity="0.54"/>
</g>
</svg>
