<svg width="24" height="24" viewBox="0 0 24 24" fill="none" xmlns="http://www.w3.org/2000/svg">
<g id="shutter_speed_24px">
<path id="icon/image/shutter_speed_24px" fill-rule="evenodd" clip-rule="evenodd" d="M10.0016 3.5H14.0016C14.5516 3.5 15.0016 3.05 15.0016 2.5C15.0016 1.95 14.5516 1.5 14.0016 1.5H10.0016C9.45156 1.5 9.00156 1.95 9.00156 2.5C9.00156 3.05 9.45156 3.5 10.0016 3.5ZM19.0316 7.89L19.7816 7.14C20.1616 6.76 20.1716 6.13 19.7816 5.74L19.7716 5.73C19.3816 5.34 18.7616 5.35 18.3716 5.73L17.6216 6.48C16.0716 5.24 14.1216 4.5 12.0016 4.5C7.20156 4.5 3.12157 8.46 3.00157 13.26C2.87157 18.34 6.94157 22.5 12.0016 22.5C16.9816 22.5 21.0016 18.47 21.0016 13.5C21.0016 11.38 20.2616 9.43 19.0316 7.89ZM5.00156 13.5C5.00156 17.37 8.13157 20.5 12.0016 20.5C15.8716 20.5 19.0016 17.37 19.0016 13.5C19.0016 9.63 15.8716 6.5 12.0016 6.5C8.13157 6.5 5.00156 9.63 5.00156 13.5ZM10.8116 15.5H7.11157C6.73156 15.5 6.49156 15.9 6.66157 16.24C7.22157 17.36 8.10156 18.25 9.23156 18.81C9.46157 18.92 9.75156 18.83 9.88157 18.6L11.2516 16.25C11.4416 15.92 11.2016 15.5 10.8116 15.5ZM14.0816 8.35C14.2116 8.13 14.5016 8.03 14.7316 8.15C15.8516 8.73 16.7616 9.64 17.3416 10.77C17.5116 11.1 17.2716 11.5 16.8916 11.5H13.1316C12.7416 11.5 12.5016 11.08 12.7016 10.74L14.0816 8.35ZM13.8816 15.2C13.6916 14.86 13.2016 14.85 13.0116 15.19L10.9716 18.71C10.7916 19.03 10.9916 19.43 11.3616 19.46C12.7016 19.6 14.0516 19.28 15.1916 18.57C15.4116 18.43 15.4716 18.14 15.3516 17.91L13.8816 15.2ZM7.93156 10.07L10.3116 13.73C10.5216 14.06 10.2816 14.5 9.89156 14.5H6.54156C6.28156 14.5 6.06156 14.31 6.04156 14.05C5.92157 12.64 6.28156 11.23 7.09157 10.07C7.29156 9.77 7.73156 9.77 7.93156 10.07ZM13.9716 13.24L15.9916 16.98C16.1716 17.31 16.6316 17.33 16.8516 17.03C17.7116 15.85 18.0916 14.41 17.9716 12.95C17.9516 12.69 17.7216 12.5 17.4716 12.5H14.4216C14.0316 12.5 13.7916 12.9 13.9716 13.24ZM11.0216 11.65C10.8316 11.97 10.3716 11.98 10.1716 11.67L8.55156 9.19C8.41156 8.97 8.46157 8.66 8.68156 8.51C9.83156 7.75 11.2016 7.42 12.5616 7.54C12.9316 7.58 13.1516 7.98 12.9616 8.3L11.0216 11.65Z" fill="black" fill-opacity="0.54"/>
</g>
</svg>
