<svg width="24" height="24" viewBox="0 0 24 24" fill="none" xmlns="http://www.w3.org/2000/svg">
<g id="style_24px">
<path id="icon/image/style_24px" fill-rule="evenodd" clip-rule="evenodd" d="M17.3323 3.73L22.2923 15.7C22.7123 16.71 22.2223 17.88 21.2023 18.3L13.8423 21.35C13.5923 21.45 13.3323 21.5 13.0723 21.5C12.2923 21.49 11.5523 21.03 11.2423 20.27L6.28231 8.3C6.17231 8.04 6.12231 7.77 6.13231 7.5C6.15231 6.73 6.61231 6.01 7.36231 5.7L14.7323 2.65C14.9923 2.54 15.2623 2.5 15.5223 2.5C16.2923 2.52 17.0223 2.98 17.3323 3.73ZM4.13231 19.96L2.79231 19.4C1.78231 18.98 1.29231 17.81 1.70231 16.79L4.13231 10.93V19.96ZM8.14231 8.5C7.59231 8.5 7.14231 8.05 7.14231 7.5C7.14231 6.95 7.59231 6.5 8.14231 6.5C8.69231 6.5 9.14231 6.95 9.14231 7.5C9.14231 8.05 8.69231 8.5 8.14231 8.5ZM8.14231 21.5C7.04231 21.5 6.14231 20.6 6.14231 19.5V13.16L9.59231 21.5H8.14231Z" fill="black" fill-opacity="0.54"/>
</g>
</svg>
