<svg width="24" height="24" viewBox="0 0 24 24" fill="none" xmlns="http://www.w3.org/2000/svg">
<g id="switch_camera_24px">
<path id="icon/image/switch_camera_24px" fill-rule="evenodd" clip-rule="evenodd" d="M16.83 5H20C21.1 5 22 5.9 22 7V19C22 20.1 21.1 21 20 21H4C2.9 21 2 20.1 2 19V7C2 5.9 2.9 5 4 5H7.17L8.4 3.65C8.78 3.24 9.32 3 9.88 3H14.12C14.68 3 15.22 3.24 15.59 3.65L16.83 5ZM15 14V16.5L18.15 13.36C18.35 13.16 18.35 12.85 18.15 12.65L15 9.5V12H9V9.5L5.85 12.64C5.65 12.84 5.65 13.15 5.85 13.35L9 16.5V14H15Z" fill="black" fill-opacity="0.54"/>
</g>
</svg>
