<svg width="24" height="24" viewBox="0 0 24 24" fill="none" xmlns="http://www.w3.org/2000/svg">
<g id="texture_24px">
<path id="icon/image/texture_24px" fill-rule="evenodd" clip-rule="evenodd" d="M11.88 3L3 11.88V14.71L14.71 3H11.88ZM19.51 3.08L3.08 19.51C3.17 19.85 3.35 20.16 3.59 20.41C3.84 20.65 4.15 20.83 4.49 20.92L20.93 4.49C20.74 3.8 20.2 3.26 19.51 3.08ZM3 5C3 3.9 3.9 3 5 3H7L3 7V5ZM19 21C19.55 21 20.05 20.78 20.41 20.41C20.78 20.05 21 19.55 21 19V17L17 21H19ZM12.12 21H9.29L21 9.29V12.12L12.12 21Z" fill="black" fill-opacity="0.54"/>
</g>
</svg>
