<svg width="24" height="24" viewBox="0 0 24 24" fill="none" xmlns="http://www.w3.org/2000/svg">
<g id="timer_10_24px">
<path id="icon/image/timer_10_24px" fill-rule="evenodd" clip-rule="evenodd" d="M13.8085 7.045C13.4688 6.645 13.0591 6.345 12.5795 6.165C12.1099 5.985 11.5704 5.895 10.9908 5.895C10.4113 5.895 9.88177 5.985 9.40216 6.165C8.92256 6.345 8.51291 6.635 8.17319 7.045C7.83347 7.455 7.57369 7.975 7.38385 8.635C7.204 9.285 7.10408 10.085 7.10408 11.025V12.945C7.10408 13.885 7.19401 14.685 7.38385 15.335C7.57369 15.995 7.83347 16.525 8.18318 16.935C8.5229 17.345 8.93256 17.645 9.41216 17.825C9.89176 18.005 10.4213 18.105 11.0008 18.105C11.5903 18.105 12.1199 18.015 12.5895 17.825C13.0691 17.645 13.4688 17.345 13.8085 16.935C14.1482 16.525 14.408 15.995 14.5878 15.335C14.7677 14.685 14.8676 13.885 14.8676 12.945V11.025C14.8676 10.085 14.7777 9.285 14.5878 8.635C14.408 7.975 14.1482 7.445 13.8085 7.045ZM0 9.395V7.715L4.74605 5.995H4.99584V17.995H2.9975V8.395L0 9.395ZM23.1307 13.625C23.4105 13.835 23.6203 14.085 23.7602 14.365C23.9101 14.645 23.98 14.985 24 15.385C24 15.775 23.9201 16.125 23.7502 16.445C23.5804 16.765 23.3505 17.045 23.0408 17.275C22.7311 17.505 22.3614 17.685 21.9317 17.815C21.5021 17.945 21.0225 18.005 20.4929 18.005C19.8934 18.005 19.3739 17.925 18.9142 17.755C18.4546 17.585 18.0749 17.365 17.7652 17.095C17.4555 16.815 17.2256 16.505 17.0658 16.165C16.9059 15.825 16.826 15.475 16.826 15.115H18.7144C18.7244 15.375 18.7843 15.605 18.8943 15.785C19.0042 15.965 19.1341 16.115 19.3039 16.225C19.4638 16.335 19.6536 16.415 19.8634 16.465C20.0733 16.525 20.2831 16.545 20.5029 16.545C21.0125 16.545 21.4022 16.455 21.6719 16.255C21.9417 16.055 22.0716 15.805 22.0716 15.485C22.0716 15.345 22.0516 15.215 22.0017 15.095C21.9517 14.975 21.8618 14.855 21.7319 14.755C21.592 14.655 21.4022 14.555 21.1624 14.465C20.9226 14.375 20.6028 14.285 20.2132 14.205C19.7535 14.105 19.3239 13.985 18.9442 13.845C18.5645 13.695 18.2348 13.525 17.965 13.315C17.6853 13.105 17.4754 12.865 17.3256 12.585C17.1757 12.315 17.0958 11.985 17.0958 11.625C17.0958 11.265 17.1657 10.935 17.3256 10.615C17.4854 10.295 17.7052 10.015 17.995 9.775C18.2848 9.535 18.6445 9.345 19.0541 9.205C19.4638 9.065 19.9334 8.995 20.443 8.995C20.9825 8.995 21.4721 9.065 21.9017 9.215C22.3314 9.365 22.6911 9.555 22.9908 9.805C23.2906 10.055 23.5204 10.345 23.6803 10.685C23.8401 11.025 23.9201 11.385 23.9201 11.775H21.9717C21.9717 11.605 21.9317 11.445 21.8718 11.285C21.8018 11.125 21.7119 10.985 21.582 10.865C21.4521 10.745 21.2923 10.645 21.1024 10.575C20.9126 10.505 20.6928 10.465 20.443 10.465C20.2032 10.465 19.9833 10.495 19.8035 10.555C19.6236 10.615 19.4738 10.695 19.3539 10.795C19.234 10.885 19.144 11.005 19.0841 11.135C19.0241 11.265 18.9942 11.405 18.9942 11.545C18.9942 11.695 19.0241 11.825 19.0741 11.935C19.1241 12.045 19.214 12.145 19.3539 12.235C19.4938 12.325 19.6736 12.405 19.9034 12.485C20.1332 12.565 20.423 12.645 20.7727 12.715C21.2723 12.825 21.7219 12.955 22.1216 13.095C22.5212 13.235 22.851 13.415 23.1307 13.625ZM12.7694 14.745C12.8493 14.325 12.8893 13.815 12.8893 13.215H12.8993V10.705C12.8993 10.105 12.8493 9.595 12.7694 9.185C12.6894 8.775 12.5595 8.445 12.3997 8.195C12.2398 7.935 12.04 7.755 11.8002 7.645C11.5704 7.535 11.3006 7.475 10.9908 7.475C10.6911 7.475 10.4213 7.535 10.1815 7.645C9.94172 7.765 9.74188 7.945 9.58201 8.195C9.41216 8.455 9.29226 8.785 9.20233 9.195C9.11241 9.605 9.07244 10.115 9.07244 10.715V13.215C9.07244 13.815 9.11241 14.325 9.20233 14.745C9.29226 15.165 9.42215 15.505 9.58201 15.765C9.74188 16.025 9.94172 16.215 10.1815 16.335C10.4213 16.455 10.7011 16.515 11.0008 16.515C11.3106 16.515 11.5903 16.455 11.8201 16.335C12.05 16.215 12.2498 16.025 12.4097 15.765C12.5695 15.505 12.6894 15.165 12.7694 14.745Z" fill="black" fill-opacity="0.54"/>
</g>
</svg>
