<svg width="24" height="24" viewBox="0 0 24 24" fill="none" xmlns="http://www.w3.org/2000/svg">
<g id="timer_off_24px">
<path id="icon/image/timer_off_24px" fill-rule="evenodd" clip-rule="evenodd" d="M10.4162 3.20876H14.4162C14.9662 3.20876 15.4162 2.75876 15.4162 2.20876C15.4162 1.65876 14.9662 1.20876 14.4162 1.20876H10.4162C9.86624 1.20876 9.41624 1.65876 9.41624 2.20876C9.41624 2.75876 9.86624 3.20876 10.4162 3.20876ZM12.4162 8.20876C11.9062 8.20876 11.4962 8.59876 11.4362 9.09876L13.4162 11.0688V9.20876C13.4162 8.65876 12.9662 8.20876 12.4162 8.20876ZM19.4162 13.2088C19.4162 9.33876 16.2862 6.20876 12.4162 6.20876C11.2962 6.20876 10.2362 6.47876 9.29624 6.94876L7.84624 5.49876C9.19624 4.68876 10.7562 4.20876 12.4162 4.20876C14.5362 4.20876 16.4862 4.94876 18.0362 6.18876L18.7862 5.43876C19.1762 5.05876 19.7962 5.04876 20.1862 5.43876L20.1962 5.44876C20.5862 5.83876 20.5762 6.46876 20.1962 6.84876L19.4462 7.59876C20.6762 9.13876 21.4162 11.0888 21.4162 13.2088C21.4162 14.8888 20.9462 16.4588 20.1462 17.7988L18.6762 16.3288C19.1462 15.3888 19.4162 14.3288 19.4162 13.2088ZM20.6062 21.0888L4.28624 4.76876C4.09941 4.5815 3.84576 4.47627 3.58124 4.47627C3.31672 4.47627 3.06307 4.5815 2.87624 4.76876C2.48624 5.15876 2.48624 5.78876 2.87624 6.17876L4.94624 8.24876C4.02624 9.62876 3.46624 11.2388 3.41624 12.9688C3.28624 18.0488 7.35624 22.2088 12.4162 22.2088C14.2562 22.2088 15.9662 21.6588 17.3962 20.7088L19.1862 22.4988C19.5762 22.8888 20.2062 22.8888 20.5962 22.4988C20.9962 22.1088 20.9962 21.4788 20.6062 21.0888ZM5.41624 13.2088C5.41624 17.0788 8.54624 20.2088 12.4162 20.2088C13.7062 20.2088 14.9062 19.8588 15.9462 19.2588L6.37624 9.68876C5.76624 10.7188 5.41624 11.9188 5.41624 13.2088Z" fill="black" fill-opacity="0.54"/>
</g>
</svg>
