<svg width="24" height="24" viewBox="0 0 24 24" fill="none" xmlns="http://www.w3.org/2000/svg">
<g id="timer_3_24px">
<path id="icon/image/timer_3_24px" fill-rule="evenodd" clip-rule="evenodd" d="M10.34 12.33C10.6 12.52 10.8 12.74 10.96 12.98C11.12 13.23 11.23 13.49 11.31 13.74C11.38 14.02 11.42 14.31 11.42 14.6C11.42 15.15 11.32 15.65 11.12 16.08C10.92 16.52 10.64 16.88 10.28 17.18C9.93004 17.48 9.51004 17.71 9.02004 17.86C8.53004 18.01 8.01004 18.09 7.44004 18.09C6.92004 18.09 6.43004 18.02 5.96004 17.88C5.49004 17.74 5.08004 17.53 4.72004 17.25C4.36004 16.97 4.07004 16.62 3.86004 16.2C3.65004 15.78 3.54004 15.3 3.54004 14.75H5.53004C5.53004 15.01 5.58004 15.25 5.67004 15.47C5.76004 15.69 5.89004 15.87 6.06004 16.03C6.23004 16.19 6.43004 16.31 6.67004 16.39C6.91004 16.48 7.18004 16.52 7.47004 16.52C8.08004 16.52 8.57004 16.36 8.92004 16.03C9.27004 15.7 9.45004 15.23 9.45004 14.61C9.45004 14.28 9.39004 13.98 9.29004 13.74C9.19004 13.49 9.04004 13.29 8.85004 13.13C8.66004 12.97 8.43004 12.86 8.16004 12.78C7.89004 12.71 7.59004 12.67 7.25004 12.67H6.07004V11.1H7.24004C7.58004 11.1 7.88004 11.06 8.13004 10.97C8.38004 10.88 8.59004 10.76 8.76004 10.6C8.93004 10.44 9.06004 10.25 9.14004 10.03C9.22004 9.81 9.26004 9.56 9.26004 9.29C9.26004 8.72 9.12004 8.28 8.82004 7.97C8.52004 7.66 8.07004 7.5 7.46004 7.5C7.19004 7.5 6.95004 7.54 6.73004 7.62C6.51004 7.7 6.32004 7.81 6.15004 7.95C5.99004 8.09 5.86004 8.27 5.77004 8.47C5.68004 8.67 5.63004 8.9 5.63004 9.16H3.65004C3.65004 8.7 3.74004 8.26 3.94004 7.87C4.12004 7.47 4.39004 7.13 4.72004 6.84C5.05004 6.55 5.45004 6.32 5.92004 6.15C6.38004 5.99 6.89004 5.91 7.44004 5.91C8.00004 5.91 8.52004 5.98 8.97004 6.11C9.44004 6.25 9.84004 6.47 10.17 6.75C10.51 7.04 10.77 7.39 10.95 7.81C11.14 8.23 11.23 8.72 11.23 9.27C11.23 9.51 11.2 9.76 11.12 10C11.05 10.25 10.93 10.48 10.78 10.71C10.63 10.94 10.44 11.15 10.21 11.35C9.98004 11.55 9.71004 11.71 9.41004 11.85C9.78004 11.98 10.09 12.14 10.34 12.33ZM19.59 13.64C19.87 13.85 20.08 14.1 20.22 14.38C20.37 14.66 20.44 15 20.46 15.4C20.46 15.79 20.38 16.14 20.21 16.46C20.04 16.78 19.81 17.06 19.5 17.29C19.19 17.52 18.82 17.7 18.39 17.83C17.96 17.96 17.48 18.02 16.95 18.02C16.35 18.02 15.83 17.94 15.37 17.77C14.91 17.6 14.53 17.38 14.22 17.11C13.91 16.83 13.68 16.52 13.52 16.18C13.36 15.84 13.28 15.49 13.28 15.13H15.17C15.18 15.39 15.24 15.62 15.35 15.8C15.46 15.98 15.59 16.13 15.76 16.24C15.92 16.35 16.11 16.43 16.32 16.48C16.53 16.54 16.74 16.56 16.96 16.56C17.47 16.56 17.86 16.47 18.13 16.27C18.4 16.07 18.53 15.82 18.53 15.5C18.53 15.36 18.51 15.23 18.46 15.11C18.41 14.99 18.32 14.87 18.19 14.77C18.05 14.67 17.86 14.57 17.62 14.48C17.38 14.39 17.06 14.3 16.67 14.22C16.21 14.12 15.78 14 15.4 13.86C15.02 13.71 14.69 13.54 14.42 13.33C14.15 13.12 13.93 12.88 13.78 12.6C13.63 12.32 13.55 12 13.55 11.64C13.55 11.28 13.62 10.95 13.78 10.63C13.94 10.31 14.16 10.03 14.45 9.79C14.74 9.55 15.1 9.36 15.51 9.22C15.92 9.08 16.39 9.01 16.9 9.01C17.44 9.01 17.93 9.08 18.36 9.23C18.79 9.38 19.15 9.57 19.45 9.82C19.75 10.07 19.98 10.36 20.14 10.7C20.3 11.04 20.38 11.4 20.38 11.79H18.43C18.43 11.62 18.39 11.46 18.33 11.3C18.26 11.14 18.17 11 18.04 10.88C17.91 10.76 17.75 10.66 17.56 10.59C17.37 10.52 17.15 10.48 16.9 10.48C16.66 10.48 16.44 10.51 16.26 10.57C16.08 10.63 15.93 10.71 15.81 10.81C15.69 10.9 15.6 11.02 15.54 11.15C15.48 11.28 15.45 11.41 15.45 11.56C15.45 11.71 15.48 11.84 15.53 11.95C15.58 12.06 15.67 12.16 15.81 12.25C15.95 12.34 16.13 12.42 16.36 12.5C16.59 12.58 16.88 12.66 17.23 12.73C17.73 12.84 18.18 12.97 18.58 13.11C18.98 13.25 19.31 13.43 19.59 13.64Z" fill="black" fill-opacity="0.54"/>
</g>
</svg>
