<svg width="24" height="24" viewBox="0 0 24 24" fill="none" xmlns="http://www.w3.org/2000/svg">
<g id="transform_24px">
<path id="icon/image/transform_24px" fill-rule="evenodd" clip-rule="evenodd" d="M8 15.005C8 15.555 8.45 16.005 9 16.005H21C21.55 16.005 22 16.455 22 17.005C22 17.555 21.55 18.005 21 18.005H18V20.005H18.8C19.24 20.005 19.47 20.545 19.15 20.855L17.36 22.645C17.16 22.845 16.85 22.845 16.65 22.645L14.86 20.855C14.54 20.545 14.76 20.005 15.21 20.005H16V18.005H8C6.9 18.005 6 17.105 6 16.005V8.005H3C2.45 8.005 2 7.555 2 7.005C2 6.455 2.45 6.005 3 6.005H6V4.005H5.21C4.76 4.005 4.54 3.465 4.85 3.155L6.64 1.355C6.84 1.155 7.15 1.155 7.35 1.355L9.14 3.155C9.46 3.465 9.24 4.005 8.79 4.005H8V15.005ZM18 14.005H16V9.005C16 8.455 15.55 8.005 15 8.005H10V6.005H16C17.1 6.005 18 6.905 18 8.005V14.005Z" fill="black" fill-opacity="0.54"/>
</g>
</svg>
