<svg width="24" height="24" viewBox="0 0 24 24" fill="none" xmlns="http://www.w3.org/2000/svg">
<g id="view_comfy_24px">
<path id="icon/image/view_comfy_24px" fill-rule="evenodd" clip-rule="evenodd" d="M4.5 5H6.5V9H2.5V7C2.5 5.9 3.4 5 4.5 5ZM6.5 10V14H2.5V10H6.5ZM7.5 14H11.5V10H7.5V14ZM16.5 14H12.5V10H16.5V14ZM7.5 9H11.5V5H7.5V9ZM12.5 9V5H16.5V9H12.5ZM17.5 10V14H21.5V10H17.5ZM6.5 19H4.5C3.4 19 2.5 18.1 2.5 17V15H6.5V19ZM7.5 19H11.5V15H7.5V19ZM16.5 19H12.5V15H16.5V19ZM17.5 19H19.5C20.6 19 21.5 18.1 21.5 17V15H17.5V19ZM17.5 9V5H19.5C20.6 5 21.5 5.9 21.5 7V9H17.5Z" fill="black" fill-opacity="0.54"/>
</g>
</svg>
