<svg width="24" height="24" viewBox="0 0 24 24" fill="none" xmlns="http://www.w3.org/2000/svg">
<g id="wb_auto_24px">
<path id="icon/image/wb_auto_24px" fill-rule="evenodd" clip-rule="evenodd" d="M22.9329 7C22.5129 7 22.1629 7.3 22.0829 7.7L21.0129 13.29L19.7029 7.78C19.5929 7.32 19.1829 7 18.7129 7C18.2429 7 17.8329 7.32 17.7329 7.78L16.4229 13.29L15.3529 7.7C15.2729 7.3 14.9129 7 14.5029 7C14.4979 7 14.4904 7.0025 14.4829 7.005C14.4754 7.0075 14.4679 7.01 14.4629 7.01C12.9929 5.18 10.7429 4 8.21289 4C3.79289 4 0.212891 7.58 0.212891 12C0.212891 16.42 3.79289 20 8.21289 20C11.3829 20 14.1129 18.15 15.4129 15.48C15.6129 15.8 15.9629 16 16.3529 16C16.8629 16 17.3029 15.65 17.4229 15.16L18.7129 9.9L20.0029 15.16C20.1229 15.65 20.5729 16 21.0729 16C21.5929 16 22.0329 15.64 22.1529 15.14L23.7629 8.06C23.8929 7.52 23.4829 7 22.9329 7ZM9.36289 12.65L8.21289 9L7.06289 12.65H9.36289ZM10.3029 15.4C10.4229 15.76 10.7629 16 11.1429 16C11.7629 16 12.1929 15.39 11.9929 14.8L9.55289 7.94C9.34289 7.38 8.81289 7 8.21289 7C7.61289 7 7.08289 7.38 6.88289 7.95L4.44289 14.81C4.23289 15.39 4.66289 16 5.28289 16C5.66289 16 5.99289 15.76 6.12289 15.4L6.61289 14H9.81289L10.3029 15.4Z" fill="black" fill-opacity="0.54"/>
</g>
</svg>
