<svg width="24" height="24" viewBox="0 0 24 24" fill="none" xmlns="http://www.w3.org/2000/svg">
<g id="wb_iridescent_24px">
<path id="icon/image/wb_iridescent_24px" fill-rule="evenodd" clip-rule="evenodd" d="M10.9962 2V3.05C10.9962 3.6 11.4462 4 11.9962 4C12.5462 4 12.9962 3.6 12.9962 3.05V2C12.9962 1.45 12.5462 1 11.9962 1C11.4462 1 10.9962 1.45 10.9962 2ZM17.9962 15C18.5462 15 18.9962 14.55 18.9962 14V10.05C18.9962 9.5 18.5462 9.05 17.9962 9.05H5.99618C5.44618 9.05 4.99618 9.5 4.99618 10.05V14C4.99618 14.55 5.44618 15 5.99618 15H17.9962ZM17.9562 4.68L18.3362 4.3C18.523 4.11275 18.7767 4.00751 19.0412 4.00751C19.3057 4.00751 19.5594 4.11275 19.7462 4.3C20.1362 4.69 20.1362 5.32 19.7462 5.71L19.3662 6.09C18.9762 6.48 18.3462 6.48 17.9562 6.09C17.5662 5.7 17.5662 5.07 17.9562 4.68ZM12.9962 22V21.04C12.9962 20.49 12.5462 20.04 11.9962 20.04C11.4462 20.04 10.9962 20.49 10.9962 21.04V22C10.9962 22.55 11.4462 23 11.9962 23C12.5462 23 12.9962 22.55 12.9962 22ZM19.3462 18L19.7362 18.39C20.1262 18.77 20.1262 19.41 19.7362 19.79L19.7262 19.8C19.3362 20.19 18.7062 20.19 18.3162 19.8L17.9362 19.41C17.5462 19.02 17.5462 18.39 17.9362 18C18.123 17.8127 18.3767 17.7075 18.6412 17.7075C18.9057 17.7075 19.1594 17.8127 19.3462 18ZM4.24618 5.71L4.63618 6.1C5.02618 6.49 5.65618 6.49 6.04618 6.1C6.43618 5.71 6.43618 5.08 6.04618 4.69L5.65618 4.3C5.46935 4.11275 5.2157 4.00751 4.95118 4.00751C4.68666 4.00751 4.43301 4.11275 4.24618 4.3C3.86618 4.69 3.86618 5.33 4.24618 5.71ZM6.04618 19.41L5.66618 19.79C5.27618 20.18 4.63618 20.18 4.25618 19.79C3.86618 19.4 3.86618 18.77 4.25618 18.38L4.63618 18C4.82301 17.8127 5.07666 17.7075 5.34118 17.7075C5.6057 17.7075 5.85935 17.8127 6.04618 18C6.43618 18.39 6.43618 19.02 6.04618 19.41Z" fill="black" fill-opacity="0.54"/>
</g>
</svg>
