<svg width="24" height="24" viewBox="0 0 24 24" fill="none" xmlns="http://www.w3.org/2000/svg">
<g id="wb_incandescent_24px">
<path id="icon/image/wb_incandescent_24px" fill-rule="evenodd" clip-rule="evenodd" d="M15.0049 2.52499V6.33499C16.7949 7.37499 18.0049 9.30499 18.0049 11.535C18.0049 15.085 14.8949 17.925 11.2549 17.485C8.63488 17.165 6.47488 15.075 6.07488 12.465C5.68488 9.85499 6.96488 7.51499 9.00488 6.33499V2.52499C9.00488 1.97499 9.45488 1.52499 10.0049 1.52499H14.0049C14.5549 1.52499 15.0049 1.97499 15.0049 2.52499ZM3.01488 10.525H1.99488C1.44488 10.525 1.00488 10.965 1.00488 11.515V11.525C1.00488 12.075 1.44488 12.515 1.99488 12.515H3.00488C3.55488 12.515 3.99488 12.075 3.99488 11.525V11.515C4.00488 10.965 3.56488 10.525 3.01488 10.525ZM5.66488 19.265C5.27488 19.655 4.64488 19.655 4.25488 19.265C3.86488 18.875 3.86488 18.255 4.24488 17.855L4.63488 17.465C4.82171 17.2777 5.07537 17.1725 5.33988 17.1725C5.6044 17.1725 5.85805 17.2777 6.04488 17.465L6.05488 17.475C6.43488 17.855 6.44488 18.485 6.05488 18.875L5.66488 19.265ZM12.0049 22.475H11.9949C11.4449 22.475 11.0049 22.035 11.0049 21.485V20.525C11.0049 19.975 11.4449 19.535 11.9949 19.535H12.0049C12.5549 19.535 12.9949 19.975 12.9949 20.525V21.485C12.9949 22.035 12.5549 22.475 12.0049 22.475ZM20.0049 11.515V11.525C20.0049 12.075 20.4449 12.515 20.9949 12.515H22.0049C22.5549 12.515 22.9949 12.075 22.9949 11.525V11.515C22.9949 10.965 22.5549 10.525 22.0049 10.525H20.9949C20.4449 10.525 20.0049 10.965 20.0049 11.515ZM18.3349 19.275L17.9449 18.885C17.5549 18.495 17.5549 17.875 17.9549 17.475C18.3349 17.095 18.9649 17.085 19.3549 17.475L19.7449 17.865C20.1349 18.255 20.1349 18.885 19.7449 19.275C19.3549 19.665 18.7249 19.665 18.3349 19.275Z" fill="black" fill-opacity="0.54"/>
</g>
</svg>
