<svg width="24" height="24" viewBox="0 0 24 24" fill="none" xmlns="http://www.w3.org/2000/svg">
<g id="wb_sunny_24px">
<path id="icon/image/wb_sunny_24px" fill-rule="evenodd" clip-rule="evenodd" d="M12.0049 1.05H12.0149C12.5649 1.05 13.0049 1.49 13.0049 2.04V3.01C13.0049 3.56 12.5649 4 12.0049 3.99H11.9949C11.4449 3.99 11.0049 3.55 11.0049 3V2.04C11.0049 1.49 11.4449 1.05 12.0049 1.05ZM6.05488 4.64L5.66488 4.25C5.27488 3.86 4.64488 3.87 4.26488 4.25L4.25488 4.26C3.86488 4.65 3.86488 5.28 4.25488 5.66L4.64488 6.05C5.03488 6.44 5.65488 6.44 6.04488 6.05L6.05488 6.04C6.44488 5.66 6.44488 5.02 6.05488 4.64ZM3.01488 11H1.99488C1.44488 11 1.00488 11.44 1.00488 11.99V12C1.00488 12.55 1.44488 12.99 1.99488 12.99H3.00488C3.56488 13 4.00488 12.56 4.00488 12.01V12C4.00488 11.44 3.56488 11 3.01488 11ZM19.7549 4.26C19.3649 3.87 18.7349 3.87 18.3449 4.25L17.9549 4.64C17.5649 5.03 17.5649 5.66 17.9549 6.04L17.9649 6.05C18.3549 6.44 18.9849 6.44 19.3649 6.05L19.7549 5.66C20.1449 5.27 20.1449 4.65 19.7549 4.26ZM18.3349 19.75L17.9449 19.36C17.5549 18.97 17.5549 18.35 17.9549 17.95C18.3349 17.57 18.9649 17.56 19.3549 17.95L19.7449 18.34C20.1349 18.73 20.1349 19.36 19.7449 19.75C19.3549 20.14 18.7249 20.14 18.3349 19.75ZM20.0049 11.99V12C20.0049 12.55 20.4449 12.99 20.9949 12.99H22.0049C22.5549 12.99 22.9949 12.55 22.9949 12V11.99C22.9949 11.44 22.5549 11 22.0049 11H20.9949C20.4449 11 20.0049 11.44 20.0049 11.99ZM6.00488 12C6.00488 8.69 8.69488 6 12.0049 6C15.3149 6 18.0049 8.69 18.0049 12C18.0049 15.31 15.3149 18 12.0049 18C8.69488 18 6.00488 15.31 6.00488 12ZM11.9949 22.95H12.0049C12.5549 22.95 12.9949 22.51 12.9949 21.96V21C12.9949 20.45 12.5549 20.01 12.0049 20.01H11.9949C11.4449 20.01 11.0049 20.45 11.0049 21V21.96C11.0049 22.51 11.4449 22.95 11.9949 22.95ZM5.66488 19.74C5.27488 20.13 4.64488 20.13 4.25488 19.74C3.86488 19.35 3.86488 18.73 4.24488 18.33L4.63488 17.94C4.82171 17.7528 5.07537 17.6475 5.33988 17.6475C5.6044 17.6475 5.85805 17.7528 6.04488 17.94L6.05488 17.95C6.43488 18.33 6.44488 18.96 6.05488 19.35L5.66488 19.74Z" fill="black" fill-opacity="0.54"/>
</g>
</svg>
