<svg width="24" height="24" viewBox="0 0 24 24" fill="none" xmlns="http://www.w3.org/2000/svg">
<g id="add_24px">
<path id="icon/alert/add_24px" fill-rule="evenodd" clip-rule="evenodd" d="M19.0013 16.75V10.75C19.0013 7.4 16.6413 4.6 13.5013 3.92V2.75C13.5013 1.92 12.8313 1.25 12.0013 1.25C11.1713 1.25 10.5013 1.92 10.5013 2.75V3.92C7.36127 4.6 5.00127 7.4 5.00127 10.75V16.75L3.71127 18.04C3.08127 18.67 3.52127 19.75 4.41127 19.75H19.5813C20.4713 19.75 20.9213 18.67 20.2913 18.04L19.0013 16.75ZM12.0013 22.75C13.1013 22.75 13.9913 21.86 13.9913 20.76H10.0113C10.0113 21.86 10.9013 22.75 12.0013 22.75ZM13.0013 12.76H15.0013C15.5513 12.76 16.0013 12.31 16.0013 11.76V11.75C16.0013 11.2 15.5513 10.75 15.0013 10.75H13.0013V8.75C13.0013 8.2 12.5513 7.75 12.0013 7.75C11.4513 7.75 11.0013 8.2 11.0013 8.75V10.75H9.00127C8.45127 10.75 8.00127 11.2 8.00127 11.75V11.76C8.00127 12.31 8.45127 12.76 9.00127 12.76H11.0013V14.76C11.0013 15.31 11.4513 15.76 12.0013 15.76C12.5513 15.76 13.0013 15.31 13.0013 14.76V12.76Z" fill="black" fill-opacity="0.54"/>
</g>
</svg>
