<svg width="24" height="24" viewBox="0 0 24 24" fill="none" xmlns="http://www.w3.org/2000/svg">
<g id="warning_24px">
<path id="icon/alert/warning_24px" fill-rule="evenodd" clip-rule="evenodd" d="M19.53 20.5038C21.07 20.5038 22.03 18.8338 21.26 17.5038L13.73 4.49378C12.96 3.16378 11.04 3.16378 10.27 4.49378L2.74 17.5038C1.97 18.8338 2.93 20.5038 4.47 20.5038H19.53ZM12 13.5038C11.45 13.5038 11 13.0538 11 12.5038V10.5038C11 9.95378 11.45 9.50378 12 9.50378C12.55 9.50378 13 9.95378 13 10.5038V12.5038C13 13.0538 12.55 13.5038 12 13.5038ZM11 15.5038V17.5038H13V15.5038H11Z" fill="black" fill-opacity="0.54"/>
</g>
</svg>
