<svg width="24" height="24" viewBox="0 0 24 24" fill="none" xmlns="http://www.w3.org/2000/svg">
<g id="attribution_24px">
<path id="icon/content/attribution_24px" fill-rule="evenodd" clip-rule="evenodd" d="M2 12C2 6.47 6.47 2 12 2C17.52 2 22 6.48 22 12C22 17.52 17.53 22 12 22C6.47 22 2 17.53 2 12ZM9.25 9.88C9.25 8.96 11.09 8.5 12 8.5C12.91 8.5 14.75 8.97 14.75 9.88V14C14.75 14.28 14.53 14.5 14.25 14.5H13.25V17.75C13.25 18.44 12.69 19 12 19C11.31 19 10.75 18.44 10.75 17.75V14.5H9.75C9.47 14.5 9.25 14.28 9.25 14V9.88ZM12 20C7.58 20 4 16.42 4 12C4 7.58 7.58 4 12 4C16.42 4 20 7.58 20 12C20 16.42 16.42 20 12 20ZM10.5 6.5C10.5 5.67157 11.1716 5 12 5C12.8284 5 13.5 5.67157 13.5 6.5C13.5 7.32843 12.8284 8 12 8C11.1716 8 10.5 7.32843 10.5 6.5Z" fill="black" fill-opacity="0.54"/>
</g>
</svg>
