<svg width="24" height="24" viewBox="0 0 24 24" fill="none" xmlns="http://www.w3.org/2000/svg">
<g id="backspace_24px">
<path id="icon/content/backspace_24px" fill-rule="evenodd" clip-rule="evenodd" d="M6.89754 3H21.8975C22.9975 3 23.8975 3.9 23.8975 5V19C23.8975 20.1 22.9975 21 21.8975 21H6.89754C6.20754 21 5.66754 20.64 5.30754 20.12L0.267539 12.56C0.0475391 12.22 0.0475391 11.79 0.267539 11.45L5.30754 3.88C5.66754 3.35 6.20754 3 6.89754 3ZM16.7875 16.3C17.1775 16.69 17.8075 16.69 18.1975 16.3C18.5775 15.91 18.5775 15.27 18.1975 14.89L15.3075 12L18.1975 9.11C18.5875 8.72 18.5875 8.09 18.1975 7.7C17.8075 7.31 17.1775 7.31 16.7875 7.7L13.8975 10.59L11.0075 7.7C10.6175 7.31 9.98754 7.31 9.59754 7.7C9.41029 7.88683 9.30505 8.14048 9.30505 8.405C9.30505 8.66952 9.41029 8.92317 9.59754 9.11L12.4875 12L9.59754 14.89C9.41029 15.0768 9.30505 15.3305 9.30505 15.595C9.30505 15.8595 9.41029 16.1132 9.59754 16.3C9.98754 16.69 10.6175 16.69 11.0075 16.3L13.8975 13.41L16.7875 16.3Z" fill="black" fill-opacity="0.54"/>
</g>
</svg>
