<svg width="24" height="24" viewBox="0 0 24 24" fill="none" xmlns="http://www.w3.org/2000/svg">
<g id="cut_24px">
<path id="icon/content/cut_24px" fill-rule="evenodd" clip-rule="evenodd" d="M13.0011 9.00016L19.5911 2.41016C20.4811 1.52016 22.0011 2.15016 22.0011 3.40016V3.41016C22.0011 3.79016 21.8511 4.15016 21.5911 4.41016L15.0011 11.0002L13.0011 9.00016ZM9.64109 7.64016C9.93109 7.02016 10.0611 6.31016 9.98109 5.55016C9.79109 3.82016 8.44109 2.35016 6.72109 2.06016C3.95109 1.58016 1.58109 3.95016 2.06109 6.71017C2.36109 8.43016 3.82109 9.78016 5.55109 9.97016C6.31109 10.0502 7.01109 9.92016 7.64109 9.63016L10.0011 12.0002L7.64109 14.3602C7.02109 14.0702 6.31109 13.9402 5.55109 14.0202C3.82109 14.2102 2.35109 15.5602 2.06109 17.2802C1.58109 20.0502 3.95109 22.4102 6.71109 21.9302C8.43109 21.6302 9.78109 20.1702 9.97109 18.4402C10.0511 17.6802 9.92109 16.9802 9.63109 16.3502L12.0011 14.0002L19.5911 21.5902C20.4811 22.4802 22.0011 21.8502 22.0011 20.5902V20.5802C22.0011 20.2102 21.8511 19.8502 21.5911 19.5802L9.64109 7.64016ZM6.00109 8.00016C4.90109 8.00016 4.00109 7.11016 4.00109 6.00016C4.00109 4.89016 4.90109 4.00016 6.00109 4.00016C7.10109 4.00016 8.00109 4.89016 8.00109 6.00016C8.00109 7.11016 7.10109 8.00016 6.00109 8.00016ZM4.00109 18.0002C4.00109 19.1102 4.90109 20.0002 6.00109 20.0002C7.10109 20.0002 8.00109 19.1102 8.00109 18.0002C8.00109 16.8902 7.10109 16.0002 6.00109 16.0002C4.90109 16.0002 4.00109 16.8902 4.00109 18.0002ZM12.0011 12.5002C11.7211 12.5002 11.5011 12.2802 11.5011 12.0002C11.5011 11.7202 11.7211 11.5002 12.0011 11.5002C12.2811 11.5002 12.5011 11.7202 12.5011 12.0002C12.5011 12.2802 12.2811 12.5002 12.0011 12.5002Z" fill="black" fill-opacity="0.54"/>
</g>
</svg>
