<svg width="24" height="24" viewBox="0 0 24 24" fill="none" xmlns="http://www.w3.org/2000/svg">
<g id="gesture_24px">
<path id="icon/content/gesture_24px" fill-rule="evenodd" clip-rule="evenodd" d="M5.35995 6.11001C4.85995 6.53001 4.11995 6.51001 3.64995 6.05001C3.13995 5.55001 3.13995 4.71001 3.66995 4.23001C4.32995 3.64001 5.27995 3.01001 6.36995 3.01001C7.23995 3.01001 8.87995 3.70001 8.87995 5.87001C8.87995 7.23001 8.35995 8.01001 7.57995 9.15001C7.12995 9.81001 6.07995 11.58 5.72995 12.67C5.36995 13.76 5.63995 14.59 6.08995 14.59C6.50216 14.59 6.91437 14.0938 7.16801 13.7884C7.17895 13.7752 7.1896 13.7624 7.19995 13.75C7.42995 13.51 8.90995 11.76 9.48995 11.03C10.2499 10.1 12.1799 8.19001 14.4299 8.19001C17.3699 8.19001 18.3099 10.74 18.4599 12.39H19.6799C20.3699 12.39 20.9299 12.95 20.9299 13.64C20.9299 14.33 20.3699 14.89 19.6799 14.89H18.4699C18.0699 19.66 15.4099 20.99 13.7799 20.99C12.0099 20.99 10.5699 19.6 10.5699 17.9C10.5699 16.2 12.1699 13.17 15.9499 12.53C15.9429 12.4797 15.9361 12.4284 15.9293 12.3765C15.8307 11.6239 15.7148 10.74 14.1899 10.74C12.9399 10.74 11.3199 12.69 10.1099 14.18L10.0973 14.1956C8.99324 15.5583 8.11587 16.6412 7.04995 16.95C6.14995 17.22 5.15995 17.05 4.40995 16.49C3.54995 15.85 3.06995 14.79 3.06995 13.51C3.06995 11.4026 5.04924 8.49892 5.72566 7.50659C5.82599 7.3594 5.89765 7.25426 5.92995 7.20001C6.22995 6.71001 6.72995 5.88001 6.22995 5.68001C6.04995 5.60001 5.72995 5.79001 5.35995 6.11001ZM13.0699 17.84C13.0699 18.3 13.4999 18.56 13.8099 18.56C14.5099 18.56 15.6399 17.77 15.9399 15.08C13.7999 15.64 13.0699 17.24 13.0699 17.84Z" fill="black" fill-opacity="0.54"/>
</g>
</svg>
