<svg width="24" height="24" viewBox="0 0 24 24" fill="none" xmlns="http://www.w3.org/2000/svg">
<g id="how_to_reg_24px">
<path id="icon/content/how_to_reg_24px" fill-rule="evenodd" clip-rule="evenodd" d="M10.6975 11.9637C12.9075 11.9637 14.6975 10.1737 14.6975 7.96375C14.6975 5.75375 12.9075 3.96375 10.6975 3.96375C8.48751 3.96375 6.69751 5.75375 6.69751 7.96375C6.69751 10.1737 8.48751 11.9637 10.6975 11.9637ZM11.6975 19.9637L10.8375 19.1037C9.65751 17.9237 9.66751 16.0037 10.8575 14.8437L11.6975 14.0237C11.3075 13.9837 11.0175 13.9637 10.6975 13.9637C8.02751 13.9637 2.69751 15.3037 2.69751 17.9637V19.9637H11.6975ZM14.4575 19.7437C14.8475 20.1337 15.4875 20.1337 15.8775 19.7437L21.0175 14.5637C21.3975 14.1837 21.3975 13.5637 21.0175 13.1737L21.0075 13.1637C20.6175 12.7737 19.9875 12.7737 19.5975 13.1637L15.1675 17.6237L13.7975 16.2537C13.4175 15.8637 12.7875 15.8637 12.3975 16.2537L12.3875 16.2637C12.0075 16.6437 12.0075 17.2637 12.3875 17.6537L14.4575 19.7437Z" fill="black" fill-opacity="0.54"/>
</g>
</svg>
