<svg width="24" height="24" viewBox="0 0 24 24" fill="none" xmlns="http://www.w3.org/2000/svg">
<g id="how_to_vote_24px">
<path id="icon/content/how_to_vote_24px" fill-rule="evenodd" clip-rule="evenodd" d="M11.34 15.0207C11.73 15.4107 12.36 15.4107 12.75 15.0207L19.11 8.66065C19.5 8.27065 19.5 7.64065 19.11 7.25065L14.16 2.30065C13.78 1.90065 13.15 1.90065 12.76 2.29065L6.39 8.66065C6 9.05065 6 9.68065 6.39 10.0707L11.34 15.0207ZM13.46 4.41065L17 7.95065L12.05 12.9007L8.51 9.36065L13.46 4.41065ZM18.29 13.2907L20.41 15.4107C20.79 15.7907 21 16.3007 21 16.8307V20.0007C21 21.1107 20.1 22.0007 19 22.0007H5C3.9 22.0007 3 21.1007 3 20.0007V16.8307C3 16.3007 3.21 15.7907 3.58 15.4107L5.7 13.2907C5.89 13.1107 6.14 13.0007 6.41 13.0007H6.83L8.83 15.0007H6.78L5 17.0007H19L17.23 15.0007H15.32L17.32 13.0007H17.59C17.85 13.0007 18.11 13.1107 18.29 13.2907Z" fill="black" fill-opacity="0.54"/>
</g>
</svg>
