<svg width="24" height="24" viewBox="0 0 24 24" fill="none" xmlns="http://www.w3.org/2000/svg">
<g id="link_off_24px">
<path id="icon/content/link_off_24px" fill-rule="evenodd" clip-rule="evenodd" d="M4.11861 3.63002C3.72861 3.24002 3.09861 3.24002 2.70861 3.63002C2.31861 4.02002 2.31861 4.65002 2.70861 5.04002L5.10861 7.44002C3.16861 8.24002 1.83861 10.21 2.01861 12.48C2.22861 15.12 4.58861 17.07 7.22861 17.07H10.0486C10.5686 17.07 10.9986 16.64 10.9986 16.12C10.9986 15.6 10.5686 15.17 10.0486 15.17H7.15861C5.52861 15.17 4.05861 13.98 3.90861 12.35C3.75861 10.63 5.01861 9.18002 6.65861 9.00002L8.75861 11.1C8.32861 11.19 7.99861 11.56 7.99861 12.02V12.12C7.99861 12.64 8.42861 13.07 8.94861 13.07H10.7286L12.9986 15.34V17.07H14.7286L18.0286 20.37C18.4186 20.76 19.0486 20.76 19.4386 20.37C19.8286 19.98 19.8286 19.35 19.4386 18.96L4.11861 3.63002ZM21.9386 11.3C21.5686 8.83002 19.3186 7.07002 16.8186 7.07002H13.9486C13.4286 7.07002 12.9986 7.50002 12.9986 8.02002C12.9986 8.54002 13.4286 8.97002 13.9486 8.97002H16.8486C18.4486 8.97002 19.8886 10.11 20.0686 11.7C20.2386 13.13 19.4286 14.39 18.2186 14.92L19.6186 16.32C21.2486 15.3 22.2586 13.41 21.9386 11.3ZM15.0486 11.07C15.5686 11.07 15.9986 11.5 15.9986 12.02V12.12C15.9986 12.28 15.9486 12.43 15.8786 12.56L14.3886 11.07H15.0486Z" fill="black" fill-opacity="0.54"/>
</g>
</svg>
