<svg width="24" height="24" viewBox="0 0 24 24" fill="none" xmlns="http://www.w3.org/2000/svg">
<g id="low_priority_24px">
<path id="icon/content/low_priority_24px" fill-rule="evenodd" clip-rule="evenodd" d="M8.69859 15.8525H8.99859V15.0625C8.99859 14.6125 9.53859 14.3925 9.84859 14.7125L11.6386 16.5025C11.8386 16.7025 11.8386 17.0125 11.6386 17.2125L9.84859 19.0025C9.53859 19.3125 8.99859 19.0925 8.99859 18.6525V17.8525H8.72859C5.42859 17.8525 2.47859 15.4925 2.05859 12.2125C1.53859 8.25254 4.63859 4.85254 8.49859 4.85254H10.9986C11.5486 4.85254 11.9986 5.30254 11.9986 5.85254C11.9986 6.40254 11.5486 6.85254 10.9986 6.85254H8.49859C5.86859 6.85254 3.75859 9.12254 4.01859 11.8025C4.24859 14.1425 6.34859 15.8525 8.69859 15.8525ZM14.9986 4.85254H20.9986C21.5486 4.85254 21.9986 5.30254 21.9986 5.85254C21.9986 6.40254 21.5486 6.85254 20.9986 6.85254H14.9986C14.4486 6.85254 13.9986 6.40254 13.9986 5.85254C13.9986 5.30254 14.4486 4.85254 14.9986 4.85254ZM14.9986 10.3525H20.9986C21.5486 10.3525 21.9986 10.8025 21.9986 11.3525C21.9986 11.9025 21.5486 12.3525 20.9986 12.3525H14.9986C14.4486 12.3525 13.9986 11.9025 13.9986 11.3525C13.9986 10.8025 14.4486 10.3525 14.9986 10.3525ZM20.9986 15.8525H14.9986C14.4486 15.8525 13.9986 16.3025 13.9986 16.8525C13.9986 17.4025 14.4486 17.8525 14.9986 17.8525H20.9986C21.5486 17.8525 21.9986 17.4025 21.9986 16.8525C21.9986 16.3025 21.5486 15.8525 20.9986 15.8525Z" fill="black" fill-opacity="0.54"/>
</g>
</svg>
