<svg width="24" height="24" viewBox="0 0 24 24" fill="none" xmlns="http://www.w3.org/2000/svg">
<g id="next_week_24px">
<path id="icon/content/next_week_24px" fill-rule="evenodd" clip-rule="evenodd" d="M20 6.5H16V4.5C16 3.95 15.78 3.45 15.41 3.09C15.05 2.72 14.55 2.5 14 2.5H10C8.9 2.5 8 3.4 8 4.5V6.5H4C2.9 6.5 2 7.4 2 8.5V19.5C2 20.6 2.9 21.5 4 21.5H20C21.1 21.5 22 20.6 22 19.5V8.5C22 7.4 21.1 6.5 20 6.5ZM10 4.5H14V6.5H10V4.5ZM10.5 16.5C10.22 16.78 10.22 17.22 10.5 17.5C10.78 17.78 11.22 17.78 11.5 17.5L14.65 14.36C14.85 14.16 14.85 13.85 14.65 13.65L11.5 10.5C11.22 10.22 10.78 10.22 10.5 10.5C10.22 10.78 10.22 11.22 10.5 11.5L13 14L10.5 16.5Z" fill="black" fill-opacity="0.54"/>
</g>
</svg>
