<svg width="24" height="24" viewBox="0 0 24 24" fill="none" xmlns="http://www.w3.org/2000/svg">
<g id="redo_24px">
<path id="icon/content/redo_24px" d="M18.4288 10.6C16.5788 8.99 14.1788 8 11.5288 8C7.36885 8 3.78885 10.42 2.08885 13.93C1.76885 14.6 2.12885 15.4 2.83885 15.64C3.42885 15.84 4.06885 15.56 4.33885 15C5.63885 12.34 8.36885 10.5 11.5288 10.5C13.4788 10.5 15.2588 11.22 16.6488 12.38L14.7388 14.29C14.1088 14.92 14.5488 16 15.4388 16H21.0288C21.5788 16 22.0288 15.55 22.0288 15V9.41C22.0288 8.52 20.9488 8.07 20.3188 8.7L18.4288 10.6Z" fill="black" fill-opacity="0.54"/>
</g>
</svg>
