<svg width="24" height="24" viewBox="0 0 24 24" fill="none" xmlns="http://www.w3.org/2000/svg">
<g id="reply_all_24px">
<path id="icon/content/reply_all_24px" fill-rule="evenodd" clip-rule="evenodd" d="M12.7912 6.20701V7.79701C19.7912 8.79701 22.7912 13.797 23.7912 18.797C21.2912 15.297 17.7912 13.697 12.7912 13.697V15.377C12.7912 16.267 11.7112 16.717 11.0812 16.087L6.49124 11.497C6.10124 11.107 6.10124 10.477 6.49124 10.087L11.0812 5.49701C11.7112 4.86701 12.7912 5.31701 12.7912 6.20701ZM4.98124 5.60701C5.65124 4.93701 6.79124 5.41701 6.79124 6.35701C6.79124 6.63701 6.68124 6.90701 6.48124 7.10701L2.79124 10.797L6.48124 14.487C6.68124 14.687 6.79124 14.957 6.79124 15.237C6.79124 16.177 5.65124 16.657 4.98124 15.977L0.50124 11.497C0.11124 11.107 0.11124 10.477 0.50124 10.087L4.98124 5.60701Z" fill="black" fill-opacity="0.54"/>
</g>
</svg>
