<svg width="24" height="24" viewBox="0 0 24 24" fill="none" xmlns="http://www.w3.org/2000/svg">
<g id="report_off_24px">
<path id="icon/content/report_off_24px" fill-rule="evenodd" clip-rule="evenodd" d="M2.70004 1.28998L1.29004 2.69998L4.93004 6.33998L3.58004 7.68998C3.40004 7.86998 3.29004 8.12998 3.29004 8.38998V15.02C3.29004 15.29 3.40004 15.54 3.58004 15.73L8.26004 20.41C8.45004 20.6 8.71004 20.71 8.97004 20.71H15.6C15.87 20.71 16.12 20.6 16.31 20.42L17.66 19.07L21.3 22.71L22.71 21.3L2.70004 1.28998ZM12.29 6.70998C12.84 6.70998 13.29 7.15998 13.29 7.70998V9.03998L20.49 16.24L21 15.73C21.19 15.54 21.29 15.29 21.29 15.02V8.38998C21.29 8.11998 21.18 7.86998 21 7.67998L16.32 2.99998C16.13 2.81998 15.87 2.70998 15.61 2.70998H8.97004C8.71004 2.70998 8.45004 2.81998 8.27004 2.99998L7.76004 3.50998L11.45 7.19998C11.62 6.90998 11.93 6.70998 12.29 6.70998ZM10.99 15.71C10.99 16.43 11.57 17.01 12.29 17.01C13.01 17.01 13.59 16.43 13.59 15.71C13.59 14.99 13.01 14.41 12.29 14.41C11.57 14.41 10.99 14.99 10.99 15.71Z" fill="black" fill-opacity="0.54"/>
</g>
</svg>
