<svg width="24" height="24" viewBox="0 0 24 24" fill="none" xmlns="http://www.w3.org/2000/svg">
<g id="report_gmailerrorred_24px">
<path id="icon/content/report_gmailerrorred_24px" fill-rule="evenodd" clip-rule="evenodd" d="M16.0346 3.3L20.7146 7.98C20.8946 8.16 21.0046 8.42 20.9946 8.68V15.32C20.9946 15.59 20.8946 15.84 20.7046 16.03L16.0246 20.71C15.8346 20.89 15.5846 21 15.3146 21H8.68464C8.42464 21 8.16464 20.89 7.97464 20.7L3.29464 16.02C3.11464 15.83 3.00464 15.58 3.00464 15.31V8.68C3.00464 8.42 3.11464 8.16 3.29464 7.98L7.98464 3.29C8.16464 3.11 8.42464 3 8.68464 3H15.3246C15.5846 3 15.8446 3.11 16.0346 3.3ZM14.9046 19L19.0046 14.9V9.1L14.9046 5H9.10464L5.00464 9.1V14.9L9.10464 19H14.9046ZM12.0046 15C11.4524 15 11.0046 15.4477 11.0046 16C11.0046 16.5523 11.4524 17 12.0046 17C12.5569 17 13.0046 16.5523 13.0046 16C13.0046 15.4477 12.5569 15 12.0046 15ZM11.0046 8C11.0046 7.45 11.4546 7 12.0046 7C12.5546 7 13.0046 7.45 13.0046 8V13C13.0046 13.55 12.5546 14 12.0046 14C11.4546 14 11.0046 13.55 11.0046 13V8Z" fill="black" fill-opacity="0.54"/>
</g>
</svg>
