<svg width="24" height="24" viewBox="0 0 24 24" fill="none" xmlns="http://www.w3.org/2000/svg">
<g id="text_format_24px">
<path id="icon/content/text_format_24px" fill-rule="evenodd" clip-rule="evenodd" d="M14.5 13.3L15.16 14.9C15.31 15.26 15.66 15.5 16.05 15.5C16.74 15.5 17.2 14.79 16.93 14.16L13.05 5.19C12.87 4.77 12.46 4.5 12 4.5C11.54 4.5 11.13 4.77 10.95 5.19L7.07 14.16C6.8 14.79 7.27 15.5 7.96 15.5C8.35 15.5 8.7 15.26 8.85 14.9L9.5 13.3H14.5ZM5 18.5C5 19.05 5.45 19.5 6 19.5H18C18.55 19.5 19 19.05 19 18.5C19 17.95 18.55 17.5 18 17.5H6C5.45 17.5 5 17.95 5 18.5ZM13.87 11.5L12 6.48L10.13 11.5H13.87Z" fill="black" fill-opacity="0.54"/>
</g>
</svg>
