<svg width="24" height="24" viewBox="0 0 24 24" fill="none" xmlns="http://www.w3.org/2000/svg">
<g id="undo_24px">
<path id="icon/content/undo_24px" d="M12.4661 8C9.81606 8 7.41606 8.99 5.56606 10.6L3.67606 8.71C3.04606 8.08 1.96606 8.52 1.96606 9.41V15C1.96606 15.55 2.41606 16 2.96606 16H8.55606C9.44606 16 9.89606 14.92 9.26606 14.29L7.35606 12.38C8.74606 11.22 10.5161 10.5 12.4761 10.5C15.6361 10.5 18.3661 12.34 19.6661 15C19.9361 15.56 20.5761 15.84 21.1661 15.64C21.8761 15.41 22.2361 14.6 21.9161 13.92C20.1961 10.42 16.6161 8 12.4661 8Z" fill="black" fill-opacity="0.54"/>
</g>
</svg>
