<svg width="24" height="24" viewBox="0 0 24 24" fill="none" xmlns="http://www.w3.org/2000/svg">
<g id="waves_24px">
<path id="icon/content/waves_24px" fill-rule="evenodd" clip-rule="evenodd" d="M19.95 4.45997C19.2 4.07997 18.37 3.65997 17 3.65997C15.63 3.65997 14.8 4.07997 14.05 4.45997L13.9703 4.49927C13.3558 4.80255 12.8342 5.05997 12 5.05997C11.1 5.05997 10.6 4.80997 9.95 4.45997L9.87173 4.4213C9.14248 4.06068 8.33216 3.65997 7 3.65997C5.62883 3.65997 4.81051 4.07462 4.0644 4.45268L4.05 4.45997C3.62 4.67997 3.24 4.86997 2.78 4.97997C2.33 5.07997 2 5.43997 2 5.88997V5.95997C2 6.55997 2.54 6.99997 3.12 6.87997C3.80872 6.74223 4.33722 6.48643 4.82165 6.25196L4.95 6.18997L4.9755 6.17702C5.6137 5.85294 6.13154 5.58997 7 5.58997C7.88 5.58997 8.4 5.83997 9.05 6.18997L9.0644 6.19727C9.81051 6.57533 10.6288 6.98997 12 6.98997C13.3322 6.98997 14.1425 6.58927 14.8717 6.22865L14.95 6.18997L15.0297 6.15068C15.6442 5.8474 16.1658 5.58997 17 5.58997C17.9 5.58997 18.4 5.83997 19.05 6.18997L19.1137 6.22183C19.6159 6.47333 20.1605 6.74607 20.88 6.88997C21.46 6.99997 22 6.55997 22 5.96997V5.87997C22 5.41997 21.66 5.05997 21.21 4.95997C20.75 4.85997 20.38 4.67997 19.95 4.45997ZM14.0849 13.3227C14.8264 12.9568 15.6709 12.54 17 12.54C18.35 12.54 19.2 12.96 19.95 13.34C20.38 13.57 20.75 13.76 21.21 13.86C21.66 13.96 22 14.32 22 14.78V14.87C22 15.46 21.46 15.9 20.88 15.79C20.1605 15.6461 19.6159 15.3733 19.1137 15.1218L19.05 15.09C18.4 14.74 17.9 14.49 17 14.49C16.1 14.49 15.6 14.74 14.95 15.09L14.8717 15.1286C14.1425 15.4893 13.3322 15.89 12 15.89C10.6288 15.89 9.81051 15.4753 9.0644 15.0973L9.05 15.09C8.4 14.74 7.9 14.49 7 14.49C6.1 14.49 5.6 14.74 4.95 15.09L4.82165 15.152C4.33722 15.3864 3.80872 15.6422 3.12 15.78C2.54 15.9 2 15.46 2 14.87V14.77C2 14.32 2.33 13.96 2.77 13.86C3.19394 13.7608 3.54466 13.5883 3.9249 13.4013L4.05 13.34L4.12827 13.3013C4.85752 12.9407 5.66784 12.54 7 12.54C8.37117 12.54 9.18949 12.9546 9.9356 13.3327L9.95 13.34C10.6 13.69 11.1 13.94 12 13.94C12.8342 13.94 13.3558 13.6825 13.9703 13.3793L14.05 13.34L14.0849 13.3227ZM14.05 17.79C14.8 17.41 15.65 16.99 17 16.99C18.35 16.99 19.2 17.41 19.95 17.8C20.38 18.03 20.75 18.22 21.21 18.32C21.66 18.42 22 18.78 22 19.24V19.33C22 19.91 21.46 20.35 20.88 20.24C20.1605 20.0961 19.6159 19.8233 19.1137 19.5718L19.05 19.54C18.4 19.19 17.9 18.94 17 18.94C16.1318 18.94 15.6022 19.2089 14.9541 19.5379L14.95 19.54L14.9356 19.5473C14.1895 19.9253 13.3712 20.34 12 20.34C10.6288 20.34 9.81051 19.9253 9.0644 19.5473L9.05 19.54C8.4 19.19 7.88 18.94 7 18.94C6.13154 18.94 5.6137 19.2029 4.9755 19.527L4.95 19.54C4.44 19.8 3.88 20.08 3.14 20.23C2.56 20.35 2 19.92 2 19.32V19.22C2 18.77 2.33 18.41 2.78 18.31C3.24 18.2 3.62 18.01 4.05 17.79L4.0644 17.7827C4.81051 17.4046 5.62883 16.99 7 16.99C8.37117 16.99 9.18949 17.4046 9.9356 17.7827L9.95 17.79C10.6 18.14 11.1 18.39 12 18.39C12.8682 18.39 13.3978 18.1211 14.0459 17.792L14.05 17.79ZM14.0849 8.87274C14.8264 8.50676 15.6709 8.08997 17 8.08997C18.35 8.08997 19.2 8.50997 19.95 8.89997C20.38 9.12997 20.75 9.31997 21.21 9.41997C21.66 9.51997 22 9.87997 22 10.34V10.43C22 11.01 21.46 11.45 20.88 11.34C20.1605 11.1961 19.6159 10.9233 19.1137 10.6718C19.0924 10.6612 19.0711 10.6505 19.05 10.64C18.4 10.29 17.9 10.04 17 10.04C16.1658 10.04 15.6442 10.2974 15.0297 10.6007C15.0033 10.6137 14.9768 10.6268 14.95 10.64C14.924 10.6528 14.8979 10.6657 14.8717 10.6786C14.1425 11.0393 13.3322 11.44 12 11.44C10.6288 11.44 9.81051 11.0253 9.0644 10.6473L9.05 10.64C8.4 10.29 7.87 10.04 7 10.04C6.16581 10.04 5.64421 10.2974 5.02969 10.6007C5.00331 10.6137 4.97675 10.6268 4.95 10.64C4.90751 10.6604 4.86476 10.6811 4.82165 10.702C4.33722 10.9364 3.80872 11.1922 3.12 11.33C2.54 11.45 2 11.01 2 10.42V10.33C2 9.86997 2.34 9.50997 2.79 9.40997C3.25 9.30997 3.62 9.11997 4.05 8.88997C4.076 8.87715 4.10208 8.86425 4.12826 8.8513C4.85752 8.49068 5.66783 8.08997 7 8.08997C8.37117 8.08997 9.18949 8.50462 9.9356 8.88268L9.95 8.88997C10.6 9.23997 11.1 9.48997 12 9.48997C12.9 9.48997 13.4 9.23997 14.05 8.88997L14.0849 8.87274Z" fill="black" fill-opacity="0.54"/>
</g>
</svg>
