<svg width="24" height="24" viewBox="0 0 24 24" fill="none" xmlns="http://www.w3.org/2000/svg">
<g id="where_to_vote_24px">
<path id="icon/content/where_to_vote_24px" fill-rule="evenodd" clip-rule="evenodd" d="M5 9.26501C5 5.40501 8.14 2.26501 12 2.26501C15.86 2.26501 19 5.40501 19 9.26501C19 13.435 14.58 19.185 12.76 21.375C12.36 21.855 11.63 21.855 11.23 21.375C9.42 19.185 5 13.435 5 9.26501ZM11.18 13.555L16.31 8.42501C16.7 8.03502 16.7 7.40501 16.32 7.00501C15.93 6.61502 15.29 6.61502 14.9 7.00501L10.48 11.425L9.12 10.065C8.73 9.67501 8.09 9.67501 7.7 10.065C7.31 10.455 7.31 11.095 7.7 11.485L9.77 13.555C10.16 13.945 10.79 13.945 11.18 13.555Z" fill="black" fill-opacity="0.54"/>
</g>
</svg>
