<svg width="24" height="24" viewBox="0 0 24 24" fill="none" xmlns="http://www.w3.org/2000/svg">
<g id="arrow_downward_24px">
<path id="icon/navigation/arrow_downward_24px" d="M11.0051 5.20874V16.3787L6.1251 11.4987C5.7351 11.1087 5.0951 11.1087 4.7051 11.4987C4.3151 11.8887 4.3151 12.5187 4.7051 12.9087L11.2951 19.4987C11.6851 19.8887 12.3151 19.8887 12.7051 19.4987L19.2951 12.9087C19.6851 12.5187 19.6851 11.8887 19.2951 11.4987C19.1083 11.3115 18.8546 11.2063 18.5901 11.2063C18.3256 11.2063 18.0719 11.3115 17.8851 11.4987L13.0051 16.3787V5.20874C13.0051 4.65874 12.5551 4.20874 12.0051 4.20874C11.4551 4.20874 11.0051 4.65874 11.0051 5.20874Z" fill="black" fill-opacity="0.54"/>
</g>
</svg>
