<svg width="24" height="24" viewBox="0 0 24 24" fill="none" xmlns="http://www.w3.org/2000/svg">
<g id="first_page_24px">
<path id="icon/navigation/first_page_24px" fill-rule="evenodd" clip-rule="evenodd" d="M7.99878 7C7.99878 6.45 7.54878 6 6.99878 6C6.44878 6 5.99878 6.45 5.99878 7V17C5.99878 17.55 6.44878 18 6.99878 18C7.54878 18 7.99878 17.55 7.99878 17V7ZM13.8188 12L17.6988 15.89C18.0888 16.27 18.0888 16.91 17.7088 17.29C17.3188 17.68 16.6888 17.68 16.2988 17.29L11.7088 12.7C11.3188 12.31 11.3188 11.68 11.7088 11.29L16.2988 6.7C16.4856 6.51275 16.7393 6.40751 17.0038 6.40751C17.2683 6.40751 17.5219 6.51275 17.7088 6.7C18.0988 7.09 18.0988 7.72 17.7088 8.11L13.8188 12Z" fill="black" fill-opacity="0.54"/>
</g>
</svg>
