<svg width="24" height="24" viewBox="0 0 24 24" fill="none" xmlns="http://www.w3.org/2000/svg">
<g id="last_page_24px">
<path id="icon/navigation/last_page_24px" fill-rule="evenodd" clip-rule="evenodd" d="M18.0013 7C18.0013 6.45 17.5513 6 17.0013 6C16.4513 6 16.0013 6.45 16.0013 7V17C16.0013 17.55 16.4513 18 17.0013 18C17.5513 18 18.0013 17.55 18.0013 17V7ZM10.1813 12L6.29128 8.11C5.91128 7.73 5.91128 7.09 6.29128 6.7C6.47811 6.51275 6.73176 6.40751 6.99628 6.40751C7.2608 6.40751 7.51445 6.51275 7.70128 6.7L12.2913 11.3C12.6813 11.69 12.6813 12.32 12.2913 12.71L7.70128 17.3C7.31128 17.69 6.68128 17.69 6.29128 17.3C5.90128 16.91 5.90128 16.28 6.29128 15.89L10.1813 12Z" fill="black" fill-opacity="0.54"/>
</g>
</svg>
