<svg width="24" height="24" viewBox="0 0 24 24" fill="none" xmlns="http://www.w3.org/2000/svg">
<g id="refresh_24px">
<path id="icon/navigation/refresh_24px" d="M17.6417 6.35146C16.0117 4.72146 13.7017 3.78146 11.1617 4.04146C7.49172 4.41146 4.47172 7.39146 4.06172 11.0615C3.51172 15.9115 7.26172 20.0015 11.9917 20.0015C15.1817 20.0015 17.9217 18.1315 19.2017 15.4415C19.5217 14.7715 19.0417 14.0015 18.3017 14.0015C17.9317 14.0015 17.5817 14.2015 17.4217 14.5315C16.2917 16.9615 13.5817 18.5015 10.6217 17.8415C8.40172 17.3515 6.61172 15.5415 6.14172 13.3215C5.30172 9.44146 8.25172 6.00146 11.9917 6.00146C13.6517 6.00146 15.1317 6.69146 16.2117 7.78146L14.7017 9.29146C14.0717 9.92146 14.5117 11.0015 15.4017 11.0015H18.9917C19.5417 11.0015 19.9917 10.5515 19.9917 10.0015V6.41146C19.9917 5.52146 18.9117 5.07146 18.2817 5.70146L17.6417 6.35146Z" fill="black" fill-opacity="0.54"/>
</g>
</svg>
