<svg width="24" height="24" viewBox="0 0 24 24" fill="none" xmlns="http://www.w3.org/2000/svg">
<g id="unfold_less_24px">
<path id="icon/navigation/unfold_less_24px" fill-rule="evenodd" clip-rule="evenodd" d="M15.1749 4.40753C15.4394 4.40753 15.6931 4.51276 15.8799 4.70002C16.2699 5.09002 16.2699 5.73002 15.8699 6.12002L12.6999 9.29002C12.3099 9.68002 11.6799 9.68002 11.2899 9.29002L8.11989 6.12002C7.72989 5.73002 7.72989 5.09002 8.11989 4.70002C8.30672 4.51276 8.56037 4.40753 8.82489 4.40753C9.08941 4.40753 9.34306 4.51276 9.52989 4.70002L11.9999 7.17002L14.4699 4.70002C14.6567 4.51276 14.9104 4.40753 15.1749 4.40753ZM11.9999 16.83L9.52989 19.3C9.13989 19.69 8.50989 19.69 8.11989 19.3C7.72989 18.91 7.72989 18.27 8.12989 17.89L11.2999 14.72C11.4867 14.5328 11.7404 14.4275 12.0049 14.4275C12.2694 14.4275 12.5231 14.5328 12.7099 14.72L15.8799 17.89C16.2699 18.28 16.2699 18.91 15.8799 19.3C15.4899 19.69 14.8599 19.69 14.4699 19.3L11.9999 16.83Z" fill="black" fill-opacity="0.54"/>
</g>
</svg>
