<svg width="24" height="24" viewBox="0 0 24 24" fill="none" xmlns="http://www.w3.org/2000/svg">
<g id="unfold_more_24px">
<path id="icon/navigation/unfold_more_24px" fill-rule="evenodd" clip-rule="evenodd" d="M14.4599 8.29002L11.9999 5.83002L9.52989 8.29002C9.13989 8.68002 8.50989 8.68002 8.11989 8.29002C7.72989 7.90002 7.72989 7.27002 8.11989 6.88002L11.2899 3.70002C11.4767 3.51276 11.7304 3.40753 11.9949 3.40753C12.2594 3.40753 12.5131 3.51276 12.6999 3.70002L15.8699 6.88002C16.2599 7.27002 16.2599 7.90002 15.8699 8.29002C15.4799 8.68002 14.8499 8.68002 14.4599 8.29002ZM9.53989 15.71L11.9999 18.17L14.4699 15.72C14.6567 15.5328 14.9104 15.4275 15.1749 15.4275C15.4394 15.4275 15.6931 15.5328 15.8799 15.72C16.2699 16.11 16.2699 16.74 15.8799 17.13L12.7099 20.3C12.3199 20.69 11.6899 20.69 11.2999 20.3L8.12989 17.12C7.73989 16.73 7.73989 16.1 8.12989 15.71C8.31672 15.5228 8.57037 15.4175 8.83489 15.4175C9.09941 15.4175 9.35306 15.5228 9.53989 15.71Z" fill="black" fill-opacity="0.54"/>
</g>
</svg>
