<svg width="24" height="24" viewBox="0 0 24 24" fill="none" xmlns="http://www.w3.org/2000/svg">
<path d="M17.2525 16H6.67246C4.58246 16 2.72246 14.47 2.52246 12.39C2.29246 10.01 4.16246 8 6.50246 8H18.8625C20.1725 8 21.3625 8.94 21.4925 10.24C21.6425 11.74 20.4725 13 19.0025 13H8.50246C7.95246 13 7.50246 12.55 7.50246 12C7.50246 11.45 7.95246 11 8.50246 11H17.2525C17.6625 11 18.0025 10.66 18.0025 10.25C18.0025 9.84 17.6625 9.5 17.2525 9.5H8.64246C7.33246 9.5 6.14246 10.44 6.01246 11.74C5.86246 13.24 7.03246 14.5 8.50246 14.5H18.8325C20.9225 14.5 22.7825 12.97 22.9825 10.89C23.2125 8.5 21.3425 6.5 19.0025 6.5H6.73246C3.86246 6.5 1.29246 8.6 1.02246 11.46C0.722464 14.75 3.28246 17.5 6.50246 17.5H17.2525C17.6625 17.5 18.0025 17.16 18.0025 16.75C18.0025 16.34 17.6625 16 17.2525 16Z" fill="black" fill-opacity="0.54"/>
</svg>
