<svg width="24" height="24" viewBox="0 0 24 24" fill="none" xmlns="http://www.w3.org/2000/svg">
<path fill-rule="evenodd" clip-rule="evenodd" d="M23.9988 14.2087C23.9988 11.5687 21.9488 9.42874 19.3488 9.24874C18.6688 5.79874 15.6388 3.20874 11.9988 3.20874C10.6688 3.20874 9.42876 3.56874 8.34876 4.17874L9.83876 5.66874C10.5088 5.37874 11.2288 5.20874 11.9988 5.20874C15.0388 5.20874 17.4988 7.66874 17.4988 10.7087V11.2087H18.9988C20.6588 11.2087 21.9988 12.5487 21.9988 14.2087C21.9988 15.1987 21.5188 16.0587 20.7888 16.6087L22.1988 18.0187C23.2888 17.0987 23.9988 15.7487 23.9988 14.2087ZM3.70876 3.76874C3.31876 4.15874 3.31876 4.78874 3.70876 5.17874L5.76876 7.23874H5.34876C2.06876 7.58874 -0.411237 10.5787 0.058763 14.0287C0.458763 17.0487 3.18876 19.2087 6.21876 19.2087H17.7288L19.0188 20.4987C19.4088 20.8887 20.0388 20.8887 20.4288 20.4987C20.8188 20.1087 20.8188 19.4787 20.4288 19.0887L5.11876 3.76874C4.93193 3.58149 4.67828 3.47625 4.41376 3.47625C4.14925 3.47625 3.89559 3.58149 3.70876 3.76874ZM1.99876 13.2087C1.99876 15.4187 3.78876 17.2087 5.99876 17.2087H15.7288L7.72876 9.20874H5.99876C3.78876 9.20874 1.99876 10.9987 1.99876 13.2087Z" fill="black" fill-opacity="0.54"/>
</svg>
