<svg width="48" height="48" viewBox="0 0 48 48" fill="none" xmlns="http://www.w3.org/2000/svg">
<g clip-path="url(#clip0_15726_19200)">
<path d="M24 4L24.234 4.014C24.6804 4.06665 25.0961 4.26816 25.414 4.58602C25.7318 4.90389 25.9334 5.31957 25.986 5.766L26 6V14L26.01 14.3C26.0816 15.2523 26.4915 16.1477 27.1657 16.8241C27.8399 17.5005 28.7339 17.9133 29.686 17.988L30 18H38L38.234 18.014C38.6804 18.0666 39.0961 18.2682 39.414 18.586C39.7318 18.9039 39.9334 19.3196 39.986 19.766L40 20V38C40.0001 39.5304 39.4153 41.003 38.3654 42.1165C37.3155 43.23 35.8798 43.9002 34.352 43.99L34 44H14C12.4696 44.0001 10.997 43.4153 9.88348 42.3654C8.76999 41.3155 8.09978 39.8798 8.01 38.352L8 38V10C7.99991 8.46958 8.58465 6.99697 9.63457 5.88348C10.6845 4.76999 12.1202 4.09978 13.648 4.01L14 4H24ZM21.022 22.28C20.6215 22.0416 20.1503 21.9506 19.6899 22.0227C19.2294 22.0947 18.8086 22.3253 18.5001 22.6746C18.1915 23.024 18.0147 23.4701 18.0001 23.9359C17.9855 24.4017 18.134 24.858 18.42 25.226L18.586 25.414L21.17 28L18.586 30.586L18.42 30.774C18.1217 31.1588 17.974 31.6393 18.0047 32.1252C18.0354 32.6111 18.2422 33.0692 18.5865 33.4135C18.9308 33.7578 19.3889 33.9646 19.8748 33.9953C20.3607 34.0259 20.8412 33.8783 21.226 33.58L21.414 33.414L24 30.83L26.586 33.414L26.774 33.58C27.1588 33.8783 27.6393 34.0259 28.1252 33.9953C28.6111 33.9646 29.0692 33.7578 29.4135 33.4135C29.7578 33.0692 29.9646 32.6111 29.9953 32.1252C30.0259 31.6393 29.8783 31.1588 29.58 30.774L29.414 30.586L26.83 28L29.414 25.414L29.58 25.226C29.8783 24.8412 30.0259 24.3607 29.9953 23.8748C29.9646 23.3889 29.7578 22.9308 29.4135 22.5865C29.0692 22.2422 28.6111 22.0354 28.1252 22.0047C27.6393 21.9741 27.1588 22.1217 26.774 22.42L26.586 22.586L24 25.17L21.414 22.586L21.226 22.42L21.022 22.28Z" fill="#B0BCC8"/>
<path d="M38.002 13.9981H30.002L30 5.99609L38.002 13.9981Z" fill="#B0BCC8"/>
</g>
<defs>
<clipPath id="clip0_15726_19200">
<rect width="48" height="48" fill="white"/>
</clipPath>
</defs>
</svg>
