<svg width="24" height="24" viewBox="0 0 24 24" fill="none" xmlns="http://www.w3.org/2000/svg">
<path d="M19 8H5C3.34 8 2 9.34 2 11V15C2 16.1 2.9 17 4 17H6V19C6 20.1 6.9 21 8 21H16C17.1 21 18 20.1 18 19V17H20C21.1 17 22 16.1 22 15V11C22 9.34 20.66 8 19 8ZM15 19H9C8.45 19 8 18.55 8 18V14H16V18C16 18.55 15.55 19 15 19ZM19 12C18.45 12 18 11.55 18 11C18 10.45 18.45 10 19 10C19.55 10 20 10.45 20 11C20 11.55 19.55 12 19 12ZM17 3H7C6.45 3 6 3.45 6 4V6C6 6.55 6.45 7 7 7H17C17.55 7 18 6.55 18 6V4C18 3.45 17.55 3 17 3Z" fill="#757575"/>
</svg>
