<svg width="24" height="24" viewBox="0 0 24 24" fill="none" xmlns="http://www.w3.org/2000/svg">
<g id="adb_24px">
<path id="icon/notification/adb_24px" fill-rule="evenodd" clip-rule="evenodd" d="M18.22 2.04997L16.12 4.14997C17.86 5.41997 19 7.45997 19 9.77997V10.78H5V9.77997C5 7.45997 6.14 5.41997 7.88 4.14997L5.78 2.04997L6.6 1.21997L8.91 3.52997C9.84 3.05997 10.88 2.77997 12 2.77997C13.12 2.77997 14.16 3.05997 15.1 3.52997L17.4 1.21997L18.22 2.04997ZM12 22.78C8.13 22.78 5 19.65 5 15.78V11.78H19V15.78C19 19.65 15.87 22.78 12 22.78ZM9 8.77997C8.45 8.77997 8 8.32997 8 7.77997C8 7.22997 8.45 6.77997 9 6.77997C9.55 6.77997 10 7.22997 10 7.77997C10 8.32997 9.55 8.77997 9 8.77997ZM14 7.77997C14 8.32997 14.45 8.77997 15 8.77997C15.55 8.77997 16 8.32997 16 7.77997C16 7.22997 15.55 6.77997 15 6.77997C14.45 6.77997 14 7.22997 14 7.77997Z" fill="black" fill-opacity="0.54"/>
</g>
</svg>
