<svg width="24" height="24" viewBox="0 0 24 24" fill="none" xmlns="http://www.w3.org/2000/svg">
<g id="airline_seat_legroom_reduced_24px">
<path id="icon/notification/airline_seat_legroom_reduced_24px" fill-rule="evenodd" clip-rule="evenodd" d="M5.50122 4V12C5.50122 13.66 6.84122 15 8.50122 15H11.5012C12.0512 15 12.5012 15.45 12.5012 16C12.5012 16.55 12.0512 17 11.5012 17H8.50122C5.74122 17 3.50122 14.76 3.50122 12V4C3.50122 3.45 3.95122 3 4.50122 3C5.05122 3 5.50122 3.45 5.50122 4ZM19.0012 21C19.9212 21 20.6512 20.16 20.4712 19.2C20.3312 18.49 19.6712 18 18.9412 18H17.5012L19.5012 11C19.5012 9.9 18.6012 9 17.5012 9H12.5012V3H6.50122V11C6.50122 12.65 7.85122 14 9.50122 14H15.5012L14.3712 18.51C14.0512 19.78 15.0112 21 16.3112 21H19.0012Z" fill="black" fill-opacity="0.54"/>
</g>
</svg>
