<svg width="24" height="24" viewBox="0 0 24 24" fill="none" xmlns="http://www.w3.org/2000/svg">
<g id="airline_seat_recline_normal_24px">
<path id="icon/notification/airline_seat_recline_normal_24px" fill-rule="evenodd" clip-rule="evenodd" d="M7.79996 5.87624C7.01996 5.09624 7.01996 3.82624 7.79996 3.04624C8.57996 2.26624 9.84996 2.26624 10.63 3.04624C11.41 3.82624 11.41 5.09624 10.63 5.87624C9.83996 6.66624 8.57996 6.66624 7.79996 5.87624ZM6.20996 16.4662V8.46624C6.20996 7.91624 5.75996 7.46624 5.20996 7.46624C4.65996 7.46624 4.20996 7.91624 4.20996 8.46624V16.4662C4.20996 19.2262 6.44996 21.4662 9.20996 21.4662H14.21C14.76 21.4662 15.21 21.0162 15.21 20.4662C15.21 19.9162 14.76 19.4662 14.21 19.4662H9.20996C7.54996 19.4662 6.20996 18.1262 6.20996 16.4662ZM15.72 16.0462L19.49 19.8162C19.89 20.2162 19.89 20.8562 19.49 21.2462C19.1 21.6362 18.45 21.6362 18.06 21.2462L15.28 18.4662H10.21C8.54996 18.4662 7.20996 17.1262 7.20996 15.4662V9.71624C7.20996 8.47624 8.21996 7.46624 9.45996 7.46624H9.48996C9.82996 7.46624 10.16 7.55624 10.45 7.69624C10.71 7.81624 10.95 7.98624 11.14 8.19624L12.54 9.74624C13.41 10.7062 14.87 11.4762 16.29 11.7162C16.82 11.8062 17.21 12.2362 17.21 12.7662C17.21 13.4462 16.58 13.9462 15.91 13.8062C14.37 13.4862 12.8 12.6762 11.71 11.7862V15.4662H14.31C14.84 15.4662 15.35 15.6762 15.72 16.0462Z" fill="black" fill-opacity="0.54"/>
</g>
</svg>
