<svg width="24" height="24" viewBox="0 0 24 24" fill="none" xmlns="http://www.w3.org/2000/svg">
<g id="airline_seat_legroom_normal_24px">
<path id="icon/notification/airline_seat_legroom_normal_24px" fill-rule="evenodd" clip-rule="evenodd" d="M4.5 4V12C4.5 13.66 5.84 15 7.5 15H12.5C13.05 15 13.5 15.45 13.5 16C13.5 16.55 13.05 17 12.5 17H7.5C4.74 17 2.5 14.76 2.5 12V4C2.5 3.45 2.95 3 3.5 3C4.05 3 4.5 3.45 4.5 4ZM18.5 18H20C20.83 18 21.5 18.67 21.5 19.5C21.5 20.33 20.83 21 20 21H17.5C16.4 21 15.5 20.1 15.5 19V14H8.5C6.85 14 5.5 12.65 5.5 11V3H11.5V9H16.5C17.6 9 18.5 9.9 18.5 11V18Z" fill="black" fill-opacity="0.54"/>
</g>
</svg>
