<svg width="24" height="24" viewBox="0 0 24 24" fill="none" xmlns="http://www.w3.org/2000/svg">
<g id="airline_seat_flat_angled_24px">
<path id="icon/notification/airline_seat_flat_angled_24px" fill-rule="evenodd" clip-rule="evenodd" d="M8.56854 6.44902C9.27854 7.93902 8.64854 9.72902 7.15854 10.449C5.65854 11.169 3.86854 10.539 3.15854 9.04902C2.43854 7.54902 3.06854 5.75902 4.55854 5.04902C6.05854 4.32902 7.84854 4.95902 8.56854 6.44902ZM22.1085 14.539L21.4185 16.429L9.05854 11.959L10.4485 8.16902C10.8285 7.13902 11.9685 6.60902 13.0085 6.97902L19.6985 9.38902C21.7985 10.149 22.8785 12.449 22.1085 14.539ZM2.30854 12.729L7.85854 14.729V18.249C7.85854 18.799 8.30854 19.249 8.85854 19.249H14.8585C15.4085 19.249 15.8585 18.799 15.8585 18.249V17.619L19.4385 18.909C19.9585 19.099 20.5385 18.829 20.7285 18.309C20.9185 17.789 20.6485 17.209 20.1285 17.019L2.98854 10.839C2.46854 10.649 1.88854 10.919 1.69854 11.439C1.51854 11.959 1.78854 12.539 2.30854 12.729Z" fill="black" fill-opacity="0.54"/>
</g>
</svg>
