<svg width="24" height="24" viewBox="0 0 24 24" fill="none" xmlns="http://www.w3.org/2000/svg">
<g id="airline_seat_recline_extra_24px">
<path id="icon/notification/airline_seat_recline_extra_24px" fill-rule="evenodd" clip-rule="evenodd" d="M5.50533 6.13968C4.60533 5.49968 4.38533 4.25968 5.01533 3.34968C5.64533 2.44968 6.89533 2.22968 7.80533 2.85968C8.70533 3.49968 8.92533 4.73968 8.29533 5.64968C7.65533 6.54968 6.41533 6.76968 5.50533 6.13968ZM16.1553 20.4997C16.1553 19.9497 15.7053 19.4997 15.1553 19.4997H9.08533C7.60533 19.4997 6.34533 18.4197 6.12533 16.9597L4.31533 8.27968C4.22533 7.82968 3.82533 7.49968 3.35533 7.49968C2.73533 7.49968 2.27533 8.06968 2.39533 8.67968L4.14533 17.2597C4.52533 19.6997 6.62533 21.4997 9.09533 21.4997H15.1553C15.7053 21.4997 16.1553 21.0497 16.1553 20.4997ZM11.5053 15.4997H15.6953C16.1453 15.4997 16.5753 15.6497 16.9253 15.9197L21.2153 19.2697C21.7153 19.6597 21.7653 20.3897 21.3153 20.8397C20.9453 21.2097 20.3453 21.2497 19.9253 20.9197L16.8353 18.4997H9.98533C8.54533 18.4997 7.31533 17.4797 7.03533 16.0597L5.68533 10.1397C5.47533 8.91968 6.29533 7.74968 7.52533 7.52968H7.54533C7.87533 7.46968 8.21533 7.49968 8.53533 7.58968C8.80534 7.66968 9.06533 7.78968 9.29533 7.96968L10.9353 9.23968C11.9153 10.0097 13.2353 10.5297 14.5453 10.5697C15.1353 10.5897 15.6253 11.0397 15.6253 11.6297C15.6253 12.2097 15.1553 12.7097 14.5753 12.6997C13.1053 12.6797 11.7553 12.1197 10.4753 11.3997L11.5053 15.4997Z" fill="black" fill-opacity="0.54"/>
</g>
</svg>
