<svg width="24" height="24" viewBox="0 0 24 24" fill="none" xmlns="http://www.w3.org/2000/svg">
<g id="airline_seat_flat_24px">
<path id="icon/notification/airline_seat_flat_24px" fill-rule="evenodd" clip-rule="evenodd" d="M22 10.5V12.5H9V8.5C9 7.4 9.9 6.5 11 6.5H18C20.21 6.5 22 8.29 22 10.5ZM2 14.5C2 15.05 2.45 15.5 3 15.5H8V16.5C8 17.05 8.45 17.5 9 17.5H15C15.55 17.5 16 17.05 16 16.5V15.5H21C21.55 15.5 22 15.05 22 14.5C22 13.95 21.55 13.5 21 13.5H3C2.45 13.5 2 13.95 2 14.5ZM7.1 7.36C8.28 8.52 8.3 10.41 7.14 11.6C5.98 12.78 4.09 12.8 2.9 11.64C1.72 10.48 1.7 8.59 2.86 7.4C4.02 6.22 5.91 6.2 7.1 7.36Z" fill="black" fill-opacity="0.54"/>
</g>
</svg>
