<svg width="24" height="24" viewBox="0 0 24 24" fill="none" xmlns="http://www.w3.org/2000/svg">
<g id="airline_seat_legroom_extra_24px">
<path id="icon/notification/airline_seat_legroom_extra_24px" fill-rule="evenodd" clip-rule="evenodd" d="M3.49951 4.3139V12.3139C3.49951 13.9739 4.83951 15.3139 6.49951 15.3139H11.4995C12.0495 15.3139 12.4995 15.7639 12.4995 16.3139C12.4995 16.8639 12.0495 17.3139 11.4995 17.3139H6.49951C3.73951 17.3139 1.49951 15.0739 1.49951 12.3139V4.3139C1.49951 3.7639 1.94951 3.3139 2.49951 3.3139C3.04951 3.3139 3.49951 3.7639 3.49951 4.3139ZM20.2995 16.9239C21.0395 16.5839 21.9495 16.8339 22.3295 17.5539C22.7295 18.3139 22.3995 19.2539 21.6395 19.6139L19.6895 20.5039C18.6995 20.9539 17.5395 20.5439 17.0595 19.5639L14.4995 14.3139H7.49951C5.83951 14.3139 4.49951 12.9739 4.49951 11.3139V3.3139H10.4995V9.3139H14.0095C14.7695 9.3139 15.4595 9.7639 15.7995 10.4439L19.2095 17.4239L20.2995 16.9239Z" fill="black" fill-opacity="0.54"/>
</g>
</svg>
