<svg width="24" height="24" viewBox="0 0 24 24" fill="none" xmlns="http://www.w3.org/2000/svg">
<g id="bluetooth_audio_24px">
<path id="icon/notification/bluetooth_audio_24px" fill-rule="evenodd" clip-rule="evenodd" d="M14.7812 8.41502L11.1912 11.995L14.7912 15.575C15.1812 15.975 15.1812 16.605 14.7912 16.995L10.4912 21.295C9.86122 21.925 8.78122 21.475 8.78122 20.585V14.405L4.89122 18.295C4.50122 18.685 3.87122 18.685 3.48122 18.295C3.09122 17.905 3.09122 17.275 3.48122 16.885L8.37122 11.995L3.48122 7.10502C3.09122 6.71502 3.09122 6.08502 3.48122 5.69502C3.66805 5.50777 3.9217 5.40254 4.18622 5.40254C4.45074 5.40254 4.70439 5.50777 4.89122 5.69502L8.78122 9.59502V3.41502C8.78122 2.52502 9.86122 2.07502 10.4912 2.70502L14.7812 6.99502C15.1712 7.39502 15.1712 8.02502 14.7812 8.41502ZM19.9012 7.77502C19.6512 7.22502 18.9212 7.10502 18.5012 7.53502C18.2412 7.79502 18.1912 8.17502 18.3312 8.51502C18.7912 9.58502 19.0512 10.755 19.0512 11.985C19.0512 13.225 18.7912 14.405 18.3212 15.475C18.1812 15.795 18.2312 16.165 18.4812 16.415C18.8912 16.825 19.5812 16.705 19.8312 16.185C20.4612 14.885 20.8112 13.425 20.8112 11.885C20.8012 10.435 20.4812 9.03502 19.9012 7.77502ZM15.7812 10.275L14.4012 11.655C14.2012 11.855 14.2012 12.165 14.4012 12.365L15.7812 13.745C16.0612 14.025 16.5312 13.895 16.6312 13.515C16.7412 13.015 16.8012 12.515 16.8012 11.995C16.8012 11.485 16.7412 10.985 16.6212 10.515C16.5312 10.135 16.0612 9.99502 15.7812 10.275ZM10.7812 5.82502L12.6612 7.70502L10.7812 9.58502V5.82502ZM12.6612 16.285L10.7812 14.405V18.165L12.6612 16.285Z" fill="black" fill-opacity="0.54"/>
</g>
</svg>
