<svg width="24" height="24" viewBox="0 0 24 24" fill="none" xmlns="http://www.w3.org/2000/svg">
<rect width="24" height="24" fill="white"/>
<path fill-rule="evenodd" clip-rule="evenodd" d="M19.5 7.5V9.405C19.5 9.9225 19.245 10.4325 18.795 10.68C18.3225 10.935 18 11.43 18 12C18 12.57 18.3225 13.065 18.795 13.32C19.245 13.5675 19.5 14.0775 19.5 14.595V16.5C19.5 17.325 18.825 18 18 18H6C5.175 18 4.5 17.325 4.5 16.5V14.595C4.5 14.0775 4.755 13.5675 5.205 13.32C5.6775 13.0725 6 12.57 6 12C6 11.43 5.685 10.935 5.2125 10.6725C4.755 10.4325 4.5075 9.9225 4.5075 9.405V7.5C4.5075 6.6675 5.175 6 6 6H18C18.825 6 19.5 6.675 19.5 7.5ZM11.25 16.125H12.75V14.625H11.25V16.125ZM12.75 12.75H11.25V11.25H12.75V12.75ZM11.25 9.375H12.75V7.875H11.25V9.375Z" fill="#13181D"/>
</svg>
