<svg width="24" height="24" viewBox="0 0 24 24" fill="none" xmlns="http://www.w3.org/2000/svg">
<g id="do_disturb_off_24px">
<path id="icon/notification/do_disturb_off_24px" fill-rule="evenodd" clip-rule="evenodd" d="M17.2912 12.7087H16.4112L20.7412 17.0387C21.7212 15.4987 22.2912 13.6687 22.2912 11.7087C22.2912 6.18874 17.8112 1.70874 12.2912 1.70874C10.3312 1.70874 8.50124 2.27874 6.96124 3.25874L14.4112 10.7087H17.2912V12.7087ZM21.4612 20.5887L3.41124 2.53874C3.22441 2.35149 2.97076 2.24625 2.70624 2.24625C2.44172 2.24625 2.18807 2.35149 2.00124 2.53874C1.61124 2.92874 1.61124 3.55874 2.00124 3.94874L4.07124 6.01874C2.95124 7.63874 2.29124 9.59874 2.29124 11.7087C2.29124 17.2287 6.77124 21.7087 12.2912 21.7087C14.4012 21.7087 16.3612 21.0487 17.9712 19.9287L20.0412 21.9987C20.4312 22.3887 21.0612 22.3887 21.4512 21.9987C21.8512 21.6087 21.8512 20.9787 21.4612 20.5887ZM8.75124 10.7087H7.29124V12.7087H10.7512L8.75124 10.7087Z" fill="black" fill-opacity="0.54"/>
</g>
</svg>
