<svg width="24" height="24" viewBox="0 0 24 24" fill="none" xmlns="http://www.w3.org/2000/svg">
<g id="do_disturb_alt_24px">
<path id="icon/notification/do_disturb_alt_24px" fill-rule="evenodd" clip-rule="evenodd" d="M12 2C6.5 2 2 6.5 2 12C2 17.5 6.5 22 12 22C17.5 22 22 17.5 22 12C22 6.5 17.5 2 12 2ZM4 12C4 7.6 7.6 4 12 4C13.8 4 15.5 4.6 16.9 5.7L5.7 16.9C4.6 15.5 4 13.8 4 12ZM7.1 18.3C8.5 19.4 10.2 20 12 20C16.4 20 20 16.4 20 12C20 10.2 19.4 8.5 18.3 7.1L7.1 18.3Z" fill="black" fill-opacity="0.54"/>
</g>
</svg>
