<svg width="24" height="24" viewBox="0 0 24 24" fill="none" xmlns="http://www.w3.org/2000/svg">
<g id="event_busy_24px">
<path id="icon/notification/event_busy_24px" fill-rule="evenodd" clip-rule="evenodd" d="M19 4H18V3C18 2.45 17.55 2 17 2C16.45 2 16 2.45 16 3V4H8V3C8 2.45 7.55 2 7 2C6.45 2 6 2.45 6 3V4H5C3.89 4 3.01 4.9 3.01 6L3 20C3 21.1 3.89 22 5 22H19C20.1 22 21 21.1 21 20V6C21 4.9 20.1 4 19 4ZM9.84 17.47L11.75 15.56L13.66 17.47C13.95 17.76 14.43 17.76 14.72 17.47C15.01 17.18 15.01 16.7 14.72 16.41L12.81 14.5L14.72 12.59C15.01 12.3 15.01 11.82 14.72 11.53C14.43 11.24 13.95 11.24 13.66 11.53L11.75 13.44L9.84 11.53C9.55 11.24 9.07 11.24 8.78 11.53C8.49 11.82 8.49 12.3 8.78 12.59L10.69 14.5L8.78 16.41C8.49 16.7 8.49 17.18 8.78 17.47C9.07 17.76 9.55 17.76 9.84 17.47ZM6 20H18C18.55 20 19 19.55 19 19V9H5V19C5 19.55 5.45 20 6 20Z" fill="black" fill-opacity="0.54"/>
</g>
</svg>
