<svg width="24" height="24" viewBox="0 0 24 24" fill="none" xmlns="http://www.w3.org/2000/svg">
<g id="event_available_24px">
<path id="icon/notification/event_available_24px" fill-rule="evenodd" clip-rule="evenodd" d="M19 4H18V3C18 2.45 17.55 2 17 2C16.45 2 16 2.45 16 3V4H8V3C8 2.45 7.55 2 7 2C6.45 2 6 2.45 6 3V4H5C3.89 4 3.01 4.9 3.01 6L3 20C3 21.1 3.89 22 5 22H19C20.1 22 21 21.1 21 20V6C21 4.9 20.1 4 19 4ZM16 11.53C15.71 11.24 15.23 11.24 14.94 11.53L10.59 15.88L9 14.29C8.71 14 8.23 14 7.94 14.29C7.65 14.58 7.65 15.06 7.94 15.35L9.88 17.29C10.27 17.68 10.9 17.68 11.29 17.29L15.99 12.59C16.29 12.3 16.29 11.82 16 11.53ZM6 20H18C18.55 20 19 19.55 19 19V9H5V19C5 19.55 5.45 20 6 20Z" fill="black" fill-opacity="0.54"/>
</g>
</svg>
