<svg width="24" height="24" viewBox="0 0 24 24" fill="none" xmlns="http://www.w3.org/2000/svg">
<g id="live_tv_24px">
<path id="icon/notification/live_tv_24px" fill-rule="evenodd" clip-rule="evenodd" d="M21 5.89998H13.41L16.35 2.95998C16.55 2.75998 16.55 2.44998 16.35 2.24998C16.15 2.04998 15.84 2.04998 15.64 2.24998L12 5.88998L8.36 2.24998C8.16 2.04998 7.85 2.04998 7.65 2.24998C7.45 2.44998 7.45 2.75998 7.65 2.95998L10.59 5.89998H3C1.9 5.89998 1 6.78998 1 7.89998V19.9C1 21 1.9 21.9 3 21.9H21C22.1 21.9 23 21 23 19.9V7.89998C23 6.78998 22.1 5.89998 21 5.89998ZM10.5 17.05L14.48 14.77C15.15 14.39 15.15 13.42 14.48 13.03L10.5 10.75C9.83 10.37 9 10.86 9 11.62V16.17C9 16.94 9.83 17.43 10.5 17.05ZM4 19.9H20C20.55 19.9 21 19.45 21 18.9V8.89998C21 8.34998 20.55 7.89998 20 7.89998H4C3.45 7.89998 3 8.34998 3 8.89998V18.9C3 19.45 3.45 19.9 4 19.9Z" fill="black" fill-opacity="0.54"/>
</g>
</svg>
