<svg width="24" height="24" viewBox="0 0 24 24" fill="none" xmlns="http://www.w3.org/2000/svg">
<g id="more_24px">
<path id="icon/notification/more_24px" fill-rule="evenodd" clip-rule="evenodd" d="M6.89754 3H21.8975C22.9975 3 23.8975 3.9 23.8975 5V19C23.8975 20.1 22.9975 21 21.8975 21H6.96754C6.27754 21 5.66754 20.64 5.30754 20.12L0.267539 12.56C0.0475391 12.22 0.0475391 11.79 0.267539 11.45L5.30754 3.88C5.66754 3.35 6.20754 3 6.89754 3ZM7.39754 12C7.39754 12.83 8.06754 13.5 8.89754 13.5C9.72754 13.5 10.3975 12.83 10.3975 12C10.3975 11.17 9.72754 10.5 8.89754 10.5C8.06754 10.5 7.39754 11.17 7.39754 12ZM13.8975 13.5C13.0675 13.5 12.3975 12.83 12.3975 12C12.3975 11.17 13.0675 10.5 13.8975 10.5C14.7275 10.5 15.3975 11.17 15.3975 12C15.3975 12.83 14.7275 13.5 13.8975 13.5ZM17.3975 12C17.3975 12.83 18.0675 13.5 18.8975 13.5C19.7275 13.5 20.3975 12.83 20.3975 12C20.3975 11.17 19.7275 10.5 18.8975 10.5C18.0675 10.5 17.3975 11.17 17.3975 12Z" fill="black" fill-opacity="0.54"/>
</g>
</svg>
