<svg width="24" height="24" viewBox="0 0 24 24" fill="none" xmlns="http://www.w3.org/2000/svg">
<g id="network_check_24px">
<path id="icon/notification/network_check_24px" fill-rule="evenodd" clip-rule="evenodd" d="M2.0606 9.82759C2.5706 10.3376 3.3906 10.3776 3.9506 9.91759C6.7106 7.65759 10.1906 6.73759 13.5306 7.15759L14.7206 4.47759C10.3706 3.69759 5.7606 4.77759 2.1506 7.72759C1.5106 8.25759 1.4706 9.23759 2.0606 9.82759ZM15.9006 4.76759C15.7306 4.76759 15.5806 4.85759 15.4906 4.99759L15.4206 5.14759L10.2406 16.7976C10.0806 17.0876 9.9806 17.4076 9.9806 17.7576C9.9806 18.8676 10.8806 19.7676 11.9906 19.7676C12.9506 19.7676 13.7606 19.0876 13.9506 18.1776L13.9606 18.1476L16.4006 5.26759C16.4006 4.98759 16.1806 4.76759 15.9006 4.76759ZM21.8406 7.72759C22.4906 8.25759 22.5306 9.23759 21.9406 9.82759C21.4306 10.3376 20.6206 10.3676 20.0406 9.90759C19.0606 9.10759 18.0006 8.48759 16.8706 8.01759L17.4006 5.19759C18.9806 5.77759 20.4806 6.61759 21.8406 7.72759ZM17.9106 13.8576C18.5106 13.2576 18.4706 12.2276 17.7706 11.7376C17.3106 11.4076 16.8306 11.1276 16.3306 10.8776L15.7806 13.7976C15.8906 13.8676 16.0006 13.9376 16.1006 14.0176C16.6706 14.4176 17.4306 14.3376 17.9106 13.8576ZM7.9306 13.9776C7.3506 14.3876 6.5806 14.3476 6.0806 13.8476C5.4806 13.2476 5.5306 12.2276 6.2206 11.7176C8.0306 10.4176 10.1806 9.81759 12.3106 9.87759L11.0306 12.7576C9.9406 12.9176 8.8706 13.3176 7.9306 13.9776Z" fill="black" fill-opacity="0.54"/>
</g>
</svg>
