<svg width="24" height="24" viewBox="0 0 24 24" fill="none" xmlns="http://www.w3.org/2000/svg">
<g id="network_locked_24px">
<path id="icon/notification/network_locked_24px" fill-rule="evenodd" clip-rule="evenodd" d="M19.1594 10.8297C19.0375 10.8132 18.9181 10.797 18.7933 10.797C16.5833 10.797 14.7433 12.397 14.3633 14.497C13.7133 15.057 13.2933 15.877 13.2933 16.797V19.797H2.70326C1.81326 19.797 1.37326 18.717 2.00326 18.087L17.5833 2.49701C18.2133 1.86701 19.2933 2.31701 19.2933 3.20701V10.847C19.2481 10.8417 19.2036 10.8357 19.1594 10.8297ZM21.2933 15.797V15.297C21.2933 13.917 20.1733 12.797 18.7933 12.797C17.4133 12.797 16.2933 13.917 16.2933 15.297V15.797C15.7433 15.797 15.2933 16.247 15.2933 16.797V20.797C15.2933 21.347 15.7433 21.797 16.2933 21.797H21.2933C21.8433 21.797 22.2933 21.347 22.2933 20.797V16.797C22.2933 16.247 21.8433 15.797 21.2933 15.797ZM20.2933 15.797H17.2933V15.297C17.2933 14.467 17.9633 13.797 18.7933 13.797C19.6233 13.797 20.2933 14.467 20.2933 15.297V15.797Z" fill="black" fill-opacity="0.54"/>
</g>
</svg>
