<svg width="24" height="24" viewBox="0 0 24 24" fill="none" xmlns="http://www.w3.org/2000/svg">
<g id="no_encryption_gmailerrorred_24px">
<path id="icon/notification/no_encryption_gmailerrorred_24px" fill-rule="evenodd" clip-rule="evenodd" d="M11.905 3.10874C10.195 3.10874 8.80501 4.49874 8.80501 6.20874V6.66874L7.08501 4.94874C7.64501 2.79874 9.58501 1.20874 11.905 1.20874C14.665 1.20874 16.905 3.44874 16.905 6.20874V8.20874H17.905C19.005 8.20874 19.905 9.10874 19.905 10.2087V17.7687L10.345 8.20874H15.005V6.20874C15.005 4.49874 13.615 3.10874 11.905 3.10874ZM4.32001 5.42625C4.58453 5.42625 4.83818 5.53149 5.02501 5.71874L20.385 21.0887C20.775 21.4787 20.775 22.1087 20.385 22.4987C19.995 22.8887 19.365 22.8887 18.975 22.4987L18.685 22.2087H5.90501C4.80501 22.2087 3.90501 21.3087 3.90501 20.2087V10.2087C3.90501 9.45874 4.32501 8.80874 4.94501 8.45874L3.61501 7.12874C3.22501 6.73874 3.22501 6.10874 3.61501 5.71874C3.80184 5.53149 4.05549 5.42625 4.32001 5.42625Z" fill="black" fill-opacity="0.54"/>
</g>
</svg>
