<svg width="24" height="24" viewBox="0 0 24 24" fill="none" xmlns="http://www.w3.org/2000/svg">
<g id="phone_paused_24px">
<path id="icon/notification/phone_paused_24px" fill-rule="evenodd" clip-rule="evenodd" d="M15.9869 3.01315C15.4369 3.01315 14.9869 3.46315 14.9869 4.01315V9.01315C14.9869 9.56315 15.4369 10.0132 15.9869 10.0132C16.5369 10.0132 16.9869 9.56315 16.9869 9.01315V4.01315C16.9869 3.46315 16.5369 3.01315 15.9869 3.01315ZM18.9869 4.01315V9.01315C18.9869 9.56315 19.4369 10.0132 19.9869 10.0132C20.5369 10.0132 20.9869 9.56315 20.9869 9.01315V4.01315C20.9869 3.46315 20.5369 3.01315 19.9869 3.01315C19.4369 3.01315 18.9869 3.46315 18.9869 4.01315ZM16.6769 14.9832L19.2169 15.2732C20.2269 15.3932 20.9869 16.2432 20.9769 17.2532V18.9832C20.9769 20.1132 20.0369 21.0532 18.9069 20.9832C10.3769 20.4532 3.54686 13.6332 3.01686 5.09315C2.94686 3.96315 3.88686 3.02315 5.01686 3.02315H6.74686C7.76686 3.02315 8.61686 3.78315 8.73686 4.79315L9.02686 7.31315C9.09686 7.92315 8.88686 8.52315 8.45686 8.95315L6.60686 10.8032C8.04686 13.6432 10.3669 15.9532 13.1969 17.3932L15.0369 15.5532C15.4669 15.1232 16.0669 14.9132 16.6769 14.9832Z" fill="black" fill-opacity="0.54"/>
</g>
</svg>
