<svg width="24" height="24" viewBox="0 0 24 24" fill="none" xmlns="http://www.w3.org/2000/svg">
<g id="phone_callback_24px">
<path id="icon/notification/phone_callback_24px" fill-rule="evenodd" clip-rule="evenodd" d="M16.9917 11.0194H12.9917C12.4417 11.0194 11.9917 10.5694 11.9917 10.0194V6.01943C11.9917 5.46943 12.4417 5.01943 12.9917 5.01943C13.5417 5.01943 13.9917 5.46943 13.9917 6.01943V7.60943L18.3017 3.29943C18.6917 2.90943 19.3217 2.90943 19.7117 3.29943C20.1017 3.68943 20.1017 4.31943 19.7117 4.70943L15.4017 9.01943H16.9917C17.5417 9.01943 17.9917 9.46943 17.9917 10.0194C17.9917 10.5694 17.5417 11.0194 16.9917 11.0194ZM16.6817 14.9894L19.2217 15.2794C20.2317 15.3994 20.9917 16.2494 20.9817 17.2594V18.9894C20.9817 20.1194 20.0417 21.0594 18.9117 20.9894C10.3817 20.4594 3.55174 13.6394 3.02174 5.09943C2.95174 3.96943 3.89174 3.02943 5.02174 3.02943H6.75174C7.77174 3.02943 8.62174 3.78943 8.74174 4.79943L9.03174 7.31943C9.10174 7.92943 8.89174 8.52943 8.46174 8.95943L6.61174 10.8094C8.05174 13.6494 10.3717 15.9594 13.2017 17.3994L15.0417 15.5594C15.4717 15.1294 16.0717 14.9194 16.6817 14.9894Z" fill="black" fill-opacity="0.54"/>
</g>
</svg>
