<svg width="24" height="24" viewBox="0 0 24 24" fill="none" xmlns="http://www.w3.org/2000/svg">
<g id="phone_missed_24px">
<path id="icon/notification/phone_missed_24px" fill-rule="evenodd" clip-rule="evenodd" d="M7.00252 8.09158C7.00252 8.64158 6.55252 9.09158 6.00252 9.09158C5.45252 9.09158 5.00252 8.64158 5.00252 8.09158V4.09158C5.00252 3.54158 5.45252 3.09158 6.00252 3.09158H10.0025C10.5525 3.09158 11.0025 3.54158 11.0025 4.09158C11.0025 4.64158 10.5525 5.09158 10.0025 5.09158H8.40252L11.9525 8.64158L16.9025 3.69158C17.0893 3.50433 17.343 3.3991 17.6075 3.3991C17.872 3.3991 18.1257 3.50433 18.3125 3.69158C18.7025 4.08158 18.7025 4.71158 18.3125 5.10158L12.6525 10.7616C12.2625 11.1516 11.6325 11.1516 11.2425 10.7616L7.00252 6.52158V8.09158ZM0.912517 16.2916C7.23252 10.7016 16.7625 10.7016 23.0925 16.2916C23.9225 17.0316 23.9325 18.3416 23.1325 19.1316L21.9325 20.3316C21.2225 21.0416 20.1025 21.1016 19.3125 20.4816L17.3525 18.9216C16.8825 18.5416 16.6025 17.9716 16.6025 17.3716V14.7916C13.6125 13.8116 10.3825 13.8216 7.40252 14.7916V17.3616C7.40252 17.9716 7.12252 18.5416 6.65252 18.9116L4.68252 20.4816C3.90252 21.1016 2.77252 21.0416 2.06252 20.3316L0.862517 19.1316C0.0725169 18.3416 0.0725169 17.0316 0.912517 16.2916Z" fill="black" fill-opacity="0.54"/>
</g>
</svg>
