<svg width="24" height="24" viewBox="0 0 24 24" fill="none" xmlns="http://www.w3.org/2000/svg">
<g id="phone_bluetooth_speaker_24px">
<path id="icon/notification/phone_bluetooth_speaker_24px" fill-rule="evenodd" clip-rule="evenodd" d="M14.3317 9.40226L16.7817 6.95226L14.3317 4.49226C14.1317 4.30226 14.1317 3.98226 14.3317 3.78226C14.5217 3.58226 14.8417 3.58226 15.0417 3.78226L16.9917 5.73226V2.58226C16.9917 2.38226 17.1117 2.20226 17.3017 2.12226C17.4917 2.04226 17.7117 2.09226 17.8517 2.23226L20.0317 4.41226C20.1317 4.51226 20.1817 4.63226 20.1817 4.77226C20.1817 4.91226 20.1217 5.04226 20.0317 5.13226L18.2017 6.96226L20.0317 8.79226C20.2317 8.98226 20.2317 9.30226 20.0317 9.50226L17.8517 11.6823C17.7517 11.7823 17.6217 11.8323 17.4917 11.8323C17.4317 11.8323 17.3617 11.8223 17.3017 11.7923C17.1117 11.7123 16.9917 11.5223 16.9917 11.3223V8.17226L15.0417 10.1123C14.8517 10.3123 14.5317 10.3123 14.3317 10.1123C14.1317 9.92226 14.1317 9.60226 14.3317 9.40226ZM16.6817 15.9123L19.2217 16.2023C20.2317 16.3223 20.9917 17.1723 20.9817 18.1823V19.9123C20.9817 21.0423 20.0417 21.9823 18.9117 21.9123C10.3817 21.3823 3.55174 14.5623 3.02174 6.02226C2.95174 4.89226 3.89174 3.95226 5.02174 3.95226H6.75174C7.77174 3.95226 8.62174 4.71226 8.74174 5.72226L9.03174 8.24226C9.10174 8.85226 8.89174 9.45226 8.46174 9.88226L6.61174 11.7323C8.05174 14.5723 10.3717 16.8823 13.2017 18.3223L15.0417 16.4823C15.4717 16.0523 16.0717 15.8423 16.6817 15.9123ZM18.0017 3.80226L18.9617 4.76226L18.0017 5.72226V3.80226ZM18.9617 9.13226L18.0017 8.17226V10.0923L18.9617 9.13226Z" fill="black" fill-opacity="0.54"/>
</g>
</svg>
