<svg width="24" height="24" viewBox="0 0 24 24" fill="none" xmlns="http://www.w3.org/2000/svg">
<g id="phone_forwarded_24px">
<path id="icon/notification/phone_forwarded_24px" fill-rule="evenodd" clip-rule="evenodd" d="M17.9511 2.51894L21.7411 6.30894C21.9311 6.49894 21.9311 6.81894 21.7311 7.00894L17.9411 10.7989C17.6311 11.1189 17.0911 10.8989 17.0911 10.4489V8.65894H13.5911C13.3111 8.65894 13.0911 8.43894 13.0911 8.15894V5.15894C13.0911 4.87894 13.3111 4.65894 13.5911 4.65894H17.0911V2.86894C17.0911 2.41894 17.6311 2.19894 17.9511 2.51894ZM15.7811 15.6289L18.3211 15.9189C19.3311 16.0389 20.0911 16.8889 20.0811 17.8989V19.6289C20.0811 20.7589 19.1411 21.6989 18.0111 21.6289C9.48111 21.0989 2.65111 14.2789 2.12111 5.73894C2.05111 4.60894 2.99111 3.66894 4.12111 3.66894H5.85111C6.87111 3.66894 7.72111 4.42894 7.8411 5.43894L8.1311 7.95894C8.20111 8.56894 7.99111 9.16894 7.56111 9.59894L5.71111 11.4489C7.1511 14.2889 9.47111 16.5989 12.3011 18.0389L14.1411 16.1989C14.5711 15.7689 15.1711 15.5589 15.7811 15.6289Z" fill="black" fill-opacity="0.54"/>
</g>
</svg>
