<svg width="24" height="24" viewBox="0 0 24 24" fill="none" xmlns="http://www.w3.org/2000/svg">
<g id="phone_in_talk_24px">
<path id="icon/notification/phone_in_talk_24px" fill-rule="evenodd" clip-rule="evenodd" d="M16.6817 14.9782L19.2217 15.2682C20.2317 15.3882 20.9917 16.2382 20.9817 17.2482V18.9782C20.9817 20.1082 20.0417 21.0482 18.9117 20.9782C10.3817 20.4482 3.55174 13.6282 3.02174 5.08816C2.95174 3.95816 3.89174 3.01816 5.02174 3.01816H6.75174C7.77174 3.01816 8.62174 3.77816 8.74174 4.78816L9.03174 7.30816C9.10174 7.91816 8.89174 8.51816 8.46174 8.94816L6.61174 10.7982C8.05174 13.6382 10.3717 15.9482 13.2017 17.3882L15.0417 15.5482C15.4717 15.1182 16.0717 14.9082 16.6817 14.9782ZM12.8717 5.05816C16.0517 5.45816 18.5417 7.94816 18.9417 11.1282C19.0017 11.6382 19.4317 12.0082 19.9317 12.0082C19.9717 12.0082 20.0117 12.0082 20.0517 11.9982C20.6017 11.9282 20.9917 11.4282 20.9217 10.8782C20.4117 6.78816 17.2017 3.57816 13.1117 3.06816C12.5617 3.00816 12.0617 3.39816 12.0017 3.94816C11.9317 4.49816 12.3217 4.99816 12.8717 5.05816ZM13.2517 7.16816C12.7217 7.02816 12.1717 7.34816 12.0317 7.88816C11.8917 8.42816 12.2117 8.96816 12.7517 9.10816C13.8017 9.37816 14.6217 10.1982 14.9017 11.2582C15.0217 11.7082 15.4217 12.0082 15.8717 12.0082C15.9517 12.0082 16.0417 11.9982 16.1217 11.9782C16.6517 11.8382 16.9717 11.2882 16.8417 10.7582C16.3717 8.98816 15.0017 7.61816 13.2517 7.16816Z" fill="black" fill-opacity="0.54"/>
</g>
</svg>
