<svg width="24" height="24" viewBox="0 0 24 24" fill="none" xmlns="http://www.w3.org/2000/svg">
<g id="phone_locked_24px">
<path id="icon/notification/phone_locked_24px" fill-rule="evenodd" clip-rule="evenodd" d="M19.9869 5.01315V4.51315C19.9869 3.13315 18.8669 2.01315 17.4869 2.01315C16.1069 2.01315 14.9869 3.13315 14.9869 4.51315V5.01315C14.4369 5.01315 13.9869 5.46315 13.9869 6.01315V10.0132C13.9869 10.5632 14.4369 11.0132 14.9869 11.0132H19.9869C20.5369 11.0132 20.9869 10.5632 20.9869 10.0132V6.01315C20.9869 5.46315 20.5369 5.01315 19.9869 5.01315ZM19.2169 16.2732L16.6769 15.9832C16.0669 15.9132 15.4669 16.1232 15.0369 16.5532L13.1969 18.3932C10.3669 16.9532 8.04686 14.6432 6.60686 11.8032L8.45686 9.95315C8.88686 9.52315 9.09686 8.92315 9.02686 8.31315L8.73686 5.79315C8.61686 4.78315 7.76686 4.02315 6.74686 4.02315H5.01686C3.88686 4.02315 2.94686 4.96315 3.01686 6.09315C3.54686 14.6332 10.3769 21.4532 18.9069 21.9832C20.0369 22.0532 20.9769 21.1132 20.9769 19.9832V18.2532C20.9869 17.2432 20.2269 16.3932 19.2169 16.2732ZM15.9869 5.01315H18.9869V4.51315C18.9869 3.68315 18.3169 3.01315 17.4869 3.01315C16.6569 3.01315 15.9869 3.68315 15.9869 4.51315V5.01315Z" fill="black" fill-opacity="0.54"/>
</g>
</svg>
