<svg width="24" height="24" viewBox="0 0 24 24" fill="none" xmlns="http://www.w3.org/2000/svg">
<g id="power_off_24px">
<path id="icon/notification/power_off_24px" fill-rule="evenodd" clip-rule="evenodd" d="M10.215 3.71375C10.215 3.16375 9.76503 2.71375 9.21503 2.71375C8.66503 2.71375 8.21503 3.16375 8.21503 3.71375V4.59375L10.215 6.59375V3.71375ZM18.215 13.3737V8.70374C18.215 7.70374 17.205 6.70375 16.215 6.71375V3.71375C16.215 3.16375 15.765 2.71375 15.215 2.71375C14.665 2.71375 14.215 3.16375 14.215 3.71375V6.71375H10.335L17.965 14.3437C18.115 14.0437 18.215 13.7137 18.215 13.3737ZM12.705 11.9137L20.365 19.5737C20.755 19.9637 20.755 20.6037 20.365 20.9937C19.975 21.3837 19.345 21.3837 18.955 20.9937L15.195 17.2337L14.715 17.7137V19.7137C14.715 20.2637 14.265 20.7137 13.715 20.7137H10.715C10.165 20.7137 9.71503 20.2637 9.71503 19.7137V17.7137L6.79503 14.7737C6.42503 14.4037 6.21503 13.8937 6.21503 13.3637V8.70374C6.21503 8.56375 6.23503 8.42375 6.26503 8.29375L3.63503 5.66374C3.24503 5.27375 3.24503 4.64375 3.63503 4.25375C3.82186 4.06649 4.07551 3.96126 4.34003 3.96126C4.60455 3.96126 4.8582 4.06649 5.04503 4.25375L7.60503 6.81375L12.705 11.9137Z" fill="black" fill-opacity="0.54"/>
</g>
</svg>
