<svg width="24" height="24" viewBox="0 0 24 24" fill="none" xmlns="http://www.w3.org/2000/svg">
<g id="sd_card_alert_24px">
<path id="icon/notification/sd_card_alert_24px" fill-rule="evenodd" clip-rule="evenodd" d="M18 2H10.83C10.3 2 9.79 2.21 9.41 2.59L4.6 7.42C4.23 7.79 4.02 8.3 4.02 8.82L4 20C4 21.1 4.9 22 6 22H18C19.1 22 20 21.1 20 20V4C20 2.9 19.1 2 18 2ZM13 15V17H11V15H13ZM11 12C11 12.55 11.45 13 12 13C12.55 13 13 12.55 13 12V9C13 8.45 12.55 8 12 8C11.45 8 11 8.45 11 9V12Z" fill="black" fill-opacity="0.54"/>
</g>
</svg>
