<svg width="24" height="24" viewBox="0 0 24 24" fill="none" xmlns="http://www.w3.org/2000/svg">
<g id="sync_disabled_24px">
<path id="icon/notification/sync_disabled_24px" fill-rule="evenodd" clip-rule="evenodd" d="M20.3612 11.5338C20.3612 9.32375 19.4512 7.33375 18.0012 5.89375L19.5112 4.38375C19.8212 4.07375 19.6012 3.53375 19.1512 3.53375H14.3612V8.32375C14.3612 8.77375 14.9012 8.99375 15.2112 8.67375L16.6012 7.28375C17.6812 8.38375 18.3612 9.87375 18.3612 11.5338C18.3612 12.3838 18.1812 13.1938 17.8612 13.9238L19.3412 15.4038C19.9812 14.2538 20.3612 12.9438 20.3612 11.5338ZM10.3612 5.27375V5.08375C10.3612 4.40375 9.65117 3.97375 9.04117 4.26375C8.91451 4.32375 8.79673 4.39264 8.67895 4.46153C8.62006 4.49598 8.56117 4.53042 8.50117 4.56375L9.96117 6.02375C10.2012 5.84375 10.3612 5.57375 10.3612 5.27375ZM3.93117 5.64375C3.54117 5.25375 3.54117 4.62375 3.93117 4.23375C4.118 4.0465 4.37165 3.94127 4.63617 3.94127C4.90069 3.94127 5.15434 4.0465 5.34117 4.23375L19.8612 18.7638C20.2512 19.1538 20.2512 19.7838 19.8612 20.1738C19.4712 20.5638 18.8412 20.5638 18.4512 20.1738L16.5812 18.3038C16.2912 18.4838 15.9912 18.6538 15.6812 18.7938C15.0712 19.0838 14.3612 18.6538 14.3612 17.9738V17.7938C14.3612 17.3638 14.6812 17.0038 15.1112 16.8838C15.1112 16.8743 15.1112 16.8693 15.1122 16.8645C15.1134 16.8593 15.1159 16.8543 15.1212 16.8438L7.05117 8.77375C6.62117 9.60375 6.36117 10.5338 6.36117 11.5338C6.36117 13.1938 7.04117 14.6838 8.12117 15.7838L9.51117 14.3938C9.82117 14.0738 10.3612 14.2938 10.3612 14.7438V19.0338C10.3612 19.3138 10.1412 19.5338 9.86117 19.5338H5.57117C5.12117 19.5338 4.90117 18.9938 5.21117 18.6838L6.72117 17.1738C5.27117 15.7338 4.36117 13.7438 4.36117 11.5338C4.36117 9.97375 4.81117 8.53375 5.58117 7.29375L3.93117 5.64375Z" fill="black" fill-opacity="0.54"/>
</g>
</svg>
