<svg width="24" height="24" viewBox="0 0 24 24" fill="none" xmlns="http://www.w3.org/2000/svg">
<g id="tap_and_play_24px">
<path id="icon/notification/tap_and_play_24px" fill-rule="evenodd" clip-rule="evenodd" d="M8.5 1L18.5 1.01C19.6 1.01 20.5 1.9 20.5 3V20C20.5 21.1 19.6 22 18.5 22H16.42C16.31 20.59 15.99 19.25 15.47 18H18.5V5H8.5V11.01C7.86 10.74 7.19 10.53 6.5 10.37V3C6.5 1.9 7.4 1 8.5 1ZM4.61 12.06C4.02 12 3.5 12.46 3.5 13.05C3.5 13.55 3.87 13.99 4.37 14.04C8.64 14.45 12.04 17.85 12.45 22.12C12.5 22.62 12.93 23 13.44 23C14.03 23 14.5 22.49 14.44 21.9C13.93 16.7 9.81 12.58 4.61 12.06ZM3.5 17.09C3.5 16.48 4.04 15.99 4.64 16.09C7.6 16.57 9.93 18.91 10.41 21.86C10.5 22.46 10.02 23 9.41 23C8.92 23 8.51 22.64 8.43 22.15C8.07 20.07 6.43 18.43 4.35 18.07C3.86 17.99 3.5 17.58 3.5 17.09ZM3.5 23V20C5.16 20 6.5 21.34 6.5 23H3.5Z" fill="black" fill-opacity="0.54"/>
</g>
</svg>
