<svg width="24" height="24" viewBox="0 0 24 24" fill="none" xmlns="http://www.w3.org/2000/svg">
<g id="tv_off_24px">
<path id="icon/notification/tv_off_24px" fill-rule="evenodd" clip-rule="evenodd" d="M21 8.10875V17.9887L22.85 19.8387C22.95 19.6187 23 19.3687 23 19.1087V7.10875C23 5.99875 22.1 5.10875 21 5.10875H13.41L16.35 2.16875C16.55 1.96875 16.55 1.65875 16.35 1.45875C16.15 1.25875 15.84 1.25875 15.64 1.45875L12 5.09875L8.36 1.45875C8.16 1.25875 7.85 1.25875 7.65 1.45875C7.45 1.65875 7.45 1.96875 7.65 2.16875L10.59 5.10875H8.12L10.12 7.10875H20C20.55 7.10875 21 7.55875 21 8.10875ZM3.12 2.93875C2.93317 2.75149 2.67952 2.64626 2.415 2.64626C2.15048 2.64626 1.89683 2.75149 1.71 2.93875C1.32 3.32875 1.32 3.95875 1.71 4.34875L2.53 5.16875C1.65 5.38875 1 6.16875 1 7.10875V19.1087C1 20.2087 1.9 21.1087 3 21.1087H18.46L19.75 22.3987C20.14 22.7887 20.77 22.7887 21.16 22.3987C21.52 22.0387 21.53 21.4787 21.23 21.0887H21.26L3.12 2.93875ZM3 8.10875V18.1087C3 18.6587 3.45 19.1087 4 19.1087H16.46L4.46 7.10875H4C3.45 7.10875 3 7.55875 3 8.10875Z" fill="black" fill-opacity="0.54"/>
</g>
</svg>
