<svg width="24" height="24" viewBox="0 0 24 24" fill="none" xmlns="http://www.w3.org/2000/svg">
<g id="wc_24px">
<path id="icon/notification/wc_24px" fill-rule="evenodd" clip-rule="evenodd" d="M7.19507 6C8.30507 6 9.19507 5.11 9.19507 4C9.19507 2.89 8.30507 2 7.19507 2C6.08507 2 5.19507 2.89 5.19507 4C5.19507 5.11 6.08507 6 7.19507 6ZM5.19507 14.5V21C5.19507 21.55 5.64507 22 6.19507 22H8.19507C8.74507 22 9.19507 21.55 9.19507 21V14.5H9.69507C10.2451 14.5 10.6951 14.05 10.6951 13.5V9C10.6951 7.9 9.79507 7 8.69507 7H5.69507C4.59507 7 3.69507 7.9 3.69507 9V13.5C3.69507 14.05 4.14507 14.5 4.69507 14.5H5.19507ZM17.6951 16V21C17.6951 21.55 17.2451 22 16.6951 22H15.6951C15.1451 22 14.6951 21.55 14.6951 21V16H13.0851C12.3951 16 11.9151 15.33 12.1351 14.68L14.2351 8.37C14.5051 7.55 15.2751 7 16.1351 7H16.2551C17.1151 7 17.8751 7.55 18.1551 8.37L20.2551 14.68C20.4651 15.33 19.9851 16 19.3051 16H17.6951ZM18.1951 4C18.1951 5.11 17.3051 6 16.1951 6C15.0851 6 14.1951 5.11 14.1951 4C14.1951 2.89 15.0851 2 16.1951 2C17.3051 2 18.1951 2.89 18.1951 4Z" fill="black" fill-opacity="0.54"/>
</g>
</svg>
