<svg width="24" height="24" viewBox="0 0 24 24" fill="none" xmlns="http://www.w3.org/2000/svg">
<g id="wifi_off_24px">
<path id="icon/notification/wifi_off_24px" fill-rule="evenodd" clip-rule="evenodd" d="M4.11491 3.525L19.6749 19.085C20.0649 19.475 20.0649 20.105 19.6749 20.475C19.2849 20.865 18.6549 20.865 18.2649 20.475L11.8949 14.105C10.5049 14.135 9.11491 14.555 7.92491 15.395C7.35491 15.805 6.58491 15.755 6.09491 15.265L6.08491 15.255C5.48491 14.655 5.52491 13.645 6.21491 13.145C7.19491 12.435 8.27491 11.935 9.40491 11.635L7.17491 9.405C6.02491 9.875 4.92491 10.515 3.92491 11.335C3.37491 11.795 2.56491 11.745 2.05491 11.235C1.46491 10.645 1.50491 9.665 2.15491 9.135C3.05491 8.395 4.03491 7.785 5.04491 7.285L2.70491 4.935C2.31491 4.545 2.31491 3.915 2.70491 3.525C2.89174 3.33775 3.14539 3.23251 3.40991 3.23251C3.67443 3.23251 3.92808 3.33775 4.11491 3.525ZM21.9449 11.235C21.4349 11.745 20.6149 11.785 20.0549 11.325C17.6849 9.385 14.7749 8.435 11.8849 8.465L9.29491 5.875C13.6449 5.105 18.2549 6.195 21.8449 9.135C22.4949 9.665 22.5349 10.645 21.9449 11.235ZM15.2649 11.855C16.1549 12.155 17.0049 12.585 17.7849 13.155C18.3149 13.535 18.4549 14.225 18.2149 14.805L15.2649 11.855ZM13.9449 17.415C12.7249 16.785 11.2649 16.785 10.0349 17.415C9.44491 17.725 9.33491 18.535 9.80491 19.005L11.2749 20.475C11.6649 20.865 12.2949 20.865 12.6849 20.475L14.1549 19.005C14.6449 18.535 14.5449 17.725 13.9449 17.415Z" fill="black" fill-opacity="0.54"/>
</g>
</svg>
