<svg width="24" height="24" viewBox="0 0 24 24" fill="none" xmlns="http://www.w3.org/2000/svg">
<g id="wifi_24px">
<path id="icon/notification/wifi_24px" fill-rule="evenodd" clip-rule="evenodd" d="M2.05691 10.04C2.56691 10.55 3.37691 10.6 3.92691 10.14C8.59691 6.3 15.3769 6.3 20.0569 10.13C20.6169 10.59 21.4369 10.55 21.9469 10.04C22.5369 9.45 22.4969 8.47 21.8469 7.94C16.1369 3.27 7.87691 3.27 2.15691 7.94C1.50691 8.46 1.45691 9.44 2.05691 10.04ZM9.81691 17.8L11.2869 19.27C11.6769 19.66 12.3069 19.66 12.6969 19.27L14.1669 17.8C14.6369 17.33 14.5369 16.52 13.9369 16.21C12.7169 15.58 11.2569 15.58 10.0269 16.21C9.45691 16.52 9.34691 17.33 9.81691 17.8ZM7.91691 14.2C7.34691 14.61 6.57691 14.56 6.08691 14.07C5.47691 13.46 5.51691 12.45 6.20691 11.95C9.65691 9.46 14.3469 9.46 17.7869 11.95C18.4769 12.44 18.5169 13.46 17.9169 14.06L17.9069 14.07C17.4169 14.56 16.6469 14.6 16.0769 14.2C13.6369 12.47 10.3569 12.47 7.91691 14.2Z" fill="black" fill-opacity="0.54"/>
</g>
</svg>
