<svg width="24" height="24" viewBox="0 0 24 24" fill="none" xmlns="http://www.w3.org/2000/svg">
<g id="attach_file_24px">
<path id="icon/editor/attach_file_24px" d="M16 6.74764V17.3276C16 19.4176 14.47 21.2776 12.39 21.4776C10 21.7076 8 19.8376 8 17.4976V5.13764C8 3.82764 8.94 2.63764 10.24 2.50764C11.74 2.35764 13 3.52764 13 4.99764V15.4976C13 16.0476 12.55 16.4976 12 16.4976C11.45 16.4976 11 16.0476 11 15.4976V6.74764C11 6.33764 10.66 5.99764 10.25 5.99764C9.84 5.99764 9.5 6.33764 9.5 6.74764V15.3576C9.5 16.6676 10.44 17.8576 11.74 17.9876C13.24 18.1376 14.5 16.9676 14.5 15.4976V5.16764C14.5 3.07764 12.97 1.21764 10.89 1.01764C8.51 0.787644 6.5 2.65764 6.5 4.99764V17.2676C6.5 20.1376 8.6 22.7076 11.46 22.9776C14.75 23.2776 17.5 20.7176 17.5 17.4976V6.74764C17.5 6.33764 17.16 5.99764 16.75 5.99764C16.34 5.99764 16 6.33764 16 6.74764Z" fill="black" fill-opacity="0.54"/>
</g>
</svg>
