<svg width="24" height="24" viewBox="0 0 24 24" fill="none" xmlns="http://www.w3.org/2000/svg">
<g id="bubble_chart_24px">
<path id="icon/editor/bubble_chart_24px" fill-rule="evenodd" clip-rule="evenodd" d="M10.4 8.8C10.4 6.14903 12.549 4 15.2 4C17.851 4 20 6.14903 20 8.8C20 11.451 17.851 13.6 15.2 13.6C12.549 13.6 10.4 11.451 10.4 8.8ZM7.2 11.2C6.05675 11.2 5.00034 11.8099 4.42872 12.8C3.85709 13.7901 3.85709 15.0099 4.42872 16C5.00034 16.9901 6.05675 17.6 7.2 17.6C8.34325 17.6 9.39966 16.9901 9.97128 16C10.5429 15.0099 10.5429 13.7901 9.97128 12.8C9.39966 11.8099 8.34325 11.2 7.2 11.2ZM14.8 16C13.6954 16 12.8 16.8954 12.8 18C12.8 19.1046 13.6954 20 14.8 20C15.9046 20 16.8 19.1046 16.8 18C16.8 16.8954 15.9046 16 14.8 16Z" fill="black" fill-opacity="0.54"/>
</g>
</svg>
