<svg width="24" height="24" viewBox="0 0 24 24" fill="none" xmlns="http://www.w3.org/2000/svg">
<g id="format_line_spacing_24px">
<path id="icon/editor/format_line_spacing_24px" fill-rule="evenodd" clip-rule="evenodd" d="M7.5374 6.15502C7.8574 6.46502 7.6374 7.00502 7.1874 7.00502H5.8974V17.005H7.1874C7.6374 17.005 7.8574 17.545 7.5474 17.855L5.2574 20.145C5.0574 20.345 4.7474 20.345 4.5474 20.145L2.2574 17.855C1.9374 17.545 2.1574 17.005 2.6074 17.005H3.8974V7.00502H2.6074C2.1574 7.00502 1.9374 6.46502 2.2474 6.15502L4.5374 3.85502C4.7374 3.65502 5.0474 3.65502 5.2474 3.85502L7.5374 6.15502ZM20.8974 7.00502H10.8974C10.3474 7.00502 9.8974 6.55502 9.8974 6.00502C9.8974 5.45502 10.3474 5.00502 10.8974 5.00502H20.8974C21.4474 5.00502 21.8974 5.45502 21.8974 6.00502C21.8974 6.55502 21.4474 7.00502 20.8974 7.00502ZM20.8974 17.005H10.8974C10.3474 17.005 9.8974 17.455 9.8974 18.005C9.8974 18.555 10.3474 19.005 10.8974 19.005H20.8974C21.4474 19.005 21.8974 18.555 21.8974 18.005C21.8974 17.455 21.4474 17.005 20.8974 17.005ZM10.8974 11.005H20.8974C21.4474 11.005 21.8974 11.455 21.8974 12.005C21.8974 12.555 21.4474 13.005 20.8974 13.005H10.8974C10.3474 13.005 9.8974 12.555 9.8974 12.005C9.8974 11.455 10.3474 11.005 10.8974 11.005Z" fill="black" fill-opacity="0.54"/>
</g>
</svg>
