<svg width="24" height="24" viewBox="0 0 24 24" fill="none" xmlns="http://www.w3.org/2000/svg">
<g id="format_textdirection_r_to_l_24px">
<path id="icon/editor/format_textdirection_r_to_l_24px" fill-rule="evenodd" clip-rule="evenodd" d="M9.89498 14.3527V10.3527C7.55498 10.3527 5.68498 8.34266 5.91498 5.96266C6.11498 3.88266 7.97498 2.35266 10.065 2.35266H16.895C17.445 2.35266 17.895 2.80266 17.895 3.35266C17.895 3.90266 17.445 4.35266 16.895 4.35266H15.895V14.3527C15.895 14.9027 15.445 15.3527 14.895 15.3527C14.345 15.3527 13.895 14.9027 13.895 14.3527V4.35266H11.895V14.3527C11.895 14.9027 11.445 15.3527 10.895 15.3527C10.345 15.3527 9.89498 14.9027 9.89498 14.3527ZM7.89498 15.5627V17.3527H18.895C19.445 17.3527 19.895 17.8027 19.895 18.3527C19.895 18.9027 19.445 19.3527 18.895 19.3527H7.89498V21.1427C7.89498 21.5927 7.35498 21.8127 7.04498 21.5027L4.25498 18.7127C4.05498 18.5127 4.05498 18.2027 4.25498 18.0027L7.04498 15.2127C7.35498 14.8927 7.89498 15.1127 7.89498 15.5627Z" fill="black" fill-opacity="0.54"/>
</g>
</svg>
