<svg width="24" height="24" viewBox="0 0 24 24" fill="none" xmlns="http://www.w3.org/2000/svg">
<g id="format_color_reset_24px">
<path id="icon/editor/format_color_reset_24px" fill-rule="evenodd" clip-rule="evenodd" d="M12.7707 3.89252C14.4007 5.88252 18.0007 10.6725 18.0007 13.7625C18.0007 14.0425 17.9707 14.3225 17.9307 14.6025L9.49071 6.16252C10.1407 5.25252 10.7607 4.46252 11.2207 3.89252C11.6207 3.40252 12.3707 3.40252 12.7707 3.89252ZM6.12071 5.60252L19.2907 18.7725C19.6807 19.1625 19.6807 19.8025 19.2807 20.1825C18.8907 20.5725 18.2607 20.5725 17.8707 20.1825L15.9507 18.2625C14.9007 19.1925 13.5207 19.7625 12.0007 19.7625C8.69071 19.7625 6.00071 17.0725 6.00071 13.7625C6.00071 12.5525 6.55071 11.0925 7.32071 9.62252L4.71071 7.01252C4.32071 6.62252 4.32071 5.99252 4.71071 5.60252C4.89754 5.41527 5.1512 5.31004 5.41571 5.31004C5.68023 5.31004 5.93388 5.41527 6.12071 5.60252Z" fill="black" fill-opacity="0.54"/>
</g>
</svg>
