<svg width="24" height="24" viewBox="0 0 24 24" fill="none" xmlns="http://www.w3.org/2000/svg">
<g id="format_color_fill_24px">
<path id="icon/editor/format_color_fill_24px" fill-rule="evenodd" clip-rule="evenodd" d="M8.32 0.496221L16.56 8.73622C17.15 9.32622 17.15 10.2762 16.56 10.8562L11.06 16.3562C10.77 16.6462 10.38 16.7962 10 16.7962C9.62 16.7962 9.23 16.6462 8.94 16.3562L3.44 10.8562C2.85 10.2762 2.85 9.32622 3.44 8.73622L8.59 3.58622L6.91 1.90622C6.52 1.51622 6.52 0.886221 6.91 0.496221C7.09683 0.308968 7.35048 0.203735 7.615 0.203735C7.87952 0.203735 8.13317 0.308968 8.32 0.496221ZM10 5.00622L5.21 9.79622H14.79L10 5.00622ZM19 11.2962C19 11.2962 17 13.4662 17 14.7962C17 15.8962 17.9 16.7962 19 16.7962C20.1 16.7962 21 15.8962 21 14.7962C21 13.4662 19 11.2962 19 11.2962ZM22 19.7962H2C0.9 19.7962 0 20.6962 0 21.7962C0 22.8962 0.9 23.7962 2 23.7962H22C23.1 23.7962 24 22.8962 24 21.7962C24 20.6962 23.1 19.7962 22 19.7962Z" fill="black" fill-opacity="0.54"/>
</g>
</svg>
