<svg width="24" height="24" viewBox="0 0 24 24" fill="none" xmlns="http://www.w3.org/2000/svg">
<g id="format_textdirection_l_to_r_24px">
<path id="icon/editor/format_textdirection_l_to_r_24px" fill-rule="evenodd" clip-rule="evenodd" d="M8.10425 14.3542V10.3542C5.76425 10.3542 3.89425 8.34425 4.12425 5.96425C4.32425 3.88425 6.18425 2.35425 8.27425 2.35425H15.1042C15.6542 2.35425 16.1042 2.80425 16.1042 3.35425C16.1042 3.90425 15.6542 4.35425 15.1042 4.35425H14.1042V14.3542C14.1042 14.9042 13.6542 15.3542 13.1042 15.3542C12.5542 15.3542 12.1042 14.9042 12.1042 14.3542V4.35425H10.1042V14.3542C10.1042 14.9042 9.65425 15.3542 9.10425 15.3542C8.55425 15.3542 8.10425 14.9042 8.10425 14.3542ZM16.9642 15.2142L19.7542 18.0042C19.9442 18.1942 19.9442 18.5142 19.7442 18.7042L16.9542 21.4942C16.6442 21.8142 16.1042 21.5942 16.1042 21.1442V19.3542H5.10425C4.55425 19.3542 4.10425 18.9042 4.10425 18.3542C4.10425 17.8042 4.55425 17.3542 5.10425 17.3542H16.1042V15.5642C16.1042 15.1142 16.6442 14.8942 16.9642 15.2142Z" fill="black" fill-opacity="0.54"/>
</g>
</svg>
