<svg width="24" height="24" viewBox="0 0 24 24" fill="none" xmlns="http://www.w3.org/2000/svg">
<g id="format_bold_24px">
<path id="icon/editor/format_bold_24px" fill-rule="evenodd" clip-rule="evenodd" d="M15.225 11.79C16.195 11.12 16.875 10.02 16.875 9C16.875 6.74 15.125 5 12.875 5H7.625C7.075 5 6.625 5.45 6.625 6V18C6.625 18.55 7.075 19 7.625 19H13.405C15.475 19 17.365 17.31 17.375 15.23C17.385 13.7 16.525 12.39 15.225 11.79ZM9.625 7.5H12.625C13.455 7.5 14.125 8.17 14.125 9C14.125 9.83 13.455 10.5 12.625 10.5H9.625V7.5ZM9.625 16.5H13.125C13.955 16.5 14.625 15.83 14.625 15C14.625 14.17 13.955 13.5 13.125 13.5H9.625V16.5Z" fill="black" fill-opacity="0.54"/>
</g>
</svg>
