<svg width="24" height="24" viewBox="0 0 24 24" fill="none" xmlns="http://www.w3.org/2000/svg">
<g id="format_clear_24px">
<path id="icon/editor/format_clear_24px" fill-rule="evenodd" clip-rule="evenodd" d="M20.7912 5.71375C20.7912 6.54375 20.1212 7.21375 19.2912 7.21375H15.0012L13.5512 10.5837L11.4612 8.49375L12.0112 7.21375H10.1812L7.18124 4.21375H19.2912C20.1212 4.21375 20.7912 4.88375 20.7912 5.71375ZM4.91124 4.77375L18.2312 18.0937C18.6212 18.4837 18.6212 19.1137 18.2212 19.4937C17.8312 19.8837 17.2012 19.8837 16.8112 19.4937L11.8612 14.5437L10.6512 17.3737C10.4312 17.8837 9.93124 18.2137 9.38124 18.2137C8.39124 18.2137 7.72124 17.2037 8.11124 16.2837L9.76124 12.4437L3.50124 6.18375C3.11124 5.79375 3.11124 5.16375 3.50124 4.77375C3.68807 4.58649 3.94172 4.48126 4.20624 4.48126C4.47076 4.48126 4.72441 4.58649 4.91124 4.77375Z" fill="black" fill-opacity="0.54"/>
</g>
</svg>
