<svg width="24" height="24" viewBox="0 0 24 24" fill="none" xmlns="http://www.w3.org/2000/svg">
<g id="format_strikethrough_24px">
<path id="icon/editor/format_strikethrough_24px" fill-rule="evenodd" clip-rule="evenodd" d="M5 6C5 6.83 5.67 7.5 6.5 7.5H10V10.5H14V7.5H17.5C18.33 7.5 19 6.83 19 6C19 5.17 18.33 4.5 17.5 4.5H6.5C5.67 4.5 5 5.17 5 6ZM12 19.5C13.1 19.5 14 18.6 14 17.5V16.5H10V17.5C10 18.6 10.9 19.5 12 19.5ZM20 14.5H4C3.45 14.5 3 14.05 3 13.5C3 12.95 3.45 12.5 4 12.5H20C20.55 12.5 21 12.95 21 13.5C21 14.05 20.55 14.5 20 14.5Z" fill="black" fill-opacity="0.54"/>
</g>
</svg>
