<svg width="24" height="24" viewBox="0 0 24 24" fill="none" xmlns="http://www.w3.org/2000/svg">
<g id="format_color_text_24px">
<path id="Shape" d="M2 18.5H22C23.1 18.5 24 19.4 24 20.5C24 21.6 23.1 22.5 22 22.5H2C0.9 22.5 0 21.6 0 20.5C0 19.4 0.9 18.5 2 18.5Z" fill="black" fill-opacity="0.54"/>
<path id="Subtract" fill-rule="evenodd" clip-rule="evenodd" d="M6.06 14.08L10.63 2.43C10.85 1.87 11.4 1.5 12 1.5C12.6 1.5 13.14 1.87 13.37 2.43L17.94 14.08C18.21 14.76 17.7 15.5 16.97 15.5C16.53 15.5 16.14 15.23 15.99 14.82L15.12 12.5H8.87L8.01 14.82C7.85 15.23 7.46 15.5 7.03 15.5C6.29 15.5 5.79 14.76 6.06 14.08ZM12 4.17001L9.62 10.5H14.38L12 4.17001Z" fill="black" fill-opacity="0.54"/>
</g>
</svg>
