<svg width="24" height="24" viewBox="0 0 24 24" fill="none" xmlns="http://www.w3.org/2000/svg">
<g id="format_size_24px">
<path id="icon/editor/format_size_24px" fill-rule="evenodd" clip-rule="evenodd" d="M10 7.5C9.17 7.5 8.5 6.83 8.5 6C8.5 5.17 9.17 4.5 10 4.5H20C20.83 4.5 21.5 5.17 21.5 6C21.5 6.83 20.83 7.5 20 7.5H16.5V18C16.5 18.83 15.83 19.5 15 19.5C14.17 19.5 13.5 18.83 13.5 18V7.5H10ZM5.5 12.5H4C3.17 12.5 2.5 11.83 2.5 11C2.5 10.17 3.17 9.5 4 9.5H10C10.83 9.5 11.5 10.17 11.5 11C11.5 11.83 10.83 12.5 10 12.5H8.5V18C8.5 18.83 7.83 19.5 7 19.5C6.17 19.5 5.5 18.83 5.5 18V12.5Z" fill="black" fill-opacity="0.54"/>
</g>
</svg>
