<svg width="24" height="24" viewBox="0 0 24 24" fill="none" xmlns="http://www.w3.org/2000/svg">
<g id="highlight_24px">
<path id="icon/editor/highlight_24px" fill-rule="evenodd" clip-rule="evenodd" d="M13 3C13 2.45 12.55 2 12 2C11.45 2 11 2.45 11 3V4C11 4.55 11.45 5 12 5C12.55 5 13 4.55 13 4V3ZM8.99997 17L6.28997 14.29C6.10997 14.11 5.99997 13.85 5.99997 13.59V10C5.99997 9.45 6.44997 9 6.99997 9H17C17.55 9 18 9.45 18 10V13.58C18 13.85 17.9 14.1 17.71 14.29L15 17V21C15 21.55 14.55 22 14 22H9.99997C9.44997 22 8.99997 21.55 8.99997 21V17ZM4.20997 5.17C4.59997 4.78 5.22997 4.78 5.62997 5.17L6.33997 5.88C6.72997 6.27 6.72997 6.9 6.33997 7.29C5.94997 7.68 5.31997 7.68 4.92997 7.29L4.20997 6.58C4.02271 6.39317 3.91748 6.13952 3.91748 5.875C3.91748 5.61048 4.02271 5.35683 4.20997 5.17ZM18.38 5.17L17.67 5.88C17.4827 6.06683 17.3775 6.32048 17.3775 6.585C17.3775 6.84952 17.4827 7.10317 17.67 7.29C18.06 7.68 18.69 7.68 19.08 7.29L19.79 6.58C20.18 6.19 20.18 5.56 19.79 5.17C19.4 4.78 18.77 4.78 18.38 5.17Z" fill="black" fill-opacity="0.54"/>
</g>
</svg>
