<svg width="24" height="24" viewBox="0 0 24 24" fill="none" xmlns="http://www.w3.org/2000/svg">
<g id="merge_type_24px">
<path id="icon/editor/merge_type_24px" fill-rule="evenodd" clip-rule="evenodd" d="M11.0049 8.14876H8.71494C8.26494 8.14876 8.04494 7.60876 8.35494 7.29876L11.6449 4.00876C11.8449 3.80876 12.1549 3.80876 12.3549 4.00876L15.6449 7.29876C15.9649 7.60876 15.7449 8.14876 15.2949 8.14876H13.0049V13.7388C13.0049 14.2688 12.7949 14.7688 12.4149 15.1488L7.70494 19.8488C7.31494 20.2388 6.68494 20.2388 6.29494 19.8488C5.90494 19.4588 5.90494 18.8288 6.29494 18.4388L11.0049 13.7388V8.14876ZM17.7049 18.4388C18.0949 18.8288 18.0949 19.4588 17.7049 19.8488C17.3249 20.2388 16.6849 20.2388 16.2949 19.8488L13.5949 17.1488L15.0049 15.7388L17.7049 18.4388Z" fill="black" fill-opacity="0.54"/>
</g>
</svg>
