<svg width="24" height="24" viewBox="0 0 24 24" fill="none" xmlns="http://www.w3.org/2000/svg">
<g id="money_off_24px">
<path id="icon/editor/money_off_24px" fill-rule="evenodd" clip-rule="evenodd" d="M14.81 8.3C14.55 7.44 13.84 6.9 12.42 6.9C12.02 6.9 11.65 6.95 11.33 7.03L9.81996 5.52C10.17 5.37 10.53 5.24 10.92 5.16V4.5C10.92 3.67 11.59 3 12.42 3C13.25 3 13.92 3.67 13.92 4.5V5.19C15.44 5.56 16.41 6.49 16.85 7.64C17.1 8.29 16.58 9 15.88 9H15.82C15.37 9 14.94 8.73 14.81 8.3ZM4.68996 6.03C4.29996 5.64 4.29996 5.01 4.68996 4.62C4.87679 4.43275 5.13044 4.32751 5.39496 4.32751C5.65948 4.32751 5.91313 4.43275 6.09996 4.62L19.31 17.83C19.7 18.22 19.7 18.85 19.31 19.24C18.92 19.63 18.29 19.63 17.9 19.24L16.39 17.73C15.76 18.3 14.89 18.67 13.93 18.85V19.5C13.93 20.33 13.26 21 12.43 21C11.6 21 10.93 20.33 10.93 19.5V18.83C9.45996 18.51 8.15996 17.72 7.56996 16.39C7.27996 15.74 7.79996 15 8.51996 15H8.68996C9.09996 15 9.43996 15.28 9.58996 15.67C9.91996 16.51 10.77 17.1 12.42 17.1C13.79 17.1 14.5 16.68 14.84 16.19L11.33 12.68C8.97996 11.99 7.41996 10.85 7.41996 8.77L4.68996 6.03Z" fill="black" fill-opacity="0.54"/>
</g>
</svg>
