<svg width="24" height="24" viewBox="0 0 24 24" fill="none" xmlns="http://www.w3.org/2000/svg">
<g id="multiline_chart_24px">
<path id="icon/editor/multiline_chart_24px" d="M21.3371 6.73123L21.2771 6.67123C20.8871 6.28123 20.2471 6.30123 19.8871 6.71123L17.7071 9.16123C15.6571 6.85123 12.8071 5.45123 9.58714 5.45123C7.08714 5.45123 4.75714 6.32123 2.83714 7.75123C2.36714 8.10123 2.31714 8.79123 2.72714 9.20123L2.78714 9.26123C3.11714 9.59123 3.64714 9.65123 4.01714 9.37123C5.60714 8.17123 7.51714 7.45123 9.58714 7.45123C12.3271 7.45123 14.6771 8.71123 16.3571 10.6912L13.4771 13.9312L10.1871 10.6412C10.0003 10.454 9.74666 10.3487 9.48214 10.3487C9.21762 10.3487 8.96397 10.454 8.77714 10.6412L2.65714 16.7712C2.28714 17.1412 2.28714 17.7512 2.65714 18.1212L2.80714 18.2712C3.17714 18.6412 3.78714 18.6412 4.15714 18.2712L9.47714 12.9412L12.7271 16.1912C13.1371 16.6012 13.7971 16.5812 14.1771 16.1512L17.5271 12.3912C18.1471 13.5112 18.6071 14.7812 18.8471 16.1212C18.9271 16.5912 19.3171 16.9412 19.7971 16.9412H19.8871C20.4871 16.9412 20.9371 16.3912 20.8271 15.8012C20.5071 13.9512 19.8471 12.2612 18.9371 10.8012L21.3771 8.05123C21.7171 7.67123 21.6971 7.09123 21.3371 6.73123Z" fill="black" fill-opacity="0.54"/>
</g>
</svg>
