<svg width="24" height="24" viewBox="0 0 24 24" fill="none" xmlns="http://www.w3.org/2000/svg">
<g id="scatter_plot_24px">
<path id="icon/editor/scatter_plot_24px" fill-rule="evenodd" clip-rule="evenodd" d="M11.2 3.20001C9.5431 3.20001 8.19995 4.54316 8.19995 6.20001C8.19995 7.85687 9.5431 9.20001 11.2 9.20001C12.8568 9.20001 14.2 7.85687 14.2 6.20001C14.2 4.54316 12.8568 3.20001 11.2 3.20001ZM7.19995 11.2C6.12815 11.2 5.13777 11.7718 4.60187 12.7C4.06598 13.6282 4.06598 14.7718 4.60187 15.7C5.13777 16.6282 6.12815 17.2 7.19995 17.2C8.27175 17.2 9.26213 16.6282 9.79803 15.7C10.3339 14.7718 10.3339 13.6282 9.79803 12.7C9.26213 11.7718 8.27175 11.2 7.19995 11.2ZM13.8 17.8C13.8 16.1432 15.1431 14.8 16.8 14.8C18.4568 14.8 19.8 16.1432 19.8 17.8C19.8 19.4569 18.4568 20.8 16.8 20.8C15.1431 20.8 13.8 19.4569 13.8 17.8Z" fill="black" fill-opacity="0.54"/>
</g>
</svg>
