<svg width="24" height="24" viewBox="0 0 24 24" fill="none" xmlns="http://www.w3.org/2000/svg">
<g id="show_chart_24px">
<path id="icon/editor/show_chart_24px" d="M4.18605 17.7645L9.48605 12.4645L12.7361 15.7145C13.1461 16.1245 13.8061 16.1045 14.1861 15.6745L21.3561 7.60453C21.7061 7.21453 21.6861 6.61453 21.3161 6.23453C20.9161 5.83453 20.2461 5.84453 19.8661 6.27453L13.4761 13.4545L10.1861 10.1645C9.99922 9.97727 9.74557 9.87204 9.48105 9.87204C9.21654 9.87204 8.96289 9.97727 8.77605 10.1645L2.68605 16.2645C2.29605 16.6545 2.29605 17.2845 2.68605 17.6745L2.77605 17.7645C3.16605 18.1545 3.80605 18.1545 4.18605 17.7645Z" fill="black" fill-opacity="0.54"/>
</g>
</svg>
