<svg width="24" height="24" viewBox="0 0 24 24" fill="none" xmlns="http://www.w3.org/2000/svg">
<g id="strikethrough_s_24px">
<path id="icon/editor/strikethrough_s_24px" fill-rule="evenodd" clip-rule="evenodd" d="M14.44 8.165C14.54 8.425 14.59 8.705 14.59 9.015H17.6C17.6 8.355 17.47 7.755 17.22 7.205C16.97 6.655 16.61 6.175 16.14 5.775C15.68 5.375 15.11 5.055 14.45 4.835C13.78 4.605 13.05 4.495 12.24 4.495C11.45 4.495 10.72 4.595 10.06 4.785C9.41 4.985 8.84 5.265 8.36 5.615C7.88 5.975 7.51 6.405 7.25 6.905C6.98 7.415 6.85 7.96499 6.85 8.575C6.85 9.21499 6.98 9.765 7.24 10.245C7.27155 10.3081 7.31556 10.3774 7.35728 10.4432C7.36844 10.4608 7.37944 10.4781 7.39 10.495H12C11.36 10.275 10.97 10.045 10.59 9.795C10.1 9.465 9.85 9.065 9.85 8.585C9.85 8.355 9.9 8.135 10 7.925C10.1 7.715 10.25 7.535 10.44 7.375C10.63 7.225 10.87 7.105 11.16 7.015C11.45 6.925 11.8 6.885 12.19 6.885C12.59 6.885 12.95 6.945 13.25 7.045C13.55 7.15499 13.8 7.295 14 7.485C14.2 7.675 14.35 7.895 14.44 8.165ZM3 12.495C3 11.945 3.45 11.495 4 11.495H20C20.55 11.495 21 11.945 21 12.495V12.515C21 13.065 20.55 13.515 20 13.515H17.13C17.19 13.615 17.25 13.735 17.3 13.845C17.51 14.315 17.61 14.855 17.61 15.455C17.61 16.095 17.48 16.665 17.23 17.165C16.98 17.665 16.62 18.095 16.16 18.435C15.7 18.775 15.14 19.035 14.49 19.225C13.84 19.415 13.11 19.505 12.31 19.505C11.83 19.505 11.35 19.455 10.87 19.375C10.39 19.285 9.93 19.155 9.49 18.985C9.05 18.815 8.64 18.595 8.27 18.335C7.89 18.075 7.57 17.765 7.29 17.415C7.01 17.055 6.8 16.655 6.64 16.205C6.48 15.755 6.4 15.175 6.4 14.625H9.37C9.37 15.075 9.48 15.525 9.62 15.835C9.76 16.145 9.96 16.395 10.21 16.585C10.46 16.775 10.77 16.915 11.12 17.005C11.47 17.095 11.87 17.135 12.3 17.135C12.68 17.135 13.02 17.085 13.31 17.005C13.6 16.915 13.83 16.805 14.02 16.655C14.21 16.505 14.35 16.325 14.44 16.125C14.53 15.915 14.58 15.695 14.58 15.465C14.58 15.205 14.54 14.975 14.47 14.775C14.39 14.565 14.25 14.375 14.04 14.205C13.83 14.035 13.54 13.865 13.17 13.695C13.0936 13.6644 12.9991 13.6313 12.901 13.5969C12.8064 13.5637 12.7084 13.5294 12.62 13.495H4C3.45 13.495 3 13.045 3 12.495Z" fill="black" fill-opacity="0.54"/>
</g>
</svg>
