<svg width="24" height="24" viewBox="0 0 24 24" fill="none" xmlns="http://www.w3.org/2000/svg">
<g id="wrap_text_24px">
<path id="icon/editor/wrap_text_24px" fill-rule="evenodd" clip-rule="evenodd" d="M4.50049 6.35028H18.5005C19.0505 6.35028 19.5005 5.90028 19.5005 5.35028C19.5005 4.80028 19.0505 4.35028 18.5005 4.35028H4.50049C3.95049 4.35028 3.50049 4.80028 3.50049 5.35028C3.50049 5.90028 3.95049 6.35028 4.50049 6.35028ZM16.3305 10.3503H4.50049C3.95049 10.3503 3.50049 10.8003 3.50049 11.3503C3.50049 11.9003 3.95049 12.3503 4.50049 12.3503H16.6305C17.6305 12.3503 18.5605 13.0203 18.7205 14.0103C18.9305 15.2603 17.9605 16.3503 16.7505 16.3503H14.5005V15.5603C14.5005 15.1103 13.9605 14.8903 13.6505 15.2103L11.8605 17.0003C11.6605 17.2003 11.6605 17.5103 11.8605 17.7103L13.6505 19.5003C13.9705 19.8203 14.5005 19.5903 14.5005 19.1503V18.3503H16.5005C18.8405 18.3503 20.7105 16.3403 20.4805 13.9603C20.2805 11.8803 18.4205 10.3503 16.3305 10.3503ZM4.50049 16.3503H8.50049C9.05049 16.3503 9.50049 16.8003 9.50049 17.3503C9.50049 17.9003 9.05049 18.3503 8.50049 18.3503H4.50049C3.95049 18.3503 3.50049 17.9003 3.50049 17.3503C3.50049 16.8003 3.95049 16.3503 4.50049 16.3503Z" fill="black" fill-opacity="0.54"/>
</g>
</svg>
