<svg width="24" height="24" viewBox="0 0 24 24" fill="none" xmlns="http://www.w3.org/2000/svg">
<g id="accessible_24px">
<path id="icon/action/accessible_24px" fill-rule="evenodd" clip-rule="evenodd" d="M12 2C10.8954 2 10 2.89543 10 4C10 5.10457 10.8954 6 12 6C13.1046 6 14 5.10457 14 4C14 2.89543 13.1046 2 12 2ZM19 11.9C19 11.41 18.64 11.01 18.16 10.93C16.91 10.72 15.73 10.05 14.93 9.17L13.64 7.74C13.47 7.55 13.26 7.4 13.03 7.29C13.025 7.29 13.0225 7.2875 13.02 7.285C13.0175 7.2825 13.015 7.28 13.01 7.28H13C12.63 7.07 12.22 6.97 11.75 7.03C10.73 7.15 10 8.07 10 9.1V15C10 16.1 10.9 17 12 17H17V21C17 21.55 17.45 22 18 22C18.55 22 19 21.55 19 21V16.5C19 15.4 18.1 14.5 17 14.5H14V11.05C15 11.88 16.4 12.59 17.8 12.87C18.42 13 19 12.53 19 11.9ZM10 20C11.31 20 12.42 19.16 12.83 18H14.9C14.44 20.28 12.42 22 10 22C7.24 22 5 19.76 5 17C5 14.58 6.72 12.56 9 12.1V14.17C7.84 14.59 7 15.69 7 17C7 18.66 8.34 20 10 20Z" fill="black" fill-opacity="0.54"/>
</g>
</svg>
