<svg width="24" height="24" viewBox="0 0 24 24" fill="none" xmlns="http://www.w3.org/2000/svg">
<g id="accessible_forward_24px">
<path id="icon/action/accessible_forward_24px" fill-rule="evenodd" clip-rule="evenodd" d="M17.5 2.27002C16.3954 2.27002 15.5 3.16545 15.5 4.27002C15.5 5.37459 16.3954 6.27002 17.5 6.27002C18.6046 6.27002 19.5 5.37459 19.5 4.27002C19.5 3.16545 18.6046 2.27002 17.5 2.27002ZM14.5 16.73H12.5C12.5 18.38 11.15 19.73 9.5 19.73C7.85 19.73 6.5 18.38 6.5 16.73C6.5 15.08 7.85 13.73 9.5 13.73V11.73C6.74 11.73 4.5 13.97 4.5 16.73C4.5 19.49 6.74 21.73 9.5 21.73C12.26 21.73 14.5 19.49 14.5 16.73ZM15.64 13.23H17.5C18.6 13.23 19.5 14.13 19.5 15.23V19.73C19.5 20.28 19.05 20.73 18.5 20.73C17.95 20.73 17.5 20.28 17.5 19.73V15.73H12.52C11.06 15.73 10.07 14.16 10.67 12.83L12.5 8.73002H10.29L9.99 9.44002C9.79 9.91002 9.28 10.16 8.79 10.02C8.22 9.86002 7.9 9.25002 8.11 8.69002L8.39 7.93002C8.72 7.20002 9.45 6.73002 10.26 6.73002H15.46C16.94 6.73002 17.92 8.23002 17.31 9.56002L15.64 13.23Z" fill="black" fill-opacity="0.54"/>
</g>
</svg>
