<svg width="24" height="24" viewBox="0 0 24 24" fill="none" xmlns="http://www.w3.org/2000/svg">
<g id="account_balance_24px">
<path id="icon/action/account_balance_24px" fill-rule="evenodd" clip-rule="evenodd" d="M3.17 6.02122L11.07 1.86122C11.65 1.55122 12.35 1.55122 12.93 1.86122L20.83 6.02122C21.24 6.23122 21.5 6.66122 21.5 7.12122C21.5 7.81122 20.94 8.37122 20.26 8.37122H3.75C3.06 8.37122 2.5 7.81122 2.5 7.12122C2.5 6.66122 2.76 6.23122 3.17 6.02122ZM4.5 11.8712V15.8712C4.5 16.7012 5.17 17.3712 6 17.3712C6.83 17.3712 7.5 16.7012 7.5 15.8712V11.8712C7.5 11.0412 6.83 10.3712 6 10.3712C5.17 10.3712 4.5 11.0412 4.5 11.8712ZM10.5 11.8712V15.8712C10.5 16.7012 11.17 17.3712 12 17.3712C12.83 17.3712 13.5 16.7012 13.5 15.8712V11.8712C13.5 11.0412 12.83 10.3712 12 10.3712C11.17 10.3712 10.5 11.0412 10.5 11.8712ZM21.5 20.8712C21.5 21.7012 20.83 22.3712 20 22.3712H4C3.17 22.3712 2.5 21.7012 2.5 20.8712C2.5 20.0412 3.17 19.3712 4 19.3712H20C20.83 19.3712 21.5 20.0412 21.5 20.8712ZM16.5 11.8712V15.8712C16.5 16.7012 17.17 17.3712 18 17.3712C18.83 17.3712 19.5 16.7012 19.5 15.8712V11.8712C19.5 11.0412 18.83 10.3712 18 10.3712C17.17 10.3712 16.5 11.0412 16.5 11.8712Z" fill="black" fill-opacity="0.54"/>
</g>
</svg>
