<svg width="24" height="24" viewBox="0 0 24 24" fill="none" xmlns="http://www.w3.org/2000/svg">
<g id="3d_rotation_24px">
<path id="icon/action/3d_rotation_24px" fill-rule="evenodd" clip-rule="evenodd" d="M15.15 3.8458L16.48 2.51593C19.57 3.97579 21.82 6.8855 22.37 10.3751C22.43 10.7851 22.81 11.0651 23.23 10.9951C23.64 10.9351 23.92 10.5451 23.85 10.1352C23.25 6.32555 20.89 3.12587 17.61 1.38605C15.94 0.496136 13.78 -0.123802 11.34 0.026183L15.15 3.8458ZM8.41001 14.9647C8.22001 14.9647 8.04001 14.9347 7.89001 14.8847C7.73001 14.8247 7.60001 14.7547 7.49001 14.6447C7.38001 14.5447 7.29001 14.4247 7.23001 14.2748C7.17001 14.1348 7.14001 13.9748 7.14001 13.8048H5.84001C5.84001 14.1648 5.91001 14.4847 6.05001 14.7547C6.19001 15.0247 6.38001 15.2547 6.61001 15.4446C6.85001 15.6246 7.12001 15.7646 7.43001 15.8546C7.73001 15.9546 8.05001 16.0046 8.39001 16.0046C8.76001 16.0046 9.11001 15.9546 9.42001 15.8546C9.74001 15.7546 10.02 15.6046 10.25 15.4146C10.48 15.2247 10.67 14.9847 10.8 14.6947C10.93 14.4047 11 14.0848 11 13.7248C11 13.5348 10.98 13.3449 10.93 13.1649C10.88 12.9849 10.81 12.8149 10.7 12.6549C10.6 12.4949 10.46 12.3549 10.3 12.225C10.13 12.095 9.93001 11.995 9.69001 11.915C9.89001 11.825 10.06 11.715 10.21 11.585C10.36 11.455 10.48 11.3151 10.58 11.1651C10.68 11.0151 10.75 10.8651 10.8 10.7051C10.85 10.5451 10.87 10.3851 10.87 10.2252C10.87 9.8652 10.81 9.54523 10.69 9.26526C10.57 8.98529 10.4 8.75531 10.18 8.57533C9.98001 8.38535 9.71001 8.24536 9.41001 8.14537C9.10001 8.05538 8.76001 8.00538 8.39001 8.00538C8.03001 8.00538 7.70001 8.05538 7.39001 8.16537C7.09001 8.27536 6.82001 8.42534 6.60001 8.61532C6.39001 8.8053 6.22001 9.02528 6.09001 9.28526C5.97001 9.54523 5.91001 9.8252 5.91001 10.1352H7.21001C7.21001 9.96519 7.24001 9.8152 7.30001 9.68522C7.36001 9.55523 7.44001 9.43524 7.55001 9.34525C7.66001 9.25526 7.78001 9.17527 7.93001 9.12527C8.08001 9.07528 8.23001 9.04528 8.41001 9.04528C8.81001 9.04528 9.11001 9.14527 9.30001 9.35525C9.49001 9.55523 9.59001 9.8452 9.59001 10.2152C9.59001 10.3951 9.56001 10.5551 9.51001 10.7051C9.46001 10.8551 9.37001 10.9751 9.26001 11.0751C9.15001 11.1751 9.01001 11.2551 8.85001 11.3151C8.69001 11.375 8.49001 11.405 8.27001 11.405H7.50001V12.4349H8.27001C8.49001 12.4349 8.69001 12.4549 8.87001 12.5049C9.05001 12.5549 9.20001 12.6349 9.32001 12.7349C9.44001 12.8449 9.54001 12.9749 9.61001 13.1349C9.68001 13.2949 9.71001 13.4848 9.71001 13.7048C9.71001 14.1148 9.59001 14.4247 9.36001 14.6347C9.13001 14.8647 8.81001 14.9647 8.41001 14.9647ZM17.71 10.2452C17.53 9.77521 17.28 9.37525 16.96 9.04528C16.64 8.71531 16.26 8.45534 15.82 8.27536C15.39 8.09538 14.9 8.00538 14.36 8.00538H12V16.0046H14.3C14.85 16.0046 15.36 15.9146 15.81 15.7346C16.26 15.5546 16.65 15.3047 16.97 14.9747C17.29 14.6447 17.54 14.2448 17.71 13.7848C17.88 13.3149 17.97 12.7949 17.97 12.215V11.815C17.97 11.2351 17.88 10.7151 17.71 10.2452ZM16.44 13.3349C16.53 12.9949 16.58 12.6249 16.58 12.205V11.795C16.58 10.9251 16.39 10.2652 16.01 9.8052C15.64 9.34525 15.09 9.11527 14.37 9.11527H13.4V14.8947H14.31C14.68 14.8947 15.01 14.8347 15.3 14.7147C15.58 14.5947 15.82 14.4147 16.01 14.1848C16.2 13.9548 16.34 13.6648 16.44 13.3349ZM7.52001 21.484L8.85001 20.1542L12.66 23.9738C10.22 24.1238 8.06001 23.5038 6.39001 22.6139C3.11001 20.8741 0.750013 17.6744 0.150013 13.8648C0.0800133 13.4548 0.360013 13.0649 0.770013 13.0049C1.19001 12.9349 1.57001 13.2149 1.63001 13.6248C2.18001 17.1145 4.43001 20.0242 7.52001 21.484Z" fill="black" fill-opacity="0.54"/>
</g>
</svg>
