<svg width="24" height="24" viewBox="0 0 24 24" fill="none" xmlns="http://www.w3.org/2000/svg">
<g id="add_shopping_cart_24px">
<path id="icon/action/add_shopping_cart_24px" fill-rule="evenodd" clip-rule="evenodd" d="M14.097 8.5C14.097 9.05 13.647 9.5 13.097 9.5C12.547 9.5 12.097 9.05 12.097 8.5V6.5H10.097C9.54705 6.5 9.09705 6.05 9.09705 5.5C9.09705 4.95 9.54705 4.5 10.097 4.5H12.097V2.5C12.097 1.95 12.547 1.5 13.097 1.5C13.647 1.5 14.097 1.95 14.097 2.5V4.5H16.097C16.647 4.5 17.097 4.95 17.097 5.5C17.097 6.05 16.647 6.5 16.097 6.5H14.097V8.5ZM6.10705 20.5C6.10705 19.4 6.99705 18.5 8.09705 18.5C9.19705 18.5 10.097 19.4 10.097 20.5C10.097 21.6 9.19705 22.5 8.09705 22.5C6.99705 22.5 6.10705 21.6 6.10705 20.5ZM18.097 18.5C16.997 18.5 16.107 19.4 16.107 20.5C16.107 21.6 16.997 22.5 18.097 22.5C19.197 22.5 20.097 21.6 20.097 20.5C20.097 19.4 19.197 18.5 18.097 18.5ZM16.647 13.5H9.19705L8.09705 15.5H19.097C19.647 15.5 20.097 15.95 20.097 16.5C20.097 17.05 19.647 17.5 19.097 17.5H8.09705C6.57705 17.5 5.61705 15.87 6.34705 14.53L7.69705 12.09L4.09705 4.5H3.09705C2.54705 4.5 2.09705 4.05 2.09705 3.5C2.09705 2.95 2.54705 2.5 3.09705 2.5H4.73705C5.11705 2.5 5.47705 2.72 5.63705 3.07L9.62705 11.5H16.647L20.037 5.37C20.297 4.89 20.907 4.72 21.387 4.98C21.867 5.25 22.047 5.86 21.777 6.34L18.397 12.47C18.057 13.09 17.397 13.5 16.647 13.5Z" fill="black" fill-opacity="0.54"/>
</g>
</svg>
