<svg width="24" height="24" viewBox="0 0 24 24" fill="none" xmlns="http://www.w3.org/2000/svg">
<g id="alarm_add_24px">
<path id="icon/action/alarm_add_24px" fill-rule="evenodd" clip-rule="evenodd" d="M21.18 4.9007L18.1 2.3407C17.68 1.9907 17.05 2.0407 16.69 2.4707C16.34 2.8907 16.4 3.5207 16.82 3.8807L19.89 6.4407C20.31 6.7907 20.94 6.7407 21.3 6.3107C21.66 5.8907 21.6 5.2607 21.18 4.9007ZM4.10001 6.4407L7.17001 3.8807C7.60001 3.5207 7.66001 2.8907 7.30001 2.4707C6.95001 2.0407 6.32001 1.9907 5.90001 2.3407L2.82001 4.9007C2.40001 5.2607 2.34001 5.8907 2.70001 6.3107C3.05001 6.7407 3.68001 6.7907 4.10001 6.4407ZM3.00001 12.8907C3.00001 7.9207 7.03001 3.8907 12 3.8907C16.97 3.8907 21 7.9207 21 12.8907C21 17.8607 16.97 21.8907 12 21.8907C7.03001 21.8907 3.00001 17.8607 3.00001 12.8907ZM12 19.8907C8.14001 19.8907 5.00001 16.7507 5.00001 12.8907C5.00001 9.0307 8.14001 5.8907 12 5.8907C15.86 5.8907 19 9.0307 19 12.8907C19 16.7507 15.86 19.8907 12 19.8907ZM13 11.8907H15C15.55 11.8907 16 12.3407 16 12.8907C16 13.4407 15.55 13.8907 15 13.8907H13V15.8907C13 16.4407 12.55 16.8907 12 16.8907C11.45 16.8907 11 16.4407 11 15.8907V13.8907H9.00001C8.45001 13.8907 8.00001 13.4407 8.00001 12.8907C8.00001 12.3407 8.45001 11.8907 9.00001 11.8907H11V9.8907C11 9.3407 11.45 8.8907 12 8.8907C12.55 8.8907 13 9.3407 13 9.8907V11.8907Z" fill="black" fill-opacity="0.54"/>
</g>
</svg>
