<svg width="24" height="24" viewBox="0 0 24 24" fill="none" xmlns="http://www.w3.org/2000/svg">
<g id="alarm_on_24px">
<path id="icon/action/alarm_on_24px" fill-rule="evenodd" clip-rule="evenodd" d="M7.17001 3.8807L4.10001 6.4407C3.68001 6.7907 3.05001 6.7407 2.70001 6.3107C2.34001 5.8907 2.40001 5.2607 2.82001 4.9007L5.90001 2.3407C6.32001 1.9907 6.95001 2.0407 7.30001 2.4707C7.66001 2.8907 7.60001 3.5207 7.17001 3.8807ZM21.18 4.9007L18.1 2.3407C17.68 1.9907 17.05 2.0407 16.69 2.4707C16.34 2.8907 16.4 3.5207 16.82 3.8807L19.89 6.4407C20.31 6.7907 20.94 6.7407 21.3 6.3107C21.66 5.8907 21.6 5.2607 21.18 4.9007ZM14.94 10.0007L10.54 14.4207L8.94001 12.8207C8.65001 12.5307 8.17001 12.5307 7.88001 12.8207C7.59001 13.1107 7.59001 13.5907 7.88001 13.8807L10 16.0007C10.29 16.2907 10.77 16.2907 11.06 16.0007L16 11.0607C16.29 10.7707 16.29 10.2907 16 10.0007C15.71 9.7107 15.23 9.7107 14.94 10.0007ZM12 3.8907C7.03001 3.8907 3.00001 7.9207 3.00001 12.8907C3.00001 17.8607 7.03001 21.8907 12 21.8907C16.97 21.8907 21 17.8607 21 12.8907C21 7.9207 16.97 3.8907 12 3.8907ZM5.00001 12.8907C5.00001 16.7507 8.14001 19.8907 12 19.8907C15.86 19.8907 19 16.7507 19 12.8907C19 9.0307 15.86 5.8907 12 5.8907C8.14001 5.8907 5.00001 9.0307 5.00001 12.8907Z" fill="black" fill-opacity="0.54"/>
</g>
</svg>
