<svg width="24" height="24" viewBox="0 0 24 24" fill="none" xmlns="http://www.w3.org/2000/svg">
<g id="alarm_off_24px">
<path id="icon/action/alarm_off_24px" fill-rule="evenodd" clip-rule="evenodd" d="M20.1317 6.45451C20.5517 6.80451 21.1617 6.74451 21.5117 6.33451L21.5417 6.30451C21.8917 5.88451 21.8317 5.27451 21.4217 4.92451L18.3217 2.33451C17.9017 1.98451 17.2917 2.04451 16.9417 2.45451L16.9117 2.48451C16.5617 2.90451 16.6217 3.51451 17.0317 3.86451L20.1317 6.45451ZM3.93175 2.68451C3.55175 2.30451 2.93175 2.30451 2.54175 2.68451L2.52175 2.71451C2.13175 3.10451 2.13175 3.72451 2.52175 4.10451L3.20175 4.78451L3.03175 4.92451C2.61175 5.26451 2.56175 5.88451 2.90175 6.30451L2.93175 6.33451C3.28175 6.75451 3.89175 6.80451 4.31175 6.45451L4.62175 6.20451L5.42175 7.00451C4.05175 8.58451 3.22175 10.6445 3.22175 12.8945C3.22175 17.8645 7.25175 21.8945 12.2217 21.8945C14.4717 21.8945 16.5317 21.0645 18.1117 19.6945L19.5217 21.1045C19.9017 21.4845 20.5217 21.4845 20.9117 21.1045L20.9417 21.0745C21.3217 20.6945 21.3217 20.0745 20.9417 19.6845L3.93175 2.68451ZM10.2617 6.18451C10.8817 6.00451 11.5417 5.89451 12.2217 5.89451C16.0817 5.89451 19.2217 9.03451 19.2217 12.8945C19.2217 13.5745 19.1117 14.2345 18.9317 14.8545L20.4917 16.4145C20.9617 15.3345 21.2217 14.1445 21.2217 12.8945C21.2217 7.92451 17.1917 3.89451 12.2217 3.89451C10.9717 3.89451 9.78175 4.15451 8.69175 4.61451L10.2617 6.18451ZM5.22175 12.8945C5.22175 16.7545 8.36175 19.8945 12.2217 19.8945C13.9217 19.8945 15.4817 19.2845 16.6917 18.2745L6.84175 8.42451C5.83175 9.63451 5.22175 11.1945 5.22175 12.8945ZM7.54175 2.48451C7.80175 2.80451 7.83175 3.23451 7.65175 3.57451L6.31175 2.23451C6.71175 2.02451 7.21175 2.09451 7.51175 2.45451L7.54175 2.48451Z" fill="black" fill-opacity="0.54"/>
</g>
</svg>
