<svg width="24" height="24" viewBox="0 0 24 24" fill="none" xmlns="http://www.w3.org/2000/svg">
<g id="assignment_ind_24px">
<path id="icon/action/assignment_ind_24px" fill-rule="evenodd" clip-rule="evenodd" d="M14.82 4H19C20.1 4 21 4.9 21 6V20C21 21.1 20.1 22 19 22H5C3.9 22 3 21.1 3 20V6C3 4.9 3.9 4 5 4H9.18C9.6 2.84 10.7 2 12 2C13.3 2 14.4 2.84 14.82 4ZM13 5C13 4.45 12.55 4 12 4C11.45 4 11 4.45 11 5C11 5.55 11.45 6 12 6C12.55 6 13 5.55 13 5ZM12 8C13.66 8 15 9.34 15 11C15 12.66 13.66 14 12 14C10.34 14 9 12.66 9 11C9 9.34 10.34 8 12 8ZM6 18.6V20H18V18.6C18 16.6 14 15.5 12 15.5C10 15.5 6 16.6 6 18.6Z" fill="black" fill-opacity="0.54"/>
</g>
</svg>
