<svg width="24" height="24" viewBox="0 0 24 24" fill="none" xmlns="http://www.w3.org/2000/svg">
<g id="assignment_return_24px">
<path id="icon/action/assignment_return_24px" fill-rule="evenodd" clip-rule="evenodd" d="M19 4H14.82C14.4 2.84 13.3 2 12 2C10.7 2 9.6 2.84 9.18 4H5C3.9 4 3 4.9 3 6V20C3 21.1 3.9 22 5 22H19C20.1 22 21 21.1 21 20V6C21 4.9 20.1 4 19 4ZM12 4C12.55 4 13 4.45 13 5C13 5.55 12.55 6 12 6C11.45 6 11 5.55 11 5C11 4.45 11.45 4 12 4ZM12 16H16V12H12V9L7.35 13.64C7.15 13.84 7.15 14.15 7.35 14.35L12 19V16Z" fill="black" fill-opacity="0.54"/>
</g>
</svg>
