<svg width="24" height="24" viewBox="0 0 24 24" fill="none" xmlns="http://www.w3.org/2000/svg">
<g id="assignment_24px">
<path id="icon/action/assignment_24px" fill-rule="evenodd" clip-rule="evenodd" d="M19 4H14.82C14.4 2.84 13.3 2 12 2C10.7 2 9.6 2.84 9.18 4H5C3.9 4 3 4.9 3 6V20C3 21.1 3.9 22 5 22H19C20.1 22 21 21.1 21 20V6C21 4.9 20.1 4 19 4ZM12 4C12.55 4 13 4.45 13 5C13 5.55 12.55 6 12 6C11.45 6 11 5.55 11 5C11 4.45 11.45 4 12 4ZM8 18H13C13.55 18 14 17.55 14 17C14 16.45 13.55 16 13 16H8C7.45 16 7 16.45 7 17C7 17.55 7.45 18 8 18ZM16 14H8C7.45 14 7 13.55 7 13C7 12.45 7.45 12 8 12H16C16.55 12 17 12.45 17 13C17 13.55 16.55 14 16 14ZM8 10H16C16.55 10 17 9.55 17 9C17 8.45 16.55 8 16 8H8C7.45 8 7 8.45 7 9C7 9.55 7.45 10 8 10Z" fill="black" fill-opacity="0.54"/>
</g>
</svg>
