<svg width="24" height="24" viewBox="0 0 24 24" fill="none" xmlns="http://www.w3.org/2000/svg">
<g id="autorenew_24px">
<path id="icon/action/autorenew_24px" fill-rule="evenodd" clip-rule="evenodd" d="M12 7.78982V5.99982C8.69 5.99982 6 8.68982 6 11.9998C6 12.7898 6.15 13.5598 6.44 14.2498C6.59 14.6098 6.48 15.0198 6.21 15.2898C5.7 15.7998 4.84 15.6198 4.57 14.9498C4.2 14.0398 4 13.0398 4 11.9998C4 7.57982 7.58 3.99982 12 3.99982V2.20982C12 1.75982 12.54 1.53982 12.85 1.84982L15.64 4.63982C15.84 4.83982 15.84 5.14982 15.64 5.34982L12.85 8.13982C12.54 8.45982 12 8.23982 12 7.78982ZM17.56 9.74982C17.41 9.39982 17.52 8.97982 17.79 8.70982C18.3 8.19982 19.16 8.37982 19.43 9.04982C19.8 9.95982 20 10.9598 20 11.9998C20 16.4198 16.42 19.9998 12 19.9998V21.7998C12 22.2398 11.46 22.4598 11.15 22.1498L8.36 19.3598C8.16 19.1598 8.16 18.8498 8.36 18.6498L11.15 15.8598C11.46 15.5398 12 15.7598 12 16.2098V17.9998C15.31 17.9998 18 15.3098 18 11.9998C18 11.2098 17.84 10.4498 17.56 9.74982Z" fill="black" fill-opacity="0.54"/>
</g>
</svg>
