<svg width="24" height="24" viewBox="0 0 24 24" fill="none" xmlns="http://www.w3.org/2000/svg">
<g id="bug_report_24px">
<path id="icon/action/bug_report_24px" fill-rule="evenodd" clip-rule="evenodd" d="M19 7.79622H17.19C16.74 7.01622 16.12 6.34622 15.37 5.83622L16.3 4.90622C16.69 4.51622 16.69 3.88622 16.3 3.49622C16.1132 3.30897 15.8595 3.20374 15.595 3.20374C15.3305 3.20374 15.0768 3.30897 14.89 3.49622L13.42 4.96622C12.96 4.85622 12.49 4.79622 12 4.79622C11.51 4.79622 11.04 4.85622 10.59 4.96622L9.11 3.49622C8.92317 3.30897 8.66952 3.20374 8.405 3.20374C8.14048 3.20374 7.88683 3.30897 7.7 3.49622C7.31 3.88622 7.31 4.51622 7.7 4.90622L8.62 5.83622C7.88 6.34622 7.26 7.01622 6.81 7.79622H5C4.45 7.79622 4 8.24622 4 8.79622C4 9.34622 4.45 9.79622 5 9.79622H6.09C6.04 10.1262 6 10.4562 6 10.7962V11.7962H5C4.45 11.7962 4 12.2462 4 12.7962C4 13.3462 4.45 13.7962 5 13.7962H6V14.7962C6 15.1362 6.04 15.4662 6.09 15.7962H5C4.45 15.7962 4 16.2462 4 16.7962C4 17.3462 4.45 17.7962 5 17.7962H6.81C7.85 19.5862 9.78 20.7962 12 20.7962C14.22 20.7962 16.15 19.5862 17.19 17.7962H19C19.55 17.7962 20 17.3462 20 16.7962C20 16.2462 19.55 15.7962 19 15.7962H17.91C17.96 15.4662 18 15.1362 18 14.7962V13.7962H19C19.55 13.7962 20 13.3462 20 12.7962C20 12.2462 19.55 11.7962 19 11.7962H18V10.7962C18 10.4562 17.96 10.1262 17.91 9.79622H19C19.55 9.79622 20 9.34622 20 8.79622C20 8.24622 19.55 7.79622 19 7.79622ZM11 15.7962C10.45 15.7962 10 15.3462 10 14.7962C10 14.2462 10.45 13.7962 11 13.7962H13C13.55 13.7962 14 14.2462 14 14.7962C14 15.3462 13.55 15.7962 13 15.7962H11ZM11 11.7962H13C13.55 11.7962 14 11.3462 14 10.7962C14 10.2462 13.55 9.79622 13 9.79622H11C10.45 9.79622 10 10.2462 10 10.7962C10 11.3462 10.45 11.7962 11 11.7962Z" fill="black" fill-opacity="0.54"/>
</g>
</svg>
