<svg width="24" height="24" viewBox="0 0 24 24" fill="none" xmlns="http://www.w3.org/2000/svg">
<g id="calendar_view_day_24px">
<path id="icon/action/calendar_view_day_24px" fill-rule="evenodd" clip-rule="evenodd" d="M20 5.5H4C3.45 5.5 3 5.95 3 6.5C3 7.05 3.45 7.5 4 7.5H20C20.55 7.5 21 7.05 21 6.5C21 5.95 20.55 5.5 20 5.5ZM4 9.5H20C20.55 9.5 21 9.95 21 10.5V13.5C21 14.05 20.55 14.5 20 14.5H4C3.45 14.5 3 14.05 3 13.5V10.5C3 9.95 3.45 9.5 4 9.5ZM4 16.5H20C20.55 16.5 21 16.95 21 17.5C21 18.05 20.55 18.5 20 18.5H4C3.45 18.5 3 18.05 3 17.5C3 16.95 3.45 16.5 4 16.5Z" fill="black" fill-opacity="0.54"/>
</g>
</svg>
