<svg width="24" height="24" viewBox="0 0 24 24" fill="none" xmlns="http://www.w3.org/2000/svg">
<g id="card_giftcard_24px">
<path id="icon/action/card_giftcard_24px" fill-rule="evenodd" clip-rule="evenodd" d="M20 6.5H17.82C17.93 6.19 18 5.85 18 5.5C18 3.84 16.66 2.5 15 2.5C13.95 2.5 13.04 3.04 12.5 3.85L12 4.52L11.5 3.84C10.96 3.04 10.05 2.5 9 2.5C7.34 2.5 6 3.84 6 5.5C6 5.85 6.07 6.19 6.18 6.5H4C2.89 6.5 2.01 7.39 2.01 8.5L2 19.5C2 20.61 2.89 21.5 4 21.5H20C21.11 21.5 22 20.61 22 19.5V8.5C22 7.39 21.11 6.5 20 6.5ZM15 4.5C15.55 4.5 16 4.95 16 5.5C16 6.05 15.55 6.5 15 6.5C14.45 6.5 14 6.05 14 5.5C14 4.95 14.45 4.5 15 4.5ZM10 5.5C10 4.95 9.55 4.5 9 4.5C8.45 4.5 8 4.95 8 5.5C8 6.05 8.45 6.5 9 6.5C9.55 6.5 10 6.05 10 5.5ZM4 19.5V17.5H20V19.5H4ZM4 9.5V14.5H20V9.5C20 8.95 19.55 8.5 19 8.5H14.92L16.4 10.52C16.73 10.97 16.63 11.6 16.18 11.92C15.74 12.24 15.11 12.14 14.79 11.7L12 7.9L9.21 11.7C8.89 12.14 8.26 12.24 7.82 11.92C7.37 11.6 7.27 10.97 7.6 10.52L9.08 8.5H5C4.45 8.5 4 8.95 4 9.5Z" fill="black" fill-opacity="0.54"/>
</g>
</svg>
