<svg width="24" height="24" viewBox="0 0 24 24" fill="none" xmlns="http://www.w3.org/2000/svg">
<g id="card_travel_24px">
<path id="icon/action/card_travel_24px" fill-rule="evenodd" clip-rule="evenodd" d="M17 6.5H20C21.11 6.5 22 7.39 22 8.5V19.5C22 20.61 21.11 21.5 20 21.5H4C2.89 21.5 2 20.61 2 19.5V8.5C2 7.39 2.89 6.5 4 6.5H7V4.5C7 3.39 7.89 2.5 9 2.5H15C16.11 2.5 17 3.39 17 4.5V6.5ZM15 4.5H9V6.5H15V4.5ZM20 19.5H4V17.5H20V19.5ZM4 14.5H20V9.5C20 8.95 19.55 8.5 19 8.5H17V9.5C17 10.05 16.55 10.5 16 10.5C15.45 10.5 15 10.05 15 9.5V8.5H9V9.5C9 10.05 8.55 10.5 8 10.5C7.45 10.5 7 10.05 7 9.5V8.5H5C4.45 8.5 4 8.95 4 9.5V14.5Z" fill="black" fill-opacity="0.54"/>
</g>
</svg>
