<svg width="20" height="20" viewBox="0 0 20 20" fill="none" xmlns="http://www.w3.org/2000/svg">
<path fill-rule="evenodd" clip-rule="evenodd" d="M3.30806 9.55806C3.55214 9.31398 3.94786 9.31398 4.19194 9.55806L10 15.3661L15.8081 9.55806C16.0521 9.31398 16.4479 9.31398 16.6919 9.55806C16.936 9.80214 16.936 10.1979 16.6919 10.4419L10.4419 16.6919C10.1979 16.936 9.80214 16.936 9.55806 16.6919L3.30806 10.4419C3.06398 10.1979 3.06398 9.80214 3.30806 9.55806Z" fill="#606878"/>
<path fill-rule="evenodd" clip-rule="evenodd" d="M3.30806 3.30806C3.55214 3.06398 3.94786 3.06398 4.19194 3.30806L10 9.11612L15.8081 3.30806C16.0521 3.06398 16.4479 3.06398 16.6919 3.30806C16.936 3.55214 16.936 3.94786 16.6919 4.19194L10.4419 10.4419C10.1979 10.686 9.80214 10.686 9.55806 10.4419L3.30806 4.19194C3.06398 3.94786 3.06398 3.55214 3.30806 3.30806Z" fill="#606878"/>
</svg>
