<svg width="24" height="24" viewBox="0 0 24 24" fill="none" xmlns="http://www.w3.org/2000/svg">
<g id="chrome_reader_mode_24px">
<path id="icon/action/chrome_reader_mode_24px" fill-rule="evenodd" clip-rule="evenodd" d="M21 3.5H3C1.9 3.5 1 4.4 1 5.5V18.5C1 19.6 1.9 20.5 3 20.5H21C22.1 20.5 23 19.6 23 18.5V5.5C23 4.4 22.1 3.5 21 3.5ZM21 17.5C21 18.05 20.55 18.5 20 18.5H12V5.5H20C20.55 5.5 21 5.95 21 6.5V17.5ZM13.75 9H19.25C19.66 9 20 9.34 20 9.75C20 10.16 19.66 10.5 19.25 10.5H13.75C13.34 10.5 13 10.16 13 9.75C13 9.34 13.34 9 13.75 9ZM19.25 11.5H13.75C13.34 11.5 13 11.84 13 12.25C13 12.66 13.34 13 13.75 13H19.25C19.66 13 20 12.66 20 12.25C20 11.84 19.66 11.5 19.25 11.5ZM13.75 14H19.25C19.66 14 20 14.34 20 14.75C20 15.16 19.66 15.5 19.25 15.5H13.75C13.34 15.5 13 15.16 13 14.75C13 14.34 13.34 14 13.75 14Z" fill="black" fill-opacity="0.54"/>
</g>
</svg>
