<svg width="24" height="24" viewBox="0 0 24 24" fill="none" xmlns="http://www.w3.org/2000/svg">
<g id="code_24px">
<path id="icon/action/code_24px" fill-rule="evenodd" clip-rule="evenodd" d="M19.2 12L15.3 15.9C15.1128 16.0848 15.0075 16.3369 15.0075 16.6C15.0075 16.863 15.1128 17.1151 15.3 17.3C15.69 17.69 16.31 17.69 16.7 17.3L21.29 12.7C21.68 12.31 21.68 11.68 21.29 11.29L16.7 6.69997C16.31 6.30997 15.69 6.30997 15.3 6.69997C15.1128 6.88482 15.0075 7.13692 15.0075 7.39997C15.0075 7.66302 15.1128 7.91512 15.3 8.09997L19.2 12ZM4.79998 12L8.69998 15.9C9.08998 16.29 9.08998 16.91 8.69998 17.3C8.30998 17.69 7.68998 17.69 7.29998 17.3L2.70998 12.7C2.31998 12.31 2.31998 11.68 2.70998 11.29L7.29998 6.69997C7.48483 6.51282 7.73693 6.40749 7.99998 6.40749C8.26303 6.40749 8.51513 6.51282 8.69998 6.69997C9.08998 7.08997 9.08998 7.70997 8.69998 8.09997L4.79998 12Z" fill="black" fill-opacity="0.54"/>
</g>
</svg>
