<svg width="24" height="24" viewBox="0 0 24 24" fill="none" xmlns="http://www.w3.org/2000/svg">
<g id="commute_24px">
<path id="icon/action/commute_24px" fill-rule="evenodd" clip-rule="evenodd" d="M4.995 4H11.995C13.655 4 14.995 5.34 14.995 7V8H12.995V6.5C12.995 6.22 12.775 6 12.495 6H4.495C4.215 6 3.995 6.22 3.995 6.5V12.5C3.995 12.78 4.215 13 4.495 13H8.995V18H6.995L5.225 19.77C4.945 20.05 4.505 20.05 4.225 19.77C3.945 19.49 3.945 19.05 4.225 18.77L4.995 18C3.335 18 1.995 16.66 1.995 15V7C1.995 5.34 3.335 4 4.995 4ZM5.995 15C5.995 14.45 5.545 14 4.995 14C4.445 14 3.995 14.45 3.995 15C3.995 15.55 4.445 16 4.995 16C5.545 16 5.995 15.55 5.995 15ZM20.565 9.66C20.425 9.26 20.045 9 19.595 9H12.405C11.945 9 11.575 9.26 11.425 9.66L10.005 13.77V19.01C10.005 19.56 10.455 20 11.005 20C11.555 20 12.005 19.55 12.005 19V18H20.005V19C20.005 19.55 20.455 20 21.005 20C21.555 20 21.995 19.56 22.005 19.01L21.995 13.77L20.565 9.66ZM19.245 10H12.765C12.545 10 12.355 10.14 12.305 10.34L11.615 12.34C11.505 12.66 11.745 13 12.085 13H19.935C20.275 13 20.515 12.66 20.405 12.34L19.715 10.34C19.645 10.14 19.455 10 19.245 10ZM11.995 16C11.445 16 10.995 15.55 10.995 15C10.995 14.45 11.445 14 11.995 14C12.545 14 12.995 14.45 12.995 15C12.995 15.55 12.545 16 11.995 16ZM18.995 15C18.995 15.55 19.445 16 19.995 16C20.545 16 20.995 15.55 20.995 15C20.995 14.45 20.545 14 19.995 14C19.445 14 18.995 14.45 18.995 15Z" fill="black" fill-opacity="0.54"/>
</g>
</svg>
