<svg width="24" height="24" viewBox="0 0 24 24" fill="none" xmlns="http://www.w3.org/2000/svg">
<g id="contact_support_24px">
<path id="icon/action/contact_support_24px" fill-rule="evenodd" clip-rule="evenodd" d="M12 2C7.31 2 3.5 5.81 3.5 10.5C3.5 15.19 7.31 19 12 19H12.5V22C17.36 19.66 20.5 15 20.5 10.5C20.5 5.81 16.69 2 12 2ZM11 16.5V14.5H13V16.5H11ZM13.37 11.77C13.38 11.75 13.39 11.73 13.4 11.72C13.6721 11.3208 14.0513 10.9884 14.4356 10.6515C15.3224 9.87402 16.2369 9.07217 15.93 7.37C15.64 5.68 14.29 4.29 12.6 4.04C10.54 3.74 8.72 5.01 8.17 6.83C8 7.41 8.44 8 9.04 8H9.24C9.65 8 9.98 7.71 10.12 7.35C10.44 6.46 11.38 5.85 12.42 6.07C13.38 6.27 14.08 7.22 13.99 8.2C13.9223 8.96354 13.3768 9.38584 12.7715 9.85445C12.3938 10.1469 11.9928 10.4573 11.67 10.88L11.66 10.87C11.6427 10.8873 11.6287 10.9113 11.6142 10.9362C11.6036 10.9544 11.5927 10.9731 11.58 10.99C11.565 11.015 11.5475 11.04 11.53 11.065C11.5125 11.09 11.495 11.115 11.48 11.14C11.39 11.28 11.32 11.42 11.26 11.58C11.255 11.6 11.245 11.615 11.235 11.63C11.225 11.645 11.215 11.66 11.21 11.68C11.2 11.69 11.2 11.7 11.2 11.71C11.08 12.07 11 12.5 11 13.01H13.01C13.01 12.76 13.04 12.54 13.11 12.33C13.13 12.26 13.16 12.19 13.19 12.12C13.2 12.08 13.21 12.04 13.23 12.01C13.27 11.93 13.32 11.85 13.37 11.77Z" fill="black" fill-opacity="0.54"/>
</g>
</svg>
