<svg width="24" height="24" viewBox="0 0 24 24" fill="none" xmlns="http://www.w3.org/2000/svg">
<g id="done_outline_24px">
<path id="icon/action/done_outline_24px" fill-rule="evenodd" clip-rule="evenodd" d="M8.43001 13.445L18.36 3.51499C19.14 2.73499 20.4 2.73499 21.19 3.51499L22.59 4.91499C23.37 5.69499 23.37 6.96499 22.59 7.74499L9.84001 20.485C9.06001 21.265 7.79001 21.265 7.01001 20.485L1.41001 14.885C0.630012 14.105 0.630012 12.835 1.41001 12.055L2.81001 10.655C3.59001 9.87499 4.86001 9.87499 5.64001 10.655L8.43001 13.445ZM20.47 7.03499C20.86 6.64499 20.86 6.02499 20.47 5.63499C20.08 5.24499 19.46 5.24499 19.07 5.63499L8.43001 16.275L4.93001 12.775C4.54001 12.385 3.92001 12.385 3.53001 12.775C3.34286 12.9598 3.23753 13.2119 3.23753 13.475C3.23753 13.738 3.34286 13.9901 3.53001 14.175L7.73001 18.375C8.12001 18.765 8.74001 18.765 9.13001 18.375L20.47 7.03499Z" fill="black" fill-opacity="0.54"/>
</g>
</svg>
