<svg width="24" height="24" viewBox="0 0 24 24" fill="none" xmlns="http://www.w3.org/2000/svg">
<g id="donut_large_24px">
<path id="icon/action/donut_large_24px" fill-rule="evenodd" clip-rule="evenodd" d="M14.2526 5.32369C16.4426 6.0037 18.1826 7.74369 18.8626 9.93369C19.0526 10.5637 19.6226 11.0037 20.2726 11.0037H20.3126C21.3126 11.0037 22.0326 10.0437 21.7426 9.0937C20.7726 5.9137 18.2626 3.40369 15.0826 2.4337C14.1426 2.1437 13.1826 2.8637 13.1826 3.8637V3.90369C13.1826 4.56369 13.6226 5.13369 14.2526 5.32369ZM18.8626 14.0737C18.1826 16.2737 16.4426 18.0037 14.2526 18.6837C13.6226 18.8737 13.1826 19.4437 13.1826 20.0937V20.1337C13.1826 21.1337 14.1426 21.8537 15.0926 21.5637C18.2726 20.5937 20.7826 18.0837 21.7526 14.9037C22.0426 13.9537 21.3226 12.9937 20.3326 12.9937H20.2826C19.6226 13.0037 19.0526 13.4437 18.8626 14.0737ZM10.0926 18.6737C10.7326 18.8737 11.1826 19.4437 11.1826 20.1137C11.1826 21.1237 10.2126 21.8637 9.25256 21.5637C5.16256 20.3137 2.18256 16.5037 2.18256 12.0037C2.18256 7.5037 5.16256 3.69369 9.25256 2.4437C10.2126 2.14369 11.1826 2.88369 11.1826 3.8837V3.8937C11.1826 4.5637 10.7326 5.13369 10.0926 5.33369C7.25256 6.2237 5.18256 8.87369 5.18256 12.0037C5.18256 15.1337 7.25256 17.7837 10.0926 18.6737Z" fill="black" fill-opacity="0.54"/>
</g>
</svg>
