<svg width="24" height="24" viewBox="0 0 24 24" fill="none" xmlns="http://www.w3.org/2000/svg">
<g id="euro_symbol_24px">
<path id="icon/action/euro_symbol_24px" d="M15.3223 18.5C12.8123 18.5 10.6423 17.08 9.56227 15H14.3223C14.8723 15 15.3223 14.55 15.3223 14C15.3223 13.45 14.8723 13 14.3223 13H8.90227C8.85227 12.67 8.82227 12.34 8.82227 12C8.82227 11.66 8.85227 11.33 8.90227 11H14.3223C14.8723 11 15.3223 10.55 15.3223 10C15.3223 9.45 14.8723 9 14.3223 9H9.56227C10.6423 6.92 12.8223 5.5 15.3223 5.5C16.5723 5.5 17.7423 5.86 18.7423 6.47C19.2423 6.78 19.8923 6.73 20.3123 6.31C20.8923 5.73 20.7623 4.78 20.0623 4.35C18.6823 3.5 17.0523 3 15.3223 3C11.4023 3 8.08227 5.51 6.84227 9H4.32227C3.77227 9 3.32227 9.45 3.32227 10C3.32227 10.55 3.77227 11 4.32227 11H6.38227C6.34227 11.33 6.32227 11.66 6.32227 12C6.32227 12.34 6.34227 12.67 6.38227 13H4.32227C3.77227 13 3.32227 13.45 3.32227 14C3.32227 14.55 3.77227 15 4.32227 15H6.84227C8.08227 18.49 11.4023 21 15.3223 21C17.0623 21 18.6823 20.51 20.0623 19.65C20.7523 19.22 20.8823 18.26 20.3023 17.68C19.8823 17.26 19.2323 17.21 18.7323 17.53C17.7423 18.15 16.5823 18.5 15.3223 18.5Z" fill="black" fill-opacity="0.54"/>
</g>
</svg>
