<svg width="24" height="24" viewBox="0 0 24 24" fill="none" xmlns="http://www.w3.org/2000/svg">
<g id="explore_off_24px">
<path id="icon/action/explore_off_24px" fill-rule="evenodd" clip-rule="evenodd" d="M18.0007 5.99866L15.0907 12.2587L20.3407 17.5087C21.3907 15.9287 22.0007 14.0387 22.0007 11.9987C22.0007 6.47866 17.5207 1.99866 12.0007 1.99866C9.96073 1.99866 8.07073 2.60866 6.49073 3.65866L11.7407 8.90866L18.0007 5.99866ZM2.81073 5.63866L3.66073 6.48866C2.29073 8.55866 1.66073 11.1687 2.18073 13.9387C2.93073 17.8887 6.10073 21.0687 10.0607 21.8187C12.8307 22.3387 15.4407 21.7187 17.5107 20.3387L18.3607 21.1887C18.7507 21.5787 19.3807 21.5787 19.7707 21.1887C20.1607 20.7987 20.1607 20.1687 19.7707 19.7787L4.22073 4.21866C4.0339 4.0314 3.78024 3.92617 3.51573 3.92617C3.25121 3.92617 2.99756 4.0314 2.81073 4.21866C2.42073 4.60866 2.42073 5.24866 2.81073 5.63866ZM12.2607 15.0887L8.91073 11.7387L6.00073 17.9987L12.2607 15.0887Z" fill="black" fill-opacity="0.54"/>
</g>
</svg>
