<svg width="24" height="24" viewBox="0 0 24 24" fill="none" xmlns="http://www.w3.org/2000/svg">
<g id="face_unlock_24px">
<path id="icon/action/face_unlock_24px" fill-rule="evenodd" clip-rule="evenodd" d="M22 12C22 17.52 17.52 22 12 22C6.48 22 2 17.52 2 12C2 6.48 6.48 2 12 2C17.52 2 22 6.48 22 12ZM9 14.25C9.69 14.25 10.25 13.69 10.25 13C10.25 12.31 9.69 11.75 9 11.75C8.31 11.75 7.75 12.31 7.75 13C7.75 13.69 8.31 14.25 9 14.25ZM13.75 13C13.75 12.31 14.31 11.75 15 11.75C15.69 11.75 16.25 12.31 16.25 13C16.25 13.69 15.69 14.25 15 14.25C14.31 14.25 13.75 13.69 13.75 13ZM17.5 8C14.6 8 12.06 6.44 10.66 4.12C11.09 4.05 11.54 4 12 4C14.9 4 17.44 5.56 18.84 7.88C18.41 7.95 17.96 8 17.5 8ZM4.42 9.47C6.13 8.5 7.45 6.92 8.08 5.03C6.37 6 5.05 7.58 4.42 9.47ZM19.67 9.76C19.88 10.47 20 11.22 20 12C20 16.41 16.41 20 12 20C7.59 20 4 16.41 4 12C4 11.9829 4.00116 11.9659 4.0023 11.9492C4.00449 11.9171 4.00659 11.8864 4 11.86C6.6 10.88 8.69 8.87 9.74 6.31C11.58 8.56 14.37 10 17.5 10C18.25 10 18.97 9.91 19.67 9.76Z" fill="black" fill-opacity="0.54"/>
</g>
</svg>
