<svg width="24" height="24" viewBox="0 0 24 24" fill="none" xmlns="http://www.w3.org/2000/svg">
<g id="favorite_border_24px">
<path id="icon/action/favorite_border_24px" fill-rule="evenodd" clip-rule="evenodd" d="M12.0003 5.26723C13.7603 3.20723 17.0203 2.36723 19.6603 4.16723C21.0603 5.12723 21.9403 6.74723 22.0003 8.44723C22.1303 12.3272 18.7003 15.4372 13.4503 20.1972L13.3403 20.2972C12.5803 20.9972 11.4103 20.9972 10.6503 20.3072L10.5503 20.2172L10.4899 20.1623C5.27391 15.4233 1.86081 12.3223 2.00027 8.45723C2.06027 6.74723 2.94027 5.12723 4.34027 4.16723C6.98027 2.35723 10.2403 3.20723 12.0003 5.26723ZM12.0003 18.8272L12.1003 18.7272C16.8603 14.4172 20.0003 11.5672 20.0003 8.67723C20.0003 6.67723 18.5003 5.17723 16.5003 5.17723C14.9603 5.17723 13.4603 6.16723 12.9403 7.53723H11.0703C10.5403 6.16723 9.04027 5.17723 7.50027 5.17723C5.50027 5.17723 4.00027 6.67723 4.00027 8.67723C4.00027 11.5672 7.14027 14.4172 11.9003 18.7272L12.0003 18.8272Z" fill="black" fill-opacity="0.54"/>
</g>
</svg>
