<svg width="24" height="24" viewBox="0 0 24 24" fill="none" xmlns="http://www.w3.org/2000/svg">
<g id="feedback_24px">
<path id="icon/action/feedback_24px" fill-rule="evenodd" clip-rule="evenodd" d="M19.995 2H4.005C2.905 2 2.005 2.9 2.005 4V22L5.995 18H19.995C21.095 18 21.995 17.1 21.995 16V4C21.995 2.9 21.095 2 19.995 2ZM12.995 12V14H10.995V12H12.995ZM11.995 10C12.545 10 12.995 9.55 12.995 9V7C12.995 6.45 12.545 6 11.995 6C11.445 6 10.995 6.45 10.995 7V9C10.995 9.55 11.445 10 11.995 10Z" fill="black" fill-opacity="0.54"/>
</g>
</svg>
