<svg width="24" height="24" viewBox="0 0 24 24" fill="none" xmlns="http://www.w3.org/2000/svg">
<g id="find_replace_24px">
<path id="icon/action/find_replace_24px" fill-rule="evenodd" clip-rule="evenodd" d="M14.0163 6.93125C13.1063 6.03125 11.8563 5.47125 10.4763 5.47125C8.29626 5.47125 6.43626 6.87125 5.75626 8.81125C5.61626 9.21125 5.24626 9.47125 4.82626 9.47125C4.12626 9.47125 3.65626 8.77125 3.89626 8.11125C4.85626 5.41125 7.43626 3.47125 10.4763 3.47125C12.4063 3.47125 14.1563 4.25125 15.4263 5.53125L16.6263 4.33125C16.9363 4.01125 17.4763 4.23125 17.4763 4.68125V8.97125C17.4763 9.25125 17.2563 9.47125 16.9763 9.47125H12.6863C12.2363 9.47125 12.0163 8.93125 12.3263 8.62125L14.0163 6.93125ZM17.0663 12.8113C16.8363 13.4613 16.5163 14.0713 16.1163 14.6113L20.2163 18.7313C20.6263 19.1413 20.6263 19.8113 20.2163 20.2213C19.8063 20.6313 19.1363 20.6313 18.7263 20.2213L14.6163 16.1113C13.4563 16.9613 12.0263 17.4713 10.4763 17.4713C8.54626 17.4713 6.79626 16.6913 5.52626 15.4113L4.32626 16.6113C4.01626 16.9313 3.47626 16.7113 3.47626 16.2613V11.9713C3.47626 11.6913 3.69626 11.4713 3.97626 11.4713H8.26626C8.71626 11.4713 8.93626 12.0113 8.62626 12.3213L6.93626 14.0113C7.84626 14.9113 9.09626 15.4713 10.4763 15.4713C12.6563 15.4713 14.5163 14.0713 15.1963 12.1313C15.3363 11.7313 15.7063 11.4713 16.1263 11.4713C16.8163 11.4713 17.2963 12.1613 17.0663 12.8113Z" fill="black" fill-opacity="0.54"/>
</g>
</svg>
