<svg width="24" height="24" viewBox="0 0 24 24" fill="none" xmlns="http://www.w3.org/2000/svg">
<g id="flight_takeoff_24px">
<path id="icon/action/flight_takeoff_24px" fill-rule="evenodd" clip-rule="evenodd" d="M20.1158 8.23494C20.9158 8.02494 21.7358 8.49494 21.9558 9.29494C22.1658 10.0949 21.6858 10.9149 20.8858 11.1349L5.06578 15.3749C4.63578 15.4849 4.17578 15.2949 3.94578 14.9049L2.06578 11.6549C1.89578 11.3749 2.04578 11.0049 2.36578 10.9249L2.69578 10.8349C3.00578 10.7549 3.32578 10.8249 3.57578 11.0149L5.14578 12.2549L10.1158 10.9249L6.67578 4.96494C6.32578 4.35494 6.64578 3.57494 7.32578 3.38494C7.68578 3.28494 8.07578 3.37494 8.34578 3.63494L14.8058 9.65494L20.1158 8.23494ZM3.38578 18.6549H20.3858C20.9358 18.6549 21.3858 19.1049 21.3858 19.6549C21.3858 20.2049 20.9358 20.6549 20.3858 20.6549H3.38578C2.83578 20.6549 2.38578 20.2049 2.38578 19.6549C2.38578 19.1049 2.83578 18.6549 3.38578 18.6549Z" fill="black" fill-opacity="0.54"/>
</g>
</svg>
