<svg width="24" height="24" viewBox="0 0 24 24" fill="none" xmlns="http://www.w3.org/2000/svg">
<g id="flight_land_24px">
<path id="icon/action/flight_land_24px" fill-rule="evenodd" clip-rule="evenodd" d="M19.34 16.1932L3.51 11.9532C3.07 11.8332 2.77 11.4432 2.77 10.9832V7.23319C2.77 6.90319 3.08 6.66319 3.4 6.75319L3.73 6.84319C4.04 6.92319 4.28 7.14319 4.4 7.43319L5.15 9.29319L10.13 10.6132V3.73319C10.13 3.02319 10.8 2.51319 11.48 2.69319C11.84 2.79319 12.12 3.06319 12.23 3.42319L14.81 11.8732L20.12 13.2932C20.92 13.5132 21.39 14.3332 21.18 15.1332C20.96 15.9332 20.14 16.4032 19.34 16.1932ZM3.5 19.3432H20.5C21.05 19.3432 21.5 19.7932 21.5 20.3432C21.5 20.8932 21.05 21.3432 20.5 21.3432H3.5C2.95 21.3432 2.5 20.8932 2.5 20.3432C2.5 19.7932 2.95 19.3432 3.5 19.3432Z" fill="black" fill-opacity="0.54"/>
</g>
</svg>
