<svg width="24" height="24" viewBox="0 0 24 24" fill="none" xmlns="http://www.w3.org/2000/svg">
<g id="gavel_24px">
<path id="icon/action/gavel_24px" fill-rule="evenodd" clip-rule="evenodd" d="M14.5375 1.9969L17.3675 4.8269C18.1475 5.6069 18.1475 6.8769 17.3675 7.6569L15.9475 9.0769L10.2975 3.4169L11.7075 2.0069C12.4875 1.2169 13.7575 1.2169 14.5375 1.9969ZM8.87749 4.8269L6.04749 7.6569L18.7775 20.3869C19.5575 21.1669 20.8275 21.1669 21.6075 20.3869C22.3875 19.6069 22.3875 18.3369 21.6075 17.5569L8.87749 4.8269ZM12.8075 20.5869H2.8075C2.2575 20.5869 1.8075 21.0369 1.8075 21.5869C1.8075 22.1369 2.2575 22.5869 2.8075 22.5869H12.8075C13.3575 22.5869 13.8075 22.1369 13.8075 21.5869C13.8075 21.0369 13.3575 20.5869 12.8075 20.5869ZM10.2975 14.7269L4.6375 9.0669L3.2275 10.4769C2.4475 11.2569 2.4475 12.5269 3.2275 13.3069L6.0575 16.1369C6.83749 16.9169 8.10749 16.9169 8.8875 16.1369L10.2975 14.7269Z" fill="black" fill-opacity="0.54"/>
</g>
</svg>
