<svg width="24" height="24" viewBox="0 0 24 24" fill="none" xmlns="http://www.w3.org/2000/svg">
<g id="history_24px">
<path id="icon/action/history_24px" fill-rule="evenodd" clip-rule="evenodd" d="M4.14401 12.0018C4.14401 6.95175 8.31401 2.86175 13.404 3.00175C18.094 3.13175 22.014 7.05175 22.144 11.7418C22.284 16.8318 18.194 21.0018 13.144 21.0018C11.054 21.0018 9.14401 20.2918 7.62401 19.0918C7.15401 18.7318 7.12401 18.0218 7.54401 17.6018C7.90401 17.2418 8.46401 17.2118 8.86401 17.5218C10.044 18.4518 11.534 19.0018 13.144 19.0018C17.044 19.0018 20.194 15.8118 20.144 11.9018C20.094 8.18175 16.964 5.05175 13.244 5.00175C9.32401 4.95175 6.14401 8.10175 6.14401 12.0018H7.93401C8.38401 12.0018 8.60401 12.5417 8.29401 12.8518L5.50401 15.6518C5.30401 15.8518 4.99401 15.8518 4.79401 15.6518L2.00401 12.8518C1.68401 12.5417 1.90401 12.0018 2.35401 12.0018H4.14401ZM12.144 8.75175C12.144 8.34175 12.484 8.00175 12.894 8.00175C13.304 8.00175 13.644 8.34175 13.644 8.74175V12.1418L16.524 13.8518C16.874 14.0618 16.994 14.5218 16.784 14.8818C16.574 15.2318 16.114 15.3518 15.754 15.1418L12.634 13.2917C12.334 13.1118 12.144 12.7818 12.144 12.4318V8.75175Z" fill="black" fill-opacity="0.54"/>
</g>
</svg>
