<svg width="24" height="24" viewBox="0 0 24 24" fill="none" xmlns="http://www.w3.org/2000/svg">
<g id="invert_colors_24px">
<path id="icon/action/invert_colors_24px" fill-rule="evenodd" clip-rule="evenodd" d="M6.34 19.1063C3.22 15.9863 3.22 10.9163 6.34 7.79626L11.3 2.84626C11.4868 2.659 11.7405 2.55377 12.005 2.55377C12.2695 2.55377 12.5232 2.659 12.71 2.84626L17.66 7.79626C20.78 10.9163 20.78 15.9863 17.66 19.1063C16.1 20.6663 14.05 21.4463 12 21.4463C9.95 21.4463 7.9 20.6663 6.34 19.1063ZM7.76 17.6963C8.89 18.8363 10.4 19.4563 12 19.4563V4.96626L7.76 9.21626C6.62 10.3463 6 11.8563 6 13.4563C6 15.0563 6.62 16.5563 7.76 17.6963Z" fill="black" fill-opacity="0.54"/>
</g>
</svg>
