<svg width="24" height="24" viewBox="0 0 24 24" fill="none" xmlns="http://www.w3.org/2000/svg">
<g id="label_outline_24px">
<path id="icon/action/label_outline_24px" fill-rule="evenodd" clip-rule="evenodd" d="M15.6112 5C16.2812 5 16.8812 5.33 17.2412 5.84L21.2012 11.42C21.4512 11.77 21.4512 12.23 21.2012 12.58L17.2412 18.16C16.8812 18.67 16.2812 19 15.6112 19L4.61124 18.99C3.51124 18.99 2.61124 18.1 2.61124 17V7C2.61124 5.9 3.51124 5.01 4.61124 5.01L15.6112 5ZM5.61124 17H15.6112L19.1612 12L15.6112 7H5.61124C5.06124 7 4.61124 7.45 4.61124 8V16C4.61124 16.55 5.06124 17 5.61124 17Z" fill="black" fill-opacity="0.54"/>
</g>
</svg>
