<svg width="24" height="24" viewBox="0 0 24 24" fill="none" xmlns="http://www.w3.org/2000/svg">
<g id="label_off_24px">
<path id="icon/action/label_off_24px" fill-rule="evenodd" clip-rule="evenodd" d="M3.48628 5.78877L2.61628 4.91877C2.22628 4.52877 2.22628 3.87877 2.63628 3.49877C3.02628 3.11877 3.65628 3.12877 4.03628 3.50877L19.5963 19.0788C19.9863 19.4688 19.9863 20.0988 19.5963 20.4888C19.2063 20.8788 18.5763 20.8788 18.1863 20.4888L16.8963 19.1988H4.89628C3.79628 19.1988 2.89628 18.2988 2.89628 17.1988V7.19877C2.89628 6.64877 3.12628 6.14877 3.48628 5.78877ZM21.4863 11.6188C21.7363 11.9688 21.7363 12.4288 21.4863 12.7788L19.2563 15.9288L8.55628 5.19877H15.8963C16.5663 5.19877 17.1663 5.52877 17.5263 6.03877L21.4863 11.6188Z" fill="black" fill-opacity="0.54"/>
</g>
</svg>
