<svg width="24" height="24" viewBox="0 0 24 24" fill="none" xmlns="http://www.w3.org/2000/svg">
<g id="opacity_24px">
<path id="icon/action/opacity_24px" fill-rule="evenodd" clip-rule="evenodd" d="M12.71 2.84626L17.66 7.78626C19.22 9.34626 20 11.4263 20 13.4263C20 15.4263 19.22 17.5363 17.66 19.0963C16.1 20.6563 14.05 21.4463 12 21.4463C9.95 21.4463 7.9 20.6563 6.34 19.0963C4.78 17.5363 4 15.4263 4 13.4263C4 11.4263 4.78 9.34626 6.34 7.78626L11.3 2.84626C11.4868 2.659 11.7405 2.55377 12.005 2.55377C12.2695 2.55377 12.5232 2.659 12.71 2.84626ZM7.76 9.38626C6.62 10.5163 6.01 11.7863 6 13.7863H18C17.99 11.7863 17.38 10.5563 16.24 9.43626L12 5.05626L7.76 9.38626Z" fill="black" fill-opacity="0.54"/>
</g>
</svg>
