<svg width="24" height="24" viewBox="0 0 24 24" fill="none" xmlns="http://www.w3.org/2000/svg">
<g id="open_with_24px">
<path id="icon/action/open_with_24px" fill-rule="evenodd" clip-rule="evenodd" d="M13.4994 8.99999H10.4994C10.2194 8.99999 9.99935 8.77999 9.99935 8.49999V5.99999H8.20935C7.75935 5.99999 7.53935 5.45999 7.84935 5.14999L11.6394 1.35999C11.8394 1.15999 12.1494 1.15999 12.3494 1.35999L16.1394 5.14999C16.4594 5.45999 16.2394 5.99999 15.7894 5.99999H13.9994V8.49999C13.9994 8.77999 13.7794 8.99999 13.4994 8.99999ZM5.99935 9.99999H8.49935C8.77935 9.99999 8.99935 10.22 8.99935 10.5V13.5C8.99935 13.78 8.77935 14 8.49935 14H5.99935V15.79C5.99935 16.24 5.45935 16.46 5.14935 16.15L1.35935 12.36C1.15935 12.16 1.15935 11.85 1.35935 11.65L5.14935 7.85999C5.45935 7.53999 5.99935 7.75999 5.99935 8.20999V9.99999ZM22.6494 11.65L18.8594 7.85999C18.5394 7.53999 17.9994 7.75999 17.9994 8.20999V9.99999H15.4994C15.2194 9.99999 14.9994 10.22 14.9994 10.5V13.5C14.9994 13.78 15.2194 14 15.4994 14H17.9994V15.79C17.9994 16.24 18.5394 16.46 18.8493 16.14L22.6394 12.35C22.8393 12.16 22.8393 11.84 22.6494 11.65ZM10.4994 15H13.4994C13.7794 15 13.9994 15.22 13.9994 15.5V18H15.7994C16.2394 18 16.4594 18.54 16.1494 18.85L12.3594 22.64C12.1594 22.84 11.8494 22.84 11.6494 22.64L7.85935 18.85C7.53935 18.54 7.75935 18 8.20935 18H9.99935V15.5C9.99935 15.22 10.2194 15 10.4994 15Z" fill="black" fill-opacity="0.54"/>
</g>
</svg>
