<svg width="24" height="24" viewBox="0 0 24 24" fill="none" xmlns="http://www.w3.org/2000/svg">
<g id="pan_tool_24px">
<path id="icon/action/pan_tool_24px" d="M21.1807 4C20.3507 4 19.6807 4.67 19.6807 5.5V10.5C19.6807 10.78 19.4607 11 19.1807 11C18.9007 11 18.6807 10.78 18.6807 10.5V2.5C18.6807 1.67 18.0107 1 17.1807 1C16.3507 1 15.6807 1.67 15.6807 2.5V10.5C15.6807 10.78 15.4607 11 15.1807 11C14.9007 11 14.6807 10.78 14.6807 10.5V1.5C14.6807 0.67 14.0107 0 13.1807 0C12.3507 0 11.6807 0.67 11.6807 1.5V10.49C11.6807 10.77 11.4607 10.99 11.1807 10.99C10.9007 10.99 10.6807 10.77 10.6807 10.49V4.5C10.6807 3.67 10.0107 3 9.18072 3C8.35072 3 7.68072 3.67 7.68072 4.5V15.91L3.56072 13.56C2.98072 13.23 2.26072 13.32 1.78072 13.78C1.18072 14.36 1.16072 15.32 1.75072 15.91L8.53072 22.8C9.28072 23.57 10.3007 24 11.3807 24H18.6807C20.8907 24 22.6807 22.21 22.6807 20V5.5C22.6807 4.67 22.0107 4 21.1807 4Z" fill="black" fill-opacity="0.54"/>
</g>
</svg>
