<svg width="24" height="24" viewBox="0 0 24 24" fill="none" xmlns="http://www.w3.org/2000/svg">
<g id="perm_scan_wifi_24px">
<path id="icon/action/perm_scan_wifi_24px" fill-rule="evenodd" clip-rule="evenodd" d="M12 3.08562C7.41001 3.08562 3.86001 4.61562 0.89001 6.67562C0.40001 7.00562 0.30001 7.67562 0.67001 8.13562L10.45 20.1756C11.25 21.1556 12.75 21.1656 13.55 20.1756L23.33 8.15562C23.7 7.69562 23.6 7.02562 23.11 6.69562C20.14 4.62562 16.59 3.08562 12 3.08562ZM12 16.0856C11.45 16.0856 11 15.6356 11 15.0856V11.0856C11 10.5356 11.45 10.0856 12 10.0856C12.55 10.0856 13 10.5356 13 11.0856V15.0856C13 15.6356 12.55 16.0856 12 16.0856ZM11 6.08562V8.08562H13V6.08562H11Z" fill="black" fill-opacity="0.54"/>
</g>
</svg>
