<svg width="24" height="24" viewBox="0 0 24 24" fill="none" xmlns="http://www.w3.org/2000/svg">
<g id="perm_data_setting_24px">
<path id="icon/action/perm_data_setting_24px" fill-rule="evenodd" clip-rule="evenodd" d="M18.3527 10.792C18.6927 10.792 19.0327 10.822 19.3627 10.862V1.71202C19.3627 0.822019 18.2827 0.372019 17.6527 1.00202L1.07266 17.582C0.442661 18.212 0.882661 19.292 1.77266 19.292H10.9227C10.8827 18.962 10.8527 18.632 10.8527 18.292C10.8527 14.152 14.2127 10.792 18.3527 10.792ZM22.0627 18.782C22.0827 18.622 22.1027 18.462 22.1027 18.292C22.1027 18.122 22.0927 17.962 22.0627 17.802L23.1227 16.972C23.2127 16.892 23.2427 16.762 23.1827 16.652L22.1827 14.922C22.1227 14.812 21.9927 14.772 21.8727 14.812L20.6327 15.312C20.3727 15.112 20.0927 14.942 19.7827 14.822L19.5927 13.502C19.5827 13.382 19.4727 13.292 19.3527 13.292H17.3527C17.2327 13.292 17.1227 13.382 17.1027 13.502L16.9127 14.822C16.6127 14.952 16.3227 15.112 16.0627 15.312L14.8227 14.812C14.7127 14.772 14.5827 14.812 14.5127 14.922L13.5127 16.652C13.4527 16.762 13.4727 16.892 13.5727 16.972L14.6327 17.802C14.6127 17.962 14.6027 18.122 14.6027 18.292C14.6027 18.462 14.6127 18.622 14.6327 18.782L13.5727 19.612C13.4827 19.692 13.4527 19.822 13.5127 19.932L14.5127 21.662C14.5727 21.772 14.7027 21.812 14.8227 21.772L16.0627 21.272C16.3227 21.472 16.6027 21.642 16.9127 21.762L17.1027 23.082C17.1227 23.202 17.2227 23.292 17.3527 23.292H19.3527C19.4727 23.292 19.5827 23.202 19.6027 23.082L19.7927 21.762C20.0927 21.632 20.3827 21.472 20.6327 21.272L21.8827 21.772C21.9927 21.812 22.1227 21.772 22.1927 21.662L23.1927 19.932C23.2527 19.822 23.2227 19.692 23.1327 19.612L22.0627 18.782ZM16.8527 18.292C16.8527 19.122 17.5227 19.792 18.3527 19.792C19.1827 19.792 19.8527 19.122 19.8527 18.292C19.8527 17.462 19.1827 16.792 18.3527 16.792C17.5227 16.792 16.8527 17.462 16.8527 18.292Z" fill="black" fill-opacity="0.54"/>
</g>
</svg>
