<svg width="24" height="24" viewBox="0 0 24 24" fill="none" xmlns="http://www.w3.org/2000/svg">
<g id="perm_phone_msg_24px">
<path id="icon/action/perm_phone_msg_24px" fill-rule="evenodd" clip-rule="evenodd" d="M12.9869 3.01317H19.9869C20.5369 3.01317 20.9869 3.46317 20.9869 4.01317V9.01317C20.9869 9.56317 20.5369 10.0132 19.9869 10.0132H14.9869L11.9869 13.0132V4.01317C11.9869 3.46317 12.4369 3.01317 12.9869 3.01317ZM16.6769 14.9832L19.2169 15.2732C20.2269 15.3932 20.9869 16.2432 20.9769 17.2532V18.9832C20.9769 20.1132 20.0369 21.0532 18.9069 20.9832C10.3769 20.4532 3.54686 13.6332 3.01686 5.09317C2.94686 3.96317 3.88686 3.02317 5.01686 3.02317H6.74686C7.76686 3.02317 8.61686 3.78317 8.73686 4.79317L9.02686 7.31317C9.09686 7.92317 8.88686 8.52317 8.45686 8.95317L6.60686 10.8032C8.04686 13.6432 10.3669 15.9532 13.1969 17.3932L15.0369 15.5532C15.4669 15.1232 16.0669 14.9132 16.6769 14.9832Z" fill="black" fill-opacity="0.54"/>
</g>
</svg>
