<svg width="24" height="24" viewBox="0 0 24 24" fill="none" xmlns="http://www.w3.org/2000/svg">
<g id="perm_camera_mic_24px">
<path id="icon/action/perm_camera_mic_24px" fill-rule="evenodd" clip-rule="evenodd" d="M16.8349 5H20.0049C21.1049 5 22.0049 5.9 21.9949 7V19C21.9949 20.1 21.0949 21 19.9949 21H12.9949V18.91C15.4449 18.5 17.4049 16.59 17.8849 14.16C18.0049 13.55 17.5049 13 16.8949 13C16.4149 13 16.0149 13.35 15.9149 13.83C15.5349 15.64 13.9349 17 12.0049 17C10.0749 17 8.47494 15.64 8.08494 13.83C7.98494 13.35 7.59494 13 7.10494 13C6.49494 13 5.99494 13.55 6.11494 14.16C6.59494 16.59 8.55494 18.49 11.0049 18.91V21H4.00494C2.90494 21 2.00494 20.1 2.00494 19V7C2.00494 5.9 2.90494 5 4.00494 5H7.17494L8.40494 3.65C8.78494 3.24 9.32494 3 9.88494 3H14.1249C14.6849 3 15.2249 3.24 15.5949 3.65L16.8349 5ZM12.0049 15C13.1049 15 14.0049 14.1 14.0049 13V9C14.0049 7.9 13.1049 7 12.0049 7C10.9049 7 10.0049 7.9 10.0049 9V13C10.0049 14.1 10.9049 15 12.0049 15Z" fill="black" fill-opacity="0.54"/>
</g>
</svg>
