<svg width="24" height="24" viewBox="0 0 24 24" fill="none" xmlns="http://www.w3.org/2000/svg">
<g id="picture_in_picture_24px">
<path id="icon/action/picture_in_picture_24px" fill-rule="evenodd" clip-rule="evenodd" d="M21 3.00999H3C1.9 3.00999 1 3.90999 1 5.00999V19.01C1 20.11 1.9 20.99 3 20.99H21C22.1 20.99 23 20.11 23 19.01V5.00999C23 3.90999 22.1 3.00999 21 3.00999ZM18 7.00999H12C11.45 7.00999 11 7.45999 11 8.00999V12.01C11 12.56 11.45 13.01 12 13.01H18C18.55 13.01 19 12.56 19 12.01V8.00999C19 7.45999 18.55 7.00999 18 7.00999ZM4 19.02H20C20.55 19.02 21 18.57 21 18.02V5.98999C21 5.43999 20.55 4.98999 20 4.98999H4C3.45 4.98999 3 5.43999 3 5.98999V18.02C3 18.57 3.45 19.02 4 19.02Z" fill="black" fill-opacity="0.54"/>
</g>
</svg>
