<svg width="24" height="24" viewBox="0 0 24 24" fill="none" xmlns="http://www.w3.org/2000/svg">
<g id="play_for_work_24px">
<path id="icon/action/play_for_work_24px" fill-rule="evenodd" clip-rule="evenodd" d="M11 10.09V5.5C11 4.95 11.45 4.5 12 4.5C12.55 4.5 13 4.95 13 5.5V10.09H15.3C15.74 10.09 15.96 10.63 15.65 10.94L12.36 14.23C12.16 14.43 11.85 14.43 11.65 14.23L8.36001 10.94C8.04001 10.63 8.26001 10.09 8.71001 10.09H11ZM6.11001 14.65C5.99001 14.05 6.49001 13.5 7.10001 13.5C7.59001 13.5 7.99001 13.85 8.09001 14.33C8.47001 16.14 10.07 17.5 12 17.5C13.93 17.5 15.53 16.14 15.92 14.33C16.02 13.85 16.41 13.5 16.9 13.5C17.51 13.5 18.01 14.05 17.89 14.65C17.35 17.41 14.92 19.5 12 19.5C9.08001 19.5 6.65001 17.41 6.11001 14.65Z" fill="black" fill-opacity="0.54"/>
</g>
</svg>
