<svg width="24" height="24" viewBox="0 0 24 24" fill="none" xmlns="http://www.w3.org/2000/svg">
<g id="power_settings_new_24px">
<path id="icon/action/power_settings_new_24px" fill-rule="evenodd" clip-rule="evenodd" d="M11.0018 4.00273C11.0018 3.45273 11.4518 3.00273 12.0018 3.00273C12.5518 3.00273 13.0018 3.45273 13.0018 4.00273V12.0027C13.0018 12.5527 12.5518 13.0027 12.0018 13.0027C11.4518 13.0027 11.0018 12.5527 11.0018 12.0027V4.00273ZM17.1318 7.25273C16.7618 6.86273 16.7518 6.25273 17.1418 5.86273C17.5418 5.46273 18.2018 5.47273 18.5818 5.88273C20.0818 7.48273 21.0018 9.62273 21.0018 11.9927C21.0018 17.0627 16.8118 21.1527 11.7118 20.9927C6.83182 20.8427 2.86182 16.6227 3.00182 11.7427C3.07182 9.47273 3.98182 7.42273 5.43182 5.88273C5.81182 5.47273 6.46182 5.46273 6.86182 5.86273C7.24182 6.24273 7.24182 6.85273 6.87182 7.24273C5.71182 8.49273 5.00182 10.1627 5.00182 12.0027C5.00182 15.9027 8.18182 19.0527 12.0918 18.9927C15.9218 18.9527 19.0918 15.6527 19.0018 11.8227C18.9618 10.0527 18.2618 8.45273 17.1318 7.25273Z" fill="black" fill-opacity="0.54"/>
</g>
</svg>
