<svg width="24" height="24" viewBox="0 0 24 24" fill="none" xmlns="http://www.w3.org/2000/svg">
<g id="record_voice_over_24px">
<path id="icon/action/record_voice_over_24px" fill-rule="evenodd" clip-rule="evenodd" d="M19.0519 4.59589C18.7219 4.13589 18.7819 3.51589 19.1819 3.11589C19.6719 2.62589 20.5119 2.66589 20.9319 3.21589C23.6919 6.86589 23.6819 11.6959 20.9319 15.2359C20.5119 15.7859 19.6819 15.8259 19.1919 15.3359L19.1619 15.3059C18.7719 14.9159 18.7019 14.2959 19.0219 13.8459C21.0119 11.0059 21.0219 7.33589 19.0519 4.59589ZM5.00189 9.22589C5.00189 7.01675 6.79275 5.22589 9.00189 5.22589C11.211 5.22589 13.0019 7.01675 13.0019 9.22589C13.0019 11.435 11.211 13.2259 9.00189 13.2259C6.79275 13.2259 5.00189 11.435 5.00189 9.22589ZM1.00189 19.2259C1.00189 16.5659 6.33189 15.2259 9.00189 15.2259C11.6719 15.2259 17.0019 16.5659 17.0019 19.2259V20.2259C17.0019 20.7759 16.5519 21.2259 16.0019 21.2259H2.00189C1.45189 21.2259 1.00189 20.7759 1.00189 20.2259V19.2259ZM15.4719 10.4559C15.2819 10.9259 15.3619 11.4559 15.7219 11.8159L15.7519 11.8459C16.3319 12.4259 17.3219 12.3059 17.7019 11.5759C18.4619 10.1259 18.4619 8.42589 17.6819 6.91589C17.3019 6.17589 16.3019 6.03589 15.7119 6.62589L15.7019 6.63589C15.3619 6.98589 15.2819 7.52589 15.4719 7.99589C15.7919 8.78589 15.7919 9.66589 15.4719 10.4559Z" fill="black" fill-opacity="0.54"/>
</g>
</svg>
