<svg width="24" height="24" viewBox="0 0 24 24" fill="none" xmlns="http://www.w3.org/2000/svg">
<g id="remove_shopping_cart_24px">
<path id="icon/action/remove_shopping_cart_24px" fill-rule="evenodd" clip-rule="evenodd" d="M1.27498 2.67999C0.884983 2.28999 0.884983 1.65999 1.27498 1.26999C1.46181 1.08274 1.71547 0.977509 1.97998 0.977509C2.2445 0.977509 2.49815 1.08274 2.68498 1.26999L22.725 21.32C23.115 21.71 23.115 22.34 22.725 22.73C22.335 23.12 21.705 23.12 21.315 22.73L19.185 20.6C18.825 21.11 18.235 21.44 17.565 21.44C16.465 21.44 15.575 20.54 15.575 19.44C15.575 18.77 15.905 18.18 16.405 17.82L15.025 16.44H7.69498C6.63498 16.44 5.67498 15.68 5.57498 14.62C5.53498 14.2 5.62498 13.8 5.81498 13.47L7.16498 11.02L4.95498 6.35999L1.27498 2.67999ZM8.66498 12.44L7.56498 14.44H13.025L11.025 12.44H8.66498ZM16.615 12.38C17.155 12.24 17.605 11.89 17.865 11.41L21.445 4.91999C21.815 4.25999 21.325 3.43999 20.565 3.43999H7.68498L16.615 12.38ZM5.57498 19.44C5.57498 18.34 6.46498 17.44 7.56498 17.44C8.66498 17.44 9.56498 18.34 9.56498 19.44C9.56498 20.54 8.66498 21.44 7.56498 21.44C6.46498 21.44 5.57498 20.54 5.57498 19.44Z" fill="black" fill-opacity="0.54"/>
</g>
</svg>
