<svg width="24" height="24" viewBox="0 0 24 24" fill="none" xmlns="http://www.w3.org/2000/svg">
<g id="report_problem_24px">
<path id="icon/action/report_problem_24px" fill-rule="evenodd" clip-rule="evenodd" d="M2.73499 21.0012H21.265C22.035 21.0012 22.515 20.1712 22.135 19.5012L12.865 3.50125C12.475 2.83125 11.515 2.83125 11.135 3.50125L1.86499 19.5012C1.48499 20.1712 1.96499 21.0012 2.73499 21.0012ZM13.005 18.0012H11.005V16.0012H13.005V18.0012ZM11.005 13.0012C11.005 13.5512 11.455 14.0012 12.005 14.0012C12.555 14.0012 13.005 13.5512 13.005 13.0012V11.0012C13.005 10.4512 12.555 10.0012 12.005 10.0012C11.455 10.0012 11.005 10.4512 11.005 11.0012V13.0012Z" fill="black" fill-opacity="0.54"/>
</g>
</svg>
