<svg width="24" height="24" viewBox="0 0 24 24" fill="none" xmlns="http://www.w3.org/2000/svg">
<g id="restore_24px">
<path id="icon/action/restore_24px" fill-rule="evenodd" clip-rule="evenodd" d="M4.14401 12.0017C4.14401 6.94174 8.31401 2.86174 13.404 3.00174C18.094 3.13174 22.014 7.05174 22.144 11.7417C22.284 16.8317 18.194 21.0017 13.144 21.0017C11.064 21.0017 9.14401 20.2917 7.62401 19.1017C7.15401 18.7317 7.12401 18.0317 7.54401 17.6017C7.90401 17.2417 8.46401 17.2117 8.86401 17.5217C10.044 18.4517 11.534 19.0017 13.144 19.0017C17.044 19.0017 20.194 15.8117 20.144 11.9017C20.094 8.18174 16.964 5.05174 13.244 5.00174C9.32401 4.95174 6.14401 8.10174 6.14401 12.0017H7.94401C8.38401 12.0017 8.61401 12.5417 8.29401 12.8517L5.50401 15.6517C5.30401 15.8517 4.99401 15.8517 4.79401 15.6517L2.00401 12.8517C1.68401 12.5417 1.90401 12.0017 2.35401 12.0017H4.14401ZM12.144 8.75174C12.144 8.34174 12.484 8.00174 12.894 8.00174C13.314 8.00174 13.644 8.34174 13.644 8.74174V12.1417L16.524 13.8517C16.874 14.0617 16.994 14.5217 16.784 14.8817C16.574 15.2317 16.114 15.3517 15.754 15.1417L12.634 13.2917C12.334 13.1117 12.144 12.7817 12.144 12.4317V8.75174Z" fill="black" fill-opacity="0.54"/>
</g>
</svg>
