<svg width="24" height="24" viewBox="0 0 24 24" fill="none" xmlns="http://www.w3.org/2000/svg">
<g id="rowing_24px">
<path id="icon/action/rowing_24px" fill-rule="evenodd" clip-rule="evenodd" d="M14.4875 4.70876C15.5875 4.70876 16.4875 3.80876 16.4875 2.70876C16.4875 1.60876 15.5875 0.708755 14.4875 0.708755C13.3875 0.708755 12.4875 1.60876 12.4875 2.70876C12.4875 3.80876 13.3875 4.70876 14.4875 4.70876ZM4.23749 17.9588C3.82749 18.3688 3.82749 19.0488 4.23749 19.4588C4.64749 19.8688 5.32749 19.8688 5.73749 19.4588L8.48749 16.7088H10.4875L7.98749 14.2088L4.23749 17.9588ZM17.7775 17.9988L19.7775 20.0088C20.1675 20.3988 20.1675 21.0388 19.7775 21.4188L18.1975 22.9988C17.7975 23.3888 17.1675 23.3888 16.7775 22.9988L14.7875 20.9888C14.5975 20.8088 14.4975 20.5488 14.4975 20.2888V19.2088L7.38749 12.1188C7.09749 12.1588 6.79749 12.1888 6.48749 12.1888C5.88749 12.1888 5.40749 11.7088 5.40749 11.1088C5.40749 10.5088 5.88749 10.0288 6.48749 10.0288C8.14749 10.0588 10.0975 9.15876 11.1575 7.98876L12.5575 6.43876C12.7475 6.22876 12.9875 6.05876 13.2475 5.93876C13.5375 5.79876 13.8675 5.70876 14.2075 5.70876H14.2275C15.4675 5.70876 16.4875 6.72876 16.4875 7.96876V13.7188C16.4875 14.5588 16.1375 15.3288 15.5675 15.8788L11.9875 12.2988V10.0288C11.3575 10.5488 10.4875 11.0888 9.69749 11.4188L15.9875 17.7088H17.0675C17.3375 17.7088 17.5975 17.8188 17.7775 17.9988Z" fill="black" fill-opacity="0.54"/>
</g>
</svg>
