<svg width="20" height="20" viewBox="0 0 20 20" fill="none" xmlns="http://www.w3.org/2000/svg">
<g id="search_24px">
<path id="icon/action/search_24px" fill-rule="evenodd" clip-rule="evenodd" d="M9.0625 3.125C5.78331 3.125 3.125 5.78331 3.125 9.0625C3.125 12.3417 5.78331 15 9.0625 15C12.3417 15 15 12.3417 15 9.0625C15 5.78331 12.3417 3.125 9.0625 3.125ZM1.875 9.0625C1.875 5.09295 5.09295 1.875 9.0625 1.875C13.032 1.875 16.25 5.09295 16.25 9.0625C16.25 10.8224 15.6175 12.4345 14.5674 13.684L17.9415 17.0581C18.1856 17.3022 18.1856 17.6979 17.9415 17.942C17.6974 18.1861 17.3017 18.1861 17.0576 17.942L13.6835 14.5679C12.434 15.6177 10.8221 16.25 9.0625 16.25C5.09295 16.25 1.875 13.032 1.875 9.0625Z" fill="#606878" stroke="#606878" stroke-width="0.3" stroke-linecap="round" stroke-linejoin="round"/>
</g>
</svg>

