<svg width="24" height="24" viewBox="0 0 24 24" fill="none" xmlns="http://www.w3.org/2000/svg">
<g id="settings_remote_24px">
<path id="icon/action/settings_remote_24px" fill-rule="evenodd" clip-rule="evenodd" d="M5.055 2.97C6.945 1.43 9.365 0.5 12.005 0.5C14.645 0.5 17.065 1.43 18.945 2.98C19.405 3.36 19.445 4.05 19.025 4.47C18.665 4.83 18.095 4.86 17.705 4.54C16.165 3.27 14.175 2.5 12.005 2.5C9.835 2.5 7.845 3.27 6.295 4.53C5.905 4.85 5.335 4.82 4.975 4.46C4.555 4.04 4.595 3.35 5.055 2.97ZM7.825 7.32C8.175 7.67 8.725 7.7 9.125 7.42C9.935 6.84 10.935 6.5 12.005 6.5C13.075 6.5 14.075 6.84 14.885 7.41C15.285 7.69 15.835 7.67 16.185 7.32C16.615 6.89 16.575 6.18 16.095 5.82C14.945 4.99 13.535 4.5 12.005 4.5C10.475 4.5 9.065 4.99 7.915 5.82C7.425 6.17 7.395 6.89 7.825 7.32ZM15.005 9.5C15.555 9.5 16.005 9.95 16.005 10.5V22.5C16.005 23.05 15.555 23.5 15.005 23.5H9.005C8.455 23.5 8.005 23.05 8.005 22.5V10.5C8.005 9.95 8.455 9.5 9.005 9.5H15.005ZM10.005 13.5C10.005 14.6 10.905 15.5 12.005 15.5C13.105 15.5 14.005 14.6 14.005 13.5C14.005 12.4 13.105 11.5 12.005 11.5C10.905 11.5 10.005 12.4 10.005 13.5Z" fill="black" fill-opacity="0.54"/>
</g>
</svg>
