<svg width="24" height="24" viewBox="0 0 24 24" fill="none" xmlns="http://www.w3.org/2000/svg">
<g id="settings_phone_24px">
<path id="icon/action/settings_phone_24px" fill-rule="evenodd" clip-rule="evenodd" d="M16.6768 14.9782L19.2168 15.2682C20.2268 15.3882 20.9868 16.2382 20.9768 17.2482V18.9782C20.9768 20.1082 20.0368 21.0482 18.9068 20.9782C10.3768 20.4482 3.54683 13.6282 3.01683 5.08816C2.94683 3.95816 3.88683 3.01816 5.01683 3.01816H6.74683C7.76683 3.01816 8.61683 3.77816 8.73683 4.78816L9.02683 7.30816C9.09683 7.91816 8.88683 8.51816 8.45683 8.94816L6.60683 10.7982C8.04683 13.6382 10.3668 15.9482 13.1968 17.3882L15.0368 15.5482C15.4668 15.1182 16.0668 14.9082 16.6768 14.9782ZM12.9868 9.00816H10.9868V11.0082H12.9868V9.00816ZM16.9868 9.00816H14.9868V11.0082H16.9868V9.00816ZM18.9868 9.00816H20.9868V11.0082H18.9868V9.00816Z" fill="black" fill-opacity="0.54"/>
</g>
</svg>
