<svg width="24" height="24" viewBox="0 0 24 24" fill="none" xmlns="http://www.w3.org/2000/svg">
<g id="settings_backup_restore_24px">
<path id="icon/action/settings_backup_restore_24px" fill-rule="evenodd" clip-rule="evenodd" d="M4.14401 12.0017C4.14401 6.95174 8.31401 2.86174 13.404 3.00174C18.094 3.13174 22.014 7.05174 22.144 11.7417C22.284 16.8317 18.194 21.0017 13.144 21.0017C11.534 21.0017 10.034 20.5717 8.72401 19.8417C8.15401 19.5217 8.06401 18.7317 8.52401 18.2717C8.83401 17.9517 9.31401 17.8717 9.70401 18.0917C10.724 18.6617 11.894 19.0017 13.144 19.0017C17.044 19.0017 20.194 15.8117 20.144 11.9017C20.094 8.18174 16.964 5.05174 13.244 5.00174C9.32401 4.95174 6.14401 8.10174 6.14401 12.0017H7.93401C8.38401 12.0017 8.60401 12.5417 8.29401 12.8517L5.50401 15.6417C5.30401 15.8417 4.99401 15.8417 4.79401 15.6417L2.00401 12.8517C1.68401 12.5417 1.90401 12.0017 2.35401 12.0017H4.14401ZM13.144 10.0017C14.244 10.0017 15.144 10.9017 15.144 12.0017C15.144 13.1017 14.244 14.0017 13.144 14.0017C12.044 14.0017 11.144 13.1017 11.144 12.0017C11.144 10.9017 12.044 10.0017 13.144 10.0017Z" fill="black" fill-opacity="0.54"/>
</g>
</svg>
