<svg width="24" height="24" viewBox="0 0 24 24" fill="none" xmlns="http://www.w3.org/2000/svg">
<g id="settings_voice_24px">
<path id="icon/action/settings_voice_24px" fill-rule="evenodd" clip-rule="evenodd" d="M12 12.5C13.66 12.5 14.99 11.16 14.99 9.5L15 3.5C15 1.84 13.66 0.5 12 0.5C10.34 0.5 8.99998 1.84 8.99998 3.5V9.5C8.99998 11.16 10.34 12.5 12 12.5ZM6.99998 23.5H8.99998V21.5H6.99998V23.5ZM13 21.5V23.5H11V21.5H13ZM15 23.5H17V21.5H15V23.5ZM17.25 10.21C17.31 9.8 17.66 9.5 18.08 9.5C18.6 9.5 19 9.96 18.93 10.47C18.47 13.43 15.96 15.78 13 16.22V18.5C13 19.05 12.55 19.5 12 19.5C11.45 19.5 11 19.05 11 18.5V16.22C8.02998 15.77 5.52998 13.43 5.06998 10.47C4.99998 9.96 5.39998 9.5 5.91998 9.5C6.32998 9.5 6.68998 9.8 6.74998 10.21C7.11998 12.83 9.46998 14.6 12 14.6C14.53 14.6 16.88 12.82 17.25 10.21Z" fill="black" fill-opacity="0.54"/>
</g>
</svg>
