<svg width="24" height="24" viewBox="0 0 24 24" fill="none" xmlns="http://www.w3.org/2000/svg">
<g id="settings_power_24px">
<path id="icon/action/settings_power_24px" fill-rule="evenodd" clip-rule="evenodd" d="M11.0024 2C11.0024 1.45 11.4524 1 12.0024 1C12.5524 1 13.0024 1.45 13.0024 2V10C13.0024 10.55 12.5524 11 12.0024 11C11.4524 11 11.0024 10.55 11.0024 10V2ZM7.00238 23H9.00238V21H7.00238V23ZM11.0024 21V23H13.0024V21H11.0024ZM15.9424 4.06L15.9224 4.08C15.5124 4.49 15.5624 5.16 16.0024 5.54C17.5124 6.88 18.3324 8.97 17.8824 11.24C17.4224 13.52 15.5924 15.38 13.3224 15.86C9.43238 16.69 6.00238 13.74 6.00238 10C6.00238 8.22 6.78238 6.63 8.01238 5.53C8.44238 5.14 8.48238 4.49 8.08238 4.08L8.06238 4.06C7.69238 3.69 7.10238 3.67 6.70238 4.02C4.69238 5.79 3.58238 8.55 4.14238 11.54C4.73238 14.69 7.25238 17.24 10.4024 17.85C15.5224 18.84 20.0024 14.95 20.0024 10C20.0024 7.62 18.9524 5.48 17.2924 4.01C16.9024 3.67 16.3124 3.69 15.9424 4.06ZM17.0024 21V23H15.0024V21H17.0024Z" fill="black" fill-opacity="0.54"/>
</g>
</svg>
