<svg width="24" height="24" viewBox="0 0 24 24" fill="none" xmlns="http://www.w3.org/2000/svg">
<g id="settings_bluetooth_24px">
<path id="icon/action/settings_bluetooth_24px" fill-rule="evenodd" clip-rule="evenodd" d="M17.6512 6.20204L14.0312 9.82204L17.6512 13.432C17.8312 13.622 17.9412 13.872 17.9412 14.142C17.9412 14.412 17.8412 14.662 17.6512 14.852L13.3312 19.172C13.1412 19.362 12.8812 19.462 12.6212 19.462C12.4912 19.462 12.3612 19.432 12.2412 19.382C11.8612 19.232 11.6212 18.862 11.6212 18.462V12.232L7.76125 16.082C7.37125 16.472 6.74125 16.472 6.35125 16.082C5.96125 15.692 5.96125 15.062 6.35125 14.672L11.2012 9.82204L6.35125 4.96204C5.96125 4.57204 5.96125 3.94204 6.35125 3.55204C6.74125 3.16204 7.37125 3.16204 7.76125 3.55204L11.6212 7.40204V1.17204C11.6212 0.772041 11.8612 0.402041 12.2312 0.252041C12.6012 0.102041 13.0312 0.182041 13.3212 0.472041L17.6512 4.78204C17.8312 4.97204 17.9412 5.22204 17.9412 5.49204C17.9412 5.76204 17.8412 6.01204 17.6512 6.20204ZM9.62125 21.822H7.62125V23.822H9.62125V21.822ZM13.6212 23.822V21.822H11.6212V23.822H13.6212ZM15.6212 21.822H17.6212V23.822H15.6212V21.822ZM13.6212 3.59204L15.5312 5.50204L13.6212 7.40204V3.59204ZM15.5312 14.142L13.6212 12.232V16.052L15.5312 14.142Z" fill="black" fill-opacity="0.54"/>
</g>
</svg>
