<svg width="24" height="24" viewBox="0 0 24 24" fill="none" xmlns="http://www.w3.org/2000/svg">
<g id="settings_input_antenna_24px">
<path id="icon/action/settings_input_antenna_24px" fill-rule="evenodd" clip-rule="evenodd" d="M1.04925 11.4038C1.60925 5.84375 6.29926 1.50375 11.9993 1.50375C17.6993 1.50375 22.3893 5.84375 22.9493 11.4038C23.0093 11.9938 22.5393 12.5038 21.9493 12.5038C21.4393 12.5038 21.0093 12.1238 20.9593 11.6238C20.5193 7.06375 16.6693 3.50375 11.9993 3.50375C7.32926 3.50375 3.47925 7.06375 3.03925 11.6238C2.98925 12.1238 2.55925 12.5038 2.04925 12.5038C1.45925 12.5038 0.999255 11.9938 1.04925 11.4038ZM11.9993 5.50375C8.51926 5.50375 5.62925 8.04375 5.08925 11.3738C4.98925 11.9638 5.47925 12.5038 6.08925 12.5038C6.57926 12.5038 6.98925 12.1438 7.06925 11.6538C7.47926 9.29375 9.52925 7.50375 11.9993 7.50375C14.4693 7.50375 16.5193 9.29375 16.9293 11.6538C17.0093 12.1438 17.4193 12.5038 17.9093 12.5038C18.5193 12.5038 18.9993 11.9638 18.8993 11.3738C18.3693 8.04375 15.4793 5.50375 11.9993 5.50375ZM12.9993 14.7938C14.0693 14.3138 14.7593 13.1338 14.4093 11.8038C14.1893 10.9938 13.5393 10.3338 12.7293 10.1038C11.0393 9.62375 9.49925 10.8838 9.49925 12.5038C9.49925 13.5238 10.1193 14.4038 10.9993 14.7938V18.0938L8.28925 20.7938C7.89925 21.1838 7.89925 21.8138 8.28925 22.2038C8.67925 22.5938 9.30925 22.5938 9.69925 22.2038L11.9993 19.9038L14.2993 22.2038C14.6893 22.5938 15.3193 22.5938 15.7093 22.2038C16.0993 21.8138 16.0993 21.1838 15.7093 20.7938L12.9993 18.0938V14.7938Z" fill="black" fill-opacity="0.54"/>
</g>
</svg>
