<svg width="24" height="24" viewBox="0 0 24 24" fill="none" xmlns="http://www.w3.org/2000/svg">
<g id="shopping_cart_24px">
<path id="icon/action/shopping_cart_24px" fill-rule="evenodd" clip-rule="evenodd" d="M1.99628 3C1.99628 3.55 2.44628 4 2.99628 4H3.99628L7.59628 11.59L6.24628 14.03C5.51628 15.37 6.47628 17 7.99628 17H18.9963C19.5463 17 19.9963 16.55 19.9963 16C19.9963 15.45 19.5463 15 18.9963 15H7.99628L9.09628 13H16.5463C17.2963 13 17.9563 12.59 18.2963 11.97L21.8763 5.48C22.2463 4.82 21.7663 4 21.0063 4H6.20628L5.53628 2.57C5.37628 2.22 5.01628 2 4.63628 2H2.99628C2.44628 2 1.99628 2.45 1.99628 3ZM7.99628 18C6.89628 18 6.00628 18.9 6.00628 20C6.00628 21.1 6.89628 22 7.99628 22C9.09628 22 9.99628 21.1 9.99628 20C9.99628 18.9 9.09628 18 7.99628 18ZM16.0063 20C16.0063 18.9 16.8963 18 17.9963 18C19.0963 18 19.9963 18.9 19.9963 20C19.9963 21.1 19.0963 22 17.9963 22C16.8963 22 16.0063 21.1 16.0063 20Z" fill="black" fill-opacity="0.54"/>
</g>
</svg>
