<svg width="24" height="24" viewBox="0 0 24 24" fill="none" xmlns="http://www.w3.org/2000/svg">
<g id="shop_24px">
<path id="icon/action/shop_24px" fill-rule="evenodd" clip-rule="evenodd" d="M16 6.5V4.5C16 3.4 15.1 2.5 14 2.5H10C8.9 2.5 8 3.4 8 4.5V6.5H4C2.9 6.5 2 7.4 2 8.5V19.5C2 20.6 2.9 21.5 4 21.5H20C21.1 21.5 22 20.6 22 19.5V8.5C22 7.4 21.1 6.5 20 6.5H16ZM10 4.5H14V6.5H10V4.5ZM9 10.33V17.57C9 17.97 9.45 18.2 9.78 17.98L15.81 13.96C16.13 13.75 16.1 13.28 15.77 13.1L9.74 9.89C9.4 9.71 9 9.95 9 10.33Z" fill="black" fill-opacity="0.54"/>
</g>
</svg>
