<svg width="24" height="24" viewBox="0 0 24 24" fill="none" xmlns="http://www.w3.org/2000/svg">
<g id="shop_two_24px">
<path id="icon/action/shop_two_24px" fill-rule="evenodd" clip-rule="evenodd" d="M18 3.5V5.5H21C22.1 5.5 23 6.4 23 7.5V16.5C23 17.6 22.1 18.5 21 18.5H7C5.9 18.5 5 17.6 5 16.5V7.5C5 6.4 5.9 5.5 7 5.5H10V3.5C10 2.4 10.9 1.5 12 1.5H16C17.1 1.5 18 2.4 18 3.5ZM1 10.5C1 9.95 1.45 9.5 2 9.5C2.55 9.5 3 9.95 3 10.5V19.5C3 20.05 3.45 20.5 4 20.5H19C19 21.61 18.11 22.5 17 22.5H3C1.9 22.5 1 21.6 1 20.5V10.5ZM12 3.5H16V5.5H12V3.5ZM12 9.34V14.52C12 14.93 12.46 15.16 12.79 14.92L16.86 11.96C17.16 11.75 17.13 11.3 16.81 11.12L12.74 8.9C12.41 8.72 12 8.96 12 9.34Z" fill="black" fill-opacity="0.54"/>
</g>
</svg>
