<svg width="24" height="24" viewBox="0 0 24 24" fill="none" xmlns="http://www.w3.org/2000/svg">
<g id="speaker_notes_off_24px">
<path id="icon/action/speaker_notes_off_24px" fill-rule="evenodd" clip-rule="evenodd" d="M20.8113 1.32375H4.89125L11.8913 8.32375H17.8113C18.3613 8.32375 18.8113 8.77375 18.8113 9.32375C18.8113 9.87375 18.3613 10.3238 17.8113 10.3238H13.8913L20.8813 17.3137C21.9513 17.2737 22.8113 16.4037 22.8113 15.3238V3.32375C22.8113 2.22375 21.9113 1.32375 20.8113 1.32375ZM2.72125 1.68375C2.37125 1.33375 1.80125 1.33375 1.45125 1.68375C1.10125 2.03375 1.10125 2.60375 1.45125 2.95375L2.83125 4.33375L2.81125 21.3238L6.81125 17.3238H15.8113L20.9013 22.4138C21.2513 22.7638 21.8213 22.7638 22.1713 22.4138C22.5213 22.0637 22.5213 21.4938 22.1713 21.1437L2.72125 1.68375ZM7.81125 13.3238C7.26125 13.3238 6.81125 12.8738 6.81125 12.3238C6.81125 11.7737 7.26125 11.3238 7.81125 11.3238C8.36125 11.3238 8.81125 11.7737 8.81125 12.3238C8.81125 12.8738 8.36125 13.3238 7.81125 13.3238ZM6.81125 9.32375C6.81125 9.87375 7.26125 10.3238 7.81125 10.3238C8.36125 10.3238 8.81125 9.87375 8.81125 9.32375C8.81125 8.77375 8.36125 8.32375 7.81125 8.32375C7.26125 8.32375 6.81125 8.77375 6.81125 9.32375ZM11.8113 7.32375H17.8113C18.3613 7.32375 18.8113 6.87375 18.8113 6.32375C18.8113 5.77375 18.3613 5.32375 17.8113 5.32375H11.8113C11.2613 5.32375 10.8113 5.77375 10.8113 6.32375C10.8113 6.87375 11.2613 7.32375 11.8113 7.32375Z" fill="black" fill-opacity="0.54"/>
</g>
</svg>
