<svg width="24" height="24" viewBox="0 0 24 24" fill="none" xmlns="http://www.w3.org/2000/svg">
<g id="spellcheck_24px">
<path id="icon/action/spellcheck_24px" fill-rule="evenodd" clip-rule="evenodd" d="M12.3728 15.4537C13.0628 15.4537 13.5228 14.7638 13.2728 14.1338L9.02279 3.32375C8.81279 2.79375 8.31279 2.45375 7.75279 2.45375C7.19279 2.45375 6.69279 2.79375 6.48279 3.32375L2.23279 14.1338C1.98279 14.7638 2.45279 15.4537 3.13279 15.4537C3.53279 15.4537 3.89279 15.2037 4.04279 14.8237L4.92279 12.4537H10.5628L11.4628 14.8338C11.6128 15.2037 11.9728 15.4537 12.3728 15.4537ZM5.68279 10.4537L7.75279 4.93375L9.82279 10.4537H5.68279ZM12.7528 19.1338L20.1428 11.7437C20.5228 11.3637 21.1628 11.3637 21.5428 11.7538C21.9328 12.1438 21.9328 12.7737 21.5428 13.1637L13.4628 21.2537C13.0728 21.6438 12.4428 21.6438 12.0528 21.2537L8.37279 17.5738C7.98279 17.1838 7.98279 16.5538 8.37279 16.1637C8.55962 15.9765 8.81327 15.8713 9.07779 15.8713C9.34231 15.8713 9.59596 15.9765 9.78279 16.1637L12.7528 19.1338Z" fill="black" fill-opacity="0.54"/>
</g>
</svg>
