<svg width="24" height="24" viewBox="0 0 24 24" fill="none" xmlns="http://www.w3.org/2000/svg">
<g id="swap_vert_24px">
<path id="icon/action/swap_vert_24px" fill-rule="evenodd" clip-rule="evenodd" d="M5.85606 6.145L8.64606 3.355C8.83606 3.165 9.15606 3.165 9.34606 3.355L12.1361 6.145C12.4561 6.455 12.2361 6.995 11.7861 6.995H9.99606V13.005C9.99606 13.555 9.54606 14.005 8.99606 14.005C8.44606 14.005 7.99606 13.555 7.99606 13.005V6.995H6.20606C5.75606 6.995 5.53606 6.455 5.85606 6.145ZM15.9961 11.005V17.015H17.7961C18.2361 17.015 18.4661 17.555 18.1461 17.865L15.3561 20.645C15.1561 20.835 14.8461 20.835 14.6461 20.645L11.8561 17.865C11.5361 17.555 11.7561 17.015 12.2061 17.015H13.9961V11.005C13.9961 10.455 14.4461 10.005 14.9961 10.005C15.5461 10.005 15.9961 10.455 15.9961 11.005Z" fill="black" fill-opacity="0.54"/>
</g>
</svg>
