<svg width="24" height="24" viewBox="0 0 24 24" fill="none" xmlns="http://www.w3.org/2000/svg">
<g id="swap_horiz_24px">
<path id="icon/action/swap_horiz_24px" fill-rule="evenodd" clip-rule="evenodd" d="M17.8656 5.855L20.6456 8.645C20.8356 8.835 20.8356 9.155 20.6356 9.345L17.8556 12.135C17.5456 12.455 17.0056 12.235 17.0056 11.785V9.995H10.9956C10.4456 9.995 9.99563 9.545 9.99563 8.995C9.99563 8.445 10.4456 7.995 10.9956 7.995H17.0156V6.205C17.0156 5.765 17.5556 5.535 17.8656 5.855ZM3.35563 14.645L6.13563 11.855C6.44563 11.535 6.98563 11.755 6.98563 12.205V13.995H12.9956C13.5456 13.995 13.9956 14.445 13.9956 14.995C13.9956 15.545 13.5456 15.995 12.9956 15.995H6.98563V17.795C6.98563 18.235 6.44563 18.465 6.13563 18.145L3.35563 15.355C3.16563 15.155 3.16563 14.845 3.35563 14.645Z" fill="black" fill-opacity="0.54"/>
</g>
</svg>
