<svg width="24" height="24" viewBox="0 0 24 24" fill="none" xmlns="http://www.w3.org/2000/svg">
<g id="system_vertical_alt_24px">
<path id="icon/action/system_vertical_alt_24px" fill-rule="evenodd" clip-rule="evenodd" d="M15.99 3H21C22.1 3 23 3.9 23 5V19C23 20.1 22.1 21 21 21H3C1.9 21 1 20.1 1 19V5C1 3.9 1.9 3 3 3H8.01C8.55 3 9 3.45 9 4C9 4.54 8.55 4.99 8.01 4.99H4C3.45 4.99 3 5.44 3 5.99V18.01C3 18.56 3.45 19.01 4 19.01H20C20.55 19.01 21 18.56 21 18.01V5.98C21 5.43 20.55 4.98 20 4.98H15.99C15.45 4.98 15 4.54 15 3.99C15 3.45 15.45 3 15.99 3ZM15.14 12.86L12.35 15.65C12.16 15.84 11.84 15.84 11.65 15.64L8.86 12.85C8.54 12.54 8.76 12 9.21 12H11V4C11 3.45 11.45 3 12 3C12.55 3 13 3.45 13 4V12.01H14.79C15.23 12.01 15.45 12.55 15.14 12.86Z" fill="black" fill-opacity="0.54"/>
</g>
</svg>
