<svg width="24" height="24" viewBox="0 0 24 24" fill="none" xmlns="http://www.w3.org/2000/svg">
<g id="text_rotation_angle_down_24px">
<path id="icon/action/text_rotation_angle_down_24px" fill-rule="evenodd" clip-rule="evenodd" d="M11.7553 8.13096L15.2953 11.671L14.6253 13.271C14.4753 13.631 14.5553 14.041 14.8353 14.321C15.3253 14.811 16.1453 14.641 16.4053 14.001L20.0153 4.91096C20.1853 4.49096 20.0853 4.00096 19.7653 3.68096C19.4453 3.36096 18.9653 3.26096 18.5353 3.43096L9.43527 7.03096C8.79527 7.28096 8.62527 8.11095 9.11527 8.60096C9.38527 8.87095 9.79527 8.95096 10.1553 8.80096L11.7553 8.13096ZM15.5053 20.151V17.611C15.5053 17.161 14.9653 16.941 14.6553 17.261L14.0953 17.821L5.60527 9.33096C5.41844 9.1437 5.16479 9.03847 4.90027 9.03847C4.63575 9.03847 4.3821 9.1437 4.19527 9.33096C3.80527 9.72095 3.80527 10.351 4.19527 10.741L12.6853 19.231L12.1253 19.791C11.8053 20.111 12.0253 20.651 12.4653 20.651H15.0053C15.2853 20.651 15.5053 20.421 15.5053 20.151ZM16.1153 9.95095L18.3453 5.08096L13.4753 7.31096L16.1153 9.95095Z" fill="black" fill-opacity="0.54"/>
</g>
</svg>
