<svg width="24" height="24" viewBox="0 0 24 24" fill="none" xmlns="http://www.w3.org/2000/svg">
<g id="text_rotate_vertical_24px">
<path id="icon/action/text_rotate_vertical_24px" fill-rule="evenodd" clip-rule="evenodd" d="M8.27657 17.955L6.48657 19.745C6.29657 19.945 5.97657 19.945 5.78657 19.745L3.99657 17.955C3.67657 17.645 3.89657 17.105 4.34657 17.105H5.13657V5.105C5.13657 4.545 5.58657 4.105 6.13657 4.105C6.68657 4.105 7.13657 4.555 7.13657 5.105V17.105H7.92657C8.37657 17.105 8.59657 17.645 8.27657 17.955ZM15.1366 5.105C14.6766 5.105 14.2666 5.375 14.0866 5.795L10.2066 14.765C9.93657 15.395 10.4066 16.105 11.0966 16.105C11.4866 16.105 11.8366 15.865 11.9866 15.505L12.6466 13.905H17.6466L18.3066 15.505C18.4566 15.865 18.8066 16.105 19.1966 16.105C19.8866 16.105 20.3466 15.395 20.0766 14.765L16.1966 5.795C16.0066 5.375 15.5966 5.105 15.1366 5.105ZM13.2666 12.105L15.1366 7.085L17.0066 12.105H13.2666Z" fill="black" fill-opacity="0.54"/>
</g>
</svg>
