<svg width="24" height="24" viewBox="0 0 24 24" fill="none" xmlns="http://www.w3.org/2000/svg">
<g id="text_rotation_none_24px">
<path id="icon/action/text_rotation_none_24px" fill-rule="evenodd" clip-rule="evenodd" d="M13.6044 12.1542L14.2644 13.7542C14.4144 14.1142 14.7644 14.3542 15.1544 14.3542C15.8444 14.3542 16.3044 13.6442 16.0344 13.0142L12.1544 4.04423C11.9744 3.62423 11.5644 3.35423 11.1044 3.35423C10.6444 3.35423 10.2344 3.62423 10.0544 4.04423L6.17437 13.0142C5.90437 13.6442 6.37437 14.3542 7.06437 14.3542C7.45437 14.3542 7.80437 14.1142 7.95437 13.7542L8.60437 12.1542H13.6044ZM19.7544 18.0042L17.9644 16.2142C17.6444 15.8942 17.1044 16.1142 17.1044 16.5642V17.3542H5.10437C4.55437 17.3542 4.10437 17.8042 4.10437 18.3542C4.10437 18.9042 4.55437 19.3542 5.10437 19.3542H17.1044V20.1442C17.1044 20.5942 17.6444 20.8142 17.9544 20.4942L19.7444 18.7042C19.9444 18.5142 19.9444 18.1942 19.7544 18.0042ZM12.9744 10.3542L11.1044 5.33423L9.23437 10.3542H12.9744Z" fill="black" fill-opacity="0.54"/>
</g>
</svg>
