<svg width="24" height="24" viewBox="0 0 24 24" fill="none" xmlns="http://www.w3.org/2000/svg">
<g id="text_rotation_down_24px">
<path id="icon/action/text_rotation_down_24px" fill-rule="evenodd" clip-rule="evenodd" d="M5.99578 19.7544L7.78578 17.9644C8.10578 17.6444 7.88578 17.1044 7.43578 17.1044H6.64578V5.10436C6.64578 4.55436 6.19578 4.10436 5.64578 4.10436C5.09578 4.10436 4.64578 4.55436 4.64578 5.10436V17.1044H3.85578C3.40578 17.1044 3.18578 17.6444 3.50578 17.9544L5.29578 19.7444C5.48578 19.9444 5.80578 19.9444 5.99578 19.7544ZM11.8458 8.60436V13.6044L10.2458 14.2644C9.88578 14.4144 9.64578 14.7644 9.64578 15.1544C9.64578 15.8444 10.3558 16.3044 10.9858 16.0344L19.9558 12.1544C20.3758 11.9744 20.6458 11.5644 20.6458 11.1044C20.6458 10.6444 20.3758 10.2344 19.9558 10.0544L10.9858 6.17436C10.3558 5.90436 9.64578 6.37436 9.64578 7.06436C9.64578 7.45436 9.88578 7.80436 10.2458 7.95436L11.8458 8.60436ZM13.6458 12.9744L18.6658 11.1044L13.6458 9.23436V12.9744Z" fill="black" fill-opacity="0.54"/>
</g>
</svg>
