<svg width="24" height="24" viewBox="0 0 24 24" fill="none" xmlns="http://www.w3.org/2000/svg">
<g id="text_rotation_angle_up_24px">
<path id="icon/action/text_rotation_angle_up_24px" fill-rule="evenodd" clip-rule="evenodd" d="M8.13097 12.2363L11.671 8.69628L13.271 9.36628C13.631 9.51628 14.041 9.43628 14.321 9.15628C14.811 8.66628 14.641 7.84628 14.001 7.58628L4.91097 3.98628C4.48097 3.82628 4.00097 3.92628 3.68097 4.24628C3.36097 4.56628 3.26097 5.04628 3.43097 5.47628L7.04097 14.5663C7.29097 15.2063 8.12097 15.3763 8.61097 14.8863C8.89097 14.6063 8.97097 14.1963 8.82097 13.8363L8.13097 12.2363ZM17.261 9.33628L17.821 9.89628L9.34097 18.3863C8.95097 18.7763 8.95097 19.4063 9.34097 19.7963C9.73097 20.1863 10.361 20.1863 10.751 19.7963L19.241 11.3063L19.801 11.8663C20.111 12.1863 20.651 11.9663 20.651 11.5263V8.98628C20.651 8.70628 20.431 8.48628 20.151 8.48628H17.611C17.171 8.48628 16.951 9.02628 17.261 9.33628ZM5.08097 5.64628L7.31097 10.5163L9.95097 7.87628L5.08097 5.64628Z" fill="black" fill-opacity="0.54"/>
</g>
</svg>
