<svg width="24" height="24" viewBox="0 0 24 24" fill="none" xmlns="http://www.w3.org/2000/svg">
<g id="text_rotate_up_24px">
<path id="icon/action/text_rotate_up_24px" fill-rule="evenodd" clip-rule="evenodd" d="M18.7042 4.25C18.5042 4.05 18.1942 4.05 17.9942 4.25L16.2042 6.04C15.8942 6.36 16.1142 6.9 16.5642 6.9H17.3542V18.9C17.3542 19.45 17.8042 19.9 18.3542 19.9C18.9042 19.9 19.3542 19.45 19.3542 18.9V6.9H20.1442C20.5942 6.9 20.8142 6.36 20.4942 6.05L18.7042 4.25ZM12.1542 10.4L13.7542 9.74C14.1142 9.6 14.3542 9.25 14.3542 8.86C14.3542 8.17 13.6442 7.71 13.0142 7.98L4.04425 11.86C3.62425 12.03 3.35425 12.44 3.35425 12.9C3.35425 13.36 3.62425 13.77 4.04425 13.95L13.0142 17.83C13.6442 18.1 14.3542 17.63 14.3542 16.94C14.3542 16.55 14.1142 16.2 13.7542 16.05L12.1542 15.4V10.4ZM10.3542 11.03L5.33425 12.9L10.3542 14.77V11.03Z" fill="black" fill-opacity="0.54"/>
</g>
</svg>
