<svg width="24" height="24" viewBox="0 0 24 24" fill="none" xmlns="http://www.w3.org/2000/svg">
<g id="thumbs_up_down_24px">
<path id="icon/action/thumbs_up_down_24px" fill-rule="evenodd" clip-rule="evenodd" d="M5.82494 5H10.0649C11.4949 5 12.4649 6.47 11.9049 7.79L9.76494 12.79C9.44494 13.52 8.72494 14 7.92494 14H2.00494C0.904944 14 0.00494385 13.1 0.00494385 12V6.21C0.00494385 5.68 0.214944 5.17 0.604944 4.8L4.60494 0.800001C5.03494 0.360001 5.74494 0.360001 6.18494 0.800001C6.44494 1.07 6.56494 1.45 6.48494 1.82L5.82494 5ZM16.0849 10H22.0049C23.1049 10 24.0049 10.9 23.9949 12V17.79C23.9949 18.32 23.7849 18.82 23.4049 19.2L19.4049 23.2C18.9749 23.64 18.2649 23.64 17.8249 23.2C17.5649 22.93 17.4449 22.55 17.5249 22.18L18.1849 19H13.9449C12.5049 19 11.5449 17.53 12.1049 16.21L14.2449 11.21C14.5649 10.48 15.2849 10 16.0849 10Z" fill="black" fill-opacity="0.54"/>
</g>
</svg>
