<svg width="24" height="24" viewBox="0 0 24 24" fill="none" xmlns="http://www.w3.org/2000/svg">
<g id="thumb_up_24px">
<path id="icon/action/thumb_up_24px" fill-rule="evenodd" clip-rule="evenodd" d="M7.40904 8.29188L12.949 2.75188C13.529 2.16188 14.469 2.16188 15.059 2.74188C15.419 3.10188 15.569 3.61188 15.469 4.11188L14.519 8.69188H20.169C22.319 8.69188 23.769 10.8919 22.929 12.8719L19.669 20.4819C19.349 21.2119 18.629 21.6919 17.829 21.6919H8.82904C7.72904 21.6919 6.82904 20.7919 6.82904 19.6919V9.70188C6.82904 9.17188 7.03904 8.66188 7.40904 8.29188ZM4.82904 19.6919C4.82904 20.7919 3.92904 21.6919 2.82904 21.6919C1.72904 21.6919 0.829041 20.7919 0.829041 19.6919V11.6919C0.829041 10.5919 1.72904 9.69188 2.82904 9.69188C3.92904 9.69188 4.82904 10.5919 4.82904 11.6919V19.6919Z" fill="black" fill-opacity="0.54"/>
</g>
</svg>
