<svg width="24" height="24" viewBox="0 0 24 24" fill="none" xmlns="http://www.w3.org/2000/svg">
<g id="touch_app_24px">
<path id="icon/action/touch_app_24px" fill-rule="evenodd" clip-rule="evenodd" d="M8.55147 6V9.74C7.34147 8.93 6.55147 7.56 6.55147 6C6.55147 3.51 8.56147 1.5 11.0515 1.5C13.5415 1.5 15.5515 3.51 15.5515 6C15.5515 7.56 14.7615 8.93 13.5515 9.74V6C13.5515 4.62 12.4315 3.5 11.0515 3.5C9.67147 3.5 8.55147 4.62 8.55147 6ZM13.1615 12C13.4715 12 13.7715 12.07 14.0515 12.21L18.1315 14.24C18.9015 14.62 19.3415 15.46 19.2215 16.31L18.5915 20.78C18.4515 21.77 17.6115 22.5 16.6115 22.5H10.5115C9.98147 22.5 9.47147 22.29 9.09147 21.92L5.08147 17.91C4.65147 17.47 4.65147 16.77 5.08147 16.33C5.35147 16.06 5.74147 15.94 6.11147 16.02L9.55147 16.74V6C9.55147 5.17 10.2215 4.5 11.0515 4.5C11.8815 4.5 12.5515 5.17 12.5515 6V12H13.1615Z" fill="black" fill-opacity="0.54"/>
</g>
</svg>
