<svg width="24" height="24" viewBox="0 0 24 24" fill="none" xmlns="http://www.w3.org/2000/svg">
<g id="track_changes_24px">
<path id="icon/action/track_changes_24px" d="M18.307 5.6669C17.947 6.0269 17.917 6.5869 18.237 6.9869C19.687 8.8069 20.447 11.2969 19.767 13.9069C18.977 16.9569 16.587 19.2369 13.557 19.8469C8.45696 20.8569 3.98696 16.9169 3.98696 11.9869C3.98696 7.9069 7.03696 4.5469 10.987 4.0569V6.0769C7.85696 6.6069 5.55696 9.5369 6.05696 12.9069C6.44696 15.5169 8.61696 17.6169 11.237 17.9369C14.877 18.3869 17.987 15.5469 17.987 11.9869C17.987 10.7369 17.607 9.5869 16.957 8.6269C16.617 8.1269 15.887 8.0969 15.457 8.5169L15.447 8.5269C15.107 8.8669 15.077 9.3969 15.337 9.7969C15.937 10.7169 16.177 11.8969 15.827 13.1169C15.437 14.4869 14.287 15.5769 12.887 15.8869C10.287 16.4569 7.98696 14.4969 7.98696 11.9869C7.98696 10.1269 9.26696 8.5769 10.987 8.1269V10.2669C10.387 10.6169 9.98696 11.2469 9.98696 11.9869C9.98696 13.0869 10.887 13.9869 11.987 13.9869C13.087 13.9869 13.987 13.0869 13.987 11.9869C13.987 11.2469 13.587 10.6069 12.987 10.2669V2.6969C12.987 2.3069 12.667 1.9869 12.277 1.9869C6.91696 1.7869 2.29696 6.0469 2.00696 11.3869C1.64696 17.9369 7.41696 23.2069 14.017 21.7869C17.897 20.9569 20.897 17.9869 21.767 14.1169C22.477 10.9569 21.567 7.9569 19.797 5.7469C19.427 5.2769 18.727 5.2469 18.307 5.6669Z" fill="black" fill-opacity="0.54"/>
</g>
</svg>
