<svg width="24" height="24" viewBox="0 0 24 24" fill="none" xmlns="http://www.w3.org/2000/svg">
<g id="trending_down_24px">
<path id="icon/action/trending_down_24px" d="M16.6462 16.9512L18.0862 15.5112L13.2062 10.6312L9.91623 13.9212C9.52623 14.3112 8.89623 14.3112 8.50623 13.9212L2.50623 7.91118C2.31898 7.72435 2.21375 7.4707 2.21375 7.20618C2.21375 6.94166 2.31898 6.68801 2.50623 6.50118C2.89623 6.11118 3.52623 6.11118 3.91623 6.50118L9.20623 11.8012L12.4962 8.51118C12.8862 8.12118 13.5162 8.12118 13.9062 8.51118L19.4962 14.0912L20.9362 12.6512C21.2462 12.3412 21.7862 12.5612 21.7862 13.0012V17.2912C21.7862 17.5712 21.5662 17.7912 21.2862 17.7912H16.9962C16.5562 17.8012 16.3362 17.2612 16.6462 16.9512Z" fill="black" fill-opacity="0.54"/>
</g>
</svg>
