<svg width="24" height="24" viewBox="0 0 24 24" fill="none" xmlns="http://www.w3.org/2000/svg">
<g id="trending_up_24px">
<path id="icon/action/trending_up_24px" d="M16.6461 7.05375L18.0861 8.49375L13.2061 13.3738L9.91606 10.0838C9.72923 9.8965 9.47558 9.79127 9.21106 9.79127C8.94654 9.79127 8.69289 9.8965 8.50606 10.0838L2.50606 16.0938C2.11606 16.4838 2.11606 17.1138 2.50606 17.5038C2.89606 17.8938 3.52606 17.8938 3.91606 17.5038L9.20606 12.2038L12.4961 15.4938C12.8861 15.8838 13.5161 15.8838 13.9061 15.4938L19.4961 9.91375L20.9361 11.3538C21.2461 11.6638 21.7861 11.4438 21.7861 11.0038V6.70375C21.7961 6.42375 21.5761 6.20375 21.2961 6.20375H17.0061C16.5561 6.20375 16.3361 6.74375 16.6461 7.05375Z" fill="black" fill-opacity="0.54"/>
</g>
</svg>
