<svg width="24" height="24" viewBox="0 0 24 24" fill="none" xmlns="http://www.w3.org/2000/svg">
<g id="update_24px">
<path id="icon/action/update_24px" fill-rule="evenodd" clip-rule="evenodd" d="M20.9984 4.20841V9.49841C20.9984 9.77841 20.7784 9.99841 20.4984 9.99841H15.2084C14.7584 9.99841 14.5384 9.45841 14.8584 9.13841L16.9484 7.04841C15.6784 5.78841 13.9284 4.99841 11.9984 4.99841C8.10842 4.99841 4.93842 8.19841 4.99842 12.0984C5.05842 15.8184 8.18842 18.9484 11.8984 18.9984C15.5084 19.0484 18.5184 16.3484 18.9484 12.8584C19.0084 12.3684 19.4284 11.9984 19.9284 11.9984C20.5284 11.9984 20.9984 12.5184 20.9284 13.1184C20.3784 17.5584 16.5884 20.9984 11.9984 20.9984C6.68842 20.9984 2.45842 16.3984 3.05842 10.9784C3.51842 6.78841 6.96842 3.41841 11.1584 3.03841C13.9784 2.78841 16.5584 3.82841 18.3684 5.63841L20.1484 3.85841C20.4584 3.53841 20.9984 3.75841 20.9984 4.20841ZM10.9984 12.4284V8.74841C10.9984 8.33841 11.3384 7.99841 11.7484 7.99841C12.1584 7.99841 12.4984 8.33841 12.5084 8.73841V12.1384L15.3784 13.8484C15.7384 14.0584 15.8484 14.5184 15.6384 14.8784C15.4284 15.2284 14.9684 15.3484 14.6084 15.1384L11.4884 13.2884C11.1884 13.1084 10.9984 12.7784 10.9984 12.4284Z" fill="black" fill-opacity="0.54"/>
</g>
</svg>
