<svg width="24" height="24" viewBox="0 0 24 24" fill="none" xmlns="http://www.w3.org/2000/svg">
<g id="verified_user_24px">
<path id="icon/action/verified_user_24px" fill-rule="evenodd" clip-rule="evenodd" d="M4.19 4.37625L11.19 1.26625C11.7 1.03625 12.3 1.03625 12.81 1.26625L19.81 4.37625C20.53 4.69625 21 5.41625 21 6.20625V10.9062C21 16.4563 17.16 21.6462 12 22.9062C6.84 21.6462 3 16.4563 3 10.9062V6.20625C3 5.41625 3.47 4.69625 4.19 4.37625ZM6.7 13.6062L9.29 16.1962C9.68 16.5862 10.32 16.5862 10.7 16.1962L17.29 9.60625C17.68 9.21625 17.68 8.58625 17.29 8.19625C16.9 7.80625 16.27 7.80625 15.88 8.19625L10 14.0763L8.11 12.1962C7.72 11.8062 7.09 11.8062 6.7 12.1962C6.51275 12.3831 6.40751 12.6367 6.40751 12.9012C6.40751 13.1658 6.51275 13.4194 6.7 13.6062Z" fill="black" fill-opacity="0.54"/>
</g>
</svg>
