<svg width="24" height="24" viewBox="0 0 24 24" fill="none" xmlns="http://www.w3.org/2000/svg">
<g id="view_column_24px">
<path id="icon/action/view_column_24px" fill-rule="evenodd" clip-rule="evenodd" d="M4.5 18.5H7.5C8.05 18.5 8.5 18.05 8.5 17.5V6.5C8.5 5.95 8.05 5.5 7.5 5.5H4.5C3.95 5.5 3.5 5.95 3.5 6.5V17.5C3.5 18.05 3.95 18.5 4.5 18.5ZM10.5 18.5H13.5C14.05 18.5 14.5 18.05 14.5 17.5V6.5C14.5 5.95 14.05 5.5 13.5 5.5H10.5C9.95 5.5 9.5 5.95 9.5 6.5V17.5C9.5 18.05 9.95 18.5 10.5 18.5ZM15.5 17.5V6.5C15.5 5.95 15.95 5.5 16.5 5.5H19.5C20.05 5.5 20.5 5.95 20.5 6.5V17.5C20.5 18.05 20.05 18.5 19.5 18.5H16.5C15.95 18.5 15.5 18.05 15.5 17.5Z" fill="black" fill-opacity="0.54"/>
</g>
</svg>
