<svg width="24" height="24" viewBox="0 0 24 24" fill="none" xmlns="http://www.w3.org/2000/svg">
<g id="view_quilt_24px">
<path id="icon/action/view_quilt_24px" fill-rule="evenodd" clip-rule="evenodd" d="M7.5 18.5H4.5C3.95 18.5 3.5 18.05 3.5 17.5V6.5C3.5 5.95 3.95 5.5 4.5 5.5H7.5C8.05 5.5 8.5 5.95 8.5 6.5V17.5C8.5 18.05 8.05 18.5 7.5 18.5ZM13.5 18.5H10.5C9.95 18.5 9.5 18.05 9.5 17.5V13.5C9.5 12.95 9.95 12.5 10.5 12.5H13.5C14.05 12.5 14.5 12.95 14.5 13.5V17.5C14.5 18.05 14.05 18.5 13.5 18.5ZM16.5 18.5H19.5C20.05 18.5 20.5 18.05 20.5 17.5V13.5C20.5 12.95 20.05 12.5 19.5 12.5H16.5C15.95 12.5 15.5 12.95 15.5 13.5V17.5C15.5 18.05 15.95 18.5 16.5 18.5ZM9.5 10.5V6.5C9.5 5.95 9.95 5.5 10.5 5.5H19.5C20.05 5.5 20.5 5.95 20.5 6.5V10.5C20.5 11.05 20.05 11.5 19.5 11.5H10.5C9.95 11.5 9.5 11.05 9.5 10.5Z" fill="black" fill-opacity="0.54"/>
</g>
</svg>
