<svg width="24" height="24" viewBox="0 0 24 24" fill="none" xmlns="http://www.w3.org/2000/svg">
<g id="view_stream_24px">
<path id="icon/action/view_stream_24px" fill-rule="evenodd" clip-rule="evenodd" d="M3.5 10.5V6.5C3.5 5.95 3.95 5.5 4.5 5.5H19.5C20.05 5.5 20.5 5.95 20.5 6.5V10.5C20.5 11.05 20.05 11.5 19.5 11.5H4.5C3.95 11.5 3.5 11.05 3.5 10.5ZM19.5 18.5H4.5C3.95 18.5 3.5 18.05 3.5 17.5V13.5C3.5 12.95 3.95 12.5 4.5 12.5H19.5C20.05 12.5 20.5 12.95 20.5 13.5V17.5C20.5 18.05 20.05 18.5 19.5 18.5Z" fill="black" fill-opacity="0.54"/>
</g>
</svg>
