<svg width="24" height="24" viewBox="0 0 24 24" fill="none" xmlns="http://www.w3.org/2000/svg">
<g id="view_week_24px">
<path id="icon/action/view_week_24px" fill-rule="evenodd" clip-rule="evenodd" d="M6.5 5H3.5C2.95 5 2.5 5.45 2.5 6V18C2.5 18.55 2.95 19 3.5 19H6.5C7.05 19 7.5 18.55 7.5 18V6C7.5 5.45 7.05 5 6.5 5ZM20.5 5H17.5C16.95 5 16.5 5.45 16.5 6V18C16.5 18.55 16.95 19 17.5 19H20.5C21.05 19 21.5 18.55 21.5 18V6C21.5 5.45 21.05 5 20.5 5ZM10.5 5H13.5C14.05 5 14.5 5.45 14.5 6V18C14.5 18.55 14.05 19 13.5 19H10.5C9.95 19 9.5 18.55 9.5 18V6C9.5 5.45 9.95 5 10.5 5Z" fill="black" fill-opacity="0.54"/>
</g>
</svg>
