<svg width="24" height="24" viewBox="0 0 24 24" fill="none" xmlns="http://www.w3.org/2000/svg">
<g id="view_day_24px">
<path id="icon/action/view_day_24px" fill-rule="evenodd" clip-rule="evenodd" d="M2.5 5V4C2.5 3.45 2.95 3 3.5 3H20.5C21.05 3 21.5 3.45 21.5 4V5C21.5 5.55 21.05 6 20.5 6H3.5C2.95 6 2.5 5.55 2.5 5ZM20.5 8H3.5C2.95 8 2.5 8.45 2.5 9V15C2.5 15.55 2.95 16 3.5 16H20.5C21.05 16 21.5 15.55 21.5 15V9C21.5 8.45 21.05 8 20.5 8ZM3.5 21H20.5C21.05 21 21.5 20.55 21.5 20V19C21.5 18.45 21.05 18 20.5 18H3.5C2.95 18 2.5 18.45 2.5 19V20C2.5 20.55 2.95 21 3.5 21Z" fill="black" fill-opacity="0.54"/>
</g>
</svg>
