<svg width="24" height="24" viewBox="0 0 24 24" fill="none" xmlns="http://www.w3.org/2000/svg">
<g id="view_carousel_24px">
<path id="icon/action/view_carousel_24px" fill-rule="evenodd" clip-rule="evenodd" d="M8 19.5H16C16.55 19.5 17 19.05 17 18.5V5.5C17 4.95 16.55 4.5 16 4.5H8C7.45 4.5 7 4.95 7 5.5V18.5C7 19.05 7.45 19.5 8 19.5ZM3 17.5H5C5.55 17.5 6 17.05 6 16.5V7.5C6 6.95 5.55 6.5 5 6.5H3C2.45 6.5 2 6.95 2 7.5V16.5C2 17.05 2.45 17.5 3 17.5ZM18 16.5V7.5C18 6.95 18.45 6.5 19 6.5H21C21.55 6.5 22 6.95 22 7.5V16.5C22 17.05 21.55 17.5 21 17.5H19C18.45 17.5 18 17.05 18 16.5Z" fill="black" fill-opacity="0.54"/>
</g>
</svg>
