<svg width="24" height="24" viewBox="0 0 24 24" fill="none" xmlns="http://www.w3.org/2000/svg">
<g id="voice_over_off_24px">
<path id="icon/action/voice_over_off_24px" fill-rule="evenodd" clip-rule="evenodd" d="M19.0508 4.59519C18.7208 4.13519 18.7808 3.51519 19.1808 3.11519C19.6808 2.61519 20.5108 2.67519 20.9408 3.23519C23.6308 6.80519 23.6808 11.4952 21.1108 15.0052C20.6808 15.5952 19.8108 15.6452 19.3008 15.1352C18.9108 14.7452 18.8308 14.1252 19.1408 13.6652C21.0008 10.8452 20.9808 7.27519 19.0508 4.59519ZM15.4708 7.98519C15.2808 7.51519 15.3708 6.98519 15.7208 6.63519C16.3008 6.04519 17.3108 6.17519 17.7108 6.92519C18.4308 8.34519 18.4708 9.94519 17.8308 11.3352C17.4708 12.1152 16.4108 12.2452 15.8108 11.6452C15.4608 11.3052 15.3608 10.7852 15.5208 10.3252C15.7908 9.56519 15.7708 8.73519 15.4708 7.98519ZM9.43079 5.26519L12.9608 8.79519C12.7608 6.93519 11.2908 5.46519 9.43079 5.26519ZM3.71079 5.19519C3.32079 4.80519 3.32079 4.17519 3.71079 3.78519C3.89762 3.59793 4.15128 3.4927 4.41579 3.4927C4.68031 3.4927 4.93396 3.59793 5.12079 3.78519L20.4308 19.1052C20.8208 19.4952 20.8208 20.1252 20.4308 20.5152C20.0408 20.9052 19.4108 20.9052 19.0208 20.5152L16.7108 18.2052C16.8908 18.5252 17.0008 18.8552 17.0008 19.2252V20.2252C17.0008 20.7752 16.5508 21.2252 16.0008 21.2252H2.00079C1.45079 21.2252 1.00079 20.7752 1.00079 20.2252V19.2252C1.00079 16.5652 6.33079 15.2252 9.00079 15.2252C10.7808 15.2252 13.7408 15.8252 15.5208 17.0052L11.1208 12.6052C10.2308 13.1652 9.11079 13.4052 7.92079 13.0752C6.59079 12.7052 5.51079 11.6352 5.15079 10.3052C4.83079 9.11519 5.06079 7.99519 5.62079 7.10519L3.71079 5.19519Z" fill="black" fill-opacity="0.54"/>
</g>
</svg>
