<svg width="24" height="24" viewBox="0 0 24 24" fill="none" xmlns="http://www.w3.org/2000/svg">
<g id="work_off_24px">
<path id="icon/action/work_off_24px" fill-rule="evenodd" clip-rule="evenodd" d="M13.6337 3.70876H9.63373V5.30876L7.67373 3.34876C7.83373 2.40876 8.64373 1.70876 9.63373 1.70876H13.6337C14.7437 1.70876 15.6337 2.59876 15.6337 3.70876V5.70876H19.6337C20.7437 5.70876 21.6337 6.59876 21.6337 7.70876V17.3088L10.0337 5.70876H13.6337V3.70876ZM3.03873 1.95627C3.30325 1.95627 3.5569 2.0615 3.74373 2.24876L22.0737 20.5888C22.4637 20.9788 22.4637 21.6088 22.0737 21.9988C21.6837 22.3888 21.0537 22.3888 20.6637 21.9988L19.3737 20.7088H3.63373C2.52373 20.7088 1.63373 19.8188 1.63373 18.7088L1.64373 7.70876C1.64373 6.59876 2.52373 5.70876 3.63373 5.70876H4.37373L2.33373 3.65876C1.94373 3.26876 1.94373 2.63876 2.33373 2.24876C2.52056 2.0615 2.77421 1.95627 3.03873 1.95627Z" fill="black" fill-opacity="0.54"/>
</g>
</svg>
