<svg width="24" height="24" viewBox="0 0 24 24" fill="none" xmlns="http://www.w3.org/2000/svg">
<g id="youtube_searched_for_24px">
<path id="icon/action/youtube_searched_for_24px" d="M17.2758 14.4727H16.4758L16.2058 14.2027C17.3558 12.8627 17.9658 11.0627 17.7158 9.11273C17.3758 6.47273 15.3658 4.25273 12.7658 3.65273C8.52578 2.67273 4.77578 6.00273 4.77578 9.97273H2.67578C2.20578 9.97273 1.99578 10.5627 2.36578 10.8627L5.76578 13.6127C5.95578 13.8127 6.27578 13.8227 6.47578 13.6227L9.37578 10.8327C9.69578 10.5227 9.47578 9.97273 9.02578 9.97273H6.77578C6.77578 7.48273 8.77578 5.49273 11.2358 5.47273C13.6758 5.45273 15.7758 7.52273 15.7758 9.96273C15.7758 12.4427 13.7558 14.4727 11.2758 14.4727C10.8258 14.4727 10.3858 14.4027 9.97578 14.2827C9.63578 14.1827 9.26578 14.2827 9.01578 14.5427C8.48578 15.0727 8.69578 15.9927 9.40578 16.2027C9.99578 16.3727 10.6258 16.4727 11.2758 16.4727C12.8858 16.4727 14.3558 15.8827 15.4958 14.9027L15.7658 15.1727V15.9627L20.0358 20.2127C20.4458 20.6227 21.1058 20.6227 21.5158 20.2127C21.9258 19.8027 21.9258 19.1327 21.5158 18.7227L17.2758 14.4727Z" fill="black" fill-opacity="0.54"/>
</g>
</svg>
