<svg width="24" height="24" viewBox="0 0 24 24" fill="none" xmlns="http://www.w3.org/2000/svg">
<g id="add_call_24px">
<path id="icon/communication/add_call_24px" fill-rule="evenodd" clip-rule="evenodd" d="M15.9919 8.01317H13.9919C13.4419 8.01317 12.9919 7.56317 12.9919 7.01317C12.9919 6.46317 13.4419 6.01317 13.9919 6.01317H15.9919V4.01317C15.9919 3.46317 16.4419 3.01317 16.9919 3.01317C17.5419 3.01317 17.9919 3.46317 17.9919 4.01317V6.01317H19.9919C20.5419 6.01317 20.9919 6.46317 20.9919 7.01317C20.9919 7.56317 20.5419 8.01317 19.9919 8.01317H17.9919V10.0132C17.9919 10.5632 17.5419 11.0132 16.9919 11.0132C16.4419 11.0132 15.9919 10.5632 15.9919 10.0132V8.01317ZM16.6619 14.9932L19.2019 15.2832C20.2119 15.3932 20.9819 16.2532 20.9719 17.2532V18.9832C20.9719 20.1132 20.0319 21.0532 18.9019 20.9832C10.3719 20.4532 3.54185 13.6332 3.01185 5.09317C2.94185 3.96317 3.88185 3.02317 5.01185 3.02317H6.74185C7.75185 3.02317 8.61185 3.79317 8.72185 4.80317L9.01185 7.32317C9.08185 7.92317 8.87185 8.53317 8.44185 8.96317L6.59185 10.8132C8.03185 13.6532 10.3519 15.9632 13.1819 17.4032L15.0219 15.5632C15.4519 15.1332 16.0519 14.9232 16.6619 14.9932Z" fill="black" fill-opacity="0.54"/>
</g>
</svg>
