<svg width="24" height="24" viewBox="0 0 24 24" fill="none" xmlns="http://www.w3.org/2000/svg">
<g id="alternate_email_24px">
<path id="Subtract" fill-rule="evenodd" clip-rule="evenodd" d="M2.02787 12.7178C1.59787 6.62784 6.62787 1.59784 12.7179 2.02784C18.0079 2.38784 21.9979 7.00784 21.9979 12.3178V13.4078C21.9979 14.8478 21.1779 16.2178 19.8379 16.7478C18.2079 17.3978 16.4279 16.7578 15.5379 15.5378C14.3879 16.7078 12.6379 17.2978 10.7979 16.8678C8.90787 16.4178 7.41787 14.8378 7.07787 12.9278C6.46787 9.50784 9.33787 6.56784 12.7379 7.05784C15.2179 7.40784 16.9979 9.66784 16.9979 12.1778V13.4278C16.9979 14.2178 17.7079 14.9978 18.4979 14.9978C19.2879 14.9978 19.9979 14.2178 19.9979 13.4278V12.3278C19.9979 8.59784 17.5779 5.17784 13.9579 4.25784C8.15787 2.75784 2.75787 8.16784 4.24787 13.9678C5.17787 17.5778 8.59787 19.9978 12.3279 19.9978H15.9979C16.5479 19.9978 16.9979 20.4478 16.9979 20.9978C16.9979 21.5478 16.5479 21.9978 15.9979 21.9978H12.3079C7.00787 21.9978 2.38787 18.0078 2.02787 12.7178ZM8.99786 11.9978C8.99786 13.6578 10.3379 14.9978 11.9979 14.9978C13.6579 14.9978 14.9979 13.6578 14.9979 11.9978C14.9979 10.3378 13.6579 8.99783 11.9979 8.99783C10.3379 8.99783 8.99786 10.3378 8.99786 11.9978Z" fill="black" fill-opacity="0.54"/>
</g>
</svg>
