<svg width="24" height="24" viewBox="0 0 24 24" fill="none" xmlns="http://www.w3.org/2000/svg">
<g id="call_missed_24px">
<path id="icon/communication/call_missed_24px" d="M19.0987 7.70375L12.2087 14.5938L6.61874 9.00375H10.2087C10.7587 9.00375 11.2087 8.55375 11.2087 8.00375C11.2087 7.45375 10.7587 7.00375 10.2087 7.00375H4.20874C3.65874 7.00375 3.20874 7.45375 3.20874 8.00375V14.0038C3.20874 14.5538 3.65874 15.0038 4.20874 15.0038C4.75874 15.0038 5.20874 14.5538 5.20874 14.0038V10.4138L11.4987 16.7038C11.8887 17.0938 12.5187 17.0938 12.9087 16.7038L20.4987 9.11375C20.8887 8.72375 20.8887 8.09375 20.4987 7.70375C20.1187 7.32375 19.4787 7.32375 19.0987 7.70375Z" fill="black" fill-opacity="0.54"/>
</g>
</svg>
