<svg width="24" height="24" viewBox="0 0 24 24" fill="none" xmlns="http://www.w3.org/2000/svg">
<g id="call_merge_24px">
<path id="icon/communication/call_merge_24px" fill-rule="evenodd" clip-rule="evenodd" d="M11.0049 8.14875H8.71494C8.26494 8.14875 8.04494 7.60875 8.35494 7.29875L11.6449 4.00875C11.8449 3.80875 12.1549 3.80875 12.3549 4.00875L15.6449 7.29875C15.9649 7.60875 15.7449 8.14875 15.2949 8.14875H13.0049V14.5487L7.70494 19.8487C7.31494 20.2387 6.68494 20.2387 6.29494 19.8487C5.90494 19.4587 5.90494 18.8287 6.29494 18.4387L11.0049 13.7387V8.14875ZM17.7049 18.4387C18.0949 18.8287 18.0949 19.4587 17.7049 19.8487C17.3249 20.2388 16.6849 20.2388 16.2949 19.8487L13.5949 17.1487L15.0049 15.7387L17.7049 18.4387Z" fill="black" fill-opacity="0.54"/>
</g>
</svg>
