<svg width="24" height="24" viewBox="0 0 24 24" fill="none" xmlns="http://www.w3.org/2000/svg">
<g id="call_end_24px">
<path id="icon/communication/call_end_24px" d="M4.57998 16.0303L6.57998 14.4403C7.05998 14.0603 7.33998 13.4803 7.33998 12.8703V10.2703C10.36 9.29034 13.63 9.28034 16.66 10.2703V12.8803C16.66 13.4903 16.94 14.0703 17.42 14.4503L19.41 16.0303C20.21 16.6603 21.35 16.6003 22.07 15.8803L23.29 14.6603C24.09 13.8603 24.09 12.5303 23.24 11.7803C16.83 6.12034 7.16998 6.12034 0.759981 11.7803C-0.0900191 12.5303 -0.0900191 13.8603 0.709981 14.6603L1.92998 15.8803C2.63998 16.6003 3.77998 16.6603 4.57998 16.0303Z" fill="black" fill-opacity="0.54"/>
</g>
</svg>
