<svg width="24" height="24" viewBox="0 0 24 24" fill="none" xmlns="http://www.w3.org/2000/svg">
<g id="call_received_24px">
<path id="icon/communication/call_received_24px" d="M19.0075 5.00124C18.8207 4.81399 18.567 4.70876 18.3025 4.70876C18.038 4.70876 17.7844 4.81399 17.5975 5.00124L6.70752 15.8812V10.2912C6.70752 9.74124 6.25752 9.29124 5.70752 9.29124C5.15752 9.29124 4.70752 9.74124 4.70752 10.2912V18.2912C4.70752 18.8412 5.15752 19.2912 5.70752 19.2912H13.7075C14.2575 19.2912 14.7075 18.8412 14.7075 18.2912C14.7075 17.7412 14.2575 17.2912 13.7075 17.2912H8.11752L19.0075 6.40124C19.3875 6.02124 19.3875 5.38124 19.0075 5.00124Z" fill="black" fill-opacity="0.54"/>
</g>
</svg>
