<svg width="24" height="24" viewBox="0 0 24 24" fill="none" xmlns="http://www.w3.org/2000/svg">
<g id="cell_wifi_24px">
<path id="Shape" d="M7.23961 21.5013H18.8296C19.9296 21.5013 20.8296 20.6013 20.8296 19.5013V7.89128C20.8296 7.00128 19.7496 6.55128 19.1196 7.18128L6.52961 19.7913C5.89961 20.4213 6.34961 21.5013 7.23961 21.5013Z" fill="black" fill-opacity="0.54"/>
<path id="Path" d="M7.89954 10.5713L9.82954 12.5013L11.7595 10.5713C10.6895 9.51128 8.96954 9.51128 7.89954 10.5713Z" fill="black" fill-opacity="0.54"/>
<path id="Path_2" d="M7.19953 8.8013C8.76953 7.6813 10.8995 7.6813 12.4695 8.8013C12.8295 9.0613 13.3195 9.0213 13.6295 8.7013C14.0195 8.3113 13.9795 7.6413 13.5295 7.3213C11.3295 5.7513 8.33953 5.7513 6.12953 7.3213C5.67953 7.6413 5.62953 8.3113 6.02953 8.7013C6.34953 9.0213 6.83953 9.0613 7.19953 8.8013Z" fill="black" fill-opacity="0.54"/>
<path id="Path_3" d="M15.0396 6.19129C15.3796 6.47129 15.8696 6.47129 16.1796 6.16129L16.2996 6.04129C16.6496 5.69129 16.6096 5.12129 16.2196 4.80129C12.5496 1.75129 7.19955 1.73129 3.51955 4.74129C3.08955 5.09129 3.04955 5.73129 3.43955 6.11129C3.75955 6.44129 4.27955 6.48129 4.62955 6.19129C7.63955 3.71129 12.0296 3.71129 15.0396 6.19129Z" fill="black" fill-opacity="0.54"/>
</g>
</svg>
