<svg width="24" height="24" viewBox="0 0 24 24" fill="none" xmlns="http://www.w3.org/2000/svg">
<g id="desktop_access_disabled_24px">
<path id="icon/communication/desktop_access_disabled_24px" fill-rule="evenodd" clip-rule="evenodd" d="M0.806294 1.35499C0.416294 1.74499 0.416294 2.37499 0.806294 2.76499L1.49629 3.44499V15.355C1.49629 16.455 2.39629 17.355 3.49629 17.355H10.4963V19.355H9.49629C8.94629 19.355 8.49629 19.805 8.49629 20.355C8.49629 20.905 8.94629 21.355 9.49629 21.355H15.4963C16.0463 21.355 16.4963 20.905 16.4963 20.355C16.4963 19.805 16.0463 19.355 15.4963 19.355H14.4963V17.355H15.3963L20.6863 22.645C21.0763 23.035 21.7063 23.035 22.0963 22.645C22.4863 22.255 22.4863 21.625 22.0963 21.235L2.21629 1.35499C2.02946 1.16773 1.77581 1.0625 1.51129 1.0625C1.24678 1.0625 0.993125 1.16773 0.806294 1.35499ZM3.48629 14.355V5.44499L13.3963 15.355H4.48629C3.93629 15.355 3.48629 14.905 3.48629 14.355ZM7.04629 3.35499L5.04629 1.35499H21.4863C22.5863 1.35499 23.4863 2.25499 23.4863 3.35499V15.355C23.4863 16.455 22.5863 17.355 21.4863 17.355H21.0463L19.0463 15.355H20.4963C21.0463 15.355 21.4963 14.905 21.4963 14.355V4.35499C21.4963 3.80499 21.0463 3.35499 20.4963 3.35499H7.04629Z" fill="black" fill-opacity="0.54"/>
</g>
</svg>
