<svg width="24" height="24" viewBox="0 0 24 24" fill="none" xmlns="http://www.w3.org/2000/svg">
<g id="dialer_sip_24px">
<path id="icon/communication/dialer_sip_24px" fill-rule="evenodd" clip-rule="evenodd" d="M12.4919 7.01317C12.2119 7.01317 11.9919 7.23317 11.9919 7.51317C11.9919 7.79317 12.2119 8.01317 12.4919 8.01317H14.4419C14.7419 8.01317 14.9919 7.76317 14.9919 7.46317V5.56317C14.9919 5.26317 14.7419 5.01317 14.4419 5.01317H12.9919V4.01317H14.4919C14.7719 4.01317 14.9919 3.79317 14.9919 3.51317C14.9919 3.23317 14.7719 3.01317 14.4919 3.01317H12.5419C12.2419 3.01317 11.9919 3.26317 11.9919 3.56317V5.45317C11.9919 5.76317 12.2419 6.01317 12.5419 6.01317H13.9919V7.01317H12.4919ZM16.4919 8.01317C16.7719 8.01317 16.9919 7.79317 16.9919 7.51317V3.51317C16.9919 3.23317 16.7719 3.01317 16.4919 3.01317C16.2119 3.01317 15.9919 3.23317 15.9919 3.51317V7.51317C15.9919 7.79317 16.2119 8.01317 16.4919 8.01317ZM18.5519 3.01317H20.4419C20.7419 3.01317 20.9919 3.26317 20.9919 3.56317V5.46317C20.9919 5.76317 20.7419 6.01317 20.4419 6.01317H18.9919V7.51317C18.9919 7.79317 18.7719 8.01317 18.4919 8.01317C18.2119 8.01317 17.9919 7.79317 17.9919 7.51317V3.56317C17.9919 3.26317 18.2419 3.01317 18.5519 3.01317ZM19.9919 5.01317H18.9919V4.01317H19.9919V5.01317ZM16.6619 14.9932L19.2019 15.2832C20.2119 15.3932 20.9819 16.2532 20.9719 17.2532V18.9832C20.9719 20.1132 20.0319 21.0532 18.9019 20.9832C10.3719 20.4532 3.54185 13.6332 3.01185 5.09317C2.94185 3.96317 3.88185 3.02317 5.01185 3.02317H6.74185C7.75185 3.02317 8.61185 3.79317 8.72185 4.80317L9.01185 7.32317C9.08185 7.92317 8.87185 8.53317 8.44185 8.96317L6.59185 10.8132C8.03185 13.6532 10.3519 15.9632 13.1819 17.4032L15.0219 15.5632C15.4519 15.1332 16.0519 14.9232 16.6619 14.9932Z" fill="black" fill-opacity="0.54"/>
</g>
</svg>
