<svg width="24" height="24" viewBox="0 0 24 24" fill="none" xmlns="http://www.w3.org/2000/svg">
<g id="domain_disabled_24px">
<path id="icon/communication/domain_disabled_24px" fill-rule="evenodd" clip-rule="evenodd" d="M1.50124 1.54999C1.11124 1.93999 1.11124 2.56999 1.50124 2.95999L2.79124 4.25999V18.16C2.79124 19.26 3.69124 20.16 4.79124 20.16H18.6912L20.9812 22.45C21.3712 22.84 22.0012 22.84 22.3912 22.45C22.7812 22.06 22.7812 21.43 22.3912 21.04L2.91124 1.54999C2.72441 1.36274 2.47076 1.25751 2.20624 1.25751C1.94172 1.25751 1.68807 1.36274 1.50124 1.54999ZM6.79124 18.16H4.79124V16.16H6.79124V18.16ZM4.79124 14.16H6.79124V12.16H4.79124V14.16ZM4.79124 10.16V8.15999H6.79124V10.16H4.79124ZM8.79124 18.16H10.7912V16.16H8.79124V18.16ZM8.79124 14.16V12.16H10.7912V14.16H8.79124ZM12.7912 16.16V18.16H16.6912L14.6912 16.16H12.7912ZM8.79124 4.15999H10.7912V6.15999H10.3412L12.7912 8.60999V8.15999H19.7912C20.3412 8.15999 20.7912 8.60999 20.7912 9.15999V16.61L22.7912 18.61V8.15999C22.7912 7.05999 21.8912 6.15999 20.7912 6.15999H12.7912V4.15999C12.7912 3.05999 11.8912 2.15999 10.7912 2.15999H6.34124L8.79124 4.60999V4.15999ZM18.7912 10.16H16.7912V12.16H18.7912V10.16Z" fill="black" fill-opacity="0.54"/>
</g>
</svg>
