<svg width="24" height="24" viewBox="0 0 24 24" fill="none" xmlns="http://www.w3.org/2000/svg">
<g id="import_contacts_24px">
<path id="icon/communication/import_contacts_24px" fill-rule="evenodd" clip-rule="evenodd" d="M12.005 5.17751C13.455 4.07751 15.555 3.67751 17.505 3.67751C18.955 3.67751 20.495 3.89751 21.775 4.46751C22.505 4.79751 22.995 5.50751 22.995 6.31751V17.5975C22.995 18.9075 21.775 19.8675 20.515 19.5375C19.535 19.2875 18.495 19.1775 17.495 19.1775C15.935 19.1775 14.275 19.4275 12.935 20.0975C12.345 20.3975 11.665 20.3975 11.065 20.0975C9.72501 19.4375 8.065 19.1775 6.505 19.1775C5.505 19.1775 4.465 19.2875 3.485 19.5375C2.225 19.8575 1.005 18.8975 1.005 17.5975V6.31751C1.005 5.50751 1.495 4.79751 2.225 4.46751C3.515 3.89751 5.05501 3.67751 6.505 3.67751C8.455 3.67751 10.555 4.07751 12.005 5.17751ZM19.805 17.3875C20.425 17.4975 21.005 17.0375 21.005 16.4075V6.93751C21.005 6.46751 20.665 6.05751 20.205 5.95751C19.335 5.76751 18.425 5.67751 17.505 5.67751C15.805 5.67751 13.355 6.32751 12.005 7.17751V18.6875C13.355 17.8375 15.805 17.1875 17.505 17.1875C18.275 17.1875 19.055 17.2475 19.805 17.3875Z" fill="black" fill-opacity="0.54"/>
</g>
</svg>
