<svg width="24" height="24" viewBox="0 0 24 24" fill="none" xmlns="http://www.w3.org/2000/svg">
<g id="invert_colors_off_24px">
<path id="icon/communication/invert_colors_off_24px" fill-rule="evenodd" clip-rule="evenodd" d="M11.94 4.69999V8.74999L19.34 16.15C20.49 13.27 19.93 9.86999 17.59 7.53999L12.65 2.58999C12.4632 2.40274 12.2095 2.29751 11.945 2.29751C11.6805 2.29751 11.4269 2.40274 11.24 2.58999L8.50002 5.30999L9.91002 6.71999L11.94 4.69999ZM3.63002 4.67999C3.24002 5.06999 3.24002 5.69999 3.63002 6.08999L5.71002 8.16999C3.17002 11.31 3.36002 15.92 6.28002 18.85C7.84002 20.4 9.89002 21.18 11.94 21.18C13.72 21.18 15.5 20.59 16.96 19.41L18.96 21.41C19.35 21.8 19.98 21.8 20.37 21.41C20.76 21.02 20.76 20.39 20.37 20L5.05002 4.67999C4.66002 4.28999 4.02002 4.28999 3.63002 4.67999ZM7.70002 17.43C8.83002 18.57 10.34 19.19 11.94 19.19V14.39L7.15002 9.59999C6.37002 10.63 5.94002 11.87 5.94002 13.19C5.94002 14.79 6.56002 16.29 7.70002 17.43Z" fill="black" fill-opacity="0.54"/>
</g>
</svg>
