<svg width="24" height="24" viewBox="0 0 24 24" fill="none" xmlns="http://www.w3.org/2000/svg">
<g id="live_help_24px">
<path id="icon/communication/live_help_24px" fill-rule="evenodd" clip-rule="evenodd" d="M19 1.70875H5C3.89 1.70875 3 2.60875 3 3.70875V17.7087C3 18.8087 3.9 19.7087 5 19.7087H9L11.29 21.9987C11.68 22.3887 12.31 22.3887 12.7 21.9987L15 19.7087H19C20.1 19.7087 21 18.8087 21 17.7087V3.70875C21 2.60875 20.1 1.70875 19 1.70875ZM13 15.7087V17.7087H11V15.7087H13ZM14.17 10.8787L15.07 9.95875C15.64 9.38875 16 8.58875 16 7.70875C16 5.49875 14.21 3.70875 12 3.70875C10.18 3.70875 8.65 4.91875 8.16 6.57875C8 7.13875 8.4 7.69875 8.98 7.69875H9.28C9.67 7.69875 9.98 7.42875 10.11 7.05875C10.38 6.27875 11.13 5.70875 12 5.70875C13.1 5.70875 14 6.60875 14 7.70875C14 8.25875 13.78 8.75875 13.42 9.11875L12.18 10.3787C11.57 10.9987 11.15 11.8087 11.04 12.7187C10.97 13.2387 11.37 13.6987 11.89 13.6987H12.2C12.64 13.6987 12.99 13.3687 13.05 12.9387C13.18 11.9787 13.59 11.4687 14.17 10.8787Z" fill="black" fill-opacity="0.54"/>
</g>
</svg>
