<svg width="24" height="24" viewBox="0 0 24 24" fill="none" xmlns="http://www.w3.org/2000/svg">
<g id="location_on_24px">
<path id="icon/communication/location_on_24px" fill-rule="evenodd" clip-rule="evenodd" d="M5 9.265C5 5.395 8.13 2.265 12 2.265C15.87 2.265 19 5.395 19 9.265C19 13.435 14.58 19.185 12.77 21.375C12.37 21.855 11.64 21.855 11.24 21.375C9.42 19.185 5 13.435 5 9.265ZM9.5 9.265C9.5 10.645 10.62 11.765 12 11.765C13.38 11.765 14.5 10.645 14.5 9.265C14.5 7.885 13.38 6.765 12 6.765C10.62 6.765 9.5 7.885 9.5 9.265Z" fill="black" fill-opacity="0.54"/>
</g>
</svg>
