<svg width="24" height="24" viewBox="0 0 24 24" fill="none" xmlns="http://www.w3.org/2000/svg">
<g id="location_off_24px">
<path id="icon/communication/location_off_24px" fill-rule="evenodd" clip-rule="evenodd" d="M8.18003 4.125C9.43003 2.975 11.09 2.265 12.93 2.265C16.8 2.265 19.93 5.395 19.93 9.265C19.93 10.835 19.3 12.625 18.42 14.375L14.87 10.825C15.22 10.395 15.43 9.855 15.43 9.265C15.43 7.885 14.31 6.765 12.93 6.765C12.34 6.765 11.8 6.975 11.37 7.315L8.18003 4.125ZM3.64003 5.235C3.25003 4.845 3.25003 4.215 3.64003 3.825C3.82687 3.63775 4.08052 3.53251 4.34503 3.53251C4.60955 3.53251 4.8632 3.63775 5.05003 3.825L20.36 19.155C20.75 19.545 20.75 20.175 20.36 20.565C19.97 20.955 19.34 20.955 18.95 20.565L16.3 17.915C15.31 19.365 14.34 20.595 13.69 21.375C13.29 21.855 12.56 21.855 12.16 21.375C10.35 19.185 5.93003 13.435 5.93003 9.265C5.93003 8.735 6.00003 8.215 6.11003 7.705L3.64003 5.235Z" fill="black" fill-opacity="0.54"/>
</g>
</svg>
