<svg width="24" height="24" viewBox="0 0 24 24" fill="none" xmlns="http://www.w3.org/2000/svg">
<g id="mobile_screen_share_24px">
<path id="icon/communication/mobile_screen_share_24px" fill-rule="evenodd" clip-rule="evenodd" d="M16.995 1H6.995C5.895 1 5.005 1.9 5.005 3V21C5.005 22.1 5.895 23 6.995 23H16.995C18.095 23 18.995 22.1 18.995 21V3C18.995 1.9 18.095 1 16.995 1ZM16.995 19H6.995V5H16.995V19ZM12.795 14.97V13.22C10.575 13.22 9.105 13.9 7.995 15.4C8.445 13.26 9.68501 11.13 12.795 10.7V9L15.605 11.62C15.815 11.82 15.815 12.15 15.605 12.35L12.795 14.97Z" fill="black" fill-opacity="0.54"/>
</g>
</svg>
