<svg width="24" height="24" viewBox="0 0 24 24" fill="none" xmlns="http://www.w3.org/2000/svg">
<g id="no_sim_24px">
<path id="icon/communication/no_sim_24px" fill-rule="evenodd" clip-rule="evenodd" d="M19.18 4.39875V15.5087L8.13004 4.45875L10.19 2.39875H17.18C18.28 2.39875 19.18 3.29875 19.18 4.39875ZM3.27004 5.24875C2.88004 4.85875 2.88004 4.22875 3.27004 3.83875C3.45687 3.6515 3.71052 3.54626 3.97504 3.54626C4.23956 3.54626 4.49321 3.6515 4.68004 3.83875L20.73 19.8988C21.12 20.2887 21.12 20.9188 20.73 21.3088C20.34 21.6987 19.71 21.6987 19.32 21.3088L18.15 20.1388C17.86 20.2987 17.53 20.3988 17.18 20.3988H7.18004C6.08004 20.3988 5.18004 19.4988 5.18004 18.3988V7.40875L5.30004 7.27875L3.27004 5.24875Z" fill="black" fill-opacity="0.54"/>
</g>
</svg>
