<svg width="24" height="24" viewBox="0 0 24 24" fill="none" xmlns="http://www.w3.org/2000/svg">
<g id="person_add_disabled_24px">
<path id="icon/communication/person_add_disabled_24px" fill-rule="evenodd" clip-rule="evenodd" d="M2.41124 1.56499C2.22441 1.37774 1.97076 1.27251 1.70624 1.27251C1.44172 1.27251 1.18807 1.37774 1.00124 1.56499C0.61124 1.95499 0.61124 2.58499 1.00124 2.97499L4.29124 6.26499V9.14499H2.29124C1.74124 9.14499 1.29124 9.59499 1.29124 10.145C1.29124 10.695 1.74124 11.145 2.29124 11.145H4.29124V13.145C4.29124 13.695 4.74124 14.145 5.29124 14.145C5.84124 14.145 6.29124 13.695 6.29124 13.145V11.145H9.17124L11.6812 13.655C9.48124 14.255 7.29124 15.445 7.29124 17.145V18.145C7.29124 18.695 7.74124 19.145 8.29124 19.145H17.1712L20.4612 22.435C20.8512 22.825 21.4812 22.825 21.8712 22.435C22.2612 22.045 22.2612 21.415 21.8712 21.025L2.41124 1.56499ZM14.8948 11.1107L14.8947 11.1107C14.8534 11.1052 14.8123 11.0998 14.7712 11.095L11.3412 7.66499C11.3364 7.62393 11.331 7.58287 11.3256 7.54166L11.3255 7.54154L11.3255 7.54143L11.3255 7.54141C11.3085 7.41211 11.2912 7.28143 11.2912 7.14499C11.2912 4.93499 13.0812 3.14499 15.2912 3.14499C17.5012 3.14499 19.2912 4.93499 19.2912 7.14499C19.2912 9.35499 17.5012 11.145 15.2912 11.145C15.1548 11.145 15.0241 11.1278 14.8948 11.1107L14.8948 11.1107ZM22.7212 19.045L16.9812 13.305C19.7312 13.645 23.2912 15.005 23.2912 17.145V18.145C23.2912 18.545 23.0512 18.875 22.7212 19.045ZM6.29124 8.26499V9.14499H7.17124L6.29124 8.26499Z" fill="black" fill-opacity="0.54"/>
</g>
</svg>
