<svg width="24" height="24" viewBox="0 0 24 24" fill="none" xmlns="http://www.w3.org/2000/svg">
<g id="phonelink_erase_24px">
<path id="icon/communication/phonelink_erase_24px" fill-rule="evenodd" clip-rule="evenodd" d="M8.85502 1H18.855C19.955 1 20.855 1.9 20.855 3V21C20.855 22.1 19.955 23 18.855 23H8.85502C7.75502 23 6.85502 22.1 6.85502 21V19C6.85502 18.45 7.30502 18 7.85502 18C8.40502 18 8.85502 18.45 8.85502 19V20H18.855V4H8.85502V5C8.85502 5.55 8.40502 6 7.85502 6C7.30502 6 6.85502 5.55 6.85502 5V3C6.85502 1.9 7.75502 1 8.85502 1ZM11.355 7.7C11.635 7.42 12.075 7.42 12.355 7.7C12.635 7.98 12.635 8.42 12.355 8.7L8.85502 12.2L12.355 15.7C12.635 15.98 12.635 16.42 12.355 16.7C12.075 16.98 11.635 16.98 11.355 16.7L7.85502 13.2L4.35502 16.7C4.07502 16.98 3.63502 16.98 3.35502 16.7C3.07502 16.42 3.07502 15.98 3.35502 15.7L6.85502 12.2L3.35502 8.7C3.07502 8.42 3.07502 7.98 3.35502 7.7C3.63502 7.42 4.07502 7.42 4.35502 7.7L7.85502 11.2L11.355 7.7Z" fill="black" fill-opacity="0.54"/>
</g>
</svg>
