<svg width="24" height="24" viewBox="0 0 24 24" fill="none" xmlns="http://www.w3.org/2000/svg">
<g id="phonelink_ring_24px">
<path id="icon/communication/phonelink_ring_24px" fill-rule="evenodd" clip-rule="evenodd" d="M4.0144 1H14.0144C15.1144 1 16.0144 1.9 16.0144 3V21C16.0144 22.1 15.1144 23 14.0144 23H4.0144C2.9144 23 2.0144 22.1 2.0144 21V3C2.0144 1.9 2.9144 1 4.0144 1ZM4.0144 20H14.0144V4H4.0144V20ZM20.6444 8.26C20.3844 7.94 19.9044 7.9 19.6044 8.2L19.5744 8.23C19.3244 8.48 19.3144 8.88 19.5244 9.16C20.7844 10.8 20.7744 13.03 19.5044 14.73C19.2944 15.01 19.3144 15.4 19.5544 15.65L19.6044 15.7C19.8944 15.99 20.3644 15.96 20.6344 15.65C22.4344 13.52 22.4344 10.46 20.6444 8.26ZM17.3744 10.43L17.4344 10.37C17.5893 10.2133 17.81 10.1405 18.0278 10.1741C18.2456 10.2078 18.434 10.3439 18.5344 10.54C19.0344 11.46 19.0344 12.51 18.5444 13.4C18.3244 13.8 17.7744 13.87 17.4544 13.55L17.3744 13.47C17.1744 13.27 17.1144 12.97 17.2244 12.71C17.4344 12.22 17.4344 11.68 17.2244 11.19C17.1144 10.93 17.1744 10.63 17.3744 10.43Z" fill="black" fill-opacity="0.54"/>
</g>
</svg>
