<svg width="24" height="24" viewBox="0 0 24 24" fill="none" xmlns="http://www.w3.org/2000/svg">
<g id="phonelink_setup_24px">
<path id="icon/communication/phonelink_setup_24px" fill-rule="evenodd" clip-rule="evenodd" d="M6.90744 3V5C6.90744 5.55 7.35744 6 7.90744 6C8.45744 6 8.90744 5.55 8.90744 5V4H18.9074V20H8.90744V19C8.90744 18.45 8.45744 18 7.90744 18C7.35744 18 6.90744 18.45 6.90744 19V21C6.90744 22.1 7.80744 23 8.90744 23H18.9074C20.0074 23 20.9074 22.1 20.9074 21V3C20.9074 1.9 20.0074 1 18.9074 1H8.90744C7.80744 1 6.90744 1.9 6.90744 3ZM9.40744 15.5C9.69744 15.38 9.95744 15.21 10.2074 15.02L10.1874 15.05L11.1974 15.44C11.4274 15.53 11.6874 15.44 11.8074 15.22L12.6474 13.76C12.7674 13.55 12.7174 13.27 12.5274 13.12L11.6774 12.44L11.6574 12.47C11.6624 12.43 11.6681 12.39 11.6737 12.35C11.6906 12.23 11.7074 12.11 11.7074 11.99C11.7074 11.87 11.6906 11.75 11.6737 11.63C11.6681 11.59 11.6624 11.55 11.6574 11.51L11.6774 11.54L12.5274 10.86C12.7174 10.71 12.7674 10.43 12.6474 10.22L11.8074 8.76C11.6874 8.55 11.4274 8.45 11.1974 8.54L10.1874 8.93L10.2074 8.96C9.95744 8.79 9.69744 8.62 9.40744 8.5L9.23744 7.42C9.20744 7.18 8.99744 7 8.74744 7H7.06744C6.81744 7 6.60744 7.18 6.57744 7.42L6.40744 8.5C6.11744 8.62 5.85744 8.79 5.60744 8.98L5.62744 8.95L4.60744 8.56C4.37744 8.47 4.11744 8.56 3.99744 8.78L3.15744 10.24C3.03744 10.45 3.08744 10.73 3.27744 10.88L4.12744 11.56L4.14744 11.53C4.14301 11.5632 4.13809 11.597 4.13311 11.6311C4.11562 11.7509 4.09744 11.8755 4.09744 12C4.09744 12.12 4.11432 12.24 4.13119 12.36C4.13682 12.4 4.14244 12.44 4.14744 12.48L4.12744 12.45L3.27744 13.13C3.08744 13.28 3.03744 13.56 3.15744 13.77L3.99744 15.23C4.11744 15.44 4.37744 15.54 4.60744 15.45L5.61744 15.06L5.60744 15.02C5.85744 15.21 6.11744 15.38 6.40744 15.5L6.57744 16.57C6.60744 16.82 6.81744 17 7.06744 17H8.74744C8.99744 17 9.20744 16.82 9.23744 16.58L9.40744 15.5ZM7.90744 10C6.80744 10 5.90744 10.9 5.90744 12C5.90744 13.1 6.80744 14 7.90744 14C9.00744 14 9.90744 13.1 9.90744 12C9.90744 10.9 9.00744 10 7.90744 10Z" fill="black" fill-opacity="0.54"/>
</g>
</svg>
