<svg width="24" height="24" viewBox="0 0 24 24" fill="none" xmlns="http://www.w3.org/2000/svg">
<g id="portable_wifi_off_24px">
<path id="icon/communication/portable_wifi_off_24px" fill-rule="evenodd" clip-rule="evenodd" d="M20 12.4588C20 8.03875 16.42 4.45875 12 4.45875C10.8 4.45875 9.66 4.73875 8.64 5.21875L7.16 3.73875C8.6 2.93875 10.24 2.45875 12 2.45875C17.52 2.45875 22 6.93875 22 12.4588C22 14.2188 21.53 15.8588 20.72 17.2988L19.23 15.8088C19.71 14.7788 20 13.6588 20 12.4588ZM2.71 3.52875C2.32 3.91875 2.32 4.54875 2.71 4.93875L4.1 6.32875C2.79 8.02875 2 10.1488 2 12.4588C2 15.7588 3.6 18.6788 6.06 20.4988C6.54 20.8488 7.22 20.7088 7.52 20.1888C7.77 19.7588 7.66 19.1988 7.26 18.8988C5.29 17.4388 4 15.1088 4 12.4588C4 10.6988 4.57 9.07875 5.53 7.76875L6.96 9.20875C6.36 10.1388 6 11.2588 6 12.4588C6 14.2588 6.8 15.8688 8.06 16.9688C8.52 17.3688 9.25 17.2188 9.56 16.6888L9.57 16.6788C9.81 16.2588 9.7 15.7388 9.34 15.4188C8.52 14.6888 8 13.6388 8 12.4588C8 11.8088 8.17 11.2088 8.44 10.6688L10.02 12.2488L10 12.4588C10 13.5588 10.9 14.4588 12 14.4588L12.21 14.4388L19.02 21.2488C19.41 21.6388 20.04 21.6388 20.43 21.2488C20.82 20.8588 20.82 20.2288 20.43 19.8388L4.13 3.52875C3.74 3.13875 3.1 3.13875 2.71 3.52875ZM17.71 14.2788C17.89 13.7088 18 13.0888 18 12.4588C18 9.14875 15.31 6.45875 12 6.45875C11.37 6.45875 10.75 6.56875 10.18 6.74875L11.9 8.46875C11.9139 8.46875 11.9278 8.4666 11.9428 8.46429C11.96 8.46162 11.9786 8.45875 12 8.45875C14.21 8.45875 16 10.2488 16 12.4588C16 12.4788 15.9975 12.4963 15.995 12.5138C15.9925 12.5313 15.99 12.5488 15.99 12.5688L17.71 14.2788Z" fill="black" fill-opacity="0.54"/>
</g>
</svg>
