<svg width="24" height="24" viewBox="0 0 24 24" fill="none" xmlns="http://www.w3.org/2000/svg">
<g id="print_disabled_24px">
<path id="icon/communication/print_disabled_24px" fill-rule="evenodd" clip-rule="evenodd" d="M2.91124 1.53499C2.72441 1.34774 2.47076 1.24251 2.20624 1.24251C1.94172 1.24251 1.68807 1.34774 1.50124 1.53499C1.11124 1.92499 1.11124 2.55499 1.50124 2.94499L5.77124 7.21499C4.12124 7.22499 2.79124 8.56499 2.79124 10.215V14.215C2.79124 15.315 3.69124 16.215 4.79124 16.215H6.79124V18.215C6.79124 19.315 7.69124 20.215 8.79124 20.215H16.7912C17.3412 20.215 17.8312 19.995 18.1912 19.635L21.0212 22.465C21.4112 22.855 22.0412 22.855 22.4312 22.465C22.8212 22.075 22.8212 21.445 22.4312 21.055L2.91124 1.53499ZM15.7912 18.215H9.79124C9.24124 18.215 8.79124 17.765 8.79124 17.215V13.215H11.7712L16.4912 17.935C16.3012 18.105 16.0612 18.215 15.7912 18.215ZM11.4212 7.21499H19.7912C21.4512 7.21499 22.7912 8.55499 22.7912 10.215V14.215C22.7912 15.315 21.8912 16.215 20.7912 16.215H20.4212L11.4212 7.21499ZM19.7912 11.215C19.2412 11.215 18.7912 10.765 18.7912 10.215C18.7912 9.66499 19.2412 9.21499 19.7912 9.21499C20.3412 9.21499 20.7912 9.66499 20.7912 10.215C20.7912 10.765 20.3412 11.215 19.7912 11.215ZM18.7912 5.21499C18.7912 5.76499 18.3412 6.21499 17.7912 6.21499H10.4212L6.94124 2.72499C7.11124 2.42499 7.42124 2.21499 7.79124 2.21499H17.7912C18.3412 2.21499 18.7912 2.66499 18.7912 3.21499V5.21499Z" fill="black" fill-opacity="0.54"/>
</g>
</svg>
