<svg width="24" height="24" viewBox="0 0 24 24" fill="none" xmlns="http://www.w3.org/2000/svg">
<g id="ring_volume_24px">
<path id="icon/communication/ring_volume_24px" fill-rule="evenodd" clip-rule="evenodd" d="M11.9594 7.54284H11.9294C11.3894 7.54284 10.9494 7.10284 10.9494 6.55284V3.52284C10.9494 2.98284 11.3894 2.54284 11.9394 2.54284H11.9694C12.5094 2.54284 12.9494 2.98284 12.9494 3.52284V6.56284C12.9494 7.10284 12.5094 7.54284 11.9594 7.54284ZM18.2494 9.65284C17.8594 10.0428 17.2394 10.0428 16.8494 9.65284L16.8394 9.63284C16.4494 9.25284 16.4494 8.62284 16.8394 8.24284L19.0094 6.09284C19.3894 5.71284 20.0194 5.71284 20.3994 6.09284C20.7894 6.47284 20.7894 7.10284 20.3994 7.48284C19.7694 8.11284 18.8694 9.02284 18.2494 9.65284ZM5.65937 9.64284C6.03937 10.0328 6.66937 10.0328 7.05937 9.64284C7.43937 9.26284 7.43937 8.63284 7.05937 8.25284L4.90937 6.08284C4.52937 5.69284 3.89937 5.69284 3.51937 6.08284L3.49937 6.09284C3.10937 6.48284 3.10937 7.10284 3.49937 7.48284C4.12937 8.10284 5.03937 9.01284 5.65937 9.64284ZM0.759371 16.7728C7.16937 11.1128 16.8294 11.1128 23.2394 16.7728C24.0894 17.5228 24.0894 18.8528 23.2994 19.6528L22.0794 20.8728C21.3594 21.5928 20.2194 21.6528 19.4194 21.0228L17.4294 19.4428C16.9494 19.0628 16.6694 18.4828 16.6694 17.8728V15.2628C13.6394 14.2728 10.3694 14.2828 7.34937 15.2628V17.8628C7.34937 18.4728 7.06937 19.0528 6.58937 19.4328L4.58937 21.0228C3.78937 21.6528 2.64937 21.5928 1.92937 20.8728L0.709371 19.6528C-0.0906294 18.8528 -0.0906294 17.5228 0.759371 16.7728Z" fill="black" fill-opacity="0.54"/>
</g>
</svg>
