<svg width="24" height="24" viewBox="0 0 24 24" fill="none" xmlns="http://www.w3.org/2000/svg">
<g id="rss_feed_24px">
<path id="icon/communication/rss_feed_24px" fill-rule="evenodd" clip-rule="evenodd" d="M4.25671 5.67406C4.25671 4.84406 4.98671 4.17406 5.81671 4.26406C13.1667 4.99406 19.0067 10.8441 19.7367 18.1841C19.8167 19.0141 19.1567 19.7441 18.3167 19.7441C17.5867 19.7441 16.9867 19.1941 16.9167 18.4641C16.3167 12.4541 11.5367 7.67406 5.52671 7.07406C4.80671 7.00406 4.25671 6.40406 4.25671 5.67406ZM5.84671 9.97406C5.00671 9.83406 4.25671 10.5241 4.25671 11.3741C4.25671 12.0841 4.78671 12.6541 5.48671 12.7741C8.40671 13.2841 10.7067 15.5941 11.2267 18.5141C11.3467 19.2141 11.9167 19.7441 12.6267 19.7441C13.4767 19.7441 14.1667 18.9941 14.0367 18.1541C13.3567 13.9541 10.0467 10.6441 5.84671 9.97406ZM6.43671 15.3841C5.23273 15.3841 4.25671 16.3601 4.25671 17.5641C4.25671 18.768 5.23273 19.7441 6.43671 19.7441C7.64069 19.7441 8.61671 18.768 8.61671 17.5641C8.61671 16.3601 7.64069 15.3841 6.43671 15.3841Z" fill="black" fill-opacity="0.54"/>
</g>
</svg>
