<svg width="24" height="24" viewBox="0 0 24 24" fill="none" xmlns="http://www.w3.org/2000/svg">
<g id="speaker_phone_24px">
<path id="icon/communication/speaker_phone_24px" fill-rule="evenodd" clip-rule="evenodd" d="M5.07694 3.975C6.96694 2.435 9.37694 1.505 11.9969 1.505C14.6169 1.505 17.0269 2.435 18.9269 3.975C19.3869 4.355 19.4269 5.045 19.0069 5.465C18.6469 5.825 18.0769 5.855 17.6869 5.535C16.1369 4.265 14.1469 3.505 11.9969 3.505C9.84694 3.505 7.85694 4.265 6.31694 5.535C5.92694 5.855 5.35694 5.825 4.99694 5.465C4.56694 5.035 4.61694 4.345 5.07694 3.975ZM7.77694 8.355L7.75694 8.335C7.33694 7.915 7.36694 7.195 7.85694 6.845C9.01694 6.005 10.4469 5.505 11.9969 5.505C13.5469 5.505 14.9769 6.005 16.1469 6.855C16.6269 7.205 16.6569 7.925 16.2369 8.345L16.2169 8.365C15.8669 8.715 15.3169 8.745 14.9169 8.455C14.0869 7.875 13.0769 7.525 11.9969 7.525C10.9169 7.525 9.90694 7.875 9.07694 8.445C8.66694 8.735 8.12694 8.705 7.77694 8.355ZM9.13694 10.505C8.50694 10.505 7.99694 11.015 7.99694 11.645V21.355C7.99694 21.985 8.50694 22.495 9.13694 22.495H14.8469C15.4769 22.495 15.9869 21.985 15.9869 21.355V11.645C15.9969 11.015 15.4869 10.515 14.8569 10.515L9.13694 10.505ZM8.99694 12.505V20.505H14.9969V12.505H8.99694Z" fill="black" fill-opacity="0.54"/>
</g>
</svg>
