<svg width="24" height="24" viewBox="0 0 24 24" fill="none" xmlns="http://www.w3.org/2000/svg">
<g id="stop_screen_share_24px">
<path id="icon/communication/stop_screen_share_24px" fill-rule="evenodd" clip-rule="evenodd" d="M1.81 2.14C2.2 1.75 2.84 1.75 3.23 2.14L21.54 20.45C21.93 20.84 21.93 21.47 21.54 21.86C21.15 22.25 20.52 22.25 20.13 21.86L18.13 19.86H1C0.45 19.86 0 19.41 0 18.86C0 18.31 0.45 17.86 1 17.86H3.98C2.89 17.85 2.01 16.96 2.01 15.87L2 15.86C2 15.86 2 6.78 1.99 5.88C1.99 4.98 2.65 4.41 2.65 4.41L1.81 3.55C1.42 3.16 1.42 2.53 1.81 2.14ZM21.8 17.86H23C23.55 17.86 24 18.31 24 18.86C24 19.19 23.83 19.47 23.59 19.65L21.8 17.86ZM7 14.86C7.31 13.38 7.94 11.93 9.08 10.81L10.67 12.4C9.13 12.78 7.96 13.57 7 14.86ZM13 8.01V8.99C12.98 8.99 12.96 9 12.94 9.01L7.8 3.88H20.02C21.11 3.88 22 4.77 22 5.86V15.86C22 16.47 21.73 17 21.3 17.37L15.72 11.79L16.61 10.96C16.82 10.76 16.82 10.43 16.61 10.23L15 8.73L13.84 7.64C13.52 7.35 13 7.57 13 8.01Z" fill="black" fill-opacity="0.54"/>
</g>
</svg>
