<svg width="24" height="24" viewBox="0 0 24 24" fill="none" xmlns="http://www.w3.org/2000/svg">
<g id="swap_calls_24px">
<path id="icon/communication/swap_calls_24px" d="M17.65 4.85L14.86 7.64C14.54 7.96 14.76 8.5 15.21 8.5H17V15.38C17 16.38 16.33 17.31 15.34 17.47C14.09 17.68 13 16.71 13 15.5V8.67C13 6.58 11.47 4.72 9.39003 4.52C7.01003 4.29 5.00003 6.16 5.00003 8.5V15.5H3.21003C2.76003 15.5 2.54003 16.04 2.86003 16.35L5.65003 19.14C5.85003 19.34 6.16003 19.34 6.36003 19.14L9.15003 16.35C9.46003 16.04 9.24003 15.5 8.79003 15.5H7.00003V8.62C7.00003 7.62 7.67003 6.69 8.66003 6.53C9.91003 6.32 11 7.29 11 8.5V15.33C11 17.42 12.53 19.28 14.61 19.48C16.99 19.71 19 17.84 19 15.5V8.5H20.79C21.24 8.5 21.46 7.96 21.14 7.65L18.35 4.86C18.16 4.66 17.84 4.66 17.65 4.85Z" fill="black" fill-opacity="0.54"/>
</g>
</svg>
