<svg width="24" height="24" viewBox="0 0 24 24" fill="none" xmlns="http://www.w3.org/2000/svg">
<g id="unsubscribe_24px">
<path id="icon/communication/unsubscribe_24px" fill-rule="evenodd" clip-rule="evenodd" d="M20.49 12.69C19.75 12.26 18.92 12 18 12C15.24 12 13 14.24 13 17C13 17.1248 13.0162 17.2442 13.0327 17.3662C13.0387 17.4103 13.0447 17.4548 13.05 17.5H4.5C3.4 17.5 2.5 16.6 2.5 15.5V5.5C2.5 4.4 3.4 3.5 4.5 3.5H18.5C19.6 3.5 20.49 4.4 20.49 5.5V12.69ZM10.6 10.55C11.16 10.83 11.83 10.83 12.39 10.55L18.01 7.75C18.31 7.6 18.5 7.29 18.5 6.95C18.5 6.28 17.8 5.85 17.21 6.15L11.5 9L5.79 6.15C5.2 5.85 4.5 6.29 4.5 6.95C4.5 7.29 4.69 7.6 4.99 7.75L10.6 10.55ZM18 13.5C16.07 13.5 14.5 15.07 14.5 17C14.5 18.93 16.07 20.5 18 20.5C19.93 20.5 21.5 18.93 21.5 17C21.5 15.07 19.93 13.5 18 13.5ZM19.5 17.5C19.78 17.5 20 17.28 20 17C20 16.72 19.78 16.5 19.5 16.5H16.5C16.22 16.5 16 16.72 16 17C16 17.28 16.22 17.5 16.5 17.5H19.5Z" fill="black" fill-opacity="0.54"/>
</g>
</svg>
