<svg width="24" height="24" viewBox="0 0 24 24" fill="none" xmlns="http://www.w3.org/2000/svg">
<g id="voicemail_24px">
<path id="icon/communication/voicemail_24px" fill-rule="evenodd" clip-rule="evenodd" d="M18.5 6.5C15.46 6.5 13 8.96 13 12C13 13.33 13.47 14.55 14.26 15.5H9.74C10.53 14.55 11 13.33 11 12C11 8.96 8.54 6.5 5.5 6.5C2.46 6.5 0 8.96 0 12C0 15.04 2.46 17.5 5.5 17.5H18.5C21.54 17.5 24 15.04 24 12C24 8.96 21.54 6.5 18.5 6.5ZM5.5 15.5C3.57 15.5 2 13.93 2 12C2 10.07 3.57 8.5 5.5 8.5C7.43 8.5 9 10.07 9 12C9 13.93 7.43 15.5 5.5 15.5ZM15 12C15 13.93 16.57 15.5 18.5 15.5C20.43 15.5 22 13.93 22 12C22 10.07 20.43 8.5 18.5 8.5C16.57 8.5 15 10.07 15 12Z" fill="black" fill-opacity="0.54"/>
</g>
</svg>
