<svg width="24" height="24" viewBox="0 0 24 24" fill="none" xmlns="http://www.w3.org/2000/svg">
<g id="vpn_key_24px">
<path id="icon/communication/vpn_key_24px" fill-rule="evenodd" clip-rule="evenodd" d="M5.76909 6.12104C8.89909 5.50104 11.6991 7.31104 12.6491 10.001H20.9991C22.0991 10.001 22.9991 10.901 22.9991 12.001C22.9991 13.101 22.0991 14.001 20.9991 14.001V16.001C20.9991 17.101 20.0991 18.001 18.9991 18.001C17.8991 18.001 16.9991 17.101 16.9991 16.001V14.001H12.6491C11.8291 16.331 9.60909 18.001 6.99909 18.001C3.25909 18.001 0.319085 14.571 1.13909 10.701C1.61909 8.41104 3.47909 6.58104 5.76909 6.12104ZM4.99909 12.001C4.99909 13.101 5.89909 14.001 6.99909 14.001C8.09909 14.001 8.99909 13.101 8.99909 12.001C8.99909 10.901 8.09909 10.001 6.99909 10.001C5.89909 10.001 4.99909 10.901 4.99909 12.001Z" fill="black" fill-opacity="0.54"/>
</g>
</svg>
