<svg width="147" height="24" viewBox="0 0 147 24" fill="none" xmlns="http://www.w3.org/2000/svg">
<path d="M35.5686 4.00522C35.5686 3.07348 36.3044 2.30432 37.255 2.30432H37.6094C38.3452 2.30432 38.8351 2.68994 39.1603 3.21105L44.9304 12.3096L50.7255 3.18187C51.0799 2.60656 51.5697 2.30432 52.2493 2.30432H52.6037C53.5542 2.30432 54.2901 3.07139 54.2901 4.00522V20.0658C54.2901 20.9975 53.5542 21.7375 52.6037 21.7375C51.7052 21.7375 50.9444 20.9684 50.9444 20.0658V8.55346L46.2895 15.5968C45.9351 16.1471 45.4995 16.4743 44.8741 16.4743C44.2738 16.4743 43.8402 16.1471 43.4879 15.5968L38.8601 8.60766V20.0908C38.8601 21.0226 38.1284 21.7354 37.2008 21.7354C36.2753 21.7354 35.5686 21.0226 35.5686 20.0908V4.00522Z" fill="#3CDBC0"/>
<path d="M62.4699 19.9011V4.11154C62.4699 3.15269 63.2058 2.41272 64.1564 2.41272H75.2317C76.0468 2.41272 76.7284 3.0985 76.7284 3.91977C76.7284 4.76813 76.0488 5.42682 75.2317 5.42682H65.8157V10.4128H74.006C74.8231 10.4128 75.5048 11.0986 75.5048 11.949C75.5048 12.7724 74.8252 13.429 74.006 13.429H65.8157V18.5817H75.3672C76.1843 18.5817 76.866 19.2675 76.866 20.0887C76.866 20.9371 76.1864 21.5958 75.3672 21.5958H64.1564C63.2037 21.6 62.4699 20.8621 62.4699 19.9011Z" fill="#3CDBC0"/>
<path d="M91.8393 18.5294C95.8396 18.5294 98.4536 15.8155 98.4536 12.0614V12.0072C98.4536 8.25318 95.8396 5.48505 91.8393 5.48505H88.085V18.5315H91.8393V18.5294ZM84.7372 4.11349C84.7372 3.15465 85.473 2.41467 86.4236 2.41467H91.8393C97.8262 2.41467 101.964 6.55228 101.964 11.951V12.0052C101.964 17.4059 97.8262 21.5977 91.8393 21.5977H86.4236C85.473 21.5977 84.7372 20.8578 84.7372 19.8989V4.11349Z" fill="#3CDBC0"/>
<path d="M109.879 3.94809C109.879 3.01634 110.615 2.27637 111.566 2.27637C112.491 2.27637 113.225 3.01634 113.225 3.94809V18.5287H121.851C122.695 18.5287 123.375 19.2166 123.375 20.0649C123.375 20.9133 122.695 21.5991 121.851 21.5991H111.566C110.615 21.5991 109.879 20.8591 109.879 19.9003V3.94809Z" fill="#3CDBC0"/>
<path d="M133.85 14.1459L127.29 5.07441C127.073 4.74715 126.908 4.36153 126.908 3.8967C126.908 2.98997 127.644 2.27918 128.597 2.27918C129.332 2.27918 129.822 2.68773 130.229 3.29222L135.534 10.9921L140.923 3.26304C141.331 2.66063 141.821 2.25 142.528 2.25C143.507 2.25 144.16 2.98997 144.16 3.89462C144.16 4.35736 143.943 4.77008 143.699 5.09942L137.195 14.0604V20.0657C137.195 20.9953 136.464 21.7353 135.509 21.7353C134.583 21.7353 133.85 20.9953 133.85 20.0657V14.1459Z" fill="#3CDBC0"/>
<path d="M27.1951 16.9196C27.8288 18.8602 26.7615 20.9426 24.8145 21.5679C22.8696 22.1974 20.7767 21.1364 20.1451 19.1979L16.2281 7.15404C15.5965 5.21552 16.6617 3.13525 18.6087 2.50575C20.5578 1.87833 22.6465 2.93931 23.2802 4.87992L27.1951 16.9196Z" fill="#3CDBC0"/>
<path d="M17.3766 16.9196C18.0103 18.8602 16.943 20.9426 14.996 21.5679C13.0511 22.1974 10.9582 21.1364 10.3266 19.1979L6.4097 7.15404C5.77808 5.21552 6.84327 3.13525 8.79026 2.50575C10.7393 1.87833 12.8281 2.93931 13.4618 4.87992L17.3766 16.9196Z" fill="#3CDBC0"/>
<path d="M11.1646 2.50432C9.25304 1.8373 7.16015 2.83992 6.48892 4.74092L4.40018 10.692L2.20721 16.889C1.53806 18.7921 2.54283 20.8765 4.45438 21.5415C6.36593 22.2085 8.45882 21.2059 9.12796 19.3049L11.3105 13.1391L13.4097 7.1547C14.083 5.2537 13.0761 3.17134 11.1646 2.50432Z" fill="#3CDBC0"/>
</svg>
