<svg width="24" height="24" viewBox="0 0 24 24" fill="none" xmlns="http://www.w3.org/2000/svg">
<g id="access_alarms_24px">
<path id="icon/device/access_alarms_24px" fill-rule="evenodd" clip-rule="evenodd" d="M7.17001 3.8807L4.10001 6.4407C3.68001 6.7907 3.05001 6.7407 2.70001 6.3107C2.34001 5.8907 2.40001 5.2607 2.82001 4.9007L5.90001 2.3407C6.32001 1.9907 6.95001 2.0407 7.30001 2.4707C7.66001 2.8907 7.60001 3.5207 7.17001 3.8807ZM21.18 4.9007L18.1 2.3407C17.68 1.9907 17.05 2.0407 16.69 2.4707C16.34 2.8907 16.4 3.5207 16.82 3.8807L19.89 6.4407C20.31 6.7907 20.94 6.7407 21.3 6.3107C21.66 5.8907 21.6 5.2607 21.18 4.9007ZM15.87 15.1407L12.5 13.1407V8.6107C12.5 8.2107 12.18 7.8907 11.78 7.8907H11.72C11.32 7.8907 11 8.2107 11 8.6107V13.3307C11 13.6807 11.18 14.0107 11.49 14.1907L15.14 16.3807C15.48 16.5807 15.92 16.4807 16.12 16.1407C16.33 15.7907 16.22 15.3407 15.87 15.1407ZM12 3.8907C7.03001 3.8907 3.00001 7.9207 3.00001 12.8907C3.00001 17.8607 7.03001 21.8907 12 21.8907C16.97 21.8907 21 17.8607 21 12.8907C21 7.9207 16.97 3.8907 12 3.8907ZM5.00001 12.8907C5.00001 16.7507 8.14001 19.8907 12 19.8907C15.86 19.8907 19 16.7507 19 12.8907C19 9.0307 15.86 5.8907 12 5.8907C8.14001 5.8907 5.00001 9.0307 5.00001 12.8907Z" fill="black" fill-opacity="0.54"/>
</g>
</svg>
