<svg width="24" height="24" viewBox="0 0 24 24" fill="none" xmlns="http://www.w3.org/2000/svg">
<g id="add_alarm_24px">
<path id="icon/device/add_alarm_24px" fill-rule="evenodd" clip-rule="evenodd" d="M7.17001 3.8807L4.10001 6.4407C3.68001 6.7907 3.05001 6.7407 2.70001 6.3107C2.34001 5.8907 2.40001 5.2607 2.82001 4.9007L5.90001 2.3407C6.32001 1.9907 6.95001 2.0407 7.30001 2.4707C7.66001 2.8907 7.60001 3.5207 7.17001 3.8807ZM21.18 4.9007L18.1 2.3407C17.68 1.9907 17.05 2.0407 16.69 2.4707C16.34 2.8907 16.4 3.5207 16.82 3.8807L19.89 6.4407C20.31 6.7907 20.94 6.7407 21.3 6.3107C21.66 5.8907 21.6 5.2607 21.18 4.9007ZM15 11.8907H13V9.8907C13 9.3407 12.55 8.8907 12 8.8907C11.45 8.8907 11 9.3407 11 9.8907V11.8907H9.00001C8.45001 11.8907 8.00001 12.3407 8.00001 12.8907C8.00001 13.4407 8.45001 13.8907 9.00001 13.8907H11V15.8907C11 16.4407 11.45 16.8907 12 16.8907C12.55 16.8907 13 16.4407 13 15.8907V13.8907H15C15.55 13.8907 16 13.4407 16 12.8907C16 12.3407 15.55 11.8907 15 11.8907ZM12 3.8907C7.03001 3.8907 3.00001 7.9207 3.00001 12.8907C3.00001 17.8607 7.03001 21.8907 12 21.8907C16.97 21.8907 21 17.8607 21 12.8907C21 7.9207 16.97 3.8907 12 3.8907ZM5.00001 12.8907C5.00001 16.7507 8.14001 19.8907 12 19.8907C15.86 19.8907 19 16.7507 19 12.8907C19 9.0307 15.86 5.8907 12 5.8907C8.14001 5.8907 5.00001 9.0307 5.00001 12.8907Z" fill="black" fill-opacity="0.54"/>
</g>
</svg>
