<svg width="24" height="24" viewBox="0 0 24 24" fill="none" xmlns="http://www.w3.org/2000/svg">
<g id="add_to_home_screen_24px">
<path id="icon/device/add_to_home_screen_24px" fill-rule="evenodd" clip-rule="evenodd" d="M8.29624 1L18.2962 1.01C19.3962 1.01 20.2962 1.9 20.2962 3V21C20.2962 22.1 19.3962 23 18.2962 23H8.29624C7.19624 23 6.29624 22.1 6.29624 21V18C6.29624 17.45 6.74624 17 7.29624 17C7.84624 17 8.29624 17.45 8.29624 18V19H18.2962V5H8.29624V6C8.29624 6.55 7.84624 7 7.29624 7C6.74624 7 6.29624 6.55 6.29624 6V3C6.29624 1.9 7.19624 1 8.29624 1ZM12.2962 14C12.2962 14.55 11.8462 15 11.2962 15C10.7462 15 10.2962 14.55 10.2962 14V11.41L5.40624 16.3C5.01624 16.69 4.38624 16.69 3.99624 16.3C3.60624 15.91 3.60624 15.28 3.99624 14.89L8.88624 10H6.29624C5.74624 10 5.29624 9.55 5.29624 9C5.29624 8.45 5.74624 8 6.29624 8H11.2962C11.8462 8 12.2962 8.45 12.2962 9V14Z" fill="black" fill-opacity="0.54"/>
</g>
</svg>
