<svg width="24" height="24" viewBox="0 0 24 24" fill="none" xmlns="http://www.w3.org/2000/svg">
<g id="airplanemode_active_24px">
<path id="icon/device/airplanemode_active_24px" d="M21.5 14.6604C21.5 14.3004 21.31 13.9704 21.01 13.7704L13.5 9.08044V3.58044C13.5 2.75044 12.83 2.08044 12 2.08044C11.17 2.08044 10.5 2.75044 10.5 3.58044V9.08044L2.99 13.7704C2.69 13.9604 2.5 14.3004 2.5 14.6604C2.5 15.3604 3.18 15.8704 3.86 15.6604L10.5 13.5804V19.0804L8.7 20.4304C8.57 20.5204 8.5 20.6704 8.5 20.8304V21.4204C8.5 21.7504 8.82 21.9904 9.14 21.9004L12 21.0804L14.86 21.9004C15.18 21.9904 15.5 21.7504 15.5 21.4204V20.8304C15.5 20.6704 15.43 20.5204 15.3 20.4304L13.5 19.0804V13.5804L20.14 15.6604C20.82 15.8704 21.5 15.3604 21.5 14.6604Z" fill="black" fill-opacity="0.54"/>
</g>
</svg>
