<svg width="24" height="24" viewBox="0 0 24 24" fill="none" xmlns="http://www.w3.org/2000/svg">
<g id="airplanemode_inactive_24px">
<path id="icon/device/airplanemode_inactive_24px" fill-rule="evenodd" clip-rule="evenodd" d="M21.5 14.6604C21.5 15.3704 20.81 15.8704 20.14 15.6604L19.15 15.3404L10.5 6.69044V3.58044C10.5 2.75044 11.17 2.08044 12 2.08044C12.83 2.08044 13.5 2.75044 13.5 3.58044V9.08044L21.01 13.7704C21.31 13.9704 21.5 14.3004 21.5 14.6604ZM20.64 19.6704L19.23 21.0804L13.5 15.3504V19.0804L15.3 20.4304C15.43 20.5204 15.5 20.6704 15.5 20.8304V21.4204C15.5 21.7504 15.18 21.9904 14.86 21.9004L12 21.0804L9.14 21.9004C8.82 21.9904 8.5 21.7504 8.5 21.4204V20.8304C8.5 20.6704 8.57 20.5204 8.7 20.4304L10.5 19.0804V13.5804L3.86 15.6604C3.18 15.8704 2.5 15.3604 2.5 14.6604C2.5 14.3004 2.69 13.9604 2.99 13.7804L8.49 10.3404L3.5 5.35044L4.91 3.94044L20.64 19.6704Z" fill="black" fill-opacity="0.54"/>
</g>
</svg>
