<svg width="24" height="24" viewBox="0 0 24 24" fill="none" xmlns="http://www.w3.org/2000/svg">
<g id="battery_charging_full_24px">
<path id="icon/device/battery_charging_full_24px" fill-rule="evenodd" clip-rule="evenodd" d="M14 4H15.67C16.4 4 17 4.6 17 5.33V20.67C17 21.4 16.4 22 15.66 22H8.34C7.6 22 7 21.4 7 20.66V5.33C7 4.6 7.6 4 8.33 4H10V3C10 2.45 10.45 2 11 2H13C13.55 2 14 2.45 14 3V4ZM11.94 18.24L14.61 13.24C14.79 12.9 14.54 12.5 14.17 12.5H13V9C13 8.48 12.3 8.31 12.06 8.76L9.39 13.76C9.21 14.1 9.45 14.5 9.83 14.5H11V18C11 18.52 11.7 18.69 11.94 18.24Z" fill="black" fill-opacity="0.54"/>
</g>
</svg>
