<svg width="24" height="24" viewBox="0 0 24 24" fill="none" xmlns="http://www.w3.org/2000/svg">
<g id="bluetooth_connected_24px">
<path id="icon/device/bluetooth_connected_24px" fill-rule="evenodd" clip-rule="evenodd" d="M12.71 2.70624L17 6.99624C17.39 7.38624 17.39 8.02624 17 8.41624L13.41 11.9962L17 15.5762C17.39 15.9762 17.39 16.6062 17 16.9962L12.71 21.2962C12.08 21.9262 11 21.4762 11 20.5862V14.4062L7.11002 18.2962C6.72002 18.6862 6.09002 18.6862 5.70002 18.2962C5.31002 17.9062 5.31002 17.2762 5.70002 16.8862L10.59 11.9962L5.70002 7.10624C5.31002 6.71624 5.31002 6.08624 5.70002 5.69624C5.88686 5.50898 6.14051 5.40375 6.40502 5.40375C6.66954 5.40375 6.92319 5.50898 7.11002 5.69624L11 9.58624V3.40624C11 2.51624 12.08 2.07624 12.71 2.70624ZM20 10.9962C19.44 10.4362 18.55 10.4362 18 10.9862V10.9962C17.45 11.5462 17.45 12.4362 18 12.9862V12.9962C18.55 13.5462 19.44 13.5462 19.99 12.9962H20C20.55 12.4462 20.55 11.5462 20 10.9962ZM6.00002 12.9962C6.55002 12.4462 6.55002 11.5562 6.00002 11.0062V10.9962C5.45002 10.4462 4.55002 10.4462 4.00002 10.9962C3.45002 11.5462 3.45002 12.4462 4.00002 12.9962C4.55002 13.5462 5.45002 13.5462 6.00002 12.9962ZM14.88 16.2862L13 18.1662V14.4062L14.88 16.2862ZM13 5.82624V9.58624L14.88 7.70624L13 5.82624Z" fill="black" fill-opacity="0.54"/>
</g>
</svg>
