<svg width="24" height="24" viewBox="0 0 24 24" fill="none" xmlns="http://www.w3.org/2000/svg">
<g id="bluetooth_searching_24px">
<path id="icon/device/bluetooth_searching_24px" fill-rule="evenodd" clip-rule="evenodd" d="M14.7912 8.41624L11.2012 11.9962L14.7912 15.5762C15.1812 15.9762 15.1812 16.6062 14.7912 16.9962L10.5012 21.2962C9.87123 21.9262 8.79123 21.4762 8.79123 20.5862V14.4062L4.90123 18.2962C4.51123 18.6862 3.88123 18.6862 3.49123 18.2962C3.10123 17.9062 3.10123 17.2762 3.49123 16.8862L8.38123 11.9962L3.49123 7.10624C3.10123 6.71624 3.10123 6.08624 3.49123 5.69624C3.67806 5.50898 3.93171 5.40375 4.19623 5.40375C4.46075 5.40375 4.7144 5.50898 4.90123 5.69624L8.79123 9.58624V3.40624C8.79123 2.51624 9.87123 2.07624 10.5012 2.70624L14.7912 6.99624C15.1812 7.39624 15.1812 8.02624 14.7912 8.41624ZM19.8912 7.77624C19.6412 7.22624 18.9112 7.10624 18.4912 7.53624C18.2312 7.79624 18.1812 8.17624 18.3212 8.51624C18.7812 9.58624 19.0412 10.7562 19.0412 11.9862C19.0412 13.2262 18.7812 14.4062 18.3112 15.4762C18.1712 15.7962 18.2212 16.1662 18.4712 16.4162C18.8812 16.8262 19.5712 16.7062 19.8212 16.1862C20.4512 14.8862 20.8012 13.4262 20.8012 11.8862C20.7912 10.4362 20.4712 9.03624 19.8912 7.77624ZM15.7712 10.2762L14.3912 11.6562C14.1912 11.8562 14.1912 12.1662 14.3912 12.3662L15.7712 13.7462C16.0512 14.0262 16.5212 13.8962 16.6212 13.5162C16.7312 13.0162 16.7912 12.5162 16.7912 11.9962C16.7912 11.4862 16.7312 10.9862 16.6112 10.5162C16.5212 10.1362 16.0512 9.99624 15.7712 10.2762ZM10.7912 5.82624L12.6712 7.70624L10.7912 9.58624V5.82624ZM12.6712 16.2862L10.7912 14.4062V18.1662L12.6712 16.2862Z" fill="black" fill-opacity="0.54"/>
</g>
</svg>
