<svg width="24" height="24" viewBox="0 0 24 24" fill="none" xmlns="http://www.w3.org/2000/svg">
<g id="bluetooth_24px">
<path id="icon/device/bluetooth_24px" fill-rule="evenodd" clip-rule="evenodd" d="M17.65 6.99624L13.36 2.70624C12.73 2.07624 11.65 2.51624 11.65 3.40624V9.58624L7.76 5.69624C7.57316 5.50898 7.31951 5.40375 7.055 5.40375C6.79048 5.40375 6.53683 5.50898 6.35 5.69624C5.96 6.08624 5.96 6.71624 6.35 7.10624L11.24 11.9962L6.35 16.8862C5.96 17.2762 5.96 17.9062 6.35 18.2962C6.74 18.6862 7.37 18.6862 7.76 18.2962L11.65 14.4062V20.5862C11.65 21.4762 12.73 21.9262 13.36 21.2962L17.65 16.9962C18.04 16.6062 18.04 15.9762 17.65 15.5862L14.06 11.9962L17.65 8.41624C18.04 8.02624 18.04 7.38624 17.65 6.99624ZM13.65 5.82624L15.53 7.70624L13.65 9.58624V5.82624ZM13.65 18.1662L15.53 16.2862L13.65 14.4062V18.1662Z" fill="black" fill-opacity="0.54"/>
</g>
</svg>
