<svg width="24" height="24" viewBox="0 0 24 24" fill="none" xmlns="http://www.w3.org/2000/svg">
<g id="bluetooth_disabled_24px">
<path id="icon/device/bluetooth_disabled_24px" fill-rule="evenodd" clip-rule="evenodd" d="M13.4144 9.17624L14.8844 7.70624L13.0044 5.82624V8.76624L11.0044 6.76624V3.40624C11.0044 2.51624 12.0844 2.07624 12.7144 2.70624L17.0044 6.99624C17.3944 7.39624 17.3944 8.02624 17.0044 8.41624L14.8244 10.5862L13.4144 9.17624ZM19.2944 17.8862L6.11437 4.69624C5.92753 4.50898 5.67388 4.40375 5.40937 4.40375C5.14485 4.40375 4.8912 4.50898 4.70437 4.69624C4.31437 5.08624 4.31437 5.71624 4.70437 6.10624L10.5944 11.9962L5.70437 16.8862C5.31437 17.2762 5.31437 17.9062 5.70437 18.2962C6.09437 18.6862 6.72437 18.6862 7.11437 18.2962L11.0044 14.4062V20.5862C11.0044 21.4762 12.0844 21.9262 12.7144 21.2962L16.3044 17.7062L17.8944 19.2962C18.2844 19.6862 18.9144 19.6862 19.3044 19.2962C19.6844 18.9062 19.6844 18.2662 19.2944 17.8862ZM13.0044 14.4062L14.8844 16.2862L13.0044 18.1662V14.4062Z" fill="black" fill-opacity="0.54"/>
</g>
</svg>
