<svg width="24" height="24" viewBox="0 0 24 24" fill="none" xmlns="http://www.w3.org/2000/svg">
<g id="brightness_medium_24px">
<path id="icon/device/brightness_medium_24px" fill-rule="evenodd" clip-rule="evenodd" d="M21.8999 13.41L19.9999 15.31V18C19.9999 19.1 19.0999 20 17.9999 20H15.3199L13.4199 21.9C12.6399 22.68 11.3699 22.68 10.5899 21.9L8.68989 20H5.99989C4.89989 20 3.99989 19.1 3.99989 18V15.32L2.09989 13.42C1.31989 12.64 1.31989 11.37 2.09989 10.59L3.99989 8.69001V6.00001C3.99989 4.90001 4.89989 4.00001 5.99989 4.00001H8.68989L10.5799 2.10001C11.3599 1.32001 12.6299 1.32001 13.4099 2.10001L15.3099 4.00001H17.9999C19.0999 4.00001 19.9999 4.90001 19.9999 6.00001V8.69001L21.8999 10.58C22.6799 11.36 22.6799 12.63 21.8999 13.41ZM11.9999 7.10001V16.9C11.9999 17.51 12.5499 18.01 13.1499 17.89C15.9099 17.35 17.9999 14.92 17.9999 12C17.9999 9.08001 15.9099 6.65001 13.1499 6.11001C12.5499 5.99001 11.9999 6.49001 11.9999 7.10001Z" fill="black" fill-opacity="0.54"/>
</g>
</svg>
