<svg width="24" height="24" viewBox="0 0 24 24" fill="none" xmlns="http://www.w3.org/2000/svg">
<g id="brightness_low_24px">
<path id="icon/device/brightness_low_24px" fill-rule="evenodd" clip-rule="evenodd" d="M21.9 13.41L20 15.31V18C20 19.1 19.1 20 18 20H15.32L13.42 21.9C12.64 22.68 11.37 22.68 10.59 21.9L8.69001 20H6.00001C4.90001 20 4.00001 19.1 4.00001 18V15.32L2.10001 13.42C1.32001 12.64 1.32001 11.37 2.10001 10.59L4.00001 8.69001V6.00001C4.00001 4.90001 4.90001 4.00001 6.00001 4.00001H8.69001L10.58 2.10001C11.36 1.32001 12.63 1.32001 13.41 2.10001L15.31 4.00001H18C19.1 4.00001 20 4.90001 20 6.00001V8.69001L21.9 10.58C22.68 11.36 22.68 12.63 21.9 13.41ZM6.00001 12C6.00001 15.31 8.69001 18 12 18C15.31 18 18 15.31 18 12C18 8.69001 15.31 6.00001 12 6.00001C8.69001 6.00001 6.00001 8.69001 6.00001 12Z" fill="black" fill-opacity="0.54"/>
</g>
</svg>
