<svg width="24" height="24" viewBox="0 0 24 24" fill="none" xmlns="http://www.w3.org/2000/svg">
<g id="brightness_auto_24px">
<path id="icon/device/brightness_auto_24px" fill-rule="evenodd" clip-rule="evenodd" d="M20 8.69001V6.00001C20 4.90001 19.1 4.00001 18 4.00001H15.31L13.41 2.10001C12.63 1.32001 11.36 1.32001 10.58 2.10001L8.69001 4.00001H6.00001C4.90001 4.00001 4.00001 4.90001 4.00001 6.00001V8.69001L2.10001 10.59C1.32001 11.37 1.32001 12.64 2.10001 13.42L4.00001 15.32V18C4.00001 19.1 4.90001 20 6.00001 20H8.69001L10.59 21.9C11.37 22.68 12.64 22.68 13.42 21.9L15.32 20H18C19.1 20 20 19.1 20 18V15.31L21.9 13.41C22.68 12.63 22.68 11.36 21.9 10.58L20 8.69001ZM10.85 12.65H13.15L12 9.00001L10.85 12.65ZM13.6 14L14.09 15.4C14.22 15.76 14.55 16 14.94 15.99C15.56 15.99 15.99 15.38 15.78 14.8L13.34 7.94001C13.13 7.38001 12.6 7.00001 12 7.00001C11.4 7.00001 10.87 7.38001 10.67 7.95001L8.23001 14.81C8.02001 15.39 8.45001 16 9.07001 16C9.45001 16 9.78001 15.76 9.91001 15.4L10.4 14H13.6Z" fill="black" fill-opacity="0.54"/>
</g>
</svg>
