<svg width="24" height="24" viewBox="0 0 24 24" fill="none" xmlns="http://www.w3.org/2000/svg">
<g id="developer_mode_24px">
<path id="icon/device/developer_mode_24px" fill-rule="evenodd" clip-rule="evenodd" d="M17.005 5H7.00498V6C7.00498 6.55 6.55498 7 6.00498 7C5.45498 7 5.00498 6.55 5.00498 6V3C5.00498 1.9 5.90498 1 7.00498 1L17.005 1.01C18.105 1.01 19.005 1.9 19.005 3V6C19.005 6.55 18.555 7 18.005 7C17.455 7 17.005 6.55 17.005 6V5ZM19.295 12.71L16.125 15.88C15.735 16.27 15.095 16.27 14.705 15.88C14.315 15.49 14.315 14.86 14.705 14.47L17.175 12L14.705 9.54C14.315 9.15 14.315 8.52 14.705 8.13C15.095 7.74 15.735 7.74 16.125 8.13L19.295 11.3C19.685 11.69 19.685 12.32 19.295 12.71ZM9.29498 14.46L6.83498 12L9.29498 9.54C9.68498 9.15 9.68498 8.52 9.29498 8.13C8.90498 7.74 8.26498 7.74 7.87498 8.13L4.70498 11.3C4.31498 11.69 4.31498 12.32 4.70498 12.71L7.87498 15.88C8.26498 16.27 8.90498 16.27 9.29498 15.88C9.69498 15.49 9.68498 14.85 9.29498 14.46ZM7.00498 19H17.005V18C17.005 17.45 17.455 17 18.005 17C18.555 17 19.005 17.45 19.005 18V21C19.005 22.1 18.105 23 17.005 23H7.00498C5.90498 23 5.00498 22.1 5.00498 21V18C5.00498 17.45 5.45498 17 6.00498 17C6.55498 17 7.00498 17.45 7.00498 18V19Z" fill="black" fill-opacity="0.54"/>
</g>
</svg>
