<svg width="24" height="24" viewBox="0 0 24 24" fill="none" xmlns="http://www.w3.org/2000/svg">
<g id="mobile_off_24px">
<path id="icon/device/mobile_off_24px" fill-rule="evenodd" clip-rule="evenodd" d="M17.195 13.61V5H8.58504L5.51504 1.93C5.86504 1.37 6.48504 1 7.19504 1H17.195C18.295 1 19.195 1.9 19.195 3V15.61L17.195 13.61ZM17.195 16.44L3.80504 3.05C3.61821 2.86275 3.36456 2.75751 3.10004 2.75751C2.83552 2.75751 2.58187 2.86275 2.39504 3.05C2.00504 3.44 2.00504 4.07 2.39504 4.46L5.19504 7.27V21C5.19504 22.1 6.09504 23 7.19504 23H17.195C18.215 23 19.045 22.23 19.175 21.25L20.195 22.27C20.585 22.66 21.215 22.66 21.605 22.27C21.995 21.88 21.995 21.25 21.605 20.86L19.195 18.44L17.195 16.44ZM7.19504 19V9.27L16.925 19H7.19504Z" fill="black" fill-opacity="0.54"/>
</g>
</svg>
