<svg width="24" height="24" viewBox="0 0 24 24" fill="none" xmlns="http://www.w3.org/2000/svg">
<g id="mobile_friendly_24px">
<path id="icon/device/mobile_friendly_24px" fill-rule="evenodd" clip-rule="evenodd" d="M8.72131 1H18.7213C19.8213 1 20.7213 1.9 20.7213 3V21C20.7213 22.1 19.8213 23 18.7213 23H8.72131C7.62131 23 6.72131 22.1 6.72131 21V19C6.72131 18.45 7.17131 18 7.72131 18C8.27131 18 8.72131 18.45 8.72131 19V20H18.7213V4H8.72131V5C8.72131 5.55 8.27131 6 7.72131 6C7.17131 6 6.72131 5.55 6.72131 5V3C6.72131 1.9 7.62131 1 8.72131 1ZM4.81131 11.55L6.73131 13.47L12.0013 8.17C12.3513 7.82 12.9213 7.82 13.2713 8.17C13.6213 8.52 13.6213 9.09 13.2713 9.44L7.42131 15.29C7.03131 15.68 6.40131 15.68 6.01131 15.29L3.54131 12.82C3.19131 12.47 3.19131 11.9 3.54131 11.55C3.89131 11.2 4.46131 11.2 4.81131 11.55Z" fill="black" fill-opacity="0.54"/>
</g>
</svg>
