<svg width="24" height="24" viewBox="0 0 24 24" fill="none" xmlns="http://www.w3.org/2000/svg">
<g id="screen_rotation_24px">
<path id="icon/device/screen_rotation_24px" fill-rule="evenodd" clip-rule="evenodd" d="M17.61 1.39129C16.04 0.561387 14.06 -0.0385404 11.81 0.0114535C11.63 0.0114535 11.55 0.231427 11.67 0.361411L15.15 3.84099L16.48 2.51115C19.57 3.97097 21.82 6.88062 22.37 10.3702C22.43 10.7801 22.81 11.0601 23.23 10.9901C23.64 10.9301 23.92 10.5402 23.85 10.1302C23.25 6.33069 20.89 3.13108 17.61 1.39129ZM8.11001 1.74124C8.69001 1.15132 9.64001 1.15132 10.23 1.74124L22.25 13.7598C22.84 14.3397 22.84 15.2896 22.25 15.8795L15.89 22.2388C15.31 22.8287 14.36 22.8287 13.77 22.2388L1.75001 10.2202C1.16001 9.64029 1.16001 8.6904 1.75001 8.10047L8.11001 1.74124ZM3.52001 9.87026L14.12 20.469C14.51 20.8589 15.15 20.8589 15.54 20.479L20.49 15.5296C20.88 15.1396 20.88 14.5097 20.49 14.1197L9.88001 3.51103C9.49001 3.12108 8.86001 3.12108 8.47001 3.51103L3.52001 8.46043C3.33276 8.64724 3.22753 8.90086 3.22753 9.16534C3.22753 9.42983 3.33276 9.68345 3.52001 9.87026ZM7.52001 21.4789L8.85001 20.149L12.33 23.6386C12.45 23.7686 12.37 23.9885 12.19 23.9885C9.94001 24.0385 7.96001 23.4386 6.39001 22.6087C3.11001 20.8689 0.750013 17.6693 0.150013 13.8598C0.0800133 13.4498 0.360013 13.0599 0.770013 12.9999C1.19001 12.9299 1.57001 13.2099 1.63001 13.6198C2.18001 17.1094 4.43001 20.019 7.52001 21.4789Z" fill="black" fill-opacity="0.54"/>
</g>
</svg>
