<svg width="24" height="24" viewBox="0 0 24 24" fill="none" xmlns="http://www.w3.org/2000/svg">
<g id="screen_lock_rotation_24px">
<path id="icon/device/screen_lock_rotation_24px" fill-rule="evenodd" clip-rule="evenodd" d="M21.6091 8.50354C21.6091 9.05354 21.1591 9.50354 20.6091 9.50354H15.6091C15.0591 9.50354 14.6091 9.05354 14.6091 8.50354V4.50354C14.6091 3.95354 15.0591 3.50354 15.6091 3.50354V3.00354C15.6091 1.62354 16.7291 0.50354 18.1091 0.50354C19.4891 0.50354 20.6091 1.62354 20.6091 3.00354V3.50354C21.1591 3.50354 21.6091 3.95354 21.6091 4.50354V8.50354ZM20.9991 11.4035L22.8591 13.2735C23.4491 13.8535 23.4491 14.8035 22.8591 15.3935L16.4991 21.7535C15.9191 22.3435 14.9691 22.3435 14.3791 21.7535L2.3591 9.73354C1.7691 9.15354 1.7691 8.20354 2.3591 7.61354L8.7191 1.25354C9.2991 0.66354 10.2491 0.66354 10.8391 1.25354L12.5891 3.00354C12.9791 3.39354 12.9791 4.02354 12.5891 4.41354C12.1991 4.80354 11.5691 4.80354 11.1791 4.41354L9.7791 3.01354L4.1191 8.67354L15.4391 19.9935L21.0991 14.3335L19.5891 12.8135C19.1991 12.4235 19.1991 11.7935 19.5891 11.4035C19.7759 11.2163 20.0296 11.1111 20.2941 11.1111C20.5586 11.1111 20.8123 11.2163 20.9991 11.4035ZM16.4091 3.00354C16.4091 2.06354 17.1691 1.30354 18.1091 1.30354C19.0491 1.30354 19.8091 2.06354 19.8091 3.00354V3.50354H16.4091V3.00354ZM8.0791 20.9835L9.4091 19.6535L12.8891 23.1435C13.0091 23.2735 12.9291 23.4935 12.7491 23.4935C10.4991 23.5435 8.5191 22.9435 6.9491 22.1135C3.6691 20.3735 1.3091 17.1735 0.709095 13.3635C0.639095 12.9535 0.919095 12.5635 1.3291 12.5035C1.7491 12.4335 2.1291 12.7135 2.1891 13.1235C2.7391 16.6135 4.9891 19.5235 8.0791 20.9835Z" fill="black" fill-opacity="0.54"/>
</g>
</svg>
