<svg width="24" height="24" viewBox="0 0 24 24" fill="none" xmlns="http://www.w3.org/2000/svg">
<g id="signal_wifi_statusbar_not_connected_26x24px">
<path id="Shape" d="M14.7692 13.4614C14.7692 10.8164 16.8369 8.66978 19.3846 8.66978C20.1692 8.66978 20.8985 8.8902 21.5446 9.25436L23.6123 6.58061C23.1692 6.23561 18.7015 2.44061 12 2.44061C5.29846 2.44061 0.830772 6.23561 0.387695 6.58061L10.56 19.7481C11.2985 20.7064 12.7015 20.7064 13.44 19.7481L15.8954 16.5664C15.2031 15.7327 14.7692 14.6498 14.7692 13.4614Z" fill="black" fill-opacity="0.54"/>
<path id="Path" d="M18.5077 19.7385H20.2615V21.5594H18.5077V19.7385Z" fill="black" fill-opacity="0.54"/>
<path id="Path_2" d="M19.3846 10.1073C17.9723 10.1073 16.7723 11.0465 16.3292 12.3594C16.1446 12.896 16.5508 13.4615 17.0954 13.4615C17.4277 13.4615 17.7415 13.2506 17.8523 12.9248C18.0462 12.3306 18.5631 11.8706 19.1815 11.794C19.9846 11.6981 20.76 12.2444 20.9446 13.059C21.2585 14.391 19.9477 15.1002 19.2646 15.9915C18.9508 16.4035 18.7385 16.8827 18.6369 17.4002C18.6277 17.4385 18.6277 17.4673 18.6185 17.5056C18.5354 18.0231 18.9231 18.5023 19.4308 18.5023C19.8277 18.5023 20.1785 18.2052 20.2338 17.8027C20.28 17.4769 20.3815 17.1606 20.5477 16.8731C20.7415 16.5473 21.0092 16.279 21.2677 16.001C21.4892 15.771 21.7108 15.541 21.9231 15.3015C22.3662 14.8127 22.6154 14.1515 22.6154 13.4806C22.6154 11.6119 21.1662 10.1073 19.3846 10.1073V10.1073Z" fill="black" fill-opacity="0.54"/>
</g>
</svg>
