<svg width="24" height="24" viewBox="0 0 24 24" fill="none" xmlns="http://www.w3.org/2000/svg">
<g id="signal_cellular_connected_no_internet_4_bar_24px">
<path id="icon/device/signal_cellular_connected_no_internet_4_bar_24px" fill-rule="evenodd" clip-rule="evenodd" d="M17.2933 21.297H3.70326C2.81326 21.297 2.37326 20.217 3.00326 19.587L19.5833 2.99701C20.2133 2.36701 21.2933 2.81701 21.2933 3.70701V7.29701H20.2933C18.6333 7.29701 17.2933 8.63701 17.2933 10.297V21.297ZM20.2933 17.297C20.8433 17.297 21.2933 16.847 21.2933 16.297V10.297C21.2933 9.74701 20.8433 9.29701 20.2933 9.29701C19.7433 9.29701 19.2933 9.74701 19.2933 10.297V16.297C19.2933 16.847 19.7433 17.297 20.2933 17.297ZM21.2933 21.297V19.297H19.2933V21.297H21.2933Z" fill="black" fill-opacity="0.54"/>
</g>
</svg>
