<svg width="24" height="24" viewBox="0 0 24 24" fill="none" xmlns="http://www.w3.org/2000/svg">
<g id="signal_wifi_statusbar_connected_no_internet_26x24px">
<path id="Shape" d="M18.4615 11.0417C18.4615 9.45085 19.6985 8.16669 21.2308 8.16669H22.3662L23.6123 6.55669C23.1692 6.21169 18.7015 2.41669 12 2.41669C5.29846 2.41669 0.830772 6.21169 0.387695 6.55669L10.56 19.7242C11.2985 20.6825 12.7015 20.6825 13.44 19.7242L18.4615 13.2267V11.0417Z" fill="black" fill-opacity="0.54"/>
<path id="Path" d="M20.3077 11.0417V16.7917C20.3077 17.3188 20.7231 17.75 21.2308 17.75C21.7385 17.75 22.1539 17.3188 22.1539 16.7917V11.0417C22.1539 10.5146 21.7385 10.0833 21.2308 10.0833C20.7231 10.0833 20.3077 10.5146 20.3077 11.0417Z" fill="black" fill-opacity="0.54"/>
<path id="Path_2" d="M20.3077 19.6667H22.1539V21.5834H20.3077V19.6667Z" fill="black" fill-opacity="0.54"/>
</g>
</svg>
