<svg width="24" height="24" viewBox="0 0 24 24" fill="none" xmlns="http://www.w3.org/2000/svg">
<g id="signal_cellular_off_24px">
<path id="icon/device/signal_cellular_off_24px" fill-rule="evenodd" clip-rule="evenodd" d="M19.2177 2.20575C19.8477 1.57575 20.9277 2.02575 20.9277 2.91575V17.1158L12.6177 8.80575L19.2177 2.20575ZM5.54766 4.56575L21.3677 20.3858C21.7577 20.7758 21.7577 21.4058 21.3577 21.7958C20.9677 22.1858 20.3377 22.1858 19.9477 21.7958L18.6577 20.5058H3.33766C2.44766 20.5058 2.00766 19.4258 2.63766 18.7958L9.79766 11.6358L4.13766 5.97575C3.74766 5.58575 3.74766 4.95575 4.13766 4.56575C4.3245 4.3785 4.57815 4.27327 4.84266 4.27327C5.10718 4.27327 5.36083 4.3785 5.54766 4.56575Z" fill="black" fill-opacity="0.54"/>
</g>
</svg>
