<svg width="24" height="24" viewBox="0 0 24 24" fill="none" xmlns="http://www.w3.org/2000/svg">
<g id="signal_cellular_alt_24px">
<path id="icon/device/signal_cellular_alt_24px" fill-rule="evenodd" clip-rule="evenodd" d="M18 4C18.83 4 19.5 4.67 19.5 5.5V18.5C19.5 19.33 18.83 20 18 20C17.17 20 16.5 19.33 16.5 18.5V5.5C16.5 4.67 17.17 4 18 4ZM6 14C6.83 14 7.5 14.67 7.5 15.5V18.5C7.5 19.33 6.83 20 6 20C5.17 20 4.5 19.33 4.5 18.5V15.5C4.5 14.67 5.17 14 6 14ZM13.5 10.5C13.5 9.67 12.83 9 12 9C11.17 9 10.5 9.67 10.5 10.5V18.5C10.5 19.33 11.17 20 12 20C12.83 20 13.5 19.33 13.5 18.5V10.5Z" fill="black" fill-opacity="0.54"/>
</g>
</svg>
