<svg width="24" height="24" viewBox="0 0 24 24" fill="none" xmlns="http://www.w3.org/2000/svg">
<g id="signal_wifi_off_24px">
<path id="icon/device/signal_wifi_off_24px" fill-rule="evenodd" clip-rule="evenodd" d="M3.41499 2.70377C3.6795 2.70377 3.93315 2.809 4.11999 2.99625L19.93 18.8163C20.32 19.2063 20.32 19.8363 19.93 20.2263C19.54 20.6163 18.91 20.6163 18.52 20.2263L15.91 17.6163L13.56 20.5463C12.76 21.5463 11.24 21.5463 10.44 20.5463L0.359985 7.98625C0.367221 7.98059 0.375536 7.97405 0.384922 7.96668C0.673863 7.73962 1.97763 6.71511 4.05999 5.75625L2.70999 4.40625C2.31999 4.01625 2.31999 3.38625 2.70999 2.99625C2.89682 2.809 3.15047 2.70377 3.41499 2.70377ZM23.5736 7.93527C23.6012 7.95657 23.6233 7.97368 23.64 7.98625L18.43 14.4863L8.30999 4.36625C9.44999 4.12625 10.68 3.98625 12 3.98625C18.4619 3.98625 22.8556 7.3806 23.5736 7.93527Z" fill="black" fill-opacity="0.54"/>
</g>
</svg>
