<svg width="24" height="24" viewBox="0 0 24 24" fill="none" xmlns="http://www.w3.org/2000/svg">
<g id="signal_cellular_no_sim_24px">
<path id="icon/device/signal_cellular_no_sim_24px" fill-rule="evenodd" clip-rule="evenodd" d="M17.18 2.39874C18.28 2.39874 19.18 3.29874 19.18 4.39874V15.5087L8.13004 4.45874L9.59004 2.98874C9.97004 2.60874 10.48 2.39874 11.01 2.39874H17.18ZM3.27004 5.24874C2.88004 4.85874 2.88004 4.22874 3.27004 3.83874C3.45687 3.65149 3.71052 3.54626 3.97504 3.54626C4.23956 3.54626 4.49321 3.65149 4.68004 3.83874L20.73 19.8987C21.12 20.2887 21.12 20.9187 20.73 21.3087C20.34 21.6987 19.71 21.6987 19.32 21.3087L18.41 20.3987H7.18004C6.08004 20.3987 5.18004 19.5087 5.18004 18.3987V7.17874L3.27004 5.24874Z" fill="black" fill-opacity="0.54"/>
</g>
</svg>
