<svg width="24" height="24" viewBox="0 0 24 24" fill="none" xmlns="http://www.w3.org/2000/svg">
<g id="signal_wifi_statusbar_null_26x24px">
<path id="icon/device/signal_wifi_statusbar_null_26x24px" fill-rule="evenodd" clip-rule="evenodd" d="M0.459894 7.06952C1.19107 6.4849 5.56602 2.98688 12 2.98688C18.434 2.98688 22.8089 6.4849 23.5401 7.06952C23.5705 7.09383 23.5946 7.1131 23.6123 7.12688L13.44 20.2944C12.7015 21.2527 11.2985 21.2527 10.56 20.2944L0.387695 7.12688C0.405385 7.1131 0.429489 7.09383 0.459894 7.06952ZM20.9262 7.53896C19.0338 6.35063 15.9231 4.90354 12 4.90354C8.07693 4.90354 4.96616 6.35063 3.07385 7.53896L11.28 18.1573C11.6492 18.6365 12.3508 18.6365 12.72 18.1573L20.9262 7.53896Z" fill="black" fill-opacity="0.54"/>
</g>
</svg>
