<svg width="24" height="24" viewBox="0 0 24 24" fill="none" xmlns="http://www.w3.org/2000/svg">
<g id="usb_24px">
<path id="icon/device/usb_24px" d="M18.095 7.23628H16.095C15.545 7.23628 15.095 7.68628 15.095 8.23628V10.2363C15.095 10.7863 15.545 11.2363 16.095 11.2363V13.2363H13.095V5.23628H14.095C14.505 5.23628 14.745 4.76628 14.495 4.43628L12.495 1.76628C12.295 1.49628 11.895 1.49628 11.695 1.76628L9.69502 4.43628C9.44502 4.76628 9.68502 5.23628 10.095 5.23628H11.095V13.2363H8.09502V11.1663C8.92502 10.7263 9.47502 9.80628 9.23502 8.73628C9.06502 7.96628 8.46502 7.33628 7.71502 7.12628C6.24502 6.71628 4.89502 7.82628 4.89502 9.23628C4.89502 10.0863 5.39502 10.7963 6.09502 11.1663V13.2363C6.09502 14.3363 6.99502 15.2363 8.09502 15.2363H11.095V18.2863C10.235 18.7363 9.70502 19.7063 9.96502 20.7763C10.145 21.5263 10.755 22.1563 11.505 22.3563C12.965 22.7463 14.305 21.6563 14.305 20.2363C14.305 19.3863 13.815 18.6563 13.105 18.2863V15.2363H16.105C17.205 15.2363 18.105 14.3363 18.105 13.2363V11.2363C18.655 11.2363 19.105 10.7863 19.105 10.2363V8.23628C19.095 7.68628 18.645 7.23628 18.095 7.23628Z" fill="black" fill-opacity="0.54"/>
</g>
</svg>
