<svg width="24" height="24" viewBox="0 0 24 24" fill="none" xmlns="http://www.w3.org/2000/svg">
<g id="widgets_24px">
<path id="icon/device/widgets_24px" fill-rule="evenodd" clip-rule="evenodd" d="M11.2487 7.08624L15.4987 2.84624C15.8887 2.45624 16.5287 2.45624 16.9187 2.84624L21.1587 7.08624C21.5487 7.47624 21.5487 8.10624 21.1587 8.49624L16.9087 12.7462C16.5187 13.1362 15.8887 13.1362 15.4987 12.7462L11.2487 8.49624C10.8587 8.10624 10.8587 7.47624 11.2487 7.08624ZM2.54871 4.44624V10.4462C2.54871 10.9962 2.99871 11.4462 3.54871 11.4462H9.54871C10.0987 11.4462 10.5487 10.9962 10.5487 10.4462V4.44624C10.5487 3.89624 10.0987 3.44624 9.54871 3.44624H3.54871C2.99871 3.44624 2.54871 3.89624 2.54871 4.44624ZM9.54871 21.4462H3.54871C2.99871 21.4462 2.54871 20.9962 2.54871 20.4462V14.4462C2.54871 13.8962 2.99871 13.4462 3.54871 13.4462H9.54871C10.0987 13.4462 10.5487 13.8962 10.5487 14.4462V20.4462C10.5487 20.9962 10.0987 21.4462 9.54871 21.4462ZM12.5487 20.4462V14.4462C12.5487 13.8962 12.9987 13.4462 13.5487 13.4462H19.5487C20.0987 13.4462 20.5487 13.8962 20.5487 14.4462V20.4462C20.5487 20.9962 20.0987 21.4462 19.5487 21.4462H13.5487C12.9987 21.4462 12.5487 20.9962 12.5487 20.4462Z" fill="black" fill-opacity="0.54"/>
</g>
</svg>
