<svg width="24" height="24" viewBox="0 0 24 24" fill="none" xmlns="http://www.w3.org/2000/svg">
<g id="wifi_tethering_24px">
<path id="icon/device/wifi_tethering_24px" fill-rule="evenodd" clip-rule="evenodd" d="M2.0481 11.9122C2.4781 7.28221 6.2081 3.47221 10.8281 2.95221C16.8681 2.26221 21.9981 6.97221 21.9981 12.8822C21.9981 16.1822 20.3981 19.1022 17.9281 20.9222C17.4481 21.2722 16.7681 21.1322 16.4681 20.6122C16.2181 20.1722 16.3281 19.6222 16.7281 19.3222C18.7081 17.8622 19.9981 15.5322 19.9981 12.8822C19.9981 8.16221 15.9081 4.39221 11.0881 4.94221C7.5681 5.33221 4.6481 8.12221 4.1081 11.6222C3.6181 14.7722 4.9881 17.6322 7.2681 19.3222C7.6681 19.6222 7.7781 20.1822 7.5281 20.6122C7.2281 21.1222 6.5481 21.2722 6.0681 20.9222C3.3681 18.9322 1.6981 15.6122 2.0481 11.9122ZM17.9981 12.8822C17.9981 9.32221 14.8881 6.48221 11.2481 6.93221C8.6281 7.25221 6.4681 9.34221 6.0681 11.9522C5.7381 14.1022 6.5581 16.0622 7.9981 17.3522C8.4781 17.7822 9.2281 17.6822 9.5581 17.1222L9.5681 17.1122C9.8081 16.6922 9.7081 16.1822 9.3481 15.8522C8.3181 14.9222 7.7581 13.4822 8.1281 11.9122C8.4581 10.4922 9.6081 9.34221 11.0281 9.00221C13.6481 8.37221 15.9981 10.3522 15.9981 12.8822C15.9981 14.0622 15.4781 15.1122 14.6681 15.8422C14.3081 16.1622 14.1981 16.6822 14.4381 17.1022L14.4481 17.1122C14.7581 17.6422 15.4781 17.8022 15.9481 17.3922C17.1981 16.2922 17.9981 14.6822 17.9981 12.8822ZM11.9981 10.8822C10.8981 10.8822 9.9981 11.7822 9.9981 12.8822C9.9981 13.9822 10.8981 14.8822 11.9981 14.8822C13.0981 14.8822 13.9981 13.9822 13.9981 12.8822C13.9981 11.7822 13.0981 10.8822 11.9981 10.8822Z" fill="black" fill-opacity="0.54"/>
</g>
</svg>
