<svg width="24" height="24" viewBox="0 0 24 24" fill="none" xmlns="http://www.w3.org/2000/svg">
<g id="cake_24px">
<path id="icon/social/cake_24px" fill-rule="evenodd" clip-rule="evenodd" d="M12.68 6.62875C13.38 6.38875 13.9 5.72875 13.98 4.98875C14.03 4.51875 13.93 4.07875 13.7 3.71875L12.42 1.49875C12.23 1.16875 11.75 1.16875 11.55 1.49875L10.27 3.71875C10.1 4.01875 10 4.36875 10 4.74875C10 6.06875 11.3 7.09875 12.68 6.62875ZM16.53 16.6687L15.53 15.6687L14.45 16.7387C13.15 18.0388 10.87 18.0487 9.56 16.7387L8.49 15.6687L7.4 16.7387C6.75 17.3887 5.88 17.7487 4.96 17.7487C4.23 17.7487 3.56 17.5187 3 17.1387V20.7487C3 21.8487 3.9 22.7487 5 22.7487H19C20.1 22.7487 21 21.8487 21 20.7487V17.1387C20.25 17.6487 19.29 17.8887 18.26 17.6587C17.6 17.5187 17.01 17.1487 16.53 16.6687ZM13 9.74875H18C19.66 9.74875 21 11.0888 20.99 12.7587V14.1787C20.99 15.1787 20.29 16.1088 19.3 16.2387C18.68 16.3188 18.08 16.1188 17.65 15.6888L15.52 13.5587L13.38 15.6888C12.62 16.4488 11.37 16.4488 10.61 15.6888L8.48 13.5587L6.34 15.6888C5.83 16.2088 5.04 16.3887 4.31 16.1487C3.5 15.8787 3 15.0587 3 14.2088V12.7487C3 11.0887 4.34 9.74875 6 9.74875H11V8.74875C11 8.19875 11.45 7.74875 12 7.74875C12.55 7.74875 13 8.19875 13 8.74875V9.74875Z" fill="black" fill-opacity="0.54"/>
</g>
</svg>
