<svg width="24" height="24" viewBox="0 0 24 24" fill="none" xmlns="http://www.w3.org/2000/svg">
<g id="location_city_24px">
<path id="icon/social/location_city_24px" fill-rule="evenodd" clip-rule="evenodd" d="M15 6.12124V11.2912H19C20.1 11.2912 21 12.1912 21 13.2912V19.2912C21 20.3912 20.1 21.2912 19 21.2912H5C3.9 21.2912 3 20.3912 3 19.2912V9.29124C3 8.19124 3.9 7.29124 5 7.29124H9V6.12124C9 5.59124 9.21 5.08124 9.59 4.70124L11.29 3.00124C11.4768 2.81399 11.7305 2.70876 11.995 2.70876C12.2595 2.70876 12.5132 2.81399 12.7 3.00124L14.41 4.71124C14.79 5.08124 15 5.59124 15 6.12124ZM5 19.2912H7V17.2912H5V19.2912ZM7 15.2912H5V13.2912H7V15.2912ZM5 11.2912H7V9.29124H5V11.2912ZM13 19.2912H11V17.2912H13V19.2912ZM11 15.2912H13V13.2912H11V15.2912ZM13 11.2912H11V9.29124H13V11.2912ZM11 7.29124H13V5.29124H11V7.29124ZM19 19.2912H17V17.2912H19V19.2912ZM17 15.2912H19V13.2912H17V15.2912Z" fill="black" fill-opacity="0.54"/>
</g>
</svg>
