<svg width="24" height="24" viewBox="0 0 24 24" fill="none" xmlns="http://www.w3.org/2000/svg">
<g id="notifications_24px">
<path id="icon/social/notifications_24px" fill-rule="evenodd" clip-rule="evenodd" d="M18.0013 10.75V15.75L19.2913 17.04C19.9213 17.67 19.4713 18.75 18.5813 18.75H5.41127C4.52127 18.75 4.08127 17.67 4.71127 17.04L6.00127 15.75V10.75C6.00127 7.67 7.63127 5.11 10.5013 4.43V3.75C10.5013 2.92 11.1713 2.25 12.0013 2.25C12.8313 2.25 13.5013 2.92 13.5013 3.75V4.43C16.3613 5.11 18.0013 7.68 18.0013 10.75ZM14.0013 19.75C14.0013 20.85 13.1013 21.75 12.0013 21.75C10.8913 21.75 10.0013 20.85 10.0013 19.75H14.0013Z" fill="black" fill-opacity="0.54"/>
</g>
</svg>
