<svg width="24" height="24" viewBox="0 0 24 24" fill="none" xmlns="http://www.w3.org/2000/svg">
<g id="notifications_active_24px">
<path id="icon/social/notifications_active_24px" fill-rule="evenodd" clip-rule="evenodd" d="M18.0039 10.75V15.75L19.2839 17.04C19.9139 17.67 19.4639 18.75 18.5739 18.75H5.40388C4.51388 18.75 4.07388 17.67 4.70388 17.04L6.00388 15.75V10.75C6.00388 7.67 7.63388 5.11 10.5039 4.43V3.75C10.5039 2.92 11.1639 2.25 11.9939 2.25C12.8239 2.25 13.5039 2.92 13.5039 3.75V4.43C16.3639 5.11 18.0039 7.68 18.0039 10.75ZM13.9939 19.75C13.9939 20.85 13.0939 21.75 11.9939 21.75C10.8839 21.75 9.99388 20.85 9.99388 19.75H13.9939ZM6.77388 4.48C7.19388 4.1 7.20388 3.45 6.80388 3.05C6.42388 2.67 5.80388 2.66 5.41388 3.03C3.70388 4.59 2.52388 6.71 2.14388 9.09C2.05388 9.7 2.52388 10.25 3.14388 10.25C3.62388 10.25 4.04388 9.9 4.12388 9.42C4.42388 7.48 5.38388 5.75 6.77388 4.48ZM17.2039 3.05C17.5839 2.67 18.2039 2.66 18.6039 3.03C20.3039 4.6 21.4739 6.71 21.8539 9.08C21.9539 9.69 21.4739 10.24 20.8639 10.24C20.3739 10.24 19.9539 9.89 19.8839 9.41C19.5839 7.47 18.6139 5.74 17.2339 4.47C16.8239 4.09 16.8039 3.45 17.2039 3.05Z" fill="black" fill-opacity="0.54"/>
</g>
</svg>
