<svg width="24" height="24" viewBox="0 0 24 24" fill="none" xmlns="http://www.w3.org/2000/svg">
<g id="notifications_off_24px">
<path id="icon/social/notifications_off_24px" fill-rule="evenodd" clip-rule="evenodd" d="M17.3049 10.75C17.3049 7.68 15.6649 5.11 12.8049 4.43V3.75C12.8049 2.92 12.1349 2.25 11.3049 2.25C10.4749 2.25 9.80493 2.92 9.80493 3.75V4.43C9.60285 4.48052 9.40785 4.55231 9.21995 4.62149L9.21993 4.6215L9.11493 4.66L17.3049 12.85V10.75ZM11.3049 21.75C12.4049 21.75 13.3049 20.85 13.3049 19.75H9.30493C9.30493 20.85 10.1949 21.75 11.3049 21.75ZM3.30493 4.51L4.71493 3.1L20.6949 19.08L19.2849 20.49L17.5449 18.75H4.71493C3.82493 18.75 3.38493 17.67 4.01493 17.04L5.30493 15.75V10.75C5.30493 9.48 5.59493 8.32 6.11493 7.32L3.30493 4.51Z" fill="black" fill-opacity="0.54"/>
</g>
</svg>
