<svg width="24" height="24" viewBox="0 0 24 24" fill="none" xmlns="http://www.w3.org/2000/svg">
<g id="notifications_paused_24px">
<path id="icon/social/notifications_paused_24px" fill-rule="evenodd" clip-rule="evenodd" d="M19.2901 17.04L18.0001 15.75V10.75C18.0001 7.68 16.3601 5.11 13.5001 4.43V3.75C13.5001 2.92 12.8301 2.25 12.0001 2.25C11.1701 2.25 10.5001 2.92 10.5001 3.75V4.43C7.63005 5.11 6.00005 7.67 6.00005 10.75V15.75L4.71005 17.04C4.08005 17.67 4.52005 18.75 5.41005 18.75H18.5801C19.4801 18.75 19.9201 17.67 19.2901 17.04ZM12.0001 21.75C13.1001 21.75 14.0001 20.85 14.0001 19.75H10.0001C10.0001 20.85 10.8901 21.75 12.0001 21.75ZM14.2001 9.92C14.3901 9.68 14.5001 9.39 14.5001 9.08C14.5001 8.34 13.9101 7.75 13.1801 7.75H10.4001C9.90005 7.75 9.50005 8.15 9.50005 8.65C9.50005 9.15 9.90005 9.55 10.4001 9.55H12.3001L9.80005 12.58C9.61005 12.82 9.50005 13.11 9.50005 13.42V13.43C9.50005 14.16 10.0901 14.75 10.8201 14.75H13.6001C14.1001 14.75 14.5001 14.35 14.5001 13.85C14.5001 13.35 14.1001 12.95 13.6001 12.95H11.7001L14.2001 9.92Z" fill="black" fill-opacity="0.54"/>
</g>
</svg>
