<svg width="24" height="24" viewBox="0 0 24 24" fill="none" xmlns="http://www.w3.org/2000/svg">
<g id="party_mode_24px">
<path id="icon/social/party_mode_24px" fill-rule="evenodd" clip-rule="evenodd" d="M20 5H16.83L15.59 3.65C15.22 3.24 14.68 3 14.12 3H9.88C9.32 3 8.78 3.24 8.4 3.65L7.17 5H4C2.9 5 2 5.9 2 7V19C2 20.1 2.9 21 4 21H20C21.1 21 22 20.1 22 19V7C22 5.9 21.1 5 20 5ZM12 8C13.63 8 15.06 8.79 15.98 10H12C10.34 10 9 11.34 9 13C9 13.35 9.07 13.69 9.18 14H7.1C7.04 13.68 7 13.34 7 13C7 10.24 9.24 8 12 8ZM8.02 16C8.94 17.21 10.37 18 12 18C14.76 18 17 15.76 17 13C17 12.66 16.97 12.32 16.9 12H14.82C14.93 12.31 15 12.65 15 13C15 14.66 13.66 16 12 16H8.02Z" fill="black" fill-opacity="0.54"/>
</g>
</svg>
