<svg width="24" height="24" viewBox="0 0 24 24" fill="none" xmlns="http://www.w3.org/2000/svg">
<g id="school_24px">
<path id="icon/social/school_24px" fill-rule="evenodd" clip-rule="evenodd" d="M2.06364 8.11625L10.4936 3.51625C11.0936 3.19625 11.8136 3.19625 12.4136 3.51625L21.9336 8.70625C22.2536 8.88625 22.4536 9.21625 22.4536 9.58625V15.9963C22.4536 16.5463 22.0036 16.9963 21.4536 16.9963C20.9036 16.9963 20.4536 16.5463 20.4536 15.9963V10.0863L12.4136 14.4763C11.8136 14.8063 11.0936 14.8063 10.4936 14.4763L2.06364 9.87625C1.37364 9.49625 1.37364 8.49625 2.06364 8.11625ZM4.45364 15.9863V13.1763L10.4936 16.4763C11.0936 16.8063 11.8136 16.8063 12.4136 16.4763L18.4536 13.1763V15.9863C18.4536 16.7163 18.0536 17.3963 17.4136 17.7463L12.4136 20.4763C11.8136 20.8063 11.0936 20.8063 10.4936 20.4763L5.49364 17.7463C4.85364 17.3963 4.45364 16.7163 4.45364 15.9863Z" fill="black" fill-opacity="0.54"/>
</g>
</svg>
