<svg width="24" height="24" viewBox="0 0 24 24" fill="none" xmlns="http://www.w3.org/2000/svg">
<g id="thumb_down_alt_24px">
<path id="icon/social/thumb_down_alt_24px" fill-rule="evenodd" clip-rule="evenodd" d="M16.5784 15.7081L11.0484 21.2481C10.4684 21.8381 9.52836 21.8381 8.93836 21.2581C8.57836 20.8981 8.42836 20.3881 8.52836 19.8881L9.47836 15.3081H3.82836C1.67836 15.3081 0.228357 13.1081 1.07836 11.1281L4.33836 3.51812C4.64836 2.78812 5.36836 2.30812 6.16836 2.30812H15.1584C16.2584 2.30812 17.1584 3.20812 17.1584 4.30812V14.2981C17.1584 14.8281 16.9484 15.3381 16.5784 15.7081ZM19.1684 4.30812C19.1684 3.20812 20.0684 2.30812 21.1684 2.30812C22.2684 2.30812 23.1684 3.20812 23.1684 4.30812V12.3081C23.1684 13.4081 22.2684 14.3081 21.1684 14.3081C20.0684 14.3081 19.1684 13.4081 19.1684 12.3081V4.30812Z" fill="black" fill-opacity="0.54"/>
</g>
</svg>
