<svg width="24" height="24" viewBox="0 0 24 24" fill="none" xmlns="http://www.w3.org/2000/svg">
<g id="thumb_up_alt_24px">
<path id="icon/social/thumb_up_alt_24px" fill-rule="evenodd" clip-rule="evenodd" d="M7.4091 8.29188L12.9491 2.75188C13.5291 2.16188 14.4691 2.16188 15.0591 2.74188C15.4191 3.10188 15.5691 3.61188 15.4691 4.11188L14.5191 8.69188H20.1691C22.3191 8.69188 23.7691 10.8919 22.9291 12.8719L19.6691 20.4819C19.3491 21.2119 18.6291 21.6919 17.8291 21.6919H8.8291C7.7291 21.6919 6.8291 20.7919 6.8291 19.6919V9.70188C6.8291 9.17188 7.0391 8.66188 7.4091 8.29188ZM4.8291 19.6919C4.8291 20.7919 3.9291 21.6919 2.8291 21.6919C1.7291 21.6919 0.829102 20.7919 0.829102 19.6919V11.6919C0.829102 10.5919 1.7291 9.69188 2.8291 9.69188C3.9291 9.69188 4.8291 10.5919 4.8291 11.6919V19.6919Z" fill="black" fill-opacity="0.54"/>
</g>
</svg>
